ply
format ascii 1.0
element vertex 2383
property float x
property float y
property float z
end_header
17377 27595 1539
15094 25393 1539
13639 22517 1539
15101 26508 1539
17482 28335 1539
14006 23466 1539
13167 23887 1539
11901 22168 1539
56048 26789 23042
57712 24992 19945
55134 27778 20230
59354 23217 16686
59004 23595 17253
51906 31266 23707
59004 23595 19547
52794 30306 22803
59066 23528 15160
58756 23862 20408
52414 30717 23584
59486 23074 20421
55178 27730 21310
57762 24938 23244
58327 24327 22161
59565 22989 17934
56561 26236 19529
58463 24180 18141
56859 25913 21010
55793 27065 23771
56048 26789 22013
58820 23794 15809
54988 27936 22209
59904 22622 18658
58910 23697 16550
58112 24558 22761
77852 8389 24655
88804 19119 6369
88804 20053 3520
88804 18751 4999
73197 3729 25734
79692 15022 398
13960 11118 20942
75980 7699 22712
88992 6639 4410
88992 7420 19774
88992 5808 2094
88992 7263 17038
88992 7454 12143
88992 6724 11622
88992 7113 9152
88992 6663 12930
88992 12099 1001
88992 8451 1121
88992 14174 846
20067 13537 25949
13525 5557 21233
16600 15522 25952
82554 12286 23388
82182 12770 23403
15393 20375 13551
11359 20375 10219
16853 20375 15283
10587 20375 8938
15830 20375 9990
21831 20375 13695
21115 20375 5748
21102 20375 7629
21002 20375 15008
12346 20375 7552
19565 20375 18380
20504 20375 19075
16582 20375 6403
20147 20375 16349
13084 20375 11620
17245 20375 8723
16305 20375 13946
13214 20375 5607
17946 20375 10415
18187 20375 15982
14694 20375 6662
12193 20375 10895
12681 20375 9001
22387 20375 10504
14912 20375 7754
15561 20375 14441
19918 20375 11687
22837 20375 21308
18891 20375 11674
13522 20375 7086
8916 20375 5751
19536 20375 7176
9718 20375 7778
22417 20375 6828
15762 20375 12846
20347 20375 8947
73365 7634 21162
22864 7211 20364
22864 6748 14137
22864 6609 17152
22864 6322 18391
88992 13372 16636
21664 9136 20794
78142 22584 9780
72938 22621 7889
61093 23554 11281
72301 22770 8968
60729 23484 10486
74199 22471 7062
70791 22752 8156
61126 23142 7561
65546 22643 4926
71426 22960 10309
62116 23267 9112
79488 22378 8486
64195 23291 10224
74010 22858 10498
69824 23085 10758
64114 23400 11176
78816 22288 7377
66144 23324 11356
64493 22539 3528
78719 22424 8572
64866 23289 10489
76980 22369 7330
64957 22878 6804
61470 22749 4139
80981 22376 9109
63397 23465 11457
68148 22865 8045
76053 22616 9177
66484 23131 9749
64585 22740 5388
66969 22884 7720
61193 22931 5673
73736 22540 7491
62251 23021 6937
62811 22701 4277
69132 22492 5087
80194 22199 7161
67295 23133 10112
68306 23047 9769
65924 23048 8759
68995 23181 11275
61478 21851 25257
77231 7575 6080
75580 3764 21162
37224 33507 13618
35968 33528 16210
37420 33504 6548
35904 33529 18983
37331 33505 4094
37227 33507 15255
35353 33539 21037
37062 33510 9298
37014 33511 12509
34784 33548 23287
35967 33529 22836
36744 34334 1691
88992 16935 25351
80563 14092 6519
74041 7394 2572
71946 6869 1948
18744 14804 897
19041 14576 1728
19087 14540 6998
19889 13925 6384
19104 14528 2775
18837 14732 5245
18797 14763 11285
19126 14511 6129
19921 13901 7256
18774 14781 3722
79106 4333 6373
76094 9255 21162
21725 21988 928
7451 21988 751
88992 12918 6941
82239 13444 427
18710 8948 5000
35400 21988 17173
33878 21988 11608
33892 21988 7359
34911 21988 24114
34895 21988 12402
33855 21988 8351
34859 21988 18603
34465 21988 10940
33941 21988 15654
33865 21988 4423
34164 21988 13858
68155 6799 19349
72757 7236 21162
15371 150 25353
16112 248 23034
8447 2926 432
8431 2946 1971
89242 17850 24948
89242 18429 24028
3364 8003 739
1813 8746 739
3518 8695 739
2502 10770 739
4589 8077 739
4452 6954 739
69369 8957 2134
69255 8098 2718
21585 6277 1056
21687 7056 1587
69070 14566 21162
10382 8131 21321
83645 13765 21162
88992 16784 21542
70917 13543 566
75675 14883 2692
74922 14783 2304
744 17974 7355
88852 13358 5342
1299 21616 2592
76542 3984 6373
68155 7114 23622
1548 16633 22013
42874 25988 24884
47596 26698 24884
42187 28643 24884
41452 27444 24884
42904 27015 24884
38262 30192 24884
48746 26145 24884
41334 26183 24884
48951 24196 24884
54800 24476 24884
44724 28342 24884
41940 24509 24884
54116 24125 24884
43579 27783 24884
59024 22322 24884
47882 26042 24884
52423 23689 24884
57806 22497 24884
56330 23591 24884
43245 22470 24884
39550 23034 24884
48987 27552 24884
41463 23117 24884
40609 25380 24884
44917 22478 24884
51033 23672 24884
52105 22726 24884
37522 33364 24884
40385 29418 24884
41976 27128 24884
48233 22549 24884
45814 26759 24884
46304 27391 24884
46751 24390 24884
40997 31012 24884
39001 24657 24884
50595 24909 24884
41051 30122 24884
44222 32987 24444
76357 4872 21456
80452 15064 13024
80807 14917 20457
79681 15384 16618
79746 15357 24057
80534 15031 24078
79728 15364 21080
80288 15132 22226
80631 14990 13973
80541 15027 18433
79632 15404 15856
6279 24167 24644
3695 23950 24061
88992 9156 19374
88992 10189 22623
88992 8986 13481
88992 8189 13043
88992 8286 15045
88992 9172 18470
88992 7969 13889
88992 7848 16295
88992 8824 22641
88992 8382 24892
88992 8656 10136
88992 8333 19310
6957 8961 3551
6901 8525 1593
71005 12913 5230
70318 12017 2373
68204 7931 1973
68384 9292 4751
84618 22955 14022
71859 23161 11442
70674 23337 12616
75773 23131 12531
79773 22914 11970
79602 23085 13455
83406 22987 13896
70554 23245 11749
81085 22824 11607
78499 23114 13334
64029 22693 4483
67521 23500 12990
73845 23162 12144
62324 23136 7894
85362 22898 13773
67299 22788 6486
79938 22810 11087
66738 22678 5294
84277 22876 13193
61357 23230 8409
62288 23473 10927
75387 23062 11775
80596 22948 12564
77894 22893 11125
71823 23332 12976
63218 23258 9303
72466 22975 9974
68706 22761 6727
73973 23258 13053
64077 23221 9274
61926 22678 3613
70746 23166 11095
65114 23094 8490
64042 22875 6139
77202 23056 12351
73421 22776 8510
1556 14624 14789
1556 14241 6503
1556 14551 21810
15614 12113 21233
78784 14868 23949
17531 8685 1264
18892 9596 796
21344 33293 24643
22337 32616 17684
21842 32541 21868
23089 32731 16291
22512 32643 15154
23254 32757 7415
21057 32421 23795
21786 32532 20906
22008 32566 23486
22547 32649 19202
21487 32486 19378
23042 32724 8470
69374 5131 3898
69557 4691 3299
79281 8454 21456
77167 7158 22707
71029 12202 24935
71348 12618 22539
17846 1137 4600
17876 1149 458
75915 11326 6080
14332 28545 24608
78421 11337 21456
15644 8605 5000
15067 6265 5294
13179 5714 5000
61185 22533 22237
60577 23646 14291
69228 9401 26351
1556 15176 25685
1556 18107 24874
89418 8918 6216
89336 8687 5111
84105 8218 4457
84146 7901 2626
18662 1806 24628
18864 1961 25456
1272 20282 13317
86910 15016 22847
42267 21441 25386
46204 21183 25467
58119 20678 25625
43971 21460 25380
60363 20362 25724
57696 21124 25485
34858 21654 25319
44787 21078 25500
56998 21248 25447
47497 21785 25278
46806 21751 25289
47591 32527 2007
77307 431 2285
77931 513 5114
87646 14707 22323
69307 7311 26351
72998 9090 21456
17055 26306 1539
16730 25783 1539
20346 11816 1824
19641 12734 1535
10734 5044 5000
88628 19652 10407
88628 18501 19529
88628 19546 17053
88628 20815 13493
88628 19719 12955
88628 20136 15563
88628 21053 8898
88628 15270 18334
88628 17168 18642
88628 17486 19392
88628 20215 17912
88628 19159 15315
88628 19413 18933
88628 21529 13184
88628 21039 12546
88628 20350 11521
88628 18373 13786
88628 21039 10472
1556 16213 1329
88385 14469 22441
76374 870 26179
55225 27679 24588
51627 31567 24368
53424 29625 24461
44296 33803 24398
82020 12824 1184
24905 26613 24884
23127 30085 24884
26452 25226 24884
19881 28040 24884
32243 22467 24884
26538 23592 24884
17505 23846 24884
27154 25423 24884
19960 24658 24884
29618 23691 24884
24248 27513 24884
31556 23386 24884
22922 25151 24884
21814 26919 24884
21509 30143 24884
26289 27074 24884
21284 27885 24884
23563 29288 24884
27306 23238 24884
28453 25372 24884
26925 22286 24884
23554 25020 24884
19194 25895 24884
29367 24926 24884
18574 22558 24884
24173 24029 24884
23836 23060 24884
25992 24266 24884
22572 31017 24884
76838 21988 20000
71247 21988 21241
83029 21988 18444
70583 3490 24006
70619 3443 24797
89318 22108 12721
89318 22637 11950
89318 22745 14929
9371 23607 2002
8167 23505 1749
88992 20995 23987
13202 10953 5000
70988 2452 25420
70878 2596 22644
68977 8358 1382
69109 9365 4370
88297 23228 15019
0 18667 18188
0 18718 16352
8173 11670 105
20787 4203 24096
21040 4815 24436
77341 7976 21456
35455 34356 24402
7229 12021 12089
7914 12915 8349
7182 11960 11424
7549 12438 15893
7812 12782 5995
7246 12045 20027
7619 12529 12485
7617 12529 11432
7665 12590 4912
7646 12565 3322
15976 3576 5294
9502 21988 25149
78615 8558 21162
70511 15740 7525
74020 15740 10861
81515 15740 15663
80896 15740 8720
77116 15740 14291
78354 15740 13469
83997 15740 12022
74643 15740 9168
71851 15740 7531
75634 15740 8441
75717 15740 7041
72420 15740 8476
84219 15740 11307
79733 15740 11669
80526 15740 10790
84460 15740 16971
81668 15740 15017
78773 15740 9957
79820 15740 8057
84842 15740 13392
80247 15740 9068
81001 15740 7911
82985 15740 7457
83637 15740 9876
83565 15740 14265
69886 15740 7002
84845 15740 19745
83595 15740 7987
77344 15740 10060
78521 15740 8239
79198 15740 13731
76740 15740 8083
85101 15740 20986
75874 15740 11610
82084 15740 17201
74610 15740 11640
83193 15740 15635
73832 15740 9249
77208 15740 7299
81123 1684 1184
1556 18428 2305
83556 12327 8872
83695 12146 24051
83114 12902 19463
83697 12143 19584
83353 12591 15987
83370 12569 20855
83013 13034 20064
83627 12234 18601
83666 12183 10447
83756 12066 12231
6357 9728 25899
78929 323 21016
17218 10154 21233
51021 31919 1871
88950 19976 22451
78395 7816 6373
81457 10843 21162
13993 8095 4048
14916 27920 21262
14685 27524 17748
15879 29580 15791
16266 30248 13528
13784 25968 22708
15019 28097 15021
16532 30705 6543
16534 30711 15054
16377 30440 17686
14385 27005 23147
15926 29662 9624
15695 29265 20836
16632 30878 21080
15740 29342 18430
16474 30606 11011
14828 27769 21921
15335 28643 17095
16109 29976 10526
13499 25478 23403
15343 28656 11184
10937 15218 12882
10407 14998 991
10350 14975 3407
11358 15392 9490
10260 14937 20454
10182 14905 8088
11260 15351 11737
11242 15344 10268
10782 15154 4912
12385 3679 21233
10185 1301 24849
10032 1419 23368
88981 17606 1539
14619 8271 22274
71277 12189 21162
17031 6784 5000
76459 118 21016
16216 8446 21233
12292 14912 844
69639 5303 2412
76796 12320 6321
15653 12152 842
13368 15753 597
77950 14244 1345
12267 23836 2225
81648 6524 21162
80865 6920 21162
78043 6578 21162
80200 6315 21162
76659 6556 21162
84335 6137 21162
36631 31024 24884
36869 24147 24884
75686 12141 21397
6075 8747 1952
5923 7594 4974
15016 7891 3732
88917 22311 8953
88751 22859 12936
33782 33535 1764
3284 23089 9758
75624 6580 21456
78996 10278 21456
69276 9946 1184
14848 8033 2056
17069 31404 19102
851 19965 10388
2663 22803 10496
82112 13462 21162
72707 5263 6373
79789 14518 2086
74794 11772 21456
18675 32817 24690
81368 13083 23810
80895 13446 25299
18774 13746 5440
89318 13782 8098
39629 34213 1739
13999 7096 21307
15431 5266 24777
16240 2790 25533
89041 21612 16452
83530 8187 21162
83112 9653 21162
83272 10340 21162
83374 12017 21162
83156 8750 21162
85078 12370 21162
84119 9491 21162
82446 7778 21162
89676 11340 20112
8055 3921 23199
8064 3911 22516
74835 14987 6519
74142 8128 21162
70367 11849 25575
70104 11506 23854
21437 10358 25889
21207 10914 23026
77812 5924 6080
86826 22036 12984
66914 23346 13094
84993 22157 12952
85599 22117 12262
86954 22028 11890
78056 22613 13173
87342 22002 13506
72900 22952 12929
84523 22188 13606
1556 14439 23107
1556 8866 19211
1556 14114 13315
1556 11003 22659
1556 11546 21327
1556 14244 19990
1556 11151 24640
1556 11785 23706
1556 14094 7875
1556 12407 17485
1556 12164 24735
1556 11431 16796
1556 12975 15275
1556 6717 25125
1556 9753 21305
1556 10542 23960
1556 6451 25734
1556 12607 25683
1556 9031 23383
1556 9961 22840
1556 10808 18498
1556 13442 6659
1556 14163 24897
1556 7889 24365
1556 14383 16385
1556 11877 11749
1556 7449 23249
1556 12731 11047
1556 10351 25498
15537 7045 21233
14712 8192 5290
21874 11442 17702
22116 10859 2071
22180 10704 10356
22201 10650 6117
22162 10746 8130
22228 10587 3359
22192 10673 8832
21889 11405 5477
22292 10433 4441
1556 19738 10549
1556 19385 7488
1556 19521 8752
78366 5409 21456
76556 6074 24674
89317 9687 3809
89516 10663 5209
1301 20981 24788
8122 6788 372
10337 7063 1022
83857 7601 4008
83798 7156 3312
33393 33529 19731
34360 33545 16915
34459 33547 12714
34047 33540 18457
33558 33531 16364
34442 33546 14033
32612 33515 22052
34054 33540 11281
32660 33516 23219
34242 33543 22374
34520 33548 9390
1278 14066 1202
70373 14186 21162
75444 15873 15382
75762 15915 20161
75182 15838 22055
75423 15870 24047
75540 15885 16838
76093 15958 15882
76131 15963 22329
76439 16004 21228
11372 6766 1312
82772 3851 5850
82591 3616 3643
83474 5424 1804
82934 4118 1339
76787 8426 24498
77095 11974 25537
40799 34138 24280
19017 7593 21125
82211 5672 21162
71127 2253 5205
72053 1543 3214
74164 10881 21162
20493 13403 8051
20832 12960 12553
20463 13441 8964
21496 12096 1194
20802 12998 17173
21023 12712 1900
21248 12418 6764
20386 13542 16096
20588 13278 15091
74987 4833 6373
6880 6315 25560
6795 6968 24991
5643 23293 24405
4374 23186 24435
18386 6101 5294
47267 32577 24753
12081 354 1011
10912 839 116
14840 15969 5190
14489 16016 9038
15606 15869 2272
14425 16024 4321
15460 15888 12155
14735 15983 20468
15561 15874 6031
16108 15802 3478
15419 15893 8719
213 19227 17322
14912 8822 24400
12542 14675 2078
13142 14754 1529
433 19174 8316
77621 15071 24197
13799 4773 21233
89043 14649 6975
7438 10532 1567
7794 11392 1428
19372 13883 26101
13277 24982 10243
89438 9147 21251
89728 10282 18889
21327 33290 1815
5918 7013 3255
68290 8234 685
82507 2763 24937
82735 3061 25796
13984 7320 24178
74685 5989 6080
81236 13607 3671
80454 14207 1481
15455 15793 644
15904 6487 1689
70215 11172 21016
21156 8179 25995
3094 23012 22241
70240 3409 2458
70088 3607 3844
77007 315 1184
2732 22839 1631
16249 10779 5294
75080 7122 6373
13505 5242 1487
77231 15577 367
75951 8050 3116
79259 10521 6080
71878 13646 3218
71925 13683 1187
81250 14112 26192
21484 4889 5440
5918 16842 20588
5918 10908 11161
5918 12873 18717
5918 14277 16372
5918 8636 9239
5918 10270 16914
5918 9706 13928
5918 8560 21310
5918 9390 16100
5918 19320 20865
5918 17664 19998
5918 7975 15170
5918 8596 16039
5918 11048 14842
5918 11276 16329
5918 13395 19391
5918 9190 20853
5918 17862 19183
5918 16399 19746
5918 13205 13419
5918 11367 12487
5918 14071 14955
5918 12176 11867
5918 12615 20113
5918 8677 14032
5918 11626 20226
5918 9355 9459
5918 8710 19583
5918 10731 15563
5918 11450 19494
5918 8531 12192
35819 27661 24884
35515 25390 24884
35968 26189 24884
33924 22535 24884
35902 30902 24884
75393 165 1332
74800 244 5002
15725 427 914
16311 504 3877
66653 21988 22109
73807 21988 19840
81978 21988 16828
65225 21988 22640
85628 21988 17219
76286 21988 18978
64187 21988 22987
74845 6372 21456
89412 10995 22292
75946 5329 2587
79345 10805 21162
73754 15355 641
68422 22167 21414
78689 22238 17866
77933 22095 18170
80612 22195 17219
1556 18830 13848
81452 2406 1216
87316 15360 3656
19824 12981 22917
20695 11846 25699
69160 7469 21016
89932 10887 10635
87016 10414 25795
88556 13980 25795
87245 11738 25795
87700 8018 25795
88162 8419 25795
88572 6474 25795
88365 13179 25795
88077 7138 25795
70497 3583 1522
70978 2956 2607
87432 13323 23203
40963 34124 1839
5268 5956 22692
5040 5956 23859
25967 33087 20723
26018 33093 6846
25655 33050 21961
25411 33021 18606
25246 33002 11333
24473 32910 23722
24839 32953 20256
25491 33031 12734
24402 32902 17750
11941 7458 5000
17354 14287 24874
17790 14107 24466
10429 6090 20940
17482 15368 1674
17055 15544 9547
17944 15177 2853
17208 15482 17342
16760 15667 21753
17475 15371 6847
17458 15378 12247
17525 15350 8195
41394 33266 24661
22838 19077 25750
22864 9630 8771
22864 8389 11337
22864 8242 13447
22864 12240 11746
22864 8709 14797
22864 11785 12342
22864 17269 8886
22864 7731 8685
22864 9263 7193
22864 11465 15553
22864 19925 5698
22864 10468 7060
22864 16471 8694
22864 15783 5835
22864 7674 17646
22864 13557 13478
22864 8302 10616
22864 8063 19582
22864 11121 16123
22864 9429 12398
22864 8475 16850
22864 9804 17945
22864 9357 19171
22864 12654 12902
22864 11818 13848
22864 14503 10548
22864 17756 5603
22864 17397 7120
22864 10256 15164
22864 11954 15126
22864 9972 11191
22864 14428 11891
22864 8984 9184
14932 11926 5294
14385 47 5440
16181 5201 5294
20777 3415 411
88992 15391 22156
77232 15567 26180
75921 15228 4301
75720 15201 1719
17942 10683 20974
85101 7800 18799
85101 7658 20889
85101 10993 19614
85101 7676 10740
85101 12888 18851
85101 8927 16170
85101 13327 20347
85101 11096 16396
85101 10972 17934
85101 9833 18638
85101 11752 20003
85101 10095 12160
85101 14713 20747
85101 11557 13947
85101 9287 19241
85101 11755 16456
85101 8711 18101
85101 12744 17592
85101 8349 9716
85101 9165 13604
72268 1769 2044
72781 1375 6121
79040 14426 25562
80206 13943 21352
73692 9679 21456
89854 10227 12681
89420 8882 16873
89357 8688 15646
89436 8934 9343
89849 10212 13642
89367 8719 14370
89633 9543 9161
89459 9003 12853
89235 8309 11992
89053 7744 22289
89573 9357 14501
89231 8296 20460
72963 1204 25035
73213 1100 25766
617 19362 14277
1612 20315 11883
367 19122 14835
88992 15989 3339
76061 5186 6373
73399 6724 2365
69199 5904 24994
69133 6406 25536
14461 15899 25872
69720 10216 3943
78997 6404 6080
77878 15131 4464
78432 15058 1654
71429 10171 25924
81091 8154 21162
2076 22428 10794
18404 14107 22202
18815 13791 24793
73400 14924 370
10027 1799 1966
10247 1630 796
12885 3909 5294
18576 32798 2120
22864 7948 25605
83908 7963 23016
83807 8731 26163
88640 17756 20749
71806 13411 24399
71678 13313 26244
19131 1775 23917
22696 8834 9844
22813 7945 4238
22626 9367 13312
22586 9664 22399
22631 9324 15588
22610 9487 14151
22778 8210 3062
22713 8705 2683
22619 9419 2421
75399 12168 6080
88992 13276 6232
78948 5131 21456
13815 8295 5294
78407 143 23465
77614 39 25906
84169 8356 24232
81165 13271 1431
81023 13380 2143
75966 7482 22005
83484 10813 25822
83587 10566 24613
84526 10441 15101
84079 11519 24613
84554 10373 21736
84798 9783 2851
84509 10481 13942
84605 10249 7389
84600 10261 25495
84644 10156 18889
84776 9837 23721
84511 10476 12259
76443 6486 6080
77044 11680 6373
69376 6936 23865
88992 12508 1591
986 18953 18512
73804 14738 3759
74787 4293 21162
75606 15723 25965
75541 14746 25761
76223 14835 25837
88777 21612 19204
79692 9985 21162
83548 4791 2969
83188 3921 2615
11682 4206 20940
83707 8863 1281
83639 9381 2141
76624 11225 25310
77184 13569 25997
14819 2949 5000
68155 7692 20748
68155 12705 18815
68155 7683 18630
68155 10602 18404
76536 8326 5344
77386 3684 6373
8326 5248 25904
1556 16338 5039
1556 14527 5249
22864 7246 23740
22864 7520 22636
75264 9990 21162
71629 13065 5501
71579 13026 3142
79724 4680 21456
79120 5176 2265
88992 6967 1483
13817 8065 23743
88381 18307 21458
78484 15784 12053
78099 15835 24077
77275 15943 18970
78179 15824 18620
77275 15943 23568
76835 16001 25552
77810 15873 20911
78168 15826 14101
77887 15863 20142
78898 4517 21215
11438 662 25105
12067 402 26056
7462 5122 5440
77408 6917 21456
15656 29196 1924
76413 8986 6373
79211 756 25225
79410 838 23715
74242 4600 21162
77529 10897 6373
74403 10037 21162
7472 5163 26129
12364 573 3983
11556 908 1228
15092 9977 5000
10323 6553 5000
17619 4462 20940
75820 5956 6080
14833 27777 24701
75814 10627 21456
16955 433 491
16525 254 4780
69874 5990 21162
1556 16070 20234
1556 18203 21809
14562 12126 20940
36117 25631 1539
36255 28470 1539
36251 29419 1539
34654 25515 1539
34988 24753 1539
14061 6331 24402
88381 17748 22933
22864 5800 14210
68406 10239 21162
69871 12463 21162
68451 13363 21162
71126 7881 21162
70029 10514 21162
72133 8349 21162
70882 10249 21162
69519 11169 21162
17205 5046 21233
7157 5324 4205
7525 4437 469
7843 10951 23273
7862 10998 25226
22201 10064 25985
60755 22576 8102
60722 22009 8736
60808 21964 1140
64755 23125 16644
63172 22810 18735
67261 23499 14060
77342 22747 16949
75013 22477 18891
77535 22618 17679
63780 22542 20218
72481 23085 15699
65716 22475 20319
78728 23145 14398
69999 22409 20055
67900 22820 17960
80428 23025 14846
70822 22811 17565
81950 22919 15236
70606 22657 18503
66754 22317 21088
71928 22465 19429
62516 23149 16839
76364 22733 17179
61683 22752 19305
62386 22622 19962
65953 23483 14353
65682 23243 15805
74851 22753 17294
74166 23011 15882
69527 22784 17922
68415 23313 14982
65081 23613 13722
69785 23196 15460
63505 23493 14669
63082 22599 19992
71781 22577 18798
82062 23029 14573
61522 22367 21591
78582 22678 17168
64516 22282 21637
64451 23557 14146
71004 22355 20219
68798 22638 18892
72012 22719 17924
67187 22942 17349
68450 22394 20380
2752 22849 22979
81257 21988 19938
79397 21988 20018
85081 21988 18568
73269 21988 21372
88831 20326 5291
74489 14539 26301
74443 14520 25676
60587 21988 7656
7156 24241 1869
4881 24050 2034
84008 6369 4188
83923 5726 3140
88992 16677 4838
14707 7103 22571
6834 8659 24435
6736 7911 24351
88992 13062 21726
17431 820 105
14254 4009 21233
79485 1016 3065
79334 953 3680
8170 12062 24650
77792 8679 21162
88992 11937 25730
47391 32558 14438
48034 32460 15572
48579 32376 12034
48217 32432 19490
46829 32644 18467
48079 32453 21919
47247 32580 22456
47269 32577 16359
47751 32503 21141
48407 32402 18205
9850 13635 544
9975 13731 2220
11846 778 105
12097 23862 17540
21926 8185 25799
21873 8598 23944
84333 21988 14583
72922 14226 21476
88992 15870 1418
88992 15546 2138
88992 19864 1023
51367 32687 24863
89231 10261 3112
89192 11637 2865
12249 11631 883
15675 21988 19255
14976 21988 22083
14684 21988 7704
15850 21988 24107
14806 21988 13343
15614 21988 21623
14895 21988 10720
15204 21988 14887
15806 21988 18242
16679 30954 1679
69400 8352 25448
45146 20413 900
49448 20566 940
30905 19966 784
60013 20215 849
53469 21133 1086
56218 21353 1143
58913 21284 1125
41696 20024 799
58250 20071 811
59299 20253 859
47482 20802 1000
55502 21174 1097
51629 20276 864
34953 20458 912
12287 11303 25216
71426 1992 25985
72239 1368 26057
19830 13651 485
68963 7695 1184
7181 8917 24948
7215 9175 22490
12952 15322 26264
85420 5699 6121
87510 5699 2291
88581 5699 1174
87550 5699 1340
82630 13784 21162
79671 11480 21162
76128 7378 6080
8243 11477 2226
75869 7743 4626
68155 6896 2837
68155 7285 3994
75382 233 6519
37993 25604 1539
38315 24012 1539
37818 30252 1539
37763 24637 1539
78398 9232 6080
12350 5833 5294
11410 14650 23592
18781 2764 337
88213 18420 23873
79132 534 4270
14751 4506 5000
22864 8381 1197
71282 21988 17697
67851 21988 18794
83227 21988 16143
70397 21988 15797
86209 21988 15177
63737 21988 22209
62323 21988 17605
61271 21988 17329
67213 21988 17090
83739 21988 15052
67810 21988 14126
64551 21988 16619
82688 21988 15139
75438 21988 16929
72783 21988 18287
64995 21988 15354
61522 21988 14725
80059 21988 14526
83860 21988 15753
76393 21988 17506
68828 21988 17925
79593 21988 15166
73569 21988 14977
62347 21988 18813
62292 21988 15176
78530 21988 17116
67274 21988 14644
61503 21988 20349
66332 21988 16275
74768 21988 15091
75153 21988 17557
84621 21988 15220
66387 21988 19022
68927 21988 21117
80493 21988 15935
68536 21988 15458
74562 21988 16305
66053 21988 14542
71318 21988 15911
39109 33420 11637
39568 33397 8698
39634 33393 18125
40212 33364 23163
39550 33398 15112
38937 33429 15581
39048 33423 19359
39866 33382 17090
39237 33414 21539
40259 33362 19534
89581 11794 5782
89620 12270 6234
7039 7694 5440
83754 4949 25193
83773 4996 24064
13977 3896 5294
18186 5896 21233
20568 11912 105
15531 11011 5000
56749 27092 2665
14157 10522 21233
17753 6431 5000
11864 8490 20940
21646 8439 1964
21512 9452 1593
8927 12539 24426
9137 12812 25763
85101 6871 24633
1506 17579 19050
1367 16423 19050
10560 14234 20794
88992 17141 22782
12324 23969 5065
7551 9994 221
7404 9640 4345
64407 22773 18379
74684 22675 16197
67197 22594 18695
73355 22535 17387
74174 22588 16852
61331 23056 17521
79640 22121 18163
70128 22097 20864
69303 22727 17336
72538 22098 20212
63627 23114 16562
78089 22086 18787
81568 22380 16098
61981 23485 14794
69743 22418 19059
77224 22172 18506
62703 22154 22523
63549 23275 15626
73083 21989 20710
71228 22451 18459
66156 22467 19733
73307 22338 18575
62982 23209 16166
73127 22179 19569
81479 21991 18437
69281 22280 20005
62042 22207 22389
70340 22816 16527
80669 8163 6373
75127 15090 0
1767 22180 23516
83866 9765 3919
83255 11240 1652
76818 10387 6080
76825 54 2495
11539 8750 5000
1556 19593 6293
1556 20235 3348
74406 15728 4986
74223 15652 13154
73774 15466 14573
73938 15534 13966
73892 15515 9936
73553 15375 15653
73694 15433 22866
73062 15171 25733
29962 33406 1722
27137 34019 24742
12801 15022 135
14251 15213 1297
21207 10103 23943
21414 9606 24599
13078 6499 21233
12695 15090 23422
12844 15110 24395
11 18777 7432
16839 31171 20522
85101 7295 5109
85101 7118 3799
37054 28999 1539
37179 28323 1539
18176 13875 4183
18145 13899 2858
21847 6534 25760
21994 7651 21810
16177 5196 21233
17744 5004 5294
83177 4366 23579
83089 4154 23011
88992 10505 25333
1556 20234 17041
1170 19170 23669
1170 18522 24327
68196 7870 17817
68294 8611 16557
68247 8255 11928
68372 9202 17379
15217 5571 20940
22864 6882 3248
21576 10133 1703
21225 10982 809
29509 34203 24828
17526 31700 15700
26646 33156 24369
12615 24160 12240
68155 9066 7155
68155 9791 7201
68155 11985 9884
68155 10661 10298
68155 9849 9101
68155 11316 9858
68155 14392 8224
68155 8451 12597
68155 8177 6870
68155 12650 9500
68155 14995 6984
68155 10200 11432
68155 14172 7293
68155 7880 7749
88720 13834 9483
88973 19348 18411
88973 18675 15569
88973 16079 17978
88973 16371 17434
88973 16085 18893
88973 16811 18067
88973 15141 16675
88973 14268 8786
88973 18218 17751
88973 17359 17243
88973 16470 13503
88973 15324 10164
88973 14498 16166
88973 18798 16208
88973 14232 7746
88973 15831 12510
6264 9781 698
18356 14003 105
88992 17553 2452
21827 5740 1892
18986 6567 5251
8930 22783 1539
7589 22236 1539
8209 22844 1539
10159 23259 1539
14001 10678 5294
79647 5361 25320
69949 3870 25570
69414 5162 25382
12624 7564 20940
6796 7453 1371
6801 7410 3984
57837 26061 1627
59864 23871 1710
55711 28359 1584
12345 7104 21233
16853 24041 24884
19076 30676 24884
15454 23221 24884
7470 12146 25866
89543 9269 18857
14297 14989 25328
14105 2989 20953
8947 2624 26129
74223 413 1675
73292 798 1470
75890 6 25649
75047 117 25316
5918 6713 20711
5918 6914 15035
5918 7319 8316
5918 7389 21068
5918 6427 19091
88998 9331 25154
78012 4662 6080
89712 10230 7710
89617 10239 6604
7334 10534 24284
76806 7055 5983
12757 6932 5000
80848 6178 21162
50739 31972 15582
50811 31958 18454
51077 31908 5378
50324 32049 17667
49662 32174 17763
50591 31999 23779
49970 32116 19798
50332 32048 13241
51121 31900 11335
51259 31874 20386
15090 8034 21233
18680 13879 930
75225 15607 500
1556 21956 14755
1556 21703 4648
1556 21882 10611
1556 21175 11398
1556 21367 13320
1556 21372 15801
74037 423 24276
74405 271 26000
13804 3964 1140
82696 10939 1278
14717 6627 24316
76604 8011 6080
1556 8687 14875
1556 7994 12814
1556 9624 837
1556 6631 1753
1556 7147 11626
1556 6079 22529
1556 8666 10146
1556 11661 5964
1556 11777 1411
1556 7416 16682
1556 6105 25182
1556 6418 9242
1556 7784 2575
1556 8567 15889
1556 7523 10231
1556 9294 11265
1556 6207 7391
1556 9713 13178
1556 8374 7225
1556 6551 15695
1556 7982 9673
1556 7883 4456
1556 8434 3478
1556 8206 18478
1556 9864 3410
1556 7908 1278
1556 6445 23953
1556 6592 21013
1556 10317 5541
1556 7615 1844
1556 10182 10241
1556 7000 12811
77447 8635 6373
77056 7247 4302
83540 22833 12555
72040 22601 6721
79485 22270 7283
80173 22571 9552
82813 22335 8954
69822 22606 5928
86115 22678 12480
76395 22554 8027
86599 22834 13702
80542 22758 10935
83776 22263 8834
81997 22663 10843
87144 22602 12353
85426 22820 13170
84385 22085 7867
87432 22853 14137
70897 22653 6644
81049 22304 8091
76421 22347 6656
84189 22601 11249
85747 22323 9967
82602 22457 9694
73888 4213 6080
16177 22455 1539
15531 22736 1539
88888 17849 6975
69854 12377 25887
88283 15193 22690
14907 15172 417
16022 15025 3694
16566 5619 20940
77708 5323 21456
13779 4662 5000
15139 14891 25846
2515 22719 17937
66911 23346 12233
84550 22186 10986
80575 22447 10328
86217 22076 11076
77749 22633 10592
83670 22244 10271
87455 21995 10471
78853 22561 10893
81189 22407 11138
74659 22837 11563
73343 22923 11435
75424 9413 6080
2339 22610 11928
88992 21244 4457
88992 21382 5083
1556 20040 24765
88992 14851 20680
15596 10962 20940
69361 9821 23566
69329 9743 21796
71988 13379 21016
19965 12287 25466
20280 11876 24718
16777 27132 24884
72775 7561 6373
11684 7019 21233
80306 22451 18030
74058 22068 21039
83051 22572 16931
85395 22637 16177
74668 22247 20075
81102 22593 17206
79139 22277 19076
71808 22285 20447
82811 22016 19596
79782 22253 19065
86331 22755 15436
85649 22000 19128
14175 5932 20940
77977 23745 14111
84261 7454 25094
84060 5930 25957
248 19436 16084
7105 7695 4661
11875 5863 16283
22704 5863 15493
21516 5863 12384
22617 5863 11130
18671 5863 10660
18794 5863 15652
16220 5863 21382
15094 5863 15485
17597 5863 18481
9718 5863 18668
10847 5863 20524
20764 5863 17356
13956 5863 16360
21776 5863 6814
22212 5863 7490
22019 5863 9001
12681 5863 17799
12923 5863 19227
14851 5863 16908
15011 5863 19108
19778 5863 9191
16959 5863 16328
8684 5863 20590
21767 5863 10320
16937 5863 17630
18030 5863 10927
16922 5863 14770
16208 5863 13774
16779 5863 11599
14243 5863 19680
21657 5863 9537
21646 5863 13263
15606 5863 14164
8465 5863 19842
11528 5863 19015
21409 5863 20976
15867 5863 17305
18114 5863 19720
15001 5863 18496
18800 5863 17374
21524 5863 14489
22259 5863 18906
13422 5863 15313
28826 33340 9829
26623 33154 22836
28844 33342 6074
28006 33271 23283
28111 33280 18868
29031 33357 15101
28890 33345 4279
28276 33294 14870
28668 33327 19403
27471 33226 21978
14366 6927 3703
32375 33512 24672
68994 6835 1500
68991 6859 2652
87932 14334 3265
77430 10120 2533
83924 7269 25668
83 18818 10507
19452 32130 13150
20127 32257 20396
20484 32324 12025
19381 32117 23657
20259 32282 19549
20149 32261 14384
18899 32026 18977
20667 32358 18726
19265 32095 14954
18652 31980 21943
86792 14641 24177
16201 11643 5294
12941 24470 20476
1556 18940 6004
1556 17791 6162
84483 9984 517
12291 10592 20940
38462 33453 24333
73457 21045 739
86390 21833 739
69256 21830 739
65069 21688 739
74428 21925 739
80389 21871 739
69862 20584 739
66683 21497 739
74714 21207 739
66608 20320 739
68143 21401 739
32555 34333 1539
1379 22550 1925
17309 31581 6734
35553 7351 1307
46407 7057 1307
30823 6088 1307
34646 6484 1307
38809 7382 1307
48565 7315 1307
24540 7113 1307
27753 6599 1307
29716 7207 1307
53083 7542 1307
55102 7352 1307
56035 7468 1307
58252 25612 24097
60706 22961 24607
57749 26156 24439
78817 9377 21162
19351 1814 1617
18536 1189 2828
21512 6366 23197
13888 76 24061
13042 188 25922
73371 12825 21162
15046 420 24387
76616 5658 7405
70333 5658 9141
74420 5658 11648
71730 5658 7472
74177 5658 6833
69818 5658 13648
71210 5658 15932
71960 5658 8213
75509 5658 12107
68794 5658 8800
77513 5658 9892
77615 5658 6940
76919 5658 11948
75854 5658 7150
71707 5658 15060
68624 5658 13989
78142 5658 10672
72942 5658 7764
77046 5658 11122
72662 5658 7035
75754 5658 11117
69702 5658 8928
83468 5658 7459
72414 5658 11979
68921 5658 14869
79185 5658 7119
69226 5658 13236
70365 5658 12747
12761 24282 16667
69014 7801 22568
88385 13041 23438
12614 15795 16383
12868 15828 6161
12405 15767 9998
13523 15914 5415
12271 15750 19127
13680 15935 6240
12442 15772 13569
12786 15817 900
12530 15784 11597
12321 15756 20343
16594 7261 5000
75418 6347 6373
52243 32107 24226
52853 31448 24124
58685 25144 24684
15122 15206 25252
15355 15176 23895
21986 8236 3383
21986 8236 348
21939 8592 1219
10569 13009 25917
21391 5409 4177
21319 5235 235
17232 14673 26032
16386 15024 22581
9473 2043 26129
13235 441 20794
19925 2814 1210
20444 3491 3329
80357 10049 25529
69354 22670 13421
80078 23381 13971
67943 23077 13349
65686 23087 13233
78682 23738 13899
64971 22934 13197
74020 23485 13660
17436 31655 22726
70530 13407 12656
70261 13057 19808
70123 12878 12537
69761 12406 24043
69949 12650 18261
70413 13256 14268
70322 13136 7977
69878 12559 17265
69551 10619 1505
69788 11192 3261
52378 6762 25215
32212 7414 25215
61047 7003 25215
53085 6975 25215
59943 7353 25215
59176 6201 25215
56515 6009 25215
57600 6605 25215
48450 6578 25215
55793 5968 25215
25567 7521 25215
48341 7454 25215
53316 6149 25215
73806 7706 6080
10590 9877 5294
88676 16174 20399
77197 9255 21162
41686 33242 17375
41742 33237 19913
43006 33130 8510
42816 33146 17974
42570 33167 21727
41391 33267 23438
42958 33134 5726
42555 33168 16419
42762 33151 23418
88381 19166 24935
82141 12294 4436
12995 26240 2031
72827 14718 26128
81527 1939 2423
80441 1106 6168
80488 1143 2866
51832 21988 1376
74229 3768 21162
75259 933 1309
11602 5550 21233
86922 13886 22839
21624 5414 23335
80372 901 24071
20286 2946 25328
20790 3601 22425
12061 14886 26507
85028 8110 24619
85002 8311 25593
13607 9477 5000
21821 7129 26129
72417 9364 21162
15161 3741 21233
61606 10736 834
14054 8291 2010
16066 31510 2176
7676 3963 24978
7716 3867 20969
9192 13260 24733
9745 13684 25120
11828 6331 21233
69900 4798 24015
8935 2799 3485
16003 7379 20940
21282 4336 682
21070 3824 5050
9781 6663 21168
17557 12418 25686
70419 11639 5395
42517 33171 1875
1220 15866 2277
1220 14555 4636
1220 14243 2361
10332 9789 20940
89902 12002 16990
61092 19831 739
78102 8595 6080
9567 14443 6702
9349 14275 11776
9667 14519 3601
9045 14043 9355
9202 14163 2088
8637 13729 13591
8706 13782 19202
8840 13885 5036
1556 19596 19004
18094 8765 20940
8906 12851 1444
19923 12838 5440
18482 8231 5294
17271 667 25965
16977 545 25246
80366 9213 21456
17887 14360 1410
73969 8939 25103
63152 21988 25301
74839 21988 25682
62216 21988 25368
74704 9368 6373
88992 18303 4489
60536 22416 14104
60649 22716 16307
60731 22369 17917
89146 24237 14657
68000 22305 19711
72533 22617 16282
71545 22895 14955
62535 23301 15613
75273 22715 14751
77820 22415 15677
65395 23023 16300
67424 22292 19984
61602 22072 23306
66596 23050 15723
66803 23261 14388
78883 22521 14679
65763 22873 17073
65615 22696 18185
67632 22935 16056
65917 22516 19160
65346 22129 21677
77467 22603 14670
76470 22716 14339
61709 23658 13756
60934 23517 14864
72307 22443 17401
73285 22914 14244
62820 22921 17793
77942 6646 24695
98 19165 12620
90007 10853 13624
68376 9238 18118
68366 9155 23071
68293 8607 20837
80095 8579 6373
9741 13378 26129
18647 9277 21233
83657 11731 456
71499 14208 14250
72278 14807 7976
72195 14743 4965
71440 14163 20977
72219 14761 9121
71506 14214 13572
70856 13715 24508
72244 14780 20697
72029 14615 12054
71924 14534 10878
20522 12096 2867
69914 4683 26351
75869 22307 14295
63052 22324 13639
87104 22011 14871
60647 23136 13516
66208 22106 13800
64621 22621 13719
68558 23100 13921
70116 22330 14001
16975 4749 5000
68155 6495 9547
68155 7040 13194
68155 6681 6832
68155 6248 10390
15467 11563 20940
11686 14428 24969
88992 20483 4212
9925 13301 2986
9352 12862 3123
13875 15 863
77757 15880 738
16770 31085 13336
89320 10915 3690
13764 406 25848
12508 571 24015
67722 22344 4089
78502 22171 6434
85151 22042 7877
18706 1655 5440
82634 12162 2675
82872 11851 1444
88992 15968 22500
58534 24102 2114
53980 29025 1708
53395 29657 1607
19997 3079 23441
19729 2730 21970
14296 9798 21233
1556 12941 4267
1556 11155 10406
1556 10785 12209
1556 12151 7550
1556 13861 4453
13160 24769 18777
89045 11350 1943
14859 0 4168
10985 10438 5294
74592 596 4025
74019 833 4321
68155 7519 11282
68155 7465 14374
68155 6807 14060
81397 13452 26163
11283 803 5440
75594 10453 6080
40086 33371 1779
8190 23507 20984
11263 23766 6206
9808 23643 16323
3581 23119 23729
10652 23714 17379
7770 23472 17125
11859 23816 15974
10531 23704 7404
10353 23689 16765
6773 23388 20171
5358 23268 19175
10756 23723 15271
8130 23502 13849
7798 23474 22274
9082 23582 14679
8272 23514 23273
11053 23748 23711
10313 23686 12378
6477 23363 20858
11761 23808 22940
11741 23806 7871
11413 23779 9582
11612 23795 21392
9307 23601 17658
6394 23356 18964
7015 23408 23566
7739 23469 15069
10016 23661 23750
11356 23774 16970
8627 23544 17666
72872 8969 6048
89139 21988 18036
20952 11223 5440
74719 15406 21162
78104 14097 21162
80779 13782 21162
77986 13162 21162
81395 14027 21162
80424 15089 21162
76745 11651 21162
75112 14090 21162
74973 13431 21162
80711 12844 21162
70000 15587 21162
87566 22423 13046
65343 23457 12201
65224 23594 13084
68110 23361 12311
76785 22749 10571
76220 23206 13471
84393 22739 12568
69952 23272 12211
71543 23178 12017
86881 22460 11371
79045 22832 11739
84071 22298 9529
85003 22580 11667
89226 19476 5544
72620 13644 22778
72448 13513 26269
13447 8805 5000
56273 7880 25228
55403 7700 25221
35441 8502 25255
27300 16246 25581
38627 10183 25325
23132 15781 25561
36770 10268 25329
35635 9179 25283
30371 11702 25389
53421 9725 25306
33355 14654 25514
28977 14526 25508
26534 14060 25489
50971 9404 25293
44951 9992 25317
54688 8663 25261
59169 7907 25230
38963 13074 25447
46746 8847 25269
42075 11884 25397
36812 9004 25276
42405 8214 25243
55171 9470 25295
23532 13706 25474
47779 8317 25247
24066 8943 25273
49486 10630 25344
25823 15324 25542
32062 13908 25482
33288 13235 25454
26495 16768 25603
46139 11562 25383
35174 10667 25346
35165 13681 25473
52705 8067 25236
36680 15144 25534
28082 10338 25332
43333 11423 25378
44105 12532 25424
34025 12448 25421
26623 10277 25329
50562 8613 25259
23294 12441 25420
46395 10165 25325
48779 11710 25390
28482 15145 25534
26184 13329 25458
35690 11390 25376
42224 9533 25298
41157 11634 25386
29129 16674 25599
43377 13170 25451
39976 8220 25243
26163 7698 25221
45313 10936 25357
25790 11928 25399
32478 14488 25507
31823 16786 25603
49974 9655 25303
32647 9370 25291
31758 12346 25416
30605 15396 25545
43818 9901 25314
31276 7594 25216
47385 11708 25390
30797 10680 25346
37194 10763 25350
37272 8049 25236
51932 8637 25260
37677 12985 25443
30654 7743 25223
33486 9317 25289
39636 11355 25375
37043 13743 25475
33012 10515 25339
30902 12081 25405
29947 15884 25565
38380 13642 25471
34017 14935 25525
40245 12440 25420
69155 11466 18798
69139 11426 14465
69041 11190 16574
68796 10599 25379
69003 11099 22659
68818 10652 24504
69255 11708 8309
69235 11659 22871
69147 11447 20307
1479 14892 8394
709 14892 11532
806 14892 7834
74664 14943 22222
75221 15016 24207
15607 13442 488
14696 9522 1651
5918 7364 21991
45432 32844 10123
44568 32946 15429
45045 32890 9206
45427 32844 21566
45306 32859 17173
44814 32917 19005
44956 32900 12327
45432 32844 14094
44492 32955 18432
45332 32856 14934
44481 32957 22019
72081 23063 14084
66345 23441 13790
85364 22163 14773
7045 7439 21895
60500 22006 13409
82544 13604 17534
82418 13701 14993
82079 13961 18326
82017 14010 9771
82354 13751 7785
82541 13607 18986
81506 14401 22527
82518 13625 10626
32387 34330 24766
1556 19361 21007
1556 17151 19689
78833 11069 6080
20129 7725 25678
89558 10479 21156
89109 13834 16018
80478 1345 26191
80523 1379 25033
76204 15669 26099
54505 8239 1276
43461 10531 1169
42795 9886 1199
39226 12776 1065
32225 11219 1137
33694 11008 1147
51577 8368 1270
24251 16600 887
26255 12449 1080
27087 17942 825
40455 10494 1171
26091 13480 1032
35218 9859 1200
27596 14267 995
30756 12528 1076
27828 16545 890
39624 7649 1303
31208 14745 973
35751 7933 1290
47524 9477 1218
24419 18099 817
41198 9010 1240
32097 11928 1104
34452 7870 1293
39658 14191 999
26316 9326 1225
45898 8921 1244
34930 11471 1125
30434 16635 885
35425 11002 1147
29759 10711 1161
35798 10289 1180
23536 10159 1186
53132 8502 1263
57138 7895 1292
23115 9123 1235
38463 8633 1257
35945 9514 1216
26530 8477 1265
25814 10700 1161
25173 8683 1255
50382 7662 1302
60602 7676 1302
36026 14201 999
40477 12731 1067
43628 8589 1259
46293 11953 1103
34297 12826 1062
23736 11925 1104
31625 12742 1066
40687 12071 1098
30395 11650 1117
37447 8071 1284
31670 9229 1230
46474 7889 1292
24714 12840 1062
24113 13403 1036
50955 10856 1154
48115 10279 1181
59109 8070 1284
41453 11553 1122
23757 15842 922
29601 7919 1291
27190 9147 1233
28380 8606 1259
38198 11903 1105
23311 11133 1141
54002 9698 1208
44469 12226 1090
26349 10384 1176
41038 13552 1029
39491 11761 1112
44561 8810 1249
36542 11152 1140
49891 8600 1259
30145 10088 1190
34862 15275 949
31363 16344 899
82081 2441 5377
82256 2669 1280
85101 7318 10030
85101 6920 8161
85101 7134 7563
17052 5972 5269
38186 27322 24884
38690 25181 24884
37645 22334 24884
37558 29520 24884
31567 33487 13138
31720 33495 18615
29874 33402 19724
31327 33475 7848
30127 33415 21840
31854 33502 16854
31202 33469 10702
30523 33435 23660
29406 33378 22875
30658 33441 16261
6328 10041 14402
6777 11126 2917
6926 11485 1241
6213 9764 17565
6278 9921 9239
6509 10480 4239
6339 10068 1713
6479 10407 15790
6493 10440 5529
8927 2274 20938
8325 3060 25229
77823 8194 2904
83538 9873 24793
82226 22339 15656
84573 22184 16078
85059 23713 14497
69361 23600 13693
86319 23737 14562
79323 7036 21456
89253 24833 14415
9237 2014 651
81954 2086 22361
81401 1662 25672
