ply
format ascii 1.0
element vertex 2708
property float x
property float y
property float z
end_header
7961 12547 7435
7237 20714 15124
75698 10765 3762
51402 25021 26799
90667 11011 17025
61996 24727 23079
60709 13406 537
67997 13516 654
74665 7639 535
36703 11452 28703
33655 11824 28703
31580 14353 28703
34795 12026 28703
72271 16345 6517
73762 16327 7792
82333 5502 3569
77292 9864 4030
55390 16105 19023
55042 18090 18422
56009 12585 22053
55862 13423 19170
55821 13655 21267
55906 13171 18385
55586 14994 18856
55445 15797 17249
55355 16308 18071
82053 15227 26061
89362 12740 10301
69166 5500 3189
69157 5640 1418
57005 9053 257
84312 14564 25654
21538 10719 28133
55713 26646 17901
39667 17695 28703
73178 5579 528
29022 11607 28703
75087 3723 28288
75585 6163 278
18625 2141 3655
19137 6884 243
20951 6278 28806
78939 16111 4718
22132 1962 25749
53501 26356 7245
84289 14276 26648
21284 3170 26053
84746 4984 1288
82861 14698 26984
27245 3419 4020
90952 5403 15249
81122 11023 1912
73172 5424 28615
17880 7456 347
58341 25791 6024
67537 20542 2638
73362 16543 20763
72088 16604 27927
78708 16401 7301
78446 16471 7812
79589 16279 7312
80812 14983 1528
9904 7402 337
12737 11060 337
7863 6931 337
8385 6967 337
8493 8188 337
12155 10899 337
8255 6102 337
25020 411 3578
87285 6289 27871
506 3291 5034
897 3707 2626
130 2892 2313
90423 4783 18856
7297 11676 4545
82550 14571 1706
21687 217 3898
79787 10010 26963
37157 18002 5580
28168 9222 11484
27997 9438 3615
28598 8678 24138
28441 8877 21408
28045 9378 15902
28471 8838 25685
28100 9308 25490
28845 15291 15887
32086 12931 15887
31094 15555 15887
18717 15866 15887
23247 14466 15887
33048 15168 15887
25026 15687 15887
25128 15079 15887
21592 15894 15887
18065 15255 15887
29732 13839 15887
24164 14862 15887
3618 21568 15247
75863 8998 28777
62817 18063 1730
65467 17620 1586
60749 18620 1902
66827 17171 1450
63381 17825 1659
17687 15036 28797
70046 14341 19569
39469 14292 28703
74563 14654 28393
76735 9422 252
26923 6828 4028
24793 3651 355
20700 3347 3615
90688 9823 16656
90000 6184 3105
88160 4639 26632
89540 11990 8060
61211 9814 174
55236 9537 137
73492 6928 1684
8789 12815 20673
64072 10441 17482
24744 5859 28272
60708 22228 3241
65565 20376 2516
59521 22586 3382
54813 22555 3389
22292 10882 26384
75439 16557 20447
76218 16648 19932
87359 14061 8327
87544 13880 7710
75821 2677 1498
66160 23060 10865
65683 23353 11640
73189 17674 3958
78111 8106 1765
76864 8271 3058
53262 7290 28434
53268 6965 14853
53276 6598 25018
53270 6879 17423
53252 7792 15676
53279 6413 28129
25205 7387 931
65602 9789 213
19163 1449 2883
72268 16869 21255
17480 5590 343
88160 13826 18684
88087 13793 19364
88245 3829 9572
85627 3721 12809
86242 3746 12199
72602 2500 28859
55079 16951 1442
23627 9000 410
53048 18049 14434
53043 18294 17050
53049 17993 9647
53041 18422 20596
53039 18531 15948
53040 18470 2037
53069 17014 5511
29512 14225 21611
26281 14094 21611
78250 255 26353
77109 7 26385
53752 26559 9120
54293 26557 9085
74746 2549 2193
83991 10612 435
76755 13349 28695
70326 10723 318
7297 11948 28036
7297 13813 26165
25704 7729 1784
57673 25534 24078
54002 26166 22891
50989 25095 4720
80127 9791 2089
77223 1885 28219
77784 2006 2849
72461 11442 328
72381 11404 3293
72108 8122 1820
90944 8956 19263
54729 25975 5645
89760 9823 24435
53896 12460 28833
67313 21384 3988
65453 22634 4743
56893 26436 20729
58072 26326 21064
53694 26668 17342
54865 26692 16466
73001 16333 22650
3292 18147 14803
61687 25342 19755
77426 10867 874
20231 6095 28258
76221 6005 249
85301 5072 27931
86615 5118 27784
25019 6274 28806
72256 12500 447
24892 7555 25629
52571 14405 3258
52571 14379 12549
52571 14167 13560
52571 14928 1340
52571 15363 17820
52571 15803 20974
52571 15617 3730
52571 15334 2775
52571 13631 2640
52571 16018 9009
52571 14633 6780
52571 12304 3995
52571 12870 2119
52571 14918 15259
52571 12807 5992
52571 16316 20036
52571 15686 13107
52571 14667 755
52571 16048 13884
23877 8348 28647
75165 289 1332
50547 24544 21694
57519 17707 27545
57020 17552 27590
59339 17050 27753
56591 17979 27459
90846 9299 21968
75993 139 26451
7297 13667 859
7297 15114 812
7297 14497 349
7297 9377 1027
77595 534 283
81247 10907 24492
82297 9939 26854
19256 5602 26071
20159 3218 25478
88999 10775 4500
89448 5066 24695
26434 4885 2643
53551 24757 4554
80839 2820 28985
23266 9988 4030
56244 23514 3876
85741 3734 23197
85525 3722 18590
84285 3671 19860
86671 3773 23222
84283 3670 19309
85178 3708 19463
84610 3684 18275
84930 3698 20321
85639 3659 1948
7297 12552 5787
85387 10342 28575
59281 7217 18152
79766 5302 27593
77978 3862 28804
80063 10655 4802
78210 10600 4802
79975 11289 4802
17517 4739 27375
68276 16696 23967
81700 3049 26667
29802 6014 19798
29774 6216 4816
29767 6266 7752
29928 5079 24660
29749 6402 12084
29863 5557 26662
29742 6456 14622
29866 5536 16138
54329 24022 25051
84157 15526 16753
84948 15289 17506
74455 8204 968
52895 25756 12388
22717 4554 28959
23933 2774 28702
71759 19362 8121
72741 18816 10069
76744 8149 424
53445 5166 3625
53445 6737 2055
53445 5846 8750
53445 7190 3445
53445 6070 946
53445 6539 6193
53445 6213 3398
53445 6288 9144
53445 7813 13944
53445 7554 11978
53445 7553 24213
53445 7383 13026
53445 6487 12228
18076 5504 25176
68423 21672 18333
67223 22438 17514
70470 20390 18680
27437 2849 3898
680 2323 9363
352 2323 12292
1842 2323 9418
353 2323 2703
1183 2323 7209
66691 12205 20034
52892 25911 6848
65188 23364 21303
19866 1024 25308
72103 2817 362
79344 12881 438
59061 10308 17334
58783 10299 19068
29740 14372 28703
23183 11 26376
24268 247 26480
74253 2896 27563
30997 13703 337
29249 12823 337
18262 8282 3813
18259 8276 2827
66920 10294 28845
63347 7129 20962
63329 7129 23252
63811 7144 25399
63377 7129 24780
67735 17321 23272
20640 11381 337
84412 14590 4749
86431 6964 28263
71797 3259 27991
59463 4422 27980
65103 4629 27995
56470 4565 28046
2349 15899 14123
7297 12567 22036
7297 11932 24043
88933 3873 23900
87062 3805 25021
46842 18231 2228
51617 25072 2455
20786 5972 891
54581 24821 24628
91698 6597 16078
66268 22654 22407
66837 22340 22159
68302 21611 20646
74568 611 28859
52567 25997 26096
51716 25997 22992
52170 25997 21292
52192 25997 25443
52492 25997 19246
70655 16354 28016
31453 12989 28703
77704 8092 4797
82291 9821 4802
73981 8412 4794
79965 9280 4799
39315 11493 28703
68013 15696 28231
56055 15634 28365
79494 6308 26025
70993 10143 0
78839 12299 3192
56302 26349 21728
74688 7337 25638
23120 209 347
73630 18002 8962
90624 4908 9009
69052 13453 27182
90465 3981 9867
50399 24524 24217
74993 8577 25425
7297 6057 12941
7297 8492 9470
46770 13281 337
41821 12004 337
44836 13680 337
44266 11572 337
46995 12692 337
43523 12221 337
48278 12983 337
42985 13977 337
43284 12836 337
44673 12545 337
44179 14765 337
46095 10816 186
26253 6931 26955
82923 10704 388
7326 9192 14140
8332 9192 14883
13805 9192 15085
7131 9192 13502
10808 9192 15012
6315 9192 13495
80539 3600 219
60814 12602 408
23863 8957 28138
52939 23566 10236
52941 23464 9080
52923 24385 13835
52935 23762 6996
52921 24462 15487
52922 24428 16519
52915 24772 12229
2476 18613 15626
19698 7166 26953
78880 6339 28320
19993 12203 337
25653 12274 337
37893 18275 24921
69760 20175 24465
90447 7711 4368
82432 16023 15019
81031 16277 15055
84690 3694 26634
86106 3760 26567
85845 3748 25990
87318 12886 4000
74686 13203 463
52571 8647 11163
52571 8483 10275
52571 9823 27412
52571 8662 20937
52571 9425 17198
52571 8844 20098
52571 9840 17602
52571 9374 25559
52571 8493 19008
52571 9107 28698
52571 9208 21470
52571 8961 24128
52571 10699 26365
52571 8848 17652
16491 4741 15902
71921 3675 25308
89284 6254 2182
87681 14325 15153
85899 14617 21661
86753 14132 22907
76192 7619 28320
73637 17708 6155
90534 10101 22148
76813 9138 26506
74019 7747 2650
86379 14028 23598
72687 1976 2974
35473 3546 2595
41956 3650 1427
32441 3592 2073
27314 3648 1430
34919 3640 1538
32904 3529 2773
26682 3618 1768
35726 3645 1473
75608 2047 25952
88866 7636 27406
23396 9206 28939
72444 8049 25294
21641 464 25308
68338 21742 11578
67011 22591 12623
68474 21644 11010
17777 7152 25308
19337 4887 3217
79440 15850 3056
76194 10872 28702
76405 7098 318
59211 11730 371
51629 24520 4119
81574 7079 28936
60954 10269 28881
54748 10992 28890
55854 10270 28911
67374 9938 28855
61824 10788 28855
24461 6245 28871
22363 10898 3164
22496 10927 985
23232 1875 26205
59379 13100 479
21450 2672 3637
17539 6276 2853
17654 6912 3196
84727 6501 768
90923 8447 22338
80164 4008 25626
25394 1428 25179
74546 15859 28006
56112 19688 18344
22925 1819 3738
70534 18465 1835
15495 4741 9837
80259 16351 10156
80198 16418 13390
77574 4616 130
1925 2323 21471
175 2323 16447
2766 2323 23351
2902 2323 20745
1478 2323 17804
90568 4496 12145
81979 12186 612
73073 5857 28941
81810 7793 2198
60865 25836 16304
69234 6247 2123
69189 6053 4308
63371 23954 23509
89283 4381 26140
83103 15752 18793
24384 2142 2008
90551 5866 21784
72585 2124 27934
4377 7004 15898
90758 4479 14970
78060 8213 28216
76242 16643 21057
51252 22569 24921
11364 14270 186
9292 5834 186
10185 9038 186
9206 7673 186
77838 12534 29047
25412 15160 337
17485 5982 1715
17607 6659 1607
60675 9271 29045
57677 9324 29060
54375 21110 2859
59081 20234 2503
56990 19443 2228
60495 19572 2250
59068 19274 2151
67012 19248 2084
57028 19942 2411
55091 21940 3158
55011 20859 2763
56331 19355 2201
84820 3664 27205
84907 3934 1832
29387 3361 24525
45699 3516 26266
45352 3370 24623
40517 3454 25566
46457 3468 25730
47827 3492 25996
39341 3470 25755
44324 3429 25296
43949 3534 26471
34181 3353 24430
45779 3572 26902
34565 3467 25717
47338 3351 24410
48315 3431 25311
40487 3566 26832
35165 3477 25830
44749 3589 27087
24814 3362 28845
77878 16525 21583
77357 16605 20922
91509 6667 10649
3639 19969 12563
71314 18621 2375
5228 17805 13072
79960 9817 28859
14146 11422 337
8239 11372 337
9677 11555 337
11163 13287 337
89652 9889 4845
71682 7358 2417
88108 14050 15574
90940 4298 11019
90373 4491 9572
79151 10418 3118
78925 10564 2488
41532 18135 28703
74548 8512 28944
53366 19335 26991
15752 13860 28703
20525 6813 28180
85561 14905 9079
79681 6180 1764
61960 10398 3077
59032 10307 4109
67949 16415 19187
83592 15009 24255
19914 7017 28782
71376 5663 3262
7297 7886 21086
7297 10219 21700
7297 8705 21137
45241 8747 337
45924 8693 337
42678 10784 337
46960 9115 337
41035 10454 337
41588 8274 337
43817 8876 337
21423 7898 26507
77517 8226 1112
76389 16665 8792
55680 13067 28888
59843 25570 6489
78763 15784 27186
76845 5609 268
6698 4324 14024
5453 4485 14184
4158 4652 13673
85709 3726 16811
88018 3822 19694
89504 3878 20692
56009 24198 24967
79336 6935 27113
67414 16265 24148
82613 15668 21700
82506 15604 22940
51381 18311 18053
51504 18311 20076
50996 18311 22306
27323 2382 28533
90338 5926 5087
21893 8197 1959
80056 3839 658
19002 1597 28585
52964 22593 25794
79136 13450 28335
69793 20312 5367
68660 20724 4420
67727 21587 5739
18214 15912 27708
25686 15912 23660
15383 15912 28565
8818 15912 28460
15872 15912 27725
19156 15912 27640
11968 15912 27953
12525 15912 28642
15797 15912 26881
25413 15912 24292
28854 15912 25030
16777 15912 27854
25610 15912 27854
27104 15912 27984
18388 15912 26615
30314 15912 23813
19635 15912 25520
27530 15912 27142
17261 15912 27222
26656 15912 28267
29374 15912 23356
29247 15912 22821
59555 25322 23849
55413 19713 21449
33730 9502 337
35887 9091 337
34170 11142 337
32919 7949 337
34587 10026 337
32060 8741 337
32664 10382 337
71928 18733 4435
73386 4348 743
83704 12171 28539
17286 15912 4470
8997 15912 1908
9218 15912 2766
14376 15912 5126
12030 15912 4714
11428 15912 2053
10951 15912 5408
8380 15912 538
13651 15912 1272
15361 15912 1505
13630 15912 338
25521 15912 821
20767 15912 1421
17773 15912 1740
11123 15912 1324
15976 15912 3755
11209 15912 6133
19171 15912 1027
12447 15912 5891
18277 15912 3833
25190 15912 1803
9313 15912 4745
17872 15912 800
11728 15912 3010
82403 4829 4939
79314 5039 4911
81165 4982 4918
77246 5826 4805
78386 5465 4854
56435 11712 355
56325 11093 330
62790 10668 352
54045 10110 278
59796 10817 340
62832 9980 325
58403 11161 345
7898 4174 16479
4815 4578 19019
9000 4034 16565
3998 4682 18866
60464 10426 26224
60443 11452 26224
58703 13640 26224
59237 15367 26224
61716 12094 26224
59308 12307 26224
62281 11604 26224
56107 23207 25491
81288 8114 28859
50562 5963 308
0 2556 10330
7297 14248 6152
7297 12313 6287
66984 11344 20638
66965 13179 28646
69042 13825 28464
80315 2310 25176
18920 9302 347
23745 8223 27081
10777 15217 337
78801 7684 27678
35816 17974 12398
35882 17974 1507
36070 17974 6555
36780 17974 2353
35878 17974 10036
72117 11163 665
71517 10610 303
7717 15830 25205
74077 4870 2897
65346 22822 5269
2282 19028 13063
26389 4526 28673
68421 10413 26285
68632 11384 26280
66682 7729 13723
66833 8432 13787
56140 11842 11409
26740 7409 204
64656 23856 19186
18606 7167 29002
62803 10949 11875
57294 17412 11875
61925 11791 11875
60204 12927 11875
58344 13419 11875
58061 14241 11875
80190 10162 24404
72348 11027 24404
59555 23650 3938
53115 14676 26504
53100 15443 10196
53108 15012 17537
53105 15205 23779
53097 15572 11861
56524 26663 15344
70482 20325 9507
70392 20416 10043
67734 22032 9574
59491 12265 378
68400 11217 374
62364 12069 379
66896 11935 382
67290 11202 372
79978 16173 22528
80049 16221 21632
17730 3761 3262
17521 4723 2941
70149 16911 23934
83258 15612 9148
84567 15352 10390
77844 6314 28936
64357 16662 27893
73359 16869 27466
84647 3681 14019
86899 3768 12565
79552 4090 737
86819 12654 26961
55080 26197 6467
87066 9413 984
77349 16713 11733
77799 16693 12955
7297 12551 23922
81148 15309 2487
60477 23485 25359
57090 23002 25603
78714 7571 2850
82120 6620 26015
17713 7248 26126
13251 3636 6321
18501 3520 10902
13911 3622 6804
14808 3594 12935
21122 3461 13326
18501 3517 12823
14143 3607 13788
13448 3621 13957
14803 3599 9870
12793 3638 11960
22798 3427 12973
13953 3613 12630
19270 3501 12445
16351 3567 8933
24844 3382 14374
16801 3556 10643
16277 3566 11438
17227 3548 9744
13443 3622 13222
15773 3575 12300
71612 6971 27853
71515 6435 26755
80532 14312 1193
9149 9573 28703
13568 11321 28703
10809 10229 28703
8324 9949 28703
11300 10950 28703
10717 9343 28703
73309 6514 28891
57051 18694 1952
14765 15229 28703
73380 16353 24268
77415 7716 993
69427 16847 27871
35956 11693 337
34080 13098 337
32176 14442 337
32361 12447 337
32296 13316 337
66428 15873 1023
63472 15687 930
89588 9873 4318
6021 19566 13055
82653 15069 3279
86537 13616 24747
56587 26174 6786
20860 10266 28862
90707 8259 5518
23936 2820 3567
33655 16293 13084
33159 13645 15722
25728 5499 26667
10811 17826 15446
12022 17475 15446
11617 19303 15446
83941 5800 28251
77029 8421 27662
81373 8424 26566
79594 5622 28462
60485 10352 20221
63367 10442 21998
63266 10439 20233
61718 10390 21731
7583 13068 7714
83887 5012 2169
55815 19789 20998
20831 2527 26981
79953 15772 3972
80420 5092 27053
90258 4852 8229
58450 3582 2335
57726 3587 2265
60960 3459 3667
51123 3577 2297
61915 3460 3665
61070 3619 1962
51914 3502 3108
44426 3623 1735
49756 3562 2451
59854 3650 1623
59937 3571 2460
78316 2144 28766
60324 7304 480
61338 6969 555
67590 7969 329
27716 2995 28859
24415 7784 26012
85115 9635 28651
73665 6252 3663
55111 19462 17309
19482 1242 607
78996 481 347
2762 21593 15904
77823 161 2990
42337 18311 1556
37209 18311 533
37626 18311 1385
41319 18311 954
77924 14121 28326
7297 6688 26838
7297 5499 19425
7297 4859 23125
7297 6620 25617
7297 4919 16747
7297 4816 21070
7297 6134 22691
7297 5619 18344
73850 7484 28050
81053 5739 28993
54455 26627 18387
53324 26595 19183
77145 7704 28897
80081 1152 27694
78517 10145 25215
59638 26025 20291
59444 26017 21322
53226 9184 20918
71251 16956 23215
62517 15932 28176
60699 15785 28264
66516 16037 28099
76421 5679 28990
25377 2830 27671
85433 10269 637
73413 4298 28778
6393 18930 15206
5799 19019 15206
74631 10530 26995
20412 9045 25176
90608 3902 13934
89727 3873 12150
89639 3867 13715
73287 1335 25935
74112 4886 25953
74512 1427 204
89845 12482 16168
88228 11806 25387
72039 6875 28937
7297 14741 23180
75927 1990 3590
75715 4846 130
6760 20729 14049
60524 25811 9366
60682 25823 10300
91011 5863 17455
81147 15490 3775
7297 10866 28632
7297 8546 28561
7297 8363 27844
14340 13573 186
12943 13976 186
13009 12059 186
12095 12855 186
11858 9357 186
80960 1897 28370
81249 2348 26983
87674 12414 25525
21771 9110 28943
69822 13127 10789
7297 7952 22207
69159 5604 25379
84723 7554 28631
54334 20073 8237
90155 12142 14827
53216 9569 19500
53220 9444 23395
53219 9490 20167
71748 7562 27720
71728 7531 28829
7297 6994 7420
7297 6522 10263
7297 8312 5290
7297 9418 7382
7297 5829 11966
7297 6408 3967
7297 5261 11464
7297 8803 6657
7297 5754 4541
7297 7667 7243
72248 19178 10536
71945 19431 12124
79824 3478 27141
74162 10204 3413
24485 9976 204
82302 5784 1312
88171 14032 13984
7665 6005 13319
8113 6005 15713
9561 6005 13858
21687 6255 28927
73328 4932 28801
58340 26343 9039
75371 16335 27512
28187 4406 1267
8457 13094 8655
66938 6802 575
64208 6055 735
60195 6069 745
68495 7286 471
63122 5825 785
29974 4938 15019
29974 7580 18646
29974 5374 19381
29974 5611 17975
29974 8462 20455
87954 12396 4553
20298 12450 28854
29327 12480 28854
26195 14111 28854
25541 13791 28854
29129 13303 28854
21942 12982 28854
21428 2144 2166
2394 19628 12656
67323 13136 19192
78809 8486 26786
11709 6952 28854
10964 8228 28854
8991 14303 28854
24878 8475 26244
90941 9226 16486
69857 12475 445
50390 24306 17225
54903 26661 11691
53202 26641 11183
78895 3323 25608
17599 4362 1465
62833 14292 28593
66855 14682 692
64876 14904 696
61317 14611 621
78053 2841 1104
19882 8511 4025
69574 21034 14414
67963 22032 14068
70481 20397 11123
69064 21320 12928
79743 917 27340
79572 799 26633
71248 19818 19772
72518 18962 19275
60268 7017 21033
78828 963 4003
73509 3967 1940
74411 17146 22110
7387 12775 28703
65978 21790 3178
22339 8900 25490
18260 8278 26224
57971 12883 3330
57386 15497 4113
57405 15410 3523
13876 5257 13079
29259 14233 7429
30432 15528 7429
20434 8153 25894
62048 11727 28832
66394 10897 28838
63960 11564 28832
62736 11743 28831
65746 11811 28827
76908 2721 3465
15123 4066 16051
51089 24614 6548
56714 18496 25358
57055 16973 24140
57363 15596 24961
78425 2206 3637
10763 3858 22014
12258 3676 22520
11783 3713 19837
7376 4266 20268
10478 3878 20189
10443 3894 21578
11949 3705 21376
8207 4183 22820
9487 3997 19531
10627 3855 19561
7486 4259 21122
11695 3744 22369
75285 6631 715
80270 4266 28782
75308 6506 28197
53376 26445 21525
14667 3597 15818
16751 3554 16571
16878 3556 19735
20857 3465 14843
12617 3644 19105
18093 3526 16584
18887 3511 18049
14477 3604 19263
13525 3628 20907
14458 3610 22019
12629 3638 15034
21166 3461 16603
19196 3502 16121
18344 3519 15787
14632 3599 17296
15956 3571 16614
22943 3423 15759
12249 9554 28854
20487 15522 28703
15936 15615 28703
13267 15596 28703
70218 12964 548
26357 6451 3544
91525 7807 17560
64343 24112 11364
84474 12724 28297
78855 7377 26055
63330 13017 28707
78294 7957 2278
24637 4146 598
79238 16474 9903
77062 16605 7514
76902 16582 6504
74713 7572 27868
73170 9516 27819
77575 9031 28678
81961 15153 2762
20584 7471 15229
20584 4886 15430
20584 5229 14594
7297 8583 23787
7297 6644 13425
7297 9017 9318
77516 9011 1789
56490 10513 20365
21728 8907 25731
7297 10249 5663
55648 26706 15981
24452 4363 28263
24206 623 3941
67994 9750 28986
64678 9303 19807
64695 8526 19679
64701 8260 21043
19081 9418 25640
19088 9424 26846
24035 2820 2196
82424 15145 25533
82026 3802 1885
32771 9618 28703
38391 11020 28703
35470 10882 28703
36753 10733 28703
32808 8006 28703
31687 9165 28703
69014 5384 962
65346 5091 1056
61287 4935 1088
52962 22422 6615
52963 22349 13895
53015 19745 5471
52986 21198 4207
52968 22120 14711
52986 21174 3017
52975 21760 7324
52990 20966 12560
52973 21854 19586
53011 19930 3910
52962 22399 21696
52959 22538 12919
29974 5709 10626
29974 7047 12088
29974 5004 8777
29974 6349 10374
29974 7164 12888
16108 4847 23672
16158 5219 27328
82872 10365 28851
88006 13479 22631
76406 10159 204
3016 3097 7587
2719 3423 14023
2319 3862 14078
2485 3678 4487
2744 3395 10947
2605 3548 8299
2720 3422 10213
7297 10768 24150
74473 3144 28778
64476 3662 27601
62532 3743 27672
65728 4261 27831
58077 3997 27861
55668 14688 576
61885 15096 725
10523 15829 337
24346 15672 337
15522 15689 337
31711 15717 28703
81627 2935 1934
18451 6542 29002
74503 12375 3093
80656 1789 3898
76541 16729 12246
71707 11340 30
52048 24585 26812
51595 21857 26812
76592 4658 28957
88043 11662 3010
17757 3631 27620
52262 15127 28703
22656 27 28831
80047 9808 347
78736 13764 913
70276 15967 24428
74000 877 976
74041 849 1739
66651 3447 18479
59067 3357 20540
61205 3382 15753
68747 3472 23548
61136 3381 24047
75791 3557 23313
68671 3472 19878
67388 3456 23512
78217 3586 23374
75590 3554 23813
78972 3595 22772
64010 3416 20034
68042 3464 18193
60250 3371 21609
68186 3466 21120
72405 3516 20151
60449 3373 21059
63847 3414 18410
63117 3404 20310
62981 3403 21953
71346 3504 19646
59179 3358 21573
69696 3484 20973
72612 3519 23960
60255 3371 23413
58779 3353 22842
62091 3393 20466
67063 3452 21286
79645 3603 22819
80602 3614 23683
71931 3511 21934
64003 3416 22173
74133 3537 22400
68623 3471 24110
64642 3423 18483
91228 8761 13265
25621 5618 28548
37518 17974 26622
40754 17974 25922
38045 17974 25585
86921 5703 27835
59623 25749 22249
91436 7443 10153
90849 4288 19062
70406 15700 19200
58580 12867 28764
63094 3541 4848
70544 4257 4902
73904 3741 4970
69085 4631 4865
72138 4523 4908
78592 4184 5004
72912 3814 4954
60859 3504 4822
68449 4797 4848
55395 7977 357
67205 8689 338
61293 8432 340
55705 8944 282
76692 7000 24404
74557 6689 24404
71767 6893 24408
72953 6585 24405
73394 4389 27026
27292 3949 29002
82482 9651 27629
82842 9032 25375
25632 9815 3898
71380 5690 28797
90803 6548 23566
88714 3881 3733
75214 2551 25524
18637 3317 4030
69444 7145 27567
69253 6328 28160
90257 4427 21987
18343 2547 25411
51857 3350 12174
48279 3350 11714
42685 3350 12428
38323 3350 11588
47105 3350 10352
38317 3350 12650
47580 3350 13534
33846 3350 12726
57352 3350 13394
54346 3350 6527
38486 3350 14595
48033 3350 12379
47406 3350 9734
37984 3350 11105
30555 3350 14161
41010 3350 13721
54031 3350 9664
46220 3350 13060
39447 3350 14150
45823 3350 9880
37015 3350 13928
56739 3350 9955
58211 3350 8136
58547 3350 12076
43514 3350 10062
32881 3350 13018
32536 3350 13903
54886 3350 9103
57575 3350 5269
57007 3350 6606
45613 3350 10374
51198 3350 12729
41896 3350 10226
53443 3350 7108
41954 3350 14404
50035 3350 8971
56541 3350 7766
56333 3350 14504
50548 3350 10907
30888 3350 13340
33702 3350 13971
44679 3350 12520
47035 3350 14182
40827 3350 12548
42796 3350 10307
43262 3350 13810
53637 3350 12138
53229 26711 13382
55461 26669 11910
69657 14812 25111
16008 10695 28703
17256 8369 28703
17010 9100 28703
20788 11258 28703
18262 9779 28703
78146 232 1400
75219 2244 3619
21676 8897 670
78206 12432 25743
91484 8479 16953
90526 3931 17967
26168 7859 25200
23677 8991 3022
63521 24584 13863
73799 17458 23948
20988 330 25602
71857 7019 4797
77486 7109 4802
73959 7399 4797
71119 6209 4802
79627 7524 4800
63324 24680 15616
18455 4808 29002
39466 17521 337
58135 25643 5423
70584 11867 366
87683 4677 2398
70888 15926 26410
90410 10137 10735
76445 1897 27318
1590 3973 7075
1230 3973 22245
1178 3973 25819
2102 3973 2271
23555 6803 28864
72333 5379 25176
27207 2202 2226
24548 8687 28299
17560 6393 28664
7297 7248 17856
7297 9118 15511
7297 8854 18788
7297 9845 14896
7297 10104 8245
7297 8238 18581
7297 9950 20656
7297 6652 16699
7297 8147 17267
7297 7265 17322
81552 7263 279
8313 17073 13611
9318 16895 13209
79517 7924 3715
74980 7682 2212
45886 9818 186
41402 6983 186
43334 7153 186
44765 7709 186
45135 10937 186
43613 6058 186
45673 14973 186
45482 14420 186
80171 8726 4030
81710 15652 4982
88371 13767 11211
67483 12914 23490
69604 12568 22857
69508 12215 23424
80280 11608 25511
79605 11932 25106
54929 21586 8681
20153 7850 791
25160 477 2927
65037 13916 28513
24300 12824 7429
21260 10589 7429
23660 12705 7429
22968 12717 7429
62171 25244 12053
25679 10113 2978
68896 8912 258
73700 7957 28968
55790 13831 7287
55993 12673 10379
55810 13716 6364
55882 13308 6878
55521 15359 4973
55944 12957 5996
55581 15017 7391
55645 14654 6717
55905 13173 9162
30315 15907 28703
19204 15760 28703
25822 15759 28703
52571 17416 22577
52571 16791 7485
52571 17488 15111
52571 17626 19990
52571 17493 20962
52571 16773 18228
52571 16915 20881
90733 5622 10020
20901 10580 3130
21246 10655 622
70378 20387 19728
68491 21532 20092
75289 2200 26343
29609 11899 337
52210 17974 2952
78881 8439 2251
52571 23197 23747
52571 24765 17141
52571 22713 18568
52571 21557 23117
52571 23409 19905
52571 21701 15977
52571 23206 13577
52571 20024 21466
52571 25127 20615
52571 23932 24305
52571 21646 22568
52571 20416 23283
52571 25126 18486
52571 23633 16809
52571 24977 15825
52571 24134 8880
52571 22241 19355
52571 25042 22212
77668 1981 960
79506 4683 26112
31401 15861 18611
31401 14904 13671
31401 15778 20544
31401 14014 7548
81883 14939 27205
19985 6055 1537
8042 4215 25347
9507 4034 26299
6917 4379 26270
5224 4558 23334
6306 4451 25657
4338 4674 23187
9199 4069 25858
24678 8603 485
61671 25520 13968
22255 597 254
81638 15810 6459
80393 16046 6103
66341 21872 3738
60629 8689 28888
58613 8921 28913
62973 8882 28896
16407 3568 22908
16197 3573 21839
20318 3482 19916
24943 3381 22689
25901 3360 17532
22991 3424 19049
19090 3509 22092
22183 3441 19174
17495 3544 22708
23530 3412 23378
25570 3367 23137
25577 3367 16112
24198 3397 16360
25766 3363 24169
23759 3407 20837
86538 14700 16957
69929 13517 10166
28327 5908 26338
76108 10854 25995
75630 10750 25613
25252 1954 4030
87480 9604 28052
56712 26602 11813
78482 12391 3728
78236 12428 2406
35453 3411 4117
40676 3427 3943
42436 3396 4285
37285 3439 3802
42883 3579 2230
39035 3478 3361
28222 3383 4434
51786 3355 4753
40296 3365 4641
41080 3528 2806
37531 3541 2653
54924 3384 4425
37923 3462 3540
34765 3393 4324
41544 3391 4341
56594 25282 4882
26708 3016 29002
27656 8090 2670
26761 8625 272
18458 11951 28703
25829 12039 28703
73643 5185 25553
22240 4741 20122
27285 4741 20530
28136 4741 20256
28908 4741 19787
21170 4741 19998
27120 4741 18760
28285 4741 16404
25794 4741 17422
26777 4741 17010
27108 4741 17510
27622 4741 17378
25968 4741 20052
25438 4741 18053
54412 19718 21911
25777 5103 1910
26661 9481 26572
25867 9992 26776
27175 3350 20151
43177 3350 15227
26922 3350 17145
28878 3350 23428
39155 3350 19417
44364 3350 18152
51097 3350 15797
40102 3350 15418
34848 3350 20862
32209 3350 21377
49004 3350 15387
29271 3350 14811
30553 3350 17453
34038 3350 21399
43830 3350 16142
36981 3350 15095
27967 3350 22995
31778 3350 15822
27879 3350 21974
39555 3350 14853
51723 3350 15382
29285 3350 21681
44344 3350 15996
37687 3350 16316
30581 3350 18143
29651 3350 20848
27300 3350 22962
37964 3350 18380
30658 3350 16117
47835 3350 17510
28607 3350 21015
51464 3350 14670
27426 3350 18167
32471 3350 15073
39695 3350 18144
46720 3350 17076
27341 3350 20690
41730 3350 19017
31560 3350 14887
37011 3350 16795
29587 3350 23162
56991 3350 14663
29093 3350 18431
34518 3350 17428
75773 8929 2330
23538 7619 450
18449 4741 8738
18546 4741 11235
18441 4741 7504
22032 4741 9081
17856 4741 10377
21407 4741 9613
24900 4741 8198
17457 4741 11095
19132 4741 11340
20057 4741 10646
19225 4741 10773
1768 3951 28359
84006 13724 1515
86513 14522 19916
85655 14966 19063
79082 10463 26763
57472 26511 11222
3455 20061 15206
45643 17802 28708
76586 9105 1352
77769 9158 3975
52105 20470 24921
26427 4843 27259
9412 12630 28703
10057 11496 28703
9766 13830 28703
18608 7875 3988
80279 4316 2736
75897 16595 7018
74027 13194 28626
59860 25302 5522
86868 14619 13456
87465 14304 11460
56082 5303 28274
53320 5339 28276
22027 2714 25629
25155 13742 10345
25155 12898 13511
25155 13908 15075
25155 12115 16519
25155 13181 19459
25155 12965 16233
25155 13647 11080
74414 8174 28146
89019 3847 16994
88430 3826 17121
89983 3885 17754
88713 3840 18350
63440 23419 4025
84614 12919 1125
22442 9099 28682
50842 20067 8371
50842 22922 8050
50842 24619 9904
50842 22496 7336
50842 23214 8929
50842 19852 4928
50842 22611 6289
50842 24480 10618
50842 24638 17232
50842 23303 13085
50842 23783 13695
50842 22203 13527
50842 23792 4911
50842 18706 4291
50842 24127 5396
50842 24127 9156
50842 24739 5836
50842 24861 16202
50842 20708 11296
62181 25258 15608
19441 6621 3065
53579 17382 1580
25526 2920 3903
77814 16140 26466
34696 17486 10898
35339 17793 10269
33736 17027 16950
33383 16859 18128
34340 17316 10448
34623 17451 25304
31901 16151 26571
32878 16617 19641
35484 17862 28648
33317 16827 23128
34843 17556 14978
35572 17904 27851
33441 16886 20296
34882 17575 5840
34651 17464 27686
35601 17918 2977
33378 16856 19178
35184 17719 7580
32233 16309 26117
34857 17563 26906
75117 3343 28776
78331 10703 2252
43788 17974 2480
40159 17974 3514
43276 17974 2684
18683 2732 28909
40958 17745 337
72801 18787 18678
72679 18956 15255
75991 1979 607
78423 2205 1454
90039 7397 3035
77725 2727 27026
86471 14663 10548
22113 10499 25287
60458 25936 11340
47213 14749 186
46512 12048 186
46542 10344 186
49280 12713 186
51465 17452 186
48151 17595 186
47730 10730 186
47458 12029 186
55337 26082 5971
77468 16718 16695
77536 16698 17258
71496 15859 25441
75697 7969 25759
56232 11379 23352
70129 15514 5644
60269 10345 10024
63486 10445 9817
67323 12339 15873
78111 14328 959
89619 3865 15137
85735 3721 15178
87051 3769 14705
87423 11403 27460
90251 4099 7142
75087 8643 2617
90841 8601 6492
9118 20204 12816
10521 18166 12816
78932 13176 667
73668 9861 1920
19426 6541 26707
85950 13947 5113
69994 14834 24612
73696 18068 18605
75616 16597 18500
57204 17813 1693
65841 16821 1355
61597 17262 1507
86137 8419 28459
66841 12963 24631
20305 10879 26821
19676 10626 26613
20053 10778 16175
20411 10922 21414
19688 10631 23443
19864 10702 17347
19600 10595 14440
19718 10643 24044
7297 10987 5196
77905 9208 253
55266 26158 22916
61412 25452 9014
7297 15476 6198
7297 15820 1409
7297 15565 3910
89881 4742 6592
70316 17242 1440
5733 4449 15199
3977 4675 15961
4153 4652 14735
28040 3392 24871
28216 3603 27265
35017 3606 27283
28748 3504 26148
34770 3511 26213
35715 3627 27522
27544 3423 25225
27705 3641 27688
22641 8182 28878
66910 11695 21422
22314 9035 724
76438 16560 24276
79394 16369 20940
78799 16266 23743
75893 10344 265
24618 6696 28342
76497 12675 25934
76497 12675 27017
79084 460 1080
53618 18196 1827
25863 964 1557
11194 3819 26702
8047 4203 24096
10982 3846 24620
9188 4064 24809
79528 4577 2594
89344 4889 25975
58013 12695 17359
57369 15569 17639
29379 8511 7429
24427 6159 7429
20283 5219 7429
22487 6841 7429
20251 5813 7429
24598 7085 7429
26201 7713 7429
25540 7044 7429
24886 5634 7429
28572 8699 7429
25569 8417 7429
90710 10767 13726
79042 16567 13783
78485 16623 13305
76192 16540 25021
80059 2520 29002
90856 4970 20449
75020 3177 2008
21897 2792 2588
61709 5347 28287
68529 5533 28312
18978 1632 1115
59529 26181 17829
58735 26399 17609
23243 7616 947
21781 4783 205
73735 15499 28197
91104 5871 16653
75780 16621 11020
52165 25189 17576
51971 25189 21676
51967 25189 14655
89316 12697 19375
89867 12204 17440
76894 15965 27688
27376 8495 1485
26308 4186 3514
54526 15511 28419
62808 15070 28481
58316 14984 28534
66511 21761 25518
56102 12060 22793
69377 18619 1834
28106 3953 2287
71384 16000 25944
57562 18806 27216
58111 26482 16501
23216 1872 1392
66742 12778 22059
72674 2097 347
91142 5919 9649
79970 15279 1648
60162 14423 28620
64229 14718 28539
77255 2699 26129
26647 1507 26523
80861 9162 350
68222 9548 3152
68728 11105 3835
83429 15281 5487
75119 8760 28901
58498 16455 27928
74491 3569 1058
68985 20215 3130
56556 21104 23006
74044 12201 24496
64620 9902 21820
22287 1876 28531
38846 7277 186
36583 6348 186
37730 5943 186
33616 6743 186
39244 8172 186
38058 8682 186
32984 6274 186
39601 11910 186
37231 7867 186
35444 8245 186
38713 8967 186
33875 6280 186
35974 8106 186
50399 24917 9139
67564 11846 15579
81927 7509 28105
72716 6587 204
3337 5769 15226
27043 1946 26603
27366 2449 26860
74929 8393 405
27692 8039 28056
19721 3737 1537
55673 5739 827
24978 2552 3888
79121 2644 28879
72362 11389 25006
71683 10763 25904
25763 895 26125
23518 10860 26486
53070 26128 23079
64599 20724 26553
59914 21481 26246
60825 21482 26250
58232 22170 25977
61693 22565 25841
3760 21259 13371
18998 3042 204
26157 3916 28168
8187 12466 21463
78984 9681 25176
75204 16921 12684
59302 9543 29047
64547 9698 29016
87990 12426 24407
65077 22710 25007
51576 18060 24921
3705 4720 10319
6479 4353 13289
8535 4091 13100
5442 4498 10337
7843 4181 12909
80433 15655 25515
5377 4635 2076
76835 121 28859
84957 3707 3748
83837 3655 4785
76878 7017 28901
73464 6885 26502
55314 22750 3475
54271 25389 4945
51706 24071 23025
51706 25133 23327
51706 21815 15093
51706 23734 24829
51706 20202 24514
51706 19585 24457
51706 20618 19318
51706 24367 24194
51706 22666 22792
51706 25106 7428
51706 25071 18528
51706 23281 17178
51706 23633 20735
51706 24016 8456
51706 24636 15784
51706 25158 4509
51706 22498 13832
22233 9847 25176
61693 10390 5777
62476 10414 7332
63715 10452 8805
63196 10436 5774
86054 10356 28421
80370 6149 25637
59761 7078 22730
18580 8774 28832
26320 8563 25176
60759 7040 23500
60819 7856 28850
65508 7879 28857
53919 7367 28739
53580 6591 28564
56153 7369 28740
61264 7259 28716
7297 15425 25688
7297 14432 25973
7297 15881 28382
87259 3798 6669
87510 3809 5607
84029 3658 13710
84127 3666 5518
84336 3673 8948
84986 3699 10965
86935 3782 9943
76390 7840 28869
57088 9079 28980
20061 4750 1965
79661 860 1471
70895 19308 3984
72878 6813 4016
90494 8564 4768
7297 10067 2340
7569 16287 24485
4555 4677 3972
7796 4254 3432
7208 4331 3508
3638 4749 7212
4066 4726 5020
5123 4568 6101
24891 5457 898
26225 17716 14249
29331 17167 14962
32338 16636 15455
27032 17573 15204
27596 17474 15720
32018 16693 13127
23718 18159 14721
25884 17776 15755
20721 18688 15442
20093 8588 28989
73240 5094 3651
26922 6090 28980
85792 15077 14727
25872 3674 28801
26548 7389 25194
78327 14517 28164
25276 7149 1833
22680 24 2191
45162 13354 28854
45411 15107 28854
42663 15168 28854
44685 12356 28854
42329 14474 28854
45412 8160 28854
42130 16734 28854
45453 15892 28854
45297 12748 28854
77221 12687 154
74598 2644 27086
66705 9340 15911
54901 21550 21834
73888 4999 27811
54977 16035 1043
60157 16057 1084
58928 16056 1077
88780 10019 2475
79200 8234 28670
90625 4767 12901
11915 3733 4647
7248 4300 6510
5299 4538 6850
7183 4308 5848
11032 3840 3818
20314 9443 29002
66705 22425 7128
68062 21574 6602
69486 20716 6423
53271 4560 20542
53307 4901 5941
53279 4631 16760
53279 4633 18858
53300 4835 14781
18342 9669 20081
18212 9573 4430
18859 10055 20140
18472 9766 16479
19126 10254 21118
18185 9552 9576
18610 9869 24191
19064 10208 23345
26389 4635 26298
7297 9385 5452
74108 8533 24412
82750 8592 24404
77053 8769 24409
75286 8301 24411
61913 19966 26821
54568 20688 26503
60431 19706 26906
65410 19255 27108
61453 20696 26550
62446 20290 26707
54826 22195 25952
86473 5002 1423
78831 9972 4000
54971 19253 21202
39922 18000 26812
68531 21654 16190
68947 21412 15436
70973 20157 14986
69563 13195 23562
64667 13836 674
9331 4079 27486
79524 12080 161
70928 19842 6793
27714 4385 262
3331 2374 12893
24198 10737 1430
22821 10986 2413
72694 9033 26929
26459 6212 321
20226 6307 3239
51510 17838 28703
20201 781 27893
22066 8442 460
26027 7264 2123
51854 18311 11740
51767 18311 14664
52291 18311 8687
20721 2122 25206
76282 9409 4799
73449 9195 4797
75301 9057 4796
75218 9723 4800
70106 14583 28488
79756 15556 27133
28078 3800 26701
52848 26363 13093
75423 13423 535
72225 16323 9178
70775 16320 10425
78574 4146 28252
72801 18791 10681
72401 19104 11939
65125 23413 8058
73301 4817 1354
25763 6990 25542
76612 27 25922
40304 16328 337
90591 10915 18398
24752 8556 2487
90081 11640 18804
7297 10965 7184
28061 5038 25308
78057 8336 25572
67855 6639 28600
61596 6195 28491
62295 6354 28526
63436 6239 28505
69160 7623 28806
56236 5857 28406
23997 2041 27725
1629 3444 28359
24876 11236 4086
24896 11228 26715
25241 11089 17234
25609 10941 21338
25207 11103 21993
26071 10755 23648
25539 10969 15659
54788 21380 22907
60229 9365 161
68280 9456 205
79143 16529 17080
78109 16665 15950
22113 1966 688
22033 8276 27456
24103 10754 3570
69214 6769 575
21463 14867 186
24880 14385 186
18103 13225 186
19004 13593 186
22292 14349 186
25427 4078 2104
56871 20089 21896
27707 2981 2065
21825 2667 1295
1425 4445 15580
1359 4399 14151
25051 2604 28012
53232 8767 8338
53241 8343 23556
53229 8915 13806
53229 8953 23609
53232 8806 28144
53237 8522 16265
57553 14749 10113
57859 13385 9934
58705 14370 577
21137 8453 25496
7447 12443 337
58069 7999 22864
19795 7318 490
58458 26043 22185
20001 5367 27064
71715 3587 3693
71337 5328 27650
76179 9017 25638
51067 24577 13744
62146 16515 1279
58870 16533 1298
67732 4427 1342
66819 3752 1610
80499 9360 3898
90859 6044 23187
71361 15869 1038
68108 16753 19942
54844 26721 13734
54855 26696 12873
56720 19493 20689
56526 18992 22684
85400 15184 12935
20335 10288 1030
19480 9695 630
81901 16040 18038
81332 16167 17291
38914 9054 28854
36841 9776 28854
37906 13739 28854
36744 8888 28854
36223 7940 28854
34221 7194 28854
34694 9486 28854
38931 12740 28854
34297 8719 28854
38697 7102 28854
33714 8263 28854
21153 8652 25994
67108 11327 12376
67243 11601 22324
64375 22077 3168
26465 5951 973
81889 4533 347
91684 8018 14413
9558 3971 11673
10596 3892 5666
9644 3979 9400
5862 4458 8491
9911 3968 6717
7853 4214 8010
12305 3658 8210
10510 3867 9958
6884 4329 8731
11921 3687 10441
10533 3874 8796
10675 3836 11156
8637 4129 6494
22055 9567 213
80808 3616 21224
77288 3574 16670
66129 3441 15080
74161 3537 17450
83309 3646 21178
72291 3514 16607
67163 3453 15593
69109 3476 16831
72198 3513 15071
63286 3407 15584
70256 3490 15927
79454 3600 20147
83582 3649 17903
82332 3634 15935
81220 3620 15097
81083 3619 16402
78389 3588 20920
78600 3590 20081
83381 3648 23708
80683 3615 22054
74311 3539 19119
77364 3575 18666
70758 3496 16429
63304 3407 14610
76937 3570 19524
81956 3629 17344
70104 3489 18511
65845 3438 17139
78235 3585 15403
73150 3525 19214
73670 3531 15478
76033 3559 15623
76600 3565 15317
65691 3436 16371
62461 18243 27423
64094 18542 27352
67317 17358 27708
65996 18663 27333
60520 18643 27296
78177 1991 293
53961 26124 6110
90377 10310 18094
77782 1962 3919
40203 12872 337
23107 10934 26884
79359 10073 347
69938 8505 25323
70336 9189 25126
21256 2332 28801
81397 4038 4030
53096 15639 16940
53088 16035 5405
53090 15949 3053
53097 15593 6156
26952 10246 27192
27054 10171 18038
26835 10334 17140
26543 10551 1643
26631 10486 27553
90487 8777 24405
80199 6935 1340
21997 3132 28450
66147 10085 16411
67913 14707 22205
62992 24677 9490
19541 3997 26267
76793 16733 18334
23126 0 3548
25894 9974 27739
25242 8228 962
20227 3484 8824
26178 3354 10439
19666 3497 6860
25392 3371 8700
23884 3404 7938
15597 3586 6465
18014 3533 7888
18817 3515 6335
24798 3384 7462
21751 3450 7287
23024 3423 5681
20730 3473 10134
17311 3548 6870
22452 3435 8170
18686 3518 5198
24082 3400 7103
24920 3381 12053
21728 3450 5083
20518 3478 7126
80266 6629 28837
90386 11148 10064
56772 20517 21357
91631 5980 12269
91158 6632 7447
67801 12950 17106
70865 16290 25218
78183 8888 3100
9336 9122 13079
9186 8461 13079
9968 8467 13079
5913 7970 13079
5178 7126 13079
13305 8820 13079
15184 8909 13079
88999 11237 5704
18565 8127 28883
76777 10984 26518
65815 23312 16003
66680 22798 16530
68503 16228 13971
68505 16235 17182
79556 5446 24350
75287 5749 24390
72639 5689 24382
81563 5739 24389
8141 13919 28703
87490 13043 5472
77004 10943 25309
78340 10702 27782
27999 7419 350
88661 13115 21663
74664 2017 28982
61652 3388 5526
68542 3470 6761
66949 3450 5018
59048 3356 7345
74173 3537 7969
62029 3392 13201
69581 3482 9446
62198 3394 6644
60460 3373 13822
82854 3641 5137
58921 3355 5442
71499 3504 8428
59717 3364 9709
80106 3608 5238
69486 3481 10438
73284 3527 5205
63558 3410 8274
62353 3396 7724
66336 3444 10159
69269 3479 5200
68753 3472 10588
68891 3474 7630
62475 3397 10496
78043 3584 5762
76942 3571 7155
66429 3445 8311
61499 3386 11424
73962 3535 5586
68003 3464 9053
68796 3473 6151
72106 3513 8815
64558 3422 9307
67299 3454 6793
74016 9616 288
9518 20430 14953
11430 20092 14020
80719 9777 24405
73486 9314 24408
74194 9151 24409
71799 9015 24410
77901 2032 27795
25560 10125 25308
80543 4906 28939
76273 88 2413
68906 14012 730
83501 15726 13230
83394 15720 12020
78909 447 28859
71697 3670 2536
36667 17632 337
85004 15259 11141
83883 15654 14520
73491 18305 12675
64540 10080 17617
90020 11721 10491
67998 8114 28878
61805 8161 28861
47356 11682 28703
40625 13786 28703
42879 12893 28703
40444 16600 28703
40918 16923 28703
44049 14885 28703
44914 14678 28703
42226 11757 28703
49777 11650 28703
82746 9198 4252
83380 8108 1781
89922 9292 26064
3004 17914 13440
86452 13084 2582
89599 11744 22013
26616 4964 3972
73884 951 2444
25484 2706 25235
19807 7336 28036
81259 16225 13750
82503 15927 11123
72295 16360 4983
79092 2669 26127
27796 4043 28874
49682 18311 27925
42617 18311 28192
51622 18311 27195
38814 18311 28637
24708 9438 204
62664 24715 7820
83619 7249 27160
70269 15010 10605
70089 14800 7695
74988 10610 1998
2245 18364 13055
77055 15558 1301
79258 7331 28742
80412 1631 28859
90718 9136 9116
79038 9188 204
89241 13407 14072
75330 3059 2730
65720 22613 23943
28005 7393 27693
21431 8843 2362
83692 15508 19862
84670 15071 21934
73281 8911 28973
19943 6846 3662
81802 15984 19853
81704 15821 22406
73684 7401 25261
51730 15896 28703
78006 8889 28281
26957 13928 16465
25873 13928 20797
25197 13928 8200
26052 13928 13784
26397 13928 11934
27890 13928 19452
26166 13928 12958
29113 13928 16634
28685 13928 21448
29609 13928 19180
30123 13928 19063
27485 13928 18891
78515 5631 311
47992 11002 28854
47849 9799 28854
45977 15831 28854
48472 6864 28854
46911 9355 28854
45753 16364 28854
45926 12800 28854
46758 15423 28854
49449 9072 28854
53372 8049 13375
53109 8049 7812
53276 8049 882
53289 8049 9893
89157 13246 11633
87000 12486 2287
20180 14741 13324
27637 13425 12988
23408 14171 12522
21531 14503 13539
31887 12674 13667
28499 13272 14748
28167 13331 14019
17673 15184 13241
24847 13917 12746
31620 12721 15333
82185 15719 6761
81148 16147 9763
72646 14611 777
60646 25904 14480
61170 25759 13455
80425 5120 3336
25563 10187 760
56233 21620 23295
82600 5862 24404
79620 6622 24404
80449 6087 24404
81409 6289 24404
70435 5882 24404
87871 13033 23336
65944 23251 13848
56299 18605 22306
31818 11312 186
58499 7652 25095
79991 7241 26452
70149 8867 3817
70880 19956 21344
20398 6685 28851
23562 7229 21611
17666 4836 21611
24254 4898 21611
18665 8718 21611
26102 4837 21611
19593 6431 21611
23977 6759 21611
20148 8314 21611
21268 7213 21611
21700 5812 21611
20309 5500 21611
65740 20879 26499
72590 16642 22485
23288 9076 25301
91487 6871 18842
20085 4200 14124
18064 4741 13964
82041 3883 27623
60619 10356 24581
63860 10457 24666
28119 4025 28163
84860 12034 28414
89341 4555 3478
50399 24546 13329
74551 7145 2731
18477 2323 13867
17282 2323 13463
11978 2323 14049
20516 2323 15383
15656 2323 14533
11240 2323 13630
19217 8347 4030
72854 9282 988
72914 16319 9885
73592 16319 11167
74070 16319 17376
73211 16319 11546
73672 16319 12252
72110 16319 10669
72660 16319 14337
73123 16319 12210
56021 3514 26178
62774 3507 26029
55356 3544 26510
61746 3617 27210
65132 3628 27291
56976 3387 24815
47289 3611 27313
58140 3365 24569
57682 3618 27269
48135 3561 26767
56698 3650 27617
49179 3649 27694
54546 3486 25898
56073 3571 26786
78258 2994 2472
90097 12078 13045
14720 5848 28854
14251 7134 28854
12980 10024 28854
14298 6345 28854
12285 8506 28854
19340 1335 27221
8130 17617 25110
20353 2710 3948
62532 4485 1232
65996 4737 1187
7570 13776 337
74862 5448 28328
52242 23251 2228
52287 23912 2228
20884 3446 28834
72427 18291 4133
78222 6838 4802
75311 6456 4802
82808 7159 4802
81610 6392 4802
87781 3773 2492
48641 18026 337
71182 15432 28297
22891 5554 168
74385 16564 3261
26181 9310 288
65769 23265 10478
64952 23587 8907
68722 8818 5853
68887 9273 7320
90495 9695 19410
26134 7145 721
83558 7508 3645
24075 2041 28260
65576 23435 16693
64672 23987 15390
30343 10382 337
26484 11153 337
29483 9478 337
28383 9336 337
88420 13371 7840
81126 8780 28015
20632 2656 934
21087 11688 337
64869 3562 26182
68075 4424 26037
64166 4501 24649
67817 4998 25156
64596 4752 24440
22992 2479 25604
63005 4338 4712
68729 3894 2219
62354 4177 4702
63719 4101 4149
7263 8732 3053
71607 3506 13472
76757 3568 10581
80701 3615 11483
82492 3636 10300
73321 3527 10753
73535 3529 14511
72397 3515 13665
78636 3591 7715
79570 3601 14154
77082 3572 11435
83141 3644 11077
70969 3499 11239
70253 3490 11173
82218 3633 12035
77954 3582 9921
81894 3629 13497
80494 3612 10361
67582 3458 13144
71312 3503 12594
78546 3589 13044
66981 3450 11976
78738 3592 7047
74084 3535 14298
68427 3468 12434
78129 3585 7425
69410 3479 13754
72659 3519 11729
69341 3479 14475
77889 3581 14392
77080 3572 8826
78576 3590 9147
83031 3643 5681
64070 3416 12551
90361 10805 9534
7297 9835 26777
7297 10800 26673
91343 6130 8857
44417 9745 28703
44783 10479 28703
40466 10946 28703
46258 10368 28703
40676 7970 28703
48417 10567 28703
91219 8138 8787
25951 3595 27588
20240 10222 27409
28266 6189 2500
81161 11485 28960
87690 12874 23802
27292 8617 28610
82129 4371 27367
71415 19835 15900
51684 25189 19126
51056 25189 7278
64584 22194 25974
67456 11572 13886
35152 17631 337
42994 17896 28703
68900 8127 326
63000 8270 343
90997 4413 14509
68063 13420 22546
78429 9509 4030
52362 25068 4119
74463 16921 5617
87387 8043 28057
57841 26531 14563
56659 26658 14228
69282 13608 3903
23915 2022 2392
39930 10926 28703
60037 26053 17059
73337 4684 24292
62917 3861 24377
77772 3696 24186
70848 4776 24327
70879 3966 24285
66388 4579 24372
69680 4070 24305
65083 4219 24369
71953 5054 24328
