ply
format ascii 1.0
element vertex 2711
property float x
property float y
property float z
end_header
57423 18155 18517
26832 21921 31923
19785 22 33802
1472 19842 20483
1408 19284 19910
77436 4165 7128
23927 16753 2981
26635 16920 2974
16445 11758 3132
25984 15545 33493
6530 12249 2860
34624 14965 2767
84068 18088 9413
5928 27873 12683
85857 8069 23876
46425 15519 33389
2120 8828 15546
2017 12165 17224
2125 8722 13755
1956 14123 17520
2083 10026 16311
1912 15547 17157
2117 8939 17893
1938 14719 17937
2048 11160 13483
2049 11137 17241
2075 10316 14006
2017 12166 15518
39738 9507 18118
42023 12041 20226
25820 4631 4272
1357 18325 23097
5255 26755 9859
5572 27240 10644
4767 26040 9182
79932 18459 31067
49877 29319 26787
1550 15036 23385
15621 15257 2093
47519 17015 33405
15984 5451 6285
50465 29228 19698
14507 25800 30803
7066 28876 19837
8039 28940 20377
22184 640 31786
70604 6883 3304
17239 15083 4340
19856 15083 4814
20881 15083 4237
23322 15083 6335
20399 15083 4959
16191 15083 4342
25026 15083 7272
21706 15083 6260
24095 15083 3607
1805 7145 22149
19008 2513 6007
47064 13659 33511
87054 9446 21003
1666 17996 5391
11264 9786 31456
11477 11769 32486
11254 9695 32027
26023 5405 4172
66958 6023 7028
64537 6023 4262
72414 6023 7385
66189 6023 5889
73667 6023 6478
80261 6023 7434
65467 6023 6980
72390 6023 6715
70255 6023 5723
67170 6023 5679
29385 10777 28970
29336 10966 28252
58479 15099 33473
49262 29587 9600
46294 11086 13910
46206 11450 10154
46077 11986 14841
49341 29451 11260
85817 13680 20056
85746 14158 21072
75040 15308 33417
62473 13519 6667
62158 13519 5997
60769 13519 5761
60023 13519 12371
59596 13519 7975
62107 13519 7273
60251 13519 7504
13648 18123 32993
5140 18162 32838
8672 18512 32865
11292 18119 32952
67179 20239 26270
29137 10720 33479
56021 27705 16161
55048 28263 17228
85312 7302 25484
67159 2987 31178
56780 16014 33331
5680 26625 30173
77233 10947 7077
16010 28684 28821
18756 28722 28791
18142 12445 31494
18402 353 3795
57852 18898 18272
57646 17823 19479
44268 21485 24911
85216 9731 29959
5766 6717 32445
9060 6683 32648
85324 8892 8131
26131 7576 3782
37961 29360 16822
39800 29363 17721
37757 29323 15200
21221 328 3828
79060 18085 31462
73435 6224 32512
73046 20675 18945
11771 11675 2402
51054 27867 6348
54572 12774 19191
54319 26592 5803
46391 12070 30796
83105 16131 30181
47319 14446 29908
46244 18183 27771
47011 15516 29192
46016 18976 25703
46571 17046 27244
45607 20398 28783
46585 16997 28125
45437 20989 26663
46865 16023 27369
47378 14241 29062
45614 20372 26789
46113 18638 25134
13328 6344 30147
4882 8987 32600
3409 11075 31838
4475 17717 32526
4280 16191 32395
3438 8184 31805
47842 28993 11311
59635 24693 6670
56297 11235 21936
55814 9609 25547
55923 9973 24089
85738 12311 9850
12283 10223 7670
25262 8171 7670
12152 12183 7670
23069 8250 7670
13409 9309 7670
15090 8725 7670
13054 12095 7670
18511 8651 7670
16485 10258 7670
15873 9108 7670
12028 8079 7670
13108 10326 7670
12181 9195 7670
28218 7426 33020
38377 17666 33140
9192 24666 5094
16824 25376 5304
17345 25087 5219
25887 25767 5419
24584 25335 5292
27541 25813 5433
22565 26033 5497
21946 25054 5209
82753 13204 31461
82163 11902 32241
2436 12135 32893
58011 19728 7946
17371 9613 4789
49993 9720 2822
46995 9014 2879
52034 9618 2830
54366 10092 2792
45366 10408 2765
56264 9286 2857
48010 9694 2824
50060 8882 2889
16671 9111 32387
59046 22882 34988
59537 21444 32757
45293 29203 18525
85590 11193 6943
71991 20707 22910
70918 20797 22748
84724 5527 18985
26005 6446 2394
1831 20400 7175
81990 19010 26150
72886 11898 3074
6380 28804 16034
5961 28695 13901
85575 7422 22768
70638 20311 6137
68590 20560 6559
6472 26898 5810
54154 28474 23644
53744 28665 20585
53049 28767 22891
30368 16565 33267
76359 18217 4423
81499 6595 31420
45552 29184 17178
78339 19660 9072
21559 12207 30452
57478 16943 30082
57507 17098 23227
57484 16975 26660
84402 12058 5053
23298 1396 32231
66485 13229 33828
4023 10448 4059
3592 8200 4331
3131 9143 4565
3800 11692 4159
27409 20514 11892
13635 6574 3589
85430 10664 29747
66402 6522 32961
5012 12754 33070
64888 12852 33645
66043 11438 2542
51319 29810 13717
52540 28108 29392
13538 18833 32858
18765 19029 32796
9086 19323 32704
17924 18838 32857
19681 18440 32982
15761 15138 24790
15489 15995 27762
14140 20245 25745
14552 18945 26431
15426 16192 25435
14343 19606 21786
15541 15830 26758
14699 18482 21601
14987 17577 23438
14485 19156 23638
15183 16960 26139
14432 19324 25704
15114 17176 24227
57875 19018 7706
72941 6599 3368
13985 15129 18058
15258 10356 17755
21040 7819 2610
57324 15931 12582
57597 15369 7011
57374 15827 8874
82268 18956 23315
21455 437 29738
50072 9813 5424
47875 11372 5424
46289 11950 5424
46703 10871 5424
38704 14843 33467
13615 6020 6563
1417 19471 17465
82931 12736 31700
8401 17609 3223
14729 17764 3140
10956 17825 3220
9277 17828 3249
71271 12483 31356
60250 24426 29012
60847 24100 28715
61845 23426 28850
65098 21116 29849
16657 1027 4111
26550 13478 2279
24663 4895 29791
27590 24505 5047
24991 9455 29943
70969 10347 7105
81553 19144 25400
50484 17086 3013
50726 16367 2930
50704 15672 2849
205 8713 19882
59253 12909 33534
77655 19882 10716
76281 20122 11255
73969 20498 11362
19708 5723 33447
83499 18524 11823
82195 15785 4791
57543 18782 19332
16351 28887 26213
18932 29057 23710
14872 28818 27000
13321 28794 26761
8200 28712 25989
25204 29187 23980
12565 28909 23783
9675 28828 24120
10295 28665 28106
21961 29091 24495
10575 28844 24229
8626 28686 26792
20042 29098 23351
14292 28937 24041
14505 28964 23529
10858 28888 23380
10357 28799 25118
18014 28907 26614
19669 28998 25419
18927 28989 25239
24139 29168 23875
24168 29106 25284
9034 28714 26369
11370 28859 24305
44613 22546 4714
19700 273 2385
34819 12178 2663
37020 12822 2682
72531 16549 3552
47125 10589 33468
46443 9938 33416
49362 11339 33529
1542 13695 20800
74280 3498 2977
72864 458 3347
70185 1212 28825
1594 20298 23553
28191 20549 9245
1986 14869 32104
50306 28848 24501
85986 14661 19227
80584 19418 17046
66385 7953 31921
67322 3236 6794
20088 6054 2845
5857 10984 33520
5106 11291 33442
44289 27289 30342
17976 12445 32374
19677 14681 34132
48871 15516 2760
40793 29290 14764
44383 29288 16174
41863 29315 16592
43183 29267 14538
44673 29302 17079
38907 29308 14926
41546 29284 14777
44181 29316 17639
37260 29280 12736
43707 29299 16500
41086 29253 12846
44158 29221 12414
34341 29294 12222
18494 270 33756
67609 19940 31814
74638 1821 7113
1585 18279 29629
28099 24029 26739
67760 20892 10204
6585 18859 3427
7401 18927 3419
78750 7398 4120
76421 7987 4434
24465 2733 2408
13976 6901 2404
83576 7237 29642
36518 9699 2823
34864 10094 2792
31497 9000 2880
37371 9386 2849
29708 10266 2777
36165 8950 2884
13533 4721 31553
2058 21483 20318
2693 22788 24499
2458 22285 23506
2282 21945 21762
2242 21883 20952
73692 6325 3385
75142 3515 6936
85000 13056 27939
68470 8002 28907
51033 28904 12395
27391 6823 32899
83477 18152 28025
29368 10845 22659
29248 11301 24299
29130 11756 23008
81710 12224 3885
71865 7096 3454
8545 26288 5560
53866 28271 10228
54434 28317 11702
85140 5903 21896
36816 14497 33485
16657 8895 5007
85461 16122 19829
77247 19754 27458
1598 20176 10065
54878 14513 2735
19354 4399 2694
54524 12676 20499
20957 1578 2487
69092 8736 7192
73952 16278 3424
1578 13743 17413
33893 7998 19690
37816 7998 20184
27318 7998 18657
12572 7998 18630
37988 7998 19083
21550 7998 18398
34341 7998 18253
20047 7998 18694
32065 7998 19007
28592 7998 18414
25930 7998 19589
18425 7998 18666
27676 7998 19241
15958 7998 18353
22397 7998 19074
23119 7998 18185
20425 90 30286
65395 21722 16052
60156 25101 17060
63246 23108 16451
74083 2907 6300
38640 16773 2977
71139 3729 2963
67049 6884 28838
44398 27574 5960
23062 7940 2622
28371 20588 27522
678 9226 30088
12111 14495 33593
2747 23015 20143
2915 23360 22301
2520 22525 19380
3038 23649 20819
66444 12615 33783
33955 8759 2915
30351 8746 2918
35584 7485 3255
40584 8667 2939
32817 8228 3057
80525 7930 32017
1505 19015 9935
38985 28414 6307
72282 12094 32937
70250 20628 8370
26406 16198 33337
50462 29569 12377
80568 13288 3762
4055 24335 5460
17523 6823 2684
83991 14840 7399
46096 18448 6006
46348 14557 5637
47573 13293 5517
27077 14084 33619
25973 13535 6596
25589 14302 7133
26608 12269 6763
73154 9286 33012
50718 11476 15711
46198 11912 15711
48034 12031 15711
15859 1644 33895
49951 14860 33465
23012 1077 33788
79692 16759 31901
1303 9744 4341
68794 10969 3031
43823 21376 11414
44047 21376 10189
45559 14128 27821
44724 17582 24733
44469 18640 24123
45702 13535 24963
45529 14253 28538
44918 16780 25509
45743 13366 23881
45184 15680 25415
44336 19186 22715
45495 14393 24417
45100 16029 22967
45942 12543 21726
45610 13915 23431
14791 10044 5347
53117 27604 29940
32491 12215 21539
37508 12583 27346
35634 12446 23012
36751 12528 21500
37337 12571 23841
35337 12424 25811
37571 12588 29347
37522 12584 25098
38334 12644 24428
37068 12551 27695
58724 12695 33541
4446 25607 9332
3488 24348 10342
3929 24917 9709
51311 29804 25357
15353 10001 15240
15028 11218 8966
15290 10236 9281
15318 10133 13377
84464 9823 5089
8012 13844 2927
7278 13773 2993
8361 13190 2887
56555 25824 30500
86706 11280 11989
55046 27717 26962
72775 6100 32600
17084 19295 3507
19524 18184 3157
19442 19119 3452
67803 2242 31402
71857 5040 3307
73968 12342 28836
72868 6885 32620
5577 28342 9101
81876 19079 11071
14001 6900 33862
31630 15370 2814
29287 15515 2830
66454 9450 7453
74464 8190 7453
73969 6422 7453
70531 7547 7453
67348 9558 7453
72088 7690 7453
70521 9761 7453
66935 8899 7453
75619 7846 7453
76279 7222 7453
65762 6790 7453
70781 6344 7453
76683 7701 7453
68345 10123 7453
71470 7028 32513
65791 14579 33548
50029 29228 13864
12274 11954 30512
13136 13229 32756
67095 15742 2851
53047 17534 33156
21440 21315 32105
12800 21584 32024
85427 6002 18153
13228 18644 27677
13613 17627 27783
15179 13661 28199
70472 10862 3120
21145 10136 29710
69108 20959 15346
71005 20805 14119
70823 20827 15614
86296 11312 14365
24300 15245 34033
41066 28533 29703
5310 28457 14581
21121 284 5947
75845 11924 6912
83782 18446 23319
39529 28354 30003
37579 28413 29915
6016 28009 9404
66435 5003 32971
6866 28158 29794
81416 14678 4386
18266 12556 2775
16954 4008 2477
7050 28758 12937
7050 28723 10973
6627 28669 10028
74585 6023 29755
80766 6023 30285
70338 6023 28832
71083 6023 29451
80099 6023 29620
75279 6023 29090
23040 5056 33732
19974 2395 3334
78847 6406 4354
45039 16279 12251
44075 20268 10562
44469 18638 12008
43998 20586 12653
45459 14541 13851
44506 18483 12778
45246 15425 12057
44598 18104 14432
44029 20458 13557
45591 13997 14752
43851 21194 8378
44987 16494 14477
13432 7195 32284
45442 24172 11029
45548 23801 10596
1497 17223 6344
18714 14879 31555
19707 14879 31536
14891 14879 29964
22361 14879 33603
15077 14879 30718
20207 14879 32130
14574 14879 28950
14616 14879 31838
22895 15472 2097
12587 12642 2259
57863 18956 26967
42787 12274 19244
42787 13155 19791
42787 14448 18046
11167 12952 2554
57300 26913 19875
23212 1533 29723
58858 18573 18448
2006 18183 31929
78044 3743 32972
67714 20669 17955
77026 8971 3096
14185 8959 5368
65358 11968 5835
66259 13501 5859
65939 12957 5280
82805 7729 31346
5791 27757 19850
5930 28552 7351
77492 19946 19725
45328 29144 21668
47426 14071 13115
46666 16715 7986
46927 15808 6188
46825 16162 10981
47250 14683 8555
47541 13673 7658
46757 16398 6560
47680 13191 10841
46797 16259 7197
47145 15051 6928
47605 13449 9944
47535 13695 9367
68572 11275 32534
25670 7967 31153
16507 949 32838
80119 18988 6397
50007 29451 25355
78346 16238 4025
3331 7998 13997
2720 7998 14437
26264 7998 16087
6197 7998 12223
11914 7998 17787
14475 7998 15025
9171 7998 12800
19728 7998 15666
6713 7998 13580
8424 7998 13656
20975 7998 16660
20128 7998 14988
33190 7998 17710
11658 7998 13571
10097 7998 15110
24122 7998 17618
22721 7998 15229
20992 7998 15784
27739 7998 16417
5807 7998 17859
5394 7998 15285
16944 7998 14772
4541 7998 12555
18724 7998 17675
15322 7998 18097
5627 7998 12717
4010 7998 14139
3914 7998 16585
3335 7998 15909
28140 7998 17241
14990 7998 17421
17744 7998 16441
15790 7998 17741
13596 7998 16834
3252 7998 16622
8551 7998 12495
23783 5280 6195
75219 9257 28822
75668 4055 6767
23797 7538 5653
31039 26959 5777
84680 14568 28797
25323 3323 6295
10612 7476 3229
8945 7245 3369
7112 8252 3074
11201 8345 2899
42944 14905 19866
1656 11504 14344
56719 16182 25026
76069 8664 5060
22710 11849 33490
55214 27514 28969
37381 28676 29393
23587 7664 2380
79510 13640 32306
85996 13598 15837
55496 18279 27774
83347 10658 31887
1429 15066 7162
1403 14549 8987
1470 15007 5885
85117 5730 15850
81467 16562 31660
72139 2627 7192
44837 25016 24969
13532 8031 31215
77425 6286 28881
57543 17696 20408
16871 9610 29769
58497 20594 4244
2302 16788 5404
2263 13428 7368
2497 11681 4905
1865 18996 10460
2175 16120 7443
2225 15877 6865
2070 17462 8306
2198 15510 7379
2434 11269 5942
2127 17719 7403
2549 9943 4930
45530 27637 30249
80467 14342 32071
46174 29039 11014
532 10783 12468
85010 13986 8919
74047 19419 5237
70097 9630 29752
77367 9238 32930
37416 14072 2721
77398 2632 32477
22651 1230 6557
65672 18800 32750
18368 1887 29846
59875 22493 3344
5451 28369 25137
72679 2590 3933
20594 17160 33198
17864 16959 33245
44020 21607 28000
76459 10471 3060
68570 6892 5346
7654 14890 33196
10803 13018 33550
11852 15040 33463
56460 27472 19026
18545 2651 5314
44413 21466 10904
82802 15752 31176
57623 19286 5970
72433 2255 29976
74314 7580 3307
70860 15042 32300
70385 15042 30721
68266 15042 31616
74094 15042 31473
73629 15042 32384
67570 15042 32731
69571 15042 29929
69203 1238 28788
67077 9552 3302
81336 19153 9692
13808 7415 5147
50078 28231 29502
85338 16302 13704
73225 7867 3060
45863 22205 25593
26746 13954 3777
17302 15829 33866
49891 29451 15232
14819 7866 2464
23943 6504 4417
57610 12229 33555
75790 2022 3040
1344 18400 14760
43488 21438 4448
43605 20403 4198
65885 12864 32970
24405 8401 33828
13925 15354 14608
14881 11769 15547
14650 12637 14357
13268 17816 15710
14268 14069 14125
13899 15451 17464
14208 14295 11303
14587 12871 9565
15080 11026 15897
13520 16873 15684
15041 11171 12233
13673 16300 13731
14602 12816 16119
13078 18530 16701
21256 26328 30647
28681 20890 28284
61574 15875 2873
78669 7343 31046
32399 12209 7967
32301 12202 14873
31906 12173 11251
33299 12275 14014
32167 12192 10614
35931 12468 14103
31666 12155 13996
33432 12284 10605
31041 12109 7179
31151 12117 12019
63126 14615 31879
62542 14524 31879
63280 15361 31879
59770 21526 0
39175 28668 6867
6914 8580 33233
70687 3018 32840
75040 12453 3468
20232 10097 33806
69164 19411 4175
80835 18958 28375
80329 19000 29205
27207 23051 24003
77362 10085 29624
30658 23005 31451
83417 18656 22470
66262 7137 29424
84480 13658 6242
84277 15680 6398
16829 21500 4170
10654 21729 4240
7615 21582 4195
4721 20553 3886
9393 21693 4229
85767 15373 14221
29680 16793 33241
59384 17233 26871
82240 9627 32061
66910 3815 32966
18352 325 4767
15065 14757 34111
83763 6211 7050
80971 12053 3603
84524 16958 7937
19129 28581 6696
12028 28516 6753
78130 6335 3049
72672 0 30645
23448 5033 31395
95 9748 13991
48 9939 15688
60256 24911 12074
64612 21913 9224
65903 21279 11772
65882 21140 9742
60994 24392 11443
61791 23871 11297
66200 21003 10629
30633 22414 4620
20104 27128 5809
311 9822 19787
15316 24808 31084
15287 25608 30847
7287 24898 31057
19787 24956 31040
17083 25240 30956
19169 25287 30942
18739 24911 31053
11616 25905 30759
8470 25814 30786
47633 16403 3132
51908 28351 7459
13710 5185 5067
86967 11085 21326
49493 29451 21014
47947 28800 26464
68139 20958 19075
55249 27806 25426
30323 24484 31152
54430 16394 28190
18996 262 3548
85242 17174 12349
68978 4270 31181
13272 16636 33271
12245 16713 33236
8229 17328 33045
70250 3179 2994
85987 12206 20833
12786 19626 23241
13969 15189 28026
13141 18292 27029
14201 14320 26753
13571 16680 27271
12828 19466 26592
13367 17445 25965
12787 19621 20304
57955 19436 9699
23541 7180 31190
32900 27537 5926
72110 8621 3305
81630 12918 31932
55487 18727 3329
51072 18099 3131
60298 18505 3259
58827 18885 3378
14180 8894 2824
85920 13037 17720
4024 22758 4657
54266 27604 6500
15164 3428 33834
61046 22751 4903
57483 24994 5449
3354 24289 16986
3409 24327 12721
3741 24803 14021
4484 25842 14036
55469 16425 26331
74737 10221 28920
74180 19714 30512
59514 22962 1702
2085 21428 12823
1799 20833 14547
2211 21757 13829
1825 20763 11168
1687 20596 15042
68465 2320 7173
85865 13545 19000
85856 13395 19582
17555 9817 31709
12082 13970 31564
13408 20269 14242
13473 20269 14931
5251 26624 28368
3738 24517 28524
4389 25490 27450
74113 333 32865
22256 16290 33526
20831 15909 33814
1122 10849 6385
1287 10907 8534
15232 10725 3351
83208 8415 4791
23111 14821 34116
43179 28422 6335
23601 5820 32140
82418 18980 15306
69523 15042 5464
77178 15042 7210
75658 15042 6267
71968 15042 5673
68491 15042 6895
68233 15042 5599
67187 15042 4741
68532 15042 4974
73298 15042 6877
55245 26750 30224
74785 11881 3035
57780 18521 28297
78699 19645 11778
74540 20370 13037
85383 6294 22272
84177 14531 6815
31061 17037 33431
61851 22681 5132
49479 30991 23534
63067 11049 23309
62850 8256 23701
62841 8140 27540
62913 9067 23171
63155 12177 23155
62831 8017 30427
62947 9509 29334
63075 11149 22524
62841 8140 29452
62861 8401 21731
62869 8509 25121
26964 24791 31101
29363 8693 2930
16415 11803 32227
65203 12517 2469
75494 3681 29424
76021 19434 5734
68547 6390 6050
77390 19833 9120
70189 12073 7172
1920 16430 25422
1984 13374 25020
2176 18224 29701
1967 16346 26041
2070 14413 26636
2167 13007 27368
2158 15451 28276
2061 15488 26969
2101 9560 25003
1918 18106 26120
2075 12522 25897
2210 19199 30556
2055 13443 26014
72722 11736 28841
20184 7350 2777
57955 25648 6258
78661 8179 4162
46725 14918 14736
47229 14563 14770
15865 1625 29723
71395 20499 8215
70597 20515 7727
75563 11827 31552
20177 7305 33447
86661 10351 25120
25567 3625 3459
14726 15353 33953
84554 5517 15925
40573 11963 33564
41292 12137 33558
6203 16535 33023
9045 16123 33226
7573 16588 33113
27946 10745 33489
45510 27569 5954
64626 8000 7000
64448 7009 4641
65065 10432 6682
73224 7874 32991
73182 20298 28095
75217 20002 27848
44775 21426 9190
51371 30597 20890
70855 20743 8967
61831 12274 33554
47250 16013 33331
16249 4353 33839
82734 15267 5085
22795 17868 33115
23541 16827 33226
22817 17006 33207
20261 14879 7349
18798 14879 4771
17288 14879 7103
17555 14879 6195
15676 14879 6581
14409 14879 6925
22598 14879 7448
85349 17421 19549
73800 11439 7084
19932 26241 5547
59215 20377 2770
2394 22016 25952
2421 22020 26549
76482 6539 30266
76903 19185 30719
83875 18279 10298
84542 13187 29977
77062 2183 6095
74580 20427 19010
57388 16472 9925
57299 16010 4686
67040 20717 18397
74209 20389 23941
74808 20301 23763
44696 11327 18037
43668 11327 17229
44360 11327 20316
47292 11327 18326
42994 11327 17808
48436 11327 18975
74212 12317 31218
85368 16707 19631
3285 23726 7130
3216 23895 10515
2210 21570 9962
5368 26984 25175
85535 12890 26647
86033 11485 24734
15902 6879 4327
85775 15564 21492
57621 17690 23401
70167 7164 32671
58082 20096 28468
58101 20195 26745
55535 14907 2760
78110 19301 29997
79309 19333 27937
79470 19136 29616
56774 18033 3122
6108 27301 29934
21961 2993 5285
39269 13806 33507
37134 13432 33518
14171 3930 5188
22037 7185 33970
19603 12578 31467
55269 27597 8656
50884 29569 19502
49644 29451 19405
65871 18158 4341
81069 19227 11466
448 9149 8716
462 9923 7075
76518 6166 32086
82974 18775 12467
20758 12411 33760
69388 4188 6069
15359 9977 19742
50874 29569 27331
1492 7044 21163
691 7387 19981
82689 18532 8058
86510 9779 10147
50408 29468 14355
18217 3415 33938
19198 10349 30721
77523 17766 4350
71686 17873 3673
67930 20968 25794
70760 20793 13084
35206 28835 7476
46393 17465 3057
83194 15425 30585
21793 15667 2221
17067 15600 2177
2475 20561 4499
58003 19685 25626
24924 9761 31128
85045 15736 25678
18263 2746 33813
1397 18033 25608
27152 10404 31315
26941 11379 30411
18595 555 29736
21124 5075 33991
67695 7969 3092
46546 14905 20287
69657 18698 32400
8630 28913 14699
26113 29336 17272
19198 29155 15914
9716 28969 15614
11439 29031 16384
27609 29391 17976
12909 29099 17445
15164 29080 15890
14168 29032 15147
15363 29118 16776
19655 29196 16741
20316 29218 17000
16028 29093 15826
8216 28932 15374
9357 29059 18084
12266 29064 16837
50164 31095 16089
58390 19158 18859
1561 12805 5500
23903 1555 4087
645 7895 21807
40444 18555 3274
38403 18464 3245
39884 18729 3329
51494 30306 21795
22863 14791 2095
58061 19989 5382
1822 17957 4517
2272 6723 14242
31893 28802 29176
71723 9855 32930
19493 6917 2760
57636 17771 9002
20288 17593 3076
87066 9583 15288
71199 16776 32724
70073 17375 32753
71786 20513 27723
72259 2625 5970
4893 26300 25920
1592 11028 15786
522 10789 17778
69357 7810 32993
86682 9304 25120
27441 10844 30686
27100 13131 31204
27287 11876 30951
27483 10559 32037
70939 12702 4600
26935 29200 11641
13897 28949 12661
24897 29194 12552
12051 28711 8257
19675 29057 12145
8998 28836 12610
27885 29230 11831
24326 29124 11270
20409 29070 12058
21548 29037 10730
16313 28872 9690
21910 29084 11603
22457 29143 12642
9170 28802 11761
19320 28982 10635
18181 28966 10864
29109 29274 12195
19857 28968 10035
25656 29149 11150
12334 28746 8882
20401 29011 10721
28254 29258 12274
65293 15585 33295
14019 15664 2598
46928 12520 18554
53088 12520 18826
49438 12520 19124
75979 5223 32804
50598 29502 15887
22712 9337 5485
60328 24620 9181
57444 26553 10361
61369 24028 9914
58095 26013 8973
62032 23544 9206
59572 25130 9532
62838 23009 8937
58702 25856 11447
58162 26221 11699
56700 27169 11952
73692 12378 32726
30749 19760 32575
67070 3009 29041
1315 15630 9404
1270 15018 11836
77114 14959 33270
28418 23439 10558
28592 22829 11613
46286 16614 21645
44659 20244 21989
5896 28103 18079
24726 8426 2466
2525 6804 7792
2311 7027 7311
1931 7239 9334
74956 15160 2792
80137 19460 22983
80750 19275 12129
80424 19384 12993
49186 29629 17387
1370 10931 27555
1321 10923 26742
84599 8816 6145
76680 5552 32888
4919 26541 18257
4469 25856 19909
4628 26055 21079
14535 26529 30587
47753 17220 2844
24084 16442 33290
56012 12618 33543
66542 4078 31478
2932 10594 33192
14217 9659 31014
49654 31036 13863
44511 29018 25901
39073 29078 25749
44322 28755 28437
40078 29039 26048
43954 29067 25477
40636 28992 26459
1413 12968 22236
1498 12275 19344
20150 11517 2480
47156 16828 2720
62941 9429 8903
63265 13598 9559
63370 14942 4109
63185 12567 8136
63076 11163 6158
62853 8296 8832
63170 12367 10201
62911 9048 13759
62906 8974 7025
63011 10327 7037
63282 13808 8442
63130 11858 5444
63171 12384 4352
62974 9857 7673
63327 14383 6824
63044 10746 10716
62971 9812 12587
63273 13700 6749
76629 7314 2994
28187 15360 11293
28314 14877 12093
27506 17966 8684
28571 13894 6893
28842 12858 5757
27285 18812 6920
28395 14567 11652
28855 12805 13615
28247 15131 10329
27461 18139 6958
16123 4296 30071
16578 3695 30647
23137 12108 18785
23567 11685 26281
72381 12839 3526
35825 16585 2955
19330 2793 2537
25988 19998 3719
80555 14261 4169
85031 16215 9413
37279 27744 5990
34741 27944 6052
29384 28715 6807
19644 28639 6940
15663 5489 32163
29702 9568 22838
13306 12771 28767
39063 12118 22603
39280 11900 26630
39188 11992 24178
84939 13866 27639
9424 26176 5527
54569 7245 3319
56555 7382 3282
50830 6875 3418
46744 6644 3479
61360 6582 3495
60015 7687 3201
1378 13256 12943
2066 20609 5565
51433 13297 19767
51433 12585 18578
66908 19550 32206
68511 8079 32854
43612 27495 5933
59131 24808 30223
2282 18628 32202
6044 28618 26198
64009 16392 2932
75595 957 29086
41215 29327 19354
61719 13752 33508
23565 8113 5240
86147 8753 24717
1477 11734 32201
78863 15579 3900
16241 8566 29841
80419 9291 3840
74135 227 29187
81063 9654 7380
81146 8939 5438
80956 10583 7336
86092 11902 27482
82483 16554 31018
84219 18270 20256
67433 20564 21564
82586 13572 4583
3125 22814 30594
29364 10859 10351
68985 15553 2549
69472 1236 3057
68687 7705 6937
84720 6018 13687
85750 11681 25832
30364 23780 4914
76049 6448 32771
21630 2747 6582
67870 5324 28903
85572 16914 15745
36872 16986 33219
73530 2406 32251
29368 24990 31030
71234 2457 32196
13038 20269 19586
13950 20269 20121
84396 18180 16570
59276 20941 32899
50988 12553 24580
50153 12487 22007
54524 12834 25362
53939 12787 22501
54926 12866 23674
55158 12884 24276
53840 12779 27552
52718 12691 22932
51467 12591 22448
67223 20499 12296
85349 17485 18049
27180 10987 33634
65358 18703 3419
21046 5455 33596
50067 29989 14844
76447 1453 30986
64118 17118 33192
15063 10745 33513
58541 20511 10936
58424 20431 7086
58886 20746 9807
18040 28483 29714
20606 28475 29746
21670 28585 29590
2255 15328 32393
23017 2110 33846
58228 17870 19150
53091 28241 27705
54277 28377 24292
2123 7153 28228
1795 7290 25764
1442 7568 25127
57328 16160 29086
57424 16664 25040
17323 783 2633
75793 8598 28959
22922 12319 13499
23086 12158 13997
57681 18005 24031
14192 14879 2135
2353 10858 3263
7787 8536 2969
9973 8410 2924
8909 8653 2917
69824 20892 26025
43031 8853 20771
60166 8477 20771
62468 8562 20771
52364 10549 20771
61633 10168 20771
56713 10377 20771
62181 8084 20771
42216 8430 20771
48743 10132 20771
46671 9818 20771
48057 8171 20771
62715 11017 20771
47401 9123 20771
58820 11564 20771
61253 8611 20771
51244 9342 20771
54152 10615 20771
43240 8222 20771
59162 12052 20771
59334 8527 20771
85035 14770 8422
25157 8196 6527
86372 8743 23249
6172 8235 33107
11762 7177 32925
10473 6729 32721
5534 8138 33050
25853 4482 6517
71695 6291 32635
50962 29497 14848
49668 31036 18003
47471 13979 2719
72832 12969 5189
47075 29118 16458
50019 28973 14440
51497 28912 14755
80884 19348 19296
57926 19283 15346
24840 10182 6122
64423 6865 32004
59605 22847 35306
1776 18404 31314
84244 6608 7750
28378 11400 2685
2161 21325 8670
2294 21512 7641
25662 5297 33907
54835 13311 17787
48936 16871 2697
72265 20418 28016
71180 20531 27905
66338 7391 30010
1481 12605 22940
1546 12099 20773
52951 13249 18124
81995 15260 31604
45717 23210 26357
78693 4990 5285
21058 29144 13862
29733 29344 14483
25644 29262 14718
28224 29336 15480
20421 29132 13912
30556 29377 15135
30310 29388 15816
27098 29239 12459
16771 29064 14304
15847 29037 14009
23448 29259 16529
27833 29316 15015
20890 29120 12976
30967 29439 17373
27808 29259 12629
22947 29173 13365
19055 29103 13914
10086 28912 13910
1666 12342 6749
1790 11380 8444
73093 20623 25298
74137 20430 26011
1696 13928 31487
59966 25183 15516
63221 23041 13288
61567 24121 14088
69048 15489 33715
63829 9425 2845
28994 10352 2771
10092 27001 5784
17186 27280 5866
57672 17957 11002
57682 18008 14103
18290 10160 6284
68534 2989 28863
54592 16782 23955
46219 18674 32908
47519 18587 32935
71428 20794 11473
71315 20779 10749
38615 8262 17541
41284 11221 17472
39291 9011 16806
19826 251 29719
26445 11204 2430
28320 17324 3031
1676 15900 4545
69469 2330 3065
82723 18607 27530
68567 5190 29606
45348 21550 27081
85207 11831 30040
5304 24317 5007
1426 16846 29031
13626 4316 32346
65160 21400 7964
65298 20961 6247
63007 22815 8064
64022 21846 6533
85161 8199 27823
73933 5266 33046
73747 11769 32922
82102 17549 5224
34697 29319 22474
35018 29328 22001
86262 11698 18299
75355 12177 6281
27163 12723 2359
13525 5531 29713
12828 28976 22100
30227 29394 20065
11510 28950 21996
14931 29002 22867
24716 29199 23336
25988 29277 21185
23848 29193 22819
24850 29218 22674
23751 29220 21581
30055 29430 18429
22818 29224 20580
29144 29303 22934
21918 29192 21122
19295 29154 20413
31000 29412 20008
19723 29103 22896
20786 29160 21442
26164 29311 19933
25204 29277 20500
27727 29327 20645
18970 29113 21796
14315 25409 5302
58853 22698 36204
78914 6476 7018
1348 15772 28031
1353 14353 25267
1290 15760 26449
84217 12709 30834
30903 21417 31906
50102 29451 10060
10170 9123 33411
6913 10149 33478
7587 10122 33490
11540 11019 33717
11520 10273 33609
65474 9057 33376
15596 10616 29739
56732 27197 23232
85549 13350 10803
51020 11852 33567
17877 3690 2357
86725 8818 15814
86572 10954 10382
82484 15048 31427
50755 28696 9834
45917 28979 10519
49162 28890 10858
50989 28796 10704
76394 7175 29399
15203 2326 2396
31658 17898 3107
2051 14144 4040
77083 16585 3912
70937 17576 3549
16042 2002 2408
68183 11055 3174
43480 28707 28938
83595 8445 29650
22309 9332 31820
22495 867 30873
22239 28298 29984
17298 28271 29960
67278 9700 32235
971 8735 30890
49781 28448 28855
4551 10785 2773
4384 11645 2859
11345 7337 4354
11476 8250 7158
11293 6978 7420
76452 2860 7122
23472 11136 13747
23603 11538 15930
23560 11406 10201
23050 9847 16880
74985 20370 18044
39586 15173 33428
44139 14960 33453
25007 3221 32428
78779 6655 30628
56230 20740 26380
20167 10210 7853
19145 9698 7853
75855 983 30796
13107 23222 31546
14542 20971 32199
12527 24738 31106
16597 9265 6444
66100 20480 5093
47060 15004 19717
44519 15004 18513
46985 15004 19101
57763 19515 32474
58404 19390 32636
85823 9821 28527
75934 4257 29075
25315 14846 31975
1457 15999 5620
4378 25253 29816
1590 18091 6125
19698 12550 32137
53084 28816 20121
52932 28839 20780
33101 27598 30277
77391 2771 3568
68139 14261 33866
27389 14065 2707
78710 8242 3035
56906 17005 19201
17215 28772 28036
23765 28899 27579
22085 28982 26451
31053 29198 25360
16925 28719 28572
12882 28688 28350
28102 28889 28289
19531 28776 28314
30968 29247 24815
12163 28669 28453
26203 28905 27852
28953 29008 27123
15633 28733 28238
27783 28964 27429
27572 29199 24864
29916 29053 26762
21626 28888 27400
66459 5995 3390
22738 11775 30164
12981 26382 5589
84282 17938 26873
78212 7211 3039
19664 5497 2626
20878 17944 3113
22936 16800 2990
24915 17797 3098
77704 5507 32899
17416 10788 29816
25270 6999 6515
71118 10155 31475
86180 14463 17504
66654 20883 21435
64934 21987 21281
65545 21596 21317
62989 23238 21049
66210 21101 23907
58003 19686 28010
60747 24446 26047
62330 23382 26715
61723 23802 26326
57180 26860 24331
61115 24107 27201
60495 24459 27628
58190 26125 25370
60138 24807 26310
61100 24028 28158
57198 26649 26507
5257 28371 17202
50999 30896 14445
54219 12496 2673
75762 9182 4603
60756 13931 2717
39859 28693 6989
85144 16365 26238
55606 27851 23099
54984 28188 22419
6629 28643 27632
7706 28807 23753
57982 18005 17118
24104 1905 31890
48753 13521 2704
2809 8357 3551
84380 16549 29172
84606 16627 28283
43850 23639 31241
44472 24735 30977
26938 20140 8619
27144 19351 10900
27735 17092 11438
28529 14055 14017
26946 20110 14141
27252 18939 12256
28250 15121 12712
26876 20378 9360
26968 20024 7720
27517 17926 13100
27937 16320 12474
3732 18442 3479
55512 12879 11573
55672 12706 10900
66476 8120 5818
85159 17699 21600
16412 17129 33233
7921 18019 32908
14390 17624 33101
44587 17963 33106
57327 16158 31813
13661 13707 34050
59587 21545 36511
25838 8504 5042
68695 20949 12701
1682 7985 4979
67588 20730 11335
25958 8083 2747
84472 6830 28169
73630 12747 3217
48922 6844 32794
48332 7025 32842
49152 7791 33047
58650 6889 32806
54466 6582 32724
49945 7224 32895
81688 19172 19058
76178 4816 6750
21098 14741 2085
28568 15264 33424
16451 11001 33861
84589 17845 9933
50032 29797 17084
6518 12745 33204
84652 16634 8558
17484 16311 2727
83585 18561 13374
17496 3535 33928
16205 8329 33867
54122 27287 30052
29110 11833 13858
29382 10791 14291
84570 5523 14785
24510 2435 29857
14227 14220 18161
34386 12346 14984
71400 20220 30221
72498 20323 28586
85442 14597 25756
24977 3010 30897
3342 24223 24538
3776 24833 24195
4103 25299 23218
4445 25788 22070
2647 17061 3656
77922 15341 32888
67174 3388 5271
37615 8560 33252
42960 8735 33299
33627 8383 33205
43293 7234 32898
42372 7981 33098
37843 7880 33070
28669 20871 10655
84234 6103 8654
56360 11960 23103
55894 12465 22131
18492 11649 6510
29571 17091 3013
84498 6091 25746
86776 9546 11359
83469 18712 18052
71663 20767 15977
69534 3562 30965
64619 7544 3167
45521 21656 7940
46806 29110 15497
44014 28705 7319
15191 11204 28367
64115 20055 27351
64693 19860 30890
62728 20523 26043
63930 20117 28838
62847 20483 23690
63048 20415 21161
63862 20141 22576
64896 19792 26375
64808 19821 29765
35020 19666 32278
71641 123 32355
60787 20689 9331
62399 20570 11635
60787 20689 10842
60163 20736 8149
61867 20609 7074
59243 20804 4924
60370 20720 8936
62033 20597 15696
61419 20642 11913
18054 5163 2359
21182 10065 32993
73154 978 7152
44624 17998 27638
45107 16000 27647
45168 15744 29779
43905 20971 28921
44136 20016 28234
44062 20322 26381
44729 17561 26807
44213 19696 24782
44274 19443 26219
43866 21130 25186
44402 18913 26004
76903 10815 29160
21355 7102 33597
7234 28645 28347
79269 13149 3215
1805 11571 29724
45200 16917 2993
16543 15450 2087
65278 11559 28767
66146 13225 28767
56387 16482 16268
56072 15837 16867
11904 13680 4249
57915 19501 7364
71067 4815 2926
16962 11954 4620
54470 12566 18136
4085 20784 3961
22879 3963 31936
27520 8388 2973
1184 9293 31610
11797 12362 33873
50590 29399 24962
85460 13825 24546
58019 17657 24804
17178 7785 33613
20143 2292 6582
1367 10978 20241
76395 19056 31052
27362 9430 6533
27272 9848 7345
27114 10580 5094
26935 11404 6481
27478 8897 5702
56282 27415 24494
66358 6612 3035
12788 14391 33832
45240 21376 22276
45170 21376 23124
22603 3473 6457
66603 20989 18708
64939 22052 18738
63528 22948 18972
85779 14807 13382
85397 16561 16825
1461 16880 29817
25810 28575 6584
24859 28356 6267
44881 27008 30422
5689 28195 27645
69318 10493 28856
70820 12587 6044
61849 23961 14932
61966 23909 15806
63702 22746 13819
65602 21547 14424
65096 21840 13284
48920 28586 8251
46274 28650 7563
46383 28844 9476
47097 28617 7652
1385 12529 30626
27381 18445 23120
28824 12925 26927
28515 14106 23469
28074 15795 26297
27904 16444 21981
28257 15092 25950
28691 13433 23524
28817 12953 25976
27538 17844 23503
28219 15238 21779
27900 16461 23930
29000 12250 22400
28913 12585 21861
86964 10497 14802
13443 5887 33697
29683 9637 5661
29597 9966 6822
29684 9634 14091
29650 9767 12740
69508 8437 3070
71883 625 7183
58305 20350 30540
58204 20280 31530
57654 17865 27425
58420 24317 30959
59945 22829 31468
69049 20428 5878
66640 20396 4999
13471 5258 32504
62142 13519 29620
62917 13519 23214
60829 13519 29899
61510 13519 31704
62885 13519 27704
63305 13519 20355
61568 13519 30442
4143 23371 31308
7058 12706 2959
85082 6328 25226
57320 16119 14901
85872 8252 26636
47018 29130 17459
20838 3898 33615
30843 12428 5457
29379 14875 5708
19076 12268 21822
22064 12543 23796
21997 12537 26226
19024 12263 18169
20525 12401 20293
22606 12593 24802
21423 12484 18920
20748 12422 24754
20756 12423 18318
29922 28748 29331
27537 28800 29073
63624 7059 3339
16450 2602 6495
52996 28753 12394
53955 28557 13733
5364 28748 19445
5572 28702 21238
5861 28708 21715
27758 17004 28318
27083 19587 23694
27931 16340 26798
28148 15513 27737
28444 14378 29817
27864 16596 28867
26860 20440 27534
27154 19316 28941
28321 14851 30091
27331 18635 27352
28273 15035 29081
18847 10344 4552
64200 21460 30551
81058 9701 30476
81206 8417 30857
81168 8746 31556
62089 21868 31595
48521 14905 18153
18345 7443 7453
20565 7316 7453
11823 9708 7453
17624 8503 7453
17846 9280 7453
15919 8481 7453
16812 8016 7453
15228 9204 7453
19704 7575 7453
12884 8385 7453
78546 4963 28964
2856 9513 32993
36682 15529 33387
38218 15766 33360
37598 16790 33242
41130 15669 33371
40140 16850 33235
37522 16008 33332
26091 5989 5457
70573 1398 7145
52424 28444 8924
53429 28466 10997
78461 8338 32936
1955 20715 28747
2868 22769 29090
1871 20756 26712
21741 12513 16893
17770 12148 17800
21409 12483 17576
17741 12145 10228
18231 12190 13416
17526 12126 14189
16830 12062 10978
17794 12150 11742
17225 12098 9853
20390 12389 16479
54805 28365 16330
66284 6640 4805
24039 10567 29717
54462 27746 29213
56365 27518 16590
42822 25296 5377
78377 4500 32438
51742 28925 19098
51163 28950 19065
84307 18195 14525
84568 18042 13894
2865 13820 32689
46509 10198 22118
84173 15869 28759
75269 694 29876
84651 15592 7465
77841 3928 3018
85120 16989 25487
3090 23745 13945
2983 23499 13140
2884 23326 16575
2764 23023 13820
2803 23161 17700
17170 15010 34130
1835 7881 31311
76880 10838 31605
77323 19457 6584
78145 19402 7249
76994 19558 7089
71852 15486 2608
69578 16175 2990
23228 16354 2774
15972 7357 5627
4534 7445 32628
81073 13614 31982
24418 10877 2460
76867 16229 32585
74215 16340 32715
58901 13880 31036
58612 14042 28596
59132 13749 28139
63226 20961 31957
55902 27378 8692
77149 17670 31947
70877 17928 32627
73743 17815 32315
19534 2284 31818
86429 10182 26443
85588 13270 10226
69453 10698 32898
9466 16079 2964
5096 15645 3244
5386 16109 3239
10348 15979 2902
58929 16042 24530
64120 8164 33183
40150 28769 28808
67910 21034 9083
69085 20936 9331
58009 19716 20847
84628 15076 26750
50233 17715 3085
58481 16861 2987
56012 17192 3024
54593 17590 3071
58312 17402 3049
28098 20449 32365
29365 21653 32003
57806 14535 33484
70227 20882 16968
3284 15585 3474
72180 1997 32849
45091 28797 27821
47722 28748 27008
49088 28563 28110
46532 28865 26470
57701 18110 17987
74275 957 28819
1353 18345 13580
15069 11064 26631
15292 10230 23698
15094 10971 24802
15259 10353 26011
86128 12164 21893
11389 7647 31777
11263 6769 29213
15029 28692 7616
24660 29001 9626
27102 28967 8919
29393 28927 8165
23694 28903 8694
30052 28914 7936
30314 29104 9953
17016 28776 8245
20389 28798 8023
19809 28834 8483
16469 28711 7620
28054 29171 10992
29988 29224 11289
27349 28916 8332
21697 28874 8665
69640 11954 31871
4759 26245 15224
3988 25182 16949
4535 25981 17587
4301 25630 16925
21459 24908 31066
74559 11742 7130
55448 14563 16024
3579 25157 15889
2570 22809 16439
3015 23857 15921
2587 22760 18776
70049 9023 32777
84340 5993 10355
79097 19634 13194
77315 19933 13407
50962 29519 11188
70250 3328 4989
18536 9936 28549
20200 9003 28549
21404 10836 28549
25307 8411 28549
23036 8453 28549
25963 11778 28549
26474 12210 28549
23037 10072 28549
26853 8593 28549
26593 10709 28549
19198 8232 28549
24961 11295 28549
22754 11046 28549
25778 9985 28549
58047 19914 18649
9307 14594 2890
7095 15071 3074
7943 14971 3010
10673 14373 2784
78935 17420 4422
72309 14735 2602
17821 12323 33909
63342 19222 32736
1274 17410 13937
1315 18043 17204
53571 15245 2799
69124 11696 30383
3554 23608 5644
68742 17138 3344
54603 16679 26931
78593 7845 31624
68774 14555 33827
8918 16856 3079
13041 16171 2874
13145 15562 2732
4797 26344 23260
45178 20853 31913
45626 20536 31990
33259 10271 5424
32527 9874 5424
38550 9636 5424
38917 9800 21640
39154 10539 25066
39207 10702 22832
39096 10357 22228
1600 12189 25147
1370 13585 24264
49711 30119 18340
70077 1015 3590
18594 12648 5112
71368 412 32959
16105 5040 4987
56416 11637 12740
56198 10902 13882
56442 11726 13735
22769 6588 2451
69410 8975 29695
73146 5918 3456
38635 12548 8984
38766 12416 7815
52548 28764 24608
52921 28479 26082
58515 26032 24034
62331 23558 24497
65498 21405 26212
57783 26495 24100
65275 21667 24618
65079 21733 25406
65988 21046 26830
68750 5333 3967
83618 15036 30605
72310 10673 7124
30324 14123 21444
29156 16230 21660
16591 4110 3329
15382 28645 29058
1581 11163 32412
12253 23101 31581
16035 22462 31766
6059 22716 31693
9300 23589 31439
10082 22471 31764
11403 22879 31645
9588 21937 31919
15665 22020 31895
19251 12639 33823
7304 28857 15350
6335 28851 17357
86665 11133 19077
1037 10868 10444
863 10840 11165
20718 2435 32283
75497 1025 5707
336 8702 25097
179 9631 24640
77231 5653 7068
27757 28304 6187
14303 28282 6299
83524 5695 7936
30089 11748 30796
52978 13151 33527
17519 12199 30120
21280 10280 2667
12923 15083 31409
14063 15083 29558
17963 15083 30523
21231 15083 32156
20035 15083 31049
18468 15083 32401
15817 15083 32270
49879 12465 9237
49897 12467 7974
49861 12464 12727
50005 12475 11197
49765 12456 13417
48461 12353 13050
49585 12442 9887
48555 12360 13905
48295 12340 9390
52528 12675 14705
51662 12607 10974
49266 12417 7429
49329 12422 11740
26576 12378 2308
1542 13147 29240
1462 14248 28644
1429 14459 27942
29194 11511 28333
41835 29337 17549
13263 13417 6625
12663 12530 7342
13826 14248 6913
57891 19103 31470
51145 29659 18910
78188 3636 31654
77440 19929 14067
73522 20575 14690
73564 20577 15628
70759 15160 33702
86130 12109 17227
41015 13373 2700
41714 13828 2714
37626 13339 2699
77949 4190 28799
760 10905 30071
55882 15450 18771
72546 9137 2931
37206 12724 33540
34204 12427 33549
18745 7938 33594
68280 21028 19962
59340 18573 19006
3481 22678 4920
86947 8964 20473
85444 6760 11288
70063 15801 33486
62996 18399 3226
21658 12307 31256
51443 29992 26804
19443 184 6109
83400 16129 5479
70422 11307 28842
55514 16130 2902
57577 16073 2895
56179 27651 18577
55907 27743 21224
51113 28924 21951
49752 28982 22033
51147 28935 20683
49943 28989 20410
59311 13982 33501
32769 14396 2730
76632 6718 5162
31972 27731 30223
72287 7574 3245
84939 14858 9087
56442 11850 2652
13409 17290 20612
14883 11763 24117
14163 14461 25301
14665 12579 21176
12792 19603 18658
14338 13805 19477
14763 12213 21945
15029 11215 21673
14138 14556 20560
13175 18165 20623
14093 14725 21304
13717 16133 23109
14078 14780 22773
24483 14076 2117
29701 16193 8533
29916 15502 9989
30577 13378 6398
30604 13291 7226
29071 18219 8149
30954 12168 10112
29563 16637 9564
30189 14624 6152
29480 16905 8153
29891 15584 5805
30865 12452 11602
30745 12837 8672
30279 14337 6874
29527 16752 6398
17191 6501 33970
70628 505 32965
4679 14800 32978
5242 13876 33041
70647 2732 31788
2092 9767 23060
2066 10593 19986
1939 14679 23745
2028 11812 20526
2055 10937 22711
2062 10713 20833
2071 10404 22951
2037 11513 22084
1910 15620 24201
1895 16108 23204
2125 8671 22540
2103 9395 19123
66035 13235 2400
28258 20487 25914
28148 20487 28659
64215 11139 33516
82878 17876 30278
66931 16690 33049
66498 17684 32967
73662 18527 31989
85617 12756 12083
79442 18788 30666
78940 14749 4647
79012 14609 5505
79509 13642 5371
84922 7635 8268
10606 8211 32639
8206 8894 32639
9273 9959 32639
6723 9043 32639
8000 10023 32639
22014 9892 6198
14260 9258 33899
27262 18968 32815
26076 18136 33077
33930 11903 2655
42098 12547 2674
81528 11080 3829
85765 13777 14885
76140 7193 3202
1592 12384 9928
1592 12117 12111
49780 27511 30139
27294 20487 9930
27872 20487 12523
67856 3064 32927
83137 18722 25793
73809 1905 32838
69988 11353 32924
721 10368 5433
23620 10872 33898
14990 11360 11119
57618 17674 6848
85652 14343 23772
53033 28823 15833
52729 28914 17779
1905 17056 32017
1584 19041 28095
85524 12446 28492
59557 15764 33360
60222 17740 33132
28956 14423 33486
62983 22071 31050
25723 5643 6557
1342 18490 20237
74082 18215 4125
27767 8661 5235
27576 9938 4995
27805 8405 4697
27860 8034 5761
85362 14063 26705
51950 15022 33446
44855 22674 28248
5733 7124 3597
7656 7080 3489
26410 14663 29656
26560 14347 30358
24160 9612 2458
71862 10296 29453
46626 28425 29580
47357 12804 33538
13782 5695 3243
46606 9794 23060
46202 11467 30646
46648 9624 30408
46450 10442 26250
25375 9352 6395
76352 11726 4710
63757 15217 33423
63217 16577 33266
50398 30050 18015
857 9734 5250
11110 8358 3743
11296 10089 4595
68598 7165 32932
80960 16065 31821
37881 11538 33545
38685 11658 33554
29668 9230 33359
32016 11746 33562
38881 11039 33504
33203 9823 33406
25592 18348 3210
24251 18301 3195
29711 16161 26989
29416 17111 26364
29805 15861 29980
29620 16455 27882
28789 19127 27458
30239 14465 29186
28824 19014 23727
28598 19738 27464
28637 19615 26429
28547 19902 24040
12978 18903 12830
14276 14037 8117
13040 18670 11858
12866 19324 8758
13684 16258 9734
13218 18004 14599
14013 15023 10958
13295 17717 8702
14246 14150 9638
13604 16558 12152
13860 15599 11753
55915 12421 14984
20360 4492 33990
25646 4635 2397
58080 20089 14935
85878 8261 11427
85700 10320 29031
71658 20748 25539
72200 20698 25650
29716 23943 4883
28899 23068 4629
67904 20288 31163
1552 16585 17686
57543 18900 16502
48289 12520 17491
44932 12520 17439
50882 12520 17460
51814 12520 17756
42849 12520 16041
83104 6045 5958
77109 19925 26856
79023 19674 25193
77075 9378 7111
33620 18204 33056
35934 18163 33068
30934 18543 32949
14192 9469 32153
39006 17975 3115
56375 27435 22830
75874 1369 5060
29964 26765 5714
1505 20210 15972
1406 19108 15340
1537 19847 11692
86890 8864 17655
85629 13250 23646
39909 17451 3055
44163 17751 3090
41622 17907 3107
37914 17029 3006
84731 16561 25123
70888 197 30204
21550 12557 3984
74144 20095 7768
77595 19598 8225
72882 20155 6694
78835 6400 3199
59772 20765 21321
60514 20710 30737
59303 20800 26376
59667 20773 24414
61211 20658 30308
60021 20746 28031
61728 20620 28511
54272 18041 33097
53924 16413 33285
54822 15947 33339
25531 3902 4557
23334 4313 6235
19943 9280 33951
66285 14640 2555
3826 10132 2896
86290 11265 17843
46379 10734 6363
46608 9789 13356
46505 10214 12501
46598 9830 8667
68515 7116 29887
56971 14358 33490
58085 20113 4441
60381 21914 2849
48818 30488 12414
18697 28710 7315
69826 4124 3096
24723 3884 6519
8866 8074 3581
6693 11743 3581
7147 8025 3581
5706 12284 3581
5793 8010 3581
6871 14153 3581
9994 9341 3581
7253 10601 3581
5632 17470 3581
6632 12402 3581
5431 14797 3581
5679 15385 3581
3042 9052 3274
78757 7938 7192
57069 27078 17058
11144 10896 2530
9199 9300 2807
8465 9882 2742
9647 11010 2551
85995 14422 15523
79564 19585 14348
76667 20080 16528
598 10727 28350
83581 6785 30317
65070 17155 3099
84665 12545 30448
28794 22124 23990
28587 22848 25905
19806 12336 29727
85469 16327 17814
41 9924 16429
76324 20093 22864
77296 19912 23464
78086 19806 22842
1592 11022 23672
382 10750 23149
22078 28738 7193
15486 2079 6353
46102 11882 28338
46180 11560 25681
46355 10836 24492
30581 12139 30793
28096 15841 30413
27418 19164 30072
29508 15359 14649
29588 15966 14587
37331 28872 28071
32435 28883 28593
41944 28798 28273
35852 29097 25842
33717 29089 26207
32370 29225 24917
36840 28848 28395
32754 28965 27669
15890 28576 29377
14289 28573 29304
13266 28513 29550
68209 21003 23081
81064 10030 3812
62586 9188 15449
62812 8646 15449
62789 12277 15449
61548 10704 15449
1360 14132 12656
73814 5359 2930
82914 7318 5017
0 10117 18477
73761 3671 32684
59089 22992 31534
84876 17094 9501
17698 9940 2384
13632 29067 19949
15146 29102 19763
21485 29273 18361
19620 29226 18681
11815 29069 19020
9345 28959 20685
12014 29005 20760
12867 29101 18706
18054 29219 18135
11359 29042 19515
13084 29009 21158
15757 29082 20544
11711 29102 18142
22344 8000 33901
49260 17977 33104
83275 7946 5075
14154 22117 4353
17771 23156 4655
20018 23295 4695
21710 22814 4555
21504 22291 4404
25674 21959 4307
17695 22375 4428
13248 21830 4270
15634 21943 4303
23629 21827 4269
23441 11042 19478
23117 10052 20586
23047 9837 26798
23332 10709 19959
67797 17581 3324
66971 18043 3323
15496 10988 4653
31094 15692 2851
40629 15646 2846
15454 21243 4100
18951 21963 4309
18640 21498 4174
44566 18236 7872
45933 12582 6360
45582 14032 6732
45145 15843 7014
45923 12620 7892
45749 13341 6822
45720 13463 10311
45259 15370 6087
44811 17224 6342
45558 14132 9722
44638 17938 7416
45257 15379 11014
45121 15940 6442
45310 15156 8373
7839 28773 11365
3866 20436 32352
3428 12525 3217
21789 6928 2301
39714 28806 7747
38098 28952 9112
32401 29241 11480
33886 29171 10928
37375 28973 9241
32562 29085 9825
43256 28748 7585
31439 29064 9449
45858 16169 30430
44415 19441 30119
78212 19794 10757
