ply
format ascii 1.0
element vertex 2866
property float x
property float y
property float z
end_header
22302 7955 6959
80674 17680 18017
82912 14719 28033
37231 9570 36088
24566 27247 31811
72963 18028 4822
16301 23665 32870
29158 28415 31409
14668 5383 14277
9585 29003 18727
37788 18917 35676
78962 15921 30355
73828 11311 35386
78334 13937 7118
41075 4542 35844
5896 10955 3170
20157 17909 35322
15279 21490 33633
25050 9519 36984
19239 4455 12423
31031 15163 6873
29211 19012 6154
32805 20097 5554
29582 20027 5883
32399 19652 5696
837 7974 14045
19413 23434 18631
7881 4342 26465
57700 23470 20219
51411 6924 2351
48508 6578 2521
9425 28865 26324
28703 16594 36393
57409 22490 31283
81566 16479 14959
66618 2107 6446
13857 29279 25303
37284 30044 14403
6168 5256 30385
82670 7185 7744
66329 16453 2216
2226 8751 32059
62473 20623 26745
4554 18593 30289
49160 25391 31568
77251 13841 9448
79008 10655 10477
78608 10246 10459
57441 19482 4806
68348 4540 10180
12189 5549 5802
24200 15345 29193
22666 19359 20212
22287 20353 24056
22149 20712 24587
21748 21763 27394
22104 20831 20830
22662 19370 17452
23766 16482 28509
23065 18316 26576
23468 17260 23783
24096 15618 28238
21723 21826 18103
21790 21651 10789
53977 24114 5566
19675 17587 2238
27643 16260 36420
69013 13420 33525
36139 22958 13221
56866 20713 13892
59184 20997 14597
52388 14025 17043
1405 6283 22626
5034 24428 24221
61142 4831 15178
9074 4781 14979
67363 13238 5145
61382 14252 2211
17977 29666 23007
44413 25155 32991
3597 7361 5915
6336 6462 26177
52786 5400 34774
77308 14545 34928
1979 5943 18423
56295 17002 36022
21469 24855 6560
65943 7091 34249
52167 4489 17061
43991 4549 13249
52765 4484 15844
42648 4559 11183
45275 4540 14103
46936 4527 13238
44024 4549 18350
44227 4547 15872
50560 4501 14626
756 8646 27750
43316 29311 28138
73211 4763 11989
68767 19300 6625
76869 17242 25248
73120 17667 28825
76208 17128 29698
79634 16630 28638
76349 17434 23039
80185 16010 26753
42493 20327 3916
76175 12713 10094
76439 11202 10545
17818 8499 34711
20103 11244 31587
61153 16317 36161
14585 4631 15456
48891 10214 36139
55803 4416 35423
82707 12622 7658
47473 8895 2603
27964 28223 12065
28898 28589 15029
22465 28593 15868
24636 28540 15152
21387 28712 17003
10179 11196 4920
5281 11843 12403
5142 12216 13330
5293 11695 14408
68701 11752 3646
76488 18476 27882
83618 14805 19529
32722 29487 30881
41120 11232 36319
72838 18767 30842
76486 18781 20143
74544 19160 19551
17811 21998 4900
31446 30077 26546
12877 4432 2816
17465 13422 33930
78303 18348 17138
30622 19819 34951
47395 28769 15532
4307 16184 6675
34885 26639 6621
73628 19236 22334
6106 17509 33393
4495 5057 15630
81567 16472 25007
76445 18148 8442
37592 8764 12029
37651 8073 10859
37690 7612 9561
36579 25330 6341
57822 17796 35135
8277 4822 7078
40013 27970 6633
5858 19494 30808
493 8406 19002
2742 11191 33222
57952 10523 5836
54630 14830 5478
53483 18303 5168
55795 11530 5771
55128 15173 5439
46647 18726 5216
42968 18046 5327
43471 18250 5300
53131 15599 5425
52829 17056 5293
51614 25458 5943
29168 24871 32947
20122 20554 13257
19789 21259 23085
19983 20852 29031
19680 21490 30992
19937 20943 15485
20502 19757 23823
19730 21379 14490
20279 20223 12697
19794 21246 18794
27639 30728 27733
14242 12427 1705
65558 5627 3667
45604 9322 2552
83137 14987 12159
34077 4615 20635
32889 4627 21749
31832 4625 20013
28245 4644 19769
29738 4646 21876
33584 4632 23906
26049 4695 27787
5273 18219 30988
56151 23616 8533
6737 25641 10627
66394 7849 3965
55267 4502 13647
16181 5251 28215
72283 2884 4558
55373 20480 24319
21484 4015 6390
45766 10150 21879
8291 28139 26107
16573 13414 4139
6377 6469 12574
10500 7365 4920
53860 17700 35933
62742 20363 15680
67460 15295 1361
82447 15583 27212
5764 6744 24600
81211 15379 24885
2719 21766 17740
72350 926 34449
80184 10261 4895
69437 6197 10411
23379 4123 32804
68866 6872 1985
54823 11606 2379
74929 9732 35184
5099 5979 14319
44873 16247 2231
7344 24726 30273
51869 5581 3205
37005 28235 24607
38636 27988 26168
40618 27762 27424
41151 28166 23757
36211 28792 20083
35688 28690 21147
35731 28351 24046
12865 29089 27302
2357 6019 28425
10166 20263 34247
9384 8913 31690
36853 8665 36151
74547 14054 9989
22991 10091 2933
56356 5134 3510
6544 19985 6680
51462 17296 27132
12566 27996 29289
43042 25914 32725
64983 20618 18880
18057 13380 3951
15705 4414 35925
83321 14976 14694
74283 12939 29004
16289 1719 34542
58131 14375 35373
82144 4351 9889
65567 14110 9143
39708 16334 22150
10804 12581 10150
4291 13963 33818
57649 21396 33851
38234 20808 4677
41819 29827 27649
84194 11057 28236
49406 5421 3687
70516 4354 15530
48050 10071 36126
17499 6527 9408
17035 4448 26592
40615 10742 13988
12214 7887 32619
34114 30182 22561
50537 6267 2804
20589 16289 1722
16772 10805 36674
20521 22679 30191
20113 22649 28565
20549 22681 18341
21057 4430 22318
5339 25028 22613
76766 14059 32229
4933 5994 7192
2141 6878 7535
62588 4515 33041
68061 4797 36301
38493 14758 11847
37717 17071 10081
71084 11693 31589
58887 20863 6781
76704 12597 10460
77591 16309 5108
57878 12259 8377
67762 4734 27805
74001 19156 15797
57300 4892 25083
2026 13935 20703
54860 20326 8974
43644 29541 15706
38414 5575 3143
65568 7736 1713
36311 26826 32404
29219 28960 31337
37147 21197 15920
18661 4835 23476
43665 29531 23045
12305 25050 6604
8125 28164 23189
71366 10324 35929
7716 5674 10212
16041 13341 35909
54189 22224 4641
12204 11235 35054
64301 3715 6955
33445 13989 31667
35082 17416 32666
73482 11662 34356
63478 19394 11753
8552 14875 34247
79637 16497 7731
8651 5801 28094
12927 5797 35954
20510 12557 32507
2291 20401 14023
65446 10441 32879
40929 19294 3275
10619 8213 32680
9618 28446 12351
10416 28771 26098
69442 5279 10816
69674 13621 10604
2011 6206 10397
5996 13230 3251
6629 17119 35070
22446 29922 21784
37325 17340 36041
4476 21011 14172
4709 19085 13635
82919 15484 23590
80127 17846 21234
39164 16521 36313
62079 10921 1599
8263 14193 7470
7237 14371 7672
43559 27743 31911
74981 14220 3610
83184 15443 24236
18613 29605 12540
72590 2470 1560
78703 16918 13641
80728 16478 12455
79937 16672 14394
78225 17060 16407
63879 20117 18258
65085 4306 35880
3938 23547 20531
29832 30037 10625
8014 27469 24227
27925 30093 23900
37654 26692 32396
74585 10337 2941
59035 7329 2238
60904 4631 2688
65812 4448 23814
66991 4452 22493
67859 4457 23641
71363 4474 25076
68580 4461 23514
64102 4440 22280
68389 10430 36131
40955 24783 5373
18989 11916 36994
2054 15018 23577
12578 11299 6770
60977 6802 35902
24707 29967 25245
73331 5941 10606
74290 6452 10606
66485 8470 10603
69528 8027 1990
13692 8363 2402
4250 16131 6129
43317 11026 22595
21871 20851 34334
69449 19950 19362
75363 8583 33208
71573 9789 27761
69472 10565 27762
73969 11954 27760
45356 28837 7769
28204 17977 36167
84505 11993 11027
70737 1911 33455
3969 18922 31041
58246 7504 35947
41123 17318 2300
18704 4197 27961
62722 4100 2442
17540 15056 2539
3497 11388 9613
4099 16207 7433
63086 20539 10181
6655 19897 4289
65122 1173 34411
85235 13150 23025
30014 10154 2179
54541 20664 35720
8484 21949 7179
21243 29800 25023
19292 8797 2265
75052 9487 4908
13017 27780 27983
73249 1578 6393
69084 7110 36578
53680 22290 650
4886 16162 34393
65397 4312 13489
39620 29757 11365
35662 19339 15279
35166 21392 11157
35131 21540 15029
35830 18642 11997
32504 7138 1966
76978 5863 5165
13984 7160 36018
5660 16071 15809
82722 15337 26018
66974 13152 35314
46211 8895 22021
44036 8104 22032
47823 10309 21958
84482 6892 11533
79537 17820 11621
83258 4963 10059
66479 3816 21224
5335 6674 17613
23891 6382 2790
10434 11609 35531
2337 11210 8478
21082 23258 23967
68639 7822 33827
1222 7036 16248
16043 1737 6961
12024 7257 4267
10297 11360 7191
28570 5680 35998
22474 21232 34120
54365 18257 25779
7391 23264 32250
37268 24081 25304
75219 18005 31230
47645 28699 23336
60222 17970 35656
35913 22759 28566
18574 16838 36646
65595 1704 1618
25461 6658 32932
4166 16530 30846
63513 20280 16948
63831 6691 35060
57252 11896 36104
67763 19771 30326
6420 6956 3335
61319 21061 19170
36880 10040 2249
51054 12756 36192
5220 4497 20104
34092 26603 6098
64200 1928 35948
61601 20619 25161
15610 12510 1619
50783 8687 2621
52843 14470 2314
52631 25880 10373
1239 11215 23394
30738 17915 2328
17142 17754 31076
14503 16800 30747
20764 17802 31187
10138 16631 30583
15707 5577 2784
73067 3760 3671
53705 21691 24238
36087 7655 21660
37298 9958 21660
38974 14622 21661
36317 10609 21660
12012 5109 26833
77655 13149 10153
5564 19906 5641
20923 29671 10809
11184 13372 9682
50909 13366 2298
1337 6305 16960
17280 4617 24301
37667 29983 13672
12063 29210 17954
22586 3619 6845
13074 9751 5472
9114 25984 29979
39280 12515 28313
29021 11774 1982
4997 11350 27427
37801 14207 36391
31947 27227 6430
3446 19026 30159
10834 4494 34703
31605 19161 2973
14386 14452 31604
14047 14234 29732
30964 30748 9846
40191 16936 2369
7307 25305 30431
75257 17864 32429
8875 27950 17944
53571 18129 6283
53582 16688 10802
80273 5954 4767
1105 10053 8950
50386 26676 7601
66112 4366 25141
3025 21537 11859
3373 8184 4808
15431 7590 36610
68916 19672 9957
5158 9145 3460
75383 4878 4498
82395 8489 30920
82911 5081 20550
31358 30224 18430
54842 13312 16743
38113 21440 33190
16339 19315 3101
84578 5313 20396
11047 13735 30903
41027 6834 16365
40099 8861 16432
82601 15507 13491
21694 18150 1897
11754 13166 3812
39263 4915 15367
44438 19396 35052
46925 5011 34434
40595 27638 32005
1570 18781 15244
3965 7006 31047
26484 30129 14265
67402 4454 36714
59720 22127 20031
75404 6748 6784
41592 4993 15288
13519 4479 26146
67124 14490 32234
53449 18412 12980
53546 17504 10561
17116 19829 6934
15340 20611 6533
1272 9588 8492
23682 11925 1367
46396 23831 33412
14348 29341 24553
5384 19326 33758
19513 513 36662
73468 18995 28114
84140 5331 23437
40997 13856 16621
431 9073 26048
83934 14245 17962
9442 9044 7941
17291 3894 9391
25498 28319 25320
27274 29047 19416
29904 28540 24011
27481 28138 27091
24773 28811 21087
19888 28845 20194
25353 29028 19333
26364 28670 22475
68398 1790 37008
61301 19629 4481
66173 3901 23585
53074 21687 38820
36633 30114 20470
25213 26701 6424
8080 15041 8345
4412 14153 11888
4212 14755 17508
42299 19588 3542
76637 18331 29535
51794 4330 13985
63763 19276 25723
28504 23624 5124
76686 11892 28235
77397 11833 28490
6291 9762 35433
4038 10921 30350
78643 14763 29859
58990 8182 2548
50359 27251 19716
52852 22529 36085
15171 30244 9816
33131 28681 6951
60211 21392 11546
67313 19480 32244
34996 9623 23816
35256 9105 25686
34635 10338 22137
34351 10918 17147
35447 8727 27042
34904 9860 12390
34346 10930 16609
62038 15152 36284
81457 12407 5540
17107 2251 1574
34045 12224 7028
40091 27498 8233
62279 5759 33466
72633 12320 2295
39014 16960 22688
67479 171 32665
68004 4248 24366
37911 17705 2191
43311 29560 24608
18648 16648 7325
9452 16312 7929
83857 14057 16208
47138 28723 25395
78428 6181 11311
54158 14809 36172
72872 11747 31743
39663 29869 13650
60522 4939 3218
73311 13735 3204
15140 29272 9176
40905 4970 23161
82761 4405 25707
77634 14109 4476
7664 14986 28727
4781 15000 28606
26355 20100 6113
32261 5069 3451
7686 13079 29302
6742 13796 29759
80273 4473 15297
77335 14603 7172
58172 12312 32680
82761 14678 10252
55000 4806 34336
2801 10257 5183
63002 5184 36907
63468 20446 20598
53124 21171 29398
69256 4811 36569
37658 18066 14773
19570 23963 17463
17267 4617 10000
38698 9895 31175
23997 30006 17212
83791 14092 15460
7781 5072 18638
6165 5359 18774
54059 19273 5410
5182 22323 31065
76960 16676 5546
23134 12485 36214
27347 16553 31606
31999 16344 32009
34005 18052 32595
30394 15357 31627
29515 19400 32469
28181 17122 31817
8191 25222 30139
72625 14116 34033
83036 16003 23858
81092 9973 33219
80885 13998 32042
24595 14331 11002
23400 17439 19046
22117 20798 10962
22991 18519 10014
24131 15539 12655
22002 21100 8263
23635 16826 18891
23790 16429 12389
24922 13470 16596
23483 17234 9812
24767 13863 26273
23254 17830 10901
23932 16046 22623
2028 13130 19656
6421 22924 7968
13531 13462 28087
22212 29016 30866
25578 5182 7154
65384 5683 2432
20896 19682 3406
15731 29525 17731
4677 5642 7828
80629 9960 5514
20987 3996 36590
17660 10296 36096
71914 2612 32744
17939 3562 10401
38272 22796 4747
55465 20712 25091
4052 11347 13331
23925 11408 34935
80957 17519 14234
81376 13902 6743
37753 6266 35725
75948 15417 6201
76550 9221 32752
22421 20608 4088
54757 25191 17345
6789 22016 32720
55627 20392 33386
4933 11590 8228
20564 8176 2439
6110 25527 13554
77094 17686 7351
5218 23306 29447
69481 9911 10603
73594 11000 10604
71161 9440 10603
53752 22802 32818
43422 18222 35927
6253 5952 7888
62179 10969 34459
35214 21193 24685
35457 20187 27534
36371 16400 30791
36379 16368 28487
35534 19867 29497
31648 13954 2013
79358 16552 30554
73978 6309 3798
35103 21678 26878
72524 13952 27761
3324 11388 29164
63589 19763 24555
63226 20038 25551
20065 30697 28607
43006 22784 4745
40150 4964 2262
73755 4417 21023
82509 16383 25106
80697 15861 7925
17112 27914 10728
16650 28050 12125
17946 27812 9419
17944 29699 19626
73132 9583 35049
1775 6039 21252
85587 10990 23124
37506 14457 35105
46226 26523 6083
63386 4477 22027
13433 29249 13970
8510 13821 2611
37809 6026 3488
65232 20527 21001
27178 5541 2326
67269 9659 34301
70942 3789 17161
21744 21837 4589
10138 4322 17692
10207 4319 21359
23821 29800 27881
7481 28830 24259
45474 27544 30018
39318 16911 16132
16917 4458 17166
52401 4999 18050
52698 22193 4711
16303 7429 4581
74500 3602 18727
14353 12542 10275
15066 1974 31676
45904 7108 2223
74781 18705 9334
56944 4119 20120
46918 28838 14398
57383 21279 17829
3929 12721 34071
29636 30013 28058
70300 137 34952
59314 6243 35931
7649 19414 32688
62674 7069 36877
50443 13374 36211
49365 27290 30449
74947 7433 1631
603 8441 23757
7690 14413 31778
22720 10521 34426
11415 28393 16894
63183 20155 5447
8948 6386 6660
5766 18804 5623
8218 27897 20321
37510 29755 9831
62108 19552 4547
16666 2526 36231
69452 10030 2502
59082 21659 30550
32432 26437 32428
23452 12679 1328
76979 15665 29747
43885 15454 20575
42633 15457 17622
31323 30221 24623
10940 14006 33375
81484 4458 18605
10752 8653 4748
16584 6614 5357
64043 6850 36974
37752 18605 5491
36892 19747 5311
77138 15552 4411
84782 9415 11618
64574 15048 1644
69016 11767 37056
40573 18921 35589
53160 18685 24394
53201 18537 25698
4305 7813 25924
3851 11022 29066
43026 29669 18707
23738 29271 30727
9626 9966 2613
55668 23369 32553
79518 14181 10120
2387 18581 28278
76920 7378 6055
33873 4963 2225
50864 17585 36020
66897 18713 26159
67844 18464 28524
66526 18954 22135
67479 18651 25643
65581 18715 30291
65926 19031 22381
31373 30666 28583
24987 25987 6120
52141 4489 25059
43705 4552 25459
47910 4521 27897
44570 4545 22971
51300 4496 27558
44943 4542 27748
59927 4432 27652
47355 4524 22700
53555 4479 26667
30429 5201 23993
19572 7908 36388
9213 27938 28905
62667 9175 3021
41407 5180 24299
70354 13287 35972
60310 21684 17364
74549 5007 19240
71215 19368 10268
3826 21866 23275
72180 10359 2813
75763 4484 21123
78306 4496 22195
74510 4486 24823
79782 4499 20516
77761 4495 22976
65421 4445 21195
72548 4472 20486
77923 4498 24230
67990 4452 19538
64370 4441 21001
53787 5792 3291
3820 19697 7168
84471 6872 14224
6194 19596 31782
30786 13531 17046
32306 13385 29849
30396 13480 21080
28035 13371 28954
27862 13405 26025
26802 13366 28725
28024 13385 27757
27630 13356 29951
29529 13483 20395
31940 13546 16326
43613 7594 2047
16676 3585 2430
81415 16866 27883
75478 14222 35492
76741 8264 10206
18604 29812 21126
54474 23007 35306
36954 19682 29104
37856 14064 2108
5716 5741 9102
62660 20288 21702
41160 14481 36335
20852 15025 37124
11299 12688 9512
11414 12892 4620
626 8479 12840
40009 15466 19076
41037 15463 21572
8218 16961 34425
67880 19901 26431
2399 12704 31595
20779 3049 6343
70747 1093 6913
7919 6358 21357
12831 4098 4975
81448 4389 10777
57316 14420 32885
56836 16031 32978
2506 5651 8266
38797 30541 9884
76721 14948 28134
23789 11402 30250
15929 13306 4839
72901 13973 4615
22140 19058 35669
55896 8338 2566
14209 1248 1660
58374 23060 19159
65864 727 34545
9718 11480 28069
8000 27743 18440
64422 13745 37115
76917 16059 9068
65284 14048 32970
47047 11097 13053
47255 11132 12246
45516 10840 9409
49398 11492 12659
48880 26497 7848
73446 13641 34989
3785 5624 30690
1410 15184 21014
27692 30823 28686
74659 3238 5260
49883 18558 28339
21498 4723 23019
23887 4686 21184
24928 4682 23117
22521 4706 22098
23386 4686 19788
17916 4760 22072
24950 4666 19542
73402 19210 14454
85081 11097 26598
13815 882 35266
8289 5752 19238
63211 11527 27891
62299 10768 29726
62278 10914 31224
44496 27508 8588
64346 9009 34913
18830 29539 27887
27866 30137 21139
79809 13909 32581
74989 13036 28050
53734 20743 35318
19346 22593 14145
19500 22604 9926
19492 22603 24263
83722 5069 11412
48359 17111 25637
15701 9799 10278
14009 9406 10279
1303 7109 13143
1719 7051 29497
22070 3642 31617
21962 19969 6654
13894 27991 25444
12680 28331 22060
14776 28751 19591
14721 28071 25171
71886 19334 26908
7614 25566 8318
33636 28034 30163
63962 12944 5031
9214 13021 2291
64255 4651 5883
39073 6551 2438
9807 17001 2771
85873 7662 20463
38446 18087 22109
31648 13105 36495
67707 11721 33024
45369 7993 36357
75182 12104 9373
75533 11258 9288
79224 15583 29597
41321 29770 14294
40596 11401 6550
48875 12873 5843
47625 13648 5782
51413 10037 6179
55113 8797 6182
38945 10658 6767
45117 14532 5773
40550 10483 6707
49459 13395 5723
46781 12261 6062
38406 10120 6886
39887 10799 6691
52636 9537 6195
37129 10552 6885
38609 18795 5416
40452 15434 5880
64223 8660 4589
15699 4648 12289
44571 15926 36278
5962 9149 23881
5729 10430 27876
73329 9967 36997
5401 15898 22866
5744 16065 27934
8081 27187 11360
81121 15189 16780
44408 20374 4365
1629 8678 30685
33303 5667 35831
54258 5457 17213
66628 16303 36551
22316 30241 9936
54076 4866 14556
27271 14955 7101
24964 24649 32907
36004 25515 28350
37434 17912 12178
37061 19025 9802
24970 5325 13680
73426 11714 5428
78168 9746 35987
37416 14948 36376
39572 12414 8609
35080 23267 11618
35861 22732 23942
61848 19468 5721
19975 27902 9578
19462 28625 16418
21228 28040 10813
20375 28645 16561
18630 28555 15796
23045 28315 13321
9592 28473 25453
58432 12201 16134
56430 12140 20395
58060 12190 16585
57417 12161 23425
57947 12182 19550
37092 4604 13583
27671 4681 10994
30434 4659 12200
33415 4634 13791
38687 4591 13704
41902 4565 11236
37095 4604 11875
34726 4624 14772
10943 13827 7470
11663 13533 5748
32658 30196 16571
59798 21138 22512
5062 24848 20050
46265 15038 2232
22068 5920 35719
80180 5343 13656
82205 10814 19230
81833 9517 19097
6782 5289 11606
5683 5481 14208
82232 4945 25947
53560 21870 158
18859 14864 5228
19800 14597 9931
43418 5693 35145
20567 29696 9738
6558 18334 7038
81068 17346 12555
32782 4632 3658
14117 12686 5833
10882 28967 12980
71756 3964 24033
22505 12710 9557
21670 13693 4728
49459 25269 32341
69327 10625 1738
2800 7484 6571
7509 22893 30461
10929 9195 2408
11894 5261 28088
15736 6024 28087
24132 5718 28085
36922 30619 10829
57542 23285 25483
76520 16867 19412
79060 16368 19352
70787 17990 19831
68716 18391 20688
17116 21522 33212
4967 15432 19723
18567 4932 28212
68013 4642 2386
10894 14026 33941
39776 12390 16642
75483 14896 35844
83523 5334 17629
79628 17857 12880
18998 25300 10763
19458 14804 35696
25474 6399 5265
70949 991 31656
79993 13581 13767
24321 29839 28728
53256 16465 30467
53280 16047 29405
66277 2359 32473
24029 29991 22515
67536 162 6251
39081 29972 17906
66782 333 35778
15030 6929 10278
9124 6885 10278
36708 20894 14013
55440 18337 5266
2273 11457 12866
19026 25064 24785
63616 19632 13406
27483 19535 35219
52874 22060 27191
37581 13941 2912
54348 5617 35086
4572 11357 11114
44293 27222 6373
65339 10747 37003
12150 8515 37007
77858 16810 33272
3056 22028 19697
4648 6280 27372
8953 10273 28063
26244 8811 1608
40480 5009 34956
69558 14874 1989
37411 28352 15046
40001 28543 17594
34979 28530 15733
40573 27814 11514
34509 28847 18298
36625 28256 13946
25598 5324 36186
40669 20337 33486
11218 14673 36461
82584 16447 19790
3048 11332 17890
35634 4617 31952
33777 4631 34288
30924 4655 32841
32376 4642 33990
42066 4564 34313
38882 4590 32393
1848 13983 25897
9098 24209 6382
29393 19984 3660
16119 89 32330
62421 19317 32885
16775 29471 26332
54887 20821 34204
27472 26183 32379
74795 17352 30075
79418 16106 8576
22874 29845 11941
47856 11329 7587
29751 30178 21659
76614 14919 30277
0 10147 17207
2177 11283 24948
79971 10350 34193
14492 28730 18875
12304 28078 14529
13581 28648 18630
13707 28404 16557
1754 11186 8167
63206 20812 16163
17444 4617 25455
37816 6645 3304
9574 14147 10256
66829 5107 27448
13403 5337 10275
22448 5783 10277
20501 6104 10277
77744 10691 27983
76568 16486 3960
76422 12380 2076
71791 3999 22273
60670 21142 17127
51700 26644 12984
84847 14566 18864
19215 20741 34262
23241 29765 29133
35116 23548 25211
61386 19619 34082
44742 20204 5076
64268 11565 2979
3658 21860 17001
37527 22198 4518
16817 15197 1473
42578 15059 2191
31473 5162 13870
16723 30312 28612
65793 19058 33309
58558 13608 36139
68602 5425 3232
2393 19968 26764
23819 7750 2230
70343 19683 23548
24298 10681 3538
79573 15364 10048
80356 15170 12194
21141 12119 5455
68111 1699 33468
30102 30189 17008
4424 5269 12619
53930 19060 25774
38717 13018 7036
71595 11092 31903
38508 14712 24031
38854 13682 28140
38393 15055 26623
25400 15278 31005
74263 4957 16248
36294 26050 31921
76609 16016 3524
76922 6442 31202
77023 5727 29858
42027 16021 32616
38915 16578 32668
49709 18715 33210
38268 10366 31554
39117 11905 31840
43095 15312 32506
41694 12745 32028
39188 15760 32526
44246 14636 32403
47489 16282 32744
37553 17560 28350
37231 18520 24711
45980 19321 3430
49237 27969 13862
14887 2267 2829
73190 14937 1777
17279 29650 13865
65648 20369 23397
3050 22296 18081
10519 25169 7674
56386 21391 21105
6332 23714 30499
81959 16469 19104
9040 5014 19205
20845 10782 1549
48003 5493 35558
4681 16263 31012
2789 6606 30687
74800 18973 14758
23815 11216 9363
24443 9824 9183
13442 18538 2850
33271 30003 28040
23894 6819 6648
30567 30087 12341
15255 10954 1745
63808 2708 1756
65207 20374 13410
13490 10685 31590
46696 11736 16867
12809 29247 13721
45739 5992 3050
5590 5296 29552
48275 27356 30391
46641 8393 23273
39045 8463 22447
38175 8472 11385
45001 8407 31558
39854 8456 17856
35965 8491 23361
50147 8360 27721
47985 8381 23636
48222 8378 30168
38584 8468 12496
38920 8465 10953
36411 8488 12754
53579 8328 31041
47476 8385 27971
39271 8462 15597
44849 8410 19718
37035 8483 10550
37018 8481 27333
40821 8447 21282
48748 8373 27554
37134 8480 23784
48825 8372 28299
39339 8461 11346
36717 8484 29348
36024 8490 26701
38131 8472 13923
44397 8413 31104
38643 8466 25643
37764 8476 10484
46930 8390 26942
40677 8448 22450
53499 8329 27951
23450 12080 35674
64634 19105 5976
80929 14184 11652
21069 3304 32437
43247 4384 19470
19875 4396 23034
76932 14654 29867
15873 14936 5450
12207 25568 31744
78927 18182 21297
2146 6723 8443
66556 3709 17436
36982 19335 13245
37005 19226 12492
75681 16018 7040
8102 27442 13086
37377 25876 32067
36185 16943 32680
36848 17976 32877
12622 6667 2436
12959 11940 5144
53346 7176 36227
63695 20733 22305
51211 27045 23591
10752 8659 33928
19627 11185 5838
35557 29825 8486
44963 4427 19407
25144 8378 29854
24984 8958 35122
6498 26194 15190
62731 9337 35074
31434 24258 33204
78311 4498 13225
62163 20337 5725
5214 19701 7411
46017 28125 15248
46100 28188 18554
47210 28060 18481
27739 5497 36201
69023 14782 5521
67053 14404 8348
81711 14127 30054
68728 3937 10883
33526 30618 10422
18493 6177 9273
58533 22402 27723
68621 14639 29095
68979 14822 35302
35060 24560 5882
16575 29631 27579
20746 29295 30487
54024 23775 6866
57777 23055 26296
85319 10157 23319
58197 13366 3154
10283 27844 9864
29656 12847 1984
84502 13381 14378
6493 9320 29341
82405 7794 31650
18804 11582 1508
44567 29146 11151
52254 4897 36124
29193 27937 6826
78627 5597 27094
5262 11342 23913
5238 11343 25283
11839 8319 1557
53364 25863 23661
54563 6639 2525
73469 13861 2145
31699 28617 15412
33817 28103 11764
33597 28460 14694
32466 27862 9318
33245 27868 9617
36385 27916 11003
34740 28109 12110
6203 20540 30475
38870 16631 31135
21274 1593 1818
75720 14246 2571
38251 8814 21907
45153 27432 6432
53090 23425 5173
37473 4469 19585
48520 5000 19760
19051 5597 4343
20045 28786 30894
33401 22869 4803
54888 13701 22887
53487 15569 25459
39865 29388 30922
5790 5460 24327
78321 13224 35347
5196 8654 9066
4027 5451 17308
5583 6610 22315
78061 18139 28038
23308 29954 15867
17469 9017 2700
16003 1782 3654
74078 14210 1968
3289 22542 17328
3424 13911 30921
26856 25209 32745
36308 22812 11582
9001 27820 25718
50093 17483 2457
54895 5125 21375
77638 16096 7473
83137 4416 20589
47946 15599 36245
24495 30734 10283
17521 4759 16204
25920 26036 6113
35838 19603 22381
38326 14141 21637
53650 4122 18308
32552 30164 23607
45503 11082 2272
14447 29202 28046
20350 29774 14877
61198 16188 2310
57187 23148 28739
52758 7882 36284
10548 28676 28333
71608 14426 29462
70602 14675 28539
7984 15212 34570
7581 25218 29133
20038 6152 36628
16151 29568 19532
71208 2107 5048
50164 4932 19668
54590 22556 3487
3679 5880 23688
18213 26231 31949
40134 30270 9780
10938 18604 35444
85777 8184 16657
28252 4677 31072
27134 4686 33653
25974 4695 30260
29387 4667 32512
33675 4632 28199
30985 4655 29516
17334 2401 2559
9362 28607 19496
60374 10627 1929
72889 17925 14195
70842 18438 18726
66878 18969 17767
65664 19147 17782
71172 18034 11227
68162 18739 16857
32070 30262 17357
26807 13487 7827
25595 13379 23981
25807 13397 21292
27965 13506 10898
29735 13541 13964
28581 13482 19687
28275 13502 13617
28830 13522 12574
31488 13613 9169
26739 13428 20196
18450 23089 33234
17236 6577 5357
19822 4555 12924
70356 19605 13179
39688 5428 3646
5939 17612 8258
6591 17790 33619
22588 13051 2161
35040 22944 26600
20376 7114 4297
52551 4459 3435
55731 4446 3729
57682 23440 16941
17210 7927 2807
5573 6502 10173
5397 18550 32154
8861 4874 28135
65087 18177 35285
13030 7919 36962
21888 1917 3645
16845 10653 2381
65145 9681 2809
42981 4947 35088
22260 6593 35318
61633 20570 24411
68221 22 32293
62512 4689 3144
80573 13844 5994
21558 28296 25289
22260 28165 26561
19575 28370 24497
21007 28157 26574
24709 28120 27108
18026 28826 20121
67873 6071 3830
26102 6645 1829
44879 13437 21634
19106 13143 31922
63698 2494 33434
3994 21951 12367
1772 6084 23242
79930 12803 18488
79522 10317 11407
79847 11371 16597
79755 8690 13971
5957 24870 27331
15754 14878 29975
69644 22 4977
58068 23096 14842
27246 19060 35661
76248 14306 31778
10485 6246 5383
59464 20983 8682
2339 6136 16085
77880 14059 30512
77097 5079 8423
77016 6004 10411
57060 5354 3026
7737 21105 33366
68171 14760 2862
5481 17604 30543
4098 9308 34499
22053 8055 35097
15608 4847 9428
42637 8785 7323
26014 4720 19672
27118 4815 19704
61042 4033 22008
56690 20757 31154
75911 16717 34152
70624 4999 34249
72545 12377 33786
65509 3587 2000
10585 17927 7739
14679 18761 7368
12791 18740 7537
17436 17726 36163
82163 16381 12985
21810 4600 35049
6437 20390 8336
69933 6710 2091
60464 21158 21498
15572 4745 21472
39961 20238 34569
11255 10894 28087
18430 11435 28087
11092 8914 28087
83771 5587 10301
5941 14361 28186
28379 29930 28662
25379 7307 4480
49993 7750 36438
48319 18210 35844
38025 15862 7251
36822 15392 7236
28057 30255 20646
83248 15135 13104
73548 8940 6839
75617 7154 33259
37133 4591 35285
21147 22411 25493
18777 7644 2296
9713 9914 10272
55801 20470 28207
28474 4661 14808
37158 4602 16448
31468 4634 16853
26145 4687 12131
32667 4617 18847
35198 4607 18157
27072 4666 15450
31712 4638 15689
21302 4641 2093
53825 21399 34347
12201 13505 5550
36418 22057 27012
3739 18696 7307
4530 6526 22934
5973 7087 17237
5741 19553 34237
83507 13844 25766
77389 15958 32262
38597 9091 16524
14853 3649 1659
62542 19461 31561
5828 4529 11476
45974 20885 4228
36652 24320 24414
16524 27426 31288
5752 12623 29184
31325 30160 14691
9049 16861 35664
28170 4665 35407
13516 4169 23772
42839 20448 34250
4679 21905 30617
55824 4404 2813
14970 20130 31593
3612 5654 7286
63459 16126 2262
10148 11117 28637
10603 11748 29521
58744 7704 36292
17913 27580 7186
52322 14761 22136
6659 28737 23602
21424 23574 28204
36567 14184 19269
36229 11626 21336
10954 28005 9230
73803 15865 2566
68427 8 2463
62679 20317 32188
30573 4993 2195
55538 24459 25719
48802 4602 34408
23684 16974 7014
29343 14813 7043
68223 17796 3071
26663 28617 7134
56493 23075 31156
20414 9825 28086
11228 7511 28086
20774 8312 28085
3881 6511 29706
24515 20988 33332
7367 28372 11842
77503 16385 29948
74549 17719 4584
23726 11650 6015
32386 5895 3155
4079 8549 15823
24654 24841 5677
68837 4479 12980
9005 28428 20800
52491 11564 36147
74913 16652 4342
37415 10836 27837
37659 7982 30426
37548 9279 28665
37436 10598 26099
60914 5470 2468
17612 9489 36435
38309 18993 7776
13521 1069 2846
77928 16142 8031
61144 20393 32423
21538 17732 36203
37276 28584 31657
10241 4317 22402
11632 4256 19278
9889 4333 23361
34055 16815 36315
4769 19286 25283
4975 16149 25178
16101 13330 32367
70733 14711 35180
35023 27085 6936
9117 23820 31083
2090 11390 23075
50318 27343 25940
9050 7529 3476
81399 14215 7341
66961 6589 2566
74975 15375 2646
41113 29457 30437
55823 14265 36155
64276 4032 13706
5934 9578 10591
5647 10705 11615
38021 5597 35757
48694 23098 33601
75804 16772 34779
75127 4147 32118
31535 23310 4964
58027 8400 25427
58012 8353 19579
58616 10976 11524
57805 7454 22583
58404 10074 8793
58154 8997 9319
58127 8843 22259
57948 8093 13824
9012 7213 29401
45048 14206 32350
47818 15133 32607
53939 16450 33094
46960 12182 32226
53323 10973 32440
50275 17617 33024
57259 11815 32752
54820 14227 32891
41130 11310 31806
40941 9400 31580
49605 10235 32152
52361 16020 32958
53970 11194 32501
47757 10752 32108
54123 10194 32396
51612 18379 33184
24707 4703 11532
15344 4784 17560
20234 4735 15833
13210 4807 17759
19573 4727 19240
20323 4724 18058
22837 4722 12099
24803 4692 13500
53119 19024 26729
33216 30219 20063
64209 10372 6902
1022 11019 27853
50699 21206 34123
15619 18215 35893
81847 17040 14067
42922 10710 15329
5657 17634 6939
13715 12478 3923
27416 29691 8129
71591 18234 7195
2899 16138 30749
76978 6760 5253
78394 18042 10221
56888 4426 3510
53037 16180 22564
14020 29369 21710
70950 14649 4070
63851 9728 27764
70652 8851 27762
75889 5992 27757
5867 19038 7301
9416 14714 31084
31340 24013 5215
37115 13315 10395
37155 13149 7109
35636 19444 10159
36488 15912 12562
36798 14630 12560
84376 13410 24807
4513 16134 32559
84035 4426 16754
57525 20709 9784
57751 20745 11094
23489 26996 31894
35223 12953 36443
69397 18295 11264
64627 19221 16085
65978 19069 17089
65232 18788 8679
67195 18701 13027
69018 18372 11705
69911 5773 3058
66817 20023 27148
13001 5829 1945
21714 18194 36561
80406 4444 25754
1045 6849 24088
80060 7837 21478
79957 11612 20333
79927 8131 22680
80290 4757 20906
83611 8820 10050
39640 27674 28503
32157 28118 27132
37177 27836 27921
33809 27834 28997
32101 28644 22735
31225 27988 28519
30630 28533 24124
52998 20563 4208
49380 11489 30363
47401 11157 25836
47754 11216 28178
44694 10702 23190
4726 21322 7060
43117 21503 34107
16907 27730 7679
35445 20235 23007
36279 16778 23767
37121 13291 24918
36788 14672 28317
36491 15901 24138
3728 10555 11694
3852 10447 10765
72543 4477 10851
64794 4442 15426
63404 4437 17554
71663 4475 13168
72268 4477 12002
70668 4470 13807
70650 4470 12429
69076 4462 11008
58255 9365 3051
53942 24520 7136
8032 6347 17857
19638 2233 32883
16088 29304 9978
9486 9513 35935
37355 4602 8861
39585 4584 5403
39712 4582 8070
36166 4612 6983
40551 4576 7881
37113 4604 6793
21150 16352 24182
20163 16337 25575
15291 16264 20676
13504 16236 23042
14647 16254 19900
20704 16346 11098
18760 16316 15847
21157 16352 13828
16406 16280 20038
18804 16317 29309
18872 16318 26604
20397 16341 12450
19497 16327 29760
19618 16329 18895
9670 16178 28252
22065 16366 14191
20632 16345 14188
17505 16297 15152
13313 16234 20395
17686 16300 27594
20425 16341 29171
14893 16258 18884
67713 4901 11775
70983 18095 26569
69806 18574 20084
70357 18203 26210
73585 18057 19384
67195 18983 19468
83526 12683 9342
22266 8638 1547
48423 25943 6233
20234 6498 34393
25635 5011 18885
34279 4745 18976
66714 14517 33597
74854 14211 34148
80280 9581 33376
79319 14539 30720
37214 18919 29137
3434 22373 23656
8996 4748 3896
78452 4464 10111
27160 29934 9853
50910 22625 27702
71974 19522 16463
14573 2336 4433
68793 3828 20408
35752 18503 35946
81064 6910 31563
64297 19154 32708
13695 2646 37006
81233 8667 5991
53376 25856 14829
4308 5735 16302
73662 18199 31445
85542 12479 15781
6934 28526 17667
7840 5063 23372
8538 4939 20476
59644 12446 36179
39091 12980 11401
70552 11571 31584
2582 13233 29488
9150 8095 5245
21948 29958 27656
58211 12733 3176
38501 23393 33576
44153 25467 5608
19134 9153 36788
5654 18282 34156
52829 20751 3008
81104 14168 21783
50002 10586 2346
27529 30073 14169
702 9596 27898
4355 15195 14590
80584 13945 7093
51859 4491 21363
59256 4437 23121
54647 4471 21134
55366 4466 19393
59157 4438 21533
60708 4426 23101
52673 4484 22661
48568 4515 21412
47215 4526 19297
77399 15672 8679
69784 5409 11496
74424 8145 1571
40071 5181 34586
19771 14712 3545
65302 17499 35787
6852 5132 8770
79185 14008 31252
68924 18202 7566
73618 17468 8358
8357 21162 7136
20507 21005 31450
19553 2169 6041
21062 29851 21908
17289 13410 6098
49450 25368 6991
7413 28417 22325
57286 20458 4180
6967 26788 20323
32636 15691 2094
46489 26515 6867
46752 10329 31038
45447 9727 30984
47355 8470 30889
61040 5353 9119
61432 7895 9306
15512 4008 12026
84660 14989 20011
1423 9907 8018
12365 4914 3923
4497 18143 22265
5196 13745 22517
5383 12566 22463
5379 12640 24955
35113 24234 5191
6934 28795 13630
43108 4336 23671
15064 27586 31020
50186 6961 22621
49500 11056 29555
49455 11323 26101
3161 13184 6162
26348 5186 34758
61043 5759 4673
80096 10798 19125
79989 11133 18225
80265 5343 17680
80130 7551 17578
24566 29720 29847
2001 17498 27419
13602 4582 15977
83465 14151 14444
56700 4455 4745
49930 4505 5761
42685 4559 5836
44626 4544 5880
47117 4526 8700
47183 4525 7421
20053 29902 17646
13237 21984 33284
20450 4259 12806
25283 8049 32895
24542 28224 30765
12975 16228 15390
9383 16174 20160
12950 16228 19118
12284 16218 15972
6170 16125 25081
6645 16133 11121
7490 16145 10505
13820 16241 10873
9124 16170 13731
9748 16180 20716
6758 16134 13345
17723 16300 11124
10851 16196 20076
7247 16142 15193
10341 16189 14516
6105 16124 17660
9466 16175 14227
8346 16158 10138
10264 16187 19857
10765 16195 16937
8076 16154 14602
63146 11562 9654
63858 12370 9155
64768 13436 8227
58212 9198 28800
58460 10282 26452
58562 10734 19856
58341 9759 29349
58784 11684 30706
58761 11607 12629
19381 29528 27573
64285 4788 24970
14982 354 3034
27807 22231 33812
78291 9865 28048
79672 12756 28263
44321 28381 20319
44348 28361 21113
47167 27966 24517
20704 4872 21042
58939 22245 26809
48141 28633 16911
61994 19534 6573
65814 18635 34514
66681 13054 2618
85065 6870 17486
37682 13403 36365
84159 14038 16705
51901 26761 21056
49964 27758 16848
4096 21928 25775
17684 30367 28550
32794 28108 8334
61383 8637 32178
2899 13653 30598
6441 19374 5623
10219 28309 21334
10133 28256 22193
5753 14185 10184
84766 6927 23840
19744 24030 28068
76817 14085 5153
75738 14087 6927
52434 26514 19607
6389 26215 17355
8581 4681 19710
9299 28955 16116
53620 25876 19231
39914 21101 4279
69293 0 2804
22745 27963 31152
62978 3571 3241
11015 28586 17382
11666 25403 31143
2575 11295 25955
82829 4400 16700
13374 10090 6426
83724 14863 17701
62353 20238 29443
5664 18146 28331
5393 13994 26644
45112 13384 19908
56801 13457 20899
49520 13411 19861
6335 18469 32060
69658 14484 10603
37660 7969 24506
37764 6751 29573
37370 11373 22821
5052 18823 7466
26084 13610 36555
69796 4590 34353
43010 11041 7929
76060 17521 21521
80245 16586 25531
79389 16748 26654
75239 17702 20875
42794 29344 8377
6011 8562 17562
64897 18895 7122
60613 21416 22640
21984 26304 32158
67002 11426 6701
77809 7006 2467
32690 18796 35827
40497 10768 21938
41336 8835 21776
28361 21734 4536
10915 28636 19609
40977 9295 31024
43324 9260 30966
46065 7804 30867
19615 25354 24931
19040 30780 28257
12071 6680 31793
49094 27986 25441
37622 24578 33178
21023 10041 6318
19689 20608 32188
73799 14127 30134
76363 14103 33468
64689 18864 10139
67335 18584 14570
64150 19186 13477
70356 17795 12131
72069 17643 15474
71423 17678 13847
3068 17079 31374
6364 15220 4828
52271 24977 31245
61667 20990 11716
16916 6999 28009
22537 29913 22914
39028 4589 25761
26908 4688 28021
35134 4621 27250
39579 4584 25911
27425 4684 27474
32664 4641 25904
41859 4566 27251
40150 4580 25444
54584 20243 33558
21025 24567 26683
9384 4847 25661
10953 4832 25761
11923 4824 24850
15450 4791 26241
18643 4762 25442
10757 4834 20656
15489 4791 23110
17946 4767 25866
9914 4842 27771
69541 19679 12199
3232 17442 30942
72174 11567 31615
3158 6564 6903
74067 4305 31598
50149 27717 20039
50125 7271 30772
50105 7436 24779
49862 8889 27857
72526 19253 26450
73513 19152 24889
72542 3722 1836
16198 11520 10278
19021 12964 10273
21339 12331 10276
4191 23152 25116
55801 14525 2347
73163 4427 36925
6038 11466 27997
65356 20109 30295
58989 21800 8486
23880 6297 33748
16723 4970 27279
67143 3762 21215
76533 14329 3412
40951 12400 36345
55883 20213 4556
26795 26548 6303
54685 13443 19386
58376 13466 20331
49017 13408 17809
53901 13438 18647
37052 24880 12410
17252 4617 28137
74781 14061 29085
12517 21644 32976
67396 2050 35730
66780 11417 1500
67526 18420 30879
77324 14927 34051
13726 4807 12611
11217 4830 15325
19438 4755 11871
10596 4835 10765
11928 4822 12126
20298 4747 11655
16016 4786 13472
67266 5254 27123
70099 11822 10604
67493 13658 10605
62387 10177 10601
32805 4967 15452
22665 2825 33334
62606 8976 5060
46563 4334 14627
22115 2150 35455
2105 14448 15742
13809 14376 3034
13869 14097 10135
21064 22558 28399
47192 11121 29075
43844 10559 26923
19728 23209 9817
78501 16555 30853
2182 16253 9981
4173 15060 24718
4399 18758 16528
5199 13695 17555
4758 16475 17354
78136 14278 32139
57854 16178 3958
33672 23782 33415
36235 30139 18029
54334 19842 10034
61949 10633 36565
24411 26666 6437
27353 10524 2045
15797 3889 26840
50869 22570 24786
31804 5791 2779
67859 8221 3837
41909 15059 36314
55492 13075 16185
55186 13618 14639
54273 15130 14219
66262 4122 21672
7225 3945 15701
26554 5404 18752
40333 5292 18794
84319 14206 18844
2218 6246 23502
54818 23877 6276
47146 8389 18492
54630 8319 11509
53452 8330 21981
55847 8308 7913
57821 8289 26287
55245 8313 25681
39835 8457 9244
41385 8442 10894
58013 8288 10943
45640 8403 15321
49431 8368 12481
49399 8368 14803
51565 8348 8021
58742 8281 9966
57402 8293 18697
41385 8442 8261
54047 8325 24554
56070 8306 14250
55824 8308 22339
39965 8456 11613
50285 8360 9309
45478 8404 6811
50839 8354 21207
57038 8297 24560
55965 8307 9672
51424 8349 18636
44851 8410 7566
57938 8288 18144
43533 8422 11040
59455 8274 15862
53258 8332 10815
56059 8306 25386
54396 8321 8919
52029 8343 16011
40793 8448 10623
81263 8355 22126
81210 8451 22999
81188 7578 20585
81678 9491 21022
73044 13947 32078
71132 17705 25201
63824 18918 30421
63689 19023 29195
71022 17886 22670
72298 17559 23606
66590 18499 27800
65273 18981 24520
69957 17908 25911
16244 5669 21818
31353 4627 2785
48216 28132 20748
9804 28459 10254
42142 22245 33906
68424 20036 17697
68437 19990 16420
41863 5728 3078
23585 14848 7050
18440 29578 13639
56886 4454 11045
58212 4445 16595
54443 4472 10673
52739 4484 14859
58896 4440 16121
60465 4427 13399
50623 4500 12533
58382 4442 13543
56281 5296 17353
68748 18378 16767
69174 18291 16262
68007 18536 18630
72202 17714 18950
1791 11303 22321
68976 5530 10604
68312 6140 10604
61233 5424 10600
68057 7276 10604
65905 6962 10603
80267 7915 11985
80358 10229 11190
80577 11161 11544
80578 8237 12979
82721 13643 18262
20765 12399 34119
69196 2674 2390
70489 17768 27112
80387 16196 24054
78226 16618 27171
76495 16772 23910
71862 17625 29042
71988 17565 27740
78503 16398 21591
59472 9363 36209
30033 28337 7398
51761 26342 28262
29993 30680 28117
12936 26760 30911
82757 14084 19204
57122 20531 5483
79134 13993 34484
71730 16976 35759
15546 11552 31968
82142 16411 25920
27429 14376 36517
5891 9287 22272
8449 4439 24055
70582 197 3051
17066 11932 1530
85450 8806 20156
41424 10505 25911
4856 16778 4501
9002 5460 29792
14914 4252 20898
18255 14698 28496
17678 15031 35321
48621 26452 17951
61514 9442 33250
40791 13144 30833
5762 14373 9434
24606 14189 1862
5389 18576 7889
11971 13596 2023
6541 14510 30815
47131 28550 28787
58210 11872 35419
54583 12572 2358
75238 9018 3263
16733 9285 2320
46988 10299 7340
45992 7630 7497
48380 10347 7363
81014 13003 5325
49243 12440 2290
20455 19761 34922
41703 25619 5644
65182 4906 36195
25623 4931 4008
71273 8747 4068
36692 29883 29118
36895 29757 8329
78322 4838 27256
23742 30013 19115
38179 17019 16461
37567 17221 16416
71324 18449 6268
80361 13734 23538
64035 3754 20730
62519 3781 20702
55966 12701 26646
55204 13279 25876
55118 13978 31973
3593 6011 29061
5160 6780 34564
80503 6710 4867
4039 22336 20348
53437 19891 17027
17598 447 1673
23834 30855 10925
50339 14848 36224
51991 16336 17943
51919 16113 19956
15119 21519 5627
21531 22330 7391
35854 30143 22405
77600 14594 8518
6586 8785 10355
19274 23173 10715
54026 12937 17916
73421 4066 12250
17001 6176 29075
22730 21075 5116
5337 19960 9763
13445 16980 36077
16740 15002 33986
12318 8164 34768
83109 15434 17062
4811 12443 30454
61872 20871 15146
42891 28404 21441
43554 27586 28599
44736 28041 24793
20091 21495 33968
6426 21432 29914
49582 27750 13207
75897 15776 32065
44579 4962 3504
22071 4854 16853
63679 2509 4570
74064 6794 6961
66737 383 36595
55743 21249 4426
60774 15182 36210
45773 28977 11650
68256 4364 25987
64782 4367 25233
9780 14725 3605
46170 4880 14020
47656 21386 34125
12545 29182 15005
83653 14145 12405
80910 15255 26045
63032 20635 11890
65499 20260 12023
52131 16804 19820
11145 14032 3016
9092 14991 3203
17203 4025 11495
73570 3784 19247
29273 16990 2174
83353 14412 13499
41355 29787 23451
18181 4141 17918
5024 12282 19886
5391 11222 21035
78305 14192 9786
10657 13622 29596
3434 21164 28258
78111 14012 6176
44295 15210 20868
58736 10634 5883
58188 13305 5770
26256 30089 16806
42820 12574 36310
45137 4540 10302
59979 4431 6801
48121 4519 8636
59704 4433 4990
57028 4452 7153
50996 4497 9876
55051 4467 6869
79068 13630 3746
22737 14679 1498
29522 29543 7786
80611 6853 5932
18542 1812 31944
37080 20409 29890
38472 29967 24184
13965 14474 36490
20760 20452 3995
72742 10063 32905
32183 29228 7376
13425 21980 5202
16018 27774 28351
18428 27951 28177
16728 28820 19948
62948 12675 37073
25962 20069 32345
18752 176 35811
21634 17369 8421
21479 17702 22278
21016 18672 10952
21669 17300 18224
21958 16688 10339
20443 19877 10160
21717 17199 19792
22159 16266 12963
75389 11850 34461
72155 5854 27758
62980 6426 27761
62624 9210 27764
70052 4706 27757
39633 4532 23978
78406 4498 24914
7421 28747 27316
82922 16442 16733
40715 26552 32468
76749 15973 34691
40399 14103 7163
49775 21433 4439
17806 11798 6465
46011 21417 34127
16954 26180 31881
78890 14761 29243
63821 6770 3876
79174 15945 9069
5535 6504 28472
27265 16205 2077
67902 13579 27761
68861 11849 27762
9712 28755 20770
15852 4942 22306
11985 21152 31928
7040 19413 30634
75669 17369 11932
76955 17245 13591
77644 16984 10553
77170 17043 10217
73011 17633 8639
39301 13787 31383
48233 17652 24567
39387 29507 7760
7703 10015 28936
79960 13943 33577
54724 14989 6580
54681 14797 8359
54184 15596 6501
45183 6459 2581
76676 14841 8739
58867 22027 28905
50023 7891 16149
49719 9733 15303
45835 20263 3909
3086 11251 18936
4050 8451 17446
1855 15116 13986
79880 12449 20903
79582 12794 25015
79375 13165 27816
79441 13153 26868
81335 6329 7263
61848 15342 2239
60051 11145 36306
61060 5533 29744
61143 6223 31727
61335 7288 29706
62979 20477 13563
29697 31063 10266
53484 20617 34273
79904 17836 14406
59687 4433 29928
57444 4450 33633
49797 4506 33941
56870 4454 29485
54370 4473 32100
44670 4544 34178
19853 21046 5941
15673 14617 10278
18245 11112 2673
50908 5032 18751
36286 30082 24504
7744 4076 23722
18199 13357 34676
74410 12863 8205
74143 13109 5955
4103 21995 28830
27340 29949 27656
7045 25550 9130
22369 12889 29976
21757 13524 32177
21919 13221 29476
74266 17871 7898
52269 21368 1320
54508 4327 24584
1352 7194 25752
76952 7427 34506
79158 4436 29821
54282 15937 2330
57795 20647 7823
43262 9639 2451
63411 20193 15076
39782 11282 25806
47936 19773 3749
36985 19224 35370
11519 13662 5028
6005 10243 35338
55074 12518 21002
73739 11402 2941
41971 10460 16427
49859 8587 16305
47564 8853 16318
52417 17198 2450
60975 20533 29839
7630 6424 35509
18859 11046 1924
37456 10359 11842
37474 10150 13899
37263 12622 10518
37361 11469 13933
17366 12721 28088
12726 11188 28087
3628 18035 8969
1709 11184 9398
9699 27948 27436
23854 7353 33680
3672 10095 24901
4388 7385 22199
20336 821 36604
23287 9524 4909
85896 12105 18672
78015 7001 27372
2125 6562 27843
32440 5028 35454
21161 14078 35451
23688 5068 5911
63486 10681 32353
52647 17143 16521
22008 29813 12205
46151 4960 23455
3109 16309 7366
82367 15368 26447
29411 19496 3263
16368 4264 27672
85229 8493 15113
1582 9186 7751
53557 4361 21376
5477 16617 31273
66204 3622 22352
14260 10091 36982
53426 19605 30613
3805 23300 17553
45532 5019 35175
17693 3818 35955
2069 9424 31925
37222 19192 30770
10606 28935 23190
67470 20181 20284
82795 4417 26725
11233 3595 5118
21847 9497 36999
296 8824 24644
81173 4402 27413
18145 4426 12113
8505 4837 16464
4582 18043 18453
74773 14142 5855
63256 10290 6332
6301 18657 3759
65296 20270 26890
37977 29168 31239
40910 20513 4236
4107 15036 21426
4271 14547 27541
69343 4384 13777
65733 4409 14234
52761 4484 28555
44884 4542 31187
59613 4434 28113
48629 4515 30417
50721 4500 28019
44245 4547 32183
53294 4481 29224
53558 25799 15568
54336 21282 26907
2871 11344 22929
71444 9206 36098
48351 17895 24107
73091 10007 6958
70645 11484 3216
23055 28195 7860
70271 6808 3488
11814 29063 24865
3763 9504 21932
4588 6509 19624
11850 13336 31728
35218 24369 11182
82921 15012 24754
42618 5128 3263
9119 27961 15918
9829 28147 15569
61616 20460 11457
59646 5285 2592
49700 9860 12518
49810 9207 11540
72088 14322 7241
71934 14338 9113
63068 19088 31316
38200 30359 28138
4555 17772 29562
66954 551 1726
20297 10853 32410
76739 14192 29063
19562 25363 12245
35116 29930 28778
21841 4638 5311
77834 4497 14482
71111 4469 16100
74335 4483 14945
78432 4500 13939
77174 4491 16522
75984 4490 14451
65281 4442 18414
76319 4495 12221
70388 4463 18149
17521 5365 2082
22539 30694 28524
20456 4660 17015
3298 8401 33654
65388 12431 34278
35852 25684 5629
75814 16650 32451
51599 25690 32333
84848 10124 26860
78635 8816 10858
78143 8130 10880
6823 16160 33512
68749 5658 35733
33243 12988 14959
33482 12608 13199
33949 11525 23619
33149 13200 13111
34674 10074 30393
33586 12401 14128
34388 10665 26967
32922 13413 20845
64445 4330 33895
51578 26182 8643
83597 14453 23011
54068 9531 35910
29098 22844 4858
76109 16894 12546
79807 16367 11816
77735 16605 14035
78249 16617 11254
74542 17189 10637
78643 16582 10511
81331 15928 18456
18183 6983 28086
11569 5970 28088
10175 5359 28088
83262 14624 26673
15656 27627 30862
17457 4179 4297
13659 6083 3533
27107 4686 8531
26675 4689 9500
38887 4590 4135
28491 4674 9148
40355 4577 4008
39842 4582 4386
5647 17627 7728
37699 11249 2380
17275 21267 6013
18519 1818 35462
75413 5331 36659
53248 18496 30998
76716 16518 8743
40000 29927 17039
7539 27247 16782
5090 18856 11550
5038 19399 11629
18606 17942 2394
69765 13385 5851
49837 15096 2272
40672 12743 2149
67196 9857 2454
9357 27853 29433
83362 16094 19863
80330 6990 6567
27016 30020 25986
80409 14684 10256
83451 6587 22617
5727 25478 16403
59186 4932 4217
4311 20048 31680
61687 16781 2446
25497 6284 31042
20457 3357 2791
80462 11833 27713
80892 9795 25122
81049 9944 24614
80323 10111 27385
81911 13270 23055
23264 5039 36864
81238 17490 22124
34309 29581 7701
83577 5341 15535
22779 22784 33551
80936 7874 4868
61015 5651 21596
75431 5029 3728
76243 18817 17976
36395 21442 5393
38592 29749 29457
80951 15028 12356
16652 4886 36094
66352 5549 3965
38322 11124 7143
75125 7672 31699
19088 24600 27217
40456 10788 28513
30648 30284 21075
75457 13997 36292
43494 10500 11913
42818 10386 12122
54799 19854 29831
61922 4141 14599
27668 15703 31410
22917 18304 31554
15084 4749 4076
52971 13721 21743
77689 14762 33541
11952 13819 36859
21838 11557 33594
45639 29041 12275
77558 14449 34034
57080 20700 34242
23252 9533 10278
20693 8245 10279
22652 8039 10279
15390 8107 10279
25368 30843 9813
43405 28300 16099
42820 27819 12006
42472 27501 9293
67004 1551 31590
62196 6622 4334
75197 12115 6040
8491 4356 19166
75673 11093 30298
75699 10883 28945
76088 9944 28989
42344 6024 2987
41331 29801 22827
51435 20876 0
21647 1682 35521
19542 13004 34166
55162 4117 18084
2046 12869 12247
51156 19652 34761
76629 13983 9313
19879 5638 4297
9648 18702 30685
6608 17318 30404
5021 5902 31257
21374 24468 32084
77104 16208 34220
26412 29952 28418
72332 17818 30807
68999 18517 31905
31318 19678 3449
26133 28967 31152
80370 15163 28586
1099 11222 19303
81373 10627 6460
16610 23420 5510
38844 15087 8551
76965 16590 4884
76386 18712 23153
63481 20509 10626
56650 4202 18297
39959 17716 1737
19280 22329 25949
19565 21724 11204
32857 20766 4063
17250 6910 10325
38135 20982 5288
14106 29398 18136
59250 14964 2349
22444 3457 1655
35716 22829 25489
73849 5157 3251
57078 10413 36055
49971 10920 17062
46553 12743 17047
53868 12982 17077
52430 10379 17073
55983 9005 17088
76560 15548 8384
39658 9033 7336
38239 7223 7390
57037 21021 29671
6140 15182 5776
4571 15095 7796
27233 21697 33967
36283 25666 11017
