ply
format ascii 1.0
element vertex 2800
property float x
property float y
property float z
end_header
86660 15390 13824
67973 13441 18935
26389 2549 32247
17649 11950 656
77477 6953 7594
38338 8102 28323
38634 8102 18238
23277 13154 33411
8547 12800 11150
27373 11270 1799
26052 12225 1777
76624 18166 20094
62574 18696 21564
58831 18833 22089
32799 15070 2092
11267 4508 23070
9700 4508 23420
9432 4508 23943
36461 28155 11967
80209 17197 21210
12169 12487 30126
66844 12916 18784
12845 10556 3506
82813 14442 24343
16098 15776 8854
88758 5380 20290
29102 21240 31802
88143 8600 14626
41527 8130 31247
56649 14311 5914
58634 15515 6479
43404 12336 30960
45556 9362 30551
44812 12379 30695
70712 17894 11174
71404 17855 11360
68915 17999 10781
29349 9595 494
85826 15806 20751
66547 12762 4498
22461 25522 24334
69361 13948 22051
25886 7870 32591
14394 13166 4853
31195 8975 1305
9850 13599 9526
84428 11224 12550
4293 7153 6409
42241 27473 8295
41717 27535 12452
40601 27709 12661
42474 27432 9199
39958 27792 16364
39393 27898 12720
42618 27398 11638
6463 10463 30579
29043 9408 32287
27071 8646 32257
30123 8469 32303
29355 7810 32292
28619 9058 32281
7230 7984 342
24533 11656 8834
53604 5064 5127
19811 14216 14980
19811 15075 16712
19811 13474 15366
26511 26816 29185
28040 20573 31679
2982 7790 25464
26283 11373 25741
81438 17047 21101
6962 8498 14462
6711 8374 6705
19037 11798 26872
18875 11783 24110
21751 24634 26542
78212 15827 10666
46362 19853 29028
17646 4370 3081
38463 9120 13404
38530 8735 9874
38243 10383 8247
38477 9040 7484
23452 25481 4127
22822 9234 6139
22822 6535 11210
22822 11138 9525
22822 17606 4794
22822 15256 6997
22822 9407 12422
22822 7558 5303
22822 7028 15521
22822 7472 15058
22822 5824 5439
22822 15404 5794
22822 5513 14844
22822 13350 5314
22822 11168 5230
22822 8443 12988
22822 10526 5353
22822 9198 5374
22822 10783 10228
22822 8736 9990
35639 27147 13262
49723 23277 28085
44385 13285 3278
23428 24843 14132
27193 27260 24296
26057 20522 2257
30404 12456 4376
73769 14557 23904
28944 10256 1763
28389 9442 1771
28753 7150 1766
29762 10643 1751
88758 4917 6586
54884 18949 23449
71631 5933 7093
19722 19734 11716
66245 13654 28580
66420 12966 10800
45533 14772 30459
20241 21032 4871
7170 11849 10786
20518 21049 22419
21746 625 3330
29630 10627 6387
39572 5537 2565
39958 25139 5245
50749 4508 5478
30489 27428 12087
75002 11414 26142
31997 10885 31024
57696 7034 25739
82399 4701 27840
72993 11167 21498
21586 23724 21227
87528 7515 27498
86135 8928 19436
86108 7475 5923
16661 3395 3433
46771 4767 30028
21416 23581 8168
33915 13624 2074
77581 6873 5704
19293 19377 26743
43038 15887 30802
68364 13537 11686
57522 7195 6948
80656 12980 28721
16713 11716 3154
78879 15467 21149
16741 16979 14415
85431 6085 11586
18356 13498 2320
29807 5473 33415
45824 16730 3896
27710 17831 31673
75076 3450 5771
11610 10282 9844
22736 15837 2232
70862 14998 21245
17758 9944 2333
12893 10656 6671
12439 10528 8798
23424 10653 32165
83812 10952 13720
83482 11280 8111
31180 17507 2824
23316 1180 677
21559 11868 9021
31912 16739 31578
53981 18598 17956
75607 12121 7986
50536 11387 29485
49748 12866 29629
48268 20120 28656
74501 16580 6437
75149 15491 23415
85514 6940 14463
22808 25499 26917
75327 15413 15763
16856 16812 29687
17896 11980 3429
16840 16879 27778
23214 13750 33722
60632 8480 9200
65589 12712 9866
78911 15773 22447
21353 20895 4324
34226 27587 24300
22591 24307 25493
18839 18558 8701
21584 17279 31018
66779 13755 13713
27262 11156 21070
63492 18765 19829
84633 13712 20987
34392 27007 6408
23482 11769 7322
29132 27237 27849
82435 10099 12188
83061 10162 12332
74751 9953 10341
79079 10345 11346
37044 9443 31549
36406 9209 31607
38549 11054 31414
27676 11511 6233
50209 5255 4452
85949 13143 25974
25208 23804 30128
74129 8353 7354
32690 6839 30864
48418 15636 9722
61146 8953 21758
85174 5054 18706
76908 15482 10985
28383 14082 31979
26366 11181 33411
14255 11005 14114
87599 6628 18447
21939 24567 18496
59896 7763 13212
59599 7465 8246
21275 22292 30454
21912 6471 3341
60823 14462 27557
42974 26507 19139
44503 26286 21763
39525 27047 19059
45984 26043 20289
43746 26398 20874
39978 26962 17146
42946 26517 19922
37928 27289 17826
46970 25870 17862
43539 26447 23107
39181 27091 17658
40548 26897 20474
1712 5479 3569
32056 11728 16096
72274 5458 5136
33934 26882 5713
84447 8313 5136
82808 15614 9864
28359 11563 6014
19929 18376 13460
63401 4878 19755
62423 4863 19774
58653 4877 18944
20746 16104 30872
27678 9452 1487
22225 25375 14553
18911 14675 33236
86272 12383 8531
54579 8787 5404
2796 5749 26443
59558 9060 28255
73487 17160 23357
24119 19171 31279
32768 7794 3323
53615 19036 16006
32398 14133 31935
58412 5096 13007
54341 18987 11225
15802 12355 5811
24917 26364 8434
21055 18720 30919
83942 9995 28727
41158 25089 28018
16298 4690 752
80929 15836 10151
23818 12723 5879
42498 5182 3120
24100 10623 2357
23091 14121 2204
83097 2280 7909
84977 6714 5621
49214 14665 29354
79755 16278 14270
18697 18350 23093
7358 8675 8481
61224 4804 29558
22369 23426 24039
23883 25993 4721
81789 1035 5564
7526 12206 18669
20583 19928 30615
51171 13610 29348
28922 4515 28342
42043 11980 6038
42470 11980 11370
682 5309 8696
85409 7781 9970
38385 23987 28951
24838 4155 2551
29128 21920 31799
46533 15850 29833
46672 26433 6282
46556 26444 12299
47205 26341 9563
47931 26219 12029
2736 6731 2809
27737 4514 10436
28290 4514 10391
28354 4514 12156
27948 4514 9751
23625 25915 8191
69553 15253 25845
8281 12613 23889
32782 20851 30757
33906 24016 29956
22010 20553 30219
79363 18393 16786
77493 13283 25207
28025 26983 4614
23728 21820 3999
55224 15986 28324
19652 12084 27623
22416 23693 8742
42679 27388 22365
39357 27898 20133
42627 27404 24023
38502 28022 18072
40832 27687 24181
39781 27846 22974
38034 28097 18429
41559 27553 20154
73792 10928 7948
27134 24826 29522
31109 27508 27847
19439 19537 8636
83191 18000 14976
16522 4425 33283
54835 15526 28462
6412 6750 213
74479 16196 18334
83164 10557 26093
76244 15449 23762
36947 21037 29772
36701 22052 29554
82169 14692 24855
31144 4533 24107
26310 26889 24568
84420 4840 5136
57525 5020 18443
75024 1793 26134
14397 14669 2523
43079 9371 3219
30018 26574 28887
30295 16952 31877
77786 4470 26551
88758 6025 21268
74343 15251 22934
20650 15117 29633
76090 16650 22934
30341 26663 9115
13020 15483 14316
3056 5682 1439
19891 16416 31415
27787 4508 3789
41180 4508 4665
24041 943 2757
24902 26280 12761
24673 12637 3486
44918 18977 29713
47414 9890 3897
48767 12886 4207
46692 12175 3733
47203 13217 3850
69704 14185 18078
30727 12634 31172
46 4762 27601
20732 6231 2021
43024 17970 3627
88064 7526 14348
53461 19039 15214
21478 5289 4260
25239 5289 5253
21276 5289 7863
21745 5289 6366
23399 5289 6502
21890 5289 8502
24527 5289 6612
21801 5289 9747
9980 12090 32383
37384 8545 2363
37453 10958 2368
37319 19711 5710
68990 5083 9465
9825 10582 5638
22564 23440 17095
42384 7499 6001
41456 8090 5800
40658 8089 5627
34327 22446 29979
33893 24764 29502
23698 7744 30930
67341 13280 4556
28121 5008 0
19811 14131 5802
16457 15313 31748
79534 15681 23925
38791 20402 29772
38230 21753 29498
32757 6400 8061
65786 13086 29035
14960 14833 31714
65637 14693 25924
61790 14057 26914
85342 8078 28777
84629 9843 15041
23549 24880 19885
23599 25931 27310
84886 9359 6589
13641 10853 17375
14247 11004 18886
28666 5536 4664
29924 7215 4664
25078 5532 4664
32429 9190 29287
71508 6503 8629
2948 7055 4166
85995 13171 6175
33744 27645 14936
74571 16913 22766
27816 16431 31959
25883 26615 19180
86286 8351 11734
85831 12193 18283
35980 5272 31801
4609 4690 33392
65205 12996 26120
32160 8436 21487
682 4858 24670
682 4778 24093
37430 18496 30624
22100 25199 15145
20524 4508 31259
48180 4696 4328
27464 4517 32845
18293 4517 32498
30122 4517 32113
21208 14829 868
28461 15116 32154
48708 24162 6183
21862 24462 14087
21830 885 33411
37769 13629 2409
7375 10819 4017
39057 22796 4871
85172 12119 11162
81149 16466 26511
1111 5665 21047
65874 12316 13853
37577 5744 31670
86791 7104 29005
24939 16762 13725
25643 14622 16802
24951 16726 12655
25334 15561 15692
24931 16787 11776
24597 17803 13992
25559 14876 13970
25289 15697 14484
14769 5980 2576
21084 20323 3454
25704 3049 728
75058 16638 26386
28143 4516 4204
17382 4517 3734
12484 4517 4131
18240 4517 4143
8630 4517 4209
54063 16760 14892
20758 21397 20487
63046 10489 5836
22609 11722 32893
83492 14710 20785
74974 12526 11192
74819 12442 8698
7802 11635 13920
84089 17192 13841
15346 14658 1734
26110 26807 9535
24775 10577 30947
23489 18964 30688
29713 8062 33563
35409 27954 23022
17954 10247 30965
38506 4571 2182
25159 25444 21958
33249 5253 32087
72764 10902 5374
25712 26604 11873
57155 5812 5941
76168 18497 15890
63243 18821 15045
38882 16162 2762
26591 20987 3291
28715 10261 33670
25634 25680 25776
13044 4508 28756
11476 4508 28749
10658 4508 29279
15450 4508 23590
70917 14484 11691
32111 5290 28654
30374 5290 26435
29609 5290 27582
24963 5290 23793
28444 5290 24793
23804 5290 28198
24478 5290 24994
24804 5290 20676
23826 5290 26424
27585 5290 29249
30322 5290 29281
24431 5290 27434
25803 5290 27808
25586 12788 254
31761 11339 30503
21599 23985 8975
34880 24239 3211
78255 16715 7949
37556 28173 18347
39481 27917 25825
37436 28236 23936
38352 28109 26867
37854 28147 21325
32228 11588 17345
51431 20471 13089
35291 27894 20018
84280 13997 4849
31623 26704 24612
64657 12165 21327
30399 18088 2998
6538 10628 4308
77624 15497 13521
81620 3493 28020
54018 18276 15511
86939 8771 9467
29744 10325 7621
22435 23771 25520
75652 788 26189
21160 8413 30937
57678 6632 18738
32451 27481 16946
84335 11685 14860
31005 5289 7244
29145 5289 10600
28813 5289 7880
30454 5289 11517
28796 5289 10956
26637 5289 10837
28677 5289 9059
26375 5289 10270
42590 17016 3634
38325 27764 10479
36759 27993 13958
37347 27937 8751
39382 27604 8781
38964 27683 7486
74210 15240 14066
9604 13389 26548
47452 18879 4739
21825 23727 3859
7111 7860 28863
18529 17856 15734
25334 25578 5313
20394 20828 11328
66108 15403 7751
29616 5289 5811
25410 5289 4114
86489 13968 12990
29622 5388 32135
21840 6919 25016
31024 9625 27502
54063 8273 17090
54063 11701 18151
54063 6392 22732
54063 6948 18275
54063 8488 20637
54063 7082 20414
54063 5815 24951
54063 6713 19762
54063 5752 22088
54063 9601 20929
54063 7739 21276
79388 16183 12345
86968 14226 13130
19811 6449 19164
34568 26986 22573
60300 8316 29540
36505 14765 2587
65522 18270 10568
63138 18409 10241
57106 18766 9519
14530 15975 28375
62881 18822 19473
68628 18676 19046
19352 15239 1344
75367 18204 20312
38127 15692 2862
20485 6581 33255
32202 26455 4740
32077 20017 3314
70712 17792 23334
58895 18558 25601
55212 18794 26369
80604 15624 21974
80624 17649 20325
30570 15655 2179
43520 25952 28577
56234 5385 28314
26481 22176 3900
60289 8158 25910
20645 7770 1269
62171 13307 7184
78031 16137 13219
12653 14789 5287
20746 21743 7922
30443 22754 2618
26879 22013 30190
32292 26769 6307
27453 12078 15891
27592 12078 11129
26746 12078 7418
27841 12078 11780
29559 12078 15525
27113 12078 6994
28858 27150 16492
51642 9919 8882
42157 17783 30297
30729 9663 1080
65167 18680 14119
55889 18990 13372
62782 11456 14736
61151 10188 19460
58764 6553 26770
85511 6205 22591
71200 14627 15193
36139 17625 3262
5765 8989 32343
44302 14717 3352
87553 5725 18292
77927 5699 7418
54378 14736 28627
53853 13354 28823
74255 1976 26063
54102 9133 5299
53757 7664 5230
82766 11890 25903
83098 11636 28511
28882 10680 23948
42701 18647 29752
26851 26054 19695
73973 5246 26932
18095 5319 2274
85521 11046 15180
18571 17340 21821
54047 5829 28811
28939 26662 11061
24892 13947 29218
63185 11356 9437
23219 11794 20342
80421 18041 14667
84425 9370 27756
48919 17655 5120
27922 13162 29250
19811 9210 28413
24356 25907 13333
50050 19481 5650
21904 7931 32205
16699 9151 33231
73014 15767 5028
53118 14090 5123
52979 14824 5142
84734 14372 12807
18327 17795 3994
35916 27260 25513
21535 18728 31223
85232 8476 5358
21018 22417 4377
19013 18080 3255
15331 9745 2938
72621 10732 28767
46844 17762 29349
18378 4517 31377
21016 4517 31534
17723 4517 31118
73398 5047 26206
7588 12090 7782
85732 5002 28616
19040 18752 3969
11484 10242 23823
79645 15403 14721
24935 5289 3675
49286 18976 5107
76007 12963 12294
75840 12899 10365
24159 25993 14073
76499 16360 15886
31602 19511 30897
82892 15195 21942
29914 27446 9306
16677 11508 20027
79790 649 7969
2518 5895 9726
66885 13727 20488
46374 13306 30379
55544 4966 5559
17879 16695 30975
86907 10932 12954
77100 15850 23617
19980 11852 8406
27054 7590 757
22966 11457 30920
28560 27486 28728
69527 4934 18492
64638 4962 18258
59096 4994 17504
66950 4949 17774
58817 6614 7471
58996 6810 12274
85943 11373 4618
55562 15707 6013
72917 9778 28912
24765 13170 32226
22808 11147 1911
22026 11023 1944
81073 12202 5136
22344 13911 33731
86443 10887 22672
28821 5289 26856
28462 5289 26484
31038 4524 10194
19558 14411 4740
49539 16800 8188
79334 6055 26445
31014 22177 31368
4661 8591 29730
64914 13304 26695
54360 17585 5603
36665 28147 18185
84501 5812 28912
40108 14772 2728
15252 4662 1314
21981 25193 10162
18779 18237 16231
19811 10959 6449
41754 26342 27588
85199 13342 13583
18728 18484 28389
81395 5863 28220
53831 18407 28103
29558 26666 8837
35100 22822 29682
34288 9634 2095
25259 13576 5063
25868 6134 1422
18466 18070 23563
55518 16705 5904
56142 16892 6087
84016 13263 19002
19811 12096 10448
19811 16009 16248
21621 8407 32083
80951 15154 7096
49097 16052 10777
82691 2938 5246
83683 9611 17399
78543 13331 6151
27657 27526 29192
47805 14634 10257
85762 6660 23802
57940 6130 21244
31519 22311 29978
58370 5600 10018
78621 13052 11228
75031 13541 10369
20341 19582 3392
85813 7765 18580
69655 15063 25346
49448 17562 29369
72151 14824 21753
61977 9659 26998
83455 6487 13507
53535 10307 5498
51583 4587 5091
52785 9186 5342
53383 8352 5466
46612 8721 27061
47585 9343 26823
47542 10695 26833
72353 16124 26078
26893 26128 11037
57291 5526 28520
15643 4514 19918
17619 4514 19151
17084 4514 17273
16501 4514 20091
12560 4514 18746
12256 4514 20075
14953 4514 19225
6148 4514 20506
10007 4514 18377
5243 4514 18061
14164 4514 20693
7175 4514 23958
15024 4514 18657
18766 4514 17562
6645 4514 25316
4777 4514 17779
12959 4514 21535
10531 4514 22728
10668 4514 17963
5484 4514 25086
11841 4514 17369
3063 7666 7794
29689 24027 3956
29324 17692 31396
60145 18124 26539
77240 6598 28030
75489 2302 5311
31452 11088 31803
31087 18862 2696
3403 8288 10613
56812 7433 28162
57665 9310 27957
35958 27949 27641
26760 14067 32244
28740 4508 2700
35610 8300 31833
43917 17170 30129
75194 16258 19373
84384 14924 26813
11153 13151 30360
54063 15848 13421
72015 18288 13230
85753 10916 19860
27105 12380 33577
36854 18574 3797
27878 4514 26412
28392 4514 22058
26064 4508 3426
74315 3375 28737
85076 6185 19646
10104 4508 5731
6935 8484 25876
6531 8285 19559
67203 17883 24620
79789 1247 7880
18483 18213 29280
36763 4988 31472
77872 13325 10387
49937 15449 4588
61959 10238 24079
27414 27167 22549
36450 10302 31763
37203 10513 31700
36872 12375 31728
72815 14975 21228
26959 9525 30619
66873 15629 25690
9583 10287 33557
32884 23551 2881
14748 8273 1921
33584 6885 29318
16953 2197 32796
19811 9226 7639
37831 27309 18479
40876 26882 25605
39435 27106 24991
40767 26910 26855
38631 27194 20003
80625 16480 27972
6477 6952 5404
4743 5688 33525
26199 15271 32123
23373 1897 33282
75804 15420 9757
73558 5024 5389
29646 10369 22822
6206 11164 15276
22241 24805 29983
23612 9605 1896
42417 26015 5681
38630 25807 5279
37200 14735 31402
49387 16407 29447
23264 13617 28791
84603 14203 23842
26300 20287 31426
29582 20907 3584
80428 2607 6339
23544 24361 29905
77959 6871 27596
31208 12062 14977
34804 27612 15369
682 5755 31538
82903 10734 7986
28543 5777 73
83370 14176 17029
23874 4517 2707
30018 4517 2450
24996 4517 2964
19811 16923 18220
86307 8811 21648
47411 16329 4498
76623 13130 10320
19918 20074 3577
22927 20612 30907
12170 14977 24276
70797 5367 20710
77729 16377 14004
79795 0 27189
24516 25219 21805
16314 14334 31195
22752 2738 31226
4941 4517 2174
4949 4517 2989
7837 4517 2608
15407 3959 32260
54063 15671 19381
75847 18478 15405
81342 15353 11643
25953 22015 30537
21076 22650 30124
20225 16026 30756
18527 17866 18670
18759 13237 1696
32790 27427 5364
28689 17573 2603
57514 5060 15613
50248 5925 7806
40365 24881 5841
16895 6740 1243
87013 10041 13649
24851 7855 32215
73823 5937 6509
67134 12969 11102
61448 15172 7141
26136 9048 33184
2727 5380 1676
10228 10466 4251
34465 27557 18957
80433 925 26112
85117 4588 16719
34085 26925 23532
32033 10121 2529
87137 10820 23495
21455 14330 526
19694 19624 21054
41547 25671 27816
14147 4508 17339
3426 4508 17157
13521 4508 18269
5243 4508 21202
10613 4508 20030
9469 4508 19669
8008 4508 21567
7858 4508 17451
6565 4508 18351
3450 4508 20105
38364 16715 2812
74065 15212 5429
72468 15831 14799
80555 13561 22326
83373 12400 21685
83108 9466 21627
70766 10264 24709
73078 9972 24116
34821 8102 17598
34327 8102 21803
32993 8102 17766
36033 8102 27188
35969 8102 17480
36374 8102 23912
33512 11854 31894
24504 26208 25299
24409 13722 28978
89097 5694 28188
89097 5092 27424
72647 4118 7986
79751 13211 9872
79270 13278 6498
83036 1754 27391
58470 6059 25931
52785 19691 26878
46612 5182 3721
24402 25124 15908
21756 5289 20815
21063 5289 20721
22338 5289 19774
20521 5289 21326
28453 5289 20640
22735 5289 21674
23310 5289 22020
22706 5289 19262
48520 17472 29456
45173 22052 5367
46217 23011 5674
48059 24554 6183
33885 4508 2553
9306 4516 33809
11937 4516 33591
16819 4516 33662
22561 23382 4003
72156 9996 7109
53042 18747 28126
11761 12680 1219
25714 8440 1696
47165 10422 30208
47148 8410 30212
47304 11180 30176
49202 22825 6057
75775 18200 13910
55191 18969 11546
61837 18727 12530
5206 8033 1352
71590 7630 27706
18218 17814 27754
32014 27326 9089
31344 13839 32201
20401 15072 2640
69865 14019 24930
75943 13273 23471
73324 2305 7463
68211 13471 21047
85449 7532 18886
29149 22343 2883
36951 28267 11467
17206 1748 31820
5414 7710 20459
32153 6973 2141
9202 13139 7665
76767 11235 28480
3018 7857 24129
48754 16589 4854
76496 1901 7815
51257 9325 21622
51553 17496 28866
20745 21876 29258
83561 13845 6809
19032 1689 30629
76347 15492 17790
46483 10104 3685
78668 15475 15645
26009 14228 4549
43013 13078 3006
37801 17567 31114
19060 18650 18465
85655 7193 15299
59591 8249 12947
20082 20389 11066
59637 8076 10262
21779 24133 13451
85723 11837 22465
32410 19340 30539
12327 13370 29992
77910 6350 7123
79138 16269 8968
19811 12435 21430
19811 13287 20407
49963 17580 14116
37874 12499 18049
37271 15956 17995
20888 7783 32828
29403 26900 29512
50297 12623 29516
32898 15662 2362
30487 4909 32041
71851 15155 10268
88758 5067 25878
23424 5289 25676
22530 5289 24693
22731 5289 25344
25030 5289 28441
73286 15733 20815
15478 11279 8733
42912 10243 30864
45076 10953 30413
87429 9567 28250
81195 11684 26150
71824 9211 27584
33730 20966 30003
45638 18617 4360
24110 17309 31655
33346 26786 19154
84335 14026 15412
65253 14289 8046
50119 18137 15346
78249 7623 26630
31020 20372 30487
23468 13241 3398
32375 11434 9014
8556 10185 5424
85927 10652 9451
19811 8559 27342
75257 18391 14910
53841 18039 27668
50621 7320 12194
50621 8869 12376
50621 7964 8837
3996 6890 17824
4476 7180 21370
86667 6943 15419
2828 4513 27478
82191 14261 22132
51062 21587 5965
12459 15034 27825
86586 4820 18492
48640 5277 4301
33083 22257 30136
33543 18689 30895
53409 10081 28577
53968 4947 28460
22944 24786 25829
49891 24284 6577
19945 4812 17025
21489 23782 25065
71066 16866 9800
88758 6145 7647
88758 5805 11402
85016 6358 16594
24865 25011 4193
58034 14550 6256
9300 11049 29129
18660 18314 25398
49469 8943 16355
41961 8943 15849
27068 27075 16399
29130 5289 3043
80682 15228 13301
17471 11676 30618
20895 4508 3223
6400 12201 18411
57557 17530 6539
30575 9877 10132
31928 11813 27900
23674 9703 32155
27584 12011 32279
22843 24422 16686
20608 11867 9246
86307 8896 13275
36765 20346 4101
36032 21089 4218
21106 7451 4659
70170 16128 24563
77713 7097 26319
78003 13338 22838
21308 7462 2246
22822 11049 25740
22822 14853 29229
22822 12129 26174
22822 19539 26525
22822 17964 20287
22822 16207 25057
22822 12760 25162
22822 17016 20668
22822 17615 21746
22822 14220 28253
22822 17999 23235
22822 8681 28216
22822 16699 23536
22822 16633 24295
22822 15259 21699
22822 10493 27792
22822 15799 26364
22822 10558 28906
62252 15982 7408
61906 9600 12490
84423 13056 21615
62863 11160 24682
10062 11211 4411
79841 14312 22427
81088 13900 22174
4212 7020 10633
22389 25462 12148
23204 11795 15800
22947 11810 13300
62216 9851 13463
62432 10018 10617
7777 10676 28800
84758 14417 25957
17125 16968 28629
58242 17229 27288
6193 11150 17034
19881 4508 25818
78696 15475 10006
52938 5346 29047
14319 15633 25089
36148 28096 11326
21846 24870 24443
84254 17605 19653
39559 16507 30905
82342 12189 6777
43067 27003 11299
42691 27062 12071
43346 26970 7993
44033 26844 11698
62302 11614 27274
27673 5330 1781
3223 8226 19850
47360 14363 29820
17974 4508 18510
14989 4508 20901
19811 4508 26397
24362 13763 33528
25815 26741 28873
65949 12450 18663
80965 12619 7750
45610 12023 3504
44977 12780 3384
44186 9537 3239
20407 20448 17091
22241 7145 2954
45841 4604 30254
72944 15957 10159
27515 25867 29720
85660 9453 21135
8358 9111 7271
37518 19818 7061
27617 6650 637
11627 11606 30091
27404 23713 3608
44031 17942 30246
69214 17119 9497
39166 21333 4531
63347 11743 8912
35977 27887 22191
83355 5377 26215
63115 11229 29212
69481 15400 26572
1749 4937 8138
26965 16514 2108
28038 10702 235
8227 12615 12669
11136 4508 4881
36607 17312 31263
62578 10131 20469
64801 12729 14037
30479 8652 822
82092 1700 26100
73154 18801 17020
24828 17101 19656
26084 13279 27214
25682 14502 24331
24660 17609 28862
25135 16166 26462
24554 17933 23714
15067 14954 3331
26598 14213 1396
24714 19090 31926
79952 6434 12379
28370 27183 14369
38125 18788 30494
9623 11988 1794
73080 10699 7461
30916 26641 21221
3556 8806 19401
35845 27883 10034
65574 18730 14464
66189 13538 25320
76184 17685 21186
68168 18158 22119
64043 12286 19636
49615 13575 29344
75582 12801 24006
36881 27405 20339
21633 24285 8311
28717 13938 3998
32721 18414 31118
23691 25779 26543
53314 14837 28478
13905 15440 28904
80752 12630 26140
59746 16968 27051
86769 12531 14088
10388 11094 28664
12132 14963 10200
17182 2511 30562
45772 17704 29609
55165 17990 6032
36462 4508 30430
59912 18511 8800
27797 26522 10635
24847 17524 2876
78470 13332 28912
77186 9006 26485
88758 6162 15945
16978 12260 6076
23995 20599 30352
50275 7024 4501
49629 10687 4390
57768 7550 6115
56999 7580 5932
46033 12507 30465
32735 6266 20213
76786 13182 26768
37608 17222 3119
51211 12529 29039
68943 18534 19991
52580 20306 6468
38072 7036 2425
39198 7136 2551
39441 10885 2556
66218 6045 25824
49847 25435 21464
15966 16757 9838
43181 15137 30633
33686 27427 17943
26903 26994 16904
47079 19711 5113
47186 20769 5320
34455 26913 17692
60788 4798 7415
58670 4767 4601
63329 4834 10800
61786 4812 11857
66431 4878 10845
60214 4789 12003
60891 4799 12078
59487 4779 6593
63328 4834 13573
60429 4793 8081
50816 17363 28964
35374 16183 31569
84733 6339 7986
24298 24080 4036
34225 24478 3479
45001 14197 30358
53913 5289 7152
60671 18391 8122
19930 19906 16973
22913 25522 7703
54770 18950 10495
23901 17140 2701
17669 4508 23672
19403 4508 20768
15052 4508 26823
19221 4508 29325
17780 4508 27052
19047 4508 22261
16799 4508 28208
15575 4508 27486
18955 4508 21493
15386 4508 28159
18593 4508 21851
84173 10499 25903
87225 6828 6115
60550 4879 14801
61963 4897 14772
63918 4860 13984
36075 13255 2418
33460 15645 31823
52810 11534 5044
23678 24999 8846
15119 4517 31782
20449 4517 31878
12606 4517 31879
3613 4517 31705
59576 9349 26735
50385 15061 29057
22986 5289 2754
2329 7088 12957
35547 27200 7073
17584 5646 31685
49697 25723 19949
26900 27117 23539
28203 24911 4538
49099 15632 29610
33079 27604 11716
25071 22367 3375
63822 12321 25599
31858 27542 26349
30120 10265 33161
67797 15553 25674
54063 14639 16115
23457 25840 24736
23725 10406 1416
81214 14996 15357
18995 11795 8148
44216 20565 29158
44950 21018 28939
50661 8960 22378
20080 12978 2108
19730 15499 4189
38594 27707 21846
40585 27419 26644
39826 27553 27985
37523 27903 24581
39278 27613 24191
30111 27385 18674
11745 11725 3935
55933 14080 28533
55532 4538 28654
31768 8980 6534
20169 4508 28898
23458 4508 26483
25591 4508 29111
22348 4508 30496
20791 4508 23371
22452 4508 26948
23896 4508 29846
21813 4508 25807
22590 4508 28319
54455 5279 5471
41188 14707 30974
48380 15691 4623
6266 4517 32153
13894 4517 32501
13049 4517 32477
19811 11714 12514
31285 4558 28375
17401 2097 3413
39528 15758 3003
86199 9755 27886
18645 18367 5420
53914 18646 12831
83340 14854 18252
12049 4508 25605
11144 4508 27381
12338 4508 26552
15399 4508 22696
13043 15382 7571
343 5955 15471
343 5815 8171
343 5692 11346
28366 12078 25681
26847 12078 21760
29924 12078 27313
28086 12078 22767
28774 12078 25270
26568 12078 21131
85518 6352 25651
88978 6289 10451
34505 27769 20504
30476 4508 31175
84234 14824 12815
10294 6972 29860
21350 262 31623
4084 8077 31420
60423 12978 27304
76959 759 28843
72846 2873 28178
27760 27439 13485
58471 8180 7678
26325 26948 4808
20608 11889 27453
20366 5289 6619
19811 12454 30556
40602 4508 3794
50941 9082 24629
32554 9443 3803
29381 27214 4416
42706 14963 3073
20544 19476 24295
20629 11867 21449
8049 9224 27744
40946 16716 30686
15563 10403 2804
44328 27115 13091
43941 27192 9544
42430 27451 6574
42964 27354 9124
6431 9691 32240
73386 16667 10463
75689 12210 28893
43761 26884 21229
43676 26924 27959
43660 26892 19098
43903 26881 26416
44913 26713 25831
50394 21679 28062
12744 12131 28788
48437 26468 26502
47769 26570 21218
47814 26568 24641
22869 14369 33375
21918 15397 4271
8977 4508 5105
32739 9384 25884
32739 8461 29170
32739 8314 22713
32739 9388 27923
22904 25698 7204
5235 5094 291
75824 1025 7986
0 5350 6734
682 5933 26250
36779 26983 28688
21939 25213 25494
42797 9683 31055
42745 12043 31084
21554 24037 29691
21451 11870 19637
26052 4514 19408
23133 4514 21088
25641 4514 18186
27235 4514 17795
22628 4514 17857
23371 4514 21946
72751 15314 12003
25088 13574 32222
23234 13856 5082
4931 8297 6089
78542 18352 17222
59943 14037 27246
682 4944 7550
81736 12538 20029
82027 12370 22826
38406 14838 31494
20395 5289 8810
19303 12598 31885
19811 6318 31281
12884 15334 25257
26240 19440 31338
86507 15844 17161
70383 14313 23764
38531 17235 28502
43395 7239 3120
45494 5477 3500
15729 4516 29363
6494 4517 29687
57547 18958 16934
80397 5600 13001
23315 22420 4171
58065 5209 11619
86121 10116 8511
3144 5078 1349
27975 24071 4336
70667 14782 21945
81792 14869 13199
82331 11661 7986
15974 11333 2636
22661 23855 4096
19811 10079 26761
19811 7712 28386
58362 14155 6305
19849 7255 31931
31351 10948 29250
47847 16740 4324
2216 4630 29900
48413 16981 29566
22438 25386 7100
21538 5808 2919
20508 13717 31374
46284 8668 3889
71982 16213 9970
68835 14372 29188
26194 25791 19654
18699 18278 10756
77575 7351 27902
27096 21753 30594
29417 20919 30727
28322 26459 29594
28614 24115 30076
19431 19291 20598
31560 11984 23568
82984 11723 8707
20840 7111 30707
24789 11158 33243
21955 24654 15205
75893 11541 5280
25212 13770 33362
76407 18685 16971
34398 27840 27408
36131 28062 20494
18285 17758 24626
81628 12595 8515
24834 25319 21247
2743 6490 7687
45925 26544 22353
46656 26425 20247
46251 26486 19546
45718 26570 19705
45209 26655 21578
68218 16653 24945
6351 4508 24687
59724 18733 22605
64083 18516 22393
19637 18580 3026
59397 7720 10823
86781 4910 16693
7650 11170 19266
29087 7036 218
15709 8132 31362
15936 10254 31401
27264 19715 3034
27251 20992 3298
28341 25776 4313
86704 12978 21114
80937 12712 5627
35083 23935 4199
84149 3842 5242
18020 16035 31256
23160 15982 3192
2767 6080 22064
2478 5866 17916
87078 8814 20754
39147 6588 31505
86953 7630 15849
68524 14777 8419
49333 9545 4324
13716 11560 6015
25274 4514 8692
22502 4514 8170
24667 4514 10028
24071 4514 12993
23149 4514 12834
24460 4514 11027
79542 13220 27332
39319 23472 28984
41796 21754 29174
77518 11924 28753
30911 11175 5005
22999 25568 17163
32771 7716 30836
8465 10968 32513
76765 6789 11198
17564 4065 991
47427 16975 4621
36218 6665 31782
12516 15190 22987
64259 15536 7896
85902 10723 20683
71050 15315 9565
3433 8310 9951
2307 5782 6468
24096 25976 20222
24001 843 2170
77052 14056 10888
682 5718 13711
28824 23149 30537
29571 21719 30818
28451 25220 30117
20582 21357 30208
21296 11641 32543
8954 11457 29617
35497 25137 29531
16719 11516 6705
65285 12890 13570
32024 10335 29561
19678 19957 26051
15949 10025 33411
50287 24383 17244
51933 21283 19723
51579 21950 19904
50801 23416 17796
51920 21307 21445
30491 22842 30573
30978 21670 30775
75211 7034 23412
26406 4735 1776
32622 8020 5694
44181 5701 30778
14689 15845 5066
42141 21780 4913
41582 22568 5054
40088 23408 5120
42278 22400 5078
18732 6782 31835
60419 18888 17457
19811 13154 2565
62517 18000 8113
27683 12818 5155
9286 13240 24496
50303 16280 4759
77358 18385 16894
50352 7103 29533
16569 12758 2589
21250 12765 2259
44492 7190 6469
44620 9086 6499
3444 5004 32937
80358 13029 26985
31485 9194 17833
79348 16076 20857
74975 15337 8139
40330 25650 28019
38826 19771 6674
45272 16315 30320
82466 15889 26010
82570 14946 12346
36540 27288 17191
21271 16993 31606
32706 8660 30247
14085 14617 3297
32828 27362 12752
42482 18125 29926
19231 11810 18859
33685 24185 4792
34163 27614 6822
77781 196 26247
53149 7080 5069
29262 27402 13792
52845 16490 5696
20052 20347 22436
17418 4515 6122
19568 4514 6337
17974 4515 5728
6409 4516 4949
77787 16518 11498
37713 7744 2390
25940 24555 29565
34975 25097 4749
78144 15492 25000
23496 19415 26738
62750 11530 26730
13889 15933 14669
68999 15463 8536
27020 6835 3383
26307 12983 521
31134 26668 10541
25342 14054 1846
29729 4516 4668
28626 21890 31627
40765 27379 9152
42104 27161 10855
41635 27237 10402
41725 27198 15525
40829 27363 10556
42239 27119 15091
40464 27407 13234
83252 11509 4842
44361 27138 28098
43511 27256 22979
44422 27096 20096
44191 27149 24016
25776 17653 2367
23296 25596 23442
24556 17076 31356
19923 19379 30646
18576 17270 9773
11481 11521 5391
51187 20233 14924
25232 15354 1986
17751 6569 3023
9475 4508 12843
15629 4508 16162
6087 4508 13253
10760 4508 12994
9879 4508 14526
3073 4508 13460
17739 4508 16085
7438 4508 10799
5315 4508 10313
8175 4508 11409
14575 4508 15402
13610 4508 14757
4983 4508 14699
5017 4508 12105
2805 4508 16449
5696 4508 15836
11143 12077 4764
5476 10533 10526
74146 12196 10113
77518 12460 10935
78768 11659 11240
68306 12989 8688
19811 11439 8930
21814 16075 3209
3531 6932 28384
15649 14103 29519
19030 18678 22007
88722 6229 29362
19118 2537 30728
37114 26561 29048
26072 18248 31027
48875 16472 10526
38841 18152 3788
7803 11293 3444
26859 11401 48
73296 2172 6129
41537 9634 31246
60513 17388 7271
26615 19032 30863
40001 27483 21617
41249 27285 21013
40955 27337 22175
40435 27404 19337
39742 27512 19180
41983 27158 18622
42108 27147 20398
74403 12218 29487
56267 19072 17409
26996 11216 9389
23668 23668 30060
10188 13859 14850
25881 14174 31991
44249 7426 17012
50181 6796 17012
42810 7812 17012
45080 7605 17012
21661 15690 3919
13830 13981 30431
25424 26522 10229
28312 27486 26332
57452 5596 17614
22124 25092 17138
17791 11672 21600
35919 10843 31651
74106 16067 13681
85549 11488 20827
24300 25136 21061
32144 8457 10361
34629 20252 30051
15284 13593 4748
7874 8905 21707
86159 7660 22977
3649 6671 19543
20396 18982 15377
25416 26548 25348
64331 9957 7751
65793 8245 8118
72954 9676 9906
80689 9269 11839
81290 9359 11989
69347 10064 9005
72506 8770 9795
77755 9084 11106
63752 8865 7608
87488 12087 13701
36198 26138 29237
76077 18330 19192
49638 25808 15128
79628 11037 7583
682 4869 17635
72619 6206 7899
70127 14457 24834
21798 4517 1516
27260 4517 1469
24785 4517 1887
32427 22823 3138
27454 27291 20064
21515 11062 1974
9148 8043 29520
5670 7850 15104
5751 7894 15859
36904 13152 2316
10885 11095 444
70530 5469 9769
7162 9223 5754
21009 22544 5346
70078 14594 21895
31548 16437 2174
30787 5289 24251
28208 5289 25851
25791 5289 23427
25875 5289 22851
30812 5289 25593
26313 5289 25129
22151 12270 6307
28007 27235 23585
6844 11645 19042
50621 5953 20655
50621 6965 18507
50621 8728 17075
50621 5417 20169
30235 27149 16607
28867 27479 5084
32852 18566 30653
67995 14832 26676
40637 12588 31356
34763 4508 3317
4239 8362 30149
18318 1805 3481
8711 12865 24916
35014 22080 30276
35282 23147 30004
83416 11346 21792
20091 18793 24898
14321 14339 30538
9005 11145 14705
7653 11145 17019
25114 11673 3413
47773 25722 5819
37412 28246 9347
37473 28244 8310
37024 28319 8088
41178 27656 6109
40524 27754 7191
39790 27867 8103
21118 22543 8413
22633 15532 32325
29098 10606 10560
19811 8761 28726
66721 13293 24116
21410 23609 28708
36957 28255 21543
21730 7368 23797
21806 2257 33004
30376 12977 30444
48167 26501 16118
49484 26294 13846
49838 26238 9748
21343 23479 26908
21790 7289 10537
84065 13423 26615
86189 7775 7930
38848 27285 5324
39564 26076 5129
20402 18069 31219
70146 14853 4864
36087 27942 24409
69160 14941 9035
19831 19983 21716
69702 15022 20152
18442 18193 27346
33250 26938 4667
61008 15577 27380
32544 6175 3163
79027 13312 19091
6903 12075 18728
28621 22051 2224
35054 27754 7844
9343 9506 21931
77691 15500 14388
17119 9916 3334
71875 18356 20226
60203 18797 21399
58016 18885 21444
89009 5366 8874
34178 22966 4169
86606 8460 22824
48625 26108 14522
49396 25987 12949
48114 26188 13246
63786 17684 8256
32774 27563 21410
25311 26235 19476
75737 15415 21691
26479 12876 33534
54443 18881 25533
39120 24819 28961
26820 19744 3342
69961 15583 7257
33798 15229 2201
41647 4560 31226
26407 2548 2071
29580 4508 30966
19226 19124 29377
22831 7629 1909
21945 5362 1948
73038 12401 24206
79778 12493 22563
79039 11951 22743
82228 15120 21650
258 5244 28076
35470 27936 13228
69333 13937 9961
21961 14449 31709
22833 24380 17303
79295 6773 27588
64970 11781 9387
57179 18297 6773
38962 6227 2518
39042 18745 3963
7806 11088 29970
34301 4934 2096
14544 15472 3952
20075 18517 19011
53901 11918 5274
13334 14285 30665
73645 1678 27630
61469 10492 15145
52609 16286 28434
74320 9260 23801
71964 9813 24390
82642 9221 21722
77470 9004 23014
72855 7350 24167
81310 9077 22055
68139 8942 25345
66766 8688 25688
25524 13555 1804
29579 16952 2441
34842 14808 2251
33380 24338 29258
31801 4658 11845
78703 13235 26426
46116 15288 4039
60904 10007 8696
17789 4508 7203
13337 4508 13606
8853 4508 8725
19524 4508 14441
17500 4508 11323
14689 4508 9634
18039 4508 14823
6926 4508 8609
10016 4508 7929
12353 4508 10955
11735 4508 7908
19475 4508 4422
12623 4508 8582
12797 4508 9835
6358 4508 9441
11347 4508 8488
12695 4508 6351
8712 4508 9609
14818 4508 7691
12261 4508 8066
8691 4508 10919
7400 4508 9640
7918 4508 6616
7086 4508 7507
19568 4508 10501
59568 18644 10357
57092 18810 10568
56642 18823 10181
27379 27237 7175
85955 12079 15418
45212 26970 14713
44947 27007 16281
47261 26653 12674
46514 26770 12777
46210 26816 13716
53610 12896 5507
29032 27437 23359
48436 17327 4924
26895 21009 2687
60542 9774 16088
61294 16872 26680
31814 8874 14009
65923 13562 25931
15941 3193 2661
26064 11412 13250
20901 7965 2420
27335 25965 4085
12694 10600 20925
12638 10584 17992
53874 8790 28794
53437 9009 28882
73380 15385 10165
86246 9490 10082
56941 18974 16192
66579 18740 16679
16611 7071 31517
40397 11130 31205
39461 10094 31328
39492 11824 31324
30168 13230 32133
22841 24683 13230
26491 4516 377
23388 4516 448
20982 7025 31872
36654 27395 6084
84942 17010 20216
48802 26409 7506
49752 26253 7981
49483 26297 7483
25844 26472 29789
63815 11033 28327
58934 4508 26875
19811 7959 27078
70529 18221 12642
71391 18176 12646
68207 18325 12220
33920 12122 31853
38908 15026 2615
29950 5289 31099
83390 13983 26285
63418 12952 7486
17468 12539 2349
76283 13047 28467
21528 23777 10333
6265 11200 11879
48245 6999 29967
19811 9058 23629
54530 15850 5392
87463 10992 21000
31707 9608 28228
20504 20985 5981
30988 24553 29512
21408 23520 30062
19811 9597 3183
24697 25835 4394
23876 2062 761
20396 20470 9428
74858 16230 15144
12633 14517 4474
33898 27532 10196
85212 8544 27561
81115 15987 14628
42417 25451 6244
47694 5029 29823
49923 21154 28131
67623 13601 21933
30595 5289 2148
24506 22857 29863
23673 5289 25149
16011 16801 21411
83440 16705 13240
70484 12140 9216
65766 12964 8066
72484 12233 9707
21150 20249 15272
88074 7810 20112
28872 27188 21628
37996 6727 5234
29865 5289 28684
18701 13469 31768
55613 15665 28630
38972 14158 2743
72458 15399 9933
52065 7882 4840
51287 6910 4691
26905 27195 28418
86106 16308 15333
66473 18152 23613
61495 18440 24758
74945 17646 21937
39600 12116 2568
20689 19658 10922
19827 18427 28868
30445 27204 22138
29389 22434 31346
54630 14074 5732
19154 19090 27665
15144 10882 31208
52211 4666 28919
32294 27327 22882
35683 27139 19456
44727 14802 3694
22975 24919 4041
34229 26886 15742
85360 15881 13255
47766 26248 23332
48580 26120 27014
47132 26358 27754
19573 19842 29177
73954 17042 10754
78087 15771 11471
23978 19172 2778
50195 26183 23100
50001 26213 26515
16791 16993 17503
42510 14175 2967
31957 27561 6262
21425 5289 28909
22381 5289 28762
24029 5289 30208
22236 5289 25792
15175 11238 6590
74595 16487 10864
21619 12464 794
21356 23116 8735
23141 24857 6751
35549 28014 25587
86228 14052 20475
87534 5401 15121
33234 7247 4694
71396 14626 20567
21998 21486 29998
23909 19159 23255
44994 26229 28380
41744 26977 28520
87439 8914 25678
54465 16778 28396
62253 16507 26494
66836 12822 20399
50411 17962 12317
7596 9003 634
79152 265 26164
682 5355 4842
45309 26160 22603
45920 26058 24071
47902 25727 20191
46739 25921 21130
46849 25903 24206
48909 25559 21859
44642 26272 24268
49537 25454 22906
48491 25629 25894
46421 26317 27924
56860 10215 5899
3440 8335 22879
34335 27760 12275
87229 5159 16223
23545 20395 3306
83769 18325 16903
25755 21010 3306
33509 27667 23335
3531 4514 14061
16234 4514 6947
11248 4514 11527
15952 4514 9691
5267 4514 8043
7988 4514 13572
3851 4514 16412
12639 4514 10488
15118 4514 8606
5296 4514 11307
4286 4514 10584
10732 4514 9570
11938 4514 7119
4232 4514 13985
18837 4514 7939
6740 4514 11433
3051 4514 10416
8843 4514 10195
25080 2228 30612
24802 12759 2017
86185 16046 13425
52494 17091 5729
12836 15363 11447
89097 5057 7943
38045 4509 14484
28112 4509 15208
53246 4510 16177
44607 4510 16394
28830 4508 14760
51003 4509 8313
34855 4509 15117
44261 4509 15299
43840 4509 10774
33232 4509 16732
35459 4509 13279
53704 4510 14610
41337 4509 12931
34314 4509 16652
41727 4509 15568
26578 4509 16965
42261 4509 13423
48607 4509 9042
45973 4510 16684
37299 4509 16571
46929 4509 12076
47553 4509 13370
37935 4509 12619
46742 4510 15651
32992 4509 15553
50998 4509 11150
41799 4509 11245
43219 4509 13560
42678 4509 14904
28044 4509 15715
47349 4509 12628
44599 4509 10646
48284 4509 13109
31511 4509 16532
70030 14194 8915
46620 15998 4258
22685 25486 16024
71619 14242 9564
81832 12699 12000
84300 13190 7067
21831 24632 10186
33909 27464 15763
8352 12703 18197
82849 15087 13218
15907 11370 17132
20256 5289 3262
4431 9650 17399
23578 13051 1871
54123 18970 23403
24562 26184 11267
682 5351 12737
65644 12176 23793
35948 26417 5146
34390 17294 31242
74448 12243 26195
24426 17544 2543
72898 18011 12666
52022 13707 29172
5504 10586 21085
25534 5691 32237
23795 15102 2029
81362 12605 6574
19811 5891 2674
51459 13289 4769
71427 15560 14089
27979 10966 18052
11043 13127 3618
78301 6064 5768
34792 10575 2141
31403 27518 26835
25049 15133 32082
34713 17430 2904
51956 21129 6094
58973 12384 6390
30740 5073 32790
84044 16009 10217
20915 22038 25146
3417 6517 12398
13621 11462 30739
24604 11646 17161
30832 5760 32143
49827 5290 10300
49947 5290 11226
86656 8720 16454
29761 26677 26611
16996 13536 31463
18161 13687 31687
20229 11102 31702
14128 12658 3267
25506 26406 24707
22606 23347 29598
21179 5715 32045
35846 27961 16836
23249 12137 33254
7945 4508 22843
19166 4508 17223
9692 4508 21985
11777 4508 20418
9011 13085 23500
84662 9789 19762
84575 13368 23225
84594 4241 6524
31216 9425 9364
87562 9016 19580
82403 17286 20512
58652 4508 23820
58877 4508 19779
58123 4508 17706
67703 4508 22831
58874 4508 22539
73030 4508 17447
62937 4508 23803
56086 4508 22027
59962 4508 19457
68999 4508 22421
60918 4508 18718
66558 4508 18393
57619 4508 20524
66703 4508 17488
72284 4508 21101
72714 4508 19115
56184 4508 19436
71468 4508 21554
60343 4508 21657
67264 4508 21023
72714 4508 20630
56886 4508 20736
66586 4508 23430
67271 4508 18218
60041 4508 19943
55252 4508 18746
66074 4508 21496
67731 4508 19600
60692 4508 25338
63545 4508 20952
58212 4508 23015
62893 4508 22849
53772 18879 25761
20018 5289 28155
36188 26822 28786
19811 10751 29352
7770 10169 4978
21851 24389 20816
33369 27445 11339
25024 25063 29855
18410 8079 17025
16825 10955 17025
17918 7080 17025
10879 5775 4035
49661 11980 22620
50062 11980 23694
26132 14067 1084
36045 25568 29082
31878 23091 3674
31703 26468 4386
31417 24251 3872
31832 21014 3504
30617 24485 4123
47307 15448 4338
3904 4508 7421
51302 19764 14666
19143 18851 11659
76085 16736 27603
31259 12054 22903
20374 19051 30768
15765 14937 30224
12989 15312 6280
43725 16439 30314
22327 25413 20008
80926 16525 13000
17389 11617 7965
85450 13790 7940
61589 18352 8449
17234 12301 27977
59406 7260 25133
86778 11172 25355
37301 15222 2718
41654 7655 2816
70298 18642 18566
2778 7628 20738
73423 15098 7883
24082 18995 27092
26029 9631 32223
75988 382 7275
50920 13855 4661
24731 4508 20486
25972 4508 27917
29090 4508 29387
24257 4508 19504
22593 4508 22505
27306 4508 21654
40776 4508 29007
31160 4508 26820
27739 4508 22193
27912 4508 29019
23573 4508 23640
29741 4508 24258
32895 4508 28349
27370 4508 20849
37487 4508 27751
37876 4508 28648
29622 4508 25850
26847 4508 28076
41410 4508 29483
40041 4508 29378
36269 4508 25347
31812 4508 27225
25440 4508 26607
42902 4508 29868
27509 4508 24805
35750 4508 28876
28156 4508 24609
31606 4508 23348
41012 12945 2728
69201 13904 19932
9421 10141 28091
9531 9388 57
78654 6391 6551
49155 8519 29764
68850 13745 13783
78495 18454 17822
65798 18763 18451
69425 18675 18288
35233 27767 9525
26528 4517 1058
15762 4517 1014
8625 4517 1061
77748 4616 21232
54063 4523 22100
40110 14971 31084
2210 6023 29060
31719 4508 2213
19959 14029 5009
73553 17820 21968
71265 17952 22314
78693 17533 20990
16120 16918 16518
17832 16613 3037
62052 12042 7148
38013 4508 23809
40878 4508 25612
52662 4508 28393
45592 4508 27289
43804 4508 25121
44568 4508 27195
48092 4508 28116
38685 4508 24587
32694 4508 21617
48680 4508 27931
45082 13265 30406
38851 19760 23682
61109 10705 7152
24895 20126 3522
76712 11292 23313
69703 11342 25031
65042 12308 26165
77295 11006 23172
70188 4964 4919
24560 26085 26626
46623 26752 20727
46312 26816 27205
47093 26676 20087
44781 27033 17414
45566 26925 23956
14841 5464 32327
13393 15614 24610
23141 19528 25188
17678 13772 33770
80546 11414 5306
83168 16186 12897
19948 20151 21215
6776 12328 16491
22841 19567 12927
15273 16622 17684
18673 17201 3114
68351 4862 9382
85204 12074 22638
39884 14086 28534
5964 5551 34030
61777 10800 28577
46914 22030 28522
47351 23592 28142
46401 21508 28684
62394 17094 7841
48029 7335 4034
47551 6453 3928
82431 15488 20398
19438 19161 14399
19811 8655 3441
44568 20036 4819
43858 19410 4564
21148 20172 17323
25143 25399 19510
32455 16424 31794
29176 27410 29405
57160 18948 20263
61043 18818 20058
26712 12810 1923
54002 11101 28758
64696 11608 26576
19811 6875 4333
758 5411 25874
5187 9457 6312
80234 630 5136
21571 6602 23626
42604 19145 4023
68083 18707 15954
56784 18982 15318
64794 18788 15432
85062 4635 15215
77067 16734 11661
64054 11194 12524
27610 7020 30575
19811 13007 28957
31137 27256 24169
39517 14275 2614
8958 11819 30002
38398 27215 16290
43966 26361 13558
39180 27095 15826
42405 26640 8791
40680 26869 14573
46373 25981 13864
41960 26659 15829
39154 27094 16580
39248 27100 13689
45444 26132 13087
40714 26895 10179
44411 26276 15580
83790 8594 5239
83198 15685 26682
17355 17027 29575
84085 10614 8505
26873 5289 17510
30661 5289 19192
23450 5289 18082
29510 5289 18388
29166 5290 17895
41934 25187 27904
22670 13481 32112
73238 6154 5324
81087 12820 23309
72258 14852 20255
26643 26787 13697
19800 13859 28923
70586 18408 13817
74831 18246 14180
57513 18901 12464
59912 18828 13315
78229 15496 19024
11027 4508 25664
12220 4508 24478
6718 4508 28720
48955 21854 28213
85535 17118 14045
46478 5903 30113
46531 7945 30100
46858 8773 30023
20378 19317 5975
83424 15108 24402
24030 19428 31810
31922 24224 4576
75734 16198 23109
73074 16693 23660
85613 11364 13140
20861 20579 6141
25801 4418 33199
34039 27775 26495
85431 4620 17559
39859 4508 9864
26662 4508 5162
21792 4508 8858
26392 4508 12850
21686 4508 10418
24324 4508 6248
22611 4508 5039
24657 4508 9303
29420 4508 13689
36511 4508 8256
34851 4508 10443
31149 4508 8523
24584 4508 14454
37507 4508 6194
42926 4508 7753
42308 4508 6695
25719 4508 9589
39301 4508 6899
52448 4508 5803
33499 4508 10726
21290 4508 11842
29197 4508 10345
31313 4508 10929
30469 4508 12417
25941 4508 7393
26957 4508 14459
35881 4508 6586
20624 4508 6674
29194 4508 12504
34656 4508 5675
41223 4508 9089
47504 4508 7106
31294 4508 6891
49020 4508 6293
33013 4508 12632
30008 4508 7548
29505 4508 6392
28786 4508 4453
40921 4508 6659
20871 4508 5082
22109 4508 3783
43931 4508 8452
22644 4508 15954
25514 4508 10875
27545 20890 30452
49618 22646 27936
4226 7927 2092
80019 15355 21133
24603 15759 31972
78392 16514 5512
20249 15166 1194
37088 4537 2604
67789 13282 23787
682 5770 14631
79792 2345 27314
21593 21604 6956
48901 26065 18816
48321 26156 22360
47452 26292 18328
65604 13783 8052
73543 18140 13269
52604 20046 27995
68281 4941 14741
62521 4975 16351
66246 4953 16532
61679 4979 16235
10877 14204 9421
13450 12902 30506
81381 10150 7289
25509 20290 2353
66847 13838 19837
42391 9150 2928
17745 13892 29118
31250 27186 16878
69615 15439 24824
83368 14365 11004
26090 8614 32084
24410 11129 32004
12651 11404 5859
19911 20346 4424
71909 5256 28462
9968 9731 22011
9429 9538 17433
56362 18986 13861
66476 18731 14926
32948 4508 3539
86820 5853 26349
76581 10823 7432
30353 4516 29263
21004 21902 13797
87167 5287 15486
59833 16904 7009
4887 10072 19422
66913 14064 25639
77893 5802 26210
32504 26732 12513
21175 11785 32045
28498 20465 2954
28767 18708 2596
28764 23019 3484
24652 24426 3828
85713 10290 19985
44829 26719 10400
44425 26770 15921
46063 26521 12332
46030 26518 15998
75100 15659 11613
19905 12111 31940
9757 9655 9853
10454 13940 25198
2698 5970 32159
27908 13595 1408
3663 4508 25368
65537 15685 26431
33507 16888 2659
71438 16028 6940
32351 5450 4411
49934 23607 6061
36685 5033 32315
32451 5327 27044
34351 15753 2520
14538 4516 29034
4877 4515 28008
5420 4515 28275
85899 9325 18395
26708 27038 10362
78448 7437 11496
32361 13552 32123
6726 10008 4485
62161 11004 19269
3823 8656 8996
73671 15142 20437
29984 19263 3209
27183 15589 2188
73756 6554 27922
28890 20093 30645
73702 10272 5224
11122 14102 5986
9377 13273 8500
35120 27052 20572
19811 11783 29665
38221 14540 5295
32903 26735 15534
49384 16290 4584
28864 26689 25884
343 5230 32126
343 5188 28793
343 4871 26018
23958 9270 31019
28149 10920 13011
73893 3561 26182
26601 2993 31015
8794 12986 15112
26030 16791 2171
86689 6458 17570
16734 16972 18515
19134 16554 31263
56618 19135 16655
2268 6928 9166
88758 4970 5811
37580 4508 2963
21990 5289 15881
24268 5289 12779
21370 5289 12168
25365 5289 11898
20185 5289 15390
20153 5289 12068
22215 5289 12727
38484 18021 30458
20954 17904 2729
19000 18505 17006
88142 5163 29381
47735 8943 17127
38995 8943 17029
4255 4522 986
26018 10328 33286
34876 4508 23858
45309 4508 28867
43258 4508 28390
46463 4508 29261
44977 4508 28068
42628 4508 27167
38106 4508 25573
32371 26717 21035
66617 12706 11201
65926 12340 9556
15402 16943 8926
77195 15490 25648
84449 10133 21686
81711 14907 27783
55508 14826 28077
71944 15127 12003
9226 11517 4506
40122 7758 31396
37997 7169 31633
38991 11971 31550
29508 26646 22737
27231 26314 25537
83546 5653 5299
24508 8904 1855
77799 6661 22015
32751 6921 6855
18288 16164 24868
37205 17234 30841
49424 22017 5961
49684 25746 24621
37985 14876 2733
59434 18531 8679
55952 18714 7259
19811 11422 29238
22225 23576 29986
18069 11359 784
25777 14767 1635
59593 14785 6648
61937 13929 7161
11436 10869 28073
68282 5218 24893
78435 4508 19311
70519 4508 22580
