ply
format ascii 1.0
element vertex 2843
property float x
property float y
property float z
end_header
24376 21133 2809
55746 11545 20618
27780 12122 36347
54008 14843 7603
5459 26363 6824
64774 10943 7261
49239 10218 14739
1565 10843 32534
2831 22890 18718
2909 22923 17139
28993 30562 7101
66362 6852 36322
65345 11116 32031
64387 4791 34576
31816 29137 6528
68610 0 5454
58122 17586 7607
13560 6886 33833
2503 7680 23195
3310 19986 25300
28776 15690 18002
62247 22773 17257
17009 22627 3871
53782 11740 3129
52747 11631 3137
43410 12664 2988
42937 12064 3049
43960 12369 3021
46835 12364 3034
63331 5964 32031
70900 6700 2385
23400 5760 35505
318 8970 19104
6537 21321 35064
7390 25570 33249
64993 3879 4807
20843 34090 10868
57780 12767 36080
43421 13991 36291
47575 13056 36180
45803 13953 36271
51120 12775 36129
56477 13756 36175
47035 9840 33626
83036 19141 19790
68883 2644 3259
78360 20804 27618
67405 8149 36857
55558 6991 35836
13300 2654 2774
63172 21981 33493
72372 18696 35472
50353 15542 34387
23361 14833 2628
82285 9537 33457
15716 4912 14877
15668 5321 11635
15218 6194 17479
1067 11115 8668
17356 2055 34056
24717 21557 32136
67402 165 4826
53368 22678 0
23760 11547 6255
905 8553 18816
79688 6280 30838
40596 15762 11112
84660 8820 11072
64622 8577 18959
64622 8344 18376
64622 6544 18515
84819 13203 14646
15612 15957 35650
14807 15632 33240
55162 19915 30616
41234 20671 34249
16824 4971 10823
82492 19665 19471
32929 31673 31492
43840 14261 4946
78119 20869 26965
78593 20993 21488
77821 21028 23982
79137 20841 23185
64936 15673 2269
29023 16791 6697
20729 13573 33002
38802 21000 6944
41984 9074 18145
41984 9456 19879
62483 21248 28523
16496 5189 24156
26510 19800 13223
26629 19614 23555
9889 32615 15014
20256 12250 32031
59816 11952 36514
6046 13197 3898
6051 21657 4207
19176 6255 36180
389 13401 23942
27516 33039 28251
12132 8377 10091
13299 9634 10091
23541 12960 10091
17974 10202 10091
20396 15609 10091
23031 11610 10091
18726 11149 10091
17918 11649 10091
67099 17647 36712
80203 20652 15623
78068 20931 13647
80830 20544 15496
80179 20633 15001
15259 814 32782
27865 33331 10457
84830 8871 24209
9383 7079 31514
71473 10371 3291
75342 21164 9516
70487 17676 36527
53753 9540 26359
44009 7909 4122
44682 8561 3863
42816 8064 4061
42600 7516 4279
54134 21649 3951
51979 21191 3611
23910 21809 35698
78375 7259 35152
22316 3129 36875
48398 13329 5492
25682 21137 10698
28741 32189 9358
40062 18248 26862
69961 9109 36918
19270 13878 5458
27907 17624 28082
4026 23662 32106
63461 11269 33104
35758 14553 7619
81418 5484 19392
79701 5965 22861
78718 6240 19040
80580 5719 18039
78417 6324 16720
80038 5870 20674
80721 5679 19002
79861 5920 16880
26910 6872 4013
21481 18877 2755
54356 28150 16387
50361 31130 18220
51141 30631 18884
50895 30602 16383
55866 27110 16745
49986 31083 14376
53292 29076 18499
53731 28737 18158
70837 17147 36704
56878 19476 3346
45911 19967 3244
50047 20034 3314
52664 19662 3307
54450 17918 3112
74442 17518 3594
17266 32737 25020
11315 32429 27802
12944 32637 25391
10812 32555 26015
12269 32511 26914
41918 19694 3125
56473 6610 35871
50645 5901 35504
48846 5951 35505
53345 6742 35891
55750 6513 35822
46551 13504 11388
75151 13059 6096
75433 12705 6894
61977 12198 34230
61756 12015 34826
39617 18837 14088
3308 13114 34784
6674 7810 5133
25953 11306 6902
26497 8891 8801
26206 10043 8801
26850 7411 9356
3477 24697 17585
73769 5836 33693
42848 7139 3343
34953 7235 4179
52956 7021 3166
40178 7168 3243
7441 18879 3716
49986 29868 31459
36515 22381 35295
82733 13849 32023
63305 21277 34887
9119 5760 13392
9533 5687 21928
8811 5815 22326
11719 5299 16571
13697 4947 16630
12055 5239 18500
8632 5847 25810
8739 5828 15210
69686 2390 36473
34431 11028 3228
31629 11479 3133
30657 10780 3311
60306 6560 14737
52808 6648 10271
35483 6849 13815
50845 6671 22134
54406 6630 21212
51053 6667 23480
43402 6757 15157
44505 6745 12508
51693 6660 15726
38890 6810 11382
58989 6575 19794
31268 6898 12404
58372 6584 27616
44192 6748 18443
43603 6755 14383
48878 6694 19929
59016 6575 21202
56472 6606 14090
47826 6706 19140
49128 6690 20782
49651 6685 17320
48357 6700 21824
46137 6725 14149
59088 6575 21718
59876 6566 13859
54643 6627 23848
56052 6610 11643
48091 6703 12539
60189 6562 11473
51591 6662 11439
30011 6913 10408
57765 6591 17770
47309 6712 13098
36138 6842 13919
56354 6607 24691
48331 6700 16833
50872 6671 13834
51466 6664 10095
55876 6613 10893
55715 6614 19153
57166 6598 18143
56993 6599 24751
46585 6720 19820
50236 6678 11075
50352 6677 22357
42904 6763 11524
45707 6731 13159
49121 6690 17841
40405 6792 10261
52307 6654 21052
41885 6775 11648
55497 6617 18489
41173 6782 16353
54791 6625 12308
30080 6912 11171
59497 6571 15077
56994 6599 17353
47035 6715 15763
54718 6625 11450
48950 6692 13275
36757 6835 11827
44967 6739 11739
56623 6604 11481
77200 15144 7366
8867 7203 34451
910 13404 27033
78406 7112 4187
16058 5296 21912
71344 920 7167
3109 24318 18129
21766 5714 2358
69113 17909 2585
49297 12944 2991
57070 13312 3016
58614 13120 3044
43910 14006 2859
47457 13872 2897
45960 13723 2899
54658 19719 27435
75808 7843 32955
38488 32032 28631
36277 29107 6571
47280 14133 4979
33264 32707 23733
30845 32743 24243
27634 32821 23684
30078 32804 22344
33557 32720 22919
32013 32716 24405
27987 9515 36050
12693 4561 7261
76366 15136 3248
24850 17195 10053
43239 12265 24064
28682 20906 35885
40120 24624 10171
3843 24576 26740
3920 24535 27722
36957 14539 18623
58655 20321 13324
62986 3324 36420
15961 4340 27666
82790 10545 6694
30986 29842 32353
31971 30209 32205
24864 28694 32808
32145 29513 32492
61206 12424 36718
41078 14846 8129
12947 5080 22434
10637 5490 23722
12803 5106 21007
13821 4925 21077
61116 23266 26194
9710 31577 8221
24090 24175 25371
52231 15376 28738
2707 14989 27265
3093 13566 28850
3205 9689 34208
6692 29483 9280
5555 27969 11568
5109 27298 11991
76424 11091 3164
75888 12181 5141
26891 14378 32638
11621 6460 6847
37969 9306 3646
33684 9827 3531
16855 12305 32031
48537 10123 33606
52608 15400 30994
72278 20105 34480
13548 9801 32031
24571 13455 5189
49032 30164 7296
81830 20168 16104
64622 8136 21753
22735 21867 21186
68511 7537 2930
19931 6902 36817
37950 25933 12477
3472 13125 4333
12557 32760 21272
11915 32774 20316
17800 32754 24886
11501 32726 21910
17620 32774 24008
16520 32777 23177
10507 32710 21895
18900 32805 23613
69334 13615 32187
61056 10533 34683
61405 11370 34323
10010 32328 10535
32073 6935 35745
28612 6423 35482
43219 6627 35730
38046 6949 35816
28309 6957 35713
34110 12581 36148
36431 12103 36107
31891 13071 36190
22590 21193 3343
37813 32485 29171
71564 5368 36502
7825 18597 35490
9287 18104 35655
54895 23557 2204
80446 5738 23393
80786 5649 22235
79728 5869 28343
51095 14932 31749
1533 13207 6297
77747 6753 8316
27740 16223 36327
29122 16522 36332
33941 15420 36338
23771 21521 31814
48369 15258 15222
6878 25510 33235
77263 18751 31406
2971 10471 34312
26386 12441 31840
4249 25682 25840
3538 24301 22910
3411 23713 26021
13702 31900 30554
22722 32668 26581
21006 32641 26764
11660 32327 29222
15858 32434 28422
23341 32520 27926
61986 6264 6684
27208 18229 23155
27424 18059 20804
19464 12998 7261
29414 32819 22277
27530 32899 20674
31671 32792 21512
34917 32773 19586
33501 32775 20664
26673 32906 21104
31744 32813 20629
75518 7089 36645
54571 5521 4231
56051 5518 3956
51181 5572 4029
38570 22174 9628
61387 23634 18886
66606 13511 3986
19819 32205 9614
23632 32263 9105
55889 14990 36180
44614 14794 36287
55308 15418 36179
58653 15876 36141
51636 14689 36224
11502 31576 31037
58582 15350 2998
54851 14898 2957
56439 15828 2986
50447 15142 2919
48286 14307 2888
51102 15064 2925
77633 17943 6478
35495 33718 10993
60567 21039 18752
7583 8476 4362
77749 15663 33845
12313 13425 8654
12691 13913 8468
12899 14094 9911
11717 12672 8664
58191 17286 9180
11726 15917 2602
18975 8565 4224
41903 12498 32118
12798 6598 7261
9675 9315 35954
11266 24778 5466
7859 25372 5837
9952 24240 5342
15292 24070 5025
80088 6488 31343
48822 31472 15422
43740 18548 4601
27280 10652 24893
27280 10811 26330
21864 3898 2997
62316 4735 32775
75417 4475 32848
29198 14199 10598
28689 23139 4288
62041 5739 35174
2800 17411 15388
32929 14311 6635
62151 21912 4596
66385 20937 4411
23491 7616 4609
35523 33071 28984
74885 16472 3214
74525 6999 10084
76033 8131 10084
69165 6705 10084
67876 6604 10084
75966 11534 10084
72698 8195 10084
68546 7997 10084
67557 8775 10084
75257 7462 10084
71155 7901 10084
15854 17829 2377
84222 8095 13275
64061 14748 4704
63938 14665 7143
53869 14449 26424
24016 2616 35241
43086 19372 29365
24777 17183 27350
24805 17106 24175
24946 16714 22709
44936 17871 25150
16398 6220 15207
16024 6921 18081
2603 17165 26430
62168 22634 7449
62363 7902 7108
58122 17679 24129
17831 11285 3105
75459 17462 3976
67775 12503 2530
19615 33492 27995
71725 2588 2448
21416 31796 7842
15139 6810 20609
15124 6043 20424
6078 10379 4269
46027 31351 29627
84882 8392 16576
71793 11309 36896
36329 20834 3249
24965 19311 2990
33161 20424 3178
25719 17894 2873
22698 23868 13241
19579 6606 36274
72913 16372 36620
6899 30884 15715
73555 16410 36549
11357 16454 36228
39285 19665 26175
22092 6067 36928
75302 4125 6799
85282 11073 17968
79965 12326 4424
72790 3179 32031
42376 12228 10482
12011 4614 33174
79323 16445 30580
72390 3397 4943
19493 1640 32031
62725 6320 36718
29258 13359 10937
28428 32274 9967
83020 18673 24925
15689 4765 27523
37940 23738 12873
25296 14828 8251
66155 21486 5042
53642 18598 28037
20920 2095 32031
14001 6843 36406
20017 21925 35657
15146 5005 36343
81816 6737 11183
39892 18461 13526
25884 17682 6051
79257 5813 7478
70776 924 32031
43919 13539 15184
13242 14815 35419
43794 14287 23823
81757 7184 7981
20118 22660 3866
43865 19194 25415
19953 25920 5316
19826 23956 4613
77200 15626 33653
29190 13046 19836
18904 0 6889
73057 9709 34035
23004 22497 17859
53737 11504 18641
38466 26981 26380
49370 15141 25137
12908 14312 6261
12329 13728 3651
74517 2790 34452
4929 7926 8636
3886 8149 7566
72760 3807 34945
13329 32338 29281
2629 17194 21891
79655 15273 8842
49734 12003 24329
31862 33810 28144
40309 16975 31296
60914 9947 30410
58122 19320 12979
12428 17598 2962
77200 18379 30949
41202 19883 34314
32629 13104 32645
62023 22576 31689
29765 8269 3973
2542 15539 32685
7450 31430 25768
78067 14731 10666
14274 19015 3203
79885 6508 7274
48930 13409 5514
10212 11664 36365
79147 19439 6724
25139 22003 10508
58436 20892 21905
41470 21586 15293
8316 10677 3410
40911 14678 24700
7276 25094 5711
17489 21038 35772
46795 13333 26985
17963 12742 32031
6338 7505 25393
3445 6861 23813
26385 19160 36156
25849 17985 36266
28034 19684 36092
27123 19259 31048
12949 15126 2300
12948 11080 35841
27958 10192 32400
45479 17734 14200
42100 23201 34737
53455 24551 34088
52042 24863 34005
53441 25256 33848
47269 23466 34561
6699 7578 14169
14257 4314 5329
42589 11875 12226
21017 17040 2236
74503 7841 32031
34774 19411 3118
37605 18504 3094
38196 15128 2854
34699 20092 3168
35619 18765 3083
37775 15993 2911
36765 16072 2901
37578 15522 2873
38459 15765 2905
68879 5884 3041
78926 5805 30800
22845 25806 11915
7767 27516 6599
53132 10725 25058
1880 8636 8540
68720 21945 31057
37663 11272 35997
34181 11333 35993
32751 10174 35699
44048 19975 14958
82155 19330 27396
84095 14573 22537
75606 8821 32772
81468 14924 6893
59578 22832 33904
76676 18226 34883
22527 22975 21079
82930 11395 6964
43504 18612 30820
61436 12785 2400
62347 22946 15638
27080 11542 26349
27198 11383 15017
40824 23705 11860
67102 22485 17552
64826 22681 14478
68511 22366 19560
19557 640 7261
84449 8213 25428
82711 17553 10781
68032 22408 20199
65271 22731 20107
67326 22466 21288
10117 15760 3139
81892 20121 22793
47225 22130 3997
48796 22186 4083
488 9277 17975
64505 15606 36876
62254 19264 35815
67984 22314 23660
67521 22173 30775
65917 22345 31192
65445 22492 27755
65013 22450 31121
66650 22404 25939
68867 22299 20531
67592 22257 27411
21030 13149 32172
24004 11175 32324
40531 31738 9660
79253 10565 35066
76912 16547 35115
18605 1988 4445
59621 7844 36156
38910 25592 28118
51624 15143 31609
2606 13747 18231
2604 14839 13326
23128 2912 2563
61655 23462 23805
42479 19905 29990
68046 12758 36745
24608 5602 36722
60933 10215 2973
15963 5783 36932
66792 11560 5259
39290 25959 27158
82765 10668 7988
36151 7802 4185
64202 5361 4968
46133 13673 6874
64219 22717 21699
37478 13334 36241
38624 12178 36125
36960 13772 36285
37427 26909 31144
51375 11125 33699
73687 12011 6757
71955 1749 32031
64769 22595 12089
65372 22586 13931
73545 9656 32031
66056 2787 5041
36591 22494 3924
20379 6780 4684
56537 18315 29031
63877 21547 7389
12184 4094 6528
22195 18465 2652
25029 15464 27577
25054 15396 18468
24647 24417 27781
44609 15360 29379
39832 19969 24082
57248 24394 33267
10155 8710 7860
10833 11184 9483
10067 8152 9784
77251 18319 7626
27415 18085 5944
54786 21081 31520
58661 16798 15999
63341 13753 21613
29786 12794 10463
51600 15098 25920
17057 6700 2733
19797 23286 34855
69963 9281 2370
63262 5330 2546
63778 2259 33443
35921 22982 34914
42488 19739 26384
49630 14494 32094
62030 21263 32913
14315 6016 3198
1761 14536 33598
39296 24076 4706
71057 11708 36855
47595 31808 22611
82873 18826 17019
83142 10015 8187
12980 3679 7256
27733 27787 33151
27588 26542 33577
23627 25190 34114
24360 27056 33466
28125 26688 33517
50265 14876 28157
58832 16673 14823
35301 14325 28536
68641 11979 5713
60808 11453 2528
4676 7857 25937
1544 8428 25303
2583 8167 22623
3427 8044 24041
26198 12881 36572
35985 33864 10629
14933 31050 7598
58122 17470 14682
15808 2744 4223
2697 8492 6168
39798 28497 28853
2664 14221 24705
23076 7383 36348
60011 12466 2600
52523 11479 17759
22495 12665 32533
39542 19439 6486
5448 25662 33082
26402 13071 2558
84430 9462 28186
65426 11947 7261
59555 17384 19743
59022 17384 21378
58504 17384 19004
38099 28867 32631
28240 11961 32413
42000 22992 32476
48197 13798 7331
82359 9212 5719
81528 6905 30518
31771 13221 17311
32134 13397 23508
47976 13300 24354
47765 31533 12877
40370 23121 14948
71078 16010 2394
84459 13718 17842
1488 13479 21132
775 13433 21282
66818 21735 32169
64794 21910 32834
56593 8060 4016
55099 8117 4008
55763 7692 4136
6124 15875 35406
29372 5805 34631
27673 5824 34587
50096 11625 17961
1488 12565 32574
42279 21399 5025
39317 20112 6691
2610 15394 33574
17161 5778 2919
32032 12518 6726
66599 12570 36728
4888 16857 4266
1703 13211 33426
8656 15640 3491
40278 24653 25064
73338 5222 36886
35869 32374 12033
35127 32565 13557
35819 32575 13769
22149 28362 32938
19903 25655 33926
2448 8203 19877
2244 7054 17510
3239 14577 7886
3324 13628 7899
58944 21121 24200
10364 21060 3732
13279 20931 3564
12472 18916 3277
75456 4820 2835
83738 14509 19826
44829 15331 10172
23205 20855 31660
70043 1359 7261
8311 32122 27770
41022 17426 5057
64480 9224 34729
75499 13322 2713
59182 16478 15561
83042 14521 29186
14844 30135 31899
58296 17152 21117
52704 6642 5234
56846 6592 5237
45012 6734 5638
51860 6652 5429
57331 6590 6644
49431 6684 6924
37037 6829 5506
44658 6740 6874
59708 6559 5520
44137 6747 6567
45541 6732 7697
43771 6750 5951
53342 6635 5855
37552 6823 5470
55180 6617 8204
56404 6604 8085
43566 6754 7068
23847 4910 7261
53838 23875 34312
64333 17384 21761
53209 10231 32800
82552 10653 30723
25117 17725 36322
27877 17522 30667
26880 31068 7312
42536 32296 21394
43855 32161 22991
41999 32338 21158
45679 32014 23955
41579 32387 20469
16623 30942 31644
59553 22747 6124
15977 20042 3298
37943 13536 24098
31895 13238 29351
78577 15557 7259
21667 18215 36635
78971 13082 4164
21468 16586 36901
72719 1125 6597
45764 14798 13831
75854 12244 32091
73485 13694 29757
75909 11929 29126
73971 13468 31015
73781 13829 33450
65897 10910 35841
78550 18771 9682
61412 23402 23248
48395 31648 16506
44785 12980 26405
68235 8570 4665
5012 27884 19711
6901 31198 20615
18536 33900 26132
18625 33900 27448
19405 33900 26587
19283 7211 3018
75147 13093 35836
72940 14713 33703
18876 17351 36933
39288 21428 14736
11158 23056 34726
78082 18018 33373
15825 9134 5197
23283 6667 36614
58122 19125 23607
40662 21946 5043
65416 5478 36925
26900 32125 30718
58312 19867 10153
81204 6472 11124
44766 15212 4811
43222 21076 33243
6932 20310 35241
44275 17888 6827
14259 9860 2438
37313 26224 30748
41725 22325 8423
24679 24462 19708
2973 8127 15213
5633 7666 13664
1317 8444 14928
4677 7818 14791
64791 9210 36628
23517 32529 10766
28292 21047 3291
78798 16610 6109
25380 8457 6718
26521 12397 2644
24431 27468 5836
27742 29246 6559
29992 29321 6583
81650 14132 33409
68718 15693 31854
68132 15348 29611
65326 15238 31908
64882 14856 29186
66014 15363 32178
67629 15326 30006
22920 21312 27438
54726 22090 36948
16912 16524 36932
83375 7318 18457
82658 6818 19390
33100 33412 28847
34125 33881 28622
28395 16577 9070
18072 13302 32031
26694 21362 35936
2395 15131 17792
2355 15922 15352
24405 30771 7171
15071 7891 5142
3169 19233 14208
3144 19408 17339
2861 16406 9334
48659 29219 32455
3331 20590 20025
2960 18504 20905
43816 20294 25011
37906 25011 30361
29708 7290 35862
30700 7285 34953
43856 7128 35703
49966 7057 35797
5981 29415 16738
29286 13771 6256
3456 20507 6626
12115 13379 34134
16003 3943 8338
68019 9183 36777
40549 15466 30455
44433 5943 3697
50916 6506 3385
39696 6004 3726
41336 5795 3794
35259 6097 3736
61137 19576 3360
63996 19527 3489
73022 5804 2368
63897 6815 33259
78856 20015 8936
82473 12924 32693
66777 3038 3061
54074 18585 28875
48414 6204 4890
46993 6547 4984
44731 6324 4911
54736 6557 5018
79005 9447 35296
56118 21360 3854
73033 5923 36926
45049 32152 18130
44543 32173 17815
36995 32693 19238
42051 32377 19275
43968 32206 17721
62418 6963 32098
21660 10849 5264
5818 11535 4119
25888 13299 14614
25859 13352 24449
5667 7345 14120
23004 6182 2376
26834 8092 33411
52452 15365 25860
62999 13923 2891
62681 13432 3954
3414 23631 12541
4848 26882 12508
3757 24151 11365
61984 11641 29658
63126 13394 29610
63262 13835 31880
62172 12321 33465
62543 13028 34796
51533 15512 6452
69654 11878 4544
60517 6825 30587
60626 7673 29429
69479 1638 2398
79767 17373 7909
59508 20997 3807
31827 7285 34721
33105 8112 35064
61096 8975 29064
72770 11265 29064
62269 8510 29064
63769 9453 29064
64576 9317 29064
41479 14510 33817
69544 1988 35090
27566 18996 7405
24417 10698 34177
18844 29572 32278
19262 29130 32499
16397 28655 32527
17050 28775 32515
1350 9052 28718
42648 10709 7292
30818 8907 35365
33823 8846 35360
44645 14484 26926
41059 14953 12744
5356 13900 3943
64816 14902 8991
66207 15164 7843
64655 15082 5804
66236 15291 5905
65165 15097 6661
26595 19882 8796
72668 20820 6922
76017 20248 6774
76639 20381 8201
24422 32918 16685
29920 32817 17033
29055 32837 17129
27795 32799 14625
25079 32845 14296
29466 32799 15968
25984 32928 18298
2900 17968 23054
3004 18638 21924
3811 24733 13956
4549 26465 14104
71737 15221 7974
71062 15446 9440
73169 14071 8809
72900 14585 6911
74673 13126 8141
58596 21393 3944
42688 22497 35051
42534 21840 35495
1916 14169 7449
25789 34042 10820
70420 21711 30752
2344 13529 16067
1603 13488 18574
26944 19124 25164
16847 10124 36922
69727 3026 3163
260 11457 25071
209 10160 22846
72064 19149 35240
80702 18573 8404
26026 20565 23046
25669 21128 16615
25988 20624 21936
25508 21383 17496
39107 25581 11003
29615 12783 27663
43772 20171 24281
10880 11335 29370
10206 9133 33313
10381 10000 34950
21728 13128 4226
77200 15926 5109
16803 13660 34081
79971 17063 31366
76303 11234 8524
76772 9930 7723
76633 10378 6953
76486 10761 7649
67292 6237 4546
73355 4559 3405
9416 32123 29571
40339 16656 10834
84365 13690 19808
27661 20942 36124
27360 32125 8568
36136 14641 7249
53844 12203 27065
13602 5099 23533
12712 5467 24076
53895 27149 7521
20090 16048 32193
21438 15876 35960
38913 22467 5679
15653 10569 2379
11164 12076 33076
45499 6727 31945
31513 6894 33895
33022 6876 33667
41600 6774 32470
31208 6898 32356
38898 6806 32816
29419 6919 29681
37840 6819 32045
46974 6710 32710
31063 6899 30515
54182 6624 33560
43697 6749 32803
40405 6788 33874
35655 6845 34101
30157 6910 32301
45165 6731 33062
82969 15324 15710
82953 14619 12644
83074 15711 19245
63748 21884 5566
76075 13913 36382
68276 672 32031
29953 11680 31953
26485 17686 32862
63280 22341 6766
25265 14707 29087
54272 17886 24587
18414 33598 19489
80889 11697 4959
43101 13598 17389
26489 12372 26048
26159 12854 27306
48755 13465 33586
59186 24032 10351
61136 22974 11951
59458 24007 11221
60263 23230 10095
59488 23481 8572
62289 22422 13287
55112 26753 9684
51988 28759 8747
54992 26549 8174
18823 5319 2618
50247 15599 24782
53775 18295 26406
17664 16082 4911
17744 15802 6486
20183 7479 4243
67392 6760 2450
15573 2852 33335
43215 20854 6539
77907 20482 9538
25061 16430 28482
46693 31818 25254
85173 11722 23803
17334 16358 36696
18830 16099 32801
51788 14963 15503
9408 22203 3976
18185 8750 36193
82517 15634 10912
81778 18373 10253
461 9932 19147
15648 6527 16461
83126 8276 6811
37632 25599 8371
38309 27459 7688
18607 12027 34681
62736 3737 4311
5268 8009 33740
18925 18735 2589
2948 21542 10676
81035 6147 25663
20774 19404 36236
38537 21765 12812
42061 31670 29859
38216 22836 7251
61218 13207 17584
63597 14436 34208
63809 14579 31627
8852 12833 35931
4243 24625 8726
4098 24646 10144
26976 32471 27894
32032 32361 27927
33065 32380 27577
35659 32452 26477
29775 12858 31431
13720 15142 2643
68486 20268 4156
40033 17929 14697
17653 28893 6589
12491 29309 7003
16963 28040 6256
15585 29446 6921
38825 25930 26546
9286 23306 4746
13920 12146 34669
71603 6757 2735
79360 14805 29686
6684 30426 12424
18397 5154 4543
2973 20700 24348
54912 19121 28371
54628 11522 20418
48568 31114 28093
43174 12026 5231
3342 18072 31640
37894 28646 9026
68952 6329 33830
70540 6327 36580
16310 6609 17263
16244 6442 18105
13748 5697 3438
14455 10352 29057
10950 9267 29057
15171 10120 29057
12017 7909 29057
12163 11434 29057
21161 11449 29057
13299 8357 29057
25560 13969 28217
55564 22586 25861
1535 12213 6475
61685 6552 15698
70763 6502 25853
74135 6483 25047
61755 6552 27322
69644 6508 29062
68805 6513 23438
66056 6528 17577
73482 6487 25353
72803 6490 24714
62843 6546 13541
61397 6554 12738
65820 6529 16473
66187 6527 25811
72800 6490 26482
60842 6557 26237
61748 6552 12283
67115 6522 28625
60655 6558 25597
66699 6524 23488
67803 6517 22300
62102 6550 13974
64015 6539 16719
67106 6522 25024
63805 6541 18107
64817 6535 20652
61485 6553 11228
66407 6525 18557
62387 6548 25567
70505 6503 25202
64622 14596 21196
2761 22042 13629
9560 8604 35801
27405 12300 32374
77820 15383 31018
45795 15062 5175
26032 17054 2784
81160 19110 29459
46675 31938 22564
14994 10504 33802
8238 13028 3543
72536 15088 33921
71788 15283 31800
42520 13555 23998
17513 21269 3411
26760 13572 32452
37160 14441 8238
42607 13331 36234
40977 12054 36106
47274 12482 36125
7351 27878 32369
3511 24513 20224
4001 25711 19870
40719 23597 26785
38196 24901 10844
54822 22655 4057
4667 14320 35122
10321 22326 35194
76628 10112 32550
77597 7405 29204
77287 8294 29435
77010 8976 33970
20599 23920 34564
84282 9954 16450
41570 22164 29624
78241 18759 30288
39644 25140 26241
27068 15336 6038
27031 32506 11575
29218 32597 12776
32880 32668 14061
24719 32745 13291
60863 15980 36359
22241 23581 19287
45654 13914 14287
2841 22339 25146
288 10262 14774
238 10241 15698
3323 22161 9341
85104 13022 17344
24073 6868 32031
81368 6399 25141
81429 6355 23718
3444 18542 32163
82854 11507 32188
37797 10697 25003
37797 12091 25830
37797 9895 18501
37797 9571 11907
37797 9774 13130
33587 32670 24941
31216 32621 25798
30515 32680 25400
25924 32655 26448
34330 32609 25346
83051 18051 20594
42246 22921 6138
3061 22140 27984
62024 7551 32350
62610 22698 30735
62523 22641 30200
70016 21067 5726
69097 21331 6428
60478 7949 4940
60610 7790 9259
53321 11005 6177
25969 15358 6334
6750 7634 31426
14560 21182 35607
13103 21632 35460
12244 19657 35739
13738 17744 36454
30547 12897 25159
29875 12819 18930
41096 15227 14765
14686 11339 32031
22879 11649 36706
22328 11421 7261
25802 11681 3364
6045 20234 35153
30762 15986 2815
30216 14700 2823
28599 16507 2817
38567 24503 32567
24927 22270 27629
85301 10956 20557
62093 5429 36414
502 9480 22828
8756 32556 18842
65738 9933 36298
62025 11675 21601
60283 11639 18268
40231 17675 5379
60533 8446 35154
58369 8929 3485
62742 22287 32648
70880 3154 3317
45972 10904 24488
61514 22290 6189
54896 20389 28721
24192 23610 21783
40067 18327 30987
42508 11081 26645
69281 21049 34137
33710 29688 32402
20109 27154 5756
74540 19559 4651
76298 18830 4428
35351 26345 5523
28161 24269 4749
26005 24370 4791
35806 23346 4385
33396 28434 6319
34393 25160 5075
24628 23795 4574
32354 26892 5736
33565 23643 4501
34903 23168 4319
44435 19678 36338
51903 24016 38901
12226 13322 30631
11183 11920 29120
12167 13192 29654
15120 18837 36165
63375 8228 7261
75688 7500 32288
26281 10441 34762
25917 11400 31763
31019 33357 28209
32190 33349 28464
36106 33358 10992
45920 13468 9676
1170 8134 18489
27110 32188 30198
23517 2062 5558
15846 15892 33645
17464 16121 34194
17496 16204 34911
17115 15894 32468
16409 16153 35473
9617 7019 9263
8265 7366 6114
50545 30684 14270
58781 24983 14751
55991 26975 15807
53335 28739 14147
59170 24864 17843
61482 23171 16087
62684 22398 17358
57408 25949 14999
39382 25112 7036
37139 26034 33734
37832 26262 33648
5276 22967 4816
45939 13476 10336
45420 16436 13798
11823 5192 4032
78582 20239 29620
77429 17737 5966
15688 11008 3843
48426 15463 23990
41967 13038 13825
56357 10687 35831
53500 9278 35482
49475 10959 35910
56190 9106 35434
55130 9133 35443
22675 28936 6435
81637 7114 31147
45542 13967 6696
69366 22103 13612
72056 21760 13184
71140 21851 12370
73915 21678 18608
74073 21636 17762
69832 22007 12173
76350 21393 19150
74548 21565 17310
72848 21823 19080
7835 31761 26128
59048 13155 36213
21677 2987 5509
23706 19305 31898
84185 13440 28189
65777 13142 35218
52269 10584 17993
5682 28872 16662
5393 28512 18625
23643 5990 2382
69991 1999 3631
71405 2629 34925
62552 4902 32222
24519 13158 7708
23374 13710 9478
23207 14202 7244
23377 14673 3636
24665 13154 7083
23433 13585 9974
65229 6074 2368
83246 18766 16358
39445 20782 24207
53003 24776 838
8109 18787 3641
69306 12673 32031
68418 8701 36489
74167 20692 31540
75551 20374 32085
75292 20205 33376
67912 2646 3099
44622 12916 24136
22518 29705 32399
84830 11511 27178
2877 19724 27514
11699 14962 36716
9622 22423 35130
58715 12376 36104
61838 21632 31299
25484 7648 5093
1074 11692 30639
960 10171 29606
61861 21127 35092
59915 21096 35252
48072 31840 18607
24081 19021 9045
70693 15678 30615
6849 7560 30312
7546 7416 29811
3148 22903 27110
80580 8890 4888
84059 10217 24522
39269 32453 15623
42216 32231 14717
39058 32435 14266
41252 32304 15020
39865 32387 14542
82828 16779 27821
83071 7355 25721
82505 6985 25290
44756 19671 2968
58122 17784 8253
39276 26000 5445
13551 11342 7122
2570 8888 18041
2475 8347 17639
45719 26034 5449
47370 25525 5298
44004 25025 5071
49225 26165 5548
47387 13435 21652
12350 10072 33323
40307 16878 28173
69875 19107 3451
58116 11002 22919
46242 13598 18409
46294 13598 19447
7198 30706 11393
6143 29334 13651
19296 30371 7144
1530 9579 19034
56189 11554 18460
62746 21763 26169
11703 5684 33684
84073 10468 30594
50360 30608 12997
49921 30204 8768
58194 25079 12251
52467 28745 10545
51096 30146 13272
57600 25394 11683
54977 27392 12812
50879 29971 11327
51255 29598 10647
50783 29943 10766
3550 20247 5531
40098 17283 25503
25287 16043 32341
29064 13441 8466
82610 11340 8311
30653 12420 32125
17685 8023 2894
64190 9694 7261
7694 30253 8020
38088 32303 26643
37371 32320 26914
36424 32335 27349
7439 31595 14875
29195 12654 17058
70015 16026 3569
70883 15860 2929
82116 14065 32801
26853 12397 6568
71793 11002 4787
2863 20141 11888
2675 18631 12635
82864 18821 21458
78819 5845 8369
82320 18004 12805
43423 18116 31720
28708 7577 3554
83517 7421 21255
64713 18607 36028
5589 7901 6499
59077 16528 17127
23485 21544 35573
64622 13356 16596
60498 22183 5770
2267 14004 34237
7931 15657 3561
59137 8631 36230
46309 14487 6164
49394 31281 24411
17483 8122 36404
15375 19949 35838
30028 32255 29144
22702 25051 29609
37771 13854 29797
31117 12802 25130
8578 14244 35669
5634 7844 31719
70023 13797 34474
2869 13536 28139
53804 23849 3489
23581 9143 7261
81344 15242 9309
73555 1734 34009
41984 11934 18003
63109 16490 22016
48207 10052 14735
5232 7833 29119
4248 8046 30197
4831 7873 27730
7863 7320 28362
165 13334 14126
0 13306 18181
78347 15242 29305
42515 20368 11111
81675 18701 29476
41381 13648 32278
22715 32338 29151
23537 19168 8249
2570 15961 27321
3209 14495 31070
56291 11556 19036
4320 6613 15972
3256 6802 20793
2295 6972 21842
3504 6758 20097
57805 11588 18592
24587 17708 19725
4672 15399 4081
68696 13878 34599
42640 21768 33701
3339 19864 8351
1659 13840 5912
60577 22407 29072
66113 22334 8397
65477 22414 8673
67857 22191 10434
68253 22208 12698
64992 22461 8350
68306 22111 9377
68315 22155 11014
66588 22393 12555
45100 13421 5237
32719 13609 16610
28057 5855 3978
54617 18474 29042
44323 15610 26547
23389 22829 29957
7715 8211 13043
6929 8149 13484
4129 24711 29036
38239 22716 28488
14227 34003 10637
15472 15395 9211
15440 15628 5009
15260 15432 8171
15747 15461 8558
16439 15518 8821
60480 7446 35182
64622 16793 17770
38174 28372 12019
12862 32791 20224
19796 32916 19837
18068 32877 20251
14014 32822 19776
15434 32805 21358
20316 32909 20466
21477 32862 23076
79290 17171 9051
75878 6722 32460
33742 33337 10369
31033 33357 10974
17269 120 5739
53461 24754 5129
48626 23081 4479
46070 23644 4628
47161 24195 4834
52474 22957 4501
3960 8354 33714
82380 7284 9765
47858 13800 12600
23928 25886 29536
57074 9683 3569
40254 11337 3129
57461 10697 3317
49592 10023 3473
52496 10793 3285
23358 24890 25575
53688 5525 34793
40911 5689 35003
43265 21302 5701
81673 19786 11875
22362 23024 27621
83879 13222 8984
48877 11708 24351
23472 32816 13860
23883 32734 13112
22619 32550 11517
17820 32500 11243
18469 32563 11781
64230 22722 15713
59073 22665 29417
26349 19684 3050
28658 16212 15520
28553 16471 14614
7861 31105 29851
15496 5265 13889
10095 10530 2919
27086 18327 25926
82801 12709 6786
39935 18809 28146
57931 15111 17647
55304 22619 34784
69512 1245 32031
11661 7797 33981
52710 24212 38866
46720 13902 5206
52163 15270 7548
38571 24966 7723
80190 19572 30013
51356 6665 8751
47120 6714 9541
34787 6857 6938
34640 6859 9850
38825 6810 8103
45989 6727 8028
40198 6795 7454
31897 6891 9306
37302 6828 7324
26955 6948 5734
51997 6657 9943
37210 6829 8419
53477 6640 10064
37224 6829 9406
32775 6881 9526
29319 6921 7264
44339 6746 9880
39480 29141 29406
23175 20722 28622
23643 33470 11029
24436 25087 17217
53926 13369 28483
18748 1988 35056
53938 6635 27195
36765 6834 24533
31963 6890 16604
34418 6862 18730
45829 6729 26372
51295 6665 28205
28621 6929 14174
52469 6652 28391
40748 6788 28040
29587 6918 24557
44253 6747 26869
40723 6788 23350
35081 6853 20530
56003 6610 27179
41637 6778 19564
49127 6690 23906
39341 6804 18173
38967 6809 19178
41649 6778 18522
56692 6603 27996
57716 6591 27707
31715 6893 24417
38511 6814 24112
38833 6810 25674
39226 6806 19675
29309 6921 27200
28247 6932 27641
49891 6682 27321
31309 6898 19848
34779 6857 19110
42742 6765 22691
30659 6905 26119
32126 6888 14950
27526 6942 14148
51951 6658 27719
36601 6836 20968
53221 6642 26066
29679 6917 28879
30799 6904 24943
37638 6824 27846
29906 6914 25186
44175 6748 25229
30261 6910 26829
42287 6770 23654
48488 6698 22389
45973 6728 28977
53851 6635 26353
43906 6752 26268
50716 6672 28243
42371 6769 24822
33982 6867 29003
32651 6882 23967
28932 6925 25506
27182 6946 20590
53059 6645 29016
34629 6859 15289
34419 6862 24139
33711 6870 17219
44730 6742 21084
40111 24436 30210
62127 22121 27992
8221 32407 22972
4591 8323 9269
76991 13791 3016
15688 23573 34316
41590 22553 7916
1998 13481 10164
83799 14861 25686
67498 21334 33968
23916 20543 32067
84492 8364 12301
6880 30503 25945
5216 27645 26118
68655 1935 2479
55241 25397 33656
69008 12015 35922
19515 6961 28406
25582 6951 15017
16681 6966 28212
21476 6957 16574
16997 6966 21894
24028 6953 16155
18642 6963 22223
19125 6962 21836
18454 6963 27435
20166 6960 27436
19336 6961 25524
26080 6950 28206
16112 6967 28087
23842 6954 24243
23163 6955 14852
18593 6963 28981
19426 6961 26027
22768 6956 27813
21854 6957 19972
23594 6954 25553
25406 6951 24079
18393 6963 20763
20352 6960 28028
26058 6950 14775
24617 6952 25120
16231 6967 24673
23868 6954 27091
18179 6964 28532
21577 6957 25338
25974 6950 16243
17024 6965 27210
49774 15620 14535
76604 14753 35915
63841 11689 6499
83880 14673 16685
24464 25481 21374
60479 7262 6469
23040 22387 12060
60017 17627 36030
56063 25295 33172
6170 7628 11171
5378 7784 10860
1958 8378 12766
7644 7375 10226
38519 12935 2944
33027 13395 2921
36946 13838 2857
54487 20628 31392
75408 20118 5462
50781 29390 31256
25041 19538 6301
35803 16766 36211
36479 18524 36069
32213 17163 36238
28895 17694 36251
36124 20003 35965
38421 15561 36259
36132 18991 36040
37127 17058 36168
35962 15715 36286
20234 10495 2733
42820 10843 5288
54543 18725 25121
12150 8622 7139
56183 25309 6824
58631 23280 5959
55935 11002 16512
54065 28245 24721
60257 24106 21370
59343 24665 22899
53035 29004 23853
55224 27464 24229
60087 24049 24916
59211 24830 21423
56058 26959 22706
55789 27028 25089
48434 14987 23510
26643 9174 34909
26762 7936 30612
26485 9076 30833
26340 9375 29277
81127 14282 5221
58939 23119 33606
9715 32450 26176
31456 13653 31422
39717 28742 27694
52027 7312 34868
41945 7265 34783
56033 8082 35135
60612 22397 27400
25462 6037 33787
73989 5149 7261
25300 21808 35672
56590 24969 32472
57929 23988 32666
41594 13350 31463
26880 19312 8314
23275 10237 2535
60146 6560 29845
42582 6762 31394
55609 6610 31393
59578 6566 30757
51607 6660 29861
57463 6585 33539
59015 6572 31271
53720 6630 32972
58674 6578 30029
54621 6620 32776
37885 6820 29945
53643 6635 30798
39227 6805 29501
55896 6605 32936
21437 2637 2449
25295 15506 7681
65360 12942 6203
48734 31365 25516
67140 7181 4758
23189 22453 13113
60655 21052 27543
77376 16331 33046
26559 16498 32867
28376 16898 22588
28331 16970 16121
28743 14270 32739
63409 7543 7261
66682 1456 32031
54696 21340 24960
18997 4899 33830
3328 17705 7438
58122 17908 9066
32790 9712 32119
21474 33428 28549
46784 26583 33492
49465 27778 33036
49115 26516 33479
45415 24653 34183
46442 24827 34107
17875 2740 2551
54553 22657 37706
25467 14089 16353
79718 7957 4670
12143 9671 6264
81741 10307 7182
62650 3884 33038
41197 14163 31713
75610 20936 29874
18414 33655 16892
661 11421 11167
5219 10125 34706
53036 29200 21357
54376 28303 20712
53921 28562 21497
50475 30885 22939
51543 30355 20160
60338 24104 20408
58324 25571 19913
53021 29311 20115
79290 18059 6561
19462 33900 13600
19571 33900 16315
29113 9840 35728
20817 28799 6408
40788 15490 7796
483 11045 26814
361 12035 26410
43023 14880 23730
2973 8296 18027
40859 15394 7153
42316 12295 5406
23180 7167 2829
8703 9896 35912
8825 29035 7124
15383 6840 21440
4306 23039 33600
80799 9871 34237
3240 20034 18425
2967 18441 17180
12499 6973 21398
10543 6977 20066
18838 6962 13395
15117 6969 13250
16637 6966 10058
11614 6975 11735
12768 6973 15589
14656 6970 10347
9827 6978 17386
11432 6975 20278
10616 6977 14147
14181 6970 11110
21996 6957 11735
15083 6969 11483
11561 6975 25432
12681 6973 17980
13619 6971 18832
16054 6967 20540
13056 6972 17227
18342 6963 14329
14034 6971 22458
12791 6973 23464
13111 6972 22049
15279 6968 15684
12405 6974 12179
19549 6961 17907
24440 6953 10063
10781 6976 25390
20824 6959 11051
20631 6959 15215
55921 23211 35728
62827 22372 20854
40782 15120 26032
54084 19199 30947
42005 12385 32762
37706 23919 30393
78070 18328 30784
36035 14430 22989
35672 14387 24488
35567 14374 19400
41323 14943 24142
43827 10410 5189
43224 27843 6133
40254 24716 4959
42776 25968 5425
41498 27543 6025
45659 26993 5804
44146 26509 5626
46347 27567 6019
41948 23401 6733
42985 14157 15252
53983 17474 26550
6984 13163 3779
36844 24568 34296
78767 16343 28407
78467 17454 28674
40183 16803 32386
68620 16749 2344
47131 31753 13927
4821 11426 4306
24060 17868 7239
786 13423 13600
118 13394 19166
24292 26060 11351
62407 9424 6631
37329 29839 6872
82357 11337 7809
79514 18751 6761
69489 8216 2599
75011 7085 36729
55051 27041 28134
58632 24938 25935
53407 28357 27048
58368 24989 26717
54233 27951 26062
49992 30914 25838
51494 29912 25636
50416 30054 29238
71044 10305 2364
16332 5998 24885
67548 1344 7261
42052 15995 23713
5839 6343 18333
7926 5972 17930
7260 6090 24139
3757 6713 22624
6355 6251 16281
7002 6135 25433
6246 6270 23731
5007 6491 23793
2558 6926 23065
28006 13483 6231
9805 7202 7474
44698 14162 30880
50539 13969 23920
17463 13800 5563
21950 16141 36886
40232 19121 23968
26010 13075 16467
37925 13331 28936
13120 2607 32594
18325 5759 36273
53771 10040 31503
9824 7347 34730
18920 4203 2362
19910 33858 10528
66224 8505 5158
45173 29343 32426
33242 13251 6069
83267 7802 10113
19805 32250 29168
20046 13719 6828
23490 20134 6982
9913 26251 6042
13236 25293 5542
10902 26172 5959
10330 13963 36490
81495 20293 14419
11349 27476 6381
12031 28690 6791
10232 29664 7263
10011 27766 6569
67188 13668 32440
52353 24681 1453
58734 16741 32524
68811 6391 2777
16177 26558 33386
10628 25309 33498
12345 25313 33598
23901 21864 3460
62839 13031 9158
62750 13286 6463
61321 10783 8541
61281 10616 9281
23036 14047 31236
25142 12763 34344
22320 14447 29768
23562 13746 32249
23494 13677 30870
63414 2662 6285
39344 20868 11105
74578 10301 32171
12954 10872 10091
14627 14720 10091
14055 11805 10091
10640 8343 10091
12038 9990 10091
14907 14066 10091
60183 16161 5267
32716 33737 21465
4576 20411 4435
35457 32279 27999
31935 32113 29889
30852 12894 10456
66625 20042 35393
7496 29672 31610
9979 8134 32285
59948 13576 20934
66685 12740 32031
23286 20876 22277
8683 32391 13912
27231 13609 2649
20892 32095 8383
38368 26308 33611
39046 24337 34351
37271 12703 31341
49209 9917 5472
8907 6649 26358
9375 6887 26116
85259 11910 22219
1565 14934 7283
52853 27504 32714
26899 7424 6367
84162 9738 23348
43472 16225 34371
9763 19790 3583
84317 8327 11260
77519 7658 7337
76946 9513 4357
7645 31849 22689
81063 6566 29705
82113 19723 24704
41314 14112 14085
54505 11519 19330
76009 21203 12604
74120 21381 10404
73535 21607 14355
74516 21388 12049
76903 21167 14938
71653 21697 9783
74120 21503 13705
16169 9045 2877
8052 7314 16203
5242 7862 19109
7477 7426 21696
8490 7229 21990
8596 7208 17990
5533 7805 21393
7831 7357 18476
8647 7197 18812
3360 8229 21286
3862 8131 20873
5261 7859 23212
53955 11357 12678
59714 21764 24996
25168 16083 25556
79658 16436 10411
84843 9893 27076
37778 14025 23022
16318 6474 21973
16167 6728 20082
24341 7071 2536
50410 11975 14773
38899 28539 31162
5334 26524 31830
37715 33071 10343
21103 34087 28140
82854 11740 6050
26981 18912 27448
26964 19013 26670
45231 31759 27883
40127 32075 27711
45712 31947 25300
55130 19801 28555
15733 34045 28094
6095 19067 32943
19663 11803 4074
73757 8369 32698
39280 20516 28681
7669 31982 17363
21183 508 32899
54164 5505 4579
47198 5597 4443
38903 5703 4324
39782 27974 26952
81086 9890 5151
30626 28713 6368
27934 26924 5708
29260 27776 6023
26799 26063 5393
19159 8796 2846
76217 11512 33919
76084 11782 33228
18923 16131 5987
18936 16409 2564
13062 30723 31626
64835 3124 2523
34554 14459 7286
61037 14108 20485
48931 7053 3169
44715 6546 3436
34746 6487 3572
33201 6821 3441
38638 7069 3273
58296 19919 20474
22617 25234 12699
36513 32530 13544
39054 32285 12694
42546 21043 32278
24199 25231 25576
76568 10612 34673
76561 10521 33806
29267 13617 24900
29274 13843 16674
64333 22650 27180
82082 16803 9410
22596 12591 6734
25371 15607 36707
29908 20489 35967
7663 31512 26899
3120 20546 28921
70833 21193 31809
74876 20701 30765
31291 12797 17100
27572 14554 6103
83014 16182 12543
83405 14594 13817
15187 5307 34027
26509 9572 4144
60963 10143 7911
61454 11516 4311
18121 19069 36382
5277 17742 35072
63197 21569 25651
38867 21257 13540
32438 13544 20500
42256 21250 9802
29135 13222 30372
10895 23832 33998
11500 24776 33730
16235 24573 34024
12656 24610 33838
13695 7259 15450
12630 6439 14927
23327 20300 25970
39521 26105 7873
20374 1315 7261
72948 20368 5024
38969 20582 26301
79148 18749 5921
51432 11456 19688
24209 7318 7261
45561 16161 15195
18198 13878 33861
79829 5925 14803
80940 5552 14890
79272 6020 10670
9116 16285 3428
75280 19569 34345
45208 30185 32083
46618 31951 16249
18667 3807 36938
19949 16201 4218
20084 15997 8158
55144 22701 4459
12158 7166 36703
72861 15145 2688
72757 15104 3757
68628 5175 4588
42151 12364 30533
6742 14431 35447
22432 32876 16015
20518 32837 15730
14599 32702 14293
18565 32814 16111
22421 32861 15426
23605 32907 16455
13373 32691 14672
19704 32850 16794
26737 19876 32199
10304 16712 35808
42931 19493 27769
64735 6807 29064
69336 7230 29064
75285 7478 29064
76755 7549 29064
76863 9212 29064
71797 7830 29064
71493 10212 29064
72405 9245 29064
29734 11739 6808
9270 23311 34389
25003 15487 28226
70150 18691 3228
29698 6462 4892
31879 6162 4813
27949 6547 4909
43488 6124 4846
18660 1254 7261
25353 21957 8550
5634 28706 22899
6023 29348 23448
6245 29755 23231
25904 20891 29324
32291 30358 7004
8981 29070 32028
33189 33900 21070
41293 7706 34944
41939 7943 35038
48648 8062 35091
52269 8261 35173
75694 8549 6530
80391 5640 29505
77697 17071 4253
28457 17716 6971
63742 2446 2816
17113 11728 3891
39921 24638 28881
80295 20688 21469
80008 20756 19936
19597 20964 3303
41045 17407 23836
24853 32678 10804
33918 33793 24467
42196 16903 15511
13932 3030 7261
16268 33466 10888
18064 33453 10619
71386 11299 35969
16395 32600 12500
13335 32584 12963
16856 32735 14186
21625 32756 13407
15715 32697 13935
14574 32539 12096
12549 32367 10257
51841 15838 14219
16290 6520 2372
82735 7284 27777
23913 23108 19719
14300 9508 3989
4995 8482 34059
21081 12993 2633
20692 297 33602
12640 9383 32036
30187 33987 11009
22111 33794 11035
83141 15183 12457
41276 31545 8631
5583 27672 29722
5330 27314 29343
5313 27602 27368
63575 16147 2299
16004 3990 30843
41122 23178 14861
79398 17867 10104
62451 9561 32573
39640 32398 24799
41673 32306 22835
37328 32593 23204
41131 32311 24167
36979 32675 20710
8312 8124 35076
74847 21463 23834
76320 21104 28093
73695 21521 26547
73871 21386 29537
74021 21543 24732
75758 21173 28312
75052 21330 26682
75157 21357 25559
63958 7400 4869
39421 26400 26625
28537 16470 10812
46642 31644 12157
41990 21412 30364
42560 32148 13651
39552 32325 13324
41331 32202 13301
79385 20654 12193
78870 20699 11174
25157 15085 26064
25187 14961 24162
21982 32955 19415
12226 32730 16956
21195 32922 18660
19825 32888 18213
10731 32746 18521
10515 32709 17248
19853 32916 19262
22018 32939 18791
53518 15522 10326
73451 9027 4838
67277 11361 36614
39186 19580 32811
44292 16028 7470
50336 11433 20113
47511 11375 18164
44126 11305 18170
84469 13240 11888
60679 8096 23141
23376 11885 6961
24626 3544 33608
64431 17427 2603
64622 6699 17379
25788 11710 35530
54233 22209 1378
28514 15193 8489
3360 20780 30650
45374 21346 35686
53368 20995 35598
26794 8469 35628
5550 7675 24860
1744 8359 20741
16531 9955 2358
74972 10334 32590
44550 18515 34107
4845 24747 6242
63759 4516 32031
29120 14662 26925
12436 9524 2673
45147 13352 30288
7245 31222 25305
32204 21542 35784
77279 20349 30466
82376 6713 18007
23958 23200 27633
11201 22535 4029
49281 13237 33591
10178 5593 13619
12246 5582 14796
57566 16545 18733
28233 16523 32963
84292 11340 29444
54930 20284 26420
41967 9745 3535
45504 9339 3641
46258 9908 3498
42454 9937 3486
42249 10883 3246
44785 10464 3355
8729 32543 20772
71962 21942 19705
72075 21904 20586
73240 21746 21119
69357 22131 24575
74286 21640 20269
69602 22051 26373
69350 22155 23717
71488 21903 23295
73374 21659 23703
51872 23070 38432
37979 13072 26971
33695 11144 32136
28703 16063 28021
18455 12013 36003
84324 8640 9688
78760 7795 35284
26256 21645 35625
69576 5390 2864
65065 1537 32151
66837 19895 3697
18640 0 33285
12204 4827 32237
39346 21498 24221
38870 21227 24462
25253 9993 10061
24064 7747 10031
13713 7551 10081
14286 8003 10085
25235 7972 10029
22966 8903 10056
24267 11128 10086
23798 10381 10076
20608 8504 10061
23569 14214 35088
22190 15106 33140
2932 11733 4641
86 10644 20970
0 12691 20488
43167 20695 5056
68108 15802 5134
69822 15611 8826
40953 23523 8773
65620 18363 2912
54990 22296 30450
53155 16239 30581
25472 6132 6589
58305 17142 7243
16847 33620 28747
19461 34005 28549
57780 18798 27408
5246 24488 33496
52882 6153 34256
42902 6323 34245
55584 5986 34294
48776 6384 34204
27259 10870 9967
16046 31527 31252
10200 9131 5641
10286 9646 4049
45757 11145 14515
53174 24904 1881
48644 30591 8221
69030 15944 34195
68946 16129 36731
45220 17727 33868
38364 21951 30516
17579 7769 29083
23137 8158 29105
13020 7334 29067
21596 9093 29082
25301 9344 29097
17019 9128 29058
24678 8167 29113
19243 7970 29089
58525 23138 4896
54218 19699 29541
67691 16056 2763
70590 15654 9675
59208 11827 2884
951 8710 19874
12488 23068 4366
23838 23208 25730
36320 7338 4370
2427 21146 17904
16032 16394 36911
40817 15547 13969
69581 11227 10084
70682 13744 10084
68930 9610 10084
68466 13234 10084
67693 9268 10084
72331 10652 10084
66793 11782 10084
73769 12564 10084
69632 14351 10084
50398 13325 33652
40706 19902 15333
23485 18310 2765
54926 21287 30677
42265 21898 25996
9964 19989 35560
70562 20891 5267
22632 25498 20294
68524 21280 5611
32575 14060 32590
61007 15924 15972
60300 16127 16576
60964 15936 16828
59916 16238 16955
61835 15686 12578
60397 16099 9989
63092 15324 17010
14475 12550 5522
11751 8463 33859
19615 33495 11803
64622 15680 17513
63280 21711 30099
35062 25303 34020
35502 27943 33019
27546 25389 33974
32374 27956 33009
29005 25880 33790
32133 27111 33329
34465 25803 33829
30817 23491 34700
29983 24065 34480
26188 24185 34428
8295 27058 32740
13873 8769 34868
20778 2502 34660
82519 14330 8207
33391 33900 13456
33840 33900 18665
33137 33900 14447
63771 22649 13114
64252 1742 3434
58461 20094 7251
65833 5543 2366
24166 18745 16913
2563 14311 22316
78308 6381 5925
12507 10343 5672
39230 23348 14631
77884 9127 3310
7615 19979 3791
17300 18504 2549
82096 9869 32099
15880 537 6724
78029 14807 35111
53864 10455 29088
17874 29651 32204
16479 29311 32269
9330 28632 32214
13002 29834 31933
25870 34042 28392
2505 21812 21043
67204 19194 35854
6240 28473 8186
84975 12712 14718
43345 20084 34114
51430 14962 12948
15525 30686 7405
29850 33607 10401
46898 13370 31025
79398 18327 9274
23232 8073 36711
81497 15802 31611
31 11160 19171
50012 14538 23346
75074 10157 5769
58122 18348 10939
42932 21626 5384
61299 22055 4679
69766 5467 35089
65812 2970 34179
34611 13681 33029
74226 16968 35935
43043 18405 4599
80471 20651 17239
79474 20855 19036
63116 22451 16916
63195 22475 16095
18296 30753 31810
13788 8212 2489
4691 18146 4211
30789 21768 3411
66119 9655 36876
44027 17085 13033
15797 11258 7148
20817 11461 34758
54975 8530 16330
35257 32662 15193
33235 32759 17503
32964 32803 19100
34480 32743 17907
35349 32695 16648
34454 32690 15671
33588 32719 16123
39982 9035 35435
41587 9370 35519
43868 9157 35462
45293 10381 35771
80735 15748 32759
58939 16605 29283
83695 7675 14851
83793 7677 16075
82472 6950 14149
62144 5265 5467
41853 13051 25385
52663 24093 37027
12010 32672 28282
23901 19167 14477
79007 9761 3868
23050 14982 36213
80950 6188 12588
42716 15288 34256
65622 15429 33430
64499 14986 31636
31889 12905 2974
65206 12831 32670
82061 18959 28500
34388 14033 25298
34311 14006 21189
22254 23326 20411
44917 14155 11319
2084 13443 8586
72370 6387 33894
11695 8117 3993
69461 1988 3957
33918 33853 12300
77506 15335 32639
77737 18324 32006
58685 18030 26852
39812 27404 30241
60600 11261 18500
60585 11261 19211
58803 11261 19549
80478 12663 34345
16163 5281 17115
24615 17966 29267
64622 15496 21289
45664 13092 26415
80163 16512 8440
85218 12814 19774
2460 15791 13069
3036 16139 8296
82595 14753 10092
79398 15725 31763
8088 9228 3646
27849 6423 34275
27151 6082 34377
41740 6062 34326
47302 14873 6048
84241 10820 16058
2871 22725 16300
37794 11982 28071
5706 13607 35240
77621 15760 28597
38801 31832 9276
57793 17726 21537
59406 16388 8515
1134 8659 13653
5125 12049 35001
71646 21327 8296
7630 30569 30519
50045 31263 21347
79223 18585 30319
34704 14142 10941
73516 2297 7146
3033 17248 9383
72372 6202 2367
55158 11533 19830
80135 11334 34670
37134 30874 7324
7023 7639 6536
31686 31821 31401
58731 24534 27832
59006 24259 28268
53289 27850 30397
58050 24687 29526
60772 22754 29680
55736 26099 30605
55848 26266 29319
53789 27745 29116
56252 25723 30685
46404 13727 13321
26997 18374 30225
83122 9211 6760
5188 19355 32713
35088 14236 32847
66860 6524 16944
63997 6539 11184
76627 6469 18247
75844 6473 11672
73145 6488 10960
76866 6468 20976
76565 6469 13508
68951 6512 10521
72265 6492 17589
77758 6463 24401
70445 6503 17593
75555 6475 15084
72447 6492 13567
72475 6492 23021
67012 6523 14123
77454 6464 19225
77675 6463 22217
68521 6514 17775
68273 6516 14726
77268 6466 14193
74145 6483 10613
65240 6532 15061
70871 6500 12888
73250 6488 22363
76116 6472 23355
62781 6546 10920
74412 6481 21402
76876 6468 21671
70472 6503 11474
72846 6490 16698
64440 6537 11557
68178 6516 17381
76881 6468 12939
43235 19450 7014
8778 14103 3359
45548 28280 32857
42777 29058 32553
42273 26802 33405
40204 25410 33926
41580 23982 34471
40114 24605 34231
41426 26685 33447
43108 26576 33494
41435 27407 33174
70683 1527 7261
