ply
format ascii 1.0
element vertex 2827
property float x
property float y
property float z
end_header
22925 7671 34558
32885 15954 4181
3253 10112 6760
32920 17666 35241
80290 13535 32532
46273 11739 21071
32582 7402 11488
44749 6138 25748
24472 14107 23456
58940 16857 18375
15567 11257 1669
5174 18483 27666
82174 7261 6698
45805 13811 3395
51434 19674 27941
35344 6366 10492
46180 22305 24718
35532 24220 19152
8075 14525 5518
21756 19000 15202
11283 4818 33157
31057 17423 5729
71722 15961 7280
8212 18599 17968
86001 9890 30412
3209 14686 31203
32929 5358 38010
4295 18591 14419
81640 13534 24337
30400 7053 16643
39035 3929 27947
39527 3932 28140
42600 3943 29332
40806 3968 27632
38705 3900 28687
19807 10158 4834
33211 16993 27051
33490 11538 8948
74771 7095 9379
65730 16746 13355
75801 14537 5794
26795 7467 32621
24049 15776 10511
31892 6184 30107
47164 21939 19004
6723 19379 9996
56618 16312 35897
46448 8526 22036
69744 13046 33529
35386 11992 25928
31155 21842 31933
9449 14879 5178
14710 17289 35138
21481 12987 5016
34043 14848 3578
6187 5774 19376
23871 6561 6328
30075 3602 32394
42009 6138 16341
560 12303 14490
25179 10499 28309
20531 17544 29899
76391 15300 26692
26720 8321 13650
26143 8877 14463
36153 6648 9613
2064 22211 19535
47654 21156 11068
37772 9327 9401
26336 8037 7724
75267 7561 32461
32399 24012 21096
47576 10347 3076
48353 8947 22956
58637 15395 17611
40249 17913 5955
19769 3484 3274
50577 10655 11429
50638 10571 8786
77795 14934 22363
54759 18173 27008
36888 7186 28919
39180 3644 33969
45363 3474 35864
44524 3522 35126
37857 3603 35082
37009 3702 33336
36856 3656 34269
41241 3500 36312
17131 12924 35771
82775 12412 31751
33819 16561 28330
26016 11648 30568
25612 10246 3793
80689 13690 30215
84456 6556 12285
81119 12590 33560
48496 13024 19074
51465 18583 2869
19803 1961 4899
62742 16769 29282
11959 14323 4179
49456 9164 37956
17204 20656 15475
64098 11641 5076
80651 3900 13555
86046 3860 16010
82545 3878 15708
85545 3882 12618
84703 3856 17731
69334 5003 5956
77549 7576 3875
6217 14156 6062
47959 21364 27108
33096 15205 17834
69248 4244 5051
33434 16301 36627
75236 15575 19188
40349 23791 14549
4250 21813 12677
27312 9132 29604
42172 8489 17643
72266 11003 9654
919 14391 29457
7294 5639 15670
81737 13516 23734
67141 13045 7126
16249 12561 32336
32910 13537 12930
49980 12463 3039
21634 8919 34558
19291 3972 37090
70985 16324 24968
22988 2208 36830
18540 6002 4064
66993 12354 32314
17951 7082 6008
4070 16217 31177
25903 9475 32028
64699 1958 9508
62875 10434 38618
14499 15434 3955
20587 16863 28283
28015 4673 38019
51576 9959 14689
14916 11684 33085
29483 9476 8747
82599 11015 27663
41606 5327 37574
57048 13267 2932
1143 14660 22772
15896 11872 39094
80626 13042 10104
11238 17971 32344
61284 16929 13217
32490 14980 37251
13156 8815 33810
84092 11186 31355
29853 9120 23946
4970 11883 35141
13352 4983 33209
12176 6212 4668
26783 22757 12874
44321 6138 31594
20826 8386 29761
2986 21928 26880
65304 11064 37607
39247 12933 3258
40781 17820 35199
44539 8420 27162
63599 3384 3020
15 8998 19388
19794 15664 3236
61372 5633 6769
5291 18451 14479
62391 16976 24459
71587 6848 35900
66263 12748 8700
15283 10963 38916
31198 3833 18990
31206 3833 20650
33947 3879 21016
84605 6404 17058
71811 9925 33452
6939 5594 10927
2889 5629 27083
57942 17054 9194
26526 22873 26327
13660 13121 3136
30062 18134 6352
76947 12098 36613
6646 18718 31946
81618 13228 28749
2979 22083 20371
56933 16681 20161
67335 4177 25868
67895 4162 25014
30397 9485 10715
36668 6914 37565
73179 7314 7343
82954 4661 33811
48501 17742 26100
46503 21138 31960
75118 9615 37910
81783 13117 11874
16339 6708 37280
18618 6238 35750
8592 5152 21489
28586 23387 18266
179 14249 23282
22149 3927 21075
21162 3963 21208
22936 3898 20668
49810 15160 24512
19555 1574 37512
12679 5316 30852
45960 13932 25921
69385 12722 36147
48623 17624 25455
49397 8856 23432
49381 18477 39759
47220 7070 3622
23835 3873 19248
23132 3891 18487
63652 16826 27584
711 11325 15303
39637 16233 36638
37195 3936 20346
38050 3950 21442
36973 3932 21221
36840 3929 18625
13801 10489 33126
3 7387 18931
17329 7953 6668
16798 9830 6532
8412 18587 25389
16367 3534 3638
78012 3814 11172
84178 3875 11088
58713 16659 6759
36989 8040 26615
30691 23711 16834
19818 9171 4542
67163 6544 6908
25621 8025 7878
31748 18366 13654
57247 17075 24896
33018 8907 26392
50688 17482 36664
53612 18829 14934
66544 16748 15181
76759 15248 23262
59744 4100 30344
60479 4113 29929
61429 4126 29539
62495 4133 29441
28350 3683 29540
58604 15538 15333
18753 8421 34558
3106 17442 27768
5059 20945 30186
17783 9347 6655
45456 14480 26135
23930 14538 18840
41228 23844 19646
71574 6231 5458
32373 16660 15539
50616 14634 5524
20615 15974 9096
21259 14219 2520
25648 18791 6992
58559 15322 27950
69531 10401 11068
16456 12656 38218
2321 6039 30351
15698 10219 3436
21938 4409 3975
61675 16634 32783
37191 7309 23140
8897 5071 17779
57088 9211 38371
41241 10276 3180
70295 7646 35158
6959 18312 31297
65454 1991 33505
9200 11460 4278
86103 4336 13300
33468 19627 26409
27361 22959 13803
45105 4958 37296
66244 3681 5347
32710 14138 8979
23729 12508 26139
7041 18488 24081
25759 9285 9375
46469 15510 37063
25201 13913 9428
33162 12686 3124
85156 8251 19261
49061 12062 8055
29629 17985 34822
72032 9157 8089
12195 19465 22835
55390 9677 38306
42395 8045 12925
35130 6932 27689
54250 15882 12398
33847 17103 35845
17604 5814 4614
11732 17328 33848
13555 6681 31048
46577 21555 30374
14650 16457 36427
67503 16114 35681
20658 10259 29761
61184 4208 10556
61948 4773 10694
21663 9059 6540
17962 14980 38121
34290 17815 5886
53443 16572 31335
24287 16825 4455
13840 19900 17444
49956 20711 21015
45816 10348 37954
12904 8764 8596
48775 14833 25140
47583 13187 3240
2232 5635 21147
2678 5640 22096
80704 13574 10312
5942 17125 32442
15248 7991 33654
52603 15870 11964
39400 8013 3431
25747 10982 29041
15596 7360 36556
35910 10764 27783
71241 12728 6275
66919 3562 36418
57585 14172 3209
51009 20115 25318
32109 14932 25360
63577 11855 2398
47718 4097 26105
44637 4044 26825
48218 4106 24513
46562 4078 26899
53215 4190 26246
43509 4026 26627
52976 18572 10506
53288 14075 37759
56533 15777 9032
85466 8253 27628
23310 5166 34416
23651 20240 8291
31117 10224 2835
72913 15823 8231
34908 5266 3211
52173 19553 25818
20836 7867 4148
32501 5604 38096
47085 3438 4949
73396 5871 5864
8110 14038 35745
8899 4785 32028
86046 5101 27256
26807 3860 33110
21429 21404 12070
77608 14820 30412
16372 7356 36164
60719 4222 31769
69663 6335 34478
24099 22501 18401
64563 16556 7856
21940 5264 6423
3920 22183 22986
23993 15186 11633
2453 5522 10225
49172 5976 3722
36010 11639 18014
12414 6995 8019
56188 16977 30698
46537 3625 36372
53074 18841 28310
62874 9050 36322
11963 5728 7939
81478 11710 7014
32737 10494 38191
14221 11159 33896
16753 12513 32499
24081 4709 7201
19074 1251 34596
65409 9704 5705
15289 8883 35212
25747 22346 11503
51224 17674 26252
28488 3429 33647
17097 6352 4091
22594 9423 34558
70479 16182 32712
1120 14553 13550
49173 20521 29518
35838 4570 37554
36434 14330 37559
3469 15271 32409
69181 5490 35787
19255 2772 6532
68002 458 7936
81513 11373 34252
57141 14113 8126
50106 16714 39478
33592 3863 26105
30293 3814 23745
31065 3818 26351
6246 21475 11499
51271 20117 20066
24547 14896 10243
81286 10642 6230
32809 17721 30343
68625 16412 31478
2192 22129 21466
25485 5329 7981
33614 17928 12835
24129 13924 29224
49387 15424 31747
74308 12615 3317
56932 16842 34573
22438 9730 4428
26991 9372 22001
65746 6568 4579
77411 14998 13874
23374 3883 16903
24440 3853 15396
70533 4129 19663
85614 3854 20552
69339 4152 21573
66687 4200 21978
68262 4171 20422
83363 3895 20801
68176 4173 19476
72519 5593 11388
62797 7532 9084
74377 4952 3372
75227 8384 33877
59823 16868 31085
4572 18703 21470
52197 4455 36790
72734 9320 30793
18789 8308 5607
71675 4876 35642
19507 10018 6532
5217 19946 9744
73541 10135 8117
39847 8237 20608
42965 8920 37774
31974 3704 10541
37465 3890 12800
36117 3854 12563
27447 23127 24938
14621 6274 4613
50079 4140 22287
49025 4123 19692
43808 4042 22249
44416 4051 21250
47442 4098 21700
50855 4153 20396
30183 7018 37694
21273 5487 34218
13896 16871 35694
61850 16552 34386
60296 17215 17889
68889 4210 5888
39115 17321 5490
84715 5953 26534
71562 14322 37573
1023 14558 15001
55536 16655 27064
26463 3804 21716
25953 3818 21537
17480 12396 2249
67980 4763 7185
17083 7379 5505
23555 9271 10688
64833 13443 2414
82681 6523 33791
14998 6583 36154
50318 4144 18784
46042 4077 18709
43456 4036 18431
40127 3983 18504
38785 3962 20099
38872 3963 20808
57832 6598 37757
37032 7884 3471
16883 7378 4119
67005 5057 35033
58572 5710 37601
65157 16845 22660
49666 11361 10780
26431 22953 25029
77581 12389 36115
24198 11103 3303
71683 12593 36233
66074 8214 32751
10099 7206 37336
23047 10173 4401
69273 16256 7464
11613 16360 5426
328 7921 28368
1728 5627 22232
86139 4911 14644
41273 21260 32597
15739 20393 23737
86733 9151 27843
84985 5851 15962
71103 4598 35124
76798 15016 9942
22888 12544 33034
24673 13322 22235
16938 10940 30574
86438 4359 17095
9275 4687 31323
60358 4054 36735
19769 4429 27941
20496 4203 27712
25327 12405 22671
58154 11481 38454
14123 4248 27424
10232 4653 25515
34984 8153 30197
20374 12993 5889
2939 5668 13465
75206 3918 28273
76901 3946 27359
12443 18134 8786
44478 15849 4219
35268 12238 15023
32046 3650 32984
35905 3701 33126
36868 3777 31545
28276 8945 12754
25036 9836 9585
22894 10465 30596
21599 17684 22175
44043 8379 20664
57155 16874 9103
26105 22902 25501
60473 12733 38452
55719 16033 32857
67140 5427 5339
49271 9617 17775
48602 12663 23364
23786 7322 37707
84523 4382 9054
35218 7081 32115
22391 14353 20830
21548 15528 18458
20735 16653 18444
24985 10766 17604
22143 14700 18794
76305 4069 30571
62928 16670 9173
18302 10075 29762
65726 16434 6773
1556 14615 26606
74553 4688 8113
23428 21631 30536
1083 11610 32010
18013 4455 3969
68808 4949 35547
17447 20850 21623
31946 17953 15569
17143 4402 13289
17572 4758 12861
22526 5021 12345
2219 8755 33411
24624 13980 20149
26165 15882 3684
54916 13253 6149
51984 15207 5675
52909 11498 5806
51057 15007 5520
4749 18630 20055
34215 16467 36486
73832 15854 21915
24677 11307 32480
71848 7134 7307
33667 16676 13202
42510 12859 3271
39057 7305 9140
84188 9439 8565
25022 21959 30371
47723 18821 34205
65623 8855 4280
29258 13272 38022
18127 1421 33888
35183 3993 37266
65332 16748 28305
70943 5235 36193
15406 5260 33654
8365 5080 27381
55005 18188 15655
53842 18565 13524
5624 21998 15978
27144 7509 38469
53378 19132 21985
51558 9960 28246
45914 22460 22514
62237 4190 27257
58839 4171 27762
58924 4139 28660
52952 4090 29952
2972 21682 28860
34575 14283 16312
13801 8486 33305
68121 11232 10408
61089 16753 9896
23903 7065 35800
4554 21789 27483
74721 15715 24530
17788 20921 22973
80081 3925 17336
15111 6960 33654
33240 12470 38000
30735 6566 3149
72136 14662 4113
23297 9815 5026
46367 7913 37678
72117 6159 36222
51874 15871 18142
51080 15872 11093
52045 15870 19777
51116 15872 14976
52342 15869 14184
75585 5865 38044
29693 6023 2792
20933 13190 37013
32128 3598 3858
69362 1131 36785
22297 10389 37510
38001 9195 8843
40084 21834 8956
57756 16022 36277
13751 6980 38696
41788 4104 36994
71339 6834 4785
55479 16216 17764
15127 7711 37478
30452 23726 22364
15368 5993 33968
55257 16009 23788
3604 6492 34023
49745 20642 26035
48418 13865 30821
27967 23298 19568
8878 18174 8633
51567 19225 30584
74557 5838 10053
37765 8144 9652
14174 7297 35989
84498 3824 31725
14456 10218 39074
18509 10651 6433
83537 10542 30323
49662 15500 35579
50973 13505 35527
44238 13884 37653
37611 24023 26332
45129 22722 25922
62095 8756 38340
73570 12488 2819
28521 6574 32117
50907 19892 12834
82831 10545 9361
49452 13957 3377
16653 7084 5322
31617 3479 37084
55732 17989 19782
84657 6808 26917
71768 8977 35046
50810 10461 24873
3672 21393 29572
60085 3950 4825
2421 5673 15933
45772 16776 23790
691 6506 21147
72927 3808 7785
35613 15238 37563
19282 6506 35685
12593 7778 4597
67550 0 2925
22903 9659 37405
23351 2130 3875
34623 8861 12462
14687 8402 10384
16227 6296 4661
68427 13125 7052
26080 21313 9095
33059 12208 31127
17137 17405 5538
28504 8074 38483
23968 12423 8677
2520 14791 29565
17064 4580 4325
1232 9705 8990
32694 6778 14233
71577 6361 4667
55422 12294 2843
18974 2806 4344
32010 15734 27032
48582 12593 25908
56152 14833 34804
53801 14327 35278
75427 7529 7415
50579 16018 22202
65196 11336 5678
68458 9706 4383
68640 8903 34425
21063 16201 14624
21673 15357 14937
23592 12698 14619
24903 10881 15828
1075 14611 17610
22529 9675 3645
35294 7054 15775
20343 17221 26121
35674 13359 17736
48877 12526 25190
81056 13812 17493
85805 8339 10432
71353 12732 36879
20517 11676 10360
23977 11902 32346
84507 8023 16497
84609 7318 22036
84511 7469 17222
84577 6963 20844
66856 4492 5550
9004 4985 14353
37262 8729 3365
30032 9486 18810
15889 11378 37257
84793 3878 27739
81935 3885 26965
80978 3895 27395
5466 16330 7682
42503 18355 6321
30628 17934 6181
74781 6071 8890
71953 10046 5944
20174 9667 36259
64441 11880 37112
25652 6440 37098
64639 10608 37973
14008 8135 2219
74373 8731 6619
87073 9411 23339
22567 22136 22165
32151 3699 30824
35167 3807 29389
30730 3655 31277
22732 13881 21891
22714 13906 20602
24838 10968 18725
25964 9411 22969
23768 12449 20544
64330 11893 2433
4964 18548 23958
23196 6792 3256
23567 10181 36101
71372 10190 33656
35823 9055 3377
20319 2376 36034
67743 10663 30167
32536 13649 24352
28182 5263 2916
25655 9839 27299
21313 6571 5741
19752 11146 36162
30003 9193 26770
2807 16402 12363
19024 4415 4312
84750 10722 30693
5809 5672 29645
9564 15270 35751
27135 23131 17459
62275 11566 2374
43733 18420 34684
10793 19065 18219
41568 11736 37922
26192 9261 27857
58062 16909 8278
71210 4809 5017
26552 9247 22711
17459 5052 37415
0 13930 22642
77954 13794 6291
69924 6949 5977
84143 12419 19605
2854 15982 29432
79421 13198 33639
85087 7554 19143
705 9004 10587
78647 14665 20271
14731 7599 4585
68887 8178 29763
8005 19699 9895
76979 3957 14844
80138 3906 15341
79114 3918 14842
79753 3918 15939
81211 3891 15813
1903 15452 24861
50816 12293 38101
48537 14952 18522
15767 4163 20286
20053 4004 18677
15117 4187 20299
44027 8430 14517
70833 4914 6657
3463 15802 11815
33318 3675 8391
31771 3563 6331
34122 3641 7363
35012 3728 9055
74804 9558 31379
41707 17946 6001
17485 13018 35084
56433 4197 15696
56177 4197 18115
64477 4208 18211
55601 4196 15066
4587 22136 21737
57072 16824 10667
48714 12802 30738
67037 5987 33656
32909 13707 15218
48828 17140 0
41789 22927 30827
85342 11368 14809
10650 13458 36814
32016 6351 24653
30891 6843 25466
79962 13967 30751
20494 16989 16226
42386 8042 29282
25733 21595 9491
65550 1161 31437
17232 20494 13529
32773 23732 27177
75083 15453 31115
21516 17994 29240
48039 21398 14681
19836 9544 37070
69087 4384 35198
14816 3436 6154
16249 10607 10409
14531 4122 1986
33544 11797 29107
10363 4649 23179
12798 4400 23520
49938 19970 30678
19885 12340 35973
54773 18274 25816
68753 10300 4788
60790 4308 34861
44220 18414 6407
25396 5178 33290
14879 11647 4514
19885 11665 36010
54703 16442 7833
60734 4221 8797
31896 23913 23460
81340 10544 7368
36081 9889 22884
79376 14141 31541
19862 8691 34558
12741 4386 12884
10010 4662 11939
13788 5726 39046
69734 11512 36585
72222 11438 6200
51001 17735 29162
32239 6248 19930
4501 22017 26496
32833 13800 27048
16233 9392 34354
37895 23884 13312
2138 16051 16550
35537 8714 20927
34883 15360 3818
22231 9731 4904
18399 7946 4626
2456 13987 7724
73419 6379 5363
21399 7366 34888
3132 18194 19283
78556 3863 4663
68521 16146 5707
10963 18148 31662
48662 15347 21447
3363 14935 8062
50300 15989 16312
69554 7999 5364
22947 4448 34558
16171 2901 36712
59236 9453 38519
12181 19479 21370
45032 13470 37743
16292 10263 3478
22214 15619 32545
38715 7275 14521
16867 9625 3744
32579 6673 12004
49880 11255 33072
17973 6523 5777
65497 16485 33943
11884 4487 30433
14627 5783 29574
29784 6630 31001
59198 7780 2835
18253 11289 30399
59629 3967 7340
20898 17992 17254
19309 16228 37423
68253 13115 3880
73153 16010 25362
620 12972 19450
44047 22886 11453
83278 6043 33800
32670 6791 3437
22223 13282 38607
17191 7641 34558
19593 12369 3569
32600 23280 30045
49019 20415 30591
34233 3632 4008
34526 13550 15403
25409 7367 36861
34088 16004 15429
74252 4447 3296
28855 23343 15869
51904 8947 3098
65581 3774 36559
14267 3293 33183
56112 17582 15245
45190 16094 25527
36972 4874 3447
1001 6404 14776
51330 8207 37841
16777 16050 3817
57197 16828 31385
52794 19368 23918
61970 16613 7919
83704 6146 9065
40496 22979 31267
31393 3670 31597
60662 14574 3287
38028 8533 23041
73043 15982 12807
17558 5568 37110
72536 9970 4020
22209 8911 37141
62756 3758 2921
66482 4322 5261
61128 11806 38618
50945 19289 31585
78773 12688 5891
63417 5128 31112
66809 3846 4889
34570 9584 38078
31773 17512 26223
35620 21027 32680
74594 9451 34560
34034 9338 37803
73893 15620 33656
50629 15582 36305
79870 7924 36200
14894 20097 15962
21399 7114 4049
46168 22346 23173
16920 10329 6427
67401 12225 31669
75488 8476 36266
24627 11196 31882
67285 6713 11407
20172 18461 34014
15126 10652 2080
37073 8727 19703
5768 17455 9251
18591 5478 34752
25634 9332 2012
69229 2448 35648
9259 4878 22868
19573 12569 36471
24092 10913 2305
74888 4341 11753
73273 4598 12916
66558 7939 4939
49563 16777 40040
75937 6583 36469
24402 11051 34396
32274 14366 29252
25061 6758 3376
70075 6842 34507
24412 5182 10936
23746 3858 12835
34801 7387 24051
34859 7769 3492
35294 8082 19563
52071 9836 18412
63255 5919 30376
5561 20098 31297
47541 21429 28356
30038 7207 18056
41821 23174 11114
38637 7217 10805
23348 17033 11040
71475 16259 24199
22637 2125 38958
37881 3663 6102
40312 3804 8801
50764 4017 9993
37109 3721 7968
39413 3800 9113
44969 3853 8122
35931 3603 5352
42444 3878 9851
30073 9196 28016
25080 4178 4292
19153 8196 3981
12701 8139 5882
72215 5207 28341
34346 8619 31529
84826 5849 24460
41313 7708 32389
30120 9584 31087
21027 12613 2428
34987 8749 17954
32186 22599 31381
15864 7546 6532
615 10242 22298
73021 11950 37737
55397 12599 8196
55600 12777 10072
54481 11798 11511
52259 9853 26065
54911 12174 11779
52701 10240 9526
53010 10510 24348
56220 13320 10548
52802 10328 12099
53966 11347 26148
53848 11243 10965
53391 10844 16861
52484 10049 13086
55695 12860 12722
53136 10620 28892
54087 11452 21817
53211 10687 8840
53171 10651 18704
37123 15723 4107
57434 11454 2668
34548 9267 29985
22904 21882 12969
84181 9952 33368
75264 15453 29885
30078 3631 9258
35888 13867 3415
23897 11620 32873
6937 18175 11264
13747 5967 5670
54345 17473 7830
22273 12741 34304
52961 3635 4884
64309 16892 20749
16001 11992 9436
44444 8420 11629
70434 12953 4082
35410 6991 24395
64597 13108 38713
31231 6687 22283
50318 19470 9070
16362 9678 5092
83249 10537 8547
73240 4047 15379
75768 4031 17152
68666 4153 14782
30475 7805 9299
26852 5146 37103
12236 6386 35996
76568 11870 4180
79515 12308 34979
53034 15889 22989
74481 10543 3906
19454 9020 34558
15012 11754 8198
26087 4843 7643
64744 11531 2856
75065 5132 32160
65664 12685 8510
21640 18370 34240
50892 20290 20591
50244 3741 7547
42406 3625 5936
51107 3679 7151
45231 3569 5776
47161 3877 8300
39410 3686 6128
49617 3758 7626
44805 3526 5402
45798 3854 8000
52200 3789 8096
39153 6138 13393
34022 14797 23264
66145 6063 6645
43984 11831 37929
50843 17825 28311
21047 8656 11325
19167 9623 6328
29723 3727 29040
86340 4341 25777
65095 4210 17981
56744 4198 14447
61743 4205 15079
62958 4207 15697
59331 4202 16107
77681 4405 36979
6183 19964 10185
17873 5263 6328
10010 4707 21047
9962 4703 21805
32550 6173 12570
20637 16789 23516
67257 4930 7185
4741 18648 25971
28403 7959 29185
2098 16480 21882
65468 6502 36269
33052 13087 27314
12861 8629 38081
76207 15349 19583
82814 12445 27404
32774 12916 23661
32884 16045 36843
50461 4303 4341
20055 403 2118
19122 10087 5347
28149 3767 14958
2867 8842 33959
65668 3783 34826
73275 11443 33481
85048 8200 16797
19732 13208 37694
49820 16802 730
27962 3483 8221
28142 3592 9558
35901 3904 15716
35897 3906 16228
37925 3933 14014
33856 3863 13857
613 10761 18754
67936 4317 14138
71905 4824 13307
70365 4468 13852
38029 21823 32110
37502 21629 32249
37237 10970 8958
28192 22989 28749
6185 10418 35714
23962 3854 13424
26062 10822 21075
32274 17986 6133
35498 22093 9255
66564 3120 35306
83483 9734 7081
23513 8362 30064
33914 16490 27690
64873 6647 11455
67882 14644 3170
77156 13490 5483
32969 13759 16338
34175 14030 3425
48941 15246 16592
23542 15763 22174
49183 8288 3286
49695 7728 3405
78409 14764 16627
34648 8650 19924
24980 10051 3365
67388 4544 33503
84361 7332 26444
17459 5551 35937
36464 9769 12167
46607 18793 34266
66133 12828 6526
21578 8639 4916
84371 10521 30024
39797 6138 31441
22676 1760 8000
6961 18483 18119
69076 13105 33343
60819 8149 2650
59918 16852 26097
25980 22960 22888
17563 9299 34218
20676 20992 30304
27616 11035 2694
61092 7073 2864
17315 20808 22381
69789 4738 33919
33438 8273 37622
66696 6851 36169
33119 12957 12036
18379 9568 34558
23271 8934 6328
67977 3014 7185
43701 23279 20102
18813 8407 36488
34569 9381 24741
34292 6027 3031
39205 3962 24548
42181 4008 24717
45540 4063 24384
41426 3997 24765
40228 3978 24815
42138 4012 23718
40429 3976 26246
48573 12987 12789
85366 10441 12610
31627 9492 29461
34762 23976 26406
21299 13028 33268
49761 18126 6429
80266 7932 5081
22582 20956 31583
2494 16162 27364
68748 16365 32289
2700 17554 19756
50817 16642 2761
44900 13741 28636
35309 14085 31966
13846 16480 36203
68479 9551 7389
4399 16418 9120
45438 18090 34871
52110 16013 36530
24017 22490 19575
23929 16477 9276
56770 16498 14109
16112 1945 8677
28939 5988 38290
75924 15451 16345
34127 22197 9377
63252 7824 34688
55766 16814 14135
86823 10159 22679
30238 16836 4989
25746 6900 33589
23958 11930 38536
36900 7342 25603
44095 13223 25259
26152 7483 32390
75497 15189 34129
26066 6415 32364
85662 10369 11340
38049 17095 5249
13774 8199 6299
14668 6783 4848
74393 15265 6381
48497 21361 19554
19563 10062 3711
41903 8048 8735
37525 7729 37610
2850 15039 30755
58673 5911 3437
70133 760 34032
10032 17710 8492
35945 10544 3024
18287 6515 36198
22507 3654 37465
26882 6566 3952
80038 12152 6433
79056 14304 10049
75201 7511 9248
13658 7193 34364
67661 10661 7331
23026 15380 8457
46944 14863 26893
42571 17494 5679
69605 10063 34664
52634 18518 9336
26253 10247 8367
33413 15803 36978
70861 3923 33656
43769 10519 37926
21995 21999 20798
17707 4434 35641
52850 14908 37380
57473 16973 33045
71910 13663 2948
71402 15508 5327
80733 13807 26682
428 9159 12011
81192 13381 11830
16530 15293 37731
42327 23456 26503
44816 9601 21563
26999 3822 9455
69246 7529 11315
33592 9224 3371
26392 13561 2849
71665 12270 35475
24107 13796 14258
41268 22925 9919
41361 23430 11607
21266 17070 36498
755 6425 19836
24360 22525 24259
11568 5121 6807
53507 18153 31788
11531 4457 29343
12463 4397 28174
22143 1183 32375
67987 4905 5453
15604 2823 33984
26477 9066 17626
65465 3652 7389
84872 8221 17284
55562 3507 5448
56836 3658 6504
64796 4210 21951
56920 4198 18746
63533 4208 20789
62944 4207 19683
57814 4198 19471
48435 14081 33242
50805 18987 37196
64541 2871 34322
71770 15904 34710
28945 3750 12908
52650 15904 8597
12682 17798 7979
28185 9419 21628
32740 7039 23469
85869 5852 21789
41240 23615 27035
37434 9000 31208
66076 12786 5097
35431 24111 24889
58812 15583 18680
19973 8398 5414
13789 4941 1808
76471 14749 34415
64506 4208 25730
59235 4202 22692
57879 4200 24066
64144 4208 23597
62484 4206 24875
10771 16807 6396
48155 8513 37814
44288 14407 28429
51845 9942 23221
20174 4398 36598
35501 11751 13341
33982 24151 20531
70278 4770 33818
70005 16441 24562
8170 16167 6433
36028 6138 10504
12109 18946 12726
23929 5522 29693
24743 5103 29953
66893 4079 35986
25341 22802 18790
41831 5838 3431
20058 21069 12187
32718 16861 29337
34304 14446 32186
64451 2897 5315
70515 8870 7304
37395 10036 18140
14118 9587 34765
30230 3468 5981
56988 16226 28243
531 9998 16931
65419 5950 4762
75025 8274 35543
53577 17129 26160
71445 4573 7389
20166 6143 35064
17999 8821 4520
5917 21830 14521
37409 7189 30561
38131 6138 9998
16781 9345 35854
79941 14251 17591
69097 9796 34898
7201 5611 21981
57325 5603 3645
28214 11201 38342
18554 1050 2096
63193 5857 5019
12861 18955 29740
69300 2651 7389
65327 9017 32751
38662 6138 23858
12151 19440 17553
84482 7451 28458
2302 22121 23026
23836 15619 17705
44270 6138 9851
18117 7903 34218
17386 6483 29761
85357 11586 22219
33519 12078 30251
83278 11682 32090
47197 9952 37969
40314 24003 19883
26195 9145 16274
24937 10835 25783
23650 12618 25305
39169 20292 7783
86754 10318 19645
19977 8103 34558
31040 22709 10293
24986 10242 33739
18231 13205 8611
35304 7398 24828
64507 11589 9280
18353 12909 6694
72872 11549 34355
14922 11588 9199
3174 15681 9927
12391 18374 31599
12977 6502 35669
11969 5740 34721
64898 5865 12085
66491 4717 13628
49517 16541 31420
75896 4583 6045
22927 12525 5612
40613 8263 20947
2831 16522 15508
13229 9573 7736
49197 8507 20701
48503 8531 21841
57933 16916 20336
24423 14837 30333
66980 9138 33452
57228 16864 13772
69256 4996 27933
66210 4920 27730
5425 21687 28105
82133 10545 30342
27845 7973 29834
24545 22515 15796
52701 19361 16166
61205 16754 30495
67896 16628 26838
53053 4188 18124
51957 4169 15441
53225 4190 17289
46590 4086 17808
49088 4125 16863
20866 21679 24174
72531 8132 8238
15928 11180 36493
25816 17073 5026
22909 15380 37943
84631 6682 14258
75780 4645 6942
71113 12721 32610
23146 8650 34558
46586 21416 10177
85389 10791 27069
63956 9407 2888
31991 16274 16304
50266 3514 35223
52390 3875 32307
62054 8694 5294
76071 3693 36943
8008 5410 18665
41070 23856 22685
27755 21259 32380
51677 12389 38112
46784 9770 20359
64599 8204 33968
72992 10632 34997
73484 7689 10395
3906 16135 30710
35382 7127 10729
74439 15769 23925
25212 10825 8343
84711 11854 25559
22025 7843 6352
50303 15468 4034
82094 12788 31663
48480 17680 29268
18977 5324 6040
54701 16349 33735
42650 6138 30421
47309 21600 13386
26405 6401 8267
84703 6345 22071
83767 12503 25127
3449 13237 6912
69418 2763 36060
46650 15803 26213
24710 3661 7845
72063 4684 33452
68218 10475 6051
78637 3873 28503
79923 3842 29314
48810 21192 17800
41119 6138 10783
45640 18156 6269
51472 10651 5648
41790 7522 8700
19985 19314 33111
16301 7980 29761
6690 11282 35923
58031 17093 31444
54307 11641 27419
57747 14646 15430
55502 12673 29361
56294 13352 33464
57637 14546 18223
57569 14469 27009
54586 11889 24338
54657 11941 29333
57011 13982 28968
54669 11957 26410
53431 10875 30801
57848 14719 23269
57133 14094 25801
53824 11221 28261
57199 14153 24935
28805 14892 3472
7478 5189 7927
86189 4298 27277
35899 24234 21587
69180 420 5791
16394 20249 13359
65891 7449 7235
72775 4362 27163
71449 5548 28771
81766 10628 11308
46945 9776 19440
23837 12359 24109
21706 15311 24044
21372 6332 35134
82391 12884 10425
70754 12160 5933
73683 3255 3199
31985 16263 14581
29294 14095 37825
27402 23194 19055
86443 5536 25652
24598 22159 11871
68451 12395 2586
15896 11681 4965
5890 6404 32695
72803 10967 35738
67274 8670 29864
69144 16537 24313
24431 22398 26478
66178 8213 4567
65520 9539 35260
77037 10301 37444
620 11047 18149
43574 22044 31997
23242 12368 3154
32679 6788 17647
29207 9013 23517
25592 8661 32983
21233 6826 29761
20524 21624 22558
39509 3746 31928
48152 3877 31889
43710 3718 32704
42947 3729 32509
41968 3694 32693
41107 3708 32446
40753 3840 31271
44722 3800 32116
68595 9250 34974
6052 18416 15302
28847 8744 38465
1441 15078 22068
5880 18435 20871
5689 15761 7076
36280 7106 15387
22921 13628 16053
10273 5196 36911
44631 8358 9643
41263 20283 7753
11093 16168 35683
48887 4103 13549
46075 4068 13854
50234 4075 12003
51692 4103 12147
26003 9100 9987
46425 18941 6899
34377 9699 15518
10184 7088 3728
36608 23203 31003
68353 8312 34158
74261 10324 8790
18463 7629 34558
1713 5614 24119
10157 17690 32629
41397 14855 3730
28716 7786 25789
70367 16107 34432
52735 19446 20423
22969 21833 28649
67557 16675 17833
80637 11382 34767
72253 9675 4630
15620 14499 3141
55748 16253 5062
69727 2323 34922
51506 3670 36262
76000 4223 35985
27644 23212 17554
48408 14942 5847
83540 12723 20076
46715 13628 27333
71619 16220 22431
51151 20167 22034
25692 6932 8748
69226 16493 27400
66955 9373 7389
73998 3417 9135
64779 13998 2678
20327 17194 9734
67324 6946 5981
27268 9056 27750
14734 9982 1746
46526 18251 29951
23264 13153 24722
21771 15222 24658
44961 15100 29558
12503 6897 31745
9553 18275 32402
62478 7372 35771
72714 11006 8407
86493 8256 22063
62411 16711 10147
63785 11360 35795
28443 23281 25147
13142 9413 31890
86371 5852 17641
63743 2821 33492
22864 17398 5466
15010 11753 32261
64731 16823 14652
14488 3240 32292
3001 17889 17137
24809 13613 18705
41679 3758 4334
52308 17342 5851
57519 15008 32775
58629 3715 4941
56717 3535 5065
6099 15977 33988
34891 9155 8762
36986 6841 9506
26855 5242 5902
2706 16606 27822
21458 8672 37055
25272 10369 12933
20369 7009 4527
17747 17078 36295
71068 985 32851
47801 18894 6952
36182 12036 24086
38075 6138 30926
28415 3683 11484
24573 15100 31496
34852 12449 3126
11657 4551 18124
9939 4741 17576
24259 8087 10617
25134 12786 19409
71228 6233 34802
4009 5758 13356
71046 9812 33610
44409 8439 12651
60474 17055 27385
38125 7196 10812
61219 5980 37929
81342 3831 30117
19807 12208 4692
21581 20699 9424
37762 7512 9319
70873 7681 6312
53907 4163 13100
53727 4186 13799
53047 4079 10799
24017 8135 30329
80895 13891 21429
28056 9016 15772
28810 7741 19783
26694 8662 20519
26055 8941 17367
30051 7201 18648
27905 8135 18959
63171 6518 33639
27083 7144 2648
51399 8580 21273
50894 18284 34379
48858 14833 28557
9554 18727 23372
6344 5821 32537
44428 14968 27341
22398 5106 4068
62709 6662 8642
64638 16873 21631
38461 23837 12799
48676 11542 22396
48685 11469 21840
57983 14858 22179
49922 18617 37912
61518 6274 37628
64764 6147 33166
14438 10312 35300
37452 9831 32526
29616 9140 16053
52324 13838 37814
15653 2781 3227
21488 15614 27437
64981 6723 33452
12450 19516 23976
54539 16350 25455
63472 3842 2787
34523 14556 3564
41718 15352 3939
25201 9405 8005
45242 22562 13683
39157 8837 20752
47124 21933 17536
82337 10540 7840
62671 10004 34105
36802 6138 26198
78666 14670 22508
33399 24099 18736
26843 7175 7310
22867 3197 36118
73204 15705 6824
69721 7326 4578
57575 16294 22823
20193 10876 37408
80451 13246 7705
74842 6350 35656
5905 5672 23929
72786 16028 20750
31163 19395 7264
15027 3786 38444
70971 12520 31376
19563 10853 34354
18459 20844 13915
61165 17067 25356
47384 15084 37272
16914 9772 37273
65153 16821 15259
62197 16828 12542
65361 13434 2379
18636 6218 36541
6958 17370 8824
43555 5705 37608
5673 6977 31309
25266 6808 36132
26097 14492 38018
66590 16753 24656
50688 11292 38184
494 10758 14364
79284 14446 25617
32920 18258 30395
75757 3865 11849
77755 3896 12927
75365 7724 8429
3061 22177 23816
68511 14592 3169
20389 3818 34354
65527 7229 36434
29064 21076 32485
22886 5923 6328
34486 9555 10575
31272 23514 13553
72194 4002 7389
37788 24114 16100
65172 16567 32786
61956 8436 35234
22644 6366 29761
23933 15453 22318
55794 14325 3388
51323 10022 11340
50899 10384 12164
50267 10924 16606
86397 10180 12604
72405 5503 33452
48429 14003 25428
65833 15348 37195
65026 1288 9444
80480 3403 34978
12435 7091 32301
18952 13208 3202
42268 23345 13211
55692 7144 3409
52049 17253 3403
2700 17557 20545
16294 3714 5132
36630 7084 17634
49844 15943 18565
2171 6723 32815
31593 9411 28656
14017 5018 2793
80191 11810 34786
69671 12681 9531
44109 7915 9018
23687 12560 13438
22304 14471 12465
22964 3811 37741
7140 16625 7490
16951 10142 34354
23466 7986 6532
75386 15572 23054
22269 7023 37058
83770 11903 10458
70380 623 6749
31695 23925 19863
64964 12199 32408
26550 8428 34909
5896 18435 20280
48309 21010 28963
23155 2801 5191
81749 4146 34710
33387 18483 10679
19872 941 5354
68808 6545 34546
48481 13390 17371
29426 7072 2654
75506 8141 5448
79859 3749 10152
79723 3563 8726
83128 3843 10791
78132 3604 9091
79011 3527 8466
18531 9304 35604
73882 11487 2835
84358 12151 24628
57112 15034 33497
71615 16010 7957
60418 16863 20088
30222 3473 34996
39881 6138 13017
68014 7628 29718
25191 12107 12118
5307 21314 10961
69425 4076 36158
83058 12872 24596
52185 19239 12517
22968 17611 12048
57469 16809 13053
86778 8396 25896
16520 4053 3476
44925 22341 30146
79641 3606 35795
84976 7144 24031
25861 9379 12615
24690 10594 11130
22636 13202 10142
32544 23691 13793
37110 8144 20983
61072 4670 5906
16534 5894 33654
57642 16965 23428
69692 3821 35761
25358 13489 31360
44554 13220 25784
18654 4048 27374
19614 4013 26621
33294 23971 25193
50663 20142 14038
84733 8223 20417
20872 16535 3872
16217 3449 36780
9636 18749 18874
63461 16883 16003
788 7577 9979
82147 10483 6754
22704 10771 3549
73465 14631 36467
24770 7424 3426
68356 218 37875
69343 10544 36153
20130 6188 11325
46821 10650 3089
81659 13584 21296
42330 23567 23613
66632 6234 6099
36295 24225 22505
13850 19934 20984
61393 5718 32640
20234 16717 4019
21682 20698 31652
71384 8822 5392
20003 5268 36632
20159 1350 4013
49138 17690 29958
10409 9932 37402
24702 3850 22880
61746 17021 16281
303 10477 11798
48328 4018 11222
44863 3958 11118
39805 3933 12861
45549 3962 10877
40856 3908 11596
41879 3927 11636
72233 3040 35006
83855 10490 8592
41418 23440 29124
34888 8119 13014
70071 7954 6251
63641 9777 31670
18506 9241 11325
55655 16804 12683
84538 11590 12862
66372 1364 38209
3514 5702 19029
2006 14629 12817
48305 11820 26786
51662 9957 33025
81143 11118 29969
32326 14184 13961
82275 7704 6178
32150 16496 29042
29688 6510 38378
15646 12207 37150
49198 20976 16532
12237 17330 34008
41511 15109 37270
46242 9764 3160
75449 5514 5714
37223 6138 29878
36600 23850 28866
19153 4713 6201
33073 16940 25743
13631 18735 9731
79055 3907 27511
82304 3875 24924
26360 6021 5633
31588 19224 33963
59621 16802 15365
51149 16364 32514
27509 3035 36606
29541 3789 13769
71185 9739 4647
1211 14685 23841
68763 15442 36667
26873 5840 37823
78306 11828 36020
46579 22190 21394
26974 9614 8898
41024 7611 26229
15654 9861 35019
63366 5468 37880
83909 12499 17538
12657 19500 25026
24571 3693 34249
25586 11283 16739
45975 21639 31086
66550 12153 31862
47332 8089 3366
19544 5791 5763
75105 8807 6804
85121 11753 19100
48991 20279 31193
69587 12547 37693
25321 7504 38805
42705 8514 9177
7632 18543 19510
31266 9605 10983
72992 15946 10902
66303 12824 38348
51009 19718 11929
24471 11477 14537
74063 3749 3046
19968 9569 11325
613 11151 22584
38237 6672 23781
48643 12929 33452
85246 5263 30714
39974 19043 34278
79306 14472 23811
34776 8528 14952
44557 6138 24862
56452 6299 3620
15894 20138 13558
31173 9359 17812
68884 9128 5921
52027 19009 10471
24818 21553 31336
12998 19391 13929
83730 12192 29362
81047 13292 31914
23249 7805 7232
81995 8041 33384
38113 18114 34994
37937 20335 33269
67777 12937 9378
10996 18106 9004
74225 3378 34308
83532 11238 13726
46347 12105 37969
70283 4849 7185
67349 5274 33987
75540 5445 32239
19619 11123 3370
82318 6764 32466
54582 12575 38166
73728 11043 7336
23746 6491 34558
28517 7541 2621
34207 10898 2954
20399 13170 32899
4361 5813 17941
38008 19287 7018
37931 21496 8743
43949 23171 25584
48540 14972 34416
24893 8777 10119
28589 9502 9660
3053 21992 15308
37524 9420 37908
13669 11665 2709
23117 22244 23983
53080 18101 8352
41062 7506 10464
30163 9190 8974
63593 5745 11103
67610 8098 34501
4822 19113 31046
85438 8587 10056
36239 10131 12822
82576 8308 8573
29869 7581 32108
24243 20960 8892
68891 8460 5849
16651 2058 32575
52124 15811 35506
81327 6135 35246
82750 13073 22998
41433 7756 14287
49811 16570 29122
66600 12679 2957
69441 13075 38385
70208 12981 35718
16294 10008 37531
57184 16490 17555
40228 23816 26414
59596 7377 2889
36105 10329 13946
27563 9023 13072
49584 16575 5055
25065 10920 35550
719 14105 30183
56584 16765 17671
17070 8693 34399
60604 16770 31412
71755 4097 22774
70856 4097 24169
69395 4131 23706
75351 4002 24746
76114 3990 24487
69856 4138 22423
76895 3979 24217
73670 4028 25257
57437 10755 2609
50824 16432 23259
13474 4348 20701
12075 4505 19869
4533 18678 26686
22507 6777 4790
58300 3732 35221
61710 7531 35742
4802 19834 10256
84588 6342 24725
84500 6599 23118
48970 15764 20885
22409 13664 2531
78327 14777 18394
19163 10678 37229
42663 8387 24212
31983 6941 37646
35923 7004 24469
26538 7922 9116
43736 8353 10527
23357 15999 14534
65643 1292 6303
28130 9241 38477
40654 6138 28113
15234 2391 8549
33742 11277 14831
15701 3764 5020
19179 21175 25433
20399 13165 5003
34484 14051 30415
21689 1306 8489
23871 3870 23914
23416 3879 25541
32722 16761 14265
66171 5353 33452
25493 10390 34517
19304 7206 11325
28448 6678 10597
49208 15526 7079
69242 884 5435
20935 1318 35524
33815 12203 23194
4457 7257 31455
18426 6518 4841
49338 11749 10731
16027 17070 35978
62017 16456 35806
32735 23056 10495
25292 8132 39005
33501 17290 27775
13303 9711 32457
70668 5717 5968
5435 10194 5697
72177 9516 36589
34172 6806 37601
40495 6156 32046
84986 6291 20332
50943 16095 37098
74688 9227 32419
45877 7662 3463
45167 16376 28160
82218 11117 7220
75850 8126 37787
51822 9832 38136
65276 7009 4716
70815 7614 35174
69325 16467 13078
620 10629 21800
53351 16091 5731
14034 19633 27447
29020 3778 25170
70074 7198 29652
76194 3474 7214
19116 9125 6030
54888 18387 22641
17394 18838 8095
58150 4200 21032
55487 4196 21282
61319 4205 21117
54521 4194 21651
56065 4197 21584
70866 8430 35924
29002 7658 23090
46421 4811 3932
62540 7684 33520
62756 5678 7527
3172 15206 9469
69152 1985 34956
29896 23640 19438
82456 3898 12137
68039 6303 34600
71514 5342 35539
64407 6392 5933
69536 16354 9906
74827 3604 9441
72611 1739 35127
75218 7360 38329
52654 12116 2901
24713 17562 35130
52111 6578 3716
74997 4048 19313
74640 4054 17582
69338 4152 15448
67357 4188 18345
82919 3903 19907
73981 4067 19073
75828 4033 19352
69898 4140 17915
453 12389 23123
19839 21317 25958
29818 8457 8876
25455 11506 13044
57003 16896 32169
58997 16944 9736
77054 3524 32583
75331 7238 8569
29444 7113 12722
63187 9706 31400
8550 8388 36700
24663 6769 10499
57627 16821 27075
19104 13253 9052
21293 9384 36195
56476 17621 20911
25558 3626 3507
35074 10183 3000
74717 3608 3022
28205 16188 4168
41451 4408 37209
39618 13615 37692
68814 2484 4891
68063 4205 7525
47936 15652 4128
154 8771 25499
18642 4053 24688
22522 3908 24461
17607 4094 23144
35325 24027 15022
17632 4751 6328
64198 16697 30884
32582 13447 9441
33270 4517 3405
50275 10918 34492
67280 16505 9541
33252 19398 7210
39161 6387 3497
12621 7869 36321
33326 12414 29372
32881 9482 16167
51450 9962 28783
1188 11241 8837
75772 13467 4654
70769 4137 7185
8488 19298 9215
7825 18354 12912
69829 4977 6908
12973 19306 13378
35821 11759 23051
64941 11011 33381
64960 12324 33197
28469 16536 4542
62608 5488 32251
9562 5766 36755
21508 12752 6370
83405 11073 27398
44964 10098 37919
44354 16732 5017
44039 7696 17745
14529 15164 37296
23258 7861 36858
22403 12730 6001
54860 3585 34982
53659 3522 35110
32770 3579 37136
27208 20892 8473
24991 12542 25618
24975 14214 38218
35787 24206 18187
67318 13069 33238
36575 3923 17721
32615 3857 17957
35048 3896 17541
33984 3881 18190
49246 17851 41585
21466 7037 35773
80789 13520 9511
35055 7968 25225
53248 9839 2875
41660 7279 37529
33942 10734 26320
52282 17330 35235
48869 21181 18620
44067 7156 3582
71077 16031 34222
50811 10261 26048
73647 7688 30782
8180 17424 8422
23356 2977 3270
44501 8794 21889
19123 8017 11325
44533 18093 6175
79521 14385 24621
44206 14202 26419
25961 9816 8688
52421 4096 29530
52176 4051 30769
51759 4060 30314
44618 3940 30427
50417 4063 29546
48064 3994 30440
19849 5342 28996
22656 5823 29671
19286 826 38878
50209 18722 40854
11231 4536 9968
28320 13197 2963
67661 16672 22850
59267 16988 13234
3440 16539 10007
70568 16357 19304
73620 2574 33230
27899 21616 9224
1731 15726 21565
41295 23689 15055
78817 14435 30349
704 11292 25499
24888 7381 5043
79892 3462 33145
83422 3688 31509
79335 3320 34226
78681 3455 33164
77017 3204 35051
6101 18446 24337
66348 9233 11037
32969 13681 10936
7387 10453 4915
62177 7757 31944
7629 18264 28992
33570 17431 11368
24243 15930 3554
63708 10593 32497
81147 13694 25850
73568 2782 7197
69074 9171 36109
14788 7591 10600
22738 17654 31765
23378 22280 16584
42050 7175 17969
26770 8167 30259
65882 6835 5449
15968 4155 17990
19103 4039 18188
18309 4065 16119
20837 3975 17789
18923 3656 34354
20931 9207 35088
12296 6565 32972
67311 15112 3653
37400 14409 37526
38366 24202 18687
48773 21221 22602
19239 20988 27753
31954 8330 30673
36736 7080 14165
36914 7063 25118
54385 17871 30707
18003 1184 8244
66751 16742 16666
44884 6953 16538
69449 5417 5079
71340 4086 33656
68418 5682 5162
14395 19871 26362
9033 6122 4455
25989 22983 19568
33659 12985 23183
56840 16678 18303
48456 13403 18566
34364 15082 32004
25257 11131 32766
69507 13070 7244
72599 9505 10286
11096 4598 14988
13747 4305 15442
14322 9853 8479
83241 4003 33472
63563 4652 31259
51878 7341 37630
68395 16591 26543
80471 13831 12903
18791 10053 34218
25856 10827 15355
23925 14623 28603
30637 19932 33392
25444 22664 14937
80679 13703 11039
63506 9405 5256
6008 7722 35602
68370 10645 30124
33735 10463 31108
63028 16979 20776
4731 8477 6126
81096 13804 18156
41653 16538 4720
15301 10757 31229
15657 3153 38435
85591 6379 29097
45222 12881 3235
2424 16581 26345
71045 6832 34541
26664 8054 36692
75636 4127 7685
38060 6895 37547
33677 13147 8807
14957 5675 11917
16604 5522 12022
14888 5028 12664
49719 10723 38118
76096 3374 35074
85109 10349 30251
74879 9242 8748
29605 3802 20575
40251 21307 32542
49185 21008 24154
66010 12591 37781
40638 7918 24301
6450 5260 7134
40775 7831 32335
22722 18390 28500
82872 7322 32261
18524 13209 37155
32953 8132 28262
71643 11333 3068
44055 11586 3145
13869 10544 36583
50563 8461 21972
51015 8446 18834
453 11136 19220
62714 6461 10006
46738 21240 31355
65973 13021 38673
37057 10858 31599
85943 7374 29486
34903 8474 10440
11241 19125 24739
48988 13884 5577
55616 16517 25270
61807 7969 34084
59913 16804 25484
67522 6839 34974
31746 17527 13350
4569 22021 19096
49761 10799 27903
63020 16920 24895
42829 8241 16487
43147 14807 37376
20991 7421 4767
6435 9151 5325
17259 6927 3585
72420 3897 8089
16492 4257 6328
19946 20588 9971
82124 9388 35072
3234 16579 14207
23266 4712 6328
38335 17567 35418
14250 4684 33252
72494 10078 31001
65620 3258 34998
43583 8304 15762
70160 3126 33452
43179 6138 31121
32698 23997 23835
11777 18089 32300
34719 13237 25905
33664 17189 5340
23598 5231 6880
75717 15276 9221
8054 9260 4616
31369 5643 2918
76922 15191 18604
15266 11372 32872
20208 776 38838
84829 8253 18308
34466 13966 26346
72330 7156 36267
83383 9513 7807
41113 6775 32301
18829 4044 15685
16326 4135 13991
20321 3988 14731
44733 22011 9724
34865 12981 27971
11293 8705 3314
3578 17513 29747
25278 22302 29257
5164 18443 20843
23644 3317 36259
66837 6446 29570
80070 11454 8572
34413 9391 12996
11307 18293 9893
70790 6511 34841
63229 6341 5912
40712 11234 3151
58755 4201 25310
56213 4197 26039
60147 4203 26634
55303 4196 26824
55129 4194 25557
33588 11875 25281
66463 16726 27248
45005 6283 37419
60489 4114 11015
59602 4201 14159
58431 4196 14004
59508 4126 11483
58025 4110 10965
57632 4196 14037
30538 9446 30118
36930 7348 27445
64560 10551 4482
13621 19803 16596
18397 13182 35719
71453 3492 5630
32977 8687 18986
36967 8745 8466
50077 18302 34495
30163 7160 26068
17430 3965 36970
72956 8550 8089
47527 21651 15012
85253 5852 26437
296 12380 13523
4343 18502 27638
49117 17584 40471
43457 6138 14308
2461 17065 22861
23504 8836 7232
43571 7766 23228
8043 16682 7202
74702 15716 17347
15472 12083 5360
70354 3398 7389
27968 8161 28131
26085 8953 25173
30638 6952 27698
19899 5619 35915
18409 13677 2485
48518 14650 6622
50037 9225 37982
751 6701 26213
65031 12323 35666
49765 19408 38494
58311 15119 17925
52818 15875 22088
75530 10475 3137
15626 3875 37346
2693 13501 7384
9329 18396 29235
37163 3925 25353
36494 3923 22891
36074 3910 24535
29663 9262 22957
23019 12415 1976
66988 11945 2658
25797 16423 37009
44168 21243 32562
68134 1864 5640
37536 8855 16914
85255 8254 22891
56463 4273 4286
62262 9194 35835
41704 6138 30274
27416 22956 27214
71022 8305 33316
50691 18923 33488
31954 6383 13619
30193 7147 14831
28460 23138 13716
65904 3637 4758
33503 16712 10035
29641 7650 3136
29968 3812 22909
48727 14991 6978
32290 14309 11047
25277 11732 16487
39714 7629 8968
66819 14547 2989
73167 7821 7552
40096 3979 16648
48177 4104 14066
42569 4013 14587
47144 4090 14797
40464 3986 17045
51502 4162 14331
40223 3971 13854
23525 9831 7054
20553 7074 36196
37219 12045 3107
79239 8786 36553
6555 5746 30985
12225 4388 29783
10076 9204 3778
14299 20053 20042
33288 12563 15321
25181 9701 31120
23671 12443 29937
22505 13934 30401
16771 13906 2575
48654 14898 12209
49348 16809 38321
27946 3763 15498
23433 3877 13662
15944 18469 8106
24820 12810 12964
69724 11020 30566
75912 10997 3457
84121 6020 31866
28448 8843 27172
50774 10615 35359
40289 7729 3477
20517 21573 16626
64083 5325 29250
71973 15145 36298
24172 2849 37100
32655 6613 28549
540 12882 14350
45042 8000 13693
388 12330 11098
71826 8046 6873
69571 5066 35479
19406 20508 10238
20833 13105 3614
69215 11096 36264
34610 13809 8829
21526 11724 10141
8899 4878 28507
69219 10368 7389
3830 16392 10964
61488 6138 5781
24028 8648 7232
34443 14161 14589
55409 11010 2704
15816 6735 35671
31045 3691 10651
31219 3792 13018
37037 3621 4183
56764 3702 34325
53217 4017 31297
57569 4040 31559
19964 17630 5974
18192 6440 3930
68801 13121 34004
84623 6972 14990
29693 22075 9513
15752 8750 33506
35614 7077 12054
22730 12616 37749
23849 10336 5009
25695 4301 28034
69794 4039 34339
52645 17439 26407
35067 23839 29273
32995 16807 13847
16584 9276 35212
17658 7379 5666
51608 17871 6374
62599 13673 38441
74802 9573 6107
59413 3912 34255
32020 3489 4443
52401 19578 18093
26906 9391 32205
3130 7258 34108
61325 5462 7391
15060 10025 10079
59570 17137 27824
24811 3768 39097
18449 3720 6532
23131 7091 4801
17866 4246 34558
7286 13398 35662
15839 6155 35379
62498 9488 32333
4641 5740 28431
74305 11054 2890
33950 20954 32703
48654 17569 28807
69968 4528 5108
67535 16655 14269
73333 5587 30443
74858 14315 4936
72159 15963 32730
29387 9068 17019
1823 14505 31962
42131 23571 16104
19947 21146 27989
9311 18080 31637
941 13121 31415
19769 11039 30114
19812 18174 34230
75486 6429 8327
15618 3128 4540
47245 21864 16876
86254 5852 28566
66591 798 9391
37601 6138 15340
36978 6138 12844
9920 4574 34046
85634 10347 10185
15805 7900 29925
86860 9288 14177
56274 17281 27850
86437 5852 21598
45788 16096 31019
19997 12293 9892
57378 10911 38468
32943 8172 25085
20612 13139 34677
80000 11162 5691
65190 6242 5940
77871 12977 5521
41354 13954 37625
66550 1269 36701
44937 11111 37957
20929 17757 6226
67250 6223 5688
18271 14094 38566
12764 18467 9417
7000 5531 24672
69476 12444 8409
20427 17456 29188
25456 6330 38802
68255 7923 4879
53404 3996 9648
56699 4004 9373
56151 3858 8340
27903 16891 36158
74926 9847 37360
17852 20900 24312
54158 15867 19398
620 13199 20874
24578 11127 12201
23799 12098 11696
18992 8427 29761
33131 5366 3091
26302 19803 7670
53101 19200 24448
70799 8449 34993
18131 5660 4282
41326 13989 3469
685 11962 14837
26369 9537 8980
66535 3200 7389
20093 8726 4638
50022 14669 3606
66512 11374 31095
25836 6442 39114
66877 816 2756
4302 17100 31819
26209 5263 31512
36975 24207 23745
66477 9483 35465
48430 13610 7309
34247 24143 22826
48453 14287 19082
48473 14500 32238
5975 18317 28115
46074 11749 3092
32993 8855 22533
54639 16332 7181
19539 10837 6532
52086 18421 33359
77576 14737 32313
53914 18872 19013
51694 16399 23339
66891 12193 8125
23913 15343 23549
20854 18171 14968
3679 5942 7310
53989 7777 37800
20649 13155 8705
58716 15480 20847
4705 22128 22499
32961 8414 23581
10110 18191 30988
43306 7882 17885
68363 5407 36496
63623 14481 38018
40256 7198 12649
36676 23747 11432
16571 6129 11325
26139 9338 7961
12596 9175 2920
72110 7975 7389
74201 2493 8287
27505 8130 8893
51235 15874 8455
16214 12534 5172
2548 17292 21247
70745 4943 35492
13814 5944 33542
26528 12155 2680
83065 12268 9513
36689 19501 7182
33156 3781 29082
34813 3827 28625
53667 16331 31714
65931 9656 33421
50676 16604 36294
50205 16610 3081
17948 7378 5157
86894 8868 14448
75345 15550 19694
21097 15231 31659
7357 9025 4917
73986 4004 26715
79543 3916 25535
82335 3883 23591
75230 3979 27052
68307 8367 7153
77225 3835 37002
24615 11387 2990
86568 5852 20932
68989 1083 6019
84357 7264 14468
25833 9905 5300
1229 7042 9696
18599 6744 35312
2294 16562 25650
25781 16786 36518
19429 13255 8111
50539 16136 35469
17571 20874 18832
19144 5533 3711
453 10154 18071
34237 9829 8885
41677 8064 32364
10703 18853 26626
65625 7727 32850
1847 15853 17601
84929 5851 25432
31672 6363 11737
33150 16965 11664
