ply
format ascii 1.0
element vertex 2834
property float x
property float y
property float z
end_header
6940 24540 32002
42909 23823 14960
5854 24133 9829
19204 18944 28943
4643 13250 31221
76359 6969 35280
75858 6493 32831
76579 6237 35359
79753 12916 26301
12043 18510 33588
44051 7758 16808
79359 10158 11131
28483 17469 20317
84701 3050 8948
53213 17218 7651
15365 19300 14575
78901 10403 7630
38543 4652 28753
35114 4648 31381
31574 3432 37024
41430 7017 10568
49953 7493 34758
27884 13439 32141
48351 11580 13200
78819 13101 13950
7319 15052 6185
4309 10830 23284
4833 7481 28410
32116 17970 14928
79666 12370 16587
63543 11166 33530
6176 13292 29993
78243 10554 6565
27791 17155 32983
2615 6898 31496
34269 4936 7356
13324 3668 3143
4967 16562 8883
42423 8777 8514
29989 11268 5734
26935 10253 37917
76646 12848 33417
51030 3071 33290
48629 3082 27929
63931 14333 30513
2111 6472 17156
46019 15554 6408
79126 10253 13469
80670 11764 13115
21087 18801 30447
79675 3483 10990
7098 16543 32261
70513 4218 4490
7887 12784 5625
2968 14701 29266
25640 18026 23885
59825 16088 32008
66540 13625 31376
66111 14300 31445
66205 12941 31413
73912 4753 33798
41226 8733 12731
4966 14528 32076
55567 17130 16676
11028 18881 14312
40713 11810 33569
84512 10852 17093
2932 4863 23119
28520 16790 7005
14039 15368 36957
77786 10976 19243
71697 14995 11255
10595 10146 36155
6797 9176 7042
6458 9544 7435
34894 7828 9436
52486 17396 16810
38949 11836 21528
33983 15986 37154
19099 17360 36368
67851 13682 37570
10754 18289 31953
13723 3307 8448
2978 13286 11940
25163 18759 32757
42500 7948 7992
17112 18863 7926
80028 10808 16657
2819 5138 12861
42010 23931 13396
76155 11112 35469
80092 11598 12953
80955 12784 15111
31192 9572 17764
49227 10349 33154
80390 11479 8431
34583 17984 33594
45681 6937 2791
6014 15669 30433
43492 3920 37014
15517 1164 8448
21631 1098 5075
20951 13397 32018
66734 15932 12142
72953 14170 4778
51816 17429 18039
67498 12713 7876
84215 7896 14231
53157 17302 21530
62566 4773 35634
2010 10310 24023
71104 15026 29721
24788 21676 12022
22509 619 33748
37853 10074 26567
38185 10933 32728
44146 17600 14535
31005 11130 21754
31084 21139 31980
12764 11157 37144
10243 7818 4580
10115 5980 4958
72070 13203 2641
71135 533 36797
78367 11698 32939
15612 11933 7723
41643 7866 33194
54649 6742 27592
55198 8879 30741
49626 5519 36663
7782 12641 34197
80458 5448 29486
5779 12597 35699
23632 18849 28862
3005 17743 15379
6937 12437 5723
42292 24110 16391
36098 7827 33670
18432 12085 32329
19090 12927 35211
21726 12823 35380
21924 12119 33115
26892 3732 33656
45830 17265 6880
57459 16113 4906
79783 10688 21074
7431 18621 23759
59825 16916 14268
75927 8113 6671
65358 8425 5344
47165 4666 26974
49149 4703 26248
31659 18179 33863
79859 11920 10974
78870 10441 32626
29333 13706 34088
25998 15660 13028
4135 13003 6099
20669 4582 35194
5196 16047 10466
11671 4873 35263
36554 14261 2421
57171 10626 6896
4999 9902 10024
77003 3130 36522
67778 3463 5508
74028 2936 5636
79049 3320 29838
7440 16859 8856
20719 11122 36412
35170 8989 30558
7239 18738 24870
20486 18729 6460
38716 4645 7406
37537 4647 8155
44182 15604 31648
46474 12321 25610
63965 16220 11482
38372 3115 5224
37824 3116 4261
37878 10025 30899
58257 15439 4228
2634 17969 22593
12784 19322 6460
69840 15413 32373
51466 4828 12293
55638 6156 36901
10137 18458 33601
20630 15249 37566
45326 15903 22283
48288 15287 34042
13968 15005 3031
83247 11754 24212
66850 11493 8853
71676 12580 9949
71521 11525 9938
69869 13916 9496
84963 10014 14871
80879 9922 10680
40840 13898 37583
41964 8307 32965
62895 14346 3640
53744 16992 9793
70003 179 31967
48421 12375 6193
47614 18111 976
55875 12308 9348
49807 11244 8265
17981 751 36145
76957 12522 32880
47357 10862 28338
41410 23993 31760
77224 12925 6553
24426 22958 13630
42977 3101 27427
41817 3105 29140
13350 19277 18999
68631 8181 36084
44725 24447 19243
3772 24686 7156
24212 18134 30957
28389 11905 12311
6451 7003 8719
7374 6881 7608
2461 24415 19040
74856 14077 33383
68313 12463 36767
27298 13672 29175
52446 4886 27796
27147 17504 5416
82965 9127 25560
2601 13479 23907
78408 9678 27606
79486 10639 27027
5435 13504 11792
32672 18601 30637
20294 12785 36942
56482 14129 19859
82871 6421 21483
74368 11332 34496
25217 18730 25432
45093 5655 15089
28729 14490 4409
36360 11943 8472
17173 7773 4940
54276 16854 7220
14652 13870 21679
14671 12776 21318
72657 14381 29928
40860 15126 37323
46577 17653 8490
62666 9984 35617
73237 9164 29944
54277 16794 33608
9983 7438 35788
36491 11209 14054
82740 10704 11676
18306 6604 5333
81512 8285 21323
84502 7345 28347
30081 23001 28937
44924 13666 29581
43698 9357 23449
63053 9068 32136
62018 6899 33393
62350 7499 32836
24630 18610 9338
48968 4822 32459
44669 4850 29432
45787 4850 31858
44316 4857 30275
47200 4833 31466
4536 14004 25782
34373 4656 13430
36181 4663 17489
73658 13609 13690
6631 10945 32611
52700 4908 13988
16242 19306 29024
64940 15756 31682
77579 10534 5996
47017 17591 12177
69790 4462 3415
13751 15499 8181
33778 7789 2623
1916 12464 31430
62217 16118 32925
76410 13923 11430
4159 16008 7018
42487 10968 21852
77109 10752 14015
76643 10752 19402
74278 10752 14371
74491 10752 15851
81683 6904 30217
77957 10193 6348
43370 7039 37282
49308 4704 27201
54119 4792 26348
9268 18457 29301
14329 17517 31526
77763 13535 28640
37043 6898 14347
36921 6888 13513
29027 18034 5913
24565 21782 27309
32707 15684 25811
79152 13333 26332
75802 6128 6704
12431 12986 37356
80474 11304 25722
23496 1593 4085
14022 17579 9013
14566 2956 32829
1298 12387 29215
42811 8889 14174
49374 3089 24809
12688 8278 4518
12056 5711 5619
13940 9599 7256
76218 4667 33787
48102 18878 7009
4479 17356 30622
26243 6581 31962
74565 3208 20811
74326 3205 21348
75765 3219 25253
69456 3155 26177
69467 3156 22111
75008 3211 28961
64805 3110 20830
71728 3178 25641
71109 3172 25658
71562 3177 23380
68874 3150 24339
24447 18532 34681
56938 16503 11292
56359 11604 7358
57542 12713 7516
61966 13771 8107
62728 14709 8208
27210 18235 4789
83902 4515 18051
64017 3002 7248
37170 10025 16731
74070 10064 4289
67081 11918 37602
8750 4389 7508
8308 4450 8330
30524 18734 11677
13491 6598 33820
13177 4787 8215
72219 15101 26832
77225 9399 5984
44552 13967 7907
3830 19393 24876
55398 13863 11578
10552 8976 3754
43933 14657 31222
5381 14406 5266
20735 18535 27033
11542 18980 24695
9844 4223 33437
16917 9073 35194
4839 16695 7023
40342 10087 17341
80118 7178 28342
5246 17942 12583
10230 18552 29515
48135 15766 5980
50315 10473 34449
38187 4112 2931
79387 10542 11667
70363 12805 4440
53103 4958 9229
47968 9341 2622
70034 4261 36697
18362 2066 4261
70670 7372 4958
27934 8297 2389
51110 14556 3963
3583 24305 15868
36755 11285 12936
13048 5834 7956
65515 11877 32664
68630 12072 33108
69044 11767 32272
66564 12046 33093
37857 9332 7135
57530 17358 22495
16815 18461 35076
76639 14107 13863
24936 20357 28911
84292 7884 17180
38074 7430 12975
40996 7283 10081
71692 15159 16017
74909 5951 31513
24523 11617 6243
32018 4645 30367
72627 9209 2655
14650 13806 31689
32853 12914 9808
31777 18618 12342
50251 11150 12417
3573 24734 29622
42811 25328 20919
14656 2435 8390
76580 12430 7198
43799 24587 13141
34097 11132 7376
74683 13323 5369
4348 7332 16249
4048 10912 19305
49939 17696 11545
31259 4659 15977
46680 3091 16283
45852 3093 18140
50575 3067 5821
33938 14829 13166
4339 5092 6998
32956 14380 7753
65121 1231 34067
39682 11748 6555
23821 12081 33288
67809 15768 26456
38409 12135 21944
45631 7123 24422
53519 16849 34108
51822 17424 22088
49651 11044 14165
9276 12668 35190
42629 8503 16700
25160 16015 2809
51392 16826 12000
60411 3623 3711
76474 9779 4690
21773 1270 3333
76675 10972 5868
85993 3940 14964
76551 11120 16875
22243 17434 27175
18408 13369 36754
31737 18961 32186
9000 4330 31005
9171 4305 26033
11127 4000 27769
9086 4318 25215
52110 17164 11136
13694 14135 37324
31945 15464 36893
1069 24642 15275
2256 15219 22447
21194 8356 4940
81435 12000 24495
43929 3102 17948
36808 3121 4703
44472 14397 28351
56138 12564 2875
13202 6285 31962
35566 6009 9256
12409 18510 20515
23745 18876 22229
30487 19528 14147
66553 16093 15430
45263 9932 22840
25730 17158 30458
8071 12119 5218
45606 8252 15191
57435 8088 3012
55897 14503 3361
54784 15215 16820
13156 16206 3617
29583 12655 35550
44688 13971 17187
10631 8644 36010
9372 6113 34476
45512 6533 23276
38456 5597 31470
36567 5612 24387
37466 5605 32056
47704 16501 5670
31368 5548 17688
4699 25244 15332
40301 4645 7495
44521 4649 9994
76854 12117 29398
29706 14644 33030
29515 9659 23891
46678 17445 33455
58470 17181 24590
20562 4280 36695
76535 14331 17478
48543 17464 26980
42998 13329 19301
31533 11257 18655
77468 13245 31654
11969 16117 3776
24003 11490 31962
79291 10875 28457
79838 4128 30344
45815 9880 2536
81009 12831 16176
38883 3117 9951
34581 3131 5096
41628 3109 15042
69286 10289 9623
67870 10393 9191
14634 14721 29904
14634 14651 28725
49400 18033 14500
67573 5283 36385
76277 14312 15613
41400 13945 33602
79187 4784 29438
78674 4219 31194
3199 13227 13863
53731 17189 18689
48044 11983 13385
80827 12974 18367
70852 6582 4683
45049 11328 2472
45746 6958 27739
55109 14474 13266
32267 18109 8569
48594 13137 33625
53460 7771 37181
29338 23839 14167
33452 3142 23002
33202 3142 26989
27448 3163 29135
30126 3154 21813
35299 3134 23431
34176 3138 25849
29242 3156 29857
27679 3162 26572
27339 3165 22771
30434 3153 23756
27078 3166 20422
32452 3145 24266
36179 3131 22299
34233 3138 24554
28667 3158 27338
73615 7849 29164
27455 13625 24590
68080 15494 33840
4196 12338 35351
62634 10066 5175
59698 3071 33549
55903 3078 29832
57041 3076 30852
57524 3075 29649
4549 5447 28661
41084 7247 25526
42913 7242 25389
7467 14620 5100
37838 9571 37545
44511 10205 37527
54297 12348 2787
54117 11860 32330
55138 12116 32462
50610 4816 13202
49248 4789 14736
10825 13253 8495
13708 12654 8189
9265 16415 8646
71843 15169 13226
17392 168 5996
79053 10479 6304
72106 1006 34263
9492 4251 21288
6238 4758 27683
5975 4801 28820
7274 4597 25655
78539 3974 3951
32063 14829 6698
80443 11437 17643
65267 13185 29900
81798 11850 28831
18108 454 4725
40758 7699 24199
24223 1762 31962
14606 17971 35467
41868 14877 37387
37386 12100 33701
38943 6057 35766
70625 1061 2531
37134 5601 14992
38194 5592 16187
36404 5607 15895
18994 4806 4133
51145 15407 36485
33130 15532 2630
15844 800 4486
63490 9810 36341
9486 15440 4128
4013 7381 5079
23542 2128 6456
3676 6795 29031
51415 3083 28145
48829 9164 6007
12923 18950 26042
44043 3098 14102
44735 3095 14039
43528 3098 11895
44389 3091 8042
55905 13976 26485
5702 16641 33580
44816 9010 29832
70086 15343 28466
51683 10540 36794
23457 21867 29091
65915 1016 3793
23822 11444 34976
25128 18674 18076
52404 4887 30588
32580 14162 15358
63807 8760 9520
82734 7102 26595
33165 16003 9353
34345 3132 35205
39213 3116 29731
40554 3112 27279
13794 3387 3076
39228 17089 3915
79077 3885 30408
80671 11195 16817
22664 1300 32430
80275 11997 8761
81474 10263 31102
32289 18749 23234
65054 11042 8977
22929 1473 36748
1088 7582 21773
55086 17207 23791
6691 18573 20454
78967 13055 22834
79912 6854 30041
4227 16621 7773
79522 13209 29431
18353 9520 35470
47546 7748 5905
34957 9540 25712
50736 14628 35585
3146 10734 30212
77705 7119 33628
77911 8591 33005
69076 4325 5160
70080 3160 8426
61134 3071 13090
64115 3101 12873
64663 3108 16220
68565 3146 10675
61350 3074 14626
65300 3112 9492
65220 3112 10227
62865 3088 10978
66949 3130 13710
71759 3178 11046
63342 3093 12229
65121 3111 8905
82022 12326 22431
29992 10456 4081
3696 14100 27312
18498 4862 36551
81132 7477 11768
4146 24210 27768
81908 12346 20033
68874 15540 32591
79949 10251 29943
43642 8994 10540
33962 12951 32083
73260 3205 29596
37558 6303 36272
51740 4743 29444
50894 4728 30297
50347 4718 30424
60845 12844 7958
65017 13201 8530
65081 12618 8548
51995 16199 28906
5538 9791 31623
21508 18935 31204
45941 9450 22789
76718 4440 34012
79327 13004 30686
2660 6178 13878
86677 3635 26097
36383 3124 34913
45504 15148 12392
28930 15890 4874
3727 13379 11206
53039 16415 4598
7052 13363 7742
51563 16094 36059
50775 17753 14299
48612 16131 5206
55929 16855 26291
6476 12617 34005
60081 14771 36240
63835 8146 37089
82477 7504 8533
58491 17118 25413
31483 4655 25697
11274 9801 2365
79708 9044 12241
51124 16817 28891
28523 14839 35702
6807 13614 35600
51302 3083 12199
29436 8685 26688
42360 10649 32517
76092 10408 7610
13700 3559 7233
54943 13647 9766
21870 1126 7247
63884 16038 33565
31058 3149 7173
50523 6147 3803
69545 10987 32128
75428 6887 32128
67432 9908 32128
74768 4814 32128
72315 7752 32128
72670 9007 32128
29556 14450 21508
32621 8465 6088
54654 10886 23038
54432 5812 23988
54018 6842 23780
84039 4635 12153
55227 12017 14452
51935 11423 15907
54270 11757 16305
4347 23721 9045
1635 24405 14097
48471 7942 5916
35482 6208 12613
84494 5054 27420
46340 7169 28099
59757 10989 13180
34564 17830 4631
74719 9595 5628
31838 6070 35995
47770 16461 35935
75414 13031 8000
28428 14223 36574
79556 12885 28295
26644 7741 37678
80032 3935 10342
11976 19073 18680
4589 24654 22620
12422 12339 14953
12214 12339 16019
13454 12339 14989
0 25545 24879
10335 18265 8878
25671 9562 31962
37135 11221 37644
37630 7039 22292
40287 7008 30877
17886 12778 36773
48811 16121 34816
73852 14167 34258
46553 6266 30532
54234 5448 9555
54127 5194 7447
81336 6523 22465
72893 1768 5956
13393 9246 32100
29538 9812 36706
72717 6780 3968
37553 17288 4020
52138 13541 2795
20627 8123 34852
11667 7042 2563
6108 25066 13109
40049 7273 32292
41968 7302 29288
72185 15038 31772
41627 23782 13976
49612 10951 33444
15966 6466 35274
16803 952 6281
62470 16759 22190
75102 3813 5215
695 11411 13508
69688 7897 3988
64372 11804 34500
76312 8291 3822
76010 13133 6675
25230 17689 28663
52003 8291 16662
53815 7725 16494
50128 7897 16651
51177 9253 16872
70999 14947 5850
7646 8479 6675
31574 7848 18010
26242 18551 20704
3460 13180 9400
63504 7700 5168
32841 7844 33038
46432 4656 14482
42832 4653 12007
71494 441 7859
28018 17829 6288
81584 9922 21689
12802 6282 3760
15883 12360 35132
69565 108 32224
82134 2885 6505
52651 17916 10275
8128 15796 34542
81387 5968 21161
79052 7454 30564
79891 9256 29026
42537 25160 13267
76030 14367 24718
45381 3085 6606
44939 3092 12416
14313 2045 3143
43214 9617 23855
32355 19474 31518
79256 9481 4978
52412 10543 37412
6522 16944 9888
5951 25253 18411
56610 12910 2925
56650 12629 29666
31807 17191 33128
2221 14656 20037
24187 2371 33916
31085 20089 14455
52339 6331 3056
28657 3159 13454
27608 3163 16458
27207 3164 14387
41434 3112 19459
33806 3140 17286
29988 3155 18678
39253 3120 17901
27628 3162 11106
43426 3105 19477
32939 3143 18708
27103 3165 15548
38286 3124 18383
34115 3138 12823
29965 3153 11753
29548 3156 16388
27599 3162 12306
18804 18958 15139
37561 17802 6483
42284 6971 9772
53197 5269 3466
20214 18744 24960
84560 6734 27006
78206 10132 10336
63633 5385 9606
13478 8119 3521
43338 14288 2573
46633 15543 6300
12364 18965 26144
57154 15762 26047
81053 11309 12881
40556 11337 19536
17094 828 3076
37009 10160 15150
12361 17915 11712
7641 6916 3725
81937 12263 15357
45699 8019 9398
43461 12086 19683
14366 17772 28610
30048 3184 3151
14627 15273 17956
14646 14214 17071
2263 13682 17061
2616 13322 25258
13928 10063 31962
34112 14879 33435
30292 10836 35493
31191 9403 5024
3829 12796 25118
13577 19178 25626
32897 13281 8628
51563 17548 13634
4412 13099 17733
20578 514 6082
45817 12274 32101
41770 7003 34656
72954 12939 35671
43930 5838 16874
39357 5043 17511
41990 4886 17075
33902 6754 36032
65723 14369 3356
8836 18733 15114
29676 7404 29174
29090 16848 35031
43469 8429 33047
28658 12205 22313
34669 5883 36792
32500 18140 17318
50256 4451 36814
77619 11318 31399
34704 9428 28755
4940 9992 10857
4670 9857 13360
4699 10962 13207
27700 17388 3667
40161 8769 24934
7549 8033 7103
42507 6153 35612
53777 4789 15258
51311 4742 13914
52071 4755 13446
22320 18800 17995
5861 18287 15425
66186 16084 14449
77449 12419 10114
30638 6847 37244
7356 6903 29480
14632 15027 19097
22853 7696 3715
20130 10277 32128
18968 10059 32128
22662 9329 32128
24913 8009 32128
23187 10509 32128
50535 11880 2636
13485 8148 33541
4482 13682 33516
81076 3721 16142
57354 17131 12818
15372 19553 20652
29381 10905 32482
36001 8629 7978
34912 7398 11940
32922 15868 24133
52019 17374 20352
34158 11611 2369
25836 16586 34137
69626 8730 35290
4604 5961 13847
4329 6692 16565
43155 4949 7203
41264 5698 7096
2541 13667 26708
53577 17075 30087
12923 18582 5716
43381 7020 16043
40455 7014 9893
51108 16981 6160
66201 548 5866
28484 18152 4875
33156 16108 16735
45151 14231 2623
27885 15562 37231
14966 17107 36228
83753 11549 18819
77038 12921 30880
75809 11457 3393
30327 20403 9772
44672 3087 35152
46128 3083 32726
77987 5453 7245
77214 5298 5036
79862 5941 7148
2662 7119 32586
66013 15746 6320
50701 8728 37289
11714 18464 31320
75829 12864 35207
68301 10232 5082
1091 8516 11698
57622 13190 17440
41091 10284 37581
64960 12125 33353
38261 7332 33227
13927 14313 31948
47572 15776 6313
52000 11309 29882
53602 11700 28794
59061 15920 8030
16351 12106 33154
12786 8379 3143
36262 6853 26138
79719 7848 10813
79582 6999 10818
78628 3446 35985
20018 18273 10117
15274 17465 10051
39403 7674 7676
45518 5659 31884
5772 18413 20270
27160 18237 19077
45396 7177 13487
14153 12704 2139
19341 13522 34043
23667 19094 20182
52016 17524 14917
2687 13384 17512
17466 4166 36695
30568 5344 23933
30093 6503 25972
1829 12885 14387
51441 11976 6761
79191 3345 15030
20647 18805 17802
86965 3483 25522
51872 3079 10117
72501 12826 33884
40917 11278 18837
48560 17365 30713
37518 9305 15938
17274 6911 4133
44945 5679 4461
66302 15550 8798
46457 12091 10622
32974 7078 4260
21835 565 5008
41951 24395 13720
81080 4686 13195
22046 12532 34651
5746 4862 31300
70937 7467 35562
2805 16751 13238
71470 738 3119
52156 16850 14730
31914 16308 2974
44659 6944 12834
2556 13152 22466
85033 7940 17221
5745 13480 5495
5088 24811 20943
35819 13399 33725
86858 3677 22291
57558 16425 32342
34685 13911 9741
82563 10233 28893
75561 2963 34166
85369 8842 26089
82916 2911 32095
36013 12034 37655
19893 4922 36277
53627 4810 10418
53576 4872 8656
21589 18694 21590
13103 7960 6467
67967 13508 3818
30626 13487 33936
45715 6645 10115
42040 23793 31852
55538 4470 3490
29452 8529 15762
51886 11479 12214
33303 15095 32285
5949 10984 3851
31915 18182 24930
77319 14114 22467
24741 9602 6675
34395 14438 23478
64617 4340 37731
42807 12671 13155
15389 2009 34289
54893 3070 34492
43243 6883 14483
43848 6911 13436
9379 17522 8573
2870 15982 28785
15122 11580 6004
6710 16363 30443
81199 4548 22799
33820 11951 29216
36362 10846 21890
56664 16458 30775
4454 25206 19973
50177 14809 3100
80212 11057 15497
2484 16878 16777
50633 6196 36183
32252 8827 33585
74846 10497 32640
45744 16039 3499
60514 16288 8585
46802 6103 4111
37289 6065 4370
20573 4063 5215
73146 12454 4939
39835 8299 8078
41597 5292 3116
30967 22065 31625
21582 12299 6260
74734 7069 3191
21681 18495 34768
45528 13281 24113
73929 13577 35763
12795 6136 3143
36180 12413 15756
79565 9584 30988
25737 18750 7265
31315 19421 30178
68669 464 32999
78411 13408 11171
35132 13353 9302
82897 8567 26191
14287 3803 30136
22236 3401 26945
19475 3541 27734
25359 3241 31930
24042 3308 25910
19265 3551 28518
23753 3323 29961
20518 3488 26590
24735 3275 24034
25357 3242 26958
16157 3708 30117
23884 3318 24375
26629 3179 22764
24319 3296 22828
23664 12369 3360
69285 8469 35002
79755 6748 28035
53146 15685 27755
33652 17661 4212
80064 11638 26738
83133 9269 16537
25441 17028 25613
29631 10993 17634
13159 4822 36396
4435 18039 15756
32991 3140 33565
38990 3118 26977
15931 12384 37266
54142 4828 14401
55092 8385 11295
54673 6869 11805
6548 17139 5929
60688 16320 31171
34754 14797 27479
31239 3148 32620
68895 5603 36279
19347 12838 3197
24863 22092 29576
33956 3137 8436
41912 3110 16797
37972 17895 6075
41502 6718 34260
21084 18660 34374
5331 13312 34549
42057 8724 29386
78647 12916 15954
1478 25210 22321
31541 19351 11071
1206 12665 23585
45407 13268 27955
32793 10009 33152
46089 15041 14180
80147 5980 9686
37626 17922 34017
29397 8767 11262
50444 11995 27008
36812 11852 16222
44650 4656 26062
43545 4657 25757
41637 4655 27141
79243 6383 31475
26903 17107 32479
29470 3468 37134
76561 10208 9445
65433 2020 8504
27744 13312 23654
25697 8542 7490
38033 6292 3748
32205 9794 22261
30200 11259 34069
29790 17941 34370
17686 8246 5215
9949 17813 34782
13302 4227 5291
42674 9804 7105
67704 8465 36627
33835 11569 16227
85786 7996 21117
80043 10289 30647
49506 17917 11251
6479 23700 5569
61400 6130 5135
61485 5913 5865
62142 7645 6098
45189 16377 17038
24350 19961 21696
59195 7383 37009
30505 8796 36096
32653 18664 25607
79062 3366 26875
44329 14535 6792
82203 12328 20828
24098 6873 3715
11538 11850 3723
4353 13365 10033
81270 8243 30070
41759 6410 4520
40301 4645 32380
46277 4645 32022
45816 6990 30123
57745 3075 26991
52795 3085 22470
59895 3072 25670
47542 3093 20422
52768 3085 23624
58624 3073 30209
55805 3079 25350
57162 3078 20605
60522 3071 23960
57076 3077 25639
48466 3093 20864
50889 3088 21894
56183 3079 21803
55572 3080 21557
77246 10545 4301
74097 10861 4297
79833 7081 8374
19980 18761 14771
73082 14683 32998
66902 12599 34554
49575 4704 9333
46917 4659 11600
46610 4651 9549
48698 5314 3708
28913 17529 6872
41013 7373 28165
34971 9896 16322
8310 18767 15927
68190 13007 4406
2543 24409 19561
10758 4067 6026
6027 13350 31969
68176 7119 36371
4660 7807 26725
2689 14859 12342
74195 9516 4318
3483 13243 31492
40734 15424 2840
8023 16117 5224
4947 17865 28239
42499 11020 37600
73980 4428 31051
67374 6912 37777
10027 9389 35974
4536 20084 15767
39404 8787 13933
20022 569 7148
1901 12815 12387
31519 17654 7767
79685 3689 10007
12256 18499 20037
26992 14153 28451
59855 14760 3845
63512 15883 32047
77727 11376 33107
39356 5622 3240
78707 4878 8871
79546 7364 10426
73077 10968 4093
34669 15839 32820
10566 13279 3429
42746 23489 26646
84376 4403 23220
47737 14971 33815
10622 19002 21875
25281 4418 3143
82571 4716 14302
74388 10197 5799
7635 4659 34732
37066 11622 26023
60011 10912 26381
6299 4682 7217
34085 15314 16817
4021 17853 26214
70355 5637 4233
5921 13340 7161
74666 10446 33526
34966 14545 29621
64097 9234 9279
74855 12010 2979
68307 12878 8576
36330 6432 27210
42077 25114 26550
56898 13794 18885
66902 7318 36772
48952 9687 23301
80853 11822 11016
42488 7056 7488
82052 10847 10257
49819 5771 3779
3832 11421 10219
43073 22655 32755
19983 4628 4940
71208 598 36269
36294 12705 29135
48988 12445 33781
60910 12904 3023
43128 22503 9128
80405 6423 30022
50622 14130 4530
70698 5888 3172
38953 13684 6363
32785 4871 2844
4454 15314 11944
25372 6321 7869
40265 7488 33746
52007 17518 23024
5869 13717 31393
48765 15458 3343
78691 13006 8546
74806 7063 30308
5437 18335 21991
43949 6723 35183
66733 4382 38602
30792 19972 26539
18501 7259 36277
24021 19048 21123
73657 5663 29793
29069 16553 36935
35561 13826 30638
18093 13211 31962
29003 10849 36925
1434 6464 10197
46337 16596 36032
15122 18300 35161
63489 8242 36224
72852 11612 32585
72055 12660 34955
70375 2825 3467
79687 5834 8701
54482 16998 8009
77774 13433 11496
53558 3082 28607
22195 18302 17170
5038 4882 13861
24118 18842 18591
14050 13082 2803
4115 6709 21050
4392 5723 23599
4317 5346 22459
36980 9267 22423
4703 12697 14706
43974 7354 17121
81567 8587 19377
70915 10939 36188
42688 4876 30908
7723 12339 26822
9054 12339 25110
12656 12339 22782
12924 12339 24362
64382 10817 7295
47133 18085 2914
9666 13174 3577
34167 11835 24921
8139 13458 34556
80784 11308 22964
81764 12150 24017
57681 6887 36959
4572 11263 25687
4899 10932 28770
4896 11583 28667
43513 5590 3193
30347 22405 25375
39352 11590 33100
74391 14579 27389
40980 12517 33008
24593 21430 15393
36498 12707 33053
71575 13186 2960
45334 5453 36638
14655 13675 20596
42552 7270 24451
28393 11657 30607
19052 11404 36695
76112 13524 33695
69324 14241 37142
56699 3071 6132
8488 18363 29282
30438 13078 18861
41103 13555 32791
45096 6603 35244
84499 8132 10699
14613 15703 8603
31034 11745 2368
12358 18003 13277
14918 12036 5165
19058 12789 35960
41001 15688 6801
57701 10862 7888
38704 9271 32909
3057 25104 18847
30211 7019 36758
22712 18865 12903
7357 18379 27755
77183 11953 31917
6552 14436 29613
32312 15439 33276
63872 1916 5371
32947 17729 26901
1589 11603 19432
79011 3304 23537
84652 4374 20186
65928 12369 36029
50781 17241 11983
36315 11563 15173
43520 23779 12416
77467 13944 15094
37471 9205 11167
2301 5677 23250
29465 9800 16584
13021 9662 6608
45921 7559 6579
17899 12791 34169
6729 18570 21452
80953 11839 25210
20506 619 36510
13057 8266 33777
21318 12633 36079
6882 12812 9539
22364 18941 32745
75732 12163 5232
46999 18342 11641
53840 15649 25431
41994 5895 3535
85329 7960 19387
69858 14497 3525
69008 12665 37963
27773 13182 15497
46133 11154 7178
24519 10698 37104
46203 12317 30207
7650 15204 33760
73159 1497 34168
43617 5853 16236
75004 13294 6751
32331 4653 12766
14636 14645 11271
14652 13774 10998
14674 12596 12239
32401 18171 23362
43812 11678 2450
21228 12851 33999
45439 9004 24933
41706 24569 12405
29422 15029 18631
78490 12189 8257
1986 6566 21574
33430 17858 10070
84045 7363 28923
73382 14794 16649
51657 3087 18022
59596 3072 14229
57758 3076 19250
57281 3077 18836
51031 3088 19629
60533 3070 12162
54615 3081 13555
57178 3076 13519
59724 3071 11906
55630 3079 13966
54039 3082 16195
52472 3086 19372
59922 3072 14935
60732 3068 8264
77977 12370 32829
40585 4662 16862
39468 4659 15216
43025 4658 15153
9356 11874 35907
46537 5974 33122
48960 9928 33510
37098 10584 23503
76605 3227 18036
4065 16152 28895
42566 25180 18340
23191 18930 18949
41822 7191 22737
43151 6560 23020
40490 5036 22770
5814 11374 36187
61915 7509 5478
50531 13044 28203
48017 3080 29238
43514 16841 3994
9911 7077 4503
76988 9507 3246
76595 8301 36086
30874 12211 6985
5506 19252 25115
25111 3423 33937
43185 8769 25026
59128 3068 4764
12264 18231 26779
30219 11998 6000
67984 16035 26923
36636 3468 3187
31671 6999 22204
48844 11471 2576
57254 15384 27948
28409 14817 37533
80807 2792 33843
55540 17633 23935
18180 3922 4940
76126 12598 4968
73767 14435 6822
63701 10965 6613
49653 11087 32953
79812 10149 10883
50812 17279 9106
22042 17515 23292
64271 2810 35590
79901 9062 28100
32658 19358 24229
29079 3155 4075
44092 10982 19140
30504 19850 12801
53508 11500 24337
55579 12006 25240
54428 11872 27139
54157 11707 25411
11115 4624 5416
40828 6299 4218
47806 10065 16566
81088 8529 27382
45457 3235 36523
34779 12178 33576
41713 8917 12335
39937 8324 7559
81364 5254 19234
29964 14492 19699
1338 4511 30144
39289 8781 9386
50521 12458 34861
16181 12305 4223
76753 13425 32814
29355 12809 32717
15910 19428 12941
8606 9179 34558
9357 8629 35285
74966 11001 36938
71233 9949 34284
13858 9144 3505
30076 11162 37658
22897 19231 8990
76835 14271 18513
56975 16491 20802
15133 19038 10548
17801 6188 4273
86088 3202 12776
78529 3257 9977
5603 14237 6007
46549 7953 33236
23678 12065 6784
14564 8937 36730
30088 20074 12375
43359 3099 28137
41882 3102 32417
44158 3091 33136
44861 3097 22625
37600 10336 22508
62601 6295 8193
24114 18128 4392
3839 15758 11567
70008 8037 35741
36378 7168 25024
67569 1139 36870
15313 12443 4040
45785 20249 8015
37972 7098 2692
22197 12764 3143
43512 8876 28855
46835 17107 5855
6541 24493 30613
33941 17083 24224
24940 10894 6662
48038 18006 38265
37938 11210 19595
2449 8742 33418
55506 10084 32636
54746 7278 30785
54134 4999 29046
25353 20026 24834
43531 24034 26070
42433 5440 36941
7487 10745 33376
8315 9030 33903
8147 8080 33614
15538 11667 4991
1809 12660 29181
23613 18965 16289
50245 9970 34179
33978 11261 28515
23956 18818 27879
2305 16533 20586
70590 15051 9803
36847 11524 8086
4782 16427 9768
36673 5813 32963
43961 9113 16469
46375 7628 32429
83353 7089 10888
33589 3137 6892
44555 6817 5039
45034 8459 16285
11838 4778 7621
75740 10136 34063
6197 15219 30963
40525 5571 36748
73326 14252 34607
64068 2065 4406
70781 13144 4070
518 11109 24894
41104 24408 23629
38235 9288 26931
34622 11768 32905
11283 17799 31909
78007 3307 16170
81096 5156 33462
47489 8215 33324
27257 13717 10618
27789 12833 10226
10770 17327 31626
42421 8571 37449
13341 9101 3076
42560 24375 15562
25333 5554 6798
49513 13566 37347
76183 13082 8109
74414 2313 34230
31827 20858 25167
43822 9156 17557
34316 12495 2363
44097 13776 6748
61722 7826 36095
41473 8700 9866
23016 6499 35194
14008 6114 3781
6014 24565 11747
48196 12381 33655
38498 6208 7939
13723 4526 34137
69257 475 2966
47245 19529 7189
55220 7081 37026
81880 10272 9689
49519 11303 23942
33668 15800 15504
40211 3107 4998
41126 3103 5829
33280 11379 20857
63419 9797 35241
66492 2602 38831
30587 12429 33017
38215 7407 25259
36945 7503 25611
5364 16693 6765
4264 13964 6390
46281 12519 32773
81152 7190 25905
62654 12098 29455
43803 23790 11393
16604 9237 4940
69798 13012 35844
42606 4652 11545
40822 4649 9611
41795 4651 11034
51766 10094 2966
63085 4600 7010
46972 17694 18128
62094 9117 3365
12374 18074 14615
31371 10464 6232
34597 14452 10535
6849 18582 18301
21671 8873 35470
39897 10837 2402
6444 15614 5388
69140 11087 30716
68885 12142 30801
70283 13632 30512
79254 12155 28389
72702 12465 29921
42684 8687 26158
29773 12859 5450
41736 8488 23637
5490 10059 10067
47318 3081 10110
45276 3096 18375
48123 3075 6588
5805 24607 33001
37711 9373 16483
30395 5826 15985
30641 4796 12855
4501 16526 9263
24036 5033 36421
25181 4837 5420
38875 15703 37117
43202 3105 17737
33179 12138 14766
28956 5301 37406
659 24833 22169
54188 6833 7544
22745 11859 3844
35281 7765 5959
83377 7422 30294
35642 12571 14812
79281 3880 11625
6632 15430 4900
34012 3134 34423
22228 17482 13126
66506 16211 21690
77123 14105 24162
6860 5786 4114
41799 7033 23380
30850 19029 15616
9675 18368 30488
14353 19355 19667
38513 4656 26861
36542 4659 25148
31472 9313 32953
25754 8149 4011
1205 9436 29591
69095 575 4417
75572 10442 37263
48857 10633 6912
79547 8811 9825
35771 9740 2464
43521 25192 17483
3328 24775 11733
48979 12327 6134
61141 11317 2864
24382 22254 10484
15429 2478 36998
48416 11483 6901
77591 6093 3378
19001 18918 11296
34409 7651 5878
44565 15372 18202
80668 10193 7301
70748 15429 22074
25860 7952 35132
68193 7557 36070
29424 9187 37003
40468 8642 2545
5562 25437 24406
27418 16449 7238
35355 7997 27300
68762 6784 36461
33040 18267 34424
73439 1240 34968
30705 20714 28709
3274 15105 27800
68644 366 3341
42757 7017 32573
42980 7017 31669
44130 7020 32012
4195 15185 9696
81402 10067 10958
58856 12336 20783
18954 19024 10808
73193 7636 2529
41467 4780 16274
44589 11043 17587
49252 17758 29748
22195 9884 35329
56272 11744 28568
56272 13525 17581
56272 13693 9041
56272 15405 10649
56272 12574 17122
56272 12320 10865
56272 11532 11991
56272 14389 15157
56272 14246 17152
32973 6281 7263
428 24967 13194
27641 13770 23048
44727 8119 16764
46163 19000 40232
57006 16549 12522
35748 13052 16964
79891 11819 8078
77450 13032 14045
12592 13030 31805
7624 12884 31272
9451 15536 31481
17327 5337 36579
36731 5487 3021
54622 16828 10405
13009 18918 13023
14801 10725 33419
26240 16014 31915
19389 13249 31962
83204 8489 21781
56094 3078 10938
56518 3077 10307
52073 3085 14101
53362 3083 12589
28432 14130 21976
31382 5081 7403
74999 8174 4574
81466 10209 28666
27994 16025 36820
70023 4256 7983
61965 4922 7983
67707 7413 7983
70703 3447 7983
70900 4476 7983
70066 6732 7983
65590 6321 7983
65212 8369 7983
74771 4211 7983
68271 8477 7983
26521 15370 37492
64465 11949 5759
8123 15198 31333
81205 11680 30605
20508 124 3815
73395 11210 6310
72475 1286 33893
66014 10612 4427
32940 6410 4252
45423 20082 6257
28846 18012 6655
76528 10389 31450
46387 17884 10132
26882 4570 34714
1456 6507 29582
39549 15115 6630
34984 13522 32897
48453 3088 25732
55063 3068 35317
50762 3082 28797
43271 8788 31849
66365 13348 37588
3838 25135 23692
69501 388 33667
69658 12884 37563
4269 4717 16025
32554 16965 13164
49421 8815 37333
5740 8119 31499
68246 581 7056
43274 13071 14200
34300 10985 37638
42899 10813 21376
11010 10549 2445
4760 12698 29026
4422 15808 6600
70415 10846 3956
36650 7388 17927
35839 6761 17850
74874 11146 3379
15541 1629 7738
71312 15235 12749
79811 12360 8587
82038 5418 25688
34803 13922 15132
5633 10731 36167
30190 7922 32579
82916 6865 23974
71236 15327 22198
26909 17290 7618
46175 20783 32895
25260 8034 7656
58234 11162 2900
77098 8910 5521
55991 3076 8309
7033 13889 34177
55056 11555 33665
17976 9880 35194
45298 6898 32026
36740 15165 33399
31911 4518 37302
9852 18230 31571
77653 13629 10731
68776 12721 35674
46224 13564 13359
28513 15326 18330
43159 4808 32876
39321 5632 32995
73071 8398 34943
82622 4788 19585
32928 11195 7150
53615 3079 29942
46338 12238 29202
35082 3134 30103
44653 8997 15118
5303 5387 31224
11986 14256 3194
33487 18119 5973
5857 8433 4009
45318 11994 19761
34459 17697 26465
25394 10390 34431
82230 4563 7613
41716 23078 30746
35974 6548 5186
61219 16188 34085
40849 7017 27025
67495 510 34078
45250 7173 11870
44127 7185 15070
22065 18092 35763
2714 13280 28449
14863 18987 29832
74958 8674 3047
74325 14311 7001
51352 9678 36062
39007 7398 12370
32029 8663 35271
81063 4129 15577
83652 5696 28636
23608 11382 37245
3632 13281 8701
57844 17269 15704
81000 6738 11578
3976 5665 7072
3065 16363 10576
20539 695 3274
74981 3211 13550
72446 3186 15081
69995 3162 19147
68700 3148 15782
71812 3180 18337
75920 3221 17331
70250 3164 15602
75187 3213 12182
69539 3157 17441
74234 3204 16859
76332 3224 11729
73233 3194 19112
66422 3126 19756
28473 12294 37505
42687 16841 6768
36280 8756 24128
74107 8355 1598
30787 9963 22332
23532 11250 3844
32071 5930 37069
19441 18817 14012
52819 11887 2722
19237 12999 33744
47233 16464 4066
78250 3253 21236
18547 468 34627
83750 7474 26879
24902 8730 3693
48603 17691 19179
62839 13558 3162
51252 4814 24438
51561 4822 25256
68076 15259 5168
3739 24729 11016
57218 11042 37231
44186 7884 22858
81564 12308 15840
74279 15047 20651
63097 9101 6536
61832 8504 3593
43936 7959 23526
58463 12613 21867
52593 16651 15559
38502 11684 33142
6112 25341 16274
2974 15586 28095
10154 5294 35002
46377 18081 34112
968 24696 21058
51234 9108 3630
29855 9091 7576
54591 12832 2831
25203 9799 37005
82578 8417 25247
78223 12475 29738
31704 8555 7151
43931 11101 22423
31732 4645 10022
35253 14501 33002
78839 7003 4699
2622 24051 12197
47447 10702 29611
22539 12318 3143
69759 11064 3842
66032 12434 5091
46458 4787 24382
42340 4810 26093
42316 4857 29265
43348 4850 28765
21478 1138 36925
73185 2106 32877
16357 19324 24757
55593 15410 36191
3802 12770 15868
69156 12777 3925
37808 8771 7628
79397 10937 33112
36496 7043 31974
18393 8949 7983
22766 3517 7983
22234 4299 7983
18017 6947 7983
13071 6578 7983
17820 4708 7983
15786 10887 7983
24640 4748 7983
20297 8121 7983
36549 12648 7654
4606 17426 32282
71420 1228 2492
5234 13315 7070
76015 13951 29463
3277 24786 28764
42309 24423 24732
10247 12339 20637
8134 12340 20264
51840 11698 7426
62561 5905 6201
4487 10187 7294
1981 6209 27479
25244 7291 8465
30358 5311 30185
86587 3242 27313
22006 17439 18183
33264 6134 3254
66596 11049 38409
6295 25402 26258
11906 19027 23933
30896 12589 2369
69218 12909 4753
68256 11821 7671
71416 11798 7821
23440 19535 14649
11896 14857 3372
85689 4161 19707
4447 13474 28530
6527 14700 5171
42207 7037 32360
36704 9461 37540
24903 3456 36245
3328 24959 13438
68745 13031 4370
14478 1806 5505
29341 9717 28846
29321 9557 31895
67333 1919 38837
44789 6403 24005
43174 23863 12045
33908 10299 14922
6314 12450 32780
50825 10066 34666
22492 5154 5031
13863 18759 31043
32984 17499 16923
71350 12769 36380
32550 15077 37105
44827 8432 32334
7668 6335 33209
78725 13160 28449
48607 7662 6703
38636 11238 19218
66930 2225 39149
14513 10756 7981
80799 3385 12741
37648 6883 31954
36989 6835 31134
29422 8750 27876
14033 18132 22255
5104 16595 32898
76770 10372 30200
61641 16808 16081
67809 16018 19290
80240 13190 18826
29589 9318 13339
17349 11184 36682
51253 17174 34096
5048 14155 27678
66598 12541 4338
6896 13310 31599
80917 7225 9486
873 10866 24095
64351 2450 36165
1649 25154 7323
43900 6583 33200
44976 5507 32999
19631 18720 28116
13969 9447 32321
68584 3241 35883
48394 10972 15582
71605 10126 33891
31203 8765 35147
44288 3236 3553
2937 4856 19041
32511 18058 35079
78235 12870 31074
43029 7266 10697
44055 16656 33259
31355 10060 34026
74891 13101 35739
80120 12645 9947
63681 2603 34899
13452 17835 8292
79383 11908 26247
4676 7799 13240
33719 13429 24378
81895 5851 30027
47051 7270 5719
23752 19021 30963
47450 10924 24078
44955 13787 28370
28543 12010 3053
39913 5993 16226
67464 126 5709
26671 9115 37901
61608 16133 8354
14603 5588 3715
69138 10182 29454
68212 10253 21164
68554 10227 27737
70527 10074 25059
69428 10159 28822
67533 10306 17715
69041 10189 15266
68981 10194 27213
73680 9830 24773
69092 10185 17113
69772 10133 14810
66656 10374 10422
74831 9741 22806
68156 10258 12703
70800 10053 16422
67898 10278 18844
70470 10079 16811
66997 10347 17908
72419 9928 23982
2866 25098 23567
70987 956 5041
30251 5805 11615
29673 7323 9924
34227 7463 2654
7241 11813 6812
6954 11405 7135
63522 5758 37670
2018 12899 27344
47002 11615 16416
79071 9766 33001
13474 9437 7427
3315 24381 24246
23893 7699 36695
79317 9643 7205
70785 10106 35560
28455 11900 26334
80462 5953 28602
55877 17631 18133
65635 11498 9190
16105 9512 36224
72358 10406 29686
77992 11061 28389
49206 17038 5149
39860 7010 10711
79332 11324 7090
2305 16393 21775
12640 9150 3090
14605 16354 12289
14592 17230 15252
14586 17613 16002
25771 5473 4309
4525 14380 8011
10319 4433 4136
7205 18235 11745
32679 4648 10004
25096 18681 21914
54753 3068 4728
51713 3074 7516
49209 3085 12855
10928 19026 20002
45210 6903 24780
76623 5884 3934
5463 4853 28851
39476 15893 37005
23903 18942 32314
31129 22792 30218
70934 8483 34444
81881 11253 28567
6369 20120 15529
53071 16441 23321
77648 2644 35613
11744 17545 31219
7989 18191 6583
72961 6483 2861
70531 12388 36528
66929 1880 4181
22734 12795 36002
48235 5899 7026
47735 4755 7247
26701 14938 16575
30151 15476 6548
56987 15244 18720
62888 16741 20856
2064 13208 19145
45196 7103 15972
32623 18516 28573
38110 6636 37184
68326 1400 38029
45729 10370 16838
44359 6897 28979
43796 6872 31436
64369 12048 3416
22129 12273 4060
44779 19991 6500
80633 6648 9373
22991 1423 34128
21224 929 3230
66813 1139 8551
69403 15697 22125
5382 25355 26086
4135 9929 31932
82805 8907 13461
30135 11565 18201
43678 10774 19626
63823 14133 3420
6061 16582 33956
36606 3129 27459
27786 3161 35429
33342 3141 29059
28284 3159 33592
39348 3118 24747
21113 3714 3715
46814 4716 32857
83147 7587 25160
40588 24367 26208
61376 13814 30601
14092 2928 32215
24667 4080 3651
40271 11354 7443
54365 5544 15651
55676 10279 14212
54959 7699 14852
11103 18381 7946
56773 16707 24511
5547 8643 30722
5893 8492 31110
6493 8987 31990
29051 17066 5185
37707 14838 2532
70749 660 32961
44401 23031 21552
1244 10243 30074
64473 5045 37881
78112 10818 34459
47104 3082 30369
47224 3077 34487
47511 3079 31582
46389 3088 26269
1642 8297 30872
76418 13173 6192
7408 13300 33804
42134 24092 28070
19476 18987 19280
81733 10105 11502
11249 16408 36049
37243 11497 31548
67923 0 32822
2693 15567 12917
3344 14151 17635
66895 13095 34824
32994 14228 16349
58233 16419 33106
82641 7205 10378
55112 15111 18960
37870 12714 6296
40157 11317 20544
58496 11138 17912
62955 10717 16667
57495 11232 10439
59966 10999 18504
56918 11287 15593
63090 10704 8926
58549 11133 14917
57544 11228 21177
60642 10935 21963
57330 11248 12297
56657 11311 18629
64965 10527 10916
56664 11311 13142
57554 11227 19641
2081 25141 23438
55703 17504 25852
45786 7027 23848
59699 14516 36447
21952 13133 36986
31063 20387 25373
32355 14787 15334
36319 11844 33242
64140 10534 35413
57478 17406 20813
32241 3143 33697
29722 3152 35924
14599 16730 26233
14592 17016 28140
72853 14827 15155
79768 7691 34570
43611 12857 37572
77440 14082 17886
3010 15044 9450
76626 5432 5411
47670 12111 11729
55479 11534 7386
52882 8116 7128
1348 11163 30686
27115 18393 5680
71485 12886 35519
21999 12874 4058
40778 24125 25711
29508 9265 9890
16815 17303 3850
78316 10307 11528
31318 7925 2609
56988 13391 25181
54612 16645 31521
22698 8199 3715
64563 11280 5238
85085 4285 19709
63429 4145 35728
40260 5823 4352
59887 16723 11755
75369 9708 12451
71864 9980 11421
72070 9979 13073
76222 9662 14752
75203 9750 15419
76269 9669 15886
2416 16322 16307
32206 3145 10966
33412 3141 9567
30256 3152 8129
28292 3159 6748
30008 3153 7025
38668 3122 15077
9584 14098 36335
71784 14211 36140
39839 17501 35500
3258 17030 11245
73318 13688 4011
77523 12837 31354
74279 5769 29574
20042 18798 31813
41598 7020 25870
84536 5376 12545
82327 5258 18954
53622 16884 6393
44022 20497 7004
41076 11349 20659
32705 8281 18078
28716 12958 3976
25756 15998 7441
4258 10320 35621
36980 13399 33770
65779 12775 4191
66054 4511 5684
45513 6911 5976
51015 5812 36343
51585 9555 36810
12893 18983 14377
81153 10772 28182
38268 8814 12904
41118 10935 18129
76716 11761 4540
55625 10109 26070
55317 8899 24174
56201 11994 23598
25181 9370 34307
55136 13927 37079
18359 3514 36242
26220 15224 26670
2395 24403 23973
13966 18600 31736
41275 13712 6506
29801 7562 22817
20868 9248 4940
42112 24893 10828
14236 5584 36694
41449 3897 37064
17756 687 6339
32904 11222 21636
72484 9929 17899
77537 9594 18694
74214 9803 19582
74612 9771 20367
68848 10216 11282
73448 9873 17002
43244 23247 30390
7074 16566 32790
45480 4839 11244
46838 4820 12743
47173 4835 8565
48697 4806 11871
39448 3111 34551
39675 3110 34106
3483 14914 7984
73478 14717 9028
45084 11662 33603
23255 18896 14367
35668 15593 6704
47220 18597 0
73189 7735 33082
4284 9387 23084
4002 10997 20378
45754 18281 34166
17270 13245 36881
83832 5440 26855
66139 8729 38869
68935 3090 4911
7396 4578 14517
6050 4787 12107
8040 4474 17755
6666 4684 16712
8205 4450 17284
25562 4649 36387
80992 3264 18386
49764 4824 32173
51323 4826 27760
34541 12736 23621
24155 22457 29279
42518 5618 12643
43536 5642 11280
41736 5598 15568
32004 11604 6915
81419 7748 17833
70744 15384 16335
24286 20029 23970
76884 11912 33605
25431 18842 15073
60377 11022 23491
1706 6988 28646
8564 14533 34950
1569 25194 22868
12949 6060 34503
49991 8709 5641
44083 6792 6848
45901 5111 7161
73554 3215 3481
35163 4662 23095
37137 4663 22892
46555 20441 7655
43715 16574 10747
46439 16893 26758
81523 11272 16250
5901 17002 30191
20181 18619 12811
12767 18874 28088
2268 17378 19352
23046 1511 8448
43287 24714 12175
47548 6999 23467
49866 5838 23775
60594 16484 10260
83782 9779 29248
28235 17369 18579
78701 3721 10339
47993 5392 3311
17696 17877 13111
46948 18604 7561
17212 869 35972
33997 18160 34624
5533 16656 7268
6185 5801 12247
64334 10900 5971
8902 6993 10665
2982 4699 11513
67711 12729 5308
44457 15220 30184
85807 3741 28736
46926 18601 34493
51234 6774 3748
76691 12015 5066
20705 18618 25919
44335 7308 24568
63206 4824 5073
13471 18171 18337
71169 3171 31782
70094 3161 31782
63400 3095 23864
70264 3163 28023
63573 3096 25610
63887 3100 23261
66888 3128 31372
66076 3122 24069
65757 3118 28695
68441 3143 30937
62447 3084 28964
61201 3073 24099
72650 3187 29392
75979 8616 33899
40618 5678 7939
27242 16458 37091
71836 11811 31953
24026 10658 7317
25092 17968 30818
72741 14984 18374
43648 25038 15508
31296 10159 17849
52087 3715 36705
69106 5263 4031
6073 9696 36286
64483 16022 29907
44899 15556 27341
25369 7551 5661
20778 12674 37121
42169 24219 13010
47135 5361 3628
54498 17156 31398
45588 8118 33102
68115 421 5653
4763 5919 31563
46118 6285 35204
49970 7817 37225
19351 12801 37136
66922 3666 5452
46186 14248 32924
40963 4900 7840
45565 4828 12789
47739 4798 14897
43624 4787 15730
43793 4808 14252
45247 9042 28094
78880 11334 11441
11566 10038 3328
65447 13322 37507
16465 1153 3783
24790 19961 11127
46633 3089 15647
48636 3075 8006
33344 4656 26725
74747 13539 34063
66106 7024 38888
31880 5168 32708
44828 7188 31751
42849 7171 30948
81225 5430 16913
80937 10296 29975
17935 9046 4040
39723 6659 37238
57530 16538 6313
52475 8963 37319
10243 10126 3971
73239 3654 34836
57142 15521 14319
12098 5733 34368
12516 8307 36242
21777 17378 36439
53688 14505 3196
81158 3559 17560
36272 12789 26270
4218 23750 30974
4264 18124 15280
42062 8738 27981
25454 18802 24092
43992 24389 25871
22462 1435 5081
73612 7163 34631
823 11663 12498
33358 8322 22017
79808 12679 15242
8942 6182 9553
23759 6426 4270
20955 111 33343
68014 15630 32950
47672 17381 37529
56527 13693 14710
10052 9382 37427
68787 12457 3481
2573 22861 15571
79073 11742 10734
50246 3085 13086
7177 4615 10759
8174 4459 10363
8748 4370 10486
10402 4113 13740
28880 13931 7336
25063 9943 32715
25436 8458 32467
26307 6405 33760
39515 5680 3980
23203 7058 5033
50135 11278 9111
57696 10516 37227
5580 15284 7256
47805 18864 32729
66706 618 35503
34258 4651 29932
36650 4651 29779
68468 15819 26695
69778 8163 36362
74535 5232 34098
73956 7098 30150
79056 7271 7220
43172 8350 24111
35782 6031 22337
36048 6606 22268
65255 2122 7951
75681 13310 32575
12373 18651 10363
10912 18275 5666
8456 18152 32365
82906 6428 19436
30463 13805 6555
45473 16128 21313
50107 17661 22983
26213 8611 35384
35212 7720 15789
61413 16170 6043
26893 4418 5423
49454 13271 34275
57299 14600 11768
73523 15329 24781
5433 12548 12005
55263 3072 33780
51758 3065 4236
52626 11447 27192
53246 11605 27789
2548 25101 16261
13332 13698 8224
755 10883 27504
3682 13253 28589
77424 10545 11566
1911 12323 8078
18157 138 32727
22197 17955 14598
30322 6136 17530
29693 7876 17508
15283 17329 29511
6175 14436 8224
38854 17624 35366
4752 7854 12485
5016 6971 9928
68151 15318 8731
43815 25114 21898
52663 14553 31775
5823 7608 4231
30917 20975 31534
11549 12339 9620
12036 12339 9178
13673 12339 8941
51303 17712 22955
2410 5113 15337
70269 7785 4286
2932 5968 12455
4740 12048 12490
35423 12356 23491
3530 14607 12314
8560 9233 37000
44304 13003 6456
40709 7888 32627
6538 10910 36439
76654 10579 33195
4281 14119 16160
32416 4649 28893
5280 12339 18117
10275 12339 19016
7004 12339 18598
64758 1808 34277
23998 2682 7138
30132 15641 33539
42787 25214 14176
79998 11338 28546
38759 10733 22455
48117 5809 4534
12296 3905 12193
22097 3408 17853
14714 3782 12174
12317 3903 9626
21146 3457 17110
18736 3579 15957
20648 3482 18684
13959 3822 18289
15502 3743 16534
13368 3851 13235
13987 3818 10285
57890 12846 15668
25441 9151 36634
46129 17087 35438
62945 6474 36007
65389 15865 9876
26912 4111 3339
66319 15731 9771
69578 596 37022
14373 3392 34883
72839 2972 30724
7727 18304 11666
56366 15089 32752
56700 12505 32707
61865 14053 32018
57743 14420 32568
45305 11858 22091
77734 3212 28840
41318 4657 25752
39592 4655 27337
39197 4662 22977
38730 4661 23638
49781 8437 33326
15471 7799 36695
40626 7354 12524
26989 5365 2478
57242 17404 18068
2609 14032 14315
74860 14672 24689
80120 4361 29784
83775 11508 22157
29518 13801 18483
13566 10863 2695
83645 3525 7220
40887 7239 14639
37738 7428 15455
35119 4650 9973
37063 4652 10924
67366 13387 2997
52248 4825 31562
79463 3232 19970
26036 16285 15914
44471 5505 36102
65628 5229 39634
79833 10280 7623
52876 7135 32960
54442 8280 32793
51047 10422 33212
34305 11120 25952
69871 6227 4290
55829 14507 22550
34405 4655 12515
16338 13097 2660
12812 6996 32676
80125 12611 17627
54215 17191 12096
24028 2084 36934
60543 16719 27348
40806 4648 30764
39034 4647 31523
27886 16463 21891
35134 16071 33208
31050 17944 9814
15137 12347 36357
84313 10909 24307
80763 11566 21343
19311 9435 4940
5336 14069 10136
44787 20999 33552
36933 10314 10178
63503 16566 24212
18409 3603 35194
76423 6639 4932
75815 7625 6254
76252 7286 4913
29946 6398 8698
78598 7432 34897
8558 18167 6241
40471 8089 22446
36877 7446 10429
36928 7443 9055
35592 7540 13297
55349 3142 3918
28981 15784 21513
43095 4870 9721
40814 11295 7472
58659 10128 37201
49093 10093 25808
1419 25072 10486
7979 13960 4206
19798 18898 23141
16951 19283 16996
10948 5907 37220
1558 10793 23839
80048 5557 11778
49532 11694 6576
16767 12538 6464
81250 8080 14902
19223 12117 7524
22367 12178 6718
23896 11791 7690
15338 1630 5548
75912 12352 6434
50364 18100 14956
64293 11927 6241
42577 9418 22688
71696 15204 23091
59797 12257 37155
76384 13108 31232
26195 5882 7554
26508 6997 4656
26506 5403 6756
38379 8965 7903
35962 13559 7599
2627 22298 15631
17343 19218 16421
81118 8652 11158
68785 5715 37005
48858 5168 16273
50229 6045 16338
80263 10443 8021
40447 8790 27557
36068 12318 6299
10068 12339 28659
13750 12339 29899
13587 12339 30937
58022 16886 29262
68140 4038 5411
76191 11798 35016
53974 15902 18208
55407 14702 24066
45266 13500 26989
19183 724 37041
20909 8176 3715
2109 9054 7411
78431 3316 26124
72676 7824 33439
82295 11674 28651
47862 4679 13108
49461 4709 13976
1441 24426 13251
44981 5657 31386
45023 5658 29336
5267 7409 35648
21474 5129 4940
76427 11388 36067
70748 12606 33396
32108 13474 2363
15256 1626 35712
