ply
format ascii 1.0
element vertex 2744
property float x
property float y
property float z
end_header
27015 25100 22364
41217 26455 28195
62484 9419 36261
68829 10984 1508
81773 4884 35145
72244 16110 9232
86712 9684 16282
62259 17622 9646
7166 5015 30111
25876 9648 37988
32153 22208 32487
3126 5403 8081
66932 11427 37795
7152 17986 16721
68500 1592 4604
18667 10110 39914
79291 14370 17815
7944 18126 35608
66406 6112 38501
82024 3721 4709
657 7234 16598
387 8489 18216
7515 17962 19285
10313 18051 23154
23599 13663 40527
17528 4377 31276
18639 10594 31531
17079 6618 31368
79385 14335 17046
4094 6079 6368
2849 19000 7826
41652 25412 9267
26742 6617 40115
72409 1739 36982
26707 7098 1805
1526 11474 11194
28506 9248 1661
52674 18183 6885
54177 17610 34915
65552 17284 6733
63881 6246 36510
64923 6900 31389
65520 4858 31313
64734 4332 31294
64155 6187 31363
23767 5042 37160
84929 10141 32261
76112 7861 2434
72625 4925 39579
3372 21432 13384
64413 17286 35296
64889 14815 38766
3760 17973 28754
70720 3082 22228
69639 3082 26139
70730 3082 29680
70565 3082 21038
19681 21574 30239
59441 9930 38412
14860 9403 38520
56179 17686 33638
584 10002 12436
24893 4447 40434
26254 8707 924
71222 16236 35951
45150 24428 8934
32439 12501 38050
7915 16549 14155
70236 6137 3003
27524 10614 37650
28486 9195 35751
28385 9344 36920
57136 19186 23295
31792 21928 8377
31758 23905 9256
49914 22172 30439
26945 24688 13232
25350 24129 15495
17105 8808 963
19791 12586 40426
2042 4552 13821
3453 21427 7562
52442 19625 6137
29438 12622 38707
34710 17772 6228
15707 3674 27039
16449 3674 28274
17554 3674 30525
17153 3674 29219
18150 3674 30806
21890 22818 12535
71844 16449 21343
18800 966 138
10012 13281 34901
38290 4548 4190
45710 4548 4194
43197 4548 4361
68218 17193 18110
54106 3414 3741
7271 4216 4920
77459 14952 16227
35800 26416 22455
1870 12915 20641
47495 24285 29725
23571 3352 36061
76876 9385 2497
14312 4939 1276
72570 10903 37455
29376 17613 35201
77836 5843 38016
68092 16898 29147
67445 7751 3003
8730 20874 7001
55336 19849 17301
63108 15947 37480
78159 14719 7503
57205 18741 18109
26666 5592 984
2193 11121 33172
21857 14660 1127
59452 3190 36519
76480 4262 2679
21673 4401 38576
18996 6300 2414
16205 11157 1876
20239 5995 2414
83889 7675 33688
70139 8115 37636
3763 11480 13055
15408 16936 35321
83917 12350 18339
75660 11118 2004
70965 6200 4289
8921 4060 6177
11941 4060 6124
10778 4060 6929
12625 4060 7304
8297 4060 7886
9012 4060 7527
10324 4060 8160
23115 6192 38673
9784 18023 30270
25905 9604 3291
16538 11363 4553
69971 6700 38084
12234 18631 28475
29730 4548 36824
9803 4060 25087
9065 4060 24541
12379 4060 29917
9777 4060 26200
5211 4060 20773
10545 4060 24754
12802 4060 22395
9700 4060 21814
8249 4060 22103
8272 4060 23850
44545 26174 11623
75460 10318 1942
31698 15567 3486
51507 17952 34700
47806 19108 34174
50051 19034 34221
67595 16845 10545
67652 16949 11694
69661 16915 16459
71699 2603 35631
8596 4298 37052
70803 4864 3346
20968 6509 40300
72867 4279 35847
46022 25095 9490
3063 18611 17005
77559 3950 3322
58822 18605 23389
36082 17591 35362
39696 22440 32784
40115 20897 33422
17206 11827 4852
75192 10449 39269
25413 8110 734
68130 1260 1508
67375 6606 3346
82812 12918 20364
14050 15656 36755
10717 16759 9248
17669 14547 1522
85449 10829 13122
54829 17557 5617
66313 263 2516
5853 14881 30204
20272 272 5982
76525 14884 11056
80894 4094 36047
45383 9672 38092
73097 7797 37612
56289 18402 28059
18859 4589 40746
24033 9818 36205
55891 12155 38090
8486 17219 14943
47074 10748 38105
61818 3082 17325
61650 3082 11244
25667 6950 1011
61004 14932 37867
3909 21652 29772
16099 4865 40434
16174 9262 1188
18656 11245 35471
40191 6458 3287
14298 4880 40052
42416 17305 36185
3181 5676 22298
4645 4105 24419
4012 4785 22431
81905 11758 6489
48513 17537 5516
5231 18306 11193
6934 16923 30246
83963 8309 32071
36572 13969 3173
24076 10149 4956
31105 13363 3107
21861 7064 38673
22389 3674 26811
21749 3674 20658
20691 3674 24248
22720 3674 29494
21779 3674 23388
53964 17504 5361
26618 4997 39822
20600 2152 37758
38687 8359 38041
28795 25434 23082
54133 3190 37092
44674 3190 37119
55772 13849 3159
68900 16416 4933
75672 6375 31461
75176 4884 31364
3234 11480 20944
25009 23482 10264
74212 5068 38147
18539 21439 25901
20074 22117 22740
26291 8973 3106
70527 508 37021
26569 4643 2152
32753 20333 7138
74950 15568 27114
84871 4211 26742
7174 12329 35756
85302 6607 13242
64059 17322 32818
3563 21249 19662
23325 9450 38642
38321 26580 23108
7016 13190 5887
2896 4290 32133
8187 10852 4343
70849 7028 2624
64247 2823 37095
59643 11600 38387
38292 15118 3382
770 10603 11359
79759 12201 34525
465 8223 24714
23167 6740 38270
26690 5879 5423
74068 8040 5519
66293 13453 36199
65925 13281 38941
79390 12058 7657
54206 5404 37731
46657 5877 37767
59957 4548 4551
24819 2513 34861
22005 17469 5670
59106 17616 7017
8508 18869 35431
17122 20455 10833
24910 4610 1109
40982 3813 4781
41933 3866 4780
38175 4442 4783
18184 12304 39787
6358 20826 28787
5115 13281 26985
8418 15566 33086
71143 3082 15903
73272 3082 12606
74257 3082 10200
57934 11273 38105
35499 23656 32138
39573 18042 34582
70055 9182 38142
79875 4822 34942
64392 1190 35842
15963 4784 39462
78192 14616 13982
15276 19696 11038
29335 3869 4763
21020 25 38206
11966 5250 39348
74992 14687 4251
79878 7276 18112
79873 3621 20500
79876 5419 17974
79879 7848 16550
79880 8657 20121
79876 5374 19411
24342 11460 2747
43978 17741 34950
71817 11530 2771
51382 4548 4141
47705 4548 3960
49429 4548 4267
71633 11620 9732
72136 6719 9905
71105 10795 9771
39368 14327 3221
25032 6041 40434
4459 21344 29071
21394 9466 38439
64769 9150 35864
52649 18095 33969
24377 12607 33627
24636 12485 32194
25272 12187 33119
25753 11961 32050
26748 5875 37998
38725 12577 38076
17846 21117 12422
18898 21573 13877
19863 22021 17729
37512 26556 21392
7096 16197 17106
12276 11488 1941
77425 15113 33297
246 10405 14478
21799 20965 9067
45235 26414 23720
49577 19724 7193
50063 17698 6312
48498 20224 7417
75937 14967 36209
70266 12337 35892
4058 4735 31844
16623 9887 2904
40343 26208 30281
28655 3673 18971
28894 3673 16002
28630 3673 20474
80477 11793 8733
13805 19599 16817
30294 3418 3186
79029 13070 34456
78669 4503 3726
5780 21067 15221
43319 24351 32163
72499 16294 23527
16946 2487 40358
54174 14308 37930
5183 14066 13630
63768 8001 1508
17260 9841 1966
6017 14138 33739
31425 11552 38192
70428 10812 39850
5324 12219 12536
79295 5557 36881
1394 7247 11356
25054 6156 36061
10550 18045 15963
78710 4239 37837
22645 8880 37820
67409 12698 35650
66669 5353 2734
25292 4332 1600
65415 4975 37741
8543 17277 13595
52617 21204 26938
47778 11441 3046
85701 3425 11113
62266 9146 4585
69263 1278 37353
8247 16717 26676
28325 24803 10959
64856 10158 39579
1001 6369 13120
52644 19322 8949
72595 8956 38631
67872 6768 1737
4304 21554 14368
85614 6636 24375
16689 1242 39255
17464 3456 37904
72414 11036 38170
33758 16786 36864
75402 12638 38524
39178 24411 9240
54212 18037 8675
83825 4418 31003
18058 12014 424
68104 790 1054
4418 18508 30253
18567 18550 33037
77329 2997 25517
76740 2997 23573
77176 2997 30358
70244 10960 35986
4592 20745 6745
76179 8523 38768
62752 3082 24255
62585 3082 25408
10086 4060 9718
4620 21491 24925
83687 9302 6548
73246 8480 1056
20228 41 36167
10830 8656 38942
3933 18642 18864
6565 4304 31156
65839 1210 1058
42931 9257 3068
66632 4185 39899
19078 5350 39413
4667 4359 6830
9934 10302 3002
3686 13281 15272
78009 14778 22903
14423 8330 40014
13259 12674 38987
71410 16303 28412
16434 5290 1744
2843 11479 17492
82702 12177 10001
65887 12241 1517
72445 12810 36361
73859 12165 33125
3016 13281 30103
14558 8931 2790
80406 12423 10077
8757 15975 32015
48590 9903 3052
20324 19586 32562
51331 17669 36349
19979 8172 2817
80354 12974 30734
10820 18201 16722
42853 8558 38052
24498 1535 3371
71724 4283 2297
72846 4220 1625
19462 9296 38673
43553 25014 9375
68096 1537 5100
26731 7292 39431
65012 995 39526
38955 17959 34609
36896 20399 33510
33185 20217 33566
34642 21190 33143
37366 18119 34528
59160 12831 38088
67558 12566 5928
67632 6714 39388
24724 10958 35525
20304 16656 4174
67714 3082 15711
66759 3082 18702
67663 3082 17495
66503 3082 14550
69939 3082 10297
70565 11639 34832
56526 18537 28908
80971 12106 5923
73927 16375 7122
9666 17810 6178
21960 6610 1204
21342 2091 40434
60641 4375 9461
60641 3744 8383
51906 22109 16524
25866 6561 226
27660 3792 36889
27166 25091 20473
22660 14582 39982
67748 1156 37164
80107 3846 37086
19639 16731 4447
25164 2148 38434
59284 16914 4462
18976 2134 40434
4143 17559 8221
382 11554 26907
80814 12131 9713
15902 1965 3474
31214 18095 6406
22659 10614 39285
13426 7455 37987
13426 6363 38537
13426 6784 35627
70199 9280 3933
42700 26648 18466
34494 25095 31760
76381 5401 3211
83544 12072 13275
4909 13695 19724
64475 1095 38345
4589 11745 13709
64353 12546 8838
63232 12021 5383
64342 12540 6351
14783 10378 33001
13985 8815 34309
14336 9502 32907
70229 16533 28622
2752 9923 7281
26207 3805 36986
73501 11965 1381
49182 17342 36133
3343 5503 9923
3888 17800 9624
39455 12323 3063
62805 2768 35971
25241 6258 1566
38676 22483 32742
37825 24184 32024
4822 15331 26766
36220 15465 37469
25006 20449 32949
48009 22538 32463
12596 19046 16743
71968 5447 9956
72441 4297 10006
73011 4513 9996
14155 3673 15972
14291 3673 15276
71152 9180 37685
83024 9405 35339
61650 6594 4742
20586 12331 269
59241 15479 37694
21847 7786 2414
5693 18202 23771
84312 3561 33142
9755 17664 21607
53072 10084 38099
14373 8190 35692
66763 12660 38075
79256 12340 31797
31404 3350 37686
80956 11856 32048
4473 4290 14017
3937 4866 16107
3201 5655 19205
33587 25743 11052
24177 2663 36327
15240 18188 8721
19001 17130 5214
17786 10642 40742
25383 2668 35224
8943 17184 15301
53913 20689 24390
11995 8198 1433
7912 13126 35262
4223 21598 12882
5098 18337 14885
26399 17464 5533
17139 2736 4882
4377 18519 26519
17760 623 36959
29461 4338 6457
29461 5135 6995
39879 24430 9991
82175 8220 6693
3674 11479 30608
28147 3674 28304
27311 3674 22319
27476 3674 29817
49873 11748 3049
33338 26057 26242
47932 23820 11024
25136 10224 372
28384 16839 4326
38402 25592 31659
70394 2323 39579
60408 3190 29624
51092 3190 26792
48317 3190 24404
56959 3190 23412
52661 3190 21093
48992 3190 21455
40230 3190 22798
55387 3190 24016
57751 3190 29185
55495 3190 27014
52864 3190 25520
58853 3190 30629
41630 3190 22947
43798 3190 23178
41814 3190 21254
54283 3190 26432
38337 3190 23531
58585 3190 29404
45608 3190 25959
54560 3190 21561
36152 3190 21424
43944 3190 25275
51622 3190 28085
57487 3190 26049
56378 3190 22316
48068 3190 22565
47458 3190 23131
49066 3190 23815
4112 21229 33904
28494 4548 4046
8385 17063 28021
84977 11164 28104
7580 16533 20546
56514 18879 24965
84957 4124 14343
62422 4191 31296
62838 8364 31478
67192 1513 39579
15803 8714 37908
78687 14280 34646
80779 4350 36572
9787 17672 13972
15083 3249 40478
18807 21357 11594
2110 4419 25755
16473 1424 36455
20177 14836 39795
15624 10112 40700
47765 4419 37595
38314 4183 37603
45418 14155 37953
13558 8410 40320
9097 17484 29189
14413 4416 37992
53648 20751 15844
72205 5515 3439
6033 20892 23980
60641 3117 13589
48206 14498 37901
26636 5680 35585
63749 11127 36388
85928 11061 21622
70320 15736 4103
24187 20931 8516
1375 11475 17420
44404 11099 38106
46509 5741 3355
43579 6077 3330
48984 5910 3342
7764 17953 8871
18926 20608 9758
49864 17369 5053
18223 6335 2315
66608 3606 3346
45887 3481 3669
5394 13281 13667
30093 14582 3194
51656 20943 30314
71547 16519 18734
85012 4344 22469
301 8806 21349
6750 17831 6062
19402 5161 2817
70373 16376 11063
15828 7421 1917
36634 3805 37604
4922 18377 22236
7062 15969 12775
7385 17601 33929
33932 3190 4023
22455 11655 40959
29461 7648 8136
29461 7423 5466
29461 6194 9662
14429 8328 1076
76587 6212 8547
76589 5901 7857
76600 4124 8870
64582 8639 2816
80134 9351 36110
49525 24184 20567
47337 10563 3044
4596 17652 7809
27491 14849 2643
62279 6719 1096
76599 4271 5042
76595 4930 6075
76604 3555 8239
9423 12145 37037
48142 13307 3112
85386 6618 16011
67227 8439 3003
4141 17428 23517
67037 6894 2080
65240 12110 5100
63041 3082 12020
63235 3082 11052
63138 3082 17120
22852 688 40504
32703 3190 26427
37787 3190 24052
39397 3190 28018
36494 3190 31169
40704 3190 27264
49774 3190 28772
46915 3190 31183
39586 3190 25023
37123 3190 24848
44181 3190 26660
36476 3190 23769
42519 3190 30841
52133 3190 28432
54106 3190 29700
38308 3190 26049
38945 3190 30903
31152 3190 24431
39360 3190 26931
35296 3190 29841
43397 3190 28326
54900 3190 29472
44008 3190 31156
45800 3190 28487
36037 3190 29510
44684 3190 26194
35679 3190 31113
46185 3190 29997
79617 13087 35054
71998 13875 1970
19569 19840 8903
65680 17550 25262
176 9802 25165
43188 24977 31998
4675 16095 18994
62871 17901 20041
59560 18179 22880
72098 9654 36906
3385 9257 34357
8669 18056 32421
49306 19566 7901
73125 7146 39579
11566 18279 12331
61740 7560 3009
52672 21820 22553
15727 5927 785
72590 7990 35986
50841 19495 34199
69715 12496 38015
30395 25007 10110
15738 5870 37540
19656 7781 38802
6022 9360 5006
53014 20180 11275
24563 11285 38005
21276 6947 38673
67102 12725 4012
18965 4784 2219
62684 16758 36673
84634 5395 16435
25045 3674 27049
24273 3674 28121
24901 3674 28670
24383 3674 30686
4284 13282 32696
10437 11038 38093
51829 21720 27292
72997 10282 36231
25255 2618 5980
72728 10482 1702
24235 4157 31272
26760 5210 31324
24821 4011 31264
57017 18995 18907
82995 8276 8489
24011 1125 36411
19144 1307 4205
526 6314 20927
45189 15228 37739
77381 5980 3069
4645 16212 24835
69185 1723 37971
50149 20232 7227
35863 25987 30085
67613 70 37287
77089 2997 17273
77029 2997 10168
77412 2997 13842
73633 4745 31320
72784 4273 31299
20782 11544 369
60494 16896 36664
5499 13280 20447
70802 7611 38463
81649 6424 5135
63889 17615 11777
63301 17612 10780
84161 4346 28080
2861 21217 19722
35549 4314 37604
69254 121 4305
75600 15513 17226
50020 21039 8098
47731 21516 7721
53430 18835 31941
6156 20953 12352
25000 3865 653
13426 7172 31662
13426 5325 35876
18510 12476 36721
86312 7490 21130
40758 8464 3101
73895 8415 5905
51528 22618 18486
10342 4060 15610
11604 4060 18642
7894 4060 19072
11356 4060 14107
11528 4060 12833
10618 4060 17645
7327 4060 20097
12744 4060 19509
11469 4060 17627
64189 4791 2390
11041 18066 28518
78095 9630 2967
25158 5980 653
65202 4438 3012
24118 3241 40187
67989 11571 38429
40389 17492 5381
11043 18353 21817
56385 11677 3048
26683 5017 3311
68578 55 2400
28137 3190 4399
67582 11092 4535
69857 1931 2860
10269 17566 11924
46109 6621 3267
80685 9290 4302
22321 8863 2817
2496 20247 33974
6946 8191 4449
69050 11378 39579
27759 4957 9939
27844 6619 9850
8715 15930 12975
53240 3190 14616
49742 3190 18449
45444 3190 18899
50969 3190 16160
36441 3190 20110
57956 3190 19572
58434 3190 12706
52770 3190 13022
58943 3190 11885
44667 3190 17848
39790 3190 18718
54376 3190 16734
49703 3190 15623
46111 3190 20604
56219 3190 15619
56449 3190 12781
58645 3190 15484
50457 3190 19778
59531 3190 13700
44610 3190 20152
55037 3190 12787
59839 3190 18018
60295 3190 19277
52518 3190 17617
41144 3190 17337
54378 3190 20248
32455 3190 19917
53242 3190 13749
35048 3190 19046
46669 3190 16699
70655 12226 4059
86081 3195 29292
944 9917 10511
4651 5180 5790
25701 6349 35274
6011 13982 7163
17195 16262 4157
57475 17850 31917
65302 677 36784
22555 2778 697
73985 8618 2393
26719 7602 3223
32120 6360 38072
47076 25937 23755
15100 19747 29559
24455 3636 4882
74295 6750 1660
75914 5167 2652
4473 8171 6043
2769 13281 17454
50181 20256 36039
63668 9922 34764
33179 3805 4763
4411 14590 23598
63093 17835 24488
8679 17340 30157
18197 10520 39547
16326 8681 1577
24615 5551 1852
77902 3089 4348
15857 10316 31573
17040 9352 31491
16841 8228 31437
7165 17984 26689
58299 18786 22518
84469 12038 22140
61101 4253 9988
79052 6788 37375
11046 14525 4644
84631 3216 7270
65270 2511 4981
12988 19161 26198
25395 8098 40812
63860 1696 5368
4186 21280 18170
49580 13033 38055
61520 18030 28469
44530 26525 19468
77936 6126 3587
19468 10407 37344
4922 14084 15310
86604 3071 26717
9868 18028 25037
19471 21329 10363
22757 19601 33052
67566 11370 35986
68067 10537 1940
79201 12356 6427
64413 2366 39931
13486 16383 5706
30582 12387 38343
59250 17563 5909
47052 13530 38020
20025 3083 38673
27590 11866 1496
77605 10556 38303
10587 12528 37597
63111 7909 1207
48109 17783 34937
69585 7279 1336
5902 4060 8368
5662 4060 9406
32912 4542 3396
8717 17961 20915
6485 15644 27440
69624 4357 3003
21801 12611 39400
20790 69 2706
79567 11223 37260
62983 14288 2477
38023 15202 37604
9494 14736 35314
50857 17838 6212
68262 1572 36527
53939 4894 3420
52826 4987 3413
7735 16554 24688
2092 4770 11758
86775 9906 23112
5698 21320 10175
72152 3087 35522
68478 12630 39314
69154 5254 3003
15527 12236 200
19050 5515 1521
70466 16751 21805
0 11262 18166
66718 12272 6137
64687 6020 38005
47354 17733 34892
41744 3190 31256
11246 10999 2464
57804 17801 15003
64990 1470 34812
84156 4593 16731
16590 9859 36964
23809 4730 3927
41285 26639 16475
12286 16572 34301
73944 7150 1201
51925 19130 33949
6144 13101 16838
80260 12107 32046
41017 4548 36924
41657 4548 36666
4167 14459 20748
14106 14159 2861
71367 8931 2314
23869 5501 3927
3124 18910 23225
27930 23372 8926
71377 16488 8444
8515 17955 30520
70772 3156 3169
15935 3805 37702
82579 8207 34809
16320 4048 3120
10241 17790 17933
65155 2043 37386
18367 3620 38486
19968 10503 2176
22788 3864 0
27689 13482 2037
3623 13281 22825
69642 6958 39167
79774 14189 24012
3394 11480 18763
72291 15651 36605
47308 23781 9753
74919 15691 22735
5072 18787 35044
14243 16094 36165
3817 13281 12059
14888 10326 31608
81218 13142 11096
63634 15407 37947
70793 5572 38161
23909 3956 38723
77722 14571 6174
5728 16685 11634
56329 18607 27081
55414 20022 18991
40000 26595 15872
30889 14709 37851
40054 17084 36497
7111 15377 31232
14180 7625 9823
34361 26194 15325
70730 7971 3346
66065 17511 23916
3119 13524 28824
73479 15808 28607
64425 3307 3834
77447 14956 22008
16321 14061 1549
5798 21167 28944
74872 15631 14463
67395 9545 31487
68745 9059 31469
67127 6446 31372
67184 10789 31534
33320 26142 17525
78990 2997 6413
79039 2997 5555
73948 13206 2314
80581 6725 4388
22753 12347 38799
70440 16696 26482
17400 3245 653
7318 4769 32944
36421 26379 25903
35196 25752 10218
67265 16815 31610
75735 6946 38596
85751 9837 11300
5545 21317 7216
4712 13281 9496
83652 8207 7311
18215 7433 40222
31999 15431 37662
13036 19270 17519
44762 14385 37917
20016 7137 38270
4874 14730 14880
61523 9676 8420
61940 10310 7573
62103 5024 6094
6953 12962 9083
67763 3178 31251
66645 3709 31271
68690 4887 31314
70299 6995 31393
28665 25188 13232
24148 2828 40790
85787 7516 14510
66269 3600 38084
58412 17742 24189
6792 16040 22927
26822 6288 38614
30839 11694 2732
8280 16870 24111
24792 9145 4882
32018 5436 37932
4460 19595 34759
55130 18346 30740
6226 18108 12095
54510 8099 3124
77025 14893 12901
70443 12311 38108
79101 14159 12624
25118 20986 32698
29302 5426 9893
22301 23042 19705
23439 23504 19437
35001 4548 3918
44725 22534 32729
48116 21451 33172
39001 26634 20433
20653 21980 10894
55859 3660 4772
44986 4354 4779
52279 3959 4775
4791 21194 22504
60470 17525 5878
65632 8594 37741
67686 13694 1091
72896 16200 15942
51046 22547 15304
79875 4526 27333
79876 5980 30203
79876 5695 26903
79873 3254 28518
79873 3465 22347
79874 4490 25460
79875 4539 30529
5614 12624 26148
73651 16022 17716
26769 5945 36100
34464 15342 3559
69340 16980 17905
7749 15688 12993
47195 25123 27140
73404 2942 36779
15805 10817 3065
72888 2758 34984
37909 16916 4435
14504 8574 5179
6975 20882 6707
56647 9780 3054
55180 11341 3045
23366 6811 3420
67609 15294 38367
16377 10303 40960
9233 17994 32352
20355 1595 38600
11461 10841 38860
32891 13359 3111
22042 11316 37192
37530 17732 34953
50275 9274 3068
50054 22718 28584
64720 17292 6007
64333 2724 2721
17154 6750 38270
23237 17479 35479
72679 5798 35864
10171 9784 2713
5555 11475 6479
81453 9244 6176
6003 15567 23227
58109 13072 38055
23228 15368 39031
1844 12067 9539
4193 17347 24286
8064 19440 35232
26717 20840 32991
35723 26357 16046
14046 6265 2345
74360 7276 36866
64175 7847 2256
35481 3202 3927
5244 12446 22546
75095 3082 28756
76227 3082 30584
71128 4749 36831
24368 4800 3298
35357 16354 3882
83904 3422 34714
63055 7219 39579
72970 14913 3658
71530 3811 5222
10040 11602 4924
42411 17538 5526
68639 5369 3346
4171 21544 23563
4128 17448 11213
24868 16989 36582
1488 8750 32051
58683 14418 37927
59281 18048 11082
25260 2241 4652
64651 1840 40015
45609 17387 36038
47068 21824 8094
45810 21988 8151
1647 12677 15475
48117 25044 19086
74579 11627 8092
74815 11318 6247
46293 11240 38105
23656 4957 37947
26718 6431 5588
47099 18965 6871
47126 18339 6606
46010 21140 7779
15895 18005 7914
31338 25298 30614
37930 3488 36330
49219 3438 36336
38816 3511 36330
72067 5104 39353
20780 11544 38122
29326 16381 37306
70355 1983 35986
69043 3379 3003
34140 26250 18312
6411 5699 8626
70383 16735 14895
69600 16907 15024
5137 10099 35362
79640 6020 4199
13080 17035 7425
21434 15849 38485
86365 7468 18417
14342 3673 25196
14401 3673 26485
80285 5555 36449
84381 8238 32686
78304 14807 9640
66470 16937 9246
14636 16282 5079
77398 13139 8556
26505 7471 538
44324 14398 3232
77931 9627 38209
59766 3479 3467
60641 3206 36514
14477 19779 25755
82687 11562 33915
6593 16675 11658
18083 12328 4281
76262 14430 36594
57130 19166 20271
23684 20979 32473
72320 16336 17531
7362 15458 9678
7387 10860 36350
15783 10732 36639
77365 14946 32256
81457 13491 23973
11127 10369 38872
72367 11082 36755
69503 8233 3346
4522 11481 31534
48891 10540 3044
44926 26351 26451
663 11516 29216
85327 7097 29434
1986 12914 26022
66995 16969 35547
53687 18295 32576
84129 9572 33246
81807 9221 36267
19730 13077 6130
21405 13081 6339
21152 13080 8825
71348 2298 1456
85307 9564 9155
53712 20733 25068
70609 8967 37566
28594 25178 27812
83497 3734 34369
45910 20460 33622
47190 25945 21859
50935 6446 3288
26763 17704 6196
14622 15335 37395
85385 7808 11145
22976 16659 37140
70778 10804 35881
58822 18600 17624
1986 12996 19218
29026 5604 38574
47180 25803 24799
76401 15273 21596
2415 11476 29325
3436 11480 24273
38988 26260 11427
82499 9572 34684
8331 16216 19212
51416 21736 12644
44346 22619 8624
2521 21380 34037
51304 3190 31558
61626 6488 3766
34762 15399 37538
11273 15192 35892
50439 7298 37953
19615 11958 6316
20401 22187 27488
21293 22571 25068
60641 3942 4139
60641 6305 5330
40133 26593 25350
17911 15727 38007
13543 17437 32950
14929 6813 9896
66701 11382 2286
52555 10244 3047
37518 26543 22972
78332 2997 35159
62845 10043 1974
5622 21109 18428
22544 10663 4407
59646 3522 4717
3795 18686 17724
12314 17088 32789
29832 25538 26407
43914 23080 32542
25124 3921 39070
56454 4548 37255
49930 4548 37339
53980 4548 36713
26548 24302 29893
65452 13060 2918
66120 13372 2633
74800 11338 33681
75124 10914 31806
74827 11303 32721
64358 10012 38285
63602 2061 35294
78534 14611 24362
55287 18167 31696
2470 13102 28789
3823 21367 31568
47716 25115 24430
21783 145 3875
68473 12717 37489
73824 9105 3689
5228 7213 5793
31919 3439 4763
67745 1156 2285
72365 15923 10910
72059 16064 11719
66018 17520 18043
38886 26585 16727
1107 8015 11520
77037 15080 25114
67927 16743 35834
57683 18674 14123
41403 9652 38091
77246 12952 10349
5007 18357 31328
76955 15055 31103
69752 12178 1250
56195 3499 37452
20502 0 3750
20015 6489 40380
50242 3190 36361
46268 3190 36352
27181 24918 14174
63381 16479 36982
50782 3657 3520
53948 4091 3523
56269 19560 19595
19214 8097 2258
63004 2520 37914
2509 5599 33397
57718 3190 36920
24590 7280 5026
63632 12208 36930
63309 12057 35814
63575 12181 33061
4764 21182 21362
18268 3590 40988
75862 11989 38710
9762 9135 38260
24895 22272 32196
75287 4791 38617
24833 21325 8626
81369 4333 35534
47159 21903 33167
68414 3083 3346
82579 6370 6087
46275 26078 14734
8150 17947 24527
452 11473 23352
30715 25775 24223
7992 8641 37281
1427 12526 25303
49860 9975 3051
73113 4882 1172
5718 11280 5871
4726 12012 16251
5627 18638 5920
63025 5064 36190
66190 7591 1769
13426 7536 8278
13426 4988 3856
13426 7623 5790
52997 19609 35224
23474 16665 3973
18918 21370 29689
9016 17978 18070
1113 7950 29464
25968 24329 12523
61681 7071 36409
3278 5572 30405
4057 4736 31185
4567 4191 31056
27792 25084 26397
67013 13459 2781
68895 13459 5262
69044 13459 4120
77403 7728 38204
19628 1647 2925
50414 22690 13489
20383 46 36821
67715 3082 29995
66695 3082 25544
67609 3082 27920
67748 3082 29219
68587 3082 27291
66885 2341 37141
46278 24680 31367
29286 21467 33036
35588 26408 21049
58717 18652 24626
15167 13449 1554
8417 14657 34758
69633 8282 38084
57343 7360 37971
29721 20746 33423
64492 8505 37130
18843 18112 7557
17532 4885 2817
43726 9823 3054
22061 22869 16726
22442 22975 13089
11878 15958 35189
70999 6636 1597
75668 16017 34357
5882 5559 32581
69084 12621 1800
6146 14713 8469
18878 5773 2017
5682 17094 31221
63355 10772 37428
44024 18106 7152
65959 12247 5904
971 12163 25314
60590 5880 38455
66662 12619 2571
24969 16924 4412
79505 3549 4156
1783 12111 31227
34316 13809 37992
74123 16247 32949
18088 1688 1196
2297 5786 31216
80277 13998 24480
79096 9170 37715
57134 11700 3048
40678 26667 22253
24514 7513 37194
22112 1364 4175
30814 25823 22076
64639 17691 19946
59047 10667 2864
70333 11643 6288
65802 17549 21779
52430 21790 16986
86403 8688 27380
61198 8671 34221
61301 9079 34845
50237 5044 37704
43267 5570 37744
39605 5630 37749
2008 9628 8002
5105 21446 27291
48564 10188 38101
36378 26328 14231
76442 15155 14054
18108 17828 34157
24894 10620 5949
2911 5171 10818
74206 7727 38306
22540 19901 8261
1315 11560 31441
48253 23717 29664
30530 4459 3008
67187 55 3893
77520 15327 31818
47694 17508 5425
71863 4025 35864
44586 21891 32717
63536 8923 2997
15735 6538 1706
22996 8232 9872
23189 6127 9958
23258 8792 9849
19436 4612 10020
20538 5651 9978
51988 21264 12499
75887 8083 9753
74566 4317 9992
8055 15612 8747
73933 4135 4551
20609 8767 31456
19551 7358 31399
20031 8382 31441
22229 11865 31583
13368 15521 4557
18351 13555 41081
17699 3190 3693
77387 13663 9405
3367 21250 14054
3390 11480 26603
6301 13281 26026
8219 16485 22750
20326 18345 33414
45504 23701 9394
36766 26201 28995
77311 13081 32959
54879 4438 37589
65915 3082 24237
65632 3082 26793
64193 3082 23018
65173 3082 21594
32797 25460 30824
65532 1788 4242
6303 5797 9868
72820 6072 2450
40746 16034 37455
79890 14130 15884
73744 7983 39899
67481 5874 39465
84313 4323 13008
10117 14022 4664
71008 6618 38463
60336 5065 3027
59498 5484 3203
23297 23454 20642
25373 24171 25085
25336 24120 25674
54292 19951 27257
14357 9543 8857
13606 8071 9495
20502 16143 3146
70612 16722 23744
4837 15159 16467
58210 16951 4486
31336 10534 2731
70371 16570 32627
3389 20566 6821
40889 26643 24074
19086 10364 696
20804 322 397
86652 9942 16798
35031 13294 38038
470 11809 24604
63641 10629 6071
12949 17348 8444
76310 3082 11310
76194 3082 16171
20980 14747 1197
9464 9312 3038
56242 17322 5008
68529 3082 19088
70964 3082 12479
66786 3082 19762
68734 3082 18076
69004 3082 14759
3286 18414 13805
22295 318 1564
46864 3453 37415
52501 17595 35042
40054 26666 20868
28361 3788 31258
20767 2148 1325
84905 10649 9987
63203 8175 35712
83247 6070 7610
78533 2997 16100
77437 2997 19390
78458 2997 18655
78553 2997 17205
61999 18091 13691
61635 16836 4487
3713 4435 10149
81782 11738 7876
35757 16993 36616
77124 2997 8526
78584 2997 9661
61926 4590 37283
64076 7561 39196
474 9438 13445
15446 4997 1832
30771 3190 3854
63465 14119 38958
14820 10451 35089
13553 7967 38629
14684 10183 36862
6401 18078 22369
13938 9639 40535
52000 21233 28669
8618 15997 27636
20930 12756 38954
68593 468 1192
20563 3674 29251
19220 3674 27139
19264 3674 25197
19666 3674 23188
21638 3674 30755
47406 25774 20752
18442 308 37831
64621 17430 11158
24904 3728 10056
26988 4958 9994
39684 17510 5436
22338 19985 32775
9033 17979 30971
50003 7653 3161
79330 13151 9768
23163 7870 39107
3351 21407 29922
62160 14170 2656
4939 4060 15868
10141 4060 13800
5078 4060 17451
7861 4060 14029
6399 4060 12169
5454 4060 14407
5151 4060 12518
10858 4060 11383
5527 4060 13423
68250 17186 25550
16868 15682 37760
76583 6849 36921
76596 4839 34525
76590 5747 36865
76588 6062 36142
71543 4899 3330
3152 13690 14985
10836 15086 5328
38963 26139 10647
71869 1410 5288
72087 8792 39579
77282 13658 10326
31124 16684 36949
24067 1133 38411
26008 9402 38502
69645 2438 5222
82997 11844 9266
43867 18106 33949
47623 17529 35656
51498 9530 3061
19452 19685 32294
9562 18009 16628
70038 8513 36798
9057 20683 33697
67670 12778 4226
68150 11560 2675
65705 5736 3003
72603 12537 1259
43699 26627 20657
58773 17498 5516
70613 13459 34955
68267 13459 38094
25304 10395 5510
62342 10920 4498
65890 17279 29301
71455 16403 32469
70957 6921 4289
57626 18756 25886
45145 18739 33481
49675 13816 37992
3874 19070 7791
24359 23718 12778
62262 3868 5579
21895 16804 4290
80907 13693 16602
23721 10440 36190
79874 4195 9583
79873 3050 7747
79874 4267 7841
8525 17955 13310
64158 9036 2322
60380 18129 12421
71274 4985 37546
70032 1514 1344
16728 9094 40434
17414 15520 3009
64685 11844 36820
62023 8353 2571
39792 11681 3048
25111 23181 9694
12740 15781 5225
34172 4548 37070
82526 9281 33241
16569 3613 4580
40125 26637 17411
67259 82 36186
7476 16438 23240
19158 7443 38804
57343 11064 38106
13771 3673 19105
52629 21941 19368
3416 12242 7512
27474 3674 14950
28149 3674 10184
27235 3674 12088
11079 4060 32161
51745 18391 4422
16002 10997 2448
14525 6876 34907
33520 18825 7612
81249 9561 35802
7270 7370 36580
70571 12213 2291
53484 3190 8018
35090 3190 4430
44223 3190 5631
52968 3190 5833
49500 3190 5657
53823 3190 5532
50720 3190 6201
36514 3190 4119
49221 3190 7422
45236 3190 4232
45880 3190 6803
56469 3190 6452
49193 3190 6399
40218 3190 5250
47065 3190 4551
46733 3190 6884
60384 3190 9153
62847 10048 37129
41102 22482 32778
41620 19781 33891
19024 7051 39521
61951 8976 31552
49683 23848 23331
18388 19316 32314
51510 22491 23803
24856 10963 1571
2979 18961 22592
86019 10273 27501
14297 3673 29551
14395 3673 28109
5614 12481 12999
38419 23360 8735
36142 18704 6853
33040 23956 9212
33345 21319 8036
38407 18034 6540
34525 22373 8497
7504 12198 33741
55941 18076 30032
5316 4060 26975
8405 4060 28855
8331 4060 30249
10922 4060 29964
7084 4060 26387
6727 4060 25469
5449 4060 22732
6742 4060 28297
7173 4060 29362
55466 19645 24525
63534 17937 26809
26812 6873 38291
37373 15894 37521
14316 8157 37948
25348 3429 34809
48371 15773 3579
18006 9728 3487
1592 4800 27512
70325 4748 3003
50181 20060 37677
21537 6525 2817
17854 12253 3139
79983 12109 4988
86485 7654 21860
64217 17737 23550
75285 15320 29094
42093 13731 3147
23186 1876 1333
2644 13281 23954
23506 16227 3188
46058 24980 10135
45467 8560 38053
54963 16797 36852
52791 21431 24836
68020 7949 9878
68519 12992 9691
67688 11770 9736
66745 6213 9943
71146 13153 31623
71840 9263 31491
49054 18105 34603
86832 9958 19226
76417 6162 2610
67868 4623 2583
8587 15944 28295
1140 4923 15771
14637 3871 38943
16084 3674 18981
18021 3674 15074
17967 3674 16148
18794 3674 18645
5850 20995 13035
31826 18781 34499
4038 21541 20362
23310 8071 3421
2398 12292 8645
29461 5072 36152
29461 3969 35918
45433 26147 28028
19325 1339 653
68947 1571 5100
29188 3673 24820
10502 17927 9638
85266 5758 24490
72165 11279 37275
36053 26432 18260
21502 10417 39715
25009 7906 4632
63327 6538 38222
27279 24994 25044
26021 24463 24866
61839 5072 5500
83543 4645 10135
77427 14939 26146
3498 18782 24294
14823 18320 9167
75318 14274 37183
10769 17341 10779
76571 8804 34178
76588 6002 32454
76595 4961 31831
76579 7552 34160
69468 16760 35331
22349 6346 423
3292 5558 17575
3335 5511 11299
4409 4359 11440
23203 23296 16316
22045 22880 18308
58035 16390 3903
42443 6152 37790
21658 3930 31258
22461 9841 31500
20357 6657 31370
21247 6319 31356
8830 17200 18114
62665 2896 37462
14036 6510 37427
51910 14710 37859
6625 6644 4950
60991 3082 29874
57276 19165 19465
86034 10908 22983
75674 15493 19884
61717 5956 4690
85565 9320 31270
11744 18693 21432
25650 5640 1374
46441 25161 11738
6206 11476 34922
6355 18086 18296
13211 13148 38632
58550 18130 11345
30001 10178 2215
46407 22720 31875
1228 12442 20854
37804 19798 7323
37903 20471 7582
77848 14632 28243
86595 8738 26242
11121 13210 3532
83998 10904 7923
17512 21009 25805
18627 21496 24094
20085 22135 21570
62392 17956 28089
69820 600 6105
22398 307 37328
24279 6525 31382
24055 8488 31458
24478 10730 31558
69234 11454 36541
18203 493 953
23061 9648 898
80267 12021 32661
65955 17589 14909
65780 17499 13731
36815 15412 3690
22051 13083 35480
20790 13080 39755
23003 13085 32841
23130 13085 38960
67617 6255 38970
29945 16936 36631
22305 6959 489
4285 11481 29356
18526 4181 40335
9398 11596 35381
68622 10498 39016
19960 17940 34032
13550 19496 24289
4472 14645 22593
42332 26520 14117
67150 3335 38084
56341 9710 38093
68189 9079 1154
69945 475 39578
9779 16516 9800
22499 23125 21335
23152 23380 21934
14136 6946 1869
24662 3238 1845
10361 15913 6830
3703 21303 25320
66181 1977 36787
83603 4559 27935
79347 13112 5937
49229 11130 38106
66614 13459 34706
69395 13459 33693
66494 13459 31760
67943 13459 32921
85785 7815 12867
85556 9735 30780
45308 4409 3515
49729 23484 26018
62053 18042 15010
62191 7820 39857
5279 21093 19006
76359 15930 33897
28609 5132 2635
44078 26556 23410
79876 5909 21271
79878 7230 25327
79877 6508 26623
79879 8386 25823
79879 7734 27886
79880 8651 29361
79875 5247 11052
79874 3838 13425
79877 6428 10347
79874 3857 11876
79876 5365 16133
79874 4175 10900
34222 25983 28715
62252 17956 17343
7595 18368 5560
79875 4749 31491
510 11740 26100
36643 4548 36827
27934 25254 20709
5574 11779 31644
25142 14747 39250
21089 22519 22807
22749 23094 27675
62663 9799 2685
73034 2540 4912
5028 13281 25816
17181 10067 653
77426 13965 6806
71117 3082 23008
73980 3082 30405
73270 3082 28865
48982 24059 15278
3009 21276 16051
67762 14191 1403
70005 3365 39581
4217 14186 28339
40279 3190 11200
33269 3190 18879
52430 3190 11934
34471 3190 12146
30662 3190 13359
42998 3190 15542
57669 3190 10081
46577 3190 14125
36761 3190 13809
35283 3190 15924
54820 3190 11881
42589 3190 12876
37991 3190 11745
30356 3190 17154
32702 3190 17139
38811 3190 16990
41495 3190 16339
45231 3190 12431
32968 3190 10157
31986 3190 16471
51364 3190 10503
31130 3190 10147
39026 3190 13300
48669 3190 10966
30376 3190 19180
33707 3190 13454
44000 3190 14423
56981 3190 11104
40230 3190 14123
33793 3190 17685
38909 3190 12058
82003 12825 12361
70798 16684 20741
72762 7192 1725
16833 20759 16917
18664 21524 18213
36574 26296 27591
27374 22888 8826
23743 11709 822
70053 8088 9873
67772 3984 10025
69839 8753 9848
69634 9922 9805
26048 23616 9788
54630 20314 23711
74187 15277 4642
31868 22682 32847
65929 16667 36374
21185 22534 16438
21371 22569 13679
81955 4015 5777
71853 11347 39373
8416 11473 5044
25544 24364 20430
84675 4320 19068
15411 3674 21394
18058 3674 24707
17846 3674 27906
23431 23388 24219
22143 22914 23089
23995 23511 12105
64460 1087 3502
79280 8584 37598
29377 18015 34598
70669 4195 3288
30428 17488 5566
17649 2858 40434
16146 20412 13183
19565 21906 18512
16424 20535 13737
71147 13401 3126
72904 12600 6765
73688 12243 8343
54000 10697 3043
61521 3082 22770
61572 3082 31041
53792 6650 3257
14164 19688 16181
14742 19941 16907
80866 4790 35960
32186 3190 36524
34686 5651 3362
23864 3674 10461
24652 3674 12201
25507 3674 11927
23365 3674 16700
62434 3283 37012
23878 23245 10906
58082 18522 20717
63290 2295 39310
45506 6520 37833
51303 20269 3622
13644 8146 2690
15618 19945 11425
11377 4965 38987
48114 24192 28454
9923 19610 8002
1475 9341 32251
17742 8262 38604
79877 6400 33587
79877 6090 31706
79874 3772 34062
44641 20276 7661
76233 3082 29527
75998 3082 20669
46575 7853 38005
63941 8715 39442
35796 24149 32077
79491 7539 37259
4399 13281 32019
33087 17928 34582
84841 5826 19625
22054 2467 1084
7650 12963 33127
45144 7400 3186
84583 4604 22196
67174 15645 37786
5036 21277 29247
50536 8629 3093
20600 3674 15315
20242 3674 17113
20960 3674 12111
19024 3674 11583
6945 16147 19255
26369 4009 37664
29735 3190 10027
4324 18221 34029
53462 20277 28255
34936 15459 38182
65787 6059 37741
46590 26087 16369
72347 16180 13697
26106 3558 37942
24438 9731 35228
28641 3888 4763
78032 15067 33109
3841 13281 29253
74965 3323 10043
72280 5019 5222
5558 15271 16605
10095 17818 34074
38632 26163 30200
3787 18689 27125
67394 727 1080
49755 3190 9939
6214 21038 8069
53504 19684 10896
3548 21321 9080
68600 13459 6064
66601 13459 7179
67832 13459 6896
63410 10814 4336
20532 57 5219
84299 5633 10633
79878 6885 7006
79877 6838 7769
16927 3674 11787
16619 3674 14093
15812 3674 10962
16396 3674 16137
44508 13419 38028
67490 38 38347
37004 15280 2971
63857 1543 4257
7709 20317 33217
62231 17981 26036
51601 3190 37051
53154 3190 34917
53806 3190 36451
41519 3190 35592
59997 3190 33317
53063 3190 35583
52744 3190 33499
46323 3190 34457
57325 3190 35149
55307 3190 32793
59217 3190 34857
38989 3190 37180
54977 3190 33686
56870 3190 33669
45420 26364 16856
2540 13280 22194
48393 3190 4519
55412 3190 4715
9671 11472 36047
64372 7970 31433
63085 4035 31287
23182 3674 17477
23185 3674 11633
21736 3674 15810
21849 3674 17492
23031 3674 15463
1375 8535 9586
75823 4280 38677
50196 20444 5121
28330 6274 39011
32216 25925 26154
66135 5083 3346
20216 6895 1419
31674 25305 10351
8208 16209 29943
74175 4639 37588
36574 8802 38063
66169 8745 9849
63635 4116 10020
63940 5814 9957
21662 583 271
23104 1086 40815
58723 17589 6340
68225 17192 22665
67175 12699 36169
67437 16210 36851
84111 4602 18765
77300 15279 34066
14563 4074 5437
81409 3521 36455
83098 9276 8406
44346 26333 13267
84357 3809 31329
4861 14342 10422
23026 8958 37389
23143 7499 3420
5454 13281 9157
15121 20139 20226
85047 5509 25131
53179 8727 38060
14572 19903 22767
53960 19724 29097
20508 4789 38270
62483 15279 37855
29461 3464 16388
53100 14782 3304
7888 17946 31076
57456 5202 37731
45464 19230 33469
20909 12715 4669
10504 12050 5510
4864 5325 35536
2642 11478 14666
66397 2510 2198
79755 11803 8767
10478 18028 10462
60917 4431 31328
4289 18543 19800
1807 4868 28824
65118 11123 1130
33384 10071 3047
71113 16620 16758
18683 4086 2817
55517 17030 32551
26927 11924 39895
32415 23702 32336
6222 7895 4979
67665 12742 5119
12453 12817 2648
24307 3221 333
69259 7060 3346
84618 5357 27413
26766 6235 4012
66010 14346 1707
53643 17014 36591
59516 13730 3122
22222 4967 2219
10020 18038 9242
73725 15614 30127
63437 10757 1913
71097 962 39413
19956 12448 5983
57270 18209 11217
36719 16526 37125
4906 12167 6478
17665 5073 38673
52824 20212 35526
63886 17782 20602
17212 901 4691
6332 13281 22530
67891 7 3030
28920 8989 39288
68884 6091 2223
15659 9986 9745
15758 5876 9961
16657 9816 9781
6512 11480 7089
21085 2210 39564
76329 5030 38797
65621 3914 37900
73150 7520 3389
23871 16710 37074
74198 12011 4164
73358 12394 6333
69727 7520 2838
5547 21027 23602
58158 3216 36394
16124 3143 243
50379 16200 3784
28611 25061 29022
24233 22466 9421
4814 21621 8444
56725 13330 3114
42934 26305 11592
76303 15302 18030
49024 24463 21450
26562 3674 26345
25087 3674 23042
26419 3674 22523
25448 3674 21019
42290 16120 3734
37632 3190 4264
44411 3190 4185
7207 13282 33291
85599 10455 12154
15658 16034 36862
69915 16863 19686
51169 22577 16064
46803 25194 14227
73782 3607 3945
6761 4362 9725
28194 17596 5865
56750 7005 3228
15726 11394 39521
16607 11863 37210
18664 12955 38179
19543 17878 6961
38647 17606 35227
49981 10041 38097
82266 9572 6046
8599 17303 22164
24240 18051 34351
83832 6873 33447
35410 26370 23366
29681 24765 31203
3627 8465 6642
85297 6627 27522
9265 17531 12632
72422 4376 2035
73292 16030 26701
66105 15898 37457
75265 4153 38228
33574 25839 11734
29394 7858 4646
28871 8628 4495
28026 9874 3622
24419 3678 40434
70682 8581 3450
64833 2328 1207
65942 12387 5290
57179 3190 4008
54275 19996 14016
80102 13800 27999
77695 2857 36709
41981 3190 8787
40308 3190 8467
30045 3190 6630
35667 3190 7553
33682 3190 8198
42678 3190 9385
43879 3190 8670
35178 3190 6153
32136 3190 6477
54333 3190 9073
30663 3190 9252
35422 3190 8461
51499 3190 8617
54784 3190 8613
34014 3190 7277
37041 3190 6950
25311 16419 37530
79857 8609 5209
57502 3227 4717
30602 25793 19074
29838 6337 38626
22434 3800 2414
24237 9042 40434
85935 9737 29236
48659 22137 32489
7600 19463 8295
71598 1247 35571
14969 9700 37003
84880 4348 25587
86372 7364 23340
26729 6535 35547
22997 4288 38270
51975 12811 3083
72033 12997 32628
72397 12832 31690
71875 13069 35667
18643 5396 38270
3134 21176 22484
64994 6379 3003
60641 3385 33819
60641 3448 32941
592 5438 25140
18701 7244 9912
17255 5405 9988
18754 8945 9843
49307 4261 36336
48762 3866 36336
54438 3542 36339
63351 7267 1508
48541 24832 20189
20593 12503 35083
22383 9300 2432
22880 11010 479
64048 17803 27272
63299 17539 31030
26539 21955 8673
20223 7864 1716
48732 23669 28780
63543 5870 39579
34622 7420 3177
22360 10597 653
31880 25852 26663
58885 6506 3163
24320 9777 300
77770 2997 23119
79696 2997 21882
79782 2997 24953
84323 5475 29753
60911 3082 11068
72779 2197 3187
74261 5315 36564
15683 10673 38454
5607 21027 15885
70144 370 4461
73953 3082 26363
73428 3082 24415
72331 3082 21612
61510 17574 8087
8783 17964 17112
25447 10269 3678
8891 14835 6278
8072 17945 18436
45895 16557 4052
56759 17053 36490
34053 26117 14391
73535 3168 4491
9244 17525 24625
45179 16463 3968
47121 25963 18465
21038 22514 19539
5239 4482 30866
70454 4137 37741
26662 17796 34698
20027 10203 9792
19700 11094 9755
19511 9394 9825
20958 11681 9731
19010 11856 9724
50474 21183 31659
17859 12528 7604
17528 12352 8163
16853 11993 6654
18132 12673 8682
47876 25011 16708
40620 23060 8576
40182 20961 7717
66837 16929 5449
64834 3082 29460
63805 3082 30380
65347 3082 30388
64484 3082 28929
5766 11651 35283
22504 11499 214
45380 26421 21603
11861 18645 15303
78208 2997 32942
77227 2997 34498
25471 12093 2650
25998 11847 5829
25293 12177 4587
70904 722 3772
55043 19764 25451
46099 18106 7298
7449 17964 22785
7042 4406 8921
54634 20038 15648
33287 10139 38066
61203 16615 36969
65800 12318 4373
51562 13701 3143
58096 7740 3097
38866 26618 18952
28067 19254 33906
10687 6630 2518
45035 13577 3132
48822 23697 12713
67157 467 34929
59384 5643 37939
19496 16024 3142
4176 18574 15037
45573 9637 3058
71824 9971 2763
6322 4750 33125
22799 23141 25106
24373 23696 28699
4306 20392 33541
3384 21270 29164
46451 26097 25222
32212 18036 6150
84906 3841 29269
27001 3674 20403
26593 3674 13539
26079 3674 18684
60961 7724 6599
61016 7946 9521
21716 10950 37534
23015 12171 4025
75312 5090 38012
78480 5654 38043
43570 26598 23981
77412 4747 3671
63713 11115 3177
75495 10428 36823
75973 9801 34999
29461 6425 32957
29461 5399 33634
29461 5841 31666
20590 4139 2219
86520 3499 16840
37137 23772 32165
23851 17735 34772
32232 4215 36350
48748 14169 37951
55568 13676 38008
72138 3636 1508
5086 21397 21902
3046 18626 28807
74924 11176 3354
75839 9976 5896
14983 3115 36371
72703 8735 3232
65455 2885 35864
20798 11089 4712
60968 7754 5272
69742 10573 39579
57068 6479 3246
25495 7843 38467
60641 5375 35481
60641 5880 32816
1445 11475 16082
26145 5564 6268
19343 1238 38059
61837 4782 3895
6073 14927 31035
82099 13208 24069
24933 10709 900
50234 19478 37127
2609 19405 7314
24517 12541 7072
25640 12015 7555
23881 12839 9532
6378 11473 5552
2165 11475 9811
74853 8892 31529
74912 8295 31507
71997 3082 19720
74194 3082 12168
73905 3082 12930
68317 5560 37741
9594 18924 35320
7159 13281 8590
20945 4696 39077
1237 12440 23098
25675 24323 16400
17892 1821 39312
63357 10862 9727
65807 12512 9705
63056 7026 9888
19594 11476 1800
16151 10171 34799
8517 13282 33793
61082 3082 24989
81471 13524 22006
68234 152 35359
7281 5205 4151
54493 14266 3212
64659 17512 29079
64990 17279 30836
15309 6917 666
21494 5760 40278
36253 8770 3087
23002 560 1951
15703 20359 18498
60137 14624 3237
16777 11953 33579
15262 11147 38799
15970 11524 37413
68687 10585 35864
32774 20691 7586
83320 5655 32919
16486 7569 37908
16875 2569 4282
17506 6863 62
4732 14774 24193
34514 4548 4684
43882 16979 4514
80155 14045 20802
73277 6114 3824
57692 17350 12690
65134 7505 3003
27318 8318 31503
29016 7725 31598
8240 16681 20316
13426 4687 6585
13426 5163 4868
13426 5521 8926
3318 21413 23666
21735 13082 5297
23147 13085 2343
22914 13085 1611
19094 2410 39405
28343 9406 8777
28019 9883 5682
27623 10468 6364
68732 12565 35342
80387 12389 7275
21333 22438 29277
53866 21140 19708
61028 12231 2326
68648 112 5588
17931 13978 40431
50464 17064 36524
52202 18905 5554
40642 26355 29199
58623 18043 21578
37404 26411 26853
17558 21069 23413
15735 20289 25339
15977 14517 2256
85682 6950 13591
16618 20744 21262
14854 20027 21907
3932 17739 32469
15366 7469 38954
83124 8436 34958
7070 17995 18679
38531 26354 28495
63896 6450 1716
47013 25089 13075
2520 13281 18617
71252 2513 35986
84614 8450 8635
19637 13077 38399
19208 13076 36288
20494 13079 33986
19793 13077 37325
80037 7471 3782
65278 3082 18722
65750 3082 17352
64499 3082 19218
5818 20943 24767
78910 14208 10136
4199 11480 29923
10167 17771 26208
60674 5674 9777
63556 10888 5372
60764 6943 32031
70926 15448 37377
55206 15539 37652
71494 16028 9887
62380 3082 19807
62136 3082 15849
3362 13877 24900
20117 9122 2817
17101 1080 923
3465 21486 21425
65349 666 38743
19249 170 37457
82398 3938 35009
19867 17525 5990
46609 24735 10671
6077 6333 35860
39765 26231 30062
6307 13246 20073
83969 11423 31345
48314 18105 33761
39696 3190 33686
42450 3190 34536
47128 3190 34041
35342 3190 32678
32162 3190 34465
37113 3190 32398
30366 3190 34556
33779 3190 33238
42141 3190 31753
33889 3190 35467
39298 3190 34445
36885 3190 33948
36458 3190 34600
45876 3190 33656
35249 3190 31654
39649 3190 32997
9142 12590 4429
23373 4910 10008
23636 10640 9768
24050 11627 9720
19167 7263 1727
24147 5488 3311
31306 25848 16251
53285 7679 3158
74652 3082 17960
75433 3082 15080
14115 5587 38679
44512 24001 32151
43221 26636 22131
55675 14985 37799
24759 6542 5026
61417 8991 9705
26722 5622 2622
69505 10741 5222
28792 8744 33004
27094 11247 36769
27359 10857 35716
9952 13575 36681
15886 18774 31896
14502 8025 31474
14452 7060 31424
62596 11306 37261
62846 11685 35294
53069 16144 37401
46874 24524 30400
62941 2583 4168
61933 13107 2229
62507 11171 32566
62110 10568 32511
15971 17300 6325
55404 20073 21723
67384 1635 2892
63408 5467 2733
62986 15096 38083
60272 17803 9762
3448 13281 18018
51906 18481 33993
59334 18355 27795
37394 23533 8839
36406 24648 9330
26559 11583 34254
26680 11527 32652
24598 12503 37516
24741 3821 36205
51539 19917 32472
24700 23563 10924
39094 14523 37897
62610 8270 9832
7194 17981 21529
56717 18860 15207
3438 4625 33532
4761 11481 9638
74995 16080 34706
10759 5436 2351
9908 12143 35949
74400 13953 37957
75337 6135 2282
10340 4060 33915
11127 4060 34598
7573 4060 34720
10267 4060 32448
11973 4060 32989
6640 4060 34124
9854 4060 33594
29049 14031 2775
12380 15328 36335
