ply
format ascii 1.0
element vertex 2855
property float x
property float y
property float z
end_header
72002 6461 33032
60761 15200 26448
81241 3629 3693
26518 18091 29232
56447 21524 7299
29637 4726 5211
22244 3620 1914
66996 4837 5692
81797 16424 15659
80591 2375 32114
85863 2591 5606
9441 5205 831
65640 15861 30721
69133 7844 2692
30378 12287 32060
1856 9208 30951
52007 22833 30103
26627 6126 30484
87209 3550 18307
47344 4440 19552
52051 4440 12747
74620 8052 33706
59360 3688 1110
52314 24729 14189
16717 5989 2233
28670 6803 34479
30636 6473 34476
26112 17701 26814
25985 17677 28409
81725 12756 34190
84756 12321 9409
38279 13757 531
32705 14088 31846
60323 14517 27491
58396 3579 707
59221 13724 555
68523 7377 5055
36582 4680 13705
36622 4780 15474
15328 5556 1606
85330 10318 15966
51899 13389 2416
85746 6547 24238
85747 8769 23457
85747 9500 21033
76685 16451 11131
76370 16312 9953
38607 8765 33358
50206 7658 20284
34466 4474 18670
19154 11762 34451
68475 1022 2763
85363 5546 18965
85363 7025 17575
85363 5312 8690
85363 7469 13738
85363 6645 15756
84015 15099 31153
61446 5213 13211
55422 8364 32317
1791 6784 8781
32497 12142 34588
18015 10033 24633
18398 10100 30676
32663 22530 29769
15973 8868 21046
15629 8597 27162
44515 4249 33718
54137 4169 588
29898 20343 3918
45969 10412 28567
60511 16443 5215
58163 8991 31306
20634 10842 25573
61354 14703 34030
61289 5116 11637
42617 12163 29766
3476 11850 34031
27582 19109 16206
876 5669 2192
41868 4058 1110
29155 4154 1110
61036 6960 27451
63327 5167 33739
74410 8372 1928
26917 12190 23723
27331 11151 22381
27982 9440 23324
37050 10811 34730
3026 8735 12531
2315 15462 32112
71610 5144 3760
41458 15955 2330
57853 9552 31492
85409 5648 5885
76027 11287 2370
29561 15584 13014
27250 23667 14612
73244 1646 33355
51857 4761 517
18543 7482 3785
29110 16828 9546
8498 5125 32359
7967 5168 23949
7776 5185 27744
7218 5230 21709
7362 5219 26550
19034 9134 1807
86418 9478 27307
20618 9185 5237
54682 4538 25042
53305 4536 28739
55113 4540 22918
55389 4541 13521
48407 13071 24963
37923 14598 3083
26913 18050 27414
26508 17836 11650
3224 8825 14337
59735 3178 2480
60187 3206 2642
16756 6774 33724
4190 3009 22113
13047 10148 15659
27327 13136 3546
85625 9477 6460
14546 6244 30182
28010 19515 29518
19456 6282 5538
76090 8957 34378
23959 9177 5735
42057 15441 22121
54975 15956 13138
57225 15956 19416
57383 15956 22874
56832 15956 31160
55386 15956 28934
56437 15956 21844
55693 15956 13110
54787 15956 25112
24417 21950 20970
4760 15125 16032
69735 3513 5008
36668 11127 31942
34722 11924 31895
35584 7494 31916
33625 6560 31868
36046 11556 31927
24413 8955 18493
24721 8699 11770
26798 18251 16948
85318 8771 7003
1606 9739 2678
87004 3221 15888
50414 8714 26324
70457 3095 2567
23134 17762 3980
57911 5169 3340
34705 4440 25665
41604 4440 16979
46263 4440 10004
42940 4440 14374
32946 4440 28535
28506 9736 474
59346 5259 5384
6667 7200 4815
29910 14221 11129
59582 4989 28574
23341 6135 33363
42575 11473 336
41981 12153 361
73829 12450 2248
81628 17266 17445
23125 4126 1388
31362 24351 25501
22136 17861 17306
60631 4030 622
2741 12433 3370
44649 6367 25304
44146 6353 25107
84537 12473 27156
74550 16977 16003
61861 15546 23313
61800 10330 24009
53127 4255 33794
48604 4254 33808
42735 13102 22228
24782 7823 33868
82684 8872 1373
5264 15823 17223
22921 17483 29627
74406 6996 5237
85363 6176 27994
31481 9452 12410
68591 5010 32912
52415 24701 20763
30252 11637 26475
86804 7984 25765
18998 17402 19382
60984 4989 22975
59261 16188 5257
78289 16752 15326
84688 14451 33100
77271 9403 1790
26520 13209 10489
87637 5316 29017
17133 16344 31793
27266 21806 15962
3314 4001 1073
71405 4010 31608
78224 16631 21296
27240 4735 21531
72983 11103 33437
20394 12929 19516
5767 7395 12174
3504 7400 8397
38639 9482 34734
68350 6155 3249
85368 12444 3040
5453 8011 34277
19093 9642 30674
61830 9386 23670
29974 4535 18072
84611 12580 22593
33283 14387 34062
30210 12564 13906
76570 5955 34153
18937 4887 1960
85789 3823 6808
69911 1807 2185
14023 16617 5898
22161 12070 30198
10492 3951 17180
11132 3948 1778
12238 3949 8198
12159 3948 3272
11595 3948 4114
10137 3948 4911
11561 3950 12042
10183 3950 15648
61503 7712 25821
58736 4440 29214
27486 3241 23678
65142 7419 23197
64992 7262 29250
64746 7004 20062
72347 3028 2500
3319 10437 17245
82110 16177 20346
60591 12486 8301
33763 10902 488
33328 7293 482
85324 10871 26785
61113 6906 25035
22291 11104 34481
74523 2812 30068
27802 9714 3757
75126 5925 2748
21113 10181 24860
41738 16227 24778
56047 6201 32322
58183 14517 28835
25240 17787 27982
13495 4933 34039
25980 7085 25854
26043 6974 2658
68716 6821 33166
77117 10166 4006
27290 18960 29414
48461 23867 28834
46735 3404 33739
47821 3385 33739
63438 17107 16194
86020 9814 25037
78913 8048 34611
71955 6705 2399
65571 5825 32240
68145 16863 23160
25905 17896 22945
75286 6589 31588
53994 22693 29427
43330 11049 2928
43431 7561 2888
46278 4860 2724
73447 3407 2491
25887 8341 1770
47409 13312 2750
16841 9687 2496
16988 9745 3375
24186 15353 31146
69203 8308 2425
70794 10569 1866
71168 10626 14039
71811 10719 7180
71636 10692 3838
71122 7026 1832
30173 19714 3505
17312 2247 34062
26336 17480 15119
51002 24688 11477
18590 4220 2240
13826 7266 31213
9042 14534 33718
22786 9818 26983
48661 4517 32439
1514 5744 34440
27587 20585 23290
16949 5027 33876
77601 9989 16837
77441 10124 7196
36878 7751 20151
36829 7123 19717
24869 5822 2166
15076 8644 20574
14913 8491 32778
38709 4440 16615
32282 4440 26113
43976 4440 7945
44712 4440 5931
47925 4440 3835
20875 16006 1564
24340 8470 20727
24192 8615 9870
2379 5417 5992
72287 15692 3357
17430 17398 14242
13353 17092 15213
16413 17321 15349
16694 17340 18161
26240 5718 30172
26317 5552 22336
30531 10209 17919
40899 9478 22234
41050 8652 21965
8857 15497 1725
23178 17006 19766
22993 17042 21598
4438 13668 8685
22392 17185 11092
34303 25016 21767
36782 14518 926
70876 1221 34328
32044 4505 25556
31915 4505 27186
69960 6955 30304
35173 25101 20074
22328 5829 31643
24193 17734 30144
30031 13745 17468
36773 3356 1110
40313 3265 1110
16728 5198 32871
35245 4463 16255
31138 13948 31808
28406 17599 9279
43666 25039 12696
38724 25187 12386
45532 24992 13494
60211 13060 34608
71631 8216 33728
20561 10263 6922
21298 10225 25998
22709 8244 2913
23482 17711 29708
17412 7983 32596
58678 15698 30672
26658 8065 31672
41330 5661 2879
61104 7890 10255
61337 12542 8914
75728 15759 28123
30167 24513 21939
61468 8532 21910
32566 13488 542
12059 16999 23590
16862 17062 24194
16417 17182 22494
80502 16287 12066
13792 6420 26587
13789 6410 6257
5787 15295 3358
45263 13040 31872
42820 14059 31782
42792 9224 32007
23525 4271 30111
6667 6575 21741
38195 7558 32256
37293 24981 10377
42533 24776 9071
17248 9825 9648
17044 9769 21512
51325 9414 34528
61209 8483 24580
27416 12044 3530
4745 14447 8677
18196 16452 30673
20441 15822 14187
53484 8539 32441
27321 21159 21003
85343 9199 29556
82123 13100 34126
61955 15235 22406
65756 8004 2904
26925 5379 14857
27044 5063 6254
26803 17417 5837
21981 4718 5237
38463 7358 1428
20992 5634 3785
60570 15739 33313
50229 9422 29052
64341 13358 556
86281 5969 4435
56796 7362 32985
27264 11323 12386
26738 12707 13021
26489 13404 15221
22524 9923 8764
4908 5700 15462
4712 5790 4837
36150 6845 5597
73721 1690 34093
6828 4534 34423
2284 7532 32144
37969 11803 400
66208 16993 21661
75911 11828 34398
74520 14123 34079
70451 10519 8227
70930 10594 32296
70473 10524 15098
70587 10541 16409
70664 10554 28255
19629 6730 3785
72602 10981 5721
18017 524 5236
71062 9516 1687
21181 13035 6648
13767 6536 33242
3946 12499 11043
42485 3516 34301
5697 8443 12367
35526 24658 25874
27287 21428 11257
28120 3158 23500
17917 7343 4568
27939 9640 15775
26539 21876 6594
56689 4246 33572
56828 9970 3299
65023 6888 10643
64493 6244 11892
64663 6450 6858
3328 4559 11373
86047 8258 5681
65545 6409 4465
46828 4530 14154
50780 4538 5018
50465 4538 4293
49396 4537 3060
47824 4534 7802
47323 4532 12079
34566 21683 30893
85646 8544 26417
77701 15400 32718
55188 4750 2245
21819 3320 33687
69176 8542 32832
51726 3764 33739
20529 16534 31138
27195 11235 6440
4467 4039 15621
82640 14678 5463
85065 10820 5201
41356 6645 29482
29594 15241 25221
27221 4578 4645
22423 17847 14146
5942 5727 20214
66568 16911 11388
30419 4526 7239
33269 5951 34469
57124 14068 34458
22599 17833 20736
23453 17837 26834
77424 3793 5338
41762 6294 18508
45648 4425 2156
47241 4426 2120
25586 16666 26979
24628 16759 15442
24283 16791 20809
72438 15553 29518
38619 5194 33572
63997 17126 14969
81485 9002 34423
48386 13640 26811
33201 13431 3197
54735 15494 17117
54735 15702 14544
36067 10237 3128
35943 5421 3130
36156 12828 3126
36618 5800 3115
36828 10004 3110
20226 8224 31773
19106 17421 18613
27634 19225 12780
18061 17296 12348
29350 24361 20889
64702 15220 1271
16410 5650 30232
72707 9656 30423
24852 11603 4021
51071 24763 23154
74895 6855 2222
40012 14087 18852
48061 12727 31946
5621 15800 10257
18514 7448 2766
72720 11348 30081
57341 14517 8788
20689 10256 6287
21578 10209 26784
21194 10227 2662
55729 14517 26341
73241 6345 3785
22529 9612 9256
22739 9498 13031
76916 8590 34316
54705 18212 2628
77510 16174 25527
20081 11156 33981
8874 16685 10281
16561 17317 13423
13173 17057 12372
29441 5728 18921
66712 8810 34581
85330 9514 26167
43073 10483 299
2874 6257 190
30381 11176 11833
60198 3299 33739
19058 11762 468
34265 4440 23898
33027 4440 25976
35888 4440 22903
45964 4440 7602
65216 7493 7266
64970 7236 4890
74260 15652 32152
6667 4363 7785
85476 9846 28607
51467 7930 34491
20792 3454 1827
73876 5045 33642
51638 6070 34430
56418 6272 34328
22884 9419 23074
23139 9278 13811
25609 17986 14070
39040 4594 11521
74472 8535 2758
27237 18617 22705
26592 18148 25674
29375 16176 12696
20859 342 30434
71058 16775 21613
59034 7494 4181
51783 6676 32405
51465 4794 32474
79127 6000 1465
24571 8824 20285
2433 7532 33529
39676 15721 32884
27987 22118 28809
87839 7274 25798
20416 12731 20276
26284 10017 8560
26284 10310 6328
26284 13868 8858
26284 13704 11466
26284 9071 14361
26284 11977 5052
26284 14749 9920
26284 9590 19312
26284 8331 6659
26284 9972 22592
26284 10817 22355
26284 8080 14564
26284 8181 28509
29696 21888 29693
34010 3333 34148
70401 3296 3108
76294 10768 20171
75870 10897 24472
21962 17868 27345
56376 10668 2425
85331 11232 17084
57011 11865 34757
50418 10013 18770
32064 6694 29733
24424 21579 9258
22531 2168 33465
58831 20269 12134
25195 8181 6018
25365 8003 2752
6450 7402 28564
17684 3030 34127
23844 21031 25883
17243 8123 30295
30006 4533 11010
30653 4525 15141
82604 15792 21538
60971 15858 1844
30354 11392 22557
26737 18398 26106
27762 19582 15158
26295 5596 9282
26085 6045 28560
26318 5545 4490
30030 13725 19770
27217 21520 6877
31784 13448 3232
21968 5722 3785
41470 14288 29844
82449 8703 34490
51706 14256 33835
76769 8093 5692
2565 7737 26085
2399 7387 28922
31711 24765 21163
2089 9896 31926
25882 15762 3797
6222 9845 34174
67541 9175 27977
67527 9165 23233
67518 9159 22355
18047 7571 3768
841 5805 32918
21328 12532 5285
33948 14157 31876
26732 5596 12229
26906 5124 10989
5172 12920 972
59503 10327 29659
8461 16806 21329
8796 16867 19198
9511 16973 21931
27776 3193 11641
27703 3200 3040
5801 4001 24410
59715 4989 20538
16942 5210 30294
62146 3993 613
23064 11998 4532
48491 8404 32159
66839 2836 5255
84267 14065 5518
61185 7668 34726
26079 16631 10144
24218 17858 30624
71293 6282 33852
519 6325 2532
24019 11520 32602
26987 3755 10167
23497 13937 631
1127 5549 3245
42301 7017 34652
51229 7085 34459
23482 5924 1903
56302 14517 30400
63446 5745 29895
62631 4944 14128
63364 5665 29048
23716 17484 6090
23547 17482 11462
19757 3580 33456
22509 17698 10728
29706 13977 30366
49457 4182 34377
50725 8899 261
45502 8694 324
84111 2511 4073
20606 17753 21723
24738 21192 7023
60070 4380 18489
59717 4361 16797
29046 17186 20210
78004 9722 26794
77999 9722 14644
1683 6472 13889
43098 11463 25041
41911 8796 29835
21035 756 34184
44839 6205 491
40436 6965 496
68444 7111 4657
83469 8872 1457
41637 13532 508
27250 17773 31596
78516 15431 2347
19649 5575 2300
56850 13260 33848
20278 2384 34077
60137 10739 7028
63568 5863 17765
64002 6283 29257
64207 6480 27757
56535 14517 17827
86089 8928 26756
61861 3588 25386
62029 3666 32904
85086 13084 33744
40936 9730 34749
63798 5459 21004
64175 5879 10580
64198 5908 30716
13913 4984 4345
66905 10249 32787
44041 7438 29818
2664 7957 17079
49351 9935 29918
85301 14017 30459
68612 5431 33398
19640 10230 13777
20477 10267 24257
19535 10225 10089
35969 4453 20363
31383 4515 20031
39508 24845 25618
51701 4440 19454
47157 4440 26251
50863 4440 20669
50181 4440 23023
48248 4440 25667
4729 14462 24828
4708 13394 30569
24758 8612 19540
25104 17774 22092
54233 12970 302
3142 9412 22352
85087 8872 3496
33561 4485 11513
36044 4451 14407
1916 4308 33395
23819 9315 22952
23612 9420 14978
41085 13485 34376
85027 12167 30738
45601 8756 29797
68987 4284 2461
85747 9189 25131
982 8867 2163
23553 7507 1410
12417 4913 34010
22224 17731 12445
56674 12535 24473
81729 7553 806
25295 17788 17536
26052 4501 1936
55927 7589 32278
60983 15082 9677
55985 23274 13016
18056 3893 33401
27143 3448 17213
8091 16107 7016
60092 15956 26306
20466 9737 4368
4114 3353 13836
23224 9228 9275
23967 8775 6335
23357 9147 6100
25447 17812 24071
85910 14549 4343
68362 6615 33424
46942 15555 1483
58255 11996 3535
85005 11290 7233
26075 6921 15827
26109 6856 5418
24236 1595 4835
16571 6735 31506
62983 16964 23670
78309 5492 31852
51299 13012 2461
51501 8410 2398
235 5804 33043
20589 9719 31710
66039 16722 9010
69017 16691 9719
40815 9781 32068
72871 12234 34087
79325 16103 24899
54799 11997 34307
56085 11793 34292
57409 21891 13912
67533 4070 33862
27453 18511 21226
38944 15032 1157
2527 6776 0
22529 20329 18399
87657 5496 7408
57856 21253 23110
24536 17897 4107
43488 24644 26772
61659 4616 11866
41359 13139 31898
62008 4686 33693
62093 4718 24964
85255 11657 2724
83608 2753 32430
78119 6749 30475
20475 13711 12711
28082 22255 6241
44365 9964 21660
28179 18002 18716
21564 9230 1811
34928 10059 14489
9418 3972 31865
9543 3957 9797
47374 6448 28841
23420 20976 23812
33240 9794 12794
85793 6928 2842
65721 6047 1887
21740 17902 12713
27359 19077 8618
61191 15549 23847
24155 10803 30364
3463 9859 27719
21297 13645 28994
12809 9022 570
42538 13845 25070
36592 9696 8551
22313 10009 15031
22234 10031 12581
84520 13280 16841
14295 6781 28662
14683 7545 6777
3894 5933 6751
3879 5752 8370
70322 14916 1157
31186 9363 11459
34456 9887 8221
26391 14014 4831
23548 10130 30955
20628 8227 3785
26894 3981 29024
26685 4643 33196
26925 3883 33148
27131 21942 18839
23769 3218 30050
20372 5495 30304
9913 15994 28867
69686 5983 30304
3887 5851 25754
3867 5614 16277
83151 4447 34070
25894 22567 21673
15676 9119 8014
41396 16672 28711
51560 18511 3143
26689 4626 16117
26786 4319 10720
26783 4327 13412
31444 22920 5748
83704 9136 946
44247 4440 20907
47219 4440 14758
43372 4440 22909
49932 4440 9233
69981 7622 2486
58061 20865 24167
23427 9510 23736
23809 9311 33104
60396 4317 34386
41128 8116 27740
56814 14500 31824
3337 14119 3717
39941 25182 20263
42996 25133 17807
37925 25215 21213
43689 25121 19842
42561 25140 18578
18220 17153 23311
24092 8704 31850
23609 8997 26531
67453 1800 3816
40376 17578 22472
78303 9540 7281
21392 17955 23753
70749 2862 1497
47138 25025 18681
45081 25038 15524
45956 25044 17587
38603 25208 13522
40361 25150 13321
38876 25191 13026
65745 4755 3147
60588 8563 27042
12291 16792 25595
82214 16500 17098
6667 6477 4482
42345 24269 7013
23527 17842 21588
23087 17843 14448
21696 17524 17397
24534 8449 34029
71761 11157 2220
56801 9935 32519
30069 7263 486
31612 7991 486
31011 9550 491
75683 10902 3643
75253 10920 3841
75205 10921 1695
85865 10628 10311
25773 17871 29933
23789 17528 30826
85229 7182 32812
20629 14220 25524
85099 14517 2183
75086 15560 32402
67569 9417 5946
68101 9700 6556
31905 23499 6567
34812 6590 29713
75620 10681 16781
76285 10444 5477
4154 13148 18439
3957 12475 20515
4109 13092 14461
21457 17468 13101
71938 8878 2180
46193 6706 29849
75367 11744 582
70523 10983 1539
71730 9761 5044
29175 6366 12173
29008 6815 13305
27503 10682 11210
47087 4351 27529
40946 4351 28882
44336 4349 20286
47003 4351 29608
35462 4350 24583
40004 4348 15234
45581 4350 24708
40637 4351 32997
31052 4349 18071
44405 4350 22727
29728 4349 20099
34205 4352 33420
34116 4351 29057
39446 4350 21298
57572 4352 33229
51473 4351 32991
42215 4351 29944
50024 4350 25258
29904 4351 29400
30122 4349 19114
39365 4349 20377
37206 4348 12213
54922 4351 32052
32349 4349 20842
29423 4347 3727
40170 4349 17688
28752 4346 1740
51791 4351 31920
46166 4349 19916
36475 4350 22407
42563 4350 21266
45926 4351 28690
35135 4349 15757
37133 4348 14713
36582 4349 18308
46933 4350 25092
30185 4348 13100
35305 4350 23352
29348 4351 27574
30478 4350 22569
39601 4348 13210
36933 4350 23869
31650 4351 27718
31534 4349 16305
33608 4349 19555
32157 4350 23322
30228 4351 28511
40161 4349 19513
34284 4348 11949
53482 4351 31272
52868 4351 27515
54584 4351 29521
30883 4348 10767
37902 4349 15410
42511 4351 31700
29376 4352 33404
47541 4351 29694
39676 4351 29471
31356 4350 22073
29222 4348 13370
20496 12393 23532
20470 10900 22363
62529 4020 13576
62751 4273 4173
62637 4142 3559
15458 8461 16392
15655 8614 5330
63620 16473 6376
63977 16691 26716
27630 20391 14223
4158 12300 29887
47268 10876 2733
21972 4969 31106
40886 24525 27172
24800 8578 33231
24158 9124 27629
61992 14348 13269
62019 9475 13523
66806 2697 2265
45142 7386 17633
26762 7240 15994
26770 7220 22551
26733 7295 30106
27123 6507 22132
66417 13640 638
80002 7498 1447
85746 7247 19131
57613 4989 21143
87462 4718 10489
73760 10769 25204
73463 10738 22529
73458 10737 20198
73765 10771 32435
72272 10618 31573
74942 6384 2566
44558 23314 29860
29325 10705 5032
56023 12223 25709
76874 3823 30157
14911 7882 19092
61401 16658 7415
85463 5840 32215
62833 4369 23849
63079 4650 25534
62729 4251 24674
77629 9344 32736
29273 7392 31699
30065 8478 31756
28021 8308 3726
28260 6651 3708
59976 6858 28732
56666 11866 256
2051 4050 2483
27465 5813 27504
26926 6908 7888
27273 6205 14149
69425 8041 30295
72166 4654 34224
21882 15695 1256
36993 24063 28237
19541 7805 2020
36343 25070 11603
58285 10860 3554
6680 16497 12401
85683 12528 31504
18814 4840 2491
55284 4935 34325
61782 4820 521
25977 17832 31050
18504 3302 30294
55116 23642 11056
57982 4440 19915
57888 4440 21272
30806 3955 638
3130 9379 12256
31756 9350 6511
60789 6333 7210
71485 4716 3119
57335 20343 6437
39150 24168 6830
53261 11162 34395
23672 20358 27711
71867 12768 31394
19095 4730 33332
54621 4664 34326
81634 13723 1019
20794 18059 17838
86021 4017 10014
86021 4434 10641
86021 5102 14198
86021 5550 12494
18297 6313 5255
39063 4587 9062
27054 18124 12487
86804 2977 10523
58610 4440 18671
20883 11717 7586
71423 53 2467
24505 17746 19344
52234 24532 24296
40087 17383 27960
15322 12238 34289
61569 4105 594
23375 7228 2068
34253 8576 482
35215 11215 466
36745 9349 26531
67450 4263 30067
77569 9406 12394
77846 9214 9054
26762 12697 19422
29165 6413 21267
29704 4995 22156
55967 17421 32422
16714 7345 3958
27814 20214 11892
2229 11497 31365
36338 6409 6265
18809 16886 26074
72613 1617 30041
23359 13690 4435
6667 5041 27796
30704 9200 9777
66958 2915 34004
72601 5246 2023
24403 17498 15205
24499 17503 26593
26928 18057 13491
66530 9741 32527
73097 7212 3785
469 3740 12843
78054 8088 33441
36718 6929 10402
69842 8954 2026
27624 21386 11695
24434 8378 22077
24688 8126 15716
37704 15509 1673
3820 4207 11422
22719 9848 10556
21878 9044 33552
84726 6782 2716
19559 1766 30035
72808 6448 33734
13837 5527 19692
14003 5990 16100
80925 14927 29178
26352 16123 20982
33231 9767 10706
25875 7265 30067
25778 7427 23349
61431 6405 26097
55918 15145 32319
77920 9164 14028
21366 16766 29099
26844 21729 19450
60654 3259 26410
61142 3332 14377
86861 5498 27150
61427 15956 17887
60622 15956 17992
60958 15956 17322
66679 5168 34311
14926 15593 1415
17244 6205 32412
26364 15492 11738
33223 9651 31858
21387 6467 32729
59381 4989 7343
26545 9341 3973
75796 8866 30059
67846 8938 34143
42863 8829 34708
79037 6543 34012
36159 8115 5474
75728 16711 21762
3775 6363 34406
38478 15507 2933
43116 23129 30047
65633 7295 2492
56824 10859 33305
17569 9577 28643
17675 9611 25977
23414 10161 1412
59866 8970 34759
15177 6815 34107
64286 16847 9584
51432 12910 32094
24577 16765 6778
78404 14137 33930
20502 14737 11498
2394 14540 31536
38415 12018 31984
29604 15372 32004
28047 8404 31890
42369 4221 33108
67503 9385 21667
67760 9521 19459
56407 14039 524
27956 4989 3932
28054 4989 12829
28127 4989 7456
27912 4989 17249
29072 4989 10500
59887 4455 12416
85013 5510 1530
61416 13972 12935
61414 15025 12914
87407 5918 12961
44567 4524 28509
55047 4544 6286
51016 4536 14378
46017 4526 26682
43043 4522 30377
49131 4533 18935
41587 4520 30252
49565 4534 14972
34156 6405 29713
18066 10489 471
14348 9024 33296
59828 9025 6287
67244 10695 32422
26348 16298 22389
19627 9473 33825
16407 11503 4930
4361 4001 30741
61535 5865 15205
61535 5141 14304
61535 7624 20136
61535 5409 18935
61535 5346 15757
19274 8379 30305
26204 8340 32964
68649 8842 5673
69038 1015 1787
26470 6695 2492
13908 5826 33762
82196 15901 12912
38456 9413 651
30103 12619 3292
29306 13995 3351
12568 9299 14310
29230 16777 19132
32371 4989 17337
32279 4989 16851
31845 4989 17316
30632 4989 21910
35418 4989 7251
31491 4989 13465
30368 4989 19968
30284 4989 17046
31476 4989 11598
33126 4989 6393
31119 4989 11285
30622 4989 13511
35065 4989 7953
27638 19189 18622
36844 7218 17090
71952 4744 32412
18956 5373 33468
4319 5100 26587
4756 4858 29361
59230 4440 26459
59385 4440 28327
3174 12064 3777
58815 12413 400
85219 3795 32919
33632 10258 3187
14846 15970 33037
85683 14181 30868
60066 19242 15941
84958 12980 29949
36615 5618 23920
20844 12579 27432
68343 2997 5720
53376 13340 345
23706 11745 3927
17086 2596 34294
56651 3650 690
78289 6670 4390
60606 12402 28608
3506 10499 4353
44400 4522 31100
49533 4532 21857
51348 4537 15225
48874 4532 21296
73422 4661 2481
77275 5869 1464
59298 9498 30863
58842 14884 4748
46549 4440 21033
43482 4440 27394
48566 4440 20466
42192 4440 28443
50135 4440 15954
42964 4440 26432
55450 4440 9712
26932 14706 31426
17615 8798 32465
63422 5721 21750
62868 5175 4889
25513 17831 27522
51533 11789 260
39662 16972 22071
34290 24174 7407
17596 7570 33286
16804 894 32513
68448 7130 33580
73815 4520 32412
84230 3285 32922
24668 17769 18378
67503 8300 33791
29660 4952 7439
40890 24935 24661
28021 20501 10405
87062 5385 31833
56316 4440 9567
26122 22809 13555
52820 21021 31046
62354 11737 34650
20350 12256 34457
65511 14460 34097
38811 9340 2949
39079 6444 2915
4937 4001 7377
68061 2442 1508
56680 11230 2897
13369 4138 9299
13359 4113 13214
13364 4126 5517
5770 4001 25918
31881 4507 25021
23381 11101 472
79921 7024 1153
11988 16495 27571
32316 9658 17718
4692 7424 34892
75580 10911 30278
74612 10951 32495
75545 10913 33299
52775 24294 25327
85364 9081 11030
36730 25200 20452
81595 12139 781
36375 10087 18669
27789 19767 29096
85113 14748 30785
82993 14771 8825
63795 7822 34659
20496 18093 14072
13543 4662 28734
13780 5360 27665
13769 5327 11000
25174 7579 22720
25407 7295 12158
25286 7445 30329
25796 21659 27710
26356 16843 6763
60214 15956 22694
3052 7560 21129
49894 10962 20915
25197 15340 33857
24119 11458 31869
83234 15448 17011
7044 5241 4732
7441 5208 1490
8546 5120 25882
7649 5192 10306
8532 5120 14484
49250 11010 22807
6544 16487 20509
27151 11685 19367
3739 10531 30819
76783 10619 14372
76803 10612 13534
15392 2122 31381
38927 4548 2719
7324 5177 33950
26870 22176 9644
49199 23614 29251
84961 6502 33253
34245 12074 32161
32393 15608 32116
34223 15103 32160
38626 12332 33867
31019 15642 3250
36726 5920 15553
56666 15956 5691
27745 5090 14831
59971 18683 9171
85364 9934 16536
85364 9493 20315
85364 8684 21245
19801 11869 5652
79581 5159 3358
29969 11253 3583
29968 9349 3583
27748 9709 29028
15184 8054 30096
31221 23583 27898
65136 7026 16929
64865 6699 29062
62429 17081 20869
58091 15956 21646
23139 8205 1448
22854 20088 7996
27428 23554 11850
60944 18324 15541
63030 16593 7067
6667 3971 21613
58955 18985 6953
11781 7184 554
85013 9766 32898
70505 2304 1248
23037 1243 5434
51495 24836 17440
86538 2659 19520
45635 10327 27958
55397 21942 6075
61288 17538 10468
57160 15775 3465
11904 5040 10301
12923 5039 1362
13098 5040 10064
12643 5041 14906
13193 5039 5055
12991 5040 8143
12998 5041 19712
17652 4252 30294
44216 24107 28373
16386 3187 1415
28153 14174 34343
85183 8332 32962
18280 9763 7733
18256 9760 18431
4362 6774 30657
7361 5300 857
26193 18120 12960
2016 10234 2070
55196 8736 229
26368 6585 4675
26618 6140 10008
41038 8740 24304
41165 8079 23933
40094 4221 33131
58552 14517 21438
31053 6482 5212
69425 10245 27220
68484 9902 26452
69235 10176 26434
2600 15314 2596
63657 5300 18475
63528 5152 1998
63681 5325 8924
63475 5095 9484
74228 10568 5734
14831 9710 1986
29031 7595 5115
61652 9842 25112
7785 16524 23592
81192 15642 8721
2209 4726 13989
50135 8120 32252
49973 4312 32421
57220 14774 31837
10278 5711 728
23106 17713 22225
38653 5965 32279
69180 8382 33887
5844 5538 85
21533 10157 16000
80943 17140 18256
3063 9179 9286
29180 16761 22913
69437 8815 4672
41725 4754 32267
74056 3636 31357
31103 4794 5213
33138 4752 5213
23437 21013 13207
61223 9969 10872
59085 4826 34442
34708 22342 4589
11536 10326 16473
73920 5214 4198
12172 11164 11356
21066 10183 11862
84609 7726 4578
26203 11384 3738
85863 6380 2902
17548 16106 2092
20925 17949 27262
13674 6120 7067
13337 5260 4515
13696 6175 3222
1724 4284 3373
75823 11446 31191
76196 7849 1192
25238 16701 12579
25428 16682 17740
24799 16743 8317
82657 5864 32786
74176 8643 33111
21334 5081 32412
24181 17728 21803
38470 13212 2139
18909 8217 3759
4333 7379 34410
28772 17620 18688
49532 4532 24193
50210 4533 22178
50695 4534 21201
50653 4533 23917
53082 4539 14352
36201 6442 29072
25837 18029 20128
27883 12228 30861
56689 12451 2433
85361 10142 23331
26573 6012 1243
26276 6553 1923
14671 8210 6127
14584 8063 14017
27552 21473 25714
82736 15326 2837
62068 12742 19557
62068 16094 17549
62068 10442 18268
62068 7157 20747
62068 14830 19683
56591 22189 24810
56628 15263 33016
27783 19707 14434
51896 24778 20727
9576 10461 34184
9517 8896 34236
19574 4157 32918
27793 19938 8445
9270 5064 22663
9476 5047 18529
14334 7640 29419
14529 7971 26764
86370 7875 32333
28107 14518 760
64201 7952 390
22381 17715 21934
23307 20825 11380
72656 10813 7833
74051 10938 19764
73668 10903 13668
73969 10932 27302
85258 14565 31709
25499 7959 28962
25138 8323 18910
59938 14517 16214
24471 10447 34085
59370 14517 13933
79391 15790 7998
34422 4472 10325
27923 4476 19511
36604 9856 23744
27675 20779 10650
5701 7402 6813
6428 7398 9926
31267 4440 12073
31205 4440 4423
37032 4440 4231
33747 4440 9141
32937 4440 17714
34267 4440 5778
33653 4440 4134
36476 4440 4057
33195 4440 6317
32047 4440 21331
33923 4440 15574
32914 4440 12556
66175 3766 2309
60266 3213 15204
60140 3207 27485
60058 3202 26126
85746 6044 19387
85747 7678 12932
85746 7053 18052
85746 5994 10635
85746 5309 13197
67906 16093 5989
39464 4518 24504
39529 4518 26481
41845 4526 8008
40222 4522 12232
40060 4520 17023
40644 4520 19700
40616 4522 11869
54230 24365 14774
21760 17518 10726
74961 15550 6082
86451 4588 3085
58459 14517 18691
68972 12100 4056
24161 17751 5857
69795 7495 5162
27708 20692 12932
71437 8171 30305
41790 13115 34467
16618 9567 1185
40224 15699 32024
58041 10579 3954
17265 9879 5712
15373 8914 10336
74293 10623 33774
22282 17217 29505
88752 7327 7591
35352 4460 9111
30421 11990 3268
21867 10105 24887
47182 24554 26915
18013 3312 5532
58211 4989 25741
38370 6718 34541
16851 4877 31541
34462 9943 25028
58442 4440 11322
55987 4440 30358
57364 4440 20304
12351 16792 8714
17301 17065 9480
15362 16879 8111
83181 6075 1277
85536 10288 19848
60424 10412 27537
68725 16717 24868
65676 16779 25360
1899 9979 31112
36333 25162 13027
59941 4989 24962
59238 4989 22221
33601 24872 23078
59225 16682 3710
22308 9983 17091
80951 15751 25399
56167 20662 5032
18763 1580 1301
60720 15300 7028
27754 19520 6773
6667 8235 12552
25495 7478 34303
42202 15062 21766
52518 3533 34289
26025 17938 22379
38484 5379 2145
76084 15603 28532
29208 24328 14210
12644 16024 4096
81471 3440 1958
17607 9925 3078
40875 15073 17575
6667 6515 27867
73849 6770 33329
49429 4535 9543
44486 4526 22052
47284 4530 15368
49635 4535 11544
20899 17977 17183
47474 4440 18956
51488 4440 11849
17191 10740 34423
60148 10919 5727
21780 7680 32962
43532 23220 4979
58776 9646 31433
3249 9763 9979
54761 10673 32277
36213 21849 3990
21767 4890 32774
9754 7740 548
24918 8536 24528
14419 9344 3448
54522 23202 7075
41371 15573 2980
34369 11701 3447
36364 10659 3398
37919 7925 3360
37095 9493 3380
72509 0 3640
21723 9884 18221
16434 12376 575
17827 12272 540
61649 4615 11052
5138 15238 24027
71204 16985 15459
70768 16974 15176
71531 16918 14114
70301 16865 12803
71241 17078 17427
23522 16939 18958
22415 20014 11085
69579 9104 33925
18220 2871 1361
4925 14755 25233
66783 8866 22987
67106 9129 26472
67248 9241 13277
66849 8920 23939
14119 7207 3735
14022 6972 15351
14123 7213 1557
75807 5663 34036
53524 23631 7168
20771 16836 26820
68973 4310 31497
23593 16926 8079
23504 16943 11081
11915 16995 15586
12507 17075 17776
8938 16827 15639
8872 16763 12829
10865 17072 22034
9521 16901 17558
6667 6660 6223
6667 7198 11779
60325 14122 27800
27120 4704 7681
1660 6261 21055
38412 4989 28232
38480 4989 12032
36883 4989 26686
37413 4989 28814
35833 4989 28330
36144 4989 26107
37964 4989 31310
36434 4989 23392
35737 4989 19300
35550 4989 23405
37908 4989 14299
37827 4989 27627
38061 4989 14823
85261 4458 5603
28658 17683 14005
37199 6387 428
74726 6686 34076
21306 17834 12178
16687 7270 32889
85577 8377 9104
6645 15940 7767
10320 10563 677
7955 10097 675
26878 12160 7981
29761 4816 10477
26072 22411 22671
12677 3953 29990
12798 3950 12795
10975 3952 27341
12809 3953 30783
13303 3951 17666
11981 3950 15508
10067 3953 32400
3220 5239 30659
41692 5100 34630
28403 17620 25332
59753 10625 30296
55239 12475 2311
19834 6138 2311
50466 9489 19757
27815 20087 13465
75613 15366 29374
27319 18334 6212
17746 8703 2847
34012 11629 32155
24972 17768 24958
48448 10933 28150
21949 7662 3119
20503 6619 30021
85377 11624 23196
84267 13843 19654
12119 9005 34293
72661 12628 30786
72968 8321 33515
43991 9849 27110
24365 21496 25524
58682 4989 27037
25794 22658 17159
76887 10020 24484
77254 9658 28720
29751 14888 23107
56994 20713 28050
20425 14483 17093
42909 11794 18335
7460 4153 15609
7089 4189 20596
7596 4140 16998
27402 7646 3826
27020 22048 21469
62352 8600 24833
48404 11000 34514
76578 10324 22020
76843 10061 10892
76764 10140 16247
22195 17487 5785
22512 17485 11892
34041 4449 551
43043 4526 12467
40257 4519 26408
43841 4528 9936
45129 4530 6966
67054 6629 33515
13908 5052 2542
27738 10034 24592
29414 5653 25562
41067 14894 1042
30687 4525 16932
23594 21239 17434
71072 16277 7635
22433 4007 3013
36577 9767 25478
43863 6706 29832
18987 16981 14857
19108 8473 4172
75330 11763 2309
4136 4540 556
26747 5851 15688
61325 16341 24083
53441 4450 673
11580 10335 14188
38297 13556 3351
78459 9137 25595
3850 11583 7698
14190 6511 16919
14158 6428 22519
50438 9402 27818
34457 6852 3443
30968 7834 3529
34141 5155 3452
31650 9872 3512
2834 14348 1095
3538 9866 3337
58736 16375 3425
61054 4989 17911
60749 4989 13337
0 6038 31574
31561 5913 32096
31538 11619 32095
37696 5659 32244
31519 6873 32095
32968 5488 32130
87197 5090 7032
40003 13517 2972
46899 21965 3841
87111 5857 25959
85254 11689 32128
36847 7924 11900
36895 8512 11595
68345 10507 34290
39608 16473 28269
32390 9671 15906
22127 9812 471
50636 23674 5961
71193 15683 32652
19922 1172 34327
69472 8548 5237
85364 9858 13991
14990 10205 31612
70585 7680 31775
11883 11498 11821
199 7478 1407
73620 12452 34341
66797 12231 34508
78397 16950 18384
73656 4951 3760
26462 7538 3666
4975 15217 11263
33810 24799 24026
61262 12869 24004
74375 7203 3119
19902 9895 5378
43137 10956 27851
51154 24322 8259
33794 4440 22238
42837 4440 7487
44723 4440 5182
45290 4440 3038
44204 4440 4393
61450 14919 20789
59988 8184 368
59236 15502 5353
53726 22341 5493
60404 11608 29123
53675 15835 32098
83168 8338 34388
61426 15294 22303
83252 14695 29885
51860 4430 2300
21565 19466 20698
21806 3859 5237
42196 7152 468
68826 733 32598
59359 14517 8188
61942 13287 12801
61036 4808 34436
12362 12278 12193
61450 14993 15635
25395 7309 6557
25142 7616 9130
46132 12844 31897
46675 4637 32288
44782 7501 32122
455 5425 22420
62018 4833 21827
20899 1505 34152
39845 15116 17694
52605 12556 2339
77954 4337 4334
14658 9479 5093
30045 13341 24133
60899 4443 26837
61063 4465 30782
68897 4753 2198
34546 10011 13242
70928 16739 23583
74955 5878 30294
75329 11611 33875
36874 8985 25028
71703 13876 784
62407 7171 415
26391 17732 18443
71033 3197 30294
79727 3115 32752
73881 6313 33662
3321 9399 31772
69822 15672 31021
27078 23324 23511
56360 14517 4777
54797 14517 31433
48741 9338 29939
18165 17427 14928
52110 24285 26067
86530 2634 28007
18820 17330 15416
85200 11181 3438
24913 17912 7272
85077 12111 13359
524 7518 2637
30990 4520 21504
31775 4509 22302
55343 16083 32820
33798 4989 16058
23536 17707 16849
23533 17707 19687
87609 8244 29601
44164 4525 23236
54245 4543 3413
51598 4539 8508
36890 13687 554
57085 15076 991
73448 7521 33845
27137 21401 19094
26657 18193 14810
20394 1438 1631
5014 4039 20835
74427 12254 31219
46029 4349 19405
55835 4348 14884
53675 4347 6408
52072 4349 17690
52351 4347 9198
53998 4349 20911
52786 4349 19913
56754 4350 22324
35513 4346 1339
38792 4347 4298
53166 4349 16850
58388 4351 27249
55842 4346 1205
55801 4351 29594
41399 4347 4553
51284 4350 23103
46605 4347 5646
55614 4350 24030
51331 4348 9979
34341 4346 1964
52449 4350 23456
37554 4347 8105
41995 4348 11251
50845 4349 20141
49523 4347 5999
54404 4347 6495
38997 4347 6317
54830 4350 21283
51503 4348 12811
55915 4350 26292
45252 4348 13870
59025 4348 10316
40682 4346 2295
57713 4346 3029
55000 4350 26463
47952 4349 15973
57727 4347 9286
47323 4347 9120
54958 4348 14710
48848 4348 14085
43436 4346 3283
53283 4348 10889
49785 4348 10912
43151 4348 15141
57381 4348 12633
34627 4347 3688
50749 4348 14934
51226 4347 4500
53679 4349 19508
53962 4349 18875
57172 4348 10023
57479 4349 19013
44922 4348 9374
50048 4348 13623
53773 4348 12372
42382 4347 5518
56201 4346 3257
54195 4346 2428
48043 4348 13781
73511 2265 1230
21812 9857 29345
22418 9655 14027
65468 7403 31175
66607 8473 2078
66247 8133 2150
9792 13958 33904
54961 14517 6043
54830 14517 7393
21137 17863 26851
56664 4989 14054
57614 14517 25044
59419 14517 23678
60268 14517 21771
85279 14687 3752
27299 4670 4042
28632 17752 15907
30547 10004 14271
16294 9474 9552
16686 9630 26184
27255 18639 27124
35812 9877 28304
86150 9093 27598
72454 10798 22062
72426 10796 21556
72170 10773 24625
72877 10837 30895
18049 8458 30295
30274 10278 5430
59031 8548 4978
30166 11565 29166
58791 15956 7199
29848 24089 9485
46263 10615 34590
27725 12199 34549
80042 3779 33847
55189 23659 21447
25290 20299 5233
43618 7574 421
1387 7165 30
32362 9647 13929
2548 4340 30732
39332 8058 32171
54924 22405 28525
59473 4440 24652
61565 10747 9808
22709 9862 29870
22572 9923 5281
60903 12936 27816
54052 14496 33648
71807 10565 10283
70760 10388 21825
70587 10360 30046
71481 10509 9445
55822 16122 2513
25877 6463 33409
25712 6787 24080
71628 12831 3193
21335 17820 19498
4744 14944 20240
3944 12412 21141
39661 16213 20852
56143 23297 17338
17975 6609 30304
52561 4440 7997
50138 4440 12257
45119 4440 21330
45092 24373 27697
29542 24462 17954
24001 3448 34171
28565 14669 801
83476 14574 11569
87143 5879 21352
42993 11282 29227
62068 11372 17152
62068 7084 19695
62068 15166 14505
62068 12244 15007
62068 11748 14998
71006 11114 33831
84037 13769 25642
30265 11345 7312
29016 19283 3596
74822 10748 8412
74940 10741 3000
74127 10783 24186
81698 2514 3397
12108 11894 13681
19126 7356 30304
14569 7322 16454
14669 7522 22598
42009 6172 34643
49484 22038 31007
30877 12259 34577
6667 5273 19999
57634 20836 8665
43908 9831 24167
60564 10682 25676
31626 24498 10880
33409 24886 12475
25072 17904 25715
5997 15639 2278
72426 9671 1645
86326 2492 17949
62887 10251 34774
46311 3193 628
85445 11995 33185
22834 17723 6834
22578 17711 18048
26364 15607 10234
24007 6553 34134
26380 14863 8191
4983 14810 3766
80781 8506 1301
40823 11637 17617
27513 4433 26034
29239 12724 30785
27000 18636 7353
36884 4440 28261
36284 4440 25129
45789 4440 12650
34923 4440 29489
38101 4440 24161
39228 4440 21781
38787 4440 31732
30891 4440 31853
42098 4440 19231
42366 4440 23279
37245 4440 27522
47178 4440 13409
43614 4440 16816
36505 4440 27454
52705 4537 21482
50276 4530 30350
54732 4541 10568
53210 4538 20988
54996 4541 12862
51992 4533 32482
23663 21248 15274
63262 17065 16891
70110 12811 34389
44045 14540 2929
45539 8426 2795
46600 9443 2755
13376 4769 864
33842 13079 3182
26239 17975 8970
78659 16026 8896
26363 15639 28270
19878 7095 30021
2118 10271 33668
56807 7472 33469
44735 9874 17635
70801 4170 5144
20691 17620 7806
61263 7963 23995
29438 15303 28813
36529 7200 424
64832 9930 375
25322 17819 3499
26579 13300 3968
3184 9330 4905
71924 7103 1644
27402 21007 19072
69587 2625 30063
56283 4541 18028
69112 2365 30056
10124 5041 14211
11802 5043 26969
11780 5043 27913
10047 5043 28347
10050 5044 30319
9553 5041 21461
10440 5040 10884
48095 14574 817
59204 19899 22650
4211 13052 8386
29953 13796 24841
23997 5889 30172
55323 4440 4240
26564 20855 5318
17094 9418 14598
17437 9529 4690
81129 16458 20242
5873 5425 13262
5934 5410 16280
6104 5369 5681
9060 3999 3967
9370 3972 6707
26358 15632 25674
28922 12251 31673
28400 9595 31635
86599 6273 9284
87390 3970 14662
20641 913 30147
18866 9402 33699
18464 5810 1972
25788 6633 15095
25565 7078 21869
16626 5568 1873
31802 9483 25122
86021 2608 11375
86021 2888 24986
86021 3650 19011
86021 3854 17214
18833 9876 33199
18658 9838 13053
85087 10679 29165
40729 10138 29041
42474 13604 18403
88912 6262 27417
84812 4155 30331
66675 16250 6148
77685 9311 32220
60777 5167 8940
60783 11478 8960
53563 20439 3182
22536 5138 2012
27157 11369 27742
27641 20860 28028
77447 16752 14882
73699 16731 12270
70326 16884 20158
73415 16727 21913
72012 16992 18581
74137 16974 18624
73270 16878 19955
27178 4837 25229
1846 11906 3278
72173 6383 3760
19035 6544 31774
57972 9503 383
45907 10396 18964
28920 4419 34315
6667 5339 18451
20834 18020 18780
3500 4413 29181
15069 8601 5628
5545 4514 25689
6014 4385 23626
5750 4458 29638
26561 14222 31362
73746 16282 26337
47478 4534 4860
42609 4524 20154
46339 4532 6702
41921 4522 22907
46933 4534 4305
41791 4522 22315
20034 16494 31417
50311 7373 23511
22374 15001 950
75295 6448 30439
67659 9243 4752
67809 9337 6995
67960 9429 1356
76472 10383 33262
76162 10489 13494
75122 6717 1740
57247 4440 14044
55828 4440 25194
54295 4440 29087
49374 6497 26457
45092 6380 23112
49989 6513 23015
42930 6321 20269
20332 17587 25613
73408 954 5565
27787 4390 26923
27075 11886 17017
66463 7808 34187
59032 15956 20233
2177 14451 3215
21572 9918 7661
21405 9929 8180
6166 4341 9049
5709 4468 17123
5361 4562 14068
24044 1855 34039
36825 9667 22343
64009 17125 16414
53496 8664 2211
4822 10272 34155
24128 17488 24274
61798 12244 11300
58158 14517 27306
84430 13002 22764
20805 9969 9488
20805 9970 17892
21213 17580 8785
23039 5490 2125
21028 11481 7056
47033 10712 24474
61782 17445 16410
31316 4989 29118
32485 4989 20730
30834 4989 28034
30922 4989 26871
29255 4989 31632
42115 13773 17649
48279 4440 29857
49700 4440 30369
36637 7291 26646
19353 7703 3759
84776 6717 1611
27327 5092 638
48890 11005 24578
40047 14050 23677
39831 15157 21059
69335 10523 1610
61324 3357 2383
60559 3245 28127
462 5810 13846
81224 6554 1520
20098 9611 33807
60090 5482 29716
28175 8777 7346
43035 10133 17689
38395 22284 30675
4526 4981 10513
4143 5196 19403
43294 10344 21320
19531 10226 17593
19056 10204 4060
19580 10230 31660
1979 11197 3375
71539 3635 32412
61039 15956 20658
1755 4148 32141
59803 4363 5503
35915 7854 34621
18388 10095 11171
18637 10137 9564
39407 5523 577
51937 6652 402
58998 11560 30397
84924 11552 1609
87538 4535 17521
17798 8156 2053
25729 17626 9850
19983 9961 9505
19700 9946 4443
74681 9838 34146
27603 5508 8487
80353 4759 34273
81991 3965 33998
8252 15746 32606
74814 1537 30181
34671 8160 34584
5466 5523 25577
5909 5419 27302
75027 7278 30295
80777 13629 962
26988 4927 8548
85357 8033 5134
18918 6672 3760
85386 10580 7837
2541 4661 22831
25709 9581 492
19326 5836 1568
8908 5092 23121
9464 5051 33650
25676 5997 34249
57379 14886 3618
74035 1945 33690
5049 3860 12099
26582 7599 7711
61682 7399 34700
70437 3482 34428
25346 8113 9138
30496 9400 24080
20250 5433 5524
73658 8046 5237
8941 4362 33759
61704 3514 9462
61800 3558 13471
61460 3406 26992
85747 7834 19682
19567 9944 28322
20503 9986 5128
20478 9990 32221
86680 7146 29063
23075 9686 7483
85174 8609 4719
3911 11585 29550
30099 4440 27667
39498 4440 7982
42625 4440 3103
36611 4440 10079
40588 4440 4906
34908 4440 14663
15244 10410 4942
15276 8289 24659
15262 8272 17429
28348 6179 3421
67637 16948 21307
38630 10067 34280
65787 7705 33321
66942 8790 9921
66279 8166 15226
66503 8379 32263
58829 17125 3404
29107 15757 4315
55746 23283 10977
30006 13210 8080
20379 6887 32412
70073 10272 24944
70949 10419 13419
70733 10381 8837
70289 10305 6902
86133 8321 31706
60173 4470 15510
4088 6094 28197
4221 6030 30741
4847 5732 33224
26343 16723 29902
50444 12645 2525
27749 20598 20456
62772 16749 26524
71129 8564 2573
51524 16711 32926
27653 9609 476
70738 15654 31124
69405 10080 8152
69672 10193 10777
68766 9813 30508
68244 9593 33469
68400 6248 5416
37568 12233 31964
85571 5266 16681
72998 10514 1214
10772 15846 30469
85455 12591 3668
80397 15144 4706
53406 10034 200
43086 11445 25887
8202 4081 14255
8413 4064 30772
8532 4049 9755
8784 4026 15090
30301 9083 29390
62502 4878 23637
62221 4765 10972
24053 9183 23365
23853 9286 16532
23344 9550 3477
6529 7833 22639
58208 9931 31276
16709 5250 4234
21519 6108 5255
16964 4643 1783
72555 5508 30304
11821 15716 29886
23113 4699 2769
62912 16120 30458
32670 9576 7638
53927 5420 2173
19951 2 32917
20446 6881 3785
53451 8655 34470
69755 12356 33107
26765 5507 22058
69847 10395 5668
69861 10402 18895
68932 10062 9868
84873 12702 32781
61622 6785 10078
20199 10410 34434
56679 14517 6755
56212 14517 15216
85364 8078 16687
6070 16322 14256
63044 15135 1173
48310 10940 23344
64636 6890 6630
63806 6089 1337
64266 6536 19831
34793 9595 29624
40314 25060 11296
46324 24893 10380
13996 8069 33163
24209 9116 9594
23600 9426 8758
88343 7055 28625
25838 14469 31526
34117 9881 25871
79753 10966 708
85746 5442 7245
26710 22027 25176
57939 9222 3354
72564 7389 32413
27531 10450 27045
3248 9279 7056
56258 23056 21065
68176 9563 30902
68368 9643 20219
68202 9572 18143
16714 6051 32549
23951 19197 4745
14169 7956 30471
25947 7306 5857
25736 7656 17587
70113 7911 4310
27829 21052 13354
71833 12446 5386
26508 14220 4223
3803 12145 13264
59369 14776 5420
8666 15055 1378
61535 15266 14572
61535 16286 17348
61535 13804 17541
61535 10401 15618
61535 11396 17284
29395 15860 25529
58252 4989 5122
35758 22558 30253
71291 8528 31775
21765 19177 26029
4347 6745 546
34253 5033 34444
30331 13149 3557
86486 2866 6011
20608 15119 10009
20114 4879 3785
65805 15967 32090
562 5240 2161
12235 11038 8655
86002 11045 17748
20458 11646 21816
1735 12023 31663
73988 3782 2372
52854 4440 27004
58554 4440 8351
56759 4440 15658
57873 4440 10674
18291 6785 31771
76884 2405 4372
20826 17668 10828
6283 4001 9823
70172 1851 5728
36683 7324 8983
61110 4467 9679
60737 4418 3179
40681 10578 26066
40229 13008 26110
77513 3148 31759
2358 13036 33078
50610 9146 23740
61043 9369 7904
20395 16741 16379
69956 4852 30627
87395 3963 19495
57636 4458 32130
10504 5428 34064
24702 17513 11078
2355 8896 22135
61956 5005 12933
52610 18862 32192
17976 5872 31774
28523 4440 19923
29301 4440 6138
28969 4440 20941
76754 7064 1966
73566 5494 34054
50540 15427 27500
27971 20758 12514
6675 7422 196
24063 8997 1706
71988 6105 30021
80057 13977 33957
22379 4280 5237
58402 4440 6352
45744 10070 34630
18914 6813 30304
21708 10182 23334
41616 12947 29851
15377 16148 2161
76024 3783 1622
56863 14517 22226
28551 6385 483
85364 9086 14754
26431 7824 16534
72891 3109 1645
74792 5012 34234
16925 9347 30110
17036 9398 27799
43038 6323 23639
44975 6375 24929
63493 12145 421
64453 12103 430
48285 24759 24946
72394 7237 3119
28183 4353 21113
30532 9609 9302
21021 18718 23546
58180 21046 21516
13628 6005 31036
13380 5373 23396
71064 5786 3119
68993 11994 33115
10981 11641 15652
85364 8371 27595
55649 3148 2869
34636 3149 9995
35696 3150 17284
53461 3148 2941
52343 3148 1265
32454 3151 20613
42481 3150 12773
38940 3149 7207
45806 3150 13190
45120 3150 12575
49107 3148 5545
42180 3150 16962
34460 3149 11279
48017 3149 8321
33611 3148 4918
31345 3152 28455
33462 3151 22246
41232 3148 4623
50608 3148 4450
46276 3148 3684
30444 3150 15980
53146 3148 6630
32866 3152 25842
33291 3149 8934
32072 3148 5699
39880 3151 20493
39787 3148 3094
39756 3148 5596
40040 3149 8992
35218 3149 8386
42315 3148 4179
44072 3148 4845
31373 3151 21689
43410 3149 8881
33321 3152 26355
33692 3148 4272
33480 3149 7996
46605 3149 7309
41286 3150 16079
44742 3150 15819
52842 3148 5936
36621 3149 7376
29948 3149 6875
46527 3149 8279
39023 3151 22035
47796 3148 4513
29316 3150 13961
33529 3150 15750
33113 3149 9745
29142 3153 31127
55225 3148 2440
32777 3151 18461
29170 3148 2783
34762 3148 5755
39740 3150 17478
37518 3149 10680
30367 3149 9673
39969 3150 18240
43141 3150 13081
28488 3152 26202
27387 21306 9606
73127 10982 34479
6597 4001 25279
87591 4873 15604
67961 9065 33472
38994 25161 22748
41889 25075 23051
46957 24934 23477
25017 2323 4493
42487 13781 19214
4489 7403 29480
61295 16944 10456
74191 4378 5237
41613 13417 29848
85747 8388 6734
27578 20986 14910
26015 16631 10650
71159 5713 5538
46564 12373 34459
60666 4497 14962
26513 22201 11107
2068 7924 12324
16983 11990 2891
20839 18555 16733
77382 10178 30931
77008 10492 13020
3967 8628 34257
85609 12826 33593
81837 6958 781
66540 8669 19818
66050 8270 13766
66251 8435 25054
65868 8122 6676
66102 8313 19400
41239 16937 28088
54735 14637 5628
54735 15696 30510
45463 6391 19525
64935 15980 3388
22804 7187 5237
36300 24562 26535
15289 8849 24265
75439 10721 22728
75006 10741 17525
75278 10729 24868
26159 22498 24108
69091 11709 5391
4143 5727 14891
2777 7558 433
49879 7112 2515
48527 6067 2611
15433 9894 34398
22208 10552 30055
22645 17699 7633
49597 15627 31876
49128 8030 32206
27532 20715 28759
72753 4160 31404
14658 7025 5632
20434 10475 14367
23548 11847 31757
27020 18438 20609
70565 9526 3515
75011 1501 1639
48636 24505 26796
84946 5707 34216
44354 6367 18177
28036 19814 13907
16534 9165 5593
16828 9300 8058
67935 3612 1958
71945 9758 3426
83916 6480 2075
84930 7069 4718
59137 3152 28285
52413 3149 8740
50767 3153 30590
58557 3148 5815
51380 3153 32082
54112 3151 20340
48654 3152 29758
58863 3152 27018
40169 3152 26355
42533 3152 24757
49959 3149 11913
52098 3152 27877
31804 3153 33306
56906 3152 24949
48550 3150 15913
45911 3151 23034
48820 3151 19035
56949 3149 12311
43333 3152 28090
51010 3152 28756
37825 3153 32336
57835 3152 27341
54871 3150 16537
57312 3150 15795
52133 3152 26445
58142 3153 33338
42330 3151 19397
53915 3151 18559
42933 3152 28336
37106 3152 26431
58002 3148 4015
58697 3148 4515
39853 3152 28045
35924 3153 30057
56767 3153 31399
42976 3152 29715
51595 3149 10947
48006 3151 22429
51426 3151 18486
48559 3151 18621
48986 3153 30824
46551 3150 15506
41381 3151 22957
57481 3148 3835
54346 3153 31016
41788 3153 31585
53581 3153 30165
49606 3152 24410
53574 3150 15722
50119 3153 31417
58502 3153 31325
55413 3151 23735
43822 3151 19485
55177 3152 25944
41487 3153 32059
37440 3152 25038
33736 3153 31725
33140 3153 30040
46283 3150 18236
41984 3151 21517
50674 3152 27110
28684 3153 33585
25392 7980 30383
24885 8507 30250
22641 17485 19018
27040 11411 5007
84737 13078 30719
16791 7570 3343
27783 23904 19712
18121 3594 1823
26284 11122 25007
26284 14113 17413
26284 13876 23853
26284 13965 15983
26284 16036 6548
26284 10716 28098
26284 12761 21571
26284 13110 23299
26284 15724 20557
26284 15136 26267
26284 9641 30585
26284 13653 28491
26284 15960 8935
26284 15770 21960
72008 6105 5538
60744 18131 10482
35343 10107 16986
11994 15354 1396
27312 18747 4526
86361 5936 10942
86253 5890 20802
73587 10748 3818
71944 10581 9123
73428 10732 5269
74064 5573 4900
66802 10268 3773
42244 14397 29229
19119 7400 31775
