ply
format ascii 1.0
element vertex 2834
property float x
property float y
property float z
end_header
3269 19745 4266
65511 9735 28863
15561 7859 2774
38886 25780 29424
10265 6331 29160
7208 6091 32392
7001 6147 31627
32447 17717 33178
29588 17236 33215
41790 11188 33900
2924 10326 2534
10252 26521 30203
13496 26790 30067
14060 26966 29979
19814 26464 30232
32896 30736 13880
29460 30758 13889
38061 30785 13901
35992 20158 7732
16244 7633 2622
78455 6375 6814
42602 11547 33891
41418 14961 5799
76785 7376 31135
8737 15598 31118
35803 24539 10800
38215 26402 6052
51570 14247 2879
49050 13916 2861
68784 14445 32323
70965 14445 33505
72252 14445 33623
59876 21261 13334
48164 7544 20997
32841 10844 33916
14737 14601 2455
54807 19641 4589
38177 23478 30350
67429 3781 2545
75211 8006 33924
58492 22842 18427
55762 25268 20306
59705 9515 32421
79858 17415 29076
36227 24899 9703
79874 10793 2645
37766 28711 8628
22552 12774 3529
34596 9101 20257
35820 9101 19574
15500 7016 2835
79990 18282 9776
44737 12048 25153
17565 15106 24855
51007 7895 11048
64647 9940 28641
48075 29539 17219
38161 17212 15638
47911 29521 20583
34356 11081 17037
34362 11194 15445
21572 10735 4492
40249 7626 29723
11141 6387 25388
6888 6150 29686
8927 6263 26379
11540 6409 25929
8803 6256 25683
10870 6371 26882
22954 11063 33971
22078 14445 2341
18317 14445 3225
19550 14445 4086
18087 14445 2635
16842 14445 5662
26387 29071 28484
36867 18283 14068
48132 26378 30283
80167 17156 23648
16829 12930 33155
75067 5976 7634
27048 9353 3716
82394 11504 21442
77526 6231 5185
12980 12530 2235
68513 20390 18105
6601 26301 29120
77874 19149 19833
45515 11737 15256
70672 20069 23853
73052 19847 23436
72518 19906 22999
36570 21255 7945
80712 12934 23140
40477 9663 25475
80873 17778 17297
62294 20469 30835
64142 20347 31179
19178 28385 29245
18681 27490 29707
19124 26958 29980
19827 28696 29084
71262 12972 32941
41018 16711 26682
68529 20115 8758
32747 20095 32539
20614 20595 4989
37956 5741 34370
49159 9347 29754
53766 18920 21976
50021 28412 27491
20862 12995 6372
52157 11485 21155
16752 15500 2817
80568 13639 14106
77481 18901 6822
2586 13467 30682
79752 17745 7194
53260 6600 4209
50535 6600 4714
51269 6600 4768
32920 6971 30040
53886 20095 31897
38980 18273 20524
36978 6519 3664
21852 1374 6554
68782 15404 33567
45300 12304 12626
29359 7594 33156
32205 7086 32929
31038 7432 33087
55237 23794 30526
61500 20581 29304
64732 4795 1485
19573 2228 5049
8682 28244 28165
80751 11535 4442
28565 20020 31483
14781 1866 30858
17771 14445 32218
18656 14445 28663
16714 14445 28881
20233 14445 29713
48855 28850 11636
33315 6876 21660
33611 8494 24086
79294 7501 32158
38440 14346 21892
56911 20528 21387
57425 20551 19328
46715 13413 21143
43321 11633 6710
2743 13593 3620
41469 15651 8727
11704 12018 11909
9758 12018 17830
12184 12018 14648
59769 17549 32279
38042 25210 6660
68200 13423 3932
4506 9884 2577
76016 17140 3353
53358 17487 16024
53141 16511 15702
16686 12058 33916
24881 14046 3946
30778 28392 7421
4018 12763 14892
4096 12181 13244
23026 3968 29994
76152 16015 33124
55065 21044 32851
51024 28636 22121
33633 9063 21506
73812 11301 32453
22587 18507 5347
23576 18766 5379
48407 11448 33891
39891 11080 11353
79204 6430 8791
54388 22226 34489
77962 6448 16561
79303 6498 15718
78264 6459 15973
36506 18861 8826
51782 6600 3817
57235 6600 3915
37374 6600 4372
52801 6600 3924
3826 6381 10292
3282 7379 8831
75216 13059 3826
2343 19106 17769
2526 19778 15582
2299 12394 14294
28690 24302 5192
34821 22813 4602
27303 22722 4547
26007 23726 4950
31321 23979 5067
22953 23847 12262
14672 2600 2523
10499 15812 5136
68954 20315 17132
68793 20300 15278
72458 19936 14707
44317 28493 8096
36005 21070 27030
65219 12227 3342
54585 25374 8376
55126 25180 9835
68245 20193 7904
80834 15135 24774
73522 14282 28258
2000 8344 14342
39209 28901 8404
71307 10911 33251
61677 8378 31582
14609 2318 33656
45622 12341 22414
54340 19665 31249
33173 9490 5494
24257 24216 6242
14579 8947 29751
34284 10447 10631
29120 11448 2327
22363 24940 30869
17036 2983 31469
73257 14332 6124
64588 5274 32293
37355 11427 33944
23731 25724 5763
79139 13587 5516
63147 20462 6482
37719 25199 30762
19855 5529 2447
43194 13389 33483
45645 12946 33508
46138 13344 33486
44497 12977 33506
48053 13085 33500
47005 11909 33567
40848 14886 33398
46983 12750 33519
23161 2648 33971
2111 17191 15207
55936 24586 25592
55077 25247 26315
40309 9057 28285
45490 12170 5882
1090 8344 19529
57301 22312 4876
71779 20037 19591
37412 23748 27737
48529 29509 19493
12605 26637 6169
13486 27648 6678
14576 27255 6481
40922 12296 6107
43226 11946 28476
25692 26919 28909
47159 28685 27291
45886 28775 26439
18206 27460 6591
20216 28141 6946
16771 28028 6879
15364 27357 6532
80674 16765 13340
33590 7698 33215
37487 7175 32984
28949 8503 33545
40979 15710 16086
47179 19960 3724
2597 16632 31375
42349 31234 21877
35910 29195 9212
32697 29261 9883
25410 29336 10641
27737 29300 10270
37475 22442 12506
23603 22080 14437
8311 10669 33880
24164 24311 31123
17903 2550 6037
12977 12018 12619
13240 12018 9653
56932 5738 34370
58584 5575 34370
74959 19293 5840
22644 9980 3825
2238 16143 11661
2116 17565 16380
2206 16067 13120
21538 19997 4818
34292 28718 27688
44995 12419 15836
25619 13205 21860
46270 28698 7206
31307 7508 30792
11415 28721 29084
7394 26170 7159
56852 23328 7970
57455 22588 6895
47198 8326 29742
23503 12389 16103
59474 21792 20945
39080 19965 6635
79979 6869 11856
54317 18729 4755
41624 31384 17650
19986 19931 32579
52221 12371 18668
51902 10937 18594
55887 20418 23288
56020 20440 28083
55332 20322 19728
38718 13090 24584
16198 2242 33971
42503 11669 2606
50553 27998 7724
195 10016 11997
54484 20002 18585
23625 22808 30642
80096 12383 9357
22841 23944 25873
28757 22053 4331
32900 21227 4106
34198 20938 4028
11256 10082 2465
28547 6600 32376
68773 20262 23443
68139 20272 26843
71313 19972 26076
69624 20128 26694
36763 29508 13374
38801 29662 13437
52448 28320 16382
53005 27776 15705
17884 14374 24558
17884 13026 23614
25049 6206 33971
23340 13337 15031
21888 20785 14713
22598 17145 14865
23050 14822 16802
18328 1448 6562
53841 18817 21081
45293 29519 15566
46538 29508 14621
41237 29529 19954
40341 29541 18916
3567 22156 18543
22280 10359 29819
58903 17750 4651
23127 22232 30383
49347 13547 28828
63848 20639 15842
63894 20651 16705
73955 8523 3992
78851 17634 4066
68223 17967 32937
68000 18803 32745
3017 20906 21698
34575 14222 33442
32298 13549 33484
38323 14504 33421
35751 12573 33534
38247 15232 33379
28918 14851 33415
15543 12068 26685
23289 28476 8469
39769 11336 24267
23447 14723 31927
64944 15272 2709
27531 9261 31111
44471 12697 15038
50287 7759 29106
9138 29235 25025
84531 10011 23287
14883 3921 29751
75831 17812 3540
56973 24065 14326
58142 22698 11619
57633 23030 10369
23347 12120 6205
18943 29035 15891
10462 29030 17846
21283 29063 17526
18095 29040 16523
16284 29042 17180
61195 20688 24962
32438 29094 28204
8222 28281 8963
56818 8510 33544
38152 15242 28720
39158 17136 30382
74797 17331 3398
64825 20489 26011
66316 20416 25230
8612 28645 15614
61408 5191 31496
56199 16988 4594
70640 5449 33729
35627 21977 11966
76757 7855 5469
29158 6214 8724
55617 6230 9405
54057 6308 13051
37073 6241 9958
38587 6263 11027
40678 6241 9999
55922 6321 13677
60317 6263 10928
53782 6341 14678
42892 6278 11702
52885 6333 14229
37840 6212 8587
38609 6248 10305
56904 6321 13653
48823 6293 12369
59211 6398 17273
58769 6381 16526
43290 6268 11239
34865 6231 9525
58700 6275 11491
51261 6347 14894
56097 6239 9788
59783 6385 16669
47750 6231 9468
59725 6291 12229
59558 6347 14852
46969 6280 11783
39484 6263 11005
46276 6283 11893
54628 6262 10916
57942 6294 12392
51505 6239 9811
56100 6350 15046
41970 6238 9804
59309 6333 14234
41151 6260 10848
51348 6221 8956
4376 20925 23351
26698 28415 29228
70738 1556 7450
12951 29028 28676
23503 12471 22420
23503 12977 19879
69354 14904 2541
30314 29059 17166
24892 29057 17004
35386 29061 17322
25635 29060 17201
35073 29067 17826
42047 14074 23511
55896 20192 2344
57652 20062 31712
61249 20698 13630
2316 17573 26760
2371 15690 27404
65904 5962 32582
63076 20239 4131
39376 19431 9550
33335 7074 9876
33330 7043 13367
17786 10733 33860
51094 26240 5971
42226 24963 5459
44537 24413 5239
45266 24737 5369
41316 25635 5729
79091 16982 6518
9749 6309 7794
11358 6398 13012
10605 6356 13985
9457 6293 10189
10326 6341 12366
8621 6246 10200
36615 25163 10840
37870 23670 9083
56977 20025 3761
48703 28549 22006
49187 28478 24577
48611 8661 33580
47413 8489 33542
48764 12253 29965
3057 17683 30990
23407 17616 31077
19014 11197 29962
19340 17588 3152
11086 17595 3207
6548 17707 3249
13484 17737 3206
47124 12686 23361
54905 16971 12839
55843 16828 13239
54895 16973 13628
42710 20473 3869
50247 21677 4244
52876 22062 4364
54539 22151 4395
36605 18820 9631
8139 12020 16896
7326 12023 15209
6561 12025 14063
75704 12250 30175
75923 11350 30519
25879 31840 22161
32530 31618 22224
27071 31910 22142
22048 31337 22303
30695 31749 22187
35344 31619 22223
69094 19782 4102
26214 7415 5912
38539 27369 7640
7377 28451 9577
10870 29097 8147
40889 30353 14602
52999 26249 6322
70950 11973 7495
50725 28730 9015
63163 10121 3391
68938 678 29483
39905 28882 7301
30780 7060 5557
44628 28579 29192
67839 2428 30052
14287 11016 30403
81650 8968 10830
4716 17671 3257
7340 15877 3081
42326 12226 13533
10226 15198 14829
9573 15136 11105
53805 7635 33219
56538 7090 32995
49672 8005 33370
55848 7546 33183
49385 25923 30470
40828 24058 31218
42510 24592 31003
45338 24651 30980
75457 19224 30141
70154 13307 3307
39130 21001 31715
80376 18475 20683
61942 16290 2995
48741 21290 32189
52143 20189 32512
52832 20639 32376
51437 21136 32229
41003 8607 15510
10365 17045 9589
45847 28468 29064
37682 19832 29849
51878 28906 18962
53034 26673 8201
66805 997 2207
39049 32263 22043
30245 33967 21565
32891 33384 21728
28877 32398 22005
39775 33607 21666
29841 32414 22000
37193 34676 21366
33566 33850 21598
20637 32138 22078
34449 32988 21839
26141 32369 22013
39784 19273 7498
0 10819 25126
3425 12213 31132
54412 22052 26598
50014 28337 27998
61427 6393 7290
69547 1231 33800
24061 28790 9988
55561 22027 5332
57686 20771 4759
80653 12995 26297
62366 7512 30014
84363 6715 22670
54561 17115 29411
62622 4867 29590
49022 26780 6206
44865 26748 6192
23575 21286 4101
59494 19996 31755
29367 29175 27307
33957 29130 27767
59218 16536 27706
58590 16575 24278
59744 16504 30118
21105 11706 11848
15743 11895 11039
18897 11784 11353
18086 11812 12053
19545 11761 11584
19227 11772 10280
21133 11705 15207
23011 11639 9585
19308 11769 13614
16693 11861 11388
21719 11684 11733
80005 10149 33578
2313 18185 11092
2139 17998 17088
79868 8145 4843
3495 9666 33776
37629 26079 5906
39226 25320 29612
17086 2033 6553
12798 6018 30463
68217 13452 31537
39974 21517 5242
51017 28681 14844
39563 28501 7106
43241 8882 2689
40669 8627 2746
23333 16394 21893
24577 14848 21893
37847 22104 4342
39018 18475 4467
27646 12738 2787
31170 12393 2770
26964 13244 2812
22189 1819 6562
63395 13633 2438
50812 16675 33273
55935 17243 33229
53958 15444 33379
55011 16785 33267
49265 15730 33352
63575 19845 32460
21618 21488 4159
85436 7886 12720
17778 28714 9067
15828 28679 8659
19266 28708 9061
69998 2001 29663
37023 18373 12671
9058 29313 21701
33341 28926 28970
59172 20558 31293
12399 12487 9029
38026 16047 25299
21408 28915 11976
17640 29016 15409
15169 28964 14894
17226 28972 14507
16233 28955 14376
41660 15639 10616
13108 29424 14325
10364 29481 16923
10335 29452 15603
9460 29480 16867
16992 29404 13436
16158 29398 13133
10239 29438 14976
16423 29369 11820
11640 29447 15399
32961 19285 3540
34867 18483 3316
39457 19599 13757
54094 24175 6074
79832 14891 30524
80451 13998 27378
34909 6170 29261
30156 6125 30831
30648 6136 30455
30032 6190 28557
40587 6145 30184
40568 6169 29307
39124 6176 29026
37278 6186 28714
31789 6186 28686
37927 6181 28897
34978 6121 31006
48622 6169 29354
35992 6184 28777
56643 6201 28220
29478 6106 31520
4186 15299 7894
4285 16582 5924
31056 7446 3221
30468 7555 3171
1755 8344 28774
53873 27023 16266
53438 27448 16759
72130 9369 6747
54466 17158 10067
21893 26095 7002
22319 25247 6659
24820 20538 32426
55116 21834 3444
65462 11350 28847
1703 11367 16042
58486 9610 33650
54068 9902 33701
51585 9675 33701
18676 19938 3737
36358 21471 8889
77065 6369 7139
18758 12159 33971
19571 29518 22813
54171 23957 31246
23528 6443 2823
5898 25921 28899
43127 27374 6501
42225 27036 6344
41948 28158 6887
8735 29377 13487
54802 20133 34523
61265 13575 2827
23355 3710 6500
78551 18867 24216
10573 12813 31143
11836 12417 31147
4612 6923 3671
23963 5036 29819
23448 4295 33904
20737 23510 30906
2204 11737 12649
78563 16809 4608
43746 21868 4287
42182 20584 3900
46570 22252 4408
44148 22408 4447
42925 12034 29383
72065 9423 33893
70566 20169 17598
70521 20160 16856
72283 19993 16957
21600 22377 31895
4511 19031 30371
22417 14801 29111
20730 14839 27825
22813 14793 31036
51521 28665 17206
34709 9446 33748
26039 19278 32776
28796 18943 32869
34989 18210 33072
24128 19783 21920
79015 15575 3886
24993 2820 4481
31749 35853 21036
55131 20288 14228
55138 20289 17361
23436 36142 17462
19491 36142 19921
25850 36142 19438
31687 36142 19577
23089 36142 20062
36376 36142 20462
26429 36142 19611
21791 36142 20538
28226 36142 19390
24433 36142 18159
20951 36142 18050
23019 36142 18422
55606 24029 6061
48217 29366 11474
21063 25830 30373
3535 21473 8567
4958 24214 8237
22767 29356 25317
23215 29371 24956
58392 20559 30586
59605 8351 33168
24727 17955 21766
39469 11863 8992
40460 8932 9979
75364 19603 19581
48061 13131 12798
13674 25715 30555
20108 23636 31398
20570 23960 31266
18338 25959 30456
11438 26148 30380
15565 24854 30904
20091 24367 31102
24390 9158 2343
80421 16509 26553
4577 20587 30656
81785 9720 26783
4376 12473 30249
21376 23951 30180
69163 4181 33522
9252 13652 20740
9252 12618 18892
38439 13976 7995
37193 17191 6931
25069 13801 14409
2446 19637 18451
2287 18748 19205
22085 23997 13577
27179 8313 31395
34042 23049 31617
32162 22869 31695
31342 22950 31664
28400 23705 31366
33441 22832 31707
71869 10100 5217
9407 6293 12871
76441 9948 29164
76015 11249 28846
19659 12469 6562
15994 9531 31103
23614 28510 27808
37681 21737 9040
2380 18133 9607
59739 11172 32240
54144 19705 17430
57765 20567 16394
58695 20608 17883
69566 6410 33710
27347 7411 4705
47496 29073 28422
47517 11703 15274
61064 20702 19933
16079 3840 31560
79428 18602 24322
37428 22420 24513
44247 28979 28817
71521 10373 31806
49034 13478 30067
18776 16292 3027
21028 15787 2985
73298 15388 2810
66996 10059 2602
80746 17681 14451
59168 22153 16745
14485 9757 6562
54234 18549 14250
44355 5136 6547
32026 5024 6547
37504 5584 6547
34519 5518 6547
51699 19840 32597
36373 22323 27736
50317 8362 21711
46035 10762 29715
85682 13549 11986
19213 28825 26071
13976 28719 27317
13359 28714 27383
6749 26404 7241
9252 14013 11176
9252 13344 9966
9252 13381 10915
78443 6352 4379
78841 18906 15871
58389 5825 1944
58012 5088 1944
38970 14997 3723
38970 16068 4661
38970 8659 4721
17855 28827 8457
22811 20202 32529
54337 19649 13399
15838 15390 33560
68247 20083 5452
52580 15581 24538
53096 27396 23383
52711 27762 23214
14110 10464 2620
42727 19801 3701
12469 28924 22896
15334 28876 25107
12436 28982 20265
10544 28986 20106
9678 28874 25202
12812 28961 21244
20276 28871 25339
13339 28913 23423
10248 28968 20913
15313 28939 22253
60937 5333 33386
11354 12074 2724
48410 8818 20909
37761 8476 21114
18670 10947 2727
65053 20399 7747
14984 6758 32537
71206 2893 7505
27640 19901 3734
24874 27099 6412
67489 12514 33423
4061 15865 10064
4255 17218 6422
4095 14492 9679
40834 16830 20291
51331 28561 14271
66300 10411 4502
45595 29165 27414
43685 29190 27157
25519 25620 30593
15434 4848 6042
41459 29321 10730
1773 11694 23086
31943 10448 2423
72687 18946 32549
3606 12020 16824
14986 6253 3032
53918 27009 19377
41124 17444 21767
21192 28975 7377
31558 11097 4847
4821 24086 9285
5566 25839 10673
19345 13519 30687
30666 6322 22583
41637 6351 21224
30278 6371 20299
32389 6310 23134
32329 6256 25645
56088 6409 18532
46961 6373 20184
54106 6409 18544
28764 6373 20177
42267 6379 19900
30206 6271 24919
37505 6333 22081
43489 6337 21894
36848 6347 21389
39051 6281 24466
27803 6405 18697
32712 6244 26180
28090 6328 22297
27979 6348 21318
28906 6396 19127
34608 6327 22334
30362 6347 21411
55187 6384 19684
29932 6395 19170
30011 6228 26945
41274 6298 23682
27703 6315 22876
32183 6239 26405
45528 6328 22268
37671 6295 23839
52279 6400 18965
30003 6260 25433
55290 6411 18426
32605 6341 21620
28785 6330 22188
36411 6380 19877
34185 6358 20890
33749 8936 33652
2424 15552 28253
2355 14434 26946
2530 15575 30131
59012 19683 32645
33722 11772 30880
80472 16843 16079
5301 6088 14535
5295 6089 13883
5177 6098 8153
41541 15506 13094
5895 19414 30856
10853 17023 31093
4012 18282 30943
4636 17560 31010
46321 28468 7724
76130 10722 6362
76508 9907 8059
16621 17914 5049
15778 16741 5044
19361 16898 4925
16539 17273 5034
20133 16936 4899
13688 15711 5086
14005 18879 5167
25466 13658 2757
54484 9101 2691
47363 9335 2636
4667 20854 32289
25986 12265 5505
50165 9430 7043
5051 20866 29778
9159 23768 16808
5653 7165 3446
6720 7515 3287
20820 114 3010
41740 8643 15480
40267 7708 28685
4171 12027 9269
50825 28597 12759
50990 10361 23745
80761 15240 12452
79303 13946 31976
61115 7998 5496
61115 7466 5569
61115 11991 10265
61115 11455 6092
61115 14040 6586
61115 11807 9713
61115 15645 13483
61115 15678 8047
61115 13774 5482
61115 12593 9837
61115 9161 5026
61115 10401 5285
81640 8221 17842
22550 15358 33582
19110 15401 33557
37868 24348 9347
72607 15512 33469
22249 10119 33902
23059 29164 27421
24880 6169 2343
12808 7535 4188
22478 675 33088
59950 21456 17624
78477 6366 29679
3438 14695 3402
80614 12329 9806
11583 8918 2699
67658 7636 2421
64643 8821 5236
20293 7491 33879
3990 15412 23833
3973 16051 23318
3952 15962 22266
40910 16456 13356
70602 18506 32739
24602 6928 33062
61534 7261 28289
61448 6563 28820
62847 5477 5336
36892 22755 4577
1393 8356 7216
950 9096 7617
80832 7326 24091
84791 15828 23616
23521 8753 31478
50758 28774 26922
54017 23606 4939
16336 12725 4231
74398 19738 14979
6164 13214 5215
3958 13666 5230
7858 13651 5180
70602 20046 10551
69572 20164 11621
69557 20180 12550
69284 20180 10770
38077 16043 12762
51676 28256 26036
54418 19874 28183
54661 19402 31684
3061 17029 5313
8959 14324 5171
9671 14687 5168
4665 16241 5272
3858 16532 5291
34736 35943 16030
32867 35874 16001
70674 2557 30773
11536 29083 28337
43409 11583 8667
64625 4548 5480
42151 13183 28265
18699 29404 12966
16186 29476 15362
21135 29418 12581
14928 29465 15459
40023 29388 11753
47387 8456 21028
18344 13350 6082
3124 20591 28336
61814 20625 8592
3775 12024 28307
23883 14576 30511
3544 6658 22244
3828 6298 24575
62124 10557 29678
62438 11825 30383
80325 11659 30567
9686 20574 26831
59515 20535 5156
34069 9895 8544
66125 6078 2516
56893 24184 14965
55480 25571 17062
56696 24385 15412
4538 12144 5179
2814 18506 5394
3495 8802 2635
53031 20098 4159
7636 28759 8479
26009 30279 22600
35862 30258 22605
27095 30889 22428
26850 32477 21983
19724 33454 21709
32023 30778 22459
25823 33683 21645
27765 30831 22444
20924 34614 21383
20571 31178 22347
24911 34161 21510
26551 31392 22287
8686 29275 25549
42133 15663 20620
37979 14944 12578
24832 13718 7557
42556 11525 23349
2097 11682 3908
67590 20335 10427
67648 20375 13363
66993 20398 12426
41873 14094 13224
73058 19065 3840
49978 11586 2502
68516 11167 29582
65903 10482 33083
51012 11625 11828
77576 19194 16159
45995 12564 26568
53522 16597 3032
58369 16006 2979
58210 17089 3070
54214 16240 3002
49037 16450 3023
57052 15185 2911
45282 15987 2987
4069 18414 23098
4155 18739 24287
72688 2738 34360
2108 16395 19058
2098 15948 18429
2137 14640 19650
46721 13257 5996
58782 20585 24705
59638 20583 26524
73319 8298 3929
24054 14942 33697
42381 12015 8949
50234 28416 10115
49591 28412 10009
84634 9403 22488
36700 24723 23554
51028 11687 9367
53375 15746 28632
75073 19447 8660
27142 7729 33211
103 10535 9873
7331 19994 3746
24646 21946 4297
273 10463 29039
27824 22453 31871
36565 22300 31898
32910 21327 32179
7727 28889 26960
4438 20058 25747
79500 12685 6702
64898 12169 31186
61430 20579 6852
4084 8254 33023
5968 24258 19202
40490 30965 21029
39764 19063 13577
31920 29121 27868
43989 11983 15446
66560 2813 4861
47982 29442 13044
74047 10698 6654
38163 21223 25239
49535 28604 9238
79212 17358 4889
82274 10870 24470
80418 15719 22861
4294 20040 19488
4204 19651 18686
17054 1545 33971
49299 29204 26168
14771 18883 31175
11293 19313 31042
16684 19827 31321
15771 19444 31255
38271 21143 11985
77620 18938 28369
20562 22906 4621
9893 25655 5734
10775 26208 5957
13064 25327 5602
12474 26205 5957
19408 24574 5297
73648 5216 3931
25233 16166 16654
25346 15496 16415
51896 6600 32349
59152 6600 32325
56510 6600 32689
23654 6291 26168
18042 6416 24015
24223 6345 23341
21170 6322 26361
22016 6377 23264
20221 6323 26854
22936 6355 23722
24755 6366 21990
13403 6409 27277
20904 6294 27821
22905 6343 24293
26271 6293 24447
16061 6373 27216
24914 6389 20867
14904 6395 26997
24158 6256 27486
27027 6333 22090
18686 10440 2761
3841 22595 20983
6549 24208 6229
45395 27182 29921
43117 27218 29888
42266 27894 29556
39169 25117 6073
37917 26540 7224
67503 19606 32518
17340 12276 29790
40400 15966 20259
2328 11732 27801
37732 21465 21813
59566 21234 25392
24099 20267 31409
48768 28410 13954
58215 22149 28196
4553 6145 18720
47475 12952 24183
39441 11061 2414
44554 10816 2471
48239 10505 2524
72807 1473 33608
62017 20755 20034
12807 11998 27031
42193 15378 22013
67587 20251 28546
74033 8993 30314
49015 28955 14181
64833 20404 28749
63554 20455 29393
6168 25681 7027
4009 13467 23392
79169 13337 32374
26540 16568 3046
60969 10704 31626
60298 13807 31626
23484 2921 6562
4310 18963 9252
4077 18137 10622
54971 13793 2845
57927 14257 2864
45035 14996 2918
55786 14185 2862
55768 14714 2889
56732 13797 2843
50195 13745 2849
79928 11993 6525
2618 12093 6893
48556 28872 28942
936 8668 14144
32481 36000 20994
69354 3346 33146
80491 16278 21093
23785 21294 14396
38245 23195 31569
37701 24858 11383
11662 6137 4419
9234 6164 4864
8689 6193 5281
3097 20784 26394
18292 4839 2521
46324 13044 28930
31717 9445 5167
76992 8662 33435
49713 28966 19598
39841 18922 15391
29349 21271 4112
30564 21168 4086
35039 20363 3867
50672 9901 14122
34358 29350 10850
28923 29397 11956
24560 29496 14327
24949 29351 10871
33331 29375 11452
24908 29463 13555
38154 29346 10741
43384 10424 33816
40820 10821 33869
65882 1905 28895
47074 12568 13556
68212 20374 19940
68184 20387 19347
41282 6828 3476
48596 6870 3434
46002 6643 3544
39148 7007 3403
69389 17437 33031
42390 15534 21277
57536 8626 2757
59177 8490 2779
18033 29325 25792
11236 29168 27381
10765 29223 26817
36469 19414 10705
62886 4178 3116
79668 11638 32971
5596 25187 6460
3675 11456 33634
47892 9531 6547
59634 19410 31761
46194 7530 6597
24914 14028 6597
38428 20673 31279
41890 16356 21485
3946 14241 14965
3954 15152 14254
3905 16423 16009
3876 16420 17366
76588 8805 31996
84769 11079 14245
32954 6842 6360
34343 10823 19300
34332 10619 28393
7306 28692 20061
3815 6540 27425
3570 21218 5995
18724 30466 17045
16434 21480 4155
6649 22401 4420
9562 22473 4442
13474 21664 4208
35847 24427 9480
41018 16728 10199
51109 19634 3647
54585 18651 3359
50426 19019 3465
55405 19703 3671
4319 9913 33740
9184 8628 33483
36981 24038 31222
25396 15848 23507
25569 14818 24705
25268 16610 25028
2932 14595 31714
62611 7350 2274
81217 11844 16578
65683 16464 33209
63667 4039 5555
37242 22271 11957
69721 6362 20735
70543 6359 20890
67374 6389 19474
67751 6328 22339
66120 6308 23307
65139 6288 24200
62551 6387 19562
66661 6410 18478
63403 6322 22606
73230 6390 19416
69028 6311 23135
64159 6276 24777
73422 6408 18564
65781 6286 24333
61576 6380 19894
68809 6902 2644
78870 11645 2861
10038 14915 31146
6477 16278 31066
8175 14773 31122
8535 14342 31137
7251 15033 31103
79202 18562 26913
55063 21740 4272
45566 6988 32922
50327 6849 32875
55312 6819 32878
40274 6819 32831
46577 6936 32902
17923 2543 31249
71769 19856 28051
80428 7248 9044
59071 20561 27488
33032 6555 32665
39122 19984 27634
43147 30892 16950
85436 13586 23080
19328 6956 2356
36185 28327 29294
27628 27641 29629
81445 11676 22802
11784 7088 7613
68038 14650 33823
68189 11026 33281
65790 666 32145
25611 26858 30025
54524 17797 31631
80985 8160 10027
35614 23349 12917
14992 11777 4877
59586 8212 31871
60845 20659 25400
50744 11854 28653
54086 21004 22930
21903 29101 28117
8532 12350 31125
4927 12488 31119
4115 16740 27347
4131 17398 27720
4286 17594 30498
8086 29343 14898
54659 23568 4914
13301 14240 30494
54968 20321 33712
40136 26772 30076
24602 13779 21641
78490 14926 33166
40424 14078 15930
3191 18188 30945
45371 12538 28605
4146 12344 25717
2869 18494 3937
63786 2678 29556
61309 16186 2982
40299 9962 7937
9988 23728 19025
10351 19886 19367
10603 17220 19299
10230 21163 19095
10363 19759 18657
10302 20400 21566
10253 20920 19815
22872 25187 9579
80880 11641 7540
65077 6543 1931
59303 21710 12789
79571 15294 5797
20091 16786 33247
55069 20890 0
59845 14919 3331
40022 9786 21612
60744 18599 3379
61060 19258 3583
17968 30364 14616
81309 7705 20078
28750 8967 2641
3991 14294 23434
3971 14112 22443
52502 27792 24332
25245 16016 22026
38856 24369 5218
51300 28377 26946
72794 7245 34130
73149 9867 3783
48754 13321 27072
62875 6064 1469
49131 12544 6032
22408 646 4985
38972 15481 20536
61115 10449 28134
61115 9142 28003
61115 7171 23180
61115 14550 29687
61115 7464 30750
61115 8380 26248
61115 8111 23052
61115 7651 26509
61115 10814 26863
61115 9139 26494
82520 10556 21317
60932 16501 27379
60153 16501 30777
29359 10311 33898
64716 2671 5836
81643 10582 7484
32545 28975 7399
40314 24736 6420
66485 12856 2757
25075 10553 32640
41953 14962 25341
69182 7916 2768
20182 29055 19156
15295 29038 19163
19748 29050 19457
15201 29049 18237
20895 29048 19895
24254 25517 29545
73159 1646 3939
80255 11568 32925
80589 15746 10675
35986 22029 8891
18709 29531 19055
19457 29532 19123
16314 29518 19405
20656 29509 21389
14778 29510 19629
72526 7850 33900
33111 14744 2899
38624 12027 2752
35340 13617 2837
34108 13363 2822
30126 14827 2899
37978 13652 2844
29199 28392 28391
52776 16463 25664
50649 13385 25189
60460 13262 2814
40324 17758 8051
72012 19800 27350
17510 11890 33971
1442 11625 30559
56152 11196 2490
31081 29562 22800
42683 9176 6568
49548 28101 7847
12766 13673 30065
60511 7121 4688
36821 18047 8288
54294 10626 33767
8470 23372 22551
73745 14240 30314
21831 3438 2801
79684 15561 8420
85682 11569 23198
36522 18682 28200
73775 10140 30267
33189 26785 6244
34525 27039 6371
31964 27334 6520
52036 6600 4710
47315 6600 4838
36990 6600 4905
36804 18637 11120
7343 7565 33060
6178 7550 33029
10310 12018 22767
10380 12018 19745
10585 12018 18566
60968 20654 28059
51004 10315 25801
81330 9726 6682
22877 22326 5976
20336 20664 4247
37049 18812 21122
34297 24073 31206
32698 25296 30719
29589 25079 30805
27197 26234 30345
78281 7671 3229
81411 11655 11785
80876 14099 21184
49432 22584 31790
49840 24367 31085
51597 26087 30402
44271 22551 31814
43315 22555 31815
48124 24309 31112
48497 23502 31430
16605 28989 7415
39134 12323 6854
78564 6459 10963
26035 12786 32407
80328 6878 13063
39407 19289 11165
56948 21285 31332
62217 20689 23225
64938 3650 5826
84156 6878 23152
19895 2270 29924
27922 6600 4399
39345 19786 8087
19751 7248 2397
81168 14487 13667
3701 9344 2774
43845 9907 33771
43617 9406 33700
54618 23552 30479
69804 7866 33708
15484 1574 6286
4222 13010 8258
54065 25437 29939
73189 8335 31353
37181 28797 7270
2501 12874 28374
73298 6365 15019
70678 6330 9106
73046 6362 14045
72879 6360 9846
65713 6263 8613
63356 6231 8301
72645 6356 9133
71688 6344 11741
70660 6330 12535
71223 6337 13025
72158 6350 11156
69774 6318 9002
71274 6338 9151
74899 6387 10405
74799 6385 9828
74617 6383 12799
64107 6241 8345
73111 6363 11239
23374 17683 14532
22649 20305 14532
37719 20764 5065
14103 13713 7402
32742 11259 5043
19593 10378 2698
49148 8961 6557
13106 8916 3481
13961 5473 29751
66229 3321 3497
80812 15302 15669
52323 6433 32633
51374 6328 32542
9981 23785 11575
42442 15271 30016
26259 7071 33379
3042 20374 7509
901 9415 22916
48603 29013 20447
80628 12793 21498
68438 11402 33534
17334 29988 17092
17931 32473 18135
17718 31585 21722
18040 32924 21173
17443 30440 15698
17898 32331 20503
17290 29802 15932
17480 30595 21599
62886 8432 28666
6998 25010 28838
51581 28659 12347
5769 21949 32026
14535 22202 31949
13466 21460 32165
8189 20715 32385
44960 9840 29725
4312 12093 7790
64471 8099 32781
58049 19748 4617
23780 6903 33582
46762 12553 20121
34059 9876 19485
80225 12117 28592
19189 1178 29751
46408 17093 3077
42655 17048 3074
53712 21698 26162
55514 20112 34069
49584 29406 14187
15244 5763 33890
81267 8371 24551
73159 16963 3295
23270 16007 3675
2917 16167 31531
40481 17155 24302
48619 28912 27883
55736 24009 29785
55289 24604 28757
17884 12501 13298
17884 12947 17988
21021 10963 30791
80452 15401 13392
38127 14654 24772
37589 17339 6481
59475 7430 4200
4742 12026 27766
9726 12018 30951
2950 12025 28077
3629 12022 29130
3181 12029 26419
50756 28581 12235
53476 16974 23253
36817 20297 29403
50056 28957 27224
50941 28171 28764
14328 2410 3199
24056 20248 14340
2932 12024 14399
23844 23630 5766
2227 13389 22274
54699 22159 2326
32027 6600 31591
12912 12436 31269
69701 11041 6917
11796 29043 27840
40697 25732 5767
12255 14591 5109
7625 28400 7297
4133 18520 11168
38043 23534 5987
81415 10573 29992
58694 22032 25890
58406 22229 26641
14545 12710 9475
3597 7253 31453
2976 8103 30409
59920 20921 11214
56994 11091 2505
52278 10552 2546
62696 8546 32456
25113 2976 31398
4197 12830 2994
20931 18030 33105
8388 18368 32952
4473 17817 33038
11872 18898 32868
5222 18650 32874
61569 10819 33750
2343 15031 9511
2341 16585 9304
7689 16018 33228
5820 16738 33144
13010 15369 33361
41055 16744 5934
33660 9150 11722
24265 13087 24319
25415 13128 25675
40648 28821 7266
8496 29457 18759
34737 18623 32959
32097 19249 32785
27272 19816 32628
31193 19321 32765
80724 10653 3751
65312 11255 33046
51891 28244 11351
52791 27349 10630
42924 13173 29962
7313 12024 11953
9099 12022 7569
8265 12023 14218
10084 12021 14312
6538 12025 10551
7508 12024 12652
8410 12023 13507
7900 12023 9646
10085 12021 8731
8864 12022 12958
78996 6475 12091
79673 6503 14571
60447 20630 12334
68541 2286 30597
32160 28446 28135
25473 13102 2662
73784 5493 33549
40964 16097 5755
48106 29063 17673
18893 19346 4922
19816 19746 4855
19702 18493 4938
17999 19431 4958
74269 18884 3859
56627 16708 31518
54898 16972 25919
8048 28545 8195
57212 5005 2410
53541 5005 2161
59608 7996 2942
23304 9150 3278
2759 7896 13778
2596 8094 15385
3045 14326 31052
15876 20034 32449
8838 20065 31954
15350 20037 32073
12841 12306 5336
17811 14377 10698
12825 13717 33739
23121 22282 5482
50876 12991 23025
16239 29430 22056
20140 29429 23173
17015 29477 21165
11969 29497 19258
21256 29450 23009
15845 29440 21688
65017 1079 32250
72752 2333 30085
22153 27358 29769
42243 28949 28941
26767 10604 33729
69978 11068 32695
81336 10067 30014
84637 15357 12132
57193 20532 6939
36600 19313 6904
37113 22350 5529
37043 29092 8083
22558 28981 13495
24592 28943 12569
21272 29538 17153
20646 29536 17111
19505 29514 15678
20199 29545 18019
13837 29509 16863
18591 12385 6562
40072 18253 23426
37958 15340 21145
38231 19639 29994
65733 20553 17407
39423 12097 7502
43177 29454 22985
44528 29465 22726
42973 11867 7427
22349 12297 29887
8371 27568 7432
80312 7619 22484
66660 2299 33217
68223 2282 5432
7044 17234 3194
72509 4239 4030
47037 6471 3666
38814 28362 28176
76808 7416 32957
6572 6150 18530
7461 6196 19676
9744 6316 18490
9169 6285 23378
7940 6221 26275
9381 6297 22007
5722 6105 21464
9370 6296 18851
5546 6096 19036
5507 6094 27663
44223 28928 27754
80686 9376 31491
81872 9024 12811
54438 22987 31467
81245 7996 22799
37867 10140 2487
49607 8211 6687
50986 8107 8958
17163 29041 8473
50786 28927 10474
47736 29116 8393
56411 20496 12222
70755 19855 6060
64671 19887 3928
30050 29109 8304
61477 20376 4272
7577 26173 29205
57869 21136 32167
38970 7285 32944
42055 6306 32485
53233 6141 32388
51098 12006 23747
50726 29021 25210
80408 16991 20980
49667 29475 18148
18586 115 2801
12063 28752 26969
13783 28767 26788
11023 28747 27036
67728 62 32828
56013 20762 32332
7493 27784 7888
3629 18423 32854
27339 20179 4786
30818 20179 4652
22130 24006 15640
77619 18944 26605
41857 8227 6389
3834 18536 5394
13096 15660 5090
7737 18287 5349
4374 18342 5374
59433 6085 2136
57765 6085 2463
80003 6506 21987
81672 9402 9495
81391 14601 16498
77162 9122 33623
4088 18785 15534
4341 19934 13713
25673 4580 6309
15011 29003 20463
20288 28909 24163
17488 28941 22617
18569 28928 23232
16281 29000 20901
4245 15648 33095
79446 15957 7477
26931 7576 30300
26950 7416 31363
72200 19597 31766
58012 20396 4647
16287 4289 33485
45762 12546 11417
70934 20066 13687
71703 19984 13297
38272 20701 6716
50132 28331 24087
50920 28359 23092
81949 9285 24022
64875 20534 23088
64385 20586 21732
62717 20643 24201
21233 26781 29112
7935 6221 9978
5352 6086 9212
8969 6275 18134
10029 6330 15236
6851 6164 13532
9871 6322 16195
10957 6379 16929
5832 6111 17431
5662 6101 16614
16066 30304 19735
38836 13174 14118
68856 2648 3111
9584 12021 26361
5043 12027 25540
3876 12029 24581
12146 12018 20039
7154 12024 23072
6150 12026 24550
11674 12018 26008
20721 10780 33422
33696 9215 26943
44366 7672 15278
36389 20892 28631
43975 12460 15121
1460 8344 15411
1576 8344 14734
65622 12010 33041
25030 13964 29547
13296 18824 3422
8798 18881 3462
11121 18567 3384
7536 17934 3279
40037 18287 11510
68680 16272 3116
39037 12706 21204
35905 26774 30076
36896 27802 29559
32115 26477 30225
69179 2294 5917
25469 13108 29512
10025 24146 5121
8355 25050 5488
18408 22662 4521
14228 24063 5089
8086 25574 5701
30373 8341 2814
34130 8113 2912
63658 10871 30580
73043 9090 4409
4571 20928 13264
34303 12285 20978
80248 16734 27367
56931 12880 33517
53995 13768 33469
55042 14542 33432
40085 15336 33372
59331 14405 33445
53498 14302 33442
59265 13585 33485
78379 14183 3242
75677 19440 24386
76699 19238 25069
1110 8382 22859
33408 7293 14919
49815 27801 29190
63909 20342 4864
73397 6576 31941
15456 7823 33513
16679 29160 8855
11215 29182 9079
10383 29246 9722
36378 19369 12419
71747 17685 3407
57740 18345 31702
62125 8232 4629
24677 14734 14661
22852 19518 14661
68696 12607 2565
54157 19966 22787
21525 27320 28609
25720 13268 7031
4302 12262 2965
42588 11512 22604
2170 8344 8411
25941 26867 7377
27060 6487 30634
16410 13839 26393
58328 20551 9174
60221 20614 11709
34181 10163 21617
36837 18555 23882
42658 19494 32715
54359 18440 33016
45401 19579 32688
80743 16698 19865
43207 7954 15066
47704 12872 27902
19030 2281 30553
17298 15230 4988
22618 15407 4939
22381 17079 4859
77344 19153 23685
77293 19124 25331
40420 26598 6144
36755 18653 24729
40286 24025 30179
29377 33353 14960
34806 31131 14043
33370 31978 14393
19413 35275 15754
21063 33104 14858
18848 31085 14025
33661 32504 14610
24753 31864 14346
27148 32793 14730
21594 31737 14294
38768 31505 14198
23806 33967 15214
2623 13445 31319
81289 14190 18931
80740 11808 10522
54018 26035 27030
1188 8749 22018
13096 5115 33670
7828 29106 11550
7088 27382 29612
39848 18369 15729
23958 2407 2461
2182 13976 14969
2147 15096 16070
2115 16559 16898
32663 7591 5831
72552 8647 34267
33622 13239 11917
71149 18922 3697
70434 18825 3649
70791 16286 33157
36164 16086 2999
36737 16874 3064
33471 16703 3053
82478 8427 16181
82615 9378 19409
82460 7840 19118
41177 28970 7436
17736 30149 22636
1585 11648 7035
2439 11746 8905
37238 23288 13373
13769 3138 31888
82128 7537 22377
58310 18624 31687
66110 10632 1863
53772 12591 2786
44303 13861 2857
39511 13123 2816
41916 13453 2835
45071 12593 2786
40893 11942 2749
49401 13203 2820
54667 12481 2779
44531 11805 2741
68103 16058 3018
23982 8268 29819
61094 20696 15578
76789 6662 4004
65808 20299 6388
63410 20415 5621
76625 7977 32693
41078 6338 3805
44421 6371 3762
58225 21385 31887
66223 20532 18332
67373 20449 19255
11958 28943 14246
9232 28919 13163
11352 28931 13702
17486 28916 13034
14553 28875 11156
10414 28996 16678
19854 28889 11784
13978 28889 11822
12941 28961 15077
38525 13467 25148
16500 12018 18680
12686 12018 18553
14060 12018 18602
13785 12018 19836
36247 30569 13812
30014 31528 14207
31564 32149 14464
40204 33506 15024
27310 30041 13594
37694 34409 15397
36104 34511 15438
30903 29952 13557
35203 31845 14338
30637 31424 14164
36102 32194 14482
26530 30102 13619
37041 32785 14726
32303 30372 13730
1023 8686 18345
59006 7391 3193
49361 7476 3162
50949 8166 2876
44519 7971 2960
48508 29528 18255
24919 14241 33902
25629 14457 12838
25729 13866 9149
25818 13334 10236
25456 15491 12831
32298 15565 2960
26747 14926 2906
66917 268 4467
72808 5978 7259
79620 13747 5439
68061 81 3751
68357 12156 2443
19047 2365 33970
6416 27585 17598
7339 28692 24657
21755 25084 6593
59844 14833 32748
7960 12022 6902
8197 12018 5335
6441 12018 5513
3342 12029 9845
8971 12022 6994
8873 12019 5837
19373 13488 33489
2996 12025 22305
57289 21090 4062
55541 21104 35500
26287 6621 31536
48972 13383 11113
48137 22141 31936
42809 21842 32037
41274 21126 32254
42135 22317 31897
52179 27610 9337
12919 8376 32870
48464 28864 24975
60737 13563 33485
24228 26109 29306
60127 20643 15138
43095 17955 33146
50816 17935 33156
55545 18076 33119
59411 17895 33172
26439 27585 6659
29197 28318 7030
11065 12420 26723
44330 11754 12425
76557 16966 32983
26104 26212 29753
45505 28675 8639
31737 20888 32304
28099 21116 32247
28880 20697 32363
27042 6692 7817
14163 3743 29838
24309 29469 13686
24470 24166 5132
39576 11929 20940
80031 18523 14225
43707 7741 29611
80768 14617 26464
23045 14428 31569
23939 6416 18321
19869 6416 20428
16637 6416 23766
22100 6416 18214
22035 6416 19842
16288 6416 22021
22659 6416 18975
15763 6416 22523
17993 6416 18969
13965 6416 22689
25309 6416 18648
12424 6416 27444
11761 6416 26736
20086 6416 21126
12986 6416 24596
14833 6416 24814
17303 6416 22317
80753 12299 16867
28814 29532 19696
28860 29539 19141
26438 29545 18618
36777 29550 18233
34258 29538 19201
9462 7432 3260
7225 6205 3779
18599 13421 3717
23270 15792 32705
46803 12691 11252
51031 9040 15539
42593 11694 25629
31266 12004 33564
886 9618 13325
24486 27736 6753
41249 13701 5934
40412 10314 12220
15805 20034 3762
6093 20077 4594
11462 20052 3891
61671 8327 2845
51517 9205 16750
23742 27984 6867
27172 8363 4714
78105 18704 6771
5084 21292 31189
12749 6395 3046
36933 24523 5287
80558 15606 14924
62999 5994 32634
56748 18773 4580
15821 14360 3214
23893 7741 31932
24556 18822 21687
18069 29769 13481
43662 12239 29499
40201 25458 6716
25187 14198 2460
18354 2370 3315
80095 9813 2849
33070 29444 14252
27050 29444 13603
18899 29444 17349
27850 29444 15837
19111 29444 20357
19482 29444 21663
32389 29444 14380
23223 29444 18580
19589 29444 18492
27000 29444 15454
37847 29444 14292
24284 29444 18946
34981 29444 14620
17483 29444 16471
32236 29444 15700
18988 29444 16611
29134 29444 18057
23052 29444 20594
35658 29444 15727
33252 29444 16574
25452 29444 14592
19989 29444 14130
28946 29444 14413
23853 29444 16266
18725 33979 15219
39531 11585 22519
26867 10192 32667
50017 28575 7367
11025 16182 33263
69577 12930 2887
84531 11653 12992
24219 13089 16212
26186 5853 4677
59947 21391 19873
17083 10757 33904
64205 11309 2999
53573 27190 14582
52621 28039 14560
69867 1915 33804
70703 4490 33758
82537 7456 12233
12007 28726 9031
15724 28865 10723
11202 28803 9969
18709 811 29803
33190 8587 30175
35043 6379 16409
28956 6315 13438
36346 6328 14026
27729 6223 9204
32530 6241 9989
31070 6294 12443
34711 6283 11923
34117 6252 10494
34508 6383 16586
27620 6209 8487
36050 6265 11081
38085 6300 12747
38796 6388 16805
32460 6298 12693
44775 6341 14686
30330 6228 9374
28002 6405 17580
31704 6346 14872
42568 6388 16826
49264 6359 15457
45289 6363 15636
59781 6412 17936
30101 6408 17727
42711 6316 13505
52138 6385 16688
34277 6330 14101
46501 6396 17193
31845 6265 11113
32719 6280 11801
48091 6403 17518
33012 6394 17105
41252 6398 17317
35584 6291 12313
46579 6411 17880
35852 6368 15871
38857 6306 13067
47292 13161 30511
58287 22775 22769
56452 24285 24371
58339 22587 24061
58010 23105 22060
13795 14563 7809
31428 6198 8102
47215 6161 6687
49085 6191 7785
59099 6172 7004
47103 6176 7223
54500 6194 7801
60504 6123 5263
46223 6186 7577
44427 6198 8030
42035 6175 7210
46041 6201 8135
44345 6159 6624
55013 6137 5802
36260 6183 7507
58952 6191 7707
45508 11463 2407
25968 19984 3731
18511 15471 2799
60378 20930 15527
54234 18479 27453
36184 22376 23031
58033 22400 8487
37776 20572 6614
74301 13880 4661
75100 6390 28053
72501 6355 25608
71811 6345 24525
76071 6403 24748
75134 6390 21546
75095 6390 27096
72107 6348 27845
70615 6329 25864
76959 6415 19486
70722 6330 24839
65211 6256 27255
73583 6369 20951
70085 6322 27571
69888 6319 25567
76659 6411 23180
76390 11154 33790
59790 16938 3797
18430 32255 22045
66824 6310 13135
66049 6338 14430
62903 6398 17241
70076 6396 17188
67089 6326 13871
62873 6275 11477
66993 6405 17597
63255 6351 15055
69192 6343 14672
71862 6405 17605
66833 6287 12052
64434 6356 15303
68684 6373 16108
64249 6251 10345
61758 6396 17223
70661 6416 18087
9926 20062 31180
64341 18993 3561
55922 22295 4421
59719 10073 4011
39317 19062 20717
52570 28190 20235
53801 27007 21456
79444 6416 28177
34335 12056 9009
14750 6990 33904
8416 20069 5119
17786 20026 4801
61311 6278 24685
54281 6359 20872
48141 6286 24264
58556 6366 20550
56277 6239 26521
53567 6321 22623
59991 6208 27980
50746 6330 22211
61135 6368 20479
60574 6298 23756
42128 6210 27801
60258 6256 25662
59962 6337 21902
52653 6211 27796
53997 6231 26863
48530 6273 24859
49802 6247 26113
54396 6278 24661
34738 6245 26164
41268 6264 25280
36043 6234 26684
45753 6243 26288
41693 6243 26282
49118 6322 22594
58266 6356 21018
49455 6259 25527
52242 6301 23577
41182 6281 24414
53120 6310 23161
56322 6316 22825
53093 6325 22468
60797 6348 21343
44037 6220 27370
57204 6273 24933
56984 6309 23198
56776 6341 21706
12759 7583 28010
15769 7501 28010
18108 7888 28010
15132 6820 28010
3608 13781 3325
3918 17600 14944
3953 17064 13540
4010 14857 11766
40453 8750 12215
80243 17176 9147
20505 11130 5192
71438 12957 5369
12072 9601 33767
37433 22412 9401
15173 14228 29882
40322 7658 22628
25173 17005 9514
25156 17069 7126
24917 17959 7217
25091 17309 8853
24589 19179 10877
25142 17119 11149
15000 6600 3691
50633 13991 33453
47251 15987 33350
50440 29373 21851
62605 16970 33213
60520 7860 2998
21262 26904 7123
73857 11226 30502
73021 7292 6575
42110 13063 13506
10093 28987 7417
58282 20525 7121
21850 25102 11847
64485 17297 3173
14524 13919 30120
54310 18087 4742
59073 20560 8764
62134 6573 30865
44950 12190 25689
23854 21507 15686
23877 21422 16334
45452 8748 15258
79193 17129 29371
77705 12643 3152
34662 12554 33536
30452 12402 33544
26784 13195 33504
47861 13076 23878
7879 12021 19874
4489 12025 22559
7061 12020 19750
5238 12021 19847
3407 12024 22008
4123 12021 20183
9667 23816 25063
17148 10353 33591
24067 29253 9793
80284 12455 25344
40098 18686 29733
22221 24025 12774
77428 13161 3157
40164 27327 28756
59914 15765 33357
82355 10799 12808
77253 14331 3204
56669 21256 4114
60815 16501 5514
4078 13660 33284
7174 25402 30683
7533 24490 31054
7938 23086 31625
13850 24316 31122
12569 23158 31593
17415 22813 31732
9651 24869 30899
18313 97 31731
47272 11718 21054
7156 25711 30095
52614 14138 18445
74133 19732 12314
74528 19632 10991
79970 15307 28614
1117 8644 27161
23508 12165 32507
25946 24902 6166
31895 13157 31413
48384 13031 13705
592 9696 28566
928 9121 28578
3552 16467 32832
62514 4715 5040
55040 21534 33158
34996 8924 2669
37589 22573 23539
67616 10999 33343
65133 9102 30791
2530 19160 25834
2400 18526 25767
4238 23046 26312
4661 23867 26470
37543 16237 21319
67015 10869 5058
58945 20595 12545
57570 20549 11596
2246 17432 25479
2256 16298 25475
2237 16728 24832
60516 20687 18718
58940 20619 20431
37400 21028 29263
76291 19373 13929
75902 19457 14524
64530 20438 27503
24562 13897 28176
49553 28876 23146
25811 4351 32880
78870 14209 32858
16825 15106 12313
11609 15106 16583
16712 15106 13487
16785 15106 14482
15933 15106 16047
17756 15106 11857
13144 15106 16990
33995 11238 5742
8288 28597 11479
22795 16261 21852
19194 13058 29915
54741 20477 35038
2930 15813 4575
28099 14860 33414
24330 15364 33367
62107 20680 12200
60476 7021 32968
34599 20141 4884
73562 11634 32139
21420 1706 33971
23280 17978 32801
74541 19543 27709
85457 8940 22377
79942 6521 18778
78950 6485 20325
78296 6460 21370
28568 35768 15957
27411 35835 15985
31691 8897 30912
64320 7221 4631
72122 4187 7751
25945 4675 3769
42379 12362 30170
79548 6793 30314
58799 16562 8590
58752 16565 10443
59392 16526 7257
58266 16594 4922
40491 10094 2507
51566 9820 2602
69417 11630 33723
2899 7761 24902
2525 8154 19503
81329 7936 21469
9669 15145 18400
2360 11801 13651
63167 20697 19439
66068 20504 20736
16094 14943 7521
15697 14952 8617
18933 14880 7083
7402 28662 16493
81261 11721 14257
15650 3424 2380
15926 29376 24175
14727 29412 22547
9434 29366 24616
10341 29457 20496
14940 29353 25240
13423 29436 21433
16994 29405 22842
13872 29372 24339
42346 13354 5966
30641 6703 30712
40355 7547 27776
41892 14713 30509
53702 18672 15466
61145 18497 32954
2410 18747 24584
2229 17824 24652
28343 11622 33813
11801 11951 2532
11870 7631 30083
2706 18765 30031
62129 16576 33277
66636 8494 33037
890 8821 24423
82250 9883 22939
70412 19893 30178
73312 19547 31279
22055 23846 25286
46294 12628 24367
26205 6340 14030
26097 6264 10416
19591 6314 8565
22353 6298 9588
25835 6247 9439
18370 6394 11494
18081 6415 12305
20259 6318 9189
22252 6336 11301
23073 6410 15281
20792 6361 11545
26428 6362 15161
15192 6384 8997
16035 6388 9745
26746 6269 11042
25120 6373 14858
23849 4919 33212
37021 22088 12705
32976 11588 31233
65485 20518 14399
67382 20404 14276
62091 20718 14376
62421 20671 12746
24905 29010 28803
52827 15791 26732
75466 6456 33234
40340 9179 8370
55675 22025 31965
79272 8179 3282
3415 20858 30767
22662 17380 12470
22833 16498 12928
21665 22493 9351
21998 20785 10345
21485 23417 8785
21779 21907 7866
22416 18637 12735
22737 16990 13432
21645 22595 11280
20584 21811 30970
36015 19981 13485
23389 28798 26269
53290 26552 27595
4607 20354 9940
22739 28696 27281
23283 2613 2343
1577 9962 20514
50498 28917 16034
72492 3709 30323
40946 16790 24931
35510 9620 33769
53852 24540 31008
36741 22845 22947
22093 23104 4702
21920 24180 5136
7281 28061 8649
59810 13274 31807
24738 23369 4811
51458 28250 9399
32716 9211 2602
33009 9606 2531
13 10785 25642
23270 14857 33801
30366 8959 31018
76165 17748 32783
33464 9898 30967
15455 4798 30667
16610 6770 2570
25968 25960 6948
44506 5823 29766
38342 5505 29766
30299 5446 29766
43268 5721 29766
38229 14325 24346
56223 24413 11330
55919 24753 11873
54061 26210 10518
24661 4941 2343
79138 13638 30801
27869 9405 5119
63066 10024 32436
4278 14540 30064
4228 15880 29254
4202 14149 28602
78360 19005 14792
22895 6416 17716
12873 6416 9743
19782 6416 16601
15529 6416 18028
21080 6416 14416
16396 6416 16960
20657 6416 15440
12440 6416 9118
15595 6416 11647
24122 6416 16402
19513 6416 13834
16275 6416 17806
15871 6416 12408
21378 6416 16115
14705 6416 11084
42437 15362 6451
59985 21281 14582
7726 28706 28498
22658 18196 21829
22209 23369 31505
73115 7026 33713
21586 16470 31419
19702 15382 31352
75686 14844 33251
20908 24727 6131
24279 19927 19035
23699 22085 18403
80088 17827 27150
75877 19260 26920
33504 8224 29370
33379 7376 27601
24288 11353 30104
3567 6627 13914
3047 7355 16287
81966 6715 12652
80294 10511 2801
61600 20127 32321
8884 6521 32700
38957 20444 28319
67081 7616 33221
65199 956 4914
37520 5557 1944
35687 5236 1944
63921 6496 32730
1559 9777 17468
80412 17320 22026
21355 27391 7546
23192 14097 20101
21913 20655 18700
23205 14025 18854
22653 16859 20056
15182 9556 2371
3016 7955 6917
3337 7436 7295
48623 11888 6499
79025 18268 30632
23690 12025 3304
15604 4458 3254
1546 8344 24418
82780 6828 11856
38259 21407 13624
74818 9481 33444
37830 24576 25598
39766 13491 30148
23270 15506 3124
37628 17146 11019
14111 16431 33253
12229 16738 33207
19369 17576 33163
79012 18484 7560
26401 20179 31774
22489 27252 7664
51527 28446 10549
47031 24350 5216
51111 25430 5651
48512 24389 5234
49328 24247 5180
47804 22802 4606
47402 24757 5377
52173 25157 5546
2425 15455 8058
2426 14322 8140
2542 16774 5869
76911 8124 28205
28164 25622 5725
30803 25396 5635
35569 23208 4763
35332 25587 5711
36276 26110 5920
23336 6746 33422
80144 18040 26333
13469 16249 31203
15659 17576 31241
11120 18206 31066
14237 15606 31249
22118 17768 31460
18495 16330 31375
11641 17023 31118
79993 17131 10066
69121 0 32862
41074 29100 8193
70883 11144 33986
64652 18930 32764
58502 22140 9731
58648 22248 11891
59543 7907 3486
4418 18785 6761
41349 33082 21003
41070 34244 21305
42101 29958 22656
40994 34558 18006
55758 19096 4577
79878 11646 3821
23652 1427 4009
81687 8996 25314
1033 8666 10305
718 9713 5584
66995 12964 29423
78566 6456 25534
78336 18951 12773
5014 21262 4881
