ply
format ascii 1.0
element vertex 2717
property float x
property float y
property float z
end_header
14656 8261 5553
13305 39961 27051
37538 41297 23882
35893 41359 23231
68708 22677 41291
62590 15872 45081
31303 7926 44968
33871 7774 44968
7427 35571 19470
70974 11400 4941
10205 10492 44627
7337 12609 7114
1553 12079 43485
74138 9237 11802
2279 20732 24283
30657 8898 44811
51166 8571 5124
2288 7169 41411
5439 32654 21847
16815 10736 45268
2488 24558 26230
6259 2851 43844
62182 958 7767
75170 15021 29242
16048 6956 43007
66386 77 41722
3284 14313 44355
31929 9915 44524
64956 28862 30130
10603 5025 42099
23937 9300 44571
8454 10618 43586
1919 18446 32769
1690 18166 31510
47256 38694 18354
40400 31849 42687
39149 32187 42617
36068 31024 43009
36770 31902 42745
35507 30519 43164
36392 30115 43260
34570 28301 43812
73527 8378 16361
73292 7879 12904
73769 9177 17493
73111 7377 11233
73249 7259 16843
73622 9177 12597
14114 6950 44981
7249 35170 34400
70564 21448 12280
70999 22859 25938
61525 6477 43789
23019 36583 41204
66251 67 43333
63933 2396 43475
44568 38953 38938
53177 24736 5419
56083 15933 4829
6655 31854 42108
9480 37711 23913
35823 20973 4894
49549 36960 37064
48902 37362 36581
50946 35950 39028
28480 12682 44710
8684 15530 4385
35174 13795 4685
49447 14243 4868
46847 13111 4935
44323 14065 4804
43625 12816 4912
19052 10511 44692
53756 34985 35674
52718 35766 33542
51981 36201 33013
11391 6338 40718
3463 28128 26730
6749 30825 7338
74053 16864 16359
2120 10384 6241
10548 35247 41520
14920 6045 43026
5084 31670 30821
5783 33135 32770
74368 16156 12867
14274 4122 10030
20368 40084 39131
12842 6163 42474
43097 7213 44933
45919 8147 44914
31974 6811 44863
14115 9375 39978
1593 10242 5503
11413 6053 44068
62657 13502 6675
12967 13936 4217
5990 33343 34652
70614 10029 7824
18859 15744 4537
64175 29166 32560
1512 16324 40662
75051 11850 33398
56302 6533 4656
59442 30451 42111
74255 16663 30951
11028 2894 41411
17920 40570 36021
19858 40500 38031
32573 41379 30667
31430 41518 28958
18493 11573 5261
11438 12044 9318
6334 34038 32289
68922 4136 5344
35281 6878 44920
61206 5643 43710
6740 4276 8952
6064 9848 5325
39495 40895 21014
38355 41095 21268
57086 15758 4911
69009 24937 18435
63651 10248 6555
61703 4284 8354
4574 21882 43585
14193 16800 4512
70274 2763 10066
12101 38290 10286
73962 16952 17359
71715 7069 41555
43452 40130 31129
68762 19120 43980
45670 39231 15143
6408 33414 10059
967 17309 24631
6868 34696 15050
986 17145 21979
7217 221 40163
8055 36314 29341
13133 34689 7743
10212 2794 5951
863 16538 17869
55375 34340 33808
56087 33545 36645
56417 33637 34467
13154 15832 4279
15434 28627 6045
940 15761 11291
42901 40369 22152
40357 40835 23659
12339 8403 6212
14227 3433 43999
64865 18289 44598
74418 11257 38569
9975 10400 41428
7121 12230 10075
53782 35714 22713
54463 35398 23142
67012 12461 40959
2719 21873 12435
2766 20698 11050
72156 9440 5305
14363 9028 41338
74477 10751 36535
59431 8088 44719
8912 37257 25625
75334 14519 16420
11451 6536 5736
71448 20960 14947
62810 22016 5509
17929 35885 41616
56181 10650 44962
68982 22702 9321
2289 21507 25847
71715 21035 18082
71299 21532 16590
8297 16826 45041
24549 27070 44206
25089 26820 44272
21386 27694 44035
3815 2195 42571
22695 22323 4842
21261 22590 4877
20327 22100 4831
27551 23114 4899
8917 5171 42448
21029 41080 18491
19570 40974 19750
65706 2155 42113
7813 12700 7504
9330 8971 25279
51026 32602 7443
52055 32035 7240
71603 21829 23649
34526 37681 40558
39043 33002 42295
35513 36287 41093
36281 35312 41463
36823 33040 42387
56236 10856 4831
1597 9947 8403
68025 26329 27271
65478 5962 7012
1593 8989 12574
1727 11246 20320
1748 10045 21420
1745 11488 21379
1627 10047 14574
1620 8741 14045
1784 11082 23514
59898 3380 39946
37444 26755 44228
74943 11821 35122
3349 7846 10252
71681 5575 43831
12553 29794 43524
21881 35839 8229
21765 36479 8531
70320 2360 42282
1694 18113 34085
1408 17753 33358
20624 25748 44492
24876 25706 44531
31257 25233 44663
33281 39763 39633
32914 6255 25383
24598 6374 26605
40118 6149 31944
48263 6033 30530
44283 6091 27018
32630 6257 30799
45830 6066 35183
24528 6374 27867
21582 6417 26774
24925 6368 28458
51926 5979 34976
56907 5910 28535
42006 6124 27087
52044 5978 34254
55550 5927 34300
29447 6303 29551
33090 6251 28962
20936 6426 26502
49169 6021 28527
50732 5996 35724
45338 6076 28838
41675 6128 30586
39900 6152 33374
51060 5993 30169
56001 5921 34935
52355 5975 28927
52691 5968 37142
53530 5956 35351
41944 6123 32720
45317 6075 32275
23092 6395 26763
56818 5910 31788
45816 6070 25375
23786 6385 27445
30177 6294 26480
39325 6161 29843
41146 6135 32110
43527 6101 29849
53084 5964 31341
30481 6290 25788
34453 6233 25731
52848 5966 35237
43243 6105 32150
38010 6181 27186
39297 6162 28172
55195 5934 29524
31553 6273 28603
51124 5993 27004
51994 5981 26467
40629 6142 31004
56033 5920 36934
48582 6027 34580
45125 6078 30691
51397 5986 36508
41011 6136 33207
31731 6271 27897
39802 6156 26402
49935 6009 31953
26299 6349 27792
56072 5919 37905
34602 6230 27265
36316 6205 27343
49146 6021 29683
48492 6031 25966
43632 6098 34297
31465 6274 30694
61560 20074 5199
70870 3241 9591
57808 22648 44679
74713 15834 31594
57975 24842 44547
70425 8175 39558
65696 26192 8858
5585 23087 43795
66138 12639 44439
72336 20550 23375
5598 10958 44976
6858 12154 44814
50968 13528 44840
48296 13228 44854
41053 13911 45034
44564 13532 44941
48980 13339 44854
11712 38831 34987
54648 5957 44119
63873 23539 43899
33942 30419 43233
25068 6586 5169
25388 9967 44403
26066 11490 44607
8023 66 6027
13325 19792 45154
16974 19074 45211
62149 18806 44653
9448 6316 9082
20913 40953 33885
19033 40816 33248
5113 30655 9163
66018 27755 17104
66903 27189 19524
50580 6775 44809
7458 30347 7002
1815 12782 6082
66534 24005 42709
7300 17628 5055
73245 18535 24541
71303 8673 41135
21451 6424 8163
20697 6407 7428
18267 6476 9483
29969 6301 5209
30551 26788 5498
22593 27408 5688
23862 27176 5624
6569 33955 12112
17997 28615 43836
3187 3049 43281
2465 5439 39811
70942 22622 20452
33086 41072 14080
33889 41122 15717
31266 41224 14905
12138 2278 44972
13385 10566 7411
18746 40574 13108
20509 40595 11946
713 8251 27381
11270 9034 6093
41398 39867 11411
65828 4229 6101
48084 38476 23994
45004 39322 13706
64940 22739 5970
6889 34644 35884
6898 34713 35081
34268 26546 5468
42350 25895 5467
36251 26121 5400
25311 16582 45286
29609 16829 45215
31069 17517 45231
26363 16367 45250
14533 4054 7853
47594 9378 44455
44128 9485 44485
57289 30041 43116
30039 12994 44820
60343 10035 39958
48823 36647 40618
5060 8057 5956
58666 10330 43198
5215 31196 10793
1590 10245 39878
1616 11779 40306
5719 32524 12256
1565 16651 9068
57741 8445 10197
57746 8458 9250
73020 13737 6343
37482 40657 12564
6503 26987 6319
61636 4427 44457
7934 26787 43840
71390 4371 40796
10276 237 7964
69232 8170 8383
47307 28924 6411
41667 30255 6684
37193 28317 6045
39596 27528 5866
41163 28310 6119
43118 28971 6345
42351 27892 6022
39093 29056 6293
43160 30847 6882
8822 34785 41373
73176 16691 41139
72620 16792 42087
68711 9013 6412
9304 14426 4349
15491 17129 45362
12824 6820 42047
44403 39601 34800
72947 19099 23050
68213 12096 42172
27319 12033 5133
32295 34349 42107
31983 35070 41798
67767 18775 44250
4990 8585 42093
2565 19298 12084
44072 40086 24300
4787 11269 39813
45019 39491 33742
8844 29887 6592
70480 17911 5874
3079 26985 22282
23516 16567 45302
28560 17402 45270
23189 17106 45285
17901 16554 45309
26980 18136 45248
21317 16208 45316
37984 12438 4944
7868 3659 8590
42912 39924 14195
39072 40686 15720
72746 19797 25059
73592 7901 23721
74086 10695 18608
73886 9551 21185
73776 9004 19527
74086 10581 22815
74048 10438 20706
73979 9988 23560
74178 11291 14869
73978 10005 22705
3360 12262 43969
64790 29218 23973
52418 26601 4249
72931 9175 44202
58763 33050 25365
56216 34496 25339
21790 41278 21060
21407 41138 19057
2247 6641 42887
71554 5430 5215
67559 26809 23426
1074 16735 37621
41271 39839 38659
42055 39756 38144
11572 29096 6127
4751 7300 5938
61144 5214 39795
73441 8254 8201
52616 24939 44516
68125 25854 32284
46039 6636 44804
40768 39539 10348
66910 6624 7331
9138 5021 6052
7158 4756 42116
41673 34914 8202
41230 36464 8738
32495 36509 8667
46896 15223 45051
42355 14483 45062
44205 15335 45102
51758 14787 44940
39127 14496 45113
49784 15629 45039
41058 14854 45112
69966 9072 4837
8657 25137 5522
61748 17880 44752
65391 28807 25363
63414 25174 43668
14802 5645 5179
16134 40182 36171
75226 13291 17248
57098 28999 6394
10568 37708 10914
762 16019 32258
60249 2945 5074
72254 17547 41643
61339 12888 41826
14802 5394 9839
70634 22121 35783
60714 31514 18261
62710 30094 16896
61829 30783 18163
56407 7465 45154
60743 30846 13679
59194 31583 12117
71045 6929 26473
65392 6521 30453
70436 6902 31853
66855 6622 28105
69744 6857 33623
69190 6800 29354
67208 6638 25304
72725 7084 34969
69489 6818 28066
70764 6943 36589
69508 6832 31544
67229 6654 29224
63919 6407 29510
71610 6966 25016
70467 6914 34500
65295 6496 25528
69983 6870 32340
60013 6102 25585
70483 6903 31026
69186 6787 25595
62020 6256 26803
67332 6677 33573
61141 6187 25913
69016 6796 31882
71136 6966 35077
71615 7012 37871
33703 6299 5253
7097 12562 41577
6292 12285 43748
71670 21535 21650
71442 21866 21157
2726 24175 34195
2659 23196 34565
65158 20368 5642
31118 39180 39988
2489 21042 33403
2415 20682 31584
70520 21933 13158
6564 12420 6945
7467 34939 39086
62273 11934 7520
66846 17536 5050
18278 37891 9128
2979 3401 7284
67888 12232 6664
73320 14643 6644
74296 13977 40671
74274 12475 10012
61716 6250 34345
58516 5994 27584
67092 6668 38883
58132 5976 33735
60165 6131 33768
58463 5995 30164
57466 5910 25010
60492 6150 30321
63326 6379 37653
69335 6835 36234
61326 6217 32275
62063 6272 31818
57373 5917 33040
62741 6326 32856
60836 6187 36655
57523 5936 37295
60155 6138 38010
66275 6603 37155
59690 6104 38843
66550 6622 36240
67597 6705 37537
57982 5952 26432
63227 6364 33394
57314 5908 30380
57997 5956 28337
6880 8430 5678
844 12414 24531
64837 9181 7151
5339 31734 36508
4806 30524 36263
7074 33123 41671
22411 41296 29657
21223 41108 30868
14644 4324 41694
23107 7225 44911
3327 24435 41076
51785 36531 19688
51022 36959 20344
12462 39582 29351
9449 17731 4856
18811 35087 7824
20317 35798 8183
19450 36335 8423
66760 18171 44546
1073 17106 15206
12535 11348 44075
5293 30336 8426
73815 13668 42060
70634 23300 26636
72542 19373 30785
13413 4435 4846
13559 39631 13946
11951 31714 43018
33176 33837 7502
16270 35047 42031
57252 21264 44744
25201 41141 35433
65358 0 42471
65926 27504 34993
65023 28136 35414
70692 13097 44922
68584 16652 4974
59603 11595 7542
64471 71 41825
57815 8634 42918
4995 13996 4764
6834 7725 7702
13304 6759 4953
72576 19569 20222
14499 11037 42769
14365 11189 41905
75110 13648 13841
13468 7057 10195
53237 15378 4836
49865 14988 4815
53278 14627 4897
55005 14405 4941
73582 9304 41489
10596 13790 40158
4028 12898 6627
12302 39478 20079
58151 5974 17986
62331 6294 16994
60077 6127 14301
59816 6101 18104
57432 5915 20345
64276 6447 14584
70555 6930 12238
58855 6028 17810
59034 6032 23184
63296 6365 18905
62663 6328 12176
58848 6022 20482
61611 6239 17114
59892 6099 22110
63255 6366 16494
58045 5963 19440
63859 6414 15277
68007 6737 11837
63339 6378 13402
58819 6037 11329
65482 6544 11962
58136 5965 22471
63955 6419 16464
58665 6021 13242
1957 18677 25283
12814 6936 6205
9894 4408 44250
18415 11593 44581
55652 10069 4970
72314 18370 13510
16089 14445 44957
4413 11061 9755
8227 36592 22261
48189 32790 42293
47596 33721 42051
44312 32115 42544
46841 32142 42493
48966 30709 42844
48223 31024 42771
64854 29007 20425
52519 35275 11513
51378 35998 12452
53966 34627 12102
8039 8420 43598
71566 7898 42280
54636 5957 6429
64802 7273 7012
2818 24123 13861
2381 19991 30638
2449 19421 32955
66515 25780 40385
61561 11481 42499
71573 4892 41395
65668 10206 43780
73495 9245 7608
1034 16758 36834
62437 782 5469
32391 21122 45056
20105 20840 45071
21884 21239 45046
17253 20266 45107
23051 20606 45087
28441 22207 44986
23730 19754 45140
30166 21952 45003
32312 22168 44989
31038 22399 44975
31930 19501 45158
28736 21258 45046
15802 20047 45121
49383 29829 6720
46805 30366 6820
45990 30445 6825
4507 13296 40158
10747 2722 6772
55603 26805 5817
19489 8318 44979
7873 32890 42026
59089 31424 11058
60509 30123 9331
58580 31318 9033
50700 9076 44301
4208 29674 19367
4404 30042 18341
4555 30330 17606
62783 13559 43348
12417 4504 44457
60418 20848 44661
19541 9189 44654
64607 28672 34267
2782 13280 44555
10723 3438 6321
62947 28041 7844
61210 11167 40990
44470 8161 4877
9408 37342 17042
10670 38223 15141
2494 21281 16328
2466 21500 17227
2391 21462 19288
1159 8667 11307
71284 10691 43638
65281 11273 39608
6973 12494 40446
29023 15112 45162
32037 14254 45157
30684 15462 45175
56546 8100 4637
2813 11601 7050
70555 20962 38845
57570 24951 5244
67236 11664 10261
31069 35203 8028
45240 39653 20822
4098 26345 7725
38139 39905 39369
2884 26304 22631
6285 33157 40136
70021 15996 44692
8229 7492 43639
34000 6240 16611
30350 6295 16444
37080 6194 16112
32519 6273 11097
15889 6516 14305
18295 6484 12506
34796 6237 11583
33381 6249 16793
21058 6432 17768
34458 6240 12862
29522 6303 18438
19522 6449 20832
21327 6437 13075
33574 6257 11042
15600 6503 23492
30279 6293 17945
15707 6510 18718
21151 6427 19545
45484 6073 13569
19513 6463 13540
24639 6380 16564
28448 6324 15983
36253 6210 14256
35368 6220 15997
24268 6378 20710
36315 6207 15667
38767 6171 14840
26746 6343 19537
41948 6125 13968
33560 6253 13131
36901 6207 11083
49842 6013 10891
31533 6282 13956
24986 6385 11434
46142 6068 10940
36668 6208 12301
15399 6520 16412
18598 6477 13417
36373 6207 14947
42005 6123 14595
22989 6411 13500
30731 6294 13987
29825 6304 15827
43936 6100 11510
24533 6377 18953
41204 6135 14581
42730 6112 14671
17663 6481 18617
15187 6513 21268
17233 6490 17374
19010 6460 19133
27603 6342 13236
53405 5958 11163
27274 6352 10989
17264 6491 16549
26103 6364 13580
22274 6415 17124
74041 15940 39015
74412 15774 37640
2895 4432 39711
28882 41527 29407
29720 41506 29918
56435 18165 44991
8190 32499 7518
40026 8791 4990
64958 29086 26731
26111 12523 5112
32765 28472 43881
32540 31299 43091
60914 1863 40741
8121 6534 9082
5291 7701 24004
9613 7433 24036
1795 8277 25890
1596 8263 37053
5888 20696 5735
30625 13384 4726
11909 39321 21442
73559 17394 21889
8497 2504 6000
60772 1986 8028
47529 38182 35478
46297 38781 35791
1615 10157 36513
1718 13707 31211
1659 11698 34272
1685 12676 33165
1674 14107 38520
1660 12862 37320
1638 12711 39940
1718 14613 33602
1653 12971 38519
1735 14544 30932
1644 12274 37898
1666 13411 37756
74517 14152 9687
62530 29508 37221
16984 40052 11373
50797 36901 17581
50831 37014 19690
49822 37511 19465
41557 36455 41073
41321 34249 41818
71234 13606 5031
27485 41143 13651
61984 23712 44280
10213 7175 37081
14360 6708 38053
13032 6743 30089
8892 7263 32705
9768 7187 34461
11853 6864 29007
8728 7273 32116
14078 6705 35677
5301 7743 36920
7867 7475 38938
6487 7633 38783
11813 6975 36103
15070 6590 35648
13300 6679 27926
8422 7326 33284
10649 7013 29676
12709 6826 33135
14625 6651 36279
11975 6994 38681
11092 7061 36301
13668 6660 29476
14158 6610 29911
23454 41461 26991
62811 9490 5588
4729 31029 27746
4012 29403 26868
26135 41364 17747
23771 41346 19265
12193 11498 39913
8672 8393 40718
2381 21833 29668
2410 21973 30278
20566 19125 4607
14147 19550 4627
22542 19048 4606
14951 19637 4638
75164 15142 27220
62447 27299 43267
47423 38735 21854
11667 38997 32134
7999 14163 6840
61387 5871 5613
6009 33753 21559
60854 10870 8291
23335 6337 5301
16848 6501 6070
17237 6491 6922
18154 6468 8757
72067 18599 37711
8245 35545 9807
74388 11371 11031
71706 18486 8667
32095 41384 18593
32146 41472 20594
33385 41330 18974
60991 5597 5097
14697 31287 43053
15387 31541 42984
74015 14977 40897
10869 22008 4893
32555 36426 41170
48856 25019 5400
50646 24601 5352
43130 24972 5279
4274 29955 20875
5458 32477 18195
14065 39497 38176
14435 39621 37715
9262 37035 14190
8638 36710 16904
2454 23835 27267
69861 23761 33369
16305 40455 16888
16978 40547 15743
74753 15572 14620
57365 7284 44976
9975 6465 7353
74094 16216 11613
73998 15807 10186
2885 25621 18354
2710 25138 19933
31230 13593 45112
12962 36039 41499
15957 7660 10176
15868 8348 10497
17834 40618 14378
18688 40707 14726
37815 9875 44547
34169 11349 44709
8771 35353 40867
59325 4420 7667
71500 7575 9921
7998 7451 25705
11432 14540 4216
24127 12545 44665
13543 10364 42719
50098 25848 44209
52655 27361 48138
3977 12854 44195
14923 5519 41555
68095 26085 19866
66880 27345 21084
72191 19863 17505
4228 28821 40338
63916 869 44945
64961 20575 44161
12314 13458 4251
31560 36814 8819
67779 12117 39858
1667 8565 16696
10858 15970 45414
12927 32137 6902
777 12171 12799
31909 6899 4884
56994 14963 44863
42720 37186 8935
44359 35539 8308
42374 36199 8614
67841 23424 41925
53795 5987 6874
54545 5968 7743
52150 6015 7455
55100 5949 9318
958 16771 33744
41993 40507 21700
41330 40645 22611
39613 40930 22654
71470 8249 6341
74205 10601 39495
9689 17277 45038
11063 30942 43200
25816 41042 13030
29412 40152 39343
71529 20094 13641
58218 15233 4851
58716 10418 7441
68018 13501 39744
5230 11699 44035
609 10953 31671
13546 4830 44954
22344 41397 23965
22506 41387 22384
19693 41121 24296
65712 28288 20353
5128 30169 41217
15305 6507 24846
44031 6096 24746
23063 6396 24469
26164 6352 24284
28004 6325 24440
56229 25133 5351
10914 34845 7992
26961 41581 22927
27195 41591 23965
26480 41563 21597
26738 14048 45113
62035 3113 39669
1090 11317 7881
9782 7214 9082
66954 26654 34788
12849 6259 8301
28621 6520 44634
2701 17783 7190
62583 30551 27261
6463 34366 19991
51251 27745 43694
55931 20773 44834
46903 38990 25966
46555 39138 26745
73302 12146 42662
70861 20311 38868
63755 28791 12587
27634 40419 38996
64319 4031 44263
47873 6057 42323
48957 6064 42839
50443 6005 41068
50373 6038 42225
51238 5994 40859
63986 12568 42764
4639 4892 8782
25170 6334 44476
71225 20830 13912
47234 38634 17259
47989 38083 15577
38971 15233 4662
36738 17572 4603
50876 17315 4698
46520 16083 4694
40814 14976 4678
40499 17597 4627
38154 15776 4646
44795 16084 4683
38975 17024 4628
48757 16948 4692
42382 16702 4656
11124 35456 8291
8188 36103 35154
72042 21089 25800
14875 35794 41756
51435 34466 41781
51872 33713 42139
4383 28208 41385
24861 40904 12188
70712 19911 9459
74015 16740 14051
19867 11618 44508
52321 28835 6502
49712 32716 7565
2299 7294 43087
2166 8116 36616
12020 6831 28057
4375 7818 33197
4692 7747 28671
12192 6798 26382
2919 7951 26264
8967 7218 29090
10560 7013 28190
3508 7944 35863
9144 7178 26553
8808 7233 28462
9276 7172 27978
3075 7946 28429
3564 7917 32984
3656 7880 29305
1832 8135 33353
9883 7109 29745
64010 25760 43220
30237 34751 41991
70290 15153 44842
3140 26820 17855
8068 10640 9992
51189 33977 7714
63866 13809 9991
24009 40684 11272
4055 28685 12159
63817 15383 45170
11535 12007 40925
51235 7091 5011
32748 28363 5888
32607 31822 6859
49693 35676 41310
50485 8927 5320
68091 3118 8038
70279 10450 8077
13530 12070 7037
69545 12735 4701
54418 33878 9087
54382 34234 11096
55099 33774 10996
4177 29324 16198
71936 9344 40263
30201 39074 9713
63515 17303 44888
62109 27388 6486
6690 6719 6110
61638 29516 39899
62260 29507 38213
9239 1483 4878
66100 19096 5518
56286 20308 4938
67111 6569 6064
9913 5081 6080
75258 12147 21427
1250 16013 40043
15638 40451 21174
16319 40604 21185
7816 35450 11775
12585 39362 15407
75154 11518 30455
49392 37378 34237
50216 36997 33848
52262 35694 36136
49732 37105 35129
50360 6431 5182
69923 24151 27262
68926 25433 26539
37523 12546 44903
1318 9409 43510
1471 11973 16017
1471 12058 20092
70076 21967 11520
8238 5030 9082
23358 10329 5416
24943 11020 5284
2707 19392 40558
75065 11394 16762
6132 6774 7460
3212 24193 9361
63247 380 43147
13819 39983 30382
14990 40228 31133
30210 7882 44965
52815 29300 45501
8032 19769 44595
3136 23583 40371
2970 22950 39327
15038 28939 43752
66703 12608 42380
29212 41632 26546
30337 41635 26614
8118 14173 44427
3345 23341 41698
63753 27175 7263
73290 16553 8681
56996 33630 17692
55038 34917 19709
55320 34802 20296
64297 11195 4877
62170 25817 43853
68196 24220 10138
68887 21832 42315
66622 7434 7017
2331 20658 20817
2482 19821 15764
749 16139 20079
65247 28092 15042
66845 26518 13231
14809 7628 5562
601 12199 34696
10920 8009 8998
74376 9438 15338
3641 27547 36913
3760 27489 39100
70636 22647 33024
70508 22657 34262
46210 34157 7844
47915 31016 7022
46239 35031 8082
47353 32208 7335
73261 17878 20206
70464 2527 8543
4897 1196 43358
35392 27521 44018
37067 28202 43791
36542 27496 44003
42853 29677 43259
42793 30307 43080
40638 28188 43727
42369 28723 43541
18903 32686 42678
16528 32516 42721
17224 33903 42344
19288 33360 42495
7998 12715 41615
46551 9254 44428
27733 6329 25079
19453 6448 25486
22455 6405 25331
49000 6024 24881
54196 9215 5405
9838 20275 44851
21006 37018 41029
2078 18653 16249
6628 382 5973
65831 28426 23383
47450 37937 12112
15848 36101 8186
3573 28199 19050
14540 4348 5254
1471 11194 29277
17989 9507 4879
60876 3751 4843
68106 26292 26324
16275 40521 18375
13834 40019 20159
7915 36132 19916
63335 28575 39233
32185 27178 5556
3121 25106 37254
570 12307 15972
570 11408 21893
72988 14472 43509
73075 7115 36576
985 12312 39573
7917 35617 37466
33267 8828 4963
0 8246 24338
55604 32197 7451
54304 32812 7541
6813 8531 41962
2683 4059 42852
20825 25342 5236
18174 25702 5319
19070 25966 5360
29549 24992 5108
1987 18464 37973
70577 23447 24451
10901 5278 9082
9549 72 8072
8555 36718 31439
8502 36629 32371
875 11496 9362
8347 7385 13063
13188 6698 21405
7556 7483 12649
13250 6785 15118
8858 7342 12025
10613 7065 16916
12283 6891 15533
12229 6824 20460
7213 7552 10727
9254 7310 11034
12732 6869 13528
13479 6686 19946
14232 6560 22524
12132 6852 19303
10299 7129 15015
7844 7426 14211
4756 7812 12424
14295 6713 11849
7306 7464 15886
6879 7538 14253
6816 7586 11533
11618 6923 18597
10264 36938 9681
74785 14462 38947
22094 41115 16863
21924 41000 14989
21679 41030 15965
69308 23954 36768
51882 26679 44912
6562 20185 44266
59758 32330 28627
56799 34035 28447
58213 33236 28352
73437 13661 6924
3730 24597 42209
35189 41177 17782
36535 40979 15779
35621 40991 15170
1492 17729 39128
8418 21920 5301
23411 12169 5171
74122 10764 9240
74839 11043 36058
1922 9500 9928
9669 1336 39571
67280 25739 11458
4747 17438 44255
66935 5975 42784
71356 13038 44721
15855 8437 5676
67191 10219 8157
63290 29053 12314
39889 40232 12106
59763 28344 43455
13494 35518 7967
12601 4948 7790
14610 40253 22732
62263 9247 42966
40704 6819 4900
68191 17034 44758
10597 32253 42741
68583 13203 9584
58734 19284 4956
12211 14562 45571
35960 6212 5300
23932 6397 7787
21722 6432 9026
22565 6419 8738
32781 6260 5732
29968 6303 6165
4447 30133 31482
4867 31042 32284
10083 38144 27983
47186 11437 5169
62615 22118 44306
21819 40534 11227
57206 19483 44913
16446 38537 40315
63791 27363 41856
68772 23569 10511
62101 9415 44746
48543 7353 4932
66059 2184 7002
8597 5614 40718
67848 25528 12484
1798 9623 24883
73432 17413 15144
9447 22338 5143
21954 6372 44261
19523 6434 41658
20760 6402 44394
19632 6431 44307
18534 6459 41776
14431 36803 41263
6662 34804 25339
74496 16424 30441
27029 8438 4828
29266 8485 4835
2689 25453 23418
62612 26222 6193
71951 18685 10101
5863 13868 4665
5940 13888 5505
16965 12802 44936
1798 12282 24490
9075 36677 37659
66312 12445 10036
8948 7390 7353
4853 27523 42605
51802 26116 44120
69334 1411 40796
65601 28091 16658
66740 26795 14428
3986 29012 17694
54470 35247 29412
53207 35956 28322
2150 14158 43124
70686 21333 37324
16587 9044 4672
2394 23084 23346
49252 9984 44482
50836 10270 44486
52866 10453 44481
38775 11303 44672
41063 11088 44636
30575 28207 43939
1018 14751 23582
46877 38174 11830
73517 7470 25112
74101 10869 34553
74083 10750 33747
73943 9787 25846
73888 9605 30230
73878 9479 27553
73835 14095 7725
31510 39943 10222
51596 29946 49098
62692 7457 7173
33061 16852 4590
32481 16498 4599
30046 15065 4636
18976 41045 25403
18702 41025 24862
20885 41250 25301
38898 12746 44959
11914 30876 6547
834 14764 11725
19361 28154 43879
9915 28880 43606
68826 19990 6437
67344 12447 8722
49309 29230 43258
48926 28625 43443
16500 39795 10904
28795 13195 4975
3438 28043 22514
69271 24870 20902
68951 25295 21347
60029 9780 8982
35795 40171 39225
70396 20891 10075
65513 10685 5310
832 12107 9823
32895 12620 4950
811 8306 24156
73413 17478 31041
59657 11653 44024
10747 4793 7503
65434 13915 44784
9524 26768 44104
3037 9284 24332
1155 16508 38947
9043 14104 6384
29077 40920 37859
27512 41059 36770
23604 41280 31640
24670 41308 31927
34404 41394 21817
31131 41594 22545
32212 41505 21450
50959 29920 43041
5082 31924 24261
2748 3903 7038
16070 26857 44210
11358 28471 43793
20464 26365 44354
22327 26713 44282
14649 26088 44386
18727 26321 44354
11113 26549 44253
6948 9100 24371
61276 4045 39671
12179 35116 7932
68153 22496 42464
60474 18836 5060
62371 4353 43567
16235 6587 44614
75004 15535 23488
74957 15502 28165
4612 9734 4843
75288 13093 19822
71216 17747 6192
4866 30856 15450
5040 31217 15015
19370 8454 4800
72296 18741 15253
2774 14150 44006
37121 21663 5304
10710 11196 39563
35948 41234 19953
33351 41396 20389
31606 41526 21150
63267 29072 37023
75308 12575 22851
11629 11889 5299
9983 4228 7430
69633 11121 42333
3094 26673 31620
2970 25530 34168
3547 26689 39265
3328 26128 37526
73429 17334 37130
10283 2488 44002
63070 30034 30817
62845 30361 28483
61511 31279 28233
54736 33393 8166
38112 41191 26629
40896 40700 27647
38405 41159 26096
645 14983 30894
25255 41479 29023
65447 25824 7622
28397 6332 40685
40623 6149 40085
24033 6400 39310
39637 6159 42826
36301 6210 42811
47111 6053 39733
40967 6140 42291
39845 6162 39503
30665 6299 40234
53314 5960 39364
26485 6362 40218
30683 6296 41557
37064 6199 42424
22567 6422 39688
35693 6222 40973
38804 6175 41005
45398 6077 40325
34101 6243 42875
30285 6306 39368
34808 6238 39364
42684 6116 41269
48820 6026 40248
37705 6188 42845
6579 34480 31032
70709 9874 41228
14389 9365 25107
12874 32802 7087
12664 7636 9325
2718 21367 37585
2791 21299 38636
42673 38059 40531
2434 5835 9947
8248 91 7838
1678 18058 13712
1545 17898 14438
6013 634 8507
73777 17123 34273
72413 7473 39891
51742 19469 4833
43568 18656 4700
54264 19280 4847
44042 17748 4650
54484 18733 4816
48067 18736 4751
47306 18274 4715
54429 18035 4774
48581 8445 44843
45079 39734 26638
5025 1114 6856
11570 31315 6739
1512 12290 14895
1591 12151 13891
1736 14442 19175
1746 15456 17847
1784 15181 23979
1673 14408 10240
1755 14556 21480
1716 14355 16533
1616 10823 11529
1733 15113 16885
1670 13761 11523
1638 11937 11847
1765 14802 22318
1687 14801 11256
1643 10831 15410
1608 10278 11818
4779 21869 6143
23770 39427 9909
69224 8190 42007
64914 140 39975
30616 23187 44910
73321 17916 28222
32993 40790 11626
34932 40685 11593
63062 25454 6109
44385 11568 44659
65604 10614 6232
28054 41179 35790
14742 4687 43376
3699 24247 7518
62499 29341 11443
60082 30780 11049
14430 39989 16423
15147 40044 14453
15816 40216 14707
69726 1785 9665
47087 26218 5645
73004 17786 14087
5409 3933 5650
26307 40923 37908
72880 18806 29623
39070 27115 44051
40986 27279 43972
50362 26613 43951
63102 13654 44495
35416 26355 44358
34639 26226 44407
45395 25729 44315
10572 33549 42312
71349 8492 5489
69479 9885 10247
60486 22564 44558
24899 27623 5755
67791 26435 29105
66487 27768 28055
65647 22031 43831
12710 7445 41854
2590 9519 24870
1507 8088 24473
62622 30557 21960
20610 40433 11245
24473 38782 9657
24161 38139 9348
29214 34371 7647
25053 37578 9097
27683 35743 8271
33630 34577 41897
3625 10343 8431
44667 9024 5178
8908 14124 42467
9533 14032 43410
7379 15457 45310
67347 23891 7724
66237 15507 45162
72086 11024 44623
23233 13768 5021
21806 12796 5152
10533 27367 5733
70639 19340 42237
25808 39916 10203
29359 41207 35226
27096 41224 34961
12485 1323 42482
14795 6528 10002
59189 7644 7667
15203 9932 44480
15034 10319 45137
4160 27005 41835
66104 13912 8695
65938 13913 6060
37523 40663 37073
4134 23564 6620
59275 21205 44789
59118 17131 4950
67464 367 43550
68860 2294 44968
57755 13823 45064
2809 20069 10070
20824 14759 4851
59954 18753 44782
57410 27914 43699
55611 29275 43392
9260 4748 40718
29301 35492 8160
27346 38337 9448
29139 39093 9774
62011 1116 5238
12522 8029 10712
15115 7952 10712
15342 6657 10712
16914 40542 33805
17282 40554 35104
67479 12371 5910
11349 39020 22512
570 12309 27971
5183 20100 43952
11270 6677 44124
11014 21003 44991
19875 11305 5344
570 8445 18010
10972 38218 37183
58635 20824 5013
73593 7961 40496
15569 9411 4641
11170 38833 29848
18622 6481 39891
22200 6425 41026
32180 6268 44444
28013 6333 43350
26577 6356 42585
67497 12245 5163
51365 28392 43498
65477 28518 29675
1692 17710 8992
75473 13792 26616
71360 4276 44131
11925 13204 9848
11270 13493 7176
11167 30360 43359
10649 10099 43048
59990 3064 5881
795 15910 13283
63930 12290 44778
50111 6063 43961
52608 6008 42648
50714 6048 43367
3710 28361 32675
62025 27776 43166
57249 6746 10024
8882 36877 33243
12701 11254 7870
55182 32741 42123
2508 8223 41510
10720 14950 4226
12505 7440 43951
3993 29082 31416
63869 28444 11363
6319 33829 14721
50160 17424 45108
48050 18478 45066
55069 17505 45053
44274 18306 45115
50440 18282 45053
39703 18010 45179
38452 18053 45190
27575 39508 9927
53985 11094 5254
59378 23177 5196
66701 12566 5597
69890 13807 45035
38710 8115 44963
40668 7721 44950
5919 33613 28252
17685 24022 5040
68144 24254 39751
2312 21442 22115
52680 29402 0
11613 12002 8413
68651 25060 15255
68661 24971 14404
1471 8274 17901
24460 6363 43230
19997 6455 40690
18704 6461 40701
17159 6503 39433
1690 8307 41904
6484 24690 5903
5695 33258 27820
5141 32044 25858
57103 31711 42215
847 14847 19648
33117 41476 27512
35274 41360 27421
75208 11074 26580
63595 3242 43539
35754 40980 34606
32665 41295 32276
36661 41055 32591
36385 41025 33319
67432 2664 8361
63839 27565 8585
9565 82 41031
10433 33103 7353
71402 7098 5004
59094 5372 8756
7156 34753 38073
37094 40829 35871
35033 40988 35180
32411 41113 35596
1287 12169 7222
11325 3129 44100
38378 40307 38469
44041 39498 36686
68696 25278 31508
39896 40764 19565
39644 40747 18194
73536 7428 10004
66612 12356 5029
7974 10363 5622
4961 8537 8740
49294 9340 44433
1828 12032 38828
61252 23768 5431
11078 19445 45080
7390 30719 42679
5283 10564 39558
51065 36510 15412
49689 37027 13678
49818 37100 14944
46656 38994 31238
1561 9043 9664
1639 13306 8837
30439 41609 22188
29141 41595 21940
45039 10326 5255
46773 10092 5288
41027 10838 5182
67796 15501 4673
13102 39885 28557
15612 40430 29136
66660 142 8555
66144 10556 43234
9607 5980 40718
3945 29262 25954
69965 18258 43927
53389 35533 17030
52470 35994 17026
50737 36834 16780
65068 27633 37890
66570 26166 38806
6703 27784 43328
9688 29529 43411
11264 37428 40221
43881 40040 30488
46600 38867 16446
57519 17730 4869
30863 36358 41265
1110 14705 28567
23148 40146 39210
12269 23054 4978
2514 4665 9362
56761 5911 43788
63890 1924 44840
52816 13360 44796
50314 12088 44717
51815 12567 44739
38271 38826 40199
1684 11469 31731
1775 13934 26384
1748 11669 28155
1784 12000 26059
1781 12756 26170
1600 9123 36743
1728 12490 29170
1709 11320 30389
1754 10653 27946
1792 9778 25861
30631 33472 42524
13259 15090 45562
74509 16408 19382
14301 38729 9912
34652 21523 4889
51740 26909 4230
2760 3874 7863
37969 6326 44599
55247 34691 31328
55207 34868 29409
56419 33964 31992
68721 24509 37651
41348 22937 44850
74064 11331 41056
53082 26887 5930
13984 32729 42738
55636 10863 5038
63218 28268 9190
10807 12357 7911
60980 10925 40260
69559 19717 43183
8642 21089 5201
69633 11089 9119
23961 6399 9170
51393 5987 9333
34267 6244 9119
51414 5988 10125
27479 6347 9517
35308 6224 6856
37376 6199 10155
42065 6125 8375
48374 6033 9586
48610 6031 10302
38689 6174 7217
56503 5913 10723
26011 6367 8258
21531 6437 9598
28512 6332 9752
45439 6075 8261
34600 6236 7480
22429 6424 10337
27406 6346 8678
46137 6065 8659
41545 6130 6501
25595 6377 10687
32803 6266 8819
55761 5924 10574
23333 6410 10113
6697 34184 37391
24380 41269 17270
4441 8468 24123
13855 37106 41076
7921 14757 4428
72222 16638 6720
2310 20793 27871
942 11470 40883
15802 39925 12121
71959 12860 5385
59581 3769 8255
10402 37754 12381
10754 38530 31074
2655 4509 44636
74133 10069 37231
61755 31258 24876
4688 5260 5445
13990 11606 10048
36429 40120 10544
13132 34916 42021
74749 16043 25611
56183 9484 44990
71724 20507 34095
945 12204 9049
7016 32447 7818
75164 14877 32778
972 14777 21415
23674 35286 41808
26146 35366 41732
27189 35412 41694
28267 34822 41956
23777 36068 41436
10849 6806 42099
13748 30036 43466
8843 3599 8213
25146 41226 33854
5878 11929 39795
17398 15963 45193
28730 14021 45132
45558 6072 20843
40365 6148 23355
35409 6218 19580
48058 6035 15011
29720 6300 21650
33531 6244 20070
40023 6152 20272
46485 6059 19190
35291 6219 18694
56578 5911 11517
56877 5910 20141
51446 5988 18882
43934 6095 18077
35443 6217 20288
39442 6159 18078
29957 6297 23898
38747 6170 21200
36207 6207 22479
36375 6205 23904
36248 6206 21231
32772 6256 23027
36948 6195 18146
53083 5962 12557
46503 6058 17472
51393 5989 20953
53480 5958 17185
52004 5977 12830
57029 5909 22283
57130 5905 17131
49965 6008 17769
29726 6300 23324
55757 5925 16577
49003 6024 21876
50174 6007 23805
22607 6402 23982
42899 6111 23252
27606 6330 21438
52064 5978 16349
29180 6308 23979
49061 6022 20118
39371 6162 22318
36949 6197 23007
38182 6179 23709
52450 5971 14169
38309 6177 22578
46217 6061 15257
47178 6047 14666
48419 6030 16953
52961 5966 20935
46113 6066 24086
54318 5947 20957
47753 6041 21094
54149 5946 11853
40771 6141 18969
45917 6067 20203
25686 6358 22360
54776 5939 17937
19840 6442 24056
38879 6168 18879
44862 6083 21500
55386 5929 11396
43565 6101 20610
23342 6391 22629
51434 5986 14807
53682 5956 19926
44978 6081 20542
31722 6271 21841
19999 12521 44615
19676 13278 44720
20496 14395 44873
24011 40507 38789
67752 15562 45122
56160 5924 6752
29962 30257 6433
23379 33967 7463
25270 33058 7211
26701 31453 6767
28642 33288 7270
28993 30751 6570
53725 25923 44125
74407 11881 10102
29714 10522 5243
28737 10056 5302
17333 40856 26054
21164 41231 27981
19435 41077 26384
392 8989 24464
61529 8138 42914
54612 11901 44635
51736 27203 47094
22343 8861 44818
69717 8268 39671
51445 26377 5743
42850 11358 5155
39768 11964 5065
39004 26852 5638
58468 32139 36654
59242 31869 35501
59782 31928 33038
58621 32394 34355
23980 13964 44816
11897 11828 6541
74945 12755 35655
75306 13327 30560
73753 7141 28380
71942 7014 17916
67135 6652 18813
60503 6144 22505
65579 6528 21207
66342 6597 17708
68954 6793 17488
64553 6444 23278
72469 7071 13039
72269 7041 17401
64356 6444 19167
69308 6813 19372
66713 6609 22254
61977 6251 23514
72454 7033 23435
69766 6834 22892
62120 6270 21208
63860 6395 22481
65768 6546 20003
69011 6785 20950
68757 6760 22745
69957 6859 19882
72438 7049 18617
71732 6368 9347
4094 29122 33630
7322 35614 25541
4444 4229 4955
69565 21618 41086
19577 36962 41079
19936 34846 42074
61579 8259 9607
8055 36005 15177
68075 9657 43754
11974 39193 31649
9218 10350 5765
13393 2196 41754
3273 27567 26866
59346 8338 43977
39511 6475 5116
64145 29070 33935
5062 5505 43629
3579 28420 28620
59352 8431 43353
10118 20097 4894
73066 7189 7885
71512 14704 5287
1522 13085 42693
70840 22246 16197
5220 11676 40051
68572 14102 4542
22352 37749 9142
12792 12609 44497
13492 12097 44555
65661 10609 42831
65044 24672 6613
33766 8451 4833
8805 38 41901
50937 37138 26169
49664 37773 25965
49696 37706 28001
42112 12545 4913
66258 19181 44249
75280 12247 27677
62851 22730 5571
964 16998 28720
3437 18411 43226
73886 8370 10987
40197 40163 37761
38425 40605 36545
32052 28425 43886
67930 12110 43974
26635 8787 44896
18486 40747 33748
20563 40844 35508
70149 2218 40400
7045 35218 28918
16648 37767 40840
71881 20761 31596
70969 21987 33860
74481 11734 39193
67831 13571 7381
28666 41531 20409
30681 41499 19560
3629 7986 24646
9036 37132 18776
8622 36871 20295
17176 40760 29815
18141 40847 29815
19343 40951 30098
60497 9851 4965
552 12275 26362
3064 7965 18872
8038 7327 21578
6019 7609 17056
12295 6781 23930
2043 8105 16977
9095 7187 22778
1855 8094 21862
6389 7553 18517
3151 7935 21535
6083 7582 19905
3564 7920 16294
5188 7689 20501
2109 8066 21326
2860 7999 17496
3513 7874 23908
2870 8026 13565
4753 7766 17256
4656 7758 20077
6902 7465 22030
2759 24882 32077
74290 11180 9950
49615 31868 7224
67697 6510 44147
47318 37833 38658
72227 8409 41172
73412 16656 40306
75177 13167 33121
69636 6371 9919
42268 36542 41065
46185 35863 41458
42301 35803 41319
45565 35254 41639
72401 18702 34032
41502 39500 10444
44688 39856 22038
46251 37047 40943
70673 23053 29428
37098 35103 8290
34486 33955 7683
33831 34534 7893
38183 35233 8397
34304 33440 7458
36678 33733 7697
59519 14695 45144
14672 8369 8056
25178 32182 42832
26783 32196 42830
25243 33462 42479
29277 33614 42442
29630 32685 42699
31318 29588 6219
60014 9790 6530
72873 7678 43280
1258 9531 28830
9965 6770 8470
2520 11161 44543
50561 25370 44298
49687 25241 44341
47571 25153 44400
8771 3995 7702
66126 3735 42650
6088 3456 6002
5479 32335 33722
4785 30687 34074
34293 25538 5218
44645 24317 5185
33257 24434 5001
63351 12373 40848
16362 37083 41144
66662 26430 12196
65192 27537 11848
34708 41295 29927
34525 41336 29220
36590 41249 28641
1061 9313 42081
23992 41073 13996
22960 41154 16247
35553 40578 38498
62188 30249 34003
62972 29490 35578
70500 10190 43135
29055 37766 40621
29358 37051 40943
26449 38172 40421
26982 41580 27206
24699 41520 26383
28106 41612 26959
64372 80 7077
8831 4316 6183
6790 34990 24413
66745 22040 6398
35756 40896 13765
31379 41154 13856
60785 5766 39629
22561 39303 9850
8565 8015 24331
73155 17674 36385
6244 8509 24263
61242 28125 6575
40938 40533 31490
38462 41010 30015
41136 40529 30813
32048 13588 4681
3523 4270 44979
54193 34046 40463
55577 33084 41098
13760 13571 45568
55794 22931 5136
28991 41329 16628
30587 41314 16217
9373 34003 7935
4111 10907 8334
71944 15039 44171
13323 6405 44844
50402 35318 8370
74760 10865 12980
55159 35075 23756
58464 33130 22100
57282 33857 23564
6975 7383 9082
71049 11036 10021
55203 35045 26081
59737 32396 27832
10956 9912 6346
1050 15349 10141
69591 6966 8559
1347 8251 10610
74996 14004 37615
54858 34497 14789
54607 34510 13768
57005 33194 14525
69926 1910 6337
18713 10013 4949
12884 18376 4490
10799 36159 41060
61094 7766 4959
11099 38912 24915
995 14776 37491
26183 41406 18546
44627 39519 14740
45346 39260 14249
41292 40435 17524
42517 40185 16903
39081 40806 17550
62995 19210 44544
56830 5909 9304
51126 36761 31700
52072 36294 31508
64636 25111 6630
6014 11173 10251
11748 842 6905
52341 25317 5514
17145 33649 7388
17224 32938 7194
16025 30412 6508
34728 8993 44752
61199 24809 5514
11168 30160 6443
40345 33853 7878
35476 38408 9561
40869 33475 7735
9407 37613 22547
4249 17700 44040
63870 12491 40078
66979 27359 23371
16707 24232 44738
75132 13443 14740
14115 9552 6261
12745 38633 10295
34109 9606 5290
62214 3181 4972
66226 10536 5954
3240 12119 5230
63562 6910 43710
45807 39437 30306
4642 19036 5839
62472 5702 7151
19782 41112 23205
20146 41118 21610
75322 12248 25650
47020 11496 44645
46341 11543 44651
43389 40305 26721
1761 9834 10698
49451 27315 6006
49724 26572 5827
47333 26772 5829
3558 27588 14362
3829 28127 13228
31902 41608 25214
35408 41395 26152
34526 41471 25276
55137 31473 6980
55792 30968 6858
2682 23813 15834
2609 23441 16832
8120 7595 42448
25372 13942 4865
12703 5284 6737
16882 36987 8640
12457 39410 32543
69643 12603 8930
34816 40571 38633
1085 14341 40401
5418 28848 7255
14804 30340 6490
17523 34725 7680
56934 10194 4666
16434 40647 22023
13017 39932 24534
14969 6656 7573
71629 6924 9707
18739 39366 9971
8137 8273 25634
9228 7791 25658
6640 8853 25605
13687 8953 25600
21901 40886 13422
65299 5 41832
685 15414 18892
3904 9339 44982
25932 8647 4824
58859 7431 38991
60449 7032 38991
61511 6910 38991
63928 6747 38991
37016 10702 5165
39926 9782 5265
64195 6584 6830
54859 7117 4845
29779 6998 4843
2367 22397 22041
2417 23043 21457
34846 40791 37323
74497 8911 28676
7873 9105 41316
1179 14694 9187
72554 19399 19108
62467 30729 23536
63739 29869 23670
13264 16898 45381
62190 28635 42143
11429 2791 4899
36848 20063 4722
35816 18770 4629
41194 21021 4826
52926 19763 4863
38118 21834 4847
41668 21503 4862
41262 19328 4719
37566 19828 4714
40666 19431 4720
52999 13426 5002
51992 13253 5002
51729 11968 5116
47053 37701 9852
5206 11758 7610
10853 31654 6840
69560 7148 6287
72082 20118 32404
41932 40543 27148
39391 41007 25693
67847 9842 6950
60398 7268 4857
62637 9523 44455
1531 18015 20703
64984 7515 42789
5953 5566 5723
31753 10249 5244
33196 11576 5069
69829 4918 10139
44277 37438 8979
5472 18288 5477
43069 40109 32592
38986 40782 32716
68380 6818 42537
10904 12151 5120
11368 24560 5161
64790 16235 4711
51554 36788 21741
50892 37142 22832
2430 4861 8152
16584 40674 27968
14030 40153 25568
52804 29217 4369
74701 16035 20652
74478 13024 10259
10893 38637 19050
61771 30259 14122
62230 30190 15522
62381 29887 14248
61184 27492 43494
8303 2155 7111
42309 6129 6128
43066 6116 6402
49857 6038 7611
50473 6015 8290
48823 6047 7532
4215 23694 43224
54404 6108 5308
14423 34864 7723
46533 36124 8375
38715 32057 7139
38438 30339 6645
34469 30418 6588
34321 31519 6897
35805 30255 6569
37896 29382 6363
71249 3904 6914
2928 25380 15940
3027 26380 18416
14598 8451 42469
18677 13948 4975
22057 40805 37168
29064 41457 30838
27684 41421 31353
15630 39578 10806
63983 12587 7313
26663 29047 6107
24090 31805 6869
21729 33809 7424
24796 31540 6795
24057 28985 6097
29110 28723 6012
22757 31526 6796
30316 27824 5762
18617 30021 6395
25878 30195 6423
24213 31184 6698
15131 35875 8079
41138 38368 9394
7383 35230 14014
46791 24323 44576
47551 24341 44559
33160 24614 44769
65233 28353 33272
29407 41329 33131
29501 41281 33918
74634 13202 10879
74306 13130 9283
2670 22237 13562
2872 22672 11251
63135 29709 33198
63082 29763 32494
33364 9456 44529
9770 18269 44920
3297 26119 12592
3282 26683 14076
8909 19028 5042
12380 17867 4480
55998 18373 4821
19660 21013 4741
27521 19375 4636
16892 20554 4712
28684 21500 4770
20935 21608 4778
23130 19406 4639
19381 20415 4703
26867 19762 4661
25084 21159 4749
31868 21179 4749
27377 20542 4710
23828 20569 4712
42098 40092 35098
40437 40419 34483
59589 3819 6217
58962 32880 22980
59918 32413 24787
11198 7379 42215
39175 34996 41502
39812 36214 41115
34987 38557 40174
38617 37138 40767
62699 3104 43909
67689 25912 14390
29503 40950 12157
64315 10481 5750
2116 18632 13237
21882 7272 4905
3743 10407 40190
69859 24247 22740
9209 10701 5243
55943 5929 42796
65836 28181 30062
67028 26917 31757
9209 113 44040
11657 9918 39668
74933 11071 14753
27137 41435 18702
27649 41497 19847
43965 40049 19985
42377 38745 9720
1107 17564 25384
74331 16311 34188
69222 18936 5920
70475 11803 39738
9262 12498 10019
31072 32576 7043
33114 9513 5349
10315 3934 40718
66698 8819 44081
74940 12322 14431
65004 4196 5987
45616 7953 4885
43285 7738 4869
5859 24573 6059
14838 5071 7583
71626 10020 10438
68883 24709 35373
10580 38449 19736
9877 37830 19075
53238 36019 25926
51278 37007 25034
6437 10019 43066
6268 33999 18576
2288 19630 25437
41793 8985 44700
45520 9170 44517
58019 17382 44890
12248 37458 40528
8387 8157 42448
15357 40160 34105
13377 39718 33722
62985 12273 41920
25024 15442 4586
23744 16391 4496
23601 14789 4601
26410 41102 36396
49352 8369 44844
56513 11815 44968
57537 32998 15268
57112 33373 16159
58969 32303 16091
9134 1610 39641
35996 9122 44683
7800 35080 40220
6469 22538 44104
26648 6352 34269
27656 6344 37879
25108 6378 35371
42397 6123 37857
28199 6322 30446
17021 6493 32061
36288 6211 36313
38847 6175 37481
16640 6502 33825
43468 6105 37260
19092 6456 28917
21953 6431 38618
55954 5921 38759
17418 6498 38023
22708 6409 32708
18110 6471 29339
38304 6182 36939
18479 6474 33913
39336 6162 34321
16143 6515 36491
22931 6415 37953
40724 6148 38114
36158 6216 37822
24211 6389 34182
31254 6282 33940
16510 6490 26391
16965 6492 31124
36571 6205 35471
49305 6019 38097
26011 6357 31772
18325 6479 34773
23705 6394 32787
31545 6282 36025
40734 6150 38926
20529 6450 37244
34647 6230 33087
17875 6473 28684
27021 6349 35453
34191 6239 34353
29078 6323 38001
23613 6403 37045
33579 6245 32685
25458 6362 29776
32045 6278 37706
15832 6507 29871
22625 6403 29117
23548 6403 36443
23573 6391 30493
28491 6325 34349
21382 6420 28485
40107 6157 38123
15447 6509 28075
25201 6367 30743
45658 6075 38377
26887 6340 29636
24877 6385 37443
29697 6307 34728
26762 6348 32878
28480 6323 33360
29848 6308 36397
67990 571 7190
7724 36026 22782
3799 16820 5980
67903 25142 38486
61942 19390 5170
45589 37951 40258
12877 2844 44981
1058 14746 15343
4713 3238 44935
2774 23776 35734
2692 22616 36003
33492 36461 8721
33264 37765 9290
60658 4640 44940
14283 38640 39963
60717 10560 43999
60939 10848 9311
69814 10845 9729
2563 21878 14883
2335 21679 21101
2437 22698 20036
31677 41018 36825
71771 15256 5552
60108 3102 44671
24252 27992 44006
33211 33306 42501
56964 11438 45054
51450 27421 4574
2732 25576 27325
67249 13705 45010
58527 32982 20485
58527 32866 19120
60312 31891 19644
74407 8944 33932
25073 17098 4518
26766 18055 4550
23152 16915 4510
27273 17450 4531
28532 17839 4545
20280 18149 4547
14654 18670 4558
14890 5287 42664
1556 8952 40756
66542 5494 6053
7845 8167 24080
11329 7368 24040
14276 8206 24082
12819 8437 24093
7842 15594 4477
1028 10090 40376
57575 32383 11351
58536 31914 11834
7516 157 8713
2953 21120 8959
73568 8036 29025
73404 8183 35731
73966 10570 37756
73431 8396 36683
73664 9268 36521
73578 9128 38154
73721 8778 30369
68840 8855 43711
47911 38466 20667
66427 16607 4772
5190 13693 41255
5619 13805 41801
71423 22020 27466
38421 16442 45166
36269 16332 45177
34302 17054 45204
49539 16421 45094
36689 14587 45141
51868 17317 45096
45525 16329 45118
33617 17310 45213
35561 14251 45143
49292 17025 45107
38898 15304 45141
50695 16738 45093
61842 8705 7058
9223 31042 42953
13064 10636 5061
60595 4330 39566
9980 7984 42243
2896 6994 44929
69986 23986 28722
1898 12489 44006
59304 14332 4649
57424 22127 5071
18821 30105 43384
24865 30951 43168
24179 29438 43581
28598 28296 43905
27392 29781 43495
24009 30831 43199
28130 29393 43603
18327 31637 42963
20897 28931 43711
19939 31396 43033
24662 30088 43404
4437 1603 43736
6317 18910 5442
24253 26126 5366
13573 28268 5946
19352 26579 5505
12165 27416 5750
23039 26189 5390
21235 26620 5503
8781 6605 40718
63452 29898 20521
64296 29384 21244
63463 29740 18512
2820 3759 8823
49130 36947 11181
9120 7283 6070
27935 41285 15931
66517 23519 6905
2622 20966 36393
2710 19650 38275
23070 41460 23566
23618 41475 23130
38498 8845 5001
5233 31161 39343
13910 3114 5168
71328 19778 12105
60510 16719 44955
22026 8375 44998
6348 25624 6074
2744 25285 25134
8372 14217 45370
