ply
format ascii 1.0
element vertex 2868
property float x
property float y
property float z
end_header
9591 13484 38885
73190 16871 32471
18673 19641 15280
18986 17826 34999
24448 21130 28910
16355 16147 2492
17773 16514 16820
17648 19388 20689
17668 18922 19383
53229 16852 21488
54653 16200 30709
19588 16709 14702
1869 16500 27259
26891 20243 20924
47566 13444 20414
27300 7470 1007
15600 4523 34058
82596 7755 25768
33488 4999 5032
36437 5230 3463
34544 4905 6238
19616 7409 36598
26333 21220 11267
19175 18656 6627
56305 6286 36704
20990 19253 5603
30825 22362 18171
38139 12045 19664
3835 8565 9139
59167 6261 35559
46907 6486 35892
53618 7141 36006
56634 5952 35493
55504 5919 35503
45929 5781 35644
81268 8023 23642
26865 22965 25638
73958 12884 5909
17732 16624 22989
65121 17348 24860
28538 16868 22917
54757 8808 3158
67336 4439 36391
9168 19362 18745
36462 23241 20780
43659 7498 35744
49122 17604 28834
80294 7886 4693
27957 9468 38930
46265 13607 21087
13332 18495 30627
40579 11586 449
52777 15467 20256
40317 14253 1112
43062 15283 1556
16616 20865 31835
32294 22921 29065
84857 11288 15158
4908 16199 27277
3249 14275 26170
4057 14025 30215
62268 8532 32656
62445 9931 32105
15498 6526 34114
32908 11980 33944
31551 13794 29758
30548 15160 29048
31506 13865 30572
32359 12701 31040
21565 7137 37828
18626 23188 24592
71203 17373 22798
14653 23546 20163
80900 9223 12985
6998 15602 20494
5645 15494 17041
6775 15584 18118
51187 19986 34429
26255 24342 21884
57831 7026 25521
48345 6601 26386
43084 6027 28543
54594 6611 27148
48763 5478 32010
57660 5984 30662
47873 4922 34648
53730 5407 33009
58222 6344 28950
45438 5357 32175
39270 4565 35295
58833 7524 23182
49558 6822 25450
35202 4978 32713
29577 4488 34408
59454 5962 31007
60386 6473 28598
59667 7975 21053
49536 4926 34843
35552 5130 32005
61304 7902 21630
37541 4624 34775
35987 4731 34042
52806 5366 33086
31087 4413 34978
56286 6949 25700
42052 4811 34435
7313 20506 24001
68844 248 38805
31466 22863 20708
70574 6622 36740
18763 20323 25478
27460 23039 24934
53159 16036 6302
37556 12792 441
22940 1919 33830
24110 23391 22232
11380 17027 32647
10690 16996 33395
70275 16924 6071
11768 16805 4610
34092 22976 20928
74769 10094 36926
32855 22208 7419
8907 6156 25882
65604 2795 6027
22820 20851 17561
20668 17482 10071
61490 17653 23913
22277 7225 2461
12144 22331 20048
51154 15712 21068
63169 13671 38499
3427 20064 15801
5614 10456 1746
17488 3269 1995
76492 18291 24564
76476 16311 18402
40708 23209 25031
10339 18848 27296
57985 17958 24993
43325 7688 20549
48298 7815 20512
35919 5461 30441
26820 6257 25555
44176 6868 24601
36028 6271 26547
33658 7036 22589
43201 6309 27187
47008 6881 24870
26849 5526 29085
27961 6659 23752
53929 7376 23277
34407 6231 26555
38495 7310 21824
30365 6224 26127
56368 7875 21151
53179 7667 21788
27523 6791 23067
46545 7323 22678
30110 5193 31067
29465 5778 28174
32152 7234 21461
31263 5218 31076
35592 6119 27231
37216 7043 22965
32915 7103 22182
40510 5893 28887
26786 5841 27561
28096 18094 28316
4915 15143 9760
4622 14711 9799
31114 22518 24660
54807 17043 26999
44983 22408 30938
47716 6781 2393
18217 22699 20360
26417 19103 5781
5073 16842 34248
65419 7935 38712
40569 13065 19884
38531 16480 3341
44299 16469 3187
38320 10264 39151
72159 3383 33831
67279 3434 3202
25375 19498 29200
31795 11330 39339
7408 17527 31671
14362 17643 29844
16824 17684 31366
7803 17534 26392
6141 17506 29623
13898 17635 32384
15788 17666 30082
12520 17612 32757
59656 19433 26918
56796 7625 37753
63242 14088 38247
65867 7834 5500
40074 23006 29003
16742 6011 31509
17648 8915 31504
15769 9171 31512
20111 8070 31494
16503 6616 31510
5702 17389 27277
26982 17235 36963
39209 14716 38388
38587 16626 37564
36236 15107 38223
46566 14556 21347
82565 7841 17102
37490 22124 19673
1415 12594 6429
30495 17224 7537
8090 16279 15868
26285 23542 17395
32610 23128 13188
4572 7900 36243
34546 12441 26858
37498 8653 26899
32035 15662 27440
32811 14667 26962
84879 13383 14652
69455 2026 36327
48654 15574 35045
31034 22863 31239
47750 20240 5721
36842 9494 32737
38040 7957 30127
36907 9411 31893
37783 8287 26742
66112 16467 33846
61518 16859 34544
69913 16304 34046
66587 16545 34344
63359 16262 32163
60634 16940 34702
49419 15083 22957
49461 15095 27527
51092 11145 734
53362 10896 829
39407 22512 7920
6687 15432 10477
8672 16547 11314
22910 19213 16651
11458 18632 13302
25791 22603 22862
40274 8803 3438
50524 8509 3447
53299 11733 3536
42336 7741 3414
51952 9486 3475
50654 11077 3514
39666 7339 3399
43551 7549 3411
48392 12283 3542
75938 14878 1600
35128 16553 36242
38269 16425 35956
27570 18327 4249
46801 13995 27505
6272 19917 24601
4827 19857 24673
42464 10217 16488
26565 7491 689
11607 17456 3996
46256 12611 27440
53112 15014 7416
52132 14980 8812
57121 17160 36789
25523 18677 23851
1158 12398 19494
62523 11337 3384
15734 7191 5371
43801 11909 19943
38094 22383 32099
6634 11238 37728
19579 18653 10414
51066 13064 36372
53125 14248 36364
52092 11697 36362
51428 7815 36353
36766 7227 36435
48432 11649 36383
42743 7675 36402
55606 13409 36347
55187 12724 36348
37289 22735 9929
3482 15337 22742
40415 23026 9482
4040 17519 8364
18224 22579 15655
60195 16922 7060
58479 17288 5844
60405 17070 15296
61221 16761 10219
38404 8275 35604
52024 16312 24466
60785 20827 27091
12936 19661 15950
8319 15858 36038
19413 4162 23947
21051 4093 22209
20587 4114 16007
14129 4385 24710
16220 4296 26335
16035 4305 21764
20516 4117 17095
15809 4315 23692
38152 10393 16667
29518 4802 18597
84157 15219 14426
53984 16233 37207
7735 6991 15216
9621 6356 17446
9052 6548 13558
8528 6724 19547
10747 5978 9716
7167 7181 25591
2995 8584 19458
9193 6500 21015
6052 7556 16397
10075 6204 15097
7168 7181 14214
11413 5754 20415
84203 13185 31190
13202 19312 22221
54631 16854 22597
6114 7556 28102
4284 8158 23852
3144 8534 21349
46205 11940 30275
45124 21961 7566
23505 17200 5196
17053 16442 3944
20650 16701 4107
83639 15131 34209
9442 13724 1912
25623 22811 19669
85538 12102 31556
44180 5268 36609
2258 22967 12551
7151 7003 36764
9658 6242 34082
8799 6568 34121
70787 5519 3173
30579 22976 20721
48278 11364 39130
19006 3430 38281
33022 12465 25648
36638 5653 16949
42673 5554 17109
64629 6204 16841
59383 5663 17230
80946 8349 18281
80458 10441 24064
39667 22519 28029
27192 22423 7044
31086 19314 8071
50629 13591 16282
55186 14141 16285
48799 13028 16282
31509 16217 26118
11963 16000 26497
14430 25421 19619
62892 17459 30684
31625 10914 23950
1581 15581 12546
2574 15245 18113
20141 16313 36938
19195 16357 36628
27979 20765 28207
27456 22900 18338
72284 5099 5941
26116 9293 3644
59981 17974 27409
60571 5485 6747
61582 5687 5249
82159 8841 11268
55505 16754 2536
57028 6010 3309
20708 20885 17848
21428 20917 17374
54983 16756 36957
7834 5591 20233
8672 5568 24991
13016 5455 20792
7251 5606 16888
14218 5423 18074
14636 5414 12031
7365 5605 15348
11185 5504 13083
9669 5544 13279
12305 5474 18806
8188 5581 17708
1711 9756 4047
68758 7071 36734
26779 18689 2762
46076 10711 19873
43024 10625 19985
42185 10601 20858
29294 4829 35618
35049 7154 36384
40944 5974 35818
49488 7738 36316
29150 6601 36293
63147 7895 38292
45990 5283 3090
35747 10538 19302
51303 15497 13831
25779 23935 23724
19545 14301 39466
35812 7992 29715
35191 8836 27146
34238 10128 26963
35974 7773 31228
30578 15095 26079
36675 6822 25912
50812 20529 17578
46348 22216 16599
53112 19666 18363
14548 4479 18082
23807 13655 4452
23264 13673 3375
48507 14866 1422
46759 13828 1036
6736 8815 15198
63332 17668 16078
46694 4989 15755
52834 5140 12135
34788 4696 13536
35945 4724 11264
27858 4526 12000
44813 4942 16938
33939 4675 18688
34136 4680 9954
30199 4583 23919
33039 4653 15030
38648 4791 17510
28134 4532 13107
29833 4574 12020
49391 5055 9404
50902 5092 15116
36109 4728 23702
49697 5062 15094
53126 5147 10021
50241 5076 8552
37165 4754 21933
41560 4861 15902
47114 4999 14613
36001 4726 21253
26297 4487 29970
30540 4592 21329
36828 4746 10170
41374 4858 9399
32974 4651 17266
57486 5254 10348
26779 4499 24702
26916 4502 10989
30081 4580 18340
33962 4676 16850
43412 4908 9074
41300 4856 16655
48447 5032 8742
29600 4568 16236
36596 4740 13238
32732 4645 23880
43565 4912 11018
26168 4484 19260
1997 16171 24006
25446 19527 16003
53866 10571 38833
45430 9049 35057
15167 18411 5159
55937 14332 36753
8403 18438 9190
25400 19901 22351
25514 21739 21904
25404 19965 23740
25412 20104 16733
25400 19911 18066
25460 20869 23084
9944 18731 9181
56979 17039 18536
58314 17431 14017
58444 17433 16676
72092 666 1935
7113 18189 23959
57460 6918 2678
14938 18000 31684
13005 17385 9181
28226 22893 8927
15097 20242 30631
27769 24361 14818
30841 9661 16345
21504 11124 35248
35173 6450 3693
26952 7421 3160
42449 6589 3786
48332 6792 3827
36603 7646 3269
21817 5648 36496
15788 17215 11961
38095 14218 1086
40012 16171 1931
37245 15340 1568
3556 8151 34072
21459 13756 39921
24462 13454 34926
26674 22978 22383
33856 10181 17906
33316 11731 17906
5660 21175 30601
7194 19445 15807
46284 10737 22428
55749 16790 37219
38010 22937 30280
40648 8770 4155
55345 15154 1687
1313 12543 10122
4153 7959 8734
25347 22426 24546
83652 14153 5937
31237 17762 10936
47182 8731 33194
22229 13924 17102
21670 13899 21613
2607 16745 19696
66985 15806 2227
26311 17485 12225
27683 17075 12853
76168 7124 5817
2284 17661 26234
4074 17741 30137
2727 17682 28328
48582 15249 26771
48627 14913 24717
29451 16667 34654
26562 6645 34108
26521 6836 25603
26673 6090 36058
65803 7758 34179
12472 14798 2145
46562 15108 16574
16734 20002 24390
27781 23064 22665
21229 20796 14806
42581 8256 33809
26020 22843 10176
45330 22643 17417
37559 10464 17401
23482 19519 19485
35239 5307 2602
48279 21312 9506
53435 19439 11482
53813 16594 28924
22425 20402 18245
22452 19801 20707
69880 5323 3714
74986 9464 36718
53483 17217 2459
81076 15282 4011
14636 17783 12512
41278 23087 14751
42330 19380 35325
43884 6324 12609
54357 7826 18645
40185 7146 16993
35480 6793 15833
34525 5863 11460
32165 5752 11198
44273 7037 16000
35809 6170 12796
51840 7931 19441
32065 7494 19605
48806 7334 16913
28206 6192 13774
40246 6142 12153
46883 7402 17468
34280 5283 8694
27610 4419 5295
55750 8040 19519
32287 4879 6979
27653 6339 14545
49112 7423 17310
30648 7158 18152
36345 6940 16442
39691 7064 16659
30903 5244 8894
42846 6660 14350
50755 7705 18478
38835 5726 10308
68237 7206 8319
72641 7526 8483
65452 9149 8207
63912 6657 8159
63332 7826 8132
79793 12671 30397
69085 14978 15627
79050 12833 21004
75227 13656 16878
79757 12681 16495
65647 15719 11014
80300 12564 17308
76980 13280 12445
68289 15150 13208
70238 14730 15988
70044 14773 10599
76162 13454 22090
69152 14964 14720
71191 14525 15989
69985 14785 14482
79988 12631 20277
75417 13615 19648
74824 13742 22251
73613 14004 14638
67268 15370 13157
75271 13648 10398
78491 12954 13930
50829 20058 5927
39541 23195 18853
2729 16248 19603
66065 17281 19798
4947 17513 24003
38780 22750 8220
70620 14739 38146
50781 15313 34570
25424 24202 21415
37922 22610 18256
40036 22806 18421
67959 17118 32791
2225 17402 22997
19917 19497 25748
6105 10657 36814
23502 16922 35582
17418 20780 32378
70753 16927 13131
70871 16918 12347
31549 7101 38178
3485 17567 32070
1160 12404 15699
78664 14012 38061
80890 10616 16308
54459 17107 36825
8290 7552 16472
8295 7551 24473
48253 14196 14806
61848 14337 1640
52059 16642 7922
21920 6609 27984
11654 6754 28022
13548 16129 16093
47947 15728 21680
46430 11827 22428
61229 7526 37640
25949 10110 34870
28912 8309 1131
2756 17566 8509
58245 17704 23321
53588 19469 23114
21165 16744 1798
66011 17094 3081
1952 16967 24290
4209 7619 36350
32588 15081 38346
25974 19822 35296
28122 17503 24190
27495 17103 3502
4297 22284 27352
2361 23178 26333
3743 22540 26044
54071 16565 21462
41290 11328 39269
43008 11688 39295
71626 16856 7705
66927 17198 7414
11324 15696 2049
82226 8048 11957
34609 22711 14543
54876 5513 34626
54763 5681 36025
67048 2349 35779
49150 15147 2863
9766 16674 26020
72953 9304 1076
26724 4882 3702
31639 5977 2515
29356 22062 17589
3595 21875 27261
18132 6851 36225
3572 14175 24603
45876 13318 22813
17758 15031 38475
19687 16694 2676
36508 19056 4032
27902 19629 35073
32373 19484 35328
75598 18780 22009
65085 7256 6042
82330 7560 32790
3149 8593 30311
7209 7187 29346
23574 9597 38229
74231 16641 14125
75924 16490 12894
55664 16711 23404
57413 17159 23889
58417 17441 28116
78113 14919 37616
17768 19270 23654
18664 15039 23654
19115 4240 3583
3589 17557 29252
50274 5987 36634
85192 12963 12653
27584 25347 18431
57231 14659 17143
49530 16036 23040
55593 14951 22411
35366 22900 22603
6112 15109 12324
6809 15500 15254
2407 15868 7149
53541 16075 34776
44051 22331 10477
46854 11473 15550
7038 6556 17073
7087 6185 13980
23684 18233 30982
33906 22943 31127
1283 11766 3871
1787 15396 24005
3257 7458 30826
19743 19841 14157
68901 5618 22508
45097 4895 22391
84098 13197 6529
36084 23234 21750
33702 23170 13956
17437 20567 33048
2184 14770 23187
33521 21470 6628
31219 20077 5127
51709 20106 13162
58574 17567 15402
55234 18792 13415
30115 12610 17906
26020 8034 33565
25891 9554 33520
26382 7287 36009
30495 23104 24485
32439 23183 23471
28053 9729 302
10224 20116 25432
10259 14439 38561
83547 11455 3218
72400 16801 18996
21989 19668 33419
71745 7437 37682
13595 23667 17683
30428 13278 4817
32400 8784 4306
28468 19536 34937
25537 18756 28549
31847 10587 21877
50649 17528 9926
52404 16374 11806
51676 5537 3270
23776 14595 38618
27547 23838 28926
50832 14018 1303
63524 14388 1681
31795 14734 5666
14949 4234 38812
47546 18995 4197
68451 10318 38804
6579 15371 25950
14233 8263 900
7299 9566 1957
14302 13689 5159
15552 13743 3109
35295 13498 781
77401 11161 2102
39594 10983 21060
5866 7990 36895
66554 18282 27248
66249 17897 29203
46830 14478 18710
60458 17061 16155
61209 16840 17593
61834 16656 22433
61864 16647 26034
61835 16656 24157
63143 16273 12367
16214 14340 38816
53826 13523 38611
47091 13417 38780
12515 19546 27296
35605 22881 9202
53508 16061 23731
52357 16532 32518
45790 12818 22262
75871 16495 29982
28389 20308 21512
9379 16657 28367
14949 16900 9292
13615 12062 8287
11643 12035 8279
13097 6665 8284
13327 10672 8286
11613 9716 8278
13583 5774 8286
50583 15168 15059
52049 15671 6231
52407 15728 10907
30673 4905 37196
37051 23031 30354
50752 13027 23018
52705 14277 23016
51003 12427 23014
25793 22849 28997
9089 19552 15442
1779 9594 23500
12663 16800 10321
40919 12756 477
72081 9508 38816
31480 10169 20925
26680 23673 20035
2418 13091 3501
13125 11747 39350
16206 18413 6705
63914 17457 20827
12389 16867 4738
53509 17216 37355
51218 15389 31556
51307 15394 28426
53877 16185 32907
37183 18144 36494
40314 8096 25646
30718 14313 2376
35010 23228 23811
35449 23217 24703
28076 10250 350
28452 18056 5229
39073 22503 10731
8000 20573 28903
5483 21736 30396
8133 20512 25039
18065 17465 23967
27162 22931 17928
26698 17376 6765
25859 17627 6405
5858 17818 29856
7060 17870 30149
2262 21642 28549
36550 10785 16707
13469 17622 12080
13660 17619 13269
10452 17562 15436
4885 17473 17149
9657 17563 12870
81856 14523 35867
65705 17197 3744
80920 12438 2864
3878 17533 18869
49773 16805 12217
7181 8764 27606
11749 11682 35580
1255 9962 26897
31377 5140 37270
13941 8965 37821
58007 17983 26196
25646 21328 6074
2101 16899 15410
83563 15051 12384
40761 23048 29850
12923 23697 22033
20541 8093 3312
46282 13611 17650
67737 14066 37065
73573 13604 31548
66412 14025 36513
71292 13726 32980
70317 13727 32961
71220 16812 36298
25856 19070 35439
40282 8132 5674
27937 18841 5608
85347 12660 3774
40260 21620 32929
38546 22733 24351
9960 19785 8214
62087 17504 7597
65306 17318 11091
42258 22613 10034
42678 22690 14890
2050 23322 14421
3151 22813 15213
62117 21274 26020
39408 11089 22089
24111 15775 37697
6036 9728 2169
1775 15758 13458
67811 17150 22384
69940 16990 22770
14573 17438 26555
47623 11888 15391
85217 13009 15895
27709 15251 1686
14538 5415 20134
19948 5272 22376
13371 5445 22450
13391 5444 24471
16518 5363 18493
11970 5481 26032
9245 5553 26274
20617 5253 27957
17121 5347 17754
20005 5270 24213
17312 5341 16881
14212 5422 27957
42991 22538 23294
78956 7352 31014
78250 7215 31305
2484 20248 12552
45622 5212 36636
31756 14559 1367
23268 17984 29197
9275 14560 2633
33162 9067 4841
21806 15165 38410
51793 18302 36215
44166 8357 33583
42104 8096 33296
40986 7955 31433
40434 7886 32357
33096 12680 21877
12831 16808 27701
22222 21842 8077
17640 20637 8432
14754 8489 867
2917 17265 16287
69510 17014 29849
66939 17198 32048
13205 19685 23839
50147 15900 13831
2482 23122 24847
4448 22214 25694
22054 4583 3110
54388 16352 22555
53987 16219 25224
49388 16559 19795
26998 23612 10035
6185 7512 3222
26664 5257 16556
20757 687 5995
27477 23041 17573
13327 20005 28995
31204 18169 8998
24646 16953 37862
16403 13769 37684
17095 13739 36511
58078 17688 16427
43987 22336 11616
57616 15520 1903
27717 20556 11199
39757 7755 16255
40690 8553 16373
39154 6039 15998
38148 8036 16300
49712 7753 16236
85202 11163 23506
30839 17072 37067
1197 11904 5826
82281 11500 2817
56311 17251 36804
3876 17951 9213
14285 20330 32521
21071 16812 21444
65586 17311 14693
48780 14169 28859
48925 14551 34160
48538 13550 18453
48523 13419 26051
48269 12695 21954
1059 14950 27782
2710 14441 28285
14509 15951 37767
3723 13688 36510
31036 4880 5586
33157 5085 4047
19652 5938 903
25401 19834 29697
85266 11572 24147
14170 16866 30389
16734 17591 14710
56454 8051 3400
36376 9464 38958
14759 19772 30627
44253 4896 17549
34176 5351 17108
47003 5239 17377
14009 16859 11195
11967 18963 33356
38392 12049 20166
8622 13258 1720
27761 20468 5764
17949 8606 3312
65907 251 5412
8355 17926 27278
8529 17933 29084
5598 17805 25381
53910 7712 36530
57218 17290 3343
3299 19793 11491
1952 19737 12877
1373 19713 13018
50286 7434 37878
14215 5199 23545
63804 13293 35860
44750 22800 22551
67645 15548 37716
35550 7386 1963
21517 17721 32941
12127 17529 33022
7155 17374 33199
14748 17265 33789
15173 16761 35057
70755 18839 23887
45362 8307 24649
15591 3893 1075
12076 17387 26555
5045 14977 9195
56184 16888 10464
55684 16739 11748
56121 16872 12725
12390 13171 38908
46624 14650 32282
2613 8795 7371
2785 8746 5959
66358 10341 6114
3867 7685 3959
8730 15280 36528
68337 18846 15773
35415 10177 16649
33639 8864 16456
19467 18309 23654
20619 20521 23654
74197 16602 5447
60273 10126 1148
74322 16626 9966
68443 17092 10042
14692 16237 23987
62950 18611 15815
52535 19517 5266
25207 17640 36662
6737 17500 23959
13141 19997 10878
48215 14924 29919
71333 10072 8439
65378 13219 8201
69038 12669 8357
68160 12346 8317
1646 15257 14147
29653 9237 15785
4644 21746 27266
20443 21264 32591
43560 23112 16486
58152 6701 2886
21255 7126 1763
80481 10342 18975
80454 10460 19828
7371 7563 11568
43912 22351 7949
75421 17235 20646
68203 17472 18341
74362 17270 15891
71110 17377 20529
74980 17250 15345
69253 17437 16760
75897 17219 22148
42475 8141 28515
38725 7673 30796
39306 7745 32345
26037 22847 21245
21164 5711 3075
2906 17523 20682
21227 16803 23967
1262 10756 31857
83793 14494 35006
25181 12017 37149
25260 12667 34911
8196 17919 15645
7105 17872 10922
75410 19380 23699
48399 13480 30605
46476 21875 7910
1206 15424 15802
74725 16257 16857
76007 16257 19335
72109 16257 17250
75582 16257 23234
67768 16257 15195
70333 16257 15963
73963 16257 20599
54864 16792 27994
35474 22903 28221
7963 13994 2656
43056 7511 37590
26776 16668 2400
207 17256 9221
47474 7514 3391
46692 7663 1760
30298 22769 30486
33554 16694 37543
34623 21041 6159
51766 12427 36520
10503 19470 21997
10952 19506 24679
19247 17100 15653
59000 6509 11572
49138 5189 6319
57354 5704 7794
56671 5218 5473
60721 7463 16073
58929 7108 14554
42619 5976 11068
53476 5043 5025
52519 6764 13682
57862 6448 11414
57852 5627 7349
59687 7456 16172
52166 7066 15225
50324 6625 13278
39298 5224 7777
53105 5611 7892
37125 4813 6024
59741 6947 13649
44359 5086 6433
43237 6088 11545
55800 7413 16469
35827 4685 5557
54384 5331 6336
58490 7809 18081
54815 5964 9417
43009 5511 8712
58410 5137 4846
27817 23103 26257
29702 5709 2676
68396 17033 34018
4250 16202 12535
4451 17241 12538
62504 17502 29712
14731 19974 19841
14970 17741 13253
43582 22909 13096
26652 24360 20311
41216 7984 9574
40774 7928 12082
40154 7851 10352
39061 7715 13041
32234 23277 19367
30492 22976 15041
33042 23081 16552
25853 22317 8053
10259 11150 38677
66973 20807 17008
30880 9744 24595
30780 9849 13666
32623 7660 9150
32148 8225 11331
31458 9043 12052
30618 10033 8997
32410 7917 12444
68288 8778 3247
43058 23100 25043
31671 13659 7247
31954 13233 10835
34539 9735 6868
30807 14802 10939
67699 7340 3449
67839 16888 25074
73523 17463 25074
41968 23332 20900
70628 13319 31377
72214 9886 31332
68867 10721 31472
70366 11661 31400
81067 9751 36238
51677 11686 682
48887 16926 19742
25529 12242 4799
64910 14728 38107
34530 8344 3044
8146 12329 1597
48559 12591 24303
10857 17438 35570
55530 17490 3079
18584 20477 13871
22129 15298 39260
28680 6815 38285
25666 10661 7369
26166 7741 5201
25905 9604 6101
35189 12325 34710
15569 19905 15447
23278 15692 37967
28416 16870 4327
14257 21551 20996
72355 16803 13881
6657 14555 36775
27483 23927 26472
57660 15285 37997
71420 13838 3073
24614 21795 16348
43588 4578 21496
33462 4329 19887
54158 4840 21034
36357 4401 19124
31742 4288 17993
33991 4343 19065
40118 4494 20188
34279 4349 20825
77062 11734 1985
25331 21780 13940
25265 19020 8174
71263 17872 22354
9671 16670 14600
27384 20394 26428
15925 18852 19256
2242 16861 11994
5238 18193 30602
4401 14994 30610
71587 9195 33709
66526 3653 2306
62091 17610 18753
1847 20215 30587
5280 15680 29497
4304 14243 27293
43703 7494 1680
18959 19580 13333
83978 13196 15886
44908 11717 22076
26020 17417 34621
25463 17166 35293
6692 19935 25801
3735 19811 24601
6123 19911 28813
85553 11466 28787
81979 15905 31542
31176 16622 7903
48589 14762 38419
49948 15443 38161
5139 8817 37331
29720 13505 7649
30012 12483 6681
30033 13380 5751
29316 22790 9984
82517 9746 33136
31723 22628 31481
62529 11605 4174
23028 1201 1483
30168 20203 5441
35172 12439 14682
41590 16706 37501
11784 19808 7430
83726 14686 12975
2123 14495 10471
22250 18768 15942
49299 15134 20780
27220 20736 28489
59062 5755 35699
59965 5808 35952
4227 17504 21047
48362 16801 29175
48531 15657 34031
1972 13816 13011
85484 11058 5762
1194 10287 21546
45590 22002 31776
75219 8225 36048
74543 10881 33054
19542 17410 32495
7622 15551 3417
36236 13475 885
35389 14871 1480
72639 16779 24099
44726 8256 23432
51918 6936 23660
40759 8237 23426
42128 8079 23455
42837 8235 23431
48894 7773 23518
68527 4904 3143
9439 20246 11029
25744 22498 10515
15890 15713 37567
18167 9823 5869
79780 16089 9778
5972 16698 26692
68851 3539 3667
69425 1523 1109
47220 14449 21168
83629 15776 24735
26441 7239 15872
26456 7172 10144
34555 23056 26168
34033 23112 22872
45524 14319 17416
62098 9595 3377
51763 17456 2951
27327 23029 22432
30449 15896 1842
4254 17107 24003
2172 14703 33352
29422 23183 20502
760 19133 9221
72746 2451 988
28064 18821 12823
65907 17657 9356
35181 23031 9804
80351 12559 28118
80997 14414 21640
80565 13172 27566
81177 14929 20878
49613 16170 1917
16480 20314 8387
2255 15092 9872
54452 18883 33543
65695 5697 36804
81996 8982 30652
46848 7665 9129
38737 5781 2892
46761 5840 3135
54181 16313 17260
29884 19277 30907
62641 12026 7648
61935 6294 5667
38952 16197 2059
40400 15543 1779
44608 16000 1984
18965 19370 26892
30456 4750 2782
46096 21463 32653
46427 6313 33574
43026 9170 38761
36258 22984 29286
19941 7896 1528
2905 17448 30592
15740 18315 11792
2254 8864 14645
5006 7928 12953
3308 8479 18209
42766 20382 5574
49723 19075 4324
43135 19833 4987
2499 14345 21532
8783 20351 27491
80634 11308 38338
11345 5725 35162
35072 5877 37110
24685 19209 9858
53587 16121 2966
84546 11502 5916
56882 8377 28145
57745 11122 31653
57967 11829 16545
57177 9315 27683
58321 12953 35846
58244 12707 34153
58141 12381 19984
58378 13134 15092
57412 10062 25915
58328 12975 26409
58174 12488 27288
13648 21954 21236
74917 9671 2985
59692 17064 31498
57739 17401 36159
61307 16692 31488
59878 16951 34410
60572 16897 30006
31112 9134 16131
13269 20002 29502
18984 16290 2559
26847 22992 18546
32159 15504 8775
34198 12887 9985
33657 13581 13165
73601 6506 986
37900 16707 2316
60710 10404 38944
61224 13257 1123
55363 16622 27348
56750 17003 32305
55006 16514 30945
4393 8561 3127
9169 19259 30627
49134 14992 13396
55436 17890 36427
65306 21323 17457
21555 20596 33421
27043 22849 12305
56073 15181 3363
27255 25881 20044
8141 17917 12616
6619 17851 11833
13876 15236 37580
68107 6971 36359
9095 16678 3913
13047 4433 17609
15385 4335 13437
16059 4305 19428
11483 4500 14780
11463 4499 19516
10888 4523 22203
10988 4521 15378
13512 4413 20067
12873 4441 13767
77591 14410 36837
67270 7398 36157
32780 22695 13622
63350 17331 36273
76143 14996 2937
29823 19127 9384
35659 17016 37221
80455 16062 21709
27469 18411 15945
39805 23166 12022
73345 18253 13661
18334 22447 23505
6742 8793 23569
13343 16109 14881
70886 7272 36378
74509 13808 30803
71551 14446 26149
66479 15538 23898
77899 13078 30590
63713 16133 30128
65138 15826 28421
64357 15996 17409
72942 14146 29280
69377 14914 23443
63581 16161 31337
65754 15695 20070
65785 15689 16288
65208 15813 16126
70577 14656 21638
67010 15423 29750
64194 16030 21233
66533 15526 27012
66225 15592 31447
72452 14252 25053
63507 16179 13600
68584 15085 25166
66005 15640 23546
5422 14996 12523
23089 22030 31263
11884 10660 2460
19012 20546 8819
77548 16347 9442
69258 6411 3577
47694 21584 28432
48734 21194 28451
49781 15085 13954
46720 8677 7012
46698 8671 10341
46781 8680 12396
44996 8459 8819
46896 21999 16262
53259 19599 17350
55824 18622 16641
26389 20560 33474
26128 20803 33031
75920 16406 36132
54079 17079 29352
10906 17815 25913
67285 13939 4318
71012 13883 4896
71072 13813 5762
69223 13937 4277
82024 9023 9442
70914 18546 16794
889 17603 30314
81675 8396 34223
71147 4897 3449
67669 2089 38320
24257 16661 38020
18135 18511 13809
29622 23017 28230
40190 12715 20125
35763 5842 6051
38085 20294 34415
28430 14327 1151
79431 14403 36410
16747 20003 16314
75416 17696 24845
37268 6906 34887
36831 9075 35153
4763 14351 14345
4167 8165 9392
3829 14096 9708
2341 14555 11379
47336 8843 38556
16292 20183 30862
82745 7575 9163
48565 15442 20824
48956 15401 19617
49723 15322 18495
40524 18862 3936
15754 17958 28546
2405 17759 12551
14913 18127 27296
7354 18863 12527
40350 8493 38605
37664 9020 38812
29800 15250 4232
62840 6987 5482
69266 429 6122
69766 4910 36097
41275 13955 1129
31257 17519 30634
26419 16016 1979
49650 15935 37985
1565 21614 13497
5333 6797 30411
5281 15682 12918
5472 15963 11204
6048 16809 12196
15204 20087 29095
4818 22043 10905
7236 20927 10568
17145 16558 36877
56950 17986 7972
55131 18656 7588
58531 17452 9536
51364 20149 9438
13954 20566 18584
73262 18089 26883
25304 21009 24882
10088 5250 12922
14563 5748 12526
39585 13631 38834
43548 15361 38099
6182 17671 5769
5349 16773 5356
26967 22973 14307
15432 16921 27447
60688 17604 8324
26606 22857 24931
25567 21806 9951
25211 17992 30467
36474 13726 38817
5742 7726 30594
345 15738 12552
21965 19937 5909
10697 10057 38957
12392 27366 20710
11428 20915 18733
28802 16364 4163
6843 18463 32953
27814 22908 20674
27318 22896 19367
52554 15724 29273
52190 5637 3527
53205 5634 3794
22054 17125 14367
2707 14820 15805
10497 16730 25546
40411 22922 12235
40496 22922 10403
592 17592 9629
6672 16130 35475
35497 12186 312
1336 15244 26485
34265 22897 9721
54167 5276 36996
37806 6100 27566
45389 6332 5182
45797 6342 13554
34738 6010 17751
44014 6286 21071
47854 6406 5282
46740 6371 7395
36944 6078 8511
39520 6156 6277
51549 6516 7637
36734 6069 21428
34557 6002 32453
36397 6057 32811
35537 6031 32642
41180 6205 8869
36373 6059 20381
36389 6059 22613
38672 6130 6949
43236 6267 6582
34356 5996 25148
48074 6413 3964
41827 6223 14987
41578 6215 18158
42733 6249 22726
46682 6370 5705
40987 6200 6000
40918 6194 25295
39906 6166 13730
34260 5998 8604
38049 6110 16268
54725 6611 5530
39917 6163 26659
45402 6330 17236
35965 6048 11579
36251 6058 6814
48896 6436 6505
54095 6593 5220
19149 23185 24495
73115 14800 32545
80334 14480 33616
77002 14827 33291
70772 15648 32830
28940 17520 20335
34609 12775 5753
42296 14456 38586
46142 15567 38092
70437 14683 6171
68883 15017 6076
67600 15299 7754
60482 16823 5531
10248 18389 34471
34370 4981 36665
67315 17187 20408
85775 12093 23374
29677 19115 4371
29384 16089 32030
29342 13911 30078
29784 12878 31937
29919 12323 32316
54384 9650 1119
85190 11047 17497
46799 21977 25981
53000 19640 25454
52186 19958 25100
48663 17441 32131
15482 18416 29790
31414 22967 26893
43119 10519 16367
31218 14992 33967
31316 14093 12166
35100 8959 13102
34168 10224 8783
35934 7827 8272
32552 12416 12454
51934 20127 20994
52294 19970 21868
46196 22312 21409
54243 18962 6214
26474 14144 38601
53379 19146 34917
35607 16862 36231
47389 16755 36759
6143 20202 9207
75446 16541 18631
2186 14603 27538
1233 14897 28673
32155 22580 9947
81090 7717 17141
26732 16468 22463
83706 15612 22868
35003 10541 14314
32141 15890 14417
44869 10766 627
12597 18266 6551
65482 13888 36340
81823 15984 25915
9738 7521 11172
10905 11143 10306
15825 10767 10400
42093 6764 36038
5626 16017 27282
15708 19154 28510
38866 22921 25222
57276 8628 38248
22788 4251 978
49854 15979 16749
26278 8485 1543
43635 23018 27099
43079 23025 11258
77717 7078 22612
80247 7556 17043
80672 7637 22565
75624 6681 14903
76505 6847 23617
76105 6772 17144
75332 6626 24424
77418 7021 26894
60216 17032 3896
74828 13966 6581
72938 14778 5862
71361 15141 5544
70685 16214 4587
13963 20033 27210
18268 18053 29777
83790 10296 33363
69126 17442 15804
23338 19801 24064
34377 23207 18769
8800 13495 1246
40134 23150 23486
19040 18393 25364
33791 15687 38095
47973 15489 16633
46243 10997 22040
47432 14083 18519
14520 19052 13253
54642 16189 36280
26850 23114 30235
57142 9203 16210
57477 10270 15388
58082 12195 8869
56835 8227 16978
57516 10395 17627
57039 8877 9578
56352 6692 28831
56771 8025 26627
56869 8337 19458
57036 8867 4654
57530 10438 13173
56509 7191 22466
29165 10183 20097
30082 10177 20086
41040 23122 16175
37530 8663 1057
35713 10507 16911
14260 16913 12512
78604 8595 36432
3068 17299 9215
13007 18738 13253
35752 11268 20138
33012 23079 10949
1023 11628 25805
27884 23072 16800
83498 10125 8827
4673 19851 15275
7224 19957 14837
7592 19973 11991
30047 22945 25882
85447 10935 25413
8444 17519 34779
35962 22779 28056
21895 7835 2096
19470 17224 5637
47540 15987 37928
54026 15045 11867
51365 14953 12749
47860 14774 20609
16432 16390 23194
16269 16377 22329
14984 16674 4627
18510 17465 6338
9096 17269 6259
7239 17339 6496
77017 16405 8454
76869 16407 11180
42003 22638 11609
2135 8317 12426
25966 13896 543
41034 23179 26125
37931 11826 18802
72444 13303 2305
37233 23137 22112
42459 23160 21592
25183 20438 34837
10514 22278 19683
44024 11048 22836
27081 18348 2886
22317 6700 3312
31200 18733 3835
58044 6161 4264
59665 7778 3682
56042 6181 4216
60985 7289 3894
46339 6021 4081
59393 6949 3991
8732 15354 37727
1797 9651 30595
26442 17669 3094
21947 9790 31486
21695 10277 31487
20219 10976 31493
16855 11149 31507
22109 12660 31484
22571 11940 31482
16497 12081 31508
57776 18055 11577
43469 22997 29473
51285 16586 20766
52904 16046 7102
34468 4948 2693
14372 4996 26850
22925 1228 38752
37476 22187 32349
36126 5713 25178
85723 12572 14245
38125 23265 15764
34159 23130 11628
40436 5450 37286
67047 6685 36734
2340 16834 28082
19524 22958 19657
204 17333 24007
2246 13742 22935
65086 5159 5079
35017 11883 33405
14390 18118 4518
25444 18453 36361
2356 20054 9221
47291 17537 29627
19623 5023 14094
19740 5013 10244
13380 5549 11118
13994 5497 26177
14437 5460 24612
20127 4980 15051
14659 5441 22821
19863 5001 8987
18140 5148 8550
14097 5488 9214
18884 5085 14051
20397 4958 17081
19261 5053 17330
14863 5424 19195
12213 5647 29105
19102 5067 18306
21793 16897 37708
64162 5563 17073
64375 5583 16396
71659 6261 8727
67774 5900 18469
64316 5578 15890
70277 6133 15066
62071 5369 9015
64532 5598 14272
64949 5637 20763
62877 5444 18293
69107 6024 9362
66776 5806 8314
68682 5984 13721
72654 6353 8956
66104 5744 12198
41310 23168 17652
80520 13072 8962
80700 13617 10418
23144 18264 16232
67402 4870 2162
54476 15151 18229
55389 14988 17253
49858 15978 21501
75646 6751 31819
65736 5092 36378
51345 12089 3276
49004 14827 30217
48727 14084 21790
48577 13699 4527
48761 14198 7380
54847 16562 20406
6802 14469 2845
17275 16340 37634
17432 6015 28405
10688 9413 29119
9204 6382 28377
13110 7318 28654
29856 18783 29454
33206 10336 16363
1302 12547 21663
52062 16401 34846
54268 16067 32386
36494 23065 27432
24970 19584 19982
17727 19576 5871
52719 16745 37125
77822 16293 33650
50347 16726 21523
30496 21919 32730
33261 8158 5140
82396 8743 24802
46344 11266 18979
46804 12351 17792
42257 22670 29664
46263 5944 23096
33717 5435 22886
34101 4502 22270
37495 4955 22534
75595 15126 1209
11453 8688 36079
31688 23042 10896
82529 9593 24091
38518 11645 20595
73193 4881 1034
15110 21047 18148
54931 16494 33319
29831 10546 22739
32701 10529 20208
46171 13717 22024
44823 9385 16496
49965 8525 16362
11621 13182 6641
44462 16891 2422
85504 12964 5916
28645 22020 32625
30207 9428 23741
63596 13025 3476
71316 15991 2672
11383 10894 5526
26376 22631 8647
71607 16866 19766
78306 7798 36030
77149 7581 36183
25977 17927 37323
31536 22835 14525
35453 8918 956
49260 10059 832
18403 13720 6613
23509 13790 6397
21322 13816 1414
17909 13712 6726
18772 13770 2465
19398 13747 5351
22671 13797 4704
36971 8793 24865
35613 9580 25276
80292 10888 2793
21301 4881 27501
25160 4556 28383
23067 4733 23932
18519 5116 21071
22816 4754 30223
16361 5297 27055
23528 4694 27249
20701 4932 23995
23581 4689 30240
24660 4598 16138
20783 4925 25016
24262 4632 29527
21590 4857 29165
25746 4507 12035
18135 5148 30779
20073 4985 20640
2355 21540 12552
46017 7512 36786
39701 7356 37054
19525 6116 12187
22113 5328 12564
40540 22865 17193
36287 22880 15210
37328 22889 15318
3177 15774 9207
48959 16039 20099
69795 3301 36170
14836 5488 33946
6646 9755 38210
70709 4483 36157
2663 20327 24007
24465 17592 28009
20242 20889 9059
82260 7890 27398
40894 23017 11283
27384 22891 26375
8079 11854 979
57659 10327 38706
39817 5022 36992
32929 22701 28353
39357 7383 14749
81750 8777 10654
67353 17155 7099
37360 6739 4961
35924 9396 5021
13094 16283 36548
14581 24749 19713
84669 10620 8977
36634 11175 18742
28024 24410 19669
79368 7410 28690
81669 7836 25275
85253 11987 4039
75005 16556 35492
21804 3323 38733
32251 10028 35844
33137 8191 36275
33968 22596 31567
2113 20086 15801
78933 16183 29357
43779 8375 1284
82293 7864 10033
80455 16058 23835
902 16908 30587
5305 17795 9514
3146 17702 14283
3663 17724 13091
7674 15987 26071
7028 15624 29223
10660 18948 33524
49637 19673 34819
8548 16478 28890
8266 16319 24877
11173 19968 9263
16259 2571 38746
7531 18992 15068
6288 17162 13024
7347 18721 11941
57424 14447 36330
57202 12043 36347
5918 16619 14593
7000 18211 14482
16377 14957 1622
26696 22626 19756
38382 10495 20566
32388 10531 21818
37186 10502 21981
8202 19284 15984
4654 19001 18371
48685 14892 13651
68069 8010 3067
28456 16282 19175
29401 13239 11724
28577 15875 20742
28815 15137 14961
18888 16729 35650
20775 21511 17665
19406 13801 19304
70926 7861 3397
25270 19228 31923
46539 6676 13047
85296 12199 11413
35228 22807 8554
37385 22561 14943
61958 8259 13503
61903 7792 10244
61776 6713 6029
27381 5364 21035
46915 14853 29643
52543 11439 16589
57528 12698 16558
48282 10295 16610
56094 12048 16540
49997 11616 16682
44038 22819 24416
20865 5784 38553
50930 5281 33427
53703 5172 31767
31934 4760 32781
28237 4546 31598
42135 5006 32807
51558 5286 33330
38148 5013 33777
43661 5188 34183
17809 15698 21999
17822 15386 20703
17884 13951 17026
26537 11245 267
26755 5775 23346
25273 21165 33706
81983 7792 32272
83274 15803 12264
40833 6586 5012
39242 12065 19470
210 17579 26399
29984 17434 10970
38555 23191 16978
33699 23078 15482
70002 3224 37811
41294 6651 34656
40774 6360 34545
72694 13554 35128
19394 3144 3312
42202 22795 31389
12792 13497 34439
13365 13423 35711
7980 19843 15808
3831 17742 15803
8558 6843 20207
9179 5198 19370
20642 18074 10458
52417 16739 37659
18889 17594 13871
2955 17582 33342
17700 17745 25748
51457 19975 5804
81213 8112 4898
59419 17351 3110
41894 20112 34548
44539 20083 34515
22082 18520 17804
26094 22929 18085
6905 16876 12522
19108 19303 32495
1986 21631 15231
15073 6127 11417
18197 8730 10840
20189 8991 10759
18588 5327 11535
35606 6057 25544
79324 7393 11924
81707 7855 13348
12955 16077 22468
66696 7792 3430
52134 18260 2036
5137 18105 6454
0 17572 27216
47490 5394 2749
75241 14197 37419
3609 14163 14568
2793 14415 12554
28530 11237 431
68421 5728 3449
20275 2322 3819
47762 13132 14367
15841 14883 889
34952 23165 27012
36615 23222 25255
76679 16425 26044
74376 16625 27592
45241 8473 15015
67551 17068 34976
71596 16847 33535
27682 19982 25580
78702 16228 26769
16624 3741 36496
49820 15096 8768
25553 22435 16142
81265 7855 6237
79349 7456 7146
48285 14607 23153
53857 14210 23144
50440 14349 23149
5416 10143 2870
5431 15902 26574
5184 15540 28702
4240 14152 28445
41665 15035 38364
82576 15732 34439
2079 20740 27256
45245 22536 27963
45937 6345 27404
46801 6371 30830
51715 6520 32785
54654 6609 22299
51815 6523 28388
39860 6161 30327
54491 6604 23777
55430 6632 26020
42019 6227 24748
55927 6647 11514
38742 6127 33144
45029 6317 33977
56076 6651 15205
48659 6428 34657
55602 6638 30162
46970 6377 24157
47077 6380 20528
50648 6488 15378
38313 6115 32667
55096 6622 10661
47495 6392 27168
44112 6290 36122
44818 6311 22653
47481 6392 34513
46282 6356 23752
45471 6331 29314
54622 6607 21325
54453 6603 17839
47152 6382 30405
51395 6511 21119
53489 6574 16589
55965 6649 22901
48007 6407 31256
45568 6334 33406
53968 6588 22361
51021 6499 26359
42931 6254 36461
48985 6438 29021
27271 19552 26562
25853 22890 12281
27127 24361 23844
69474 6961 31442
63246 6647 31674
63712 10849 31672
64812 7681 31619
64681 8557 31627
41496 10350 16468
2500 21651 10756
3018 21671 10640
66809 8661 35353
44672 9449 23236
47728 8910 23329
48682 13810 35370
38277 23377 21718
37504 5798 36970
74011 14866 38173
10747 20037 30064
85572 12141 9470
7500 18610 6877
53231 19389 31826
56100 18282 32448
56516 18265 28934
1077 17609 9830
11820 19587 31385
25231 18154 25515
25245 18710 27892
25288 20373 25050
25314 21354 16547
25241 18547 30464
26344 21553 6757
11684 19933 12663
16747 16416 17003
1725 21621 28261
60753 11889 38892
83846 11456 9229
20752 16760 25469
37489 10845 21256
15570 20103 10778
11611 19084 18660
61568 7298 2327
15591 22438 18955
40039 23366 21034
49493 16010 10955
49187 7720 1828
68418 3981 38505
11495 7224 4586
11368 10798 6239
39693 19639 4704
39250 20812 5981
75879 18251 24845
65390 1163 1030
29602 18530 36106
41197 19461 4541
25519 18654 14591
4505 14206 29992
39509 10603 16340
33570 9256 23219
33784 9677 23149
29989 9845 23080
24424 23534 22554
72964 17780 21017
72785 16747 6409
53560 14929 21664
57107 14564 20600
57132 14564 18455
57447 14527 22894
4184 15724 35425
37646 22927 26863
29812 16735 37231
72726 16769 27993
9694 17938 30627
74443 11205 7327
75345 7287 4056
84094 13190 12074
69051 1611 6042
78439 16267 21038
16268 17733 25740
33377 10202 36773
31850 12689 36646
5650 16740 34978
662 16124 24007
84613 11237 29985
65590 6626 3411
47364 13902 20134
47913 15317 22923
10994 19363 32906
1642 9638 19567
46698 14577 20652
19015 172 5967
35650 11024 9311
37276 8937 11302
37617 8500 11644
35846 10772 6929
36877 23247 17469
83649 14578 7163
25243 22716 26936
13373 20007 12919
81713 16001 19557
8304 18248 24006
37494 5168 35460
36286 5144 35527
34009 4923 33891
28856 17140 2514
11411 9501 34931
11426 9137 34588
11450 8361 35488
32947 23170 17046
5582 19889 13548
2747 19770 14038
17584 19998 21822
15448 9706 5992
2154 21638 24970
63351 2811 38603
81010 15037 33724
81071 15299 34337
81212 15158 25037
13848 19746 22696
27935 9453 39500
36152 11212 4804
71908 6585 36378
83644 10112 15848
72823 13694 33636
26654 17545 19332
10935 20006 10621
67009 17134 5784
64393 17902 20824
46488 11978 17630
46852 12910 19160
38647 11887 21141
19402 7648 28773
15958 9249 29106
13512 10741 29417
21074 8183 28883
8994 17071 27296
20660 14020 0
19504 9256 2418
39594 11404 20395
62884 17537 15932
27049 20690 5432
61119 7105 2558
21215 8052 36719
10801 15908 21824
10719 15901 19304
6233 7513 32904
28625 16793 37532
9798 18149 14929
30179 10684 28255
30100 10942 27033
29255 13675 21524
28808 15114 24066
30197 10632 24052
29609 12544 14315
29106 14149 25508
28686 15511 21853
29819 11871 11690
13483 18753 17527
1857 16304 29486
27818 21007 32334
3368 16817 30597
6193 18495 9202
61935 8560 38275
27452 20991 16539
28201 18162 3579
57673 17877 26663
56341 18363 27688
55814 18587 25298
53163 19555 27330
31400 22995 21378
33338 23043 20952
68099 17118 28916
5850 17988 33779
4080 15475 15868
9232 17556 8287
5143 17489 10778
18185 17702 7778
10945 17584 11152
13839 17631 10301
7507 17528 9314
21559 17758 7055
12500 17609 8682
45938 14062 3589
31962 15631 3622
42630 14769 3606
30676 15366 3614
33031 13448 3561
47854 14943 3614
45316 16146 3647
35960 15026 3609
39011 10802 3492
37482 14159 3585
52232 15878 3644
40310 16449 3652
33115 11484 3507
51809 15625 3636
5025 20870 24004
45553 13702 18441
12150 17474 5607
83775 10218 13119
69644 7498 36359
9261 18960 24500
1477 9764 27838
83836 13300 29862
63222 12693 36388
1718 21620 25403
7851 20642 11166
6745 21153 9813
6709 21170 10888
85628 12609 27009
32333 22302 20040
28674 19545 4687
26969 18744 35642
11040 18662 27296
3724 21808 15802
16953 18559 5192
2199 17661 15163
1182 19122 30587
32617 9723 5323
71640 18399 14963
16401 17244 34307
19123 19208 5544
44066 17689 36854
42539 17343 37146
39412 23197 13062
71850 14922 37950
82523 9580 18624
34521 17432 2726
26788 5521 17373
17098 10278 869
20262 6960 36244
56672 16515 2952
6935 15861 30620
14503 4309 17053
54112 16254 8113
53780 16147 9560
53277 15991 16829
85340 11283 4894
3452 18437 23623
25018 22424 15261
15918 7580 35754
25604 22515 29711
24607 16766 1789
25351 22794 19082
38433 22936 22559
33550 23315 21461
66616 17229 26864
26846 19716 35487
9310 10644 1337
12843 19062 9181
99 19659 30181
2438 19757 30427
622 19681 30537
14104 25765 19273
35843 10919 26073
40341 10548 19756
42463 10609 18738
38033 23132 14453
84115 12426 10724
6212 7411 36702
5279 10256 38084
25378 4430 23127
26074 4527 20537
22600 4045 21765
26453 4579 21157
27156 4677 20039
40039 20912 6105
48776 16977 2351
81175 12604 2418
23112 17537 9972
82812 14903 10720
10702 16715 13358
19453 21137 14328
6982 18184 24718
8290 20109 27656
25597 14730 38271
57132 4915 19104
67488 5171 20108
59028 4962 19740
44956 4614 19078
48924 4713 18443
44247 4597 18714
43987 4591 18274
46804 4660 18265
60707 5003 20192
1549 13234 23343
73100 17254 9080
33452 7438 5498
7287 7112 5332
9670 6291 6513
5480 7771 11948
3262 8546 10598
2762 8724 9914
30795 22936 12186
22315 14933 1222
25352 21252 9714
5364 19879 29357
739 19686 29024
85705 11453 20645
13692 20057 7737
6498 15722 15805
7615 17893 24152
4832 17771 26111
61291 17289 36895
51800 16836 32525
51377 16884 30048
17540 19296 32432
48840 17173 32619
50449 17001 25985
26196 17977 33969
26816 19611 34112
69927 11417 34402
2629 21656 15325
2282 15234 23463
74773 6551 22148
69415 6052 30537
71269 6225 24059
72597 6349 13357
72743 6361 25963
70314 6136 26104
71922 6286 25448
71935 6286 24930
65250 5665 31110
73127 6398 15801
70531 6156 24296
73848 6465 30557
69956 6102 22241
73928 6473 22359
75033 6575 27124
72655 6353 29942
13815 15966 37689
11085 16112 37292
2699 18276 27257
3478 10715 2835
18215 16088 1837
30838 23024 28848
67619 18720 17751
62665 17342 4507
70638 8128 36401
49320 16746 2927
45531 16783 2976
25730 25815 20366
57763 17815 6834
61817 7062 32454
61773 6680 31288
61884 7621 26642
27763 19059 22917
39076 22792 12912
19900 18667 12516
38692 11953 19070
58813 14232 38333
5591 7386 36821
26629 24353 21089
17960 20765 22719
16395 7706 3312
22300 21263 10269
14662 5946 5909
18004 18150 26080
78156 13169 1081
17233 10510 8302
12895 12913 8284
21045 11181 8319
21667 13429 8322
21485 12574 8321
23274 9200 8328
12434 13182 8282
14668 13660 3415
76698 16084 36246
33748 6328 22182
32360 7985 30281
33686 6399 12886
33026 7191 34576
31458 9059 25547
32927 7309 30384
33286 6876 15104
33080 7123 15848
31044 9554 29142
32329 8021 29562
33992 6039 28478
65022 9073 38823
33038 8580 1072
30978 16490 29590
28785 13142 18888
70791 11176 34413
45437 6363 25420
42632 6780 25184
23494 13274 119
27532 23047 19766
37409 12031 19298
55987 18254 5689
16975 19823 28556
67065 17201 15064
68212 5626 2705
21697 3714 3312
85132 12953 28832
17722 13696 31849
16940 13688 32064
18460 13766 37270
14555 13665 32832
21839 13820 38180
18801 13729 33539
85399 11088 30093
9987 16420 3561
18790 18619 15653
15060 19121 26555
14575 17752 6231
2167 14608 15124
5191 20298 9211
4624 20139 9214
27440 24389 18789
23309 19760 14143
33752 8594 38691
26275 23517 31487
32409 22855 26009
78175 16269 28939
20669 17629 12566
28776 9270 38907
75077 8976 3501
25415 19994 10220
25556 21880 11756
4661 8089 32441
8641 6716 32293
72058 6759 4878
10059 19261 25189
66951 6969 3657
30691 22014 21611
78519 16253 16636
77247 10836 38885
74619 17599 15058
69764 9025 34381
10607 20045 12512
83856 15754 20040
10077 4353 21873
85270 10809 7399
37425 9325 14396
69018 3064 1872
54674 16509 22035
22290 4221 1839
85477 12857 10315
1801 15924 9491
46291 10969 16712
56064 13803 16684
49406 13643 16693
32154 11166 23883
13095 16203 13333
26105 9321 38230
33606 20961 33732
2112 16833 33302
11048 18630 30627
40150 5479 36618
45803 7240 37852
70428 16950 26464
70259 16963 25985
32776 16655 35722
38841 15148 35986
47114 15122 36206
37730 10439 36281
40750 16196 35964
34747 8191 36357
46434 14744 36214
51271 16396 36227
45258 12978 36305
34396 12293 36065
36746 11760 36164
41686 12725 36228
36328 10635 36230
30784 13581 39006
39776 8614 4365
15314 19646 5128
12720 16803 27243
75844 6722 30186
48134 15589 23311
19769 2876 36496
4780 22061 14004
5935 21528 14425
8178 14492 2555
26812 17733 22304
26821 17426 5052
26829 17153 5789
26808 17842 23766
26687 21808 30362
26829 17178 15927
26743 19957 25613
26788 18507 34531
26773 19001 30542
26798 18178 15191
8703 19222 15802
27232 20445 13049
23647 17221 34801
13793 18147 27296
14004 14872 38565
9517 15369 2147
26972 17230 17196
26874 20432 30146
26847 21308 31216
26956 17759 33655
26937 18367 25464
26892 19835 28686
26897 19673 26124
10706 17564 21660
14737 17636 24076
17062 17674 12708
20757 17742 24966
17965 17692 20499
20921 17744 19640
22054 17765 21796
24883 17813 12349
23362 17787 16002
19900 17725 13299
15343 17644 14807
23107 17785 27243
19712 17723 20977
23269 17787 23682
12473 17594 18247
23954 17798 22496
24612 17810 22140
11774 17582 17907
7523 17507 19892
10458 17559 18095
13010 17603 16672
17774 17688 19630
18557 17704 26378
22561 17771 9173
23955 17797 13666
19475 17719 20028
21945 17762 19679
23652 17790 10077
56918 11486 38878
19420 0 972
11528 10424 35924
27941 18431 16905
45369 4956 21390
38377 4784 30337
38240 4781 29767
61158 5344 16966
45287 4954 27254
47334 5004 24441
59207 5296 20777
54052 5169 23346
35078 4703 30346
48096 5023 24151
52493 5131 16674
35996 4726 29117
52878 5141 29028
61698 5357 9482
59542 5304 28451
50847 5091 25683
47573 5010 20595
43211 4903 24754
59951 5314 13000
59048 5291 15739
40826 4844 24798
53360 5151 26156
54564 5182 15604
46400 4981 21456
54876 5190 25810
46104 4974 30108
53358 5151 24443
53681 5160 20603
49265 5051 24437
30311 4586 30581
52384 5128 17214
48899 5043 21131
34961 4700 29640
54094 5171 18964
51625 5110 21913
57271 5249 18696
59903 5313 21765
54168 5172 31338
60062 5316 27006
59092 5293 26757
59622 5306 23314
7652 18604 33277
80665 9026 35522
71294 8054 37714
11522 19552 13834
37550 12089 20633
5767 19482 30600
44816 5069 7012
41843 5176 5322
52592 5388 5745
55285 5224 7913
46875 5363 4687
46186 5372 4446
58192 5316 7692
33726 4748 7546
65542 5493 3449
44544 8687 14230
37478 22938 19041
9318 15787 18184
76480 18160 19848
60763 10060 1196
66939 14029 1093
70410 5519 36359
13700 8468 38603
53788 16428 22966
45531 17742 36814
26064 17560 18910
25746 17657 13996
26023 17573 22067
25572 17711 13504
22588 16683 19541
22708 13950 19817
22677 14654 21082
31884 12469 281
2191 17303 30855
31408 11355 23388
51093 19701 5170
15524 18154 29201
51494 8579 38367
54015 15527 1887
83821 15653 13275
39107 23079 28352
62243 10142 35140
62199 9402 34615
49638 10757 23119
54509 7641 23586
55949 13417 23014
52992 10372 23254
50292 9185 23304
18899 20597 15942
19933 18440 15942
1496 9793 8370
57567 17616 34363
27823 17035 32909
27488 17138 33668
48814 15201 21388
32326 22499 24707
26845 21385 18798
26815 22364 29151
26878 20296 10464
26934 18454 5082
22554 18753 10208
13730 17627 27478
8148 17520 22552
8821 17538 24083
10543 17565 24522
7312 17511 23217
8372 17532 24217
79534 16144 12538
367 15202 24141
52581 7293 2108
52723 6813 2503
8319 20426 29244
7688 20718 27204
22372 18848 33348
25916 22772 25681
82993 15857 19790
12714 4233 18430
10813 4321 18038
846 19691 12076
4484 19843 11153
87 19659 14016
76507 12580 820
38352 8559 15283
49193 16990 20211
38022 22923 11303
32975 13116 19654
35291 13102 18763
48441 21368 14320
50047 20790 15494
82372 12184 37312
6976 19186 22486
6692 19164 20692
77626 16345 17622
35811 11711 18801
81187 11958 36941
26707 21165 22148
26715 20894 8031
26778 18833 11036
26686 21830 24656
26738 20129 14414
26744 19935 17836
66741 15889 37555
85589 11057 31149
33447 14689 24940
41240 22205 32051
83677 14294 20369
83696 14109 21061
49202 5644 36446
29037 25931 20272
28431 25932 19815
5455 15479 22719
4343 15390 21851
5635 6321 33064
51991 19134 35428
28799 4994 36092
3816 17538 16671
