ply
format ascii 1.0
element vertex 2795
property float x
property float y
property float z
end_header
48404 20532 18039
18261 29685 18700
23398 14166 14560
45250 13393 15939
78605 17563 13961
22012 29623 11343
17401 22116 8575
44056 13864 19823
1879 9975 18018
68413 10581 14108
42378 22080 18965
63301 21007 16716
74740 22413 15424
26343 25972 12766
43037 12472 12736
58981 38323 20500
42489 15976 8366
11458 13686 22792
51795 20041 20639
54998 25864 12440
70819 2816 14693
65698 15056 19024
34111 17402 19695
16790 11148 17485
46030 21441 14425
14586 3027 15109
70658 23589 13318
57904 33504 16216
79493 6171 13425
52286 19315 12760
44096 24678 13263
5714 3448 12582
19887 11702 7790
49616 29263 20027
66066 9698 16638
28192 22997 18265
35167 16829 17303
35036 16856 14227
25824 31855 17247
51143 19985 18944
60571 36238 3298
16731 11240 19707
60711 32656 11393
18855 1907 17320
9977 14274 11038
22423 30246 18446
11721 10589 11295
11016 24723 17693
57453 42456 11424
42013 14820 19517
79249 12919 14842
53327 21639 13892
23996 16498 17336
55211 33159 21307
44888 28682 16380
51342 36549 10541
40980 23371 10603
39173 28090 18983
58287 38702 18310
20523 30342 19234
69983 28024 13846
42134 23096 10752
41661 18679 15856
69134 8918 12880
22860 10810 7394
30268 10702 22319
59047 4987 16302
55017 24598 12881
9651 34147 15810
63672 30686 19860
70928 14499 15177
27376 15223 6321
58921 47581 19769
59077 38006 18118
48720 37494 11878
69089 16204 15361
68806 32744 17964
46384 23918 13890
59370 37692 16453
58394 41836 19177
14130 27057 16087
62547 14482 17086
36175 15119 19240
67955 25378 12723
54339 25748 19133
54686 23193 13715
43257 15266 10080
70035 39667 17098
53989 46210 4389
22369 19361 14483
14394 16827 10865
9926 3481 16729
0 12619 15881
54600 26192 11460
11034 10938 12252
39553 32000 13009
15669 13177 10789
61692 39036 9547
25771 33133 15820
37218 13990 19240
63139 10150 12578
24643 26411 11246
80302 13448 12703
63627 22908 14011
16700 29251 11274
40459 15158 10474
69117 41581 17685
46171 21373 16668
62380 14736 11582
20014 14388 20329
30156 20476 19176
17927 1260 16573
64858 21816 16716
44600 16463 19823
9803 27822 13743
56010 26819 19296
24158 13395 7792
64260 40604 22137
47753 15832 20911
37193 15246 19240
29868 14568 8278
10553 34424 16373
52477 19564 16125
19119 28423 21172
75607 6038 14728
75327 1861 14349
6668 5319 13445
15556 11723 13244
68800 41910 8227
58186 15883 14877
26644 16148 21704
30410 16821 11197
61268 42322 10801
24889 13870 12251
60433 25717 14059
54191 35648 19693
15443 23691 16917
60734 40071 20595
55171 24570 11076
68194 23660 13318
13988 3612 16498
55850 26907 10937
37833 24148 19054
613 9768 16447
60576 36323 10725
14499 26492 12716
43539 21822 9804
43719 23180 17377
54441 15993 14922
32072 16976 17428
42180 22968 11179
38636 29184 18663
57457 21263 16904
62288 13871 17086
32571 19042 9607
21262 28899 18933
41569 24350 13960
57864 40751 11712
53523 23594 14549
68336 40812 7846
63356 13405 10894
67056 16323 14347
42464 29627 10853
55922 35688 27258
19213 36674 15155
62497 40396 16945
60037 7883 14144
51594 45454 22137
31040 17956 19728
7804 22089 14054
44202 15558 10484
60217 37041 11919
17859 22189 9211
29651 28168 19189
40846 22673 12270
36130 23455 18987
45567 23459 14817
64489 14951 9989
14904 12357 19119
26497 16086 26871
72522 15594 17033
62830 30148 10728
32795 16144 20237
23232 18053 13166
37058 23312 17419
36751 23307 16132
43912 14244 10884
58573 39338 19042
32258 18854 10270
74055 11959 13105
31695 17101 9303
58614 33905 16688
63343 40664 14170
4307 23625 16037
30603 10774 7166
79403 16684 12909
28615 16723 20619
45131 26701 19851
17370 13761 19042
17855 19380 8558
26930 30689 10221
25853 31179 18414
53515 21862 16033
33980 17116 9707
2677 12534 14431
13834 10444 14183
11325 34661 15246
25566 14778 10399
63323 15228 18366
63659 44137 11304
45035 14020 10474
19074 28691 10156
42787 19498 15650
25338 30017 18328
42929 28961 14746
39970 29062 14644
28190 29451 13067
35441 29210 13942
23819 29597 12650
43781 28954 16723
74838 1711 15530
26050 11431 17373
64305 14511 11201
32300 18671 19869
79154 11232 14130
36195 15526 11507
11053 13496 18569
44520 21699 10361
42687 32954 18300
71334 40874 16780
68798 13347 19292
35124 13786 18154
68674 14034 10490
41639 20919 17662
33381 30843 19711
34021 17408 9319
20439 21627 16084
73546 3794 13528
67642 14381 18458
65019 18877 18252
51273 18549 19323
55851 17596 15229
61696 5085 14377
45474 12872 7615
65904 23771 14085
15621 35911 15540
12323 13049 7030
36695 23312 11251
57517 37309 24450
55047 35188 9349
70545 35407 16672
71203 2937 15224
4993 20324 15000
66188 10906 16236
27304 29635 18491
4721 23975 14533
3123 10320 15562
68564 2622 13579
48746 32785 9646
58959 38073 9205
27726 22680 11468
62679 14021 12578
57628 19710 16367
22318 27646 19086
24072 13404 16094
56114 26585 12968
1688 20344 14249
32472 10844 7220
11469 13064 14183
64382 23673 13181
74137 22726 13494
73024 823 14006
75652 5464 15920
51288 18223 17512
35022 28894 10840
42693 14170 9112
12088 13291 21901
37325 30949 17039
36009 30952 13072
36861 30950 14918
74746 24066 16551
13936 10803 16297
25945 19831 17088
45965 30031 19355
43622 24696 20266
71068 12336 14487
72945 12105 12612
55213 26076 17832
54962 25362 15896
58072 41456 10504
34524 12797 17033
54685 24526 19355
14401 13917 10043
69820 953 16452
14208 15982 22096
38354 29210 11192
4388 18339 15021
61669 33766 10815
61764 23553 16562
61791 40757 15330
19155 29105 20909
47375 38100 16594
12614 17744 17673
62023 4517 16139
61274 46723 12667
10699 34340 11985
39582 17991 19240
59701 35088 14762
24239 6474 17200
53618 23195 16111
78519 15771 14931
62407 4258 13120
46711 16057 17828
52256 44727 7846
13664 13091 12834
32510 15953 12161
51495 37119 12482
74858 4630 15379
40833 18319 18833
43373 37467 11952
76599 19800 14666
51635 19937 14289
42945 14236 9593
22539 29335 19330
33594 17400 11951
63369 16736 10416
24981 20708 17935
38116 17025 21817
67055 18439 10487
55411 26925 17366
35408 15022 16454
15288 10300 13904
28825 31229 19614
44323 19299 15447
43354 14851 19240
77365 3666 13491
21347 13248 8327
15661 15446 19488
3538 19699 12337
7598 3768 17802
21938 28788 16564
51649 18364 14867
22945 33980 10831
3123 19180 12216
74914 12525 17086
41711 22790 10001
43796 18929 12210
67894 7091 16559
23879 17075 17522
35204 29456 18769
41446 17705 11602
13567 13166 20045
51952 18534 15815
39096 14979 21817
70613 40833 17948
53487 29297 19036
1894 20070 17009
44444 22703 10712
4176 19323 16193
33174 17154 15066
34805 27757 12279
32003 27788 12340
45701 13306 7435
34225 28535 19086
12889 337 16586
34381 29729 19904
18319 13965 23329
48621 37388 11216
73942 4046 15432
44036 16801 18822
52919 22969 12412
11421 14661 20663
72392 10998 12952
41533 29108 11870
45458 16865 19240
44281 23205 13099
24608 15353 9448
35090 19598 18014
43128 29862 11608
67888 42749 12036
61887 14283 11515
34112 32131 15086
66790 14142 16289
40991 19047 12063
10661 2942 12772
62913 11119 17086
15968 16366 18929
36056 19022 18358
63773 14894 16559
16412 10824 19532
22292 29914 11606
70354 12771 13901
57728 14107 14926
38533 15349 21882
67095 14489 15243
43087 15404 19240
23411 31408 20811
4039 19805 12647
64853 41810 16101
59410 38586 9871
68023 13547 16691
61920 5722 14530
71334 40506 15728
43231 31629 11345
43938 12622 14553
73250 23427 16143
54644 23835 16399
29351 15418 15897
20055 21168 16843
61383 41365 22137
12549 27636 12264
36929 17677 11507
33361 15807 9498
73402 3702 14417
1910 15003 17879
26229 11920 13017
63236 40582 17887
42600 25508 12717
2363 8038 12177
66609 13212 15361
72655 8934 12931
46000 17379 18631
60750 34052 10510
61741 5044 13810
56838 10726 16574
51332 20278 19692
36109 16661 10874
43009 15643 21228
14648 16218 12473
5441 22815 18016
33692 13364 20515
25773 15855 26393
32268 31722 18959
56301 9143 16067
70454 9212 16559
35130 12632 16628
62220 16343 12976
38237 24582 10060
38729 28596 18987
9945 33779 18405
43354 24150 12083
72896 16221 12578
29393 15425 12894
16605 29908 10491
68369 10320 13221
39669 9093 7341
70476 11412 15555
15454 3806 13976
67873 13237 14981
7338 1624 14929
67326 12296 13901
62589 45342 7846
42368 19613 14987
19789 11674 22143
26142 16145 18693
48661 31752 9914
59704 7250 13809
11913 15854 7477
63347 37578 8500
66565 25278 16583
61435 32956 16323
68024 13614 13055
39794 29408 10995
67813 13798 16247
15323 10931 17641
72117 11266 16808
61437 32087 14685
63564 2284 12745
25734 26308 11926
60575 41171 7846
48701 18557 9601
36380 31913 12917
68359 3009 13318
59828 38310 15525
54106 26069 16970
17140 19544 7856
52583 21364 12005
53509 23122 14863
24124 27119 11301
28080 24637 13660
24619 25655 10848
29714 14363 7176
35360 24141 10883
51305 27837 16577
35197 12622 13434
63971 44374 12796
57932 37257 23543
19181 21838 13638
23256 17676 15388
13895 1630 18016
62595 5103 14479
50111 31513 20448
58735 33362 16235
43492 14943 8413
23920 11760 20235
16280 23985 15779
53188 20451 13152
7732 24472 18008
34072 10117 6539
45950 20771 11762
26672 26032 13922
27801 25467 15626
53480 21250 13158
10888 23477 15663
51166 18383 14658
78806 12608 15894
45093 33880 19036
44373 21600 18642
52194 18735 14523
71246 15433 15361
61985 41820 10993
43305 17143 10884
65251 23106 12136
51222 32276 21217
38719 29428 19047
34127 19936 15973
32948 18576 10379
69881 40544 18882
30895 15668 18153
31472 10662 6553
23481 35689 11815
34616 29971 17648
56313 28781 12511
529 11603 17339
11071 15789 11458
46764 16794 17583
33329 19881 9515
32506 23897 12370
67530 11496 16289
41948 22992 17820
63986 40569 19993
66176 41356 17782
66307 41404 21327
32886 25426 12346
79890 6279 15129
68343 2613 14570
18074 35935 12024
55396 25428 12613
14598 12787 19119
48020 14564 6905
28183 23660 11716
59000 34893 14916
51819 21314 17086
14008 275 15664
13546 11877 18540
19371 17573 11563
18436 19598 7991
65917 44237 17168
43496 15687 19682
12888 3584 15650
17980 13639 9853
22449 19249 13666
60321 2710 14755
64450 45127 16831
44187 21616 15916
18200 23300 8011
17140 16429 22056
56509 31025 12944
39213 18706 15545
14049 24367 16108
41921 29658 18362
60040 35211 11352
53801 24237 15895
22482 37031 15362
69479 13620 13322
34999 31603 19145
2772 11810 15819
59264 38057 14331
35383 20477 15773
33595 30007 10717
1306 9960 17763
69063 13301 16939
45788 18845 15503
22434 11481 22757
68862 32802 10540
81347 17114 13788
44732 23185 12663
60059 38814 11486
52679 22894 19818
40841 23924 12189
44601 18474 16025
77083 7725 14731
24196 29048 19297
15934 2648 17691
3708 18279 16628
70716 36498 21882
22784 8509 16134
43383 15396 21176
35821 20539 11980
70141 37925 10987
51359 19133 14849
523 17464 16492
12810 2931 13864
55266 24164 12334
34127 16082 16761
45065 19546 14352
50910 20230 20111
53812 23297 18769
26755 32739 11078
70293 36945 15492
22266 11114 21567
3889 24371 16983
59699 36137 18997
38239 13133 21086
27666 33248 17694
49926 37052 10937
66563 23485 15601
66687 12326 14487
72460 24074 12925
60274 38332 9221
8325 24006 12315
42759 15010 7965
13280 18383 17624
61041 35939 10984
31080 32059 13315
58790 34494 13149
18983 4590 14402
63923 45415 12102
64926 24078 12946
61436 38799 8972
67661 42945 10698
53038 21220 13728
33716 25643 9574
53971 22273 16289
64685 20490 17073
45173 30600 14723
36054 18192 13156
9840 15033 17760
64364 34800 20842
20398 6420 16184
47783 32171 15618
25917 14849 19372
39648 27662 10720
46468 23135 16933
66556 15121 14108
29070 16159 11882
59062 8567 15239
42477 18234 11861
20264 2146 15553
9645 31416 11872
10961 32205 11553
10708 15044 11458
56859 8271 13012
79024 10648 15663
38522 16078 10793
22999 24717 14141
62504 24383 12144
19112 13880 10699
2850 11224 14681
65589 44123 22137
19431 21645 14927
80872 15916 16441
46694 16034 14318
52070 21487 17777
36513 15805 10874
25114 16076 19252
42783 18217 19240
41037 33965 17590
9062 3799 16859
37242 14967 10793
80012 12325 16458
55638 17127 14610
23936 30252 11470
66609 14306 18639
20807 3272 17498
48310 29897 10126
17161 34860 11334
41986 22603 18378
16826 16557 20045
72492 23583 14748
58314 37698 13578
64172 15153 18403
53598 21020 20473
37351 31505 10983
40500 31710 15927
16945 1335 12678
28796 11249 20521
43761 28041 18884
39665 16915 11935
64097 10963 12578
20097 13713 20349
69615 24277 14621
45428 23098 17068
21537 19472 15455
54541 34153 14424
26309 15384 6013
66294 24079 15969
70902 14777 14487
17134 32405 20135
77175 22332 16541
63569 24865 18332
70527 15114 13574
50561 37313 15714
40607 31548 17018
32062 13895 9460
62368 12705 12578
60233 47149 12626
56004 18483 14526
48353 37551 13757
25400 19164 13610
22355 24942 13212
25591 8162 14942
26296 10024 15672
23012 27902 18344
45169 22411 11547
68177 32239 19732
12585 17246 14183
58007 36263 14487
38687 29747 13818
21937 5271 12140
14177 15711 10797
9965 26704 14534
27422 30254 10653
62753 15542 18909
16410 24508 17674
21080 20068 15800
58566 21663 13143
16254 16386 7781
30685 15711 10579
33710 15677 19854
37938 13484 8832
3415 6738 18008
30049 29391 13484
32318 29312 13421
37985 29103 12255
26903 29496 13134
26260 16275 7534
45763 20511 11513
55112 29404 18911
67800 16602 16542
8264 27087 16956
63786 14586 10515
7834 27246 15811
69670 33664 9998
64402 3429 14753
57779 37190 23132
70010 39512 22137
53965 24478 18273
77338 7167 13318
35672 22711 10531
23311 28639 12428
44180 18640 12509
51177 19528 13796
43906 26478 10958
70411 37124 10987
34465 17143 16118
43359 37660 14040
32388 30337 19348
53534 21855 18914
71233 40833 12401
43255 22486 20216
21999 4236 17598
13236 13902 11721
58535 15217 14959
66332 41231 7846
73083 15935 17086
64904 31080 18420
27757 15445 18141
47835 18911 20091
40770 18517 15087
20389 5592 14954
81304 9261 15153
66645 20716 18220
71923 12479 16225
70518 17479 12715
42317 19344 18537
46568 17173 20082
23117 37016 14285
53344 22891 18034
34674 12879 12051
62515 43522 13699
72457 12441 12952
71817 8986 12578
52298 22345 9881
57394 27514 16683
61709 42782 13378
44788 23898 18145
26153 15896 17229
69354 24290 13779
42748 18296 14599
79644 13002 13072
36737 16951 10695
34278 13120 12051
64007 41167 15571
71502 25612 16436
33513 15731 9870
62933 3753 16352
27970 30179 11510
41747 22919 20606
26042 25041 10758
69117 33066 21885
54400 25372 19323
70298 34904 7846
45317 22531 19224
47434 17130 9054
27001 32483 19085
44056 24039 10438
68172 32235 13971
65047 23593 15794
45762 14049 17440
23735 29259 21494
70351 36945 13110
25630 30370 18758
23181 24378 13618
59862 19216 13318
29980 15875 12019
11739 11676 14214
26295 16092 25310
52307 21013 13067
41995 23953 14457
29815 11200 7956
51901 21378 14989
33603 16978 15038
14223 10311 12410
11069 15123 11009
36179 29315 17856
25689 17294 12718
53249 34703 21820
33905 30208 16688
65738 23876 15492
66743 19269 12578
69678 23808 15920
61904 26710 14331
12786 15021 17519
33589 12901 19175
71390 27878 14948
48219 16409 20918
60722 42598 22137
68190 19295 17002
43624 24411 18167
5099 20526 15735
18790 12017 5817
15437 25258 18051
45711 22613 11790
16351 15229 18057
44257 34797 10922
23085 8716 17226
63496 25990 12263
8044 23393 12813
11753 16220 22556
59038 18595 16978
56893 34725 15538
25171 8693 17459
31917 30436 11218
13125 17424 13849
54828 23779 10931
46171 21589 11142
1435 16050 18003
48742 37615 13118
16012 3275 14591
55533 16079 13781
35244 12616 17061
62052 15314 12350
41509 18129 19240
70607 2931 14142
51395 19114 12827
32595 28301 12321
58663 37057 7673
41686 16267 10884
61345 32135 10865
55191 28017 10271
16301 24216 17168
60943 25468 16425
49146 19488 9168
2230 14111 12756
13757 24407 15037
21851 19063 15030
59029 34183 18174
28074 31412 10166
38262 17911 21181
12323 24283 15055
53467 21954 12415
26099 32182 20081
15504 35198 18581
344 14080 17407
53043 46504 22137
73672 13074 12578
53740 23015 17858
44449 24450 12536
38439 15330 12051
42133 17694 14623
25580 16067 22197
33997 26636 9660
25938 15781 22187
12791 15327 5344
67643 9029 12836
36498 29914 11609
20942 28168 10690
12268 13469 21200
30234 15692 18682
43605 16265 10542
58529 39140 10223
54569 44590 7846
67428 17354 19357
33074 16651 16933
28571 27652 10993
63104 13924 11117
49646 36524 19918
13319 13023 21895
64323 45197 19272
17986 1154 14103
42852 23424 13644
53357 27151 19821
11552 11366 13372
62424 15226 10410
53831 23282 11933
63106 41472 10963
56602 36862 26525
27430 30007 11607
43683 15631 8370
52449 22256 16813
56665 17569 12448
14985 17028 17760
15035 11256 12402
58533 40717 19465
53266 21406 15814
60434 6481 14420
70620 2918 13318
13429 13102 7625
58057 4917 14676
66963 18814 13105
53706 22718 17371
33541 12879 18014
36054 16662 15319
65667 40144 7846
35435 20997 12812
49914 30152 18732
70721 38139 19427
43393 21885 11579
22635 9870 15333
66385 18926 10496
64914 15504 19364
37865 29450 10843
68134 23616 14001
67435 26777 14011
26633 16040 0
74541 1785 15902
13128 32450 11038
15933 12847 11458
44229 24878 20357
37085 23072 10602
36825 12592 17864
23345 29720 12507
23575 29961 11617
57266 28258 10255
65840 9845 16972
67360 31866 13426
67402 31880 11017
37885 13417 8364
65669 12588 14108
63630 14401 18980
58658 38852 17000
37073 15786 11528
6101 3261 17691
59774 35486 18575
67826 32016 11592
65576 31295 9561
44400 16238 20161
19373 1645 15832
78274 17994 15024
53947 22663 11319
29353 15419 16940
53454 29544 20954
27245 15470 21708
36054 19546 16915
33100 17142 16777
71171 13117 15814
18895 28577 21764
43960 21444 10842
27625 28361 11005
16268 16544 20045
54790 14782 16452
56097 35875 13678
44731 15771 21390
52755 19717 11333
17853 19226 9193
32541 18657 9408
27516 16250 10170
48133 38299 14221
40345 30101 18457
42078 14105 8318
45712 13092 6613
11647 34671 12073
58605 32936 20039
5326 20821 13115
53300 24578 10276
56699 21354 15820
34231 25422 19119
35471 28708 12255
6668 2976 12323
3607 18172 13120
62182 15974 12559
64571 21155 11936
23290 9240 17164
60775 46939 21144
70792 36978 17386
45627 22209 9650
67398 18669 13105
15987 13379 14183
26315 33735 17864
47461 38297 13581
4704 7313 13688
43150 21746 15422
51913 22872 11068
41654 26394 18947
32841 17891 19867
5316 25154 12622
36223 30925 19424
69362 33321 19730
30844 16777 12625
76561 6153 13413
35731 22828 19220
53988 24635 16521
10576 11878 11563
70911 15929 15317
36245 18947 12051
63077 45855 14703
23112 29388 15536
35792 10575 21328
51604 18445 14468
60100 25586 14695
13591 9151 17485
37110 12592 15510
44710 16735 19240
39714 20686 16350
23373 36973 13794
54881 26760 20639
66769 14262 15361
11078 12634 18167
26111 15752 11441
34039 23395 16752
36083 23325 15965
17096 14748 5753
12520 11648 10895
27086 30970 13918
27948 30968 16741
25874 30972 16530
28701 30967 18507
42502 25132 11384
78494 11126 14743
51528 33201 8364
11989 15126 14183
48356 19948 18068
29022 32227 14157
54147 30402 8847
53059 30371 8683
37503 27055 19030
19015 28019 10708
14904 11856 18967
70801 37612 17706
66756 11777 15555
61415 37656 23733
54692 17038 15015
77683 22677 13236
69940 39582 7846
46445 23184 18732
42570 22649 10007
71724 16298 12726
44382 23219 17259
33007 27770 10895
64824 38278 21752
37487 17723 11458
20477 11619 5911
63418 25535 11945
45049 20488 18164
16603 16634 21340
54249 24339 14985
30986 29473 11974
35134 18971 14147
68188 17889 12616
62387 46202 14044
16200 16149 8650
65196 31884 20872
43568 18824 17655
52187 21758 12052
57760 5311 14585
19505 28378 21470
55130 23916 11493
663 17988 16320
69508 16339 14303
12688 31213 19284
17836 19646 22009
34212 13501 17586
39609 27351 10279
78071 18338 15398
38429 19692 15565
64108 16799 19024
24294 27212 18220
46460 23543 13644
52906 36759 18292
34692 30954 16112
37555 30949 15438
37651 13533 12051
4063 24850 16174
38272 24461 10629
23080 9223 13344
14468 13101 17106
7840 2962 12144
7295 25766 15112
22610 17512 15501
39591 18667 11943
66480 12093 13901
53369 24017 16415
41949 29291 15379
63194 25705 16716
16240 13940 13652
71302 13015 14452
79074 21242 13294
53161 23499 17849
32544 17290 19854
11607 13981 11458
56289 11327 16518
66311 17723 19215
53839 22021 10897
62713 14674 11150
10995 26126 17683
71484 25972 13114
12158 13329 5771
47875 14725 21717
40068 18835 15608
47030 29486 19347
724 9144 14482
23740 8595 12216
27458 32083 17568
64970 1168 13058
15039 11922 12410
57115 27008 12635
73934 1519 13266
51926 21030 20639
70798 37020 9917
56768 33862 8234
19606 28527 22101
9584 23701 14934
40350 28766 19773
18168 23247 13506
6626 26690 15572
46421 21430 10701
58470 47697 11126
41121 21763 13909
53920 21670 12242
13498 35006 11945
6064 26361 15576
16571 10726 18992
12176 13279 17583
13622 9816 14004
13725 16488 12214
72997 8742 16686
58757 34470 15416
54757 25985 17586
37907 17686 20940
25292 29848 10483
55579 46044 7846
68117 19461 16559
54362 24730 18831
40259 18847 13652
39053 19897 14601
35036 16608 12657
25731 34349 18776
67420 17439 13137
41876 32377 18108
36722 12593 12436
5845 21356 14650
53846 23060 11211
62563 30281 12305
24356 28222 14209
68845 32784 14225
27673 25729 11190
62885 31186 19091
53075 36792 17101
23422 27971 18288
42712 15174 10192
30295 16688 17848
32850 29504 11274
41977 37107 12589
21889 30617 9110
25587 26700 12490
8762 22844 13102
54852 23417 11173
67074 31775 20802
1551 7049 15323
58238 44212 22137
36893 17962 12051
64192 42684 7846
45170 17462 10884
28637 16420 11844
12204 26348 17569
70804 14241 16289
28153 19347 22611
47133 15041 6706
57396 29778 11716
3117 16983 15715
22980 16622 13558
50477 19137 10368
33799 15285 16062
68889 41817 9281
20830 21402 14079
66213 21696 11024
69200 37318 7846
33092 14440 3418
70654 38572 14514
57489 12179 16274
22781 28153 16009
24421 27256 14974
48375 32021 19825
65932 39237 7846
27304 15981 21546
26489 15966 7033
18853 35664 18530
53959 22276 12896
4308 25071 14092
59688 20054 13169
23959 36956 16317
47315 17588 17022
42480 25666 18937
32040 16736 10320
70839 17446 17086
59096 39456 18894
55675 36045 18184
41873 19259 11348
70679 24042 14588
13256 13311 10421
33641 12988 12051
53781 21424 13555
65207 24634 18991
79266 15467 15888
18110 26000 16618
14314 10360 17771
12221 14464 23511
57158 10369 12712
43605 29550 18430
45338 18411 15678
34966 24034 10892
49914 18008 10445
14544 17720 17485
67745 15553 14487
45119 35588 10493
12290 24325 16018
44394 19942 15353
56278 26199 19410
68906 15770 15818
29641 32076 17037
16099 23391 15203
66305 21709 18914
13804 11651 18270
60161 35969 27333
6484 4419 12282
50748 35617 8953
49742 37457 13317
13764 14743 15108
72693 1213 16177
21490 6709 14921
43099 29391 11198
51202 20032 17667
12564 10146 15856
31638 28943 12335
43691 23964 15030
43249 23822 19087
54277 22440 10884
58507 33206 13941
51993 21028 19752
35360 10411 7191
56458 19790 12690
42352 23395 13258
43568 19766 15096
44609 34221 10875
26370 15688 21354
66059 21909 12456
49926 18441 13160
68608 7171 13105
43696 24700 12503
43921 25037 16586
56554 47820 22137
54710 23175 15685
56706 36049 4080
45135 14692 19332
13613 12280 17562
64948 23946 19387
21441 6730 13623
39466 26878 19789
65411 44559 11058
70639 3411 15280
70134 39466 12089
70134 38256 12981
64657 23504 13488
63822 13314 11812
55205 25879 17187
60358 3096 15787
23014 12592 5434
15954 12311 13342
19898 27842 8702
75308 21926 14248
11766 11832 12410
28890 16399 14383
72183 2752 12928
22795 18787 13323
14320 14390 23501
13088 28435 16183
44305 17925 15222
26325 29574 11318
41924 30130 11544
45330 37090 10754
56162 33518 21571
14849 11263 17519
53282 21976 18525
56996 34246 8416
63096 16673 16855
40826 29589 16286
57680 39090 8046
53753 22692 13771
39716 28423 10743
14289 35554 16136
46468 17008 13327
56501 30589 17272
38094 13310 21543
68419 33035 7846
26871 19146 21347
71204 23629 12315
38884 20540 13689
29923 27503 21123
59864 38342 14338
19645 5062 14201
56116 27561 19630
32659 30399 16179
17825 36180 17876
4129 23588 15368
43291 13378 10884
48412 33079 9719
70420 35140 19376
55308 29875 10664
3866 10242 13728
9424 13293 17561
56967 28422 15051
12883 28566 14799
16008 14388 5321
53475 22292 10656
6976 22236 15764
45954 22166 20180
23974 14831 14383
31993 16319 15375
63619 26678 18912
52463 20245 17575
81675 11918 15874
41645 24884 16476
69899 2681 14561
67505 42979 22137
18138 2888 18053
69901 9064 12623
70035 40773 16316
65298 42147 15633
7330 5598 14275
17222 10996 19229
24621 15064 11219
45659 16555 10474
68221 39267 7846
5620 7200 13783
16867 36143 17424
69261 13784 14912
45620 24281 17815
46013 20845 11002
60138 3405 13404
39461 31925 14179
61939 30770 10223
11155 13778 21603
56746 42845 7846
22271 3526 15168
43282 16456 7596
10684 24066 13102
60825 40655 22137
70900 40918 12973
58029 47804 16438
52466 29595 19445
23111 27047 19093
33847 16697 19854
67336 8087 13105
57039 44400 7846
57295 35217 10957
15473 24179 15828
64730 16565 12579
2504 13534 13220
63894 22999 15920
52711 43382 22137
37692 12540 15086
20385 2332 13863
13851 14279 14183
21620 30411 18970
35036 17456 16639
61375 21335 15695
42984 15314 8325
40499 36012 14106
41297 20801 11798
37905 19692 14082
32829 30276 18440
30075 11853 21211
58352 14047 13736
42257 19190 16264
58545 32176 19838
38542 18671 17629
12774 14659 8193
57306 38562 8506
21087 33056 10360
66454 12328 16170
26713 34082 12675
52228 19349 19225
43922 23235 18116
28028 23214 10821
9230 23445 16917
59566 19537 13322
56879 28470 18268
69207 17884 12992
33350 15132 13821
67940 25828 12781
43223 24372 19845
66876 11520 13737
44629 14623 19823
51528 28316 20148
54619 26350 12328
35494 23302 12332
60779 3859 12756
25071 27596 14965
54039 33922 15324
44060 22718 16100
37484 17724 10896
78622 17509 15803
23285 9781 15798
40307 31823 14389
24572 10665 22081
18059 12182 21120
58951 34990 16415
31771 16976 11103
68758 41973 15815
69946 13763 14108
14230 14504 17103
24698 27669 16600
43780 17635 19891
12401 235 14548
69748 33817 17804
21852 20143 15962
41634 23249 11648
59743 3375 15171
41708 12765 16675
29922 15478 6030
24013 35061 18862
68243 8553 16559
71334 37536 13266
70681 13092 15762
58185 37626 16254
62216 31156 18159
68595 15544 15177
55335 35952 11230
13820 15321 11458
3521 9358 16064
54783 26600 18878
19875 28565 10794
33302 13073 20092
41611 28614 10680
64104 732 14849
11776 13264 17519
44509 17610 14709
63481 17047 19457
27721 33312 16656
77634 18176 14793
32268 15288 20553
13959 13951 20048
35840 12593 16645
10216 25761 12254
14573 13541 17097
31286 31605 10676
25516 15685 7355
49103 30012 10590
26027 34502 15900
6326 25809 12624
52995 22593 10795
68050 11412 15762
10992 3235 14224
36143 12977 18080
27772 23782 18433
70812 40918 14886
63878 17298 11151
12752 15234 18415
57317 37728 8647
6976 22563 12924
56395 26608 18776
12365 12842 9962
20101 32086 9846
44248 22880 15202
24497 36675 17139
33672 23294 18438
40796 22110 13139
56487 20863 15971
43983 22567 10566
60520 33178 11393
63831 16890 18403
44571 22959 18738
58258 8124 12771
68699 10164 16524
45321 22943 12129
17463 14544 19393
64116 23321 13448
79140 11683 15127
45997 15883 18896
49817 28072 14709
41434 17894 10474
32572 16979 20146
69873 34063 16897
61399 26256 13822
26745 15875 21994
54207 24167 12057
6224 22640 17844
52347 18969 12406
57400 42124 19143
27137 16511 8055
55925 26096 15894
51669 33002 21426
26617 16182 6548
21367 20049 13102
58013 42078 11907
12459 27759 17684
55411 26758 10813
54079 24732 13609
52770 22061 12321
75491 2752 13013
23478 12189 20164
64166 23957 12904
25179 15648 18395
42784 23969 14997
53987 23304 13703
346 10175 14414
37403 28567 10792
27074 25570 16187
9956 32076 11807
35011 13364 12051
19450 5692 13582
55913 26768 17847
31944 15983 14101
6888 5144 15108
51468 19203 14169
32604 27071 20790
59776 8294 15178
62835 21954 15920
18866 14360 19630
18424 15080 21950
15943 15598 9486
52974 22255 17971
23960 28272 12958
65140 38422 8151
35036 18135 15484
55605 10022 14912
53246 23437 11152
78747 9927 15796
15900 13977 18915
54542 47103 22137
7522 22615 13102
61972 26589 13753
5367 3952 12400
44430 21210 18962
14022 2953 13530
53025 24076 20314
66480 11046 14035
46821 20424 17082
22693 17314 14279
67161 8339 12578
48298 32963 19981
2837 16005 14617
46392 22417 17840
52425 20276 13925
11739 13312 9533
66945 43506 9486
64535 14928 19422
10600 3221 14844
44714 22833 11356
61357 37324 6215
64952 3842 14543
67763 16663 14303
10081 15586 16148
68234 14489 13658
60242 19423 14324
22733 35236 18811
33625 16938 12471
43987 20178 11084
46366 35062 10063
5128 23515 12647
54820 25633 13685
62104 15647 11557
21871 29259 13294
53074 30088 11323
63969 24681 11824
42495 15120 10592
69089 33038 17777
45382 23477 15698
15605 2654 12512
55814 16449 15838
58525 5619 12948
46204 23951 16046
39972 26428 10759
46456 22803 18218
45837 22380 19461
43131 23849 20519
53033 45664 4395
15125 11780 14894
30570 31937 17636
28118 12431 21797
63820 45471 19215
41435 23829 14804
6586 21985 14093
66826 12487 14108
69694 13281 15892
63592 25069 19377
69810 15570 16289
14782 35681 17128
62582 26163 16619
62713 28231 10929
11765 3068 15443
35150 19100 12348
25934 33349 18381
30797 24011 16124
38213 15261 21624
37504 29814 17334
70847 9328 12578
33996 10789 21720
33009 10974 21421
20089 36794 15455
42790 22706 19690
51798 20993 14565
54195 24500 19215
50775 19092 12024
57629 33007 13266
10638 12647 13375
16078 11118 14183
35036 18085 17756
36543 17559 20160
67516 15750 10505
66581 12163 15762
40967 34741 12412
71795 12843 14035
67872 41966 17936
68451 42174 13010
68184 42078 9469
65549 41131 14844
18944 22828 13748
4116 25033 14659
29362 10706 6242
13908 16464 13568
46829 37802 15971
63720 16472 12578
22688 7863 12952
15316 13266 11041
45059 22760 15200
64475 26073 11979
60579 37470 11304
52315 21343 11516
71487 8304 13105
1620 15695 12126
62525 41376 22137
62745 46022 20975
29170 15182 23584
34770 29920 19466
72457 27631 14757
67167 12128 15177
52054 33298 8257
45614 34976 19346
63892 30756 14688
66723 31663 14915
15925 3683 16917
14985 25319 12110
42804 14269 8164
17903 2921 12151
35290 21605 12840
13394 13935 10842
43445 20346 19006
70129 19630 12661
21994 24847 12646
55993 35598 2670
8322 4146 16350
64424 22811 14491
13465 2956 16040
13965 24995 12433
15556 11189 15856
24273 22001 17819
42483 37409 16895
17215 18331 7950
66514 15943 14035
12426 15153 11368
24993 19847 16931
66920 2889 15920
55180 24837 18924
42349 14446 9012
42507 17710 15562
9171 1212 17036
67928 42715 21443
42577 16105 20112
31312 30610 12238
23318 6161 17847
48573 37551 15204
57261 27683 20423
34521 16233 14567
55485 25364 17453
57152 27075 12115
14780 10714 11343
47215 26940 13485
48196 38299 15741
51588 36729 18700
25730 15728 21699
80586 7410 14468
33875 16124 11102
70613 10619 14256
41907 30240 11050
32694 17741 10027
36729 17391 21817
52236 20589 14939
31277 30330 18855
73438 13641 16604
78732 11468 13318
12161 10897 14183
30972 13750 20669
52629 19779 13803
44334 20685 15003
45472 24500 13360
42289 18266 15780
33689 12739 12750
31822 15893 18972
24839 12356 5515
18143 13626 10264
12133 11722 11595
68363 13737 19271
36420 32053 15274
51560 18410 18114
16594 23899 14371
38192 15455 19240
36872 31774 12027
42238 24460 18444
41534 29990 15758
7986 26600 12524
57474 37774 9195
18086 19663 21387
41530 29788 14193
53556 23903 13638
11065 17812 17547
47232 16564 14799
36919 29903 16462
10395 26872 15303
6649 4508 17753
64152 24679 17774
69244 7383 13059
44571 22266 9818
65329 44611 7909
65229 31184 16862
63668 30684 15130
34683 20828 18826
61990 29802 18204
33273 16052 14249
70134 38741 17085
45276 22153 10259
45736 16461 10973
52414 19942 15156
19206 28379 8705
39818 29619 13401
11607 15099 11774
58562 5146 13166
20969 6327 16917
44215 15414 10080
27134 19356 22017
55826 34822 20967
51833 22628 17937
58249 33951 13563
65606 23277 18067
62700 26214 18910
39260 29455 19150
71942 18760 17086
70643 18095 12822
40885 30942 16934
37037 30950 12746
31435 29105 9538
4500 3850 13484
75531 22717 12813
41778 17159 18033
16228 3181 13130
14164 3636 15353
59107 18705 12298
51870 19940 19118
65622 18819 18686
41292 10284 20919
41987 20693 11554
43208 22685 10529
76042 20411 14012
34800 18154 11563
2895 5964 17270
26500 33444 13140
18016 14443 10043
17386 15154 21207
31171 19657 19575
40879 27822 18641
76289 24279 13687
44893 11150 7296
43349 19303 12408
52220 21857 18558
64690 26352 11778
42599 22627 9576
13214 14484 20442
37982 13211 19240
42235 15449 10283
58620 46887 22137
64948 35150 21171
64399 25140 17663
45176 16980 12256
37393 24306 9764
22105 17434 11563
4449 8837 13582
6674 6101 16534
33738 15107 9870
34002 19466 20237
63816 9486 17086
33718 13667 16101
21899 29318 12874
58398 47716 12448
16621 13346 11458
32843 27642 19125
60977 42354 17600
35195 13216 11553
41635 37134 15768
70372 35046 9577
56089 25969 11188
46643 29431 11382
27135 29676 18115
64307 2752 12854
54369 22711 13386
51716 20375 18984
11223 32772 18773
42953 12978 8964
70575 39088 10585
61763 41127 12019
70774 18667 17086
20505 28871 18714
53303 20706 11214
25770 33153 14618
19504 13124 5307
15148 13118 5441
35079 18527 12150
59343 47472 10547
9080 23492 13887
27008 17485 21040
15168 15176 23143
25828 31756 15529
47423 17088 20093
53980 25395 17122
52325 21177 16411
45165 20108 13859
61196 21382 14822
58356 17004 13318
65096 24373 18090
57878 5230 15082
62193 45321 22137
13209 13948 23368
3625 24210 13272
774 18060 13646
22752 17756 10793
63886 23430 16133
19262 28292 19127
47865 14282 7206
56069 25614 19935
67851 13478 15711
18860 22882 20821
51123 19247 15169
42799 16383 10474
52673 20080 19022
29650 30437 9723
36287 14340 20492
41502 22991 11044
1043 17279 12571
48750 37614 15623
63015 43649 17627
60907 35527 14729
16176 3964 13936
64876 18644 17050
65331 10259 16888
14474 24288 14906
44283 37709 16218
75348 4563 16261
12666 10136 12410
63068 30485 12415
32588 14534 9060
69519 19028 13105
66414 20272 12113
41360 21178 13331
51774 20805 11077
7971 23032 13226
24988 19051 22901
64556 24081 10484
69531 22917 17081
54246 24651 12967
52490 19850 19353
9460 23606 15940
2211 8117 17970
50098 31398 9412
37112 23475 12275
32745 16903 18864
60440 36982 25796
22492 13151 23178
49723 18070 15761
46320 22917 10694
32323 17121 20517
17850 4470 13102
52663 24013 17588
33729 26196 10896
20632 21914 17393
29688 29452 17737
30526 29393 15067
36134 29214 16355
37298 29173 16335
23374 29629 14133
23733 29644 16551
34629 16562 16644
25546 10697 22238
18964 22834 14759
23736 11936 13102
51245 16801 10737
63919 15708 12578
8421 4105 13827
64419 14575 19845
51465 17816 20639
23909 15867 16856
30734 15642 17413
44887 13115 15673
58041 40408 22137
55457 27624 17490
50357 29373 19193
70607 35799 14294
38258 20370 16350
1032 12814 12189
79421 12760 15243
29208 29374 11349
25985 25886 17838
64421 27002 16603
15705 13437 9486
55673 26171 15128
25572 16969 12476
13994 14036 12856
23744 16269 14665
46456 17804 15561
39219 19963 13689
33155 25009 12344
47370 37688 15102
27306 18902 20862
66665 19516 17053
29971 15946 15468
72144 23243 15920
61708 42910 16478
17570 3830 16466
36809 24844 10844
24010 14564 16801
19344 22867 12938
12215 13106 6184
68947 14034 16236
38524 17882 21916
37140 18430 16739
66421 2890 15827
32708 15184 20237
51910 20263 12767
55821 9646 13809
19820 5020 13184
51824 18646 11610
48924 37349 18669
73165 16324 16879
39837 28684 18963
70334 15190 15555
39617 30945 11941
29758 26884 21184
20081 5337 16768
12220 31803 11202
69062 12723 11905
76253 6301 15920
19292 28856 7496
44955 28436 12456
46966 18271 15403
63467 19717 11972
51754 22164 18874
51424 19227 16289
13300 14730 14183
36557 16843 21817
39204 30945 14772
38857 30946 13459
13199 10732 17519
5575 25050 12237
31582 14621 5777
25301 25521 19373
63302 44119 15772
51896 33089 15224
41909 18330 16875
62440 15072 13105
20043 14064 20016
51074 36375 20051
27018 15910 8188
34757 30077 12333
23036 29973 19473
69905 15797 14714
19168 4482 13066
66405 16997 18398
56746 12044 16592
23673 11334 20521
57695 35245 12371
40479 29291 12008
60331 31751 15573
9949 913 13338
35787 21651 9635
62969 38596 21748
33101 18288 19705
26583 18970 13986
60867 46904 7906
41064 33103 12055
35345 21344 10459
38931 19486 16778
69904 40499 16928
39853 29675 14519
44568 12016 22144
67826 35182 22137
67970 36077 22137
56748 30195 12256
34306 23272 18118
61749 42940 10959
3993 23045 13446
27925 31782 11662
6115 25849 17223
42570 12522 11599
61357 39937 19667
54321 24928 11149
68382 9965 15431
67760 0 14516
7468 22587 14658
15578 29615 11042
56606 35555 11136
58236 41055 10764
13725 13095 19488
42429 29527 12156
71735 17121 12578
67041 43435 18045
26224 34437 15179
19481 26545 7967
53757 21746 15142
64103 13249 19811
15411 25888 17931
57439 38980 7498
11489 11908 14452
55407 26300 17546
66691 20900 11930
41719 20987 16667
2861 8714 12245
64541 17591 13104
37867 23169 18499
74878 14374 12578
24567 11909 12366
65108 25432 18780
57324 41189 22137
61821 41659 18761
13622 26643 17398
52409 21450 15506
79274 14460 15770
15430 16818 11328
44710 23027 13131
63265 14625 18366
62331 21539 14504
51878 19619 11128
23988 12593 14607
29869 24322 18904
40069 31816 16427
22484 28048 12256
33654 16662 13463
23164 27887 13244
27483 25668 17009
51926 20243 18373
46983 17499 8976
23348 14551 16758
68364 37734 7846
25340 36149 13247
65485 39394 22119
24347 10932 17757
27196 33867 12747
23679 21501 12932
70074 11123 14881
3855 4511 13218
11416 34684 12583
76618 19771 15392
14630 13603 10842
52728 32568 8354
57874 44140 7846
64521 43992 15829
18784 21520 21242
35051 30092 17501
53346 30119 19069
53216 21697 19145
28476 31492 12010
59087 40167 10692
39684 29862 19468
27771 28195 12427
20827 31855 20587
43850 18064 15964
24263 30569 8973
30637 26369 21092
13126 15473 18270
64153 13835 19845
53160 22840 9700
26606 31449 9845
12194 3034 16474
77707 19217 15003
77079 5907 12888
29896 15506 11857
42849 37632 15910
14128 32197 19528
69530 16094 15361
57288 31395 12438
52643 21798 15617
59147 18444 13630
26677 15262 14950
63972 25637 12123
39631 29249 18546
68956 7009 16586
51614 19642 18545
44962 28146 13949
26242 15501 25218
13176 23778 16375
41630 36565 17315
68428 12092 14108
39174 31682 17953
53648 43509 22137
37195 31999 14169
48020 18811 8895
47768 30006 18426
22688 22057 12333
41703 26052 12148
53820 36443 11363
34251 10235 22137
55358 28321 11212
61491 2417 15883
54779 26280 14419
15414 10379 10793
57754 23092 15461
20598 15343 9965
62455 15180 18366
32326 14044 10234
69002 32947 10996
15024 29410 18684
32220 25494 19161
53048 21147 18552
28487 30967 12445
34237 30955 15734
31237 30961 14724
30548 30963 13923
25775 14302 12285
22938 8882 16270
44291 22601 20227
37729 14077 8607
17970 3994 15381
3547 16817 13102
19260 21777 16144
27491 20133 22485
42956 13717 8316
45364 13530 16839
45848 16966 12230
52709 22878 17607
56980 35549 17910
55476 26035 18881
63707 24348 18633
15606 35868 17385
26533 30916 10267
16555 27862 17084
29914 26616 10974
55617 27035 12664
61902 32834 11186
61905 46428 14425
71660 3726 13318
58999 41600 10637
72844 27476 14490
2692 14744 16351
74170 4927 13449
22603 34368 19291
76042 21254 15900
41070 16201 19240
23516 17895 17416
53742 24266 16949
25813 35639 15668
61331 42435 11771
12175 16161 22872
68563 12970 15892
12690 25652 18021
51123 19744 17169
31938 13423 9149
31260 26061 12374
2281 7166 12628
15095 423 14100
55401 26426 15931
61711 29937 12863
70660 36136 9984
19408 14778 21287
53564 21034 11480
24849 30920 21077
20726 13083 23313
14491 10582 11872
65039 23531 14163
64520 14474 10824
10754 13401 16297
32406 28712 12321
42502 30707 14903
65943 44221 11846
55804 29693 17206
69593 19769 16870
69000 11457 14487
55649 26489 11961
54228 29398 19249
44380 23511 16820
64633 18050 12578
42329 18909 13860
70443 35186 15753
60637 36841 18655
59667 47368 21059
60868 46904 13572
42488 15856 8755
48031 37602 16282
57805 12355 13677
58397 13017 15754
64540 24850 19453
59114 32308 19128
20974 33847 10710
28747 15920 11220
44347 24152 19796
36743 10198 20997
42072 24904 13733
38886 18422 20056
62527 31540 15001
68070 13821 15194
70258 39821 18218
40757 14295 21575
44320 18841 13875
70035 37810 13583
70035 38261 17073
17600 24814 21551
70812 37539 10140
17042 11708 19242
31822 23730 17772
52302 20562 19372
41974 18362 18140
21273 14198 22629
72993 4178 13529
30738 31748 11074
3471 24209 16523
9287 4458 14588
5927 20524 15360
44471 19611 14227
67451 15752 15555
16750 27503 12517
25917 13290 21197
35949 22131 9533
60719 31994 15250
19631 12512 8320
44202 26051 11035
39281 16875 21817
55225 25126 12982
62115 46331 9338
47392 17477 12885
44633 27511 11412
10387 11879 13716
39574 33131 13492
35585 31730 11383
42795 36479 18355
6594 26457 16470
77013 3053 15504
64741 23562 15324
81516 10135 14071
40795 12795 18783
56881 8713 12879
55350 24445 18019
72730 23347 13899
44502 11504 21018
74657 2470 16422
34596 15184 17303
48534 38107 13959
27912 16382 11286
24180 14170 13094
69309 13992 13416
51157 19543 18986
4005 22571 12731
45079 17835 11507
67122 41697 12810
64864 40885 10846
65237 41019 10613
67544 41848 19040
15751 14170 18298
70202 17653 16559
61457 40493 7846
64367 26084 16730
43298 26019 11576
21105 5175 17836
15976 942 12790
52794 21582 18343
58181 43572 22137
39766 18780 18240
61202 42525 12993
13304 13626 10043
57947 15748 13330
67659 17180 12878
64271 27749 11454
53720 36564 11767
34685 20477 13364
30901 30050 11582
51685 18724 16468
62155 1681 15007
15744 23480 13208
43251 22906 11368
12420 23678 14336
19525 28292 19614
12128 11675 12190
24980 28954 12479
64269 25127 12795
33340 18777 10269
64455 9600 13105
54995 25872 18936
67135 20647 11990
24460 8741 12167
5918 5852 14444
53624 22186 17828
45450 14805 10474
23702 11008 15299
55624 13566 13193
45183 21321 17751
10238 32287 18546
13162 17529 17722
65808 2984 14218
27344 26803 19253
1501 17764 12299
2560 13897 15926
23281 12265 14787
36213 19222 13799
43679 15442 10592
33149 29589 10630
54045 23933 12539
52085 19412 13995
41258 13704 10889
60082 39155 9795
77783 7725 14142
42555 17331 9469
51927 19173 16668
29997 10027 6701
18358 23775 8164
70405 19187 16742
69319 423 13321
63135 40974 11228
19231 28464 9587
35241 19019 11680
24418 8705 18000
56073 20504 15422
6255 21721 14194
36127 23292 13173
35207 23316 12796
40864 23394 11711
13604 15752 7306
51782 19325 19539
46331 13141 20998
21423 7702 15376
56934 26678 16245
41056 23934 17506
78491 5733 12839
68593 41112 22137
55788 29856 10767
55732 29569 12805
30071 24267 18042
34452 12826 15271
63430 15907 18769
71334 39318 15610
10824 13533 15430
23082 17450 10793
67152 8526 17086
63036 36278 21114
9543 3662 13758
39589 19692 15924
44452 23729 18916
58070 39352 21720
15243 3115 13102
55017 24993 14060
60280 33110 13608
53305 21647 11024
55186 28007 15357
46291 22311 12283
63513 14811 18944
23062 18094 14905
22005 7414 15948
25807 29570 16287
30740 29408 17060
26538 29561 17743
33670 29311 17447
35198 29248 16546
22989 29634 13375
35724 30001 16923
62030 26615 15667
64649 24578 16598
74251 14832 16851
19568 22345 15706
71334 37532 14029
71334 37044 13896
61692 30863 11588
8966 3694 13036
29724 18406 20196
66908 14139 14460
28044 29332 9082
43070 26212 12117
54603 22821 20299
64549 8420 16739
979 14376 12185
16410 12284 17652
60421 7280 13657
69468 41199 11300
69134 8021 13105
81562 10800 15615
52614 20107 17944
34127 16117 17246
42860 12870 10790
45065 22676 18844
48137 18120 10059
12481 13038 14183
11284 13913 21154
26557 32912 19368
60076 38582 9807
53939 22929 19935
16123 14636 17519
42575 31062 11459
41467 28342 11008
70032 16137 15317
19625 28518 19187
21898 29218 15856
24293 34262 19254
70817 37513 19042
62397 43180 13339
65461 26538 14652
35408 28216 12261
25247 26808 14656
27136 25790 14171
53797 23613 18349
55613 25255 13936
7585 4746 13102
23611 17933 12548
61730 41957 7846
42617 23406 9668
55893 42315 22137
69341 33299 9201
63196 44744 22137
42234 29617 19408
52005 21427 18425
76627 25475 15235
14259 17338 16165
25807 32264 14153
73727 23154 13167
57899 11362 15697
45095 37757 15786
44772 28521 12055
71356 27845 14168
42299 20581 18696
27405 26038 11035
45563 18323 18286
37700 29531 18515
14346 10029 11458
42198 19106 18140
39681 19378 13564
69692 36223 22137
56090 26600 17388
51767 18002 16131
61966 44571 7846
64376 22976 10890
45419 22722 18167
65075 21330 18903
22606 8163 15491
55527 25683 13530
60330 6337 15260
53875 24806 17525
69743 33807 16542
36269 17188 20463
47149 16483 12063
43602 25165 18273
46722 31644 19326
70134 37947 16126
65568 23178 13318
36054 16823 16980
11343 12503 11862
4840 7189 16643
15345 11988 18875
18539 1302 14601
21325 28937 18502
45282 19273 16431
4006 8358 14849
28368 15573 11742
23127 9336 14251
6084 5807 16598
55413 24550 9700
59999 6976 14281
22001 13682 22971
52962 21596 16409
70203 38323 10905
24801 30011 21430
17548 15899 9486
5849 6902 15300
41720 30188 16768
70204 19539 17086
44592 24657 17070
43686 25117 11325
33959 17868 20237
55253 26995 12366
24000 14640 13847
22107 23346 17024
31485 32059 16561
26252 13065 22244
43573 13608 19823
12792 16477 17519
55241 24855 12415
44782 11595 6533
52628 19465 15676
20710 2442 14776
54203 23111 19218
67753 18215 13105
66595 43765 15932
53342 24145 18665
43409 22847 18792
32651 25583 19151
41607 24329 15880
43250 23434 17159
63453 32458 9813
44252 27342 13376
43658 17014 13046
39183 27619 10763
17568 36330 13332
66983 15137 18365
46772 17765 15020
49951 17513 15408
12792 14429 10842
73730 12230 16559
51607 18697 13561
45421 26225 13009
12497 27998 17287
68796 12936 13097
68270 8367 12631
11402 11530 10938
14469 17268 11379
16744 30077 19466
55585 24954 12057
26293 15471 27556
21084 21144 14816
30967 30142 20431
2591 23726 14963
54607 25424 16397
37627 31985 15794
13206 24446 15850
29374 24823 11291
53327 34385 15529
69722 27143 12477
55899 28894 20196
48147 26810 20693
32085 10284 7727
62351 26926 15027
27703 23099 11487
77658 7486 14694
11291 26688 16746
16084 12981 23063
74590 26238 13077
58030 32892 14878
10818 16124 12394
45134 18886 12521
66996 11197 14303
56698 30702 12243
41296 18963 19184
43622 14823 9596
65925 17458 18819
6262 21736 16402
30689 10474 22036
68481 42130 22137
16751 3551 15617
65283 42394 13987
36054 20057 14253
19448 29699 10728
56529 37239 25722
55393 26100 11601
44046 30114 18733
51692 21242 10153
5536 5881 12876
50757 34759 21383
45872 23575 10637
69487 33451 12068
43111 23226 12463
34127 18103 15894
40768 31148 13947
66114 20677 12138
52619 21141 18444
44609 16782 17696
62662 23905 12730
34127 20347 15303
21485 20599 15390
52262 20696 17471
18943 11953 22429
31724 29449 12154
67522 18102 10658
54858 24989 17647
15756 26068 17676
64019 9658 12578
39572 19784 16778
3046 18380 12410
33256 16068 17407
17554 34875 18970
346 17292 15541
19446 29382 8594
36571 18476 16778
16755 16375 22807
38690 26856 10782
67058 27209 12519
55990 26830 15105
6258 23333 12140
53691 22479 15201
12913 11126 15221
16633 12438 21280
19471 26494 21744
52892 19972 14793
71299 19207 12578
71034 13863 14303
20012 11317 11563
73620 24656 16554
15217 11773 15856
66090 33128 8525
57355 42271 22137
16333 11761 19597
79442 15628 16224
41932 13721 19240
58238 16082 14258
35716 13171 11618
70723 17935 16658
40593 18009 12222
54263 24804 11734
2609 14250 15718
57809 40900 7846
48661 27080 14077
64407 40721 18630
65349 41059 16380
67999 42012 21537
64039 40588 17375
9006 22749 15031
24110 20851 12862
37153 23595 10984
28909 29502 18931
37341 28203 10149
56771 46228 22137
68523 11079 15935
45746 22585 18764
22193 7641 16346
38380 16943 10793
29050 24828 18916
54637 22499 19964
59966 19892 14120
30578 30733 10221
34716 12729 13070
39128 12799 14618
42560 19138 17497
29666 31508 19427
17073 15880 20922
3347 14837 16005
22100 13627 5835
50693 18508 17782
62816 20100 17061
13048 33741 11300
40426 29748 10477
25824 28832 21531
19701 5055 16148
35041 30495 13805
16254 16196 10043
67690 23596 13691
70749 37955 18046
35689 18098 17303
58082 33532 9068
71648 3078 15104
8890 24498 18043
17747 36246 12583
13204 2732 13061
20589 29514 11238
61700 41135 13827
70977 40918 15520
32014 15094 9018
56332 29090 16971
35036 15520 17358
69972 35318 7846
43034 37478 12318
55350 35398 14830
60398 39193 9394
28961 29135 9184
39769 29663 16471
60377 40590 18690
36467 19987 13632
43411 24915 11801
17150 3700 14491
35009 20586 19330
55380 13722 15691
51607 17809 15795
12008 16661 17572
34838 20715 11290
65651 14282 13206
5967 26365 14922
68538 7446 17086
77305 19640 14018
45956 37760 16823
54355 44393 2620
18244 27683 20895
16038 28386 14446
63451 10756 16559
34923 21679 18729
53168 22346 15886
79326 11374 13253
41544 22969 19909
36452 15661 19240
41254 26171 10734
53982 36663 14367
41204 28114 18939
18721 22533 8866
54217 26245 20069
23244 11621 13102
38346 13520 10157
65832 39667 22137
20733 14235 22744
25380 16799 22554
68063 24105 14395
13388 26114 17945
53123 23510 13739
24297 23421 15168
21466 23100 12294
43296 18447 11098
63907 27586 18132
68490 12665 14693
66987 16477 18508
31198 16815 18900
71877 27726 14101
15371 12749 22598
27752 24844 13301
2878 15298 16917
110 13327 13492
17769 26367 15554
44169 22406 20984
59073 4009 14239
28423 30967 19294
26544 30971 15971
31054 30962 16360
26290 30971 17610
41386 20831 18673
63417 15860 11187
59289 34329 13795
65063 35308 8731
67133 43367 11437
65318 8675 17086
54924 23700 15324
3609 9194 14090
34265 30955 18742
32012 30960 15500
32503 30959 17258
34228 30955 14224
68499 7585 12578
27783 14903 21018
8519 23260 13991
23345 22704 15529
70680 7340 17040
33530 14274 11563
41401 19287 17273
11600 9204 17525
55826 26483 19536
54403 31262 21024
18311 29992 18322
888 18621 14373
1085 8192 15729
66793 26164 13028
57524 32243 20659
53409 46868 4070
68505 14352 16247
72751 23335 15621
32362 24332 19171
16530 15805 9707
58128 19319 12727
11594 16268 17634
58310 21750 15771
61130 30718 16717
41443 20109 14215
69217 12734 16342
20398 14688 20363
55444 24708 15046
74955 23595 12727
12616 2599 17423
41222 20348 13940
18816 22703 13102
56302 27800 9700
57512 32029 15829
64351 15399 16559
40345 33054 17208
70035 40326 12757
49379 32066 9568
23643 27184 18500
39069 13024 12051
54021 22269 16783
43547 22105 17639
69323 23668 15175
33548 18716 20237
