ply
format ascii 1.0
element vertex 2763
property float x
property float y
property float z
end_header
19431 1009 61804
4236 36426 62790
7446 26795 62790
5827 34851 62790
2680 43279 62790
5066 35148 62790
11492 17264 62790
49365 0 786
33950 0 567
42753 3453 39500
37207 1548 1341
48027 4696 22390
51860 4696 23149
51191 4696 18701
52910 4696 18655
51528 4696 20098
49689 4696 19629
7982 31025 10190
7077 34401 25892
9493 25384 18810
4286 44817 23149
5990 38459 20923
7503 32812 16876
8612 28675 18563
10148 22940 16712
4278 44848 14625
13283 11241 18368
11104 19373 20321
5459 40442 22067
6785 35492 20831
6492 36585 9055
11370 18380 15205
4752 43076 20337
5377 40746 6848
6036 38287 11138
7653 32250 15509
6343 37142 10427
5300 41035 23200
11950 16215 15961
6120 37974 12048
10840 20357 21048
11197 19024 17080
9362 25874 15227
7882 31398 18541
8629 28608 15128
5152 41581 20477
8717 28283 16819
7791 31736 19940
9182 26547 19054
6998 34697 21207
7032 34571 25085
12107 15630 18929
8461 29236 23179
4981 42224 14687
6323 37216 26611
8272 29940 10240
4384 44452 11436
12064 15791 18238
9321 26026 19812
4745 43104 22472
4794 42921 23985
6856 35227 13246
5401 40655 16492
6894 35084 10626
8160 30359 9797
9323 26019 15967
39546 1920 62790
46445 863 62790
50334 180 62790
51795 109 62790
53062 164 62790
31375 0 19695
51065 0 25490
21084 0 18060
34192 0 20229
49279 0 29413
38101 0 31218
22831 0 30660
22296 0 13757
28641 0 16413
30393 0 22356
41721 0 22510
56254 0 30604
19873 0 8513
30279 0 11266
48186 0 29795
39941 0 21429
47984 0 24385
21393 0 22868
43809 0 31348
49026 0 25983
18396 0 6628
18914 0 16700
18823 0 5888
20940 0 21259
31408 0 31249
22996 0 13935
27713 0 15667
24193 0 13700
30811 0 20463
32510 0 23572
42999 0 23062
17783 0 26531
23929 0 18865
31791 0 17348
26709 0 23786
30295 0 29947
15884 0 4733
42808 0 20329
40846 0 23587
44757 0 29754
45822 0 23235
19614 0 20599
15561 0 8540
29551 0 15503
20712 0 7978
36662 0 21569
32111 0 13717
30424 0 20932
20910 0 10295
23709 0 29109
37908 0 27227
34220 0 23108
41685 0 27220
35312 0 29622
18285 0 28784
15332 0 10887
37877 0 25036
26702 0 18477
24973 0 12648
25582 0 22264
40251 0 26999
20368 0 29802
16722 0 18519
41178 0 29374
12409 14503 50346
9841 24088 54246
13301 11174 49722
8525 28997 55085
8723 28260 54696
9713 24566 55604
13132 11806 49551
7052 34496 57315
12169 15399 59196
9485 25416 59139
10667 21001 58531
11500 17895 59601
25761 0 62678
15036 1567 59720
33150 3092 62790
39995 509 62790
55981 397 62790
40194 1507 62790
13829 9204 11768
11919 3860 10744
12716 4074 4204
12964 4140 19418
13231 4212 6177
13411 4260 1459
60602 4696 15620
60427 4696 18141
58985 4696 13554
59557 4696 22739
59728 4696 14987
1901 47924 169
14496 4551 15337
14589 4576 7778
13866 4382 18676
12717 4074 23319
53730 4696 48780
50264 4696 40524
48911 4696 44761
48027 4696 43571
52776 4696 52034
49568 4696 43396
6063 38186 14058
4403 44377 26347
4011 45844 25501
4113 45460 29203
10853 20308 18720
9157 26635 17398
7733 31953 8983
6828 35332 26494
5338 40893 13755
8529 28982 11538
9006 27202 14881
7292 33599 26578
5102 41768 11819
6223 37588 11268
11612 17476 17778
7591 32484 9530
8154 30382 14684
6698 35814 14689
6832 35318 15476
11093 19413 18480
10664 21017 15210
8167 30335 11450
13114 11870 17605
9098 26855 15858
7965 31090 16217
8776 28063 22647
11649 17339 20000
8663 28480 22989
7536 32689 9000
9901 23861 19726
12473 14261 17522
5926 38699 28576
6055 38216 25674
11244 18851 18465
8430 29353 18886
5212 41364 14954
5052 41959 23711
8997 27235 14128
5534 40159 5801
9974 23591 16064
11940 16251 17281
3384 46021 52150
17341 0 61946
35213 0 62095
12193 3934 39049
13256 4219 61031
13473 4277 56973
19743 3516 62333
12295 14930 7626
13450 10617 6466
11490 17932 7796
12569 13904 7690
11497 17903 6715
8338 29692 5441
10004 23478 6262
14255 4486 28968
14121 4449 23333
14756 4621 26427
13000 4150 29145
14716 4610 17839
14472 6801 60943
3792 46130 27190
7794 20310 62790
14176 6968 62790
10290 13664 62790
9868 18708 62790
13378 6399 62790
6129 26240 62790
14476 6787 12316
58145 3793 0
43106 1198 0
43923 2333 0
56496 3064 0
27877 940 0
26774 665 0
59234 2863 0
47871 789 0
55014 2475 0
20403 3936 14207
20403 3613 11945
6402 36921 91
42753 3922 21821
42753 3943 19543
60654 2417 43704
60654 2661 48620
60654 3871 32863
60654 4198 51370
60654 3202 43841
60654 1609 38461
13239 9770 39695
34035 4580 4025
6129 24978 62354
9802 11272 62319
5992 38451 60183
12341 14755 61394
13413 10753 60805
44506 2309 0
3368 48244 52744
3735 46874 52313
3478 47835 48249
3558 47530 49770
14527 6598 29415
14154 7989 24470
14119 8122 25235
55035 4696 19721
54305 4696 16452
55431 4696 42975
37730 2325 1341
13586 10111 61301
6232 37552 60226
8058 30740 60446
57344 4696 36137
60072 4696 40317
60065 4696 44668
58959 4696 34608
59260 4696 40393
7705 32058 39912
8429 29355 49892
3957 46048 56707
9092 26880 46528
6786 35487 44790
6026 38323 41389
4788 42947 52570
10320 22300 48329
7061 34460 51328
5028 42046 47595
4884 42585 46677
7857 31492 39864
6182 37743 52534
13026 12201 44160
9151 26660 50746
5560 40064 35202
7155 34112 54438
4422 44311 52328
8288 29884 38972
9315 26049 50023
5554 40086 51609
9403 25722 44414
6456 36721 36299
9709 24580 45622
11146 19217 42358
10663 21020 46390
9625 24893 41179
8576 28807 41082
6640 36033 35322
6744 35646 50387
7794 31725 40887
10351 22183 45350
8122 30499 39100
6002 38413 35831
7503 32812 48360
5915 38738 55014
9175 26573 48683
6291 37336 55320
8863 27736 42004
7662 32220 37660
7831 31587 43680
4918 42459 53540
4255 44935 33960
5442 40505 40160
6694 35830 41013
4891 42556 55380
6109 38016 46165
5752 39345 56271
7131 34201 41139
7373 33298 37854
6363 37068 45067
47365 4696 26446
46729 4696 26717
50750 4696 24114
5967 25585 62414
10078 23200 9694
6439 36783 5404
12789 13084 11831
9582 25054 7734
12101 15654 10409
5031 42039 3576
11777 16862 9173
7845 31537 5854
15036 3918 45525
15036 4651 56684
15036 3230 43336
15036 1820 54453
15036 2064 60871
15036 2398 57764
15036 1793 58870
55582 4696 30963
56515 4696 9766
6903 22093 832
54650 4696 28930
5231 41293 2673
7445 33029 2314
10499 21631 2656
13795 9329 46430
13738 9541 14996
14667 6077 1860
2895 48668 55379
2564 48579 50697
2823 48649 41819
2631 48598 42898
13840 9161 42134
12520 14089 62014
14949 5023 62311
12723 13329 15122
13217 11487 13884
13563 10194 17172
10994 19785 12269
10392 22031 11609
9723 24526 11547
10800 20508 10810
12054 15828 314
9660 24760 412
17270 4696 15101
18516 4696 29581
15202 4696 29785
16936 4696 12001
16052 4696 24129
18446 4696 23211
15834 4696 23158
54786 4696 23474
58722 4696 61141
15051 2076 61954
51229 0 683
14652 6130 43941
14886 5258 41267
14526 6603 46040
15351 4696 46159
16584 4696 43896
17779 4696 34850
16485 4696 39351
18778 4696 36470
16967 4696 47865
15231 4696 54040
19512 4696 33121
19069 4696 27735
15096 4696 24673
16959 4696 29646
19396 4696 26830
16122 4696 26187
16052 4696 11232
15499 4696 9440
53415 4696 3761
58099 4696 2733
25231 4025 49326
33950 4025 52426
39553 4025 42145
39134 4025 39244
35871 4025 38611
39135 4025 34086
29575 4025 52900
40529 4025 54390
26733 4025 57655
38464 4025 25027
41191 4025 31344
35502 4025 39734
34399 4025 55917
35587 4025 25315
41294 4025 49968
38758 4025 57841
40767 4025 53059
37063 4025 41413
36854 4025 22415
41508 4025 38378
42372 4025 17464
40628 4025 21158
37919 4025 41926
42380 4025 9904
38080 4025 43206
42507 4025 16287
38774 4025 17855
39870 4025 58016
38811 4025 42707
40674 4025 55934
32273 4025 48948
33981 4025 58765
41900 4025 49968
33802 4025 34430
29088 4025 51529
36315 4025 27996
37864 4025 29645
42292 4025 23074
30035 4025 41697
35466 4025 40658
39617 4025 41446
35453 4025 27333
39711 4025 26879
29570 4025 47786
40714 4025 58161
23420 4025 57831
41592 4025 35109
37582 4025 25665
29223 4025 43015
31155 4025 40305
37546 4025 47150
33899 4025 55437
35230 4025 49278
41893 4025 32965
42340 4025 10498
24395 4025 57321
38944 4025 26612
27913 4025 52446
15036 3652 57824
15036 619 60101
15036 3539 53172
15036 3380 60981
15036 2440 50775
9732 21997 60107
53034 4696 19932
55646 4696 9073
54081 4696 20549
11946 8487 62790
11127 12919 62790
14319 5425 62790
4449 32209 62790
20619 4232 4025
46283 4696 2300
49121 4696 2553
23180 4696 3919
27596 4696 3728
60654 1464 10674
60654 2434 6480
60654 3597 6700
60654 1189 17647
60654 4132 2839
40257 4696 60771
39105 4696 60414
18099 4696 61891
20413 4696 60199
20665 4696 61846
45562 4696 61414
16095 4696 61392
37607 4696 62390
21121 4696 62191
53184 4696 25938
8756 28136 31282
10408 21970 26673
9342 25951 26264
12826 12946 24872
11843 16614 23312
12385 14592 20366
11990 16066 20713
12515 14106 26986
10824 20418 31223
13463 10571 20101
12719 13348 23023
8805 27953 26026
9376 25823 27863
8674 28442 29237
6276 37392 30548
11069 19505 23483
9607 24962 28336
13354 10974 20473
9153 26655 28769
11995 16048 30464
9690 24650 26542
12120 15581 26859
10206 22724 30584
20403 3473 43962
20403 3705 42574
45199 4696 27646
18095 4696 5302
18387 4696 6134
20363 4696 24932
16959 4696 5440
19209 4696 17349
19322 4696 22676
15941 4696 4960
12077 3903 48638
14139 4455 54094
12083 3904 59891
14259 4487 57971
13873 4384 60913
6272 24447 61967
11211 15198 0
13121 8404 0
13218 7514 0
13678 6794 0
4752 31383 0
9646 17674 0
11926 3862 11358
13198 4203 14280
14639 4589 1433
51356 4696 458
12548 11876 2683
15036 997 20940
15036 505 6373
15036 2353 18682
15036 592 21608
15036 1105 25007
15036 122 25504
15036 728 30279
54459 4696 45508
52887 4696 40845
54020 4696 40677
32148 3367 58765
17009 0 351
53740 4696 31437
60056 1544 113
42638 0 551
49687 4696 2238
34109 4696 3205
5320 27998 38607
1170 43489 34430
6673 22949 33307
242 46952 36418
1067 43871 56158
6836 22342 37551
6212 24670 35115
349 46551 55834
1398 42635 39001
2066 40140 39925
325 46643 45237
120 47405 41387
81 47554 34827
6286 24396 32581
10372 9146 31975
501 45984 34077
2393 38921 48784
2693 37801 42859
1922 40679 42848
8347 16700 37508
2984 36719 33924
1161 43522 56957
5766 26336 40864
4331 31691 39278
8757 15172 38136
4512 31016 48075
2186 39695 41406
10237 9645 33961
88 47521 54212
201 47102 50166
61 47628 32531
2802 37397 37559
2086 40070 33512
2481 38596 43479
2165 39775 47530
853 44670 34544
2963 36793 49981
4927 29468 43553
915 44438 47163
3380 35239 34373
1025 44030 51934
2016 40328 32225
6711 22810 39198
6398 23978 31458
6539 23451 36828
5310 28036 40723
5470 27439 32742
4041 32772 32957
1837 40999 40488
8922 14558 38548
4381 31506 33668
10325 9318 32822
5346 27902 35569
146 47307 39328
3716 33986 40039
3775 33767 44674
3683 34110 40876
3642 34260 31796
4172 32286 45894
2741 37624 33538
467 46110 43095
2182 39711 43352
1251 43186 31403
8460 16280 32143
1152 43554 55545
60485 3511 464
3657 46094 8050
37940 1968 62790
27525 1019 62790
41456 338 62790
23145 621 62790
57944 542 62790
41151 1724 62790
53263 716 62790
48973 2955 62790
14395 7090 52362
13896 8951 36953
13944 8771 44024
3960 46034 62537
14924 5116 3394
13779 9389 5558
14495 6716 7402
15036 2267 59281
13924 8846 130
25437 2115 0
44528 4213 0
32082 2114 0
38232 4355 0
33777 4099 0
52789 4101 0
23356 1689 0
24344 1073 0
30626 1631 0
27300 1762 0
43655 4696 32371
47748 4696 57059
44091 4696 51183
47101 4696 42741
46685 4696 44915
45143 4696 40679
48393 4696 50798
46310 4696 54460
50825 4696 53111
48049 4696 52854
46115 4696 40872
49504 4696 47603
49779 4696 50296
13567 9858 18666
42753 3430 23002
42753 4462 28357
43302 4696 31592
20484 4025 8597
26490 4025 36426
25659 4025 33387
24061 4025 22951
33659 4025 9600
27659 4025 19169
35358 4025 15717
26029 4025 36088
23328 4025 23340
25308 4025 31346
29906 4025 30165
26716 4025 42279
34647 4025 4698
25646 4025 32843
23800 4025 20591
21183 4025 7820
21159 4025 20418
29098 4025 28755
25235 4025 22883
21632 4025 23304
28973 4025 22186
31459 4025 23716
29436 4025 5725
25521 4025 28545
21814 4025 8076
21697 4025 50640
36112 4025 11914
21850 4025 54939
27030 4025 40610
23745 4025 18055
33591 4025 12248
24367 4025 5493
24148 4025 35073
22252 4025 45691
28827 4025 28245
23068 4025 50459
30348 4025 22385
41377 4025 4641
22770 4025 12645
22048 4025 18361
22987 4025 48634
28176 4025 8900
21578 4025 27073
37958 4025 8050
30776 4025 19033
32088 4025 29170
27067 4025 29454
25290 4025 7412
31409 4025 14007
36625 4025 9741
24045 4025 13540
31483 4025 29293
37117 4025 4676
24906 4025 35600
33711 4025 15287
33375 4025 7516
28020 4025 36996
22120 0 50933
32716 0 35221
27545 0 37669
53766 0 34110
48451 0 35085
23422 0 51656
18020 0 43469
45236 0 40645
21064 0 55057
30803 0 42834
35695 0 31716
28973 0 34636
47146 0 31799
34732 0 34436
41123 0 32128
20863 0 51855
48305 0 32662
27754 0 33835
16941 0 39954
22953 0 43008
18560 0 37011
19111 0 37384
21818 0 35048
21002 0 48293
38878 0 35556
23984 0 52499
17950 0 54001
39612 0 37420
35878 0 39113
44924 0 34724
23953 0 35088
26990 0 42041
22941 0 55683
50311 0 37210
20227 0 56800
30988 0 41599
21138 0 46534
21987 0 46213
15654 0 53312
34528 0 35721
31180 0 49698
18954 0 51501
31141 0 39370
17877 0 36190
15698 0 48387
24784 0 49041
19427 0 32137
19874 0 42886
21974 0 40760
42949 0 33279
27954 0 37016
15989 0 36462
45975 0 33024
31950 0 37128
39621 0 39702
50253 0 37948
36496 0 32759
24741 0 40837
16265 0 42835
34409 0 42092
59073 0 31415
17521 0 40174
15256 0 51413
60654 1196 4115
60654 1510 14201
60654 1888 19014
60654 2306 12054
60654 1118 24107
60654 2759 12353
60654 4382 2066
49951 4696 27282
46750 4696 31296
42753 4677 27848
15036 2619 27579
15036 3653 29054
15036 389 28382
15036 993 26598
15036 2680 22171
35922 0 56155
57300 0 36200
53940 0 58093
26014 0 60501
39997 0 47188
30147 0 61658
52457 0 54959
23143 0 56736
51945 0 60540
53558 0 43142
60445 0 36481
49975 0 44077
52218 0 38364
44119 0 53237
35887 0 55434
55778 0 48832
39392 0 47218
59719 0 46379
39634 0 59362
38233 0 54347
57685 0 57882
51246 0 41573
48430 0 59778
57787 0 56922
60013 0 47711
29575 0 58531
39656 0 57477
34036 0 53981
57094 0 51123
59355 0 40737
33886 0 51771
46602 0 46479
48906 0 53306
44147 0 58600
30543 0 53053
33770 0 56189
58504 0 44451
53519 0 44045
35839 0 49768
56429 0 51207
53384 0 48898
44894 0 46584
58172 0 39881
27636 0 57531
21081 0 58687
26937 0 54533
40088 0 46253
32799 0 54459
55308 0 39982
59588 0 53434
30529 0 58043
52864 0 59509
55649 0 35937
53294 0 45913
42032 0 60755
48506 0 61378
28639 0 58383
55845 0 43336
57393 0 53065
40719 0 59588
57145 0 57895
37894 0 58632
41189 0 45411
53550 0 59409
10710 18699 60107
5132 40124 60107
15762 4696 21215
17063 4696 25784
16837 4696 32029
15282 4696 40650
60654 4108 22798
60654 1984 23080
60654 2438 19495
60654 2555 29620
60654 2234 27914
60654 4146 19044
12952 12335 60107
14106 8169 12264
15730 4696 1350
18683 4696 16062
16910 4696 6478
16982 4696 7674
19578 4696 10044
20187 4696 21680
19370 4696 5844
14347 7269 37045
14792 5604 33433
14178 7902 40357
11992 16059 52216
12242 15126 53660
10444 21835 54538
13411 10764 53140
6315 37245 57511
11813 16726 54263
12907 12644 52709
12405 14519 53742
1474 48288 10474
2976 48690 14091
964 48151 5715
1471 48287 3299
2473 48555 15472
6120 37974 2151
7005 34669 2170
6736 35675 2154
3491 47787 1177
14147 8016 23929
14328 7343 27338
14351 7253 24566
60390 755 62539
60654 3629 19774
60654 3892 9441
60654 4353 4104
60654 3073 25886
60654 4091 11456
13096 9731 12441
42753 4638 43697
42753 4131 56806
8094 30606 53759
12859 12825 48981
9636 24854 51498
10597 21264 49977
12102 15646 48522
9842 24084 50775
9777 24326 53103
13639 9913 47739
42698 4696 58978
43823 4696 59466
51558 4696 60774
16077 4696 62717
56207 4696 43041
55128 4696 37235
55827 4696 44232
49679 4696 38208
49367 4696 37403
45865 4696 35229
52921 4696 36955
57418 1764 62790
53819 2774 62790
42517 3425 62790
44903 3353 62790
58226 1758 62790
9634 15013 0
14195 7121 0
7567 23442 0
5558 29192 0
6265 29624 0
1811 41699 0
4313 34709 0
14129 8082 36866
14337 7308 33012
14009 8526 34141
14572 6429 35888
34165 4696 690
15036 72 38709
15036 2878 37504
15036 732 48575
15036 3448 38632
15036 471 58278
15036 994 32302
15036 389 32801
14041 8411 55160
9072 13998 1535
4702 30306 8125
9864 11041 20641
7005 21712 14738
7464 19999 7095
6142 24931 11464
2981 36728 1299
9557 12182 10670
11193 6082 26302
5194 28468 7341
8972 14370 14692
8968 14381 21381
7362 20378 2521
9361 12917 19967
6370 24083 9716
11358 5465 11498
10028 10428 13391
11027 6700 28814
10731 7805 10845
4975 29287 10875
5517 27265 11955
4381 31499 4475
11299 5684 6103
8454 16303 3613
10499 8670 8774
5331 27958 7137
7028 21625 12767
5887 25882 6377
10557 8457 24018
6643 23063 11174
11629 4454 6227
2268 39389 3631
9495 12419 11557
5742 26425 12750
7615 19433 9896
7651 19299 15142
8300 16879 18653
9666 11781 15973
8538 15990 6778
11022 6716 20901
7122 21276 18112
4886 29616 1091
7726 19020 10637
11213 6008 28713
5643 26794 5595
6434 23842 3664
9923 10819 1706
8931 14524 13427
6096 25104 12219
11497 4948 29589
10208 9756 23460
10922 7093 12911
7477 19952 10096
8418 16436 11210
2993 36681 1861
11039 6657 25110
4525 30968 4398
9186 13570 23939
4908 42494 62059
3663 47140 41002
3813 46585 34091
3389 48167 32671
37840 3329 1341
20403 4692 29496
15036 2289 53125
39531 4696 519
6833 35315 4744
13326 11080 8092
12691 13449 5312
7067 34441 4381
6459 36710 4063
10620 21178 5074
10521 21549 6186
6651 35993 3431
12127 15554 3020
10773 20610 2759
8634 28591 3005
5004 42140 2871
12356 14699 1448
11799 16779 2361
8430 29352 1191
11638 17380 1299
3640 47229 1449
6950 34876 1109
4825 42805 180
13261 4460 311
1524 48301 26679
1293 48239 18999
2198 48482 21818
1648 48334 22430
30271 4506 4025
37859 4021 4025
14760 5730 58951
10536 21494 3876
9580 25063 3326
7533 32696 2821
7380 33270 2929
14439 6922 10186
14564 6460 20149
15025 4740 18628
15007 4806 10795
14744 5789 25715
36792 4696 59751
45267 4696 60482
34744 4696 59216
52920 4696 31550
9173 23986 6727
5551 37503 12078
7197 31364 4199
7371 30713 8228
5055 39357 3216
5731 36833 13052
3972 43399 5461
8272 27350 4254
4542 41269 20492
4150 42733 19192
6781 32913 5301
7904 28723 11110
4912 39890 21030
7598 29866 15080
8842 25224 6468
3613 44735 4790
6328 34603 19650
9532 22648 6418
5085 39243 19319
7737 29346 18212
11799 14188 5393
4063 43053 12842
9805 21629 10371
3466 45287 3015
10467 19159 4199
5140 39040 24819
4290 42211 6433
5118 39122 17931
4418 41734 16943
4933 39810 5498
6989 32137 6298
5326 38345 11955
3373 45634 12286
7910 28703 12697
5762 36718 17477
3311 45864 10535
4827 40208 8575
6326 34611 17604
3742 44252 18697
4558 41207 14060
3497 45166 5131
6543 33803 17896
5816 36515 19367
5765 36708 23968
8909 24972 12551
5621 37244 19356
9856 21440 9765
54061 4696 60274
50194 4696 59052
13480 9834 52129
31302 4025 35403
37936 4025 16804
42326 4025 20708
37389 4025 22985
41857 4025 16028
38047 4025 21091
21373 4025 56697
32699 4025 30004
31975 4025 44580
30544 4025 56126
26714 4025 51031
39941 4025 40397
34021 4025 29772
38496 4025 33737
31056 4025 34106
42467 4025 20103
34689 4025 28480
27427 4025 49933
41866 4025 16825
30738 4025 47851
30457 4025 50098
31769 4025 50889
29680 4025 38314
40198 4025 24720
41438 4025 44732
38341 4025 19968
42099 4025 51867
34619 4025 31384
42296 4025 37702
34778 4025 42871
41296 4025 23465
34124 4025 39420
40533 4025 30164
38757 4025 29722
25378 4025 52373
40909 4025 24983
24291 4025 54728
40136 4025 39466
38432 4025 30997
42720 4025 33830
37278 4025 21487
42423 4025 57367
35072 4025 56466
39217 4025 45262
39392 4025 16234
30655 4025 42274
36954 4025 38618
32618 4025 57629
29566 4025 51130
31170 4025 32970
27385 4025 42666
51072 4696 49001
49230 4696 45322
52950 4696 45694
54649 4696 53727
51244 4696 47262
53183 4696 47228
3374 48222 21512
3687 47050 8868
3235 48740 22457
3418 48059 17085
25871 4025 13487
21497 4025 17501
30344 4025 6703
26867 4025 38392
24737 4025 14763
25865 4025 5490
35124 4025 4281
29210 4025 21627
24314 4025 23868
20480 4025 57911
35626 4025 14432
21937 4025 26122
23794 4025 44702
32052 4025 12193
26596 4025 26318
30405 4025 14539
23927 4025 46118
25345 4025 26258
21344 4025 11230
24168 4025 6045
24233 4025 46920
26873 4025 35907
25887 4025 31908
25678 4025 10662
37400 4025 9940
25693 4025 43153
21021 4025 54840
23384 4025 37447
29220 4025 7751
20790 4025 55587
39052 4025 12540
35493 4025 7946
25602 4025 25189
39462 4025 6061
35566 4025 9696
28506 4025 17659
20783 4025 14733
23533 4025 24469
33266 4025 4584
33956 4025 6978
21248 4025 48119
27589 4025 27529
22328 4025 20790
22529 4025 37476
35935 4025 12992
28406 4025 7763
26046 4025 17280
20421 4025 19487
31026 4025 7216
30803 4025 11198
3523 46059 33052
4079 45592 62004
8388 29506 62224
9691 24647 58272
11901 16399 55376
7690 32115 58418
9745 24445 56162
12372 14642 56716
6773 35533 59056
7425 33104 57967
1470 48287 30886
151 47933 29899
1745 48360 24493
1846 48387 29585
15036 1753 9161
15036 2730 6159
15036 4021 10386
15036 3869 5886
15036 3614 17450
15036 3546 19616
15036 4157 11433
7366 20365 19556
9557 12187 21077
10824 7459 16499
10592 8321 25780
5331 27960 4309
11256 5847 9201
6800 22476 14827
4429 31327 10955
8113 17571 8099
5695 26601 9830
4252 31987 8886
8983 14330 18637
10804 7533 27529
11688 4234 30942
4647 30512 1664
7023 21640 2784
4041 32773 7041
7280 20685 17178
8888 14681 1385
11359 5463 15234
10060 10309 21032
7277 20697 5445
11497 4948 22321
10408 9013 14084
4060 32701 4973
10404 9026 4081
7745 18949 17068
8092 17654 9799
3103 36272 5767
9545 12233 23454
9547 12224 12326
10367 9161 8453
11772 3922 3355
5607 26927 8326
3713 33997 3592
9767 11404 24657
7540 19716 6135
8783 15074 10621
7203 20973 13396
11003 6792 12125
6493 23622 9288
5353 27877 9416
11740 4041 9433
4108 32518 8897
5856 26000 11815
11384 5370 12117
10949 6991 19276
7206 20962 7113
7647 19314 4028
6583 23288 15380
9423 12683 24632
5367 27825 6596
7755 18913 8321
4885 29623 7320
8535 16000 9560
10108 10129 23864
5688 26626 3776
965 44252 1849
9480 12475 41253
3720 33973 54077
9797 11293 37837
9248 13338 54901
8960 14413 61235
9939 10760 41702
10289 9454 61512
6689 22890 61338
8137 17487 56669
11625 4470 45595
5833 26086 46965
4860 29717 61899
11094 6450 43915
4796 29953 53999
11476 5024 58701
8550 15944 40421
8943 14472 50340
7665 19247 56973
10379 9120 39782
8360 16652 61677
9371 12881 47266
11689 4230 49761
7821 18666 59069
9603 12014 40881
2903 37021 57955
9002 14260 54091
11043 6641 48632
7215 20928 44820
10241 9634 45231
10705 7904 51062
5251 28256 58143
1476 42346 59776
11119 6356 34055
8715 15331 54151
4221 32102 56962
7065 21486 51848
9007 14239 55393
3397 35174 56493
6947 21928 45773
4510 31023 59330
2135 39886 58703
9379 12851 45761
11650 4376 34899
6309 24309 53048
10927 7072 56485
2848 37227 56100
4535 30931 51735
10556 8457 53349
6625 23131 57814
3531 34672 53314
11769 3932 54112
11589 4605 60123
2750 37593 55522
7081 21428 48722
4344 31644 51020
6886 22155 53563
9437 12636 49835
4053 32726 56977
9493 12427 48913
8395 16524 56118
8013 17951 44692
3510 34753 57956
5612 26909 49353
8858 27755 688
15388 1607 214
5348 27895 762
45414 4696 22616
44939 4696 17318
50524 4696 7690
48273 4696 5625
50911 4696 12781
48045 4696 7974
53848 4696 4426
46172 4696 15765
49153 4696 8059
47233 4696 4170
13553 4362 62067
1278 48235 46307
46 47905 41138
1111 48190 35344
1131 48196 41592
14447 6894 50051
13076 9726 56218
57645 2225 0
57760 1187 0
52211 2344 0
50388 2675 0
58397 433 0
41286 648 0
46750 3245 0
53248 2406 0
40942 2114 0
55293 503 0
10286 22318 0
2391 42272 0
7890 28295 0
4943 41078 0
7731 30384 0
9100 26619 0
7837 31460 0
18336 4696 56861
16173 4696 58923
17721 4696 60077
18877 4696 47432
18316 4696 54306
19614 4696 46405
12190 12728 56706
7971 28473 34437
7033 31972 38771
9791 21683 46446
5852 36378 34510
10200 20155 45785
12462 11713 41956
12099 13067 53088
10522 18951 31951
12732 10701 35147
10707 18263 32607
11965 13568 45525
12389 11985 39267
8288 27287 36175
9873 21376 37951
6264 34844 38576
7292 31008 35055
10035 20771 44376
8760 25531 45037
8836 25244 46879
11407 15649 44835
4680 40754 31922
12934 9951 35436
7813 29064 33196
8047 28185 40026
6841 32692 34262
12484 11629 52986
12908 10047 46102
9907 21247 36827
10474 19132 35152
10112 20484 34558
5588 37366 35330
12356 12108 45993
12806 10428 44049
5908 36171 33447
11202 16414 32475
12394 11969 47600
9317 23450 47139
7670 29596 34774
11802 14172 51516
10148 20349 36735
7345 30811 33241
9641 22242 34795
12412 11899 55874
12484 11629 45029
9368 23259 44416
7883 28798 41181
12709 10791 33032
12285 12375 34360
47966 0 20570
57227 0 26213
57045 0 1974
32398 0 8574
35249 0 7566
54666 0 20203
55251 0 26391
53006 0 1458
56348 0 5094
33712 0 1956
55733 0 12766
55732 0 27881
27307 0 2218
52776 0 2020
33560 0 5121
60210 0 20032
53606 0 18638
46270 0 15292
53767 0 10707
21199 0 4776
53969 0 4903
56239 0 17339
34044 0 11342
55958 0 20912
18946 0 2454
57670 0 29254
47077 0 9461
33763 0 6107
24441 0 1327
52121 0 13775
39341 0 2930
46144 0 9459
32520 0 2781
36769 0 3086
41464 0 13626
54669 0 15356
41724 0 17244
33723 0 10350
35198 0 10498
33920 0 4402
42492 0 3260
60439 0 11631
45924 0 14254
59924 0 15825
39954 0 8135
37860 0 11474
51298 0 12266
58200 0 23204
18168 0 2213
42576 0 12472
55213 0 24707
55330 0 19953
48378 0 12084
32460 0 10665
29330 0 8413
54591 0 3581
17177 0 988
50722 0 22274
27625 0 7405
40177 0 16095
35454 0 12233
51997 0 2231
48243 0 7694
59302 0 3063
60576 4696 25268
60320 4696 28493
59886 4696 15902
58937 4696 30944
60272 4696 29263
58944 4696 14142
59520 4696 52114
59823 4696 53975
59984 4696 36254
59572 4696 48470
59938 4696 37489
60282 4696 46979
13896 4684 62547
16357 4696 827
57047 4696 20006
58293 4696 16501
56921 4696 24882
56840 4696 14397
46720 1751 62790
59011 1399 62790
55360 2915 62790
54600 1437 62790
56593 2722 62790
46440 0 28695
36748 0 23241
15994 0 9577
36098 0 25099
48539 0 23475
40101 0 29391
17169 0 24490
36851 0 30777
27323 0 21243
39520 0 24029
22880 0 7207
21907 0 14877
56102 0 29604
16862 0 22430
37147 0 22295
15841 0 16454
25690 0 21283
36953 0 19470
43449 0 27447
28716 0 23258
21737 0 9533
25434 0 28006
20437 0 27185
15333 0 22594
27503 0 25203
19121 0 4606
17560 0 29006
25557 0 10028
28243 0 30046
40107 0 27947
33824 0 19724
15685 0 24226
45651 0 30465
40607 0 21165
18447 0 20355
21873 0 7125
41872 0 25338
34917 0 24378
16387 0 30366
19988 0 23548
23428 0 20523
16065 0 17839
27573 0 17954
33696 0 17329
39099 0 20632
33114 0 23961
28722 0 15614
30246 0 24181
48148 0 25465
21544 0 16536
15429 0 2392
38052 0 18951
19735 0 4875
27111 0 24471
22036 0 7912
42549 0 24288
35971 0 26864
15379 0 29796
50504 0 30041
9707 21995 12134
5222 38733 5991
9234 23761 7973
6167 35204 10939
3918 43599 12282
5811 36537 8878
10627 18561 9549
6528 33858 14239
4830 40194 25753
8247 27440 15799
9271 23623 5398
12209 12658 4216
11106 16773 6945
10446 19236 5530
8040 28216 11686
4567 41175 24897
5401 38064 21923
5400 38070 6834
8863 25142 4014
4411 41760 11485
3687 44460 4235
4949 39754 22479
8228 27516 5862
7730 29374 4212
6795 32863 20922
4857 40095 15554
4168 42661 10917
5054 39361 15337
6586 33644 18599
10287 19831 3410
10412 19363 6971
3289 45947 25773
5228 38712 13012
6642 33434 20819
6378 34421 14648
8654 25926 2742
8063 28129 7004
10391 19443 8145
4230 42435 17275
10677 18373 7082
7173 31452 15239
3607 44758 8164
11607 14904 6716
9426 23042 8001
8488 26543 9340
53136 4696 106
51534 4696 36716
51866 4696 35196
56706 4696 27048
59498 4696 9616
59140 4696 7428
58001 4696 13143
58167 4696 6470
57751 4696 21632
3353 48301 27976
3855 46427 13107
3881 46326 14852
4904 29552 62548
13158 9748 13594
54815 4696 49574
53835 4696 41394
3313 46002 51034
20403 4456 37210
54369 0 62140
52048 0 62150
3342 48337 43463
3725 46912 59898
3266 48624 50872
3480 47825 57906
60654 2460 47525
60654 3223 54443
60654 2411 50200
60654 405 57092
60654 232 49764
60654 1969 48703
24514 4696 1306
50163 4696 884
20968 4696 1824
47465 4696 1551
36165 4696 1495
36841 4696 1016
20788 4696 2344
30660 4267 58765
14438 6930 61930
12684 13477 62217
27532 4696 1154
49498 4696 1100
32068 4696 1013
17218 4696 1800
20890 4696 2968
23392 4696 2104
7367 29307 62790
4699 35925 62790
4365 43769 62790
1960 45181 62790
5831 31566 62790
13975 8657 53096
23515 4144 0
16118 1144 0
22102 3571 0
34932 2164 0
46511 4129 0
16685 882 0
57035 4633 0
60654 3994 34280
60654 4626 33466
60654 1371 37552
60654 704 31750
60654 1263 35768
60654 3608 42957
60654 734 35223
13946 8765 50579
45948 4696 31297
50948 4696 31295
57798 4696 47829
58496 4696 50285
57051 4696 37314
56830 4696 45987
60547 4696 61467
57826 4696 45609
17408 4696 46581
15076 4696 31831
15121 4696 30453
12736 10689 25260
8107 27966 17751
6276 34799 31394
12068 13184 19379
12991 9741 26939
5891 36236 25215
7574 29956 19146
12284 12378 30687
6541 33811 29185
9272 23618 28420
10330 19668 20483
12218 12623 5196
7995 28384 28720
8746 25580 26422
10669 18406 19134
12780 10528 25806
5204 38800 31059
11742 14401 13221
9291 23546 21775
12156 12857 24734
12363 12081 8913
10416 19347 19630
11008 17138 10198
8809 25346 24699
11907 13785 23452
7902 28730 19321
9866 21402 20450
11231 16306 8673
10955 17336 31039
12671 10935 27305
12218 12624 29508
8797 25390 21543
11031 17052 30205
10401 19406 17272
5265 38572 26316
6145 35288 29724
5998 35833 26568
10218 20087 26136
11663 14695 25909
6576 33679 23214
7875 28831 24567
9701 22016 30601
11020 17095 15568
11722 14476 28457
4777 40394 29428
12070 13174 26216
10080 20603 22691
13725 9592 23161
49445 4696 3981
54166 4696 3365
56170 4696 2565
20403 4255 48446
20403 4212 38297
15794 4696 18942
17508 4696 24167
17166 4696 18061
16738 4696 26344
26426 3407 4025
11317 18577 61625
4986 42201 61601
5206 41385 60805
3373 48227 61710
2587 48030 138
21882 0 33111
21264 0 31441
44409 0 41783
30061 0 44306
44284 0 40481
24176 0 48292
23186 0 50910
30192 0 51239
16246 0 41835
31471 0 35504
46848 0 37400
20843 0 45725
28281 0 41058
21156 0 40657
40938 0 43477
24456 0 42307
36608 0 47037
40141 0 31478
26287 0 33663
22075 0 39307
29270 0 35994
16007 0 33025
24376 0 51033
15133 0 44717
34711 0 31867
25378 0 50937
50037 0 34711
15527 0 54611
18296 0 49412
21781 0 38515
19001 0 47786
16830 0 43696
17806 0 46148
25553 0 39152
31027 0 47799
48966 0 39162
23965 0 44119
16309 0 53929
24044 0 33973
15485 0 43085
22042 0 32593
50071 0 32486
29271 0 49225
25698 0 52266
23862 0 37195
16550 0 56467
43033 0 38625
45979 0 38103
25489 0 40129
23744 0 45619
32468 0 47047
52729 0 32035
25363 0 45495
38054 0 39953
45779 4696 11617
46068 4696 8462
45720 4696 14876
45957 4696 21648
48006 4696 4091
44038 4696 9788
45399 4696 9388
49528 4696 9309
45837 4696 5569
49918 4696 15452
50075 4696 13297
46505 4696 9575
3282 35603 16090
33 47726 20986
6013 25408 31177
9796 11294 27688
2108 39989 18176
972 44227 16000
7296 20625 30332
9689 11693 31062
9076 13984 24501
4752 30119 18100
3992 32955 12624
3450 34980 28280
412 46312 24220
4923 29477 20047
914 44443 30030
5240 28298 16087
1085 43805 28818
3694 34069 19971
638 45469 2969
3365 35296 19872
7882 18439 22418
1703 41497 26227
3481 34861 10485
7867 18494 26307
5158 28601 22732
1245 43204 9766
249 46925 23639
5637 26817 26389
781 44939 17058
7955 18166 29979
3728 33940 15669
1674 41607 31018
6927 22002 21735
3341 35387 10821
2319 39202 15504
8760 15161 24449
2881 37101 31048
949 44314 27053
4367 31554 14352
1864 40897 7287
4133 32429 23429
955 44289 21796
0 47852 12060
580 45689 23504
9309 13111 28965
4415 31378 16539
3672 34151 10480
3851 33483 11857
4413 31381 26417
903 44484 21248
2885 37088 15893
2525 38431 19857
2880 37108 17969
6642 23064 31364
1402 42623 26036
3890 33337 19528
7062 21493 22663
2197 39654 21467
1956 40556 15931
4716 30254 16523
5517 27265 22216
3057 36446 27243
13103 11912 33612
11265 18772 39755
12555 13958 34312
8002 30950 35625
10433 21875 31594
6097 38058 32808
9918 23801 37418
11592 17551 34093
13028 12194 43585
12975 12392 36238
12560 13938 42860
8733 28223 34580
12669 13531 36063
12987 12341 37967
11524 17807 39608
13351 10986 37479
11777 16857 37281
10667 21001 39871
13147 11748 34133
11407 18241 37633
11295 18662 35291
13231 11436 43822
11881 16474 26272
8521 29013 27010
10223 22663 26035
8094 30606 30601
9326 26010 30512
12893 12697 28701
10607 21228 24383
11745 16979 24422
13086 11977 30456
6325 37209 28372
13573 10158 27783
11842 16620 27663
13010 12261 31317
8915 27541 29144
10900 20136 30324
13477 10519 24104
11629 17412 22373
10615 21199 23107
12301 14907 30337
11976 16118 25770
21287 3777 62790
26519 2775 62790
39285 3916 62790
29598 3434 62790
16589 2425 62790
24703 2090 62790
20967 2903 62790
41428 3867 62790
28771 1517 62790
14991 4865 9774
14957 4995 14297
14938 5066 27933
14872 5312 23428
13842 9154 16589
2186 48478 58017
2576 48583 46213
1691 48346 54717
1431 48276 58117
4133 45388 60452
6298 37306 61684
7977 31041 61830
17298 4696 55638
16303 4696 56889
18798 4696 50856
18159 4696 51315
17563 4696 51397
18536 4696 58186
47142 4696 34876
47359 4696 37782
45916 4696 55008
50061 4696 55385
47311 4696 56209
48451 4696 56391
45324 4696 41389
44722 4696 58409
45892 4696 41480
50815 4696 58511
44876 4696 54368
46108 4696 46785
44698 4696 53107
49776 4696 54544
14147 4457 52855
12719 4075 33938
13466 4275 46884
13964 4408 48904
12693 4813 62
2071 48448 4107
2183 48478 9368
2109 48458 16192
42020 4696 61440
19610 4696 61480
34550 4696 60001
18447 4696 61020
21085 4696 59395
13491 10466 45135
12390 14574 48844
13075 12017 47546
10352 22180 51074
10935 20004 49425
8151 30394 54626
5013 42103 58781
11474 17993 49784
14331 7329 17446
8099 30586 57433
10454 21800 56738
7219 33871 58364
11442 18112 55808
10244 22582 56654
12301 14907 54501
42853 4696 45281
44462 4696 43837
43227 4696 47598
19749 2866 62790
36728 4696 62005
7615 19434 29940
6052 25268 24001
2653 37952 28162
1145 43581 18874
1263 43142 5241
9060 14043 30136
7472 19966 29284
6709 22817 26272
3944 33134 22161
3970 33039 16692
10042 10378 29080
8082 17692 25862
6482 23657 21162
7372 20344 28454
720 45168 3455
197 47121 5386
4430 31322 30153
2663 37916 17110
3676 34133 14260
5736 26449 21462
7607 19465 22565
4839 29793 28132
827 44769 12184
4300 31806 21310
8861 14786 23894
7265 20743 26305
2908 37001 18946
5427 27600 20241
4884 29628 29307
6923 22013 19513
7979 18074 27567
382 46428 30534
820 44796 31070
10108 10130 30244
656 45408 4870
6101 25084 22501
2010 40354 8600
7233 20857 23340
4144 32388 11969
1233 43249 18294
95 47500 30754
3326 35439 9883
6038 25319 28414
6464 23731 27409
993 44146 23340
6309 24310 26158
9095 13911 25941
498 45995 25635
4363 31570 13203
2384 38958 8540
2712 37732 29157
3382 35231 18034
5421 27621 28410
9178 13603 27746
66 47609 5054
2931 36916 12871
1472 42362 16050
2880 37107 21467
6330 24231 23418
3081 36355 16548
12339 14765 58974
10403 21989 58669
13346 11007 58153
51179 4696 16920
53845 4696 10988
48319 4696 21230
49182 4696 18587
54466 4696 8292
55427 4696 34287
55261 4696 32128
56080 4696 46949
46944 4696 25169
45838 4696 30229
47429 4696 24139
9207 13491 50381
7770 18857 49434
6971 21838 51305
9382 12839 48579
4345 31638 59774
10744 7757 38582
11338 5541 48913
7365 20368 58795
7352 20416 50461
9146 13722 40348
3497 34798 54462
3680 34121 52727
11237 5917 55561
8742 15230 41867
11491 4968 56333
6773 22573 51083
7516 19806 53649
6326 24247 47789
11763 3953 32100
10147 9986 56207
5165 28580 56845
10064 10294 39957
9790 11316 52799
8870 14751 40779
11178 6139 34913
8483 16196 52653
5477 27411 55207
7324 20519 47306
10912 7130 47235
11019 6732 56951
8905 14620 58294
10779 7627 36176
10068 10279 42857
8029 17888 49127
11258 5840 57824
7102 21350 55528
8011 17958 47702
10940 7024 33824
10802 7542 40895
10732 7803 34240
5067 28942 50731
5258 28229 48329
5497 27339 52241
10205 9771 37328
11418 5240 55739
10706 7898 56230
8045 17832 42712
10391 9076 51702
5692 26611 61119
9618 11956 46366
8948 14461 58953
11437 5169 35236
11016 6743 50350
8637 15620 57535
5843 26046 57250
6796 22491 59861
6606 23201 55254
4975 29288 58411
2891 37066 58583
11365 5438 43818
9603 12014 38026
23707 4696 62403
48868 4696 62451
3650 47192 8137
3287 48542 27264
13870 9049 2471
4225 32086 34116
504 45975 36418
433 46233 59176
1660 41660 36678
2881 37103 44508
1919 40691 47400
8254 17051 36833
788 44913 35271
193 47133 43622
7783 18807 38337
6113 25041 39320
2010 40353 34784
2861 37176 48286
736 45109 46625
4311 31767 50131
3437 35028 49325
1692 41542 51233
5693 26608 33230
2102 40011 34225
3846 33501 40631
2887 37079 40029
4179 32260 38521
425 46268 37422
8367 16627 33381
7617 19425 37459
4928 29464 35474
1516 42197 52799
4405 31415 42004
8720 15310 33125
2780 37478 38102
8188 17294 39037
4121 32476 41008
365 46494 38662
7626 19393 40784
181 47180 45150
6828 22373 43351
3597 34431 51848
1124 43661 37377
4753 30111 37039
1211 43331 47042
5237 28310 33362
3792 33701 43533
5573 27054 40220
4726 30215 38092
1675 41604 50255
2316 39212 34791
3845 33504 31552
4111 32511 35131
3169 36029 35254
8735 15256 35595
1100 43750 38587
9105 13873 38036
4958 29348 37288
8957 14426 35664
4140 32405 39687
6873 22199 42143
7047 21553 36120
3413 48073 34239
3784 46693 37101
3763 46764 33385
3662 47148 32823
7961 28512 53541
7116 31663 46031
3784 44101 43037
9864 21407 58057
9500 22766 55661
5431 37954 52276
3742 44257 40473
6717 33153 50891
5306 38417 53276
5868 36322 46711
3836 43904 58049
9739 21876 58802
5000 39560 52871
10635 18531 58772
6523 33877 57496
4431 41682 59938
7266 31103 49885
8140 27844 46140
7565 29989 52901
7928 28634 47268
9986 20953 51717
7303 30963 47703
3382 45598 56650
7491 30266 48256
5183 38878 41765
6925 32378 48243
3451 45341 45334
8981 24704 50331
5723 36863 52576
7447 30429 55640
5903 36192 57299
5261 38586 38113
4078 43002 39108
5779 36655 46124
9755 21815 55865
8076 28083 46967
11086 16849 58939
6709 33183 55658
4923 39846 39483
10937 17405 54207
8896 25019 51654
9043 24468 52934
3411 45490 37395
3378 45614 55710
3485 45214 33123
10026 20805 58907
7870 28851 56952
20403 4149 25234
15036 2053 3763
15036 4209 21449
15036 2778 14272
15036 3454 18580
15036 3012 15485
15036 2494 7099
23865 78 62790
57468 2654 62790
36438 1709 62790
51458 2245 62790
59368 73 62790
32243 808 62790
49714 3597 62790
45181 2265 62790
26178 4460 58765
32438 4153 58765
52317 4696 62323
47752 4696 31922
48838 4696 35363
5071 41890 43611
5959 38576 46411
4407 44368 55784
10460 21778 41341
8706 28322 47276
4768 43020 50937
10717 20817 42307
9468 25478 39060
9131 26738 40869
12065 15789 43736
4088 45556 43080
8222 30130 51481
5241 41249 42618
7753 31878 49075
7353 33367 38612
6515 36499 47161
11437 18129 44566
4218 45068 40427
10656 21046 49240
10357 22163 49215
7728 31967 51878
4607 43617 32853
6293 37327 53602
4231 45018 38741
6903 35052 51300
4452 44196 58891
7198 33951 45059
10840 20357 43621
5447 40485 42113
5722 39458 44851
8367 29587 48962
11730 17037 43191
4197 45152 44292
4346 44596 50610
8361 29611 52363
11053 19564 48018
8968 27342 43510
7023 34604 48456
5145 41612 34202
6211 37633 45384
8393 29492 37929
4346 44594 59274
11080 19461 824
5942 37927 2683
42753 4340 4049
43445 4696 13680
42852 4696 13358
44212 4696 24925
3302 45999 32335
21646 3546 58765
13708 9654 51147
5041 29036 62766
42753 3760 48524
5167 28571 96
5299 39407 2683
36377 0 62162
14771 5688 56676
14241 4482 38485
14312 4501 41625
13855 4379 36295
8590 26164 56220
9300 23513 49461
4701 40676 57674
10271 19890 56378
7428 30499 44199
3602 44780 56905
7203 31340 55033
3835 43909 34809
9610 22355 55255
11391 15710 59228
10373 19508 58335
9438 22999 59606
5743 36785 48402
6873 32572 52566
4927 39833 40448
7137 31586 45070
7956 28531 55313
7621 29782 51632
10653 18464 53474
6553 33764 52127
4180 42621 45632
11867 13932 60100
7727 29385 47354
8521 26422 57742
4734 40554 42388
5756 36740 43961
10336 19649 59681
8593 26150 59213
5002 39549 38427
3523 45072 49757
9148 24081 57570
6548 33785 45615
4494 41448 46431
5576 37411 52319
8340 27098 57557
11025 17077 56627
5479 37772 39755
10982 17236 55983
4753 40481 56296
11522 15223 58104
7979 28445 51211
8923 24915 49689
11574 15028 60067
7623 29771 54228
9197 23898 51616
14247 7644 57566
7601 27247 0
9226 23293 0
4766 41948 0
7237 33625 0
2757 44001 0
2686 46858 0
3618 47241 0
831 48115 49268
1048 48174 36885
1170 48206 33580
1516 48299 43441
646 48066 38551
9770 23746 60107
56448 4696 31210
55869 4696 16722
55202 4696 25006
14339 7301 7288
53528 4696 36829
56660 4696 34850
58994 4696 53857
56772 4696 42273
57568 4696 41096
59261 4696 59988
14311 7405 4421
3303 46000 30345
14588 6371 56108
8498 26506 18353
12157 12851 24050
9268 23633 29504
12742 10668 18446
6610 33554 25290
12411 11905 29396
9928 21168 31252
12273 12419 12130
9736 21886 27177
10906 17521 11547
12793 10477 5354
9944 21109 21061
8280 27321 27184
9908 21245 24258
5708 36918 28209
11152 16602 14796
8666 25879 23652
6878 32552 24350
6962 32239 29712
8308 27214 25980
5057 39348 28489
8711 25710 25725
9770 21760 17591
11610 14893 24097
11459 15457 8119
8930 24895 24238
8632 26005 28394
10291 19816 15098
12940 9928 19433
8310 27208 30343
7895 28758 21768
11493 15331 16582
11325 15956 17596
8568 26245 30265
8998 24643 20372
12891 10114 7684
11500 15304 27248
12004 13423 12542
10733 18167 25795
9506 22747 14721
4212 42503 28695
7741 29331 22535
4841 40153 28256
11660 14705 24920
7724 29394 19363
6457 34124 25922
12338 12174 21630
12260 12467 27670
43314 4696 39734
42918 4696 53521
43300 4696 33893
13842 9154 21202
13967 8687 23961
3887 46303 22116
3551 47560 25443
9491 12431 172
42753 4558 46655
42753 4495 47423
20403 3449 33351
11520 17819 8522
13476 10521 10757
13224 11461 11908
10608 21225 8460
11670 17261 10704
6648 35999 5551
12990 12334 9161
15036 371 56460
15036 3414 33001
15036 1418 49231
15036 1702 43517
15036 1183 41904
15036 2512 35389
15036 264 53355
4940 42377 32633
10570 21367 35739
13282 11244 43081
8088 30630 32170
13572 10164 35610
12111 15615 39164
13108 11896 40128
7671 32184 33273
12344 14746 32597
10118 23052 35918
11442 18111 39043
6279 37380 32047
12322 14827 33644
13109 11889 42115
12887 12716 43091
9061 26998 34016
8498 29101 31639
13280 11253 31463
7758 31857 31783
11820 16699 35653
6623 36092 32509
42876 4696 10293
45148 4696 23537
44299 4696 21166
20986 1910 62790
15338 4696 38128
17340 4696 44428
19541 4696 34648
15631 4696 54640
18070 4696 35829
16022 4696 37362
15207 4696 52682
9969 23608 12149
7833 31582 7321
11240 18867 13219
12089 15698 15242
9746 24441 9495
13144 11759 14739
11120 19314 11337
13329 11071 17013
14863 5344 42915
14563 6466 49337
14470 6811 44292
14845 5411 49233
50504 0 57697
55244 0 58651
18265 0 59979
36122 0 56901
51270 0 50816
51237 0 55876
54646 0 37987
45991 0 53516
23163 0 58904
42613 0 45175
43044 0 43503
56760 0 39658
46329 0 42658
49877 0 45413
58686 0 46176
36981 0 54125
50986 0 59578
35823 0 60764
58154 0 41014
43738 0 48369
58893 0 49801
53287 0 55516
48439 0 46582
59941 0 54575
60550 0 61303
42687 0 59574
53000 0 51504
59894 0 43488
35301 0 55728
38074 0 49691
53905 0 50886
36164 0 52293
50022 0 47345
47014 0 45042
36388 0 58950
39896 0 48951
47668 0 58787
57464 0 50378
49082 0 47918
42917 0 48978
57884 0 42401
47848 0 51946
54532 0 40958
60044 0 32728
48030 0 60777
35059 0 58164
57817 0 56318
41488 0 53540
59592 0 44275
40620 0 46019
30837 0 56845
53580 0 38610
46732 0 43170
37854 0 57175
41848 0 51355
47415 0 55857
57265 0 58618
24728 0 57968
46354 0 50931
34568 0 60531
41849 0 55833
10222 9704 667
477 46073 259
17204 4322 62790
34629 2522 62790
27100 2717 62790
27267 1872 62790
23576 2647 62790
44002 3976 62790
18533 3449 62790
41570 0 14522
51972 0 6494
50669 0 9186
27855 0 4730
34844 0 4556
32441 0 6982
49273 0 14915
57708 0 21439
40786 0 1911
60616 0 28069
36943 0 8910
47918 0 3373
31605 0 3533
59612 0 14478
48870 0 17156
38108 0 13617
48959 0 3121
20916 0 3553
47240 0 15382
42900 0 15552
58198 0 5253
60512 0 29866
50962 0 19557
50132 0 6313
42282 0 14218
42226 0 16696
52279 0 14634
36744 0 4473
54701 0 14434
39547 0 12099
42129 0 13118
40571 0 12344
35595 0 9880
60122 0 17501
36655 0 13251
60590 0 14470
53674 0 24961
40873 0 5004
51982 0 17416
32992 0 11556
44924 0 9194
54839 0 2654
26472 0 5585
47142 0 18060
52482 0 12124
54537 0 17233
58517 0 28583
53778 0 25681
58629 0 26362
41430 0 7720
25712 0 2864
56502 0 12757
44272 0 8196
56458 0 2375
44027 0 11581
59746 0 11164
14401 7068 59823
4590 41090 34994
12507 11544 37161
5982 35895 31412
5621 37243 31588
5898 36212 32771
9275 23609 46328
8347 27068 41156
11794 14208 35376
7978 28448 33377
12470 11684 55220
8473 26602 42488
10019 20830 47204
8780 25453 47577
8591 26160 31532
11654 14728 44306
12662 10964 49910
9454 22939 36624
12090 13101 40466
5522 37613 36502
11826 14086 34616
5268 38557 36484
5812 36532 31528
10244 19992 37873
8905 24987 36347
12097 13076 45905
7144 31561 39700
6361 34484 37069
6969 32211 39420
8247 27439 42820
4760 40456 34034
12490 11609 31449
12709 10792 54920
8943 24847 32709
6072 35562 35762
9447 22967 38553
9339 23366 39059
11343 15890 51553
12173 12793 32307
12060 13215 41013
10301 19776 35076
11624 14840 48736
8530 26386 36374
10187 20203 51736
8936 24871 39580
5663 37088 34715
11987 13484 55903
9823 21561 39922
9450 22954 34648
12951 9888 31600
52729 4696 24665
60654 1863 47251
60654 1169 46686
60654 1255 55955
60654 2140 56960
60654 2733 60895
60654 357 33746
60654 1242 44266
14199 7821 60111
5290 28112 62786
