ply
format ascii 1.0
element vertex 2231
property float x
property float y
property float z
end_header
21569 69329 22911
28628 1823 26003
18982 1823 25880
21373 1823 26773
22670 1823 26579
27493 1823 26828
27792 1823 25307
19590 1823 26663
26729 1823 26324
19901 65680 19488
8597 67417 29162
4736 62210 30491
4599 61378 31328
8081 66108 30090
5557 64002 29372
5238 61705 31761
13055 76508 23868
6186 63837 30393
6507 63003 31830
3892 61635 30092
9739 69613 27967
10529 70018 28504
7316 63738 31987
8313 66703 29664
32070 1823 22360
22579 1823 20592
30535 1823 21794
25154 1823 20565
21110 4745 21247
20835 11927 21458
20895 34037 21412
21475 62637 21788
22211 69329 17640
26220 1823 18993
22549 74293 11111
23891 66451 5395
21351 79320 14634
6377 1389 25247
18423 2694 18818
18302 38843 18975
18310 4179 18965
21314 81840 16758
23122 78456 25134
24072 75948 26740
15422 80429 17911
11703 75632 17568
8184 70820 16715
14227 0 19052
12147 1445 7605
20719 61710 1115
20480 71445 8384
23340 60797 775
23187 67985 6146
23623 64512 3597
22853 67369 5639
21723 65641 4194
20336 63491 2400
21027 65832 4246
20783 70440 7671
21957 72507 9375
20828 69749 7157
20969 81102 15691
22649 62175 1718
24590 61932 1790
23124 65721 4439
16992 1335 5720
7365 0 20688
6359 0 21528
6857 0 23322
7511 0 22590
10604 0 21303
22220 64428 17428
21489 47411 20691
21494 46457 20679
21462 26578 20755
33480 630 24829
18403 29519 21036
18428 34347 21069
18511 26433 21177
12219 67191 32291
11943 70808 28711
8637 61013 35294
8762 65140 31547
11517 69940 29192
8761 64705 31952
10496 64368 33596
8221 61198 34803
16362 79249 24242
9960 66447 31250
11316 68574 30310
10795 63849 34309
14649 74299 27536
10135 61174 36293
12047 76450 19253
14582 79929 19811
12690 77395 19747
20047 66763 21737
21676 1823 21317
20669 64765 3400
20195 66164 4385
23626 60249 402
22680 64024 3108
22440 64862 3704
20522 72263 9003
22321 66588 4984
21246 68707 6430
21630 67272 5405
23542 61424 1272
24220 63913 3228
18925 14222 18364
18894 4130 18388
18748 17988 18500
35005 60389 32373
19371 1823 11904
22359 1823 10992
26771 1823 11268
28845 1823 12607
21636 1823 11387
11631 1823 12633
29725 1823 10046
23969 1823 11806
31180 1823 11252
30645 1823 23232
7695 67264 27739
10250 70293 27395
11708 72350 26797
8940 68664 27661
5709 62345 31119
7738 65522 29909
15677 79355 23471
7328 64482 30636
10391 71614 25975
16426 80442 23128
13699 76217 24700
7459 66083 28865
16555 60381 39275
23128 65989 18419
19099 23313 18290
19313 40447 18201
19340 20155 18190
6467 692 25463
19066 66023 21576
26077 76699 24355
23728 80491 22783
23472 81056 22426
17203 69329 18750
22451 0 6821
21787 0 6397
25174 1082 6485
19999 9174 21744
19992 4897 21745
20206 18165 21716
19217 65834 16373
19903 26328 21756
19879 47730 21760
20012 60538 21742
27448 61166 37235
25931 69045 31564
24316 66259 34461
27700 64364 34573
28436 62743 35564
28719 60371 37344
24239 68749 32501
26097 64863 34838
25111 62908 36810
25237 61273 38065
27851 60297 37763
22359 79805 24441
25872 64265 35409
25169 68968 31941
24029 0 33488
21813 0 33774
16780 80123 24003
15726 76941 26177
19885 62927 17224
33907 463 16081
17048 68283 17639
28412 1137 8276
22890 0 19027
18824 57099 18441
18591 33011 18620
12433 0 22511
20558 65527 35649
19934 79163 25571
20203 70843 31735
24145 60747 38738
22535 69802 32204
22949 63340 36963
20761 61153 38880
21691 66841 34521
21220 63584 37009
19931 66388 35090
20117 77722 26621
20495 67978 33832
23854 63377 36816
20266 80040 24874
19562 62204 17938
31256 1823 21438
34096 1823 20030
31745 1823 22857
32717 1823 20222
28431 1823 20474
23290 77931 14118
25225 72934 10919
18674 48768 21324
18747 46008 21380
16716 67528 18071
18820 13193 21435
18596 6414 21264
18928 22178 21519
36712 63607 24601
24490 80476 21327
27398 76248 22522
30990 71158 16780
28211 75094 17669
23512 81234 18177
21394 65680 19541
21426 28633 19037
21482 16460 19172
21527 20500 19282
14393 67196 6572
14370 66408 5952
16257 71110 8930
14426 67988 7192
12945 63491 4210
15073 68448 7292
16138 71927 9632
16957 75261 11959
14235 69492 8474
15767 73730 11228
11248 63288 4751
14507 62392 2684
31755 64617 31256
33595 64721 28732
31978 67778 27130
33526 61587 32624
34523 61414 31534
32277 66951 27744
31558 65927 29924
35319 60375 31758
34324 62614 30337
28219 71864 27071
25892 76106 24955
30919 69495 26425
31295 66865 29127
33503 62490 31558
18113 39709 20492
18091 61432 20440
18149 41139 20579
18094 15800 20447
12885 1823 29280
11957 1823 29281
17964 1823 27741
9921 1823 29701
12148 1823 28195
19511 1823 27603
16733 1823 27901
22702 73307 10132
24321 64614 3805
17215 1823 21213
37747 60305 27928
12855 61803 37297
11485 61057 37329
12803 63438 35960
14296 65328 35056
15698 74563 28205
13163 61481 37684
15534 70693 31252
14299 69045 32068
14454 66974 33798
14092 66155 34306
12387 66449 33365
11945 64297 34913
15601 67730 33664
22100 77210 26622
23552 67725 33604
24433 63453 36655
11738 71744 12309
14372 76888 15116
13896 76136 14824
21645 58937 19777
21661 43844 19900
21660 23403 19893
14633 1823 13966
12569 1823 14068
7755 1823 15571
16120 1823 12920
11466 1823 14004
19653 1823 13197
6632 1823 14392
8532 1823 15502
24703 1823 13275
20527 0 20460
18799 36870 21419
18880 47160 21482
18879 12471 21481
22677 82084 21817
19683 63577 23052
23227 80887 22952
25048 77418 24817
24742 78242 24210
27854 72010 27766
27041 74589 25675
25672 76057 25666
33945 62899 30957
29867 70844 26567
32362 66243 28936
33662 62156 32233
33757 64078 29760
29733 69869 27933
23602 80021 23521
522 60206 24515
15861 1823 7775
12196 1823 8197
15921 1823 8560
12540 0 12164
15439 0 12479
30482 0 11650
27732 0 9983
13633 0 12591
20375 0 11679
27462 0 11598
22810 0 11757
15323 79785 17429
9059 70174 14002
11138 73504 15409
20393 35416 21669
20535 38217 21611
20618 45183 21576
20419 0 17473
9884 0 16209
24724 0 17282
12133 0 17582
25159 0 16220
15316 0 16406
30061 0 16452
12358 0 16845
25515 0 17250
5732 0 19420
13150 70671 10116
8844 65063 8199
10976 68159 9445
6806 60571 5580
9240 61670 4736
11384 65608 6755
10435 68788 10445
14061 74684 13154
9009 63242 6375
7500 62883 7199
7767 61778 5966
10082 66388 8480
6456 61266 6495
14140 75825 14155
6987 61523 6325
9140 60620 3835
18059 40048 19628
18040 51129 19768
18067 24405 19564
18063 37640 19595
33999 0 18637
28646 0 18034
30709 0 17092
32023 0 18114
28057 0 18184
33171 0 17289
32368 61318 5514
26785 72873 12059
25473 74481 12560
26176 71739 10529
32955 61044 5707
24819 75974 13457
28701 69184 10072
26181 73024 11737
29632 62251 4290
30314 64029 6479
31172 65201 8236
29734 65694 7594
29396 68364 9837
25212 74037 11944
30880 66029 8787
14064 1823 31000
22724 1823 30551
13617 1823 31966
17044 1823 30923
20855 1823 31429
26771 0 21794
20235 0 21730
14068 851 33211
32394 60234 4868
19498 68322 33616
19724 78240 26255
19156 81169 23998
26732 75982 15868
28585 72783 14401
28272 73539 14910
18245 67437 19069
22431 0 10551
16369 0 11042
21881 0 9934
11925 0 10210
14909 0 9967
19821 0 10380
13100 0 9792
17480 64413 17420
16213 68322 20089
16661 1823 29743
15291 1823 30051
21397 1823 29321
16200 1823 30153
13483 1823 29900
23250 1823 29965
16342 67709 20944
19126 0 20820
21666 66557 19935
5626 67287 23856
5906 66098 26841
1736 61061 26559
9926 73164 22818
2906 62637 26325
12493 76291 22938
2819 60954 29382
4801 64270 27723
5519 66160 25787
2553 61390 27894
6704 67259 26515
4930 65979 24718
3464 61887 29127
6828 68627 24152
3144 62207 27734
8553 0 19686
22649 68351 22225
10146 0 23109
19538 0 22376
18924 0 22749
13119 0 23050
17849 0 23599
10416 60405 2590
20848 44557 18432
20804 37023 18398
20993 10771 18543
15281 60284 773
18403 7689 21035
18425 14300 21064
18366 18720 20988
27357 74666 25170
35275 61175 31329
28875 72014 26431
34266 63690 29572
30542 68711 28292
30524 66841 30600
35537 62439 29443
28634 72602 26027
36110 60888 30590
33096 65046 29439
20652 67353 23482
17132 60645 857
17592 63602 2998
18231 63390 2757
18547 73971 10599
19168 75078 11341
19666 62296 1753
18711 72822 9721
15493 61439 1664
16988 64163 3497
18624 60295 400
18031 69352 7224
17761 62456 2123
19624 64112 3112
17205 69329 19807
19937 20079 21752
20033 38956 21739
19939 66590 23576
15186 1082 33674
19045 63488 22919
16262 66858 19417
20908 688 21402
30475 1823 10338
25796 1823 10597
19796 1823 11215
25340 1823 11997
21135 1823 12331
38399 60321 26739
30633 72149 17502
32716 69201 16531
25178 79618 18615
20604 0 8683
25378 0 9511
19928 0 8800
24615 0 8566
26704 0 9159
401 60400 17119
21407 31242 20871
21372 45774 20917
21267 18907 21054
16548 64024 19624
19397 71053 31816
23991 0 21398
22832 1364 34142
13730 1482 6809
23009 68548 21748
12916 60350 38403
20392 60341 39758
30538 72683 20053
28087 75872 20505
38547 62013 20003
18027 8086 19866
18038 9384 19783
18035 32350 19806
25990 65992 34274
24810 72703 29361
24767 64634 35872
23982 73185 29316
28775 61118 37043
26543 67825 32568
25633 71187 30240
28121 63247 35600
24781 66836 34095
21874 81202 23736
23535 72858 29764
23916 72069 30242
19156 76959 12744
19451 75760 11813
19475 72520 9396
21061 80307 24571
23358 66407 18974
18020 62689 18196
18565 15434 18640
18682 61107 18550
21475 0 8037
13434 0 8113
17307 0 8111
9903 0 9404
27537 74942 15282
32863 65837 11103
29416 70647 12485
34026 62936 9075
29893 70283 12662
28132 72635 13239
30971 68955 12444
36216 60349 8769
33148 63769 8948
29020 70253 11487
33849 64414 10650
25134 78059 15958
2340 60321 10594
22286 60375 416
21325 1823 8127
27986 1823 9373
23197 1823 8278
16110 1823 9210
25852 1823 7853
27846 1823 8672
17936 69266 23037
5856 65950 13580
5311 66124 15227
7745 68712 14350
5259 65025 13236
3387 62908 13665
6782 67680 14683
5467 65786 14201
9827 72373 16391
7186 67673 13695
13314 77395 17667
7289 68648 15327
2535 62024 14020
2824 63069 15339
3507 62128 11874
4906 60206 33002
39224 60220 14864
21638 13639 19723
21640 2378 19741
21614 39255 19540
382 60206 23601
18147 296 20575
7394 69537 17138
10900 74505 18638
9814 73191 19449
10345 73895 19399
8829 71784 18961
2893 63438 16820
3481 64688 19430
8034 70854 19739
446 60457 18542
11049 74927 19890
5904 67937 19411
2403 62810 16993
2497 63270 18876
22030 62508 20786
10786 74573 21746
11486 75526 21635
10496 74071 22403
15004 78113 24447
16771 82037 21958
19555 68309 16329
20036 67219 5156
20115 70427 7572
18177 30490 19232
18235 42382 19092
18213 29908 19146
19779 62830 22578
25297 77596 15605
35020 62942 10377
30294 67793 10145
30817 66590 9356
29590 71105 13273
31184 68055 11623
35888 61643 9923
33982 63872 10160
33899 61807 7531
34982 60705 7595
34545 64224 11325
35048 61888 9128
27657 74074 14379
5702 77 23401
20100 19292 18150
20215 37566 18165
20009 4674 18138
25662 66532 5905
28909 62701 4168
26176 67208 6661
29418 60286 2435
23226 76275 12738
26478 63905 4130
25260 64160 3830
28987 61351 3113
23882 69097 7232
27754 62556 3572
25244 70937 9278
25383 62045 2179
22500 77837 13694
22814 76946 13107
27722 60502 1906
24578 66397 5347
26513 65953 5791
21561 40140 20516
21535 30320 20579
15638 1823 19556
26788 60344 1604
20059 69565 32961
19924 71404 31600
15597 66949 5588
15656 75463 12416
14434 71699 9894
14135 65346 4904
13025 66755 6499
12322 65037 5407
14198 69121 7915
11517 61118 2586
13575 65808 5508
13372 65032 4968
14706 65097 4467
12736 61455 2352
16445 77780 13954
14747 67693 6539
21152 58221 18675
21191 53088 18726
8500 899 28930
21505 16933 20652
21595 18772 20435
21598 49964 20428
18329 36457 20939
18343 23510 20958
18437 45361 21080
18358 79830 15032
17977 79338 14796
7914 70771 18288
9316 72498 17478
7237 69847 18160
14712 79959 18998
1397 61772 16531
10596 74315 18104
5126 67169 18944
10169 73630 17457
5607 67615 17827
7682 70637 19286
4952 66441 16116
3011 64162 17882
15332 80748 18775
9590 60257 3103
8447 61474 4793
11501 70831 11218
7565 60222 4296
9869 62883 5022
11941 68777 8955
14359 73596 11617
10450 65683 7199
15312 78148 15152
9502 66378 8578
14113 74103 12280
12363 71847 11509
11068 69848 10629
23575 81440 21154
28141 74002 24486
27124 75741 23587
25787 371 33141
21991 1823 16456
14025 1823 16253
14175 1823 18558
18837 1823 16444
8482 1823 16745
17196 1823 18023
19453 1823 17849
20241 1823 17016
16701 1823 16715
31783 1823 16407
5707 1823 19493
31116 71543 19583
25194 79428 19227
26062 78274 19290
31110 69658 25704
34900 64283 26930
27701 75430 22792
33262 66277 27038
38176 60636 26061
26307 77578 22012
28020 74796 23247
30676 70366 25386
29620 72570 23683
34199 65403 26460
25121 79139 21861
26930 76350 22878
36993 61957 26369
35056 63468 28126
5638 60865 6572
8281 68718 12718
12933 74326 13505
10390 70942 12686
9882 69449 11524
8982 66596 9213
10772 70445 11581
8597 67570 10904
7612 65739 9951
5957 63358 9200
5485 61561 7621
10891 71071 12191
4525 60353 7396
5436 64016 10683
9571 69558 12063
8439 66772 10134
12731 77158 21800
8715 71632 22767
9375 72575 22407
34042 1169 16933
34109 443 22437
26290 1823 22725
27592 1823 23637
17041 1823 23702
18346 1823 22207
19434 1823 22017
25136 1823 22791
22731 64744 17925
5527 66320 24795
5814 66934 24302
9461 71634 24033
10526 73430 23135
2256 61946 25339
2151 60453 27964
7276 69013 23818
6327 66410 26549
4874 65245 25291
7754 68727 25522
4170 63943 26103
9490 70905 25507
11048 73897 23495
16882 67980 22025
27659 66281 6552
22383 81001 16300
19714 65267 36196
19630 75408 28580
18143 16550 19314
18108 43312 19398
24254 0 31793
23426 0 31512
16393 0 32196
29454 0 22653
6336 0 19915
9463 1132 9696
18457 80616 24477
17318 77517 26499
17749 79391 25169
32066 64018 7842
25978 76192 14777
27730 72100 12063
19713 79801 14789
19687 77753 13266
21082 0 30268
22314 0 30603
16965 0 31284
15950 0 30589
18853 0 31310
18039 72289 16986
8665 0 24799
7151 0 26538
9319 0 26504
16227 0 25947
10219 0 26807
11242 0 24355
10884 0 25802
9162 0 25686
22749 0 24740
11260 0 25111
33017 1359 25947
22090 67589 17105
35087 65814 22553
36757 63316 24004
37064 63407 21157
35322 65313 23604
30046 72847 21047
34041 67614 20322
32500 69328 22319
34335 66859 22356
27603 76116 21099
33542 68211 20730
35251 66012 20192
38233 61480 23180
31714 70471 21822
36336 64294 21662
32926 69016 20848
37672 62686 20618
23146 70704 31659
22867 71747 30936
21984 76374 27577
17170 1823 16264
9233 1823 17645
30704 1823 16430
13527 1823 17657
21411 1823 16603
8633 1823 18149
26421 1823 17109
6436 1823 16172
24290 1823 17329
18163 1823 16177
18814 48100 21431
18571 20019 21245
18688 43461 21335
20136 1823 25591
18146 1823 26484
32784 1823 24766
24686 1823 25585
28040 1823 26554
31503 1823 25891
23888 1823 26233
13516 1823 27138
30304 1823 26049
31033 1823 27148
13109 1823 31222
23403 1823 30733
11003 1823 30853
19861 30327 18118
20028 39375 18140
19909 43222 18124
28245 663 31732
18144 55748 19313
18205 33688 19164
18159 46224 19276
20555 65800 21603
16618 69329 21041
18875 11726 18402
18879 35760 18399
17611 82308 22788
19799 0 13985
8444 0 14676
6821 0 15912
13104 0 13216
7515 0 13746
13549 0 13818
15379 0 13335
20954 0 13065
8762 0 15158
17101 0 20898
20531 80227 15180
20362 73438 10100
20308 81156 15842
33040 600 25890
26159 1823 9382
26951 1823 8422
24345 1823 8386
16734 1823 8741
12806 1823 9537
18749 1823 8595
9880 1177 30536
27021 0 9802
16849 0 10007
26727 0 29646
19761 0 30078
12420 0 29959
27354 0 29161
28542 0 29618
19153 0 29510
29285 72193 25219
28932 72972 24566
26893 77454 20570
25814 0 19045
21425 13770 20846
21547 57477 20552
21480 61519 20713
19344 69329 17280
16427 82327 19196
26160 0 10810
17625 0 11385
29895 0 10041
17222 0 12605
21676 0 10767
19598 81840 16432
20211 28605 18164
20307 54359 18177
20153 36346 18157
22076 82299 17094
19358 32857 18183
18945 3231 18354
19060 38384 18306
19199 56507 18248
21143 1230 18664
20606 278 18299
33788 67944 22371
34069 67395 23365
32096 70500 20653
31413 71016 22906
30991 72004 20484
37001 63709 22083
36177 64569 23446
32226 70115 21864
26227 78279 20924
32923 69177 21915
30742 72148 21558
31503 71073 21889
34631 67060 21000
36789 63860 22830
13180 0 32768
15161 0 32757
13838 0 32975
7149 0 18037
7566 0 17112
12520 0 18278
8271 0 17060
11353 0 17798
24001 0 16933
13980 0 17191
13158 0 16957
18438 0 17674
19708 21019 18133
19653 2925 18140
19548 18895 18154
21632 46814 20202
21618 20593 20309
21636 41998 20173
19856 69329 23186
24672 74559 27862
26075 71267 29871
27403 67138 32721
37678 61729 25912
35721 64809 24654
26696 76512 23704
35284 64716 25888
35196 63982 27531
30225 71510 24904
34693 65459 25872
33530 65905 27816
32070 68567 26167
35217 64491 26489
23543 81348 21920
35433 63082 28704
17971 1633 34289
19292 38794 21670
19279 32015 21664
19075 4279 21580
19284 18719 21667
26928 1823 32197
27888 1823 31964
24150 1823 31771
27186 1823 31427
16666 68923 18153
19461 46542 18166
19468 25018 18165
19509 29787 18159
37233 60359 10456
23379 69987 32140
11712 62397 3534
14955 64030 3506
13662 66943 6385
11154 61989 3437
10301 61515 3409
13874 61559 1964
17910 81769 16558
16655 73551 10464
12663 60679 1758
14449 65998 5298
16864 78987 14752
24216 80597 18126
34405 64640 11719
31324 69389 13508
13962 1823 15131
26318 1823 13749
31196 1823 15876
30416 1823 14160
22447 1823 14416
32675 1823 15900
13480 1823 15794
28945 1823 13907
29325 1823 16127
28053 1823 13810
28050 1654 7998
16491 69060 32670
17779 74147 29049
18868 81669 23588
19067 64551 36368
18678 63088 37407
18700 74518 28894
18358 62209 38020
17289 72812 29979
16460 68519 33069
15039 61474 38130
18679 69313 32770
16935 67511 33882
17772 60734 39042
30058 0 19677
21605 49716 19470
21630 32685 19663
21648 2997 19799
14166 1823 32955
16488 1823 32668
21144 1823 33051
19479 11391 21717
19696 6398 21745
19669 21594 21742
29080 74328 19997
39190 60712 20261
37297 63018 21587
31387 71059 20980
32702 69399 20384
35660 65175 21821
39129 60605 21329
38477 61453 21489
39026 60265 24039
21898 1823 33375
21717 81840 22935
15787 1823 25769
30794 1823 23837
9545 1823 26437
6441 1823 24831
26146 1823 24011
11742 1823 25225
18262 1823 23925
28940 1823 24195
20433 1823 24540
22511 66412 22404
17320 69623 7265
16694 62025 1650
17459 71491 8648
16316 63709 2963
16858 67341 5615
19414 68240 5953
19187 70494 7673
18895 70007 7346
17282 72577 9486
18349 66453 4752
18282 72039 8950
17433 66880 5192
18339 62980 2149
17915 74988 11211
17796 69920 7426
12246 66827 7230
14800 73277 11276
16087 78342 15004
9651 71765 24870
6449 68179 24109
4447 64452 26518
6265 67514 24959
11943 75286 23562
1929 62159 24894
7664 69458 24558
6174 67054 25634
2238 60543 28778
3667 63209 27050
29920 60275 36910
18075 41873 19501
29375 64054 6135
31146 62354 5911
31595 60396 4432
31219 61625 5287
30766 62909 6135
28641 67965 9213
26595 72339 11715
24754 75074 12849
29276 66963 8766
30202 65182 7820
31012 64530 7835
27132 71104 10977
21508 80532 23051
25655 78836 19378
29924 73170 19742
23953 81482 19930
28647 75150 19507
39738 60223 18725
35549 65629 17699
39049 60589 15582
32671 69619 18569
37194 63148 16064
34770 66493 16704
38741 61049 15857
36347 64562 17680
30651 72259 18267
36983 63744 17859
35560 65514 17134
37980 62626 19066
15697 145 33886
38690 60357 13968
11358 0 19683
20975 50353 18529
20890 57348 18464
13995 76475 25133
19042 21412 21567
18977 53183 21540
19051 52433 21570
21369 1823 17876
10721 60392 37434
25825 67735 6940
25677 65357 4965
26119 68987 8070
24670 67679 6418
28793 60783 2576
28643 62031 3518
25299 60586 970
24740 65472 4670
25384 63291 3182
27322 64383 4864
4356 64399 13479
9133 71110 14989
12761 76324 16359
14590 78920 16989
5782 65630 12428
3262 61443 10374
7677 69429 15239
19546 36350 21725
19427 37596 21710
19409 9159 21707
19374 46948 21703
19064 80565 15242
17991 60313 257
18267 28019 20858
18287 17465 20885
18310 54611 20914
27278 76458 21632
33356 67974 23477
25533 78887 21141
13036 1823 22693
34685 64252 12371
30731 71039 15926
31534 68775 13497
33470 65712 12254
36961 61932 13387
25321 78382 17039
37834 61554 14766
36631 62834 14332
32041 68385 13967
32349 67409 12824
35750 64043 14538
28165 74784 16961
28402 74101 16214
27806 74728 15985
36803 62397 13903
17652 63673 22236
16999 0 20175
6750 0 22409
8096 0 20828
10719 0 20727
24409 80011 17981
31885 0 18770
29456 0 16867
31124 0 19512
23330 0 17903
28553 75107 18552
29615 73624 18175
36714 63834 16323
35315 66260 19516
32203 70257 18646
33886 67914 18089
27761 76255 19076
37459 63409 19564
36498 64523 18601
37350 63057 16729
37476 63027 17516
33798 66809 14469
34924 64897 13473
35427 65089 15060
31667 69679 14901
37372 61171 12143
34884 66091 15695
37180 61076 11494
32308 69407 15918
31282 69756 14120
37668 60432 11421
19170 66679 21619
20165 81047 24137
23719 66313 34647
21026 50145 21312
20889 46356 21417
20930 53622 21385
21450 66404 19095
25404 1020 33299
21556 69066 16734
16511 0 6614
16303 64769 20057
20660 52068 18321
20362 21212 18197
22858 1823 28467
16360 1823 27385
13815 1823 28729
27874 1823 27785
12584 1823 29820
16240 1823 28968
15145 1823 28872
25548 1823 19579
24381 1823 6418
22408 1823 7262
17326 1823 7105
29631 72069 14628
25000 79338 17571
21082 60206 39566
35623 60206 8207
19691 34232 21745
13921 0 28940
19167 0 27601
18785 0 28343
17564 0 28187
18238 0 28032
23097 0 27300
15671 0 29449
27666 70490 10816
27119 69695 9655
32091 62290 6576
27971 69279 9922
28507 65523 6835
29193 68871 10479
28430 66105 7319
27126 70163 10096
30417 62018 5039
22861 80824 16751
27168 68203 8304
29114 65175 6979
29784 66841 9042
2084 62943 21900
3099 64140 22791
9477 72975 20917
5531 67468 22302
6956 69689 20479
390 60974 20251
5019 66709 22743
1385 61576 24380
6579 69002 21529
3191 64121 23600
3819 65390 21139
8457 71715 20337
3225 64459 21931
5765 67896 21652
23182 67785 21330
14572 1823 19090
20771 57786 21507
20837 47464 21457
21096 2992 21258
20550 1429 5437
22884 63440 20060
30696 0 21734
31697 0 22238
30886 0 20463
22543 0 20090
19716 552 21748
25693 70089 9052
23996 71793 9711
26638 63289 4007
24802 69740 8405
27922 64285 5334
26408 62618 3375
22695 75106 11822
12874 77190 18839
7998 70358 17208
7355 317 12443
19473 60414 39685
36837 61598 11682
35299 64875 14336
36866 63288 15035
32372 68722 14743
26754 77374 17989
35845 63478 12938
33616 66463 13356
34610 65575 14031
29498 72682 15498
28785 74477 17264
18277 15057 19009
18268 14218 19019
13805 77801 23172
14899 79530 22451
6587 66680 27358
20165 65680 20465
17436 1823 6317
24265 0 26720
26322 0 25072
23995 0 25400
14973 0 26591
20530 0 27065
22762 0 25955
25675 0 25530
32790 0 24931
27558 0 25129
18585 0 19948
20659 60666 623
21012 78734 14131
21431 76626 12615
20791 62937 2333
22592 65337 4357
23242 62483 2316
20689 63959 3081
21592 64965 3949
17752 839 5620
10312 73537 16854
19422 65680 21254
25731 0 6993
24069 0 6818
21916 63095 21869
24031 79728 22986
24095 78726 24120
20771 24530 18373
20833 37658 18420
20837 48805 18424
31305 63013 33234
29557 65235 32505
31215 64487 31930
28538 69740 29094
27195 68856 30948
28559 67112 31524
28207 65287 33494
28289 68495 30444
23318 79357 24144
26185 71983 28811
31343 60522 35523
33163 60962 33718
28579 66099 32452
27478 69492 30138
30767 65035 31764
27894 70489 28890
23114 1823 6435
23784 0 22058
21103 17856 21252
20991 32438 21338
20935 36793 21382
16463 66691 34701
18038 60300 39700
17792 68490 33525
16653 64002 36743
17125 72358 30537
17054 64852 36157
19302 66807 34987
17474 66594 34906
19323 63544 37437
18967 74010 29541
18661 80152 24894
15928 65985 35159
13911 1823 10076
19260 1823 10335
9292 1823 10465
22335 1823 9796
10224 1823 12212
13091 1823 10582
11943 1823 10706
28072 75394 21622
29058 73989 22088
16347 67562 18924
18366 69023 20988
19741 29156 18129
19827 51586 18117
19832 40202 18117
16941 81285 17104
13253 74923 14190
34883 60244 6940
21014 80933 24095
21506 79933 24692
22917 65572 18011
8311 0 27518
22356 0 28443
16806 0 27976
27183 68283 31491
28710 64628 33721
29980 61582 35583
23574 78597 24656
29961 63830 33504
24194 77960 24773
24734 76076 26114
29601 65882 31871
30368 63057 33911
28901 67639 30771
33469 61031 6089
26434 72203 11163
23734 79227 15674
29281 66264 7781
29543 67841 9459
30480 61274 4024
28192 65588 6310
27524 69057 9050
29539 62823 4754
28478 69650 10337
16724 81711 17585
14413 78013 16080
15732 80218 17054
16518 71693 30855
13402 77530 22165
14438 79031 21768
5424 66703 23805
5299 1000 20336
6044 295 24442
20278 12034 21707
30714 63948 33170
28005 69645 29909
33618 60245 34412
27027 70879 29503
27556 69207 30665
26374 70732 30142
33045 61598 33584
32407 61482 34183
30780 64587 32521
31638 62442 33872
30411 60787 36365
29578 61865 35994
27665 71084 28822
26286 73169 27926
19843 808 18116
19167 54801 21618
19111 43154 21595
4449 65884 23116
8217 71319 20785
3469 64967 20891
6316 68779 20806
64 60222 22055
6836 69103 22911
897 60918 24418
4502 66323 21014
1154 61826 21195
2277 62848 23901
12416 77001 20297
5757 68013 20931
9177 72644 20511
7952 70812 21656
3717 64935 22961
24254 62255 37600
20524 69177 32934
23194 61599 38228
20252 66887 34676
21534 70493 31821
20170 76983 27165
22845 65319 35502
20800 76162 27693
20361 71977 30869
24266 62994 37048
20759 73285 29842
20110 76096 27833
21368 71825 30850
23137 64727 21171
11806 63072 4346
15581 71322 9379
13080 65560 5808
11415 64055 5295
12171 64037 4968
14593 61593 2010
13541 63456 3935
14822 62992 3033
32869 67359 13985
28933 73484 16306
37513 61599 14076
33091 67992 15741
34348 64753 12525
36928 60727 10982
28928 73036 15427
35832 61974 10744
34998 63549 11772
36341 62003 12025
25992 77641 17229
34232 65939 14534
32038 17 27817
27801 0 29673
22026 0 29321
23315 0 30062
20170 0 29032
29472 0 29673
22965 0 28714
24062 1823 19723
30644 0 22661
29828 0 21022
31156 0 21115
25670 0 20522
28160 0 20108
18485 200 5523
20483 15589 21632
20660 42896 21559
20361 2407 21683
21170 67343 21180
12524 65817 33930
13427 64355 35480
14020 63463 36443
14962 68711 32611
13045 62988 36422
14391 69790 31505
15322 64735 35959
15666 71358 30771
14529 70259 31185
14513 61753 38024
16125 75586 27559
13275 69116 31586
14775 61175 38597
18727 69329 17398
51 60206 18200
22805 72254 9327
26131 0 31904
18927 0 32278
25256 0 31268
14511 0 32578
17861 65512 22972
30505 60206 3270
21654 15100 19847
13419 70684 30271
13820 71117 30173
18575 66509 16549
34236 620 18407
2522 63285 21105
6296 68032 22907
280 60358 20643
7367 69780 21147
8270 70660 23026
8703 71584 21082
1666 61691 23622
3364 64540 20399
7664 70072 21756
15260 78925 23450
8509 69167 26491
12029 74490 24619
15884 1823 18766
23609 1823 18085
27762 1823 18117
24992 1823 18393
25810 1823 18532
29324 1823 19205
27970 1823 17489
19470 69329 17983
16283 0 27032
31959 0 24891
17636 0 26875
19039 0 26296
13663 0 26884
32381 0 24314
29915 0 26642
29467 0 25511
32578 0 25822
8841 561 10506
869 60206 26057
23608 80742 17246
24122 79712 16659
15694 76552 13639
17048 79932 15747
18242 22623 20803
8265 61680 5492
9953 60791 3370
14773 75429 13301
9823 65791 8125
11346 69110 10046
8134 62826 6660
10051 63315 5645
9814 61608 4238
12012 69472 9872
15501 77246 14434
17858 62335 19068
15934 68062 6344
18030 66258 20032
4120 65312 18112
5499 66949 16905
8428 70972 17420
9491 72680 19001
3503 64132 16119
4444 65564 17069
13870 78641 19480
2726 63347 17567
8353 71082 18602
1221 61402 17999
3646 64752 18541
4854 66468 19075
10508 64053 5628
16241 79220 15444
14350 74665 12625
13598 74986 13504
11659 68029 8470
11124 66542 7487
13737 73204 11727
12599 71330 10842
23269 69114 18759
29579 1404 9171
39112 61125 20767
29340 74107 21043
36218 65015 20598
32664 69335 22975
28886 74743 20873
20842 69329 23291
12803 60847 37725
15786 73375 28943
11034 61657 36344
16183 70450 31447
12705 67142 32651
16451 74129 28617
14171 67445 33017
15735 69400 32101
11660 61759 36522
15715 74990 27624
14480 61998 37499
17687 69329 18316
31315 7 28758
20562 81668 16257
20360 74621 10981
20735 23108 18352
20388 9249 18208
9817 1736 9392
18313 68197 18962
26643 65253 5579
26464 61361 2394
23420 75107 12123
27360 65566 6125
28052 62700 4122
24256 69916 8318
31142 53 10896
21621 65897 20286
18900 67313 23465
23762 68824 32916
26731 60778 38162
24054 75152 27703
26391 66925 33356
25693 63703 36238
26857 62381 36820
23793 70295 31720
24764 73337 28869
24449 65730 35123
21519 73802 22934
20627 40008 21573
20594 6422 21587
28107 0 22150
33598 60310 5589
24339 80804 18997
30921 71693 17091
28012 75723 17955
7067 65053 10277
6374 64648 10687
5994 63654 9978
5251 60778 7457
11608 72681 13614
7444 66365 11377
11971 73530 14173
14440 0 9038
24490 0 7961
16639 0 9075
24240 0 9279
21585 47410 19422
21539 59995 19311
21595 61594 19445
30135 1823 23685
19175 1823 22616
22642 1823 22285
31347 1823 23373
4169 64717 15272
3285 61444 11090
14584 79188 18062
8582 69677 14189
3310 63449 14900
4462 63445 12108
2346 62362 15129
5680 66915 15868
6579 67009 13880
2112 60503 12106
5062 64023 11779
34072 1555 22717
5668 716 16738
27006 67637 7653
28569 63404 4911
20301 75719 28314
23489 68082 19957
21342 36478 20956
21178 7885 21170
16189 1359 34055
19284 40528 21667
21619 79341 23114
34428 735 20014
13858 1823 9046
16476 1823 7756
20194 1823 8142
18466 23651 18762
18369 49438 18888
16679 64053 20973
21627 39277 20239
21616 53596 20325
21607 12101 20388
21124 69329 21454
16990 61463 1485
19255 66933 5261
17473 67954 6257
18947 75967 12033
17751 74149 10836
18682 71527 8760
18135 77173 13038
16093 62903 2675
17155 65412 4405
18882 70778 8175
17796 70957 8452
16744 65028 4172
18790 68596 6562
19830 0 5804
24490 1823 21250
18162 41878 20610
18153 26657 20589
8447 68240 27537
12233 72730 27021
9371 69045 27764
7824 64805 30891
9860 68390 29194
13524 75187 25722
8814 66226 30458
7056 64953 29710
24290 79362 23431
28958 72835 25319
31589 1558 28402
5571 512 17478
19065 75637 28108
18778 66915 34569
16092 63395 36837
17823 74779 28584
17829 70407 31842
18807 70728 31732
18801 63728 36946
15938 62117 37770
19617 64202 36700
15322 60315 39031
18754 68661 33265
21723 77535 23009
33696 1823 18173
31480 1823 18171
34185 1823 18813
27594 1823 18709
18035 57197 20069
10631 72640 14963
13834 77788 17169
21857 69329 19353
32138 405 12193
22053 66338 22804
18071 13201 20344
18048 20230 20170
18043 12372 20132
6157 1156 15163
21539 1445 19311
21240 70195 32333
20880 77248 27091
20405 71659 31346
21947 60604 39433
21311 68921 33280
21946 61356 38869
22094 72246 30683
22071 69590 32678
22230 70987 31609
21014 75738 28206
21018 71198 31611
20753 62770 37966
36084 60206 31242
20471 876 18243
20510 31981 21621
20459 59311 21642
21052 47945 18589
20977 51312 18531
20924 35049 18490
22704 68059 17727
8753 63894 33054
7062 61435 34062
7674 60261 35631
9914 68062 30041
8382 63027 33584
8934 60258 36601
9245 64421 32938
7941 63793 32527
14933 77060 25456
8909 61020 35867
25108 73498 28226
24451 75321 27033
21151 6356 18675
21138 55990 18658
17407 67032 22632
24288 1823 31043
25266 1823 31623
18419 1823 32182
20785 1823 32248
26639 74280 26199
28764 70304 28254
18983 13507 18338
19187 55635 18253
19135 49229 18275
20481 60695 18247
20587 47767 18291
22882 80285 16266
22917 78845 14951
23337 78945 15367
16639 66231 4811
16600 67815 6005
19111 60249 0
19052 63457 2414
18988 67618 5542
16737 63338 2628
19434 63023 2038
17929 70570 7896
5629 60921 33228
5576 64792 28431
9636 69074 28493
3782 60317 31559
5176 64300 28511
13718 77210 23874
9124 69592 27193
8038 67491 28344
5099 60796 32691
4967 61946 31114
4334 62137 30058
4811 63725 28738
22918 456 5749
21309 67914 23248
25581 1823 12844
9062 1823 13200
7430 1823 14294
16605 1823 14467
17575 1823 13769
17018 1823 13044
23789 1823 21764
18195 31702 20690
18210 9054 20726
18231 43578 20777
8737 1823 20384
5547 1823 21629
10114 1823 22211
8899 1823 22193
13861 1823 21067
5957 1823 20289
13896 1823 20367
7027 1823 21449
12675 1823 20571
1768 60213 11594
3014 62106 12265
4813 65487 14489
2469 61448 12302
11201 74345 16280
6857 67185 12856
7330 69272 15768
3299 62845 13013
20072 65160 16354
16680 1823 34024
16013 1234 5863
8609 60206 3851
27381 74039 25524
30345 69201 27531
26911 75251 24666
34614 61925 30797
30737 68662 27676
25258 77435 24170
30356 67975 29005
27705 73090 26254
34297 63922 28786
32657 64607 30092
32828 64825 10275
31092 66170 9645
33290 65213 11349
26225 74701 13653
33012 62805 8063
34648 62510 9838
24921 77389 15215
32975 62060 7110
28484 72130 13477
32325 67002 12260
26834 73768 13314
20350 67015 16358
32408 67598 26549
35627 63265 27138
33838 65608 26939
36062 63213 26191
31583 70293 23339
36045 62573 27465
28558 74173 23150
33155 66815 26254
23393 68363 19194
30025 0 23149
18331 747 34337
11309 0 22219
3923 65722 19844
6890 69640 19624
8460 71717 19528
19419 0 32975
16489 0 33818
6314 68000 16654
11687 75477 18154
20009 610 5366
18076 80927 23854
16945 73710 29155
17442 75767 27717
8852 71293 23219
21663 27913 19968
21624 6227 20262
21666 61147 19946
16605 81840 21012
810 61402 18881
4469 65871 16540
4426 66360 19647
9678 73147 18420
2002 62483 15974
6563 68685 16659
0 60368 19137
21569 53633 19382
21457 55835 19113
21524 59348 19274
26083 76469 15613
5421 1095 18612
18488 66120 18734
16050 77907 25253
15569 75421 27198
20156 1823 5697
29225 0 19842
25608 71864 29669
10703 62785 4290
14516 1823 6702
16557 1823 5875
18038 55790 20092
18038 23779 20098
18019 27759 19953
18040 6520 20110
18060 3790 20260
18027 7206 20010
18064 42950 20295
26440 0 14313
17930 0 15117
25489 0 13895
13932 0 15261
12982 0 16080
25924 0 15182
28797 0 13408
32230 0 14542
17856 0 15824
16940 0 16018
7905 0 15939
18432 80387 15230
25572 62312 37096
25604 66259 33927
23747 69248 32306
26192 63004 36285
24886 68422 32495
27440 61912 36641
24234 71415 30373
28472 63522 34926
23123 74837 28096
25647 67357 33031
3165 60206 9096
18632 63732 16997
31574 1169 11459
13296 77205 23099
12544 76078 23476
28939 1331 31200
16921 80764 16370
11716 65479 6038
33447 379 14972
32485 69389 23568
29840 72920 23091
19575 73607 9957
19342 78704 13810
10516 66638 31498
13238 72943 27717
12268 68488 31121
12848 70675 29529
10428 67364 30754
13054 71697 28736
9290 63069 33880
11229 69458 29419
9052 61598 35067
9886 61995 35338
11018 65270 33156
21211 56868 21127
21158 20007 21197
16436 1823 21609
21630 2007 20220
21660 33982 19986
14810 79862 20627
11683 75731 20255
23113 65062 18499
13653 0 19177
15552 61310 38616
18798 71791 31183
16653 64489 36377
15471 64172 36459
15864 63019 37375
16923 62122 38187
23353 68645 20918
18357 69329 22328
21029 82295 16516
11667 627 7973
7955 70640 20749
3870 64987 21717
1000 61150 21624
921 61268 20360
8631 71382 21691
10434 73847 21431
5318 67164 20387
6900 69002 22006
3004 63962 20934
10293 73490 22381
18138 79020 25404
18005 78152 26044
17580 76267 27375
27522 1823 29861
19606 1823 29473
25552 1823 28720
29550 1823 27743
29747 1823 29820
26150 1823 28528
37555 60206 28807
20343 65218 36183
22405 63484 37212
22064 68968 33146
23672 62001 38158
20915 62151 38409
20744 64707 36515
21304 64969 36244
22133 65345 35853
20126 64740 36571
21030 78013 26497
26608 652 7080
20547 497 34443
7401 407 27498
25823 1823 22334
34378 1090 19487
12622 0 31624
6624 837 14037
32801 367 13411
21603 63952 3195
21802 61601 1470
23776 63105 2851
22124 67337 5784
22386 72705 9821
22656 62850 2513
35038 60718 8171
29910 70583 13457
27955 71394 11895
29560 69058 11151
31668 65432 9500
35300 61432 9379
31401 68178 12483
15531 79605 16567
22567 1823 33071
19071 1823 33044
22129 0 7352
19511 0 7426
18647 0 7509
15820 0 7947
33348 68512 19386
35325 65682 18381
33866 67310 16517
38251 61834 18839
30161 72513 17816
31234 71137 18181
33278 68378 18095
35665 65287 18728
27476 76153 18022
32987 68663 17497
16269 66210 19367
21446 36754 19085
21532 17793 19293
20434 12750 18227
20424 5741 18223
20647 7597 18315
18690 68930 18544
21207 15023 18747
7476 70107 20132
12273 76475 20526
29480 0 14018
19015 0 15817
30009 0 15856
22955 0 14774
27518 0 13798
17025 0 15391
30057 0 14280
13744 0 15926
15101 0 15599
28908 0 15600
19461 27590 21714
19377 5180 21703
19596 50040 21732
12009 1823 10102
14514 1823 9816
17285 1823 10696
9916 1823 10374
16984 1823 9627
18096 6163 19428
18114 48609 19385
18136 27492 19332
27519 0 22668
18476 58756 18749
18414 43403 18829
19017 66588 18324
11062 1823 19795
33949 65278 28021
27506 75180 24337
35778 63908 26268
31594 69172 26142
33082 67504 25787
34267 66016 25820
38062 61205 26004
37300 61405 27455
38046 61760 24966
34339 66519 24670
23077 586 34110
20322 0 25349
12421 0 25512
25960 0 24479
19683 0 25196
9562 0 23765
6127 0 23882
20366 0 24351
19225 0 24506
22911 1823 18978
28149 1823 23957
15378 1823 25019
8640 1823 25414
8017 1823 23960
7140 1823 26939
9279 1823 24824
7892 1407 28139
6852 67914 24912
11493 74359 23678
10518 72381 25142
7811 69755 23676
9604 72123 23433
7468 67839 26546
3439 62432 27255
14299 0 23050
22094 0 22213
19665 0 23369
23247 0 23677
16198 0 22629
20479 75476 11407
20189 76505 12140
16713 64494 18455
15019 75847 26660
10906 66693 32084
6607 61458 33691
11927 66755 32807
10139 62954 34999
7034 62184 33339
15798 79272 24047
11084 65032 33776
13775 73295 28097
6439 60761 34215
14105 75697 26099
20781 64884 23389
18216 63248 22371
19731 73633 29689
15374 63661 3340
15689 65709 4847
23137 64138 20565
20092 57915 18149
19912 15952 18125
19954 18351 18130
12550 67880 31902
11388 64164 34470
16864 63889 18630
6099 190 15303
15734 0 6130
11118 450 31486
18021 27089 19916
18040 22433 19767
18788 0 19233
24619 1823 20018
38944 60602 17125
39068 60571 17892
38267 61409 16555
38003 61878 17196
36679 64059 19482
6998 63927 8540
11281 73169 14245
6670 64073 9146
4673 62894 10306
4952 62351 9280
6871 65962 11189
9659 68116 10187
22955 0 33175
17994 0 33960
10767 0 19771
21526 67209 19279
9065 69585 13174
6176 64885 11234
4797 63194 10979
8284 65346 9046
7602 67513 12563
4491 61992 9920
13224 75908 15424
3887 60254 8595
4132 60945 9117
5576 61984 8495
19372 31343 18178
19665 59060 18139
19005 1504 21551
21164 63025 22394
12357 61796 36781
15008 63786 36288
13366 68506 31835
10821 62378 35679
15191 71580 30133
20283 0 21044
9532 0 13636
18125 0 14014
22863 0 13082
12258 0 13136
17860 1823 15037
26988 1823 14649
24092 1823 14769
31178 1823 13665
12412 1823 16054
24484 1823 13943
30156 1823 15153
19687 1823 15248
21228 1823 14626
21373 27024 18964
21275 42305 18836
21409 19493 19011
23035 1823 21151
28491 69116 30033
29475 67349 30934
24926 76770 25595
25899 75473 26064
31813 63827 32441
29225 63213 35002
27770 66510 33028
