ply
format ascii 1.0
element vertex 2441
property float x
property float y
property float z
end_header
15818 56502 3205
47746 63427 4902
47388 63962 15578
48187 62766 19160
48176 62782 21357
47443 63881 16988
48205 62738 8102
47726 63457 20772
48612 62129 9964
47738 63437 22486
46921 64661 8107
48328 62554 17148
47879 63227 12599
47964 63099 24138
48397 62452 12061
48049 62972 22800
47733 63446 18300
39498 59988 6718
16921 56162 43393
21470 6627 21943
33754 59479 26971
33778 59446 11112
34040 59105 41507
32992 56763 50176
8240 0 24610
30525 0 26298
31868 0 23987
24555 0 24219
30111 0 24826
15486 0 25384
20604 0 26726
22901 0 25393
18718 0 25550
28558 0 26713
28825 0 25937
21078 0 26093
14578 0 24281
10436 0 24564
29257 0 24727
29616 5848 25465
19740 6129 38385
31056 4615 23887
1415 2132 19956
17355 57814 25429
32083 3000 30406
21907 6611 18018
12774 6611 17099
18438 6611 18225
37843 58681 22607
37680 58556 31329
12337 6611 31768
18592 44240 26813
18652 53226 26358
18632 48915 26513
34391 60898 45413
45888 65700 24266
45527 66005 43612
46100 65521 20533
45026 66428 37728
45838 65742 39187
46655 65051 13776
45368 66139 37036
46355 65305 15616
46634 65070 24536
46060 65554 29989
46184 65450 30633
46529 65158 47291
46269 65378 43453
10063 6611 23650
38613 62169 38135
38623 62144 22381
38598 62205 32174
36319 58108 8279
36234 58097 26901
36374 58115 18113
5323 5444 18541
11521 6611 16697
37802 57832 7881
28769 1694 37505
42843 66808 4097
42317 64844 4097
43400 67152 4097
16847 56134 25044
26869 6611 23175
28336 61060 4097
29811 65330 4097
28127 64817 4097
18434 45502 27214
18415 49396 27260
18438 23079 27205
17333 57842 43519
17334 57840 17925
18108 6796 20976
15286 5907 13441
47918 63169 17423
48043 62982 16623
48112 62877 29374
48561 62205 29639
48445 62379 39322
47984 63069 11007
48375 62485 26901
48177 62780 32421
47410 63929 18920
48225 62708 37787
47813 63326 19065
48428 62405 40200
48534 62246 25767
33940 63532 6849
35173 68954 16587
33902 68774 41917
35591 69013 5768
35572 69011 18829
34454 68853 19837
34157 68811 21808
34779 68898 33436
36503 69142 9398
36216 69101 6538
35495 69000 7789
34182 68814 30625
35195 68957 27569
34229 68821 5668
36287 69111 14244
35121 68947 21910
2504 5048 24312
37703 62445 45015
20847 6195 37861
25804 55224 27720
25766 55224 45798
25130 55224 19364
25741 55224 30146
25055 55224 26174
25189 55224 14815
25583 55224 48071
26300 55224 39430
26616 55224 47881
26335 55224 40101
17458 57686 30281
30241 56460 256
17380 56493 39099
39454 68367 4097
39507 63886 4097
38666 67704 4097
1553 3681 30535
11706 0 36498
9159 0 35786
20014 0 35532
10056 0 34518
7877 0 35349
4362 0 35800
15674 0 36311
12782 0 36002
18546 0 35017
6968 0 36576
36468 67611 48632
38331 66858 48632
29877 58542 48632
35641 64776 48632
38830 68330 48632
38312 62604 10665
38230 62711 17367
38198 62753 36352
4547 3728 16517
6539 6611 24109
28661 4861 34173
47476 61486 48632
47279 58446 48632
3891 5173 20152
7429 6611 21418
13761 0 10992
16076 0 11631
11063 3018 11281
16630 23563 28380
16819 17480 28355
20266 2266 10229
10986 5795 38197
10811 6680 28221
17559 57460 6852
26027 57836 50373
14026 8306 24661
32022 2326 31595
37382 55323 4097
38711 56412 4097
28413 55421 4097
42493 55241 4097
44950 55353 4097
8665 6598 34136
16762 23004 24238
16748 13323 24236
16998 16526 24269
17433 57412 51714
33646 62004 20314
33585 61858 14332
15558 56946 34326
21590 4909 39792
15892 56710 28259
15968 31895 28290
15807 43118 28224
3083 5575 27250
16915 58114 38588
15910 5945 13404
21011 6640 30869
16887 58125 6612
21572 56145 1347
17024 58072 20302
30579 56660 4097
46509 65175 13162
46514 65171 38032
45970 65631 34871
46627 65076 20837
45664 65889 40798
46083 65535 41191
45037 66418 45564
46473 65205 18600
45757 65810 37829
46529 65158 22391
44907 66529 41229
45978 65623 47357
46158 65471 28819
45484 66041 32191
20582 6611 17250
18048 6611 17350
31316 1450 18688
3045 3005 17776
10855 1784 41941
17368 56476 40197
34999 57608 6783
20548 56955 50120
40862 55771 4097
35869 55970 4097
43422 55704 4097
22786 57641 50230
16610 58174 30291
14710 25713 27213
14647 22789 27061
14673 25025 27122
36877 64084 7924
34638 57200 49529
35537 62914 4097
34650 63188 13502
34455 63038 11254
34392 62990 18987
25744 6611 20851
25092 6611 22409
49730 57449 5816
49778 55706 29587
49761 56320 8584
49699 58588 4217
49758 56436 32307
49746 56877 6494
49730 57472 13710
49781 55592 11259
49711 58155 8474
49757 56491 29862
49759 56392 11133
49723 57719 16605
49763 56258 26315
49726 57600 17422
49715 58020 11226
49788 55345 26448
17610 52544 28111
17541 46472 28139
17588 27936 28120
23667 6113 16038
33633 61984 43138
48609 58138 4097
15561 57255 48854
14599 13343 26948
14713 19910 27219
14244 8061 23988
20963 5459 39288
24863 58745 48632
47381 63973 43708
47313 64076 37335
47792 63357 42198
47631 63598 36041
47265 64146 41442
47196 64249 27256
47584 63668 44966
48446 62378 48551
47350 64019 21537
47071 64438 30214
47304 64088 47171
46946 64625 17631
47368 63992 20444
47282 64121 35589
47006 64534 16667
19508 2260 10152
482 1790 22394
26776 6365 32409
724 0 22306
6625 0 23619
9153 0 23432
13854 0 23250
10623 0 23067
1120 0 20612
16324 0 22415
10810 0 21329
19518 0 24057
22041 0 23932
7663 0 22560
9671 0 21832
6048 0 22760
30931 3261 19704
16069 58045 48336
33162 548 28193
11529 6669 29805
18592 13509 25784
18622 18426 26012
18593 12372 25795
15845 6801 31741
29068 57802 1828
49404 55434 48632
32665 59025 4097
16942 1661 42854
10154 6180 36867
21422 56829 2024
16309 6740 20551
39617 60614 6225
25935 58372 48632
16325 56125 14949
37610 59657 4097
27952 6145 21362
33421 60563 34379
33404 60692 42376
17707 5664 13020
16252 58126 3878
14756 1279 9774
10098 6496 35743
37935 62990 18214
37964 62968 23239
38036 62913 16265
9403 3876 40007
18066 56925 2618
16967 58094 7373
14624 38574 27004
14643 37756 27052
8515 6391 35017
17430 56560 7189
15816 13940 24373
29504 5644 29863
27881 6424 29435
33584 61853 29750
33690 62109 32721
33733 62215 18270
2131 2695 18844
14497 33432 26396
14517 55023 26547
14489 22347 26332
38617 59523 43422
16809 58152 26058
29589 56558 4097
22299 58144 776
21377 56557 50283
20047 0 10126
15225 23300 27875
15292 16008 27927
33224 61335 4097
30091 5196 22232
30333 3035 34467
33245 62719 5332
14920 13266 25053
14855 37771 25138
38709 61331 44371
32048 60152 4097
19983 6611 19916
17345 56201 49735
29253 5656 21960
24631 57535 52091
14651 46044 25531
14631 55618 25579
14701 53284 25410
17517 56718 14293
14891 31575 25091
14826 26622 25176
14828 19123 25174
27516 58095 1426
33935 62324 4097
15597 5358 40064
8713 4465 13582
37754 63129 20887
37254 55224 48438
40765 55224 48538
39183 55224 48297
14802 10601 27394
14924 20552 27552
31418 3994 22567
24216 5059 38372
28492 5357 19184
16382 39897 28363
16479 37206 28375
16354 41583 28359
14836 0 36298
16348 0 35510
5739 0 33863
27129 0 35927
24319 0 35998
6064 0 34915
11833 0 38178
5258 0 37701
16170 0 38195
15384 0 38711
10267 0 37714
14632 0 38067
37064 56896 49193
5531 2328 14244
31675 67159 4097
31133 66706 4097
16999 57665 51309
17047 6611 19356
14124 4046 41348
11486 6611 35802
12356 6611 35365
22338 56818 52125
15154 52870 24780
15239 33615 24715
15327 38430 24647
14732 1548 42895
6124 6611 22853
7232 6611 22370
18059 45614 27762
18057 28422 27765
18284 50086 27470
647 213 21730
25284 0 13299
28227 0 15201
19539 0 14132
16272 0 13556
18637 0 13836
24535 4648 13987
15076 25004 24851
15012 45967 24934
15894 58139 24759
23405 3544 12196
28309 6425 26371
17046 58063 37730
11852 2132 10441
8162 4820 38058
22048 6611 34766
15821 6611 34567
13856 6611 34420
2445 4901 23133
2966 1547 16689
39531 61629 7924
15555 57321 7083
15556 57329 33002
43064 65496 48632
42880 64590 48632
37785 61838 48632
38351 63166 48632
39402 62734 48632
36883 61683 48632
44226 64306 48632
42737 63230 48632
17266 9741 26392
2865 4712 31368
17654 0 42245
24771 56317 42616
24753 55681 45347
24767 56171 35833
24753 55667 31552
24743 55304 13164
24743 55322 10994
24822 58191 45043
24773 56412 24357
24793 57129 42832
24811 57776 42471
24744 55352 44661
24768 56237 40787
24783 56771 43634
24781 56705 35330
24797 57286 36357
24798 57310 44222
27354 6611 24337
26505 6611 25484
14536 21419 26692
14503 11806 26437
20304 5741 13603
19515 6611 15708
18056 6480 37720
14815 0 42808
17934 46451 24736
38055 59737 45010
33934 63525 4244
28621 58056 555
32376 56365 344
32714 56127 1262
31214 4071 30527
21989 5909 14562
18604 41889 25878
18635 23057 26115
20391 3744 11221
22582 6618 23254
25415 57253 52163
15949 55415 24318
15541 37376 24487
42746 67866 22313
41853 68266 39134
43244 67643 29386
42115 68149 39979
43752 67416 19180
43473 67541 48338
43874 67361 36955
43528 67516 26784
43620 67475 21407
43882 67358 14556
42501 67976 38142
43676 67450 9765
43892 67353 20448
43869 67363 10940
42440 68003 27977
41429 68456 48223
43214 67657 39280
43614 67478 22624
23167 6611 17817
15657 6611 17045
10577 6611 33943
247 579 23339
15950 56403 49456
15540 57068 25241
15567 56889 9660
49083 60085 48632
10680 1378 10767
38635 62115 34414
38641 62100 20204
38731 61883 9024
29202 57088 0
43777 56261 4097
34624 57779 6019
49602 59040 15936
49531 59263 5122
49158 60434 19678
49435 59565 28461
49354 59820 18103
49320 59927 6373
49661 58854 34208
48750 61719 4166
48786 61605 6604
49314 59944 25826
49384 59725 19552
49341 59862 32040
49220 60240 14429
48810 61531 9904
49254 60132 4316
17546 56791 19944
35062 65229 4097
12074 0 14192
5686 0 14884
22094 0 15914
20399 0 15827
15736 0 15182
10174 0 15332
6230 0 15161
6929 0 15134
2882 1768 35662
17546 56791 10487
14954 2954 10359
9950 2570 11506
15597 56795 35763
15615 56754 19690
4139 188 37314
16291 42061 24250
16399 50283 24235
16379 56832 24238
16303 58143 17029
32167 68037 42407
33073 68442 18485
33486 68628 34163
31493 67735 46504
32877 68355 42644
33665 68707 10554
33085 68448 15735
33482 68626 16986
33614 68684 14122
31742 67847 45601
31951 67940 34259
32126 68018 40478
32467 68171 43380
31117 67567 45236
33087 68449 24664
32454 68165 45472
32085 68000 38240
24820 58102 38278
24828 58413 16582
24789 56977 14197
24760 55936 11179
24818 58026 27261
24793 57116 21468
24830 58484 32616
24774 56446 6526
24802 57479 17101
24837 58745 9993
24837 58735 44316
24781 56684 11746
13769 6406 14867
17264 57912 8684
47821 63314 34124
47082 64420 38183
46932 64646 45600
47032 64495 33158
48550 62221 47298
47281 64123 24036
47160 64305 36636
46796 64850 31975
46930 64649 11633
47508 63783 45640
46840 64784 23150
18885 2854 42185
34329 68503 4097
35864 65729 4097
36307 62580 1811
17776 57384 27937
38853 60132 43625
16357 7249 30683
2829 5196 29023
2653 4673 21781
27160 4448 15800
19409 57699 1910
19611 57263 52162
13396 7919 27559
22643 3347 40833
1890 3060 32496
18204 15683 25027
18198 22444 25019
18137 35742 24940
20800 7334 26024
44778 66591 48632
32546 59092 48632
39113 61555 48632
41851 64271 48632
34991 60367 48632
41002 64489 48632
35371 60979 48632
44828 65169 48632
45838 55224 47664
44023 55224 47590
37899 55224 48022
23102 6563 17190
27549 966 13882
32413 63057 4097
28500 58175 51104
4148 4112 17609
36781 64910 4097
25668 6611 28837
15903 0 20069
18525 0 20708
30199 0 21945
17941 0 20236
31567 0 22453
29309 0 22135
30059 0 20644
25284 0 21403
13975 0 19996
26691 0 20642
30976 0 22775
30736 0 20747
8688 0 20622
17609 57189 25967
17802 53249 24635
17908 47664 24716
17864 42091 24682
36636 57998 3054
28 1459 27173
14138 6814 21425
38892 61290 11659
35518 63999 4097
13632 6651 20746
27642 64709 15407
26184 62524 9574
27795 64937 32584
27621 64677 17538
27551 64571 6053
27136 63950 7005
26204 62555 8730
27776 64909 42023
26386 62826 4949
26861 63538 22008
27419 64374 27348
27158 63983 24101
26601 63149 8241
27215 64069 33702
27578 64612 35774
32259 56109 51026
29427 2887 16695
25077 2326 12313
16028 56256 8937
25037 6611 26273
13149 312 42510
44386 59859 48632
46643 64852 48632
46021 63096 48632
34155 56420 48632
43141 55761 48632
44363 56414 48632
32306 57760 48632
33417 57975 48632
40084 56737 48632
42801 57115 48632
42252 55552 48632
43747 62361 48632
42533 62106 48632
38432 56794 48632
39195 60021 48632
30792 55864 48632
39039 56616 48632
45647 56769 48632
46031 62428 48632
45436 60044 48632
49739 57125 27308
49699 58571 47290
49712 58121 47989
49725 57647 32097
49749 56770 46923
49711 58151 43859
49733 57365 43978
49713 58079 45753
49764 56227 40812
49696 58709 5422
49734 57300 34861
49697 58655 41166
49776 55795 42046
49717 57941 23847
36654 57427 7923
25941 55224 26807
25388 55224 4922
25015 55224 8733
26691 55224 9655
26464 55224 32123
25101 55224 5983
26242 55224 24376
25972 55224 21395
25251 55224 8136
328 2214 28462
17189 4363 11362
21131 56363 51828
17934 2705 42431
17190 57967 36004
26057 945 12624
34463 58697 23876
34618 58578 10006
34538 58640 13421
31813 56680 110
31360 608 18760
34884 58414 35262
34933 58394 12272
34924 58397 22249
8563 6611 32211
33005 1736 23529
32711 516 22510
16777 58156 11240
24066 6611 32812
23298 6611 33439
35842 58867 45188
10093 6630 26629
35814 63608 19667
36082 63644 9020
18238 34817 25071
36729 63580 31436
36865 63562 11217
36360 63628 15863
25088 6611 21401
18348 5985 13657
17272 56374 30942
18361 41500 27369
18260 38448 27501
18245 23584 27520
33119 62495 7824
43832 64811 4097
43278 65315 4097
42223 63918 4097
44239 66072 4097
29338 59956 4097
30002 60052 4097
30045 61187 4097
30868 65732 4097
26640 58681 4097
27160 59119 4097
38930 61001 27281
38879 61390 41272
38937 60950 24279
32422 1561 21507
18369 56606 278
20157 4479 40726
19643 4718 11960
15663 4896 40653
24804 57519 12351
24818 58026 13694
24825 58309 17286
24766 56157 10304
24798 57315 29663
24837 58746 22431
24788 56938 16804
24764 56059 8185
24827 58387 42588
24822 58196 23755
24800 57394 15755
24798 57298 20072
24818 58045 24464
21338 0 41966
18815 57537 125
12329 4664 40334
18205 6611 33360
40052 66535 48632
37966 65009 48632
36208 63298 48632
34189 61451 48632
33782 61951 48632
39170 64361 48632
40426 67302 48632
29777 5701 27596
22806 6611 35209
17011 6611 34356
14041 8879 25956
21422 6611 19080
16889 9741 25389
24359 3490 39945
25127 58104 666
4451 6191 23849
23903 58029 51678
35535 58414 44527
18256 46514 27506
18195 52479 27586
18259 51549 27502
22126 6611 30594
30748 61996 48632
29591 60303 48632
27989 57226 48632
34448 68671 48632
30615 60644 48632
17346 56446 8442
41063 68351 4097
42914 66018 4097
35612 57370 3820
8631 1927 11754
20666 58123 51466
24124 6611 29472
38965 62909 5171
38888 60425 31182
38905 60552 38029
15009 58262 26066
25130 59670 29771
25537 60948 45066
24985 59214 16372
24992 59236 22013
25585 61097 35743
25473 60746 43266
24897 58938 23314
25371 60427 29388
25053 59427 41939
25572 61056 34866
25149 59730 36687
25559 61016 38544
24843 58767 33702
25653 61312 47294
25141 59703 22885
17608 6611 18495
16547 53763 24216
16532 40466 24218
16320 11092 24246
22290 0 33717
23988 0 35426
27785 0 35317
25478 0 35431
14698 0 33438
10083 0 33355
27828 0 34518
7751 0 32970
27653 0 32577
31690 0 32828
19482 0 32865
33069 57917 51817
19270 0 38836
6657 0 39636
8365 0 38511
18378 0 39375
15697 0 39428
21551 0 39221
7056 0 38971
23140 1247 41639
20174 0 37278
24668 0 37251
22418 0 38502
14126 0 37283
16432 0 36865
7810 0 37021
22363 0 37413
6514 2873 38825
17120 56620 24287
17340 49643 24378
13719 8395 25520
5709 3835 15314
11293 6611 20079
8489 6611 19170
16928 58736 27050
15561 57386 11276
15549 57263 8094
1365 4104 25964
33117 59246 6257
17022 1981 9731
16521 34646 24219
16433 29991 24231
16296 10099 24249
15881 57907 35886
805 2088 21414
35608 58161 36147
35679 58151 40013
36051 58102 32136
41763 62080 4097
42760 62393 4097
43015 64537 4097
22611 5743 38050
15851 56388 6771
24729 57994 1617
18482 9971 25503
18394 27396 25289
20143 6611 36487
13040 6611 36254
27946 3785 15844
18636 42600 26483
18615 34428 26639
18618 45974 26619
16731 56116 11067
2395 284 34854
38498 59380 39347
38399 59252 33628
11063 0 41691
9764 0 40509
42271 60625 4097
40409 58846 4097
42422 61488 4097
44894 56260 4097
42300 58699 4097
43743 62461 4097
44056 58961 4097
44822 59831 4097
11936 6228 37615
37117 57815 4097
15814 57785 49144
17257 56362 48095
33733 62213 12776
33503 61660 41797
33626 61956 32027
31746 57941 4097
16299 56135 30769
17563 6611 35644
10594 6611 34836
17194 56305 3716
26045 6611 31086
13324 3176 41919
10669 5346 38832
31145 3744 31467
34226 62862 42354
34200 62843 9935
34376 62977 33373
19652 0 19784
28139 0 19227
21033 0 19271
4866 0 18915
12474 0 17734
2494 0 18104
7877 0 17520
5489 0 17284
9923 0 17816
15960 57970 31967
32673 57225 2067
29075 5069 33174
14943 6611 19356
14537 56284 25902
14098 5458 12882
15625 57548 39837
29854 56855 52138
9779 2910 40857
14209 0 9887
29627 4613 19531
31339 2821 32684
23716 6611 26063
33157 1130 27581
24858 3598 13085
31672 57165 4097
12078 6674 30453
35319 57526 7330
9814 6611 28820
6339 1540 13136
9762 748 11073
15926 57944 22777
20871 5293 13090
25201 6611 20375
36332 58110 38422
36490 58130 34662
36761 58166 20125
29786 1443 36450
14594 9094 24904
22381 6086 15095
25840 57020 48632
16991 21808 28333
16851 38102 28351
2382 1365 34832
3979 5658 30826
47453 62177 4097
47401 59211 4097
12851 7603 25338
20997 181 10337
16050 56240 24838
37061 57404 3380
23502 1480 11212
16697 58164 47851
38186 61139 4097
29780 58126 51458
32067 2426 21056
12461 7239 24754
15714 33026 24415
15607 42860 24460
15586 46813 24468
36790 56648 1870
24501 0 31058
28267 0 28338
8229 0 29175
24017 0 29883
27970 0 30977
27246 0 28758
20054 0 29913
21821 0 30808
29668 0 30353
13754 0 28738
17804 0 29466
9362 0 28639
22496 0 29367
19832 0 30943
34404 56521 50055
24782 56744 30126
24825 58308 46673
24757 55838 43861
24755 55746 37372
24774 56440 22712
24814 57882 47696
24798 57298 47443
24745 55383 29263
24801 57439 32972
24754 55703 36488
24798 57330 40150
24762 56006 23658
24755 55754 38389
35832 69047 45227
36770 69180 29416
35277 68969 42896
35720 69031 47925
35441 68992 28632
36917 69200 11901
37039 69218 17798
36271 69109 31951
36502 69142 27710
36510 69143 42150
36423 69131 33017
35708 69030 32389
35201 68958 47016
36746 69176 39444
30399 5003 30021
34127 62750 36294
34051 62651 32394
5940 5896 33704
37705 65313 4097
15279 57940 27600
20183 7699 25529
5796 6611 24580
20310 56613 52035
34370 58769 36182
36248 56951 1183
17098 56240 46051
30841 533 34712
12351 5718 13676
1610 4341 27454
3644 3890 18005
29410 66007 48632
27230 57524 48632
6910 5936 17733
15663 56643 15635
16439 56113 30006
12933 7121 29162
34770 56683 2457
18622 12977 26585
18637 15735 26476
18614 19237 26649
11779 6246 15104
9266 3995 12862
34622 68876 18679
34647 68880 10077
35384 68984 10048
34927 68919 8219
36887 69196 6956
34472 68855 32370
36891 69197 8495
34852 68909 17749
34412 68847 29407
34605 68874 17158
34998 68929 25078
34927 68919 31556
17893 6611 19380
29938 4730 32116
10264 5036 13559
299 470 29625
29452 5956 26181
19508 8109 25017
12275 7313 26275
38508 59393 37359
38478 59354 18890
38143 58918 8745
25663 6611 32409
49403 59666 40274
48834 61455 39638
48821 61495 47347
48945 61105 26996
48640 62063 36929
48665 61985 10991
49125 60539 44939
49558 59176 46772
48886 61289 35187
48706 61854 22164
49058 60751 24972
49112 60580 39398
49423 59602 44051
49337 59873 45438
48861 61369 34013
14716 30425 25371
7100 4396 14804
21736 6240 15212
33589 59875 8045
33720 59560 37982
39722 68903 10410
38457 69082 9118
37907 69159 5812
38044 69140 33107
37782 69177 34658
38453 69082 13599
39181 68979 21163
39246 68970 10849
39327 68959 15543
38706 69046 29279
37951 69153 32429
37462 69222 4623
38251 69111 18787
39097 68991 20220
38559 69067 22766
10106 3593 12133
6957 6611 27644
7071 6611 26701
15931 56327 30288
18224 11910 25053
18222 23998 25050
28172 5764 32695
41774 57526 4097
43381 60766 4097
43049 59692 4097
46597 60102 4097
47096 58105 4097
45021 61307 4097
47165 56768 4097
46712 62227 4097
27781 57677 1928
4406 6233 25257
17052 45439 24276
33584 56440 272
24814 0 12705
10969 0 12452
10275 0 11731
12400 0 11957
13624 0 12502
17578 56874 12768
9755 1746 11076
16255 56152 22377
16174 56184 37695
17182 57973 14515
11683 6860 24285
17251 57922 47153
6685 5391 16639
6034 599 13374
48924 61170 38614
48966 61039 48454
49183 60357 29863
49036 60820 37942
48846 61416 32293
48657 62011 46045
48841 61433 18525
48667 61978 27258
48911 61212 31014
49230 60210 40972
17263 30291 28254
17409 27296 28194
25743 55224 22259
25207 55224 10329
25693 55224 23315
26519 55224 23439
25771 55224 18873
26675 55224 10756
25986 55224 14557
26000 55224 12919
19023 0 9955
34066 62670 13224
33812 62339 24501
33776 62292 40074
31522 4085 29430
38430 62450 41686
38547 62297 39220
32509 2304 30327
4287 6019 29736
17973 34101 27834
25982 62222 38553
27358 64282 47484
27169 64000 45446
26198 62545 23113
27257 64131 37556
26157 62484 12741
26378 62814 15908
27323 64231 46286
27684 64771 46636
26317 62723 24656
26122 62431 25837
26236 62603 34251
26828 63489 28514
26021 62280 18360
27334 64247 42726
27404 64352 43739
37458 62920 44702
9969 6611 29676
22267 1182 10653
23824 3076 40492
37578 67563 4097
30103 5423 24181
1410 3876 23590
1080 2815 21837
7663 5270 15622
39545 68928 39850
39575 68924 37415
39210 68975 36482
39949 68871 29965
38787 69035 40378
38517 69073 39060
39638 68915 21745
38439 69084 36182
39137 68985 43382
40041 68858 47398
40332 68817 24121
40313 68819 20363
38678 69050 48601
40236 68830 11397
39552 68927 44147
40426 68803 8461
37980 69149 43337
15864 57893 36623
3095 4148 19149
18539 0 37283
21319 0 37408
21822 0 38028
13102 0 37605
27589 0 37018
20576 0 37947
24154 0 38215
9959 0 37155
35035 63390 18564
35441 63559 42170
17753 7685 29815
33012 1677 28798
37644 69196 45903
40319 68818 45290
40485 68795 15893
40144 68843 38467
37796 69175 44284
38449 69083 34262
40714 68763 26301
40627 68775 37251
40632 68774 25137
39033 69000 31028
39090 68992 47002
16830 56131 42229
37516 63298 19466
37544 63286 28647
1026 1077 20199
18659 21351 26297
18647 51371 26200
18599 50409 25839
21807 57776 51950
3890 1700 15599
18641 39706 26155
18658 16327 26285
18616 43875 25971
19912 56228 50638
16075 56223 29066
17491 57617 5840
17603 57062 35751
36208 58854 4097
8470 232 40740
28194 59458 48632
33296 68519 48632
30452 64382 48632
7779 4118 38645
20339 7288 24145
28183 63268 4097
28974 65583 4097
15829 57866 23402
31970 57839 51904
29811 0 28189
3344 0 25761
24066 0 27528
12200 0 27284
13486 0 28119
5314 0 25979
13029 0 26912
839 0 28241
14725 0 27113
19805 0 27718
4330 0 25485
20598 0 28189
16984 0 26533
5857 0 26612
27692 5559 18587
14745 4707 11821
17597 57271 44436
17574 57424 7988
28046 60953 48632
28164 64296 48632
20504 6611 32136
38403 62485 12100
38454 62419 15766
38414 62471 14318
26534 58168 1132
17547 6577 15181
26507 0 14306
22962 0 14112
27676 0 14750
21729 0 14729
27507 0 13979
19154 960 9881
33427 63006 4153
17751 57401 3066
30459 4729 21672
37760 63125 22100
37603 63245 35177
36262 56368 1648
17322 8494 29073
5116 3612 36867
17639 3879 10981
35004 59829 4097
19153 1143 42787
19617 0 39582
14988 0 40208
22354 0 41432
20665 0 40721
16636 0 40018
34463 56988 4097
26791 6611 28423
27418 6611 27675
15241 8821 28551
37871 63039 27186
37736 63143 9949
38114 62852 15472
19771 6611 32593
13374 2145 10195
17166 697 9729
15649 57608 42150
4125 4669 34187
8495 2366 40570
16260 6522 37681
18398 17281 27301
18389 19889 27322
24189 6611 25348
26685 6611 23988
30873 0 28536
32618 0 28776
32044 0 31669
26277 0 28769
15570 0 30199
29182 0 29667
22906 0 31022
6022 0 29402
31683 0 28481
29013 0 30350
21078 0 28567
17117 0 29363
34469 60089 45330
5851 0 20297
25285 0 22532
31605 0 21208
24466 0 22546
15079 0 21405
23157 0 21382
27828 0 21864
22535 0 21137
24147 0 21989
21537 0 21907
31611 0 19844
10534 6611 22314
17399 56518 18873
28817 0 17733
20371 0 16814
26578 0 16345
23912 0 18378
30856 0 17934
19116 0 16596
26116 0 18673
24157 0 16424
20982 0 17821
16708 0 16567
17328 0 16236
17428 0 33599
16375 0 33508
26511 0 32813
11899 0 34009
18898 0 33913
30472 0 34939
29357 0 34098
15792 0 33799
22639 0 35298
29982 0 34102
7042 6611 31081
22636 6651 24607
35535 63571 29031
35696 63593 38503
35507 63568 36362
34477 59352 4097
30830 2295 18181
25755 61283 48632
10172 5601 14462
26350 699 39740
27459 5162 17424
28707 65753 29121
29731 66618 8157
28370 65468 30391
28514 65590 35587
28649 65704 19225
28293 65403 9868
28182 65309 19375
29794 66672 5698
28194 65320 8651
27926 65093 36220
29732 66619 15959
29598 66506 13811
28405 65498 33629
29556 66470 9414
29336 66284 15160
28272 65385 12611
30529 5148 28106
17930 11422 27867
17679 36186 28060
17783 17981 27980
28499 2903 37164
11738 6611 33840
11313 6611 33273
2565 3768 19681
9404 6611 18945
9748 6611 32408
3900 0 27412
5375 0 27791
13012 0 26103
18964 0 27382
20167 0 27173
7842 0 27174
8771 0 27971
7375 0 27616
18065 0 27100
10603 0 27824
8865 0 25628
10248 6601 17161
3100 0 18595
8570 0 19586
17458 0 18980
11654 0 19786
12880 0 18362
6618 0 18307
19981 0 18583
13508 0 18214
3891 0 18587
36051 68830 4097
35342 66362 4097
30674 3016 18767
33685 59645 25829
33695 59619 10002
33610 59826 13470
15540 57181 22365
35956 57418 5966
15515 6601 15256
15690 56588 41666
24768 1588 11912
15391 25971 28003
15210 47007 27863
15168 50015 27832
16670 7911 29741
16154 25060 28333
16044 23334 28318
25187 56222 50653
15656 56660 11414
15586 56816 10653
15995 57998 17767
34258 56187 50733
16277 58137 44728
5257 5934 20034
12604 7458 26916
26893 5064 36164
1603 3894 22532
33473 60164 9561
33466 60221 12242
33417 60593 9065
19368 8499 26859
38672 59716 14798
7501 6611 24372
32910 59698 6830
16294 44336 24249
16079 16105 24278
16216 37395 24260
27305 61277 4097
26546 57591 4097
16085 5978 39082
33390 60947 40730
33394 60974 38071
16725 56985 51237
15590 7185 30699
48711 56979 48632
1174 315 32663
38367 60092 4097
14530 25136 25960
14537 15671 25900
14513 37682 26087
18311 15296 27434
18363 13568 27367
37911 58734 10237
37696 58568 25361
779 3175 28022
35174 58294 33250
35070 58337 39921
27803 3402 37397
16946 5890 39326
25249 6373 18229
16390 56118 35637
10744 6611 32300
303 1531 29639
38129 58900 9582
37867 58700 41499
37299 61619 3700
16215 29530 28341
16207 27801 28340
18321 45023 25179
18291 30978 25140
18152 49969 24959
24736 3186 12647
29081 3391 35820
39241 59306 4347
14325 6006 13789
44316 67028 32283
46204 65433 9744
44363 66988 10521
45491 66036 5933
44848 66578 34077
45669 65885 8919
44522 66854 13720
44561 66821 12366
44596 66792 25317
45944 65653 13743
45403 66110 20910
44533 66845 33445
44726 66682 19358
45025 66429 14262
46067 65548 12801
45642 65908 11669
18561 36839 25692
18474 47796 25483
18477 55280 25491
36387 63625 35460
36574 63600 42552
36339 63631 33074
16609 33461 24217
16760 27546 24237
16808 39587 24244
9822 6611 28054
34997 63375 11837
35367 63528 33650
35020 63384 9937
1585 468 19188
15720 26613 28188
15859 24196 28245
15891 14750 28258
17126 58014 10570
22940 2198 41406
13220 4462 11820
33047 2221 25548
28690 65739 40209
30353 67143 16911
30429 67208 44839
30416 67197 26466
28285 65396 45529
29531 66449 27322
29780 66659 28673
30370 67158 28005
30353 67144 31373
29091 66078 32602
28043 65192 47134
29915 66774 18941
30265 67069 25254
30053 66890 13399
29655 66554 30106
30202 67016 20221
33801 58812 4097
6322 1036 39417
49716 57966 22683
49720 57832 42188
49696 58716 37464
49704 58398 35110
49764 56205 48569
49724 57681 30513
49703 58447 14989
49733 57356 36239
49708 58272 26591
49727 57574 19050
49762 56276 37423
49727 57570 31333
49749 56757 39891
26215 6106 34284
35870 63616 21626
36010 63634 17800
17857 38628 27923
17919 30478 27876
25597 59171 4097
25372 58085 4097
42079 68165 19388
43512 67524 7934
41289 68518 39923
41133 68588 30061
40769 68751 34660
43057 67727 5385
41135 68587 23685
41320 68505 9713
41794 68293 13511
40940 68675 8080
41607 68376 7231
41355 68489 21483
42996 67754 11345
41585 68386 25096
41903 68244 17766
34009 62604 43145
14109 6672 31901
12489 7085 23892
14906 4765 40724
39616 60659 5383
22104 6519 36272
9614 5994 15531
25894 56772 2002
25591 4659 37831
33791 63864 48632
38025 67528 48632
29673 58153 1258
28229 5901 31976
34348 67633 4097
25548 60984 18067
25808 61798 7440
25609 61174 27484
25893 62066 6498
25384 60465 12896
25406 60537 19721
25867 61985 9104
25801 61777 31358
25386 60473 4642
25725 61540 13983
25871 61996 13341
25548 60983 20580
25804 61785 36352
16579 56097 21729
36276 62761 45308
14504 24293 26445
14537 49264 26697
41379 68478 18486
41937 68228 5708
41051 68625 36578
41296 68515 11130
42521 67967 20403
42542 67957 21300
42078 68165 12071
41009 68644 33455
41737 68318 16446
40826 68726 46396
29185 58016 51694
7041 6548 20261
5382 1748 38511
25119 59633 11516
25418 60573 9464
25306 60223 15207
25773 61690 10727
25008 59286 10921
25554 61000 19053
25217 59941 4200
25784 61724 23700
25862 61968 10140
25305 60219 17074
25882 62031 11901
25422 60585 27224
25858 61955 14839
25810 61807 19327
25442 60648 25767
434 2702 25522
43567 55224 48207
34260 55224 47608
16066 55224 28321
14076 8466 27762
31339 4541 26938
16608 48538 28383
16668 24375 28375
16659 22857 28376
20575 56510 216
17215 40377 28274
6058 0 16510
18490 0 16959
29463 0 18401
22141 0 17834
23691 0 17680
9973 0 16786
14104 0 16222
27398 0 17014
14950 0 16531
18097 3534 41874
34681 58530 8422
34395 58750 16759
38776 59965 33053
38807 60041 35266
38845 60132 27383
18628 5149 40215
33649 62012 17478
33622 61947 8022
33712 62162 9957
35312 56369 51305
33402 61037 26878
33387 60922 30965
15853 56385 44888
34377 56303 51747
15732 8150 23222
21272 6611 32037
34858 63317 35753
34835 63308 39512
31843 4081 25553
32962 2194 27086
0 733 25686
13616 7770 28338
18819 56236 1621
29416 0 23752
17346 0 23454
18953 0 23302
19567 0 22375
6730 0 21838
9409 0 21266
13909 0 23934
15976 0 23922
1856 0 23467
1548 0 24148
24070 4241 13169
49252 55224 8716
48803 55224 9859
48511 55224 17661
49649 55224 22186
48497 55224 4945
49277 55224 10661
49258 55224 36881
49129 55224 18341
49648 55224 44794
48822 55224 29480
49618 55224 40554
48983 55224 23967
38872 61444 28143
38884 61346 15854
38890 61308 28918
13257 6611 15955
49790 55258 39806
49770 55997 20611
49747 56849 25137
49785 55458 18432
49764 56201 18590
49774 55870 7009
49736 57246 22607
49758 56447 13647
49749 56751 16002
49754 56593 4322
49750 56717 24247
49719 57839 12554
49720 57836 14891
39102 55224 5060
40502 55224 5310
42662 55224 5447
15338 52004 24639
15383 56514 24604
15448 51302 24554
24236 5859 36808
10846 2345 10981
16755 58158 8130
21179 56804 56
14373 6611 18865
15561 6611 18741
38863 62506 4097
37481 58430 20126
37329 58367 24303
36983 58224 39119
38931 60748 9407
38932 60754 17294
3498 1135 16006
37992 58836 43914
37128 69230 19083
36583 69153 28772
36098 69085 29395
35819 69045 34112
36230 69104 37787
35892 69056 30991
35920 69060 44146
36389 69126 18458
35211 68960 44331
34886 68914 48101
36139 69091 39534
37255 69248 32695
36952 69205 31865
35515 69002 37017
16474 6685 32360
14629 18616 25584
17252 56358 16667
39592 61423 7160
25313 369 12213
43123 56497 4097
10111 4065 12542
17523 33305 24454
17458 10516 24427
18021 43811 24803
17817 11276 24646
15867 6240 38483
35396 61209 4097
26442 6406 19820
15465 49736 24541
32517 63818 4097
35329 61607 45748
24935 59057 20678
24941 59074 19560
24870 58850 6595
25073 59490 39103
25605 61161 43770
25147 59721 43257
24863 58828 36151
24895 58929 32020
25199 59884 30476
25844 61914 47701
24894 58925 41556
25103 59584 28893
25326 60285 38013
25559 61017 39155
24973 59174 25877
18585 56341 25752
26802 4058 37574
4712 0 30986
12246 0 30615
12363 0 32659
3659 0 29332
17708 0 31406
11706 0 32189
403 0 29040
1356 0 31018
10016 0 32062
10391 0 31077
11033 0 32390
17953 0 32167
10716 6611 30008
26258 6611 28034
33915 61524 44843
39163 62576 7002
34126 62748 34983
33961 62534 28622
25669 6611 23358
28719 65763 26056
28136 65271 15142
29691 66585 16688
28338 65441 4858
29026 66022 5436
30184 67001 10114
28374 65472 31958
29987 66834 11831
28414 65505 29629
28487 65567 38153
29116 66099 19982
27985 65143 5543
28033 65183 17654
14597 30142 26941
33098 1487 24474
11552 4070 40645
33466 61525 22293
33440 61326 25254
18588 56225 26843
18564 36709 26900
16890 56148 35236
16912 57467 24316
32763 57711 176
16454 58166 12494
10739 6318 15790
14778 6611 37115
27943 56119 51325
37409 63342 41753
36952 63531 13381
37308 63384 37838
36392 57585 1442
16303 58143 46609
33867 59331 40783
33771 59456 28192
33776 59450 33870
34282 62906 40412
34204 62845 23308
34352 62959 34349
14999 48614 27650
14825 21559 27423
14915 33313 27541
17174 56295 13396
36737 60312 4097
3877 2863 16471
25339 55224 28188
25315 55224 35416
25924 55224 41020
25391 55224 24957
25074 55224 38856
26510 55224 45134
25757 55224 38558
25261 55224 37316
26270 55224 46856
15685 56595 27143
15803 56447 12530
42286 67303 48632
39969 65579 48632
41033 65790 48632
40745 68068 48632
35646 61896 48632
35184 58290 40696
34947 58388 42032
35302 58241 17188
38101 58879 36526
38066 58852 18049
26942 56976 48632
4418 5596 32020
32166 3440 27938
33417 61149 11594
33402 61039 16602
19498 58072 50687
15543 57051 47732
14645 6206 38442
33755 62265 38703
33993 62576 16505
32598 2516 23712
30391 57323 50122
35900 58122 13466
36051 58102 10061
7906 4431 14184
12559 6724 22065
27016 2516 38728
11454 6617 30723
17008 56200 5510
26864 56413 294
29306 63149 48632
30903 66038 48632
30256 62664 48632
31740 66621 48632
18442 25144 25406
2089 4468 29604
33974 58000 460
33384 60839 26071
33439 60426 32814
16280 56143 4744
35401 63542 41072
18274 57388 25182
31249 67626 15800
31368 67679 4925
32901 68365 6312
32038 67979 20824
30969 67501 6732
31182 67596 21746
30827 67437 30458
32189 68047 5802
32254 68076 7253
32061 67990 14572
30749 67402 7658
30830 67439 18892
31719 67836 25224
32450 68163 13334
31111 67564 24846
31494 67736 31672
38591 59521 29271
38713 59814 39759
17594 56975 23519
15389 9741 27247
17586 57343 38349
35894 58123 9306
35518 58172 23970
17083 14020 28321
24885 3879 39339
6336 6513 21163
18428 6626 19972
15561 28323 28121
15735 33850 28194
32342 55224 4613
33522 55224 4945
27857 55224 4576
13581 1501 9931
15968 57977 28380
38161 58940 19671
38240 59044 29872
38294 59114 32012
16114 58065 15591
16227 5472 39952
41372 55224 5261
32614 55224 5237
43658 55224 5199
35301 55224 5333
29127 6021 28185
47760 57278 48632
6594 6177 19049
38137 69127 25460
38636 69056 30237
37420 69228 41791
37878 69163 8059
39498 68934 8712
38980 69008 18970
40327 68817 4437
37463 69222 14632
39475 68938 6762
38687 69049 25102
38895 69020 27596
37956 69152 30505
20141 58161 1192
17605 57217 33635
3698 4615 33461
35671 63589 35387
14660 7348 22543
38565 62274 35748
38287 62637 38608
38552 62291 24545
36634 63437 44319
17597 57272 12124
14490 53561 26256
14549 46602 25814
16096 0 41642
14411 0 40722
10605 0 40474
31057 1281 34322
34404 62999 20033
34767 63277 16769
26922 63629 12366
26961 63688 24734
27637 64700 18176
26517 63024 17024
27057 63832 8690
27371 64302 25093
26825 63484 16349
27499 64494 30007
27065 63843 13812
26255 62631 11474
27509 64509 39404
27585 64623 26511
28293 5035 18178
12004 7111 25353
33635 59764 33154
33727 59543 42474
33585 59885 30163
26373 57198 5
16552 56102 48947
14621 22687 25602
36029 58105 37786
27486 6538 23036
6838 1710 39839
45493 66034 8345
44184 67140 39260
46036 65575 11022
44739 66670 29621
45916 65676 7827
44137 67179 39954
44183 67140 41223
44236 67096 5087
46187 65447 5285
44516 66859 6286
44756 66657 30563
21173 0 11431
16746 0 10587
33908 60622 44918
14494 39830 26219
14494 48010 26221
14509 21058 26119
15095 44516 24825
15026 25914 24915
15011 46595 24935
15153 2820 42307
29135 398 15412
36934 58178 43425
27376 55224 5174
30609 55224 4444
39304 66438 4097
21096 6390 15412
37492 58434 16587
37553 58460 17814
38947 60872 29521
38879 61386 37703
47553 55224 13794
47480 55224 15264
48167 55224 44277
47613 55224 16178
48916 55224 38154
47530 55224 46926
47616 55224 38054
48191 55224 45215
47423 55224 31955
47585 55224 29855
36790 63572 15314
36627 63593 9497
13982 5199 40113
22503 6611 31498
28088 57746 50301
15436 34724 24564
10802 6718 27109
8031 0 15971
12063 0 16071
18237 0 14812
15819 0 14444
4734 0 15326
6585 0 14459
22778 0 15950
13878 0 14419
32821 64595 4097
36996 63513 27807
10749 3285 40975
15541 57192 44543
33112 68460 23794
33346 68565 29481
33132 68469 22124
31935 67933 39207
32836 68336 35592
33359 68571 21369
33138 68472 27743
31155 67584 41933
32077 67997 36952
33076 68444 47669
32552 68209 34288
32035 67978 47494
31900 67917 31169
7551 6611 22965
6724 6611 23382
18924 56 42817
6177 5551 17627
38209 58074 4220
11899 0 25371
32163 0 26428
24866 0 25238
5800 0 24906
32491 0 24941
31055 0 24101
15785 0 26088
19082 0 26217
32833 0 25654
28792 0 24144
31266 2286 33666
38899 60507 32140
38859 60202 11592
36164 58324 44511
23552 0 12587
19994 0 12945
12226 0 12790
15623 57542 35000
3688 5908 27433
35757 55224 48338
31462 55224 48301
18927 7682 23437
34826 58438 36566
34995 58368 14256
23907 6546 17687
5156 3871 15865
16800 56127 17584
16726 56115 46773
38604 59551 36588
38637 59631 41015
17242 26662 24337
17224 53943 24330
17234 30431 24334
47549 59977 4097
33612 59820 28796
29789 530 16153
21563 5049 13014
17539 57506 41363
17601 7153 30766
5149 6299 22488
17213 57950 21128
34136 58980 31961
34034 59113 24884
24720 6566 18576
9573 1916 41350
20215 6615 20534
17548 56796 48540
14811 15120 27405
15029 23924 27689
31425 57552 90
7654 3901 13782
36733 58163 23985
36657 58153 36223
49391 59705 29268
49397 59683 13902
49159 60432 10737
49091 60645 20809
49276 60063 21608
48944 61108 11350
49587 59088 26182
49667 58836 42965
49034 60824 4260
49394 59692 10407
48886 61291 9211
49678 58802 12945
49579 59113 23902
48837 61445 7273
49408 59648 33524
4253 2713 36717
34169 61293 4097
16048 58036 25815
8483 3321 12665
28016 56790 4097
28718 58721 4097
30902 62161 4097
34607 57789 4663
15452 36590 28050
15295 46136 27929
16980 6611 18257
11727 6611 18346
18295 6290 14356
30732 4746 22828
14552 27476 26809
14501 19304 26427
27768 6313 21947
36224 63646 30498
36320 63634 28452
32837 61785 6721
33970 59197 17632
36938 63537 8265
33447 60336 43122
33611 57297 50118
15593 57467 46284
9350 5889 37031
14934 35378 27565
14887 44454 27504
14815 32526 27410
3939 5495 21298
25632 53 40172
21784 5551 13837
27057 5453 35106
24575 4468 38916
15616 57525 23951
15640 57585 13828
18581 50944 26858
5945 6611 29179
15192 11869 27850
15284 28894 27920
35512 57869 48354
27864 5507 33834
5212 6465 28466
32755 56817 52124
18651 24886 26367
18629 33249 26535
43389 67579 12464
43941 67331 8769
43110 67703 32256
43075 67719 46082
43303 67617 24501
43377 67584 37459
41769 68303 37457
43904 67348 6844
42905 67795 45489
41674 68346 41182
43841 67376 26277
41303 68512 47180
42601 67931 48088
42344 68046 32272
35948 56726 3820
31412 4514 25417
49035 55224 27652
48819 55224 28861
48247 55224 11291
48872 55224 24976
47776 55224 4642
49185 55224 6450
49094 55224 34066
48606 55224 25588
48140 55224 6121
25735 6611 30026
28353 4704 34899
20408 57903 1740
48188 60698 48632
23536 0 39937
17212 0 40782
15879 0 40015
7776 5431 36830
16589 56096 48158
15710 57707 21536
11619 4424 12218
35916 68071 48632
38874 60318 8627
38913 60611 23566
27225 58005 50571
26127 1768 39874
3572 974 36767
17862 26027 27920
17671 42773 28066
16756 57971 1644
17280 7008 21476
38728 61892 28710
38790 61743 16820
38819 61673 25987
2872 832 35645
27215 63678 48632
27469 64239 48632
41029 62350 4097
40737 56684 4097
18113 57750 49979
29047 159 37216
27810 992 38501
38318 59146 14231
38527 59418 27486
33602 56510 1856
18049 6701 32068
26808 2415 13603
11121 6611 34347
14719 482 9774
15226 6611 33885
19056 6632 20371
4133 6173 26739
12762 4819 12276
16307 778 9744
13748 6823 30936
29872 57962 50514
9941 5870 37496
34564 56167 680
36893 58186 9037
36947 58209 32859
36748 56363 48894
18507 6611 15988
7167 2088 12697
30569 3610 33292
20786 6611 36373
1481 0 29254
4751 0 32832
8182 0 31180
3560 0 32337
24863 0 32337
8511 0 32030
25506 0 32515
5897 0 30416
19324 0 32257
12638 0 31734
16061 0 30660
22601 0 31570
19432 5691 39294
14179 6509 37525
47716 55224 23125
48130 55224 42757
47725 55224 34877
48439 55224 35532
47376 55224 14576
34443 57824 1908
17201 5464 40016
6375 6611 24930
25746 3571 13697
49380 55446 4097
34755 58473 28062
34307 58818 36867
17904 33757 24713
18022 10128 24804
14123 7740 28988
36308 58107 15421
24483 56988 2058
18024 7240 22154
33811 59131 7924
17810 4733 11797
30351 8 17086
1778 2050 18839
33484 56282 51719
12358 7127 28189
30704 1655 34960
30966 4699 29033
38798 61723 40713
11579 59 42121
8177 3502 39519
17535 20850 24459
32709 61273 7459
37314 62073 45480
28270 57454 52122
46530 56380 48632
36769 58497 48632
35815 55827 48632
41524 59281 48632
45950 64357 48632
34774 59132 48632
29517 55834 48632
45385 57635 48632
28128 55256 48632
39106 58588 48632
37378 56169 48632
28791 55831 48632
30313 56543 48632
44235 60868 48632
38785 59109 48632
734 552 31136
25588 3426 39198
49 383 28316
7389 6506 19522
32034 67977 12055
30566 67320 33548
31467 67723 14552
32027 67974 16243
32057 67988 17962
33728 68735 4615
30633 67350 29762
30770 67412 38395
32801 68321 9757
36917 58196 29452
26211 62564 35500
26393 62838 47100
26218 62575 28521
26257 62634 30476
27022 63780 30864
26122 62431 23851
26673 63257 34485
26634 63198 45694
26162 62492 22211
25910 62114 29767
27030 63792 36544
26974 63707 42638
26258 62634 42990
27590 64631 45421
29349 66296 46974
30185 67002 33996
30291 67091 42976
29147 66124 31413
30455 67229 18421
29400 66339 41181
29796 66673 41869
30503 67271 5529
29858 66725 34996
29562 66475 33202
29823 66696 26196
29380 66321 36019
28179 65307 46133
32262 58171 954
17531 57524 34817
48431 60481 4097
8069 6611 19649
8315 6611 20782
18942 6745 31506
