ply
format ascii 1.0
element vertex 2786
property float x
property float y
property float z
end_header
21807 18067 8604
7568 18100 25720
50226 17301 15740
37972 9500 2477
25052 0 1578
27535 26151 18336
14964 2639 55872
29340 4738 58473
23308 14622 4446
4956 11199 42344
39709 26863 39618
46955 1866 53212
32856 27182 17184
50401 12364 46510
7652 8 12547
46397 5565 5316
9150 18096 17775
58260 6099 31601
676 4976 34417
50797 9055 11825
13852 23035 23744
48115 15309 46274
33921 27894 33433
52202 13487 45221
41874 11264 4625
36070 250 57557
3461 5867 19989
19828 3570 58007
32401 38409 30946
18284 21977 15531
58172 6761 29311
51373 19648 32715
55462 1550 13984
17470 25057 23623
52297 12196 42831
33328 27855 24705
4029 2250 17479
31507 10060 58267
31035 27933 22988
30910 21416 11306
5086 8089 15062
11390 21513 32926
55958 8992 21413
28540 50989 30387
14207 18678 47585
28135 8009 58889
29415 26675 40349
11269 20437 22822
24916 25348 16317
30024 27372 19669
21165 300 57118
44719 12235 53203
39235 22079 13844
11405 22564 37312
20111 300 56521
28015 3368 1277
45110 23266 18083
38245 5559 1523
5177 5285 43857
34943 15582 6312
58857 7907 33476
44703 23858 41087
23317 27518 32934
11659 3116 52043
28740 28704 31350
5460 10537 15958
4621 11477 23215
30879 22855 13006
741 5717 25879
57270 8821 25522
41084 24896 17001
48333 11865 10766
53541 8713 15402
47155 16668 11555
22753 24903 43354
28482 6736 2273
56878 10717 38408
15074 22564 43287
11104 20047 17672
35941 24002 45458
24884 18606 53112
20228 518 2772
44487 16466 49082
33135 23988 44769
31354 28179 27505
31521 20951 50167
24641 26231 40378
50268 3468 51918
21536 16115 5896
50001 1558 9850
17991 11844 53563
12224 11530 10203
36981 25731 39603
4351 3950 17192
31966 18450 6156
22380 20042 8720
40228 28174 33275
41832 23973 19194
523 15 24205
21739 2678 2360
44372 1840 54857
51323 14178 45849
10413 20740 27873
33175 28666 29004
27176 27394 22736
27075 9365 57257
57367 6968 36425
44672 24547 20331
24458 27209 36129
37400 2428 881
20318 26862 25621
14519 24198 24679
31221 28404 32790
47513 24327 26469
36895 20640 10500
18593 9352 4927
45126 23928 27456
29287 26466 15496
58228 8545 36124
42457 25086 18703
44303 25068 25374
23193 27428 22477
11992 20423 16932
34471 1462 1432
28620 12005 4236
36631 10020 2306
22082 28993 27717
24652 12105 57009
14661 25656 25974
13875 19991 16837
34375 4680 57675
43715 22859 40997
23048 23937 46902
36537 29217 33360
50533 10160 12094
38791 3618 57058
33547 14793 5127
10159 13684 13887
14505 23485 22156
11311 1771 53411
8163 10442 14094
37234 26533 38018
25404 28481 28694
28559 3105 58350
27137 24870 43537
7638 13070 43130
42774 26085 33178
45713 23586 35067
30636 28809 29962
56077 9743 36944
41893 13633 7169
28550 25263 16749
39743 28228 25744
27912 27712 36404
44955 25122 37343
17794 26309 38181
36467 27464 25649
20272 17707 8938
28262 27627 37908
54383 13815 41077
20044 28369 27755
8155 13065 13780
32932 26463 18720
36059 26554 40522
3122 3265 21227
57703 6112 40005
23718 27334 22944
9806 20403 39191
28943 20311 9876
55983 1060 41459
26071 631 58516
32044 51653 27616
22341 24542 16055
28427 28858 38472
9253 13212 14887
7739 4557 47817
41705 20470 13839
10052 395 9070
15094 19745 44922
21569 11899 4787
46333 21344 20490
9603 20161 27790
43347 26254 36434
14214 9536 51773
26118 26700 39947
25122 23832 44854
55456 13147 25839
8015 20245 25884
15190 22900 20411
42415 21338 45467
28245 51158 28839
29558 8827 1129
48090 766 7513
1471 3628 27008
49166 8915 49785
11802 15815 46256
23820 25182 42130
5875 1328 14318
27298 8503 57532
53962 14133 22126
17433 25188 19092
41623 0 57566
31310 13519 55299
57311 5588 37274
27642 9234 57337
29957 26808 40001
45009 26033 32561
10824 18537 18180
17472 12155 5374
58853 2192 21724
22124 23107 45468
2104 9167 23243
32847 28154 24237
37572 28747 34926
44370 26497 30823
43102 25198 40096
18006 26480 32837
18087 18946 48265
2761 1618 21173
54851 2948 44234
48139 5631 51770
33047 22411 48365
19733 25422 42490
57425 7703 29956
26870 28216 30733
30844 28398 27190
29942 28351 30543
24758 22434 49397
41228 26228 31075
31117 18686 51707
24113 27704 34153
13714 11263 7202
34164 10415 3547
33447 28537 29554
41215 25471 23445
28498 27860 23160
57989 2961 23896
20105 26737 32616
45232 24125 25769
41933 14183 6167
27546 29095 29341
47717 6503 8001
19875 22480 45532
35756 4632 2478
12789 17315 14396
37617 0 1495
32895 7136 801
21492 28878 31258
39747 25673 22778
49264 15115 47552
53297 10145 43407
49299 17605 41033
43232 13645 53344
31906 5360 382
10802 14715 13775
27630 29030 32148
15420 12890 51498
24047 28054 39223
14748 17951 48737
28420 28327 25810
54886 7294 42569
21926 23637 46832
6593 18837 27254
25225 24348 14518
23774 11437 57100
17506 24681 38075
43336 24147 17706
16172 15466 50320
47681 22840 21244
4803 15237 36337
49322 13983 14281
28776 28396 26906
23243 4936 1012
31246 28561 39490
5716 15917 38054
38667 21610 46871
2548 4786 22153
23242 27675 33788
40831 19011 11205
58028 5342 34796
16561 16192 51509
9368 12915 14061
25973 27708 36174
30071 27748 20746
32985 28951 32418
20681 19744 9106
53911 15266 23476
49478 13322 48672
46867 23670 21850
40492 26180 25824
26402 14183 56271
6911 11710 18209
55923 12990 27861
10850 12015 49835
28673 28775 29234
27907 880 1150
1694 300 27606
27564 51471 31231
8173 14106 42502
9378 14847 44091
55284 3835 14080
15900 26630 28831
28659 16007 54197
38532 7880 56264
12363 5756 51827
23333 27383 23986
31546 51024 30557
34434 27760 25933
20987 18187 9671
50358 0 51207
22658 4776 58713
48742 21667 33881
49878 7357 49680
45972 4761 53588
24714 27000 22737
14989 7707 53057
23335 16762 52775
31991 28239 19551
33158 20640 49678
29792 28094 34104
46161 22108 21685
25871 27480 41639
42460 26013 27917
50633 880 8063
41013 24560 16314
33454 1013 1267
38462 8765 2377
42444 13927 51407
41355 26278 28658
40708 24289 44271
53249 1701 10923
14782 18931 45151
18264 25393 36667
4871 10604 20014
23683 28316 21743
50206 9630 48074
29946 28613 33318
52457 17301 26351
4143 5644 41689
10268 10387 11347
22944 17302 6265
22265 29002 32628
27888 28540 28280
55849 2060 41400
52695 14506 16373
25342 1476 58382
37364 28528 23545
6393 13870 20162
15337 12100 6557
34492 18248 53510
28616 11205 56038
12994 23234 34699
23786 753 59363
14385 18370 13568
53127 19369 29614
24960 28589 26563
31109 49539 32130
16025 13029 8493
20539 26411 36828
13593 11153 51118
3657 3605 41323
53663 15740 36187
53558 7741 47075
6767 2245 46849
31262 12707 4497
47174 14040 50331
21791 17140 51452
47683 21727 23062
38282 27100 22784
7757 18099 24790
8480 16272 43365
30888 23465 46334
7063 14034 19816
18463 19223 47684
55233 10149 19804
33812 26465 39967
10992 18109 19041
18088 24323 16626
5806 13335 38946
35449 5033 1939
41456 19881 47916
38900 5 56840
51670 8221 47337
22599 27911 21267
53129 2543 13048
2982 0 18322
38378 16848 7712
26228 4855 1645
22741 20249 11178
56668 9788 39929
17522 24873 22741
18792 14492 52051
16113 24964 28524
14487 11228 51396
35354 20909 50985
1751 10207 32060
37186 22509 13691
25563 23365 46394
32629 28836 33839
5731 15479 27449
44968 21989 41930
29622 34503 27331
6655 6880 12212
40708 27052 32657
56228 0 43964
32542 28494 31200
29992 17150 7270
46177 8999 7560
4150 15262 27047
49551 16527 42586
15828 22532 41886
35944 27888 36350
9886 10600 48015
1643 528 29954
53262 14919 20830
50924 19739 34769
23463 22419 46903
33295 2896 58515
33851 27004 21315
58262 4623 29956
16889 25070 33483
48123 18242 43644
14809 1055 3976
43815 14352 51108
26801 11585 2287
53805 15485 40073
28472 2608 1738
40520 2220 3113
32339 28177 34625
29435 28227 31933
3464 14304 29705
16431 13500 50938
31075 22057 48998
45560 4386 55312
13401 11427 52335
14556 1304 54280
40974 26712 28718
34291 27567 24036
2297 4471 40753
46038 300 6152
46677 14198 49071
11572 20491 36980
31422 28838 34412
41866 10465 4277
32553 1730 0
42837 10137 5957
11300 6196 50722
44694 16921 9724
28810 28690 29958
8031 4046 9754
45214 19788 46884
34998 12999 3203
27466 4023 212
25381 15853 5953
4950 10867 21880
21080 6586 3147
40055 6349 56165
56868 2084 19511
15303 0 55176
37308 25067 18584
24698 28023 33727
36606 26071 20750
28751 27329 19629
16903 21194 12929
26491 18501 8176
20090 0 57929
52102 8086 12987
2212 1476 37432
32322 4945 1500
58729 2526 28376
53070 6993 14938
4168 10500 21828
23508 29091 25448
21720 27026 40424
37347 22381 48769
17509 27121 34130
9819 21687 35538
13911 3008 4696
10797 8662 51467
3357 2831 19737
37663 14142 53602
22074 9548 3698
45969 25250 25747
30826 29413 36421
4921 6818 45114
50520 19806 32052
16466 26659 33835
29687 28123 36183
35900 726 57780
5826 6464 44521
21332 4815 56596
38792 26175 42091
29930 3292 1487
1728 6104 31099
20887 18046 50372
57692 4491 22853
31041 26630 40222
30336 32614 30741
37385 15658 7110
45110 0 5329
28810 16623 53413
35678 18215 8679
20619 27432 26274
14729 9747 5878
24372 27822 36894
47982 15260 13740
28564 28706 24688
11850 22082 35845
47350 18531 15605
6049 17812 25679
30704 15658 5408
21419 26940 27624
53399 4364 13455
16084 465 3292
58714 2718 31768
4106 11919 24263
31981 11785 57579
20157 27073 38851
31422 7125 57372
57680 8034 28451
55614 10300 41995
32253 28506 33111
2056 6378 25821
2543 9447 37913
55626 8997 20011
44859 9872 7050
34404 11400 3592
10045 4981 49997
2238 8024 27657
44441 10515 52205
3137 7402 35635
30774 28137 25028
53182 0 46649
6028 0 14376
53223 15937 19150
40360 13806 53098
38794 7032 56648
23464 27432 24691
3482 11112 31323
23224 5419 58746
19635 27294 31257
31484 8416 57411
5967 0 46362
7100 17881 27792
16429 24790 22562
26476 26991 20743
15132 22244 18291
27248 15670 54308
4713 10852 20692
31318 300 58733
27485 52450 31576
34318 4361 474
40741 0 57363
52521 11139 44474
26341 8748 58510
56782 6992 38586
15950 20531 15847
16656 20449 44834
28210 10909 57948
19148 10256 5023
1817 3835 29938
52679 603 47778
47434 21164 38778
33718 15760 53558
24497 10557 55771
31258 28205 32201
13052 21628 39767
11735 10553 9962
9283 21884 28983
32350 5556 58242
55170 12879 32540
22238 27242 33415
23817 27797 33104
32266 28041 26018
35842 1466 58198
30644 6115 59401
36997 26631 36897
24163 23003 46930
22561 4530 57507
2072 8526 37213
22624 28557 23708
28974 28305 32464
40738 14039 5488
32264 17835 7935
27365 27981 26349
10026 16469 16634
28676 27644 21634
7521 17637 33544
46650 22983 31645
42094 26327 21538
14043 25570 29088
7561 17477 32344
39222 650 2558
6375 2749 48327
17952 23355 44724
29775 28687 28885
45814 15825 47441
57697 11521 26873
29312 29167 31308
19359 25782 24581
54856 56 43407
40550 25061 38438
22236 0 57501
39111 7684 56361
34932 28207 26646
34826 27289 37323
16216 22843 15876
34247 26057 18917
41572 17058 51923
3803 6687 43127
21720 16575 52373
27835 19777 50316
43567 24682 37718
34572 45 230
56575 11521 32134
27878 30029 30246
57602 7170 39599
54007 3313 14261
24837 23167 14026
28286 27661 22160
33557 16822 7006
32001 21554 10717
15753 21713 45264
12931 1286 53208
45858 9691 51690
1982 0 19265
27875 2700 59805
4057 5517 15711
44456 25658 36467
22482 26164 16921
35569 27746 22620
42170 300 4010
8383 15648 40986
22380 27770 32004
41893 15062 6679
1638 884 26964
4016 11470 27271
14230 23549 27491
4671 15351 35583
1770 8693 23975
26921 28399 31950
18833 7864 56767
40075 6795 3666
46808 18570 14988
35949 16397 54525
36201 19135 51018
44747 21657 17064
38138 14398 55149
29825 15175 55996
53933 16265 33155
44590 15458 8551
12807 23329 26368
55901 13254 29821
40695 8780 3186
43345 1171 55501
45389 23935 24852
53296 7529 12376
10157 4879 9441
47988 18244 16045
11854 21908 26079
6436 10959 18030
9844 10939 10400
14896 11097 53500
41643 20780 11433
15436 18738 46197
7246 14242 43628
50661 1053 51757
41374 27881 31439
46242 2625 55100
60005 1857 28904
30566 14978 54866
18760 25545 38557
35964 17297 7511
47081 21375 19779
16427 21765 16020
7832 1891 48345
26846 20601 9528
30600 31718 29285
4301 9819 42172
26002 12792 55086
2795 11929 24919
18696 27542 34742
53939 9064 43632
56634 10569 27044
7074 8524 45477
29580 27830 23138
37038 24076 44884
21069 26469 24140
35846 13714 3708
35482 26134 19206
38992 20641 50016
44025 24674 19683
26409 14374 4908
7129 16111 22583
29486 28831 29798
17111 958 55731
57185 2365 20392
8442 8074 47454
22525 17774 51765
36678 0 58617
51683 16964 39475
7052 12585 44836
36350 5913 58772
52857 17012 39829
19534 4457 3336
58408 4654 33128
16569 19564 11302
29993 20958 10191
40073 25347 19444
5433 4651 15340
28381 1636 59908
35329 27112 17838
21254 20459 48784
26263 5822 59222
41571 843 55810
27476 14969 54370
34430 28682 21754
23675 27783 31306
19930 12804 53990
17996 25614 33184
5128 14782 28634
31049 21335 49317
40734 26930 33621
59217 3298 36429
14729 21323 17169
28901 0 983
16186 3806 3486
17311 23872 18884
28654 13292 4393
10720 0 7780
38161 2630 57527
39587 3119 57027
3161 12987 25675
55387 988 16199
47612 15165 12429
14249 24166 38743
16342 7884 55575
36486 28865 35692
22196 27507 30787
51082 21537 28721
56363 2508 41572
43547 22395 44963
3752 10567 36384
38621 17079 53222
33704 9973 58105
24461 19222 50771
23777 3794 59145
17483 25214 25863
6508 15634 40557
54049 12453 43168
798 7325 30361
45449 1244 53644
9095 4256 49465
53711 15262 33652
38315 28052 37220
11012 17936 14877
13064 20626 40892
35499 24945 17472
6224 16187 25452
17099 2410 55259
34750 12620 56870
8945 21578 30558
9425 39 8024
33590 26663 39223
26967 28166 32904
23879 25594 42607
39812 16937 8348
7090 18797 35486
48569 11339 50797
17511 2890 2696
4343 13108 26184
39375 21402 46224
4866 16346 26746
22387 15044 53328
22735 27972 38507
32589 25460 42296
48245 22221 20807
17800 26288 33630
15439 19710 47487
56328 11597 33885
29601 23487 12586
49482 17516 17196
35756 23532 45011
3140 13541 28235
27170 28411 27851
47251 9055 6941
2549 12122 32867
15387 16796 48679
48226 8264 9699
8908 18113 38054
48365 22066 24678
32143 28040 26566
27994 30105 31390
18499 22206 13069
48583 21274 22642
32223 28799 34313
43068 27139 28429
28669 27861 18480
23002 26892 22227
51516 19410 26745
11950 16617 45600
20926 28595 26960
5480 3544 44061
33905 6168 57951
52258 18355 29956
51087 19718 25728
34135 28799 37799
49136 11438 9655
58520 8080 35277
3181 9785 35100
38115 25433 15864
16121 24084 38852
19608 5439 57629
39385 13148 5768
28634 29549 35643
6356 11626 44520
31659 28464 20149
48040 24033 32514
53531 13827 17118
30560 29380 23262
27845 21869 10706
16371 6795 3972
45098 7391 4938
37018 28258 22088
56459 5490 40297
54011 11477 18301
66 178 32942
34732 27163 17724
11637 22559 27555
40217 22868 15783
22295 21678 12758
36587 28362 37731
2947 8384 23722
7975 20528 28305
16976 25330 39861
24704 28004 25698
24471 300 1747
58635 300 28967
23706 2085 58064
3736 4559 15981
57981 0 37542
10907 10181 50901
58717 2163 32470
10975 19863 37211
13471 23079 26481
42905 21731 44537
42339 24426 19719
47349 19639 41229
43763 7470 6133
54230 13012 42230
43019 26975 33449
36451 27997 30573
49227 21672 33437
20669 12196 5777
1966 4271 35708
40071 27437 29754
51424 874 49231
52317 17994 33430
48777 9915 48735
11698 8288 9016
16162 21181 46339
55292 16311 28016
22523 26760 38988
28506 5399 1574
56300 4299 41230
28890 19925 50655
43626 16701 49507
5367 13432 40975
53620 11058 14847
11805 13243 48309
9622 4682 9936
27554 28718 30030
51484 20113 36594
17109 16020 51989
6713 17520 29953
57857 1890 18744
52706 19066 24372
38314 13060 4048
35726 27452 38156
46894 22721 19523
8710 16657 19150
55782 14817 24915
16846 25957 32553
43713 25012 32810
18773 23990 15512
9230 20443 29135
47190 22950 39291
28179 23333 13224
48376 15039 13085
48757 1480 53388
13036 22890 32662
35110 27843 28768
42125 24774 22920
25528 29133 23614
22769 1037 57850
22656 26994 36592
24778 28351 28262
51706 3088 48794
35816 25866 18419
33311 19448 8949
30972 20329 10122
20288 1629 57080
47679 24244 33034
58296 4886 26223
51628 20998 28973
56121 11892 27098
19506 25299 22348
9244 21125 24265
6228 1826 46244
47442 6894 8313
48443 7357 8802
32096 18646 52241
45675 24572 27888
50205 8551 11739
30949 28307 33661
35843 24722 16851
10891 2972 8670
23197 26691 39694
40682 26628 28223
25985 29456 24997
22689 25168 18766
845 7106 27610
29695 27492 20026
34588 4563 59310
34663 27246 41967
46896 10332 52646
40315 26759 30979
51794 16329 42904
12205 19208 42751
22230 8517 56526
26112 17879 53888
31945 25615 43837
57035 7934 25562
56612 199 20384
30992 47139 31740
37187 12126 55331
21572 10374 2920
27821 23950 46490
22691 26731 22680
14324 23884 29980
15370 24782 28447
1095 3636 22478
31510 28721 27545
24347 28344 25630
31710 5855 58221
40139 1682 56383
24803 20218 10530
28561 28379 28983
30570 15385 55848
38367 5315 58342
3325 431 40940
25395 16829 6609
27960 12629 3838
6433 6320 14336
34634 19432 51176
38896 21925 48632
33903 23973 13714
28976 26710 20463
18314 0 2743
49719 3685 7481
7301 6023 11115
54586 5012 13306
16738 18244 9929
35490 22487 46940
29573 25660 43882
29405 50953 28677
16657 22684 42552
5334 13448 37420
46326 10659 51454
50504 13897 14669
30892 2984 59850
2627 12449 28142
26242 10697 56652
21981 23673 43779
33297 22173 50100
12712 19539 14800
20532 7970 3716
16791 17458 9206
49329 23141 29139
25437 0 59366
16531 18990 49109
49063 16630 15501
44187 20434 44074
25598 27864 37580
10941 23092 26325
33474 20473 8061
24152 5003 2626
30453 26462 17549
34036 13120 55168
48578 21758 24114
978 3938 36796
43609 23482 40689
44469 15691 49742
2195 6234 28484
57589 8567 29952
29604 9212 2407
43191 26278 23211
46023 17911 13913
18885 26362 35842
27117 12429 56050
4895 261 13408
36227 26991 18002
55922 12044 24573
30919 28312 30442
12863 23614 30915
41828 12702 6748
18562 26345 29378
38696 26404 18224
43950 18647 49118
17839 26002 29974
5428 12060 39370
15144 2965 5303
30061 300 1506
32973 15414 55677
19095 25967 25079
58068 355 23940
38919 27238 20558
30439 28744 29387
33007 29523 24698
25790 23372 14369
46771 3794 53046
32104 300 58697
31219 27491 37927
25843 29829 29993
30367 28822 30823
12843 22946 29922
42760 5541 55305
27915 27755 24609
34512 1043 58150
29109 27615 38004
8911 4319 10899
36030 28055 29538
44372 20531 15477
37094 20677 50713
35295 4496 1835
33516 26229 17539
26529 28208 39995
57281 6417 35694
32302 29963 27895
14046 1646 5913
49839 6253 50080
36242 17768 53477
20194 3067 1642
22634 26300 20909
21254 28649 26534
28592 27378 38543
25433 20998 49658
51801 6674 12274
34246 14421 5035
4840 13375 24143
23053 300 57401
13381 11659 9470
49679 17980 19892
30886 22626 47409
22199 25882 41011
32581 28298 36757
42081 25833 25928
33855 19118 8271
41862 24185 39499
49385 7639 49347
28268 28494 33220
3043 3367 38679
28884 19589 8766
36911 17815 6592
52714 17458 20503
20761 14058 6221
22813 12490 3471
8402 12522 44781
29970 21734 48355
48494 9215 9520
34208 28161 30566
47057 22220 35440
50154 8062 9054
23639 4145 2007
30536 28737 31466
52534 7919 46409
56189 13032 22704
26698 23756 45621
58588 0 35567
38820 26498 36309
50514 14935 44179
48012 3195 52205
13527 23367 39569
26622 15147 4078
29122 24543 12419
24804 25517 18248
8028 14422 41167
51590 9851 13227
47515 20986 40158
46197 4509 6375
14862 5393 4471
6704 11630 45052
18429 20704 45840
11799 22091 24232
31584 18458 53711
33867 4921 59368
1778 3572 24765
37118 26328 19442
42954 17905 48907
49888 12297 45991
1388 9481 29883
52260 9895 45722
35705 2936 58130
56121 14308 25304
23796 17323 7352
10304 21201 26294
10031 18717 42564
33502 24966 16817
36280 29410 31851
45366 11183 51116
39106 13562 6290
23910 23424 45732
39489 25160 20359
9385 10112 49414
4103 3323 18438
5794 15420 33802
15184 23596 23347
31510 18845 7751
32739 52450 30784
4429 13507 38453
30095 20852 9506
11986 4487 6241
55997 3543 41466
1126 8245 32017
25049 20184 8055
11056 15230 14549
24689 26568 39066
50448 10874 13369
19780 22544 15838
18324 19013 11926
4863 12407 23217
53975 3964 14281
31102 28286 24429
43859 12355 53697
2874 9014 39404
29169 29387 23322
27907 23828 13170
42178 20757 13413
21978 19476 8357
27840 28428 31281
29077 9593 58460
24124 1091 57835
18585 7815 4422
8753 17569 17673
58382 3406 20456
4730 4713 43191
55593 14790 23971
49034 18184 42410
46633 1923 52775
49056 19742 22583
2847 6589 22337
16457 25188 30626
28786 24907 45134
47226 10897 52118
7427 18598 37311
57101 12861 32996
44260 23389 21617
58154 2537 19647
18897 6443 2700
24091 22110 11802
42074 7499 3358
34399 28885 30280
21438 24540 18224
43097 26115 30743
36635 19237 9607
56362 3063 19794
26181 27428 37338
3514 278 20090
51457 6422 48309
33935 16066 53879
37014 27903 35077
29959 28710 26980
30340 0 233
13710 2751 6216
18713 27845 27436
11624 15278 48285
3232 11117 28505
50484 13454 12374
45784 1286 5785
21279 21430 12795
8991 18612 23185
16329 26005 23127
16163 9555 54922
48150 21600 26052
1672 2155 35163
56681 2065 16208
42768 5006 55409
33296 5304 59388
23573 26952 20647
27112 3738 1371
44208 9802 5210
7104 19382 32949
45718 17820 46791
3582 11741 21376
7136 12402 14731
39154 26241 23275
22865 13915 5418
20178 15400 51973
40897 10957 5315
25045 9797 57968
44372 21746 45105
1900 3952 39904
23998 24065 12766
40235 25010 20712
30390 29171 31290
7843 18824 27867
36969 29315 29774
29667 42862 30639
30781 23916 45461
15812 26399 26600
57260 300 21957
26125 8159 58648
49686 19960 37952
39225 24985 44074
4505 9375 16937
57278 3616 17683
48687 23127 24867
25399 22429 12758
14859 16025 48696
36026 2110 514
28872 52450 31839
48533 12072 48496
25693 27454 18223
55232 13545 28581
7052 11258 45869
47120 23507 32541
51621 12538 44000
10721 21022 23788
8825 300 10915
3046 3836 42718
41184 27395 35736
32475 11922 57498
27021 29019 31421
26699 27116 42689
1782 3289 34400
29896 30071 30534
8234 12401 15225
57079 12538 34110
41763 22058 15415
24066 1695 58111
42142 15635 7197
28096 22767 12431
17793 22487 16374
9250 734 51663
33043 52201 27604
52851 15359 20505
36156 5655 2191
54501 16624 24184
35950 21658 48157
28887 26799 40148
36424 28124 21132
49990 22354 26646
21709 4351 2551
43418 26878 32740
40235 23862 43299
39196 3474 1460
8172 15835 16472
51675 18321 26476
14468 10397 8540
22400 27270 40314
40937 21392 13383
3472 10805 25239
16559 25532 32043
30308 27810 36686
56438 5776 43095
52057 20506 28266
14159 22937 21259
11695 17173 15173
52562 19457 25123
27791 27421 38254
11829 18808 18167
21077 18506 51990
32348 37590 30831
26803 10467 56822
32881 7547 57507
48966 15805 45335
44868 24412 35940
23731 15115 6530
35280 12554 5012
15783 22610 18167
51799 12202 15082
38137 22012 12572
27863 26926 41077
56586 958 18674
18049 22083 43223
2559 4876 37687
22621 4145 2279
24786 9732 1905
28187 50648 31392
45163 24963 30370
29979 15390 53846
19344 23964 17096
55239 4355 16472
44210 4650 5117
34371 13292 3244
49951 658 50787
10817 3854 8597
8455 5364 11358
0 965 28465
26391 10725 3189
27634 24216 44659
44007 11475 5816
20383 0 3262
4003 2796 44844
54701 12227 17736
53341 13298 19523
47207 24710 28015
10208 6594 10099
55314 12360 19181
12411 19718 18543
25898 28579 34456
5073 4750 43856
55890 2678 42492
33493 27537 22118
25184 26789 20594
17686 18332 10929
42199 3378 55940
28920 24200 13623
10552 19590 38564
43523 25514 29141
21830 7598 57891
60007 1352 31383
16477 19171 13297
56889 300 40245
4512 308 17054
36267 11559 2812
35833 25668 41460
38264 22445 48337
3190 10434 33710
15254 23791 38272
11621 20815 38134
20277 24630 42255
33993 16151 4793
15749 24577 27729
19091 25282 22046
50037 9458 11810
23730 27718 27132
34768 28228 29103
13676 14600 50619
38404 27110 30839
17579 26045 21141
24614 12368 4886
10903 1728 8685
10661 16475 46156
25995 23821 14998
20181 27129 21154
20238 20954 13002
8050 17928 32292
16949 5430 3370
41531 2551 2258
51654 11680 14452
50940 19065 32156
6832 4552 13166
38736 16502 6252
8881 7411 9798
31085 300 1461
31513 28766 25049
59570 0 34172
39060 26026 22510
20523 21822 46840
25190 27157 17746
46668 16450 48945
30767 23357 10856
48210 14828 47116
3142 11442 22551
50036 20444 26675
11913 921 7655
54019 14340 18684
24507 6739 58751
50052 426 9883
36150 26691 19726
58583 1878 26838
46687 20418 42402
18531 18884 9390
26413 16842 5187
5465 13695 22455
18823 24606 41009
48408 14770 11181
36745 3094 59097
52465 3545 12068
18800 2834 56426
4321 1723 45493
7298 10412 15281
24400 28578 32374
4535 9763 20251
50698 20559 29582
37953 18446 52416
17875 19809 46710
24856 14669 5736
10939 19913 20449
43277 5599 4823
51139 5870 50530
14667 24371 38941
5353 7767 14483
50889 9232 46877
6392 18768 29669
23873 20518 11060
52424 18688 37545
33442 27942 37772
12743 23622 37277
25223 28168 29903
42627 5665 54750
30865 34406 29758
52389 3627 47862
31261 3731 59745
45750 2725 4442
35134 29682 30300
25863 11434 3831
16050 25630 31400
10202 20567 20229
17106 8142 55880
30593 17371 54565
25240 21861 50151
46761 4964 54430
36602 24405 46387
29735 27973 38372
1911 1687 40511
9739 7048 51033
4737 2861 43668
14409 23148 24021
29666 27959 24772
37707 25588 18122
46413 22568 21369
16196 25022 32844
12593 17903 46819
15753 25586 37108
25690 8666 2737
23234 28062 31007
23947 25947 19430
42388 22111 46286
57545 4471 35811
43423 18869 10594
7634 13934 17642
27965 21293 10608
50497 12655 11789
41026 25708 21494
13392 4678 52911
41631 26228 29301
1317 0 37122
26527 28589 28982
43980 14049 52636
7183 9619 45021
35175 28302 20912
1891 1707 36391
57132 5865 38208
10194 8931 9077
28847 28762 28759
59693 2195 34178
18829 26196 34188
48509 19937 39325
5165 4712 15806
52000 5541 47900
43946 22714 18011
54772 11884 42287
55163 2697 43916
10148 1886 7395
25691 27865 32681
35756 19923 8035
24765 20497 49630
25010 19146 51330
24537 27925 23275
54235 15287 24734
19398 27859 25424
4620 2613 45834
39561 26669 32458
35079 27597 35629
29892 28079 18934
3548 12957 23595
5173 15032 27964
1407 916 26090
58358 4202 26048
48500 17427 15684
44419 7363 5879
26629 28924 37693
39195 26980 27898
50877 19234 26541
19277 22138 15247
18568 21037 14270
16366 8479 54083
36573 5334 2243
36607 26823 23325
5940 12235 43341
19082 7293 4092
12667 7195 51987
32870 4724 1913
2293 7834 21035
50547 12954 47778
17814 24972 37802
28580 28796 34650
34586 29733 31545
28508 28533 28504
31992 20380 7774
43906 7680 53933
18049 20415 13556
5348 5368 15693
43180 15706 9553
15292 6566 55391
28723 28481 27410
48445 13111 48161
15127 20397 43404
20203 15537 8057
1772 2909 24416
23648 28023 29244
47557 20259 19714
15559 24660 39554
25950 28323 27654
33142 21946 10951
47075 24836 31055
6638 8277 12796
38284 21315 49609
25752 18258 53538
58426 5176 31598
8462 18373 35688
11522 23087 23955
36212 23045 13644
24881 19265 8663
25801 10107 56372
57182 8275 31380
14566 14302 49025
5896 4826 12524
51641 7008 47485
29334 28147 32970
25236 22275 47622
43862 2226 3334
27977 25695 14269
4060 10828 19081
29931 13867 4963
39409 24518 41506
48692 16488 44964
16884 18344 48392
8431 16771 39536
49950 731 52441
40479 11107 55895
39836 10970 54940
25476 4066 472
47179 22602 36711
56934 8402 32787
39017 28389 25298
38502 27150 36604
52420 8865 11887
37646 19227 51873
22233 25098 15121
24463 3847 605
23235 11014 2717
8678 6189 48535
52408 17205 19379
7077 17091 35428
53051 16924 27483
2666 6036 22570
23423 5815 2337
37164 27143 35107
3124 10514 33112
48032 22568 25708
29961 25516 42403
7565 14015 41336
55020 13375 40099
45497 2964 5988
5353 6943 43473
32973 4221 1505
53920 766 48141
25375 27478 22905
52743 13645 19767
34081 16962 6616
37794 26643 20789
16267 8296 6241
1871 7601 22395
23787 26754 42375
4053 12769 32862
58738 8662 32556
45917 20907 42597
16919 393 55677
15248 9794 52896
57700 10613 35259
35914 4070 57560
54512 9433 19002
51890 1454 48725
18721 25824 36473
45285 103 55847
30232 15303 5168
4237 1854 17007
27813 25512 15864
41880 26077 35676
284 4050 27627
30067 28220 40550
22168 9089 3516
22193 27365 27383
19491 26591 23886
37117 7669 3294
24567 12215 55442
50119 22455 30987
26375 23077 47447
33489 28115 28365
31395 27519 23045
4432 10524 41887
42524 7196 5272
41343 23565 18506
9620 20907 37445
34681 25586 14655
28586 5521 57818
29360 15644 54455
26056 28203 29343
40441 843 1750
617 5031 25875
39126 885 58587
34220 11521 57432
44535 23832 35476
16758 10279 4911
15920 12337 8221
9639 20691 27126
21326 17136 53155
43187 9322 54038
28470 24645 44759
37637 26266 40215
40311 11167 5183
25744 25897 17081
12671 18491 15548
8367 6996 11993
18897 22612 44672
407 4846 27323
45634 21395 44365
36859 11255 55616
20263 26900 30993
9108 13798 44720
21750 28024 30492
31226 28407 29307
54966 10373 16641
36850 23268 45242
12076 16820 15454
31246 14110 4800
50528 0 51696
40237 10074 4715
27039 25632 43636
23977 17770 7656
4492 15270 24912
25880 18460 7755
13279 0 6134
31690 52450 29984
55137 16255 33530
7782 13162 16583
1751 9453 25551
53988 1976 45911
1504 6397 37183
27277 9789 1556
39165 9258 3997
30680 11744 2189
3161 9332 31341
28502 19273 6787
48091 11576 49497
7962 300 11321
30283 27836 24448
58111 6424 29896
25161 21728 11866
4166 14371 35804
45895 15981 12285
31458 6355 1886
38744 6207 3134
38720 4748 3013
58037 7025 31922
1893 6749 31570
27505 27962 18931
48758 2034 8035
26451 28118 33906
54984 7100 45160
21085 22608 12069
37838 21070 12378
906 2473 22756
38707 9422 57207
47129 523 54640
29529 23318 49057
3977 12406 27237
38758 21592 47485
34917 25843 41064
9412 2806 50000
29254 28282 29441
13077 1841 54717
15032 23295 20691
22771 27639 39576
57520 9150 38086
26814 24922 15019
30259 28472 34650
54523 15223 33576
49792 16867 16834
23909 27956 30864
30964 26998 39502
24961 16003 6340
15759 7649 55344
10517 20857 28908
7443 17182 34777
2352 4155 18843
7225 16964 19763
4406 12907 20668
12912 22544 37103
15962 23449 39078
40764 21748 44696
8114 18034 24082
15664 8643 4872
11696 18176 45530
56283 12282 31532
52980 10613 46304
15720 24678 30666
36856 12857 55062
16067 23667 42416
11951 12499 10900
10748 9381 49483
3969 10807 25822
48128 21183 18416
3492 7827 38724
41273 2101 3393
8722 17499 20424
59035 0 22709
21155 19275 9912
46912 5810 7131
24181 17792 51588
55698 13156 38621
42189 21395 44931
49128 11117 50391
29381 28492 26010
50138 4334 50098
1499 2316 20543
59621 2151 25200
36177 25447 16960
38889 23601 13376
34471 19191 7087
23207 27152 36768
26869 28791 33768
20743 27714 29557
3043 5009 39206
21728 26198 17485
12383 17936 44622
6590 15949 34898
51735 19189 21630
26881 17218 53208
51772 4280 48493
50618 17062 18411
8115 19247 22194
35881 24408 15007
50969 10375 12947
57802 0 18931
28661 22288 11140
18645 13619 52209
14546 22031 40000
15254 25026 26831
17857 21908 13112
48653 15579 44991
13256 20060 17800
33648 9832 2874
26293 12014 2545
34525 18445 8285
2770 4510 17880
42632 6232 5192
30032 21547 49199
29024 27019 38824
43720 0 56141
8527 5280 9521
19406 26598 25866
46014 11834 8765
10538 8466 49417
13279 23875 28081
49773 13713 13609
1660 4457 28517
20656 21936 13726
47234 19077 14125
39670 16980 6961
3557 5748 43068
49603 78 9559
18129 24754 21346
47955 14760 49132
24160 0 1053
32886 28291 31848
29861 38685 27358
30659 17239 53395
27332 26927 43256
19744 26855 31529
37078 26877 38956
1201 2597 29811
53774 13998 20753
29997 26163 18671
32794 27451 37324
48597 3199 53360
38 1505 31907
47596 3921 52542
50688 19687 20218
38735 5240 56886
38934 7855 3470
9578 20057 20419
46175 16980 47201
20726 26221 35908
29659 3179 59862
49347 20577 37203
56391 8526 38494
23730 21639 9864
31538 1590 58412
20404 25704 22132
46257 23284 31664
22316 27151 25018
7216 18146 29453
26563 28410 24024
1012 6709 25455
3282 998 43651
32531 19753 8615
6708 1530 46818
57424 1577 37242
50047 10262 49922
15842 24827 23905
36735 27594 36792
18505 25869 26847
29024 20910 49205
1480 5651 37637
52357 17115 22421
5144 5174 13796
49060 2967 51038
21125 26776 37572
56683 0 18362
37909 29088 29728
2888 4405 20812
31235 28759 31097
32067 52450 31697
28964 26160 42910
10140 16295 43612
30005 28295 29804
42722 20152 45589
4500 12699 20150
57214 0 39410
19745 883 56813
17671 18798 48461
27763 2860 58602
34413 5167 57526
55215 1580 42737
11259 19596 40675
50080 18779 39606
31703 8686 2321
18704 1236 56481
33251 28295 36479
50472 9181 50019
31281 28665 28175
47755 22492 27099
2620 444 42372
34841 29511 26227
28081 39135 31437
44935 6201 53957
1415 9372 31212
41080 25754 35613
19660 27183 27110
8308 19302 32499
18998 17049 50804
52405 17911 24787
2769 419 20361
7732 15606 38459
47644 23629 23573
49653 21813 36842
40877 26281 26320
53163 2811 48907
50255 295 7669
54465 6725 13731
8798 11327 14557
28873 28465 30863
1212 1259 28494
34800 14085 54913
44633 21557 18076
32507 3902 59657
552 6349 29801
30580 16694 4823
35755 18420 51283
23189 10449 55433
41652 13120 6980
23533 27840 30306
54918 394 13105
42088 1205 3712
9294 15527 16654
11828 9909 8062
32593 14828 54238
47877 9590 49818
8897 20266 22597
4463 15037 24327
37133 22525 45874
13496 18423 47160
27596 26060 44919
38688 21773 10936
10179 16859 45142
44256 4399 54748
13175 12232 50199
40554 22650 46820
37176 27437 31483
13952 21317 15843
9441 0 51101
14019 11402 8521
38620 26877 35496
59428 0 27071
29983 11512 56440
42190 19762 49165
6601 13070 41152
44984 15580 8895
54273 14435 26062
3086 13584 29650
16909 24653 22389
52299 1333 50111
33734 5596 59266
15705 1013 4841
48774 18438 44649
35086 15017 5729
29727 29136 31874
48575 21540 39978
12282 14397 12260
49632 22828 31934
13683 23576 29130
48447 4458 51766
2272 4464 34321
32605 16920 54768
26917 23378 11118
12160 2316 54047
56828 9181 28496
9581 7171 10666
24851 2989 59411
10975 11939 11515
6286 4451 11942
58742 8898 28690
14319 13399 51916
1728 5066 33483
26127 28261 31442
53593 16804 26902
46077 23505 36378
15942 18828 47153
23577 26127 18512
45102 24975 28706
54777 10888 40482
40332 14379 54325
57595 7374 34820
46980 12240 50080
50463 7285 11507
12286 15832 13943
55204 13656 29956
30822 27535 21478
3453 6767 20528
11006 22903 25046
33949 27803 33940
15324 20055 12838
3884 11725 29935
8297 11927 47067
6760 17499 31148
57717 3645 22532
25479 29447 34451
17399 26282 27940
38041 25676 16289
10277 18453 40876
43122 12962 6090
36855 26112 41124
18808 26951 31384
35692 22429 49286
33685 28547 38883
34687 17207 5612
36301 26990 36288
30468 7650 1962
29187 30824 30236
49415 2521 8636
41198 6888 57010
57375 6107 22722
4910 3821 16059
35039 25840 17262
8583 2956 9021
20079 6540 55770
46363 2356 53633
27657 204 58100
24293 26528 38774
20242 9623 4497
47774 20501 20863
20476 22111 46437
25830 12879 4222
21522 23159 44579
35586 2997 1708
55047 6391 17156
16529 8348 5645
19713 17468 9018
38367 8988 55562
19778 28237 27287
38033 27292 39916
32132 9417 2566
34079 12687 55440
12766 21417 37576
57174 12152 25227
47224 17062 12006
35927 29527 30896
14377 21040 41311
7142 6157 48504
43849 19432 13183
6358 530 13361
2281 58 35518
24826 28706 22313
11600 20275 20580
44698 22633 41066
48695 22861 36117
3809 12099 28566
7557 2892 10081
22133 7085 56890
45326 6097 6361
1159 1428 30465
31861 28174 34737
14056 23376 37129
31462 24620 44182
36393 28606 22862
10856 14085 13169
52440 14870 39949
50365 20848 22176
48890 23493 28722
47433 12198 10489
4338 7287 43871
23677 23228 48101
56586 4100 19299
5978 16420 29242
43124 12215 7030
42160 3744 2627
10912 21595 21039
42882 14428 8186
10260 7093 9962
40299 8886 56787
24171 11160 3749
54101 9993 17231
46885 18233 46998
27135 28085 25618
44262 23382 42602
45488 9924 6084
38412 23933 13618
40320 24977 39266
31222 26249 18234
46154 7733 5720
31483 19026 51948
18428 24381 39289
17957 678 2366
43910 20721 45054
53460 17209 28595
38938 27438 31322
30882 27259 38732
15016 0 5078
32603 28193 28347
50099 20798 26036
47066 24186 24094
8838 19196 24219
12802 21794 36573
52022 5190 11881
24251 27589 23616
4557 3170 45661
44421 25102 38421
7790 16924 38144
8914 837 48946
31584 20086 51002
58914 8460 30322
12715 0 7251
2300 8090 29997
37233 17105 7771
25378 28141 25345
6180 16424 28747
30659 28683 35449
44934 19466 45680
22105 13445 5361
35492 29418 26397
55171 13484 27259
49968 2260 9162
41469 25395 38734
27273 22562 46967
34009 29219 23738
38311 26229 39768
42845 18740 12270
54172 3202 47613
22411 27348 35399
42068 25144 38643
46020 12052 50970
29983 10960 56330
11549 6046 51410
46561 17274 13322
39691 5514 56637
5533 13910 37207
15274 22036 15548
46257 25200 26591
18239 11089 4493
45501 24087 29096
48365 6079 6866
22680 19377 9420
20771 26060 23194
36385 20889 9124
29282 27374 17309
46401 22684 41169
3633 14443 31958
25515 29623 33044
17434 2567 4038
11213 3201 53195
56760 2815 43370
26167 28112 26075
47324 16525 14251
41341 13489 53052
28591 28085 24671
49482 11187 47504
37484 15004 53052
35269 27481 24079
5172 16347 35030
29047 27412 40023
44839 20274 13207
32789 27136 21415
43655 18923 13080
50365 12509 13408
18560 21781 44126
24651 28015 20153
30389 41729 30345
4716 14354 30461
59016 7952 31214
12577 14229 47367
41203 24931 21787
21424 26109 38475
40334 28303 31047
14432 21540 19888
42436 24599 21846
39686 26786 28895
11806 5839 6684
36773 23311 14765
53227 13370 40232
14398 25510 33818
46777 16862 13139
47719 22929 38305
5517 7246 42382
25920 27372 22039
1187 7941 33596
10188 3638 9185
44737 19226 11966
8813 19246 39454
22761 3586 953
19423 15742 53374
31171 28326 34488
53190 3025 13077
53113 17035 34919
4380 12334 35897
25333 9722 56854
34250 24856 43141
22523 22351 46732
45951 23955 29896
22421 27280 19549
12449 22133 22615
45111 2230 55869
14985 21949 40869
26239 23686 48231
1383 4107 30620
56103 2158 15087
33459 16748 53483
40039 23172 46425
16734 19860 13564
10627 11693 47477
52381 18566 32181
47324 19948 42294
37153 15738 53347
56954 9439 35109
3812 9406 38175
17409 26203 26990
1997 3860 23758
45832 23660 24763
17524 22561 42395
36102 21235 11205
5086 9218 18941
21950 27503 29908
40982 26297 20028
48506 21683 23644
6519 15005 38268
4998 14027 39193
24339 17559 6074
25006 28272 31235
39300 7171 56417
22163 16023 6910
45127 16670 48384
39910 24871 18246
49102 13329 12494
16154 26728 31712
51223 8750 12210
20291 7778 2501
53851 18201 26856
2677 11892 34282
34311 19708 50351
32858 4639 58371
41672 1732 56183
36606 27541 27381
17328 300 4305
19935 16430 51758
49884 11397 12049
26367 22546 47192
18952 24286 15864
9770 20993 30670
52964 19503 28687
51326 10625 46522
29755 25334 46307
51150 9722 12737
58937 6494 24729
36488 25584 41237
4545 6818 15336
37594 28042 37998
21654 16803 7672
23195 26510 19705
46827 20802 20205
47778 9594 52264
4258 2039 42859
8328 0 10883
54995 13126 24595
6353 16703 32954
27933 20004 7440
45450 23282 24894
50005 2032 7521
31049 22719 10122
3437 3377 40177
2503 6531 19597
57845 1135 37474
10190 16659 14478
22077 26880 23489
32153 52140 26849
30642 20641 9328
56345 5138 19735
1356 7200 35827
36843 28406 30185
11080 9544 10971
7547 12224 42866
49863 13332 46447
56417 7887 20905
22303 1663 2141
44502 0 54856
34099 10664 55948
31239 25232 44601
39364 17492 8828
41669 27685 27309
25588 19764 52278
39949 19823 9494
37316 26518 17561
24186 25902 39967
9285 5521 10476
57042 316 43071
25406 8062 57382
19207 27006 27134
24849 11814 55967
35280 28180 32250
51339 7048 11631
43921 12664 52063
48545 700 53580
10323 11443 12254
46680 22886 37059
31674 4993 58379
58097 4057 31428
1772 7915 36781
32876 14056 3397
33212 6916 57892
46482 9351 53362
51462 13505 15985
5516 13793 18974
23861 28363 33337
22339 24432 43277
23278 2626 718
3076 666 40252
33039 0 58216
30078 29655 24634
37384 14597 53991
7978 15029 18305
39417 17987 50840
22575 24617 17173
3463 7768 41902
7837 0 49436
44709 25075 27026
21679 25826 40751
45754 10048 53544
25604 6300 824
1450 2814 33453
37267 15895 6636
55246 3008 16987
50277 18312 20822
45833 22177 20709
50212 18247 38958
20327 28248 34102
42235 26211 34106
54701 16633 25133
29799 28222 26151
57298 10694 22984
11888 9556 9361
39480 1595 57175
1956 10730 32461
52009 6645 10457
52584 17103 40285
8442 16179 40900
37817 15104 6298
26367 23707 13249
28963 19079 7927
7323 17336 39643
29231 28277 25067
27278 23905 48106
43277 26779 33982
36916 22068 12131
46336 21624 16693
39451 26669 25709
9908 12670 13618
16381 23789 17342
35017 28097 34041
23673 27992 27861
29034 27693 23826
45772 7660 53012
32273 28905 26334
22813 1821 59071
2378 300 21784
45819 24835 23386
3381 3465 43478
31324 22536 49930
38326 10200 55440
5035 8329 44584
60011 2042 30577
17175 27234 31598
30558 27508 39768
28880 10986 57952
30537 29321 36844
1817 5934 26803
42747 22449 43551
33093 28198 34661
24476 26916 17476
7905 16715 37155
33541 3295 59638
23392 25638 41325
51079 15184 45279
34385 6397 2023
31182 4945 1440
50798 12782 14815
22904 9514 2251
23786 28431 27340
12431 23079 33185
16352 5849 54784
37000 17951 51512
2815 3229 17419
48015 24136 28058
32875 28483 32308
58578 3310 21046
26928 14412 4846
15512 24360 40270
15167 10274 5813
10319 21519 30561
29510 14255 56482
22282 25282 19386
13888 10294 51780
6470 7100 45237
56951 7398 24178
51017 20441 37053
16504 13990 52978
6988 11841 16693
24934 14307 53993
44580 14539 50492
46609 18148 45544
25904 2421 233
32940 14878 3855
22452 26622 17949
44783 26200 32138
2463 5857 34291
42187 10075 55566
20059 24945 41415
10472 9856 9225
27331 27391 21703
51079 11520 11731
54357 14454 23322
42151 25713 39962
32760 16047 55320
33794 26981 42856
32244 15189 3975
42391 25754 35984
19558 24703 18336
4135 14851 34208
26323 25272 13865
26050 25455 43711
20053 12167 5493
50124 6729 51291
14974 18187 13301
7996 4840 49913
13827 300 6086
3820 10845 27251
24725 19860 49780
23215 11294 55455
10929 23148 33032
881 506 22516
50111 19688 35284
5256 6146 16181
45821 16315 48135
19770 19111 49399
12742 24226 34896
6930 16597 23670
44289 21666 16576
51750 20637 26686
33642 4221 59503
50624 21512 25208
272 2639 33663
51772 18487 28764
6380 0 12228
13152 14271 11274
15517 24252 22547
53458 18874 28064
4255 15495 32427
16147 25356 21272
21910 14167 55287
27393 13119 54978
8277 9510 45676
49091 20948 35074
42805 16064 9295
49904 21096 38222
28010 28723 29377
32823 10955 3158
50659 19608 39840
49118 21802 21584
3006 571 43127
54700 9720 15626
32376 24156 45164
24632 22615 13396
39974 26170 21577
41790 21742 44440
51191 20790 35240
8864 8018 47110
26520 25346 17174
44732 24966 33524
24338 7859 1398
46504 14102 48296
50542 18382 37844
22663 13995 55585
29947 28573 33920
31113 12418 2497
11451 23494 26145
16358 24787 27029
16014 154 56532
35615 27877 28032
13252 0 53121
5476 13925 26058
17733 14582 6586
58790 929 31898
45049 25690 25055
33043 28128 35167
12850 20300 15674
25363 26514 40267
3293 3493 16554
37479 28201 31672
7237 19041 24557
28361 6214 522
57668 981 35829
30711 28289 28956
8525 16659 16879
32100 19961 50169
57094 7230 18969
50426 19313 37635
39258 19985 48160
56648 13379 25565
29502 28702 20718
28829 26729 40706
19026 26082 22639
40010 25451 20915
35079 28541 33627
39223 21876 12946
51843 8522 48837
44774 12760 8399
12517 12920 50779
30042 11832 55781
23895 29197 34216
31242 4748 237
16009 24538 25387
23185 7832 58196
41429 24112 19557
44178 18021 12340
27549 27647 23539
40780 16351 52861
6308 4479 45897
6249 1546 13567
38089 27054 33068
24745 9690 56772
15397 25178 32328
16516 24849 23937
49097 22668 35536
26750 28678 38643
17059 7732 54676
14146 25650 30232
27231 28850 26210
25862 1624 181
44933 10015 54091
26736 25047 46414
11163 300 51483
38530 6815 57988
21010 11674 3642
49101 23282 31914
56872 10794 32172
34420 28192 36239
31104 26663 19363
41413 26150 39729
23286 10420 57376
54152 17435 34679
51262 2093 10707
47166 0 6070
30710 3690 74
19565 26831 34943
2622 0 40731
9058 20821 36012
12409 20642 16733
12635 21768 38636
13445 21975 37340
56837 4570 20118
49105 20454 23706
38678 21431 49326
24334 17965 6382
42425 23453 19831
28953 30082 30002
56381 3780 18653
42711 20219 11493
29311 17348 5278
5507 14613 29932
25658 26792 20317
47647 16663 47811
22079 21315 11644
38324 9147 3662
4997 1416 46561
43832 16212 10914
32552 28487 23942
25883 28015 24830
26894 13694 56615
46236 20464 42891
45111 15710 11284
18022 18280 9131
59578 0 26614
56366 7479 39363
56308 13062 23201
46384 23719 34626
2201 3772 36904
39161 26894 34043
12575 5196 5913
38140 27415 28184
30294 18745 7602
42247 26510 28830
57422 8620 32816
19476 26686 26570
8257 4600 47585
37873 1621 57669
10451 1951 8725
24463 26854 40034
24112 10609 56317
36421 12714 4604
34648 2326 59541
19754 18698 51247
7142 10912 16846
39005 26691 24001
52366 17191 37265
47965 2574 52410
12644 22539 19863
18964 27886 32958
3125 6337 21282
24347 12219 2939
3393 10595 25732
57766 8375 38042
25227 27760 33342
21038 28751 28686
15409 21043 43149
28112 15597 5435
46370 19852 16207
29505 736 1062
10564 21747 37564
10939 14573 14532
23333 13104 56221
37749 12854 3797
21781 24014 42660
10132 9251 10923
20884 23699 44345
35488 29047 35814
40149 20368 47562
15591 17387 11534
53451 6717 47590
35146 27307 37833
41238 7611 4758
46466 22994 34308
10563 15895 13252
9865 18924 37639
24952 18203 6404
45541 10381 51274
43463 26558 25141
9183 14217 46422
48052 23355 36177
59028 2340 37434
15325 15273 8479
54784 8705 42205
35721 13152 55222
35920 25935 44142
24783 29653 30833
7297 5384 12794
33928 2430 206
28595 27547 36425
46539 3225 54851
42455 5324 4349
58907 1690 21787
48789 18192 17079
40369 20272 10146
52298 16252 42096
7753 20347 30574
44573 18943 46620
54586 17398 28553
1606 5101 31424
4157 4373 44749
25829 27255 39621
39748 23986 14459
16275 16410 10182
27706 24219 12093
9039 19292 32127
32828 27955 24925
32562 13877 4857
44442 25395 29275
23756 21309 10993
13184 19708 14483
43773 24031 22902
6846 10834 43706
43936 7566 5632
1578 10008 30095
31522 28696 30461
46650 21276 16509
12664 16164 48562
32416 27093 20649
18120 18188 50851
23141 18736 9002
8623 10845 46304
38290 27823 33348
35454 27786 31118
37223 8697 56622
31376 25212 46433
10192 20560 35875
18211 4554 55975
44909 2926 55927
33884 27097 37647
39684 21146 49127
31014 51030 31281
37959 18976 7873
47856 11222 49919
54195 15932 32885
15386 14181 50050
1898 4423 24698
25553 19423 9013
58556 721 25749
35600 19201 52497
33615 24819 43566
29013 27481 21026
30646 28235 22399
19409 24090 18232
16998 18552 47820
10143 14265 47568
59783 4035 28599
58527 4935 29357
29978 17578 52912
15762 24737 20191
49824 15418 15523
16041 4591 4990
45159 6863 6220
3022 6055 41888
3433 10337 39623
23055 10559 4005
50723 21602 33634
28789 28239 35410
14507 18866 14022
19379 16769 52623
26997 28554 26916
49716 18781 19536
54180 13112 20540
52640 16315 38222
26037 25157 44229
16891 23981 17185
4657 0 45694
32377 27752 37205
13765 13894 49628
15348 13175 52710
59586 1771 35053
9797 12217 46847
52515 2590 49733
13064 5528 7097
4880 13639 27300
8755 0 10062
25370 27366 23640
25757 9841 3160
26799 22153 11208
35919 9853 56587
22930 20638 50756
49263 13639 11178
41146 15297 7835
35393 28833 23000
23435 19131 9712
24206 10053 2110
45090 16434 50237
25100 23066 48723
21220 21429 47127
17738 21121 13980
15431 5404 5497
14827 17112 13046
14487 21454 15469
55773 13054 33184
8381 18490 39928
28509 20313 9062
27857 12605 2640
56100 9830 18487
31625 28300 24986
48243 23003 23024
49994 13987 47655
46237 22652 22621
57512 12297 30675
37111 6600 1432
6250 14513 23586
27031 471 58643
48913 19964 39616
10819 0 7208
28456 23092 49266
49940 14300 45534
6192 16755 37804
25179 21321 48060
6200 12760 20887
8778 17819 21872
48875 6768 50879
54364 9508 17372
27022 52450 27680
44571 26387 28985
33806 21220 8831
49776 6687 51652
55870 6124 15781
39816 27546 37322
22786 19785 9761
43875 21417 13830
45483 23662 22612
19844 23410 13844
32396 23915 14752
40498 24639 40391
52816 19719 30469
56463 11629 38531
12926 21754 39239
17364 25884 34787
26526 20380 51879
14437 16730 12705
49691 21465 31714
6608 8746 43471
4846 16545 28531
21892 22249 45934
13377 6565 52753
27593 52262 26880
26834 27468 20464
44822 15545 51090
21939 15259 6498
41783 27403 25503
43199 2936 56798
43913 16654 8998
5084 3830 46320
33818 539 59749
37562 0 2529
18111 16082 50636
14762 16727 49849
54642 17227 32463
28706 50998 29048
36040 22800 45722
40582 18873 49455
48531 22538 29171
51076 16233 15737
57549 11257 25249
35407 18267 53305
53776 18578 29817
50806 5076 48694
22847 6735 56604
16478 8492 53478
27945 28179 32005
23932 26255 41218
32196 13795 4420
17390 12927 5818
38564 4810 58384
30513 26664 40497
7209 17205 25161
32010 52450 28916
34303 27487 36519
37952 20600 50461
28684 25651 14121
20908 26956 34522
24275 29387 33315
38759 3053 3088
31125 52450 31319
27776 10816 1889
35310 23113 46194
55018 7295 14828
45057 25515 24271
278 171 25476
34932 26735 19185
23642 28701 36604
19798 14654 54210
30186 28801 21039
49405 21160 20667
30432 27034 38987
14165 12555 7561
59735 4786 29564
44164 25465 22121
27141 13755 3232
31041 5445 352
10707 300 8658
19286 11677 53987
26756 9767 2789
15501 20810 46257
