ply
format ascii 1.0
element vertex 2751
property float x
property float y
property float z
end_header
8205 20407 18580
1148 43533 12048
7466 35174 21422
439 16927 4757
7027 8341 10150
7027 15100 16186
7027 20756 20577
7027 13593 14793
7027 10678 11212
7027 18715 18395
7027 10937 10592
0 14138 6931
7466 26531 23091
7466 25843 18908
7466 22558 11901
7466 25149 17237
7466 20197 20925
439 45286 5838
7466 18115 4974
7466 44369 8214
7466 44087 9870
7466 46400 5681
7027 13365 979
7466 11713 35090
6241 1287 36684
0 31445 19295
1757 1652 25098
998 2031 23642
439 36595 26078
7236 3307 37666
7027 25459 23555
439 28032 19256
439 22702 19300
6426 60834 16149
6424 56857 16110
7466 16590 852
7027 26857 6903
3231 920 36307
6814 44356 15938
6070 42650 16076
0 41491 23579
1530 90578 15008
439 42042 8377
439 36748 13543
439 39511 7803
439 32746 13569
439 37082 10905
439 33093 23058
439 32135 19322
439 32857 15201
439 39425 12260
439 35571 6952
439 40517 8435
439 39427 13552
439 37174 14847
439 33167 11066
439 38172 6354
439 34642 8339
439 32689 24563
439 32134 7335
439 31997 13196
439 36290 17612
439 36957 17898
439 41586 5585
439 39393 14029
439 32364 22666
439 34922 9052
439 35512 10047
439 38958 14467
439 40978 7776
7466 5374 36642
0 12266 12370
0 9084 11030
0 11677 12613
0 10378 11572
0 16029 15987
0 17089 17828
0 8192 8317
7466 1286 36225
0 21793 14602
7988 20295 17126
6409 40050 18549
7971 37585 15378
0 24764 29794
275 40539 4481
7466 44990 8219
7466 13508 9200
7466 15788 10941
7466 12172 6352
7466 14829 11612
7466 11349 5658
7466 12037 7227
7466 9530 5399
0 28636 9991
7466 34736 25584
439 15562 9682
7027 36044 26980
2117 89112 13661
7466 4708 35243
7466 34027 28172
6064 82778 15672
0 12471 5226
0 14396 2573
7790 55589 18095
0 3396 37425
439 28790 11758
3392 90300 12106
815 47148 3584
7546 47424 5207
18 45514 3555
7466 10544 18066
7466 9670 22773
7466 9442 18703
7466 8287 15142
7466 12147 28290
7466 22488 27126
7466 20990 25746
7466 10023 31504
7466 26057 28532
7466 11820 27662
7466 21973 28551
7466 14639 25271
7466 13428 16597
7466 13922 24593
7466 17244 31015
7466 19952 23972
7466 18016 22123
7466 19719 24353
7466 13773 22256
7466 14882 19044
7466 9475 23730
7466 10700 34558
7466 18338 22875
7466 15676 24673
7466 12948 18268
7466 21803 23844
7466 12649 24764
7466 7828 17602
7466 12691 23964
7466 12020 29594
7466 10068 30230
7466 13087 25632
7466 8793 15192
7466 23439 26035
7466 12929 29974
7466 27800 28079
7466 11731 21087
7466 7159 20447
7466 17107 22758
7466 9400 16081
7466 10919 13583
7466 8006 35351
7466 13561 33550
7466 12893 28734
7466 9523 30439
7466 9968 30677
7466 11800 25003
7466 13865 28167
7466 8617 13110
7466 9396 27607
7466 14195 22712
7466 7495 16185
7466 18907 29729
7466 8653 11822
7466 7676 21852
7466 8972 30357
7466 16771 23181
7466 12089 20250
7466 10636 32998
2343 28115 6198
439 40083 13657
7027 30113 27500
7466 6322 31066
0 35423 26273
7466 22893 14512
0 38878 29007
7466 18731 7458
2726 86654 15042
7406 35546 17840
0 36755 28765
7466 28971 14489
7027 44938 5873
7027 21606 15113
5202 25498 5228
6336 24319 4591
2908 25546 5254
6786 18879 1648
5638 25534 5248
439 5917 21944
439 5614 15314
7466 28531 22239
439 4066 24306
439 4247 19724
7027 34362 28304
7262 41577 26226
3367 90381 12774
4249 48511 7127
3957 45541 18015
439 45027 9100
7386 40623 18527
6500 44815 18918
439 40922 27149
439 38890 19182
4588 0 33715
7466 19001 14320
4925 44432 18562
3901 44432 17552
0 18877 13366
7027 27683 11705
7720 75626 17803
7842 48806 18560
3944 89160 13927
2549 39326 16945
2545 40548 17505
439 36976 19255
7466 27521 22145
7546 40307 13853
5977 51732 17466
6059 64873 17555
7988 19745 20622
6890 44432 18015
3136 85165 18023
7466 27181 8920
0 28327 22948
7027 35057 12588
7027 18403 8231
4270 37576 16703
892 15045 33824
1821 7597 36876
4323 13986 34258
4407 8025 36700
4629 8648 36445
6227 9478 36105
3800 17186 32947
2466 12069 35043
5786 7909 36748
2461 21488 31184
3698 8481 36513
727 25673 29470
2668 14230 34158
455 18402 32449
3307 15616 33590
7760 64381 17493
439 6866 27229
0 39887 15256
7466 35662 21668
7466 14772 6899
4386 28582 6275
7027 40655 21787
7546 40216 9221
4308 45880 3486
7466 14096 338
439 3756 25318
8031 20405 16746
0 22611 16428
7027 18924 4649
7730 72783 15711
7728 73427 16517
7831 44053 19588
7466 177 33324
439 13480 14836
439 9833 11288
439 11295 12024
439 11410 12743
439 10826 10201
439 19070 19839
0 45501 9798
0 14542 4940
439 43269 18978
7466 34748 24952
7439 43804 17819
0 27856 11788
7840 47255 15366
439 5400 27879
7806 50965 18326
439 6553 15465
439 6709 11902
1115 29646 28136
7027 38309 25541
439 31444 18090
439 30488 19191
4809 14177 17
7466 20663 14349
7466 34186 24965
439 26742 8708
439 24841 16265
439 24352 11031
439 27425 22768
439 24311 17404
439 24126 13998
439 23814 7175
439 26631 23777
439 21317 4197
439 25286 14328
439 18773 2155
439 23155 6684
439 23299 8702
439 23565 15465
439 23811 9920
439 26040 20537
7189 33688 20610
7329 75340 16037
7396 41011 18627
5827 43284 13855
7466 45510 18865
7466 6238 31649
0 37087 23382
439 16261 14353
439 13095 10240
439 22354 21725
439 17239 14925
439 11332 10263
439 11649 10028
2566 29251 6336
0 3980 28856
439 30479 10725
7466 34965 11612
7593 42168 19633
2550 88615 11355
0 41274 12046
0 1595 31838
4213 254 31423
0 24592 29421
3518 89893 12596
8179 29805 17044
7777 59412 16511
5606 4165 37726
439 3877 21442
0 11026 2706
7811 49631 16801
7466 36259 20540
7546 38879 9640
0 25490 5696
7932 63822 17765
754 44432 16417
439 12456 606
7546 39848 12417
7546 38290 14036
7546 44214 7372
0 32215 25173
0 33657 23678
0 37023 10338
0 32539 10719
0 39881 8039
0 31799 11244
0 33179 13905
0 42910 4979
0 31651 18468
0 35081 8404
0 39797 13468
0 34524 7894
0 36869 13540
0 32066 19330
0 38281 12171
0 32940 25563
0 33696 12501
0 32950 12149
0 41298 10101
0 38504 9689
0 33007 7004
0 38178 9514
0 33649 20354
0 37531 14203
0 32986 21062
0 32490 15648
0 39965 7444
0 43171 7354
0 32337 21537
0 35004 9691
7754 65894 16091
7027 25208 16900
7027 26752 19191
7027 22457 10683
7027 25956 16690
7027 19375 4447
7027 26811 22428
7802 52252 19253
107 36663 5202
439 19185 11571
7466 759 29805
7466 30262 23615
7466 16714 1271
7466 38889 10056
7972 38502 16386
7842 40645 18606
439 39278 28144
7407 44167 15105
439 4274 35849
7466 31062 12319
7027 14780 3602
7027 5495 35100
5797 28323 6234
7164 4323 16194
439 5761 35296
7466 41577 9033
439 29827 9462
7966 71286 15782
7466 13218 3739
5210 35075 5496
663 43105 4003
1951 42120 4186
896 39544 4666
3037 33201 5846
3965 37873 4977
1133 34160 5668
3596 33863 5723
1507 33331 5822
1250 40702 4449
8098 39140 18537
7027 4047 27677
7466 5260 30186
7027 40928 26861
7466 10568 35544
7800 52741 16202
7753 66222 17372
439 12068 5269
7466 4558 23755
7546 41496 12225
7546 46160 4946
7546 45049 7049
6571 75699 16161
439 28253 7573
6598 80006 16206
7027 2400 30768
439 27858 10589
1588 295 35285
7466 38710 10446
7466 30038 27632
7325 76511 18048
2200 2037 23620
7466 19865 7378
7466 44091 6912
7466 41082 10028
7466 12684 5654
0 13639 5086
7027 39312 26780
439 47189 7492
7466 30020 9840
0 47984 4934
6358 37583 18552
2939 87295 15534
6156 55753 16571
8139 38178 16954
7803 51918 17989
6346 48247 16118
6314 53556 16242
0 14069 4579
7466 43847 3997
0 11806 2894
7027 14509 17721
7027 12714 30689
7027 7456 10790
7027 9506 30318
7027 11612 17970
7027 8014 24473
7027 9873 32719
7027 22437 26472
7027 25486 26548
7027 13807 18215
7027 12763 17977
7027 13390 21281
7027 6976 32728
7027 19638 23571
7027 7812 30067
7027 22734 29544
7027 13238 25818
7027 16032 32009
7027 13621 23495
7027 8631 12432
7027 13180 19328
7027 23495 26948
7027 8013 21878
7027 8015 28591
7027 12726 15378
7027 12895 23672
7027 7624 11261
7027 17253 24199
7027 8806 17382
7027 15623 25017
7027 12659 29067
7027 24282 25812
7027 9837 20909
7027 10408 24994
7027 9113 24707
7027 17536 30912
7027 7069 33669
7027 8900 32337
7027 13126 16849
7027 17790 29607
7027 8336 22760
7027 14798 25042
7027 15506 19743
7027 10522 29519
7027 8475 31202
7027 10170 20106
7027 17891 26017
7027 9295 12276
7027 11321 32582
7027 21125 22224
7027 8282 14401
7027 10534 18883
7027 22554 23260
7027 7537 23752
7027 14988 26523
7027 23649 27784
7027 14823 28689
3644 17420 851
6470 43574 19554
7298 45465 17868
7466 23797 18729
439 20247 12946
7754 20809 15454
5685 41769 16610
5980 42443 15654
7466 15970 4135
5297 39896 19697
8003 62988 16406
7835 72849 18190
0 30822 20611
7027 22173 17386
3738 85692 13107
2930 32354 28649
246 47089 8642
7027 26980 28534
5257 79825 19664
7466 36756 9971
439 3513 26973
7027 29859 12678
7027 33354 28131
7414 51081 17486
7394 56654 17108
7460 37896 18622
7378 61347 18016
7410 52194 17443
7408 52773 18900
7407 53050 18216
7436 44637 18344
7414 50985 19299
7410 52093 18916
7425 47828 16297
7452 40218 17135
7421 49013 17299
7459 38047 19036
7431 46297 16716
7433 45582 17473
7376 61811 18966
2253 29994 28131
5340 84885 16339
7466 28612 9271
7960 40358 18126
0 18488 3425
7466 44216 16387
7740 69980 16405
7027 29803 10689
439 19176 12951
7466 42567 12728
7466 38569 24912
7466 37676 24268
7466 38364 14627
7466 40107 19305
7466 39869 16028
7466 37546 28342
7466 40453 13274
7466 42797 11717
7466 669 33976
7027 47027 5415
7466 31923 28459
7027 36478 19059
7027 37852 18496
7027 38137 24261
7027 37501 25006
7027 44224 5715
7027 44666 6268
7027 36863 16946
7027 39662 15885
7027 38019 19669
7027 40433 15305
7027 37468 19159
7027 39314 16154
7027 37500 25680
439 36980 28295
0 15006 6595
439 31115 10573
439 14399 8720
955 7849 7324
4169 8244 6469
3680 83987 17956
5861 78947 19909
7216 42043 15176
2939 85935 16333
7872 39459 17131
0 29754 26268
80 5444 13132
7851 38218 17255
7027 33905 25496
5095 40620 28242
0 26476 8078
0 26805 12718
0 44321 17745
7027 38142 29048
6027 58399 17186
6056 61142 17038
8097 20466 15551
7027 6206 26385
1048 3470 18746
5867 2992 20297
6473 80487 20132
7027 2848 35805
3328 38226 19697
2988 87725 11960
6359 48208 18710
7817 47799 18280
439 41638 22730
7027 42046 20891
2419 88100 16667
7027 19800 2409
6969 38739 17731
7113 38402 18071
7066 77132 19111
0 25824 8047
0 27452 6214
7466 37766 11280
1850 42939 4034
4992 39246 4721
3358 44785 3691
6331 38000 4953
6227 43037 4016
5562 44358 3769
3691 40234 4537
6940 38124 4929
5629 43100 4003
6061 45146 3624
7027 20595 3756
7027 21982 7149
7027 24783 12388
7027 25297 8635
7027 22644 6609
7027 25385 9164
7027 24886 11899
7027 24912 9131
7137 29319 28165
7027 24683 14453
7027 25484 20468
7027 26723 22030
7027 27665 25470
7027 26526 21006
1596 45452 17059
7852 37773 19672
7027 25204 22596
2927 91794 12075
7466 41876 23561
7466 13431 6856
439 22256 18710
60 7602 7887
0 45911 4582
0 14577 5937
439 37633 18572
439 18688 24733
439 24441 27738
439 8125 31609
439 10652 26383
439 10139 20031
439 15199 21508
439 8743 29066
439 12353 16783
439 10679 31117
439 11201 13467
439 23415 28151
439 13320 17037
439 23089 23706
439 8790 21309
439 16823 23513
439 15618 29814
439 12843 23513
439 9344 16757
439 17867 23908
439 14662 28504
439 18005 29775
439 10606 25147
439 17617 28051
439 9189 18186
439 8600 13812
439 10975 14557
439 8584 32754
439 24346 25031
439 10562 33727
439 21315 27473
439 13806 25381
439 7657 33036
439 14014 27912
439 7980 12790
439 7462 24858
439 9532 32696
439 15128 20141
439 16761 22819
439 11608 19532
439 9827 12179
439 10567 22286
439 25075 25895
439 23293 25895
439 15392 32804
439 22000 22637
439 8436 26906
439 12034 21674
439 10121 19167
439 11538 24054
439 9392 22320
439 9907 18528
439 20834 29955
439 11578 27368
439 11001 15359
439 17537 29648
439 12025 27722
0 6636 18405
0 6854 19771
7466 42382 14198
7027 6008 21880
7027 6189 17892
4814 44432 17843
3555 44432 18263
6708 73823 18790
1673 236 31538
5 20030 2271
7750 67103 16728
0 29292 23150
6067 63529 17715
5930 39970 17654
7027 5246 33232
6061 16890 623
6594 18016 1158
5038 35032 29487
3958 8919 5018
2269 9374 4089
0 26394 23543
7027 31800 11284
7027 32061 9278
7027 39373 5329
7027 32553 6624
7027 40265 6524
7027 42055 5087
7027 41963 5779
7027 33471 9495
7027 37676 6989
7027 33443 9989
2249 2116 37260
7027 3793 29007
7529 76924 18460
439 14367 434
3686 2927 20507
3706 3088 19986
7027 33297 28840
7027 6369 15770
439 23264 16909
7466 4286 22403
7466 4114 34164
7027 29835 27147
7466 20701 13013
7466 15233 14507
7466 12047 11183
7466 13199 12196
7466 17633 16251
7466 12549 10989
7466 13259 10495
5563 41944 23585
439 30878 14888
439 30764 24998
8059 44464 18496
7256 38986 19577
7141 42407 19476
0 31090 9607
3188 85156 15767
7027 6420 22482
7466 35360 28287
439 29932 27025
7935 66142 18995
439 22938 19787
69 9334 4169
7027 17058 3986
7546 43092 8682
7546 38648 13589
7546 40840 10827
0 27255 13031
7027 26345 23696
7546 45346 5173
4387 32756 28780
7027 36968 10825
6876 44485 15192
4789 40563 15115
3308 34387 29314
7027 30408 25577
2807 47983 4105
439 15471 8201
439 27186 11154
439 27122 13941
7466 16809 7582
7466 43029 16867
7739 70251 18403
4411 13610 0
8188 26186 18748
7027 44766 9999
7466 15601 4784
7362 65940 16551
7418 49961 15362
7354 68309 16192
7345 70798 16136
7347 70162 17645
7357 67424 17221
7355 68069 15651
7355 67971 17724
7546 43166 9086
439 14361 5529
7466 9788 4979
7466 15305 11700
7466 17539 14086
7466 16688 14058
7466 16264 11531
6048 10900 1361
3882 9696 3431
1675 9715 3393
0 9080 14228
0 10433 14388
0 15059 18249
0 21991 29465
0 13074 32820
0 9425 32473
0 8913 33739
0 23146 29303
0 14011 20173
0 9098 27606
0 7858 20842
0 27829 27778
0 13207 17629
0 7764 30846
0 7064 33513
0 17178 18629
0 10673 25721
0 9236 16104
0 7391 20357
0 8361 18854
0 22067 23483
0 10065 15543
0 8586 23265
0 13075 31374
0 12482 29551
0 10978 24318
0 9916 31686
0 11956 31327
0 10281 21085
0 16543 23119
0 12405 17734
0 18278 26930
0 24767 26267
0 13490 32447
0 19520 29472
0 11530 20983
0 11144 33483
0 10670 26191
0 21043 25340
0 16804 18808
0 17996 31574
0 17004 24889
0 16719 19718
0 13087 23081
0 8841 15065
0 14458 27401
0 12261 17212
0 16314 29297
0 12848 19320
0 15046 28413
0 8869 26054
0 7990 24515
0 9395 33456
0 13733 28155
0 15730 21886
0 14387 32646
0 21461 23334
0 7496 23341
0 25014 25449
7466 1003 34387
7806 21407 12409
439 24058 17133
8001 48486 17813
439 26440 12878
0 43525 14890
5609 1345 36736
7466 21400 19310
3875 4170 16214
2933 41750 18594
1702 89828 15397
7774 60343 17177
0 2518 25882
7466 26745 21413
7027 18012 17797
7027 11439 12236
7027 15881 15402
7027 7898 9366
7027 10656 11823
7027 19696 19925
7027 21184 14010
5981 77593 17238
7466 26865 18526
1788 37593 29899
7466 5482 31069
0 32032 28294
7322 77158 18734
4469 15111 125
7462 37412 16317
3308 11193 976
439 29381 17384
7027 12819 2634
0 33718 6078
5787 78854 15482
439 28972 7118
756 3848 37725
439 39513 16943
7813 49162 16730
3824 88911 11891
1393 45466 17569
0 27957 23011
0 15368 33673
7466 6298 13536
7466 5991 18694
7466 4938 14672
4693 33478 5793
3032 33605 5771
4617 35889 5346
2185 37917 4969
3212 32204 6031
4092 35375 5441
538 37778 4994
3017 38982 4769
7027 1506 27995
0 38294 18258
7333 38421 16133
7388 40690 16097
439 16832 9367
6611 43749 15753
6616 41279 15723
7466 18579 9344
0 41112 19549
439 26327 26305
439 9345 28219
439 20681 22739
439 18865 20767
439 8022 22717
439 22933 29564
439 16670 20713
439 11120 34080
439 15125 29204
439 15285 32170
439 11556 18556
439 17950 22526
439 20253 28654
439 18071 27333
439 8040 21077
439 11500 15334
439 9258 21423
439 13147 25050
439 21243 28855
439 22578 24147
439 18283 19893
439 23819 27155
439 9614 25664
439 9735 30237
439 24325 26142
439 7914 20090
439 10722 20304
439 17124 26954
439 10726 24231
439 9905 29437
439 7703 18940
439 13233 30142
439 24568 26863
439 11041 21349
439 8989 18542
439 10992 24699
439 15868 24794
439 13810 31452
439 20075 24005
439 14498 23830
439 12997 27317
439 23273 24164
439 11467 17915
439 13252 33728
439 19261 21066
439 9578 27403
439 13324 26807
439 15400 31095
439 9876 28891
439 13370 25785
439 18852 23379
439 13788 17972
439 20251 27974
3446 84347 17780
7027 28799 23781
7027 40728 19695
7774 60138 18654
7466 15490 8461
7351 39165 17439
7349 39093 17928
1884 6725 9920
3531 6574 10289
5225 80019 20290
439 15636 4921
7027 14378 8227
439 22395 9796
439 22020 7083
439 25291 7016
439 25075 11057
439 22065 4024
439 24857 7185
439 19674 5459
439 20555 6908
439 23177 13653
439 24020 15747
439 23265 13161
439 21500 9337
439 22622 12005
439 25822 16024
439 21240 8242
7466 14998 2645
7027 21805 16767
7027 3027 30180
7027 20430 2963
1532 33900 29161
0 2127 32257
7466 36535 11652
7027 1561 25692
0 38048 19371
3090 90563 10196
7466 41097 13011
7466 41791 11932
7466 46000 6769
7466 46835 5971
7789 55985 15653
7466 5929 16824
7466 5613 18868
7466 25990 12912
6493 48689 18862
6634 40125 19136
7466 34481 25219
1716 5684 12508
464 5129 13953
7027 6529 22835
7027 6471 16614
0 17366 5558
2367 43410 3947
5685 41102 4376
6835 44997 3651
4803 37976 4958
6307 41692 4266
2056 43943 3848
4474 82056 17852
7546 40892 8338
7852 37840 18332
7776 22294 19460
7466 36559 13765
620 13264 7
7027 4544 28363
0 41733 17904
6128 51916 16590
6186 67751 16693
7027 42378 4454
7377 44324 19572
4788 86863 15287
5089 80457 18975
7793 62158 18723
4396 83861 18508
0 36867 27186
439 42909 12956
439 21071 11167
0 6687 33366
7800 52761 19100
0 38779 21561
4104 37106 29854
6241 56312 16409
6665 52703 19012
6878 48700 19228
3332 2308 22642
1305 2345 22510
7027 18026 6457
8228 22776 17894
7466 38890 27736
6133 45083 18345
2878 42017 23123
439 41935 16391
439 5565 28346
273 43764 20039
2298 89345 14124
0 39740 26162
0 37717 26560
622 45469 17533
439 40412 16756
3306 43594 20155
8164 33608 17874
439 5284 31741
687 4586 15461
2143 4375 16050
7978 37602 17566
7466 27688 20695
6607 11731 500
2906 33045 28876
7466 29296 25875
7466 24835 24468
7466 17167 15555
7466 14394 12362
7466 18089 16758
4065 47854 3989
7027 38524 12017
7789 55897 16213
0 2761 28445
6424 978 27889
3067 1086 27433
7027 12414 701
7466 13228 34259
0 18532 8074
7466 19390 6831
4847 41747 15750
7027 41790 23623
4706 1681 24986
3340 1708 24885
0 43189 18255
439 47118 4314
6240 71574 16598
7893 76505 15864
7781 58253 17032
7466 4218 20173
439 38760 26738
2390 89121 12424
3750 87428 12249
0 26348 8955
0 1842 30384
439 28392 22879
439 20801 16847
6141 37844 16364
6221 46453 16325
4165 41756 25464
7466 19813 10700
7027 10662 5492
7027 13228 7901
7027 17765 14156
7027 16033 11640
7027 11973 6598
7027 17216 14021
7027 22791 21460
7466 41778 17112
4025 41742 15118
7466 19065 10791
0 5925 19937
0 5643 20414
7466 14189 1733
0 22260 18463
7027 18943 17011
7027 16684 15406
7027 15324 14343
7027 8793 6504
7027 12581 10083
7027 19220 18380
7027 19550 17959
439 18571 9142
0 29442 19091
7839 41607 15675
7466 1259 34714
0 39422 23583
7466 44239 6089
7546 40161 8823
7466 39964 4624
5220 5950 11815
2782 6483 10511
6492 54906 16009
6446 44752 15959
387 12292 34952
6046 52234 17936
6011 48767 17895
4294 44309 19757
7083 31455 21313
439 40647 20508
0 27051 9222
5882 12688 81
439 16453 8743
0 17982 10697
439 6364 18155
7105 19175 32132
0 24176 20742
8043 56914 18439
6418 43367 14102
7027 40411 25525
2258 22991 3872
1658 20206 2366
1437 18575 1483
4049 20346 2441
5875 18747 1576
504 20833 2704
5065 83169 19079
7027 15475 1071
7436 44635 16023
97 30221 6334
0 44526 8913
7027 27354 15283
0 41456 25760
8106 21360 17712
4047 18023 1162
0 14546 4471
3655 83641 16613
7466 3644 28982
4765 81309 20579
439 25607 29174
7027 5816 35855
7027 17661 11938
439 28894 24729
8042 57148 16351
7027 36057 18221
7466 19796 19976
1229 7160 8902
439 38558 29206
3767 89110 14341
6808 44345 18626
7466 29757 27292
7027 21092 16968
7027 17426 10503
439 26572 9376
439 15803 5857
7466 14558 1941
6581 40894 15136
2979 1197 36599
1125 1133 27232
439 228 32850
5008 8982 4890
7466 15940 6322
0 15419 5433
439 6122 29232
7027 33261 24093
2029 17107 711
5617 38201 19697
0 35090 27866
2825 43428 12248
439 12187 2704
7802 52155 17495
0 21484 13234
439 1796 34346
7027 23938 8678
7027 25683 13663
7027 18623 2371
7027 23917 7769
7027 19179 3653
7027 25175 10910
7027 24100 7157
7027 23309 5788
7027 23255 10959
7466 6527 23641
7466 6493 26478
7466 3718 18700
7753 66233 15605
439 28868 14073
0 40777 17804
439 24511 20623
0 29554 10700
7466 32725 12491
0 43422 15888
7306 43680 11831
7027 18107 3791
0 25002 21595
7027 43250 16089
3705 41879 24233
203 2455 22124
7466 44434 4430
7466 33376 10481
7466 35306 8492
7466 36248 8074
7466 38971 5961
7466 32737 8903
7466 31756 7509
7466 34454 6248
5086 10683 1672
0 46386 5929
0 46751 6421
1460 38428 29866
7027 22777 16137
3912 2698 37509
7466 26772 7556
5112 4730 37690
7546 37137 12427
3319 4403 37715
0 3549 29067
7823 46085 18898
439 35063 24035
439 48336 6213
7027 28334 20474
0 35746 27542
7827 55974 19438
7466 38970 13071
7466 36868 14546
439 16234 2050
7177 25498 5228
6185 73563 16805
7546 34380 12317
7466 22092 17186
7027 31002 11852
7027 24278 20096
7027 2737 23510
2087 44432 17881
0 28505 28307
7466 1378 27791
439 4995 19353
7027 34220 26892
0 1069 29390
439 20271 10992
0 5187 32906
7082 43221 13519
7466 46096 18658
6314 43638 18696
6209 46651 18461
7027 23510 16021
7466 42856 20299
7027 34727 27524
2105 45131 16018
6718 75227 18400
0 36603 25999
7466 27427 12292
7466 41960 21701
0 12717 2152
0 25891 6323
0 5120 27304
2901 41074 15112
4966 82160 14637
7298 37586 18131
2226 3668 18149
7027 31824 24230
439 36985 29043
6973 12007 332
7988 19895 15044
439 14842 4996
1987 36505 29776
0 5087 24077
0 4751 28839
0 30818 11834
0 30687 16903
4040 11021 1194
7789 55953 16671
1599 30302 28145
7994 63977 19022
7027 29279 14067
439 24045 23076
439 10555 8523
439 18294 17596
439 13535 12594
439 9926 6403
439 18126 16947
7466 30988 23713
0 22726 19418
7027 27497 13027
0 4476 22215
7141 5 33584
0 6298 24530
439 15936 7586
7466 38038 11796
760 31481 6166
7612 22318 18902
7027 36787 10227
7466 12393 832
0 17382 14539
0 11769 7316
0 27303 26703
0 11316 6070
0 10106 5290
0 10321 5989
0 12827 7129
6224 43788 11696
8364 20726 17031
7466 33434 21229
7195 51656 15410
7027 15346 9573
439 14216 7933
7466 20475 19692
0 3305 30986
439 38872 24664
439 41281 25726
5220 46003 9639
4806 45989 9652
2497 47529 8238
7765 62729 17127
360 985 27860
7214 35515 13478
7027 24236 18839
7323 77139 17030
6013 35247 29538
0 18960 16083
0 25275 24176
0 11190 5687
0 13520 8449
0 12488 6799
0 19622 17584
7466 15451 632
7027 20628 10966
0 38451 17104
7546 39545 8504
8068 52385 15518
7466 33245 23251
7921 63791 17024
7027 43147 18264
6229 4851 14719
6024 4413 15944
7466 39951 8389
5902 5379 37598
7027 34321 23679
6330 45693 18696
6337 60523 18494
1743 42750 21020
1320 32211 28603
7764 63238 19264
439 17254 8295
7027 1077 35983
0 34505 23545
7368 64143 19134
439 39836 27544
0 29329 27551
439 101 33701
7546 24585 14115
439 838 34329
439 2724 24885
7027 12897 34197
7027 8084 36200
3223 5824 12142
4046 5858 12053
7988 20755 20167
7466 13581 481
7027 1378 31479
0 30361 16314
7466 20015 15641
2846 48721 6553
7546 46180 7121
7546 45508 7747
7546 44667 9665
3126 176 31944
2297 44934 10620
3481 45210 10367
2108 46680 9017
1318 44894 10656
7466 30908 25387
7027 43047 6142
4672 3219 37649
7027 40842 6571
7027 35440 6813
7027 39889 5675
7027 40615 6904
7027 32001 8888
7027 39468 7120
7027 34490 10005
7466 27982 12758
6299 1414 26047
5122 1428 25988
7027 31033 21957
5027 80654 16253
7466 33096 11621
5965 48919 17296
6146 81457 16071
439 33000 28690
7466 42035 21037
7027 26007 5701
1048 11353 808
7027 26760 13220
7027 7319 36761
5334 39271 15123
4527 39476 15122
2138 89931 12935
6054 40006 18214
6035 38632 18181
4559 81983 20920
5786 1381 26184
7027 36194 14950
6330 43226 20461
7383 60029 19352
7466 24348 22460
439 27746 23827
7466 35335 13223
7027 15972 10102
7900 67622 16392
7466 20268 12031
0 13419 654
439 44454 7851
7334 74047 15877
6654 39470 15407
5680 41750 17794
7027 18936 10146
7466 6124 33931
0 38915 23950
0 2373 29049
5046 6837 37185
6755 11235 932
7466 46976 8584
7027 39437 18186
7027 41248 10970
7027 37980 14345
7027 37805 15574
7027 38510 19096
7027 38940 15977
7027 36639 24865
7027 40616 14469
7027 39385 12761
7027 38892 17278
7027 40095 10949
7027 43067 9147
7027 38470 19883
7027 37186 18333
0 20192 16418
7027 24791 22854
7466 4646 34138
0 16305 17544
0 8928 9212
0 9275 9838
0 10559 10486
0 11121 12337
439 48621 5857
0 4290 26858
5127 30315 28146
439 42598 15535
6800 43961 19628
775 37714 29908
4932 4253 16392
3618 1916 24084
5784 1648 25114
7901 68969 16992
7362 65846 17130
7355 67939 16867
7347 70199 16393
7404 53780 15883
7363 65658 17596
7405 53605 15425
7342 71829 16755
7337 73018 18644
1580 723 29068
0 42955 19683
7988 21821 15529
7075 11481 690
3549 34768 29419
1418 45232 18598
7988 21148 14737
439 13535 7511
7466 24068 21863
7466 40620 27556
6125 64549 17938
7329 78438 16176
7798 37196 17845
4012 37575 15609
8084 49469 17778
7466 31570 24644
7166 39444 4683
5777 82642 17986
6056 81745 19436
4294 87402 16095
439 10756 5326
439 23194 21196
439 13130 8229
439 18261 15158
439 15500 11460
439 9942 4548
439 10803 6533
439 22480 19817
4787 5241 37622
2434 29016 28210
3524 31786 28466
7027 16133 1341
7376 51794 19479
4041 82402 19218
6000 81746 14852
5233 441 35595
0 41289 20573
7027 34103 21330
7680 21413 23258
7466 33604 20888
439 8787 36243
7027 3740 24261
7027 3642 20047
5946 83086 17543
7466 19867 6329
7034 41309 26978
3226 86441 14873
8085 21654 14519
439 26111 22617
7775 59941 17538
7466 19362 14183
7466 20207 16985
5804 78160 19145
470 8658 5573
7466 6515 20789
7466 6539 16170
5943 31366 28336
7847 39434 15709
439 36969 27770
439 7093 11173
439 6796 27913
439 2370 22485
1173 40244 28741
7452 11349 811
7466 17143 11643
439 9995 3423
2685 15872 290
439 39382 21206
0 29798 27310
8211 23354 18661
7466 1870 28321
7327 76073 16976
0 14697 4035
7466 34864 10850
0 23967 17800
7292 43467 3936
7611 19208 18388
7466 47642 6284
2895 43894 11584
5749 2586 21662
5215 2432 22206
7027 28114 11759
7466 36114 16726
6780 38380 15128
1076 4486 15739
7894 43403 17784
0 42973 17743
2192 89758 13979
3588 85277 17245
3938 9524 3783
7546 37161 13900
0 20852 17102
1851 45377 16659
439 43539 11527
7466 6116 30061
7466 30530 9707
7466 26718 11196
7466 40521 6323
7466 27556 10633
7466 29249 9875
7466 35413 8971
7466 34509 8856
7466 35931 7751
7466 43731 5443
0 12226 1964
6924 47670 3849
7848 38984 19239
7027 5270 27406
7466 5408 16128
6353 76839 16692
7466 17192 12508
7027 30984 25227
7466 30670 11318
439 42283 12840
7873 21063 21899
7027 22438 30468
903 43345 12455
7027 38269 26857
4534 43868 19976
4120 83494 17831
7466 37110 29599
439 31578 7282
7466 24895 16524
7391 75954 15590
0 23159 17806
0 25110 23566
7726 73885 15701
7720 75650 15963
7466 44917 4002
7854 37768 18938
7027 45695 4833
7466 42498 5979
3501 85526 16133
7027 2792 28452
0 26849 24789
439 41611 15974
439 39149 18353
0 32686 27355
0 9590 31166
0 12034 13972
0 16234 19355
0 18278 26514
0 16608 30320
0 16149 32367
0 18952 23235
0 12330 28652
0 9494 34519
0 19015 25478
0 14183 33418
0 15504 22202
0 13920 23190
0 14904 32837
0 8206 34728
0 8142 30384
0 11364 27795
0 9322 33006
0 12616 16488
0 13454 18055
0 18422 30927
0 14525 26920
0 15234 25462
0 12812 21833
0 22791 27295
0 7269 18126
0 16447 18041
0 14941 22710
0 14579 33272
0 8651 28781
0 11871 31795
0 13315 19244
0 15997 18492
0 7378 21583
0 22301 25408
0 11176 20649
0 14070 31218
0 20231 28395
0 13701 25516
0 9730 26809
0 7654 17622
0 17983 27944
0 7231 27851
0 19949 30218
0 17958 20429
0 12994 23622
0 17700 25806
0 10641 17479
0 10882 17900
0 7036 26784
0 17958 23637
439 42370 21317
7792 55225 18423
7027 6513 20365
7027 6943 19298
7027 6537 28362
7027 6852 26578
7546 34459 11430
5294 39508 19697
4383 82722 16178
2938 87362 14644
4564 82141 18940
3365 85991 16093
5979 47764 17706
5918 38812 17604
7027 31875 27727
439 30555 21311
0 37591 18957
366 37273 29871
7466 29602 13720
7027 12098 971
7027 17112 10298
7466 29002 24767
5890 82280 15704
5461 83656 15527
0 5194 31644
7293 22624 30719
7466 43337 14917
7027 34647 20833
7466 27360 13781
7466 36405 10091
6895 31770 28461
1610 11948 365
0 34494 28544
0 43748 11082
439 46169 4955
7466 27085 24314
7466 21518 9713
6500 31616 28412
7304 62570 15466
7466 37069 25453
7763 63427 15798
5999 44497 17944
7466 35899 23144
7466 20319 10616
7466 31575 9362
439 14589 2009
7352 26958 17619
3611 89597 11340
5605 37580 16169
439 30943 21369
2100 28614 6279
3046 86954 15814
7027 28622 24332
7466 27907 13687
439 21151 15973
208 25 33300
1152 45332 16496
439 38549 25957
6848 37613 16258
7830 44099 16329
7180 33944 12871
7466 19785 17949
7466 19692 15462
3847 41305 26987
2571 18042 1173
7027 5017 28426
7466 18924 12506
1522 44432 18984
1835 90492 14477
2555 37802 18363
2554 37941 17298
7916 43617 19262
478 21975 30985
2656 13594 34419
3648 17556 32795
465 14166 34184
4352 14459 34064
2775 18932 32232
3616 14272 34141
3770 15283 33727
2071 7913 36746
1048 25058 29722
1828 15888 33479
1302 8577 36474
1920 22486 30776
5165 8888 36347
7466 29936 13108
0 27944 13523
7648 48338 15261
7581 53129 15318
6866 44432 16633
4294 44432 15484
439 17061 3196
0 38130 21439
6203 46004 18428
7466 36816 12164
7340 76404 16011
439 44757 18311
3857 3729 37717
7466 13097 3142
3609 85107 15753
7027 41151 23298
439 16992 12121
7466 30690 24075
4494 81060 19608
5597 7073 9102
5177 7723 7611
7411 30193 21180
439 26920 28818
439 15520 3505
5960 425 30471
7027 4416 17889
7466 35452 27203
439 3011 34730
7027 45359 7056
7027 40167 4718
439 19758 16663
439 11485 6038
439 15564 10927
439 24444 23029
439 20492 17762
439 17537 13574
0 17736 7863
7057 36523 29779
7733 71906 16082
0 28903 14309
0 20778 2908
439 41448 4524
7027 38200 26016
7027 40630 20877
7434 45227 15246
7466 21883 23248
7466 10171 34877
7466 7509 30895
7466 8736 19497
7466 8705 24828
7466 9608 28084
7466 15454 31834
7466 13014 21471
7466 8863 32003
7466 10790 29954
7466 25032 27863
7466 9067 13987
7466 23053 28691
7466 15196 30194
7466 8052 26211
7466 25752 27494
7466 18900 20581
7466 17535 30183
7466 7531 23905
7466 15052 31731
7466 11100 25621
7466 15484 28805
7466 9594 21124
7466 16553 32474
7466 13661 26333
7466 8687 29513
7466 21002 22761
7466 11296 34232
7466 19916 30905
7466 15764 19651
7466 7721 25444
7466 13859 21010
7466 13027 23634
7466 9549 31258
7466 9723 24932
7466 19296 25218
7466 10947 15330
7466 11072 24883
7466 23918 25112
7466 11912 22746
7466 8073 17127
7466 9907 29092
7466 25855 27060
7466 15934 24998
7466 16329 25813
7466 7712 20531
7466 13719 22961
7466 19374 31147
7466 9692 21862
7466 18383 19637
7466 13868 25825
7466 19302 22664
7466 9871 27613
2179 43407 20300
2957 41747 17668
2247 29846 6348
2552 38470 16252
2547 40114 18261
5642 83075 18842
4561 86547 15881
4799 85783 16017
439 41162 22689
0 30080 9372
0 7102 9564
7466 32399 24283
7766 19381 23173
439 23328 17791
6968 38161 15403
6913 42185 22356
4437 86946 13324
0 28823 12979
2383 149 32148
439 3094 20964
7466 20733 21523
2046 24232 30060
5807 14904 33882
3682 21922 31007
5303 16171 33363
6266 18643 32350
5145 14051 34231
4177 20465 31603
3135 22646 30710
5639 28189 28439
5283 13540 34441
6198 23415 30395
5619 24516 29944
5094 23529 30349
2264 26590 29094
6348 15197 33762
5322 21755 31075
7437 44574 18879
7027 3271 31505
2019 43240 13644
7466 3106 29176
7466 18098 13839
7157 10007 2806
0 47722 4637
0 4716 35948
4204 83298 16797
4623 81951 16938
3389 85915 15366
3083 86898 15121
439 11459 2783
7027 35059 25104
7756 20374 17717
7777 59375 15872
439 5879 34398
7027 2261 30416
7466 5407 18191
7988 19482 17202
7466 5925 35532
6458 48512 4808
7804 51637 15419
7027 992 33553
7027 35607 26328
7466 15036 6447
0 14334 1229
7466 29202 7175
0 43405 7642
7330 75247 18227
439 2411 35961
6033 81730 20183
3763 86906 16451
0 20201 15836
7356 67615 19047
7027 3853 31319
4957 86125 14476
439 4588 23013
439 38365 29812
7797 53674 18862
7466 2133 32004
7027 21327 11670
7027 38695 27349
6380 663 29350
7466 38968 10957
7027 36679 5588
1090 7709 7642
5146 7004 9260
7444 41646 19640
7027 30854 10935
2123 45118 18831
7546 25086 13173
7546 25413 13602
7783 57664 18834
5196 85127 14520
0 39031 15881
778 44432 15522
1771 44432 17081
7027 4757 26040
7027 4725 19321
7027 17346 27487
7027 17380 19261
7027 6879 33207
7027 7147 31692
7027 17692 25478
7027 16626 25016
7027 11200 30392
7027 9562 30731
7027 12021 22592
7027 16950 20270
7027 7613 17526
7027 17446 28315
7027 18814 25487
7027 14565 21984
7027 14044 29771
7027 18166 27802
7027 16602 18888
7027 15957 19593
7027 22465 28705
7027 25411 28134
7027 21158 30808
7027 9897 35134
7027 18719 27795
7027 11385 22915
7027 11701 24601
7027 8319 24150
7027 8872 16710
7027 13062 22443
7027 18924 26990
7027 22804 27133
7027 9325 19963
7027 10371 17097
7027 20420 23112
7027 16867 29148
7027 23743 24228
7027 24502 27624
7027 10445 32574
7027 20734 22706
7027 10260 24651
7027 23987 26909
7027 7834 33833
7027 19128 23725
7027 7100 24485
7027 21329 22786
7027 20550 30253
7027 10330 29864
7027 10540 22568
7027 7207 22260
7027 16413 22638
7027 8268 20368
7027 15425 32100
7027 17921 19639
7466 3254 27392
7466 28227 11352
439 2786 32429
7027 40622 20470
0 29342 6927
7827 45150 18180
7027 13295 2436
2598 6016 11654
1658 5950 11816
7466 25960 18432
0 3305 29854
7027 35702 10668
7089 42064 19646
6904 39063 19695
439 31602 13797
7437 44591 15627
7382 60345 17303
7027 7571 8846
7466 16503 10256
6388 75574 18368
7027 3411 27135
7466 14274 2683
6209 81255 18302
0 19594 9245
0 22966 8746
0 25542 11315
0 26485 23091
0 25031 14295
0 23881 14133
0 25558 10916
0 25841 19908
0 23206 8003
0 21305 6516
0 26221 17531
0 21195 4785
0 20984 4324
0 23543 5432
0 24392 9194
0 25882 15782
0 22026 11114
5411 82809 14476
7466 19934 13589
7027 41541 16586
2839 43346 14043
439 4443 18680
7425 47847 15641
2860 4190 16468
7466 41393 21562
439 22206 18008
7466 34457 28423
1543 43271 13792
7466 12209 12947
7466 18540 18949
7466 15511 15594
7466 9573 10608
7466 9531 9763
7466 15769 16262
7466 25627 8568
6689 79713 17760
0 39611 8668
0 38147 11344
0 42144 6821
0 36198 15534
0 35894 12238
0 35471 8406
0 34476 16470
0 35614 17634
0 44301 5743
0 31879 16434
0 32901 10058
0 33416 15002
0 37572 6946
0 44949 4809
0 31827 15772
0 36604 18547
0 31884 26079
0 38856 5750
0 32346 18346
0 32915 24782
0 41991 6053
0 40812 11061
0 43458 5234
0 36708 9612
0 36670 18178
0 36677 8368
0 39891 11029
0 35485 15320
74 21795 31059
7466 19300 14687
7027 22813 19471
7969 41326 18535
7466 19086 8729
439 43387 14404
4448 46297 3409
118 7885 7246
7546 41304 7458
6510 123 34769
0 32754 6197
7280 46551 16965
6882 38677 15476
2544 40712 17938
2553 38198 15405
7027 29635 26052
7742 69295 16608
7836 42429 17956
0 30533 19366
6008 47379 16895
6233 75376 16682
439 18547 3793
7027 39913 27380
0 42189 17578
7027 35295 11903
3820 46479 3430
1854 10884 1383
7027 35411 20575
7466 42006 7533
439 38844 28938
4195 87721 12721
439 37568 24717
120 26 34245
7823 46073 19567
7027 3215 25810
8225 23238 15279
0 39223 15261
7395 74519 15573
0 15685 14965
0 16449 15499
0 23749 22786
0 16217 14754
0 9713 7801
0 18112 16094
0 14751 12101
5285 41892 24061
6415 52036 16070
439 3860 30860
0 17775 4366
5475 83612 14360
439 6390 34057
7027 25835 8883
7775 59963 19281
7027 22731 14764
7110 28909 20734
2570 46660 3452
0 23088 16587
3691 4033 17051
7466 41259 20005
0 20011 7281
7027 1543 32441
7027 38842 24500
0 12131 9467
0 10640 8520
0 12585 11175
0 20003 18676
0 9821 8753
0 21760 20731
0 21295 20237
0 28967 24674
6624 80999 19847
7466 15258 9888
1400 2882 20652
7027 15065 3123
439 18227 8538
0 2381 36539
439 1626 28655
0 5742 31737
0 5904 16056
439 22705 16279
5628 3266 19407
3707 3211 19586
7763 19922 11288
5073 37579 18241
7466 35725 12234
4962 47880 7916
1540 47534 8234
6268 44664 10867
4770 47297 8451
7027 6140 20848
0 40013 20945
7466 33958 26926
7466 2401 34688
143 21427 3026
0 43241 8871
7586 22001 13380
439 37142 23888
7466 47065 7251
3573 45422 18041
0 14271 8197
7466 3564 24754
4279 82958 18981
7466 3081 21781
7755 55061 19450
7466 27235 6777
7027 12369 2246
439 8722 8054
439 8442 8927
439 11585 13489
439 15156 16575
7923 44643 19596
6728 46277 18141
0 853 33484
7466 36620 26838
0 21092 12982
5555 46050 16985
8038 53110 16969
7284 25381 29590
158 290 31204
439 36642 22211
7466 17233 2546
6162 2517 21905
3727 2614 21566
6979 69521 15704
3501 43548 14477
7466 27597 21088
439 2103 24880
8364 20631 17958
439 18331 1822
439 18915 14109
7466 36854 24623
8035 58424 15639
439 10489 35601
0 37576 20562
7466 37686 9997
5093 81496 14843
7466 1816 36194
439 29492 22157
7968 70752 18994
7069 72840 19064
0 17661 2604
439 16489 4319
7466 3505 36244
5945 13 34134
5961 41742 16960
5976 50411 17264
4144 87885 14238
0 20140 12666
439 1241 29309
439 14794 951
7810 49959 15636
439 12879 2114
7027 44142 10309
6432 71953 18497
439 34618 27843
439 8105 7390
7027 42843 20489
7546 28844 11694
7546 38131 7093
7546 41570 6268
7546 25150 10829
7546 30489 12872
7546 36218 9084
7546 35798 8331
7546 26987 9741
7027 17755 8061
182 602 29636
5240 47101 3568
2548 48483 4746
7466 23349 4737
7466 24684 13439
7466 25272 9326
7466 25516 10066
7466 25322 12757
7466 22604 4238
7466 22514 7343
7466 21049 6430
7466 23465 7498
7466 22967 5379
439 23940 4469
439 42183 15499
7963 40249 16841
6976 62756 19135
6906 60023 19113
2152 45379 18158
439 14823 6609
6507 80298 15510
7466 42400 15646
0 31307 13628
0 18478 10248
5391 8171 6627
439 37409 20598
1354 48457 7212
3835 82955 20076
3535 5604 12716
7558 20601 19305
465 34710 29404
7027 14275 7341
0 5440 35569
7825 76504 19141
7027 36681 28922
0 40574 18751
7466 6399 33213
7466 31562 12611
6209 29965 6348
6299 68738 16455
7027 35080 20082
7731 72515 17865
0 43079 10629
0 35674 22906
3623 89 32650
3107 86819 16213
439 4670 31438
6197 41490 26507
4603 80616 19353
5361 26094 5536
2771 86827 17747
6901 2560 37460
7466 31110 12807
7466 24881 15247
7466 21606 4193
7466 24145 12281
7466 22947 7681
7466 22041 9579
7466 25095 14044
7466 20852 4547
7466 21106 7586
7466 25759 15529
7466 20485 16151
0 1322 30432
7008 78038 19247
439 44386 9582
439 2896 27485
439 42337 10478
0 28958 10705
439 40406 28155
2705 43345 20352
7027 20838 19806
7027 24610 24140
7027 28119 27832
7027 9548 5928
7027 13040 10204
7027 23903 23366
7027 17646 16453
0 28152 22249
0 28289 10757
439 41086 10722
439 44234 4796
439 43678 6434
439 33295 20758
439 32151 12019
439 44542 5362
439 32092 9061
439 33850 10396
439 34074 14753
439 33055 14787
439 40163 12499
439 33639 14995
439 36615 11387
439 35006 10561
439 31761 12045
439 33040 10417
439 34242 20299
439 32536 13875
439 39680 6727
439 39034 10284
439 37695 13706
439 40521 10239
439 32039 14184
439 33408 17748
439 32201 20625
439 41064 6170
439 38702 15062
439 39236 10901
7466 5286 35469
0 24125 10941
0 25817 21680
0 26668 20113
0 21967 10507
0 23720 9213
0 19714 4652
0 27493 23985
0 20640 6813
0 24644 14820
0 23277 9539
0 24555 8353
0 19669 5142
0 24503 7879
0 19055 3978
0 20554 3516
0 20921 6109
7466 3989 26209
8203 25265 19585
0 32790 28733
7027 2189 35906
5772 44274 11225
1863 44971 10586
0 42304 16022
0 39727 18162
0 17835 1252
7027 4015 35001
7340 13059 21
3927 43225 13568
0 25708 24148
7466 16217 2352
0 2716 23306
7027 19926 7997
5942 45252 17478
6687 43424 19141
6940 41689 19361
0 35842 28617
6163 8797 5274
6588 8436 6053
7385 59458 17375
7372 63161 17722
7027 17748 9398
778 48685 6689
7466 7659 9109
7466 9891 12004
7466 23485 23689
7466 11452 11981
7466 12667 12182
7466 14270 15649
439 36333 28374
6263 79011 19863
7732 72207 19049
439 26774 24309
7466 29395 22086
8200 26024 19579
7466 29804 10260
7247 52833 15395
439 43976 7613
7027 27135 10021
7466 28169 25117
7027 756 32885
7027 6453 25112
7466 23384 30257
439 9051 5765
7027 30048 12010
6304 81007 20101
3086 43983 19910
7027 19019 9234
7328 75716 19128
0 30117 26477
7815 48556 17364
7466 36754 20846
0 29957 21914
4388 3785 17796
4580 3673 18132
7466 28974 21726
8194 27653 16954
7466 36047 12493
439 23032 18164
7466 43128 6933
439 29437 8693
7027 4682 23500
8031 42831 19373
0 41709 25464
6153 77039 17472
7466 13682 5889
0 42070 15210
347 23898 30197
350 22338 30836
8083 37392 17054
7466 28385 11838
7181 28924 14797
7864 20270 21968
0 43226 17270
4223 85881 17192
0 31143 25454
7288 42137 4183
439 27122 16872
8094 35354 17051
4014 6487 10503
4620 6554 10338
439 3456 28074
947 5729 12389
905 5516 12946
439 22386 14328
7902 20513 16307
0 15421 2995
76 39809 4616
0 37640 19352
7466 36297 13056
6873 79125 19607
439 30224 18171
3268 89526 10911
7027 28654 25910
7027 47934 7392
4534 18106 32570
5153 15383 33686
5288 15753 33534
5661 17293 32903
3261 21168 31316
3718 23727 30267
4460 20928 31414
6776 27923 28548
960 27784 28605
6285 14527 34037
6711 21138 31328
6799 23205 30481
6571 21953 30994
3829 38487 15128
7466 29902 22610
439 16771 10510
439 29676 22867
1682 44706 19432
439 40917 26068
2675 37942 29914
6072 77302 15769
1689 645 29436
439 5079 25043
439 5097 25539
345 236 35128
439 6132 27890
7466 38254 9892
0 6407 14780
0 6521 26757
439 19008 12234
5637 83092 15907
4627 86333 15490
7027 13309 3603
7409 6980 9317
7466 35761 9305
7466 34830 6695
7466 40559 5789
7466 34843 10056
7466 36228 8568
7466 598 31571
7835 42701 16941
0 16149 32899
2177 89731 14590
0 44377 16939
5996 4550 15560
1740 4926 14509
439 14489 7064
2743 3822 37724
439 29217 26910
0 30549 21628
7027 43923 15933
7466 41237 15527
7466 37739 14945
7466 38265 19947
7466 38164 20692
7466 37762 17845
7466 43005 7768
7466 42013 10475
7466 37749 27169
7466 42844 8414
7466 38872 17042
7466 38871 22955
7466 40892 14152
7831 43908 15400
7965 67005 16327
7734 19208 22330
7027 10120 6119
7027 14077 8664
7027 13564 9680
7027 13289 7436
7027 11758 7986
7027 26328 25423
663 44264 19776
7546 31368 10776
7546 35239 9499
7546 32351 9836
7546 30441 10812
7546 41923 6570
7546 34334 8367
7466 7915 7399
7027 5453 16180
7466 19728 13105
439 19391 6212
7378 67287 15487
7027 28292 7086
8158 29125 19560
7466 41818 22454
0 1435 36114
7466 27908 14332
1751 41710 25714
7977 69441 18335
439 23616 19394
3751 38231 19697
7466 36673 21846
7858 69865 18352
7971 19649 21322
7466 20077 22734
7466 7066 19010
0 29402 8431
6443 19877 2188
4472 22731 3731
4336 23643 4224
2564 24790 4845
0 28207 8284
7027 17793 5103
0 3797 31865
6466 30728 6289
7027 32751 24410
6114 74474 17171
2696 7579 7941
5831 7643 7794
4946 37578 17574
6825 72317 15852
5073 47627 3824
7853 21104 12844
7726 73928 18350
7718 76285 16396
7466 39285 12368
7466 29389 21022
7353 76404 17590
439 16679 6474
7358 39479 18617
479 22301 3499
6311 18881 1649
858 22777 3756
1382 22174 3430
2585 19517 1993
2270 23326 4053
7466 19440 21088
7988 20425 19051
6177 82264 16654
0 11519 1079
7212 5233 13683
7027 38983 10784
7027 42371 14297
8048 40017 16193
7027 41250 8091
7027 47325 7378
7466 11340 3464
7466 37095 8078
7466 27472 11435
7466 39251 7522
7466 30118 11102
7466 31233 10003
7466 27473 9964
7466 34252 7691
7466 36529 9655
7175 66661 15572
2622 40039 28981
7466 12911 4398
439 27156 8808
7027 17257 2233
0 6170 21927
3906 84254 14475
439 16260 2997
4631 44293 15128
7466 15752 10518
66 12257 217
7466 5094 23937
7466 5106 19302
7783 57683 16681
5157 80234 19267
439 28253 13699
5943 84141 17843
439 31315 27484
7428 46917 17561
7454 39608 17926
7456 39084 15381
7433 45730 19342
7422 48848 16829
7447 41521 18964
7452 40193 18260
7426 47729 16976
7466 22596 11302
748 376 30725
8019 61513 16303
0 4656 29677
1295 48791 6059
439 29886 20252
2277 87980 13954
7027 33870 21805
0 2269 24412
6247 40430 18234
6276 40359 17574
439 27362 8501
7466 23100 15770
7466 13448 2459
4327 30627 6301
7027 17182 12635
439 2275 26942
7825 45729 18505
0 45904 9083
0 41985 15737
1235 21 33347
7027 46457 4816
4569 82022 19474
7763 63258 17800
7773 60554 19125
6231 81303 17669
0 44888 7116
7922 67280 18981
439 6249 26736
303 33770 29119
6782 37585 19629
7027 44936 4455
7466 20524 11382
7787 56488 16583
4631 87359 15462
7466 30401 10058
7027 27155 14010
7027 31533 12485
7226 38819 29768
7466 47733 5426
0 39017 18160
0 13269 3298
7747 67972 18614
1793 2613 21570
0 29748 8731
0 29597 20530
7027 27920 14477
2326 89328 11131
439 5635 24950
439 5639 24029
