ply
format ascii 1.0
element vertex 2750
property float x
property float y
property float z
end_header
33725 7720 1940
30129 4885 791
34003 17730 35086
20252 7396 2990
65888 17063 31772
37494 24087 30793
42994 25272 26615
42799 25346 25933
76563 18257 19203
20831 4748 523
24291 22273 31113
26868 2785 37068
64378 14875 36968
52465 17630 34278
63355 11642 36225
39617 25650 15308
38922 25748 18064
84756 12068 27206
23752 2371 32988
77922 10658 35463
2374 5105 27434
32273 11578 36335
63146 19917 22520
74002 15601 35438
84404 2574 25087
69091 17528 29145
27950 13340 1016
82952 12133 30979
4773 4144 4592
3958 12352 34210
41181 25198 8895
39763 25249 9040
75656 18269 15280
73770 18608 23148
14146 20543 20696
14279 20535 21469
15457 20794 23842
10037 16047 2465
11032 10225 35221
73479 2953 370
67401 5329 37572
43257 25019 29294
41658 25305 27484
76004 13027 34547
26209 8381 274
83641 15413 14778
75460 4837 2800
75496 4982 875
4676 14825 8916
74719 13508 7537
72673 13514 5310
75941 13512 5990
72776 13520 2910
75153 13512 6092
66700 13509 6907
76118 13510 6548
72255 13516 4442
68736 13516 4525
67157 13506 8284
72349 13525 711
70274 13519 3159
73455 13516 4242
29421 18715 4559
67775 10067 4672
81015 9910 1913
75916 18493 17749
9299 19656 14522
10360 19671 13938
49497 23141 7944
20038 18116 3096
23613 22963 27395
23886 22919 28327
67832 17396 29936
79802 16056 11107
80468 15756 9721
64753 13763 1595
27081 3153 3285
24403 13255 1391
5986 16021 9322
24196 23535 23178
24245 23496 23951
64895 12318 37612
17671 20160 6343
75833 13437 4972
19667 10336 36737
17776 8747 34502
35053 5748 35355
86869 6820 16977
17899 21113 9562
19401 21741 10506
79066 4297 5208
78845 6590 2438
21396 17084 35723
16543 8701 4922
19015 12215 36552
80381 6984 35990
9817 10392 2608
52024 21097 32122
6741 9307 12893
6064 8087 12606
2872 8381 12675
65840 7925 33176
81419 14697 6774
8095 3838 33332
8610 3934 32834
15714 13531 36320
82696 4190 34320
21462 18415 3419
7620 6797 11032
40592 12752 35183
14945 8561 5187
14367 4303 2427
71914 19419 20656
68306 14633 36902
24395 23285 26584
37489 3590 37207
70195 16845 7080
86139 3387 21864
85940 2913 23082
31005 22448 31590
34035 9710 2187
75996 8597 4675
7693 19062 32141
28210 24206 27009
29123 16689 35968
85139 9921 32674
80170 16327 14164
20847 6772 36642
54610 19228 32921
88357 9060 15307
71807 6185 37353
23639 11721 4920
17252 6383 1231
17595 8315 1297
35207 24726 30168
29674 1851 8388
35760 2420 1078
76242 2377 35746
69250 12492 33466
6270 18802 7189
84709 10202 30240
9268 19581 24435
11030 22858 23888
29316 2261 29911
29336 3049 33122
29286 3824 33113
14262 19013 4938
58148 18175 6327
24985 6521 37584
73015 10758 35975
18515 3180 2097
87452 6899 13434
62299 13027 36223
67454 11591 35174
65079 16871 33574
81709 14461 6310
11605 10243 3904
73945 763 37083
88363 9804 14062
4824 6810 24812
4864 6784 29196
4664 6913 22702
82339 2448 34898
61166 17717 7130
15054 15618 35890
57909 17444 33464
5362 23304 17844
84897 13643 11575
63981 2223 32391
63981 2126 31299
44708 25096 26174
46095 24761 27006
17571 11346 4334
85942 6822 26202
25360 19360 5036
10644 19675 24193
4690 11700 34636
246 6378 8444
63607 12805 36639
76232 17091 13695
30948 11909 36566
78387 9458 3089
78459 7926 7739
78919 5167 4719
78870 5689 3958
78697 6563 5858
78494 8506 3845
79172 2702 7458
78194 10607 4427
79064 3544 7250
78641 6847 6492
77427 16730 12761
75774 16721 9917
32166 9458 1522
17697 2278 4921
4515 7000 25982
8777 6851 26006
8144 5754 26179
9552 17688 3235
64002 3254 33272
63997 2678 31498
21906 2050 526
64134 19791 14625
76632 5400 4667
54124 15977 2882
48692 15536 2710
17427 20681 7604
32078 14424 35907
50325 22963 27921
35560 9151 35520
36720 20527 32310
44695 20496 32313
42188 20114 32462
46753 19853 32557
46368 19015 32879
46270 20649 32252
50842 18540 33056
47783 24528 22250
48239 24523 19205
67947 18481 24396
44744 25318 21105
44780 25194 24593
69814 529 4265
28649 18712 4598
8243 18808 4584
10247 18653 33776
22674 2513 942
35829 25199 10022
67216 1921 524
82344 15790 14547
80784 15978 12464
61103 17531 24808
87624 9370 27063
43850 25008 9005
9990 5739 3690
39217 10888 35119
39018 12063 35125
9934 4074 30451
11841 3371 30202
12683 3061 23140
14091 2542 26939
13297 2835 27221
11808 3383 28758
13950 2595 23042
13970 2587 10558
13780 2657 28572
12332 3190 25446
13829 2638 13037
14095 2541 15294
28387 10777 5152
28824 8514 1422
87216 7993 11566
4816 17451 14181
4405 15395 13919
3587 5880 7075
7748 5845 7075
64650 17024 32532
45563 25093 14334
45200 25186 14926
36018 14010 2855
56348 12601 2527
65883 9649 36162
52226 16878 3199
47393 17216 3202
79213 3248 6102
79200 4922 2124
36937 11067 2819
79084 4420 32998
79142 3625 31914
59647 9644 36376
30029 5020 37121
60634 18132 18291
60835 17704 13640
84607 11950 12056
43453 7944 35502
46288 8025 35484
44857 8423 35585
85124 12368 14125
43367 25516 17298
42368 25573 16522
82979 15036 28037
46495 17521 34313
67434 2901 4661
77695 13801 1691
37026 17912 3252
50473 22600 7470
17859 19387 5827
82462 4173 33595
20851 8823 411
19270 13494 32551
22688 13495 32100
23163 13499 31234
19033 13505 29430
27250 13503 29944
25311 13501 30665
25399 13494 32482
21626 13501 30673
20240 13498 31267
19004 13498 31435
16413 13505 29523
79341 6677 897
39325 3411 497
19688 21799 27624
19195 21689 27243
72516 16222 32491
73447 16676 29940
74060 12517 35710
9038 19732 17178
9233 19773 18260
11766 7065 2396
83850 4904 7660
82574 16228 18665
5874 4191 32730
28815 8652 35308
6693 15452 31207
31430 24784 11244
86187 5528 29499
70369 7803 37516
60028 18347 21496
59695 18646 20120
77551 17953 20849
82063 3668 3102
20319 1996 37583
9192 19363 8800
5326 10500 13163
15886 9269 3892
31680 4019 37195
39851 17406 2868
76235 9562 33170
86983 2198 6491
59447 8522 37250
63281 12614 1662
27746 18161 3134
64259 19064 24069
48166 24399 15585
69763 17162 7867
77280 5108 143
57470 19754 22131
57038 19793 25051
65187 6936 4281
3780 10569 21732
1872 10550 22926
5870 10600 22141
3208 10559 21262
2130 10537 20115
2419 10546 20920
71785 2593 566
7867 7808 34823
39719 16263 2329
54326 3927 37591
61089 17670 22424
60800 17741 23880
26831 10032 35216
35514 4049 439
9592 6789 35038
36349 3482 657
9390 7690 8911
68550 19819 19316
87458 10113 14740
11207 19827 20136
10591 19752 21751
55342 6975 2626
8776 19513 11262
51606 22102 8039
52811 21495 8110
51370 22392 9500
50321 3880 595
62619 17208 5442
73954 18980 18452
24487 7508 3119
79629 17224 21271
53547 18757 33750
84263 14517 9757
69024 799 2971
84919 6782 28512
82804 4222 30576
23551 1683 282
81075 15578 28288
71750 290 35930
8760 5353 30957
44763 25368 18027
45322 25212 16237
48688 23013 31286
63757 14108 37089
62687 18583 13197
69826 6183 37220
32304 18336 4145
32458 25350 18379
33156 25446 18693
3882 6195 33506
707 11119 18111
12659 19609 10846
74432 8656 37552
47829 23753 7212
7299 10626 14599
3188 10566 15231
3941 10571 16151
1012 10535 15471
2818 10545 18035
7995 10639 14037
63097 10061 36618
28089 15535 36334
10687 6671 33845
85341 2495 30476
28128 23483 30663
5531 14061 34089
78700 15692 7860
30332 23077 6673
85884 13841 16138
81188 5469 34001
49254 23940 15373
61871 17496 19481
3691 13147 7540
45989 3636 37627
34093 8460 35966
64551 12640 36137
15207 6767 36202
439 6974 9313
25286 14345 37183
65894 17154 6516
25490 12893 1586
20009 3088 37505
46760 24454 28130
13030 5411 36209
71488 10964 1114
51413 19897 2522
25357 8429 4949
31234 25047 22747
28915 24903 18956
31476 25018 24061
46834 24851 15349
47569 24698 17459
75262 17631 23646
69059 19770 16890
24378 3557 1013
84136 11771 8782
75534 8946 39
26971 22017 6265
71808 17067 29516
1173 11307 12041
51247 19802 36415
1608 4992 26230
11090 23571 31374
67315 6328 37488
48746 24027 25311
13427 4074 36431
19442 1926 37672
44922 25040 11450
12513 3294 35761
22360 18533 3662
25301 9587 261
13511 18993 33114
3232 11582 4520
81633 13461 6210
20832 2051 3734
22141 2144 2717
29288 24014 7806
53105 21983 23438
53013 21967 24438
54236 21342 24555
7484 5750 34668
5308 19110 13628
68337 16625 4775
26531 4234 37621
83205 15153 11328
10508 19484 9923
10440 19530 10680
37978 15547 1715
2418 8026 7333
49085 8648 2398
57312 19619 12482
56757 19505 9489
56685 19786 11206
3525 6823 32965
64316 5795 3135
64177 5217 3069
1111 8005 9678
23364 18519 34176
77494 16612 11829
77855 16455 10976
29678 1837 34698
30340 1860 36254
29366 1826 31854
62790 3223 37257
69324 17062 30439
73132 2563 37711
25752 22658 6837
65513 12933 30942
68545 17973 25824
23522 19060 32800
68005 11992 3990
71187 18546 13904
18101 1020 4409
8569 21504 24249
8841 4177 31859
66755 10900 36386
57568 18391 32210
71395 16678 30904
2844 5142 10547
85501 3250 26220
72568 13676 92
16908 21243 24442
16276 21294 20623
18318 21795 23216
37750 3280 704
2403 5910 29253
15556 17417 2634
65417 16678 2999
3384 8636 33165
4321 14761 24553
4094 13933 23969
27727 11128 225
84736 3598 8661
61387 17322 12128
46715 6155 35104
42627 6101 35096
44920 5597 34957
25965 23604 27265
19286 7438 472
25055 8970 1562
25900 7234 2483
15572 5092 37425
70821 8271 3056
9368 23554 30406
10180 23539 25624
9757 23553 27332
10268 23516 27694
7974 23644 30888
10425 23514 26659
72908 7903 37435
59272 18508 12441
2559 11536 32105
10924 19853 19013
4182 14302 11777
47001 17707 33709
82151 10351 6337
61568 11900 36240
52586 13576 35328
51474 12039 35315
49408 12119 35305
50172 12604 35311
23320 2227 36621
42463 8985 2544
56978 14886 2641
20081 10470 34812
1962 7647 30606
23119 17038 2067
69358 12682 37197
3561 7600 22083
3660 7556 24136
34955 23858 6969
37942 3995 585
74634 1585 37699
66619 12638 3210
77679 15814 7569
54565 20272 31755
6302 16991 31000
35166 15882 35950
84024 13878 7752
5900 6022 7144
65198 17626 30035
50080 23350 12279
85931 13827 15150
21805 9853 8550
19091 11242 8522
17560 12623 8494
24163 6267 8625
24307 13397 8478
24712 7650 8596
23177 12332 8500
26989 4572 8660
20851 11732 8512
22514 13120 8482
21205 9411 8560
28301 9473 8559
25422 11033 8525
24311 6949 8611
25834 12081 8505
20095 12884 8488
26128 4975 8652
23367 10147 8545
10259 19055 4983
12017 19013 4804
61384 12942 36798
52717 21381 30960
15114 9949 34897
15101 9716 35442
25274 8520 35876
20410 21982 27971
26486 18576 4379
77327 3966 34083
82045 14256 32117
28830 24140 28460
31519 24488 29283
40427 6732 2592
41471 6805 2580
1262 7625 19135
1262 8626 19306
1262 9207 16175
1262 8481 17983
86350 10406 19782
37078 3696 633
79052 9337 37179
43395 25447 22482
43849 25448 21320
63790 1827 2810
63859 1825 1241
62382 13313 1060
25528 13094 2507
31968 17847 2805
67753 17861 27485
66984 18186 25474
67649 17777 28234
86254 2452 15674
13596 9069 1428
16450 13361 31403
64624 14060 965
81272 12472 30538
12319 4482 35589
21880 0 1816
72676 2292 4684
18656 9121 37000
76459 4069 33169
21243 7421 36704
18936 22009 14712
16316 21012 12886
19851 22483 17150
19414 22053 13069
81366 11020 6610
27942 6830 36466
6530 17504 3801
14066 16652 35539
22457 22497 28463
50856 14681 35347
68202 3608 3960
68903 3234 1667
80042 6281 33421
38143 13666 35072
39964 14353 35141
4048 14782 17283
4266 15444 15632
9893 3870 32715
6702 3742 3009
19513 18810 4403
70170 16593 5905
6596 15753 31714
439 11042 23197
2567 7092 28044
69354 14743 36935
68866 10859 4674
69490 10199 37234
33351 2983 37110
20418 104 2283
1844 11008 29515
86010 14125 24991
24238 3898 37510
53616 20799 6005
85346 2188 3965
59907 10176 36831
29082 19956 32777
66314 2935 3729
74782 15850 33331
19467 505 4617
58802 14941 1630
74033 13915 273
61474 10518 36746
64198 9770 37645
66502 19687 14453
57314 5178 1392
17000 10821 4264
53729 14403 35337
48045 13471 35300
44290 13552 35270
50212 14159 35311
52266 14174 35327
75910 12723 2041
60280 17168 33377
66166 18782 24262
6742 3851 4087
1246 10431 12233
3677 4492 32515
8013 4427 11898
4640 4652 11932
5370 4763 11955
7600 4875 11982
59085 17721 6934
71262 10932 36111
14151 2527 3044
7134 5883 26628
81546 16159 22034
69301 13405 1742
4587 18378 17957
59874 17049 3406
60501 16926 2827
6043 19373 27601
3493 13605 15105
26552 13372 32256
78480 16267 27584
75971 18011 22986
2496 8934 6746
32319 21823 5883
22985 17499 35560
31316 18930 4575
81301 12016 5744
12144 6016 35488
63152 16050 1433
6798 5855 29927
4647 18225 22203
7920 22196 24481
57550 6354 2260
84513 3427 32043
16479 20199 31103
29258 7600 37329
85667 4066 7672
9745 4125 6449
10940 3613 6109
10600 3673 5250
79389 7951 37079
53507 17369 33881
32828 2191 34375
21091 8035 561
64277 6677 36957
64322 7090 37420
5055 7650 12512
5066 6967 12378
3563 6779 12341
20691 13808 37740
38422 10422 2776
53913 21656 15738
54356 21392 15091
54811 21381 18580
54212 21657 18156
4376 7313 30125
65781 20007 16605
23641 17897 2762
52899 22071 14179
51588 22635 12581
51689 22672 14004
32913 5270 35813
86641 10268 15638
48516 5228 35001
8485 4248 6160
74415 2451 4672
1922 6172 6687
85588 4455 29029
26040 3189 33011
6857 4603 6614
6206 4522 6580
53040 17989 2174
28205 10484 2362
2094 12838 14737
10264 23658 18881
15360 12468 1224
62151 17912 22662
39687 3526 37195
68741 11920 37705
71032 17415 28094
59715 9196 979
81055 12105 6734
21112 9538 470
33152 2244 2481
34450 2353 1208
12791 10219 35769
17857 14924 36466
48914 24045 23510
48246 17714 33490
27046 18839 33125
5942 19677 18910
6590 19689 18564
81384 16646 17777
16034 21070 15116
15867 21102 16404
17984 21807 16353
18636 22164 18380
84230 4541 30495
56787 3414 37373
76588 16279 8431
71270 2004 4
16958 9381 37605
52679 21903 26877
54174 21297 25580
10950 19794 17084
53620 19568 5124
78274 9563 1409
25035 21907 6367
24434 12085 3665
70482 11668 4670
84645 15241 17275
12857 19757 25775
24436 7143 37466
55816 10725 2542
80906 13343 35540
74301 3425 2069
73869 3008 912
2482 13018 24294
6627 20707 24488
83072 6706 5840
4452 13254 32805
27539 12352 4512
62932 14038 1451
67708 9026 34477
70816 11457 37833
9148 4124 2752
76549 15684 31782
46495 24494 9205
53097 21620 27496
54150 21000 28177
27680 23801 8796
27929 24066 10308
80425 16109 12915
79886 16153 12179
77931 12107 31609
69618 6465 612
67484 13183 34461
33861 23309 31025
86352 6424 29486
84139 3390 10004
84594 3402 11942
84019 4376 8726
84596 4325 11234
77721 11476 37418
17226 6233 35074
17387 7147 34949
62346 18052 20720
36006 25310 26925
7801 10561 3442
21600 14401 37548
71885 11639 33155
85733 6300 27407
85441 6060 28218
25116 3389 4942
34245 5737 35527
61329 18251 23834
11582 14590 35714
17696 13486 37323
20807 11648 33008
84592 3070 5944
84729 12509 28300
32112 15304 1718
43059 7340 2477
45558 7547 2464
51477 8066 2428
11423 22724 31467
9113 22904 28505
10829 22821 24491
9358 22897 27334
10757 22810 26461
10009 22884 23654
9829 22876 26046
10746 22788 29205
76279 15453 3357
2467 5860 11222
24617 9503 36778
23306 10321 35311
67247 17235 7315
41835 17700 34450
85643 5364 18720
85264 3779 17067
85076 2783 17164
34796 9029 1930
86190 2250 26099
27282 23583 30044
36761 24818 7658
1031 12141 22122
12920 19744 11755
86461 6529 8640
9919 10309 3470
67783 10191 33160
46685 15414 2648
44596 16529 2634
46449 16023 2669
43767 5171 35038
72404 15133 1524
60718 18357 23232
65839 20072 19611
11564 3454 30714
13068 2801 31234
11076 3387 33656
6557 16427 32441
6724 8100 34343
17721 20676 30835
61309 18088 11840
86234 6125 12610
85456 2918 11741
18340 15704 1748
0 6192 27230
16840 12395 29360
19980 9109 29308
19137 9432 29325
14585 2730 29462
20118 7715 29312
26012 2978 29207
15326 6432 29426
16871 7962 29383
17575 2966 29394
15722 12845 29383
25439 3637 29216
17514 5922 29380
15240 5035 29435
14719 6134 29441
20950 7475 29295
25424 4944 29210
16011 7945 29402
19187 7768 29333
24251 5859 29231
24119 4340 29242
85801 2420 7229
59241 7600 37459
61844 8247 37549
21190 12753 36714
82351 10054 3251
17160 5570 4947
79290 16040 27999
33598 8073 35980
51028 18997 574
50940 17172 3407
26701 18443 3673
63136 17005 33360
61458 16990 34281
76690 7078 4670
83945 14845 26789
3009 10101 32734
4318 7126 16517
3389 7724 13642
78110 17825 17715
61138 18377 19078
48235 22855 6470
55124 20361 8977
54526 20624 8339
12431 13507 35845
75889 7433 2033
30059 17965 2922
64684 19961 15959
45130 16913 35053
76448 14062 36286
82695 4014 3512
17072 1851 35578
5619 18718 27852
35107 10171 34960
20350 19699 5650
17318 4823 32991
21329 1430 265
81767 15566 11095
25555 5759 37017
12374 19486 9117
1174 10857 25464
65976 16899 5291
80600 14864 6406
50739 19764 1671
3009 6275 6369
35493 23884 30861
67546 8639 36748
7396 4413 11570
12797 19805 13054
14122 17063 2525
13545 18044 3215
48203 22649 31392
78913 10836 1021
85867 3365 29523
3026 4664 26208
73866 16085 5852
85488 11188 16931
85181 13134 14583
58153 18997 26442
20369 15191 36874
60041 9052 36602
72820 16503 30844
79446 17359 16954
69147 13452 35480
70910 4364 634
31364 5722 36450
62909 7242 336
83778 10703 8421
83746 13087 29954
21610 18796 33111
63063 18139 28184
63723 18073 28355
58127 9373 938
57324 20045 18894
57263 20031 18181
57642 19509 13522
30764 11161 36587
43663 17843 33752
9230 19254 7133
33843 16899 2082
60422 18077 25051
60569 10366 36572
73515 13435 36593
77192 14546 35818
8222 19465 27122
82896 3921 32586
5327 13649 34497
25645 13467 4903
70278 19561 18666
4540 15609 12919
4730 16014 11770
68847 2103 4666
85045 10774 24029
84761 12546 24945
70733 10889 37694
61495 16543 36095
29631 18299 34354
12607 19993 20284
72715 11227 37828
10766 19723 15076
427 10690 16225
72866 18768 23322
62948 11968 932
6324 18310 31756
77502 4433 4212
62044 14145 1011
70428 17508 9783
71162 17688 11844
8609 7087 34060
85703 13394 18534
85457 12345 16691
4805 16201 26409
14395 6158 1680
14954 9143 5132
24322 4299 706
40139 4988 2785
13864 5425 36655
61494 18124 13323
61275 14930 37054
66869 16622 34407
82419 11629 31765
14449 20586 16200
13922 20551 18419
25481 23458 10405
85558 10439 22483
21337 2185 28027
14672 2486 26405
23664 2080 24131
25606 1993 25013
17510 2358 18862
16894 2385 27746
24463 2044 24369
27119 1923 26677
21495 2178 26752
19492 2268 26227
23111 2105 29181
15110 2466 14430
23315 2096 26340
18899 2295 27013
16210 2416 21276
24461 2044 27053
17876 2341 26409
15222 2461 24790
21626 2172 28681
19786 2255 25394
21587 2173 19652
20648 2216 22533
22805 2119 25341
18005 2335 15861
21537 2176 20380
23513 2087 23195
23489 2088 27824
17360 2365 24072
15595 2444 23965
16164 2418 15116
21898 2160 26289
24905 2023 23697
16300 2412 19033
20155 2238 28183
20682 2215 26286
26336 1960 28540
14855 2477 12139
66219 17463 7665
60220 17791 9506
65086 10144 36062
65406 10922 35581
87190 10166 23177
74103 3141 232
70373 19249 23433
5086 24765 26822
26779 24400 20243
14782 13054 36042
35956 25664 18019
21116 16972 2088
8110 19420 10092
13357 19805 11101
62198 1954 5055
62551 1883 4256
60975 2056 3073
61136 2076 4429
86310 5626 9031
11259 14847 2266
27405 11293 36514
27479 11926 34637
31089 18134 34676
4232 6755 33954
14212 10553 36558
10955 11568 35564
66487 12679 162
85516 10067 7093
2927 12543 6748
85382 14632 23658
68390 12946 37131
83306 13580 6727
11760 10362 35149
55791 19586 6309
61731 17179 32820
75584 12659 224
79788 16222 25272
36622 4472 1517
50046 3091 787
51846 3057 800
12689 2793 3146
21198 19057 32595
7516 7750 23878
7378 7745 22388
8588 7777 18024
9360 7797 16157
7582 7751 24511
3239 7639 23030
9107 7790 18485
6657 7728 21199
9264 7795 15454
5867 7707 18065
5300 7693 25632
5416 7695 21616
3638 7650 25034
26021 23153 30443
32910 6675 36001
10611 22968 18644
11357 10684 34723
18972 15371 1371
18728 12956 825
66474 10588 3296
60521 3450 614
1496 5026 28196
4130 6374 11776
3475 5699 11665
3867 10919 3781
63135 18340 25837
62803 18434 25098
65007 18345 24911
25892 12560 36688
58039 18730 28683
88500 9253 20914
17218 8804 270
8830 3662 4000
11734 10235 33873
20766 2413 37067
87690 6857 18515
56800 14314 2523
82524 3433 34456
9719 18968 4669
7107 7022 10628
24546 1908 37622
10741 23671 10907
15400 7994 1668
86179 14057 13512
19474 2482 428
12959 19355 30582
11814 19442 29160
15446 8141 36848
5303 23955 25536
25696 13422 33310
71393 15850 35678
85249 2977 29297
79108 14995 3761
26897 23894 26848
82040 13490 31533
25320 2724 37638
16982 20938 10476
10642 11998 2315
23354 235 2093
77807 7887 36791
20741 9005 37540
23388 15110 36979
85161 4503 28228
30448 12936 1270
5776 23439 8852
4324 15010 11669
64638 17848 29562
4225 4481 32042
15898 12113 4395
15844 11695 3584
16238 12134 3393
41828 9680 35166
81565 12806 30069
22426 8843 37446
62754 19228 15194
87138 2255 30006
8367 6965 7574
36215 15154 35227
11406 7838 2671
10081 4214 35177
9769 4383 2687
82449 10270 5369
85015 13459 28040
35875 9001 2172
35292 25467 24188
35129 25495 23068
12415 8667 4398
74599 17315 24499
26733 24389 17698
26628 24099 13666
66273 6805 37
23286 12532 3729
74832 17871 14363
27963 6116 4316
27640 24430 14782
27500 24469 16016
64880 9928 34301
64739 8349 32141
64238 3904 29739
64591 7189 32112
64126 3012 29667
64422 6590 35370
64486 6815 34137
65142 11312 31316
64141 3486 31260
64510 6810 33272
64587 7026 31540
64374 5901 33954
87401 9992 27233
34642 3331 670
85312 10397 13267
76304 11929 488
42417 25473 13438
44025 25428 16311
50557 21513 31953
48181 2254 4037
55813 2113 5454
60414 2047 6115
60426 2112 5422
54407 1861 8125
50626 1876 8000
50513 2246 4095
37871 1836 8524
45191 1956 7197
54326 2398 2454
62141 1977 6840
49015 2057 6099
56814 2146 5099
56723 2408 2339
55810 1981 6848
33505 1885 8045
52740 1870 8048
45720 1836 8457
51378 1826 8515
46542 1950 7249
57530 1938 7292
41392 2115 5557
43985 1835 8486
50053 2209 4492
36479 1870 8178
50540 2334 3165
40486 2044 6314
37787 2047 6307
50884 2061 6045
43440 2129 5392
54977 1988 6781
70812 19179 14398
86048 10299 24389
85534 10282 26860
45414 15393 35252
45531 16457 35195
46855 16406 35154
1834 12141 8722
20891 18646 33961
72006 5691 37039
3526 8775 25089
6655 9986 24806
1878 10038 24808
41490 17259 2857
70049 1481 33165
22646 1948 4945
66303 2956 34445
63093 20041 16790
75212 18703 18362
58629 18960 13626
77070 11604 36223
22471 5766 888
79314 16469 24107
61640 17053 4217
64146 16975 4707
6114 4009 34708
33589 17655 2644
51366 5095 2896
86292 6814 24003
68302 16482 34514
32613 24871 27430
20515 10302 37097
80514 8733 36054
12069 9145 34708
19561 13313 36630
18915 11411 351
67804 1487 36631
59672 14029 565
72459 19067 22465
8639 16935 34967
5583 24760 12530
6604 24729 7850
81729 2155 1554
56792 14684 35284
6866 19595 15056
8615 19638 14609
13960 12082 35955
2908 10255 5274
62682 10758 1320
3432 11409 33609
15070 9832 32136
15169 10032 31566
69790 13506 35526
23280 8458 3190
36347 25582 22885
36443 25642 21114
18031 9469 264
70883 14870 979
67689 18122 12413
69524 17822 11492
40549 2995 37070
60610 16770 35892
14845 19518 6374
983 11329 13393
39459 15045 35225
73740 10589 139
52571 7495 35328
43960 6694 35239
48238 6661 35217
29386 3758 37120
29435 24659 13012
31200 25117 16788
11179 9594 33750
30576 14677 1339
8236 5798 3556
62483 17516 6887
61306 17585 31077
3249 12497 5345
86687 7835 8580
65380 12171 5555
4570 4573 6364
79532 8001 949
67346 1820 4047
45546 12043 2572
52847 13857 2526
51639 13617 2534
48708 12710 2552
46828 12725 2563
35443 11547 2865
51292 19942 35081
66751 20051 19764
17386 20772 29514
5716 17509 7403
86551 14019 15878
7808 5640 2907
61295 17392 5834
72267 8063 8475
74701 2782 8475
66192 2105 8475
77677 4317 8475
74754 3379 8475
71498 5326 8475
70128 2727 8475
76614 3939 8475
77812 9899 8475
76857 10182 8475
77408 10577 8475
75116 7188 8475
71653 3627 8475
75089 5336 8475
68188 3456 8475
68419 2123 8475
67285 2038 8475
78018 2720 8475
73934 8150 8475
38306 18080 4094
74290 14478 36718
50831 23378 18841
51262 23050 16758
16169 2993 35278
79680 9657 36446
38405 16644 35532
38457 15761 35682
1028 12031 24388
24911 13630 37702
48241 24102 11390
73346 10166 37026
13789 7731 36841
85897 6815 22187
29370 3618 745
28377 9959 35829
21212 13160 29374
28003 7168 29250
28084 6063 29227
23764 12093 29352
27696 13398 29379
23954 6638 29239
22951 9347 29295
26671 9975 29308
24655 12429 29359
25689 10607 29321
24414 9167 29291
26868 11190 29333
24552 7989 29267
19297 12938 29369
22442 8671 29281
28781 5113 29208
6362 18987 30651
80649 16244 23265
14430 6677 1243
14698 8154 2400
61737 8661 36766
61102 12211 36686
75676 16199 7619
66177 12231 34746
9367 10019 34811
1839 8261 9369
64430 6199 4525
65099 10754 7555
64510 6804 4616
64937 10083 4860
64737 7743 8394
64524 7339 2705
64586 6692 7795
64513 6990 3870
64626 8500 1035
64722 8456 4628
64223 4254 6000
79125 5689 35651
79182 4335 33735
81972 16313 20987
86522 9296 7495
51882 19553 1582
64313 18738 13485
62223 17959 15750
24349 9670 2029
23819 10001 2855
67562 5097 1580
67249 5870 2428
14664 10066 37168
81298 11121 33961
48383 3662 37219
39940 5404 34908
3288 7504 5218
29665 23420 30904
18662 13485 33548
83307 10345 7490
28996 21580 5890
55385 4270 1056
51551 4213 900
53043 4767 2277
48559 4264 1018
34202 3556 37218
83833 10045 4552
4685 7695 11950
7803 7695 11639
7782 7695 10856
65039 20030 21154
32009 20926 32423
84579 12074 25832
85215 13829 23299
75022 16426 29905
51978 19436 36296
39406 6951 35313
85969 6832 11183
8101 4145 5614
65590 6010 152
77351 13458 7649
65220 13208 36596
39887 8544 2187
14696 19736 7312
65677 12817 6073
66052 12286 3604
13538 13919 35906
17734 4516 35745
207 7163 28111
41726 25557 23527
42816 25447 24051
41522 25685 19805
82179 14101 33210
60202 16575 1704
81570 13267 7420
85032 12173 23825
16077 13116 6354
86962 6865 10451
29705 18394 3753
5371 24036 10881
5346 24685 28371
29339 3520 36127
82076 13377 4474
884 6583 27408
51539 6225 2740
46212 6316 2708
8048 21699 23999
78555 8432 35767
78394 8906 32441
78572 7862 33707
78224 10455 33789
78857 5724 33603
78013 11150 29738
78815 5530 31236
78031 11587 32368
78730 6081 30877
78470 8021 30951
65223 5613 1618
67929 3284 37828
21679 15343 36840
16520 17524 35204
74935 9064 37421
17361 12973 3299
58421 11541 841
77915 15382 5494
37459 11748 35061
82513 5899 6441
2425 4913 31581
1129 9336 19526
1117 9973 19440
75438 3421 4670
13013 6567 1705
45701 2691 36971
50913 2847 36990
67276 6283 308
7652 4835 26324
2885 5875 26164
4158 5317 26252
4812 18186 13821
22376 12635 635
77083 16632 26635
76673 16486 28602
69310 672 34776
20662 15546 1219
36236 1985 30884
60541 1897 30155
54786 2002 31224
52572 1976 30932
49913 2280 34126
42030 2063 31755
60985 1980 31045
55485 2090 32151
57230 1858 29725
34106 1839 29330
51961 2398 35388
46704 1936 30456
43898 2087 32027
39489 2083 31964
33354 1920 30177
45816 2183 33056
52469 2126 32509
48309 2198 33233
55668 2313 34519
32267 1832 29242
44303 1862 29659
47620 2159 32814
55312 2384 35260
34808 1927 30268
41257 1835 29342
52075 2076 31984
53043 2396 35362
44694 2123 32421
55460 2470 36174
47886 2244 33722
47271 2033 31483
41686 2133 32489
55408 1904 30189
55360 16922 34412
2197 6287 7237
9229 7503 3890
20934 22337 11421
22806 22926 11934
37908 5482 34931
64078 11989 37043
57011 19087 7554
18317 18617 34085
3093 13560 18415
25186 23944 16956
25121 24059 18908
81285 11503 32395
11459 5069 35295
13796 10940 1801
85034 15168 19072
71705 19525 19544
5140 15860 29785
77965 17735 21467
25101 22495 31064
60237 2158 34650
63339 1852 31158
61187 1987 36141
60831 2008 37007
20915 16514 35990
82356 16303 19384
31302 24935 12681
28530 24126 9690
1172 8418 12102
83571 2301 3172
87000 10291 19094
2332 9328 15159
2752 8713 13455
2770 8637 15369
27456 13136 31389
5792 4849 34650
53280 16563 3060
81123 14599 31800
8628 19357 28940
56240 2542 36891
65738 13338 29381
70065 12357 29381
69327 8108 29381
65005 7296 29381
67989 7999 29381
65908 10715 29381
71005 11455 29381
72208 10613 29381
66664 8019 29381
76294 13017 29381
67544 6081 29381
68240 7435 29381
68860 6665 29381
72244 9254 29381
66752 10723 29381
5370 17429 9276
38898 6074 2765
7417 8251 34289
85085 2378 32424
31565 10981 36483
50454 23391 22095
65174 7262 3642
6231 16517 3643
75198 11878 2935
54818 2677 36930
49948 2908 37011
77702 5046 35111
29332 2401 6592
58994 18403 10719
59347 18059 9862
25212 23846 15383
25719 24042 16336
80523 16742 21991
80427 6707 3857
58190 9873 36602
9032 16230 35274
14526 5106 7277
14922 8126 7527
14688 6381 4617
14535 5190 6575
14545 5273 5769
14251 3050 4431
15416 11892 7698
14791 7168 4506
14422 4321 7718
14300 3437 2902
73756 19027 19407
86791 2270 19621
88485 9106 17493
84227 13510 28954
5928 17066 10175
13301 19507 8691
10511 15060 35506
82448 5686 31900
81844 5989 32730
80466 3711 34103
81452 5215 33098
57649 6684 873
24424 19109 5008
55387 20792 23700
56605 20268 21551
55503 21029 19105
12023 9180 3010
39355 19389 5109
41730 18305 4690
37032 18778 4863
34550 19351 5082
42583 18422 4738
40947 19069 4988
72489 4264 168
66828 18458 24544
22457 11329 32999
76527 13433 31750
74807 9641 1254
61274 18126 17003
56120 12179 35332
58555 13553 35334
35315 25643 18859
34562 25543 17740
2877 12910 9620
38024 25663 16007
66408 14693 36978
58257 2370 36036
44504 24932 28527
44654 24972 27722
72335 8157 35251
9790 6896 3929
75081 1370 4086
18725 13355 2773
17068 18708 33904
5305 16806 9556
10524 19383 29392
9777 19421 28523
69806 12820 34363
15687 13148 1366
70602 5385 336
66146 10106 3532
88263 10023 17282
4087 8857 3756
86646 13962 21375
61017 9062 36218
33689 4366 1103
8404 13114 35313
56888 6563 2688
25275 17794 35228
77255 12334 4092
29327 2951 2200
29327 2363 4611
12737 5626 1926
31897 16312 36041
84452 10297 29284
12647 9504 4202
36722 25599 15245
36757 25655 16941
4974 17468 25544
84861 12588 11828
5379 19075 25091
9218 11720 35359
7765 10939 35143
60727 10535 1359
35194 13167 2869
58686 18894 24733
58880 19018 21415
33759 11319 2447
28665 17640 2474
6794 16552 31315
31596 1982 35657
23724 22936 10038
24439 23119 9894
54688 19034 4867
62589 8603 896
38849 25698 21554
40360 25707 20025
3839 7600 29896
56191 15789 34968
16940 6417 37638
46871 17693 4036
42403 16618 35302
18575 22001 21501
18515 22072 20200
19087 22297 19728
19475 22263 22056
27889 5415 37112
16913 11965 36648
16377 12923 32729
81930 7024 3435
48374 24190 12837
3839 4554 4922
42327 12589 2602
41581 13271 2638
26809 6694 33004
84916 13903 28676
32793 25213 23791
32018 25202 21765
52594 15699 35065
51986 15135 35224
50575 15334 35184
5616 14761 32667
52307 18741 32976
53581 19053 32845
83943 15563 17192
3047 6584 30494
2019 6239 30640
7581 6625 3374
52260 17814 36295
4297 9890 13022
2604 9800 12997
32251 25078 12810
32499 25161 14056
11132 22964 10843
65180 7317 36540
28302 22042 6177
68202 3256 0
67124 17119 30944
8522 19063 32418
25099 13454 33893
48233 23813 8546
24208 17501 2271
18713 15736 36149
69894 6870 35153
59404 18132 27347
60606 17680 25723
3532 10568 13318
48221 17739 4447
85505 8203 31767
27973 12295 31880
29605 9901 678
41659 25329 10648
42592 25347 11757
58778 14423 703
57035 19442 27763
57252 19505 26449
74917 13657 37477
28049 18665 33245
70650 9200 362
65245 5400 36441
60141 11862 36275
27751 4738 3370
8939 4949 35101
27949 24294 11961
32307 6685 1684
6327 23904 12722
5512 23953 13448
9817 23707 8142
6726 23887 11512
8408 23782 10549
8129 23815 8801
6799 23868 13220
48161 16613 35075
57525 17044 34071
40849 13927 2672
38714 14042 2765
40814 17011 35272
26941 17941 35015
6214 16458 34204
13199 7742 36249
29081 7284 1343
29155 5676 3485
28922 7896 2638
28623 9253 4634
28711 8208 5384
29062 7054 2125
28423 9637 7052
28952 6907 4192
29201 4839 4481
28804 6253 7939
28955 6091 5840
66307 19829 22461
5058 15788 9370
73851 17075 10280
18384 13500 7047
20163 13494 5360
21090 13504 8171
19786 13490 4359
19014 13500 7047
24226 13502 7424
24719 13490 4290
22747 13497 6122
25861 13499 6770
20646 13483 2396
21701 13481 2003
21084 13496 6057
23938 13498 6435
84079 6646 30263
33651 15051 34969
2425 9158 20265
2492 9046 19193
1447 10772 14253
1892 10037 18993
3094 8051 18686
1897 10028 17961
33670 23857 6985
83499 4912 32282
65037 10253 2329
87612 8060 21007
69750 19540 15624
73418 9176 34930
63492 14576 745
84830 11816 24772
6174 15443 7494
70236 13516 33437
73770 13507 29816
69453 13506 29686
76767 13508 30212
73641 13509 30872
74624 13512 32110
68761 13505 29394
73224 13513 32468
69953 13507 30123
70986 13506 29756
72863 13506 29609
30537 13736 1282
25599 4884 3769
50736 1822 9498
55328 1822 14191
61744 1821 9667
41516 1823 14866
57738 1821 24387
54687 1822 23633
56212 1821 12001
51103 1822 15034
46028 1823 16753
52670 1822 13570
60449 1821 20503
60883 1821 26504
60711 1821 21319
61866 1821 25286
63488 1821 26248
58226 1821 18921
60765 1821 22521
39906 1823 14512
34910 1823 11377
53763 1822 21020
52713 1822 22106
61779 1821 13642
43873 1823 15599
54590 1822 10221
58776 1821 8990
50566 1822 8921
45774 1823 11624
56289 1821 14492
59038 1821 12320
46644 1823 12735
45462 1823 18128
49723 1822 17930
53701 1822 14695
48923 1822 14955
63873 1820 20998
42910 1823 14797
50818 1822 21430
36718 1823 10712
57783 1821 14425
61400 1821 24846
57809 1821 20367
56567 1821 17826
45787 1823 14153
58890 1821 25926
58696 1821 13660
51272 1822 19347
44466 1823 9558
58447 1821 24997
62989 1821 9352
51214 1822 14268
63062 1821 10435
44588 1823 13153
63492 1821 28697
59821 1821 17679
50363 1822 10214
44781 1823 8847
52905 1822 17429
61934 1821 26158
52343 1822 21146
59370 1821 14577
58076 1821 15374
36808 1823 12850
56922 1821 13844
38681 1823 12410
61130 1821 13959
46372 1823 9860
55330 1822 20125
47175 1822 10436
43157 1823 15549
56928 1821 23427
46342 1823 15754
50396 1822 14264
59675 1821 24555
57070 1821 16778
44964 1823 15923
63768 1820 22560
42248 1823 10489
45074 1823 16497
52972 1822 19429
59321 1821 16478
35463 1823 10621
54515 1822 14424
53207 1822 12404
69087 10185 3190
68210 9448 1695
45741 24751 9954
22566 22330 30079
36054 4373 36606
3664 7867 7929
3793 7631 9390
72796 17545 25207
74133 17122 26932
1664 5945 10374
82729 13119 6365
64994 20087 17958
86212 3532 20829
83586 10261 31025
2771 9937 32189
57608 18608 6846
85402 2452 10656
85479 4747 10603
85443 6851 9139
19955 16757 35810
3875 13239 30467
3302 13067 29090
12726 9062 35720
83756 8431 3878
63350 9279 253
1554 10041 10500
83553 9013 3645
68087 19878 21058
4352 7896 3617
73621 6542 199
36981 6901 2484
57206 6410 35147
68056 3877 35321
20472 21836 29127
80716 11263 36018
1567 12132 10250
37455 25495 25687
38029 25534 25463
18139 4410 36914
10399 17640 34722
32497 24635 8561
69192 15452 36325
4949 7092 9724
34892 25330 12177
43309 2575 906
50685 2574 939
37754 25420 11414
37807 25562 12806
41747 24829 7676
28812 10717 37400
68576 16532 33947
19979 4395 37465
59919 4880 486
62830 5044 455
87602 10033 12506
49673 17472 3774
18902 10255 32995
73707 3999 207
10308 9568 33904
75436 1628 35396
19327 10051 3465
25497 1341 35468
75417 7199 158
5646 9520 34395
4465 15462 24488
37633 25270 9792
37742 25222 9169
51245 22165 7133
15314 5021 4447
85399 5975 6919
85351 2270 33158
32247 18654 33424
3416 12456 4542
7773 5611 11656
5847 6441 11787
5269 13966 5948
22003 10738 3030
65458 11005 2264
65548 13407 533
5757 19468 12008
26401 12182 1125
67950 10073 37828
36340 12690 35027
15945 4072 4722
6717 5658 23122
6507 5782 25874
7020 5480 14105
7030 5474 18954
7662 5101 16806
7164 5395 20252
7077 5446 13094
6497 5787 19575
7420 5244 9466
2466 13195 17321
3685 8298 33597
84501 5874 28231
84636 3502 25814
84464 3888 26847
84507 4482 27124
4084 14689 21812
4244 15382 22070
29237 21525 32005
72385 19261 16521
398 10952 17119
86256 8936 7019
84566 7510 4907
64535 18077 9816
65409 18043 10118
15100 10031 3302
15256 11240 5338
74526 15764 3485
59173 8944 1022
5118 5522 30917
74565 5893 3295
28071 20942 32252
75357 12684 37153
61459 11862 1948
83690 6356 29746
68598 13860 37599
65718 16225 36050
63105 1851 36730
63113 1851 34865
57072 19838 13781
56023 20501 15096
55366 20759 13520
84616 13728 27237
82375 10340 31478
7797 7425 3042
33898 13169 2802
41496 16031 2435
32315 4655 1532
80518 4247 35913
70540 1630 4672
67211 3840 27
62355 18092 16859
3854 13965 20130
37384 25183 28976
36582 25240 27956
64541 16676 2568
77406 9197 36480
2222 11096 6789
73315 2520 34522
6122 15841 5329
71350 11433 4678
17082 8064 260
9645 19065 32824
28038 17107 2047
4519 16844 16527
20177 155 36636
64533 14082 37194
5274 17434 10135
11055 6999 3119
19556 11150 37643
38903 17294 35169
15238 5701 2708
8636 23092 9560
7103 23208 8012
5526 23259 14743
9813 23025 8035
7154 23193 9406
8705 23100 7970
8294 23136 7000
55665 14504 2521
23240 23477 20096
20460 22760 19133
23722 23557 20913
22991 23371 20629
18749 17324 35446
7171 23806 32084
25103 20782 5714
18557 19996 31773
1342 9434 25549
78528 17738 19449
70882 19619 18095
25084 15313 1211
999 11849 24968
37920 18242 33201
34050 19413 32751
34501 20154 32460
35281 19282 32800
34464 18839 32976
41253 19177 32825
69170 13777 78
18569 4039 37172
4263 17129 19523
15751 11820 37206
83685 15311 23871
32653 25079 12290
5857 19530 23908
6313 19514 24963
13644 13980 1945
5113 18358 11777
24941 11815 36248
20547 7757 34695
54334 7836 35373
47693 9883 2627
49867 9467 2622
53158 10614 2564
49983 22876 7742
58003 18340 31180
60561 12669 1248
33706 25355 23185
33066 25374 20788
9403 10450 24695
7088 9220 24984
3086 8023 25265
78178 15482 6477
28616 23936 8078
6062 16387 30388
83671 5790 32514
17826 6500 37286
18979 18076 3068
10755 19278 6971
21604 22697 24856
21086 22736 22090
21486 22804 22751
20825 22565 23572
4024 15946 17514
18552 17856 35039
31891 3436 37389
86680 6830 26399
68883 11159 37799
64609 16478 35943
7053 19340 28569
42983 23794 6990
12702 2812 4470
36690 16452 2151
48751 24195 22198
16749 16591 2140
77313 17976 16633
35088 7624 2128
72012 1240 33167
82952 15135 10485
81596 10542 32859
3214 7872 19840
2866 8523 23982
81680 9939 35587
28977 13073 1249
24894 23462 11642
3044 12598 31369
22144 0 35626
85178 14972 17160
81349 14487 5167
40330 4588 1805
41863 4750 2205
39017 9236 2780
73450 19035 16804
79904 17204 20593
18159 21199 28311
17690 21216 27081
78297 13894 35965
16650 2321 4180
26075 24194 20645
5747 24003 30826
13229 2595 35965
77565 12371 37020
45546 2345 2865
45002 2325 3098
49393 2498 1097
52756 2474 1603
36281 2345 2317
37948 2244 3731
36706 2055 6139
43722 2230 4261
42926 2357 2552
47612 2373 2610
37169 2232 3845
48915 2397 2391
46169 2275 3818
44998 2428 1732
39053 2348 2420
38646 2271 3428
43134 2194 4695
30940 1942 7270
62625 18634 16729
76082 9693 4662
37467 20567 5563
47165 20222 5442
47305 19554 5185
45709 19932 5329
51403 19762 5270
41635 19602 5197
50316 18015 4598
84833 3478 12898
84888 5232 11732
84888 6872 10434
85065 3873 13533
77798 7973 3071
64956 15938 1460
40213 17886 34276
58540 18044 31000
20607 2065 35552
19456 2678 35560
34207 25227 26090
34120 24977 28314
62807 19134 20593
9650 7765 2769
72451 17666 13216
72891 17533 12744
61276 17912 14660
50566 17703 36103
13639 19694 28548
1984 9633 8375
31198 8088 1291
27248 24312 23471
23701 20362 5626
61435 10455 1200
51691 17683 35569
65812 19373 14061
16780 14391 1467
12847 9806 2097
61607 10176 1830
48728 7496 2513
53022 7693 2499
52096 6403 2694
4496 7688 29545
84781 3613 31488
85914 5177 7804
14370 3946 32742
14255 3110 35821
14236 2902 31070
14677 6281 32551
14538 5207 31369
14690 6358 30312
15325 11203 30697
14355 3807 30636
14284 3298 33427
83927 4266 4842
85162 13459 13332
86923 2162 22720
10710 9156 4057
6090 16729 33326
28527 9315 1240
63893 7944 283
15166 20572 12348
60620 9256 1636
62498 9322 1646
76773 10326 2084
73026 10910 33145
19727 6483 37416
13162 19884 25123
84740 14795 13007
31180 1997 31349
37491 2451 36893
69609 15155 1353
21603 22930 16434
21242 22910 17670
21639 23052 18121
4919 19172 18858
6370 24815 10203
76603 5012 37781
21486 13476 860
85650 10454 21634
85068 3242 22892
85049 2552 20279
49552 23911 17481
50248 23432 15001
78688 17411 15780
49028 23715 10961
15634 10877 35536
16380 11723 35860
16211 12472 33590
5804 15246 4125
82073 12432 8164
87805 8457 14123
8767 19573 25494
533 10360 24793
79431 17386 18742
61798 4440 37361
61275 5294 37403
34548 17284 2307
83324 14326 7945
53974 20930 8357
52990 21858 11968
28093 15406 1501
41195 6052 2773
27116 13127 37241
63501 10202 1409
52293 19023 4655
75449 11696 36929
6520 19643 20870
5368 19623 20123
75093 9070 34616
75680 7863 36902
34879 18242 4222
1988 10476 29898
24296 12146 37213
5151 14672 6939
61629 16792 35521
67104 12038 37609
87002 6825 23705
69479 2927 35499
70311 2484 34058
66767 17789 9062
68146 17722 9555
27501 12032 37563
77844 11454 4040
16675 5372 269
8550 17297 3057
59847 6828 37457
7427 22857 24020
86006 14553 20710
17590 16972 2302
9399 19535 26544
10187 19562 26492
700 5042 28446
76810 11663 36815
6090 24617 25711
6829 24530 30252
63981 2300 2463
63981 2561 3490
36238 6915 35433
75430 15870 5950
84349 10042 32715
11302 24754 32058
66624 13001 4354
12756 20037 16981
7757 6089 25644
8558 7062 25458
9345 4646 25914
10455 9879 35209
61120 11930 1240
85581 14526 14138
53231 22179 19252
52050 22698 20479
51701 22726 22884
84122 2203 2932
1052 5485 10249
33190 4451 36606
19647 9374 8542
21539 4106 8555
18675 9970 8524
16386 9512 8471
16426 3689 8440
15501 9561 8450
18530 4349 8490
15744 6033 8438
20172 6400 8538
21760 5227 8567
19135 5206 8509
15745 2455 8419
16722 4340 8450
17074 9943 8489
16882 6533 8465
15077 4647 8415
26429 3542 8662
22494 4532 8580
17966 11401 8515
16482 11159 8482
17631 2528 8461
19361 3310 8504
23901 2696 36349
24841 3602 35201
26156 10822 36461
62133 13081 1564
9322 6033 30697
57551 6264 36471
5250 19373 22523
11449 6860 33910
35778 25579 22070
80835 8898 1927
24517 3290 1535
23579 2385 2855
62305 16922 34437
69702 5604 953
59774 2832 704
59127 2935 707
75518 15071 35674
59245 18863 17183
9376 6156 34048
64823 13973 36597
75772 6093 36014
75780 6127 34972
47274 3465 676
82958 6266 32034
8372 8101 34804
30574 3918 548
7650 9136 3562
64039 4322 2957
65584 4310 34405
77933 6646 2260
29878 11400 36750
20089 13373 936
73830 8388 554
39052 25524 12037
39379 25315 9677
6560 5941 7922
21577 18883 5136
78943 10566 36906
6108 17851 6005
51285 22977 22173
50832 23048 24670
50674 5277 2869
7162 10616 3504
81837 15693 25440
19877 6894 514
23251 23328 15498
21698 22788 13938
23339 23243 13895
3123 7759 32361
10834 8902 3223
10681 8582 35110
70816 2344 3072
30715 24075 30371
2879 7292 25415
2486 6746 25522
26949 9827 2087
20251 11749 4922
74163 2897 33148
30540 21574 5825
58710 12384 447
42199 8486 35630
21446 21699 6781
73699 15952 33995
14871 9122 34612
14961 9673 33671
29421 19497 4867
31862 13353 1642
16322 18990 32779
71601 7782 551
47401 24603 23494
46990 24876 20746
82453 6905 32436
27831 4984 34694
6244 24147 9200
6948 24107 8289
5826 24165 10425
5892 24188 7079
3377 8069 29380
85386 14344 25693
36398 6308 35274
6583 18498 32323
31217 12538 36531
47602 14529 2568
47731 13476 2559
48170 14029 2560
44855 13284 2580
48694 13572 2552
77242 15894 30285
58546 3611 37233
21242 759 33015
28547 24828 18487
30893 25155 18471
30226 24969 16831
28486 22125 31644
53125 10037 35276
52404 9078 35243
51619 10231 35270
27898 7255 3557
67906 16753 32391
55093 15778 2847
42027 4559 36126
42397 4360 36619
4851 14817 10306
69427 16449 33999
85694 14189 11974
8712 18990 4892
60097 8113 365
84486 2298 34002
58097 16996 3765
30255 24825 24239
29365 24632 25181
30155 24856 23442
59877 12211 1922
67698 14473 36994
77833 5691 36671
5499 14522 4649
79954 7092 33615
67288 19707 14811
27162 5271 4920
11614 9908 2730
49810 8830 35298
82247 1996 36600
24782 822 3593
8052 8153 3677
1091 11647 25571
79899 5529 1182
72581 2724 550
21953 4848 2915
24633 11969 33403
82342 13321 8078
56377 4269 36800
15230 11168 31626
71630 6380 648
30708 1921 4761
39369 25405 27101
41023 25193 29062
14981 18519 34161
12337 18648 3965
32350 17757 35161
83076 14054 31045
2139 7014 7555
31817 8502 36350
86962 7599 9683
17608 12837 35490
17966 12494 37322
87008 2278 7907
40646 9610 2725
42273 10888 2635
7100 5186 29361
63266 15990 36469
29290 4189 3505
29338 3415 3595
29267 5175 1707
29343 1825 7834
29955 1847 4412
22956 150 36696
54756 20286 6932
61074 6090 423
28285 11381 418
58424 11657 36153
69997 19544 21988
29797 21043 32281
82805 3317 6829
81932 4587 5484
83459 5236 7334
82487 8276 34934
63988 3550 1200
7451 23374 10328
6327 23470 7869
5566 23499 10585
6657 23439 8865
5371 23485 13911
75612 8132 33143
4383 5789 26664
76174 18204 22000
15943 20282 29512
9649 6195 2850
64246 10999 37659
65510 13303 37440
12940 19621 27349
13847 20355 21829
13652 20241 22448
38798 25762 19354
37821 25738 19268
29437 6095 37244
86652 6850 14208
60193 4267 37339
25360 18624 33421
19335 18893 32894
27136 8652 427
59112 18053 28960
86614 6825 12127
70880 5170 37498
58148 8847 37179
46687 11289 2585
53791 11504 2533
44299 9875 2651
49469 10593 2593
76191 5513 33154
32894 21471 5749
41194 4998 35041
39645 4628 35954
29163 11206 37116
30438 24538 27431
31281 24728 26923
64864 9343 36818
80915 9312 35932
2163 12700 25694
85443 10332 11993
75316 4403 35740
37802 18055 3703
5194 14838 27449
11739 19299 30966
18672 20909 6805
86533 10020 8540
72690 17365 26855
74185 16910 28620
5415 6884 26896
23637 6645 480
82378 10057 34567
11639 19607 26478
79259 3873 36324
79259 2442 32641
79259 2948 36112
83981 2283 34534
58063 14139 35331
55342 12597 35329
77804 17168 14860
59792 8614 729
6529 19631 16684
7193 19661 16992
27122 8565 37536
86023 2326 11868
61604 17705 26905
57978 19367 23681
70343 397 37119
451 11100 19912
45455 25175 21540
45525 25136 22204
59564 17282 4775
68381 7409 37622
11557 19339 7610
71897 290 1330
6185 24001 25180
30601 15657 1528
85159 11624 23473
85270 13652 22611
1834 12321 27317
25864 5952 36018
70826 16459 32215
6177 16995 29776
34068 3763 200
74579 14271 965
5186 16619 29098
28257 10627 30175
28966 6540 33116
29185 3109 29519
28854 8229 34815
28598 8967 32226
28556 8173 29911
28271 11339 31888
28443 9548 30943
28655 8837 32883
28626 7910 30490
39574 25569 25152
34897 5155 2610
58880 16301 35437
87930 9994 24959
4157 7240 12075
4872 6779 14779
5162 6593 16468
5324 6488 17225
31002 23309 31069
1214 8013 8052
67584 13652 314
68984 5240 3463
17582 5726 879
7604 19552 12887
24317 6275 36764
1570 12384 13121
17680 7450 886
73952 18864 21445
69867 19382 23177
4344 13613 28343
58806 2319 2404
27235 12023 170
54546 20670 29135
55007 20480 28626
82453 8238 2905
68080 19266 14104
50551 17857 1543
1759 5342 27337
54745 9725 35279
54451 11164 35318
73028 7335 2622
84773 6607 27686
85283 4694 24080
85360 6434 25142
72866 433 4059
20711 303 519
27787 19298 32984
4859 13647 30598
48446 11135 35277
52254 11426 35311
48907 11643 35297
50601 11098 35289
56001 3770 37231
39863 23888 30791
27538 8671 4202
44603 4052 37400
77462 9025 3432
51813 17683 2362
33827 15271 1679
82008 15788 24198
5781 23423 32077
74621 15880 4722
80512 14657 4010
6332 19269 8547
71931 16264 4908
8047 19670 21639
59293 10147 814
59794 5310 37388
57931 5388 37366
71739 7926 1106
67571 8783 1657
67530 8552 1123
9869 19701 22544
76465 2624 1893
7203 12002 2747
7734 12800 2641
33271 5615 2114
33566 13974 35133
73435 5505 36922
85449 11511 21266
85214 10500 23067
21671 19956 5616
67159 13267 4387
61806 18217 9397
62099 18311 10673
64768 18215 11170
11478 18280 34263
13702 19791 27648
58813 18639 11571
58382 18608 9757
10280 16875 35140
