ply
format ascii 1.0
element vertex 2815
property float x
property float y
property float z
end_header
51609 47154 27146
19156 7277 14159
8650 19735 36146
36760 18472 40624
6923 15518 27156
40240 14500 15645
19408 21486 3661
28125 13919 7744
29182 22274 45122
15962 676 29856
19612 15259 5741
33473 13670 9722
3367 29666 32623
3773 23459 32065
3038 31246 32099
3021 32866 32506
1538 45992 31844
34595 29670 44079
34335 46251 45885
33509 23614 44001
34439 37052 44903
9637 5087 23150
5578 14244 23168
40404 19378 40249
25015 7342 12419
36297 7311 19495
7477 9683 25059
45148 15394 23706
37265 14843 11821
52044 9852 27933
39876 15545 35824
52292 45266 26550
44123 22608 13352
2910 22377 27191
23036 24974 47543
23809 26514 47734
23386 28646 47900
24955 45516 49536
66928 40456 26580
27183 2739 10669
58636 14108 25046
3699 19910 21436
40014 9030 33836
19816 7442 13222
5594 23137 18213
64703 27095 23790
20574 17762 4515
24044 38500 48839
23543 30053 48038
22248 19970 46610
2811 47711 19636
2364 51691 20028
4103 33959 19533
3739 35923 20452
19562 19495 4154
6881 28715 14167
7282 28110 13667
5806 41640 13667
8102 23364 13214
3114 20995 24458
4411 45863 15567
5051 48667 13693
5271 45115 13975
5863 38511 14130
44432 22609 18066
42456 48061 7452
41811 45116 7241
40696 47613 5962
40781 48858 5887
31572 15865 5809
8711 15475 13319
17294 13032 42453
17976 2556 37624
4960 21712 28202
50963 10988 25420
28954 45184 920
29016 35612 1818
30889 22341 44729
2699 53335 17695
13215 8093 33178
33483 21735 4513
30010 37547 48257
29857 35155 48066
30777 31127 47510
30692 43348 48658
29583 32621 47886
37828 15335 38069
37163 8968 12671
35914 4855 13995
29418 5869 29296
4715 34857 17433
5344 28490 17377
3269 50491 17280
2977 50782 18059
41594 24361 12331
43294 49245 10845
41494 23694 12309
42214 33493 11781
37615 21675 41135
18736 43622 48523
18145 42734 48237
19047 32699 47583
17999 24335 46426
4011 17916 24508
10917 32274 41222
9835 39290 41121
10413 37926 41463
11663 24696 40963
43048 45226 8484
42076 31925 9206
43790 48714 8850
41500 29112 8937
42823 43247 8500
5065 17827 18586
51188 45696 25046
18053 18341 45061
43187 16732 15064
12465 7808 30927
20422 925 12157
19781 4778 10576
65493 35651 23444
45154 20986 16061
22971 11502 41436
27006 12879 42060
61007 47580 23855
37342 21 24277
44963 20406 34090
29049 21468 5130
34084 3442 36862
176 51297 23397
141 51939 23038
0 52257 24751
1178 40138 23599
1457 38257 21946
46628 39892 30572
47207 45614 30321
47107 43719 29944
46776 39631 29707
10327 19261 40695
5429 19845 28041
37261 7555 30477
43689 12607 21798
44083 14022 20576
44699 6489 22522
56423 12845 25046
31161 19382 43823
29429 13532 43843
27674 11268 43171
13561 7784 32772
43451 39047 9794
42166 25984 10127
43164 32141 10417
43305 28983 11013
41369 25185 9327
35314 53513 2521
64847 27473 25046
41105 5606 25046
18269 50796 49053
16524 30160 46483
16898 29007 46500
16940 44031 47953
34115 11272 40982
32000 1202 37059
40330 21850 8928
44855 6251 25395
19441 48375 980
19297 50643 799
20958 36223 1803
19745 44844 1247
28321 21643 45148
28120 6080 31788
28653 5612 26581
19717 14253 6172
19908 12637 6862
30043 52889 447
40043 23043 41732
16851 570 18342
43843 38064 36645
41847 25621 37599
42104 26840 37415
41772 23614 37384
63838 20813 25046
41739 32368 41332
43533 46535 41236
42448 42219 41879
42612 37362 41022
42935 42828 41407
24169 16604 43759
48980 39611 23922
49336 43415 24080
49604 47168 22957
49913 49200 24849
37638 53594 45416
61115 47534 26315
46850 49007 17506
46878 49987 17312
45711 36027 17815
45987 41332 17129
25061 5478 27079
34140 6442 23172
60701 18668 25046
5053 25254 19149
3742 41421 18448
15283 8008 38744
13620 13619 40617
17037 9152 9680
18458 7293 9895
56019 48274 24864
2741 50742 18767
3095 47841 18542
3398 46014 18164
3504 46382 17749
46804 19969 24474
47566 42653 25427
46592 32386 26043
46425 31258 27027
46147 26811 25103
39780 51488 43092
40589 49920 42194
41503 52813 41742
39748 40204 41759
39868 30294 40458
5472 22364 19054
47612 29755 20285
47669 27566 21591
47844 30202 21243
48214 34534 21089
13132 16825 41926
67550 32781 23073
42891 20896 34540
48100 49498 23313
48221 51698 22120
48291 50901 24290
47787 45482 24114
46693 20077 22324
15445 17384 8592
19788 1231 18405
10469 16646 39629
10715 38908 5973
10654 39531 5946
11579 25247 6886
11892 34576 5659
14041 16174 39976
22705 5739 20557
42306 32183 37984
42816 35157 37706
43052 43904 38782
42887 34478 37490
25306 5759 19813
34798 15011 9830
31702 49226 1118
31900 25742 3435
31830 38683 2172
31625 34030 2548
16299 7242 33631
34415 36073 44816
33619 29295 44522
34396 34278 44643
67471 37602 25117
24336 255 11657
12910 22436 43711
13268 36820 45593
13961 25310 44771
14730 52562 47907
13758 49544 47122
11225 20734 39646
5685 53139 38210
53353 47814 25944
17599 13054 9587
34439 18914 44295
38307 53211 5627
52795 11605 22393
15140 8606 11127
30611 1399 30695
18269 21923 5809
59103 16352 22402
23812 16055 43505
20092 22201 46727
23760 6993 36427
14721 28068 4669
14718 28996 4576
13392 36657 4455
12882 46743 3686
33190 20900 4620
20875 6150 31560
36651 22455 42009
10222 14124 34564
8206 13545 15680
7897 12470 17382
25585 731 38664
11141 11896 15927
36419 15385 41648
36 52884 23665
30425 12464 41102
44098 49863 11903
44963 50567 13082
42396 30383 12538
42163 31442 12016
61238 45094 25631
33931 93 34853
39446 5160 31164
38176 2597 31174
25127 26656 2265
25734 24209 2527
25451 29823 1998
25364 49905 166
26207 36776 1415
45151 20952 22606
25964 2321 23353
56983 14799 26249
7117 10642 26056
8764 7053 26928
44775 6323 26886
9579 12977 36092
10058 10950 35198
5369 53145 37744
13117 9 21761
1955 53624 17051
27528 46740 596
28098 41596 1101
28012 40006 1240
27425 35757 1588
25816 46311 523
41311 12073 15799
42780 14097 16754
30752 5899 27766
46498 32128 27109
48304 50661 25267
46645 34145 27674
47864 47234 27238
38612 10553 33744
31539 52602 2573
31024 41179 3492
31515 37776 3985
3520 37166 20974
3293 38566 21462
4505 26386 21037
4098 28438 22128
30123 6641 33777
16390 37766 4800
15452 25336 6521
16609 31451 5332
15581 34837 5496
34791 55 17789
46374 18818 23072
28115 14959 7274
18634 25379 5186
18194 31163 4781
19250 38640 3705
18898 45806 3138
35199 9135 13436
11471 2903 19812
9957 6457 19383
31450 7496 36537
19284 41235 46647
18295 35540 45766
16964 47047 46417
17400 42955 46173
32430 19420 4782
15191 13800 10605
64624 43991 27956
22106 23302 2770
19151 42876 1547
19183 36532 2128
20151 26644 2850
52811 9583 26924
26544 19674 44814
2182 47740 24268
3514 33914 23136
1794 51886 24443
2380 47066 22190
2808 41563 23288
28845 12882 41739
33863 6015 11715
29839 16510 6930
24915 5429 25045
41431 17645 15047
8804 20082 13532
38800 1094 23477
4717 16333 27461
60786 18822 25774
26198 47334 455
27593 33605 1795
26035 52232 0
28001 52190 131
27069 43468 863
32647 18757 5067
32520 6807 10527
34720 14196 7968
8839 8188 29797
11564 2605 30144
32673 7198 34527
42586 9653 23366
31674 53010 47533
26209 15559 6794
46010 43093 37348
45404 40010 37752
44121 23835 37030
43849 23571 37392
42506 18078 13082
49515 46498 27565
49770 48845 26926
48195 32019 27617
49348 44928 27930
37212 15401 8966
11507 13862 36152
34791 28055 45755
33928 24752 45846
36529 37979 45902
37084 40453 45878
9686 20708 40660
28522 47641 49486
30663 48525 49142
28732 34508 48230
28708 46837 49375
48687 9931 25385
45092 22554 20276
20162 1985 24791
45141 51670 40049
44930 43985 39109
46548 52293 38044
44935 46952 39587
18487 7006 34451
37103 18096 42437
38015 19812 42462
38549 16454 40559
40806 21033 9630
65985 23856 25112
25646 5598 21390
45013 19807 33621
21187 5615 25190
67293 38882 25117
9511 48854 41991
11192 45723 43088
10572 42881 42201
10051 51814 42822
30757 7503 36908
33850 40460 47406
32721 23910 46203
33809 32024 46612
33619 41633 47597
4760 52845 36668
4228 48287 34653
5081 44405 35587
15318 12730 11089
67527 35482 23060
42102 28540 12398
43223 45533 11301
44735 51276 12625
42842 40597 11537
43678 16386 23544
32168 50120 1190
33536 27283 3843
33460 29566 3599
34184 41740 2678
8729 30622 38781
8899 28076 38624
7308 44058 39010
7060 48398 39324
21624 11462 41154
19120 6704 9900
20276 2926 11272
5048 33118 13067
6127 30824 11827
5259 35949 12290
6055 31439 11834
3778 18903 23151
23710 48870 2073
23248 38698 3028
22736 38862 3047
22512 39514 3002
24783 17421 5970
22492 2051 21348
21719 41855 48962
21234 26176 47415
20331 24421 47073
6556 19566 31998
1948 39480 18900
527 51363 20520
1517 41419 20168
553 49521 21244
815 49468 19953
25775 1335 16942
19458 2534 11749
47175 7158 22809
14755 2135 34858
28464 141 36382
63082 18427 26887
6101 17616 27626
7954 21744 14034
46661 53265 12402
42935 18484 17279
181 50968 26306
2586 25660 27889
196 50223 25509
730 45176 26652
41586 9375 30722
43677 15041 32356
37865 18670 39783
41601 42889 7326
42775 51598 7305
41178 47077 6449
41116 46245 6496
54813 46276 22333
13683 7350 30471
65420 38739 27702
28165 50641 48065
28867 33782 46366
29153 37578 46660
28734 31088 46142
1387 37359 24268
1054 40841 24505
875 42439 25028
1458 36858 23875
16878 6327 27905
40286 6801 31011
42966 12242 30602
41293 5781 22360
16666 7520 14880
31376 8522 11533
53109 45484 24547
38123 7522 22876
2714 52945 18194
17904 28028 3346
17376 29845 3351
16663 41257 2500
17188 26060 3777
18631 15358 44064
37063 4535 34605
27231 5505 23694
64732 27374 24501
48502 40307 19850
48640 41382 20045
47818 32821 19895
49396 48113 20713
49325 51464 18797
12634 21599 8925
13597 56 21291
23693 28493 46166
23400 27296 46038
23603 23890 45742
16964 7814 36377
28891 5165 9916
29336 14007 6017
32856 32176 46949
33829 44648 47814
32698 33988 47177
32158 27363 46725
42304 22546 10839
34186 22549 6624
14113 31650 45487
14635 48039 47402
14672 38478 46454
13587 50533 47138
14113 40672 46400
9953 8833 26090
20444 16317 6991
42912 18890 36877
41930 53657 42641
1087 53660 28976
6219 16925 33615
39495 20352 8671
10134 38145 8848
10366 47554 7508
9662 39067 9150
10144 34305 9303
46351 53420 14693
40787 12557 35487
40564 11186 34730
14722 15087 42134
27339 568 35427
3104 25568 30530
3163 24818 30479
2714 28382 29878
2233 30823 28595
1558 39227 29110
32920 13544 42691
33160 11200 41417
24157 5510 40752
17781 7725 36704
41198 6455 23820
44889 20032 22439
14247 4473 14246
9903 14503 12472
24143 16890 4360
45277 18539 31779
24785 14598 44822
24334 11597 43463
6579 16230 23467
36295 51015 45400
35559 39657 44614
35964 40504 44500
35016 42505 45170
3967 28836 23263
3439 33805 24426
4038 27537 23985
41881 14134 30515
44261 34133 14906
45443 46165 14833
44544 37674 14753
45177 44872 14560
43806 32832 14250
51642 11307 26257
28334 53564 48714
47410 40843 34035
48268 45440 32805
47901 41524 32782
48336 51907 34430
48957 49217 31839
22145 9040 40091
7742 17611 16980
32911 5423 38691
31393 796 37158
36943 7577 31276
9326 7639 19616
8775 8824 19608
50144 46198 27841
44976 51670 9797
44012 32393 11502
45502 52681 10419
44709 39665 11358
11915 22551 43073
40501 23935 38949
41472 35228 39396
42343 42662 39427
41769 27275 37964
37357 47183 44347
37391 43323 43902
37801 36578 42892
37203 46481 44373
1901 53411 34001
42242 39972 8288
41670 31132 8853
42422 43732 7976
42881 41541 8801
43181 49187 8091
34522 51503 3769
34151 43378 4408
36390 50374 4806
33458 32304 5187
30390 1658 29200
2476 49037 20703
3169 43489 19797
2596 48509 20343
2711 47300 20327
2540 47720 20993
22736 3784 10251
20374 13779 6214
55405 11690 27904
44493 15709 30846
40416 8150 17906
42780 16064 14834
50343 10657 26045
27270 14589 44695
25942 10941 43166
37880 20109 40364
41338 12647 20023
40820 15168 37451
21832 31526 3835
21454 34652 3621
22127 24438 4431
22008 38058 3195
5828 21199 31254
26848 5897 40871
647 51732 30351
1419 41282 29370
1514 42295 30318
1381 45663 31219
985 47096 29892
13124 8560 16075
11703 24436 43201
12638 26388 44039
12329 47474 46133
12709 44144 46024
20624 46871 47438
21819 50542 48016
22003 30114 46163
21388 46700 47575
9791 9137 23121
38084 40480 45218
37911 41637 45460
38049 39826 45170
37440 31499 44668
26233 20635 46898
30952 17849 6744
14751 28066 45439
16385 23122 45745
15508 31063 46115
15859 29249 46105
29379 19382 44311
12191 4786 16611
13011 1610 17911
19971 19518 44189
10913 8399 15647
9239 12836 14621
29800 53100 2095
27585 53451 360
6288 15665 17548
35728 28620 45350
35475 31641 45781
36575 42536 46340
18755 2406 37934
21068 17211 43593
39382 3348 21168
34061 17561 43981
31302 44632 48655
29616 25133 47187
30281 23906 46941
30747 42800 48596
37901 7624 20740
27395 26919 47704
26789 36164 48583
25876 28113 47912
27211 27441 47763
47665 45278 22534
47346 41386 23071
47428 42289 23073
46595 32705 23657
49406 44230 24014
45429 38437 16390
44900 33319 16367
45374 39206 16122
46222 48671 15899
45299 17157 20002
23316 1597 18265
66576 25927 23656
37925 14014 12981
19668 9013 8636
17775 14475 6729
46945 43409 14520
45803 34304 14071
46491 43424 13595
47669 50248 14584
47979 52049 14844
35843 14553 10772
41102 15137 13025
43362 15681 23365
43137 15600 28158
22258 12824 8199
43174 24328 14712
44068 32518 14845
44538 39939 14276
44445 39206 14237
15947 19221 42479
33296 3941 37654
24846 14259 7313
25512 35698 48625
27200 52374 50031
25414 47960 49747
26336 39745 48939
27191 51705 49971
49741 9686 25046
41802 48731 40879
42162 46163 40115
40671 34100 40155
40576 31751 39941
9006 16834 15235
2260 31605 20993
2994 25197 20286
386 50194 21771
3065 23487 20724
65435 43763 25046
874 49539 30468
1230 46856 31010
425 51431 29092
29563 46989 874
29130 51210 397
30522 34657 2206
28998 48883 586
30707 48310 979
37478 49431 44512
37980 29467 41998
37832 38790 43114
38060 51439 44342
45869 40688 12927
44317 24176 13300
45877 42306 12674
44137 25604 12798
21715 5631 22679
40851 5815 22929
15077 13455 41503
15575 9388 39673
34079 7311 33763
20775 6695 34378
40637 9675 33262
37997 3323 32264
40259 47236 44469
39462 32700 43413
39830 34470 43304
40689 43795 43677
12018 22491 40891
55386 48119 23234
34320 22108 43300
17648 15404 43751
31127 1265 30863
29635 29300 45798
29814 27562 45602
28305 35895 46672
29868 26067 45452
5353 50904 9737
6287 42120 9881
8844 23640 9508
7854 27157 10153
15418 6620 22568
14840 10966 37677
49140 8920 22115
8577 10375 18098
3384 20348 22835
25054 5621 21058
5490 15424 20497
41172 7107 28475
43897 13061 28274
16212 13744 9952
13122 20456 6785
27012 21031 3146
11016 15413 10644
47685 34923 18540
47364 32724 18214
47667 37292 17817
46460 25002 17733
33383 14922 41034
66331 35147 22128
6618 50713 39124
5888 45368 37158
6243 42034 37144
6236 42744 37251
23176 6342 33618
28583 5673 22067
17636 521 32807
4632 21568 16562
64633 20842 24516
34903 11616 38386
30580 17549 4791
22303 1976 11152
21673 4389 10190
33860 23252 43783
47126 25360 30209
47611 27296 28669
48639 38757 28833
48113 35053 29754
4341 22692 33403
9153 24986 8987
9827 31378 7625
10240 31042 7303
10870 25471 7423
17498 6345 29509
26518 11972 41689
41052 10373 24010
45983 18013 28197
12507 18120 42062
28535 1658 38666
12413 14565 9912
14083 10267 10976
9615 11609 35058
10086 12035 36102
26936 9323 40469
35864 13061 40788
33426 7361 39386
66775 26623 23774
45602 36287 13257
45701 32453 14244
45219 28384 14101
45569 34869 13482
46069 41398 13156
22815 23019 47343
29229 19865 44489
49497 46006 27155
45228 8657 24997
17415 1314 27953
37016 50696 5136
37891 45804 6253
36348 34715 6432
37919 49939 5821
35633 38170 5666
35739 36310 5906
35230 25610 6738
35016 24963 6698
29589 149 35977
26590 5474 26169
2603 26475 28433
2079 34137 29365
2611 27736 29061
2475 27057 28064
3461 22004 30076
9950 18438 40001
62387 44332 24953
65153 27450 27804
36908 8708 34433
41541 15480 32959
9055 17168 35168
28042 21834 47056
29008 6011 19218
41536 18640 38615
12629 19028 40211
4784 48896 10885
4404 45011 12089
5596 41363 10900
5837 38178 11060
25672 6827 35854
4161 33544 30654
3554 39304 30284
3509 40570 30645
3981 34111 30017
5940 19915 19588
41671 11915 33408
42390 14469 34501
6981 49578 39398
8545 44193 40439
9118 33353 39602
8153 44583 40047
8519 18158 11862
53001 9911 25046
54783 12979 25046
15864 19702 44613
23889 18922 44595
25170 9404 7558
7687 53229 7083
40987 10225 26068
19482 13925 8402
39980 18117 9985
38012 13023 39062
35600 8871 38736
16076 16018 8881
18051 53552 1407
12056 37483 42773
12925 31972 42752
12347 27321 41857
13748 25930 42642
4290 17680 22031
4041 41756 13233
3355 42016 14571
2101 52408 14982
3252 47788 13595
12095 17781 41614
59706 17212 22725
47659 45002 34452
45604 31006 35749
45821 30172 35137
45416 26184 35140
17163 30434 44893
16538 41392 45731
18499 28253 45137
43946 17256 27607
6478 21089 13320
67502 30709 24382
65472 22713 23677
37997 1646 19504
5012 27237 18711
4773 28738 18991
3719 39446 19074
2587 51728 18939
21467 20640 3458
16425 5967 38422
67202 38403 27229
11529 3750 18737
39978 19411 40649
19557 37458 48126
19537 39131 48276
18910 48878 49053
21304 50036 49637
35935 6968 21648
3958 20395 30634
15669 47516 45924
16626 28733 44495
15873 38196 45081
15201 39257 44857
16016 43748 45714
11881 9413 13630
19270 6691 16597
43707 27512 15139
44239 26182 16491
44382 32946 15394
17806 3113 12278
17953 5651 10954
41595 8040 21628
2440 26570 26923
1221 39257 25933
2676 24488 27637
2158 29897 27242
62016 45576 27954
20271 9803 40033
25719 31084 3641
26918 42565 2675
27564 52766 1790
25962 48670 2057
26306 35952 3236
15675 6547 27275
9866 15112 37986
25236 6347 8917
19397 1712 21941
8915 22162 40316
31535 22944 3596
42440 31859 40463
42969 26207 39081
42716 24800 39176
44115 43160 40108
34950 22419 45032
29377 15948 7081
38248 8499 35913
18181 13700 8982
14407 9799 36610
65883 43564 24500
6632 18159 19304
41287 42764 43028
41312 49935 43871
40539 44344 43874
40097 39308 43654
16952 18088 44592
5275 22715 14721
45851 17435 22260
39917 17318 10312
5347 31651 12859
6017 23111 13252
5379 33499 12510
4015 45479 12595
33578 20569 43245
20425 19170 5926
9434 22652 41013
38306 7534 24150
42926 15059 22101
29908 44391 1183
31140 35812 2222
30606 39915 1736
28987 52545 246
65574 35655 27218
4143 29307 21499
4768 25966 19909
4266 27177 21869
3485 36441 21485
10558 2863 25958
10211 53298 6796
24712 11114 41377
43616 16429 22515
37056 13717 12299
65562 34886 26968
39251 16441 37212
13474 11766 10628
13879 8554 12162
10543 27147 40277
12164 24493 41377
10165 36294 41049
8788 49878 41481
4011 21924 18146
36577 46526 46743
34684 41459 47163
34790 34642 46421
33980 27553 46103
39580 18180 12244
40573 32110 10099
41806 46867 9475
41689 42183 9987
40832 32665 10318
21205 47538 49386
20714 41647 48743
20574 47203 49230
20562 48928 49387
31233 18664 6539
44592 14089 26104
41145 6452 27068
64238 45475 27054
47302 22151 26059
26884 18792 44514
9178 12077 30265
8923 15712 12820
34792 16506 41047
41313 14393 17760
11282 7967 21664
49354 53658 26803
39149 9741 32070
41591 8076 28564
42878 11439 29715
2083 51599 28608
2454 49414 29456
4051 33101 29899
4718 27009 30417
36699 16089 39496
35094 14061 10533
65130 38437 24743
20996 15595 5279
52070 47439 24079
5222 32930 16575
4435 41615 16387
5385 32264 16381
3962 48050 16028
3710 26403 17379
4035 24935 16836
3304 25615 18798
3048 32448 17624
1763 42344 18615
44996 37920 12073
43887 24887 12541
9668 13367 17169
35664 23644 7184
36194 24909 7401
37680 26872 8178
36574 28899 7218
20056 12768 8748
51085 10644 25046
46590 7184 27769
7791 9005 24824
25268 8214 10473
22842 42208 2736
24113 43319 2551
23275 46936 2277
24423 48460 2063
65012 23451 22148
41724 20735 13723
45699 37578 36905
46976 42421 35308
45053 29467 36551
46613 42672 36095
45358 29842 36009
14912 13650 39221
27701 206 36389
34196 1058 25150
17779 12723 40431
3541 19618 23502
6432 32361 11120
6570 31627 11033
4534 51750 10794
58181 15831 25046
47836 30033 28810
47436 27132 29474
48298 33910 28291
47260 25938 29803
29931 13099 8527
12701 8339 17121
22825 5589 22272
39858 50144 7231
39194 39319 7956
40253 52769 7261
38510 30639 8403
3425 41157 14604
3020 47520 14121
3066 43587 14836
3486 43369 14028
7927 51931 9294
8742 38485 10214
9154 33347 10452
8852 37744 10191
7908 52588 9225
23740 10788 41169
7714 27760 10229
6186 38592 10482
8421 23973 9944
7757 31561 9657
61292 45095 23912
61784 19947 27353
51484 10459 22155
37968 14746 37554
45117 46463 35981
45673 52134 36019
46080 48564 34460
44590 37107 35132
27209 7929 39046
5571 51627 9389
7135 52198 7526
7326 38251 9228
8656 28827 9008
8035 36252 8695
4656 35667 32712
3663 48098 33297
3869 40907 31874
4406 40312 33288
13062 50239 5256
12019 47483 6253
12468 46758 6033
13273 51638 4962
48616 53306 24015
26822 44713 49358
25678 30898 48178
26727 39073 48853
27440 48717 49683
26196 33764 48405
34857 19173 5917
28408 11661 41275
66702 26222 25688
39106 11458 16370
21698 20347 5316
48423 8507 27974
38700 1535 21818
24168 18783 46387
43262 11034 25740
40020 3865 26727
21787 14247 7651
39353 42143 44552
37504 30372 44502
37621 23558 43680
36973 23254 44081
56254 11571 25346
36030 42049 3533
35877 51642 2487
36534 52124 2763
36887 48330 3321
36378 35085 4410
14610 21010 7768
66134 24888 22762
15243 37795 44730
14641 36193 44271
57388 13884 25046
47395 40542 25099
46766 33969 25576
46828 35041 26117
47506 42166 25657
4773 21412 25279
34039 1047 23218
58031 46089 24127
66864 27616 22815
10308 12387 16854
30208 23276 4972
11259 35942 44160
10204 48231 44797
11548 27982 43485
11568 39108 44712
13160 7462 19834
12916 813 31232
11345 26782 6875
12097 28245 6213
12633 23949 6323
44220 20725 18813
40331 16965 10979
14795 17728 43392
37074 0 21227
5628 14070 26523
30157 6349 32264
15869 12382 39187
38727 8790 18464
31629 1575 27837
13910 34902 6363
14528 24615 7072
13985 28567 7004
47926 53080 30320
26197 13118 44113
25582 12704 43970
48313 32941 22993
49199 43384 22025
47855 26946 24333
47969 28897 23365
8479 38741 42175
9129 29576 41639
8691 40747 42603
9749 52641 44966
8838 46175 43387
7095 12255 30253
7319 12588 31371
50455 46765 26434
11978 16052 38152
38747 22524 9702
63127 46511 24320
39128 15007 36407
58078 12937 24071
10897 46182 7209
10901 34986 8556
10719 29689 9355
11473 31063 8528
34020 7260 16519
41784 9008 20457
40050 5483 20199
43201 10922 24169
44422 13584 24798
16843 7225 34062
9455 9634 24093
26462 5815 19549
4595 44248 34570
4465 46499 34767
4139 52594 35356
5249 43756 35794
6648 18206 14584
8196 50280 40879
7083 50943 39701
8205 49730 40814
8966 36582 39873
8084 52302 41029
35626 15240 42103
45030 25657 31356
44808 23439 31385
46540 41319 31330
46370 39103 31206
38529 13731 11067
37357 14058 9847
16688 6984 17317
30127 53653 1449
43776 13770 19774
40648 7282 19487
45222 20583 16429
44774 19162 24728
8023 8603 23997
6045 12998 24460
26357 2341 24915
35588 5410 36711
20809 8971 39729
20315 40464 3310
19969 34349 3943
21782 52786 1877
19956 52006 2312
4460 26650 28951
4514 25716 28789
5018 23638 30356
3201 40399 29020
39477 53333 4692
23476 2016 20591
26174 5474 26573
48344 43300 31975
47172 28837 31344
48730 46292 31682
47455 34388 32080
25140 14861 7033
47570 45807 28587
46345 33096 28834
45785 25269 28008
39073 19101 11199
44447 20115 15136
43841 19813 31599
3230 41191 35099
5198 25859 35945
3522 34004 34216
4464 26155 34516
23393 50551 201
23110 44077 808
24930 27371 2208
23713 51260 116
23486 41088 1055
31040 8132 11870
41217 18313 14296
41724 24251 40233
43727 40950 40246
43116 32961 39842
41769 26754 40526
26978 15399 45069
43454 47768 41495
42841 43850 41656
42322 35888 41152
42796 37854 40881
42311 41158 41890
43236 17558 19051
65641 23007 24704
45368 32003 32153
45331 29015 31418
45225 30231 32073
33502 6298 26562
34881 44621 2707
34147 31871 3635
35387 32291 4204
34143 35646 3250
36264 8711 14924
7685 38731 11385
7629 43743 10760
7684 40611 11129
9831 24694 10870
35786 13009 38491
12939 21134 8847
1625 53655 31058
39384 4758 19236
44191 14725 19684
10312 22473 41738
34322 6737 29955
24110 12895 6070
24279 10123 7288
2217 53559 31815
67407 37424 23356
30598 634 16175
44021 18226 21025
63472 19264 27441
26753 50080 1981
25455 27070 3988
25187 25130 4147
26042 46133 2293
25602 48064 2090
63613 19073 25263
67597 31714 24647
11909 2414 30790
28809 7600 12107
65638 38821 22191
10847 10825 32771
14080 5476 13796
11934 12414 11597
2098 29253 24659
2229 28833 23239
2508 24884 24460
2133 30072 22987
67126 33294 22197
38266 10860 37476
39547 13566 37831
41114 19349 36564
28212 11626 43226
27301 6726 41197
43733 30668 35548
45135 47223 36101
44848 39032 35003
66001 24178 26793
14163 228 28857
10806 13832 14887
62071 16967 23828
36390 11199 10681
7488 15435 34835
2224 48330 27283
1793 51847 25586
2653 43130 26614
2339 46246 26137
37400 20567 9140
9493 33214 7696
7972 46300 7451
8615 35266 8218
9463 28208 8326
61446 19453 22758
4215 18601 29254
16474 169 35274
48650 9555 22399
6374 50871 41516
6992 50215 42130
6548 42928 40621
7460 49202 42525
7264 47199 42026
29461 19525 3915
29999 32857 46055
29116 49427 47763
30657 33158 45952
29763 47100 47418
31908 8417 40662
32475 8565 40456
4637 22216 26014
3068 53279 33346
3051 22811 21252
66719 36612 22133
49777 10303 23128
37944 10552 15352
41645 12190 22167
30594 49053 2658
28686 34200 3653
30769 51175 2497
29584 51218 2257
27979 25397 4327
11386 11162 16144
19715 27932 4588
19323 50328 2595
20433 47363 2647
20026 28911 4435
150 51746 26922
1163 41443 28087
1098 41198 26745
455 47854 26171
1743 34822 27750
32467 6732 17643
9212 12962 18510
52602 11835 26316
22481 15820 43289
56241 47466 25046
46779 37377 34673
46399 36343 35231
45884 31036 35187
46781 39513 35107
28866 18848 44241
33233 17002 5928
14754 4273 36179
14515 4735 36241
3743 18954 26650
12236 5075 33779
20915 1869 21201
11522 4496 18004
10844 6451 17426
64601 26858 25500
22371 23802 45652
21205 50949 47931
20803 44475 47252
20102 47113 47357
13222 22760 8216
42340 16205 31997
43373 7939 22740
6140 30542 34891
6082 25140 33665
4315 43337 33814
5839 28423 33846
30547 13577 6515
23422 33060 3530
24910 27002 3983
24685 46708 2206
24965 37937 2985
32452 6539 31271
7588 19561 34288
20412 46751 938
21741 45763 765
21358 48122 622
18944 52547 693
31142 43815 3280
31767 51893 2718
31769 50330 2869
32664 47595 3435
30635 27677 4654
18799 8048 12173
13432 8651 34533
66133 24420 26228
42156 19279 38206
37296 16068 8687
49547 9044 27976
24475 32869 46615
24292 43718 47590
24533 47587 47957
16668 1197 26812
24678 2461 10657
26809 23298 45669
39345 23951 9941
40094 35622 9190
39701 26090 9996
4440 16944 26829
35497 9080 36349
16978 600 31764
4029 31481 29036
4353 25453 27858
4093 29720 28535
3899 31944 28597
15829 1692 35604
15385 4144 36657
43721 6881 27967
20534 26186 4586
21463 33029 3768
66886 26960 24428
57027 47590 22152
6549 41309 12608
6275 45426 12346
7247 38679 11994
5229 52562 12746
17600 6383 30022
19124 964 37405
41817 15760 17415
41685 52800 8521
39812 23976 10351
41678 47941 9182
41070 39535 9645
41811 5634 23086
15739 52232 1761
16854 44810 2095
18634 42803 1682
17352 43393 2061
41271 19825 39454
20386 1741 20783
66077 32828 27915
41146 13017 14777
37801 5271 15937
27819 41 12340
2371 26649 25991
1825 32094 25207
2050 30959 27072
16791 19896 45127
38515 19136 10679
27042 28561 3957
26802 26936 4090
27462 38810 3052
27744 37214 3216
37429 10845 14541
28989 2138 24495
30399 326 15066
31177 7874 40701
43985 22757 16808
18235 12787 40688
32620 40713 47848
32123 49967 48903
32228 36764 47602
31424 43158 48487
26928 1658 18570
27606 30795 48042
26191 23857 47504
27480 44300 49278
27756 35529 48462
41584 22628 37374
63486 46256 25601
46725 26613 32034
46392 23311 32083
48101 40857 32001
19656 21427 46468
38647 19019 8431
10248 21812 41499
44306 40585 10605
44990 42668 11288
43710 30269 11398
44576 45435 10218
26460 22103 47223
63284 44031 25046
29189 5640 23963
50007 52214 22097
49339 43067 24594
49153 42203 22960
49470 44977 23953
6578 18696 31198
22343 18148 46062
41586 8591 29643
38727 2055 29073
28622 1036 16566
2284 45501 33905
3201 36660 34111
2619 40116 33372
3368 33412 33686
17105 7116 16283
23164 2600 39393
21475 7246 41152
21860 11100 42967
3281 48076 32166
4291 38782 32516
3958 43250 32798
5280 30108 32982
18874 10 36232
47707 51176 19696
45483 27013 19754
46991 41529 20586
45583 27613 19981
30343 6353 17925
25826 53322 1488
66301 27921 22142
19545 44 14235
36313 53650 46676
35892 370 22095
11314 1198 23854
42725 16755 35830
46006 21962 32466
30629 15105 5829
21762 1958 28919
30598 7387 13540
22799 41150 47258
22310 31432 46343
22285 45458 47617
23197 31321 46391
45484 8716 25963
57155 14150 27925
31979 7253 14844
42073 25714 12817
43341 28253 14300
43063 29751 13639
5044 18812 32448
26271 23179 2656
26086 35312 1541
25708 38131 1260
26654 18861 46370
44639 44328 39602
44624 45084 39747
44689 37840 38467
43969 32774 38716
41665 7332 25073
15055 661 27671
48834 7650 26374
13167 29633 42659
13510 31008 43038
36306 355 25448
24835 45594 47796
23232 41526 47321
24263 42292 47458
22757 51512 48198
23291 46526 47780
7819 16535 32310
23226 27378 2320
22175 32189 1951
23009 24880 2560
28256 15900 4964
17780 6065 25229
60906 46759 22134
26619 21048 46977
39440 13193 12390
37833 9577 12984
49435 8377 25046
46467 43033 18063
45292 32648 17533
45530 36427 17169
45895 39593 17349
46562 48705 16742
45771 23317 24127
27278 2266 23694
34839 281 19067
19141 18177 45372
55775 12192 22141
22494 9840 9497
36032 643 33120
6966 21390 15937
18001 30717 3055
17487 24883 3788
15595 49494 2073
17328 33732 2995
34328 19822 7454
9412 33321 42339
10092 40823 43840
11053 24052 42659
10445 35897 43556
16348 16594 6401
18036 14375 43407
18824 11471 42318
28317 20319 3462
31260 15819 7708
39827 21549 11024
17760 22529 3980
48073 9672 24893
17337 21202 45666
24189 297 36393
42004 18146 34437
16891 32475 46830
16177 35270 46855
16309 49497 48262
8025 16328 36382
22647 15084 5196
33572 6779 18618
37207 35098 6964
38817 46092 6841
37450 28166 7884
46153 17983 26238
50611 8374 24693
7391 17357 17989
25546 22230 45539
44246 31582 34696
44471 28606 33629
44341 29808 34139
44020 28229 34466
15303 18475 43921
47218 22266 27705
67446 30678 23549
37333 22039 8646
46076 27753 27481
46898 36274 26768
47119 38603 26628
47409 42192 27183
66180 33497 25046
64463 23181 27976
16990 49263 46638
17185 46481 46438
17888 46052 46636
9104 19406 36646
63546 44983 27971
67005 39988 26828
17651 43693 3765
18530 47131 3136
16779 39208 4490
18113 51342 2875
17470 36076 4556
47037 38773 27993
45894 27408 28456
45591 27102 29833
45830 25878 28065
11577 15042 37023
45252 26385 19183
47547 50950 19012
44790 23675 18589
44468 23895 17579
27953 18103 4067
30445 1226 12255
32081 9450 9007
32607 16493 7916
31842 19379 43591
24490 45797 2301
24051 39250 2925
24660 26276 4065
23831 37350 3112
23255 881 38636
45135 17521 31127
30307 31024 45824
30912 46534 47138
30417 50102 47567
7221 17134 35729
7149 33634 12964
7667 26438 13364
5885 39620 13877
6781 36774 13002
24347 22385 2770
37995 8381 13970
45245 7936 27933
48154 50222 23133
47506 42960 23329
47253 39019 24930
48074 48869 23789
14087 20259 8359
33343 53652 2384
5668 32002 15861
6133 24883 16378
3643 50697 16132
47981 44513 16705
48547 48316 17300
48813 49489 17753
48147 42924 17641
47999 48086 15749
36344 15889 8139
8026 41317 42084
8152 37768 41740
7422 38946 41071
16661 6731 31193
43878 7674 25046
31550 38080 46125
30999 38009 46305
31505 43647 46674
31405 48487 47171
47581 44877 15508
45025 26450 14104
47357 41210 15805
45511 29702 14423
55094 13433 24297
44603 18161 16782
2038 33988 21005
2094 32178 21562
2584 27920 21082
3251 24248 19435
17242 23327 44238
18713 6192 20227
55504 11359 22591
31516 12832 7192
30873 5273 10504
29846 15055 7584
37856 27007 6193
37705 49010 3691
37195 28277 5612
37081 37754 4502
14940 36640 44464
15394 26209 43632
14240 41200 44580
15668 33114 44466
60007 47941 25476
40498 9301 26958
11455 29732 8704
10982 37824 8143
10730 45567 7429
30734 5865 22902
1490 45267 18594
1145 48828 18605
3670 24387 18067
3817 27290 16813
35247 17177 43242
16259 36268 45077
13569 52177 45360
16711 28106 44474
16545 33847 44972
65635 36257 25046
62495 45814 22122
16790 6251 24804
33858 50310 3580
32616 40582 4090
33594 47154 3792
17108 1364 26025
5766 24032 32698
3575 43167 31646
4958 27000 31156
48566 9841 23834
38842 53559 45489
10814 8200 22318
26260 5603 21482
30815 14387 43865
30172 6991 40629
12546 15313 40733
8246 8840 28551
7945 9692 28967
56396 14242 23025
32303 5999 10818
33727 14593 7283
17162 44041 2063
16898 49082 1670
18585 50488 962
17631 52666 1077
17682 43977 1893
61729 16508 25883
47770 52606 19350
47507 50356 19074
46521 38527 19620
46414 36270 20132
23134 2085 21222
33164 10570 38994
50452 45582 27977
18212 15245 41876
43020 20362 12619
10308 4436 21158
8215 8754 21891
8109 35310 38719
8881 26817 38432
8354 27330 37901
38639 12506 35257
13417 44009 44395
12580 46410 44098
13304 35314 43370
12620 40811 43513
12504 51562 44609
41836 15878 13557
46697 47813 32700
45546 35331 32567
46638 49757 33424
47116 50435 32207
64832 40732 22875
29671 5993 30240
57100 12154 25082
56367 11909 27423
12201 7508 22404
18921 14174 41617
42860 14452 24017
40494 22191 38530
64307 44455 22143
10533 43906 7802
9564 46492 8340
10668 50123 6934
16260 1126 25612
19152 18340 43506
26728 5468 24804
27151 636 11611
41615 16072 16702
46519 7780 25046
18698 46719 48808
17161 23992 46108
18439 39003 47981
18014 41707 48095
36334 21354 41922
38622 849 27108
33929 16165 6635
14074 22217 44413
36051 53644 3614
13028 5806 14741
54467 46772 22123
36041 20598 6061
4071 28000 27253
3901 28334 25118
4163 25735 25514
3962 28715 26588
20813 11567 42969
20178 14443 44139
48766 47680 18123
48328 45545 17434
47501 40364 16461
7251 17145 14312
34808 12886 10966
62372 20735 22524
31715 1444 28969
20856 1566 38382
34915 19785 5748
49035 45900 19930
48903 45559 19425
48973 43306 20824
47689 32334 19472
8558 21225 39595
53305 9774 26095
30488 20302 44337
18542 53134 49258
44033 17476 22485
16962 21355 43646
7287 14607 23541
7477 21104 38275
30051 9916 8057
45689 16533 25265
63502 23539 25918
37949 16676 11367
12708 8889 33909
63008 22414 23789
9849 15716 14820
49283 43474 26913
49360 44623 27326
49223 42750 26823
25206 53570 49707
22706 46519 49480
22446 43499 49188
22555 47419 49552
22284 24904 47487
22717 39666 48858
10545 19173 38282
20255 4 13540
57503 46407 22454
12982 53545 46572
32390 6070 25848
35045 44125 4774
33850 45673 4027
36555 52183 4703
47452 23538 27185
48507 34532 26346
48034 28670 25423
25942 6410 34117
1360 53036 16991
48478 40664 30528
48031 36230 30715
49130 49383 31304
32134 17505 42814
43908 12648 23298
42192 8612 24404
7889 9376 22124
12012 264 22049
57424 12410 25705
980 53654 23353
28521 13711 42176
44294 20337 30732
13845 34137 43603
12234 45416 43758
13773 36574 43821
13102 37223 43444
30489 18657 43804
25604 11243 6772
26042 14440 5383
9917 53071 5057
23216 13707 44324
23188 11925 43532
16296 1055 22639
8783 53347 6222
49493 44902 25682
6503 53104 8264
37457 8562 36857
39318 11550 36740
24752 16945 4299
42062 15327 31627
21919 53474 48583
11945 10627 37350
11844 10180 36935
7386 10958 29027
7603 10642 29405
18167 4094 11617
17544 6604 10686
5781 32411 34545
6157 23458 33471
5897 24414 33139
36770 36152 43536
36737 29105 42788
36529 42895 44433
36375 29673 43092
22447 21479 47002
1792 52261 26147
2327 47663 27923
3039 38862 26584
2823 41661 27159
4394 21370 32687
8505 47267 9276
7978 50049 9494
9145 41554 9333
9264 34695 10140
9615 18149 39476
21812 6318 33070
39534 8189 26758
20988 30058 45955
21087 28925 45870
19171 51468 47575
20070 28306 45611
9776 37459 6935
9280 48880 5992
9766 47482 5735
10544 36614 6364
8956 43346 6944
41509 7082 25767
26954 6946 36187
14461 52384 2337
14528 51819 2361
13139 48918 3339
13629 44672 3527
10579 12632 33911
41045 11304 16029
41752 12100 16666
37595 11 22359
28198 18534 44265
8914 10794 24504
37265 14009 37782
11273 12164 37614
11639 9639 36338
25643 2320 26905
23055 46392 601
24887 28097 2145
23291 48498 394
23643 46252 575
6774 19096 32180
17303 33982 45280
16995 33563 45136
18441 33773 45647
16940 45459 46257
66198 42833 25046
19088 40011 1825
21383 27520 2525
20710 27276 2680
4517 19924 18181
64988 28200 26752
36972 19427 9237
19800 27812 45511
20491 38004 46592
19773 26599 45394
42809 46833 39469
41657 46569 40746
41391 42691 40517
42982 48265 39469
42741 52153 40279
13489 14984 38855
37735 53136 5293
35406 32329 6145
34753 30415 6017
36415 46590 5200
40186 30778 7546
39973 33376 7046
40705 35972 7374
40168 27430 7935
29216 33748 48063
28312 42215 49026
28763 31881 47981
29603 40358 48598
64263 41899 25426
6747 30494 39137
7957 26484 39966
7524 26904 39529
6558 36005 39679
9488 6678 20462
10553 4395 20463
36751 10050 35792
8187 21099 39127
20519 5722 23118
16341 6226 11590
14790 12535 9271
26830 5571 27933
32723 31614 45107
32143 51906 47249
33601 52364 46797
33886 49655 46442
8529 12654 21170
43250 33464 36781
42640 27579 36732
43502 37102 36998
9740 13532 33233
50112 52886 23109
14438 51169 4407
14400 36064 5954
15115 36691 5538
14537 30410 6458
34691 3 33020
41607 18093 11829
32330 6936 33668
33571 7535 35232
31559 7361 35962
40083 33018 40597
40636 43559 41385
40217 35424 40771
24603 5709 29885
38296 12340 38412
33500 14368 9391
36853 53595 46638
65242 40036 27807
33571 52932 3223
5101 21528 15631
20147 1831 28294
22709 814 11596
21971 5690 9544
67185 28401 24843
8467 47821 43260
9064 27804 41368
8354 41577 42407
8481 44091 42823
33856 17711 42093
10947 24925 42672
9688 32635 42498
9420 24133 41236
9736 33656 42663
8549 11694 26114
3427 53616 14767
58526 16196 26293
35346 4655 13614
44037 43850 9801
44814 51012 9702
43968 43044 9834
42785 34573 9650
30308 53181 49511
5554 20612 29775
20780 6226 18108
43823 12670 22334
1139 53617 26246
6338 17811 20913
36228 33336 6503
38932 50982 6384
36498 32616 6762
37212 37381 6719
37164 42389 6141
16796 30266 5359
16398 34540 5123
16594 36881 4789
15487 27999 6234
27974 15948 6802
28039 53130 48348
41031 6039 26011
42829 52770 7219
25055 5328 40731
24991 6238 41130
44127 18453 34496
41873 16872 33619
31540 1136 19018
44106 17309 24452
36626 42729 3760
35310 50721 2301
35748 41186 3482
36003 37364 3994
18014 852 36762
65319 30975 24953
29300 38430 1613
28795 25641 2696
29145 26333 2702
28171 23603 2761
32991 1126 29043
12205 13972 13070
26094 9003 9776
31017 22358 5404
26652 15531 4945
15663 803 28262
20745 6902 14780
46265 26307 16789
48685 45926 18378
47455 31438 18846
60481 16857 22117
65535 24147 25046
49518 53078 30646
1719 47194 17377
2504 43522 16101
1351 49775 17731
2034 49340 15843
52401 10824 22136
27710 16515 45479
30249 20315 5675
31401 12355 9373
35140 16853 9109
8182 14003 20115
55281 48203 25045
9245 11637 34526
24460 6238 16845
46180 31593 21129
47611 45575 21820
46822 38188 21290
46893 37556 21939
28924 7321 36986
9769 15680 35125
21047 5789 21379
31390 4646 11035
1539 53408 23020
65628 33955 27210
39429 10040 35516
33599 6352 22630
46525 49254 37583
44035 30675 38274
44262 26668 37281
46012 41890 37148
6124 53114 11250
65170 22273 27206
14495 41856 5321
15779 49012 3963
15396 42772 4784
15045 33275 5918
8824 12192 29360
49311 44058 22799
26105 6128 17459
8741 9808 31736
9820 6885 30894
32239 21034 43949
3190 20816 26091
37361 5090 15455
36345 3008 15693
25224 2207 21854
29213 7623 37916
39686 23744 39826
39043 41873 42579
38690 30822 41555
22732 5670 21127
15194 13200 8647
14864 13727 8588
7466 20097 15695
9558 9393 33001
7163 14640 33392
5906 52992 8892
39534 10579 14305
36964 3463 16123
20401 17238 45354
11400 20165 39592
6991 15087 24828
42624 15799 35299
30046 5819 22251
6715 15862 26276
25901 5653 29350
2960 43269 34978
3951 29770 34219
2603 45895 34793
4179 31457 35028
39808 15252 11433
34799 6666 22031
60121 45698 23128
17881 32331 4774
18038 35298 4437
19476 33705 4101
14514 14997 39673
23636 20246 5113
8374 13182 29338
3191 20830 23922
56706 14615 24286
11699 770 27616
6711 16773 34481
56634 11844 24372
64129 43393 22177
65517 32600 26674
43339 35099 13178
44510 43369 13580
43911 37430 13654
42621 31210 12740
46098 17962 26972
31511 41241 1818
31916 45127 1583
31700 29813 2978
33147 23763 4049
27281 5565 22601
9168 11683 20401
65711 35673 22485
30068 5749 26428
32757 1404 26837
62853 22188 25088
46673 47124 36887
47364 48633 35795
47616 52204 36017
46176 40595 36556
25806 7418 37884
65341 37657 23116
26688 2468 10732
19306 7501 36840
15028 963 34383
20460 18697 45871
30156 21380 44720
22156 82 13400
33207 1328 25925
18152 1324 29361
52842 11409 25046
31601 18578 4773
44493 15340 19738
4774 29085 14345
4880 25551 14857
3032 40739 15488
3457 38094 15170
8385 18684 38336
43498 15874 25919
23882 11354 8664
45466 22925 34334
25263 2325 23259
12236 319 28979
14712 35142 3958
14370 24678 5184
13528 39645 4086
13803 24619 5470
31359 8239 38218
39426 45952 44918
36998 30647 44871
38946 48825 45552
37517 49045 46531
39278 44733 44884
14736 45283 2920
14520 41896 3369
15019 52647 2036
15285 38985 3286
13542 45769 3460
20008 10248 42149
23734 2110 21133
13744 12114 12702
15369 6990 31076
48703 53357 24624
64940 44849 26239
19924 1926 38235
19894 12330 43083
64260 25663 24923
8637 7599 22390
11525 1309 22127
44388 19143 21307
11938 47933 45922
11658 42809 45176
10348 51074 45203
11469 48089 45626
12141 51416 46438
46548 20784 29518
3839 24251 32485
3110 29595 31846
51596 46406 25046
47570 24942 22754
47692 26303 22726
47892 28910 22166
41272 13774 18296
43759 16487 25938
31894 7869 12744
23689 44288 49342
22438 37266 48621
22621 44103 49255
23125 38475 48776
23660 51180 49967
67455 31752 27198
4872 47531 14288
3711 51543 15820
5517 37249 15091
4761 43877 15263
40260 39519 8866
38287 25177 8866
40317 37441 9167
2017 50033 23605
2627 43724 23060
3934 29830 22382
3611 33443 22304
2941 40380 22901
27276 37604 3150
26403 24088 4322
26240 26671 4076
27677 46687 2350
5338 19988 16024
9213 13390 14218
8547 13348 15250
34627 6580 27363
37698 34657 5253
38138 28770 6189
36795 26707 5517
37129 33762 4970
13472 17253 9978
31782 31260 45393
32204 25465 44694
31971 27824 44999
14827 685 24285
43046 14875 26089
27486 20170 46695
29330 7234 41022
5238 15493 28482
28626 10411 7497
28730 12945 6375
23722 8087 8227
24407 14565 5311
45050 20069 25364
40713 36318 42753
39398 23957 42415
41234 34217 42043
40268 30963 42497
36023 22656 5540
48601 51795 33617
47279 38294 33701
46982 35042 33658
47375 36847 33011
39764 4687 29638
37813 489 29611
18269 6788 33243
41599 17007 37689
45913 7721 22114
16987 19419 7031
4436 23352 23723
3168 36583 24707
3683 31863 23402
3903 29416 23444
5486 22201 35569
39523 9372 19225
40028 23360 39411
41345 29618 38769
42232 39968 39182
32697 16397 5963
28946 7291 13222
46473 7487 22157
21640 43882 49133
20778 29425 47625
21254 25363 47343
21774 34299 48273
9862 47829 42175
9038 52247 41986
9518 49899 42123
10915 49566 43308
47067 53660 14639
31780 21924 5762
30915 16999 44978
23465 104 13217
47462 29565 30472
47466 30198 30746
47742 33838 31054
49466 48030 28989
51344 44811 24420
36306 52666 45562
35760 42182 44770
35432 33205 44024
35977 44209 44868
32530 21491 4248
47304 47572 30746
14404 14564 39369
14113 25124 7294
13179 28036 7601
13148 39093 6414
27061 250 13701
31496 5922 24163
41478 7169 23269
36565 4049 15246
5217 20661 34225
9827 11146 30893
11040 19261 38890
17197 839 30955
31904 18664 43326
45649 22339 33709
4124 26332 25750
4359 23842 25876
3735 30522 25629
40317 44923 8264
39442 37420 8402
39929 44773 7941
39489 38586 8302
40082 47906 7697
35746 13144 9182
34612 10845 9646
57606 46505 27809
47152 39398 22872
46159 28111 23373
46068 26878 23696
47189 39903 22727
37019 2965 16601
25654 2291 22815
34682 13915 39757
16971 37971 4543
17313 40782 4158
17649 36846 4421
17163 48622 3457
25569 19838 46729
2321 53327 35213
6102 39928 36591
7259 30008 36702
6335 38805 36754
5492 45958 36662
27345 2149 21970
7327 40230 38472
5844 49189 37717
6009 46517 37527
5580 16866 18147
7380 14263 25637
22968 21034 45147
14880 2812 35430
13313 10100 38343
7969 25266 36990
6372 37572 36609
6979 33443 36844
45010 26121 18547
45997 36943 18399
46014 34760 19065
33439 38282 4590
33430 44954 3947
32216 25188 5429
31061 24048 5146
41444 16252 12696
6243 13795 20376
7245 11138 21368
7560 17300 32472
8019 32098 11918
9098 27841 11273
32816 45984 1807
32589 43586 1960
33653 24820 4119
34300 51312 1800
33162 52421 1308
64719 40700 26187
20816 14761 7612
32841 20017 6656
45850 26256 15817
46382 29797 16170
45456 23379 15609
46820 40808 14799
17815 53657 1926
23616 6838 35834
34203 10191 40372
33373 5376 38365
20504 1602 30302
63168 18775 25046
15381 8688 13538
38018 17388 39039
14607 268 20394
10035 8782 26698
46682 20160 28019
8847 8263 20168
32813 17257 7678
46680 9134 24505
38393 13548 39037
37785 11519 38377
29413 3986 10609
30092 13083 6591
26082 5538 27814
43185 17391 30993
43107 11066 27724
21824 60 12358
25148 7696 11331
28432 51190 2030
28567 41975 2910
29453 50115 2333
28245 38710 3148
42173 7742 23130
10912 30062 6832
10004 44366 5902
8310 49919 6718
41859 17742 15691
11926 50943 5938
12141 37191 7295
12253 29547 8054
12561 41722 6521
61344 46009 22130
2892 38533 16366
2325 41152 17296
2896 36926 16806
2056 47783 16217
12677 21420 41151
31273 7693 37255
7926 12235 32532
18626 16492 5538
24492 2012 29781
56960 12195 23078
11444 9082 17996
48652 38024 21668
47603 26041 21965
34727 21221 44850
25902 38954 47156
25259 30419 46422
26951 31586 46417
26055 33577 46657
60672 15498 22911
24846 19935 3322
25621 39688 47241
25186 47291 47961
9011 10545 25390
38319 49962 3998
39316 42314 5498
39045 42776 5267
38622 43506 4904
39793 50294 4946
12177 3845 17381
31067 129 36939
28125 19590 46463
15564 7122 11632
55773 13866 26370
23172 11339 8716
7964 18772 34483
54816 47821 22453
43966 19165 35322
24616 7496 38163
9761 11860 18488
44746 16087 19511
29656 7548 37534
39628 44625 5455
39541 38273 6089
38857 41384 5293
38854 26003 6969
43903 45043 37694
42258 29295 37584
43816 48207 38341
44342 50705 37961
43495 21571 12803
44435 26201 33208
45796 42482 33788
44963 34910 33924
44485 27478 33369
15135 7304 17488
53046 12144 25078
42539 18606 37273
16125 11683 41211
16767 8761 40087
27211 12021 8427
16703 6602 19788
45270 15584 25773
24434 8 12658
27381 52197 48262
25796 46770 47873
26530 39012 47120
26972 52718 48337
32969 424 17309
36230 7800 16676
12625 10332 12216
3633 21108 29910
40118 44557 5824
40381 42446 6310
40657 29131 8158
14551 6784 23479
43924 18464 15179
10603 8340 27582
18583 6020 22274
11288 1987 28307
18153 53160 976
12112 12924 36212
66439 25785 22893
41060 10502 23260
34792 6739 29005
46328 33709 20892
46769 37540 21326
46423 32032 22145
46754 36842 21575
33381 40941 45778
33234 42779 46003
32243 36047 45695
33299 45245 46217
32495 42410 46219
49669 43998 26879
14557 92 19360
32956 14291 9160
27784 32898 46482
27740 44622 47551
27003 43327 47481
26319 42797 47477
27207 49039 47988
22364 37581 1448
22347 34745 1707
23395 36743 1456
10436 9905 19112
38501 29909 43786
38663 38786 44646
39703 44421 44566
39023 41487 44700
42753 15950 30438
59408 17053 23334
32375 52558 49066
31765 38896 47964
31635 33340 47475
31802 32740 47361
36155 35572 43883
35742 28846 43425
36206 37147 44021
36348 39604 44194
65465 32633 25913
22034 7579 8680
21387 10691 7405
46987 22922 20405
53686 46599 27968
32998 18273 44743
6537 48181 11504
6066 47995 12240
6107 47116 12322
5637 47250 13002
7721 19845 38052
41872 44706 42749
40994 26097 41272
17711 7290 15025
35933 15769 42170
4115 28779 15745
2835 42941 15436
2480 46648 15395
23068 5531 23035
65466 29587 22433
34779 11665 9323
15345 48293 47778
15146 40374 46879
14995 24476 45196
22710 8086 10855
20808 53507 680
15785 6460 24663
45161 18361 18147
6175 43012 40208
6143 44830 40421
7193 32683 39947
4779 30195 31530
4107 38184 31805
4664 32242 31771
5377 27410 32506
29456 5809 28573
44786 28641 32918
46480 44785 32485
46554 48223 33238
46078 40168 32366
38854 6055 16888
20608 6145 18745
24911 11810 41699
48736 36710 25876
48016 28837 25938
47822 26557 25726
39581 25355 40112
39297 40542 42196
38577 27485 41251
65252 38073 26669
59527 16309 27928
28710 29406 4101
30318 28733 4483
30019 42510 3150
30117 1830 28195
31720 9850 41439
24533 241 13521
5680 18458 33732
12360 6993 14707
14159 1959 16032
34495 9390 12633
33371 21754 43678
46782 19889 25620
39850 22194 41682
12328 52354 3428
10249 49957 5078
12755 32897 5265
12820 41805 4249
10649 47482 5081
44571 19741 28811
34942 46474 47543
34707 44137 47423
34151 32444 46515
34419 31375 46274
36140 49437 47252
20557 17890 6343
1075 53652 27439
1927 49162 33885
1863 46900 33057
1541 47702 32334
10836 45639 5157
12551 38498 4790
13457 31673 4931
11641 50082 4135
11880 40699 4998
22539 20339 44934
31441 13964 43455
30532 9144 41513
1741 52964 26520
61054 18959 27214
35059 42887 2970
34278 29011 3990
34009 29847 3771
6715 16882 20833
13193 37457 45618
12503 40657 45506
13560 25691 44579
12475 31485 44486
6362 51503 8503
8413 30448 9063
7147 40203 9164
8105 36975 8515
6287 46724 9247
4573 18158 19780
28794 30945 3976
29903 39641 3392
30672 45740 2980
50753 46717 25046
1368 38718 22669
1131 41143 22922
249 49974 24122
1084 41940 22532
733 52587 18914
988 46296 20555
1564 43865 18794
986 48043 19754
631 50497 20399
16990 1044 20814
5555 20796 20056
13498 10440 13966
27371 2058 28905
52482 47571 25953
41249 30518 11089
42607 43599 10838
41325 31418 11053
48349 53366 16131
