ply
format ascii 1.0
element vertex 2813
property float x
property float y
property float z
end_header
38621 5196 8954
25480 46416 0
23922 33571 0
24607 34013 0
23697 8204 0
24692 54451 0
23936 13541 0
4370 29798 11050
4756 26541 10442
4247 53040 11244
4797 15547 10375
3919 41871 11761
4434 43568 10949
48073 7771 14575
47431 15948 13211
47471 47719 13295
47814 3358 14024
47745 7645 13877
47782 27134 13956
3982 39115 16693
4453 45598 14881
5218 19727 16497
4687 38560 15266
53538 45890 27364
45651 0 26971
40651 7558 10646
41158 51730 7888
41474 47930 8463
40789 12259 10431
41078 35183 9024
19388 40970 49691
18414 48556 49441
17961 54734 49325
20327 41601 49932
19747 41526 49784
20026 33293 49855
39570 19208 4472
40942 48681 5469
39649 50417 4530
39309 25927 4283
40298 47525 5002
39446 33791 4382
24405 826 50104
6029 0 32681
23205 1522 43942
18069 3872 1021
19728 15770 595
20225 21834 467
19355 15087 691
19403 25205 678
19051 5908 769
43918 44794 42112
43748 40014 42316
44196 17852 41774
43689 6157 42388
44754 54260 41100
44942 51509 40873
25733 1514 26766
25868 1514 30372
25997 1514 25126
17996 4580 5609
12051 1552 13562
31042 43061 49699
31683 32057 49534
32750 9122 49260
32116 35033 49423
31872 51067 49486
32751 13911 49260
47143 0 31517
25735 39107 50374
24065 52499 50374
24624 45155 50374
26160 53750 50374
26330 13130 50374
26699 36078 50374
1141 3078 32559
1662 18456 34164
1649 25016 34121
1712 6132 34319
1460 37066 33538
1371 1687 17123
17645 0 27581
16297 0 19780
17634 0 13849
17407 0 34024
48793 25 28236
10227 467 5655
25093 47668 50374
26543 23895 50374
26008 29332 50374
26745 7748 50374
26122 49581 50374
25610 30231 50374
18430 7517 49445
19068 5341 49609
17746 38384 49270
17869 19586 49301
18091 33988 49359
20134 4254 49883
45630 41646 14577
45716 46059 14207
46390 49916 15157
44050 11370 15015
47002 52361 16149
64876 38297 24347
25226 1552 9161
25638 1552 7822
25267 1552 15493
8795 41586 6067
8277 31248 6554
7867 8905 6939
8824 24307 6040
8871 10331 5996
16195 53670 47012
16354 49986 46863
17425 41501 46800
16457 42930 46499
16286 27265 45532
49127 57 25587
2917 8 32784
7100 7478 36096
6939 19518 37040
6491 23637 36746
7296 14909 37146
7123 9439 36329
32501 27633 1050
31462 24039 783
32438 19104 1033
32387 37827 1020
31104 3445 691
32078 11053 941
9948 1546 15960
16209 0 40064
15334 0 30045
15638 0 13854
16069 0 25176
46836 20545 12227
46608 47358 11868
47259 7275 12893
46965 45347 12429
46341 35139 11447
14857 1781 40443
13589 46616 5065
14531 47265 4507
15149 53516 3787
15332 19379 5765
12765 54122 5061
53166 14065 24386
6173 8562 8707
4941 41135 10198
5735 2782 9237
5779 26700 9185
5289 37525 9777
5042 31433 10076
45216 16990 40541
45011 7049 40790
45379 10979 40345
44804 9905 41040
45029 27951 40767
32254 1552 39590
30964 1552 21325
30739 1552 19260
35158 41075 48346
34628 28903 48556
33722 49147 48914
35664 31376 48145
35705 29186 48129
35487 53812 48215
4248 0 18026
38532 1552 35401
38856 3188 40102
17460 1552 21219
17448 1552 26095
17030 1552 34351
46551 10723 25926
46936 19081 26903
46417 10237 27639
46576 12647 27168
34853 1841 9254
63455 33131 26649
48493 55361 19190
30264 0 30266
31963 0 6445
30322 0 33826
32220 0 5894
30658 0 31233
48151 47449 29302
48491 50787 28467
47788 44353 30319
47746 35938 28141
48117 48001 29633
10483 0 20559
10695 0 25318
11212 0 11236
41384 2939 37045
24840 55176 48989
13292 32501 44286
14154 28933 44543
13546 36078 44644
13978 40714 45163
12987 51635 45284
39377 53451 6287
40085 49321 7074
38590 29979 7264
39086 45512 6599
38412 26370 7372
8552 557 43424
37247 0 41287
35619 0 32871
36203 0 31590
36103 0 27489
5927 51062 41368
5784 48034 41195
5002 7608 40250
6299 44985 41818
5465 47100 40810
5008 8228 40257
8745 1538 17474
49466 17176 18270
49640 35943 18805
49356 35070 17931
49314 43403 17803
49597 22518 18674
14417 2730 41833
47771 0 20863
36815 1552 18345
43980 2365 20014
18043 1552 24735
19354 1552 41183
49221 39820 32856
49079 39201 33293
48742 37967 34332
48947 48527 33702
48808 24654 34127
49191 51206 32948
6300 13355 41820
6336 28505 41864
6325 40433 41849
6190 5489 41686
6282 31061 41797
6122 8387 41604
39591 42923 45886
41241 35338 44688
40862 40843 44963
40291 30079 45378
38963 50487 46343
40735 52785 45055
49784 51006 19487
50129 29489 21293
50198 43986 21659
50183 43138 21581
50228 27955 21815
1173 55413 18907
32895 5001 1151
31782 23167 865
32920 24953 1157
32410 14585 1026
31900 34912 895
30831 11803 621
43841 1514 25145
37618 22247 47119
36913 4664 47507
37579 12186 47140
37246 20462 47323
37815 10628 47011
14746 4311 2248
16207 1964 1670
16993 10860 1358
16194 26366 1675
14787 2145 2231
34346 1552 15254
33644 1552 23345
47716 55442 33998
7692 0 30666
6887 0 21217
50800 46631 24754
1846 38306 34649
2765 49979 36603
2082 44331 35152
1982 52050 34938
2793 48955 36664
1903 39724 34771
45431 3519 28205
3725 55499 13921
4897 18548 32973
2559 51322 31437
3479 47976 33689
3396 41793 32367
5387 9118 32851
36016 49800 4401
36292 20795 6320
35913 35539 5213
36448 33732 5617
36666 35422 5634
47258 0 27291
22696 1514 18255
21908 1514 38876
21904 1514 22634
7805 1986 17901
57927 13316 26314
46906 19421 22690
48361 45268 23850
48022 39565 23309
48718 52044 23775
47959 39158 22652
9071 29056 40610
9702 20177 40553
9202 47618 42092
9368 29741 40939
9847 22672 40872
34819 14487 1893
33667 13121 1438
35407 4629 2127
35570 43303 2191
35817 8063 2289
35066 6906 1992
21758 26134 47072
22671 42942 48092
22765 49542 48459
22241 37557 47748
23273 53367 48729
1528 55447 29647
55986 14333 26876
42637 52468 9277
42784 43576 10200
42616 53677 9151
43659 48115 10877
42087 31486 10369
45132 55155 9903
50396 14849 28069
45097 9296 17566
46447 21372 19638
46135 16794 19467
45799 10291 19556
2783 31334 24814
2726 33046 24272
2008 45581 25031
2212 42132 24708
2591 35138 24637
2206 43908 23279
26032 354 49673
47905 43173 14219
48671 51872 15846
48683 40120 15873
47889 38430 14185
48373 53456 15213
48600 5653 15695
36308 1514 34346
37146 1514 21859
10293 85 6418
48179 42093 26711
48548 48901 26634
48456 46182 25781
47618 31611 26717
47704 32787 26352
15254 2559 8248
23180 55186 48927
30 30460 24579
50 11838 24273
128 6890 23030
154 5317 22629
32 29872 24559
73 22211 23902
40315 46259 45360
40092 36090 45522
39934 50621 45637
40543 44833 45195
40795 32250 45012
40484 22517 45237
45796 18909 32316
45725 21762 33026
46121 20755 31635
45711 12321 31438
46580 37119 33049
451 33655 20662
733 35390 19183
711 52843 19298
607 19132 19839
782 29064 18925
575 53444 20012
8830 1514 16631
15527 5241 6542
468 30994 29805
656 53977 30788
400 43190 29444
228 22284 28539
608 44293 30541
41343 5589 11642
29757 16124 46339
29781 43266 47829
31204 53421 48023
30325 32032 47070
31724 52976 47865
22962 46538 86
20962 15469 339
22542 46893 138
21555 52615 264
20869 29874 350
21150 36911 315
40287 4139 39465
64913 24203 23554
13033 3029 47224
14163 4686 47845
14028 8304 47771
12725 24988 47055
11947 4138 46627
13612 3402 47543
34498 7481 44230
36472 21063 43972
37400 44146 44868
35817 22416 44415
36189 23961 44304
1138 31389 17824
935 18414 18450
904 27535 18545
1046 12814 18108
957 10491 18380
1342 20158 17197
37023 0 10625
36514 0 4894
37506 0 30627
3896 41701 33819
5216 20669 33989
6255 6983 34481
4287 36527 34002
6112 12870 34915
30503 1514 24966
30595 1514 30290
30585 1514 30933
7707 13138 43285
7221 26516 42828
8944 4897 44446
7717 6857 43294
7701 30231 43279
7130 38818 42742
49012 37692 16873
49249 45731 17601
48747 54395 16058
49600 7893 18684
49656 52149 18855
49652 24360 18842
323 915 23387
39918 47013 43269
38438 25248 42908
38315 23102 42857
38492 10460 41894
57250 16321 25943
3743 30876 18825
4336 17318 19340
3661 33791 18573
2611 53990 18314
3293 46047 17586
28965 266 1110
25316 23946 0
26189 23509 0
26560 5423 0
25554 20754 0
25923 16726 0
52964 10451 23475
35381 48984 46272
35695 26218 44713
35986 35938 45145
35845 27636 44717
35431 28500 44997
49827 43995 22168
51373 41859 23891
49764 23727 24612
39895 54220 6613
38887 38884 6892
39418 40766 7154
39008 41449 6811
44132 0 27470
44204 0 25891
5605 2633 27408
46832 23932 20860
48018 42938 21663
46603 16318 21827
46944 25857 20899
9375 42408 8501
10083 38895 8093
9045 52965 8038
8072 54658 8827
10754 21786 8715
47364 4978 13068
47613 26147 13598
47389 34173 13122
48061 25519 14550
47867 30084 14138
47753 2599 13894
34925 3056 42792
62949 27897 25764
19300 0 12750
20203 0 14562
18778 0 7656
18854 0 3491
57781 14365 27477
46276 0 29063
47829 54797 18108
50396 20265 26389
28743 9321 242
28699 27017 238
28735 17711 242
29283 21133 312
51796 14948 27490
11103 44214 43492
11894 17637 42314
11664 21928 42430
10816 44792 43322
11835 43900 44003
7653 49770 43233
8901 22512 44406
7901 36979 43467
8526 16558 44053
7765 37976 43339
7373 46428 42970
7660 1514 23990
40158 6253 40096
41173 28629 40781
40755 20356 40567
40861 32889 41386
42177 48091 41263
58702 42968 23545
24489 33353 47720
24623 26724 47366
24293 21951 47112
24983 35490 47834
24564 34855 47800
39636 656 5002
27724 0 24897
27430 0 9303
28340 0 17243
29147 0 3861
26954 0 26139
50184 39639 28790
50197 47750 28723
50079 22812 29339
50214 38738 28631
50180 16885 28810
50216 41271 28624
50323 16758 27472
50353 38796 26998
50299 42997 27845
50358 31410 26915
9818 5723 39595
40743 29130 41221
40284 18375 40864
41220 21984 40250
40935 29870 41095
8981 49852 8326
9713 47485 7812
11410 10924 8894
8292 51142 8877
10331 40813 7720
56567 14764 22302
49783 29362 19484
49930 18018 20252
49710 14092 19100
49779 25447 19461
49855 30910 19859
49773 11409 19428
13327 1514 11651
13584 1514 22036
25621 19059 3417
24765 14332 3669
24417 6369 4094
25002 22910 3211
8683 0 8568
20497 1552 30220
20304 1552 22647
45499 227 11787
34696 29098 45430
33439 17850 45282
34586 32215 45653
32705 10416 45146
33702 9935 44724
28758 0 39964
29580 0 5185
29286 0 47082
50834 17170 21682
19160 46620 47624
18053 53890 47740
19416 32676 46921
19612 29558 46800
4137 46980 15381
4507 49552 14271
4601 32753 16178
4426 39456 15707
4928 32509 15514
518 54953 29932
34453 502 2317
50357 39723 26926
50374 43095 26669
50307 46483 27727
50371 49047 26701
50340 40820 27194
52237 11463 26921
32241 1514 31127
31719 1514 38815
31983 1514 37592
4497 5411 21593
43412 35890 38771
42769 36082 39565
42655 15376 37969
42738 26859 38831
43414 46733 39677
25688 902 223
24835 29531 50374
26120 10017 50374
24477 33564 50374
25183 3202 50374
25923 3702 50374
24290 17152 50374
61010 20127 27323
37555 1514 19710
37703 1514 11816
50719 42756 21017
33566 36315 4082
32730 53182 2783
33901 17201 5312
33706 32444 4360
33381 47844 3347
17615 55341 47931
20204 0 38820
18766 0 37791
18119 0 16998
18382 0 15422
50642 18919 26715
39587 2095 37742
50496 19973 23526
20443 1551 8185
50008 37494 21999
31634 54443 827
30100 33553 433
31474 47955 786
30131 20439 441
31032 37811 673
54408 46281 27565
3750 14607 26717
2550 35270 25205
3274 21816 25281
3758 13445 25844
2260 40996 25463
11772 1552 30319
29398 40231 2631
28108 36862 2648
28866 25825 3339
29016 37514 2728
48562 52929 21668
48032 45463 21020
48617 53632 21756
16733 52749 3202
18155 20532 4488
15771 51187 3673
17344 29550 4292
17011 40128 3817
43080 54891 40779
40645 26243 9271
41817 44196 9059
41122 49966 7983
41038 23201 9864
40999 42093 8444
53303 11664 27599
44925 32898 9481
45595 8268 10291
44739 41898 9256
45538 17531 10222
45621 43660 10322
59252 42831 22905
42251 1537 31776
48968 54994 33508
62668 34663 24382
93 51462 26784
134 49737 27432
125 48550 27298
26 51042 25719
188 53803 28286
9766 787 5655
27977 1552 40151
26884 1552 36997
27140 1552 41218
16046 10268 48641
15922 11156 48592
14970 43326 48214
16504 10690 48822
14797 9333 48146
15067 39841 48253
34258 0 42460
33416 0 46963
32695 0 11636
32790 0 19657
45400 5215 19283
9305 5445 38947
48037 21029 35874
48478 23768 34937
48589 3577 34701
48409 19662 35085
48680 45589 34509
15920 55510 47682
26164 37091 2453
25462 31580 2748
25335 39558 2323
26587 46890 1931
25306 52493 1632
9402 4740 11507
39725 25573 45789
39796 10586 45737
40440 2411 45269
38946 25798 46355
39683 22556 45820
30128 1514 37764
42813 1514 25269
12173 42223 6235
12639 29268 6752
11867 38001 6736
13735 12123 7086
12112 51165 5690
40613 1552 19876
25362 0 46719
24245 0 13706
23828 0 40424
25069 0 47825
39008 1529 12730
4925 3533 22745
40584 54219 43207
41423 44650 41719
40850 41641 42037
40715 37047 41827
40062 38073 42515
51632 16300 23921
51926 11789 22365
14546 0 24540
14316 0 31393
15163 0 43197
13980 0 28853
23089 0 35591
21574 0 41274
23256 0 34852
22168 0 43175
23008 0 37294
30240 1552 41196
29495 1552 32130
62894 25774 22728
31557 20491 4256
30935 34346 3333
31710 26714 3952
31919 17276 4526
31688 54602 2410
27508 14698 87
27670 32212 108
28480 40600 210
27372 48540 70
27115 37431 38
27081 45079 33
125 4114 27292
187 9325 28278
130 33208 27368
65 14318 26341
155 44270 27763
31727 1552 18471
32301 1552 25397
16114 55392 2073
8431 13417 38562
6682 40000 38673
7183 29634 38413
7121 38583 39085
10113 46219 5036
9837 52340 5237
9429 54748 5532
9900 31852 5191
9422 45637 5538
9226 11481 5681
14792 1552 28684
15467 1552 21748
15146 1552 26505
15423 55518 2760
44938 35683 36418
44418 38619 37529
44493 43331 37880
44953 34943 36319
44031 21809 36465
13112 1514 33536
14294 1514 14525
42673 1545 21082
16824 41028 48949
16437 34330 48795
17170 41878 49086
16357 49236 48764
16035 54377 48636
38446 55481 45497
1299 1077 32598
27137 0 31489
27767 0 26213
26828 0 32681
27793 0 12069
62182 25384 24569
18240 47457 977
18950 53727 795
17503 23713 1166
17630 42767 1133
18508 21753 908
11036 4127 40269
41484 25976 44476
43061 7291 42994
42420 26055 43597
41992 2240 43999
41999 24903 43992
42959 13666 43090
4329 30741 39260
4526 3144 39571
4219 35532 39086
3726 5401 38310
3437 9741 37853
3980 2616 38709
3003 0 32169
31015 699 49339
45523 26092 10203
45271 45284 9899
44331 44947 8762
44364 37737 8802
52063 47470 22958
92 26284 26765
113 23785 27105
75 21913 26504
89 17141 26715
99 24567 26886
82 2047 26614
50443 3752 25569
50412 11886 26061
50333 9681 27320
50357 23125 26929
50425 22873 25851
10072 9778 45307
9294 44645 44743
9569 29259 44943
11371 6982 46251
9665 15263 45012
4758 5079 29861
299 47254 28914
203 48211 28408
528 48095 30120
496 44512 29946
528 39010 30121
473 34645 29831
49827 7813 19712
50027 11069 20759
49720 20931 19149
49931 21066 20259
50034 10529 20798
49856 22437 19862
41787 0 19978
41554 0 27677
4637 136 12640
2336 19875 35691
2247 4619 35502
2356 6169 35734
2801 26070 36679
2754 6087 36580
8708 39121 44224
9061 6594 44557
8610 33199 44132
7283 53895 42886
55914 14466 22816
38615 1552 27796
33762 1514 35472
34078 1514 20631
2062 0 21795
40106 41940 42757
41238 39152 41490
41539 48967 41926
40183 36119 42259
30625 21081 3983
29548 25958 3439
30371 17713 4104
30931 24791 3858
30269 6219 4712
28158 22962 50204
29337 9126 50055
27515 16458 50286
29029 3429 50094
27937 19387 50232
21922 1514 34391
22037 1514 23304
22214 1514 30458
22182 1514 6283
31801 12524 49504
31071 3361 49691
31776 5837 49511
30925 2095 49729
30363 46938 49873
61573 17044 24634
42405 0 25113
42493 30550 10939
41192 15182 10652
42707 41605 10272
42624 33092 10885
55429 11153 24087
33104 1762 41847
32233 39351 46984
30895 18729 46191
31367 18269 46045
31925 27094 46387
31668 14929 45783
23045 12500 50298
22907 19671 50281
23055 51376 50300
20826 50585 50018
21530 43528 50107
22432 27046 50221
9618 12584 10457
9361 36588 8940
8776 34334 9654
8427 43101 9340
5997 0 28659
5155 0 15601
21575 29583 3139
21514 24222 3435
21566 26246 3320
21217 40644 2589
59876 16030 27274
25394 1514 32812
25205 1514 38727
24377 1514 28364
49967 36632 26468
28066 8795 4154
27804 22376 3390
27446 26125 3144
26859 30738 2821
16224 5276 44221
50023 45074 20739
49969 31373 20455
50254 39751 21950
49971 54605 20468
50193 40836 21633
31534 0 10176
30108 0 19706
29908 0 14472
30718 0 14746
30153 0 28896
21919 22191 46881
22727 36811 47769
21288 54422 48535
21465 21353 46778
21141 31625 47290
21510 11623 50105
23004 11159 50293
22664 3857 50250
21748 29211 50135
20898 22317 50027
21493 36736 50102
2972 5222 37042
2499 26025 36038
2701 27597 36467
2701 2765 36467
2517 11727 36078
2947 46378 36991
50114 37059 23612
46731 12576 38313
47257 43111 37485
47017 26719 37863
47061 9342 37793
46975 11038 37928
47335 41804 37362
36260 1552 28762
35629 1552 31701
3893 0 28714
1872 16 29044
50450 10047 24925
50379 53262 23800
50432 31804 24628
50381 39973 23821
50401 23519 24143
5420 7513 17699
5211 11279 17692
4474 20626 18345
5324 10042 17556
4537 19631 18319
33048 54129 47519
33570 45320 46807
33880 36086 46154
32622 19725 45713
33347 40568 46623
49835 23296 25389
37854 1514 20458
37652 1514 26984
21151 1552 25750
20390 1552 17168
12010 0 24391
12321 0 21786
11816 0 32840
11111 0 33424
44175 0 30574
44165 0 28182
16803 1514 35545
16948 1514 20883
33846 1552 18465
34442 1552 33845
54016 45259 22977
57803 43538 24061
431 1327 29311
26891 1514 26184
26471 1514 30620
27268 1514 30166
19930 46379 2566
19615 39292 3037
20290 21815 3827
20639 49044 2237
18243 52072 2685
42804 5966 36820
64048 21356 24444
23657 52320 48721
23560 41090 48105
22511 7197 46149
23068 10237 46383
4651 3957 26760
23313 1518 6258
46221 10570 28910
46364 17605 30166
47785 46355 30904
46364 18483 30413
13214 11785 7487
10917 32814 7768
11847 20532 7902
12137 11788 8269
13122 14791 7355
5231 0 26153
21680 55399 1418
43372 2199 31512
44956 5794 32632
4269 38504 34212
5508 17441 34206
6033 9510 34326
4445 31917 33760
9053 2362 14419
21299 25967 296
22315 48107 167
22144 49379 189
24588 1418 50337
16719 1514 38756
16226 1514 40086
38821 1523 12118
24308 1552 14812
26019 1552 38049
7826 0 15470
7793 0 28967
8060 0 13086
46556 52741 11785
46497 54675 11692
47209 40986 12814
46582 41830 11826
45923 48026 10788
45097 9965 17452
45735 20177 17652
45903 25558 17239
46569 37721 17188
45926 23032 17748
41952 38228 6337
41542 37773 5952
41364 28384 5785
41383 11385 5803
41550 54691 5961
42094 34743 6471
8027 5839 37392
18775 22188 49534
17599 11123 49232
18487 28210 49460
19610 16516 49748
18111 14242 49364
26436 19041 0
26040 26603 0
26462 10329 0
24553 4651 0
26328 17672 0
24252 5999 0
5175 3122 27329
10209 33850 42029
11230 10673 41291
10243 18980 40972
11246 11727 41383
39986 49301 43370
38338 14190 42251
39106 19272 42029
39525 41369 43182
54152 44919 24888
12513 0 33640
12252 0 44014
10918 0 34441
60920 39862 24402
20101 1514 14543
21061 1514 18511
20575 1514 7072
1273 12533 32963
1422 30719 33421
1549 35067 33814
1672 45530 34196
1633 13076 34072
1115 5109 32477
39226 6136 4222
41072 30052 5563
40892 15015 5432
41048 7572 5546
41085 47052 5573
47456 40256 37111
47884 28968 36200
48341 45222 35228
47984 48339 35988
47416 21440 37195
47640 34491 36718
2517 40465 36075
2556 43800 36159
2143 38566 35281
1958 37238 34888
2805 47895 36688
1981 21204 34937
8508 2755 35880
36317 7114 47834
37597 9600 47131
36227 12894 47884
36437 16012 47768
37471 2533 47200
33182 4501 5919
2412 43264 28650
3747 20418 29139
3324 24610 28116
4281 6428 27955
7583 55149 41166
63008 31400 24797
46892 10166 38060
47302 26613 37414
47034 17218 37835
46424 9092 38797
46525 16296 38638
17111 273 2193
39648 1552 24185
30674 0 40467
30831 0 36345
31535 0 33434
31509 0 22804
32388 0 30506
22001 1552 15794
22291 1552 32998
29167 110 48913
40952 0 34978
40710 0 37179
62779 24461 27070
34527 45223 1779
34120 25417 1617
33412 22803 1337
35103 41253 2007
33203 19992 1254
33307 37380 1295
43442 40388 11261
43559 42013 11268
42805 28079 11522
41436 14254 11026
51613 12614 27599
5091 3175 23724
32472 0 35802
30738 0 37172
31783 0 34159
8065 1514 27620
2004 49260 22156
2572 41193 21473
3664 19937 21803
2922 32164 22211
35193 1549 10496
14333 1552 25316
14143 1552 17572
8703 12100 38782
9015 15493 39442
8033 26699 39193
8051 10062 37822
8707 17830 6151
7507 13699 7276
8921 45140 5950
8683 14229 6173
12482 1552 23570
12471 1552 15483
62043 17838 25279
9755 0 28950
8983 0 12207
63931 34466 22157
9149 221 43395
47542 52606 32761
46101 17922 31206
46504 22666 30785
46913 31164 30993
46337 23608 31463
26924 1471 50334
8407 0 39966
8632 0 20618
25162 44403 48310
25745 44421 48311
25258 31237 47607
24845 34353 47774
26143 52695 48753
38906 5772 9139
28098 1514 38502
27634 1514 35044
28037 1514 36263
11210 34303 7457
11289 28919 7755
10502 49191 6988
10734 44235 7147
16281 1552 27353
17303 1552 12379
57616 44765 27253
210 19647 21929
372 36589 21079
210 40641 21925
367 21330 21102
458 11387 20622
491 20966 20448
56139 47641 22582
23563 2774 5372
41677 4044 6080
43472 13750 7766
43362 3315 7662
43005 28899 7327
43604 39691 7889
25282 2985 5144
22604 2197 6157
8252 1667 18730
39302 5840 40869
22676 0 17853
22829 0 14810
21852 0 14810
22344 0 24175
4765 771 11001
45450 29265 34627
46913 50932 34234
45373 18893 33491
46489 53224 35422
45735 34491 34677
10413 6627 4818
11535 49201 4003
9442 3966 5524
10320 24604 4886
11519 26743 4016
10407 16226 4823
49707 12343 31291
49804 42645 30784
49815 29376 30725
49945 52530 30042
49952 27461 30009
49718 53956 31235
35697 1514 33330
36688 1514 20988
36227 1514 12241
46788 25865 30298
46379 15357 29446
46913 29275 30611
47488 40166 30697
46236 13310 29611
948 12588 31965
1406 36366 33374
943 31270 31947
1073 21237 32353
933 17363 31916
1138 26725 32549
14827 300 3058
13901 47956 47702
12077 50173 46699
13559 50293 47514
14159 38729 47843
13071 31241 47245
14444 34258 48000
14514 15861 48034
15467 29340 48412
15900 4800 48583
16137 19707 48676
15568 14237 48451
46235 5711 26666
31353 1514 19172
33286 1514 40786
6063 1515 25948
16012 53740 3431
17117 47768 3336
17107 34667 4092
16368 50346 3485
19768 1514 41828
20241 1514 23754
19850 1514 19377
28226 1514 15479
27801 1514 17175
62277 39003 22281
58453 43038 25452
5068 0 27429
7777 30918 7024
7711 33528 7086
8345 45153 6491
6834 46132 7909
8259 35855 6571
8564 43106 6285
63058 30658 25560
24672 1514 31006
24692 1514 35915
24833 1514 26747
50301 28958 22545
50362 26689 23520
50320 18012 22860
50421 1767 24456
50291 20664 22398
50327 30724 22972
4335 0 15269
43784 13940 42273
44703 32774 41161
43881 41516 42156
44155 24036 41825
43667 8426 42415
43990 21828 42024
10218 1552 29395
38037 33555 43748
38403 46142 44312
38639 35857 43463
39882 50577 43530
38011 51279 44935
13199 1552 37611
52242 11086 23248
56084 14801 26345
15899 1552 26109
17145 1552 11219
62999 28199 23525
10904 51830 45912
11292 17912 46194
10943 37222 45941
10892 40814 45903
10557 47389 45660
24890 1552 41221
24255 1552 15449
24293 1552 14190
52398 44839 26907
38541 1549 13422
27475 38101 2503
28635 14527 3918
27166 32596 2760
28212 19065 3620
36129 6114 7124
34892 34943 4688
35093 13763 6089
35490 40841 4657
35610 13427 6393
35032 1514 32860
35340 1514 22080
33921 1514 10095
42021 23919 39451
41289 6265 38858
42329 33489 39880
42213 16192 38572
42352 23094 38982
40143 0 18305
39595 0 34943
39930 0 21302
19689 44423 605
17693 37188 1118
18080 14874 1018
19671 51904 610
17631 50643 1133
17914 12152 1061
34006 1678 48796
21626 1552 11614
21743 1552 17616
2030 21322 15333
2011 30048 15374
2269 14135 14826
2648 9926 14020
2427 27082 14489
2702 13375 13906
2352 40146 26205
4153 8383 27830
3666 17420 27785
2788 33280 27305
19988 2407 6413
23544 45494 12
23382 2097 33
23588 29172 6
23013 23909 80
23531 18869 14
17898 1514 42568
17772 1514 40804
18435 1514 31537
45760 1261 39704
23127 15016 46647
23540 44500 48285
22703 16352 46666
22938 36130 47759
20411 1552 21736
19841 1552 12561
46093 25003 32454
47072 49200 33620
46357 27267 32034
46700 39046 33011
45950 18501 31771
54181 47598 22132
9238 1291 5750
8736 1514 30619
50414 8342 24351
50369 18565 23640
50317 11157 22807
50356 25901 23431
50271 21915 22074
50272 44791 22088
33167 1514 21305
32830 1514 25721
41467 29616 5882
41819 26107 6212
42058 43003 6438
42209 31724 6580
41808 50782 6203
42560 45411 6910
20150 1514 32062
20428 1514 28420
19417 1514 33558
14919 42904 2180
14762 33933 2241
15383 33613 1996
14786 21010 2232
15317 39675 2022
39715 1514 28964
39380 1514 30007
61914 18872 22390
16879 54325 1404
15796 49376 1832
15795 52505 1833
14871 48890 2198
15508 22935 1946
25466 53430 0
25156 38603 0
24253 25351 0
25198 50969 0
26514 52780 0
37036 3 45508
30799 49726 47924
29883 27113 46913
30128 23196 46634
29699 48924 48162
11902 27970 3772
12044 26304 3694
12664 43553 3352
13374 40381 2962
12074 16960 3677
27481 1514 39060
27014 1514 42510
27367 1514 31142
15154 2131 8906
6222 38558 12567
6175 31072 13386
5126 42650 13884
5855 25832 14413
5928 53604 11531
14298 1940 40466
10837 11514 4510
11053 28918 4353
11608 1981 3951
11216 37535 4235
51568 16530 24611
41185 0 16993
41877 0 10200
15310 35 3556
24232 166 49355
50112 24403 29167
50097 15468 29244
49736 5349 31136
50218 33709 28609
14286 2445 8991
42578 0 14954
43773 0 12982
6110 32257 37003
7554 13200 37380
7499 9716 36948
6482 14853 35857
61004 42151 27495
42777 48292 40578
43782 50453 39544
43202 31732 38677
43284 48144 39953
42879 1524 31598
50463 41145 25136
50421 15181 24458
50399 29356 24112
50449 36318 24909
50387 41541 23924
45904 51219 39616
47004 45268 37882
46378 29693 38869
46141 45690 39243
46012 24472 39446
45854 49597 39694
15924 1317 1843
47721 42287 30080
48254 53856 30582
48131 43782 28362
46624 16171 28394
15321 0 27087
15500 0 10889
15350 0 36712
15282 0 25978
36316 1514 24704
36378 1514 14325
36534 0 24487
35531 0 5171
37681 0 18992
36872 0 15288
32921 47795 49217
32274 26740 49383
32163 52718 49411
31792 54031 49506
31208 39712 49656
32729 21220 49266
34319 9223 48678
34236 20719 48711
33187 30973 49126
34820 18333 48479
33580 9348 48971
33509 11936 48999
3816 20712 20783
4156 12559 21327
4468 6968 21285
3510 25125 21134
3422 31317 19828
505 20761 29995
451 2575 29711
580 35220 30386
401 3097 29450
518 21903 30068
604 4226 30515
30620 1514 13344
29936 1514 17595
29865 1514 15913
42632 1514 18253
23157 0 29105
23163 0 47210
21586 0 46061
22602 0 27701
37054 11296 7380
37721 14449 7657
37734 9198 8013
37241 21382 6851
37599 19261 7251
9861 7506 39774
10560 31965 42221
10260 6815 40098
10377 38261 42511
13000 0 26129
13417 0 10151
13952 0 18925
29460 1539 7550
2161 54579 30557
2770 41683 30078
1983 52047 28906
3642 24446 29739
2030 51014 28855
10160 0 10674
9474 0 13169
9024 0 15912
3536 53975 38010
3393 32921 37785
3347 16865 37712
3558 27913 38044
3321 42006 37672
35852 55098 2392
13846 1552 31654
30355 38041 499
30575 41816 555
30663 30772 578
31320 53639 746
30102 15716 433
31984 52009 917
59408 19305 25254
26019 24107 3147
26431 35118 2559
26085 31073 2775
26483 16494 3553
26252 15167 3624
21624 7410 50119
21506 35058 50104
21245 25749 50071
21168 42132 50061
21624 31564 50119
20833 9625 50019
3335 34534 30925
3924 23511 30836
5167 10738 32454
5031 8830 31705
5310 7565 32346
12174 10560 46752
11908 47417 46606
13340 2497 47394
12987 12092 47199
12809 19029 47101
19475 0 21244
18593 0 5121
20635 0 37364
10714 1552 18347
44556 17273 35023
44324 11725 34821
45081 31757 35723
45141 34082 35887
40519 1514 25213
62212 37338 24785
34144 49964 3527
34927 49745 3850
33841 30677 4515
34850 46811 3988
33208 45540 3411
15440 1514 20342
15104 1514 14289
15488 1514 15889
25312 17839 3482
24217 25660 3064
23839 29480 2861
25293 12234 3781
24410 31714 2741
44953 12369 33565
44388 13996 34969
44685 21391 35266
44531 4156 17533
4214 23381 18670
4710 10680 19336
3787 38955 17292
4148 30674 17609
49927 43880 27573
42385 17589 6744
42604 24278 6951
42799 19329 7133
43361 26411 7662
43445 32535 7740
43417 42037 7714
16798 3037 43449
3453 24348 21650
3302 27372 21587
1820 54172 21721
2922 32923 21994
52592 45735 21912
61028 39794 23838
26350 1552 13391
26446 1552 12778
27963 1552 12789
18716 1514 14824
17325 1514 9729
18527 1514 17346
7827 32546 10939
7687 30547 11276
7091 48333 10508
7628 48547 9840
7478 22758 12181
37274 3236 8923
2693 42590 29936
2067 51489 29182
2311 47776 29403
2613 40448 28901
2811 37947 29229
49221 9890 32857
49322 35268 32548
49659 18608 31510
49330 14581 32521
49176 17386 32995
49163 15996 33035
29631 22666 3642
30581 32491 3344
29868 27705 3425
31077 14754 4449
31885 11001 4870
32205 32505 3762
32800 41425 3486
33196 27809 4424
32300 9394 5126
34000 21946 45295
34277 18073 44963
33791 30902 45892
43685 37320 11819
42617 13034 12554
44073 32973 12864
42929 20172 12336
43468 29637 12243
23310 15411 42
22813 31891 105
22463 25065 149
22485 10432 146
22536 35633 140
23152 25562 62
10123 55477 5664
11188 1514 37737
11630 1514 35114
6107 1514 23846
1901 50176 22823
3559 16748 24881
2538 36687 24160
1575 47202 16481
1183 50996 17686
1501 36283 16706
1623 22913 16329
1046 53924 18108
857 51606 18691
13652 29127 6095
13712 16466 6834
14850 6029 6842
13709 20391 6596
28153 2199 44180
40374 1199 45200
39201 0 26520
40172 0 34179
39058 0 38811
11038 10 44048
51892 43094 24638
41607 17334 39400
42259 30879 39746
42251 8103 37849
41610 27641 40259
42243 42517 40739
32598 28911 4124
32024 21553 4319
32285 27710 4069
32736 33450 3918
50259 37943 23178
50720 13133 22369
42230 1552 29625
4630 9088 30514
4398 16464 31076
4529 17290 31621
4300 19914 31369
3858 25195 30922
59483 18075 22241
36503 13126 6903
36855 45808 5106
36875 33133 5889
36508 43849 5034
36938 20829 6673
36765 49727 4817
5192 33489 14829
6116 14205 15283
5417 23176 15645
6626 6269 15194
4942 37693 14832
57176 44642 26823
865 32930 18665
882 46973 18613
1167 16481 17735
1017 20276 18197
5381 21 12252
17168 6758 44704
17243 7416 44771
17537 9112 44985
18623 10581 45499
16916 25632 45688
18101 1514 20627
7116 1914 20296
22466 40794 2423
22189 49067 2013
22921 45577 2109
22169 37842 2620
62808 42329 23329
11245 1602 4227
39121 32331 46228
39224 21305 46153
39447 17159 45991
40877 10204 44952
39090 42598 46251
39154 43970 46203
6427 0 18425
7506 0 40293
44679 21876 15035
45246 33321 14804
44791 24594 14933
46590 51036 15440
46089 52424 14203
29438 55255 49855
35067 1514 16859
42140 1546 30983
37305 1514 30060
36289 1514 31339
48424 45145 24971
46287 7750 22780
46376 7537 24376
48299 42730 25036
46791 14868 24751
30287 11122 45928
32056 35548 46820
31977 23771 46191
30102 6559 45724
1988 23546 15420
1794 14006 15835
2209 17927 14954
2333 29825 14689
2017 2865 15358
1936 6212 15533
48243 51315 20459
46384 18698 20000
47629 37270 21240
47486 35535 20985
20622 1770 43010
26398 0 35929
26435 0 21719
25486 0 10081
24338 0 4197
62955 30304 24946
63409 21643 22398
23833 1514 33836
23039 1514 30227
23525 1514 26561
41936 0 13127
40196 0 39802
40841 0 29098
6728 64 40318
44866 55519 10563
60911 44580 26964
33318 1514 22913
33322 1514 38687
31865 760 49163
37907 25882 7038
37848 21120 7309
37524 12279 7657
36589 6606 7352
41558 5616 38475
28164 47330 48280
26957 30172 47510
27298 26527 47271
27315 29274 47416
28599 45195 48111
45002 47621 12868
42901 16655 12643
43880 32013 12656
43849 31474 12659
43408 27605 12351
35175 50 46887
43022 45028 43031
43191 27482 42872
43475 16332 42606
41477 51880 44482
41812 51046 44168
41908 4735 37834
38532 1956 11868
58791 46216 26722
29297 1552 33940
29781 1552 26087
30251 1552 38956
3048 27672 13169
2388 47246 14570
2405 44922 14536
2472 30517 14393
2500 36080 14335
2295 43151 14771
8314 1514 16157
42715 1552 23845
64916 32184 27181
2504 51362 14327
2337 49075 14679
2785 26125 13729
2643 33921 14027
2600 43165 14121
37706 1552 33824
64789 35371 27008
11093 1514 32502
62545 35997 25685
2053 194 32254
39049 1514 26218
23257 1514 27534
23114 1514 42461
22616 1514 37814
23324 1514 39277
13415 1514 34952
9879 26723 5207
10343 50811 4869
9697 25367 5339
9281 36436 5641
10201 40241 4973
9238 46584 5672
38173 1514 37379
63693 38211 27391
47822 34493 24445
46490 11026 23218
47222 22740 24901
40495 5633 39732
62975 42199 25753
4880 51747 37007
5128 54432 37665
5847 39660 37328
6102 40341 37797
6462 44233 38750
19719 1552 29665
18857 1552 12019
19245 1552 18863
26459 1552 23013
27126 1552 28707
27327 12468 46511
28132 13485 46464
28710 27703 47156
27532 9547 46328
27555 14088 46569
16993 0 16423
17203 0 29614
17926 0 14624
16829 0 24687
40267 1516 36991
42815 38349 43225
41666 49270 44305
43166 49475 42896
42233 51019 43772
43578 39242 42509
4923 565 39318
33913 51292 47014
33839 38573 46314
32439 30543 46407
32819 45656 47124
1921 55434 18976
45935 40091 39567
46482 42486 38705
46772 40331 38249
46063 23519 39366
45816 36732 39754
13570 27712 44147
14384 44636 45626
13904 33032 44655
14674 37516 45351
12990 44619 44858
37403 1544 38414
35575 45287 45940
35372 36679 45528
36805 48021 45431
35852 40691 45508
36974 53543 45674
28859 48506 50116
29328 40319 50057
27466 43799 50292
27917 47943 50235
28477 27368 50164
28955 52429 50104
35934 0 37221
35495 0 34401
35923 0 20256
36472 0 32318
44836 48021 37807
44376 47744 38504
44138 33757 37485
45434 49369 36999
2870 31256 23495
2231 44587 22325
3768 14321 23626
4180 6930 23346
3635 16262 24076
42257 13278 12099
43216 33546 11561
42807 21335 12090
42331 23386 11343
22370 2771 44849
37302 1552 37367
13308 13696 2998
14067 9661 2581
14200 30582 2507
13753 3760 2753
13481 26068 2903
12583 2556 3396
6810 53767 39982
6538 53302 39614
8378 33523 40182
8062 42615 40562
8245 28247 39579
33498 55440 2539
39555 30228 7956
39872 19263 9057
39219 6515 9378
39703 15420 9179
16093 4255 6512
3737 15408 23179
3463 19132 24382
4229 6429 23004
3895 10720 24665
3031 28163 23560
40368 312 44380
47196 22060 25303
48655 49436 25390
48741 52302 26457
47866 34784 25467
2566 47751 19640
4468 11959 19865
4190 9216 22103
332 6514 29087
717 35214 31104
778 48901 31424
718 32452 31113
561 12710 30289
591 29362 30445
33118 1552 19592
11545 1532 12784
16413 24419 4955
16313 25192 4950
16587 13784 5497
15610 46637 3997
5526 114 39020
48896 26109 16517
48819 26746 16278
48759 48722 16095
49356 15577 17932
49369 12823 17971
49629 1978 18772
33719 0 9026
35191 0 42799
34834 0 31344
33329 0 7092
45419 55509 39153
52031 47857 24809
46495 18145 11690
45688 20728 10417
46142 16387 11134
45828 26766 10639
46023 17055 10946
46702 10903 12015
40646 504 5906
40133 8815 10067
39061 11046 8897
39599 8564 9584
39799 12267 9501
36796 2497 9379
45043 4739 40751
44310 10854 41637
44839 23682 40997
45541 38992 40149
19653 1176 721
38087 695 46453
167 49104 27960
3 32041 25364
60 54477 26262
0 6200 25315
12 54567 25500
10216 1552 28543
36428 13504 2601
36667 24716 2732
36814 22543 2812
36093 8758 2417
36703 21820 2752
36670 50124 2734
26577 55344 49141
49643 386 27767
6427 51435 11051
6728 40101 11635
7337 49542 10109
8096 10752 12440
7627 19223 12298
46124 37684 16124
46930 49714 16329
44806 12497 16480
45277 20085 16530
34613 23692 1813
35286 26774 2079
35241 22050 2061
34729 23128 1859
35916 1905 2329
2419 55153 31954
13302 13153 43042
13046 6785 42435
12676 33492 43928
13205 16328 43180
12167 29614 43303
45071 21382 15930
45526 24008 16567
45951 28309 16932
46066 35368 16292
59702 14616 24967
260 1126 27523
939 55507 26370
22262 25257 3285
21008 45186 2371
23661 6136 4137
22681 12914 3896
5545 2759 27947
48697 19564 15905
48741 35098 16039
49190 27687 17420
48742 9065 16044
51773 43534 22203
10088 15049 45319
9290 5864 44740
9962 27726 45228
10693 8755 45759
9880 28579 45168
9779 11829 45095
29376 1552 13739
38254 23941 46769
37643 32886 47105
37581 34918 47139
37270 47584 47310
37835 27544 46999
37672 49252 47089
18838 25510 3996
20643 8233 4485
18905 23332 4099
19079 20814 4193
9537 54874 42949
12286 1514 16379
11691 1514 19031
32097 49109 2818
31523 38838 3236
31512 39885 3176
31630 10360 4833
23780 3415 45514
35434 46681 4271
34524 8209 6114
35981 18073 6314
35600 25221 5669
47294 27444 22281
46409 15889 20931
47100 24563 22085
46313 11610 21648
43004 189 41688
40886 1514 19130
16329 28061 1621
16707 22208 1472
16615 12480 1508
17216 13049 1270
16452 5576 1572
16761 41751 1450
15088 26182 44889
14623 16712 44056
14344 6850 43302
14787 26804 44761
15158 7879 43813
34823 0 8121
33831 0 18035
34248 0 20754
33867 0 19907
49730 16934 31171
49731 20011 31166
49881 32848 30379
49997 40116 29772
50013 35469 29685
49816 33571 30718
12566 1514 18931
12493 1514 29468
5063 23739 10049
5068 35039 10045
5229 36635 9849
5215 13576 9866
4911 11756 10234
4926 25737 10216
17167 35139 49084
17182 47696 49090
15614 45936 48470
17126 14354 49068
17362 5017 49162
41275 1514 32588
11164 54282 6173
13344 17514 7015
12721 42212 5838
11295 42536 6852
12153 39736 6413
7930 1577 21182
51854 12569 21655
47852 181 16497
27933 36990 141
28068 30630 158
27462 42020 82
27226 33200 52
27941 50277 142
47540 30681 27162
46976 20125 27159
47945 38251 27164
46298 6350 26231
47170 24616 27895
7711 23944 7085
8788 50944 6074
7594 29457 7196
7327 45880 7446
7612 49618 7178
6276 31301 37170
7185 24140 37889
6045 35002 37174
6547 35600 38027
6973 21928 37335
28009 55300 48924
6682 20662 13623
7145 14472 13511
7538 18592 12479
7018 11239 14032
6678 3361 16898
12935 26861 43679
13411 7176 42726
12613 23123 43198
12508 47389 44723
62090 43805 25257
4535 47894 35955
5047 30407 34850
5494 27386 35422
4590 41568 35278
4320 39911 34497
40002 14961 4786
40933 20179 5463
39130 5053 4153
40725 29152 5311
39688 3111 4558
41151 38601 5621
62726 37172 26774
3298 47046 32972
3175 52597 33552
2947 52659 32863
2708 52332 32068
3877 33278 32380
9918 3452 11738
51501 14844 21404
29130 27664 3273
27584 50166 1867
28247 45495 2203
29141 45838 2297
29068 24627 3428
35589 1552 22665
19173 27584 3796
20612 7431 4537
18286 44773 3076
18713 37677 3357
18266 1552 10409
43608 21802 37130
43970 28948 37272
43104 9353 36684
43791 24786 37139
44132 42848 38401
16544 31547 4493
16151 36737 4352
17349 18579 4920
16922 7864 5704
17948 10076 5171
3375 34563 12617
3650 7951 12184
3455 43374 12491
3706 14720 12097
3481 40506 12451
3325 4360 12697
46420 27559 18484
45538 15043 17933
46328 24394 18749
45468 12033 18237
50458 18871 25324
50361 19769 26871
50295 7636 27926
50441 12399 25594
50334 12131 27304
50370 6924 26720
57916 45205 27524
10351 1552 22786
20398 34962 3075
20940 30259 3194
20092 42833 2718
20591 39473 2776
38667 0 24972
38348 0 13999
38061 0 39590
10771 0 10456
10412 0 40234
10830 0 28256
433 45863 20755
568 48321 20049
499 38473 20410
673 46261 19496
495 37168 20432
454 31776 20647
35131 16528 44433
34897 8501 44073
36714 38086 44876
36493 22582 44053
36896 39523 44863
33930 31144 1542
33695 41580 1449
34363 40796 1713
33645 28750 1429
33067 39375 1200
56519 45419 27127
15662 27487 45284
15222 35598 45536
14290 10081 43469
15405 29305 45253
55528 45222 26047
49382 47593 32362
48902 23762 33839
48696 26270 34472
48730 49839 34370
49259 52729 32740
23533 39501 2357
21870 42848 2388
22791 30726 2923
22856 35556 2656
21449 51489 1976
6265 10106 41776
6060 19313 41529
5862 3192 41290
5153 9463 40433
6632 16943 42220
41169 2226 14384
37107 45984 2973
38064 44375 3500
36361 32151 2564
36124 30636 2434
36187 17153 2468
38034 53266 3483
25409 18311 46917
26344 43675 48271
24778 17551 46877
25290 7431 46337
25895 6494 46287
64888 37558 26016
12245 1552 20272
29852 1514 16911
29670 1514 24544
30077 1514 22168
11623 245 5005
20189 20828 46467
19527 13445 45890
20623 13088 46152
20084 16918 46225
65995 29786 24248
21338 53590 50083
23215 39276 50320
22684 40606 50253
22141 53326 50184
23505 40331 50357
21132 1545 42638
8755 39711 41093
9495 27218 40873
9765 24326 40915
9152 31206 40843
9213 39213 41487
51 34140 24250
38 31523 24462
34 35446 24530
20 22158 24741
72 3615 23923
39613 0 7034
39183 0 22020
38910 0 19203
13753 1514 32203
14764 1514 33259
14866 1514 29222
7842 38081 39916
8062 39183 40275
9357 15244 39834
7285 45637 39875
18173 47893 49379
19536 44187 49729
19105 37357 49619
20050 36206 49861
20177 52909 49894
19518 42601 49725
6028 40423 8882
6111 44325 8784
5642 39981 9349
6431 39425 8396
6313 32317 8539
1643 54885 27601
46239 35116 33683
46163 47592 35409
46685 47167 34246
46240 39081 34179
45644 37403 35235
11555 3174 10332
39669 55359 6044
14902 18038 6083
13881 34599 5636
13948 11455 7009
14095 20063 6404
43168 1526 30445
3696 10284 12112
3525 25092 12381
4273 9505 11202
3527 18416 12377
4201 13096 11316
49735 35183 25823
3912 43939 38602
3214 49577 37502
3903 53278 38590
4198 51530 39054
3368 27222 37745
34223 13950 48716
34461 14557 48622
33882 29843 48851
33498 8607 49003
34619 24773 48559
50868 17058 27678
29029 1552 22894
53622 44863 24600
40865 1552 31602
39613 1552 32681
18321 54810 2511
1392 40830 17043
1557 14854 16534
1464 50312 16824
1649 22103 16254
1588 43708 16436
44869 18018 9412
45055 8922 9637
44618 8900 9110
44509 18024 8977
43776 4162 8091
58563 15933 27549
4357 26282 11071
3808 46795 11934
4745 9196 10459
3369 47548 12627
4103 27560 11469
9885 1514 35469
13662 0 24247
14681 0 10894
13004 0 27392
45511 0 24765
44749 0 15074
17927 1552 14783
17785 1552 17916
17956 1552 34876
32967 0 42811
32820 0 32513
34517 0 45208
34008 0 32375
62125 24571 23392
850 7104 31663
821 17818 31573
1051 49256 32279
928 11096 31907
1133 23394 32537
46464 25191 31344
47187 45960 32707
46618 33583 32319
46779 30665 31320
47881 52575 31714
29501 0 16272
29570 0 6952
28688 0 46790
29184 0 28760
28431 0 39143
38343 33811 3653
38253 23314 3603
37954 37437 3440
38437 16432 3705
36878 11884 2848
37372 24022 3120
61738 43228 26991
40690 1514 17581
42735 1540 20407
30027 37676 49959
31531 14816 49573
30457 39038 49849
30516 42107 49834
30733 18473 49778
5896 4063 17761
41672 35855 44299
41459 49959 44499
41605 27201 44362
41597 17605 44370
41399 37360 44555
41730 39213 44244
38220 1552 25576
38573 1552 23147
14272 18634 2468
14026 45021 2603
13401 16344 2947
13155 15692 3083
13657 24226 2807
12997 23966 3169
44506 0 18627
35799 1552 32392
33477 1514 30113
50111 21936 25490
24538 6080 46264
24717 16291 46810
26612 24070 47225
25816 10548 46503
24933 15735 46780
16730 54991 48870
5048 53866 12889
5903 35428 13379
6042 22384 14459
5823 44024 12648
5363 51649 12614
8028 43661 9765
8966 23385 10330
8775 9568 11717
9148 14808 10829
42283 55234 6883
37111 529 46826
5537 24711 35178
5272 31250 35434
4456 37334 34463
4112 50141 35337
20559 31455 47147
20569 36535 47430
20702 30143 47112
20982 10523 46103
62348 38059 26526
9036 2151 14971
10870 1514 31236
3351 0 17758
13949 0 34706
14631 0 45186
13800 0 33794
13661 0 42126
32911 1552 17535
18738 3724 849
19149 11612 744
17761 6376 1100
20483 25490 402
20147 10350 488
42470 2953 35380
37796 3759 8916
10711 18176 9020
10406 10216 9890
9754 22657 9592
10062 12879 10017
2050 0 23798
10613 1514 35397
17413 1514 19918
18257 1514 32228
18974 1514 39879
10558 48787 43399
11793 32419 43216
11888 34375 43414
11167 42051 43397
11437 16136 41884
58472 13629 25809
4177 28704 39022
4652 19028 39767
4266 10152 39159
4674 3792 39802
4475 34094 39489
4440 20299 39435
20978 2240 43986
46832 35018 18464
47247 52922 16651
47419 52988 17169
47221 51067 16891
44792 13639 9320
43845 23205 8175
45131 6227 9729
43661 6896 7952
44424 23906 8874
44074 24422 8451
43715 17960 36579
43295 23287 37771
13986 22391 47748
12065 51565 46692
14203 33366 47867
13837 41195 47666
12888 54737 47145
13812 43910 47652
60369 45650 23817
7067 1532 21982
16966 1552 24003
17537 1552 23030
12747 55511 4083
5591 8187 17153
5586 10902 16821
4860 43245 14313
5713 23726 14943
54579 14167 23730
48258 17999 35405
48678 17106 34512
48194 3256 35540
48184 2525 35562
48164 26097 35605
55033 48076 26354
12881 1514 39778
11616 1514 21901
7360 1520 31546
46835 17095 12224
46351 25451 11463
45985 13009 10885
46878 16055 12293
46581 7835 11824
45883 45417 10726
37175 21707 43592
38168 49636 44713
37789 22193 43178
37760 27910 43576
37703 31283 43841
6641 53237 8141
6608 29133 8181
6496 35738 8318
6518 23233 8290
5915 33893 9020
6808 49120 7940
28645 21972 50143
27596 26178 50275
27320 27922 50310
27665 7645 50267
28056 3474 50217
11380 371 45421
48585 40775 15664
48248 45730 14947
48143 47687 14725
48156 39568 14751
48648 21995 15798
48680 25844 15866
21682 0 18809
22401 0 21037
22065 0 4834
21509 0 2552
22572 0 10459
49448 23440 32160
49632 34113 31594
49213 29491 32883
49515 24904 31952
49279 25133 32678
25304 1552 18103
26218 1552 9484
51666 46904 26895
141 30519 22829
139 45844 22851
120 37478 23160
177 35313 22263
143 23055 22800
41949 1524 33799
7822 6052 43393
6896 17920 42523
7170 14983 42780
7139 12593 42751
47349 60 34281
18419 0 43604
19636 0 37435
18149 0 38781
18276 0 16314
2508 656 35140
62612 40173 27489
8166 10052 12414
9299 17513 10419
8281 22511 11232
8026 37134 10316
44594 0 21104
44757 0 21876
14072 1552 23543
14695 1552 19088
63337 41533 25925
28517 1552 35631
8350 1514 19278
56350 12392 22272
83 48409 23751
139 16876 22853
156 15435 22584
190 8386 22044
39680 1552 34171
24541 3561 4752
17307 39398 46633
16790 45289 46766
15830 46476 46454
15497 42628 46101
16687 22611 45423
11037 1552 27916
28691 3981 4814
28198 43666 48079
27750 31449 47478
27776 50036 48475
28546 39207 47795
28543 49916 48372
41294 1552 26609
19348 36193 47098
19393 42973 47483
19039 21929 46232
18992 34261 46900
19783 38806 47353
39700 1514 25967
16008 1514 17238
15358 1514 34146
5208 38157 40501
6134 45683 41618
5020 23015 40272
5868 39733 41298
5547 30437 40910
23975 1552 35532
23522 1552 30859
24113 1552 39373
56597 14126 21934
63986 25878 22125
39539 46163 4450
40227 40428 4950
39405 37636 4352
41106 52108 5588
39738 51381 4595
26065 4384 4380
43594 21512 13251
44905 32476 14224
44413 25269 14167
44105 18535 14352
31802 1552 34170
31491 1552 29788
7180 1046 7795
23411 1552 8029
22030 1552 14731
23023 1552 17668
38280 40872 3619
37315 20607 3087
36529 5278 2656
36664 7217 2731
6336 40946 12147
6434 43636 11726
7536 16586 12684
7206 25649 12302
52780 45344 26819
26777 2289 44476
25007 0 14721
25721 0 24480
26155 0 39140
40977 55221 5694
33772 46839 48895
35648 23782 48152
35767 52197 48104
35637 12520 48156
34905 41591 48446
3156 55511 14883
17470 36301 46519
17330 19434 45496
18108 29603 46387
16540 12063 44760
19491 3069 44473
13606 54605 4568
13698 44206 5151
14774 31815 5315
15252 33389 4956
3638 36943 18098
3238 42836 18313
4071 19932 19703
4545 10922 19802
2971 41186 19420
2745 34294 27484
2881 32342 27981
1671 54119 27259
2635 36620 27705
2303 40985 26135
37072 42588 47419
38290 21709 46749
36337 53761 47823
37930 50152 46948
65436 33308 26744
48090 49823 35763
47673 46421 36648
47458 19248 37105
47803 42876 36372
48509 54727 34871
28182 8034 172
28673 20760 235
28956 22211 270
29073 33996 285
29593 27572 351
28691 7328 237
11769 15073 3845
12185 53188 3616
11805 14412 3825
12912 31845 3216
12328 47075 3537
23463 1552 22056
6452 0 15742
6754 0 22670
9064 1552 20507
245 21642 21746
203 34547 21962
588 6800 19942
641 11540 19659
468 23577 20576
633 8444 19711
13809 1552 33631
13753 1552 27933
35278 1552 11054
21612 1514 8896
20806 1514 29464
21590 1514 17011
21683 3166 45082
25250 3997 50374
25244 9256 50374
24860 19864 50374
23738 14738 50374
24065 28120 50374
43216 16631 13141
44325 19244 14629
44478 27322 14064
13889 587 47180
47531 31052 22740
47675 33061 23329
47964 37921 23787
46921 19937 22498
47594 36 33282
8178 0 33134
9036 0 30144
8517 0 19137
8446 4209 12928
25403 1514 20771
25740 1514 28256
26192 1514 35337
29643 15738 50017
27783 39159 50252
27611 45097 50274
27174 52226 50329
29643 36128 50017
29778 35074 50000
26202 0 48540
23989 0 5936
24741 0 21272
24449 0 22025
28905 28850 47193
28256 16822 46628
28559 7503 46088
29114 39940 47763
29006 36783 47607
41299 1552 20150
2855 33148 28094
4277 13312 29898
4292 9485 28884
4382 10863 29751
33662 182 2496
32127 1552 28264
32680 1552 20547
61099 17976 27270
46266 55392 38409
3541 18289 26522
2504 37130 26043
3837 11219 25215
2217 42170 25777
10412 40403 45555
9808 42521 45116
10701 31427 45765
10293 42218 45468
10281 44894 45460
11562 11015 46390
