ply
format ascii 1.0
element vertex 1854
property float x
property float y
property float z
end_header
4410 20077 664
8805 10306 1325
8808 21759 3086
9141 20662 3055
6382 20302 3169
5953 21928 3135
5224 11627 1485
6564 10215 2993
8898 14950 2490
7641 6400 662
5498 20490 462
3963 22686 2925
7056 10616 401
8453 5013 2649
5957 20077 1133
4956 73099 1478
4882 71856 1473
3564 73899 1786
3675 75949 1797
4168 73979 1659
4240 73273 1632
3716 70404 1695
3145 68298 1781
4461 75249 1619
5138 75052 1472
3205 69483 1788
5677 75401 1364
8569 13092 2722
7131 16702 3271
8596 19096 680
1995 22686 2663
7050 3411 210
9088 878 2379
4350 21296 2991
3564 21801 591
4962 781 1729
9730 35762 2034
8097 43705 2364
8298 36831 2323
7116 60998 2560
8206 50876 2342
7812 51941 2420
7104 40156 2563
9125 43906 2157
9766 42675 2027
7705 35803 2443
7344 35148 2515
7892 55686 2405
7295 41814 2524
7152 57608 2553
9108 37708 2160
7441 39553 2495
7535 38763 2477
7366 43373 2511
7461 47040 2490
8591 49927 2264
8520 47008 2279
8666 41917 2249
7428 42843 2498
7682 59526 2447
8051 45318 2373
9092 39398 2164
8463 44314 2290
7965 53050 2390
7151 66378 2553
7705 45093 2442
8801 34241 2222
8980 46503 2186
7597 42276 2464
7698 53562 2444
9630 37066 2056
10675 34009 1845
7142 49510 2554
9005 47130 2181
7304 60109 2523
7242 52295 2535
7657 57520 2452
7666 58818 2450
8140 50472 2355
7507 36388 2482
9217 42007 2138
8880 48799 2206
7965 33951 2390
8970 40097 2187
8527 47819 2277
8835 45091 2215
8978 38277 2187
8229 40730 2337
6066 2923 363
7883 13888 379
5569 8555 2143
6545 4602 3083
6495 13359 339
7213 12945 3186
5996 7550 983
10905 22366 697
12115 21316 741
13541 22686 1128
5000 22686 3011
6534 4530 390
9262 22686 1898
2134 22686 1822
2708 22686 1798
872 22686 2429
5540 22686 2075
5786 3331 2932
13933 20077 2309
12273 20077 1751
8890 16846 2533
5163 17994 2367
2097 20447 821
5129 13345 2029
9027 21179 420
8093 10031 668
6151 22686 1199
5811 22686 1453
1923 22686 1253
5197 22686 1304
11202 22686 2010
6196 22686 2450
5106 22686 2342
1501 22686 2469
13895 22686 2281
9108 1794 2749
580 22038 967
5059 14711 1542
10234 20077 769
13509 20077 1181
8676 14602 2694
5448 8752 1681
6387 16102 310
10862 31602 1818
9570 27415 2100
9454 28244 2119
10647 30904 1865
10347 25417 1953
9178 33244 2149
8525 33467 2279
9738 31311 2045
10610 33467 1859
10125 31620 1966
7984 33515 2388
8653 30375 2269
10139 28534 1979
9633 32339 2062
10415 32238 1905
10338 30583 1928
10143 30941 1966
10389 25822 1942
9123 31393 2168
13657 20487 1007
7696 3226 259
9093 19985 1968
5879 15098 2956
7149 16037 3266
8271 59721 2336
9275 59058 2157
10389 55038 1949
9247 58606 2161
9160 64527 2192
10170 51340 1978
8515 55003 2280
9320 49629 2123
10986 67040 1876
9289 60369 2157
9043 63427 2210
9929 66245 2061
10813 55994 1877
10165 47683 1969
10145 56238 1995
10147 49282 1976
9701 48920 2055
9919 51002 2021
9693 65364 2101
9722 43886 2037
10662 48363 1883
7988 61797 2392
9314 50142 2126
8089 64802 2382
10733 54064 1886
10693 53042 1890
10097 53259 1996
11032 55585 1837
10816 57843 1881
10170 45000 1960
8775 59062 2245
10472 45912 1910
10374 59211 1963
10534 65051 1950
10804 62684 1896
10676 53582 1894
7707 66557 2454
10294 43846 1936
10533 37337 1876
10814 58732 1884
9825 48239 2030
9802 55470 2055
9407 61102 2138
9702 55900 2072
8762 64904 2262
10818 49916 1860
10632 41702 1870
10874 44288 1834
10268 58510 1980
11002 48666 1824
9080 55326 2182
10411 59925 1958
9031 62356 2209
10031 45835 1987
9903 52617 2028
7524 63765 2479
7212 67374 2542
9886 61906 2057
9150 61857 2187
8160 65546 2371
7831 64154 2426
10879 57355 1869
6417 11393 455
8388 16764 544
7494 30059 1156
9140 31846 1483
7983 27844 1253
8894 29293 1434
9341 29378 1523
7508 29363 1159
7150 30933 1089
8304 32740 1317
7878 25209 1232
9772 32850 1608
9830 31561 1620
7237 28895 1105
8432 26788 1342
7756 27351 1208
7638 24518 1185
7697 33388 1196
7323 27124 1122
8612 30542 1378
6048 14278 3029
4926 26400 2140
4169 24132 2008
5772 23797 2312
5479 27176 2241
4558 25703 2073
5695 26358 2285
3911 31215 1926
3809 25958 1931
3387 23004 1866
3811 23578 1943
5942 25603 2335
5045 27080 2160
4083 28531 1971
3491 32938 1838
5040 25054 2168
5139 25547 2185
4399 30643 2020
4948 23832 2157
9103 20077 2776
5659 19109 2857
8252 6701 2580
12985 20263 965
8792 5150 2198
9829 22101 539
8552 10510 950
7859 8874 661
7964 7731 822
5816 20077 2338
5795 12280 679
3902 21112 2945
3401 21666 2893
12891 22686 1004
8950 22686 1070
7631 1566 3470
14190 21677 2361
10896 20494 2882
10314 21794 2942
5368 19316 882
7124 71837 1083
7717 74177 1206
8319 70757 1331
10228 75585 1726
7371 75747 1134
7326 68853 1125
9318 75445 1537
7841 73116 1231
8650 74537 1399
8608 75486 1390
7537 74659 1168
8064 75793 1277
8230 73225 1312
7881 75423 1240
7864 72443 1236
10666 68618 1934
7718 72651 2455
7828 69895 2435
10640 67898 1939
8112 73352 2386
9632 70699 2117
8950 71616 2238
8917 68342 2244
9865 67746 2076
7157 73811 2554
8948 69992 2238
7482 73029 2497
7424 74994 2507
8109 71199 2386
8018 68105 2402
6753 1029 109
8508 6422 2267
3410 30562 1806
3663 27803 1741
4098 28151 1654
4072 30704 1673
3508 28681 1776
4953 32752 1505
6879 33188 1117
4606 28452 1553
4688 29136 1540
6466 33180 1202
4572 33756 1587
3340 25743 1796
3476 24169 1760
3208 23699 1812
4059 33509 1689
4864 29994 1509
4410 31357 1607
6014 30829 1280
3705 31971 1753
6563 11545 3075
6062 9432 741
10169 21227 528
6050 19655 3036
7703 18314 3218
5489 296 1553
8531 4270 749
12696 21316 2676
12265 22461 2727
8235 2646 390
5449 12197 981
7462 8882 554
6662 15431 258
7692 14723 298
2619 20815 2808
8145 9458 748
5958 11307 648
8078 20077 1226
6570 16871 3225
6543 71141 1174
6536 71715 1175
5608 68419 1340
6866 74495 1117
3014 67694 1800
3998 69237 1626
6832 72721 1123
6021 70094 1267
6465 73966 1188
5617 70315 1338
4628 69657 1514
4792 68514 1485
6726 70020 1141
781 20077 1298
1168 20077 1424
5445 11229 1076
4096 20077 1942
1528 20077 1769
7277 14354 253
8137 7416 2523
8183 20077 722
7087 84909 1369
6805 92423 1676
6903 95992 1773
6881 88698 1537
6375 3644 334
5841 9975 2662
7369 81821 1319
10083 78652 1779
7664 81227 1361
8194 85040 1595
7885 87110 1599
8639 76728 1417
8121 79401 1397
8316 79039 1425
7360 79743 1250
9613 79656 1714
8158 83665 1543
8722 85005 1704
7350 89989 1582
7701 83427 1441
7843 77417 1274
8147 88606 1702
8949 77163 1495
8269 86697 1665
9368 77307 1587
8135 83042 1518
8059 81340 1447
8032 91067 1758
7514 82461 1370
8776 85879 1743
7981 84288 1527
8798 82840 1649
7184 86647 1438
7390 93634 1709
8654 83889 1653
7290 85912 1436
8447 82534 1566
7399 84290 1406
8460 82071 1554
7666 4378 3106
5650 6717 2273
10918 64015 1880
10089 61238 2019
9615 57362 2093
9762 45011 2032
9781 46313 2033
10731 40080 1848
9324 54914 2137
8781 59518 2246
10889 39243 1818
9487 63585 2132
9628 62749 2105
7445 65019 2495
10770 46230 1858
8634 56632 2264
10245 63970 1998
10849 43128 1836
10175 54636 1986
10703 60894 1909
10534 44546 1895
9864 59336 2054
9968 64748 2050
10495 38214 1885
8593 62830 2288
9119 53876 2171
9519 47845 2084
11123 64782 1846
8257 63878 2350
9732 56611 2070
8154 67012 2376
10379 38933 1907
9144 52854 2164
10854 54596 1866
9618 53562 2082
10471 46715 1912
9316 66894 2171
10427 64641 1968
8662 58522 2264
10723 45187 1864
8265 63340 2347
10523 42094 1890
8581 12392 813
6994 1556 3511
8633 21268 3101
4437 22536 613
7110 7446 643
7991 19121 3124
9004 13145 1307
6595 13793 3180
1352 21297 827
6505 8318 2822
9156 16613 1513
7526 22686 2969
4311 21426 498
6917 43750 2529
6180 51150 2373
5890 53168 2311
6023 64641 2340
6462 34774 2432
6286 38397 2395
6801 41751 2504
4748 64716 2070
5054 61502 2135
6039 50564 2343
4724 72631 2065
4635 68165 2045
5723 50111 2276
5657 63511 2262
5756 45613 2283
5792 59741 2291
4198 74541 1953
6582 63023 2458
4284 66096 1971
5751 58351 2282
6869 54802 2518
4929 71287 2107
6623 50206 2467
6171 67870 2371
5520 48152 2232
6466 68203 2433
5217 56157 2168
6837 40746 2512
6633 56071 2469
6586 39536 2459
6757 56758 2495
4849 58478 2091
7057 23880 2558
6481 48196 2435
5039 54933 2131
6794 38408 2503
5721 46368 2276
6908 29010 2527
5077 69676 2140
6738 43296 2490
6231 58585 2384
5815 49497 2296
7078 36548 2563
6100 53898 2356
6410 46546 2420
7010 35708 2548
6671 49254 2477
6865 58600 2518
6272 65109 2392
5679 52151 2267
6466 53641 2433
6032 51544 2341
7006 27637 2547
5251 58375 2176
6288 54322 2396
6626 51320 2467
6943 31232 2534
6243 59012 2386
5921 65997 2318
5380 51228 2204
6760 60122 2495
5070 59905 2138
5186 65751 2162
6814 37322 2507
5233 63919 2172
4865 70311 2095
4145 68291 1941
4504 66797 2017
5261 65054 2179
9520 56278 1526
9823 65022 1633
8829 54228 1435
10139 63571 1654
10268 60296 1640
8713 47135 1363
11134 68083 1799
9029 50693 1427
9531 53402 1503
7794 40979 1212
9196 52235 1457
10815 73480 1810
8625 51153 1387
7431 37013 1140
10727 73991 1805
8847 48538 1389
7984 41623 1238
8162 45006 1286
9991 58966 1599
10209 65559 1678
8089 43557 1266
11055 70219 1808
8265 47490 1318
9736 61677 1595
10509 69900 1747
9781 62811 1609
5672 14633 648
10472 22686 2198
12525 22686 2380
362 22686 2473
12383 22686 1884
7861 14037 3112
5913 2431 3080
3827 20077 2285
8966 81518 1995
7805 84880 2131
8817 80448 2063
8065 90678 1886
7761 87642 2050
8593 88189 1856
7390 80581 2358
8679 79421 2125
8906 76249 2181
8515 76717 2247
8406 85622 1979
8340 84367 2034
8108 91878 1838
7950 76802 2362
9843 79227 1886
8798 87013 1852
8990 78444 2091
7468 89126 2063
9262 84181 1846
7562 93277 1907
7398 89942 2051
7405 83808 2249
7504 81852 2292
7425 85930 2176
7116 76659 2542
8035 90276 1906
6886 8125 600
6934 61490 1108
5730 42892 1352
6331 40832 1231
6493 52797 1198
6432 39130 1210
6528 49094 1191
6486 51351 1199
5149 49617 1470
6086 48500 1280
6055 33832 1287
6916 51045 1112
4007 37614 1701
6704 54350 1155
6811 38793 1134
6892 42061 1117
4032 34887 1696
5739 36873 1351
6666 47296 1163
6111 45864 1275
5137 37917 1472
6041 50654 1289
4303 40448 1641
6859 63005 1123
6212 36862 1255
5327 50989 1434
5710 44311 1356
5771 53150 1344
5897 43530 1318
3688 34041 1766
5790 41565 1340
5591 45891 1380
7079 45148 1079
4417 42444 1618
4150 39405 1672
5629 52011 1373
5503 42144 1398
6493 34157 1198
7002 51990 1095
5964 41028 1305
6469 54694 1202
5590 49717 1380
6870 46028 1121
5329 43647 1433
5611 35025 1377
7043 50338 1087
5421 46592 1415
6325 47928 1232
6454 59839 1205
6437 59261 1209
6556 43980 1185
6365 57865 1223
4549 36207 1591
5197 47779 1460
8540 7918 1332
8929 19492 2440
7625 22088 346
7488 22499 409
8793 20052 933
6182 24077 2388
3902 25290 1952
6480 23483 2446
4422 24871 2053
5786 24288 2312
5172 23372 2201
4436 27144 2044
3227 25193 1825
3778 30200 1905
4610 28833 2069
6855 22686 2520
5479 18512 2734
6518 13326 3146
13040 20077 2467
8102 724 400
5973 4684 623
5544 5575 1193
13130 22096 910
1111 22486 975
6684 75822 1159
5060 74272 1476
4125 72529 1644
6277 76098 1249
3147 70098 1810
4644 72738 1538
4295 71615 1593
4758 75791 1565
5380 19577 2584
5258 45393 2217
4722 57311 2075
4184 56416 2029
4432 51348 2092
3671 65174 1913
3541 69996 1864
4562 56803 2063
3805 62074 1949
3505 67876 1877
5044 50794 2155
5746 39655 2307
5127 49886 2170
4394 52173 2082
6804 26017 2512
3591 70850 1862
5413 45946 2228
5253 42505 2238
5493 40139 2279
4384 62689 2000
4499 52762 2087
4672 58875 2058
3696 60942 1948
5593 39125 2297
3506 63860 1907
3961 59535 1984
7433 17112 3241
7647 11923 389
8593 8842 1226
10117 70119 1703
7644 59843 1191
7657 67236 1194
7957 64896 1256
8913 57761 1454
8640 52871 1397
8691 59031 1408
7494 56054 1160
8224 66782 1311
7941 50541 1252
7304 55572 1120
7540 53585 1169
7568 46496 1175
7599 65920 1182
8361 61127 1339
7647 58063 1192
9756 69940 1628
9099 58432 1492
7859 52570 1235
7464 45019 1153
7963 54664 1257
8738 70905 1418
8296 55387 1326
10312 74035 1744
7129 55040 1084
7272 47788 1114
8694 55655 1408
8700 62491 1410
7980 63187 1261
8384 54464 1344
7845 64019 1233
10017 72938 1683
7098 65492 1078
8623 69917 1394
9117 63367 1496
7874 57636 1239
8400 68292 1348
8979 66604 1468
9535 67728 1583
7382 48197 1136
7254 59202 1110
7540 63604 1169
7736 54306 1210
8101 54056 1285
7868 55617 1237
9897 69055 1658
7602 58544 1182
9302 63882 1534
0 21092 1913
0 22427 2470
5059 17579 2090
5442 5244 2238
8802 16910 863
7532 20224 421
14190 21896 1138
8024 8978 2754
662 21161 2569
86 21573 2494
7513 6044 2886
6470 13887 329
7203 21781 3216
7463 20529 3197
5247 15523 1044
4779 22686 890
7672 18798 252
10054 20077 2382
2770 20312 2826
2465 22636 2790
5333 3633 950
5234 3271 2464
5875 21318 357
5800 9393 2559
8477 22686 2688
8569 14534 685
8758 5673 2015
10949 21252 2875
5391 12005 2409
1685 21415 2699
2023 20139 2737
8590 18484 640
7016 97570 1842
8470 20077 2215
7306 5493 481
7081 83631 1328
6828 94318 1734
8471 1001 3037
5054 16468 2072
5184 22218 3068
5027 21505 3053
5446 9554 2126
7156 5318 3040
10302 20077 2830
7665 3299 3224
5540 14734 2723
6186 5631 678
5572 5760 2256
7630 1884 0
5140 2089 760
4827 2121 2219
9206 19124 1752
8789 11351 1135
11773 20279 2784
11714 21589 2791
7650 12742 351
6776 10060 464
8916 20077 1582
14067 20508 2499
9125 15880 1373
7103 83281 2279
7103 84119 2287
13204 20077 1980
9777 20077 2012
2403 22298 781
4825 20077 2046
7994 20077 2663
8369 9452 2584
5485 20077 1771
8326 8268 2475
8824 80608 1582
8670 81195 1569
9211 77866 1573
8601 78745 1475
9417 78531 1637
9330 79952 1665
9564 76161 1590
8547 81646 1558
7377 89097 1558
7703 78284 1274
7713 91796 1716
9370 80658 1697
7554 80504 1315
8525 77121 1406
8016 87897 1651
4946 1525 917
6884 21584 276
7917 6941 2667
7908 29335 1238
8790 33281 1413
9309 30594 1516
8142 31280 1285
8959 32753 1447
9072 29853 1469
8775 28767 1411
7429 31485 1143
8374 32088 1331
9756 33500 1605
7178 26273 1093
9369 32725 1528
7177 33460 1093
7509 28359 1159
8792 31170 1414
8497 33639 1355
14190 20272 1571
3952 20140 679
9894 20673 2985
9453 20145 3027
0 20107 1783
7414 15829 240
9158 2191 998
5391 429 2166
8258 15187 491
7183 4768 3116
6356 10229 549
6259 2975 3170
8161 2171 3244
8426 12226 2779
6314 46 1235
645 22267 2567
1014 21578 2615
7140 11299 361
9128 22293 506
5956 21734 359
6834 20077 2380
5065 20378 3057
9025 19319 1170
6849 8055 2869
5340 2524 2670
4238 22686 2575
5793 11824 2771
4852 20077 980
3735 20077 1237
6956 20077 1296
2134 20077 1062
6323 20077 1630
10012 35864 1650
10235 42804 1673
10360 55438 1659
10440 52347 1684
9909 35128 1631
9949 47778 1601
8558 39449 1350
9143 44438 1451
10734 40533 1779
9215 34021 1497
9090 41722 1449
10412 34932 1732
10505 39504 1736
10169 53628 1627
10409 57428 1663
8259 39165 1291
9908 54192 1573
9167 49259 1441
10046 47384 1621
9225 39585 1482
8824 42625 1393
8670 36510 1381
8671 45342 1354
9423 43880 1508
10809 51316 1761
9808 46629 1576
8608 42985 1349
10016 56608 1587
8836 46519 1384
9637 48535 1537
9869 45542 1592
9922 51348 1585
9467 47383 1506
11097 58318 1797
10252 39949 1685
7802 38474 1203
11186 59919 1810
10022 40513 1637
5602 10693 2512
3163 20077 2665
13534 21841 2567
6296 8876 672
5993 15720 3033
5321 1279 2879
692 20090 2572
6071 13798 453
9435 20077 625
8095 15264 3070
8848 9799 1675
5051 3474 2010
7335 16434 229
5267 4945 1936
7917 5464 610
5508 4654 970
9020 38879 1443
10531 56299 1691
7920 37396 1230
10669 36813 1777
10998 48095 1808
8893 44774 1400
8850 38166 1412
9736 50724 1549
11125 61159 1794
8955 37281 1435
10216 44313 1664
8406 42299 1311
8557 40134 1348
9410 46417 1498
10289 48041 1668
9554 39926 1546
8120 34330 1278
9516 43160 1529
8843 35930 1417
9829 52825 1562
10980 56370 1779
8226 38693 1286
9792 34055 1611
10685 41184 1767
8333 40987 1301
10285 53062 1651
9814 34733 1614
9424 39074 1523
8712 43623 1368
9137 45335 1447
9766 37549 1596
5999 15657 443
6356 3476 3156
3814 40789 1928
3456 45309 1866
5452 35064 2258
3821 46009 1946
4122 39743 1990
3499 59622 1922
4196 47721 2031
4483 45649 2086
3241 52610 1844
3152 63491 1861
3836 56639 1984
3383 44484 1848
3623 43822 1897
6328 26073 2414
4026 41529 1975
3685 54430 1945
4234 43222 2025
4196 42703 2015
4447 47064 2083
3732 41859 1914
4850 37688 2138
4561 49719 2116
4813 39321 2136
6511 27746 2459
3451 34500 1830
6610 25591 2473
6430 29608 2447
3306 55951 1869
4300 35584 2014
4562 34131 2066
5024 44004 2196
3453 58522 1909
6061 32755 2379
3375 38429 1827
5729 33629 2312
4444 31904 2033
5503 28490 2247
5188 40861 2219
5762 29193 2304
4764 46127 2147
4568 33688 2066
4212 49327 2040
6083 31418 2380
4350 44943 2056
3358 39211 1826
3147 62765 1858
6648 26887 2485
4901 2183 1214
2411 20077 2486
5201 16933 1102
2029 20077 2257
1125 20077 2078
8492 17983 2873
13811 21705 959
7658 21423 304
2208 22686 904
3166 20077 777
5292 11015 2101
5540 6406 1927
6703 6582 582
8402 22470 3122
6133 18186 353
9116 18780 2166
6138 20077 2080
3646 52612 1729
5609 61708 1356
3435 40024 1800
3603 57625 1723
5120 52198 1468
5005 64015 1456
4231 66497 1587
4497 64303 1546
5860 64866 1302
4020 56249 1652
3537 35678 1794
3483 39623 1793
5709 59873 1343
4931 56768 1489
4672 63486 1517
5534 63395 1364
5074 59828 1456
5034 55923 1473
3178 53115 1810
3304 67028 1750
5950 63485 1290
5319 62650 1404
4543 60655 1548
3302 47347 1804
3613 47678 1748
4137 65698 1606
4514 54679 1569
3166 55037 1807
4591 55111 1554
6555 65404 1177
3787 46388 1721
5079 63310 1445
4340 46465 1622
5011 51531 1489
3818 48151 1710
4648 47066 1566
6064 60982 1277
4154 47561 1652
6322 66354 1217
6725 67508 1142
3368 50150 1785
3936 47081 1692
3460 36154 1807
5312 67532 1392
5959 65597 1283
4409 51008 1598
3886 38435 1725
3904 43587 1707
3251 50560 1805
4340 62704 1578
4526 48602 1583
3578 51285 1744
4599 52323 1560
4000 63875 1635
14190 22418 1777
7170 18601 226
5665 17148 2856
5094 2958 1199
9019 1909 655
3723 20077 2897
11755 21894 724
7762 4566 427
0 21292 1070
9099 3025 1218
8537 17177 630
5135 12655 1863
7388 22686 955
9146 14594 1835
8805 10204 2138
1782 20589 2710
2087 21398 2746
5818 9012 949
10299 21352 2944
9054 14950 1263
9050 14136 2172
7416 96710 1814
5783 1471 3216
7512 14290 3201
7039 17022 210
5665 7616 1378
11405 20077 1416
7714 9698 551
7040 81204 2238
6975 95600 1889
7036 77808 2316
7028 87564 2087
7797 17847 308
11350 20339 2834
8489 619 2790
5594 22686 1059
11028 69004 1857
9291 73245 2152
9794 71402 2077
10549 72233 1904
9573 72471 2106
10916 71783 1834
8982 74255 2200
8534 73946 2299
9183 75388 2138
11321 67654 1818
10543 70411 1935
10310 75103 1906
6433 255 711
6199 21171 3155
0 22658 2013
7239 2831 3304
6001 3749 475
6385 21584 3170
14190 20552 1946
7503 12341 344
7546 15520 3221
5129 70790 1425
6651 73505 1155
4235 68834 1584
5750 67888 1314
6103 73186 1252
7076 70771 1079
4709 68114 1499
5377 69473 1381
6117 70869 1250
2499 21187 691
7977 12418 3015
3352 22660 749
9152 17449 1506
8595 21218 380
6895 19253 3241
7145 19331 218
8906 74715 2208
10019 73814 1989
8586 75503 2262
7751 75516 2437
10060 70910 2028
9638 73001 2083
8884 73181 2238
7346 75692 2520
9989 74597 1982
10894 70762 1856
10269 71260 1979
5739 18126 2889
6214 14854 380
7001 14055 3226
8231 20924 3136
7790 22193 3171
3723 22686 1525
7992 22686 1259
2868 22686 1222
4536 22686 1362
6675 75 2529
5290 22539 535
9180 15518 1714
9720 25164 2073
8001 29382 2396
7844 28268 2425
8547 24537 2294
8618 27018 2280
7315 28408 2524
7125 26527 2559
9117 23747 2187
7425 29650 2503
10766 23225 1878
8786 25243 2249
7580 22877 2474
10062 24216 2009
8083 30628 2380
7489 31302 2490
8658 22777 2273
9632 21226 476
6700 22686 478
3053 20700 671
6630 15980 3226
5902 12488 2872
10886 27481 1834
9022 30583 2194
9307 29111 2144
9008 28500 2207
10073 27865 1995
9977 27133 2018
10779 26894 1858
10713 28726 1862
10114 32990 1961
9168 30138 2167
8723 31111 2251
9329 979 1865
6387 856 3235
9453 78972 1976
7599 82476 2252
7696 90498 1970
10170 78208 1851
7988 78817 2290
7646 85535 2143
8611 78323 2174
7432 92253 1968
7645 91029 1963
9631 77544 1985
8605 78773 2161
9080 82503 1939
8143 83688 2098
7839 86522 2070
8214 77516 2285
9252 83561 1869
13778 21018 959
8202 13218 2955
6053 153 2386
7309 709 3241
8969 11444 1572
8185 11273 2855
7674 11730 3071
7120 9197 496
8888 5281 1721
7103 82790 2230
7098 79006 2433
8227 17983 459
7399 13322 3183
6800 8666 565
8175 15838 434
13040 20447 2633
6319 7784 2715
1368 21853 2661
7815 8034 2757
7292 14998 241
7197 86979 2189
7113 84919 2275
7144 91682 2047
1984 20945 769
5203 38464 2216
3745 53914 1956
6303 30454 2423
4073 53563 2024
4572 48172 2113
4222 38871 2008
4018 32314 1944
5285 34253 2219
4432 36376 2045
5989 30777 2358
4273 46382 2043
5605 31660 2279
4335 38318 2030
3995 37165 1954
6135 26438 2375
3961 55993 2008
4221 36805 2001
5221 30652 2194
3275 49319 1841
4722 41058 2122
5261 32734 2210
3321 46845 1843
3474 56826 1908
4476 40243 2067
3267 48158 1836
5496 30238 2251
5260 37347 2223
5681 36952 2312
8763 12851 957
0 22373 1445
4475 20244 3002
7464 8789 2917
5649 22568 3111
14190 21648 1465
7681 4981 3018
8471 13359 668
5362 57055 2200
6552 34134 2450
5775 47676 2287
5070 54145 2138
6385 52265 2416
5965 43829 2327
5191 62834 2164
6088 68415 2353
6498 36004 2440
7030 39484 2552
7037 29771 2554
4366 65315 1988
6352 67159 2409
5967 44315 2328
5811 55289 2295
5245 68245 2174
6547 58140 2450
5351 68898 2197
6431 47026 2426
6570 47770 2455
5618 58792 2254
6915 55681 2528
5892 62509 2312
6453 37983 2430
5134 60520 2152
5844 66907 2302
5067 62187 2137
6397 48601 2419
6106 57035 2357
6884 33404 2522
6823 45515 2509
6658 58973 2474
6897 53975 2524
5593 68436 2249
4278 67428 1969
7077 44137 2562
5980 57601 2331
6217 49102 2380
7039 65035 2554
9484 83095 1800
7452 96068 1801
5710 18390 595
5180 49043 2182
3315 71315 1832
3858 62649 1950
4407 54738 2064
4889 53226 2122
3661 64629 1916
3785 63304 1938
5386 41320 2260
5391 44798 2234
3209 66228 1861
4012 58886 1994
5255 43600 2230
5557 44198 2255
4386 55579 2056
5921 36252 2350
4876 46944 2168
5732 37949 2319
3981 64288 1950
7446 7495 2808
6873 18114 234
9093 1038 944
8114 10881 614
5758 16139 574
6011 1005 3189
6129 18618 380
8604 2300 2906
6957 85795 2114
7085 89258 2060
8348 67736 1337
8898 61786 1451
8445 53528 1357
9620 71484 1600
9410 64312 1557
8752 67708 1421
8081 48851 1281
7282 61865 1117
8944 69013 1460
8509 56278 1370
7232 36435 1105
9906 68114 1659
8825 64051 1436
7236 62498 1107
8801 64782 1431
7748 68528 1213
8107 52187 1287
7713 65292 1205
7556 49574 1172
7466 51371 1154
9302 72636 1535
8287 62411 1324
9337 72031 1542
7272 54245 1114
7660 42697 1194
9840 66476 1646
7761 62690 1215
8639 66081 1397
7145 39587 1087
7800 47256 1223
10382 74471 1758
7393 39967 1139
6409 6474 2799
5393 16365 2617
6682 18771 3223
4820 23014 1504
6954 27594 1103
6407 27218 1205
4380 25503 1587
5529 25202 1371
6634 31693 1163
4030 24811 1653
6727 30275 1145
5289 27951 1416
4819 26301 1504
6215 23409 1242
6909 25307 1111
6855 29401 1121
4364 23678 1590
5713 1414 314
12573 20077 2409
12181 22686 1387
11082 22686 1571
9175 2939 2141
5525 10265 2395
7551 94285 1763
6672 14 1782
5301 29045 1415
3885 32964 1722
5850 31654 1318
4493 31919 1593
5318 33511 1435
3418 33412 1819
4236 28684 1629
5407 30576 1402
4495 32803 1598
4084 26813 1650
5343 31025 1417
5025 31382 1483
5099 28443 1453
5276 2045 2872
9377 22686 694
6394 21082 319
9605 26264 2096
8485 26273 2305
7572 26132 2475
9181 24169 2174
7173 22933 2550
7641 23676 2463
9381 26901 2138
9901 25980 2039
8488 23173 2304
8790 29030 2247
7503 32626 2489
7403 31945 2507
9222 25881 2167
8601 27781 2283
11896 22097 2770
6509 7182 2714
5810 6998 1233
7520 2509 3296
7167 68139 1092
7132 73198 1084
8636 72988 1396
9562 74043 1588
8605 75929 1390
7378 70359 1136
7142 72381 1087
9141 73892 1501
8100 74496 1285
8003 12193 483
6329 3985 3095
8033 22686 1882
3456 20851 2899
5978 18795 3048
12165 22539 874
9132 17997 1294
7301 2998 192
10578 21734 580
3483 35077 1805
4053 55684 1648
5328 64252 1398
4349 49460 1613
6072 62512 1271
2975 64388 1816
4006 57825 1651
3573 37929 1781
4190 52705 1632
3159 61301 1791
5756 67233 1314
6186 67277 1238
4721 66039 1501
3576 38856 1778
5808 56623 1334
4238 65185 1589
3184 59090 1793
6252 64383 1234
4251 41630 1651
3723 42378 1743
6508 67002 1181
2997 65254 1810
6086 66686 1257
2924 66796 1818
4777 52944 1527
5194 52758 1453
3354 65498 1745
4251 53290 1619
3519 52176 1752
6045 59619 1284
4396 57526 1582
5586 66479 1347
5790 58967 1331
4398 61129 1572
6274 64928 1229
5044 17703 1479
5678 7454 2086
4489 78209 1697
4666 81294 1761
6601 87955 1572
4959 82452 1737
3904 76824 1775
6172 82751 1491
4993 77143 1555
6551 77786 1247
6099 81925 1479
4069 79087 1814
5882 87491 1708
5633 84450 1661
4745 78811 1662
6481 77370 1248
5720 83531 1612
5267 85647 1778
5994 80309 1448
6348 88832 1654
6368 85613 1544
6364 87241 1598
4447 79567 1750
6400 80581 1371
5341 76438 1458
6612 82889 1402
5868 80967 1496
5547 77076 1436
5060 84492 1783
5329 83586 1697
4837 80789 1708
6116 76774 1305
3915 78089 1814
6016 90507 1780
5593 9422 1119
8784 9107 1697
5346 14161 2515
6246 22431 3158
7083 20179 3225
8402 10336 2655
9265 2400 1587
7805 2838 3218
8251 3116 440
7082 2280 122
7080 11455 3129
5408 12888 973
5054 15000 1943
7823 16179 3164
1622 20077 1123
6502 16564 272
6589 7342 725
5180 81944 1927
5624 76081 2137
6128 89663 1888
4272 76593 1916
6176 73969 2272
6316 82796 2082
6835 84582 2119
6808 73647 2377
5778 81572 2028
4741 75303 2019
5126 79681 1973
6027 78299 2146
5604 85285 1912
6681 95190 1840
5948 91071 1826
5372 72956 2172
6460 87460 1991
5194 75762 2078
6337 79152 2172
6510 71019 2394
6283 88547 1938
5573 75389 2145
6978 74947 2372
6391 85840 2020
5487 79339 2037
6312 72011 2340
6221 76526 2217
6477 69676 2420
6545 90428 1933
5893 83205 2006
6020 77045 2174
6682 89212 1983
6835 78236 2271
8416 51598 2299
9158 37283 2150
8285 48929 2326
8482 35977 2286
7922 44283 2399
7986 34983 2386
8138 42146 2355
7109 42423 2562
7356 44591 2513
7600 54178 2463
7533 38024 2477
7093 46225 2565
9170 42959 2147
7727 40089 2438
8398 39350 2303
10486 35677 1883
8277 34506 2328
7426 41296 2498
7415 62252 2500
7927 48512 2398
7294 37517 2524
8798 51198 2223
8088 47526 2365
8690 49346 2244
8821 40729 2217
7130 66893 2557
9731 36362 2034
7658 49345 2452
8992 41179 2183
8701 48259 2242
7829 41231 2418
8155 37976 2352
7936 38402 2396
7567 48816 2470
7159 53624 2552
8631 19518 756
9109 18926 1400
9626 20077 1591
6570 17546 3221
5895 22686 732
7365 20077 2237
9225 3024 1667
8287 7578 1067
2502 20524 758
6006 8726 2639
8671 15247 761
10476 24075 1708
8957 24064 1427
10457 27610 1721
10551 29302 1746
9279 24434 1488
10087 29881 1663
9195 26983 1485
10791 26464 1777
9206 26367 1484
10833 30146 1802
9685 27865 1579
9673 24081 1560
7079 13726 255
8509 16363 2863
6004 13871 2991
6337 10909 509
0 22012 2102
6476 9528 2915
7254 5972 555
1988 21848 772
7235 3975 3206
4905 2463 1750
6814 6353 2850
11417 21174 2826
9339 1984 2387
12622 22686 1403
7669 22686 1519
8080 6324 2607
8908 19979 2402
521 21374 935
11114 21366 627
9057 22686 2755
6655 12076 360
6030 648 2997
9282 21552 443
3444 22188 644
7949 136 999
4847 20077 2875
13599 20882 2560
5324 36787 1435
6352 53584 1226
5040 44177 1492
5735 37693 1351
4826 44932 1535
6918 35144 1112
5226 39164 1454
6855 60938 1124
6512 58643 1194
6417 36057 1213
5750 52635 1348
4929 46205 1514
7048 53795 1085
6040 38960 1290
4272 35320 1648
6036 49324 1290
4468 37160 1608
6633 56786 1169
5192 41440 1461
4863 39433 1528
6731 40780 1150
6939 44516 1108
6701 46706 1156
5094 45354 1481
6093 46560 1279
5790 40083 1340
6656 42664 1165
5205 37503 1459
5425 34129 1414
4890 41886 1522
7009 49031 1093
6409 52164 1215
4673 35722 1566
9950 22686 746
4671 22686 2514
7480 74059 2497
9383 71083 2162
7183 68835 2549
8291 67740 2354
7555 70295 2484
9484 69609 2144
7282 72476 2532
10020 68336 2049
8141 71610 2380
8623 13606 2700
7390 815 194
3381 21262 595
10051 64151 1650
7860 40512 1215
9106 52812 1453
8934 50153 1412
9235 55030 1485
8641 48143 1364
10467 61763 1674
10163 69525 1707
9498 57803 1537
10340 67115 1706
10131 62274 1642
8217 45553 1296
7586 39511 1178
10581 62247 1690
10468 71598 1757
6947 5043 406
8413 22223 427
4760 1301 2001
6519 14994 3193
7588 20077 1840
10715 20077 2455
9975 22686 2774
7252 10033 450
6647 14299 281
9408 1344 2183
6009 20077 2742
7416 0 1424
2983 22397 735
7906 15733 3135
5018 18190 1390
8353 6303 1081
7093 10869 3096
9057 21079 3063
9526 22346 3020
1966 20077 1705
6182 20436 416
6175 6128 791
5995 17683 441
5591 20902 3105
5874 13274 585
8019 3466 3100
8539 195 1855
4970 1595 2615
8797 13879 932
3031 21829 650
5462 23254 1383
5934 26530 1295
6791 26696 1133
5581 25962 1361
4960 24810 1478
5290 27362 1416
5248 23952 1424
6788 25995 1134
6037 28238 1275
5805 25629 1319
6504 30953 1187
6575 28281 1174
6406 27758 1206
6624 25603 1165
663 20829 945
8992 4503 1485
14190 21292 1068
0 20633 1115
5597 80347 1533
5293 79943 1584
6166 78376 1348
5918 86171 1657
5181 79041 1578
6594 90987 1673
5691 81714 1558
5583 82691 1613
5894 88370 1735
3898 77452 1797
6927 77096 1144
5596 87951 1784
5355 77651 1495
6162 91562 1784
5761 78238 1429
5544 78599 1486
6647 79146 1271
8049 116 2353
10852 20899 621
9291 23772 1488
8308 25813 1316
9257 25159 1488
9531 22946 1528
10670 32602 1783
10787 33035 1807
10588 28231 1748
9651 24678 1558
9288 28925 1511
8359 24923 1321
10822 25830 1780
10474 24849 1711
7321 23123 1121
9994 25293 1625
9949 30556 1641
8810 12241 2420
6565 92991 1875
5680 80849 2030
4612 80220 1881
5491 73905 2168
5498 86770 1860
6779 86431 2066
5997 73481 2256
5274 77012 2061
6479 93660 1846
6778 76884 2295
4046 75107 1917
5174 77492 2033
4896 79177 1950
6278 84914 2024
5779 74724 2192
5610 77260 2106
6582 72863 2361
5850 79000 2101
6706 72245 2395
6172 81123 2100
4961 83056 1867
6439 81452 2132
6603 74435 2326
5564 72452 2215
6181 87995 1936
4688 77557 1957
