ply
format ascii 1.0
element vertex 2815
property float x
property float y
property float z
end_header
61120 43516 26440
39815 11816 5856
39604 2233 5650
39732 242 5775
40320 17006 6353
40598 19596 6626
39823 35017 5865
39122 17832 5176
39917 7093 5957
39954 13658 5993
39575 26766 5621
39200 15264 5251
39395 31503 5444
41361 7977 7377
1797 53798 27019
37930 4847 9246
39308 4847 18126
38527 4847 20103
38114 4847 7938
39554 4847 20620
66853 32202 26474
67337 31373 26474
38787 53798 8053
20390 4847 10291
20675 4847 18239
20324 4847 40255
20634 4847 36100
20770 4847 36914
20334 4847 27228
20833 4847 44876
19804 4847 23961
19320 4847 25822
11530 42782 44572
10741 13728 44126
10722 17795 44114
11143 35791 44353
12025 45059 44852
9847 46571 43619
11615 23488 44620
11926 36989 44796
9781 16061 43582
12175 30647 44937
11594 29972 44608
10500 36379 43989
9851 7702 43621
63168 11646 25856
33053 29741 46488
28288 251 47808
31957 9833 46792
28812 3835 47663
30861 3317 47095
30519 15228 47190
29697 7867 47418
33207 40954 46445
28984 760 47615
32156 12858 46736
32508 10701 46639
29493 5775 47474
35005 4847 10269
33541 4847 8955
34931 4847 20436
34916 4847 22510
35473 4847 9585
33376 4847 33132
33322 4847 28245
35162 4847 14169
2163 0 24449
1708 0 18680
32555 3607 46626
31211 12276 46998
32001 31328 46779
32976 39863 46509
32937 34998 46520
30344 13471 47239
30828 9719 47104
31001 4189 47056
33016 31874 46498
30105 12923 47305
33257 5733 46431
45035 0 20980
43592 0 32492
45008 0 18084
46049 0 16193
35018 41203 42663
37099 32229 41438
35858 27543 42168
33168 52649 43752
35695 42306 42264
37422 35281 41247
37004 25145 41493
35616 45074 42311
37460 15471 41225
37204 29431 41376
34429 52343 43009
30130 53798 45659
68227 13738 26194
62553 42696 21628
40429 0 20151
39347 0 8768
39301 0 7608
39200 0 25021
39774 0 6948
39661 0 18389
66600 11023 24378
38370 14702 43501
37913 3472 43770
36854 25272 44393
37707 652 43891
37202 9301 44189
36114 15614 44829
38274 22838 43557
37469 24661 44032
37059 19127 44273
36825 6595 44411
38291 18655 43548
38211 19723 43595
38629 43708 43349
2561 0 30128
4025 0 18913
4805 0 29430
3250 0 33931
5980 49217 12121
6260 17389 11625
5118 41452 13643
6178 20103 11771
6112 18657 11889
6534 47693 11141
6524 46520 11161
5618 32158 12761
6448 48379 11295
45409 0 33486
45945 0 22079
6208 31976 36325
4881 18585 34072
6018 22151 36001
5920 34061 35836
5304 18068 34789
6535 36752 36879
6093 10619 36129
6370 5825 36600
6849 6292 37414
6125 40353 36183
9450 13597 39991
7614 25530 38186
8108 21277 38672
7686 40623 38257
7383 5489 37959
7591 27476 38164
9185 9474 39730
7524 22832 38098
9572 20487 40110
7173 29323 37753
7978 21922 38544
37435 51516 4019
36924 51675 3730
37065 44687 3810
37914 31882 4290
38310 41135 4515
36115 44398 3272
38165 17256 4433
33672 49894 1889
35365 40174 2847
36813 41083 3666
36622 23648 3559
38416 12942 4575
36569 22695 3529
52635 9354 23890
57219 9354 26423
12669 25550 42432
14221 5460 43310
14153 20997 43272
11891 21283 41991
12806 22725 42510
11890 15358 41991
11098 13367 41542
12751 26069 42478
12021 11053 42065
11043 29269 41512
11393 44518 41709
27052 38994 45629
24066 31223 45655
25417 44432 45643
25031 28428 45646
25292 46757 45644
26876 35394 45630
26114 51600 45637
25801 37769 45640
25291 50294 45644
24206 51108 45653
26026 17859 45638
62658 8579 26474
2905 0 29259
3501 0 28975
2273 0 32835
3797 0 30900
25589 27009 2434
26661 29482 2425
24785 14586 2441
23471 15343 2452
23613 22003 2451
24877 4979 2440
25152 19357 2438
26568 11486 2426
24151 21176 2447
21590 8057 2467
48284 8783 22550
17146 6704 44578
21017 7358 45581
18224 20504 44857
20227 7684 45376
17512 24488 44673
18227 9883 44858
18816 19106 45011
16211 31226 44336
16456 9302 44400
20093 16214 45341
63644 10863 21628
6019 15520 12053
4143 19299 15365
4686 22214 14407
4176 9283 15305
4538 40855 14668
4683 29153 14413
4034 6349 15558
5065 14626 13738
5768 10504 12495
4680 10513 14418
4413 11048 14890
54555 6446 25239
52620 6446 25204
16558 4847 26597
16304 4847 17514
17830 4847 15118
16745 4847 7841
19475 4847 13861
15965 4847 19343
17940 4847 10536
16272 4847 31763
43753 53798 11616
66313 20815 25140
66313 24572 23420
66313 18974 25720
61980 10755 23639
60871 45376 26474
54091 45768 26474
43696 20446 10064
45233 45964 12673
44083 47459 10721
44712 42329 11789
43784 19652 10211
44959 48877 12208
43402 46714 9564
45752 45606 13555
44017 25133 10608
44211 50391 10938
44947 38048 12188
44203 39808 10925
44347 37018 11168
67418 12178 22339
65570 14922 23890
43348 22060 9472
44256 28969 11015
44082 33672 10720
43683 40489 10041
43170 42558 9170
44184 26796 10891
44791 30668 11923
43619 8696 9931
44425 40376 11301
43558 7649 9828
43396 30619 9553
23 36074 23939
46 26109 26653
34 22454 25265
47 35206 26774
43 29844 26297
52 23681 27373
45 47224 26595
48 33922 26961
36 20411 25528
47 28990 26844
45 48406 26558
30 51474 24788
39142 29974 39515
38245 50838 40427
37868 25666 40811
38664 34637 40001
38360 23580 40310
38395 24538 40275
37819 22098 40860
38385 33789 40285
38662 37317 40002
38551 30063 40116
37648 30123 41034
41889 53798 36790
15350 50595 1531
18899 18721 547
17318 49379 985
18775 50049 582
19967 13126 251
17980 26201 801
20325 47531 152
19299 18273 436
19499 26416 381
18090 30335 771
17722 34439 873
20175 8077 194
17480 30530 940
12250 22681 5930
10927 34803 6709
14686 45666 4496
10964 51683 6687
11133 15212 6588
11386 53636 6439
13719 48530 5065
14421 44038 4652
11215 37362 6539
12913 42294 5540
10841 22292 6759
68466 39478 25413
1088 53798 21183
20702 53773 48002
17502 42017 47174
17761 37835 47241
19866 44981 47786
16134 53322 46820
15848 47682 46746
15049 44147 46539
17918 51304 47281
16886 20872 47014
15126 7633 46559
15707 40062 46709
18873 41811 47529
18817 52252 47514
26091 4847 4042
23043 4847 9695
23781 4847 3170
22302 4847 9626
23662 4847 7196
24063 4847 5179
22967 4847 31354
25965 4847 3179
21553 4847 22101
23184 4847 29235
29396 0 14438
28142 0 36041
28340 0 4662
28723 0 3973
32818 0 3049
29438 0 31300
29658 0 26101
27731 0 35533
29584 0 12743
27338 0 36535
31418 0 10994
27944 0 36672
43955 43570 32741
44009 12839 32646
42174 14235 35888
43707 8195 33180
42779 5724 34819
43028 27544 34380
43187 18367 34098
43308 24559 33885
43633 26447 33310
42247 9184 35759
43245 15929 33996
64946 40081 21667
62745 9614 26474
13156 0 28027
13279 0 35601
11573 0 36193
13803 0 19259
12659 0 18161
12569 0 21978
14507 0 12583
13934 0 45515
14475 0 15220
46090 0 32917
44755 0 34963
44043 0 33499
27320 0 32076
28382 0 25388
28996 0 21025
30659 0 12075
29197 0 4465
29546 0 27341
30191 0 3936
32398 0 5363
60447 7414 26474
9359 33121 39901
9949 38728 40481
9239 39348 39783
9646 25555 40185
9821 24529 40355
10073 50280 40604
10418 30448 40942
7720 52126 38290
10030 33296 40561
8956 43411 39505
40516 53798 38267
9187 4847 14585
7812 4847 16890
7091 4847 29288
7381 4847 21168
25 18219 24164
19 3019 23494
36 7526 25645
10 18846 22446
17 27814 23198
32 20007 25035
14 22813 22916
11 27602 22527
6 43703 21938
7 24293 22123
0 45972 21288
41 6235 26111
45644 16169 22910
45637 35790 22073
45654 12126 24080
45652 24485 23764
45637 42017 22008
45658 13748 24544
45649 14321 23438
45655 18159 24096
45642 29197 22587
45644 36025 22800
45668 5374 25663
29214 16117 47551
29828 51515 47381
28872 46267 47646
32047 53502 46767
32169 50856 46733
27867 18142 47925
28616 20696 47717
30079 30958 47312
27726 30324 47964
27743 25698 47959
28137 42769 47850
31746 42822 46850
45355 53798 17344
3259 53763 29917
3422 43518 30504
2677 15211 27817
2709 22086 27930
2591 17861 27508
2940 34161 28764
3576 46840 31058
2835 27200 28386
2760 40696 28114
3185 47920 29653
2989 46155 28940
47889 34154 20109
47508 29976 18733
47894 20638 20124
47994 5997 20487
47519 23306 18772
47434 14232 18466
47877 14453 20064
47218 3063 17687
47441 6935 18489
47791 8956 19752
48023 4276 20591
47734 40479 19546
47924 4773 20231
57859 47352 21729
52909 47352 23572
38105 10064 40570
38030 9499 40646
40959 4912 37666
39229 22450 39426
39910 26189 38734
40542 4849 38090
41409 22535 37209
39713 17971 38934
40333 26134 38303
41367 49133 37252
69177 36592 24191
5425 35444 34994
4084 30416 32719
4034 39413 32632
4660 26190 33697
6258 51964 36409
4129 50085 32794
4197 14614 32909
4287 37076 33062
3993 24226 32563
5340 36263 34849
41572 53798 38586
48284 45470 21782
63154 45736 24586
22813 27739 35
22345 35245 39
22368 25551 38
23269 21081 31
21406 7848 47
22005 6683 42
24768 1584 18
21763 21550 44
26763 171 1
23452 7173 29
20884 35240 51
24493 6686 20
22333 30827 39
20252 36812 2687
20695 31303 2564
20729 10477 2555
18331 6004 3219
20632 21192 2581
19766 11021 2821
18186 5408 3259
19697 26544 2841
19386 28220 2927
17327 14796 3497
50026 6446 23861
52496 6446 23378
1561 53798 22031
35926 40339 42128
36129 23640 42008
36721 40787 41660
34587 42970 42916
33849 44392 43351
35137 39115 42593
36383 37462 41859
36335 43596 41887
34552 43693 42937
34891 49400 42737
59943 44061 26474
17835 30608 3357
17961 35982 3322
18506 43287 3171
17040 29460 3577
16280 29269 3788
19930 46854 2776
16163 43924 3820
16723 51260 3665
17618 25228 3417
17320 40869 3499
68474 16602 26474
43566 16442 38347
44472 9334 36747
43434 4267 38581
45680 6100 34614
44184 36142 37255
46205 1902 33686
43655 33341 38190
45093 8977 35650
44631 8319 36465
44298 33672 37055
45322 14782 35246
45069 7740 35693
43436 15713 38578
8056 4847 34720
9334 4847 31165
9192 4847 39055
10618 4847 10375
8128 4847 33473
11991 4847 25314
13644 4847 19171
11891 4847 13833
11035 4847 29550
11618 4847 34772
12965 4847 18598
11329 4847 37812
33602 0 28818
34552 0 31373
38193 0 5730
33681 0 34160
35190 0 25463
36100 0 4544
34494 0 5501
34685 0 12099
33700 0 38629
35353 0 13497
41424 51847 40650
41192 43030 40886
42376 46705 39681
42326 53491 39732
41909 34427 40157
42665 39200 39388
42399 43714 39658
42454 44340 39603
43239 21569 38804
40918 32421 41165
42374 47293 39684
42541 49277 39514
43046 24756 39000
64717 13384 23938
46825 47580 16265
46502 38087 15102
46802 42121 16184
46621 15445 15530
47336 33748 18112
46787 46863 16129
47266 43903 17859
46971 45622 16793
46875 44579 16448
46535 20118 15221
47768 49423 19669
66669 13944 26474
49289 7714 21628
35911 53798 42638
8 9482 22145
29 12366 24710
1 25327 21353
45 5265 26499
0 27005 21230
2 50222 21461
19 30632 23548
7 40150 22107
25 16058 24204
4 26762 21778
34 15370 25295
27 24514 24411
22 24400 23866
20141 43531 2717
19291 35491 2952
20672 33502 2571
19875 12501 2791
17732 8029 3385
20191 28623 2704
18627 4974 3136
20257 38812 2685
17996 16646 3311
13611 38464 2317
12876 27856 2749
10981 46253 3865
11809 44959 3377
14124 17459 2015
12367 48609 3049
14073 15539 2045
9942 53246 4477
13150 46199 2588
12435 50093 3009
13560 32674 2347
12418 50961 3019
12162 53798 43490
2788 24331 19987
3065 31015 18917
3277 17051 18096
2437 48185 21342
2503 50762 21088
3106 7250 18758
2519 25855 21026
2938 24599 19405
3195 9581 18410
3440 5170 17465
3334 9414 17877
28729 30470 45172
29487 16926 44961
31443 9603 44419
28088 4960 45349
27963 21177 45384
28348 23873 45277
28040 25706 45362
27785 32560 45433
27626 13253 45477
29332 21772 45004
68181 13626 23604
47608 40119 28919
47863 8818 27937
46544 52896 33031
48014 46802 27350
46972 42066 31378
47672 29618 28673
47391 38095 29757
47277 48198 30200
47257 36061 30277
47737 16956 28422
47555 22445 29126
47956 10194 27577
47872 40508 27900
3537 4847 19257
51406 6446 26151
42071 35698 12079
41229 9730 10649
41508 7155 11123
41996 21129 11953
41331 18130 10823
42826 11662 13361
43201 10156 13999
42194 19695 12289
42736 14873 13209
41736 35403 11510
42117 11322 12158
39408 53798 42254
66313 23670 26318
66313 21961 26081
66313 32396 24322
66313 29394 25094
29657 4847 25118
30356 4847 26686
30259 4847 30521
31622 4847 42722
30330 4847 42412
29459 4847 38323
32244 4847 17608
69212 23833 26474
68741 23125 26474
67210 11912 21628
13625 38706 5120
11446 44158 6403
11699 28340 6254
12997 43250 5490
12344 42511 5874
13173 41178 5386
10950 10488 6694
10719 50408 6832
11930 25019 6118
10847 53075 6756
42852 53798 35225
45652 53798 28372
47115 0 29823
5760 26233 12511
6154 43937 11813
6529 9084 11151
5090 34681 13693
5863 27092 12328
6491 44115 11218
6051 52604 11996
6046 35145 12004
5355 34558 13223
6352 49196 11463
5662 43348 12683
37499 53798 43698
15360 4847 17091
14732 4847 19722
15177 4847 40280
15303 4847 24050
15252 4847 20548
13525 4847 24057
13485 4847 39087
25798 53361 2433
22161 36884 2463
21215 17519 2472
22920 52146 2456
23530 46164 2452
23321 39477 2454
21882 21048 2466
23027 31039 2456
22714 53040 2459
22714 47191 2459
23030 47633 2456
634 0 28675
27024 4847 5992
28137 4847 20435
27229 4847 18218
27556 4847 23110
28426 4847 5950
29469 4847 22807
27870 4847 13693
27563 4847 4928
29016 4847 5646
64947 44459 24851
13190 0 22434
10980 0 41271
11406 0 27896
14517 0 35638
14039 0 20845
14083 0 12927
14304 0 27115
13190 0 14231
11386 0 43972
21036 44715 48089
20754 38028 48016
18432 28059 47414
16526 3358 46921
16272 9346 46855
20959 19339 48068
17737 2192 47235
16215 10196 46841
18124 2530 47335
20838 26267 48037
18658 1066 47473
16712 15187 46969
19926 29028 47801
34232 53798 4588
23726 4847 24449
23627 4847 17044
24619 4847 7219
22314 4847 14536
25874 4847 6209
23399 4847 21284
24833 4847 14592
35189 17879 42562
35350 5560 42467
33357 5297 43641
32663 12933 44049
34582 20016 42919
34174 35126 43159
32885 49925 43919
33155 27203 43760
32662 28748 44049
33789 7034 43386
35437 10935 42416
17236 0 39988
17849 0 24726
20109 0 41213
18513 0 40614
19898 0 37341
17071 0 44945
19242 0 43585
19884 0 14726
19472 0 45175
19571 0 18485
67603 32339 21628
68438 32479 21628
2439 12274 23075
2472 9364 26953
2446 16591 23955
2473 13455 27064
2455 18310 24982
2459 37896 25501
2451 24715 24681
2463 8504 25990
2471 47309 26827
2453 25969 24730
2443 8328 23564
69221 31687 23724
69221 36123 21808
69221 36251 23073
69221 27663 22920
3692 27701 16493
2929 51967 19442
3536 24729 17097
3566 29049 16982
3750 18816 16267
2954 36063 19347
3034 32952 19034
3560 20479 17002
3834 28830 15945
3321 47467 17928
3838 28184 15929
49147 46690 21628
40059 53798 7836
9730 53798 6236
66808 22249 26474
68375 35813 26474
65355 10830 26474
11509 39831 41775
11500 8379 41770
13004 22001 42621
13211 17568 42739
14816 7696 43647
12423 18477 42292
12289 13381 42217
14475 13886 43455
12780 20943 42495
15309 6634 43926
52234 8664 26474
396 28702 28663
844 9721 30274
468 8956 28917
850 27234 30296
382 24415 28609
554 15446 29228
174 21321 27859
659 16449 29609
1372 11265 32179
123 14814 27674
1131 11946 31312
367 2730 28552
189 7419 27910
68421 14211 23672
67963 22178 21628
69203 23038 21628
22601 53798 1256
25148 4847 21533
23826 4847 34972
25314 4847 30003
22279 4847 43874
25035 4847 24388
24031 4847 25934
25435 4847 26410
25544 4847 44241
22736 4847 37262
26027 4847 24613
48090 1739 25479
48087 26903 25180
48094 8585 26038
48072 19365 23458
48056 3544 21558
48101 41366 26835
48068 1713 22921
48097 16733 26357
48093 16959 25828
48081 30580 24487
48066 12063 22663
48099 46515 26607
48101 35759 26855
5644 18594 39648
5455 24011 39462
5164 33235 39175
5055 51884 39068
7577 32456 41548
5302 46032 39311
6129 23439 40124
7408 51389 41382
6685 27021 40671
5220 34421 39230
5261 17295 39271
5237 38817 39247
1182 12409 16523
772 23962 18103
1511 7992 15250
641 11452 18613
1368 34353 15802
1439 16654 15527
576 27 18862
1332 14240 15941
1453 40845 15473
999 12303 17227
1082 3604 16907
904 103 17594
1329 39430 15951
65448 10989 21628
4498 53399 38196
3748 52735 36922
4910 39840 38898
3038 46000 35716
2942 50285 35554
4796 26926 38701
2877 53570 35443
4356 39756 37956
4599 33575 38368
4936 37789 38940
2945 41302 35560
4720 6798 38573
2405 50861 34642
43502 4847 31857
43756 4847 28815
41696 36765 36732
42712 30004 34937
43553 48042 33451
42004 22492 36188
42380 39797 35524
42806 30921 34770
41472 26294 37127
42071 48041 36069
43918 50155 32806
41785 37349 36575
43032 34629 34372
15539 10619 44056
15270 17396 43904
13087 46459 42668
13025 47185 42633
13598 52496 42958
12493 52016 42332
12924 50978 42576
13494 38413 42899
14596 45227 43523
13243 33020 42757
7795 0 20315
7925 0 36737
8332 0 41720
6689 0 33578
7562 0 33281
7311 0 29003
49861 9312 21628
47591 8140 28984
47509 671 29302
46761 37674 32193
47227 16852 30392
47579 1552 29033
46751 36424 32230
47854 727 27969
47822 3147 28094
46529 42718 33088
46808 15053 32013
46745 9227 32253
47530 11940 29221
46975 12531 31365
6186 4847 13455
4378 4847 28647
738 53204 18236
204 36632 20299
70 2530 20818
986 44655 17279
745 52272 18209
9 40541 21051
878 49630 17696
1131 48783 16718
221 32025 20235
448 44241 19355
1188 44375 16497
325 35765 19830
880 31644 17686
31544 16076 44391
31614 37248 44372
28596 49119 45208
31597 52804 44377
31138 23179 44504
32532 29674 44118
31883 46183 44297
30648 53147 44640
30695 50018 44627
30995 19103 44543
29146 41104 45056
50284 47352 25747
53768 47352 26238
52830 7529 21628
48912 8967 21628
25959 42641 2431
26376 16594 2428
25834 43330 2431
24088 12654 2447
22832 19866 2458
24812 6727 2441
24267 24766 2446
25939 12998 2431
26006 36425 2431
22605 5875 2460
50796 47196 26474
42531 4847 20102
41454 4847 22829
42004 4847 23700
5604 0 39555
8522 0 20382
8140 0 34864
8069 0 31248
7858 0 32797
7858 0 38770
67382 15074 26474
3303 4847 26210
6147 4847 34549
6636 4847 12353
6775 4847 32005
8790 9414 39342
7246 27704 37825
9864 6020 40398
8283 9358 38843
8588 31519 39143
9421 18314 39962
9527 7855 40066
8073 17151 38637
7320 33398 37898
7896 24180 38464
52709 44444 25380
55211 44444 23117
26435 37843 4
24838 30188 18
25715 43668 10
21736 49794 44
21926 45251 42
26222 14913 6
23331 40448 30
25481 35231 11
26123 31932 7
26605 48503 2
23271 50957 31
26399 41686 4
22148 44463 40
4444 34368 33328
5499 33659 35122
4047 38062 32654
4515 21346 33449
4021 37082 32612
5265 28249 34722
4184 17880 32886
4950 39075 34190
5799 48279 35630
5828 39150 35679
48284 45431 25948
2535 53798 16374
9808 0 26183
11748 0 5333
12539 0 9573
12098 0 16583
9363 0 14636
10078 0 35288
9428 0 15802
11179 0 15233
45315 53798 34585
54314 44444 23556
48863 44444 26436
3023 49167 29066
3427 37467 30521
3113 39434 29388
3316 52745 30122
2693 33651 27873
2951 39924 28805
2766 47401 28139
2861 30206 28482
3001 38762 28986
2940 32411 28765
2687 35940 27853
43591 9044 33384
42587 24016 35157
43726 39772 33145
44057 30100 32561
43464 17634 33609
43533 19038 33486
43038 16415 34361
43290 29823 33916
42507 12090 35299
43110 5908 34234
42411 10330 35469
8851 49622 8696
8661 44967 8890
9913 17772 7617
9466 32880 8071
10273 41542 7251
10627 7533 6891
10622 13761 6896
10441 21025 7080
8168 44854 9392
9730 49342 7803
860 41036 17767
271 20543 20040
841 46268 17837
612 25361 18723
416 43061 19479
85 50522 20760
745 33597 18210
639 31021 18619
371 53614 19652
372 52828 19649
133 44465 20572
241 17845 20153
66176 16845 24835
8190 53798 41359
68604 30592 21628
46677 39759 32517
46719 27142 32355
47486 13546 29392
47146 27039 30707
47632 6905 28826
46683 5078 32492
47241 10606 30340
47279 23399 30190
46806 17675 32019
46853 1013 31836
47630 8742 28836
2432 51447 22251
2429 27049 21932
2437 39235 22866
2441 51914 23462
2426 6987 21516
2440 44979 23317
2453 41192 24775
2434 52326 22506
2456 37303 25144
2446 48231 24085
2433 48119 22409
69221 26807 24865
69221 18834 24696
69221 32469 26084
69221 22688 24360
38860 4847 34349
40474 4847 19247
39639 4847 28343
28123 1044 287
29023 3344 520
27113 52043 26
27547 19685 138
31764 10316 1230
31920 8828 1270
28410 7047 362
31850 5767 1252
28076 23698 275
27258 33724 63
29414 22933 621
28356 39221 347
28916 26383 493
11571 53798 5167
45337 33720 28024
45191 14481 28587
45332 14476 28045
44944 10232 29542
45200 21986 28553
44625 11481 30775
45558 30817 27170
45649 5578 26818
45116 16025 28876
44761 11177 30248
44632 12431 30749
8623 0 8648
6503 0 7871
6978 0 13461
6598 0 22793
6235 0 28074
62746 7849 24003
7951 0 9685
6993 0 9273
5988 0 22388
4926 0 22445
5962 0 17356
34489 0 37865
34416 0 4264
36559 0 16861
36931 0 3771
36126 0 9368
36321 0 21119
34401 0 28494
35850 0 7208
34658 0 21126
1179 53798 16922
27489 30635 2626
27498 38381 2627
26817 40977 2452
28136 24041 2794
29694 47029 3197
27010 18109 2502
26908 25343 2476
29203 52815 3070
30321 39443 3359
29432 34887 3129
45394 49369 20178
45537 26010 20693
45410 25612 20235
45082 52909 19052
45466 38932 20439
45546 39832 20724
45262 49134 19702
45550 17090 20742
44590 48479 17275
44726 46455 17766
62020 43291 21628
36581 4847 13648
34365 4847 35054
35430 4847 36974
36569 4847 32178
36285 4847 19257
34271 4847 34286
36406 4847 26073
2968 36086 12523
1661 6491 14831
2982 28559 12499
3547 41896 11500
3773 50184 11100
2693 39428 13008
2694 31997 13006
3577 49086 11448
1768 27675 14642
1651 49509 14849
1984 47017 14260
3400 53230 11759
2460 20163 13421
32375 43685 1387
30845 23317 992
30000 48501 773
29017 37299 519
29552 39861 657
31929 21920 1273
32808 16475 1500
32910 38073 1526
32692 17685 1470
29033 36739 523
32076 28385 1310
30950 44760 1019
69221 24321 25485
69221 23329 24491
69221 18812 22108
69221 22413 25894
46170 35923 14265
45883 3539 13778
45236 19511 12679
45073 13388 12401
46152 15953 14234
45386 35370 12934
45680 12541 13432
45137 22694 12511
45061 3555 12383
45814 30209 13661
44089 12404 10732
46067 19228 14091
45522 24145 13164
7185 53798 37810
10536 4847 37409
8989 4847 27939
7230 4847 35522
10659 4847 25486
9337 4847 24037
17035 53798 3027
6761 850 7366
8845 23837 5246
6298 18111 7837
6356 19871 7778
6796 9089 7330
7813 610 6297
9087 48840 5001
8263 14174 5839
6880 17827 7245
8146 3805 5957
9114 51321 4974
7225 21969 6894
7045 14758 7078
44505 28206 31240
44539 30567 31106
45220 48185 28475
44505 14759 31238
44400 38118 31642
44281 53790 32104
44396 43474 31660
45338 43981 28020
45204 42058 28536
45388 51250 27829
2459 17609 25504
2460 15434 25578
2467 24950 26416
2448 28893 24187
2461 36917 25699
2460 19942 25621
2464 29146 26032
2430 6554 22105
2444 18149 23659
41478 15894 37116
41963 19117 36260
42098 37926 36021
41913 16561 36349
42129 23914 35967
42622 46735 35096
42195 33091 35851
42212 27945 35821
43674 51651 33238
50241 47352 24337
50051 47352 22935
66313 35516 23201
66313 25166 25060
66313 27649 24877
18411 53798 46615
49910 44444 25586
48455 44444 25738
49756 44444 22277
56592 44444 21868
39126 14949 39531
40077 32793 38563
41274 35981 37346
39069 11779 39589
40584 21010 38048
41233 32936 37388
41155 6034 37468
40722 18900 37907
41119 29416 37504
40052 24066 38589
39450 33743 39201
40891 47862 37735
37940 16223 40737
38848 24391 39813
38306 26976 40365
38463 20916 40205
37953 14505 40724
39070 32676 39588
38792 29298 39870
40585 46365 38047
37852 47452 40827
69221 28217 24028
69221 35684 23550
69221 31322 23244
33605 4847 34752
32564 4847 12955
33572 4847 12056
34402 4847 27170
35908 4847 10432
35487 4847 16134
34938 4847 15679
59755 44061 22639
64339 42321 26474
21898 0 44925
22953 0 47870
21649 0 47010
26637 0 34471
24334 0 44174
26940 0 29231
23729 0 27097
25074 0 33955
26407 0 6982
24748 0 22398
13221 49861 42744
15642 37379 44115
12210 49097 42173
15134 52394 43827
13100 53732 42676
14792 37957 43634
14156 34293 43274
12562 49733 42371
14902 47945 43696
14524 39240 43482
42790 0 17322
41354 0 37791
42262 0 21839
42430 0 18016
42497 0 22669
21 51701 23681
44 38080 26478
31 47624 24873
46 36931 26730
48 39721 26857
14 44657 22958
32 40968 25007
28 36929 24554
41 44435 26056
13 42756 22786
24 40722 24015
39198 0 18859
40441 0 18664
39109 0 5323
41955 0 13171
39045 0 35906
39582 0 37373
39103 0 32215
45302 12959 19846
45281 5185 19770
45180 10150 19406
45167 13731 19359
44142 18869 15661
44429 10528 16693
44423 42554 16672
45317 14689 19900
44878 20751 18315
45341 9329 19986
44438 22426 16726
33345 16142 4488
36626 49214 6346
34398 27188 5084
32705 13181 4126
34459 52464 5119
32435 27833 3973
34171 41559 4956
33402 22664 4521
34262 25655 5008
32943 26861 4261
32581 21285 4056
15401 42522 1516
19303 1894 435
17297 29649 991
14707 8099 1709
16384 11974 1244
17474 5881 942
20008 5604 240
17190 24925 1021
16842 33455 1117
18168 4444 750
20169 1875 195
15222 12325 1566
14604 37219 1737
4963 4847 15675
5448 4847 18128
50521 46970 21628
56189 45985 21628
43596 24481 14670
43930 49186 15237
43579 17047 14640
43730 33775 14897
43459 47812 14438
43670 49276 14795
44092 13944 15512
44076 30127 15485
43566 20109 14618
43332 42495 14222
43764 39309 14956
34269 34622 2227
35113 24334 2705
36848 14490 3687
34130 5258 2147
34865 29283 2564
37250 9419 3915
36096 21390 3261
37192 11554 3882
34393 31195 2297
34576 28871 2401
33683 26157 1895
34437 26986 2322
37636 3559 4133
8303 2340 42261
8449 11559 42405
8861 17295 42811
8469 15276 42425
8548 27363 42502
6958 17183 40940
8296 12750 42255
8572 26824 42525
9293 30385 43235
9273 32471 43216
7464 2494 41437
6117 12095 40113
7116 40348 10461
7810 39203 9756
7084 17689 10495
8719 14054 8831
8627 10623 8925
7731 37207 9835
9926 7904 7603
8106 17122 9453
7795 24567 9772
8094 4927 9468
24966 53798 46419
45431 37628 35054
45886 11706 34249
44960 34667 35884
46042 38143 33973
44812 41242 36146
45322 41051 35245
44050 44673 37493
46498 12625 33169
46300 44140 33518
46238 40921 33627
44562 38161 36589
45801 23456 34400
4586 53249 9665
2187 46142 13903
3839 53008 10984
3678 46077 11268
2685 28911 13023
1800 4848 14586
2566 48321 13233
2265 35328 13764
1980 11281 14268
2339 27104 13634
2519 38764 13316
2354 51561 13608
1585 42145 14966
5415 4847 32302
6400 4847 25561
6281 4847 22212
47522 49843 18784
47234 40189 17744
46843 22627 16331
46919 47097 16605
47101 31595 17264
46758 35474 16025
46486 5658 15045
46416 42027 14791
46703 44728 15827
46435 45147 14860
23883 23937 48079
21980 24001 48095
21607 52637 48099
23703 31755 48081
25212 46811 48068
24413 28633 48075
22886 46172 48088
21457 17840 48100
21236 41677 48102
24221 49088 48076
21180 8435 48102
12842 4847 5597
10827 4847 24698
12519 4847 24235
13169 4847 14452
11936 4847 30258
12598 4847 11036
39088 25093 43026
38984 44069 43131
39748 5773 42355
39544 26992 42561
40282 4485 41812
39577 18874 42528
39431 13753 42677
40848 5252 41236
41612 2029 40459
40308 12029 41786
41622 17433 40448
29521 48315 649
30717 50294 959
31126 51696 1065
28664 44742 427
30602 32174 929
28298 52532 332
31710 51393 1216
32558 39605 1435
32876 52703 1517
32505 9551 1421
32937 34816 1532
32692 45118 1470
30121 34994 804
1893 52442 33772
4474 36376 38156
4688 17463 38518
4773 25510 38663
4080 28285 37487
4431 9248 38082
4309 31361 37875
2765 47644 35252
2256 49605 34389
4613 31021 38391
3826 33421 37056
4038 32242 37415
3921 15220 32310
3390 21306 30388
3006 11103 29004
2866 10556 28502
3700 43986 31509
3956 34055 32436
3132 4874 29457
3493 6754 30759
3920 31930 32302
3642 17689 31300
7073 4847 20280
7278 4847 14421
8613 4847 15898
9693 4847 11485
27925 12663 45394
31908 6294 44290
27650 21719 45470
27784 41728 45433
28517 28666 45230
28648 23275 45194
31093 8037 44516
29937 5620 44837
28057 7202 45358
28771 35771 45160
55717 9354 21682
56367 9354 23090
21215 0 34252
23987 0 21251
23727 0 8437
23132 0 19569
21252 0 24823
21809 0 30080
21575 0 44024
21468 0 40413
22732 0 11399
22541 0 30516
3445 7410 11681
4681 38451 9498
4430 9724 9940
3093 16394 12303
4281 20816 10203
2785 20331 12846
4009 25606 10683
4666 20339 9523
3784 30082 11080
2748 19522 12912
3040 18171 12394
2735 10931 12935
4519 33005 9784
65901 12507 21628
16364 14632 3764
15801 53555 3920
15836 13201 3910
16267 26796 3791
15869 11954 3901
15865 19188 3903
16127 32210 3830
18246 35083 3243
17298 4847 31463
18281 4847 19880
18887 4847 6726
16699 4847 5788
18359 4847 20449
16228 4847 24586
17438 4847 10268
15697 4847 5018
17130 4847 12545
5895 28398 35793
6570 26801 36941
6254 36401 36405
6475 7961 36780
6801 34115 37332
5976 29691 35931
5593 22221 35280
6758 13505 37259
5531 23482 35174
5354 10672 34874
52869 45392 26474
53198 9354 22208
54677 9354 24113
37421 47712 44060
34037 48734 46052
33926 28993 46118
33768 47150 46210
35215 49788 45359
34908 27836 45540
34083 39120 46025
34546 22105 45753
36468 49955 44621
36070 41985 44855
34514 47510 45772
35293 43950 45313
24513 34879 45651
24127 33024 45654
26917 38331 45630
26703 14837 45632
23074 47326 45663
25456 34936 45643
26486 18595 45634
26868 33576 45631
25825 38757 45639
36073 18433 3247
34151 14659 2160
33326 48647 1692
36626 16075 3561
33242 51442 1645
37393 7746 3995
33943 32817 2042
36502 18122 3491
33933 4209 2037
34958 27285 2617
36379 14566 3421
28993 9559 3016
30833 18435 3491
32000 43673 3794
32212 31567 3849
28272 7568 2829
30907 30595 3511
31087 10584 3557
30970 29975 3527
31098 4965 3560
31233 34275 3595
55911 6447 21628
19021 27594 45064
18307 51157 44879
17932 38515 44782
19724 33145 45246
18148 45808 44838
17809 36956 44750
19299 25876 45136
18247 42900 44864
19991 30249 45315
19169 33458 45102
20962 42602 45566
38610 4847 17254
39661 4847 22112
37776 4847 32049
40228 4847 9935
38280 4847 20676
5330 53798 38278
46713 0 24713
14565 34078 1755
13481 27181 2392
12037 44076 3243
11314 48403 3669
13396 29114 2442
13811 28393 2199
11247 38421 3708
11946 39204 3296
11331 42104 3659
13715 13789 2255
47193 14916 17596
47396 20711 18329
47996 8644 20493
46865 6875 16410
47543 11233 18860
47756 1262 19628
47176 22649 17534
47653 22403 19255
47850 31358 19965
47775 37857 19697
47865 46169 20021
47621 35192 19141
47645 4893 19227
34008 53798 45157
60947 46730 25982
2661 34513 35077
3124 28425 35863
2624 25451 35013
2720 35247 35176
3581 6268 36639
2485 24907 34779
2501 20917 34805
4016 10354 37378
2445 1132 34710
2335 2775 34523
2928 958 35529
3889 9244 37162
36403 40772 6220
33746 18701 4715
32884 8444 4228
36994 17557 6554
34818 22540 5322
35194 14500 5535
35578 13209 5753
34936 30146 5389
37162 37358 6649
36350 17385 6190
63379 11586 21628
27247 0 28195
23066 0 45017
26773 0 6048
26974 0 25593
25787 0 31850
22961 0 36973
23932 0 28470
24166 0 45225
26985 0 13710
23964 0 43125
12084 17739 44886
14436 8696 46217
14084 42210 46017
13379 31770 45618
12826 26937 45305
11918 12041 44792
11428 13563 44514
12451 4764 45094
13410 33442 45636
13401 20581 45631
10838 108 44180
39225 35502 8675
38442 42867 7905
37340 14238 6822
40705 52796 10130
38372 41653 7837
38517 24577 7979
39344 50347 8792
37242 26998 6726
39695 47961 9136
38901 27325 8356
39299 48615 8748
5421 17732 8728
6033 46278 8107
6636 36280 7492
7911 48857 6197
5343 8162 8809
5646 11741 8501
7090 37260 7033
7669 48168 6443
8108 43247 5997
5970 36730 8171
7055 51766 7068
6340 50936 7795
2035 0 19198
2863 0 16122
2411 0 14311
14217 31875 4772
13541 28563 5170
12591 9314 5729
15155 34258 4219
11416 10571 6420
13958 37291 4924
11396 12251 6432
14679 41810 4500
12192 18454 5964
15118 10035 4242
13181 10605 5381
44818 18155 18099
44200 10846 15868
45477 5085 20478
44556 27403 17155
44659 19307 17524
44322 35867 16309
45506 8492 20581
45166 17158 19353
45120 5690 19190
44308 29889 16258
44477 4847 29571
68551 15811 21628
7786 37710 6323
5719 24453 8426
7490 45346 6626
5058 42067 9098
6221 40440 7915
5399 40255 8751
6493 29434 7639
5026 30121 9131
5996 26234 8145
7222 40520 6898
6953 46328 7171
4766 15279 9395
40964 4847 18435
41365 4847 31874
40572 4847 30349
10124 32998 4370
9514 6730 4729
11323 3202 3664
10996 4910 3856
10188 13353 4332
10833 18753 3953
10124 18658 4370
12086 21833 3215
10784 27597 3981
9446 4788 4769
9243 1969 4888
12271 6341 3105
10520 37324 4136
67906 39807 26474
30974 0 34283
31856 0 32479
28971 0 35844
32863 0 31920
32703 0 13763
31539 0 43641
32665 0 15046
31948 0 29580
31649 0 15486
15772 53798 46499
13847 29247 45883
12721 5864 45247
14590 1292 46304
12978 31393 45391
11202 8137 44386
13414 8930 45638
13014 32945 45412
10436 3749 43953
14350 46663 46169
14507 12066 46257
14718 2539 46377
14803 33895 46425
65180 44257 22027
24336 53472 2445
25450 42976 2435
23000 43291 2456
25434 47490 2436
24301 37756 2445
22259 40751 2463
21553 51272 2469
24169 47856 2446
23451 35173 2452
22367 26904 2462
42828 37980 8820
42464 48260 8462
41535 45296 7548
39811 51373 5853
41900 29943 7907
42898 30190 8888
42401 32809 8400
43114 12149 9101
41627 24715 7638
40775 41237 6801
40792 44342 6818
42325 14569 8325
62141 10864 22717
62106 7516 24400
17661 0 41243
15951 0 39198
17547 0 37001
16145 0 40660
20279 0 22916
18401 0 26183
17399 0 43646
20476 0 8132
18627 0 18321
18947 0 16516
17642 0 30398
43115 53798 11561
23288 41638 31
24257 46514 22
26267 31064 5
26883 36090 0
24971 31602 16
26730 11568 1
23826 37840 26
24734 32293 18
26483 52895 4
25605 17609 11
26027 19581 7
22680 41096 36
43186 36899 13973
43425 25909 14380
43290 40652 14150
42989 49558 13638
43866 43094 15128
43991 33649 15341
43439 26646 14403
42429 41868 12687
42344 46447 12543
43189 31997 13979
20271 53175 167
20314 11097 155
18246 43593 727
18648 39436 616
17784 52605 856
16197 41933 1296
16911 34029 1098
19679 11357 331
18763 17123 585
16268 50237 1276
16802 44688 1128
18846 36475 562
19024 25276 512
45643 51558 22703
45676 12650 26665
45672 13301 26147
45638 48593 22159
45665 28518 25303
45660 24752 24727
45675 38662 26513
45651 49040 23678
45667 49025 25529
45668 26963 25641
45669 33510 25835
67504 23285 26474
51045 6984 26474
14840 23983 4405
11921 7841 6123
11791 14196 6200
14192 8585 4787
13943 18715 4933
15474 5604 4032
11912 16041 6129
11891 11910 6141
15453 39580 4044
14887 16226 4377
67118 24705 21628
66633 34185 21628
16836 53798 1456
10030 35410 7498
7930 47469 9634
8753 35214 8797
7960 46367 9603
9435 28853 8103
8741 46244 8808
9031 31748 8515
45647 50810 23150
45675 28236 26464
45670 51769 25925
45651 46840 23687
45674 34615 26361
45651 30730 23709
45676 6618 26664
45669 21328 25815
45675 25206 26550
45676 47543 26568
45675 18341 26532
52732 47352 21899
57089 47352 22291
43764 53798 12171
44326 30558 37005
44276 11483 37093
43413 29126 38618
44191 21165 37243
44759 14006 36239
44558 25752 36596
45708 127 34564
44415 14378 36847
43580 9912 38323
44473 3150 36745
43836 6180 37871
37325 29236 44116
37714 2329 43887
38491 25569 43430
38850 16850 43218
38636 7010 43345
34263 7367 45919
36254 3453 44747
38015 32217 43710
35278 8950 45322
37897 21451 43779
38931 42210 43171
37099 21124 44249
35612 595 45125
32531 25015 44118
30020 33677 44814
29298 37704 45014
30332 43279 44727
27847 51084 45416
32257 14028 44194
31524 42102 44397
30184 36601 44768
31537 48222 44393
19658 4847 30539
17798 4847 33194
20020 4847 43713
19667 4847 14860
20522 4847 21898
17618 4847 37237
19552 4847 18289
20479 4847 42356
19470 4847 28332
46947 53798 21908
59465 44134 25382
26863 29551 48054
26534 2279 48057
23122 6305 48086
22380 7147 48092
21746 4329 48097
24999 12547 48070
23993 12825 48078
26453 6065 48057
27400 1367 48049
25780 24648 48063
24453 25214 48074
27157 3519 48051
26936 21646 48053
40057 39077 42040
39281 36041 42830
41962 9728 40102
41268 13786 40809
40036 19091 42061
39403 1190 42705
40387 1650 41705
42087 5917 39975
39746 41856 42356
39294 37337 42817
40846 9530 41238
39803 40877 42299
40428 913 41662
50950 6446 24399
51764 6446 22623
42610 20509 12995
41982 12534 11928
41998 26506 11956
41676 33325 11409
43132 8683 13882
41600 41309 11279
42070 29783 12078
41844 27571 11694
41396 26019 10932
41347 41031 10850
42546 24340 12887
66301 15193 21628
48426 9354 21901
21779 25012 45674
22113 44804 45671
25741 15452 45640
24882 19290 45647
21722 7337 45675
21416 20743 45677
23316 20813 45661
22251 14879 45670
22261 28352 45670
23946 18270 45655
25494 16284 45642
21294 50343 45652
18464 34837 44920
19375 40180 45156
18929 34194 45040
20502 47772 45447
16581 48242 44432
17712 37581 44725
21258 36228 45643
19938 18962 45301
44646 20664 30694
44650 49143 30679
44718 50570 30416
44981 46982 29398
44732 30583 30362
44549 33858 31067
44274 30459 32129
44789 45388 30140
31984 53798 45121
7030 21153 41010
7896 14313 41862
6925 14759 40907
7236 16768 41213
9026 46209 42973
9298 8736 43239
8246 31487 42207
8772 21479 42722
8196 23924 42156
9365 6332 43305
8639 10423 42592
45861 53798 15201
37397 33320 3998
35449 51949 2895
36250 51931 3347
37869 26446 4265
37167 36233 3866
38637 23327 4700
35818 49266 3104
38620 6386 4690
38031 46525 4356
36878 32948 3704
35628 41592 2996
34945 38094 2609
37990 12676 4333
14899 6839 1655
16911 5890 1098
18256 17585 725
15418 32286 1512
16038 25616 1340
18550 12770 644
14720 17800 1705
15785 36584 1410
18334 12117 704
15387 34151 1520
15862 4954 1389
22311 0 9661
25185 0 9809
23585 0 14252
24668 0 14375
24521 0 5395
26118 0 4864
22646 0 17365
21256 0 1970
21673 0 11178
24682 0 11598
23808 0 2097
21863 0 23614
22901 16789 34
26108 3122 7
22839 22534 35
23377 12190 30
24134 7522 24
22656 1832 36
21869 26136 43
22329 9324 39
26322 469 5
21882 15888 43
24772 14319 18
20946 8371 51
45252 24632 19666
44352 46667 16418
45096 41221 19100
45445 27458 20361
44893 35872 18370
45382 36130 20135
45141 45654 19264
45189 35645 19438
44740 44098 17816
45627 17584 21019
27639 4847 17513
30365 4847 17392
30607 4847 5051
28732 4847 7109
28962 4847 16882
29194 4847 4141
27294 4847 6715
28972 4847 25410
29788 4847 17623
18272 53798 45755
31477 4847 32605
32052 4847 20777
31011 4847 14264
31801 4847 16489
31557 4847 43474
31319 4847 19950
40236 38047 9669
39003 22584 8457
40778 9191 10202
38292 14781 7758
39374 13673 8822
38659 20232 8118
39737 5150 9178
40705 11487 10131
41043 39887 10461
37831 0 30501
38664 0 12426
34327 0 41700
35507 0 45042
36633 0 44298
37645 0 38325
37448 0 40579
38475 0 9042
3901 15825 37183
4683 1897 38511
1742 34637 33515
3255 13741 36085
3115 29706 35847
3661 4702 36776
4710 3211 38556
2831 21888 35366
2016 28281 33980
1919 19305 33817
2240 15049 34362
3999 2588 37348
3277 53798 14102
14533 53798 43699
17466 27681 44661
18720 13030 44986
17219 30845 44598
16108 7221 44310
18462 27011 44919
16078 50539 44302
20783 5231 45520
18833 11984 45015
17644 12198 44707
17339 5610 44628
2793 53798 29495
46117 53798 27299
55251 46579 21628
23535 40198 48082
25258 37430 48068
24996 53003 48070
21278 48968 48101
21289 24837 48101
25634 48137 48064
26847 49728 48054
22558 36073 48090
22126 11769 48094
24052 40514 48078
22429 19817 48092
48044 49627 27237
47112 39179 30836
47814 37865 28124
47341 52666 29953
47427 47796 29621
47636 50714 28812
47631 32946 28831
47569 49032 29072
47183 47196 30564
48057 32550 27185
47815 25384 28121
1413 34947 15628
930 26831 17495
1405 9906 15661
835 9155 17861
719 14316 18308
341 6682 19770
1082 16969 16907
951 28779 17409
808 15909 17966
1026 8019 17124
1474 5734 15391
59162 9588 23380
10886 53798 4970
4603 44029 9635
3156 23563 12191
4419 6644 9958
4242 7737 10273
3256 17110 12014
4382 34864 10025
3874 9553 10923
2809 16631 12804
3911 34155 10855
4700 40582 9463
58814 47107 26474
3146 30002 18597
3600 53792 16844
3518 21712 17165
2801 46768 19937
3577 48002 16937
3245 36872 18221
3348 45273 17825
2889 51193 19596
3359 29040 17782
3269 50756 18130
5301 26580 13320
3854 11849 15877
4064 34062 15506
5371 17175 13195
4184 40483 15293
5828 9454 12390
3905 37927 15787
4409 14160 14896
5476 8156 13010
2451 37399 24504
2449 50562 24239
2438 27729 23002
2427 45312 21749
2432 34400 22301
2446 37775 24088
2435 42761 22677
10392 0 5743
10139 0 28405
12910 0 4822
11438 0 14346
10176 0 5219
10773 0 32221
10320 0 6474
1498 28298 32636
1053 36269 31031
1455 12224 32481
1256 27819 31761
1013 28374 30885
1101 51435 31205
1671 31324 33262
1031 25121 30951
1468 10738 32527
1724 2106 33451
995 37000 30819
1589 16276 32963
855 33197 30316
8873 45320 39424
10770 25675 41290
9170 47112 39715
10811 39623 41329
8628 52227 39183
9084 37043 39631
10598 17332 41120
8604 53320 39159
10347 36910 40872
9890 41862 40424
10776 40333 41295
44881 12289 12076
46011 17905 13996
46160 23551 14248
44003 1254 10583
43311 461 9410
45176 15948 12577
43407 968 9572
46106 23002 14156
44936 22326 12169
45997 27792 13972
45638 40226 13361
45099 28202 12447
44382 5579 11229
43049 50963 38997
40543 49487 41546
42961 22392 39087
42561 16569 39494
41098 33352 40981
41882 41143 40184
42570 33390 39484
41776 28703 40292
41264 45854 40813
41055 44291 41026
42030 53179 40034
64081 9923 26474
32711 35576 4130
33375 41414 4505
35107 46565 5486
33530 21070 4593
35249 52547 5566
33837 22405 4767
33680 37582 4678
33338 31190 4485
40286 28201 6320
38733 4490 4793
40645 3014 6673
39693 15029 5737
39389 19124 5438
42024 12763 8028
39422 42643 5470
40507 2218 6537
39475 12350 5523
38764 27092 4823
40896 15589 6920
38208 30965 7675
37889 36475 7362
38053 27154 7523
38992 41626 8446
40079 49192 9514
37914 18221 7386
37751 44642 7226
38239 31871 7705
39437 37771 8884
27674 6994 2674
32131 49222 3828
30350 16374 3367
30049 33887 3289
30894 39959 3507
31702 38119 3716
28549 6975 2901
30745 11558 3469
28422 10756 2867
27076 28047 16
27925 33883 236
28005 16919 257
28877 5745 482
28223 19020 313
28849 28934 475
27511 43418 129
27653 14836 166
28962 14851 504
30657 8746 943
29359 31501 607
28329 9223 341
23950 7934 48079
24206 17825 48076
23053 9999 48086
26768 41645 48055
26807 9917 48054
25655 14723 48064
27104 6857 48052
22548 5634 48091
26177 15973 48060
22375 6193 48092
27025 5633 48053
27047 17848 48052
63131 11613 23812
9915 8525 4492
10829 26185 3955
11160 5977 3760
9269 25513 4873
9193 42903 4918
9626 24777 4662
9608 23945 4673
9184 3818 4923
9356 18081 4822
12806 10126 2790
9400 13281 4796
32006 53798 3057
7662 12881 6450
9076 46002 5013
7673 25785 6439
8861 49249 5231
7666 7140 6446
7869 2517 6239
4886 1709 9273
6154 16133 7983
7076 24812 7045
8235 33685 5867
8908 10553 5183
8801 12875 5292
8249 1554 5854
48087 29333 25140
48099 21752 26573
48090 4403 25550
48075 3550 23755
48086 11253 25010
48056 2502 21483
48094 23482 25978
48070 17987 23154
48101 43326 26848
48099 44132 26585
48076 17361 23913
48066 10658 22659
48094 32159 25955
12429 53798 45032
376 7469 28587
428 6852 28774
433 32570 28794
355 12027 28511
396 34201 28660
667 10924 29636
150 25879 27772
419 34789 28742
189 32269 27912
269 44494 28202
63520 45513 25413
46798 53798 24181
13296 53798 44091
1167 42035 31442
891 31730 30446
1295 41457 31902
1306 47238 31942
1163 44549 31428
319 49611 28382
1541 49068 32791
1408 28806 32311
1644 26384 33161
871 49701 30374
1739 13639 33505
1095 27005 31182
3016 53798 34369
64339 40940 23907
40603 0 36848
43011 0 18272
40344 0 40540
42752 0 28621
38198 53798 42957
60347 46910 22792
45591 17264 27044
45427 13423 27675
45469 42113 27516
45242 38393 28392
44796 19910 30116
45266 28026 28299
45025 8312 29229
45462 12750 27541
45473 8986 27498
45527 15669 27290
44743 6324 30317
27074 53798 47431
45665 6280 25324
45635 17741 21752
45631 10265 21281
45647 31930 23188
45630 32159 21265
45650 7444 23512
45642 18009 22605
45666 11398 25504
45641 26825 22453
45651 19533 23637
45645 18367 23014
48284 44882 21873
15073 53798 2089
9490 9664 8046
7322 35483 10253
7914 25701 9651
7595 40877 9976
9558 10283 7979
7454 23964 10118
6952 42749 10629
6981 39121 10599
9558 15492 7978
20136 44084 47855
18854 17879 47524
19789 35578 47766
18312 28848 47383
20748 45892 48014
20334 28527 47907
17292 10406 47120
19608 11884 47719
18997 12564 47561
19039 21444 47571
17745 5504 47237
17423 7599 47153
29218 43265 47550
31585 38716 46895
28008 33263 47886
27456 34058 48039
29955 49838 47346
29260 46721 47539
29512 41221 47469
31185 52814 47005
28451 44376 47763
28022 38945 47882
33168 52840 46456
32255 51761 46709
7153 53798 9130
44306 50878 37041
46372 28652 33390
46151 36909 33780
45050 33709 35727
45529 18990 34880
46439 34312 33272
45141 31455 35565
44998 39624 35818
46271 20618 33568
45877 50330 34265
46032 24019 33992
46082 14687 33903
42039 38300 8043
41856 44705 7863
40146 51719 6183
42257 28010 8258
40519 38878 6550
43085 39119 9072
41099 42636 7119
39468 50948 5516
43135 21040 9121
42275 43979 8275
41287 31666 7304
58166 9413 23155
48061 18059 22057
48063 50987 22378
48083 35284 24760
48071 29744 23307
48052 5484 21029
48085 44146 24956
48064 17598 22508
48056 35869 21570
48065 37509 22557
48078 44789 24125
48082 41419 24576
28888 50801 2988
29544 51804 3158
31088 53730 3557
28578 48689 2908
27671 37004 2672
27431 11274 2611
26770 7835 2440
27530 24338 2637
26747 14871 2434
66313 18209 24193
66313 21396 25020
66313 32181 21918
66313 23388 23047
35735 6267 5841
34513 6499 5150
36368 25251 6200
34702 11874 5257
33768 5702 4728
36717 25892 6398
35234 7366 5558
35964 5542 5971
33996 14182 4857
36616 18817 6340
36518 38780 6285
37047 8365 41468
34576 23230 42923
32622 19909 44073
35573 6446 42336
36594 11616 41735
34041 15494 43238
32833 45994 43949
33519 28214 43545
35508 14744 42374
34601 24370 42908
37790 0 33801
36092 0 26930
37513 0 23007
38095 0 24679
38752 0 20712
34959 0 36577
38803 0 40085
50138 8764 26474
54214 6907 26474
26287 5841 45636
21479 21373 45677
24356 10399 45652
23777 28487 45657
23551 8970 45659
22350 24661 45669
21531 29137 45676
22421 11804 45669
25412 12788 45643
22687 21930 45666
24045 22528 45655
48055 38503 21432
48072 52496 23358
48066 52607 22683
48079 39832 24281
48081 36140 24501
48059 39831 21845
48054 30039 21280
48068 51534 22925
48065 25136 22575
48053 17381 21149
48066 29511 22710
48078 38976 24153
48060 52974 22041
44280 4847 30188
43393 0 19259
44374 0 22422
43727 0 13858
45701 0 17905
16072 0 13714
16691 0 8437
16117 0 34156
19787 0 2058
16761 0 20787
17433 0 14444
17991 0 20255
15952 0 11220
17827 0 13958
3895 53798 15502
5294 27224 39303
7396 53186 41370
7891 50117 41856
6711 39167 40696
6060 47349 40057
6302 39562 40294
8683 45978 42635
6478 32577 40467
8245 41845 42204
5847 52755 39847
7817 34295 41783
43175 4847 22394
41810 4847 16041
38286 53798 41379
43203 4847 33982
43334 4847 23101
13872 53798 3974
67618 13237 21628
25396 4847 13943
24607 4847 45260
26237 4847 37435
26519 4847 38431
26389 4847 45518
22465 4847 40987
26359 4847 22265
26275 4847 11121
24816 4847 28239
36157 53798 3916
40946 41579 10366
40244 19018 9677
38443 7011 7905
40292 7693 9724
40471 37257 9900
39725 9000 9165
39423 19154 8870
40779 45855 10203
40742 18559 10166
39707 29239 9148
36429 4847 20057
33181 4847 39740
35646 4847 39818
34777 4847 39004
36789 4847 31316
36439 4847 21087
32548 0 29631
31599 0 32961
29588 0 34267
30770 0 22286
32839 0 12888
32489 0 16248
30474 0 43719
32192 0 41895
30684 0 24206
29672 0 35722
3211 6806 18347
2853 20574 19737
3046 29218 18985
2714 30994 20272
2519 40162 21024
2795 6735 19958
2482 10430 21168
3004 19514 19151
2801 39559 19936
2678 18368 20411
3613 12918 16798
3948 48049 32402
3734 26278 31629
3575 31992 31055
3427 6019 30522
2649 4919 27715
2963 18045 28849
3776 16515 31780
3592 39167 31117
2761 5457 28121
37199 51698 44190
35187 44731 45375
37000 41309 44308
33902 44139 46132
35225 26197 45353
35719 51769 45062
34416 14687 45829
35716 27801 45063
34739 30133 45639
33689 35176 46257
34900 47809 45544
37406 46352 44068
37745 49897 43869
14771 4847 39738
12330 4847 35097
15685 4847 36863
13778 4847 24931
12170 4847 31550
14980 4847 15302
17249 42746 47108
18176 34899 47348
16100 19397 46811
16808 31378 46994
17688 43153 47222
15785 14072 46729
17854 53489 47265
15155 51928 46566
15272 46755 46596
16776 42568 46986
17793 34144 47249
62522 42675 23394
17108 0 18222
16722 0 25934
15874 0 2480
16209 0 28851
17646 0 22506
15698 0 37543
15487 0 14025
14818 0 7721
19786 0 6975
14016 45864 45979
12931 41010 45365
13470 45463 45670
10174 40227 43804
12616 50783 45187
9999 8214 43705
10178 27624 43806
9568 34056 43461
9463 24625 43402
9674 39428 43521
10266 37226 43856
10490 21785 43983
