ply
format ascii 1.0
element vertex 2719
property float x
property float y
property float z
end_header
59986 35817 0
60501 13403 0
60614 37494 0
57865 37389 0
60067 25146 0
60106 33480 0
61108 12004 0
60620 25514 0
59695 28214 0
60976 16714 0
57938 26209 0
60917 42978 0
60628 10558 0
60090 15116 0
60204 23218 0
56513 14668 0
57650 25015 0
57519 19262 0
56569 17396 0
56961 607 0
56893 21339 0
56516 8492 0
58367 3970 0
56770 13195 0
58963 734 0
56494 33907 0
58017 20588 0
59220 12614 0
57871 5684 0
0 24616 4800
0 19611 4918
0 2080 5456
0 24014 4235
0 39544 1815
0 38679 2081
0 26684 4916
0 40919 679
0 39732 760
0 35427 2603
0 21377 3808
0 29440 3883
0 26035 2932
0 27014 2316
0 20619 58762
0 26243 59594
0 31219 57707
0 24528 59223
0 43968 57681
0 38370 61106
0 29031 60956
0 15091 59579
0 14733 60809
0 13375 60924
0 10538 61182
0 11448 59854
0 39375 59678
0 31853 59281
5544 20770 55642
5031 4607 55642
3596 43603 55642
1000 40190 55642
3815 24778 55642
1760 33016 55642
3097 22612 55642
4885 40167 55642
5556 41919 55642
2673 25017 55642
4597 21485 55642
4713 39286 55642
1537 36080 55642
60436 0 59258
58412 0 59067
1528 44514 44238
1654 44514 41784
4996 44514 27820
4951 44514 12833
3343 44514 46808
4810 44514 35452
4370 44514 46386
5094 44514 46088
4600 44514 53499
4074 44514 24654
3975 44514 51141
2245 44514 38056
5511 44514 47805
2002 44514 41354
4186 44514 35873
5564 34827 1772
5564 40898 2480
5564 26947 1498
5564 29711 454
5564 38392 718
5564 31968 1624
5564 18689 1475
5564 14552 1402
5564 40615 1392
5564 23688 1677
5564 21562 813
5564 34773 4064
5564 29055 586
47730 44514 10200
42601 44514 60349
52034 44514 42573
37909 44514 48649
51236 44514 17774
44336 44514 43680
26102 44514 49119
42827 44514 39319
45187 44514 36872
44254 44514 19373
45933 44514 36085
54021 44514 10708
23212 44514 46493
43074 44514 60047
7659 44514 60754
53090 44514 14965
53691 44514 15110
19355 44514 44531
25273 44514 43451
11710 44514 53761
43200 44514 51624
36648 44514 26191
26969 44514 45191
47568 44514 53988
28772 44514 55951
49230 44514 28188
46488 44514 58331
41626 44514 19091
47508 44514 37502
39662 44514 38075
15421 44514 55831
32831 44514 31824
46369 44514 53293
33067 44514 44285
33254 44514 56625
37973 44514 33545
54397 44514 55951
33936 44514 38006
47484 44514 51636
50272 44514 33314
38521 44514 50023
46867 44514 54232
54550 44514 32326
6810 44514 60045
19360 44514 56413
21957 44514 50610
35259 44514 60483
39565 44514 50207
45568 44514 58850
26878 44514 51257
52069 44514 33237
54202 44514 27085
42000 44514 30652
14729 44514 55049
36219 44514 36679
32160 44514 30187
34199 44514 60208
20179 44514 54365
49321 44514 57818
52904 44514 53502
20473 44514 58701
46181 44514 51247
51528 44514 11942
46279 44514 54504
38828 44514 21211
44924 44514 35161
33202 44514 53174
48449 44514 33486
22412 44514 45233
48073 44514 27525
41669 44514 21625
22363 44514 41673
43361 44514 20726
27112 44514 36529
26897 44514 57592
32706 44514 34397
44825 44514 41151
43921 44514 37736
50465 44514 56355
54070 44514 36496
49059 44514 14779
31166 44514 30769
51876 44514 37347
33444 44514 44917
47166 44514 11876
46868 44514 22016
35003 44514 33072
19261 44514 57353
28553 44514 50295
37893 44514 60219
22993 44514 47104
22703 44514 53831
39068 44514 41542
41621 44514 38307
34343 44514 44782
27533 44514 44588
52430 44514 56094
43874 44514 39816
37205 44514 25124
33059 44514 45555
12263 44514 58366
48907 44514 42440
36596 44514 23963
45737 44514 12384
42365 44514 56781
17154 44514 56875
48923 44514 36075
52788 44514 29747
33785 44514 49031
38732 44514 60894
39828 44514 53781
32806 44514 35513
20582 44514 45454
51025 44514 28920
52639 44514 50545
41908 44514 35333
53833 44514 21701
39914 44514 19924
40559 44514 44846
52588 44514 30473
27966 44514 37575
20210 44514 51839
10810 44514 57092
53744 44514 4359
54173 44514 30075
39129 44514 37903
44244 44514 49052
41511 44514 35723
40893 44514 29488
52493 44514 58334
50104 44514 13024
55275 44514 3512
51893 44514 30355
48566 44514 60279
54341 44514 43112
41920 44514 24614
38413 44514 55150
26847 44514 40613
32733 44514 50453
34254 44514 47341
35782 44514 34492
19470 44514 58465
49604 44514 49632
54912 44514 41812
23081 44514 48035
27900 44514 51766
45979 44514 25360
47324 44514 60144
40999 44514 43516
42581 44514 49595
41736 44514 57260
24405 44514 55355
44284 44514 26013
25665 44514 37362
50886 44514 46055
52732 44514 33574
51600 44514 36634
29470 44514 33592
42981 44514 52204
43133 44514 36355
53301 44514 39005
33419 44514 38667
39078 44514 55763
19659 44514 48970
43288 44514 37766
50465 44514 25747
50761 44514 13573
24844 44514 60533
46696 44514 27192
32921 44514 59117
42769 44514 42753
1399 14449 55642
22 18427 55642
3076 17720 55642
934 15244 55642
2569 1940 55642
212 2393 55642
430 9288 55642
2679 4762 55642
2096 11928 55642
4070 9931 55642
986 34355 55642
512 17458 55642
2334 10708 55642
1049 32830 55642
0 44905 4013
55642 15229 4195
55642 44422 3999
55642 33821 4606
55642 43582 4706
55642 33173 1897
55642 19020 4372
55642 26550 4557
55642 20494 4761
55642 44157 2240
55642 35445 1727
55642 38104 5510
55642 40811 970
55642 25530 2396
55642 30008 4612
55642 37816 2002
3795 44514 60214
61039 27818 5564
60848 12873 5564
59808 5927 5564
58358 15965 5564
60412 27242 5564
60070 1147 5564
56653 5528 5564
57126 4202 5564
57895 17055 5564
57458 3375 5564
60938 15049 5564
57364 9806 5564
61164 572 5564
58899 12128 5564
2706 40559 5564
2773 37056 5564
241 9852 5564
2498 28412 5564
1272 35078 5564
1752 41842 5564
3224 38353 5564
822 8904 5564
1154 34411 5564
3097 26359 5564
2159 20754 5564
1217 44225 5564
4056 34317 5564
0 44619 59931
0 46568 38316
46661 48593 61206
52113 48556 61206
60232 46969 61206
60761 48953 61206
14786 45824 61206
60582 50019 61206
41688 46695 61206
38396 46602 61206
30274 45073 61206
45696 48136 61206
47192 46837 61206
55802 48053 61206
20263 44887 61206
60877 46746 61206
44076 44606 61206
13036 44937 61206
56769 47530 61206
36306 46881 61206
54567 47064 61206
34112 46558 61206
0 16967 56708
0 8502 57490
0 21248 58052
0 11046 58405
0 9373 58541
0 5283 55851
0 8972 57152
0 7813 57494
0 5682 56787
0 1819 59845
0 26763 57231
0 31732 55858
0 6657 56288
5564 9129 58695
5564 34432 59997
5564 19822 58646
5564 3725 56229
5564 440 58600
5564 29356 59783
5564 26049 59893
5564 20427 58773
5564 32057 60941
5564 23653 58942
5564 1106 60300
5564 3724 57641
5564 17006 58533
5564 22291 59651
3330 8173 5564
1069 2004 5564
5028 39534 5564
2960 23232 5564
4154 7065 5564
2354 756 5564
5439 7185 5564
4510 28139 5564
4823 14255 5564
3449 22729 5564
4992 17510 5564
631 2975 5564
3304 9753 5564
4394 27141 5564
4860 29995 5564
0 29939 61023
0 29363 59382
0 31985 58552
0 43209 56147
0 10092 60660
0 32668 58655
0 18211 59200
0 36321 60812
0 18963 60536
0 22365 60767
0 8182 61058
0 44507 58155
0 30733 57433
0 48142 1189
0 47506 4146
0 46392 21442
0 46419 15560
0 47681 8679
0 47088 23078
0 45172 12067
0 46950 19407
0 45962 39714
0 47006 18333
0 46082 6233
0 46596 6490
0 47283 16225
0 46407 33222
0 46521 34611
0 45689 20810
0 47850 22882
0 45486 50074
0 20936 56801
0 280 60258
0 41065 55894
0 15310 57084
0 27614 56274
0 4299 59965
0 9743 57040
0 5270 57444
0 3412 55930
0 10061 58464
0 35037 56398
0 6097 57627
61206 24856 4583
61206 8392 1482
61206 29891 5060
61206 6442 3349
61206 36439 4809
61206 6507 842
61206 2338 5112
61206 4042 3721
61206 19676 3187
61206 29762 3865
61206 12476 3301
61206 1537 2804
61206 8270 2238
61206 27121 5261
59843 44514 51866
58906 44514 37660
57279 44514 47312
60016 44514 26360
59797 44514 55219
60902 44514 14673
59418 44514 35457
59468 44514 53259
60813 44514 29191
57785 44514 37258
60469 44514 44474
60204 44514 37657
60761 44514 50011
61055 44514 25265
60589 44514 12190
60709 44514 32854
2893 33152 5564
2195 27819 5564
2240 30467 5564
1561 29807 5564
3522 38849 5564
1047 18011 5564
92 28387 5564
5134 42811 5564
2735 34298 5564
472 24067 5564
2484 26239 5564
1835 40309 5564
24564 44514 210
16613 44514 10314
42627 44514 7321
17944 44514 30388
31133 44514 29395
41433 44514 10915
27965 44514 2272
27354 44514 32564
38376 44514 6280
22660 44514 29548
47935 44514 9222
10603 44514 9992
36300 44514 882
29716 44514 23095
7466 44514 49125
19110 44514 33238
47489 44514 450
6218 44514 33509
26442 44514 11069
9426 44514 30702
5587 44514 48602
23253 44514 26740
17938 44514 41416
8930 44514 3984
7436 44514 54912
25843 44514 28456
47070 44514 7915
34497 44514 6615
7901 44514 45167
36227 44514 16857
5649 44514 39826
38801 44514 2770
16351 44514 24801
14608 44514 2578
8353 44514 12029
21429 44514 23861
8851 44514 51357
21263 44514 5136
33505 44514 7943
29521 44514 3757
17318 44514 37195
9921 44514 20962
13858 44514 1059
16204 44514 18761
11802 44514 42396
10517 44514 1228
18411 44514 23509
18875 44514 20781
17932 44514 38207
24008 44514 8635
18172 44514 13023
29881 44514 9023
23626 44514 17258
19036 44514 7758
48418 44514 6495
27097 44514 19495
18465 44514 31615
38326 44514 9001
5991 44514 8577
15757 44514 46219
30412 44514 592
10209 44514 7292
24261 44514 32389
10076 44514 46710
48650 44514 3152
40278 44514 7233
44290 44514 7366
24620 44514 11696
5950 44514 37247
9222 44514 36597
25199 44514 1735
7485 44514 28774
7097 44514 13083
12914 44514 9825
43030 44514 9283
15088 44514 42869
43072 44514 6083
20613 44514 17251
12710 44514 40187
36611 44514 8778
6361 44514 53620
10389 44514 46194
26852 44514 32259
32330 44514 1310
16112 44514 28503
32511 44514 17434
26004 44514 33447
13728 44514 33606
13477 44514 45480
40190 44514 8017
16465 44514 31686
14936 44514 3524
32624 44514 21396
5975 44514 17257
10148 44514 52951
40169 44514 6508
8505 44514 47249
20953 44514 31818
32617 44514 5580
27001 44514 29046
41466 44514 1970
25910 44514 26532
17402 44514 40033
21092 44514 8772
24454 44514 936
6479 44514 13201
31965 44514 12104
35619 44514 22357
36523 44514 7505
9201 44514 17970
12426 44514 32331
45835 44514 9531
18336 44514 29624
41705 44514 5519
33370 44514 550
33303 44514 23027
23140 44514 24606
27761 44514 7905
7248 44514 56173
19733 44514 36242
8152 44514 41878
34151 44514 20687
18929 44514 10812
8022 44514 57252
8985 44514 2408
12975 44514 45822
40910 44514 5554
21452 44514 23299
5721 44514 7044
27022 44514 7691
7349 44514 41587
23112 44514 37396
30630 44514 13331
43475 44514 14799
14171 44514 50368
12681 44514 48472
7576 44514 48497
13663 44514 38048
14116 44514 9724
37952 44514 11214
11741 44514 1419
19800 44514 13830
13148 44514 22422
24928 44514 36750
25656 44514 31226
38160 44514 8025
27058 44514 26290
39726 44514 2543
8624 44514 45749
46716 44514 6773
29580 44514 2343
15002 44514 24596
20929 44514 245
41508 44514 6697
12635 44514 5089
16464 44514 11957
31105 44514 14294
6088 44514 47712
20028 44514 25689
13695 44514 42534
24110 44514 22776
23750 44514 373
25113 44514 17489
11607 44514 34964
35602 44514 6088
25804 44514 12746
33942 44514 19367
10439 44514 42914
22905 44514 32750
28549 44514 10742
61028 44514 55791
59249 44514 55929
61206 21030 5089
61206 24928 5546
61206 8039 3937
61206 1536 4008
61206 43707 5548
61206 5893 2856
61206 25590 3427
61206 1077 634
61206 4289 4643
61206 17173 5343
61206 26759 4746
61206 6267 5399
55642 8708 56638
55642 25049 56178
55642 9539 58292
55642 12034 59648
55642 4719 58718
55642 177 59026
55642 14458 56299
55642 11145 56726
55642 1913 58844
55642 12341 57784
55642 18725 56386
55642 1811 56941
5240 0 4042
2964 0 3624
55642 42503 3097
55642 36969 4270
55642 21727 4517
55642 9086 4734
55642 36226 3238
55642 5263 5152
55642 24716 4823
55642 38826 3344
55642 34211 2452
55642 43149 2583
55642 29264 5469
55642 42312 4488
55642 18043 4432
59117 1511 55642
56137 20717 55642
57636 988 55642
57452 24265 55642
57340 13475 55642
57958 13496 55642
60399 3121 55642
56507 12367 55642
57412 9619 55642
57193 6497 55642
60196 2173 55642
55810 31137 55642
56995 8746 55642
57588 25131 55642
55642 24491 56738
55642 33237 55853
55642 19066 58368
55642 13162 56652
55642 5909 60134
55642 5252 57116
55642 3879 60058
55642 18359 57753
55642 7286 55923
55642 6423 57796
55642 22239 57100
55642 3017 55841
55642 8693 59579
55642 3872 58239
3166 12201 0
3460 1632 0
2521 17295 0
2441 13369 0
4077 9930 0
1845 14887 0
3753 12788 0
2502 743 0
296 14089 0
2002 11734 0
303 3365 0
2498 2864 0
3392 7242 0
1290 7397 0
55642 30134 49
55642 621 4314
55642 1906 2630
55642 20388 1337
55642 30004 1118
55642 15318 1089
55642 17956 2895
55642 6447 883
55642 22078 1014
55642 12242 587
55642 35824 524
55642 21539 1824
55642 7298 827
40411 46799 61206
50447 46441 61206
15590 45693 61206
51071 47063 61206
31686 45939 61206
42385 46132 61206
54491 44759 61206
8937 45090 61206
13647 45240 61206
28715 44715 61206
55716 45093 61206
56618 46377 61206
52293 45391 61206
52152 46711 61206
60229 47546 61206
44993 44936 61206
58021 47964 61206
47005 45786 61206
42913 45438 61206
61206 5391 59477
61206 26430 59330
61206 4685 59108
61206 26621 60378
61206 1745 56698
61206 32943 60938
61206 2858 57030
61206 302 55723
61206 15655 59234
61206 15086 60983
61206 12376 58241
61206 19074 60868
61206 30107 60377
56758 44514 59878
3710 12824 61206
4058 19078 61206
803 1183 61206
2542 927 61206
5273 9408 61206
4949 19274 61206
4962 34609 61206
5458 14606 61206
3161 7089 61206
3125 18839 61206
4504 263 61206
2465 11133 61206
4326 30914 61206
1843 9978 61206
61206 46768 15178
61206 49119 15295
61206 49014 37188
61206 48021 34287
61206 47783 1886
61206 45978 1811
61206 48353 21524
61206 47874 28343
61206 49524 22919
61206 48040 20951
61206 49266 8286
61206 47488 21044
61206 47894 33118
61206 46155 10707
61206 46998 503
61206 45704 11047
61206 47858 14548
61206 46117 7281
2668 14232 55642
600 22142 55642
570 21394 55642
3142 4107 55642
1126 31824 55642
1180 20997 55642
3841 8508 55642
2218 6811 55642
699 29709 55642
2619 8887 55642
326 35848 55642
2105 17064 55642
55642 17377 60762
55642 35792 60726
55642 13581 59662
55642 43134 58568
55642 29873 59884
55642 32651 60785
55642 39335 56337
55642 44252 59764
55642 40052 56600
55642 33430 59837
55642 30255 58434
55642 26862 57993
55642 26909 58598
56145 0 58184
59105 0 56638
58939 44514 34091
60255 44514 34260
56730 44514 54620
56730 44514 52115
59089 44514 51475
60075 44514 17723
58392 44514 43775
58267 44514 49596
60791 44514 37809
61139 44514 6692
59862 44514 40212
60004 44514 25490
57547 44514 45414
59877 44514 48122
41783 45342 0
39940 45487 0
30357 46058 0
46642 44781 0
38956 45459 0
13051 48672 0
56086 44714 0
15308 47171 0
25338 47281 0
6259 48118 0
7429 45467 0
14264 47880 0
23163 47474 0
19027 44992 0
49486 44809 0
24611 47212 0
16093 46987 0
2826 44514 83
4554 44514 382
2622 44514 3417
4613 44514 5136
56222 44514 14335
58042 44514 24709
56585 44514 35850
58280 44514 6908
58602 44514 20223
57668 44514 17380
59412 44514 19344
58230 44514 13275
57889 44514 26650
59132 44514 15286
56200 44514 46950
56295 44514 27433
58758 44514 9047
55919 44514 52028
61206 49782 43732
61206 48815 9743
61206 47940 27224
61206 48467 27962
61206 50048 20819
61206 46676 18194
61206 49390 36219
61206 49261 28486
61206 49693 25458
61206 45449 3427
61206 46348 1118
61206 49696 2791
61206 47277 1575
61206 48398 31221
61206 50015 26405
61206 48604 23116
61206 49518 11962
61206 47401 29766
4841 0 55744
3331 0 58248
1281 0 59945
55872 26662 61206
60223 44323 61206
58923 32278 61206
55957 3121 61206
58053 30729 61206
56364 38348 61206
55988 12595 61206
55952 5594 61206
58656 24398 61206
55799 9239 61206
56348 41350 61206
59446 38365 61206
56944 34097 61206
58115 28553 61206
56559 14044 61206
56463 0 4825
32702 44838 0
18977 47206 0
18711 46183 0
6620 44696 0
1073 49143 0
14890 45872 0
28087 46054 0
15333 44742 0
24893 45669 0
26527 44604 0
23276 44781 0
16569 48418 0
38477 46564 0
8313 48193 0
22174 46781 0
4034 46697 0
12737 45963 0
20168 45546 0
1657 45186 0
3020 45966 0
59726 39236 61206
59511 44405 61206
57349 39072 61206
57099 28808 61206
57423 20431 61206
59236 29426 61206
55906 20047 61206
58168 40162 61206
55697 22939 61206
56229 11716 61206
1875 9918 0
3976 8440 0
705 23937 0
721 26219 0
1115 20903 0
3313 5019 0
3369 617 0
4705 1360 0
891 24665 0
651 9592 0
4619 54 0
835 15082 0
1421 15517 0
61206 48228 41670
61206 48278 48618
61206 48548 58741
61206 45201 58355
61206 47040 58496
61206 44533 12914
61206 46265 54088
61206 45323 39196
61206 44637 5711
61206 48781 52886
61206 47199 39034
61206 44873 35837
61206 45242 47151
61206 46441 26780
61206 45559 50356
61206 45184 40155
61206 46107 59629
61206 46172 29725
61206 45349 10319
61206 45537 43467
0 28761 4348
0 41056 4177
0 39088 4490
0 23026 5464
0 12824 4283
0 19178 3426
0 39827 2972
0 44157 806
0 41725 4996
0 44259 2471
0 35989 2996
0 15648 4500
0 35950 4090
56450 3919 61206
60615 17952 61206
58465 21322 61206
58821 3171 61206
60970 23830 61206
60056 25131 61206
56954 10273 61206
59690 25758 61206
60178 27771 61206
60541 31627 61206
57374 2487 61206
58445 7273 61206
58254 4177 61206
55642 2975 887
55642 20724 1993
55642 11643 2342
55642 11184 881
55642 3932 2566
55642 6769 4244
55642 34699 680
55642 24846 374
55642 31546 457
55642 10949 4000
55642 12356 3083
55642 8497 3546
55642 9866 462
58662 0 57999
61206 36335 3584
61206 38680 949
61206 16313 1017
61206 23492 897
61206 37164 3690
61206 39756 2653
61206 20983 1193
61206 37287 2363
61206 42609 1355
61206 26795 2240
61206 33428 2077
61206 32453 3501
61206 40357 4067
61206 39532 134
61159 44514 64
60235 44514 1731
61206 14729 55745
61206 15652 56289
61206 37199 59136
61206 34624 59215
61206 26458 56536
61206 13204 56706
61206 38661 56145
61206 25457 57663
61206 22211 56286
61206 20216 57766
61206 37779 57147
61206 33255 56177
61206 41472 59907
61206 25546 55890
43750 48305 0
38887 48376 0
52494 45977 0
39896 50057 0
56202 46435 0
29727 48466 0
32623 47628 0
48177 45720 0
38791 47235 0
56739 48916 0
52212 47784 0
59480 45913 0
52478 49575 0
40861 49763 0
38283 49739 0
58014 45584 0
32373 49576 0
56669 48309 0
52009 50018 0
2862 44514 16820
546 44514 31879
2458 44514 20241
1370 44514 7771
2204 44514 16599
1524 44514 16745
2611 44514 9280
2574 44514 18914
3904 44514 18261
222 44514 40051
894 44514 38083
4405 44514 10585
959 44514 19164
133 44514 43083
2935 44514 19478
3044 0 1479
2823 0 2637
3901 22316 0
3743 20230 0
2713 32200 0
5164 6242 0
3648 19569 0
4754 11958 0
4328 12798 0
2373 34309 0
3589 40604 0
4876 32655 0
5119 8178 0
2112 42918 0
3869 22958 0
55644 44514 21784
56042 44514 35054
56059 44514 32105
58219 44514 10167
57377 44514 29346
56015 44514 20988
56287 44514 25515
58945 44514 20970
56454 44514 9937
56346 44514 18162
57493 44514 18959
55717 44514 42396
57015 44514 11912
57794 44514 28205
3621 9659 61206
5338 39734 61206
907 2679 61206
4323 10808 61206
5411 36729 61206
3986 3476 61206
3000 18021 61206
3970 18172 61206
4433 23708 61206
3851 13565 61206
3099 22476 61206
5344 33402 55642
4496 17215 55642
2493 32788 55642
3925 37153 55642
3313 29470 55642
5560 25874 55642
2926 24397 55642
2407 43927 55642
4536 16266 55642
3807 15653 55642
3317 32520 55642
3400 19347 55642
1552 39319 55642
5564 21958 1891
5564 40964 753
5564 42337 3800
5564 42886 4316
5564 40160 4326
5564 22336 1096
5564 35027 2442
5564 7172 260
5564 44035 2882
5564 27629 1429
5564 34173 3814
5564 32411 3658
5564 20267 267
59970 5438 0
59112 11299 0
56392 21806 0
55713 10198 0
57146 27414 0
59306 5924 0
55979 21169 0
56229 38259 0
56195 7372 0
56284 15635 0
57215 15467 0
56924 18988 0
58967 9039 0
61206 47334 54925
61206 44622 46559
61206 47059 28459
61206 45669 14012
61206 45744 19012
61206 47494 60520
61206 45496 51416
61206 44554 60633
61206 48334 52232
61206 44577 17526
61206 44556 4291
61206 49046 55877
61206 44636 23400
61206 44652 20455
61206 44972 37934
29627 49610 61206
7584 46358 61206
32298 48786 61206
18922 49352 61206
6738 47377 61206
27980 49776 61206
9569 48123 61206
42662 48664 61206
30298 49231 61206
17984 49381 61206
3266 47130 61206
2727 46839 61206
10798 48525 61206
7065 45735 61206
3984 44901 61206
8321 47608 61206
3983 49608 61206
7074 49120 61206
22366 47628 61206
5489 48489 61206
5564 37973 58755
5564 6814 56302
5564 33833 57586
5564 28846 56931
5564 27080 56024
5564 16714 57071
5564 39075 60001
5564 19034 57527
5564 22066 58367
5564 27866 57438
5564 23401 57484
5564 36697 60132
0 4129 373
0 30978 492
0 32654 1426
0 29712 289
0 22076 2730
0 18053 2986
0 799 3230
0 2182 4837
0 67 169
0 5287 1335
0 5651 4563
0 17520 528
0 7373 518
241 44514 3460
57632 44514 60646
61151 44514 57814
8156 44514 18220
6941 44514 25862
26222 44514 23573
19050 44514 28959
38676 44514 2224
28316 44514 2721
6493 44514 46669
13693 44514 28255
21801 44514 24764
5897 44514 52688
28471 44514 28682
9593 44514 50024
24996 44514 31623
5832 44514 40473
7888 44514 29682
16767 44514 44373
32569 44514 19897
29165 44514 19234
38411 44514 5079
11191 44514 31867
14498 44514 1479
26923 44514 25307
8395 44514 4820
9960 44514 35611
45797 44514 8085
28981 44514 21488
17612 44514 34586
9198 44514 38111
19835 44514 41676
21510 44514 31482
7504 44514 35540
23816 44514 2704
30298 44514 26019
29958 44514 12432
38820 44514 3897
37094 44514 10838
27705 44514 18655
28534 44514 26344
5902 44514 9274
9948 44514 10550
12437 44514 38165
14822 44514 45778
23541 44514 12682
25320 44514 33716
25097 44514 6935
10554 44514 39629
26672 44514 29519
16702 44514 1572
23493 44514 32695
9719 44514 39659
43724 44514 9184
27124 44514 30323
7933 44514 10265
42001 44514 13831
8730 44514 23477
14324 44514 16316
17179 44514 20212
26178 44514 35979
10783 44514 9421
29583 44514 26484
24272 44514 38019
6836 44514 49639
18684 44514 38553
13169 44514 20968
19470 44514 24405
31407 44514 262
33234 44514 24415
18300 44514 5426
17773 44514 1793
22663 44514 2514
27059 44514 9499
49802 44514 4247
26992 44514 17375
19392 44514 4268
40970 44514 4736
27797 44514 3628
11658 44514 45257
18683 44514 12665
10006 44514 33233
46783 44514 3247
13245 44514 16673
26085 44514 17721
8876 44514 24027
18444 44514 2454
6873 44514 11439
44231 44514 2547
18976 44514 4892
9847 44514 16660
38116 44514 6948
33755 44514 9255
26765 44514 6607
14249 44514 48852
30431 44514 23617
19986 44514 38682
39805 44514 3207
5646 44514 29531
29579 44514 18770
22673 44514 8638
29508 44514 7749
26397 44514 19910
34522 44514 19442
30193 44514 20885
26240 44514 9535
20302 44514 5011
27557 44514 8493
44383 44514 6382
7348 44514 15880
20968 44514 41755
35825 44514 3479
34512 44514 2719
27905 44514 11541
7184 44514 3363
14744 44514 22896
14663 44514 40081
11607 44514 15022
24576 44514 14776
20622 44514 30944
30135 44514 14722
14453 44514 38780
42943 44514 10085
39678 44514 11968
33438 44514 12302
7564 44514 53092
21477 44514 28986
21146 44514 35647
11539 44514 16654
7156 44514 45031
37299 44514 19847
17267 44514 13729
21903 44514 18056
12256 44514 52153
44178 44514 12673
21812 44514 7737
44019 44514 7890
30332 44514 17411
21345 44514 26133
32160 44514 18025
6948 44514 17459
12814 44514 44782
22796 44514 34604
6743 44514 37656
10221 44514 29790
8774 44514 53838
41010 44514 15565
46184 44514 4249
24819 44514 10292
16225 44514 23342
5963 44514 56646
40060 44514 16631
39997 44514 18904
18009 44514 42487
36366 44514 3179
50686 44514 3970
6048 44514 54869
27872 44514 29726
22873 44514 13964
4882 44514 58500
3248 44514 59582
56168 7371 55642
56865 3246 55642
55737 28798 55642
58380 15321 55642
58184 20450 55642
56078 32789 55642
60372 4019 55642
58814 11838 55642
56724 13064 55642
57850 23544 55642
58180 7049 55642
58165 435 55642
4711 38226 0
1400 36615 0
3077 35068 0
5007 14133 0
2987 24773 0
5094 29992 0
2433 27783 0
2419 25172 0
3638 24110 0
5433 28187 0
4348 43678 0
4299 31288 0
2869 25682 0
780 44514 4901
5451 44514 1252
15946 50078 15861
35578 50078 31819
31982 50078 26161
32811 50078 19995
31673 50078 11461
42025 50078 40803
55710 50078 53525
42150 50078 2371
30209 50078 20691
3576 50078 3084
25418 50078 11025
45220 50078 44392
44552 50078 2004
59627 50078 14623
28275 50078 8947
60285 50078 56329
29203 50078 929
26493 50078 22174
39423 50078 3913
54610 50078 25121
35914 50078 28138
43161 50078 38241
40204 50078 37670
44254 50078 16372
22906 50078 2422
37493 50078 18245
38284 50078 1684
28528 50078 602
56978 50078 17444
47008 50078 39290
31056 50078 3672
43149 50078 7191
46014 50078 11216
53954 50078 26296
56532 50078 7277
31362 50078 17712
49376 50078 21052
26875 50078 15262
31745 50078 21586
51187 50078 8797
45740 50078 22411
27530 50078 12021
57552 50078 51897
45415 50078 12921
47060 50078 33877
30266 50078 27907
40131 50078 2564
51508 50078 27677
9934 50078 1112
60315 50078 58584
61187 50078 35227
38128 50078 17881
51396 50078 16283
47947 50078 6323
52813 50078 18903
56773 50078 43246
60815 50078 38251
32959 50078 27927
45800 50078 33757
56930 50078 29162
45200 50078 34881
47101 50078 9198
59274 50078 4757
50508 50078 14414
59247 50078 50560
21452 50078 16919
58059 50078 42822
58929 50078 34450
23158 50078 21291
55328 50078 6753
33433 50078 20615
39459 50078 38754
30637 50078 24989
46249 50078 45375
57750 50078 8733
54787 50078 17504
47021 50078 9989
15385 50078 2846
61077 50078 57874
58509 50078 28435
9539 50078 1621
15985 50078 9235
53087 50078 23745
17616 50078 11169
55389 50078 45989
54472 50078 10719
59493 50078 26282
59921 50078 57322
41633 50078 28956
56093 50078 20656
33377 50078 29077
33007 50078 21488
7747 50078 3073
57020 50078 18673
55495 50078 47013
44903 50078 33121
44742 50078 22331
22232 50078 919
34222 50078 4062
42126 50078 14931
50292 50078 29222
32660 50078 721
14256 50078 5818
55372 50078 14687
54636 50078 807
16026 50078 8117
55821 50078 27552
42077 50078 38523
61065 50078 60123
44492 50078 27017
48647 50078 11844
19144 50078 12374
58033 50078 48504
1681 50078 449
17285 50078 2052
54436 50078 20613
51018 50078 29090
51798 50078 24195
36828 50078 22149
53734 50078 32298
55183 50078 34465
60843 50078 17087
42667 50078 606
60417 50078 60027
10264 50078 4986
49120 50078 13016
57135 50078 9286
8021 50078 4497
38244 50078 2343
28095 50078 15864
12726 50078 8130
59948 50078 52742
58172 50078 40360
61092 50078 46026
53127 50078 12875
53588 50078 756
49907 50078 1127
57656 50078 52739
9240 50078 7596
34191 50078 33228
29123 50078 1954
52512 50078 15568
20002 50078 9479
44644 50078 42444
54287 50078 43636
49634 50078 7216
32641 50078 24363
50834 50078 7258
34381 50078 16478
15118 50078 11525
24801 50078 23159
15679 50078 11123
57254 50078 12136
47004 50078 43910
52553 50078 14110
58221 50078 38461
45039 50078 2726
43907 50078 8619
39893 50078 12036
41236 50078 14792
38228 50078 23587
46648 50078 13269
54223 50078 22077
49271 50078 24722
38897 50078 14341
34936 50078 18915
60106 50078 7821
50032 50078 33942
38174 50078 11698
59761 50078 20292
39389 50078 36669
41274 50078 23852
52276 50078 40906
48781 50078 4480
49707 50078 29427
55701 50078 38877
28901 50078 21857
53808 50078 1936
17183 50078 5816
23700 50078 20515
36649 50078 21371
53445 50078 44804
47637 50078 1609
31983 50078 27334
38079 50078 34367
55794 50078 29661
58514 50078 14817
56279 50078 31619
61069 50078 54489
19048 50078 5458
40036 50078 1291
12194 50078 3707
31923 50078 2079
17666 50078 7156
39538 50078 19477
49883 50078 38421
54538 50078 38193
47814 50078 40884
45881 50078 30986
41622 50078 17632
30351 50078 17396
53751 50078 11936
17184 50078 15072
52609 50078 20815
45805 50078 36725
45700 50078 25140
61206 40184 3373
61206 37776 2933
61206 15214 159
61206 36190 2754
61206 38298 3763
61206 34784 130
61206 12552 498
61206 20347 1859
0 49949 41502
0 48188 49068
0 48489 33265
0 49436 55556
0 48984 50802
0 49653 14896
0 47478 50279
0 49809 13982
0 50029 40312
0 49173 59290
0 49498 38537
0 49260 41115
0 48815 59946
0 48694 30312
0 50048 44139
0 49531 45020
0 48160 32598
0 44945 59321
0 48086 56118
2709 9893 5564
5408 9906 5564
4531 15450 5564
2997 2896 5564
2850 5898 5564
2801 15487 5564
2400 18252 5564
3541 10988 5564
1614 288 5564
3444 6754 5564
3207 20110 5564
2407 3630 5564
55845 44514 5403
59238 44514 2975
0 47350 30785
0 50006 58865
0 50068 56922
0 49317 42027
0 47767 44155
0 49991 27013
0 47884 28868
0 46170 52735
0 49026 52238
0 49250 57313
0 49084 40474
0 47013 50599
0 48209 34962
0 48461 41441
0 49766 36614
0 49541 33417
0 49066 14538
0 49233 58006
0 46164 59594
5564 10181 58504
5564 1369 61170
5564 6468 59100
5564 7920 58307
5564 28393 59372
5564 2163 58289
5564 24732 60834
5564 11081 60226
5564 2557 59740
5564 6279 58489
5564 9176 56922
5564 7606 60684
5564 2355 58866
5298 0 59597
5564 27493 3562
5564 33055 5295
5564 14815 5350
5564 2203 2610
5564 41529 5207
5564 18972 3415
5564 16715 2319
5564 29767 4422
5564 18924 5063
5564 8339 4076
5564 1649 499
5564 8318 2697
5564 21905 5491
5564 15099 2400
5564 14721 3579
1816 37801 61206
2056 22421 61206
1802 28985 61206
3540 42467 61206
437 25549 61206
5176 41912 61206
692 26460 61206
3495 32615 61206
5008 42621 61206
2860 27828 61206
2055 32396 61206
2900 26972 61206
22904 50078 43560
29574 50078 54167
16891 50078 44787
5926 50078 52574
28129 50078 32138
6225 50078 54528
3297 50078 52937
20927 50078 59208
27800 50078 35562
17258 50078 28165
46743 50078 55291
57549 50078 59827
24622 50078 51488
11027 50078 12984
31369 50078 34031
18707 50078 40600
27928 50078 29501
34467 50078 53281
993 50078 8563
524 50078 10655
41473 50078 57992
11388 50078 42790
54235 50078 57846
35843 50078 53498
14744 50078 28228
26332 50078 41657
22960 50078 56824
2081 50078 57560
40011 50078 44434
27261 50078 48694
22168 50078 36424
40619 50078 55218
23901 50078 57649
55693 50078 60155
34268 50078 44926
19408 50078 46826
9372 50078 16895
4637 50078 5345
3703 50078 9126
10686 50078 23299
1910 50078 14084
48809 50078 58625
23311 50078 30958
17988 50078 53616
535 50078 26295
48642 50078 55357
9547 50078 11714
18324 50078 27580
28226 50078 45655
5427 50078 16707
1299 50078 28634
50402 50078 55505
33293 50078 43847
7187 50078 11824
30110 50078 36689
25554 50078 36777
8109 50078 47420
37317 50078 46835
12958 50078 58819
29502 50078 45682
22149 50078 27355
1441 50078 33184
51338 50078 54865
11181 50078 15529
10738 50078 50847
12323 50078 40529
174 50078 51797
8312 50078 27778
3888 50078 23747
3953 50078 20680
5041 50078 12517
2721 50078 48431
41802 50078 41961
32426 50078 49893
22321 50078 54221
55588 50078 61152
44178 50078 46490
42054 50078 45291
6485 50078 38264
6149 50078 14822
45666 50078 58204
40461 50078 58963
7969 50078 16705
6245 50078 6967
18981 50078 56573
15672 50078 27073
4120 50078 8275
2279 50078 8197
40982 50078 42752
31455 50078 43448
12812 50078 20251
5660 50078 57637
40427 50078 41740
4690 50078 55784
5902 50078 51014
10031 50078 19161
3371 50078 38113
15812 50078 59029
45478 50078 51102
19373 50078 48803
102 50078 35742
22667 50078 40827
10955 50078 49931
975 50078 12937
20178 50078 54806
3689 50078 24323
9149 50078 16386
6542 50078 53472
36828 50078 60373
8042 50078 46711
51307 50078 52569
4706 50078 24922
1507 50078 51472
304 50078 2901
38070 50078 43424
25306 50078 53129
29042 50078 35283
7143 50078 25428
14530 50078 40122
3638 50078 12360
48114 50078 52602
2224 50078 15653
30786 50078 31541
16354 50078 30060
43732 50078 60311
6017 50078 21203
27497 50078 40644
4652 50078 36281
10879 50078 44716
47719 50078 50388
12355 50078 47903
13397 50078 16762
30383 50078 33732
24999 50078 58608
4383 50078 12614
20139 50078 27348
24129 50078 56513
11426 50078 12262
39934 50078 51317
2976 50078 49325
15231 50078 15304
11965 50078 34396
25265 50078 48506
11777 50078 18366
13413 50078 45791
26697 50078 46792
34416 50078 49723
37947 50078 50947
39279 50078 51955
31627 50078 50965
24810 50078 25717
18420 50078 41155
15777 50078 58001
42575 50078 47215
9718 50078 47044
21010 50078 42853
8215 50078 40436
9158 50078 15073
33394 50078 41801
9860 50078 52579
51705 50078 55916
4427 50078 22216
833 50078 32802
5834 50078 32889
17446 50078 34062
20158 50078 24165
49145 50078 55809
30280 50078 35133
18347 50078 24550
13967 50078 46122
33392 50078 49837
10885 50078 16549
7760 50078 28925
21874 50078 44231
19146 50078 39197
41629 50078 52272
37375 50078 54266
16178 50078 48485
8281 50078 37496
19538 50078 36299
5139 50078 50447
30053 50078 51097
19205 50078 60790
5698 50078 38913
75 50078 28503
44517 50078 52250
36239 50078 50253
23044 50078 29907
28570 50078 32887
6982 50078 46521
20194 50078 43431
1626 50078 45869
28975 50078 43471
2748 50078 43089
29040 50078 37639
9386 50078 61204
22863 50078 25634
25453 50078 26055
40070 50078 43411
14091 50078 18352
6096 50078 18202
20319 50078 26339
53558 50078 54035
14135 50078 52245
816 50078 51544
12495 50078 36612
386 44514 59334
4744 44514 56035
52958 50078 3162
51430 50078 25093
24419 50078 1733
37492 50078 37350
37610 50078 26269
60396 50078 4060
59989 50078 8499
53786 50078 24684
16090 50078 14571
34127 50078 21284
58480 50078 17265
59894 50078 35190
35977 50078 18298
61139 50078 13159
55154 50078 12019
25537 50078 794
57802 50078 44489
41070 50078 40496
13515 50078 10139
51878 50078 31598
51610 50078 39839
57495 50078 42432
55872 50078 1378
48371 50078 35430
56268 50078 13291
44827 50078 3635
51643 50078 43097
54356 50078 29570
36686 50078 5399
57752 50078 46071
58460 50078 52126
53257 50078 34404
18446 50078 8051
43223 50078 6511
26984 50078 4088
24193 50078 8369
60005 50078 15494
46288 50078 22733
30599 50078 9506
12228 50078 6029
44508 50078 23904
36148 50078 7636
53114 50078 1183
42929 50078 29670
33486 50078 24398
19398 50078 163
52610 50078 5405
17787 50078 9521
53109 50078 48119
52736 50078 38585
30798 50078 1272
32989 50078 4200
52403 50078 25587
21515 50078 4895
10289 50078 7857
59401 50078 47491
39341 50078 12684
40600 50078 22888
31986 50078 16140
23116 50078 1258
57332 50078 20666
41773 50078 5706
41457 50078 25894
51904 50078 51090
50365 50078 42786
27773 50078 17735
36707 50078 33309
12313 50078 874
10625 50078 6531
35093 50078 15504
43847 50078 35742
14256 50078 4878
5943 50078 608
41799 50078 3158
46190 50078 44467
38715 50078 19375
45914 50078 41859
35481 50078 35438
42198 50078 22832
7477 50078 2461
50706 50078 42047
30011 50078 11473
52878 50078 50431
59976 50078 18103
13892 50078 4336
53885 50078 46252
43400 50078 41475
54034 50078 30962
31836 50078 31595
37571 50078 10250
60773 50078 28931
26726 50078 16486
47452 50078 24292
59946 50078 37537
45120 50078 10021
47407 50078 46160
50873 50078 11130
31788 50078 416
15616 50078 183
50916 50078 4566
23820 50078 17901
36257 50078 30685
35562 50078 10299
40246 50078 39542
45770 50078 12447
37391 50078 8966
54275 50078 36828
47331 50078 26610
38648 50078 3101
56780 50078 16500
50121 50078 2499
14138 50078 13717
46249 50078 16395
53697 50078 20121
11720 50078 4522
18764 50078 953
31709 50078 30384
58473 50078 5593
35793 50078 14776
38711 50078 35264
30392 50078 10657
56492 50078 48926
13688 50078 1486
59783 50078 12958
25801 50078 1832
54842 50078 43809
44495 50078 26062
59606 50078 28011
33708 50078 13255
51008 50078 7890
15290 50078 4798
39262 50078 6463
31761 50078 5196
51999 50078 21165
46333 50078 14750
41628 50078 18218
19846 50078 18049
39677 50078 27951
34544 50078 13570
15531 50078 7811
20234 50078 7411
8666 50078 605
47448 50078 31217
51252 50078 18428
49178 50078 35916
54869 50078 3219
48450 50078 1095
42223 50078 10942
28376 50078 13969
48802 50078 32524
37598 50078 31863
44804 50078 37548
56202 50078 18272
46568 50078 42642
13111 50078 8783
40817 50078 2568
39047 50078 33791
25608 50078 18239
45026 50078 13374
2798 50078 1877
30677 50078 19471
54886 50078 4510
33686 50078 10888
46302 50078 28124
52943 50078 17982
40713 50078 20847
38644 50078 29511
25767 50078 22228
49213 50078 40428
52010 50078 43870
60765 50078 41409
51052 50078 12272
27926 50078 26153
48576 50078 39373
45647 50078 21639
35917 50078 19124
26427 50078 18264
40803 50078 8374
58773 50078 44504
57500 50078 18395
56786 50078 54399
55228 50078 41347
36007 50078 13472
23453 50078 13987
58803 50078 54227
58275 13696 5564
59539 9959 5564
59805 31894 5564
57674 11394 5564
56232 3885 5564
58467 4609 5564
61008 32620 5564
57342 12804 5564
59017 8709 5564
59559 24102 5564
58698 183 5564
60155 36069 5564
60754 17367 55642
57822 29855 55642
61033 4128 55642
60498 33243 55642
58922 33701 55642
58369 28646 55642
58746 26695 55642
57601 34971 55642
59698 39546 55642
58891 21360 55642
58768 38883 55642
57147 36899 55642
61068 2374 55642
55820 44514 1751
55642 41811 57958
55642 27600 60614
55642 36834 60373
55642 40339 60928
55642 30804 60170
55642 28488 58833
55642 41152 58978
55642 37436 59217
55642 28093 59387
55642 18197 59579
55642 19585 60155
55642 23636 59810
55642 32104 58492
56249 44514 803
59972 44514 150
61119 0 3217
60097 0 3389
60567 15482 61206
57557 1692 61206
60582 1156 61206
58082 1168 61206
60062 13304 61206
56849 1159 61206
59466 3837 61206
56959 5999 61206
58224 2910 61206
59240 11974 61206
57630 4529 61206
61055 30510 61206
58806 19347 61206
5564 4779 4023
5564 30983 5284
5564 22612 4292
5564 11346 1620
5564 23394 3189
5564 1756 3254
5564 15837 3361
5564 28367 4766
5564 6064 4135
5564 5251 3213
0 6594 2464
0 15084 3664
0 8797 3435
0 11633 3008
0 10272 538
0 20921 2579
0 12503 2922
0 17720 2273
0 8738 1306
0 23284 2025
0 6983 1222
60654 15035 55642
60062 10524 55642
58253 40080 55642
58796 37976 55642
59983 40592 55642
59843 26822 55642
59721 14448 55642
60027 27930 55642
58405 34214 55642
59412 19602 55642
59972 21718 55642
59532 42916 55642
56544 0 1123
57767 0 1580
2127 0 58151
1245 0 57358
0 44920 26858
0 46868 3879
0 46822 26222
0 46801 12013
0 45728 10620
0 44797 51040
0 44650 5777
0 46780 7209
0 48084 12427
0 45761 23158
0 46464 28333
0 47836 9751
0 45156 13258
0 45262 29872
0 49409 3446
0 44739 8750
437 45461 61206
8212 48565 61206
5527 49546 61206
5045 47838 61206
31347 48695 61206
11321 48174 61206
1754 48528 61206
33556 48979 61206
36631 48074 61206
22843 49724 61206
45497 49829 61206
17299 47115 61206
25193 48159 61206
17986 50040 61206
56583 49776 61206
19121 48699 61206
1836 0 1378
1037 0 1160
56191 33480 5564
59341 29866 5564
58764 42907 5564
58628 29349 5564
57176 31368 5564
56659 32652 5564
58178 43831 5564
56486 35007 5564
56769 15659 5564
57134 22041 5564
55973 23221 5564
59736 37618 5564
58855 40273 5564
59027 43614 5564
61206 35367 55930
61206 34505 59850
61206 43410 59520
61206 17772 55697
61206 12184 55690
61206 22259 57272
61206 42306 56363
61206 9861 56494
61206 23747 57376
61206 32955 56853
61206 28360 59530
61206 11126 58990
61206 16133 57751
61206 27123 61016
61206 18265 60241
61206 5746 60565
61206 7619 60182
61206 23009 60960
61206 3655 56523
61206 28640 60026
61206 15338 58716
61206 4799 58494
56415 0 2515
55739 0 1157
3186 44514 20861
4327 44514 13730
2119 44514 6537
1499 44514 34594
3203 44514 6085
2035 44514 13978
2569 44514 30693
467 44514 20062
2119 44514 21687
2178 44514 14624
1308 44514 28276
1818 44514 9712
1680 44514 12558
3557 44514 14009
4884 0 2948
3395 0 2721
56706 44514 60973
59348 44514 58588
50483 44514 19184
25763 44514 38839
50379 44514 37540
22064 44514 52396
39579 44514 30785
38202 44514 39037
15700 44514 49630
37814 44514 41634
55044 44514 53751
21480 44514 54740
49484 44514 18742
43646 44514 21251
24876 44514 48769
53316 44514 54136
41274 44514 50853
53698 44514 6375
44283 44514 57844
46683 44514 22808
49671 44514 46638
43074 44514 17071
19104 44514 45489
43017 44514 25366
31072 44514 60558
46927 44514 38867
44909 44514 47335
46975 44514 46046
20359 44514 46689
47948 44514 28731
48137 44514 12472
20127 44514 49271
40094 44514 34882
47739 44514 23274
30382 44514 35330
42883 44514 43762
53568 44514 32902
35995 44514 29532
34633 44514 39240
15118 44514 58431
24286 44514 42761
45440 44514 55318
28495 44514 58421
17659 44514 60383
34915 44514 56588
44923 44514 46724
52356 44514 4757
49736 44514 22781
55355 44514 15381
37151 44514 28733
45987 44514 25929
49628 44514 40017
29664 44514 60856
36633 44514 39012
23965 44514 60533
36901 44514 54912
33676 44514 40706
52122 44514 51043
48776 44514 19210
12710 44514 55984
24802 44514 58601
50926 44514 52372
47298 44514 48282
48860 44514 24067
42705 44514 19544
40731 44514 27070
33864 44514 32329
48686 44514 52631
46864 44514 23641
31332 44514 49713
42246 44514 33124
44025 44514 42500
55485 44514 11170
45447 44514 47634
30672 44514 59505
45141 44514 13052
40539 44514 30395
54693 44514 50409
36891 44514 38421
36696 44514 60396
27779 44514 45220
52926 44514 6544
34529 44514 52119
43623 44514 15919
20961 44514 50791
28704 44514 56845
53470 44514 49355
33877 44514 36327
42535 44514 57337
47154 44514 24804
14132 44514 57860
28931 44514 43333
40384 44514 25248
39143 44514 40817
53048 44514 44358
51114 44514 39757
26236 44514 50690
19790 44514 48402
21787 44514 59399
37850 44514 27295
44640 44514 24890
25752 44514 60176
54199 44514 16209
33404 44514 42363
51043 44514 12351
40712 44514 47664
39823 44514 21487
51804 44514 38076
16946 44514 61078
26724 44514 52490
31520 44514 33241
41991 44514 19742
37201 44514 49795
53647 44514 30518
24446 44514 59863
36773 44514 56502
51600 44514 60166
50109 44514 7380
27472 44514 39836
42498 44514 18711
47511 44514 22328
42003 44514 55022
54134 44514 6866
25368 44514 40627
41041 44514 48175
19763 44514 60036
50893 44514 61045
42283 44514 40169
32145 44514 54720
41903 44514 52610
26410 44514 59413
44011 44514 29991
47397 44514 58631
17020 44514 51625
48291 44514 39184
21450 44514 45503
24833 44514 56450
35046 44514 27741
47112 44514 41039
45703 44514 24599
23017 44514 50806
40656 44514 40565
48702 44514 31468
29952 44514 55973
53850 44514 14445
36467 44514 39994
47915 44514 29788
17290 44514 46893
46291 44514 52516
40206 44514 27902
53039 44514 28928
43515 44514 41580
39485 44514 26450
48072 44514 50639
29699 50078 55424
2005 50078 54506
8283 50078 55933
30569 50078 42069
9315 50078 20138
9488 50078 13172
43557 50078 53405
7192 50078 20059
117 50078 25897
14887 50078 54885
127 50078 37270
10514 50078 29587
4666 50078 18212
46325 50078 49962
23579 50078 37162
4896 50078 37928
735 50078 29080
51139 50078 58556
20580 50078 22108
17124 50078 25680
6571 50078 20828
41717 50078 51054
22677 50078 37484
7372 50078 59062
9380 50078 57387
33874 50078 56974
1634 50078 43451
7484 50078 56931
13079 50078 35263
31267 50078 50030
3312 50078 33418
35142 50078 57858
27351 50078 32300
20746 50078 49789
11662 50078 32018
6456 50078 26830
58232 50078 58674
30973 50078 37987
33346 50078 44473
2454 50078 13091
701 50078 45050
2528 50078 27146
9180 50078 23407
18421 50078 59786
23707 50078 48130
29061 50078 55385
6804 50078 38948
8544 50078 22058
57542 50078 58123
31190 50078 35765
10400 50078 44434
23498 50078 38906
26637 50078 38672
1551 50078 52093
12258 50078 60100
15233 50078 21886
5664 50078 33860
2867 50078 38392
3311 50078 56673
15044 50078 49242
25109 50078 52043
14968 50078 60118
7817 50078 50237
10320 50078 36553
27827 50078 55222
7693 50078 19733
20426 50078 22979
22914 50078 49065
29434 50078 38144
19352 50078 24943
24174 50078 54242
24143 50078 29891
6412 50078 34237
56330 50078 60656
36344 50078 43845
21977 50078 28300
29954 50078 60132
18409 50078 43609
2392 50078 45805
24770 50078 34002
5217 50078 7650
31587 50078 48910
4485 50078 53361
41471 50078 48166
300 50078 740
9762 50078 25745
19173 50078 33595
2008 50078 47361
36632 50078 40996
8224 50078 53325
16994 50078 22698
3559 50078 46021
35165 50078 44468
42143 50078 59503
44542 50078 47980
32484 50078 44122
5424 50078 53903
8195 50078 43223
37491 50078 57787
16976 50078 56348
26821 50078 60861
26884 50078 52765
6798 50078 61193
54166 50078 54561
46437 50078 47988
20858 50078 58414
16528 50078 52325
2116 50078 28552
11581 50078 29782
39433 50078 54453
21440 50078 27231
6979 50078 37382
20456 50078 56448
23840 50078 28586
11692 50078 57447
42523 50078 51112
22163 50078 44926
18560 50078 52349
8863 50078 49045
9421 50078 48650
16008 50078 17005
10627 50078 24541
6406 50078 31113
50904 50078 59123
28518 50078 36669
7376 50078 16941
23791 50078 51507
8111 50078 33833
28016 50078 56534
5914 50078 11669
1357 50078 29920
20457 50078 60096
36791 50078 44866
13013 50078 29942
14379 50078 26916
11359 50078 53040
5364 50078 28436
33508 50078 55027
3142 50078 14778
14269 50078 49000
21421 50078 35028
6151 50078 43995
10901 50078 45666
19661 50078 21926
27746 50078 47741
3400 50078 44433
3493 50078 61174
16491 50078 45515
2211 50078 17323
19861 50078 38769
973 50078 43728
29474 50078 44708
29537 50078 39007
15059 50078 22818
25496 50078 59402
17903 50078 18621
4012 50078 30281
11354 50078 46881
26136 50078 35709
32548 50078 37606
18620 50078 18920
25927 50078 37539
6224 50078 55316
5683 50078 35643
33136 50078 45702
18177 50078 46314
12324 50078 25007
40049 50078 52952
8009 50078 49133
25931 50078 52892
15657 50078 50334
48078 50078 55676
5796 50078 60732
16428 50078 21478
26318 50078 32991
29860 50078 59047
28940 50078 49822
52719 50078 54195
31346 50078 41795
41237 50078 47104
33314 50078 60659
8463 50078 13312
7724 50078 42556
45845 50078 60036
13525 50078 51320
49285 50078 49337
29274 50078 30188
1720 44514 58339
58849 0 60149
5344 44514 16627
1717 44514 49115
3355 44514 34086
3251 44514 37759
4934 44514 46853
3844 44514 33746
3842 44514 40013
4303 44514 29467
5091 44514 43139
4295 44514 28771
4876 44514 25872
2048 44514 53454
3475 44514 42724
3216 44514 50459
55946 7782 5564
58620 30510 5564
58610 36089 5564
56246 9605 5564
58129 25601 5564
56235 8659 5564
60719 40781 5564
59247 41134 5564
57307 19467 5564
56122 43802 5564
57410 26042 5564
56344 30851 5564
41792 46934 0
53276 48016 0
29896 47784 0
52410 48977 0
46450 46893 0
46762 48937 0
37454 49230 0
54943 46399 0
8408 49542 0
9022 49767 0
22936 48651 0
47183 46016 0
50900 45453 0
26208 49432 0
36689 49617 0
42427 48755 0
59527 32002 0
60715 43826 0
59461 18780 0
60353 34670 0
57943 27859 0
58470 35134 0
60280 21164 0
60002 12014 0
58362 23547 0
59635 23322 0
60228 42503 0
60565 16110 0
58815 42366 0
59396 40919 0
59343 25769 0
5564 42228 56120
5564 29614 56686
5564 43202 58065
5564 13078 56580
5564 26908 56689
5564 16286 56381
5564 43485 60623
5564 32085 57403
5564 22339 57064
5564 20803 56900
5564 33389 58044
3548 35633 61206
1 417 61206
1316 27096 61206
146 23853 61206
539 13268 61206
1111 33293 61206
366 19163 61206
4704 38534 61206
4437 41613 61206
130 39382 61206
624 6668 61206
