ply
format ascii 1.0
element vertex 2800
property float x
property float y
property float z
end_header
22339 24490 78468
50301 11695 26535
1786 26438 19647
30198 9558 1228
27507 15391 1228
24805 20516 1228
29621 6342 1228
22715 24765 1228
28449 13603 1228
38750 5310 23224
44254 6699 23224
38391 8480 23224
45479 5196 23224
45579 343 23224
39634 14877 23224
37067 15037 23224
33847 8667 23224
34030 12312 23224
35197 20098 23224
34685 21448 23224
39895 9575 23224
39443 10077 23224
38011 15330 23224
37943 5521 23224
41265 3052 23224
15518 3805 23224
8834 3380 23224
12611 6433 23224
6416 6632 23224
3499 745 23224
7758 14054 23224
7408 8464 23224
6749 7822 23224
6326 12090 23224
12099 5620 23224
3465 13832 23224
8176 3350 23224
6967 17018 23224
7261 15192 23224
6517 9132 23224
50301 12058 44807
1739 10586 39750
1507 10616 34293
50301 11673 30548
50022 31553 60207
50022 30934 60901
18346 26617 72786
13694 26617 60714
11451 26617 64056
11317 26617 66110
16585 26617 70608
18099 26617 60610
14283 26617 62397
18489 26617 68027
18593 26617 57030
8207 26617 59398
7981 26617 63127
12589 26617 64951
18758 28335 12397
18758 26760 9998
48230 32157 77985
49015 32157 77287
32926 32157 78137
29606 32157 77686
5599 26617 63308
16071 26617 74401
10913 26617 70576
7760 26617 64519
5880 26617 70207
2464 26617 60808
15056 26617 72842
3005 26617 65923
3362 26617 70090
4592 26617 66405
8893 26617 73865
50301 6137 30980
50022 1629 47962
9866 25197 76819
13906 25519 76819
16820 29214 76819
51169 32157 51596
51298 32157 62097
50926 32157 75397
51336 32157 33327
50724 32157 67021
1507 13358 47522
43901 30825 1787
43441 27698 1787
44516 29821 1787
35075 30450 1787
20950 15881 1228
23502 20502 1228
28047 1840 1228
21708 25853 1228
21380 12538 1228
26109 12916 1228
22988 23067 1228
21555 19739 1228
22595 11154 1228
25097 9339 1228
50301 11625 43018
50301 14390 42220
8708 26617 4733
14474 26617 8693
17240 26617 9645
15106 26617 11450
14223 26617 12506
9286 26617 9385
18102 26617 14461
12124 26617 11150
16509 26617 17901
15116 26617 6934
16581 26617 4052
18758 29168 66968
18758 28779 72463
18758 29433 71723
33050 29838 60097
33050 28826 64036
33050 28830 61045
50022 31283 15090
1579 32157 77050
7875 32157 78082
16301 32157 77245
12347 32157 77107
50301 4004 31071
18758 2448 12115
18758 10233 3855
18758 772 10491
18758 1239 8535
18758 12857 2095
18758 7690 12050
18758 9506 9091
18758 1244 16188
18758 4848 1899
18758 19475 6239
18758 16971 2553
18758 4547 5191
18758 2652 8696
18758 495 12034
18758 3609 9240
18758 585 16181
18758 749 19256
18758 6230 9114
18758 10759 6662
18758 5679 12805
50301 22383 27872
50301 22345 35683
19350 0 62139
21304 0 44101
20896 0 63498
24385 0 75199
24486 0 67200
22339 0 55010
22260 0 69592
20131 0 45756
18932 0 50362
22003 0 51016
18806 0 24669
18879 0 17990
21805 0 48679
22175 0 74505
19052 0 54822
18786 0 16494
19298 0 45461
18788 0 47397
18944 0 14328
26593 29232 77378
23426 28506 77378
36717 28280 1787
39772 26883 1787
35200 28766 1787
34035 25839 1787
17280 27215 75214
16848 29534 75214
1507 24534 27166
2129 27683 21619
5760 28519 21619
2997 28550 21619
1507 21316 33117
33050 1539 5766
33050 3284 12837
33050 18871 19300
33050 7183 14827
33050 3330 6977
33050 14266 22231
33050 5199 13580
33050 6061 13532
33050 13648 21046
33050 5222 14469
33050 1660 21643
33050 4134 11419
33050 11293 20417
33050 18792 18279
33050 12376 21743
33050 7678 9563
33050 14909 21262
33050 2082 19810
44410 30010 75214
39884 29726 75214
47497 29423 75214
35930 28484 1787
35939 27377 1787
34587 26244 1787
50478 6027 45095
1786 25466 56393
1786 25415 71307
51808 33617 33801
51808 32706 20120
51808 32276 5871
51808 33560 50660
51808 32699 12252
37132 33661 0
36635 33171 0
11514 33595 0
22069 19479 77378
610 32157 50151
772 32157 24197
1347 32157 20497
121 32157 53941
1507 17652 52793
50077 6965 53148
149 32157 56756
1247 32157 13775
866 32157 33013
472 32157 25834
1507 23938 34892
50022 19066 46465
50022 22123 42142
50022 17369 43658
50022 27989 52079
50022 21592 48195
50022 12108 42622
50022 30066 45719
50022 13316 43497
50022 22280 43088
50022 28802 40453
50022 19287 47054
50022 6239 40359
50022 25000 48075
50022 26478 40166
50022 25509 39755
50022 28439 52457
1507 28480 47087
1786 30914 41696
50022 24963 25271
50301 28997 36094
1507 3972 49231
3292 28153 76819
4727 30832 76819
12409 29854 76819
12994 30146 76819
17574 29517 76819
1786 26062 67387
1507 5817 26003
1786 20738 54675
1786 16977 54750
50022 30128 38219
38901 26698 75214
36587 29397 75214
50022 25457 40755
50022 8539 39916
50022 23847 44718
50022 23318 46791
50022 27541 42846
50022 26199 50595
50022 24475 50633
50022 23212 43380
50022 15450 40780
50022 7990 40983
50022 17235 44473
50022 23173 45619
50022 29979 41630
1507 16249 35901
31734 0 52402
31455 0 51070
31187 0 38978
31537 0 53461
32788 0 28227
32472 0 34722
32976 0 37928
32171 0 57104
39368 30551 73045
40722 30551 73804
43921 30551 71569
46560 30551 65682
41547 30551 72492
49645 30551 57735
42839 30551 69582
43517 30551 72564
48147 30551 65269
43003 30551 73063
47694 30551 70964
41588 30551 74773
50301 9479 49847
50301 10287 45746
40463 26617 3842
47566 26617 8554
37504 26617 7615
45553 26617 11137
37328 26617 4727
48038 26617 11829
41790 26617 7651
37155 26617 6536
48359 26617 3896
49050 26617 19705
49113 26617 15323
45734 26617 4792
1507 25636 27211
50022 31876 75201
46342 25011 65308
47411 25011 68992
41717 25011 76088
48709 25011 60417
49371 25011 62223
48034 25011 58125
39724 25011 70871
37198 25011 72722
46583 25011 68529
48065 25011 61843
43154 25011 70852
43990 25011 66056
47792 25011 72386
1786 30907 13785
29291 22929 328
15081 25333 1787
2150 30823 1787
11219 25381 1787
3598 30285 1787
3106 27100 1787
1786 31524 70644
14344 30551 9358
15279 30551 14296
12808 30551 10192
9523 30551 15929
6753 30551 17148
11201 30551 12497
13012 30551 12411
17405 30551 7562
11041 30551 18537
17672 30551 11084
16020 30551 7604
15387 30551 11539
18758 28818 14573
50301 5385 41374
50301 2831 39994
1786 1002 49154
45464 16022 23224
39312 24642 23224
48294 18940 23224
39327 23824 23224
43914 16590 23224
47011 16411 23224
48260 23779 23224
40154 24729 23224
47110 24765 23224
35411 23818 23224
44946 8792 23224
44782 9388 23224
43641 10971 23224
48908 10905 23224
49939 24152 23224
33050 26717 18415
33050 27297 18061
33050 27600 12514
50022 30715 31848
0 33684 53303
0 33508 26963
0 32759 48834
0 33455 18964
1507 28027 29935
1507 29094 32558
50301 27221 27924
34701 32157 78080
44875 32157 77203
26818 32157 78605
14253 32157 78268
49524 20336 23224
49854 15458 23224
46013 12339 23224
42329 11839 23224
41947 13268 23224
39951 23571 23224
49095 6896 23224
49480 19517 23224
43191 14668 23224
49132 10119 23224
45331 24836 23224
45702 13302 23224
46435 11606 23224
50301 29150 42447
50301 28871 44175
44163 30551 12489
46632 30551 20998
47060 30551 16511
47586 30551 14788
49034 30551 11850
42904 30551 20449
40333 30551 17089
47728 30551 10500
47534 30551 17682
48627 30551 10183
48447 30551 16769
41142 30551 17378
34393 30551 4119
39498 30551 8658
35408 30551 3493
43877 30551 8037
41240 30551 5387
38740 30551 4388
41822 30551 6224
33230 30551 9908
33771 30551 17216
45070 30551 5496
18123 30782 1787
30266 11613 1228
50022 800 48880
50301 3198 41108
844 32157 76084
20357 2545 1787
19144 12459 1787
1507 9961 47494
33050 14076 3007
33050 13247 6783
33050 18718 10314
33050 2992 1808
33050 17893 3467
33050 22936 8752
33050 13286 9264
33050 9181 5399
33050 11182 9645
33050 13504 12111
33050 14362 10305
33050 13197 3228
33050 14374 6448
33050 20764 10950
33050 8811 2395
33050 11121 6718
33050 21441 16355
33050 23385 16953
33050 20159 3822
33050 24213 13921
50022 31083 45187
1507 12658 51325
1507 14488 50953
1507 15648 44218
18758 13119 70345
18758 20888 64847
18758 23304 71217
18758 7614 75533
18758 15220 70807
18758 19739 72993
18758 16359 66802
18758 24143 65482
18758 18292 74332
18758 17875 69122
18758 22389 69521
18758 11935 71968
18758 12702 74406
18758 23143 63277
18758 17835 70191
18758 11105 69692
18758 11226 76752
18758 19428 71464
18758 11630 70863
18758 20598 64240
32227 6853 76819
32376 2615 76819
1507 22411 28343
50301 23549 33540
50301 24408 31093
0 32592 18591
0 32392 17964
0 32815 13425
0 32165 15968
50301 13772 51549
50301 12601 48271
1507 19021 51473
50301 14114 49318
1786 31531 64515
18758 14109 64078
18758 2612 59441
18758 492 68970
18758 9424 57700
18758 7027 69558
18758 6689 57039
18758 11478 65071
18758 12954 64175
18758 2385 73886
18758 6454 63562
18758 12726 56762
18758 3240 69035
18758 1234 59298
18758 119 65127
18758 7409 67495
18758 19002 60456
18758 2558 56204
18758 918 64501
18758 16884 61769
1507 15762 30990
1786 30772 43581
50022 28517 76626
50022 1818 31162
33050 20986 4925
33050 8594 4031
33050 11328 3203
33050 23779 21981
33050 16981 12121
33050 6216 5189
33050 22369 10601
33050 23969 4776
33050 17972 5082
33050 22276 16730
33050 22016 18948
33050 14927 3398
33050 16204 3035
33050 12326 3529
1786 26475 24335
1786 13382 24977
46829 26617 60502
48990 26617 68948
39820 26617 60705
43969 26617 61325
47181 26617 65491
49493 26617 60454
48414 26617 59280
46779 26617 61701
44093 26617 57097
35830 26617 57717
50301 15961 27213
50301 14757 28360
32232 29411 76819
34135 28932 76819
34975 27324 76819
39253 30478 76819
1786 31522 49681
45202 19418 55381
34452 16611 55381
39876 12053 55381
35467 13728 55381
34790 9901 55381
42415 20491 55381
33563 24253 55381
37875 16029 55381
40522 17472 55381
37632 16983 55381
34505 15515 55381
39764 15993 55381
34611 2834 55381
36048 6135 55381
34994 19957 55381
18251 26617 18503
10771 26617 4634
18573 26617 15231
15947 26617 4831
6606 26617 5856
4789 26617 5288
16038 26617 15950
16863 26617 6593
17362 26617 8351
5241 26617 6752
18025 26617 19539
15452 26617 15409
1786 1071 28500
1786 382 28459
50301 18119 43903
50301 17495 45746
50301 19107 35563
50022 12704 23754
50022 18260 23970
50022 31818 53493
1786 2010 49058
10104 30551 7459
12364 30551 9737
3144 30551 5865
2713 30551 4055
6789 30551 11707
8333 30551 10189
8218 30551 12318
7571 30551 7704
4437 30551 7039
8222 30551 10912
5122 30551 17039
1786 29937 24499
24245 25494 1228
23225 27260 1228
27731 15957 1228
28301 18515 1228
29764 7976 1228
1786 2881 38977
20594 10555 77152
20594 4641 76900
50301 10679 37157
11889 7603 23224
5372 19067 23224
11422 4105 23224
4837 14548 23224
3467 1722 23224
2171 20924 23224
7652 336 23224
2034 22319 23224
9079 14126 23224
15754 3284 23224
5355 9860 23224
3299 16303 23224
11989 3317 23224
13495 3162 23224
11203 1450 23224
7416 16128 23224
50301 24169 45745
14996 15766 55381
6929 1075 55381
18451 21854 55381
10909 11287 55381
17654 9351 55381
15072 1974 55381
15815 5899 55381
15229 12858 55381
17616 14672 55381
17078 11019 55381
7229 5281 55381
17439 1430 55381
18577 19447 55381
5860 1612 55381
14419 2047 55381
50301 14653 30338
33528 26617 9958
43990 26617 18170
33598 26617 19946
37065 26617 19822
43575 26617 19049
42640 26617 18573
40213 26617 16020
36055 26617 20066
41008 26617 14031
33820 26617 17038
33520 26617 4571
35519 0 35649
42788 0 34953
38734 0 23987
34789 0 31743
43706 0 33960
37127 0 28511
35801 0 37225
38307 0 35443
39216 0 25466
39621 0 39620
38902 0 27272
43256 0 25508
42147 0 24928
40386 0 34076
40764 0 27059
42367 0 27303
44929 0 27411
38143 0 33761
49295 0 23737
37159 0 36437
36191 0 47268
18758 15735 16764
18758 22249 17996
18758 21100 17264
18758 18965 19962
18758 23499 17894
18758 18927 8758
18758 24508 13687
18758 22351 23086
18758 24854 9585
18758 14941 19505
18758 22036 22256
18758 13329 20883
18758 14915 20451
18758 23131 23165
18758 19824 7252
18758 16698 15433
18758 21190 11989
18758 13867 11511
18758 8056 21838
50022 3505 52360
50022 4572 47413
50022 21251 49546
50022 6307 47831
50022 10993 46242
50022 9358 51281
50022 18074 49442
50022 2836 52823
50022 11274 44674
50022 22042 51588
50022 3703 50097
50022 19073 53037
50022 5870 46419
50022 24683 52323
50022 15669 47756
22192 23774 78494
1786 24053 39018
1507 9979 28218
1507 11244 30380
50064 22189 53148
42343 27818 21619
43079 27387 21619
14568 32157 721
24846 32157 1646
43676 32157 1721
2579 32157 146
50301 24323 42009
50301 25226 45071
50890 26468 30763
1507 2959 50523
45345 26617 14947
46871 26617 4327
41134 26617 3494
48499 26617 14481
46409 26617 15524
40006 26617 10636
47700 26617 5622
43538 26617 5556
45903 26617 5559
36568 26617 3896
42968 26617 6494
49468 26617 8904
42656 28575 56987
48606 28065 56987
21572 26101 77378
17084 26617 67753
5089 26617 59035
9723 26617 57607
6528 26617 59787
14469 26617 68274
12028 26617 65424
5488 26617 59802
15091 26617 58785
8082 26617 61084
14769 26617 70608
4283 26617 57165
1507 18253 38777
50301 10281 36511
50029 32157 18217
50161 32157 24894
50175 32157 13853
50293 32157 57658
50152 32157 16033
50022 31193 34216
50022 31959 25637
826 26468 47392
25233 839 1787
50022 1774 37211
1507 19968 41232
22538 23877 77378
26445 26326 77378
24837 0 44341
26688 0 41560
30252 0 9074
26448 0 31008
21671 0 12715
22268 0 26810
30146 0 20658
24786 0 20636
29582 0 8638
21968 0 17257
27440 0 27294
28895 0 41833
25564 0 69715
19727 0 8196
20231 0 16981
28469 0 40084
28476 0 40852
27350 0 23427
24067 0 53437
20697 0 18153
27573 0 7736
27529 0 57890
24040 0 5856
25448 0 47881
22979 0 7367
27634 0 6849
29391 0 13620
23065 0 35832
29586 0 4316
23803 0 41819
26005 0 48257
21348 0 18981
27392 0 10629
26378 0 46416
19424 0 5670
24621 0 33664
25322 0 57684
18032 25011 66851
15711 25011 74303
17261 25011 57487
14288 25011 71403
17975 25011 75058
17811 25011 67660
8428 25011 75557
15188 25011 61374
5896 25011 71734
9846 25011 74747
5865 25011 74052
1786 9851 25226
32827 2140 76819
50022 31400 34798
50022 31993 32372
50022 31806 27997
1786 25708 22550
1507 17297 27314
1507 17919 27112
1507 25356 45721
1786 1817 27453
9708 25011 6778
13856 25011 4707
4928 25011 18820
12389 25011 3346
16480 25011 4308
3352 25011 7906
14153 25011 3431
5019 25011 4612
14665 25011 5494
6290 25011 10797
7713 25011 3491
8350 25011 11688
11254 25011 9091
50301 6901 27006
34933 28180 56987
35836 29796 56987
1368 19851 44892
50301 6061 35338
47040 27812 75214
45650 29394 75214
48211 30210 75214
39618 9280 55381
36864 4238 55381
41250 768 55381
49166 10979 55381
43501 603 55381
48292 12671 55381
44685 4943 55381
34362 1780 55381
43164 14645 55381
41661 1621 55381
40720 1902 55381
43683 12101 55381
40524 10859 55381
42483 10893 55381
44066 8179 55381
30561 0 33984
28093 0 57479
28824 0 53741
30528 0 36413
30919 0 37994
51004 12684 47559
4040 29898 76819
4028 28448 76819
8486 31178 76819
2119 31548 76819
7416 30472 76819
50301 8967 26220
50301 9105 32974
50022 11627 53992
50022 19332 54404
21432 8667 1228
22561 6812 1228
25833 12309 1228
23233 7075 1228
30258 3563 1228
28290 4990 1228
25065 10564 1228
22945 12241 1228
22415 15459 1228
20630 24078 1228
1507 2345 35088
1507 4105 28971
30778 0 63300
31333 0 63411
30902 0 68000
28530 0 74041
31140 0 70510
29919 0 68622
0 33705 78140
0 33160 67568
0 33719 71743
0 33564 32392
892 19872 45966
1507 8655 33932
20534 21703 1787
20580 9021 1787
11528 24934 23224
8213 21113 23224
17118 23965 23224
15908 23487 23224
11805 14027 23224
11199 22864 23224
17664 8688 23224
17726 2908 23224
5207 21545 23224
4198 22397 23224
16641 5354 23224
14339 21248 23224
10518 20813 23224
14165 17764 23224
16805 8462 23224
11619 20326 23224
23742 239 1787
3335 30551 12778
5055 30551 4214
11721 30551 8254
2573 30551 10064
10968 30551 10719
2835 30551 6703
14363 30551 8072
2063 30551 16225
10534 30551 8580
5612 30551 10474
11144 30551 6679
6633 30551 8088
50022 11142 54992
50022 13120 55365
32572 33720 35270
26716 33720 27378
30268 33720 40704
46521 33720 26124
33192 33720 4828
26587 33720 8511
10549 33720 15285
11226 33720 15843
50941 33720 36789
51472 33720 59566
33302 33720 40618
19118 33720 12011
22162 33720 27924
33390 33720 24974
40967 33720 57881
36079 33720 9793
44871 33720 21155
40086 33720 40475
47637 33720 16802
33669 33720 6994
38835 33720 51640
19378 33720 25061
26684 33720 13647
17496 33720 9363
39127 33720 12201
47764 33720 36494
51509 33720 8893
42328 33720 2032
5596 33720 1151
49359 33720 37887
25660 33720 3703
35922 33720 17217
26330 33720 37314
30678 33720 31536
15303 33720 13903
15874 33720 23656
14389 33720 10098
48492 33720 68637
29099 33720 25397
20598 33720 24464
51750 33720 61328
44622 33720 7354
49189 33720 50467
41762 33720 49910
47172 33720 67396
7634 33720 1942
39073 33720 43111
18416 33720 18747
16495 33720 16079
39881 33720 41867
37483 33720 39305
41615 33720 27610
30965 33720 2399
4821 33720 1752
38139 33720 19397
50479 33720 46635
45306 33720 31970
47858 33720 19576
45124 33720 10608
42106 33720 24362
36135 33720 30521
25821 33720 37015
37641 33720 38369
37157 33720 40591
40150 33720 45128
50487 33720 14126
42729 33720 8
18169 33720 21922
19477 33720 21385
48025 33720 64399
30183 33720 26506
30919 33720 25933
2899 33720 2291
47668 33720 15975
24481 33720 6726
22906 33720 20228
9731 33720 2746
35978 33720 24325
5499 33720 6269
47322 33720 55984
41560 33720 10302
42315 33720 31675
49954 33720 20801
48385 33720 44777
40472 33720 34671
20698 33720 5543
21932 33720 25122
43224 33720 38650
23652 33720 17241
33808 33720 22072
32864 33720 33546
44398 33720 48042
18290 33720 1366
43504 33720 768
26165 33720 4152
47808 33720 1937
44082 33720 11891
40140 33720 28815
26386 33720 36002
35785 33720 11722
44045 33720 3308
40919 33720 42975
6418 33720 2116
50649 33720 64053
45649 33720 64757
22831 33720 16122
15164 33720 2522
49051 33720 73279
45834 33720 65
31568 33720 15752
46726 33720 27989
32274 33720 39604
45926 33720 43859
49945 33720 43082
10504 33720 2448
50280 33720 52768
37271 33720 10939
29503 33720 24581
27611 33720 41672
50527 33720 59260
25678 33720 3026
44822 33720 32719
31454 33720 39191
12119 33720 7627
18920 33720 22818
26514 33720 28373
33186 33720 6181
9451 33720 12432
45061 33720 22449
50154 33720 38298
27266 33720 34531
45585 33720 27909
45595 33720 22815
13007 33720 6705
31059 33720 25297
3684 33720 2911
43786 33720 20469
38580 33720 12762
33310 33720 19553
47920 33720 288
22217 33720 32309
46363 33720 67597
22329 33720 31065
47457 33720 9567
17394 33720 26239
44210 33720 29465
10592 33720 7764
45611 26617 74110
39224 26617 64116
35308 26617 64316
46392 26617 73183
47152 26617 74886
43529 26617 74586
33097 26617 71597
37289 26617 70561
33126 26617 58724
38708 26617 66382
1698 8306 25458
1786 31646 72571
1786 31644 12649
5700 26810 75214
4964 29379 75214
3252 27952 75214
1786 32154 14944
1618 32157 63339
543 32157 75476
1786 28627 55784
10964 25552 76819
12511 26721 76819
15816 26616 76819
19100 7374 1787
19928 4294 1787
1507 26449 49899
33050 29817 18288
33050 27741 10678
33050 28062 16662
1507 9905 53057
28649 525 76819
1786 2452 55001
1786 6225 54345
1786 26463 6705
11373 32290 0
6842 32848 0
7824 32395 0
50022 31327 4416
50022 32115 12093
50022 13548 47153
50022 11557 49850
50022 25278 52270
50022 7572 44718
50022 10695 47357
50022 3744 43455
50022 4607 42716
50022 9639 44641
50022 11308 51901
50022 26645 53333
1507 8485 42391
1786 31024 37109
22810 0 76589
19706 0 59658
19286 0 71858
20153 0 24879
19248 0 19697
20565 0 58022
20185 0 19120
19326 0 22935
20341 0 64175
22286 0 59988
20798 0 62850
20266 0 24237
18823 0 67424
19447 0 48420
21581 0 76293
18782 0 65791
23750 0 69527
1507 29122 37352
11841 0 46690
16750 0 28385
17578 0 40938
11284 0 55055
2313 0 55318
17742 0 44614
9256 0 50178
14439 0 46632
9155 0 44475
15509 0 52874
8934 0 54437
13827 0 40984
12176 0 47699
8097 0 44521
14434 0 50795
18266 0 45486
16223 0 47645
13073 0 42201
8855 0 55154
10816 0 52579
30853 25063 1228
31055 18350 1228
6894 30551 69795
10136 30551 69087
12019 30551 65960
9727 30551 67261
11841 30551 67044
16119 30551 74860
15910 30551 72668
8856 30551 73013
16212 30551 62345
16496 30551 72665
14227 30551 69241
17926 30551 64084
50022 30199 29169
1507 13153 37541
49457 25011 68896
47218 25011 59664
44445 25011 67347
41819 25011 71628
45418 25011 68859
49687 25011 58309
38246 25011 70477
35592 25011 74701
42235 25011 69330
33380 25011 76458
40828 25011 69910
38639 25011 70991
49987 25011 74746
1507 15182 27467
50301 7361 26557
50301 8105 26013
43170 33720 61928
35187 33720 32434
50255 33720 50407
25291 33720 10734
43785 33720 57823
26744 33720 11697
26782 33720 33195
24570 33720 27312
11654 33720 13398
20427 33720 13164
49351 33720 27692
29144 33720 9445
34220 33720 50155
32782 33720 12239
12787 33720 13926
27847 33720 35972
39951 33720 58369
20740 33720 1869
44123 33720 1113
40193 33720 14399
24931 33720 25893
49212 33720 63476
40073 33720 52164
38814 33720 32233
36272 33720 3112
34014 33720 11827
24294 33720 16873
19834 33720 1304
15121 33720 11127
33083 33720 43454
49109 33720 52397
29446 33720 38657
44041 33720 5159
34779 33720 48116
34642 33720 28447
46918 33720 21955
24978 33720 17396
24275 33720 20548
12887 33720 9500
35314 33720 8829
50881 33720 5062
48956 33720 33403
45593 33720 14353
33074 33720 7846
31672 33720 1849
32012 33720 36849
35627 33720 49798
42505 33720 46017
41437 33720 42309
32298 33720 2713
31200 33720 6693
32301 33720 41706
33305 33720 47671
24582 33720 2333
36545 33720 47983
51484 33720 26736
40894 33720 32335
47629 33720 55402
41335 33720 20343
23869 33720 3288
28244 33720 31917
24991 33720 31692
47063 33720 33192
34767 33720 14503
40459 33720 25226
18451 33720 15170
40439 33720 7483
49174 33720 49202
35929 33720 46228
36466 33720 14024
41952 33720 61079
45172 33720 38433
26605 33720 1707
37974 33720 4338
22106 33720 13586
14891 33720 204
36215 33720 4713
28382 33720 12711
50350 33720 23069
51123 33720 60892
43500 33720 52673
44075 33720 11024
35062 33720 49696
47364 33720 35237
12785 33720 15527
26487 33720 16039
29613 33720 2266
33025 33720 34697
12158 33720 2073
46068 33720 26713
28118 33720 37087
35874 33720 25300
14073 33720 1891
10059 33720 543
36931 33720 18076
47292 33720 323
23794 33720 11529
44951 33720 68021
35282 33720 41129
44289 33720 2719
31305 33720 41890
45952 33720 28474
38361 33720 33738
37300 33720 16323
41417 33720 6514
34107 33720 16419
32593 33720 14046
13481 33720 18479
43149 33720 36078
29582 33720 18049
36461 33720 27398
49311 33720 20981
43447 33720 23997
11864 33720 16658
44873 33720 65603
47739 33720 45578
17816 33720 5589
32480 33720 36277
23569 33720 2613
22931 33720 1869
25162 33720 6021
48873 33720 15807
27196 33720 38556
47439 33720 13044
15434 33720 4200
15492 33720 5781
8354 33720 5075
47973 33720 29903
45206 33720 59351
42930 33720 24456
48022 33720 38475
41398 33720 60858
22935 33720 15323
49547 33720 30672
25780 33720 12828
32273 33720 27426
29600 33720 28469
50936 33720 31404
1786 31516 35016
1786 31232 39598
24693 5467 77378
30269 16260 77378
30220 23826 77378
24843 11133 77378
27317 19528 77378
29884 22090 77378
28039 13049 77378
30885 26190 77378
27885 19860 77378
50301 18011 29207
50301 17277 28962
1453 33720 47994
14609 33720 60235
8824 33720 53558
5590 33720 69709
45601 33720 75452
33366 33720 76788
10328 33720 52271
3085 33720 50097
9889 33720 55332
1078 33720 11391
4802 33720 37742
20446 33720 61585
6074 33720 32843
9174 33720 14704
23823 33720 45416
31673 33720 76642
25527 33720 42730
16679 33720 51861
27697 33720 52279
2255 33720 70461
17018 33720 45713
3372 33720 61714
37782 33720 76390
19404 33720 31753
26748 33720 75376
27639 33720 71706
5774 33720 58735
2268 33720 63744
359 33720 33210
11608 33720 34374
47238 33720 73189
12772 33720 35484
24496 33720 56269
9555 33720 25798
8421 33720 13071
7071 33720 40084
1025 33720 9109
10077 33720 34922
17666 33720 55311
11739 33720 33375
38471 33720 63361
33845 33720 59108
46095 33720 75948
1155 33720 18995
9067 33720 22950
22647 33720 68307
9996 33720 37610
13795 33720 59378
46004 33720 72384
8549 33720 17062
11780 33720 27198
28082 33720 59784
3477 33720 40599
16977 33720 38514
27403 33720 46824
20399 33720 53714
5262 33720 26930
31985 33720 54711
13896 33720 59949
20531 33720 61011
45041 33720 68976
147 33720 29941
12013 33720 36574
24300 33720 67970
27238 33720 60684
9638 33720 53129
27811 33720 48181
5524 33720 48313
6462 33720 23609
4477 33720 47113
13137 33720 45620
19875 33720 42142
4464 33720 76903
1599 33720 73013
10263 33720 54241
14511 33720 63162
4968 33720 20475
38990 33720 65061
11392 33720 72485
22890 33720 77188
6831 33720 15421
20722 33720 67472
39763 33720 76488
33729 33720 67901
25901 33720 54971
11809 33720 63304
18897 33720 49209
12698 33720 33138
36480 33720 77569
19391 33720 51676
30759 33720 75258
17821 33720 39445
18460 33720 59118
7993 33720 68612
19185 33720 77732
15081 33720 62337
16678 33720 40333
42508 33720 67790
12808 33720 57670
25036 33720 48013
21057 33720 74259
34250 33720 71095
7818 33720 45231
16288 33720 25692
21496 33720 53717
23545 33720 70344
14311 33720 39243
32837 33720 73157
11619 33720 39977
22619 33720 38253
2458 33720 50166
31457 33720 66946
27542 33720 54687
11398 33720 58543
3274 33720 60378
25127 33720 49210
4367 33720 51083
8744 33720 37623
14089 33720 44903
6747 33720 14648
8635 33720 55929
38395 33720 68866
19161 33720 33292
18084 33720 65102
30826 33720 65212
19288 33720 66832
33335 33720 56200
34175 33720 62930
17781 33720 61363
9128 33720 15463
20564 33720 49898
9381 33720 45815
17151 33720 65299
36276 33720 63103
21352 33720 71224
22243 33720 64408
18226 33720 64267
13842 33720 31621
44618 33720 75310
16615 33720 52957
10483 33720 78239
9082 33720 60501
24034 33720 77532
32976 33720 56787
36721 33720 66829
9869 33720 62843
36761 30008 3392
46527 29845 3392
36094 28884 3392
50301 18603 28636
42932 29522 3392
36876 29168 3392
37724 28541 3392
31884 25553 1787
31571 19931 1787
50022 26328 57392
50022 25017 60913
18758 28534 62270
18758 27936 67426
31214 11605 76898
36429 25011 20613
48987 25011 13788
36185 25011 21347
37781 25011 20134
43701 25011 20017
46302 25011 13457
38380 25011 17719
39202 25011 16944
48258 25011 4153
40122 25011 14494
42644 25011 13504
48613 25011 5722
45609 25011 14941
41975 25011 16492
1507 9528 37011
50022 26128 72208
32578 32157 77260
7698 32157 77443
19733 32157 77489
29733 31793 76819
23576 30946 76819
15417 31515 76819
1507 12783 32329
32699 18541 1787
50301 20178 33076
15274 27183 1787
17633 26218 1787
20141 29583 1787
15654 28556 1787
27926 33403 78606
34796 33310 78606
1916 32912 78606
43839 28831 76819
46375 25749 76819
39085 27464 76819
48506 29867 76819
50301 7076 43303
50301 8686 43067
50022 1418 36550
26273 29646 1228
27687 27076 1228
1507 6974 29459
1507 6195 35297
20594 5469 1534
33050 27282 69966
33050 29005 71360
33050 26773 74473
46241 2174 55381
49586 14251 55381
38131 2859 55381
45020 17517 55381
46052 4537 55381
36431 2997 55381
46489 985 55381
40731 3722 55381
49325 2487 55381
47959 208 55381
44825 6376 55381
48036 7059 55381
49868 6043 55381
41906 12288 55381
46406 19361 55381
19460 22015 76819
1507 2953 37810
1507 23177 30614
1786 8046 39190
1507 18213 34905
42042 28840 1787
47386 28669 1787
38248 30074 1787
42819 31110 1787
1786 28529 1812
804 5834 46960
50301 18063 36323
12319 0 33563
8177 0 37416
14052 0 31007
2563 0 44938
6061 0 39843
13195 0 27103
9566 0 32053
9486 0 30953
3502 0 38051
7615 0 39952
3709 0 51536
11359 0 30711
13618 0 29396
9744 0 27070
3049 0 43692
3034 0 50278
4029 0 26742
5264 0 45462
4725 0 32862
17115 33144 78606
847 33612 78606
38553 33453 78606
37481 30156 21619
47214 29221 21619
40607 30446 21619
31214 4115 76821
50301 13309 44682
50301 22058 50415
50301 20549 44648
5939 28883 56987
3795 27837 56987
33050 9601 73223
33050 20252 75656
33050 1429 59158
33050 5854 72475
33050 6028 76576
33050 13881 73052
33050 3195 75844
33050 252 69172
33050 8434 76077
33050 10406 69554
33050 9397 69372
33050 12304 76107
33050 18150 75845
33050 1823 68112
33050 12010 75455
33050 15383 70083
33050 7170 68463
33050 1112 61235
50301 26597 35096
50301 25228 37723
50301 17130 35867
50301 16391 36724
50301 28907 38151
8381 26674 56987
17037 26654 56987
1507 17112 50760
10534 30175 21619
13318 29351 21619
21046 29006 77378
25749 27370 77378
23377 29833 77378
50022 17227 24423
50022 14227 24301
1507 28981 44707
8723 21603 55381
4652 18583 55381
8143 13341 55381
5419 19982 55381
6187 19426 55381
13341 24762 55381
6835 17762 55381
15578 24018 55381
6374 22613 55381
2350 20093 55381
12661 23996 55381
9585 24821 55381
4270 11898 55381
11228 21943 55381
5493 7747 55381
9816 15190 55381
50022 25208 66041
50022 25654 57206
45647 25011 7304
34999 25011 17441
34753 25011 8548
39507 25011 8341
41971 25011 4313
44205 25011 2901
37622 25011 1816
36241 25011 10007
33442 25011 9964
33089 25011 7223
43849 25011 6559
38029 25011 9916
33640 25011 15812
50301 26835 32785
1507 4077 38680
1628 32157 22254
1507 12119 43481
1786 6587 25227
34283 33001 0
50926 32489 0
45058 32368 0
50301 20495 40684
50301 21219 41797
50301 27979 50359
18758 28055 5856
18758 26763 5084
31720 23581 76819
31323 6463 76819
1507 15404 37534
50022 13597 38946
19641 24876 76819
20254 7814 76819
1507 15678 50688
1710 26276 39750
1507 21059 46182
3817 26617 6902
1847 26617 15750
10309 26617 19534
4399 26617 9030
8169 26617 14099
6409 26617 19775
13212 26617 21572
7919 26617 11378
8950 26617 20256
7467 26617 12949
11186 26617 21453
28733 26989 1228
26492 27400 1228
41549 31900 1787
28565 31846 1787
34581 30921 1787
35834 31955 1787
18758 21001 63585
18758 11913 76100
18758 22580 68199
18758 6307 75616
18758 13036 72735
18758 3105 74424
18758 8821 73107
18758 23233 71802
18758 13317 65851
18758 18720 75488
18758 23714 64904
18758 4530 74706
18758 17382 75548
18758 1069 76361
18758 12397 69558
18758 11356 68235
18758 22129 64841
18758 21323 76349
18758 23920 72107
50022 11371 39012
8981 30551 64039
3104 30551 61966
9346 30551 58102
2817 30551 65431
7294 30551 59007
4569 30551 59540
8379 30551 59503
2496 30551 73544
2840 30551 71109
2528 30551 58151
9003 30551 64735
50846 5704 31588
0 32922 21300
0 32311 33948
0 32242 21450
25697 16039 77378
24312 18018 77378
24521 20142 77378
23611 13081 77378
27313 23359 77378
26272 23503 77378
27282 1824 76819
43381 25011 56625
48384 25011 56437
33355 25011 66227
34113 25011 67169
33381 25011 70855
36956 25011 64481
34526 25011 60817
34467 25011 67878
33539 25011 69008
39699 25011 55772
34053 25011 62796
35269 25011 72359
41726 25011 57434
33050 30080 59129
33050 29921 57982
33050 28479 57129
50022 31296 47783
21792 32157 642
8383 32157 272
16918 32157 2
1637 5033 25458
1786 25726 72632
1507 19806 43499
47515 30551 59077
34996 30551 71993
41748 30551 65070
35211 30551 64594
39957 30551 67242
47116 30551 57074
44638 30551 59648
36535 30551 57302
33734 30551 73675
41336 30551 60494
35840 30551 66056
16546 29960 3392
14204 28725 3392
20917 5605 77378
34403 26617 5591
33362 26617 17549
36536 26617 10423
35347 26617 16158
33544 26617 11017
37437 26617 10942
42745 26617 15690
36264 26617 12341
35963 26617 15052
46391 26617 18689
38505 25011 60128
35282 25011 55656
37371 25011 61425
34222 25011 57842
35967 25011 70612
34146 25011 71624
42104 25011 63118
36558 25011 65036
41117 25011 64657
41842 25011 61907
36409 25011 71859
37327 25011 58733
41038 25011 61871
37904 25011 63011
45883 28313 56987
47826 29286 56987
1586 2232 43352
50022 30758 76107
28956 32942 78606
19350 32699 78606
28440 32222 78606
50022 25587 9900
1161 12676 45096
13054 27155 3392
18686 28779 3392
1507 17111 45276
1507 16871 49420
21993 28935 1228
1786 1364 41996
2232 27761 75214
3101 29136 75214
8573 26720 75214
18758 28071 72869
18758 28067 73934
804 19772 31415
27071 20254 77378
22734 19593 77378
23035 17280 77378
23719 18862 77378
27395 25969 77378
25184 33720 64464
15197 33720 67846
30289 33720 53991
14216 33720 64633
25349 33720 78355
35542 33720 72694
38049 33720 69902
2355 33720 73023
21194 33720 35159
5577 33720 19297
24216 33720 71907
22779 33720 67094
26362 33720 62040
31664 33720 55646
42730 33720 65266
22417 33720 49257
19160 33720 38296
10161 33720 22039
26899 33720 73926
19046 33720 55167
26432 33720 65261
14342 33720 51733
29261 33720 51370
7617 33720 26934
48814 33720 74140
22052 33720 75098
15408 33720 45093
2096 33720 49667
39643 33720 69994
37186 33720 70884
18197 33720 41159
14347 33720 33977
7486 33720 38294
21685 33720 66606
9396 33720 23592
16761 33720 73058
29155 33720 58003
3056 33720 27504
27227 33720 63772
277 33720 74070
14303 33720 32622
31805 33720 77509
6343 33720 53306
6161 33720 76226
12459 33720 71495
6644 33720 30329
13183 33720 67904
3727 33720 46818
16696 33720 48929
5698 33720 28429
38505 33720 59336
32836 33720 68754
7263 33720 22458
17568 33720 56439
23483 33720 73306
8399 33720 63186
1061 33720 2519
10081 33720 65979
15389 33720 68772
27119 33720 49324
26492 33720 63071
15650 33720 65396
7813 33720 36228
34954 33720 77416
13599 33720 54013
6574 33720 19728
35078 33720 73544
39674 33720 69057
30370 33720 72060
21685 33720 45734
6583 33720 56723
7551 33720 67636
15673 33720 25122
16707 33720 68767
41214 33720 63037
16410 33720 59226
41946 33720 77304
5250 33720 72889
12708 33720 56763
105 33720 63443
3859 33720 18374
16481 33720 28692
12480 33720 44528
15979 33720 66731
21842 33720 48227
7540 33720 13286
38429 33720 71500
17170 33720 41034
8907 33720 16562
19848 33720 66318
4750 33720 25124
20345 33720 74575
42417 33720 64687
5690 33720 68179
18080 33720 32688
957 33720 74930
21599 33720 45014
34531 33720 58451
19950 33720 60435
26386 33720 50233
37659 33720 74504
8701 33720 18899
10931 33720 42757
24295 33720 40310
39455 33720 67285
10334 33720 42690
32 33720 11045
17006 33720 44206
23136 33720 55108
40506 33720 63103
21794 33720 51157
9701 33720 65485
2028 33720 51156
4427 33720 24378
9533 33720 44336
25411 33720 47383
7332 33720 20509
1772 33720 69751
6870 33720 13647
19770 33720 57114
3667 33720 26348
1052 33720 36845
43414 33720 71345
17687 33720 52258
10891 33720 46822
4525 33720 9901
44516 33720 76711
22990 33720 62689
16446 33720 63588
13082 33720 40323
13281 33720 24352
2378 33720 46605
13343 33720 30998
32932 33720 59185
14588 33720 23511
21618 33720 38631
30449 33720 68065
1212 33720 10345
50823 26737 47669
1597 2232 42459
50022 30920 57196
50301 24052 33095
50301 25179 31667
27782 23959 1228
23147 1835 1243
50022 25058 7293
1507 25776 42688
1507 26180 40604
1507 9750 31410
1507 13190 27472
18758 18521 11513
18758 22796 18209
18758 24882 3187
18758 14671 18152
18758 22112 14249
18758 1488 23039
18758 7004 22090
18758 10661 20716
18758 20929 20171
18758 17849 21745
18758 6349 19466
18758 17151 22071
18758 15635 13861
18758 12056 16095
18758 10710 17692
18758 9347 23146
18758 20889 9818
18758 15874 17619
18758 20251 8386
18758 22259 6267
18758 29634 57189
18758 27955 60507
18758 28169 58908
1786 6257 23251
1786 17768 23777
21322 23284 77378
51176 32157 48576
51354 32157 50033
51468 32157 21709
51539 32157 46673
50984 32157 57665
51781 32157 70203
37748 25011 19548
40180 25011 17599
48094 25011 10969
34733 25011 21965
46492 25011 11636
44922 25011 10947
46964 25011 19056
45864 25011 17758
48081 25011 16159
42183 25011 14773
49769 25011 6618
43291 25011 21355
12558 25011 20821
8988 25011 14448
8127 25011 20085
18553 25011 13071
15167 25011 17982
17094 25011 22522
17626 25011 4625
17270 25011 20993
13724 25011 22004
17967 25011 3339
13618 25011 8526
17770 25011 11034
37356 27622 76819
40931 28979 76819
37887 29481 76819
35712 28687 76819
6490 26910 21619
5405 28986 21619
50022 25901 54943
50022 24506 54228
36025 29177 21619
50301 6229 41763
50301 6130 43051
25540 913 76819
1786 15786 24104
1786 11500 25001
50022 940 28599
50022 1 38373
11636 30338 3392
15373 30253 3392
4354 30315 3392
1299 32157 51854
566 32157 70095
1507 4119 35736
40402 27602 3392
38090 27783 3392
44172 30551 68497
47270 30551 70516
45428 30551 71191
48845 30551 73109
42197 30551 68662
44086 30551 64200
48218 30551 71999
49264 30551 65090
36987 30551 72736
1786 20607 39308
11071 25011 3095
7178 25011 12760
4736 25011 16910
12276 25011 4321
9649 25011 9409
4541 25011 9679
7461 25011 10561
15428 25011 4931
3529 25011 16614
4245 25011 18958
10454 25011 3485
3939 25011 9364
51808 33085 77324
51808 32970 71974
51808 32776 37616
51808 33474 78028
12208 28194 21619
9237 29465 21619
18626 27525 21619
1507 3420 39973
2298 26617 59195
5402 26617 61839
8992 26617 68432
9774 26617 68565
4217 26617 73930
3007 26617 58684
13942 26617 71144
2962 26617 61618
6203 26617 66773
10442 26617 72313
16399 26617 75099
1786 25597 14364
50301 16590 45464
50301 18499 45991
1786 25774 58647
50301 21076 31039
50301 20842 29144
50301 21950 42680
50022 30881 7508
1507 29170 34305
29291 22451 1158
1786 1560 34469
8444 25011 67126
16151 25011 56661
4002 25011 68913
7519 25011 68813
14075 25011 61257
10121 25011 65733
7226 25011 61878
3761 25011 72041
2284 25011 72969
6370 25011 57972
9343 25011 61293
9614 25011 65208
34756 0 48918
44742 0 28440
33561 0 40785
44112 0 26012
36733 0 42423
38468 0 41688
40887 0 23650
41450 0 37148
34299 0 26135
36184 0 37748
40874 0 31416
33452 0 30623
37710 0 40732
33687 0 49644
34024 0 30307
38845 0 23396
38664 0 24943
37566 0 24806
44487 0 26701
47728 0 24835
1507 22686 33349
1507 9337 43564
1507 11964 45804
37252 30551 17869
48192 30551 13742
48755 30551 16253
36257 30551 19344
45022 30551 16764
49051 30551 6662
44114 30551 14299
43962 30551 13446
45755 30551 14432
49310 30551 7477
43629 30551 16295
43901 30551 11936
1507 17034 28605
1507 16084 25912
37846 30551 64516
37390 30551 61748
40169 30551 65747
33633 30551 58185
48907 30551 57654
38271 30551 61706
41158 30551 59028
38650 30551 63445
38110 30551 58426
47823 30551 57356
35768 30551 71322
27024 8002 77378
28569 3324 77378
28936 15405 77378
21642 4176 77378
26841 12849 77378
26546 6463 77378
26321 14791 77378
27820 5372 77378
26354 10257 77378
28591 10901 77378
44497 26570 76819
47201 26906 76819
45783 28282 76819
34844 25142 76819
1786 1693 45465
50904 19546 45701
21062 1835 1666
804 12840 46989
50301 3265 45119
50301 4204 45269
50716 32157 34926
50411 32157 56087
51319 32157 2487
51030 32157 845
51286 32157 11519
43082 25011 8693
42149 25011 2614
40940 25011 3390
33129 25011 22389
35946 25011 16434
34167 25011 16121
36330 25011 2771
34015 25011 7454
36359 25011 1804
34542 25011 3970
38759 25011 5389
37447 25011 16988
1507 3129 28487
1507 11334 35161
50301 19837 32151
19821 26984 1787
1507 5769 52209
33050 13318 62154
33050 20710 65023
33050 16481 63059
33050 4633 56056
33050 21531 72797
33050 24567 74799
33050 23112 63194
33050 24596 72688
33050 11349 57836
33050 2082 56856
33050 7449 60417
33050 22844 67130
33050 24522 60964
33050 16642 58943
33050 7604 57100
33050 22392 58519
33050 16909 59595
33050 8036 55387
33050 21432 70323
33050 22278 67236
29182 0 71289
27041 0 73745
29306 0 73596
28056 0 75499
32064 0 65721
30286 0 76652
20594 18628 77095
50022 26232 18093
1786 29354 76486
21890 30321 76825
47774 26617 65146
48068 26617 64053
44061 26617 60576
41336 26617 59337
41897 26617 57441
38039 26617 58328
45489 26617 58306
48296 26617 67006
45086 26617 65106
1507 26460 35324
1786 14121 23815
1786 3605 23885
33766 32157 619
47263 32157 485
28875 32157 885
44922 32157 878
902 26468 46642
1507 20680 38716
50301 28532 41278
50301 26372 44198
50301 12925 42986
50301 6725 31708
35283 26617 69336
38941 26617 72701
33988 26617 58093
34942 26617 70449
42924 26617 72011
34555 26617 74993
41108 26617 65787
34357 26617 67633
33771 26617 74611
38392 26617 71930
44194 26617 73025
18474 25011 22057
17631 25011 19640
7835 25011 16698
16950 25011 9716
11884 25011 13442
15770 25011 12059
5857 25011 20175
12616 25011 9648
16846 25011 23165
7418 25011 19206
13144 25011 13921
12494 25011 22886
14361 25011 16222
33591 10177 55381
39086 20054 55381
45158 23368 55381
40816 20293 55381
35884 21316 55381
34400 12232 55381
37142 20699 55381
41819 22095 55381
38975 17043 55381
38075 10579 55381
46372 24675 55381
33484 15992 55381
50301 5654 50317
50301 4094 51075
18558 30305 75214
9246 29584 75214
13624 29216 75214
1786 30605 11607
32804 7568 1787
32827 10760 1787
1507 21615 46768
1507 20705 45640
50301 2579 28263
50301 4738 30834
50301 21578 39887
1786 905 25930
1786 747 40121
22014 21248 77954
43140 0 53057
47517 0 33880
46779 0 43030
47647 0 31618
40496 0 52156
41916 0 48004
46496 0 32393
41917 0 49497
43487 0 55013
42891 0 41769
34696 0 54095
41767 0 53820
36653 0 52207
45149 0 37969
47322 0 52863
46328 0 42562
43983 0 46066
47614 0 41560
45072 0 50072
39951 0 44342
1507 23433 39800
50101 13724 25458
50301 7902 46026
50301 8657 51768
18758 2712 18192
18758 2736 3971
18758 2628 4949
18758 3710 14728
18758 11822 10958
18758 6510 15036
18758 14114 2050
18758 6702 16623
18758 5114 14937
18758 7877 7556
18758 467 8914
18758 12586 12322
18758 496 19907
18758 12551 7416
18758 9156 14180
18758 2332 2097
45929 31887 76819
43699 29331 21619
45758 30225 21619
33050 27857 70376
33050 27604 62711
33050 26974 65187
1507 23041 48530
33050 13855 64284
33050 24379 69493
33050 8116 61132
33050 22109 71132
33050 22126 65531
33050 20462 65639
33050 17150 56280
33050 21515 66350
33050 14154 61994
33050 9271 63112
33050 18339 59660
33050 23734 68744
33050 19999 56183
33050 18373 70885
33050 5852 59243
33050 20590 72628
33050 15437 64213
33050 23230 69656
33050 23023 59417
33050 11894 60356
24764 23620 77378
329 32157 67556
50301 28429 40134
50301 26459 26656
1786 32106 46634
1786 30997 30575
1455 32157 53704
1412 32157 43751
413 32157 73013
50301 28202 32314
49814 32893 78606
36991 32679 78606
11605 32506 78606
33050 14782 68587
33050 5107 71367
33050 14719 70458
33050 23625 76783
33050 767 58302
33050 4530 74722
33050 11671 76659
33050 8584 73559
33050 9972 73970
33050 1207 65197
33050 20687 74211
33050 1757 70900
33050 9429 72525
33050 5105 64947
33050 17308 73229
33050 17523 76726
33050 15641 74742
33050 13245 76016
33050 4052 68297
33050 13718 72424
2122 26803 56987
2755 29118 56987
9552 30092 56987
50301 29219 46175
34250 10915 23224
41344 11230 23224
35997 2649 23224
34830 1874 23224
36463 9361 23224
39076 8509 23224
36727 1505 23224
36964 10372 23224
37482 236 23224
35812 15188 23224
35477 7830 23224
34973 18433 23224
39264 6767 23224
37802 17059 23224
35822 409 23224
7693 30551 72970
13263 30551 68625
6847 30551 74927
18199 30551 70089
16044 30551 71887
8493 30551 74018
14815 30551 68512
15947 30551 68983
14153 30551 72589
12436 30551 63959
9946 30551 67994
11483 27811 56987
15338 29175 56987
50301 10774 33715
50301 9204 34584
1786 28064 53461
51808 32841 23380
51808 33183 24902
51808 32933 28600
51808 33642 36628
31214 2178 1637
5775 12034 55381
3021 8766 55381
8678 20170 55381
4035 22618 55381
7947 19120 55381
13779 23946 55381
8431 11332 55381
10791 16922 55381
5444 9169 55381
4234 5905 55381
12519 18895 55381
9010 14980 55381
3064 19925 55381
17636 31306 1787
9130 31819 1787
50301 18570 50580
50301 20537 49608
50022 26210 73603
50022 12793 24321
50022 6767 24293
29661 21176 369
38462 28331 56987
35644 27491 56987
18406 25011 74054
14762 25011 67428
16136 25011 62278
15484 25011 73304
13606 25011 65821
16580 25011 59488
14989 25011 76631
11154 25011 71142
9516 25011 69471
14563 25011 72980
16368 25011 68462
16075 25011 73588
16659 25011 70710
50301 12347 25559
30199 1835 76987
46585 27433 3392
48963 29155 3392
46022 27115 3392
50022 26432 7386
30817 0 54246
33022 0 46937
29092 0 57203
27770 0 68740
32938 0 24096
31648 0 58287
32219 0 45016
29579 0 56054
27482 0 65084
33050 6405 12021
33050 3903 20318
33050 20548 22396
33050 2875 16998
33050 15589 19242
33050 11781 17651
33050 8326 13963
33050 5514 17012
33050 3288 5950
33050 1557 15904
33050 4767 19927
33050 9756 15674
33050 897 15099
33050 4894 16614
33050 14611 16143
33050 17506 22821
33050 6705 9568
33050 3742 9095
33050 10502 15603
3106 25021 1787
5596 29356 1787
10253 26921 1787
4739 27071 1787
11503 26504 1787
1507 19926 33259
13853 26617 19523
9547 26617 11755
12928 26617 16231
11881 26617 17899
4518 26617 21485
5618 26617 11556
2019 26617 18767
2022 26617 8291
6439 26617 16571
11391 32157 1776
18620 32157 985
29825 32157 1537
50022 10051 38916
50301 11413 48051
1507 13618 40249
50301 7181 37983
50301 3770 37583
31168 24008 1228
28691 0 49749
31383 0 34405
30672 0 30560
29575 0 46863
28529 0 56942
31388 0 23782
18906 18489 76819
18900 12575 76819
51004 5713 47078
50301 12739 53046
20010 4708 76819
19608 8417 76819
14412 3174 55381
10288 7312 55381
18317 16983 55381
15519 8482 55381
5413 3425 55381
8376 3329 55381
16511 1263 55381
13581 10422 55381
18291 20834 55381
17704 19553 55381
6144 759 55381
16402 18368 55381
18661 6715 55381
17347 6287 55381
18758 12116 59791
18758 19924 58829
18758 11107 62932
18758 7856 66800
18758 18397 60219
18758 3429 71284
18758 10621 59686
18758 9928 58604
18758 13535 59541
18758 11309 62339
18758 11840 57457
18758 2878 65067
18758 22823 57206
18758 4179 64794
18758 1905 68957
18758 2337 58673
18758 17874 56550
1507 9149 50912
1507 8453 50552
32594 21901 76819
32007 14242 76819
1507 5200 41237
1786 15488 53522
1786 15901 55292
2222 25011 76082
2928 25011 69876
5679 25011 65746
6359 25011 67941
8374 25011 61152
8209 25011 63830
12897 25011 58806
5727 25011 57654
6804 25011 60615
14283 25011 55971
14382 25011 59067
10288 0 50596
15031 0 47813
14777 0 55206
13381 0 49230
16319 0 39304
4559 0 50678
15561 0 43758
8775 0 46153
9213 0 47198
6975 0 49835
10060 0 45145
12001 0 37100
16208 0 36530
8961 0 50818
8300 0 43695
18512 0 49312
16133 0 35278
4384 0 55191
1507 24979 38107
30082 32163 0
4530 33034 0
5207 32239 0
50022 3949 53897
50022 15556 55091
1786 20977 25231
29062 0 37008
26003 0 39398
25778 0 24110
32222 0 7826
24300 0 34751
26432 0 24024
21638 0 5319
24373 0 11252
26766 0 10252
27559 0 25813
29314 0 30008
26988 0 58609
27848 0 31547
21199 0 22031
30092 0 23938
25783 0 72457
27423 0 29038
26422 0 24702
26243 0 59520
32413 0 4722
22200 0 31106
29249 0 34275
23927 0 52234
29646 0 9298
28095 0 41436
27971 0 32727
27551 0 2546
25608 0 45869
25748 0 68057
27417 0 36641
27037 0 3708
29555 0 6776
29089 0 37814
20712 15274 77378
21590 22457 77378
1786 25495 11763
1507 2775 46856
16249 19239 23224
7291 19994 23224
18671 4569 23224
5414 23108 23224
12274 23461 23224
13696 10043 23224
4015 23677 23224
16901 13053 23224
7642 17870 23224
9289 24189 23224
13019 13478 23224
16821 21728 23224
17661 23790 23224
35214 27242 75214
35928 27481 75214
50022 125 26382
50022 82 39355
50022 87 35912
4534 28707 3392
9369 29517 3392
50301 14243 37467
33050 30178 11021
33050 29207 9212
33050 27725 7843
1786 10549 54087
1786 14017 54161
33382 30551 19615
36335 30551 15256
34210 30551 18783
38774 30551 10290
42634 30551 10332
41689 30551 10652
46517 30551 6779
46104 30551 7536
34775 30551 18321
33623 30551 5746
35682 30551 18219
50022 31923 3548
33050 29814 17401
33050 28754 6470
33050 29570 12826
1507 17105 41996
50022 29198 3235
47536 0 42397
38367 0 47775
46068 0 54543
47506 0 49255
42744 0 54661
39861 0 51272
35390 0 51727
37040 0 49113
37498 0 51661
49846 0 34932
44843 0 42488
48988 0 36910
49586 0 30774
45287 0 48820
42990 0 40425
40516 0 53077
45359 0 40503
50022 26206 22465
1786 31998 58926
18758 29731 21065
18758 29049 18291
18758 27944 17605
50022 26832 76270
8849 30551 15493
15301 30551 17883
3224 30551 20742
15768 30551 12966
10104 30551 14343
14569 30551 14321
14855 30551 19265
10448 30551 14935
13420 30551 13988
13685 30551 12677
1507 24497 29453
50301 19291 25632
1507 26378 31712
1507 27905 28249
51808 32401 59987
51808 32611 55686
51808 32788 32586
51808 32358 43870
1507 11876 48852
9420 0 29366
4224 0 33320
5882 0 24211
3029 0 46034
10989 0 36609
17736 0 23816
2737 0 29995
11319 0 34281
6474 0 29615
6927 0 34522
9702 0 29919
9255 0 36790
8546 0 31964
6026 0 46876
6032 0 38874
12827 0 34056
3153 0 33013
31556 8286 1787
31351 7519 1787
1507 13172 30820
8543 30175 1787
11753 29784 1787
4813 31140 1787
29579 1354 1787
1507 23925 51621
11741 30551 61014
2441 30551 68090
15264 30551 58735
2003 30551 71928
13166 30551 60361
7745 30551 59658
11809 30551 64356
12394 30551 59984
3145 30551 57975
42086 31973 76819
10828 31915 76819
41155 31619 76819
28668 32110 76819
50301 15368 46148
1507 5315 50032
