ply
format ascii 1.0
element vertex 2660
property float x
property float y
property float z
end_header
13430 31067 7306
11893 3660 10404
26697 31210 68731
24295 31210 66908
25484 31210 64242
22948 31210 71413
22167 31210 70775
26103 31210 51449
26997 31210 57376
25898 31210 44215
25789 31210 46431
23022 31210 65187
25604 31210 48740
24149 31210 67994
23820 31210 61365
23497 31210 73538
26328 31210 64846
23146 31210 65883
22296 31210 70083
23490 31210 75148
24146 31210 63642
20370 5551 11758
20332 6463 60558
33008 11785 10500
34843 7984 11136
26536 25192 10294
9241 9022 12604
39317 99 71074
4257 31043 18028
4885 31043 24088
5070 31043 18369
4385 31043 9326
2892 31043 13686
4853 31043 37559
5081 31043 38804
5356 31043 32991
4523 31043 11083
2727 31043 12169
4088 31043 14854
2971 31043 9978
1422 31043 13088
5799 31043 14906
20542 5319 14326
20683 5357 21324
12228 7291 11888
35409 6813 11249
30841 16274 10744
28631 20852 11142
26323 25634 11630
29306 19453 10928
35120 31043 74667
38442 31043 64069
35170 31043 75846
38105 31043 73488
37111 31043 69551
35873 31043 74229
40051 31043 54630
38392 31043 67211
38182 31043 63137
35970 31043 76199
38145 31043 60551
40846 30113 79087
20945 5597 41916
15400 28796 10423
16795 28083 11758
17670 25878 11758
17201 26554 11758
12482 14654 11758
16282 25747 11758
18349 26714 11785
27640 3964 71818
4133 744 12758
1925 744 11951
14223 4399 74646
20448 5580 73173
28738 29598 85776
16719 29959 85776
4027 30040 85776
561 31004 12048
480 30974 20899
26708 26731 11527
27452 25189 13174
28568 22878 12121
31699 16392 11811
28848 22298 11969
36458 6533 10389
30683 18497 10439
13430 31027 35558
4964 880 74302
20420 6487 15133
0 28933 80312
9511 31108 80478
12694 31108 79967
15394 31108 79362
6697 31108 81984
23104 25456 73369
35314 2059 75309
6686 8172 12604
11067 18434 12604
5143 5639 12604
7898 10253 12604
19242 6268 11300
12629 23605 11845
11559 21389 12743
14036 26520 11336
12372 23072 12802
8821 15716 10937
7812 13627 11916
14877 28262 10387
4047 5325 75565
5214 7195 75565
24627 4399 74095
83 30554 60585
11 30183 76064
76 30519 71936
20943 3659 74715
30543 3659 72110
29738 3659 72698
27624 23664 71626
31826 14732 71626
29975 30961 76918
28969 30961 76830
29496 30961 73818
33394 30961 73048
30781 30961 73920
32132 30961 73834
33803 30961 74368
27999 30961 75594
33229 30961 56273
32361 30961 77280
30984 30961 63809
33964 30961 61231
20206 6429 27234
20369 6473 19651
11098 15858 12604
2093 744 73296
36781 3970 71768
36523 4504 72078
20785 4305 13958
31742 15564 75565
35835 7367 75565
15477 28035 14150
9283 14894 14150
34897 744 13313
36520 744 10594
34700 3330 13640
6253 8503 12866
3043 1853 12747
8850 13882 13029
4673 744 72307
4185 744 73410
2086 744 72178
27033 19163 74018
31195 8954 74018
24839 23294 74018
22953 27351 74018
20065 6349 61653
19916 6200 32113
38962 28796 19075
22665 28796 20726
26301 28796 17251
38635 28796 47957
39463 28796 46793
39269 28796 23414
36046 28796 20985
33966 28796 31467
35636 28796 25651
29879 28796 23453
18997 28796 17907
25050 28796 15421
9225 28796 8709
17221 28796 15263
40088 28796 23171
24181 28796 17769
30636 28796 27042
22424 28796 15812
34499 28796 20688
23071 28796 23188
16537 28796 8070
16460 28796 16657
37709 28796 32523
29314 28796 14283
32125 28796 39336
11809 28796 9289
33953 28796 10630
3374 28796 10117
23039 28796 31967
22191 28796 16744
24501 28796 24734
31456 28796 41180
7542 28796 14991
22665 28796 28896
24975 28796 16020
29289 28796 19116
36856 28796 43060
37832 28796 35734
37453 28796 18780
38338 28796 31126
37623 28796 36986
38423 28796 37899
38385 28796 45200
30274 28796 17842
13225 28796 9421
26778 28796 34683
38123 28796 47353
35296 28796 45582
36637 28796 14643
12059 28796 16033
27693 28796 30128
20301 28796 26799
36940 28796 11618
25039 28796 22030
40054 28796 35935
39052 28796 21922
11803 28796 16643
25939 28796 9212
28744 28796 16131
36138 28796 38295
26765 28796 22477
20398 28796 9910
20743 28796 17961
22020 28796 10510
33367 28796 40588
40264 28796 33635
33544 28796 24204
37742 28796 22893
21139 28796 12812
18240 28796 21840
40617 28796 7832
40132 28796 37444
30488 28796 9772
16230 28796 22712
33168 28796 34147
15745 28796 8728
35160 28796 36502
34253 28796 17688
37137 28796 34018
27028 28796 18821
24672 28796 11166
14856 28796 20400
33943 28796 30405
36649 28796 21792
30314 28796 34421
32766 28796 21104
39629 28796 34352
29386 28796 16733
35134 28796 29080
38626 28796 25585
27446 28796 12614
32475 28796 13550
38114 28796 20412
22599 28796 18246
21594 28796 28153
35856 28796 43299
40265 28796 42064
18195 28796 15028
13121 28796 19997
23967 28796 7670
40606 28796 26846
26517 28796 9388
23702 28796 14294
24400 28796 29914
31276 28796 19459
40055 28796 40645
38349 28796 45853
24450 28796 33136
36457 28796 43508
30764 28796 36214
30822 28796 34131
31486 28796 26787
21873 28796 11916
19639 28796 13698
10115 28796 10729
33358 28796 39298
19176 7291 73514
29895 11389 11833
28930 13388 12019
10554 30872 85478
10537 3753 75372
14768 20685 73173
15317 26204 73173
13076 17569 73173
17274 27425 73173
15124 20206 73173
2662 0 10071
3713 0 10610
22936 27736 11758
26489 19273 11758
28275 17530 11758
27384 17613 11758
26553 21664 11758
21227 4399 71870
20195 5348 43004
3536 30374 48
10062 16392 11418
9006 14205 11120
14643 25881 11409
15111 26852 11223
10643 31108 78345
8121 31108 77774
7651 31108 79013
3215 31108 82957
2343 2299 74207
5005 7813 74551
5453 8741 74975
3148 3966 72389
7465 12907 75540
11059 20354 74563
13962 26366 75526
11646 21569 74959
29029 18025 73173
16370 3738 71818
24937 3659 13329
32284 3659 12312
26829 3659 12857
21571 3659 13705
40666 30710 11264
31301 17160 71626
36412 6382 71626
24980 31210 63722
26855 31210 54066
26602 31210 52303
25302 31210 69443
24573 31210 71842
26996 31210 38851
23925 31210 70543
24843 31210 51945
21349 31210 70971
25947 31210 54495
26653 31210 42382
23815 31210 65942
26507 31210 58412
25828 31210 56053
25628 31210 61111
21551 31210 76951
22599 31210 67017
26594 31210 76051
27114 31210 44372
29624 16452 74018
40389 30966 58873
26407 3659 72610
21301 4399 13693
14161 4399 10680
6976 6632 74018
11815 19169 74018
5688 6805 74018
13672 22819 74018
9462 14658 74018
10250 14442 11758
11802 19225 11758
9433 12311 11758
5981 4587 11758
40626 30765 25530
40696 30669 30948
32781 5411 12570
11501 19373 74901
11202 18753 75555
9003 14200 75491
28342 22990 75565
36527 5030 75565
11809 4399 13436
40846 29336 72562
40846 29294 74284
34330 30 73820
11522 16359 11758
33340 9199 12604
35056 6814 12604
37037 2233 12604
37580 1677 12604
27538 22928 12604
4062 3966 71626
10359 17461 71626
20239 5337 33413
6783 31108 80181
12559 31108 77758
5408 31108 81570
7441 31108 77641
23387 4352 71818
39128 0 11216
39089 0 9918
283 30851 74916
333 30920 27737
32904 8149 11758
9893 4399 74215
3951 744 11104
4826 744 10235
34420 63 14702
19885 6119 48950
38835 744 11248
14278 4099 75372
39998 31043 17312
39815 31043 35008
37371 31043 34103
36191 31043 44161
40178 31043 13629
37521 31043 36849
40133 31043 51431
38273 31043 25297
38970 31043 43546
38277 31043 24382
38481 31043 37839
35912 31043 46372
38251 31043 37296
39440 31043 23048
39295 31043 48819
35227 31043 46804
39277 31043 27058
39040 31043 37392
32075 3659 73541
31937 3659 74184
32441 3659 72507
27302 16760 73629
34255 11098 12140
38135 3059 13271
37066 5275 13602
35758 7985 13290
31544 16713 13182
29998 19917 13271
37870 3609 14000
31297 17225 12969
38048 3240 11721
20782 5427 35021
29727 14208 11758
3938 0 11878
2462 0 11226
9747 11588 73173
6876 4624 73173
35661 31108 81210
24626 31108 80162
20792 31108 81120
31892 31108 80776
21439 31108 84922
35144 31108 84590
19394 31108 84251
37046 31108 82932
34071 31108 81794
21456 31108 82602
13650 31108 83784
18424 31108 81689
38724 31108 84681
11963 31108 82822
34144 31108 81208
31789 31108 82756
35034 31108 81257
20187 31108 82467
13818 31108 84914
29998 31108 80850
30381 11386 12604
23744 25885 12604
23889 24626 12604
25301 21902 12604
22901 26086 12604
5940 549 76116
17935 30998 52813
16644 30998 57482
16775 30998 63847
16646 30998 53030
20067 30998 57114
17869 30998 47735
15624 30998 61111
19898 30998 64368
18551 30998 58021
19962 30998 59272
19087 30998 56463
19886 30998 62247
19590 30998 46060
16207 30998 62122
18372 30998 61318
17011 30998 51115
15617 30998 51489
16490 30998 63310
15172 5050 74018
16772 5260 74018
16772 4400 74018
29087 30507 74
19641 30365 85730
21248 6595 72686
24050 31108 78676
19289 31108 80260
13391 31108 82093
29666 31108 78444
10718 14183 12604
40814 30294 79633
36357 744 72642
36097 744 71298
40589 30817 1276
2787 2999 71626
9682 17115 71626
29710 28796 74264
24408 28796 71925
28391 28796 77513
21260 28796 72458
30627 28796 68161
39749 28796 76913
23306 28796 77160
27784 28796 63640
19581 28796 68228
23969 28796 72473
33395 28796 61440
12555 28796 69753
15032 28796 73708
24199 28796 66450
39460 28796 58484
16603 28796 69715
37596 28796 64183
37387 28796 55600
24481 28796 67382
29430 28796 71502
11289 28796 75770
36933 28796 76778
25771 28796 70746
17701 28796 76675
28778 28796 61815
18134 28796 70192
31989 28796 59416
6602 28796 75885
23795 28796 74899
35420 28796 66541
26648 28796 61202
29587 28796 69328
37412 28796 59248
19032 28796 75349
37924 28796 76813
37286 28796 63624
9391 28796 77146
12849 28796 75311
40490 28796 67998
39212 28796 69894
34360 28796 72049
16187 28796 74750
40627 28796 76581
39545 28796 76372
29530 28796 76885
18176 28796 74708
35608 28796 65517
33330 28796 72692
28351 28796 71288
37727 28796 67508
35851 28796 59932
37078 28796 69495
13794 28796 71358
27242 28796 70130
40303 28796 62438
29512 28796 61622
13894 28796 72590
32097 28796 69342
40579 28796 58190
30094 28796 70235
29279 28796 73621
26831 28796 64572
37065 28796 57754
16478 28796 76356
33198 28796 57662
37180 28796 68014
9357 28796 72370
35769 28796 70428
38041 28796 74869
31011 28796 69624
21890 28796 72931
38650 28796 59093
35083 31043 72121
36000 31043 64709
35071 31043 62980
36132 31043 59546
38209 31043 52546
39140 31043 53886
35596 31043 67194
39637 31043 53031
37253 31043 59089
35316 31043 64702
28047 23298 71626
35946 5857 71626
8823 6982 12001
27675 30926 85429
9395 31161 52681
13101 31161 33918
12424 31161 52272
11627 31161 33047
9556 31161 39639
10539 31161 41467
12293 31161 53253
11973 31161 40583
10652 31161 34830
11921 31161 33599
12529 31161 35288
11440 31161 35576
10760 31161 47992
7335 31161 47940
12593 31161 30327
13397 31161 48549
34845 1135 12684
201 30740 41177
199 30736 16892
19559 4992 72847
8247 5323 73173
9691 6759 73173
27524 25041 72140
27935 24190 73198
34078 11465 72559
25853 28503 74176
27132 25853 72873
29829 20265 71859
31377 17059 72458
36823 5777 71890
33341 12991 72944
6554 2280 74455
32190 4097 10404
4682 28796 57860
4840 28796 44255
9628 28796 26259
9690 28796 39506
11653 28796 31413
21340 28796 45967
14816 28796 50572
22866 28796 39912
1711 28796 47432
11155 28796 32615
7737 28796 20025
19829 28796 50478
23063 28796 47545
6890 28796 64261
16642 28796 33227
17573 28796 29088
32726 28796 54176
5397 28796 58900
8738 28796 34335
5533 28796 61704
10955 28796 70213
34713 28796 53190
5436 28796 63696
16607 28796 42925
6888 28796 45269
17741 28796 36089
18049 28796 30810
11846 28796 54070
2005 28796 43042
6703 28796 34294
1234 28796 49986
12552 28796 42844
12440 28796 46094
9600 28796 18300
22891 28796 62522
122 28796 75408
18583 28796 39849
25630 28796 52559
22622 28796 51565
10051 28796 28239
5364 28796 15454
20024 28796 47211
7245 28796 39369
956 28796 30131
13268 28796 62216
26823 28796 52177
6388 28796 22874
19784 28796 38733
8365 28796 33612
1325 28796 41797
9713 28796 32788
23412 28796 54028
7332 28796 53710
7413 28796 39941
34039 28796 45428
16381 28796 52350
565 28796 59730
1533 28796 33747
6335 28796 34809
20580 28796 64482
17058 28796 55407
6833 28796 36348
9268 28796 24788
17964 28796 34708
6690 28796 37295
2826 28796 52124
425 28796 53735
33054 28796 44096
4210 28796 35579
2041 28796 72724
2701 28796 69603
4531 28796 66849
454 28796 21636
14018 28796 48110
26841 28796 48867
3368 28796 73995
9680 28796 44310
5187 28796 24350
21151 28796 38925
4098 28796 16158
7317 28796 47762
1320 28796 68667
8442 28796 27907
17505 28796 26484
21590 28796 50450
16631 28796 27637
12408 28796 26214
14888 28796 63818
561 28796 17885
17806 28796 65897
6661 28796 35344
14186 28796 50794
30819 28796 53600
7565 28796 62240
1774 28796 56723
15568 28796 46366
14377 28796 43422
338 28796 37067
54 28796 57249
4338 28796 41160
15765 28796 67559
12025 28796 21375
9825 28796 20991
1712 28796 41036
3273 28796 55593
13041 28796 59563
25125 28796 60196
4456 28796 43268
2943 28796 70428
27346 28796 43273
4146 28796 73874
9868 28796 45964
26490 28796 58549
21841 28796 52582
6443 28796 54513
5806 28796 25425
15509 28796 58933
8383 28796 37992
286 28796 52006
6774 28796 48795
10198 28796 30479
27701 28796 47380
864 28796 60327
33626 28796 50316
27718 28796 59946
10615 28796 39584
31832 28796 53805
8068 28796 29150
23701 28796 37755
5039 28796 72037
7259 28796 17968
10695 28796 41694
2946 28796 43036
19532 28796 29822
8558 28796 66342
24930 28796 53260
31713 28796 56112
15111 28796 52734
7545 28796 21467
19003 28796 53998
13312 28796 61105
4470 28796 32303
28720 28796 51324
18478 28796 31653
5289 28796 57314
276 28796 51434
16677 28796 31643
7060 28796 24621
14639 28796 37394
12011 28796 38340
17223 28796 39859
15307 28796 43856
40261 28796 51967
24740 28796 43531
15952 28796 54947
2766 28796 67543
1891 28796 45991
2949 28796 21122
8423 28796 35369
4188 28796 56776
5058 28796 69643
23733 28796 40241
6192 28796 58098
948 28796 75778
20389 28796 39283
301 28796 41235
13788 28796 45207
3416 28796 58871
17910 28796 48888
7327 28796 16032
7493 28796 71879
174 28796 38729
32261 28796 49748
22969 28796 41299
32474 28796 44867
25197 28796 38853
4498 28796 49854
28937 28796 39692
13957 28796 29932
9946 28796 60256
28600 28796 59240
25096 28796 44788
29567 28796 39761
5853 28796 17725
30580 28796 56643
25688 28796 7105
15433 28796 2870
13012 28796 2374
6272 28796 6984
10846 28796 5865
25180 28796 6843
31699 28796 7080
9210 28796 6461
19280 28796 3787
7552 28796 6477
17028 28796 5920
20959 28796 6233
5577 28796 5291
20058 28796 6131
183 28796 5389
4390 28796 4843
22144 28796 4107
4448 28796 2658
16903 28796 4254
28756 5619 12604
24867 5170 12604
23852 5080 12604
17895 30998 24172
15395 30998 25858
18916 30998 29417
18982 30998 23303
17096 30998 28012
34520 3704 75126
2941 0 13816
3207 0 14610
35486 1269 10404
13519 3659 72964
12843 3659 71835
19021 3659 72577
27290 23630 10944
26702 24848 11596
25611 27109 10439
21656 5997 72926
37309 390 71074
9656 31043 63414
6185 31043 66418
8876 31043 60845
6353 31043 55415
8598 31043 56966
12766 31043 54084
10558 31043 59378
7946 31043 70527
9646 31043 57293
9717 31043 53500
6288 31043 61530
0 29660 79544
1757 30366 46
40846 29370 81122
20466 6476 30917
21163 31210 50834
22398 31210 45991
21774 31210 51693
23223 31210 41540
22582 31210 53220
26438 31210 37909
21590 31210 47466
22867 31210 61234
21298 31210 38585
21200 31210 39373
25099 31210 41061
24329 31210 39807
24946 31210 38042
24732 31210 47736
23180 31210 44778
23284 31210 55113
23463 31210 45778
22237 31210 40184
22133 31210 54778
20825 31210 57088
12440 31161 50960
13334 31161 27083
13068 31161 32442
7748 31161 52877
12924 31161 35793
13361 31161 40506
12069 31161 48830
11048 31161 45375
8473 31161 50806
12949 31161 47776
8343 31161 46971
11340 31161 37210
7020 31161 53061
9865 31161 47828
20434 4341 10404
20161 6417 41822
31450 15012 13548
30380 17229 13814
33252 11280 13831
29677 18685 13414
1916 31124 2003
13474 31124 2910
29096 31124 1554
2829 31124 6153
23106 31124 1836
19045 31124 4095
21067 31124 1370
4152 31124 3262
17344 31124 1873
9103 31124 1288
5845 31124 1082
19860 31124 3433
3273 31124 1363
11689 31124 1619
1446 31124 4021
15130 31124 4048
5853 31124 2227
5648 31124 4448
14548 5659 12604
13130 5784 12604
12268 22125 10211
13242 24545 10211
20883 6247 40084
20826 6304 61774
24740 4399 12831
40369 30973 15971
2788 31043 55001
1466 31043 72016
2496 31043 43822
990 31043 30272
1639 31043 64551
1415 31043 30640
3403 31043 58745
2370 31043 54385
3282 31043 34527
2751 31043 36250
1292 31043 31574
3498 31043 36609
2777 31043 56185
916 31043 19464
3175 31043 55800
4176 31043 49897
3799 31043 60292
847 31043 67334
959 31043 56784
1089 31043 43523
2798 31043 59326
1198 31043 37004
27986 17592 73173
27331 18904 73173
27174 20848 73173
25735 20922 73173
20398 5294 36042
27226 5658 12604
31034 6276 12604
22091 4785 12604
5207 31043 29623
6025 31043 41140
3804 31043 29220
3411 31043 8758
3388 31043 15198
4922 31043 9941
2625 31043 22369
4710 31043 22863
6008 31043 25532
1295 31043 8611
3878 31043 13724
5652 31043 20247
5705 31043 7436
3586 31043 21427
2747 31043 15747
1125 31043 9420
2995 31043 20920
13314 23426 10211
15322 27633 10211
11939 31043 63984
9575 31043 73632
11166 31043 72543
8325 31043 71382
11016 31043 66719
12640 31043 56164
13422 31043 76241
12414 31043 66170
12815 31043 74672
12813 31043 67913
11978 31043 71195
11308 31043 71155
34831 744 9775
34835 3050 71967
40564 30851 39912
24555 31041 663
11830 20056 13554
12159 20737 13397
5060 6031 14109
20091 5400 22556
20387 5297 65509
6300 3649 74975
28887 6816 74018
26104 7132 74018
17747 30998 25757
19971 30998 33915
17905 30998 27291
18913 30998 30247
18921 30998 26299
40768 30527 16694
35434 0 12013
36443 0 13888
14879 26370 74316
9568 15369 75316
13616 23755 75221
20905 6225 67545
29038 30961 9337
33021 30961 31398
30358 30961 20343
32598 30961 17796
29426 30961 12303
31609 30961 11343
31878 30961 16882
30948 30961 16228
31484 30961 17609
30921 30961 24998
31087 30961 21323
27803 30961 11320
34083 30961 37872
32425 30961 34960
28699 30961 12950
30975 30961 13871
33003 30961 28859
32993 30961 35544
30604 30961 12842
34163 30961 31785
30888 30961 7299
34065 30961 14059
38040 744 73028
37881 744 75989
32036 31124 2173
16673 31124 5082
0 29307 18781
0 29666 31416
0 28814 10018
0 29180 7266
0 29698 12157
0 29380 43801
0 29138 45200
8788 30750 209
40846 29488 82392
20784 4399 74697
26405 4399 75203
29839 30961 17443
31750 30961 21432
30312 30961 8515
33444 30961 40113
32953 30961 43233
31457 30961 22574
31489 30961 31827
32210 30961 27385
32615 30961 12335
31010 30961 18354
33886 30961 24091
29689 30961 9794
29967 30961 23793
27364 30961 8668
33520 30961 23482
28362 30961 9604
33402 30961 38472
30646 30961 18789
15224 20240 73899
16948 23811 73685
0 28970 52447
0 29583 34780
0 29767 15640
0 29358 25300
0 29416 13565
0 29045 43357
0 29430 41963
8215 4399 10969
30641 7291 11924
20432 6541 11758
26313 6190 11758
35936 5721 73030
25511 27316 71816
35566 6486 72925
33900 9939 72811
19841 5819 18807
19880 5672 26938
26018 30297 33
19893 5626 14696
666 31102 3357
37079 3353 13891
33027 11747 12896
32133 13599 13285
40281 31006 60264
36387 31124 5338
37048 31124 6816
5797 2692 73173
34572 1701 73629
31378 9836 12604
7528 4399 72244
37810 744 73995
22259 28221 12604
24176 27407 12604
24307 23700 12604
11111 30919 332
24105 30808 251
12220 31161 26306
6450 31161 34922
6904 31161 30881
7605 31161 28336
6880 31161 41690
6348 31161 14174
6797 31161 33759
8563 31161 19185
9883 31161 22702
8035 31161 22629
11169 31161 29580
7498 31161 47154
10373 31161 17603
9532 31161 33306
7058 31161 29431
10187 31161 20878
6708 31161 32805
6192 31161 50069
7227 31161 18192
9862 31161 18098
29150 4399 12833
232 30782 85027
19843 5963 22164
23811 4582 11758
28750 5482 11758
21007 5827 54551
20989 5761 61066
21601 31043 26881
26726 31043 36129
20224 31043 22644
20267 31043 26854
20334 31043 34786
23591 31043 32447
23159 31043 29699
9153 31161 38662
10123 31161 29633
7726 31161 39667
10051 31161 16312
6980 31161 11293
10675 31161 28257
9783 31161 31280
8444 31161 41925
10615 31161 24624
9153 31161 22676
8336 31161 38785
7265 31161 40213
7360 31161 32021
6460 31161 46448
10246 31161 25399
10912 31161 22869
8844 31161 27558
6688 31161 21521
6494 31161 15675
7385 31161 17510
22447 4399 11689
21740 4399 11551
25994 3873 75372
19234 30998 36409
15488 30998 37091
14975 30998 36522
15516 30998 29135
15143 30998 29648
15651 30998 42246
16261 30998 28138
15441 30998 42990
16428 30998 39917
13781 30998 23097
17971 30998 37977
14668 30998 45180
13512 30998 39951
14159 30998 49110
15883 30998 34974
30311 30961 68932
30448 30961 70293
31180 30961 74649
32845 30961 59960
32892 30961 68473
33768 30961 64486
31199 30961 67910
29769 30961 74553
28533 30961 74121
33687 30961 76952
31849 30961 63349
43 30348 1631
20746 6384 56608
20723 6407 15834
6307 4722 74018
8644 12826 74018
9475 13303 74018
5731 744 14226
1486 744 10959
21018 5905 29814
20968 6092 22258
10838 31043 77532
12781 31043 71467
13334 31043 74328
8339 31043 72204
11430 31043 64664
9306 31043 67286
12205 31043 76439
10466 31043 63136
12217 31043 72228
7270 31043 77096
9343 31043 76954
3041 0 75201
2380 744 11569
33879 5128 11758
26679 23484 11758
0 29856 60877
0 29914 30259
0 29063 72387
0 29736 76768
0 29870 70995
0 30040 42024
0 29942 20513
38654 744 12169
36926 744 13733
19664 30998 68017
15012 30998 54012
18857 30998 43807
19399 30998 72964
15986 30998 57337
20110 30998 69637
16643 30998 46439
18533 30998 65766
17286 30998 64486
16719 30998 49444
18981 30998 44433
19425 30998 60928
16736 30998 61226
18014 30998 58873
19255 30998 62969
19597 30998 66177
10130 16534 73075
14091 24738 72973
15694 28059 71862
9561 28796 4404
6908 28796 2896
5637 28796 1592
3444 28796 4541
4376 28796 6594
11675 28796 4819
20841 28796 4983
13682 28796 4114
5967 28796 2110
6752 28796 1326
8926 28796 2091
955 28796 938
5908 28796 4651
25220 28796 5095
7996 28796 3397
21491 28796 6050
19054 28796 4609
1596 28796 5292
22605 28796 6342
39782 28796 7203
22607 28796 4832
33645 3849 75372
10916 13398 12604
12967 24027 75565
3245 2553 75565
20962 6114 51936
31900 8230 12604
37048 744 75126
25128 5448 74018
26927 4545 74018
5652 2389 74018
25572 6683 73173
24751 7152 73173
15784 3659 12990
13312 3659 12514
16379 3659 13666
38003 31043 54334
34616 31043 58645
35908 31043 65300
34558 31043 61855
36433 31043 67048
34642 31043 67513
34338 31043 56809
34200 31043 54635
37492 31043 55505
35741 31043 54916
20033 6317 34699
1475 744 74079
2453 744 73896
7377 11960 71626
34191 30998 28815
35964 5662 13318
34924 7817 12843
31015 15914 12952
10285 31124 852
10857 31124 2318
11026 31124 5267
23887 31124 1407
12638 31124 3462
22244 31124 2529
13326 31124 938
11936 31124 4976
1541 31124 3257
12527 31124 1162
9253 31124 2770
27927 31124 1380
11302 31124 4294
37392 1207 74018
27839 21855 74018
31243 13238 74018
34326 8888 74018
36246 3269 74018
15400 4166 13958
18195 7291 12590
34481 9555 10211
34712 8924 10211
36301 5866 14150
19890 5639 25845
19899 5602 34061
25301 4399 13746
9697 9406 74018
15550 22712 74018
12927 18326 74018
14637 20930 74018
15981 27999 74018
40846 29344 7397
40846 28867 24282
40846 29362 13443
40846 29777 8895
9853 29306 85776
5889 29405 85776
10487 29240 85776
14118 29234 85776
11955 28796 52654
1652 28796 63571
20863 28796 60786
1811 28796 58887
26510 28796 56053
8167 28796 47300
10464 28796 33656
19948 28796 41224
31771 28796 43374
26462 28796 57035
4142 28796 49157
14396 28796 30931
16178 28796 49681
36916 28796 53385
12479 28796 22797
20705 28796 49399
7928 28796 65939
16917 28796 44842
93 28796 33489
10614 28796 61616
1129 28796 13320
5880 28796 36720
15914 28796 59819
21460 28796 44622
4401 28796 38814
16310 28796 63439
5090 28796 41894
4806 28796 28954
7308 28796 62870
2442 28796 33007
12612 28796 54242
2133 28796 52368
2535 28796 59328
1011 28796 64616
21602 28796 49596
3983 28796 18594
6212 28796 18391
8173 28796 40651
26866 28796 49926
12803 28796 64748
8421 28796 48298
17193 28796 46274
1630 28796 48807
28347 28796 40884
2212 28796 56127
5714 28796 42362
19304 28796 47191
11999 28796 51377
7425 28796 42229
28395 28796 49276
29981 28796 52594
10130 28796 43744
4281 28796 46818
21794 28796 36207
25617 28796 37104
5031 28796 45627
22357 28796 54915
4226 28796 69783
30881 28796 55688
1346 28796 49280
2312 28796 63779
7950 28796 38880
2959 28796 24606
942 28796 32312
12971 28796 35888
3787 28796 53944
17348 28796 27092
11105 28796 21517
11295 28796 64621
17986 28796 37630
6633 28796 72798
13548 28796 53535
1401 28796 31625
5537 28796 50244
2515 28796 73327
3331 28796 11264
6858 28796 43666
12141 28796 44939
6014 28796 47498
6303 28796 32659
9362 28796 28684
2945 28796 55047
16374 28796 66918
33872 28796 51499
36687 28796 51892
18639 28796 42952
11513 28796 45905
17268 28796 53460
11650 28796 44206
24220 28796 37944
6442 28796 65524
33178 28796 54499
11924 28796 66890
8828 28796 17361
3122 28796 61392
17199 28796 65993
15545 28796 55504
25169 28796 38121
5622 28796 62762
3363 28796 35672
18364 28796 63815
14968 28796 48494
2672 28796 64864
8421 28796 43667
17368 28796 49816
27731 28796 41246
10839 28796 49160
14914 28796 42893
10606 28796 30120
20058 28796 47790
1116 28796 74722
13251 28796 68668
9405 28796 25585
2847 28796 17129
23424 28796 46526
11069 28796 42709
10921 28796 49780
9345 28796 20111
27410 28796 59286
5568 28796 20597
4167 28796 48568
14027 28796 48765
38771 28796 51381
10346 28796 65902
15257 28796 31104
29704 28796 53598
257 28796 8015
24015 28796 51750
16113 28796 57236
10962 28796 55422
3916 28796 61572
370 28796 55498
12084 28796 26863
8591 28796 67417
21362 28796 59359
12287 28796 34240
15716 28796 58184
3481 28796 71457
8263 28796 55339
2245 28796 53445
20515 28796 53226
472 28796 35633
16162 28796 34588
39467 28796 50800
4772 28796 16187
12826 28796 30792
1997 28796 13282
709 28796 39711
2302 28796 50240
12424 28796 58047
168 28796 11684
20094 28796 55125
6199 28796 14575
33265 28796 49764
24320 28796 56186
4871 28796 39703
1107 28796 8918
3920 28796 49850
15886 28796 65569
11437 28796 41053
750 28796 10157
27518 28796 39624
5985 2996 13598
40534 30891 50186
40704 30658 50829
14881 5574 11758
10050 6817 11758
19976 5515 26407
5573 6435 73173
6311 4467 73173
11880 19219 73173
4554 3832 73173
3470 1143 73173
35332 0 13787
36076 0 11477
14083 4768 12604
11332 5809 12604
12578 5938 12604
9930 16120 10712
7125 10309 10840
9005 14202 10376
4147 31043 63437
3405 31043 74869
4396 31043 74929
3768 31043 68040
2575 31043 76050
5093 31043 66608
4260 31043 73487
4413 31043 68740
3538 31043 65125
25792 26734 13878
25474 27392 12744
27276 23660 12940
20884 5529 58065
40845 30134 56925
40381 30969 67050
38153 29269 85776
38221 29900 85776
25425 30123 85776
21476 31043 15522
21527 31043 18881
23643 31043 12059
20918 31043 9997
22914 31043 9160
21989 31043 11518
22178 31043 9419
7168 30477 85708
11928 30156 85771
8598 13362 73111
12370 21173 72696
14765 26135 72014
34038 2807 74252
5360 744 10626
13690 31043 15714
14295 31043 13916
15298 31043 17202
16122 31043 15278
16113 31043 8336
14561 31043 17257
14056 31043 11674
33161 11468 72083
36685 4168 72475
15742 6055 11758
16428 6273 11758
18635 7185 11758
3094 1958 71972
8251 12641 72238
12410 21256 72040
3921 3672 72883
12786 19978 11758
34204 4358 11593
40846 29199 69128
40846 28974 57209
17107 31043 20508
17122 31043 17179
19236 31043 20718
18598 31043 15582
19056 31043 21790
17014 31043 15914
33558 11004 10211
19919 5572 36766
20425 6487 21026
20490 6469 33560
7548 31004 85216
13430 31112 50067
27395 24924 75565
34999 7891 75565
20479 4399 75291
40634 30754 68366
20166 4674 74243
22767 30590 85684
6662 10193 10211
5895 9111 10211
11083 31108 80653
3026 31108 84013
19898 5607 23198
6824 2839 13529
7781 6724 74018
11197 15124 74018
20204 31110 70686
17902 3752 10404
38708 744 14601
37687 744 14238
27123 30963 17673
2511 998 14150
13621 30998 58518
14332 30998 71789
14419 30998 77121
14377 30998 72566
14380 30998 64112
13439 30998 69382
15116 30998 72064
18473 30998 76334
16285 30998 77182
17971 5443 73173
19659 7001 73173
10545 28796 83750
3488 28796 82706
35066 28796 84642
29625 28796 85554
680 28796 83706
15828 28796 85662
4392 28796 80128
18673 28796 83341
18812 28796 82217
34151 28796 84916
10702 28796 81604
17462 28796 81210
19658 28796 84772
1783 28796 80100
9314 28796 80057
15544 28796 82503
7132 28796 84005
25452 28796 84357
13374 28796 81515
30676 28796 84950
9145 28796 84521
21951 28796 81993
257 28796 81796
35360 7006 14150
27700 23534 14150
40846 29807 22065
40846 29817 44294
40846 29476 42714
40846 29364 43851
47 30370 37585
46 30362 38316
32769 3892 71818
25341 31043 17586
24297 31043 18519
26859 31043 32864
22466 31043 25136
24969 31043 18653
26543 31043 32245
23449 31043 26512
26414 31043 28382
26724 31043 15693
23196 31043 20557
22013 31043 20453
26326 31043 25459
26837 31043 35011
25494 31043 26944
38387 0 75321
35549 0 73099
11367 3990 13958
13810 31043 16518
18381 31043 10775
13550 31043 18007
14528 31043 11312
19725 6553 13090
16267 30998 42508
17631 30998 35341
16591 30998 43280
13690 30998 36564
18557 30998 37439
18529 30998 35710
18792 30998 34669
19092 30998 38325
16111 30998 37442
14696 30998 42535
14273 30998 42164
11850 18592 73173
9833 14905 73173
4340 2800 73173
12397 20087 73173
20955 5632 53665
2792 31108 79770
2914 31108 78507
2227 31108 80541
20768 6362 30245
40846 29370 4793
23262 4913 11758
28085 4480 11758
25715 4471 11758
5218 0 12518
4242 0 12681
32629 6686 74018
33020 7342 74018
13562 28796 640
9124 28796 228
40772 28796 2931
28875 28796 1506
13375 28796 1761
38386 28796 5244
22200 28796 30
23044 28796 2498
24248 28796 3322
30901 28796 650
38707 28796 1668
40374 28796 5924
28509 28796 2135
31883 28796 3560
10362 28796 1105
34390 28796 5069
9789 28796 1146
7968 28796 1077
32569 28796 20
39346 28796 6287
13230 21212 74018
10719 14677 74018
7090 31161 8494
11805 31161 11655
11894 31161 13509
12713 31161 10198
9355 31161 7377
12231 31161 12602
10716 31161 8835
40838 30168 36636
40837 30173 32630
9873 10403 74018
26407 31043 7757
20269 31043 19733
22228 31043 10858
24737 31043 10901
24186 31043 12824
23947 31043 7920
37602 4165 75406
34284 11037 74525
38325 2667 72047
30582 18706 74408
31369 17076 74991
34541 10505 74912
38856 1565 75318
31121 17590 75489
18569 30998 75444
14192 30998 60910
15842 30998 65199
16175 30998 71677
15942 30998 70781
16276 30998 68489
16620 30998 69726
14485 30998 57427
14180 30998 69019
14196 6570 74018
10058 7170 74018
19363 3659 11145
12009 3659 11439
16986 3659 12855
30985 15233 74018
33022 11323 74018
33769 7585 74018
31770 11642 74018
9142 8461 74018
10243 5585 11758
16012 4607 11758
9816 6152 11758
17113 6799 12604
16136 5718 12604
26427 23945 74018
17956 25900 73657
13812 7291 73643
27132 30678 85620
13430 31023 29173
16561 3659 74015
15109 3659 72295
18626 3764 13958
615 31024 25524
11453 7291 12152
20007 6291 40019
31586 8218 73173
34884 744 73890
35920 744 71959
15511 25558 12604
18161 27926 12604
17277 27326 12604
14646 20393 12604
19076 28740 12604
19628 30974 479
3955 3775 75565
10093 16715 75565
16275 4377 10404
16428 28796 73328
27005 26117 73711
31006 17828 72058
30836 18180 72491
30065 19777 72313
26450 27266 73056
29524 20898 73238
20984 6033 34619
21218 6487 13090
31411 11429 73173
19106 3659 12122
8458 3659 10615
8632 15325 72880
12905 24176 73825
12983 24338 74932
13807 26045 73356
8170 14368 72180
13565 25544 74679
8894 15867 72888
10585 19371 72650
5964 9798 71798
33672 4399 71891
34060 4399 73146
38057 31108 79283
39754 31108 84291
39265 31108 77721
16748 4399 11728
37609 31108 81094
37413 31108 79544
14116 25326 75565
10248 17461 75565
29519 30961 29929
31500 30961 40163
30306 30961 39610
29608 30961 24628
27286 30961 27885
28321 30961 32307
29224 30961 26592
29096 30961 34710
27430 30961 12349
27436 30961 15574
31688 30961 36704
31451 30961 40912
29337 30961 25319
31154 30961 44879
20204 31067 74640
26824 17749 12115
23088 25489 11794
16313 28796 12422
23084 31108 78796
26108 31108 78940
15530 31108 81375
20642 6824 74018
25075 3659 12532
22020 3659 11208
20438 3659 13851
20832 5476 33658
62 30445 25014
13 30199 47075
12 30187 66762
24054 31043 25260
23602 31043 23047
25463 31043 29744
26037 31043 29698
23001 31043 19089
24831 31043 28154
24223 31043 29346
26052 31043 11748
24556 31043 25904
23770 31043 26066
26481 31043 9237
22206 31043 22092
17517 4399 11225
4229 4310 10849
7980 12079 10657
10394 4399 13046
6542 3467 13958
40846 29759 72072
40846 29353 68473
31031 15881 74684
25374 27600 74072
35235 7172 74228
34780 3622 12604
40846 29394 3402
12048 31043 55411
10960 31043 55593
10113 31043 55230
6697 31043 68067
6223 31043 69114
11175 31043 58481
6496 31043 72509
6278 31043 75840
7266 31043 70667
9810 31043 62018
8867 31043 57479
35456 31043 24849
35231 31043 11879
36946 31043 13010
39461 31043 7637
36514 31043 17736
38850 31043 15849
35826 31043 34925
34985 31043 13150
34404 31043 35061
36466 31043 18635
39050 31043 8547
37750 31043 13853
34879 31043 44727
36098 31043 9312
35507 31043 27408
38921 31043 9646
34883 31043 33468
34379 31043 22073
24907 3659 13877
25516 3659 13180
33036 3659 10664
20996 5787 40392
20968 5680 60286
0 29555 57562
0 29566 51579
0 29643 74140
0 29712 61462
0 29897 28866
0 29744 55158
0 29231 6660
38614 1343 14150
37809 1937 14150
27123 31006 31680
2130 0 73200
3212 0 71890
24911 28796 30309
35088 28796 35151
37281 28796 46046
28940 28796 24943
35645 28796 10678
31682 28796 23545
20905 28796 19145
19903 28796 21852
31580 28796 21883
40496 28796 10559
40160 28796 23874
12262 28796 10193
18316 28796 26764
27733 28796 11399
37571 28796 27602
36419 28796 28883
31143 28796 24504
39455 28796 9225
32714 28796 29276
26011 28796 23238
39303 28796 19743
35244 28796 20085
21494 28796 25309
34321 28796 35635
31524 28796 11205
34483 28796 22638
28450 28796 16754
4017 28796 8999
26591 28796 31773
21072 28796 16834
26274 28796 30644
20777 28796 29533
26137 28796 10711
24908 28796 19627
12504 28796 17803
9661 28796 13945
23707 28796 21727
32280 28796 22703
15132 28796 17467
19831 28796 18943
29846 28796 36185
35815 28796 12476
24094 28796 22191
25760 28796 28362
40135 28796 19125
38334 28796 27531
11577 28796 13590
17056 28796 9961
33152 28796 10048
38945 28796 45779
25058 28796 10364
6055 28796 13363
39313 28796 16228
34796 28796 12199
18038 28796 19853
17995 28796 18904
26090 28796 28945
9367 28796 12247
39793 28796 30485
36932 28796 43871
39425 28796 36570
33238 28796 23594
28545 28796 14117
39084 28796 37776
26177 28796 12854
24095 28796 27890
22785 28796 16535
34027 28796 8294
23430 28796 29017
10810 28796 16568
24559 28796 27227
20463 28796 14906
38223 28796 7576
36647 28796 37434
39940 28796 47079
13608 28796 8758
2250 28796 8235
40015 28796 20903
16593 28796 18714
33397 28796 18463
17489 28796 14336
22248 28796 27678
35631 28796 18383
33466 28796 26058
11338 28796 15078
25822 28796 23757
13450 28796 11389
20188 28796 20441
30818 28796 17421
37135 28796 20980
33000 28796 22658
36993 28796 19349
21834 28796 20106
30029 28796 25138
32090 28796 8721
9191 9383 73173
10297 12801 73173
7585 11439 14150
14520 26293 14150
369 30933 21792
5315 744 13193
4012 28796 84904
6081 28796 82843
17540 28796 83475
7911 28796 82757
11300 28796 84141
35280 28796 85557
16720 28796 83607
5916 28796 79184
10989 28796 82085
32368 28796 84215
11847 28796 84418
5040 28796 80877
28496 28796 85405
23963 28796 82430
16332 28796 82345
23344 28796 84361
2662 28796 84635
13094 28796 80632
5939 28796 79925
38361 2059 10211
3521 31108 79928
1441 31108 83452
4413 31108 79579
28058 23935 10608
29028 21924 13105
29340 21280 10323
31992 15786 11350
33139 13409 10933
29250 21466 12457
32855 13997 11549
29627 20685 12104
10798 19585 10211
9898 3659 11151
12289 3659 11933
7664 3659 13078
21695 28375 12567
5453 31043 75699
1940 31043 73906
3441 31043 68668
5548 31043 65585
5115 31043 60136
2657 31043 72797
2369 31043 75095
23427 4840 73173
26120 5634 73173
25120 4538 73173
35833 31043 45003
36525 31043 46768
39681 31043 14858
38859 31043 30006
38335 31043 44607
38788 31043 39974
38641 31043 26708
39849 31043 18136
39585 31043 48124
36799 31043 40277
34808 31043 49506
39025 31043 41846
40168 31043 39047
38739 31043 38431
39790 31043 12942
24762 27935 73173
29811 13049 73173
28946 15841 73173
32898 4610 73173
31046 5312 73173
29445 6452 73173
265 30827 13442
116 30622 21238
9992 9401 73325
22817 29558 0
16609 29772 0
23684 30066 0
6475 29099 0
38798 31124 1844
32608 31124 4734
22692 31124 5665
25927 31124 4211
16258 31124 6834
27276 31124 5486
25884 31124 5449
28848 31124 4553
37189 31124 3402
16618 4399 73116
17093 4399 72796
32401 13042 75240
28844 20411 75444
31323 15277 75025
30183 18200 14150
27377 24440 14150
32907 5730 73173
6516 324 13789
34822 1182 72555
28308 21522 74488
25682 26961 74320
27890 22387 75157
24731 31124 3315
18018 31124 4850
35325 31124 1481
12918 4399 13578
19562 4399 13556
7379 10834 13044
8247 12633 12645
40689 30679 84108
13563 16800 73511
4338 216 76116
35060 9429 13317
38589 2120 12130
30465 18949 13010
32902 13900 13395
38797 1689 11827
37143 5114 11183
28398 23230 14006
36227 31108 82278
30735 31108 82522
34296 31108 82336
31563 31108 81838
29292 31108 78951
37591 31108 83526
15909 31108 85106
22551 31108 84408
33804 31108 84873
32117 31108 78602
26514 31108 79632
29665 31108 81897
36560 31108 81479
35992 31108 83422
2358 31108 84957
22375 31108 83758
25690 31108 82820
17956 31108 82614
32652 31108 80633
32869 29358 0
38503 29638 0
27038 29204 0
29876 29092 0
24418 6983 12604
22256 5742 12604
32604 9227 11758
33698 9492 11758
34843 6243 11758
23617 28796 12150
313 30893 24091
200 30738 68197
12645 4399 74689
0 29894 80452
17936 5896 12604
39009 744 73684
16010 28796 79320
22449 28796 80575
23019 28796 78450
5455 28796 77717
3115 28796 77593
21426 28796 79223
2238 28796 77771
30453 28796 79322
24618 28796 78977
39445 28796 82499
15114 28796 79591
25603 28796 79050
10543 28796 79147
8928 28796 77807
16998 28796 79300
28402 28796 81611
39276 28796 79797
34320 28796 81267
14516 28796 78791
25084 28796 78564
16343 28796 77661
22360 28796 78140
15098 23888 74018
17052 26737 74018
5545 0 76097
21633 7154 11758
21767 6213 11758
24784 6649 11758
8165 9171 12604
6033 4043 12604
11717 19392 12604
10247 16747 12604
39690 31043 60055
39427 31043 59385
39678 31043 75817
38727 31043 72917
37283 31043 64924
39561 31043 66725
37105 31043 71135
40016 31043 59522
39627 31043 67728
40166 31043 75031
3682 3387 14150
10339 18225 14150
35241 30292 85744
19290 5392 13052
40260 28796 1923
33770 28796 1043
24813 28796 1988
31020 28796 5463
16869 28796 1472
30657 28796 3018
35669 28796 601
37309 28796 4494
40008 28796 4952
31235 28796 3214
33067 28796 5034
14480 28796 1054
37992 28796 2022
27850 28796 4411
38802 28796 3734
40846 29624 52031
40846 29486 56585
20962 6115 35511
31865 9444 11758
33976 3422 71818
6075 6570 11758
9403 13064 11758
8501 9869 11758
5195 4590 11758
25923 4399 74367
29997 4399 74419
9174 7045 74018
35109 705 71074
25873 3659 74556
28020 3659 73817
33164 3659 73303
5378 6692 71765
3245 2270 72819
6405 1973 11848
40846 30027 7851
40846 28879 40031
40846 28949 30267
29359 31124 3211
31307 31124 2537
21616 4854 73173
25620 5869 73173
21921 5541 74018
30701 7023 74018
27508 21329 74018
31911 10032 74018
23778 28796 73413
2823 3290 12959
8480 15012 13497
2985 3627 10802
14519 27521 14150
6741 11408 12273
7520 13022 13666
18726 31108 79004
21650 31108 78385
17086 31108 79059
17597 31108 79585
12925 6242 73173
13290 4750 73173
35744 0 74328
36709 0 74678
14386 30933 85409
13920 20593 73173
17370 26747 73173
15513 23381 73173
16836 24395 73173
12816 18249 73173
15073 7291 73797
31399 7291 12022
18679 6521 74018
14118 5996 74018
40833 30196 24491
40794 30392 8702
13556 24550 71626
35451 2542 73173
32907 10073 73173
31389 14338 73173
27241 23161 73173
0 29242 2316
14093 29853 0
25241 29854 0
13426 4262 10404
5820 2655 71945
24883 31043 36333
23250 31043 35956
20987 31043 35190
21867 31043 33301
21924 31043 29720
21041 31043 23761
8426 13003 74644
7722 11544 74454
29901 4399 10674
1041 682 13968
7435 12848 73431
10148 18467 75078
10632 19469 75102
7147 12249 74057
2151 1900 72497
5693 9238 74705
6761 11449 73497
40180 31046 81021
10363 17015 13749
13893 24328 13550
32839 6428 12604
40768 30526 32130
40767 30533 13220
35836 0 71302
39296 0 72034
24461 4399 10431
18073 4270 71818
5403 0 71605
40846 29123 1599
13756 17198 12415
30034 30987 516
26275 3834 10404
2375 31043 37512
678 31043 22957
4373 31043 39412
861 31043 71116
1686 31043 54660
3733 31043 53577
3583 31043 46079
2140 31043 70084
958 31043 32735
1327 31043 14805
1178 31043 60811
1185 31043 49994
3791 31043 49499
922 31043 34550
5267 31043 55998
784 31043 42683
5177 31043 56714
4835 31043 57903
5353 31043 53741
2444 31043 45442
752 31043 56007
2552 31043 57703
3888 31043 47080
6960 4399 12878
12403 31161 8917
10679 31161 11619
13394 31161 14940
8145 31161 8526
9282 31161 10458
13133 31161 21112
12730 31161 12815
32578 8257 12604
28425 19038 12604
13719 21501 11758
13549 20332 11758
18086 27687 11758
10501 11511 11758
14822 4399 13494
3001 744 75569
19833 5925 62357
19847 5976 43785
35011 792 10928
28207 14885 73249
28749 13764 73440
11576 6750 73173
10834 17991 11006
11719 19824 11552
13977 24502 10587
14248 25064 11273
39550 28796 64305
37821 28796 72549
33136 28796 69687
29373 28796 72274
38689 28796 72889
39882 28796 70612
13492 28796 70907
28873 28796 59759
29105 28796 74896
36388 28796 64647
11360 28796 77053
37954 28796 62721
37751 28796 56190
32972 28796 67048
34572 28796 70835
19127 28796 73031
36132 28796 73156
17304 28796 68981
35016 28796 67744
31254 28796 73112
33984 28796 65386
34701 28796 73950
13819 28796 69639
22219 28796 64592
30309 28796 65193
18396 28796 66835
34009 28796 63549
30906 28796 74444
32463 28796 73822
17038 28796 76774
33277 28796 74868
26359 28796 62418
34675 28796 69921
35236 28796 58213
3929 28796 77274
39368 28796 68494
27090 28796 73649
14105 28796 73812
38850 28796 73942
40319 28796 61068
35760 28796 61537
28540 28796 73452
35919 28796 67617
40279 28796 59747
37775 28796 54785
34295 28796 73556
33222 28796 71217
22935 28796 74552
23572 28796 65224
26869 28796 65233
7285 28796 73305
20223 28796 75913
36509 28796 68490
17777 28796 67375
28725 28796 75780
31929 28796 60230
40194 28796 56053
20199 28796 66402
35465 28796 74818
29089 28796 60759
20507 5310 69294
30726 11289 73173
20016 5474 52664
35312 3035 12604
32815 11340 12604
29547 18102 12604
28430 19963 12604
30346 19195 75255
30750 18357 74847
32723 14272 73915
33292 13092 75179
35336 8859 73043
38778 1729 73159
20681 4399 72417
40645 30739 2116
19969 6225 73173
19542 31043 16108
17817 31043 13080
18966 31043 17898
14154 31043 21373
19618 31043 10366
29094 19893 74461
37202 3097 75200
34894 7877 74887
23141 26559 11758
26445 22388 11758
27158 18520 11758
24987 23780 11758
25225 21532 11758
40731 30622 54083
31700 13666 73173
36044 5155 73173
32765 10706 73173
34019 7569 73173
25969 29581 0
20689 6416 63981
35039 2630 11307
35349 2974 11758
34028 6954 11758
28239 20559 11758
34023 7986 11758
13369 4399 72655
11802 21893 73561
4540 6851 72067
9205 16513 73119
11435 21132 72992
8727 15522 73523
9358 16830 72061
5487 8813 72048
35336 31043 18882
34284 31043 14626
36627 31043 23227
37398 31043 25450
38863 31043 11473
36076 31043 23031
36641 31043 9919
38579 31043 18428
34273 31043 25302
36385 31043 14420
34266 31043 32552
37711 31043 21692
35366 31043 32950
34789 31043 38162
37488 31043 22933
35314 31043 30544
40846 29833 38646
40846 29677 41832
40846 30035 16004
67 30470 36326
16 30210 68627
67 30473 63012
15390 22298 12604
13972 18864 12604
14644 19157 12604
33925 3041 11166
39368 28796 78677
16089 28796 80572
15082 28796 78822
35913 28796 84266
30965 28796 78559
35028 28796 78263
34737 28796 77786
27299 28796 80178
29619 28796 80759
35298 28796 82602
20237 28796 81550
16698 28796 80422
11841 28796 79704
37991 28796 84912
36640 28796 82864
27148 28796 82652
40358 28796 83003
40565 28796 78840
25375 28796 78084
29662 28796 83430
11817 6654 11758
16034 7273 11758
36194 31124 6158
36136 31124 7139
25605 28417 10211
30211 17645 10211
32796 13523 71626
37073 4781 71626
39038 0 13735
30079 5420 74018
31264 6490 74018
31552 30961 51517
27793 30961 68855
28547 30961 62483
29745 30961 63605
27655 30961 58015
31755 30961 56893
32974 30961 53516
30344 30961 51080
28274 30961 43542
29600 30961 51061
28218 30961 49999
30988 30961 47653
29581 30961 49085
27307 30961 39423
33081 30961 55305
27224 30961 64651
30096 30961 63163
28222 30961 55185
23311 7291 73542
651 31037 39239
40766 30540 54638
12507 30955 429
3090 744 71642
5462 744 75029
6882 11701 13579
7572 13129 12124
12182 22678 13987
8981 16048 13507
11865 22023 14150
5558 8959 13897
6074 1285 12649
25156 27883 11758
35125 31124 4498
14916 31124 6889
19203 31124 6353
23693 31124 6231
34106 31124 3321
7337 3659 73323
17039 3659 74882
11784 3659 74082
13826 3659 74917
8168 3659 74279
21500 5259 72772
31245 15437 72463
30047 17919 72701
27294 23622 72688
19986 6271 47784
19998 6282 66441
35206 744 11941
27929 23512 75565
26503 25440 75565
9455 9249 11758
10721 10912 12227
28538 30961 52998
29238 30961 53811
28412 30961 71171
30530 30961 53950
30473 30961 44537
32247 30961 51341
28675 30961 51087
29766 30961 59449
27989 30961 66337
29007 30961 56186
30614 30961 64573
27686 30961 43417
30418 30961 56311
31505 30961 50339
28307 30961 44658
27168 30961 49873
29313 30961 55623
22977 31210 58284
20503 31210 53259
20542 31210 72921
22160 31210 56881
21324 31210 48998
21846 31210 58586
23285 31210 59104
21277 31210 62486
20506 31210 67278
20461 31210 59275
25555 31210 36921
23755 31210 37247
21374 31210 37490
22207 31210 55819
10890 15566 73173
11090 11677 12529
6050 744 12790
5678 744 11971
2603 940 75009
3453 2702 74868
5453 6846 75120
25691 20097 73681
20809 5454 66228
6937 30968 85314
26177 6703 12604
23310 6393 12604
5430 30847 280
13780 25990 10407
13708 25840 12637
9183 16468 10831
5287 8396 11180
3387 4460 10554
12647 23643 13367
10426 19041 11876
2913 28977 85776
9326 29460 85776
26433 28799 85776
16360 31108 79796
8222 31108 82219
18575 28796 73484
33471 31124 2188
30001 31124 2840
33964 2961 12177
34905 2905 13154
26326 3659 11933
25126 3659 10911
27410 3659 11834
40486 30930 19441
29680 30961 38138
29679 30961 27878
31591 30961 38599
28180 30961 24518
28509 30961 26729
28929 30961 23727
30727 30961 37131
28351 30961 31617
27455 30961 19416
33368 30961 47229
28730 30961 25509
40264 31012 48210
24460 25335 74018
22362 27979 74018
25059 25860 74018
30278 11133 74018
6450 2065 73575
28750 7291 73200
