ply
format ascii 1.0
element vertex 2747
property float x
property float y
property float z
end_header
17644 28368 21104
4630 28368 22230
11137 28368 23589
1984 28368 24474
40810 28368 19937
13338 28368 23301
41515 28368 19804
26131 28368 22974
25186 28368 21164
40622 28368 20841
19412 28368 19786
3589 28368 20678
8396 28368 24775
29484 28368 21616
8834 28368 19613
25878 28368 21175
24302 28368 22165
910 28368 20471
44881 28368 20466
36767 28368 21510
10920 28368 20545
9097 28368 25152
14953 28368 21755
23517 28368 22205
29363 28368 22388
8969 28368 23126
11079 28368 21784
11294 28368 21205
21550 28368 20627
14642 17023 60570
13782 2999 61627
38617 28368 64600
36399 28368 65968
38678 28368 65403
48505 28368 60966
7959 28368 66162
47257 28368 65550
27297 28368 63640
18396 28368 65343
51935 28368 60672
49997 28368 60877
34442 28368 65265
22051 28368 65733
39205 28368 64505
35316 28368 63045
29778 28368 64146
38083 28368 66028
30655 28368 63852
47202 28368 63226
42654 28368 65130
32205 28368 65764
14725 28368 66056
39981 28368 66177
23345 28368 64200
40240 28368 62746
38933 20644 18436
38857 28368 58111
24782 28368 59123
34112 28368 55677
45780 28368 55625
27988 28368 56647
30490 28368 59606
30643 28368 58241
46474 28368 54567
13079 28368 59504
41416 28368 56075
35399 28368 58749
46563 28368 58946
49005 28368 59128
51900 28368 56562
14659 28368 59809
44224 28368 58539
34498 28368 56264
47254 28368 55389
52080 28368 54578
39208 28368 59518
51262 28368 54267
26140 28368 56773
26535 28368 58689
47945 28368 58480
52952 28368 53869
45717 28368 57318
38911 28368 59006
23095 28368 59504
21252 28368 59768
34286 28368 57119
12586 26950 18910
14090 18351 21076
14177 26950 59378
41131 25776 18751
41175 20526 18970
38864 8667 18790
20574 26950 9827
34310 26950 12588
18568 26950 10540
20775 26950 11960
7941 26950 10721
15099 26950 11262
21476 26950 10079
5760 26950 10450
18409 26950 11707
9576 26950 13085
30385 26950 11872
37020 26950 12408
18039 26950 10484
29923 26950 11209
9702 26950 12632
46874 26950 13084
39295 26950 12040
24019 26950 10639
19448 26950 12972
6933 26950 11697
38236 26950 12595
31728 26950 12202
12348 2090 20980
29689 26950 78812
13902 26950 58781
11953 13594 19290
38522 26159 20042
27461 28368 66
28204 26950 28902
7155 26950 28149
7061 26950 26663
51775 26950 51570
16815 26950 31945
33618 26950 33782
44502 26950 29320
49900 26950 40316
36306 26950 41374
46954 26950 40490
13107 26950 27091
45239 26950 26737
38883 26950 27950
35118 26950 29420
47359 26950 47036
47668 26950 34805
47817 26950 43646
26547 26950 35385
38216 26950 37087
36759 26950 38936
9853 26950 30412
35014 26950 28919
34575 26950 37636
32803 26950 39256
26901 26950 28091
5289 26950 28014
36845 26950 43340
15398 26950 34120
43105 26950 29811
37213 26950 38829
30093 26950 29124
42805 26950 34473
48099 26950 48195
48667 26950 40893
30893 26950 32854
52657 26950 28504
41553 26950 46040
24975 26950 32308
35918 26950 37986
27676 26950 37791
50350 26950 45473
29056 26950 28686
44308 26950 31835
52479 26950 35836
46007 26950 41314
16590 26950 32457
40465 26950 29600
15083 26950 32912
40223 26950 39204
22325 26950 27868
35249 26950 39667
48554 26950 38917
42058 26950 35049
24389 26950 34451
27296 26950 38916
36415 26950 33791
19184 26950 35538
36017 26950 28270
14048 26950 26950
28487 26950 34169
40034 26950 28217
21726 26950 36152
31492 26950 29362
20041 26950 35273
49689 26950 27384
27235 26950 30959
46516 26950 43170
49741 26950 33997
47343 26950 35373
48842 26950 33987
31214 26950 37371
31181 26950 33228
49479 26950 47082
40793 26950 45443
28962 26950 34353
42788 26950 29438
29607 26950 37613
41745 26950 44812
53105 26950 28457
30377 26950 36151
33142 26950 39738
47695 26950 29339
37180 26950 27142
29681 26950 38311
32588 26950 27337
22800 26950 31007
20906 26950 36665
29190 26950 40942
44100 26950 28436
16599 26950 27881
28556 26950 38267
52807 26950 52135
18106 26950 29824
22094 26950 31932
32190 26950 34791
31414 26950 41592
25959 26950 38985
30913 26950 38148
20867 26950 28330
43155 26950 46621
15634 26950 32846
51611 26950 39098
19906 26950 34683
42600 26950 36942
32075 26950 33647
38433 26950 37784
27606 26950 38573
28585 26950 38880
48867 26950 48989
49655 26950 36492
39038 26950 44943
52784 26950 34738
42051 26950 38590
38956 26950 29628
19390 26950 33622
53110 26950 32921
9644 26950 29225
43462 26950 43028
49840 26950 41215
13960 23551 61518
22617 28368 78862
11978 7432 59694
40589 16510 61514
38848 10550 61214
41095 12869 60965
13147 15104 61700
14584 14090 20386
40075 2124 61701
13388 0 60775
14483 14975 20610
38601 20659 19022
41033 26950 19774
38983 2101 61372
14284 19302 61251
13134 14833 58520
38691 22127 20550
14373 4294 20825
49012 28158 67171
14412 2330 61150
22106 27920 79074
14556 19310 59290
0 27843 47382
0 27487 39851
0 27316 34093
12430 19305 18377
40172 10588 18289
13092 0 59883
31167 26950 15390
35543 26950 14372
48684 26950 15596
33156 26950 15444
31390 26950 13737
39338 26950 17007
36727 26950 16508
32309 26950 15498
35399 26950 16695
40756 26950 14316
35791 26950 14836
34973 26950 15450
37591 26950 15810
28273 26950 13908
48471 26950 13588
27118 26950 13941
47504 26950 16596
41928 26950 16466
32968 26950 13597
17640 26950 14096
47885 26950 13218
39624 26950 14025
16857 26950 14295
42748 26950 16274
41606 26950 16025
47881 26950 14758
13378 5193 58765
12854 26475 17928
14181 7045 59054
12629 7011 21178
14695 21419 60201
38558 9510 60684
25924 28368 75665
33878 28368 73418
27289 28368 75810
32535 28368 74550
40270 28368 72942
34475 28368 73608
26710 28368 74887
25408 28368 75244
38341 28368 75675
41252 28368 73769
31697 28368 78832
1876 27447 17247
39016 12139 20996
14597 12296 59528
14697 12965 19600
4165 28368 26147
52244 28368 21378
52029 28368 20449
51608 28368 19892
42703 28368 22005
39457 28368 21555
17646 28368 24674
35578 28368 25944
47101 28368 26407
34387 28368 26239
37308 28368 25558
19464 28368 24620
23154 28368 23978
44188 28368 25752
37596 28368 25956
46197 28368 25600
20672 28368 23824
26871 28368 23397
50077 28368 26380
47043 28368 22330
33584 28368 23074
36132 28368 25064
41575 28368 21620
13888 28368 24866
49019 28368 20473
26306 28368 23999
36521 28368 23561
34858 28368 21996
27972 28368 23579
41308 20063 60007
41266 17155 59674
19185 27246 1002
38556 20885 20206
40964 15869 61141
39640 18385 18080
53191 27781 46234
53191 27799 51825
53191 28278 41086
11673 28172 4687
703 28060 21125
14702 9524 19693
41263 24852 59526
52932 27718 24502
13611 5634 21321
42699 27754 5593
13775 3255 21267
0 28002 33552
0 27701 27799
0 28256 28848
22958 26950 78776
28122 27605 79464
39401 14157 18260
41238 16233 20216
14396 10822 61114
11912 10377 59910
40472 1400 21226
14677 22062 59647
40945 19969 58919
38709 11567 18950
13644 21329 61671
41231 3558 60716
38568 16809 60643
11913 25979 19281
11885 25191 19560
40479 22943 18094
40928 16584 58973
13905 23131 18100
38508 3985 60517
39724 16220 61697
39130 4922 21112
39971 21970 21352
12720 27767 3884
12270 710 20913
14555 26950 60058
16057 28368 67661
46651 28368 66558
36152 28368 66721
14772 28368 68897
6433 28368 67585
28255 28368 69141
15590 28368 67588
30128 28368 66512
12529 28368 69023
4851 28368 67206
15938 28368 70081
8228 28368 70927
31810 28368 68667
16249 28368 68266
30550 28368 68114
26916 28368 68630
18764 28368 68879
8580 28368 68586
11979 28368 67598
38863 28368 66448
20981 28368 67188
31489 28368 68103
43435 28368 43450
26135 28368 46441
27674 28368 42611
46369 28368 38330
44820 28368 50850
27633 28368 44681
27548 28368 47953
45994 28368 33306
28945 28368 49307
41031 28368 45604
43063 28368 44465
51271 28368 35240
32663 28368 43596
41836 28368 46068
44266 28368 33159
40033 28368 37447
36063 28368 49987
32195 28368 51790
47025 28368 49824
17028 28368 48500
8320 28368 51678
40375 28368 34910
41214 28368 40990
43911 28368 51800
40936 28368 52065
37621 28368 43976
40943 28368 52780
40318 28368 47171
43999 28368 52958
51131 28368 50628
25650 28368 50795
28326 28368 39262
9498 28368 49254
42820 28368 51063
35426 28368 50397
37551 28368 47813
18497 28368 49187
52914 28368 48068
47782 28368 40357
24590 28368 47551
39975 28368 46602
42884 28368 38240
48417 28368 46089
39740 28368 42313
39054 28368 35085
44143 28368 48447
48821 28368 39245
27127 28368 50884
52129 28368 37889
41764 28368 49230
45953 28368 35820
45462 28368 39977
36690 28368 43980
20184 28368 50403
26263 28368 50867
44804 28368 46756
18867 28368 46933
32356 28368 37513
17625 28368 49833
34389 28368 44684
40401 28368 42618
52250 28368 35379
50351 28368 32587
48717 28368 53005
21989 28368 48849
38271 28368 49184
37720 28368 42932
49060 28368 46157
7652 28368 51106
50367 28368 49857
42396 28368 44313
35801 28368 46065
45133 28368 51166
34615 28368 43145
40318 28368 50138
53054 28368 40439
28206 28368 43928
22756 28368 43904
52517 28368 49518
48646 28368 35906
51265 28368 41310
29633 28368 45336
52891 28368 29771
39820 28368 45837
6000 28368 51836
20504 28368 44136
28586 28368 46959
49178 28368 35101
17059 28368 51705
18108 28368 48660
7490 28368 50188
35003 28368 42877
34320 28368 45362
53124 28368 30698
48029 28368 30787
15143 28368 52556
48628 28368 34671
30409 28368 48244
35885 28368 46776
4659 28368 52677
14136 28368 46408
42746 28368 47056
25775 28368 45576
45173 28368 34338
29256 28368 39848
52347 28368 39695
41020 28368 49244
14631 28368 49826
52741 28368 30256
38875 28368 36539
49902 28368 36463
24759 28368 52453
41219 28368 43127
33317 28368 40494
13771 28368 47382
24014 28368 52520
16557 28368 67891
17044 28368 68706
17712 28368 67740
35425 28368 66953
10258 28368 68269
17446 28368 66772
18011 28368 69676
22755 28368 69297
11723 28368 68742
22661 28368 68119
4290 28368 66711
22918 28368 66373
13905 28368 70894
23413 28368 67575
24322 28368 67455
20025 28368 68853
16725 28368 69053
7985 28368 70147
8421 28368 67703
8738 28368 69592
40405 8882 21251
38771 5873 18982
13246 25221 21354
20064 28368 5911
19436 28368 3997
22581 28368 3618
29152 28368 3770
17564 28368 4974
23211 28368 5060
18991 28368 4122
33236 28368 4128
12290 28368 5249
13968 11690 21172
38760 13968 59199
39245 13984 58703
40944 18994 61159
14675 20477 19295
52668 27443 22493
14190 20699 58746
47909 28368 67787
22258 28368 70232
43390 28368 69492
39255 28368 69330
45135 28368 68029
31541 28368 69523
37901 28368 68931
30435 28368 71612
37413 28368 71435
36935 28368 71052
21580 28368 70130
47798 28368 67355
47054 28368 68791
30990 28368 71218
24003 28368 71626
26069 28368 70063
29781 28368 70993
39201 22270 21141
38526 10890 19390
52681 28100 56939
38880 17489 58928
41277 7775 20108
11894 244 20058
40101 19776 18039
13429 10382 21345
12826 24620 61612
14648 13301 59660
40568 14061 21166
38808 301 20838
33855 27301 78604
38489 2126 60177
12569 7929 18536
41280 20380 60321
12240 1405 61234
40706 24861 21033
15741 26950 62199
25055 26950 65578
10363 26950 61402
39667 26950 65160
13534 26950 64543
29073 26950 65656
16151 26950 64587
10936 26950 62616
27236 26950 64464
21687 26950 64627
32284 26950 65906
15122 26950 62896
11887 26950 62248
10332 26950 63295
22340 26950 65964
21293 26950 64075
44237 26950 66321
23353 26950 63579
29829 26950 66198
16128 26950 62505
8906 26950 63240
26660 26950 64419
27242 26950 66311
9517 26950 61562
49137 26950 66361
22421 26950 78193
16165 26950 76697
21591 26950 78315
31082 26950 78543
50429 26950 55481
10972 26950 53206
14146 26950 53102
50068 26950 54508
47465 26950 58298
46771 26950 55826
25628 26950 55129
37831 26950 56354
21094 26950 54216
41395 26950 54334
36827 26950 53544
40284 26950 54895
51980 26950 55137
25583 26950 55944
8251 26950 53824
47152 26950 53891
38230 26950 55262
51065 26950 55578
8600 26950 53238
50171 26950 56208
28799 26950 56448
30409 26950 56944
52431 26950 54853
36662 26950 57461
44435 26950 54281
27154 26950 54267
51250 26950 54327
30759 26950 55048
12630 12762 61530
11909 2494 60515
6665 27096 9132
51986 26950 21863
8550 26950 20034
33052 26950 21875
50912 26950 20995
48497 26950 22708
48944 26950 22611
47413 26950 19638
32562 26950 22930
5027 26950 19636
9795 26950 19767
23052 26950 21464
50795 26950 23859
29977 26950 21368
50265 26950 20686
28009 26950 20034
28853 26950 21947
51952 26950 23295
46791 26950 22568
52200 26950 26109
50182 26950 21468
52379 26950 24421
30792 26950 22576
36303 26950 22254
14527 26950 21254
37631 26950 19739
25919 26950 20416
32639 26950 19604
48712 26950 20310
41994 26950 21021
45992 26950 22121
52377 26950 25101
12676 12301 58731
11885 10542 19762
16078 27080 77254
38351 26950 14353
43636 26950 15433
31953 26950 16208
51146 26950 18425
20577 26950 13709
42238 26950 13728
32454 26950 13762
26145 26950 14110
49570 26950 18564
41166 26950 14760
30321 26950 15662
12345 26950 13708
45509 26950 14567
27456 26950 14751
27758 26950 16265
46020 26950 15753
41833 26950 13924
44413 26950 17149
20051 26950 13289
39771 26950 14585
29328 26950 16451
33984 26950 13399
41110 5772 59464
38668 8561 20603
26704 26976 79651
38482 12175 60212
13518 2868 58843
40647 23789 61458
14600 13138 20345
24969 28368 61428
4399 28368 60627
18149 28368 63736
21262 28368 63748
33321 28368 61275
43657 28368 60104
18958 28368 63879
3585 28368 62440
17571 28368 63227
4879 28368 64391
8893 28368 61816
11929 28368 60223
42130 28368 61005
45373 28368 60177
16173 28368 62272
7562 28368 61408
27475 28368 61328
8385 28368 64491
4566 28368 62721
15461 28368 60695
18156 28368 63227
40834 28368 60729
18493 28368 62965
18536 28368 60295
28205 28368 62506
18952 28368 60555
10126 28368 61437
7636 28368 62778
8778 28368 63168
12208 23838 18546
14150 13146 21039
41536 28010 74841
369 28184 55878
11923 11329 60534
53191 28329 27688
53191 27352 50822
53191 28261 49337
19002 26950 77525
21401 26950 77552
26292 26950 77829
32773 26950 61756
35227 26950 63404
48032 26950 60018
29613 26950 62174
45533 26950 65353
9841 26950 60453
41713 26950 61263
47239 26950 65485
23107 26950 61591
30958 26950 61930
50770 26950 62724
21338 26950 62343
14456 26950 60556
49576 26950 60488
29434 26950 61243
41891 26950 63920
48349 26950 63715
40720 26950 63340
27292 26950 62393
24025 26950 60341
20610 26950 61658
47973 26950 62752
18530 26950 60603
43192 26950 61675
46808 26950 60275
43938 26950 63836
49037 26950 63296
35354 26950 64206
40170 24201 17934
12808 28368 56088
6783 28368 56288
20320 28368 56033
9795 28368 57207
33576 28368 54873
40919 28368 53680
10544 28368 53754
821 28368 58699
8832 28368 53451
31321 28368 55492
19174 28368 53777
7640 28368 54650
30001 28368 54470
32250 28368 55020
8056 28368 57637
28296 28368 53647
2006 28368 53744
3956 28368 54703
6926 28368 54829
20115 28368 57199
4224 28368 56559
37196 28368 54187
5277 28368 54679
1266 28368 54329
1162 28368 59515
11218 28368 56919
1305 28368 55734
22978 28368 56214
28929 28368 53946
34397 28368 54745
30892 28368 2067
27974 28368 3199
28307 28368 2078
29979 28368 2450
30787 28368 3244
20662 28368 3100
14109 26950 21019
11924 22612 19230
37068 26950 39548
32027 26950 39141
20819 26950 33178
34457 26950 34061
49285 26950 32484
9988 26950 27671
22182 26950 30630
41941 26950 32256
28784 26950 37900
23962 26950 29093
29887 26950 26719
42663 26950 31568
37014 26950 35301
44604 26950 33546
26335 26950 27748
36200 26950 29085
46616 26950 37763
49263 26950 42660
51889 26950 32102
39446 26950 45445
38635 26950 26992
47477 26950 41265
11426 26950 29877
18167 26950 35421
28918 26950 32647
31036 26950 29820
32666 26950 34118
43191 26950 36049
48862 26950 26531
16828 26950 29673
13365 26950 31596
42526 26950 30808
43902 26950 37667
51311 26950 42932
27092 26950 39757
12042 26950 27226
38353 26950 29937
43450 26950 39115
52245 26950 41692
50614 26950 30696
42340 26950 43297
32568 26950 35702
40081 26950 42198
42396 26950 30182
41803 26950 34381
39257 26950 28909
50656 26950 40139
32400 26950 40497
7403 26950 29789
33992 26950 28781
30473 26950 35580
42921 26950 37919
19138 26950 28767
45626 26950 35426
42096 26950 41856
24968 26950 37410
22865 26950 27820
38243 26950 28919
46738 26950 42277
48819 26950 27313
27918 26950 35376
17683 26950 27749
52855 26950 27799
16984 26950 34935
39557 26950 36638
33306 26950 41831
28798 26950 26644
36378 26950 28018
25432 26950 28648
7946 26950 28020
34740 26950 35186
13310 26950 28450
29924 26950 28714
40803 26950 43978
25015 26950 29103
38895 26950 32885
49158 26950 39859
48255 26950 45639
40408 26950 34459
20271 26950 33586
32335 26950 31628
45353 26950 27286
51337 26950 49590
49108 26950 50307
34604 26950 30805
44196 26950 47103
36956 26950 34711
37329 26950 33871
48231 26950 40915
25573 26950 35406
28120 26950 29972
35624 26950 42546
49536 26950 28430
22810 26950 26660
51303 26950 50280
38676 26950 35399
23789 26950 30119
10841 26950 31869
38081 26950 45154
21102 26950 35955
50690 26950 49944
39035 26950 26841
52911 26950 45209
25791 26950 34670
41161 26950 34425
33605 26950 36442
43381 26950 34023
11671 28368 31908
10785 28368 35303
1871 28368 36542
36851 28368 33078
38793 28368 27565
19585 28368 35060
281 28368 37555
864 28368 41759
17263 28368 30692
24629 28368 38128
10877 28368 37572
3891 28368 45498
13048 28368 28412
16891 28368 42592
30954 28368 34881
2671 28368 51097
175 28368 45016
13475 28368 36545
27733 28368 30455
25549 28368 34765
16352 28368 32622
7730 28368 47774
8990 28368 26776
20149 28368 36620
24154 28368 38999
49249 28368 26767
12376 28368 40706
16064 28368 39763
34393 28368 34296
14028 28368 37913
3785 28368 28411
30547 28368 29603
13727 28368 28890
19286 28368 33062
43389 28368 27434
10000 28368 39640
47167 28368 27050
24249 28368 37119
7758 28368 31609
21213 28368 29786
33355 28368 31305
21471 28368 33202
460 28368 29288
2757 28368 34262
17013 28368 37329
32240 28368 31106
11129 28368 46465
7012 28368 41570
27173 28368 32926
716 28368 48227
37875 28368 28220
9844 28368 44494
2236 28368 46514
16832 28368 26823
28639 28368 29163
21785 28368 30697
20532 28368 35974
10806 28368 30508
38899 28368 27083
15034 28368 28300
19913 28368 32057
28557 28368 30467
38536 28368 32550
19849 28368 28733
1281 28368 35606
7351 28368 48576
25329 28368 38797
33886 28368 30246
38139 28368 30970
30471 28368 31636
2256 28368 41353
29505 28368 30603
27699 28368 32879
11565 28368 30261
1424 28368 30414
22069 28368 32366
439 28368 39770
18300 28368 36988
22954 28368 34173
47500 28368 29084
33645 28368 35488
27351 28368 35878
31340 28368 32236
32078 28368 36524
14160 28368 41905
12516 28368 34944
30077 28368 32886
17 28368 31648
89 28368 36581
30715 28368 28778
4617 28368 49139
3430 28368 33965
14079 28368 31168
7644 28368 38914
12309 28368 27955
25568 28368 39170
20349 28368 34237
6645 28368 46048
360 28368 51139
24288 28368 33265
31300 28368 30458
46218 28368 28639
7893 28368 30441
23687 28368 27363
24623 28368 28012
33732 28368 28806
30688 28368 35960
12221 28368 28801
27320 28368 29729
40201 28368 28017
1876 28368 27687
179 28368 38192
2801 28368 35083
7866 28368 44650
2289 28368 40181
41003 24990 20676
51435 27594 62005
14690 8237 59979
14341 25412 61145
11984 9310 20388
41147 24124 59188
37068 26950 59555
8410 26950 56345
8690 26950 57478
18270 26950 56557
4649 26950 58267
18305 26950 56981
1027 26950 55975
2525 26950 53746
13339 26950 56953
42141 26950 59640
19905 26950 56675
25556 26950 58169
18167 26950 58479
3915 26950 58904
40860 26950 59195
32878 26950 59039
24463 26950 59696
16261 26950 59385
18590 26950 57464
23515 26950 57493
18867 26950 59063
3979 26950 54853
32010 26950 59393
13359 26950 55350
22630 26950 57860
2861 26950 56154
25108 26950 57712
1399 26950 56737
27651 26950 59807
36280 26950 59509
33798 26950 57927
35831 26950 10422
22089 26950 9251
40698 26950 11723
34733 26950 11134
32408 26950 9577
26083 26950 8117
44441 26950 8687
47643 26950 10664
47452 26950 11131
33503 26950 8172
41800 26950 11625
28513 26950 8557
30667 26950 9955
37176 26950 9488
25810 26950 9681
41093 26950 10999
42534 26950 12212
0 27048 32543
0 27925 52235
167 27732 54345
13839 25320 21215
41153 420 20574
40840 17189 20936
33217 28368 38013
9502 28368 50863
18088 28368 47672
44510 28368 45198
26105 28368 44170
36682 28368 50030
14583 28368 51976
48437 28368 31297
25565 28368 47005
44816 28368 51621
29096 28368 38988
28004 28368 40895
50980 28368 45115
47307 28368 47832
33373 28368 47175
37913 28368 46204
29008 28368 46779
27332 28368 40674
52297 28368 43096
35974 28368 41333
48706 28368 32295
52334 28368 52188
26688 28368 43426
39045 28368 49328
47232 28368 44258
42232 28368 49354
18145 28368 46557
23071 28368 45921
43960 28368 46421
20787 28368 47045
41595 28368 36834
41675 28368 49953
51917 28368 32352
27868 28368 43486
52907 28368 28010
27604 28368 41718
33626 28368 43663
51101 28368 31088
16724 28368 52658
37364 28368 38771
51567 28368 52605
42047 28368 35018
15769 28368 50249
24736 28368 42435
48722 28368 51806
33173 28368 38446
33840 28368 47693
13820 28368 52499
36057 28368 44593
34110 28368 46676
43417 28368 45008
39056 28368 36005
28163 28368 46033
30358 28368 45592
25482 28368 44812
41134 28368 49994
24163 28368 46431
17631 28368 47263
32898 28368 50084
45620 28368 45968
46852 28368 46701
37483 28368 49417
42240 28368 37425
33322 28368 42858
29641 28368 46093
36500 28368 45568
49706 28368 43383
31668 28368 51108
41919 28368 33997
33346 28368 45930
45676 28368 40691
30640 28368 44924
20228 28368 52818
24651 28368 45319
37146 28368 36262
51080 28368 29110
52076 28368 28202
49295 28368 30774
52307 28368 27054
47190 28368 48311
4847 28368 50779
31760 28368 46444
49292 28368 41232
16457 28368 50401
12508 28368 49946
42891 28368 52722
50937 28368 41986
46183 28368 47410
42036 28368 44788
7862 28368 52132
21253 28368 52711
51715 28368 48393
43224 28368 34205
30123 28368 40626
10653 28368 49894
24779 28368 41273
51446 28368 44391
28393 28368 41382
34131 28368 49957
24761 28368 43644
3705 28368 51664
35835 28368 47560
42241 28368 39847
16435 28368 51109
46963 28368 33071
12839 28368 51880
11810 28368 50888
28119 28368 48756
12825 28368 48573
28476 28368 39839
35251 28368 51583
14576 17501 20385
14447 14437 18822
41258 19989 19233
40716 18855 18362
52085 27504 19107
40926 23921 20808
21415 26950 2504
16985 26950 3087
30476 26950 2407
14455 26950 3079
26877 26950 2749
27622 26950 2906
22217 27334 79089
45223 28368 12021
29683 28368 10366
43591 28368 9666
21884 28368 11523
44070 28368 8365
42080 28368 12032
20077 28368 12832
32603 28368 13048
41563 28368 13065
45496 28368 13122
40200 28368 12474
30480 28368 11181
29248 28368 9901
14635 28368 13000
39873 28368 8635
39774 28368 9937
35729 28368 11954
35883 28368 13172
41558 28368 9066
41758 28368 9718
36401 28368 9934
19979 26950 75067
24041 26950 75092
18226 26950 75796
13670 26950 74242
16820 26950 75185
12947 26950 75798
19471 26950 73703
25172 26950 76038
36711 26950 76056
30183 26950 75841
14627 18776 60587
11953 13018 60625
41195 640 19399
13583 22084 17992
31746 26950 70555
14393 26950 69155
29166 26950 71078
10110 26950 69020
12562 26950 70202
8739 26950 71755
18088 26950 68448
8467 26950 69503
5806 26950 68708
11612 26950 71098
14920 26950 70120
30950 26950 71396
22159 26950 70194
18752 26950 70722
15828 26950 70203
38207 26950 71007
9616 26950 70253
41302 24131 19717
14670 25300 20040
39050 8193 58981
14396 6295 59288
38483 14709 19689
53191 27609 29833
53191 27298 31681
53191 27958 33153
53191 27641 36836
7912 27297 71970
39878 7818 58685
39040 12751 18514
41286 8653 20021
39943 8091 61719
22991 28368 2178
27858 28368 1577
31325 28368 2822
15304 28368 3403
17297 28368 3136
40698 672 61460
12756 1788 58962
14142 19065 18378
14682 10700 20064
36220 28241 1919
9383 26950 67688
33007 26950 70806
9744 26950 69815
16977 26950 71423
10989 26950 69000
31018 26950 70443
7850 26950 70978
32609 26950 71709
20470 26950 71723
33912 26950 71246
14062 26950 71100
10461 26950 71722
11888 26950 68421
35420 26950 70888
25017 26950 69337
11449 26950 67984
39596 26950 71230
38890 0 19118
2432 27891 15905
36241 28272 77615
40711 22825 61400
16324 28368 10281
10433 28368 7726
16095 28368 7802
15362 28368 11042
43517 28368 7914
30798 28368 8587
11135 28368 10932
28788 28368 9011
27495 28368 9647
9313 28368 7695
25248 28368 9179
37639 28368 8088
41236 28368 8021
9725 28368 11223
7818 28368 9913
26995 28368 9654
7350 28368 11953
19902 28368 10788
13523 12000 18245
26032 26950 73711
30376 26950 73451
19652 26950 72556
41098 26950 74490
38595 26950 74779
43496 26950 72322
18201 26950 73032
38270 26950 72535
31481 26950 73274
40106 26950 74007
23119 26950 73450
24584 26950 73250
42058 26950 72830
25296 28368 5082
11524 28368 5521
21379 28368 4545
14858 28368 6152
16780 28368 5312
22128 28368 5329
29482 28368 4793
21655 28368 5832
13239 3896 61716
39433 2020 61635
2321 27072 63370
39667 20891 58373
11957 1341 60737
38521 2877 20262
4092 26950 15561
33690 26950 18472
11633 26950 15222
4297 26950 15043
10193 26950 18147
2936 26950 16194
22545 26950 16291
33258 26950 18486
20263 26950 18758
29868 26950 18810
13109 26950 16556
12419 26950 15207
8275 26950 13910
14244 26950 17425
31428 26950 17533
11347 26950 18819
5490 26950 16086
25163 26950 18096
25899 26950 16794
21076 26950 18395
41425 26950 19192
19049 26950 19460
11918 26950 18645
27625 26950 18467
17055 26950 16204
25723 26950 17464
5477 26950 15525
9295 26950 18496
41116 18053 20543
41303 24385 59913
38786 11188 61132
15224 27223 76900
13680 26950 22192
22918 26950 25016
3506 26950 23948
14343 26950 26273
34652 26950 24037
20839 26950 23447
22315 26950 23088
38274 26950 25336
12029 26950 23874
38056 26950 24942
6437 26950 24869
30280 26950 26078
41010 26950 26130
4462 26950 23433
35064 26950 24269
6721 26950 26251
25422 26950 23976
18599 26950 25375
28001 26950 25407
1841 26950 26451
989 26950 21294
21086 26950 22261
24703 26950 23688
14383 26950 21995
7264 26950 21997
3910 26950 26274
44588 26950 26391
3156 26950 23165
7506 26950 21097
11921 20632 59657
11925 15668 59704
23237 28368 73808
24776 28368 71955
32076 28368 73073
10468 28368 73055
25281 28368 73837
27740 28368 73934
18856 28368 74574
19702 28368 71920
20099 28368 74585
17862 28368 74821
31088 28368 72064
26773 28368 73825
48386 27321 67987
14712 18711 60085
20412 27194 78851
33878 26950 65901
36059 26950 65286
12751 26950 65054
13079 26950 61880
3531 26950 60556
21736 26950 63560
3833 26950 66292
23653 26950 66078
7911 26950 61595
21189 26950 63600
14278 26950 62011
18870 26950 63123
27793 26950 65370
37010 26950 66283
11390 26950 63620
20602 26950 66109
4440 26950 64967
15965 26950 63761
34009 26950 64637
6898 26950 61377
44722 27605 7146
11884 5581 19920
20736 26950 21355
44652 26950 22694
42088 26950 20544
48646 26950 23218
27133 26950 19740
21433 26950 20724
47048 26950 20660
39118 26950 19798
35452 26950 21797
46148 26950 21614
48426 26950 24225
26512 26950 22839
45711 26950 19779
50997 26950 25830
18485 26950 21883
26462 26950 21993
40967 26950 20695
46481 26950 24477
15043 26950 19844
37038 26950 21938
32582 26950 20153
21900 26950 21956
44095 26950 20814
47804 26950 20085
41316 26950 21548
20206 26950 21722
34152 26950 22399
43076 26950 25128
42032 26950 24147
0 27413 33629
0 28177 44659
14609 19644 19076
13694 15969 21295
38958 9802 18657
3599 28368 50992
14132 28368 26579
17048 28368 35417
28520 28368 31096
35264 28368 33506
23278 28368 35625
305 28368 43913
48141 28368 28364
3139 28368 50323
18579 28368 31775
13413 28368 38239
40597 28368 30274
20393 28368 31455
12294 28368 31623
24906 28368 36904
9497 28368 37223
13339 28368 41043
9849 28368 32383
1612 28368 38026
36490 28368 30688
15335 28368 29814
20479 28368 41983
18189 28368 31218
14223 28368 44263
21570 28368 40160
30923 28368 28403
5646 28368 28742
9152 28368 39642
3050 28368 40351
12109 28368 26978
17047 28368 29172
15408 28368 27748
15440 28368 34779
17785 28368 39200
7603 28368 41921
10344 28368 47646
11088 28368 32355
966 28368 51270
4254 28368 49366
7066 28368 43674
32005 28368 29724
1390 28368 40761
12449 28368 30235
2106 28368 28399
11961 28368 34019
11184 28368 33999
2971 28368 44318
1685 28368 48286
10308 28368 37047
18623 28368 36438
7736 28368 46269
23264 28368 34872
44489 28368 27310
12896 28368 38396
5584 28368 38102
21797 28368 42121
24104 28368 38456
1027 28368 49377
20461 28368 42443
5885 28368 31006
13785 28368 27934
16894 28368 44011
43365 28368 28053
16620 28368 35323
24706 28368 38992
15131 28368 34267
31141 28368 30023
41395 28368 29134
4362 28368 30622
10032 28368 46016
24386 28368 35471
11630 28368 28184
4069 28368 37365
23744 28368 37848
6566 28368 31778
10354 28368 41749
19312 28368 26645
27741 28368 33525
4992 28368 38593
7850 28368 28216
8235 28368 39503
37104 28368 30946
23126 28368 27017
15086 28368 36543
16560 28368 38339
27667 28368 34190
14549 28368 37749
2791 28368 39225
10313 28368 34016
42935 28368 28960
8154 28368 45549
4005 28368 43660
19413 28368 37285
6870 28368 32626
17338 28368 43775
4076 28368 32041
50956 28368 26684
16819 28368 27633
39838 28368 32888
20768 28368 26986
1729 28368 29965
18105 28368 40895
16343 28368 29164
8316 27457 72280
23576 27499 275
36552 26950 67530
12090 26950 66562
37408 26950 68498
15547 26950 66643
25930 26950 67382
36510 26950 69568
6741 26950 66770
41324 26950 67540
33545 26950 67287
21271 26950 68441
24481 26950 68552
22308 26950 68198
28110 26950 68216
21538 26950 66519
32002 26950 67004
46123 26950 67460
8039 26950 66777
44248 26950 70362
15772 26950 67316
33628 26950 69666
39610 26950 69330
19820 26950 1967
32314 26950 3325
14940 26950 3105
29907 26950 2389
15911 26950 2463
47288 27635 69418
38518 2818 59936
39261 24841 18066
11929 19099 20130
53191 27236 28049
53191 27679 35328
53191 26997 48292
39734 26950 20445
35933 28368 18656
32391 28368 15994
30926 28368 19341
22344 28368 18293
44013 28368 15062
19262 28368 17635
28131 28368 17088
38704 28368 16216
49186 28368 17889
48717 28368 16284
49665 28368 18944
39690 28368 15536
49692 28368 16287
45288 28368 16336
32366 28368 16513
20584 28368 17300
42240 28368 15943
24741 28368 18761
21853 28368 19242
29814 28368 16776
31606 28368 19060
47289 28368 13565
21826 28368 18472
51009 28368 17166
32575 28368 16926
13428 28368 18711
45768 28368 16633
37329 28368 16290
23175 28368 18646
50673 28341 15697
38753 24822 60995
38511 15039 60436
5272 26950 54443
1599 26950 58260
21714 26950 56013
11440 26950 56028
3832 26950 59648
8295 26950 58643
14197 26950 56559
22866 26950 57084
38614 26950 59588
42943 26950 59163
22687 26950 58760
8711 26950 58128
15620 26950 58891
12804 26950 58662
9438 26950 57048
10520 26950 55952
21185 26950 59011
7851 26950 56877
14664 26950 59233
29870 26950 57931
27150 26950 57811
36777 26950 59908
4287 26950 54438
5989 26950 59441
16179 26950 58326
28407 26950 57346
5007 26950 57731
23685 26950 76484
29207 26950 78072
26233 26950 76673
20993 26950 76828
36625 26950 77052
27754 26950 77351
41982 28368 57542
40676 28368 56509
18647 28368 58284
41581 28368 57056
50687 28368 58273
34118 28368 59894
26634 28368 57372
39776 28368 59843
42160 28368 59684
34604 28368 59376
15827 28368 58900
31034 28368 57219
35726 28368 56700
30985 28368 56020
16676 28368 59301
41982 28368 58643
33786 28368 59438
5803 28368 59861
35998 28368 58585
37537 28368 58388
13627 28368 58349
29825 28368 58472
44461 28368 57393
35222 28368 59415
43781 28368 56997
50036 28368 59669
44310 28368 59369
48585 28368 58973
7868 26950 18086
25750 26950 18835
5969 26950 18996
19872 26950 19124
36610 26950 18143
38389 26950 17927
30114 26950 16773
5721 26950 14863
10019 26950 16236
20775 26950 16128
7154 26950 18793
20149 26950 16146
7563 26950 15612
15616 26950 17575
29302 26950 19215
29677 26950 19457
15157 26950 15056
26847 26950 18475
22800 26950 18975
39010 26950 18901
12729 26950 17049
5184 26950 13783
8312 26950 16153
38561 9643 19326
576 27259 22091
36849 28368 7871
15257 28368 9404
27869 28368 8000
28579 28368 7742
30336 28368 7836
8399 28368 9337
16327 28368 8230
13238 28368 9308
15524 28368 9041
19497 28368 9813
6720 28368 12167
11875 28368 11516
5909 28368 11319
27649 28368 8690
39332 28368 7717
13803 20819 61605
39410 16579 58556
40686 16101 58763
12247 0 19290
26204 28368 78458
33117 28368 77830
29002 28368 77540
40431 24988 61580
39775 26192 61706
12434 26534 58574
29054 26950 67848
41298 26950 66980
47035 26950 69318
42227 26950 70242
21151 26950 67745
37951 26950 68151
40143 26950 67812
22068 26950 67616
41908 26950 66993
37887 26950 66772
27603 26950 66892
25309 26950 68332
37735 26950 70451
12564 26950 66403
34779 26950 68176
40708 26950 69097
14687 26950 66593
29276 26950 67151
38796 14805 59126
49933 27340 13911
14273 10965 20931
7157 27672 8492
40060 164 58906
40321 15084 18215
11075 28345 74397
40505 16707 18265
13236 26170 17847
36548 27104 77488
13904 15217 58662
35478 26950 54968
39771 26950 55568
22100 26950 55760
29278 26950 53692
27198 26950 55112
50097 26950 59125
38915 26950 55694
34648 26950 53479
45468 26950 54809
41285 26950 55856
50644 26950 56637
21902 26950 54825
26780 26950 54649
42430 26950 56669
30978 26950 54100
28652 26950 54506
44314 26950 56462
44747 26950 55681
43550 26950 57336
37601 26950 54705
43115 26950 53472
15466 26950 53982
49264 26950 54795
38945 26950 54389
38023 26950 57846
29713 26950 53645
14290 26950 53552
30478 26950 53435
31303 26950 55293
50845 26950 55967
38618 11952 59503
603 27807 57654
40260 7739 61673
41086 25972 59028
14686 3340 20127
12575 11412 21140
12542 21401 21091
41275 22343 19296
26193 27471 79612
12180 15374 61096
14223 11633 18621
11903 6132 60039
11930 25289 60436
12164 13466 20720
2484 27358 15781
32422 26950 43313
6711 26950 35124
24605 26950 40934
14953 26950 37759
1561 26950 51029
29938 26950 43225
12528 26950 34193
2370 26950 43388
24219 26950 44900
21854 26950 50864
16457 26950 40515
4976 26950 36004
200 26950 35848
50852 26950 52914
1674 26950 37973
13965 26950 36062
23730 26950 46779
16027 26950 52574
292 26950 49453
29740 26950 51648
38493 26950 51380
17106 26950 35646
16229 26950 41709
261 26950 34689
10363 26950 45416
3951 26950 36547
13167 26950 36323
2339 26950 37365
1327 26950 51448
20416 26950 51380
10274 26950 37741
29779 26950 46040
31532 26950 47298
2314 26950 45740
18418 26950 41392
573 26950 47707
33330 26950 51976
232 26950 27798
16555 26950 34990
13359 26950 38551
20790 26950 51153
25153 26950 43728
15792 26950 47497
24469 26950 38739
5944 26950 37561
29958 26950 42543
11849 26950 49635
1594 26950 32506
19181 26950 39444
13024 26950 52042
1607 26950 48009
20555 26950 50530
29121 26950 48289
29923 26950 52077
14775 26950 46833
5189 26950 40203
38102 26950 52634
10422 26950 41494
30306 26950 45003
45704 26950 51995
28082 26950 43581
35411 26950 48731
21997 26950 44970
2160 26950 34898
25671 26950 42141
30682 26950 52051
1072 26950 50005
44572 26950 49815
25836 26950 48464
14274 26950 40917
2187 26950 52209
8939 26950 51010
17385 26950 46139
297 26950 38044
1686 26950 35805
35382 26950 45719
445 26950 41057
23740 26950 48006
24201 26950 49989
14798 26950 35865
323 26950 43781
11913 26950 39017
22623 26950 42928
32928 26950 45223
6714 26950 31134
35900 26950 51495
18009 26950 38836
3009 26950 44823
16649 26950 49076
7456 26950 38251
5046 26950 35407
28981 26950 52871
3325 26950 33296
6146 26950 44855
36064 26950 49361
13957 26950 49371
13094 26950 39357
46268 26950 50942
2085 26950 27799
21922 26950 48692
33183 26950 45930
1250 26950 28464
9076 26950 52443
27241 26950 47861
18969 26950 41919
7727 26950 34128
53 26950 33356
34124 26950 47404
22199 26950 42869
2275 26950 45298
35439 26950 45088
19416 26950 47570
19367 26950 46199
3050 26950 50323
16630 26950 50091
41011 18145 18696
39280 4735 18554
40535 26950 9045
39028 26950 11490
45445 26950 12155
31718 26950 8465
35273 26950 9851
20857 26950 8145
17670 26950 7972
43856 26950 8189
42020 26950 9911
26119 26950 9263
17900 26950 8611
19494 26950 8346
35422 26950 8985
39454 26950 10794
37279 26950 10209
15049 26950 8498
34303 26950 9904
12930 699 58919
18489 26950 76700
32472 26950 78295
33722 26950 76663
32308 26950 76339
34348 26950 77793
12048 23548 59195
13981 9296 18477
52502 27082 58306
13318 18356 18046
38481 4743 19835
12047 15132 19003
38865 26296 18392
11912 23671 19950
40708 16215 21064
11893 6294 19754
23940 28368 24081
26175 28368 24519
49436 28368 20908
46045 28368 23934
30678 28368 23953
16327 28368 24953
43494 28368 22731
50426 28368 24262
20110 28368 25206
46710 28368 25565
28753 28368 23026
17686 28368 26296
32428 28368 24379
36622 28368 25642
27473 28368 26244
18287 28368 24667
45772 28368 25733
30788 28368 23535
45104 28368 21104
34008 28368 23738
25182 28368 23831
22348 28368 24032
40648 28368 24749
48437 28368 24376
30616 28368 22802
25867 28368 23932
30122 28368 26415
14188 28368 25479
21125 28368 78083
30836 28368 76604
37546 28368 76333
27490 28368 77084
16857 28368 77163
40148 6491 21329
14245 23901 20908
12470 8632 61412
12193 9663 18882
39546 220 21317
12767 8825 58776
14619 25871 60565
11902 971 20109
1360 27643 61046
13041 1817 21328
12186 26950 5425
10527 26950 7612
19756 26950 6013
19710 26950 7572
39401 26950 7155
23906 26950 7035
29161 26950 6322
12322 26950 7268
17947 26950 6874
16597 26950 4797
20581 26950 4988
14194 26950 5945
33206 26950 6716
14325 18519 18557
40740 10868 18577
38655 21129 60853
11951 7997 19387
39163 17948 18291
12456 24324 61366
40784 5258 61387
15388 27559 2575
22058 26950 73124
34996 26950 72490
34805 26950 73497
35036 26950 75118
39834 26950 72230
37846 26950 74745
16469 26950 72904
17452 26950 72426
36312 26950 72538
35797 26950 72207
37890 26950 73866
42021 26950 71986
30763 26950 72147
33644 26950 75256
35985 26950 1858
32724 26950 1444
24739 26950 1326
39515 20283 58417
38728 11366 59292
14399 21632 61066
39415 14879 21250
38496 26500 19389
32372 26950 75907
16818 26950 73679
13429 26950 73844
21589 26950 74673
21224 26950 75017
16776 26950 75692
22551 26950 76096
17827 26950 75606
834 26967 59397
40898 8773 18747
12146 27764 4324
25373 26950 5840
12110 26950 4779
18243 26950 6190
17479 26950 7011
18746 26950 6922
16006 26950 6917
16328 26950 6271
11304 26950 5527
16928 26950 6179
15752 26950 6480
15400 26950 7501
32477 26950 7043
34273 26950 6427
40728 23463 58623
13108 28368 60692
35633 28368 61345
10099 28368 62771
23745 28368 62291
32243 28368 61241
7068 28368 65425
8482 28368 65258
12105 28368 63888
6189 28368 64118
5755 28368 62945
25733 28368 61873
9048 28368 61108
16628 28368 60015
36189 28368 60285
28815 28368 62064
18267 28368 62215
34556 28368 62275
37956 28368 60390
34018 28368 62135
4450 28368 63771
30692 28368 61914
4732 28368 66159
26842 28368 63121
50054 26950 63510
35715 26950 63695
24420 26950 62717
36485 26950 64128
46833 26950 61668
42340 26950 60445
30290 26950 62732
13534 26950 61366
34644 26950 63845
26737 26950 62421
29099 26950 62478
44512 26950 65478
12488 26950 60160
15662 26950 60982
19669 26950 60843
41703 26950 63027
44950 26950 64736
32322 26950 63661
46263 26950 64408
16890 26950 60050
20827 26950 62474
35708 26950 63260
35629 26950 60976
18072 26950 61559
40195 26950 62895
11549 26950 60914
30051 26950 63304
39356 25734 61577
38516 24696 20009
12506 23493 58573
5444 28368 13078
34352 28368 11588
23284 28368 13127
35173 28368 9878
23192 28368 11389
40450 28368 11392
33946 28368 11408
44281 28368 10054
35587 28368 10060
46388 28368 11622
23975 28368 10526
28096 28368 12720
8581 28368 12524
36772 28368 12782
13179 28368 12817
43884 28368 10228
38769 28368 11532
34321 28368 10608
25547 28368 10670
39931 28368 9288
24939 28368 12838
3919 28072 66831
38663 4057 59524
6705 27859 9080
36824 28368 13206
45716 28368 13557
25566 28368 14342
2635 28368 15599
9687 28368 14292
2379 28368 19098
3155 28368 14578
16751 28368 14552
27598 28368 15915
31629 28368 13290
21878 28368 14298
25730 28368 15909
13505 28368 13449
5897 28368 15902
32128 28368 15270
5614 28368 15473
3765 28368 17547
30210 28368 13684
6012 28368 17818
6342 28368 13609
4407 28368 16814
16063 28368 15573
5556 28368 18393
25700 28368 14989
9426 28368 13844
716 27445 21031
40161 18318 21323
15328 28368 2666
19176 28368 2271
23745 28368 1682
13539 17478 61690
13442 26866 58205
12785 12493 21234
13792 17229 18195
50280 27762 14748
30811 27644 79110
41178 24508 60684
32168 26950 1808
26556 26950 1135
36778 26950 3020
40330 11164 58684
12933 24392 17943
12221 15087 59085
41181 22872 60686
40310 21230 61647
13066 5191 61692
13321 26950 19787
40658 3607 21125
12232 16623 61164
13724 10061 58707
13718 4522 58847
40523 2246 18628
33029 26950 11033
17327 26950 9294
7608 26950 12196
10916 26950 9743
11210 26950 12305
40515 26950 12478
8280 26950 8684
8508 26950 10396
35953 26950 12617
22614 26950 10239
11127 26950 11646
44497 26950 12678
7641 26950 8588
9298 26950 8654
16413 26950 10827
15140 26950 10319
8850 26950 9590
12761 26950 10820
6440 26950 12431
39546 20924 61670
40281 13964 61662
26513 28368 77101
22334 28368 77394
21680 28368 76351
40295 1354 58918
12159 13369 61075
40617 12055 18433
36190 27325 1907
41183 25872 20300
12359 26856 61268
40958 3744 18937
38695 18952 60939
24119 28368 78390
33659 28368 78649
36768 28368 76955
41048 4752 61082
38815 6480 20823
27900 26950 4025
21277 26950 3801
31491 26950 4585
30703 26950 4287
28954 26950 5433
32189 26950 5057
38601 26950 3838
30217 26950 4665
21827 26950 4373
38574 9934 59655
38584 8815 60762
14418 465 19085
14271 4106 18827
701 26950 44811
50322 26950 52521
319 26950 30742
20466 26950 44458
24424 26950 51336
17341 26950 47838
12265 26950 41238
13852 26950 46164
13308 26950 37337
9007 26950 40295
29844 26950 45309
2314 26950 51388
32494 26950 48977
3292 26950 29045
22787 26950 45417
12383 26950 45408
2593 26950 36642
38993 26950 52203
7733 26950 37518
16065 26950 38149
25314 26950 39587
2150 26950 40227
45937 26950 50455
19987 26950 48013
13658 26950 41679
3073 26950 40337
36728 26950 45498
18201 26950 46782
10938 26950 38398
1863 26950 37255
14486 26950 40456
36360 26950 46497
22768 26950 41153
11387 26950 41718
28286 26950 45208
24145 26950 44331
24720 26950 49642
7998 26950 50208
25897 26950 40983
6685 26950 41299
4321 26950 45837
11029 26950 49933
39799 26950 46800
3326 26950 44231
36169 26950 50162
12132 26950 39491
11144 26950 42562
10111 26950 32592
5518 26950 33087
7773 26950 41967
1119 26950 42241
8625 26950 49326
7307 26950 31475
37254 26950 47233
17655 26950 49949
24482 26950 47480
6799 26950 37083
18978 26950 37724
17437 26950 36194
37132 26950 45108
12878 26950 52510
13945 26950 37675
28555 26950 42827
42726 26950 49182
661 26950 52350
8520 26950 31864
32478 26950 51765
14214 26950 46540
5085 26950 43118
18162 26950 44461
18515 26950 37751
11162 26950 34920
17565 26950 37197
41535 26950 47696
42755 26950 50482
22260 26950 43760
5770 26950 37995
14119 26950 39803
6503 26950 49524
39551 26950 52816
31424 26950 43066
39651 26950 48173
7710 26950 48911
13117 26950 33750
31623 26950 51501
17847 26950 48045
15283 26950 46953
42801 26950 50942
19265 26950 43538
28297 26950 51824
11271 26950 40769
15512 26950 38099
15218 26950 36144
13310 26950 46178
4412 26950 51058
16101 26950 39963
40143 26950 48398
12115 26950 52594
22218 26950 38861
2450 26950 30942
26907 26950 48763
2473 26950 33214
16937 26950 45620
24071 26950 51885
10005 26950 38178
22922 26950 44962
9739 26950 33373
41266 8642 60559
41273 15923 60431
40418 26950 20842
41271 3788 19567
12110 5390 59437
14416 16427 59094
41665 28368 63500
34633 28368 64025
46055 28368 65720
8886 28368 66206
45941 28368 62957
18643 28368 65812
31454 28368 64870
29405 28368 63597
46250 28368 64387
34282 28368 63715
39501 28368 62405
47672 28368 65418
17358 28368 65901
38276 28368 62353
33613 28368 63379
24877 28368 64551
44176 28368 62585
24408 28368 63954
14165 28368 66293
49061 28368 61220
47241 28368 63895
46681 28368 61333
41126 143 61006
22352 28368 75322
23962 28368 75400
38782 28368 74915
42891 28368 72756
30912 28368 75358
42130 28368 72417
37875 28368 75133
41300 25866 19489
31133 28368 837
20399 28368 1310
28515 28368 1301
27048 28368 7192
23593 28368 5606
33411 28368 6615
38389 28368 6247
25911 28368 5528
30178 28368 5085
35581 28368 4647
34578 28368 5831
39630 28368 5652
38988 28368 4646
12762 28368 7061
24031 28368 6089
40497 28368 6330
40484 27903 75650
41272 3037 19586
14677 2363 20203
13432 14537 21345
14354 14090 59057
28892 27984 180
50940 27436 63201
13160 7575 58707
39038 11015 58921
5465 26950 25603
48405 26950 26140
20064 26950 24617
10571 26950 25044
32051 26950 24455
7352 26950 24516
15598 26950 25764
18713 26950 23508
7890 26950 26171
3177 26950 25803
4237 26950 21078
33365 26950 26252
5101 26950 21806
8705 26950 23352
24811 26950 25497
2123 26950 23360
8864 26950 24954
2491 26950 24216
1660 26950 22408
37406 26950 25846
20263 26950 25993
787 26950 21770
7956 26950 20848
18521 26950 24804
35813 26950 24794
34176 26950 24705
6758 26950 23740
38641 26950 26170
5671 26950 22912
4419 26950 25572
50716 28291 63740
39891 7857 18320
14666 20341 20115
52872 26978 55496
14033 14943 61489
12542 4544 59002
12274 11920 18707
39463 10954 21277
39279 24250 18072
18984 27385 78458
38503 1070 20146
40823 18886 58823
11968 19800 59510
12783 26950 20400
38908 12457 59008
39143 928 61500
12662 18106 18233
13312 20434 61723
14073 26922 18119
12773 24361 58384
21789 26950 558
12545 992 21136
14121 20380 61403
40961 24063 18498
14707 12687 60059
5475 27423 68858
19528 28368 72537
14053 28368 73005
25881 28368 72460
16923 28368 75342
11461 28368 73005
12681 28368 73527
21142 28368 74886
24651 28368 73693
27080 28368 72103
11448 28368 73580
12694 28368 74612
52564 28095 57836
4436 27397 12036
41291 3482 20062
14679 3909 60532
11934 24554 20092
431 27401 23198
38881 27327 3021
24777 28368 389
32462 27264 650
47739 28133 10714
40893 5419 59179
12053 13089 20528
31838 28368 69153
39055 28368 69780
34590 28368 71406
42829 28368 68184
32253 28368 70399
24922 28368 71335
19246 28368 71470
47676 28368 68507
42532 28368 70668
44383 28368 68689
42266 28368 69150
37490 28368 70078
22786 28368 70899
28010 28368 71028
23338 28368 71746
36761 28368 68611
36069 28368 71183
38599 22547 20319
19668 28216 78741
41140 10303 19075
14636 23094 19099
13616 21401 21313
11887 8291 60138
12130 6766 59385
22427 28368 20390
28229 28368 22656
41963 28368 19862
19439 28368 20624
1680 28368 24839
18788 28368 23655
5029 28368 20222
27296 28368 22707
21782 28368 23318
36068 28368 20008
1335 28368 23491
20588 28368 21357
13041 28368 20612
2443 28368 25702
17634 28368 23131
33807 28368 21555
16439 28368 22027
1372 28368 24466
3185 28368 24912
4406 28368 24348
6848 28368 20300
3301 28368 21246
3924 28368 22543
9321 28368 19768
7718 28368 24315
33333 28368 21019
8983 28368 22480
23187 28368 20058
1279 26993 60854
39160 13773 21125
17748 27104 1598
14499 24933 59062
39946 4256 21356
39548 12360 58614
29198 27279 220
25273 28368 13596
11331 28368 17934
16213 28368 14594
3649 28368 18930
2659 28368 17713
43567 28368 13554
21919 28368 13290
34871 28368 14305
24538 28368 13741
16681 28368 15301
29047 28368 14160
15414 28368 17279
34368 28368 13193
7004 28368 17205
10344 28368 14532
17371 28368 15384
37523 28368 14613
23929 28368 15006
36742 28368 14657
2310 28368 17440
16388 28368 13773
36259 28368 14547
23052 28368 16468
27519 27864 0
14505 26950 19476
11885 16514 60152
13347 17181 58445
9776 27645 6143
39234 26301 58407
12148 23139 20631
46180 27270 8681
41650 28368 15764
46804 28368 18950
22435 28368 17054
44502 28368 16393
31852 28368 18250
3014 28368 19357
39668 28368 18903
32132 28368 18572
23854 28368 17246
49834 28368 18086
50015 28368 17454
36699 28368 18901
23024 28368 19108
7720 28368 19440
32944 28368 17211
49672 28368 15025
34022 28368 17827
25474 28368 17337
27829 28368 19429
32146 28368 17556
42090 28368 14868
38056 28368 18229
48071 28368 16217
36742 28368 19333
38353 28368 19284
45091 28368 14738
42170 27489 5187
38518 5408 19540
51212 27807 62544
10448 27955 73916
39742 12058 18229
14301 19189 20872
39063 23335 61378
39148 9436 61483
41228 3403 59790
23950 27286 226
27982 26950 436
14349 21802 18517
12867 19032 21273
39835 26950 6178
38734 26950 5334
18415 26950 3594
39958 26950 4967
33672 26950 3677
37045 26950 5608
19952 26950 3730
42997 27620 73721
13473 511 61702
12653 13818 21175
38816 28368 6262
30203 28368 7232
36810 28368 4885
37130 28368 4303
30910 28368 4641
37615 28368 6827
40456 28368 5065
42380 28368 6312
42266 28368 5796
40970 28368 4367
35472 28368 5132
30482 28368 6907
38605 25826 18909
38563 6265 20365
13953 4887 18574
13595 13560 18214
12017 15966 19078
38664 10283 20582
12079 4382 19135
38485 8347 60123
14060 5249 59001
13168 19586 61705
5589 28368 58989
28677 28368 54989
14827 28368 57120
12093 28368 54217
7180 28368 53539
2334 28368 56927
18261 28368 56335
21780 28368 53482
33822 28368 53300
28126 28368 55499
1577 28368 58159
31208 28368 53226
2756 28368 54492
15915 28368 53903
15315 28368 54300
28833 28368 55809
24610 28368 54866
4196 28368 58377
25129 28368 56738
4115 28368 53126
39128 28368 53288
3122 28368 55901
36227 28368 55261
14131 28368 56969
47390 28368 53675
37353 28368 54801
42801 28368 54404
12292 10487 59072
14321 8295 20881
