ply
format ascii 1.0
element vertex 2831
property float x
property float y
property float z
end_header
1918 22294 75210
15895 18687 75210
33891 26350 75210
3526 34901 75210
14804 31096 75210
45099 33698 75210
6134 12026 75210
24008 35286 75210
610 35646 75210
3527 35549 75210
48736 34093 75210
19059 35861 75210
9997 30923 75210
12598 20004 75210
17205 34112 75210
992 16902 75210
48770 36546 75210
19720 19213 75210
15778 28949 75210
4888 31425 75210
36887 36726 75210
39593 31787 75210
21353 23761 75210
25145 22801 75210
18949 32237 75210
10591 29147 75210
9106 14598 75210
15078 27119 75210
33413 36437 75210
22311 32320 75210
22257 25762 75210
27370 30763 75210
42244 35016 75210
13468 29457 75210
28348 27810 75210
6639 32065 75210
9070 28822 75210
3657 14907 75210
21004 20261 75210
34653 30401 75210
14115 28180 75210
25453 21973 75210
15877 21256 75210
4033 30266 75210
3364 30242 75210
18268 30151 75210
1601 16423 75210
13234 28420 75210
29838 23716 75210
1134 32104 75210
32954 33235 75210
7122 26813 75210
54476 8356 7123
54476 5914 25125
54476 5660 63059
54476 6375 41929
54476 6377 19533
54476 7073 7887
54476 5819 8371
54476 6479 5114
54476 5720 17975
54476 8127 18124
13552 32065 44387
16786 32065 49144
2293 32065 39304
34693 32065 13534
9982 32065 28000
9398 32065 36129
20334 32065 37858
23986 32065 23702
12331 32065 34783
5654 32065 60422
6004 32065 46163
92 32065 12224
38982 32065 6824
21367 32065 13375
33812 32065 23013
15288 32065 46852
49361 32065 8711
1446 32065 23792
21090 32065 28466
36357 32065 8815
20118 32065 43402
6198 32065 45015
9583 32065 46689
8780 32065 11564
47783 32065 12956
1771 32065 14732
8793 32065 43355
11105 32065 19057
6120 32065 57598
9509 32065 33942
24859 32065 39790
25550 32065 17020
6821 32065 50190
19105 32065 43688
43097 32065 17885
31591 32065 29026
9308 32065 9833
6926 32065 39586
18047 32065 41159
15891 32065 45655
19407 32065 11969
10607 32065 31377
13670 32065 30416
14956 32065 7680
3991 32065 37137
24256 32065 35033
25479 32065 22209
194 32065 19854
1744 32065 53684
11437 32065 55866
42844 32065 10170
5771 32065 53955
43560 32065 10806
2018 32065 8166
31975 32065 30752
15303 32065 12438
28576 32065 20276
28134 32065 6990
12490 32065 8657
18496 32065 29960
29761 32065 12368
3538 32065 28029
26646 32065 24818
26037 32065 8931
36178 32065 15093
10044 32065 27158
6921 32065 44316
3039 32065 7923
15625 32065 38231
14210 32065 48980
14453 32065 28185
6752 32065 56576
497 32065 52078
30506 32065 18058
10650 32065 33381
3184 32065 46771
38655 32065 20514
6146 32065 9595
2456 32065 42454
45959 32065 12164
14288 32065 37009
23497 32065 28219
31024 32065 23545
7999 32065 9908
5059 32065 10467
6788 32065 6918
25364 32065 25207
23373 32065 41588
25743 32065 35075
9293 32065 8331
7488 32065 55831
35831 32065 21302
16083 32065 19048
6739 32065 24038
27955 32065 30657
12091 32065 11085
28596 32065 35606
9377 32065 57742
7708 32065 18322
5813 32065 33669
28387 32065 17154
819 32065 14049
5376 32065 38092
9053 32065 25232
26196 32065 15307
7997 5280 68353
34038 5280 69381
15678 5280 71160
22802 5280 68519
6569 5280 68561
5147 5280 70429
27000 5280 69891
18187 5280 71010
11588 5280 71483
1445 5280 63974
5443 5280 41476
3364 5280 40855
2869 5280 63769
3628 5280 59668
3491 5280 71048
6214 5280 67234
5363 5280 38643
5625 5280 26711
5074 5280 47066
4978 5280 36520
4453 5280 67839
30464 0 34972
24815 0 62474
45146 0 52987
46837 0 14547
36373 0 54631
47285 0 44196
29272 0 37303
36271 0 44662
43893 0 41686
23593 0 52925
41617 0 36062
35897 0 48580
46950 0 45498
35728 0 63049
41267 0 57021
43203 0 49976
45648 0 38965
38915 0 30965
45811 0 60998
13991 0 58694
36205 0 43661
45907 0 64793
37841 0 34232
31531 0 51642
38899 0 42309
41776 0 30132
43202 0 25717
21543 0 62030
17952 0 58623
43828 0 59657
45873 0 19790
29776 0 61708
44941 0 37202
28692 0 60531
30394 0 54631
30167 0 52257
45298 0 28112
40508 0 62730
23978 0 46431
21628 0 49524
44077 0 34083
15057 0 63820
44160 0 15537
35464 0 26645
45953 0 56676
19262 0 51801
33667 0 45126
34908 0 38970
47186 0 38936
39353 0 63845
41587 0 32414
14882 0 59850
37741 0 37052
34391 0 33672
31203 0 61244
43966 0 21354
29643 0 57068
35516 0 52969
36655 0 29141
40156 0 58414
41587 0 27206
41434 0 19320
19748 0 57956
47017 0 47996
35777 0 37924
11321 0 63352
26180 0 58802
35074 0 50880
42255 0 33913
15585 0 58824
37724 0 24018
28237 0 47102
36292 0 62414
30252 0 58873
0 5790 75069
0 8190 72337
0 12499 73436
0 8404 71459
41504 37090 2367
26372 37090 17725
15240 37090 10220
33903 37090 662
7358 37090 4846
31934 37090 26185
20926 37090 4378
53390 37090 63207
34129 37090 7448
49146 37090 48967
21746 37090 13073
51148 37090 38131
16802 37090 19885
51254 37090 56414
17474 37090 7097
31093 37090 12803
40420 37090 20213
30377 37090 10653
11933 37090 2057
45808 37090 5101
37667 37090 12785
44531 37090 35137
49061 37090 66523
18711 37090 18517
42353 37090 37327
44343 37090 47362
40437 37090 18262
47661 37090 35078
33955 37090 22651
50149 37090 35069
34275 37090 20919
39351 37090 12500
33338 37090 28372
18435 37090 24153
49667 37090 33361
32052 37090 36684
27044 37090 21916
51707 37090 64882
18655 37090 5993
19507 37090 12222
39317 37090 23377
30191 37090 1188
36291 37090 40032
36693 37090 32710
16030 37090 13851
25696 37090 2103
51144 37090 13959
51667 37090 57195
37545 37090 9956
18402 37090 17134
36207 37090 11623
46481 37090 12781
49629 37090 23603
32332 37090 11688
46240 37090 13853
28251 37090 34981
9907 37090 3950
49206 37090 39822
44421 37090 8616
50322 37090 42775
31638 37090 27537
53957 37090 21063
51521 37090 33060
22006 37090 14570
41298 37090 49604
42169 37090 7461
35290 37090 32287
44826 37090 13548
24891 37090 6117
49817 37090 57218
32228 37090 30604
27158 37090 19402
51369 37090 6606
26247 37090 12015
41144 37090 9049
53611 37090 58114
22935 37090 28442
35130 37090 27503
34325 37090 34798
40062 37090 31790
46439 37090 17295
34623 37090 29007
16050 37090 17758
32523 37090 9253
26404 37090 14781
32063 37090 13700
41201 37090 56394
16279 37090 13143
45784 37090 51227
12948 37090 6956
46683 37090 30711
25236 37090 23859
7197 37090 4249
40211 37090 22536
31666 37090 5774
6722 37090 7063
21831 37090 22111
27029 37090 9297
50998 37090 41947
42900 37090 10693
12732 37090 2028
38764 37090 49187
32984 37090 42297
40939 37090 37525
40844 37090 50109
42556 37090 773
47369 37090 29270
49576 37090 4158
50775 37090 21408
16394 37090 22179
15251 37090 5498
49775 37090 50281
49421 37090 27577
20567 37090 18842
44912 37090 39261
9343 37090 12378
22892 37090 17932
45001 37090 50354
10137 37090 12251
44611 37090 56133
37506 37090 21247
43156 5280 4824
31178 5280 2379
38488 5280 734
22588 5280 1240
10467 5280 1539
30944 5280 4658
29916 5280 3846
19415 5280 2959
37438 5280 2006
22970 5280 297
20539 5280 3293
18199 5280 421
39602 5280 71040
26158 5280 71642
26156 5280 73260
12425 5280 73517
20335 5280 73862
43835 5280 70256
20426 5280 73134
46392 5280 68833
34895 5280 72611
44345 5280 73625
47711 5280 74875
22447 5280 73578
7425 2177 7668
29065 166 7668
14978 511 7668
42064 174 7668
22137 340 7668
10407 2649 7668
7042 1450 7668
15963 22144 69286
23922 14573 69286
5329 27389 69286
21119 17441 69286
29481 16997 69286
12930 11552 69286
15130 22369 69286
11125 24155 69286
750 12529 69286
158 29645 69286
45691 11655 69286
15391 13017 69286
15293 10242 69286
27947 13302 69286
26083 10576 69286
4343 18703 69286
31742 17144 69286
30096 10153 69286
32710 11182 69286
14153 16543 69286
7705 24804 69286
3671 27871 69286
18578 15569 69286
3567 15339 69286
3773 29345 69286
33099 12190 69286
6746 24113 69286
4344 22031 69286
5145 26243 69286
11107 13247 69286
27130 15088 69286
19601 16846 69286
23746 18603 69286
1038 13362 69286
2670 25946 69286
4074 16940 69286
12250 13366 69286
20868 9786 34123
27769 9786 51840
23570 9786 66387
6250 9786 22444
13823 9786 59922
26682 9786 37420
12895 9786 54727
26550 9786 46799
7875 9786 52211
13660 9786 41748
21344 9786 64673
44214 9786 69091
44143 9786 63727
15485 9786 36541
7743 9786 32239
11053 9786 22139
27083 9786 64045
24312 9786 39104
28037 9786 48041
44901 9786 65710
31059 9786 42839
11824 9786 30226
7591 9786 41752
13365 9786 42459
18460 9786 33116
48247 9786 62268
10676 9786 62709
2293 9786 63642
28275 9786 41910
16732 9786 50310
502 9786 24543
7433 9786 55847
4849 9786 11998
17705 9786 31002
38286 9786 52043
32629 9786 50939
178 9786 58888
11980 9786 41503
2672 9786 52162
439 9786 15003
13278 9786 35852
5309 9786 19814
2679 9786 53680
25923 9786 56263
11310 9786 28155
15599 9786 32628
46940 9786 67575
8309 9786 19875
6756 9786 55665
19049 9786 44885
7293 9786 53554
2449 9786 44249
11295 9786 68503
16083 9786 33813
30579 9786 60642
5522 9786 48740
15897 9786 49342
48918 9786 68815
2650 9786 15690
46863 9786 64682
6016 9786 30089
35461 9786 48877
6559 9786 63715
12885 9786 52163
21039 9786 43667
4002 9786 39375
5199 9786 50759
8245 9786 44597
3588 9786 51633
11619 9786 55566
36975 9786 64528
16351 9786 55981
5515 9786 38622
29636 9786 46531
23473 9786 57862
39390 9786 55299
42931 9786 68565
40715 9786 64385
4199 9786 62520
2939 9786 24894
27167 9786 49328
1476 9786 65521
26351 9786 69129
29201 9786 64645
4578 9786 57063
19328 9786 44186
12748 9786 64832
34072 9786 60980
1004 9786 34117
13197 9786 37896
21187 9786 31185
3019 9786 36411
876 9786 43196
39951 9786 52845
17861 9786 55027
18782 9786 62930
39032 9786 61916
17206 9786 63235
10438 9786 44898
25183 9786 42795
41474 9786 65367
23198 9786 45915
33317 9786 54556
13037 9786 67936
14818 9786 28522
6547 504 29245
6547 1651 20194
6547 2729 9365
6547 87 32957
6547 284 37179
6547 480 58844
6547 794 31972
6547 3337 12327
6547 10 11882
6547 1108 25816
0 15172 903
0 8577 4391
0 15948 496
0 9147 4434
0 17394 2884
0 20132 3211
18415 25735 69286
35201 23482 69286
53099 15867 69286
41025 18293 69286
39947 19493 69286
42436 28833 69286
23685 23524 69286
31952 26554 69286
38977 17426 69286
30059 20231 69286
49097 17252 69286
22591 27042 69286
45843 13624 69286
47949 16011 69286
45338 28188 69286
25897 27319 69286
51631 28857 69286
31036 24877 69286
40397 26796 69286
44723 28457 69286
40794 27432 69286
41644 27604 69286
20230 30262 69286
54181 13260 69286
35549 27739 69286
47233 18842 69286
32422 27155 69286
36367 21593 69286
32537 18964 69286
43710 28403 69286
49495 18271 69286
54064 12638 69286
33542 20931 69286
33299 20388 69286
38547 28735 69286
18613 28423 69286
24881 21977 69286
54476 7437 59467
54476 7987 60104
54476 9754 60746
54476 7035 60646
54476 9498 45341
54476 7769 46040
54476 7699 48348
54476 6182 73725
54476 36618 941
54476 35744 53080
54476 35769 54044
54476 36655 42540
54476 33531 5068
54476 36405 18324
54476 33044 13187
54476 34890 5977
54476 36781 38073
54476 32846 14120
54476 33804 19864
54476 36294 40862
54476 35626 56639
54476 34307 45083
54476 35502 58256
54476 33962 59063
54476 33489 70902
54476 32343 67239
54476 33556 32154
54476 33009 51967
54476 34329 46278
54476 32777 22103
41070 349 68197
19808 654 68197
29932 330 68197
17625 1178 68197
26855 800 68197
33313 3264 68197
52525 9786 22196
24903 9786 18749
30928 9786 36738
33883 9786 8881
42828 9786 32820
21147 9786 20076
31517 9786 16417
38484 9786 19935
49919 9786 16876
12130 9786 20037
25325 9786 21141
12553 9786 6422
36184 9786 28645
52961 9786 17342
52233 9786 46548
22444 9786 10933
28874 9786 8483
48375 9786 24419
19057 9786 6861
33228 9786 24121
12443 9786 15603
25116 9786 29696
50092 9786 45341
48949 9786 52936
25736 9786 13761
30514 9786 23784
11218 9786 11780
41000 9786 35908
52337 9786 39611
30011 9786 14927
37641 9786 48217
36943 9786 24841
33110 9786 40474
31526 9786 41407
46908 9786 6238
42276 9786 30096
48450 9786 54650
27880 9786 15078
43075 9786 17773
43386 9786 35385
41018 9786 38578
42629 9786 12820
28535 9786 31721
5607 9786 9830
40776 9786 21184
46114 9786 9436
22875 9786 13581
50146 9786 38854
28918 9786 16631
28752 9786 12130
52521 9786 50338
32173 9786 33340
41136 9786 30540
10726 9786 7518
21862 9786 9765
6263 9786 7700
49814 9786 35567
49474 9786 20378
32571 9786 27735
41768 9786 25566
24359 9786 22020
36025 9786 36872
32369 9786 6676
42108 9786 33429
36677 9786 43430
17664 9786 14405
42132 9786 7706
4173 9786 10200
3732 9786 9603
31132 9786 9053
46923 9786 57420
45540 9786 39561
38607 9786 26721
48152 9786 42937
47577 9786 19063
50253 9786 19149
40957 9786 34798
33925 9786 40041
32739 9786 22891
22985 9786 30592
38675 9786 18965
52383 9786 37214
23545 9786 31998
31611 9786 22106
43546 9786 54838
7479 9786 7988
42937 9786 13833
36787 9786 9802
27815 9786 12867
49194 9786 37357
37546 9786 16749
26875 9786 28551
34652 9786 19722
48429 9786 33809
44093 9786 56284
38210 9786 45381
43774 9786 7366
11529 9786 7883
34392 9786 10441
49361 9786 54089
35948 9786 27963
18500 9786 13844
39991 9786 12699
24868 9786 32902
41415 9786 37313
5188 9786 33487
29289 9786 54775
13093 9786 27891
2799 9786 43446
38658 9786 51015
13347 9786 49807
13975 9786 49297
11833 9786 60245
19598 9786 48881
22047 9786 37732
16644 9786 35517
19956 9786 45420
2039 9786 49744
3863 9786 49352
27134 9786 63440
9530 9786 57260
8118 9786 53719
20734 9786 46103
27374 9786 56979
14363 9786 67069
16527 9786 67075
25819 9786 60891
15696 9786 65515
41604 9786 60594
28539 9786 61784
32483 9786 48681
4786 9786 51923
12825 9786 46838
14620 9786 31535
23052 9786 48233
25197 9786 68975
10264 9786 22906
7557 9786 26740
19044 9786 31657
9076 9786 62536
41210 9786 55719
27606 9786 42833
26957 9786 44194
15693 9786 63637
8440 9786 64848
6671 9786 54405
20025 9786 63497
26035 9786 42582
516 9786 68198
18684 9786 27802
40089 9786 62606
8662 9786 34949
58 9786 41673
14258 9786 40851
33401 9786 64585
24420 9786 68323
13152 9786 56836
5963 9786 39363
6607 9786 68860
5172 9786 16003
38479 9786 57236
1257 9786 44235
22293 9786 39732
8611 9786 46266
8466 9786 67829
21318 9786 68219
14075 9786 44411
15660 9786 50019
1089 9786 26735
18024 9786 45560
15820 9786 66456
35889 9786 48527
1729 9786 64757
39085 9786 63732
24227 9786 48983
22499 9786 52459
8940 9786 39013
18659 9786 57745
8274 9786 28140
27396 9786 58375
46353 9786 67858
38534 9786 64105
9605 9786 53309
30479 9786 44516
4385 9786 44639
8807 9786 32327
2148 9786 45114
4290 9786 14372
25051 9786 58317
13002 9786 23031
19446 9786 68503
6506 9786 48592
2484 9786 60559
8585 9786 60601
31246 9786 53680
32075 9786 52143
19170 9786 63370
638 9786 61090
9741 9786 18039
9450 9786 35235
7538 9786 25125
6214 9786 65053
0 7553 17056
0 7394 5653
0 6874 2969
0 5672 16395
0 9208 7379
0 7315 27767
0 5887 8483
0 7565 13125
0 7802 4577
0 7872 34747
44180 37090 71179
19413 37090 35559
21469 37090 33301
5721 37090 48414
17705 37090 69162
12982 37090 55749
1361 37090 25769
11827 37090 35934
15653 37090 43790
2688 37090 12401
1854 37090 38409
33741 37090 59384
14918 37090 47819
39341 37090 64500
16376 37090 64524
16632 37090 50472
28449 37090 56939
12709 37090 62980
5424 37090 73055
49911 37090 71020
11252 37090 24984
29222 37090 56307
8147 37090 30220
47336 37090 69450
156 37090 25516
3910 37090 7518
26364 37090 69922
3926 37090 27731
11899 37090 45122
14890 37090 61013
18379 37090 70073
4218 37090 12589
22688 37090 67744
38435 37090 62036
7700 37090 22123
14069 37090 70473
3908 37090 61875
14633 37090 66252
1618 37090 56385
542 37090 33585
17855 37090 47267
13427 37090 72348
4086 37090 53032
2023 37090 71701
924 37090 54387
10892 37090 55527
22648 37090 63219
5904 37090 71141
20241 37090 50329
32196 37090 68163
43147 37090 66282
20225 37090 45818
48956 37090 72158
33126 37090 65002
10214 37090 24296
10547 37090 56978
10404 37090 15790
23264 37090 46316
16681 37090 72074
18610 37090 73064
32953 37090 72414
5070 37090 55033
31614 37090 70932
9635 37090 52609
29207 37090 70320
15002 37090 50252
15827 37090 52274
18541 37090 27169
22148 37090 44719
9244 37090 27853
5829 37090 20126
9726 37090 27380
19574 37090 31208
8473 37090 67336
18113 37090 66603
25339 37090 39565
774 37090 48392
11200 37090 41689
34173 37090 49641
34882 37090 52599
31354 37090 60464
20948 37090 74898
11300 37090 72861
1454 37090 29403
8512 37090 61584
30621 37090 60293
23503 37090 38231
5256 37090 10402
2146 37090 18061
2711 37090 26774
14375 37090 24969
19525 37090 66964
12903 37090 75049
2901 37090 31030
23738 37090 66411
7112 37090 28454
658 37090 62750
19162 37090 29050
8554 37090 42566
15905 37090 36628
24665 37090 52422
5094 37090 19504
3439 37090 36544
13803 37090 44723
5062 37090 28540
45357 37090 64111
2789 37090 29251
22422 37090 56454
7968 37090 13498
20973 37090 70154
21293 37090 41764
30667 37090 48613
6832 37090 74556
1538 37090 25194
9210 37090 69093
36204 37090 69876
27180 37090 59648
9208 37090 40255
27326 37090 45819
9007 37090 54247
18067 37090 48114
23345 37090 36222
27182 37090 38527
7608 37090 57180
25328 37090 63018
4902 37090 41740
44144 18894 6053
23961 16785 6053
50711 18902 6053
20892 12038 6053
50955 13549 6053
36691 13708 6053
35609 18556 6053
30796 12168 6053
52896 22079 6053
25621 11754 6053
39218 17235 6053
50572 12787 6053
40610 24919 6053
51529 15692 6053
39936 14533 6053
52283 17522 6053
38833 14302 6053
41336 22156 6053
52315 24542 6053
25214 18834 6053
47642 18837 6053
5203 10374 6053
12097 10112 6053
37468 21110 6053
45283 26355 6053
39676 21652 6053
51126 22821 6053
46527 16624 6053
31388 12812 6053
35240 20478 6053
51993 26028 6053
49660 18379 6053
26714 18254 6053
39068 21985 6053
19531 13921 6053
38132 23355 6053
47394 12644 6053
48575 15517 6053
27727 15312 6053
54218 19547 6053
37711 19988 6053
34203 13254 6053
8999 12302 6053
48486 22509 6053
51282 16985 6053
36583 20789 6053
31182 10310 6053
51228 26716 6053
52403 12942 6053
35891 11707 6053
18472 11512 6053
29722 17688 6053
38808 17678 6053
37775 22087 6053
37135 20277 6053
54236 16886 6053
33091 15146 6053
31120 15562 6053
19668 16655 6053
41723 12348 6053
34480 22844 6053
31817 15595 6053
36418 19721 6053
39947 15919 6053
35843 13834 6053
17825 11721 6053
35155 13369 6053
28321 16683 6053
43943 12453 6053
35951 16552 6053
50811 20012 6053
32272 20534 6053
49822 29899 6053
0 31273 69811
0 27568 73039
0 26599 74505
0 27128 75060
0 31484 70595
0 32511 72509
6355 6935 0
15516 11497 0
621 28345 0
38576 9989 0
20433 23351 0
24806 18942 0
33183 15702 0
248 11403 0
35642 13977 0
4283 6851 0
31677 14361 0
34175 9854 0
42885 9280 0
23145 18787 0
19488 11405 0
26093 15453 0
39548 5701 0
1560 6197 0
4481 30978 0
16903 12054 0
9114 8539 0
33966 13357 0
3777 26703 0
11780 20567 0
28840 14782 0
40670 8620 0
1152 26696 0
22490 17994 0
14751 10099 0
11768 19141 0
51697 6430 0
15774 7663 0
16544 15533 0
19625 8767 0
22339 12381 0
19382 20114 0
28552 8230 0
5739 7696 0
1536 35361 0
47176 6800 0
30331 12626 0
2609 5365 0
3001 11853 0
16594 26539 0
1460 21288 0
52654 5832 0
37453 9808 0
5443 19225 0
16192 17161 0
29098 19318 0
21878 8882 0
39327 7810 0
46632 0 47043
28713 0 66710
38965 0 32350
45064 0 43446
17172 0 59051
32027 0 54495
11213 0 64430
43651 0 50536
13337 0 60865
46984 0 61341
37664 0 51489
37271 0 59133
28219 0 44972
27892 0 48947
39749 0 39055
12530 0 65970
47049 0 64823
20514 0 51181
33236 0 49933
39498 0 28349
25996 0 45475
38692 0 60336
39320 0 24177
31050 0 48549
43031 0 30497
37844 0 41064
33786 0 64456
29912 0 67156
19580 0 50529
46899 0 16789
23604 0 62697
28788 0 61543
44918 0 40559
20329 0 53281
41053 0 41439
29858 0 57721
46762 0 59545
33795 0 38644
46779 0 56292
46323 0 61194
21386 0 51318
44234 0 53951
43072 0 16361
22679 0 50903
45832 0 12122
27431 0 62020
31326 0 52416
43082 0 58902
37356 0 46316
14236 0 62418
42871 0 49232
46902 0 53757
44817 0 67071
26792 0 53400
38662 0 37049
23844 0 47866
33977 0 65820
30383 0 61348
34834 0 49440
33266 0 48229
38157 0 65125
33967 0 36787
27720 0 51581
31003 0 45994
38404 0 38325
43705 0 48661
45399 0 60314
42842 0 48614
46626 0 52406
42000 0 66348
13161 0 58974
30184 0 39380
22650 0 65703
44570 0 36020
4694 32065 27671
23489 32065 8621
18745 32065 9970
2977 32065 62746
19471 32065 11068
21843 32065 12807
3938 32065 8105
10802 32065 22423
3696 32065 46553
4290 32065 11708
37385 32065 24437
13923 32065 42723
7803 32065 54798
8450 32065 6938
8872 32065 50382
17338 32065 33486
44593 32065 12241
44089 32065 17310
6701 32065 11200
15681 32065 16776
39511 32065 14344
22524 32065 8891
29325 32065 13365
21825 32065 25529
16375 32065 6459
6017 32065 40396
4410 32065 60045
53 32065 28989
32175 32065 16119
12105 32065 47544
28341 32065 28116
41316 32065 12921
1294 32065 61629
4143 32065 57091
17606 32065 18896
8584 32065 36888
2349 32065 66447
3194 32065 38613
44931 32065 13405
6403 32065 61395
38478 32065 17975
22101 32065 23125
16639 32065 23994
27213 32065 36586
3844 32065 10805
3622 32065 60297
26430 32065 21030
24261 32065 25498
15605 32065 48440
11822 32065 37826
1752 32065 63712
4556 32065 61230
26033 32065 38987
24087 32065 34493
29864 32065 28607
13685 32065 14819
26306 32065 26615
30145 32065 7183
17031 32065 13781
34510 32065 21876
3651 32065 19241
32330 32065 31345
33194 32065 9431
26999 32065 6537
1654 32065 32558
3766 32065 49498
5504 32065 56915
4371 32065 21352
4168 32065 16846
7588 32065 51191
7091 32065 29203
12129 32065 30107
22268 32065 30045
718 32065 12909
47022 32065 9856
3016 32065 26644
6693 32065 38388
20983 32065 43732
11053 32065 37279
33298 32065 19842
20288 32065 18892
11910 32065 24666
7610 32065 42472
17868 32065 24777
4912 32065 48390
10731 32065 20559
14108 32065 27503
15528 32065 32586
4813 32065 56702
3164 32065 43066
1318 32065 16539
20212 32065 31933
13298 32065 43095
3603 32065 26146
10116 32065 44937
3916 32065 18102
40126 32065 13795
13612 32065 25681
35366 32065 16381
23078 32065 38499
15860 32065 36478
3364 32065 18355
0 34380 33609
0 34369 14540
0 33778 24941
0 34806 32514
0 35942 47684
0 33028 7273
0 36413 42775
0 36307 23351
0 35157 41510
0 36971 48713
0 35515 28617
0 36619 31823
18747 3153 7668
20864 1029 7668
26584 45 7668
11910 2543 7668
24338 259 7668
20076 597 7668
9703 4780 7668
4587 5280 27372
2570 5280 36806
669 5280 13125
3422 5280 7060
703 5280 29237
2906 5280 25202
283 5280 7170
44 5280 15558
2299 5280 47608
1609 5280 13397
2801 5280 4413
5813 5280 10343
855 5280 47585
2068 5280 7071
1063 5280 7084
6547 3137 67492
6547 200 67242
6547 5130 21598
6547 5027 27724
6547 3025 45327
6547 3970 39648
6547 4734 57344
6547 3825 48389
6547 3727 66741
6547 4569 33746
49625 5280 71796
36733 5280 73994
24171 5280 74575
13578 5280 75197
50759 5280 73312
40403 5280 69276
36390 5280 74517
27995 5280 74055
42473 5280 75006
37570 5280 71601
29764 5280 74605
6547 1421 53739
6547 3802 35389
6547 4404 43075
6547 4880 41301
6547 4314 22355
6547 5132 30045
6547 5177 67924
6547 3811 42261
6547 4993 23266
51998 26413 69286
34556 24361 69286
32225 19584 69286
48883 31985 69286
40444 30030 69286
35984 18263 69286
32035 24683 69286
32818 31959 69286
39524 17136 69286
49558 28710 69286
24320 30054 69286
10028 28376 69286
28055 21137 69286
50786 31147 69286
25934 23225 69286
29068 20659 69286
28921 30861 69286
34969 25205 69286
44887 16746 69286
39004 25582 69286
13828 28403 69286
12338 30861 69286
27064 25263 69286
46162 24137 69286
23664 28063 69286
32587 23707 69286
28976 27073 69286
54164 29457 69286
26767 30777 69286
7064 32014 69286
50676 14467 69286
36249 23814 69286
48101 14121 69286
48434 19784 69286
40546 22728 69286
33899 32065 61207
50119 32065 58011
22200 32065 51771
53522 32065 55999
29037 32065 43110
54104 32065 7075
44865 32065 38364
34760 32065 35649
41739 32065 54909
19137 32065 61870
34081 32065 37353
36172 32065 46021
28761 32065 50945
41184 32065 36778
35989 32065 35833
29900 32065 59187
50593 32065 37287
25365 32065 43909
46942 32065 30111
31577 32065 63261
33603 32065 47158
25524 32065 64284
40119 32065 35002
47225 32065 36195
43251 32065 22531
23578 32065 55870
44369 32065 61256
48255 32065 29643
42409 32065 26094
23899 32065 51117
19906 32065 65760
44961 32065 40580
38394 32065 57279
38590 32065 46238
52497 32065 52595
11428 32065 64593
46944 32065 55836
48801 32065 32100
22106 32065 64202
44505 32065 25777
44631 32065 26341
13570 32065 57561
51713 32065 17579
20055 32065 63978
48908 32065 63867
28730 32065 42273
52279 32065 63404
29400 32065 67125
38787 32065 38095
27106 32065 61666
33939 32065 42551
33102 32065 48888
16841 32065 55089
24218 32065 60485
14224 32065 65464
32621 32065 41711
35796 32065 39211
28221 32065 50612
16312 32065 51795
28009 32065 44611
19331 32065 50290
9864 32065 67953
27989 32065 58557
24924 32065 55627
9151 32065 66245
46001 32065 43539
50279 32065 19802
43880 32065 52699
19974 32065 50759
36458 32065 65299
52268 32065 24493
47609 32065 23727
32703 32065 43478
26320 32065 63025
50653 32065 13587
54437 32065 42669
37083 32065 44945
44978 32065 27226
46165 32065 31793
31799 32065 35449
26077 32065 57857
14062 32065 66526
36292 32065 55562
37331 32065 55882
44532 32065 35913
51226 32065 42589
49012 32065 41625
28268 32065 57311
17375 32065 52983
46378 32065 65937
53885 32065 40953
52750 32065 61895
25387 32065 56841
45470 32065 30764
24535 32065 51184
18255 32065 62070
34165 32065 65459
40401 32065 38140
49521 32065 16135
17012 32065 55918
24268 32065 63683
6547 3175 15452
6547 2472 13293
6547 1795 26651
6547 880 16842
6547 2420 26182
6547 2324 25093
6547 18 57448
6547 1010 30943
6547 191 25473
1222 5280 57165
2173 5280 22543
1452 5280 32846
2671 5280 5880
3362 5280 34346
803 5280 21646
4718 5280 17949
1886 5280 50182
2881 5280 18571
845 5280 48233
2 5280 45192
244 5280 21627
2898 5280 33573
136 5280 36771
54476 15115 4388
54476 18856 3452
54476 9419 1180
54476 16639 4448
38120 28822 6053
40318 26607 6053
24890 24773 6053
9281 13604 6053
11030 19693 6053
7466 22454 6053
20915 19716 6053
18141 27291 6053
34711 26502 6053
15485 28576 6053
34232 31646 6053
11652 19236 6053
19581 24643 6053
13881 16431 6053
13326 29192 6053
32280 28088 6053
19290 25738 6053
5341 27919 6053
6294 25755 6053
3169 30427 6053
45706 29886 6053
33138 30530 6053
8019 20295 6053
25003 25690 6053
18821 18542 6053
26930 23807 6053
38578 29334 6053
12069 22869 6053
6845 13226 6053
6725 31527 6053
39263 30468 6053
25354 23178 6053
24673 27565 6053
32078 31886 6053
22880 21300 6053
25484 20795 6053
17829 22567 6053
0 33904 70525
0 35672 67385
0 33664 69793
0 35159 64877
0 34231 51891
0 33046 68561
0 33786 66841
0 35164 71032
0 36090 61935
0 37010 14461
0 34908 43057
0 36527 9341
0 35399 23091
0 36561 47115
0 35264 23734
0 35767 38220
0 36559 44177
0 36771 56409
0 35240 19921
0 35640 51619
0 35169 38814
11901 23646 69286
5654 19073 69286
1812 29367 69286
8326 18966 69286
6962 23440 69286
2022 13454 69286
13698 11833 69286
5403 16527 69286
7107 18459 69286
12125 16403 69286
7701 25697 69286
34138 12788 69286
3678 20660 69286
14117 23008 69286
15227 23606 69286
563 13095 69286
4949 28775 69286
24605 13329 69286
11186 25829 69286
7056 14717 69286
9398 14128 69286
16061 11242 69286
5883 24804 69286
18374 17134 69286
34005 13381 69286
38143 14963 69286
28229 16417 69286
25513 21031 69286
23367 13424 69286
26094 17078 69286
18639 10042 69286
5977 22084 69286
38276 12285 69286
19670 37090 40316
25629 37090 70526
5228 37090 75035
16296 37090 43395
20344 37090 51719
2671 37090 37231
40037 37090 73318
1162 37090 4320
1113 37090 16498
22515 37090 61158
18877 37090 65051
1736 37090 15428
37468 37090 66659
33292 37090 63410
23952 37090 69052
6439 37090 48409
20490 37090 63464
5374 37090 16570
16619 37090 74691
5771 37090 52259
17690 37090 33075
38268 37090 66160
3359 37090 6839
2666 37090 13475
23791 37090 44277
23019 37090 48719
21398 37090 48297
7198 37090 25299
2194 37090 55569
11444 37090 60944
11296 37090 51287
45182 37090 64789
5864 37090 21024
40262 37090 69409
36559 37090 71224
3953 37090 67727
22473 37090 50364
10617 37090 20144
11857 37090 26971
34687 37090 70557
266 37090 23384
35327 37090 60961
14988 37090 46128
31284 37090 71664
32349 37090 60626
5483 37090 44041
34348 37090 72958
810 37090 70761
6977 37090 61455
11178 37090 44658
12770 37090 21296
17278 37090 54244
508 37090 51446
9065 37090 16437
21661 37090 71141
33531 37090 56118
29521 37090 46272
30559 37090 51716
17069 37090 69225
5704 37090 9649
296 37090 47026
38423 37090 64041
30814 37090 54264
32914 37090 75164
19209 37090 44259
46828 37090 64928
31778 37090 63528
19479 37090 41079
25553 37090 41726
39901 37090 68457
1486 37090 43716
8238 37090 55036
12547 37090 20595
2379 37090 6690
5377 37090 50533
26244 37090 49816
25645 37090 46355
16800 37090 38093
25165 37090 36229
24396 37090 48375
24027 37090 67544
13928 37090 38823
8246 37090 74330
4488 37090 43246
17422 37090 45084
36456 37090 52313
23236 37090 41150
3778 37090 15227
6423 37090 60435
25543 37090 40442
31376 37090 47513
23273 37090 65348
6564 37090 45296
22523 37090 47185
25199 37090 47952
22067 37090 35644
20989 37090 50717
8572 37090 22414
6259 37090 57322
4374 37090 61150
8356 37090 17424
7253 37090 29976
3478 37090 31701
4887 37090 11809
17791 37090 43539
12182 37090 39324
17251 37090 50191
3146 37090 41881
43777 37090 64652
2299 37090 22603
4480 37090 37913
15108 37090 46908
15567 37090 67581
13935 37090 57604
14547 37090 62259
11046 37090 69062
17299 37090 62541
14627 37090 45250
0 6193 15995
0 5667 60425
0 5499 55976
0 6620 15238
0 8166 14110
0 6658 20920
0 5727 22787
0 5335 41380
0 6808 49585
0 7867 33283
54476 17760 72870
54476 6875 74687
54476 15423 73931
54476 26789 73178
54476 27573 73872
54476 17152 71553
7518 5280 1100
33220 5280 3475
48387 5280 1564
38286 5280 3800
21606 5280 388
44363 5280 1799
37309 5280 4679
33202 5280 2575
31036 5280 1129
33259 5280 1975
30760 5280 2920
39952 5280 5575
45885 5280 6601
54476 25904 69548
54476 30720 73396
54476 17723 70898
54476 29042 70437
54476 9066 71011
54476 21527 74567
54476 12702 70260
54476 21258 72207
54476 28272 73301
16551 21731 0
14192 9422 0
8710 9627 0
1100 27696 0
1007 33603 0
11444 24562 0
13986 16988 0
18980 22849 0
4986 8217 0
18776 19711 0
17804 13462 0
3439 25013 0
11008 18126 0
23172 15210 0
281 24417 0
32855 6704 0
5499 9295 0
27648 12534 0
49780 6943 0
16214 9798 0
17900 17064 0
132 5484 0
8818 7920 0
10500 8625 0
16202 25226 0
30092 10323 0
28290 10993 0
14324 15996 0
33969 7538 0
33573 8220 0
32046 16839 0
26806 15254 0
14983 21521 0
2370 8223 0
9843 7530 0
37818 14737 0
7376 30088 0
27593 16020 0
11904 28184 0
45340 10397 0
13360 26673 0
14025 20172 0
30069 17071 0
25593 13368 0
5281 26782 0
53596 5669 0
4419 32203 0
28849 12431 0
8695 21995 0
28626 3895 7668
43673 525 7668
39004 2935 7668
43200 2585 7668
35480 2473 7668
36368 2750 7668
54476 7388 129
54476 24135 3693
54476 14608 450
54476 29921 4207
54476 34173 1813
54476 22767 2723
54476 13271 69982
54476 25109 71102
54476 30678 71316
54476 34775 74380
4784 5280 61544
6144 5280 61529
4087 5280 64507
1056 5280 67455
4028 5280 43230
2476 5280 71807
4354 5280 40011
1846 5280 64714
4986 5280 45702
2202 5280 67046
5746 5280 67930
1699 5280 59329
47630 851 8916
47630 4166 42854
47630 4855 32821
47630 2862 29989
47630 5102 64986
47630 4954 10291
47630 4329 29169
47630 5110 40140
49465 33902 75210
54119 35385 75210
47110 24703 75210
49264 10672 75210
36758 15610 75210
26757 15138 75210
11870 6942 75210
26300 7480 75210
19012 13681 75210
20078 8783 75210
39189 8945 75210
43939 8118 75210
32418 17169 75210
10601 5339 75210
24203 18282 75210
51235 21220 75210
34199 7538 75210
30364 13776 75210
39634 16442 75210
9539 7684 75210
39871 7734 75210
16283 13442 75210
37617 22435 75210
32779 10798 75210
48050 25472 75210
44705 20369 75210
54346 9483 75210
43867 9183 75210
26499 8377 75210
51180 9378 75210
31253 15922 75210
45002 27156 75210
50503 21205 75210
29558 19598 75210
43434 27045 75210
36325 8423 75210
30080 19167 75210
39582 22589 75210
41257 19354 75210
20813 5347 75210
47220 7475 75210
52825 28543 75210
48842 10183 75210
14313 7966 75210
45169 7715 75210
48603 29433 75210
31255 10255 75210
51688 28809 75210
44879 16081 75210
17202 14990 75210
49115 33359 75210
48226 16480 75210
32043 26146 6053
27385 29206 6053
11880 17630 6053
31554 26565 6053
50660 31848 6053
15989 24362 6053
4238 27663 6053
38002 29401 6053
8431 26763 6053
10241 30329 6053
264 18071 6053
5979 29032 6053
27921 27827 6053
4729 31573 6053
10808 15392 6053
29464 26479 6053
17570 18663 6053
264 12268 6053
24766 23882 6053
1887 22786 6053
10392 29576 6053
4068 14043 6053
23523 23295 6053
25057 31287 6053
23571 20038 6053
39791 29658 6053
22779 26679 6053
30556 24514 6053
10529 22139 6053
8320 14134 6053
8470 30365 6053
7850 28081 6053
14258 21444 6053
14150 17256 6053
19787 19483 6053
54476 35379 1515
54476 25819 188
54476 31438 4469
54476 14519 1198
54476 34718 1916
47630 869 25192
47630 1404 57680
47630 2199 33714
47630 2449 59393
47630 659 15887
47630 483 16951
47630 959 41672
47630 3006 57141
47630 426 48163
47630 2295 64928
22979 0 21700
35774 0 7789
25518 0 24338
19160 0 26409
11679 0 20908
33881 0 10790
13969 0 50853
20802 0 25395
30368 0 30840
27120 0 33251
25137 0 29157
19843 0 37766
7979 0 41434
23210 0 27642
8248 0 20242
18778 0 31851
22078 0 38355
10187 0 33761
10403 0 14309
16973 0 13531
15775 0 43283
26579 0 38010
6550 0 60250
12060 0 24227
20526 0 9784
17145 0 9964
28104 0 15133
13992 0 47887
16025 0 19671
23257 0 28556
21286 0 13870
14192 0 42444
12391 0 58651
8786 0 38202
13986 0 20544
31949 0 26479
6811 0 53930
23030 0 25088
26724 0 22634
8998 0 26677
24573 0 27231
13178 0 27308
14263 0 29065
11360 0 20304
19994 0 41857
17149 0 50154
23076 0 8586
16378 0 35649
20373 0 16861
32060 0 27196
13847 0 18739
24312 0 21049
40157 0 17594
18750 0 40491
16683 0 45669
20885 0 23479
31115 0 8450
33665 0 24590
33005 0 15983
14960 0 8734
12292 0 21354
21123 0 9990
29747 0 24127
22538 0 31007
22326 0 30038
8504 0 63214
32761 0 26053
6893 0 14494
9402 0 11696
24648 0 8481
15655 0 40676
11492 0 39625
45445 0 10190
33938 0 19292
23701 0 24258
39907 0 9271
0 36569 141
0 28736 5840
0 24060 5818
0 29998 4838
54476 33312 56358
54476 34960 59723
54476 32651 33158
54476 34433 67700
54476 32427 60936
54476 34541 65806
54476 32252 25573
54476 34908 53906
54476 33784 42408
54476 32081 50412
10105 5280 3862
20102 5280 5926
19163 5280 4046
24259 5280 4296
18393 5280 7423
5226 5280 2026
35282 5280 6116
30941 5280 6358
5399 5280 3321
16746 5280 6468
54476 6383 48475
54476 8095 16663
54476 7658 31778
54476 5667 28398
54476 8309 21839
54476 7749 25929
54476 9103 12803
54476 5947 10652
13209 0 25270
13021 0 55178
28670 0 25565
27586 0 35508
25147 0 38285
9963 0 18871
12907 0 27910
12476 0 32761
22944 0 30479
10406 0 24227
24285 0 35885
39287 0 14594
9100 0 46043
22912 0 40649
31620 0 19167
23555 0 22577
11863 0 23286
7493 0 10373
25500 0 28471
10385 0 59806
15285 0 24356
14500 0 15939
21603 0 42257
35321 0 11939
19103 0 48685
16570 0 17850
20192 0 47879
27058 0 21792
31571 0 11167
16167 0 34118
10188 0 30164
9672 0 50260
24826 0 29823
21092 0 44879
37129 0 14727
15069 0 12430
32870 0 24628
7810 0 27926
11563 0 38848
8827 0 13506
12109 0 30409
12848 0 22150
32904 0 9058
11045 0 47898
43898 0 9026
29339 0 32415
19987 0 30970
14003 0 49173
14224 0 31673
16832 0 41037
9480 0 32551
6628 0 14011
16043 0 24776
23670 0 26907
36423 0 23313
22574 0 39133
18083 0 39781
8613 0 17445
10334 0 39647
24263 0 23337
35281 0 19328
7583 0 54984
11100 0 28118
18879 0 49430
7830 0 17893
30637 0 14945
19624 0 34403
22964 0 13298
7840 5280 5604
14600 5280 6428
13580 5280 5296
28668 5280 5500
9646 5280 1871
9130 5280 6330
15437 5280 7281
6082 5280 4430
5063 5280 3760
51976 5280 17905
47849 5280 38634
49061 5280 22258
51918 5280 24522
49943 5280 32604
50720 5280 6085
49464 5280 27858
49947 5280 17591
53021 5280 2555
47630 584 29795
47630 1004 54791
47630 2409 66912
47630 1453 34408
47630 3202 64466
47630 157 26066
47630 2330 40213
47630 2851 44253
47630 170 13560
27740 32065 38602
33426 32065 36827
10118 32065 58454
23042 32065 49923
40627 32065 64696
14915 32065 54952
36302 32065 37422
53325 32065 49437
21367 32065 53396
31121 32065 64227
52475 32065 20206
39406 32065 27610
41673 32065 53788
54243 32065 55066
42525 32065 38798
43473 32065 68683
51085 32065 10111
31078 32065 50741
52491 32065 49125
39956 32065 64507
30294 32065 52773
35129 32065 43534
49104 32065 22565
26239 32065 66670
42691 32065 59580
6902 32065 62960
47637 32065 63797
40335 32065 68030
53672 32065 25115
8296 32065 62994
50397 32065 31505
50768 32065 21721
40538 32065 39620
38014 32065 27489
20242 32065 54340
36784 32065 27918
43553 32065 49122
21188 32065 46838
50071 32065 23892
29918 32065 66111
44212 32065 46266
28359 32065 67785
42252 32065 54465
46631 32065 65154
29138 32065 44043
51042 32065 66330
44745 32065 39166
35076 32065 34807
43302 32065 44351
28413 32065 61188
46472 32065 41382
51227 32065 67674
41864 32065 27702
24222 32065 43896
53798 32065 17216
51980 32065 27969
10280 32065 59688
39299 32065 62599
46308 32065 53158
54216 32065 29077
36183 32065 66175
39713 32065 52229
44186 32065 32077
44936 32065 42131
13967 32065 54980
8816 32065 67007
32183 32065 57623
30016 32065 42580
29222 32065 51663
37592 32065 29254
40364 32065 61947
48140 32065 47298
11611 32065 58958
33954 32065 64502
11590 32065 68976
52633 32065 35189
44816 32065 58958
54020 32065 20099
15183 32065 66134
40834 32065 52967
37521 32065 38092
51674 32065 16316
25222 32065 65147
6254 32065 62640
42823 32065 45243
36717 32065 54407
33847 32065 51551
40017 32065 54301
49729 32065 53200
47052 32065 59471
30420 32065 36622
51058 32065 39958
50943 32065 22547
14170 32065 59119
46023 32065 17973
50202 32065 32147
43091 32065 65574
51977 32065 45063
46815 32065 22892
0 32540 30766
0 34853 52191
0 35645 65630
0 34183 37384
0 34107 66400
0 33459 32629
0 33329 24054
0 33492 48131
0 34460 58379
54476 36463 24232
54476 37022 67283
54476 35265 34236
54476 37035 24035
54476 35743 20250
54476 34722 34053
54476 35218 22605
54476 36377 48599
54476 36871 47832
54476 35423 43786
54476 35247 15153
54476 35630 32375
54476 8790 21386
54476 8115 65429
54476 6522 67387
54476 6837 66518
54476 9644 13656
54476 9222 35069
54476 8687 40771
54476 9002 48616
25641 5280 70622
16669 5280 68365
17076 5280 70381
22649 5280 69656
6198 5280 72341
10109 5280 71406
29589 5280 70399
20502 5280 69637
50640 5280 44413
53366 5280 12330
53114 5280 21144
53846 5280 30839
50360 5280 42335
53201 5280 30453
54393 5280 63503
51347 5280 37479
53970 5280 39488
51308 5280 51789
48813 5280 60890
51536 5280 63899
53581 5280 36792
53533 5280 38653
51124 5280 45018
54338 5280 37041
42010 708 68197
38594 3544 68197
10626 285 68197
17909 535 68197
45880 4597 68197
0 33659 3218
0 19042 5175
0 31922 4253
0 29119 2323
52304 5280 64358
49445 5280 56482
52167 5280 65794
51406 5280 48373
50082 5280 61429
51612 5280 50460
53838 5280 21580
51792 5280 38743
54139 5280 23973
48961 5280 67525
53344 5280 25947
53433 5280 50742
49434 5280 55464
51748 5280 43565
47630 2439 24800
47630 2934 9346
47630 4415 47759
47630 3835 18017
47630 2014 23491
47630 1038 12335
47630 937 13044
47630 4179 20638
47630 4370 37377
47630 4097 44409
17824 2695 68197
28528 4735 68197
17984 4407 68197
37998 5207 68197
23436 3050 68197
29269 4929 68197
10758 3357 68197
47097 3960 7668
39783 4912 7668
15641 4284 7668
24639 3180 7668
18075 4662 7668
36254 4579 7668
45577 3699 7668
0 26582 69498
0 10225 70943
0 6405 74644
0 15575 72300
34279 37090 14853
31177 37090 35790
45254 37090 9497
33028 37090 12991
28714 37090 30546
48476 37090 37654
30032 37090 24456
51586 37090 19474
54465 37090 44362
46444 37090 37320
34260 37090 46158
34188 37090 21896
49948 37090 34198
47067 37090 19484
35399 37090 40153
13073 37090 14219
40736 37090 45449
52470 37090 59276
51810 37090 22605
31226 37090 2375
43666 37090 17989
47471 37090 63982
21738 37090 8920
38879 37090 7875
28732 37090 34620
51352 37090 34543
53983 37090 19879
28489 37090 18170
29968 37090 26680
5467 37090 2669
14579 37090 18827
17345 37090 19088
15083 37090 17959
35876 37090 21948
47288 37090 58245
26664 37090 17108
48131 37090 9220
49416 37090 9823
52456 37090 17750
50897 37090 32454
22476 37090 29199
36552 37090 34947
39045 37090 29293
13710 37090 14648
48352 37090 61946
52018 37090 63677
48627 37090 63959
53228 37090 72805
46827 37090 26627
45969 37090 36406
14696 37090 14907
20527 37090 23134
35174 37090 8338
11547 37090 15395
19905 37090 21070
52016 37090 60256
26344 37090 8014
32644 37090 12544
48007 37090 45870
33909 37090 44861
24554 37090 14106
43738 37090 2044
49149 37090 41092
51978 37090 66559
43122 37090 59024
41262 37090 14848
53064 37090 31544
32467 37090 37482
40265 37090 42086
32914 37090 29866
30420 37090 1717
24544 37090 21793
37733 37090 11319
49706 37090 21431
51728 37090 35071
41232 37090 30602
48077 37090 44803
9707 37090 2037
52733 37090 66477
35213 37090 2944
49134 37090 24266
15742 37090 4472
19123 37090 2637
31908 37090 24430
43590 37090 42331
43580 37090 38265
48052 37090 7484
42553 37090 54153
30362 37090 22912
17632 37090 11814
39624 37090 50491
42760 37090 13673
29741 37090 19349
33703 37090 41299
30335 37090 5517
34234 37090 39474
25748 37090 9718
27991 37090 28403
30170 37090 7414
14653 37090 12417
14480 37090 1646
5843 37090 809
53467 37090 8611
53655 37090 68191
52400 37090 43426
40250 37090 17083
26926 37090 36288
48728 37090 48340
34434 37090 25211
54353 37090 42042
52282 37090 67767
41007 37090 19583
49576 37090 50983
43079 37090 44853
35374 37090 39356
41977 37090 9951
14303 33599 0
30105 25782 0
50417 27180 0
34906 31458 0
29478 36812 0
23423 34484 0
45331 18678 0
34656 35365 0
51499 16929 0
18660 31605 0
15745 35006 0
30576 27775 0
50760 23028 0
22664 36293 0
51901 14888 0
32614 28567 0
42562 13032 0
42794 23213 0
37264 31588 0
41421 16038 0
19153 35249 0
43253 35909 0
32763 27808 0
51965 18957 0
8658 35112 0
40492 20405 0
28979 29278 0
38602 32184 0
46849 28081 0
21715 32323 0
45093 20766 0
49709 29936 0
27769 36029 0
42870 35068 0
42094 21335 0
35448 22426 0
41695 27345 0
49906 25530 0
52491 13920 0
33364 18648 0
47894 19154 0
51962 31435 0
53484 10124 0
28079 21946 0
40804 13888 0
39179 34651 0
51876 35061 0
38808 29908 0
50993 16641 0
33802 20225 0
24753 28903 0
24268 30387 0
51376 29622 0
54476 25953 5890
54476 10291 1623
54476 11391 3517
54476 15176 2589
33163 17844 75210
50625 33151 75210
21242 12533 75210
44826 9537 75210
32219 21978 75210
41310 27205 75210
38072 18017 75210
12026 8341 75210
34649 16066 75210
39665 25537 75210
34466 13132 75210
51077 34379 75210
30300 10346 75210
46738 18010 75210
16417 8882 75210
29179 17205 75210
21355 17748 75210
34090 22533 75210
35573 21260 75210
40594 20687 75210
37826 23692 75210
52793 17987 75210
37236 13320 75210
51952 22213 75210
40699 14010 75210
30487 20725 75210
52334 8458 75210
28101 16866 75210
53814 14289 75210
51417 6255 75210
38290 5435 75210
34678 9171 75210
28077 17579 75210
20658 13518 75210
54262 25060 75210
37412 19060 75210
41665 8314 75210
42985 14395 75210
51557 10030 75210
38492 26794 75210
50346 29647 75210
44818 23214 75210
9309 8279 75210
52876 35622 75210
22851 18446 75210
48034 29187 75210
46769 8262 75210
50899 7613 75210
35789 25311 75210
0 28338 1574
0 18144 1
0 25318 172
0 12690 2051
0 26418 1481
0 18387 1248
0 7826 63342
0 9681 31137
0 6268 65116
0 9010 58369
0 6480 62699
0 8487 69584
0 9307 14955
0 8868 30980
0 9536 57386
14138 15098 75210
12940 19534 75210
37684 33744 75210
8979 16559 75210
19018 26253 75210
34673 33203 75210
9550 34340 75210
43180 33536 75210
13162 23436 75210
2378 13035 75210
19056 24791 75210
15467 35118 75210
9096 12993 75210
27467 24381 75210
31293 30835 75210
32848 31701 75210
23361 19032 75210
51325 36456 75210
46765 32969 75210
41124 35579 75210
30655 28706 75210
1244 13068 75210
27054 35366 75210
13355 30068 75210
45703 36415 75210
918 18960 75210
3414 21859 75210
7260 30335 75210
25190 20952 75210
5908 11046 75210
789 25617 75210
22562 21366 75210
13836 32889 75210
4836 22371 75210
29778 24307 75210
40447 31177 75210
39588 28973 75210
11779 28128 75210
19619 34014 75210
30152 25482 75210
34704 28791 75210
27343 22149 75210
9433 31838 75210
20125 36148 75210
12220 12618 75210
5623 15645 75210
39336 33112 75210
17418 36259 0
46752 13761 0
34003 26009 0
54009 12749 0
50325 31244 0
23351 35884 0
28188 23338 0
45120 15127 0
34122 31861 0
25523 32969 0
27838 29152 0
49115 19753 0
44070 20225 0
32782 18806 0
22453 34398 0
39206 19231 0
23454 26774 0
48534 28296 0
41278 35090 0
53415 18949 0
52414 25664 0
22092 28749 0
35876 26698 0
34129 36561 0
50898 7534 0
39168 15079 0
22775 27928 0
48279 13281 0
26098 34149 0
44496 25005 0
39429 28889 0
46924 25952 0
46122 33287 0
47605 20987 0
39513 32470 0
53362 28036 0
53089 29271 0
46155 26532 0
19505 29322 0
43125 28006 0
49994 23813 0
52574 28520 0
9772 35600 0
16079 34415 0
12823 30051 0
44691 32851 0
12772 32576 0
52289 20820 0
36375 19844 0
52073 17855 0
33462 21877 0
21415 33674 0
34550 9786 14147
53683 9786 17489
39412 9786 38286
44446 9786 32573
50713 9786 61546
28863 9786 21795
25848 9786 19709
43794 9786 25568
50123 9786 41106
19424 9786 13734
26542 9786 8704
42401 9786 24856
25984 9786 14929
52869 9786 40531
42256 9786 9340
39771 9786 30303
52418 9786 56383
27959 9786 19394
45562 9786 56317
9049 9786 11810
41678 9786 47172
30926 9786 41186
21148 9786 10415
35060 9786 31904
31340 9786 30651
36580 9786 36600
7775 9786 10159
30545 9786 32740
53100 9786 36314
53936 9786 8653
44474 9786 6085
33568 9786 41628
40446 9786 13123
49579 9786 55921
38431 9786 24219
53137 9786 39880
13131 9786 8729
41918 9786 28386
51328 9786 28908
42588 9786 23982
29949 9786 20249
47505 9786 27598
49389 9786 39686
15473 9786 13515
28177 9786 25047
28433 9786 18471
39737 9786 28607
30019 9786 30969
37757 9786 39655
45278 9786 44810
52529 9786 32140
34097 9786 34832
22342 9786 30380
39979 9786 15657
26220 9786 27778
28600 9786 6669
40253 9786 10480
25371 9786 16956
43984 9786 45319
52233 9786 57747
31815 9786 39208
50010 9786 29723
12013 9786 12118
8108 9786 11034
43890 9786 48272
23207 9786 25509
37080 9786 14895
22164 9786 15230
49584 9786 18318
31351 9786 37785
47169 9786 43647
18627 9786 18940
31922 9786 20667
43153 9786 9775
49064 9786 43849
47035 9786 36440
54459 9786 48334
48372 9786 56605
52172 9786 44556
14449 9786 8052
51846 9786 50876
20015 9786 22972
42976 9786 40551
43875 9786 29309
52231 9786 9836
49780 9786 56672
1501 9786 6514
26799 9786 24329
44507 9786 16889
43655 9786 36910
50794 9786 47779
36477 9786 16418
41942 9786 20527
50145 9786 39975
11912 9786 18495
10161 9786 6508
39027 9786 14476
30043 9786 27607
23311 9786 19423
14585 9786 13634
22446 9786 23726
24479 9786 10652
54413 9786 52890
44044 9786 8974
52304 5280 15824
47807 5280 19327
48349 5280 57803
50826 5280 29657
48721 5280 23364
49026 5280 17629
51977 5280 19952
51277 5280 26187
49278 5280 8992
53741 5280 4862
49805 5280 38883
52675 5280 11091
0 9764 53873
0 8322 51347
0 9643 40629
0 9586 56101
0 8922 67215
0 9283 52004
0 6088 70654
0 8587 74674
0 29138 75173
0 19784 74189
0 25568 74746
0 23195 71773
0 18401 72712
7969 538 68197
15031 3742 68197
21977 4280 68197
13228 4246 68197
28026 2792 68197
