ply
format ascii 1.0
element vertex 2729
property float x
property float y
property float z
end_header
4465 39027 31168
4236 39027 37414
2604 39027 58204
3856 39027 44752
6518 39027 17706
1594 39027 59166
1181 39027 56223
2989 39027 43468
1495 39027 47486
2595 39027 38555
3684 39027 30585
747 39027 62567
3554 39027 52230
7596 39027 7479
1435 39027 70437
2918 39027 41633
5362 39027 31027
5700 39027 19564
219 22225 41937
36 33604 41937
675 36666 47937
9851 37976 48463
5958 172 41937
2819 1062 41937
15730 39466 4280
12646 39890 4280
16577 39337 4280
620 39027 1188
12750 41268 89010
11113 41178 89010
9431 41295 89010
675 39926 76504
675 40836 70059
675 40456 84713
675 40196 81831
675 39859 83545
8464 1804 41937
12896 2192 41937
10174 2054 41937
7154 32691 87298
4933 33510 87298
4428 31114 87298
7546 31824 87298
7490 27457 87298
3465 30888 87298
7706 39027 1598
9098 0 86450
9070 0 82194
10241 0 66950
10070 0 72092
10442 0 66399
9802 0 83037
675 41426 4803
675 39938 19451
675 39394 25124
675 39104 28958
675 39063 18146
0 27349 43394
0 207 44872
0 6750 42710
0 32682 42659
0 9169 42130
0 28 43664
0 8050 45997
0 6950 46049
0 19491 43243
0 5617 45751
0 4155 43187
0 11891 43968
0 1256 42402
0 27866 43318
11947 2126 47073
5763 1912 47073
3593 941 47073
11159 39027 89006
8446 14460 87433
8446 30014 87553
8446 19304 88054
8446 6479 87429
675 37863 3085
8768 39027 635
675 24824 43532
675 25750 42940
675 19365 43879
675 26805 43638
675 7320 42812
675 14320 43180
675 19653 44863
675 26254 42483
11653 39027 42971
14551 39027 30661
11518 39027 74891
13216 39027 37834
14280 39027 45246
15429 39027 12059
13651 39027 31237
11950 39027 27966
11930 39027 17863
13266 39027 19446
11124 39027 19176
12888 39027 50478
14216 39027 30262
14993 39027 10863
11096 39027 77881
17456 39027 3703
12896 39027 59255
15494 39027 20716
16306 39027 8485
16623 39027 17720
12679 39027 11462
10949 39027 79963
10641 39027 34951
10844 39027 63001
14853 39027 7834
10475 39027 10460
12729 39027 26934
13141 39027 20934
17450 39027 7466
12200 39027 53118
12358 39027 47019
13530 39027 40152
13799 39027 14938
12247 39027 38414
12641 39027 5701
11679 39027 48932
14416 39027 10220
12853 39027 10156
13491 39027 12749
15057 39027 35099
10623 39027 80677
13509 39027 11138
13599 39027 7489
13737 39027 27508
18277 9799 41937
18638 39027 68063
18857 39027 67553
8446 19220 1080
8446 16179 1136
8446 11423 1584
15373 39027 83
10725 40287 48463
16939 40064 48463
18918 40648 79586
18918 39612 73251
18918 39485 64458
18918 40054 70630
18918 40719 87111
18243 31650 1906
18243 37066 1808
8446 1811 20626
8446 1556 25799
8446 1284 36455
8446 1065 38961
8446 1830 14792
8446 850 32797
8446 1087 42265
18682 41466 77648
17613 41466 47163
17408 41466 32989
18603 41466 79020
14282 38565 40226
9619 39051 89010
4106 41466 85092
13631 41466 85217
8814 41466 85308
18918 39497 27904
18918 40007 16005
18918 39046 31984
18918 40042 15038
18918 39429 30137
18918 39243 22666
18918 39176 18001
4437 38873 84730
8914 0 46543
18243 27664 32410
18243 26896 15454
18243 28569 33238
18243 27468 33208
18243 28810 34820
18243 27958 41085
18243 27254 12903
9119 26831 22785
10394 26831 2513
9648 26831 34089
8668 26831 26260
8721 26831 3462
8831 26831 4284
8544 26831 57677
8722 26831 68415
10040 26831 7612
9010 26831 29837
8561 26831 55099
4148 37958 87298
764 35120 87298
4242 34932 87298
1018 29702 87298
5766 36014 87298
3325 34891 87298
1936 38455 87298
9457 35193 0
10218 23461 0
10248 21507 0
10292 11897 0
9907 14460 0
10336 24929 0
995 26831 40351
1287 26831 39250
11183 0 45723
12205 0 43039
12866 0 45493
9018 39027 11278
8496 39027 80990
9220 39027 36061
9674 39027 11785
9204 39027 15884
8910 39027 2057
9998 39027 14838
8659 39027 58146
8774 39027 61924
9105 39027 36579
10047 39027 9685
13954 29613 4280
10278 33629 4280
11147 32988 4280
16961 33283 4280
7148 30346 4280
3602 29388 4280
9770 32207 4280
17683 32826 4280
16917 29728 4280
5462 30121 4280
9914 2438 50122
8949 2438 49395
9124 2438 51259
10093 2438 62064
9386 2438 53871
18243 37921 36222
18243 38126 30042
18243 38237 35159
2032 0 45416
215 0 42822
2798 0 44734
18918 39816 31073
10472 24233 87760
10472 22200 87582
10472 18938 87363
10472 21730 87775
18243 35952 47322
0 40128 17903
0 39391 297
0 40589 14789
0 39119 33830
0 39400 22488
0 39323 5438
0 40590 10935
8446 918 5239
8446 1135 20669
8446 1524 9560
8446 566 8139
8446 1183 17086
8446 1587 3456
8446 501 11113
9420 2438 71726
9877 2438 79088
8538 2438 79274
9131 2438 71311
8708 2438 68230
10472 1864 84759
10472 1744 87212
10472 1640 82848
10472 12 52976
10472 494 82452
10472 847 64362
10472 33 86148
10472 1023 45975
5247 39027 36668
74 39027 53991
549 39027 53217
13490 28247 87298
18176 31900 87298
16818 36502 87298
11879 28761 87298
18102 34410 87298
18110 27782 87298
18243 37839 51800
18243 37857 73647
18243 38158 72235
9665 40519 40226
13825 41394 40226
10600 41381 40226
10472 30464 88192
10472 23628 87929
10472 27047 88130
10472 9273 87469
3 27249 41937
303 10150 41937
12724 39027 70143
15802 39027 72994
17457 39027 49414
15090 39027 46236
14654 39027 71838
15534 39027 60979
16197 39027 38622
16512 39027 61900
17383 39027 27136
14533 39027 77191
16861 39027 34321
11708 39027 86309
14424 39027 53591
14433 39027 48135
17441 39027 44853
17912 39027 20018
17834 39027 31197
18238 39027 63915
12828 39027 85115
10604 39027 85893
18109 39027 49459
18153 39027 80202
13322 39027 73400
13460 39027 63335
15912 39027 50745
12400 39027 86451
15885 39027 40686
15072 39027 82904
17191 39027 41493
16819 39027 51130
17868 39027 33019
18201 39027 71506
12473 39027 75487
16456 39027 82846
17555 39027 15733
13527 39027 59881
15525 39027 78794
16362 39027 30712
10968 39027 81955
17701 39027 67502
12710 39027 80144
15336 39027 42512
16400 39027 55789
829 41466 15459
1205 41466 26957
1041 41466 36625
1123 41466 22418
739 41466 23535
875 41466 30153
1577 41466 5575
1300 41466 59607
1155 41466 22951
18800 18687 47073
18592 2519 47073
18347 39027 65379
18339 39027 51713
675 40905 15447
675 41036 34653
675 40836 38284
675 40860 31452
675 40388 32464
675 41196 24652
9488 2876 87298
8740 18407 87298
8446 28639 88008
8446 17555 88880
8446 12215 88544
8446 33459 88279
5696 37202 84730
16664 30095 84730
14648 35191 84730
6977 35360 84730
12988 32842 84730
5645 35931 84730
14510 34002 84730
11137 33192 84730
16466 33479 84730
10369 33887 84730
17708 37834 40226
16892 37890 40226
2544 41466 78661
6066 41466 71374
5619 41466 68862
4216 41466 77993
9145 41466 83055
8629 41466 68571
2579 41466 80277
3844 41466 77334
2353 41466 70414
2360 41466 57690
1982 41466 81549
14489 41466 81504
4725 41466 80679
5341 41466 75530
2773 41466 71469
9569 41466 80511
14622 41466 82360
10730 41466 71637
9257 41466 77876
5854 41466 58562
1711 41466 51288
15951 41466 82372
8362 41466 65560
5471 41466 81865
12396 41466 81498
4939 41466 81838
4060 41466 65892
4373 41466 74361
2952 41466 75917
9036 41466 75196
5394 41466 66468
1760 41466 71665
9692 41466 69225
3259 41466 60517
6627 41466 83690
6658 41466 60824
13727 29270 77818
7646 29270 66662
8505 29270 72800
1552 29270 60859
10425 29270 78164
5519 29270 61593
2336 29270 75697
8869 29270 82409
12316 29270 79391
7103 29270 74577
8707 29270 71264
2547 29270 57550
9930 29270 83540
7505 29270 67666
4755 29270 68210
6111 29270 71086
2047 29270 68438
8118 29270 82906
10620 29270 80085
1279 29270 80711
6480 29270 69572
4259 29270 65327
2326 29270 63008
7299 29270 62731
12658 29270 74485
1208 29270 54446
3967 29270 80153
15763 29270 84017
799 29270 81807
6159 29270 65521
11701 29270 74833
3850 29270 80830
2555 29270 68125
6463 29270 74775
5740 29270 84647
10071 29270 69422
9503 29270 79982
1558 29270 60281
3048 29270 78045
3272 29270 71356
2105 29270 62236
4131 29270 62199
9255 2438 30071
9793 2438 36530
9777 2438 34297
8552 2438 25165
8648 2438 27286
9783 2438 41790
18243 37903 25569
18243 38991 39182
18243 37914 19490
9289 0 60453
8849 0 70030
9427 0 59870
8848 0 53879
8981 0 72913
5413 39027 34327
4199 39027 47357
18460 21245 47073
5368 35605 1712
7378 34470 1712
7073 30308 1712
3524 36430 1712
7837 33730 1712
6042 38866 1712
6534 38257 1712
9694 17729 87298
9628 14027 87298
8039 39581 89010
364 41466 5412
1477 41466 6747
1535 41466 50806
1431 41466 19179
998 41466 34620
1678 41466 60040
1166 41466 49153
1439 41466 53359
10472 24284 211
10472 37698 1088
10472 18045 438
10472 18695 251
10472 9216 261
18243 28004 63333
18243 27781 58657
18243 29223 59474
18243 29022 80192
18243 28779 61569
18243 28640 67862
18243 39510 5906
18243 41316 16760
18243 40963 30472
18243 41285 19160
18243 40951 17601
13589 39027 17661
15706 39027 15715
15027 39027 11519
15851 39027 8956
10758 39027 41885
12765 39027 35079
12127 39027 31349
14745 39027 12579
12226 39027 63912
13486 39027 25093
12301 39027 22960
13853 39027 8624
10963 39027 29959
11532 39027 18559
14004 39027 21288
12631 39027 41770
10634 39027 28790
14991 39027 16039
12482 39027 19875
12167 39027 20475
11419 39027 24664
11097 39027 37673
11630 39027 3010
13311 39027 46735
11966 39027 69962
11940 39027 6910
13525 39027 42922
14943 39027 24982
15290 39027 9214
17721 39027 5568
14491 39027 41803
11429 39027 66024
13075 39027 18739
12464 39027 22470
16973 39027 7982
13300 39027 2278
11740 39027 20081
14781 39027 13845
10629 39027 38821
14262 39027 4609
573 39027 6773
17901 39817 84730
14579 41288 84730
9565 40996 84730
18243 38892 29579
18243 38680 8076
18243 39013 27771
1583 41466 85277
6345 41466 86273
10845 41466 87377
3757 41466 89003
8675 41466 87275
10063 2438 46115
1894 39087 89010
8446 3298 1581
8446 12977 798
8446 12488 171
8446 13982 1015
4744 38533 40226
501 39027 15526
553 39027 22909
18243 32944 3502
18243 27245 2074
13288 31891 1712
15704 29216 1712
17685 27149 1712
10749 35323 1712
11583 33865 1712
10919 34121 1712
15219 40923 84730
10988 40172 84730
8919 41192 84730
5141 39265 40226
1629 40223 40226
18243 9923 42646
18243 3677 42058
18243 24396 42070
18243 9118 43567
18243 10755 43609
18243 7703 44997
18243 2541 43826
18243 7910 43759
675 27972 86735
3328 41466 34040
1788 41466 27598
6129 41466 35137
11879 41466 39262
4271 41466 36508
3555 41466 29127
2969 41466 11491
7847 41466 22182
15513 41466 37706
9089 41466 34222
14108 41466 39143
12267 41466 39820
8463 41466 21055
8033 41466 20454
8458 41466 28167
11520 41466 38699
3992 41466 25211
3426 41466 23935
7510 41466 23569
6343 41466 29820
3624 41466 27160
3896 41466 19044
12025 41466 36579
12006 41466 34574
4986 41466 21279
3456 41466 31199
6916 41466 22262
3210 41466 13466
13929 41466 35772
7028 41466 31018
6818 41466 39779
5236 41466 39051
3186 41466 27955
5313 41466 30624
3001 41466 38991
5787 41466 15785
10387 41466 29308
8644 35972 89010
8853 11802 89010
9092 37361 89010
8691 27031 89010
8719 12827 89010
8938 28536 89010
9048 20411 89010
10150 37422 89010
9789 33972 89010
8893 29837 89010
675 28775 66538
675 28745 68701
675 28918 62157
675 29057 80157
675 28081 59493
15407 2438 45012
14449 2438 42152
14676 2438 44458
11245 29270 5800
11041 29270 4579
18217 29270 16695
9033 29270 20897
11326 29270 22793
14341 29270 26899
12153 29270 14665
13459 29270 14739
11400 29270 25380
17058 29270 35325
18129 29270 31779
9498 29270 17635
15975 29270 15530
17152 29270 8501
16653 29270 12006
15257 29270 11986
17152 29270 25536
9645 29270 15436
15697 29270 9875
9265 29270 18159
17125 29270 6955
16283 29270 33065
9093 29270 21436
4031 29270 10389
11841 29270 21017
8083 29270 10807
12258 29270 12969
16538 29270 7139
13611 29270 11936
7060 29270 12596
14447 29270 21707
8826 29270 16476
17966 29270 14476
17498 29270 35810
13536 29270 7384
4577 29270 11858
12998 29270 14339
17204 29270 14234
13803 29270 12493
14171 29270 10111
11242 29270 8960
10472 5582 340
8446 1377 47080
8446 2117 76229
8446 2023 48401
8446 1098 52109
8446 2281 57539
18684 39027 25059
18600 39027 30220
10472 1263 7575
10472 1301 17736
10472 1885 23333
10472 988 4557
10472 1512 1631
10472 1686 9143
18918 17267 44087
18918 37535 43891
18918 20675 42724
18918 23405 44402
18918 24143 43127
18918 32564 42350
18918 38636 45093
18918 37675 42185
18918 31617 44388
18918 18710 43871
18918 36524 46536
18918 31920 45653
18918 20907 43666
13398 35558 87298
13126 38230 87298
10627 30271 87298
10619 28595 87298
14087 34621 87298
12143 37345 87298
675 39437 79582
675 40815 84128
675 41257 68407
675 41005 76369
675 40304 80654
17638 39027 47572
17042 39027 46635
15551 39027 80247
14695 39027 77888
15538 39027 62845
17857 39027 35851
17669 39027 46349
16774 39027 63794
13600 39027 81933
16144 39027 59499
15111 39027 45116
12062 39027 74415
17466 39027 34509
13751 39027 71129
15443 39027 75211
17784 39027 28916
16577 39027 54681
17497 39027 16424
17414 39027 15094
18223 39027 69041
15929 39027 55490
15925 39027 83372
17285 39027 81982
14577 39027 64754
15011 39027 62584
16739 39027 32033
16620 39027 78354
13761 39027 64636
12296 39027 68402
13392 39027 76117
14492 39027 86340
15012 39027 59607
17675 39027 79812
17672 39027 27922
17904 39027 74287
13033 39027 83951
675 40716 37101
675 41372 21461
675 39635 38095
675 40657 28166
675 39587 34950
675 40419 35468
2289 34748 1712
5993 29961 1712
2428 27849 1712
2399 29539 1712
4594 31918 1712
2126 33645 1712
12107 2438 43790
11170 2438 45365
12869 2438 44489
18243 34036 40582
7240 39027 40
15946 39708 89010
675 37950 57308
675 38337 62126
675 38590 58368
2516 39027 87550
675 29220 17658
675 27608 6071
675 28342 16954
675 27927 12005
675 28766 4637
675 28623 28913
204 12714 47073
37 22661 47073
7415 41466 48640
4340 41466 46971
13966 41466 48423
3034 41466 48575
3291 41466 42480
2046 41466 47288
10346 41466 48559
5779 41466 47255
31 40987 0
1289 40033 0
0 39863 24604
0 39077 18539
0 39724 8296
0 40293 10177
0 39974 19172
0 40121 21243
2151 39027 29555
704 39027 17344
3127 39027 24161
4084 39027 17458
1306 39027 21335
3966 39027 9004
1381 39027 15166
812 39027 31273
5994 39027 2543
6042 39027 6751
4561 39027 3807
4644 39027 6184
2685 39027 19681
2120 39027 4486
962 39027 33179
6594 39027 7843
3612 39027 25569
1671 39027 20326
541 19725 47073
941 40944 84730
10031 39498 84730
3326 39922 84730
6084 31329 4280
8397 32391 4280
16071 31564 4280
12746 34356 4280
17157 35360 4280
14675 30547 4280
5074 31366 4280
17864 31505 4280
11786 30578 4280
675 26959 79406
675 27973 71667
675 28255 79107
675 27289 86584
675 27663 69805
675 27035 81504
675 27007 84216
1802 37865 4280
11844 29270 38981
2725 29270 23472
1061 29270 28622
16737 29270 37578
3561 29270 34971
5819 29270 27779
1430 29270 25123
3333 29270 33284
6806 29270 37032
1348 29270 23113
9464 29270 25790
12725 29270 31635
5435 29270 15819
732 29270 26423
9918 29270 33847
4206 29270 38716
6447 29270 27817
8988 29270 37835
1245 29270 6619
7210 29270 32980
4852 29270 13909
3071 29270 15652
10345 29270 26843
2147 29270 18438
4516 29270 32358
11330 29270 35220
2836 29270 33671
6207 29270 30464
1125 29270 31242
3973 29270 30829
8185 29270 32496
4291 29270 18625
1247 29270 35424
16498 29270 39053
9520 29270 26321
6661 29270 25863
16237 29270 37692
9411 29270 29961
12684 29270 39613
7183 29270 30424
9383 2438 68855
9344 2438 66620
9735 2438 77568
8458 2438 61004
2449 38877 84730
1124 37991 84730
9497 26831 66249
10397 26831 75402
9632 26831 63422
9417 26831 77365
9647 26831 82326
10287 26831 37637
10355 26831 32150
10330 26831 28111
10462 26831 31459
9256 26831 64718
10359 26831 28846
5523 30296 84730
1554 32332 84730
5864 33910 84730
16878 29541 84730
9638 33441 84730
3654 30608 84730
7906 29468 84730
7053 33645 84730
11418 30134 84730
1688 37175 84730
2067 39027 35046
2936 39027 33725
6281 39027 13628
10387 20660 89010
10015 14852 89010
10417 34344 89010
10287 16454 89010
10316 39027 75369
9646 39027 83121
9528 39027 57219
10373 39027 52470
10130 39027 70067
9671 39027 82558
9584 39027 47370
10444 39027 56419
10316 39027 64015
10054 39027 62089
675 28947 41253
8971 15122 1712
8507 24155 1712
8447 18658 1712
675 25634 45840
675 14835 43349
675 25217 46484
675 19961 43781
675 26244 46215
675 21484 44225
1740 0 46245
6237 0 46893
18075 32178 40226
13030 37730 40226
15885 33507 40226
13782 34764 40226
14765 33740 40226
11054 34648 40226
10663 37339 40226
12582 37189 40226
7099 37250 40226
14878 34745 40226
8521 9822 0
8695 31038 0
9052 20007 0
8849 5042 0
8932 19496 0
9770 4899 0
7491 36131 40226
17064 36146 40226
17848 34407 40226
13288 32384 40226
16731 34594 40226
8282 36935 40226
10810 33612 40226
3241 38945 87298
3023 37990 87298
2823 37293 87298
1393 32544 87298
675 38885 86377
675 30511 86743
675 38736 6023
675 38191 13188
675 37987 9713
10416 20427 87298
8737 25958 87298
10306 10905 87298
9867 40031 84730
3834 41466 46572
9526 41466 45638
4301 41466 44560
9918 41466 46139
4013 41466 45842
10817 41466 46777
4315 41466 42921
9585 41466 47117
3811 41466 47872
10472 810 9989
10472 1391 14398
10472 2148 30171
10472 1853 15088
10472 2085 5754
10472 2322 15720
10472 1940 19976
8997 0 38187
9961 0 22755
9931 0 25119
9183 0 26884
9582 0 20506
0 40012 46620
0 39265 43851
0 40108 29651
0 40278 34881
0 39847 31320
0 39319 50219
0 39272 77813
18872 39027 85261
18915 39027 71130
18268 41466 9996
18559 41466 6768
18896 41466 9173
17827 41466 16212
17878 41466 15489
18860 41466 65496
18886 41466 27213
18816 41466 54345
18796 41466 40202
3727 26831 26219
2881 26831 32238
1073 26831 41593
5639 41466 2519
3603 41466 3245
10349 41466 1032
4423 41466 502
12675 41466 548
16202 39027 713
675 41393 48952
675 39439 59404
675 39475 56091
675 40479 59912
675 40372 62110
675 39740 62535
10472 1786 44105
18243 33286 41392
8446 1527 43994
10300 29270 82304
9867 29270 79101
5161 29270 84178
2063 29270 72334
5994 29270 83126
5072 29270 63409
6433 29270 76616
5382 29270 66861
1832 29270 83612
13065 29270 84503
5573 29270 76908
6341 29270 78406
6336 29270 62209
2221 29270 52055
1819 29270 59230
2256 29270 70593
2482 29270 79824
16763 29270 82794
4231 29270 73753
3417 29270 64151
3772 29270 67192
10026 29270 80462
7926 29270 65362
7257 29270 83376
13899 29270 80244
791 29270 83727
1410 29270 74679
1605 29270 70156
2429 29270 63601
9067 29270 76128
14826 29270 84515
1563 29270 52073
15514 29270 84547
13497 29270 76637
905 29270 67390
8729 29270 65881
7285 29270 71553
7949 29270 75973
16074 0 42043
14851 0 43446
12764 0 43289
18767 18035 41937
18881 27799 41937
18311 39027 87510
6933 38235 4280
11438 38442 4280
8446 31756 227
8446 18369 409
8446 5755 700
3213 39027 28109
1860 26831 60123
5596 26831 26402
3899 26831 43666
5480 26831 30679
4006 26831 50398
2819 26831 56504
2881 26831 52883
1289 26831 56221
1146 26831 64435
6645 26831 13714
1974 26831 65846
1596 26831 76109
5943 26831 27842
1314 26831 67643
1067 26831 80607
979 26831 68356
2305 26831 48061
4501 26831 38004
6330 26831 17653
7237 26831 11058
18243 33865 48343
3949 29270 28270
4679 29270 12499
7818 29270 20956
2895 29270 14973
3071 29270 13775
977 29270 34111
6219 29270 25143
5813 29270 22646
7903 29270 26032
4596 29270 16574
5257 29270 20799
11463 29270 27395
3871 29270 26800
1236 29270 13753
735 29270 31698
8159 29270 30389
1370 29270 11070
10010 29270 40215
4806 29270 15671
8853 29270 25707
4437 29270 18046
4281 29270 25967
2565 29270 38484
1079 29270 23609
3734 29270 23606
4795 29270 34100
2610 29270 37633
7489 29270 35075
2050 29270 7486
5958 29270 18141
9599 29270 31139
6318 29270 17335
7310 29270 35823
6406 29270 37975
4078 29270 28821
707 29270 9286
4686 29270 39199
12189 31327 40226
2464 29436 40226
1456 33468 40226
1775 36896 40226
7481 29989 40226
5520 29367 40226
8860 31769 40226
8153 31751 40226
5157 30683 40226
14084 29360 40226
6643 2279 41937
2580 2276 41937
17806 903 41937
1135 41423 48463
1491 40552 48463
10980 40973 48463
18243 29087 68568
18243 28522 67331
18243 29122 50879
18243 29104 54194
2394 39027 34343
5877 39027 15147
18371 16218 47073
18243 41145 26375
18243 39712 7871
18243 40396 21585
18243 40923 14759
18243 41397 24431
18243 35344 47653
18243 38217 73062
18243 38001 66131
18243 38087 60891
18918 40935 74955
18918 40492 36500
18918 40765 42142
18918 40504 27482
18918 40776 33221
18918 41413 61475
18918 40201 63782
18918 41049 35207
18918 39950 54095
18918 41303 48192
18918 41155 68115
18918 39550 50687
18918 39815 60363
18918 39912 46452
697 26831 70285
782 26831 56035
4173 26831 44542
3215 26831 50148
1348 26831 62792
2553 26831 58467
6222 26831 25741
1247 26831 76469
2955 26831 39997
5108 26831 33226
2260 26831 53091
4215 26831 40494
3362 26831 42053
3202 26831 56835
7038 26831 15305
828 26831 47383
2789 26831 45426
2100 26831 68753
830 41466 51963
751 41466 71752
545 41466 53791
864 41466 78733
318 41466 45842
1394 41466 77357
768 41466 39220
545 41466 36150
72 41466 61999
18243 22927 46345
18243 8898 46272
18243 22044 45000
18243 13266 46163
18243 24823 44976
18243 17445 44069
18243 14831 45839
18243 10037 46836
18243 7760 45984
8669 0 49454
9117 0 62123
8544 0 58037
5453 0 46429
6615 0 43181
4954 0 44935
107 4576 47073
382 3137 47073
10125 2438 71370
10149 2438 73861
9240 2438 58216
10254 2438 68960
18243 28631 74998
18243 27490 75266
18243 26858 70791
18243 27280 68879
18243 28393 82267
18243 26930 59321
18243 28317 76513
675 30854 47532
675 39706 20309
675 40345 11263
675 40597 6095
675 40992 7400
675 39352 23805
4237 41466 34945
5354 41466 18248
5384 41466 34238
10392 41466 32045
10870 41466 26593
3990 41466 33785
2068 41466 24216
9635 41466 26387
6007 41466 38897
8856 41466 22789
6206 41466 35662
12779 41466 34248
9723 41466 23281
9521 41466 29213
5824 41466 26058
3478 41466 16301
1830 41466 36684
6441 41466 37929
4788 41466 24015
4861 41466 38481
11205 41466 34093
2662 41466 18045
7035 41466 28583
7763 41466 31624
1882 41466 21092
7283 41466 32650
1824 41466 15996
7263 41466 24011
2601 41466 39741
8045 41466 35662
4101 41466 30891
2304 41466 12648
1811 41466 18328
11949 38801 48463
451 16273 47073
10490 41466 21102
10403 41466 7380
16565 41466 23081
11159 41466 8640
10550 41466 17401
13840 41466 4945
5421 41466 4326
14205 41466 26098
11688 41466 19548
13237 41466 28690
11459 41466 5024
11423 41466 22419
16465 41466 32331
8169 41466 10119
12520 41466 26432
16726 41466 16085
15017 41466 33821
15287 41466 30776
13001 41466 4495
11007 41466 19023
10338 41466 10115
14498 41466 14014
10435 41466 12495
3454 41466 8293
12615 41466 22405
11831 41466 13221
12116 41466 12763
11579 41466 23772
11120 41466 20784
10910 41466 22866
9558 41466 18424
10953 41466 17933
14261 41466 14971
15191 41466 21416
10278 31930 48463
13425 30259 48463
13745 32044 48463
14935 29290 48463
8594 32372 48463
10825 29937 48463
12010 33222 48463
14493 32176 48463
7139 32124 48463
16550 35842 48463
16847 2100 47073
17643 41466 58369
4154 41466 79262
6761 41466 71416
5894 41466 76133
14955 41466 80193
3499 41466 78077
2241 41466 71393
2976 41466 68377
2379 41466 68446
11103 41466 82392
6892 41466 63893
3016 41466 65676
7415 41466 79862
11906 41466 73166
8461 41466 80117
8922 41466 82510
14705 41466 79408
2246 41466 67472
8052 41466 68985
3325 41466 73912
10774 41466 74772
3666 41466 64476
7523 41466 71003
10948 41466 76237
8756 41466 75881
9889 41466 83885
7820 41466 75788
7136 41466 69507
12478 41466 80178
4285 41466 60249
9120 41466 72511
14058 41466 84529
12125 41466 77510
8446 232 88261
8446 1638 81966
8446 1398 73044
8446 592 57947
8446 81 81935
8446 352 85476
8446 1318 76203
18243 40361 75479
18243 40438 81513
18243 39508 77675
18243 39158 58922
18243 39981 73357
1061 26831 9980
2637 26831 12278
1598 26831 31372
3920 26831 22343
3889 26831 15721
1817 26831 1803
1118 26831 3379
6114 26831 4948
5304 26831 10266
2060 26831 21689
2831 26831 9565
2238 26831 7457
2376 26831 21298
1431 26831 8335
1033 26831 34608
930 26831 13426
1093 26831 38743
4759 26831 4674
3305 26831 17731
6689 26831 1921
675 28112 68342
675 27321 79919
675 28541 77672
675 27683 72245
675 26969 51104
675 28836 83040
10472 1807 37260
10472 1248 41774
10472 193 36958
10472 942 31800
10472 1464 28258
10472 556 25870
9097 39027 59338
648 64 47073
8446 2386 21816
8446 2276 7405
8446 1742 35046
8446 1412 39732
8446 481 35496
8446 2163 29625
8446 1974 40936
18233 33396 1712
14929 32511 1712
14177 38564 1712
18178 33976 1712
11367 38726 1712
15196 35998 1712
18373 14706 41937
2512 41466 2821
6287 41466 1745
11084 41466 1701
16813 41466 380
9147 493 41937
7679 1105 41937
10472 6584 854
10472 8677 1548
18564 41466 82045
17295 41466 83706
17815 41466 79829
18461 41466 80012
675 39390 77374
675 40779 56333
675 40489 54739
675 39087 57823
675 39800 60535
4364 39027 88327
569 33389 41937
13102 37915 48463
9681 2438 17945
10167 2438 12718
9832 2438 28972
9776 2438 19334
9440 2438 15436
18243 39866 83762
18243 39608 60419
18243 40890 81261
18243 39502 56474
18243 39901 66995
8729 38715 40226
11296 29270 18051
7828 29270 13643
15893 29270 22316
6831 29270 5423
15070 29270 30291
16417 29270 17978
7282 29270 9894
7463 29270 17675
17332 29270 20685
18135 29270 29658
4812 29270 9215
9490 29270 13029
10153 29270 22846
10874 29270 16591
16851 29270 5445
12077 29270 19679
17577 29270 34612
12408 29270 8361
4875 29270 11336
17688 29270 17494
1401 29270 5571
1709 29270 6313
16815 29270 16525
9634 29270 6260
14815 29270 11725
15669 29270 30961
5521 29270 10188
2676 29270 4929
8900 29270 17749
11591 29270 19870
12285 29270 25387
17168 29270 28522
10239 29270 21510
15548 29270 8498
13125 29270 18327
13636 29270 16002
18715 41466 29752
18884 41466 26563
18553 41466 59885
18363 41466 56787
18887 41466 18106
17420 41466 9800
17945 41466 27279
18851 41466 20706
18348 41466 7538
8446 156 19739
8446 663 21916
8446 339 28965
8446 1288 7592
8446 138 811
8446 805 19525
10429 26831 23114
10053 26831 20634
10094 26831 24873
9675 26831 58594
9690 26831 36490
9061 26831 62439
9597 26831 57409
9982 26831 51836
9428 26831 86808
10081 26831 69526
9508 26831 83433
2195 1068 47073
3885 1830 47073
8864 1760 47073
18243 38878 60702
18243 38603 48782
18243 38958 73211
675 28636 14792
675 28170 7118
675 28595 23910
675 28704 20600
10811 38703 4280
18243 6305 45189
18243 13122 44683
18243 4927 45256
18243 7248 42559
18243 17171 41969
18243 13893 43904
18243 13193 42351
18243 20238 42969
2811 38293 84730
13047 37821 84730
1391 1712 41937
18849 11128 41937
18879 3791 41937
596 34985 47073
10472 791 45145
10472 6080 88288
10472 2881 87338
10472 25468 88499
10472 11564 88737
10472 22128 1397
5652 39027 1083
18918 14341 44705
18918 2853 43722
18918 2025 44678
18918 2281 42708
18918 15463 45191
18918 1874 46648
18918 14326 45899
18918 30206 46824
18918 24985 46276
18918 14098 44198
18918 25502 46927
18918 19029 45717
18918 10057 46901
18918 9918 44522
2168 2438 44877
2980 2438 46636
675 38814 56513
675 38819 59122
675 38865 76604
18243 40133 31477
18243 40218 39370
18243 39570 16470
18243 39345 23096
18243 39105 10843
8757 1851 0
8892 23630 0
8859 22541 0
8515 14885 0
8472 6517 0
18243 34652 40565
675 26935 4860
675 28403 34150
675 27530 37989
675 28406 37086
675 27898 36147
675 26904 12175
675 27229 29787
675 37165 84836
675 29752 85226
15208 41466 4002
10355 41466 2313
14244 41466 2602
13004 41466 1506
5084 39027 21793
9207 2438 36528
8918 2438 28168
9021 2438 26914
9214 2438 34388
8765 2438 41599
9096 5000 1712
10354 11634 1712
9759 5603 1712
18467 39027 47981
500 41466 42195
826 41466 70841
406 41466 53203
768 41466 63301
1449 41466 73266
1010 41466 55163
1625 41466 82252
172 41466 18280
18243 31988 86133
18243 35597 86476
18243 30699 85012
675 29786 2850
675 30516 3536
18918 39729 32587
0 41028 46425
0 40181 61498
0 41306 85140
0 40360 63959
0 41426 56921
0 39407 86163
0 40076 76125
0 41178 16720
0 40966 34343
0 40737 38080
0 41184 33013
0 41393 20421
4577 40700 48463
4139 37539 48463
10722 35689 48463
12149 37282 48463
809 32842 48463
17200 37757 48463
7583 35630 48463
11447 34669 48463
5669 35652 48463
981 31818 48463
17661 29270 77704
5469 29270 53305
8524 29270 56959
12527 29270 64301
18102 29270 83585
15178 29270 56823
5050 29270 51575
6877 29270 55114
1034 29270 49196
12255 29270 71894
4240 29270 49431
18078 29270 71755
18006 29270 69733
13531 29270 72522
9307 29270 49126
14196 29270 70903
15244 29270 68330
15654 29270 64640
18173 29270 75166
16537 29270 61356
15616 29270 48864
16631 29270 56345
7024 29270 60548
14668 29270 69837
6665 29270 54511
15355 29270 72985
17583 29270 52267
10831 29270 60579
18214 29270 64450
12449 29270 56879
13705 29270 49201
11197 29270 66586
7706 29270 60564
13024 29270 48511
15690 29270 63290
16788 29270 77091
16736 29270 67030
17947 29270 57553
14967 29270 49872
16890 29270 73143
695 37626 1712
4392 28110 1712
1742 34232 1712
4512 28610 1712
2482 31150 1712
6502 2438 43684
4949 2438 41959
7770 2438 44275
6937 26831 68355
7075 26831 20368
7839 26831 58513
3030 26831 80704
2951 26831 73017
4336 26831 54210
1661 26831 77547
1069 26831 86649
3251 26831 86069
6928 26831 26253
7599 26831 27967
7331 26831 45604
7197 26831 44805
5011 26831 86908
2787 26831 65159
5057 26831 69379
5336 26831 64384
3016 26831 79683
6279 26831 71885
3741 26831 71293
7434 26831 34604
6690 26831 81973
7947 26831 9073
6888 26831 36352
6242 26831 38659
4491 26831 64827
7553 26831 66320
8338 26831 27697
5876 26831 69813
5973 26831 39352
4686 26831 49852
4435 26831 60003
6271 26831 28308
7538 26831 69307
4234 26831 72541
4070 26831 67402
7452 26831 33191
4935 26831 58463
7218 26831 33810
8255 26831 53443
5535 26831 56878
615 21114 41937
8446 9148 1676
8446 21150 1156
8446 13677 1525
18918 39542 60989
18918 40508 77715
18918 39748 62066
18918 39274 82316
14628 39027 87622
18918 41236 8167
18918 39800 55398
18918 41414 32913
18918 40603 29576
18918 41148 39543
18918 41203 15239
18918 39498 38448
18918 40683 50721
18918 40722 28670
18918 40584 44617
18918 39524 51376
18918 40536 66176
18918 40407 53633
14937 41466 1171
14047 41466 1266
10608 41466 3308
9611 41466 86631
15227 41466 87633
12892 41466 86518
15500 41466 88147
13788 26831 11550
13683 26831 14876
14581 26831 24550
13435 26831 37514
11067 26831 64941
11042 26831 50000
10826 26831 5192
12797 26831 27634
15331 26831 20754
12016 26831 44008
11050 26831 47404
13051 26831 14763
11465 26831 32874
13122 26831 48677
10473 26831 52009
16731 26831 7716
11875 26831 14726
11457 26831 30028
13794 26831 41319
13903 26831 35141
11283 26831 20178
11450 26831 70694
11391 26831 9913
10855 26831 54376
12334 26831 35941
11131 26831 66116
12410 26831 7338
15405 26831 11704
14198 26831 13056
13313 26831 4474
11073 26831 21532
11778 26831 3098
11120 26831 21005
13115 26831 54515
12573 26831 39431
13573 26831 36465
15773 26831 24844
12628 26831 49568
12134 26831 19256
10667 26831 48004
12020 26831 32185
10985 26831 73803
13137 26831 15269
12294 26831 15720
10887 26831 66864
8446 36629 87896
8446 38331 88295
8446 21020 88540
8446 26651 88037
10598 39320 40226
1394 39096 40226
9608 2438 13404
10267 2438 34392
9830 2438 22757
10058 2438 7332
0 21133 44949
0 9062 46027
0 35782 46675
0 27011 46267
0 34331 44375
0 17986 45610
0 11268 46637
0 35875 45779
0 31952 43078
0 33199 43450
0 7403 46475
0 28595 45514
0 39504 64005
0 40662 22969
0 40119 38373
0 39209 79545
0 39595 61639
7134 39027 2038
3325 39027 1958
675 27023 31195
675 28314 40152
675 27017 14769
675 26950 9098
675 28210 33018
1078 37268 4280
7163 34337 4280
10440 34362 4280
5221 35527 4280
16499 37644 4280
5071 33828 4280
3923 31683 4280
865 35267 4280
15355 37037 4280
8265 36758 4280
12170 41466 43700
3856 41466 40656
10629 41466 41433
9874 41466 43145
16555 41466 40748
5533 41466 41963
14737 41466 41597
14872 41466 42351
5992 41466 40277
8719 0 42060
7356 37028 1712
4893 36277 1712
6296 34918 1712
5426 36538 1712
5013 2438 45240
2840 2438 44435
17357 30352 1712
14521 37615 1712
13215 37546 1712
15885 36988 1712
16020 32511 1712
16472 38918 1712
13561 36554 1712
675 8476 46672
675 7820 43896
675 16098 44872
675 3262 44148
675 9071 43616
675 16097 45575
675 5580 44204
675 8557 45055
12581 39027 493
4309 0 43215
1690 0 43073
110 0 46328
2360 39027 57379
4126 39027 46807
3801 39027 34831
5036 39027 35516
6789 39027 13404
6549 39027 19804
1913 39027 42659
5848 39027 24399
4568 39027 27425
1325 39027 58309
7028 39027 15671
2986 39027 51130
1070 39027 76889
1749 39027 58682
8446 917 46020
18243 31625 41932
18243 41388 53445
18243 41060 57675
18243 41219 59121
18243 40530 68493
18243 40822 72197
18243 41028 71449
11060 2438 43136
13964 2438 46320
3633 41466 50926
17103 41466 49768
13520 41466 58349
7803 41466 52084
14634 41466 50068
16163 41466 75334
8027 41466 60607
7533 41466 54433
13541 41466 50792
8802 41466 54736
16200 41466 69298
12832 41466 73492
12519 41466 53022
9803 41466 53800
7131 41466 50656
12772 41466 56386
8844 41466 54028
3632 41466 51756
16119 41466 49802
6327 41466 52126
16492 41466 80609
16092 41466 55389
16794 41466 69520
14614 41466 78281
14560 41466 71410
4356 41466 49959
9223 41466 57723
13104 41466 59692
6084 41466 53749
17038 41466 76012
15382 41466 79083
10763 41466 58644
15939 41466 72411
10854 41466 68693
14948 41466 50773
5384 26831 72609
3311 26831 76764
4509 26831 53046
2242 26831 86583
7219 26831 55824
6668 26831 66325
7494 26831 49753
6187 26831 40472
1463 26831 81231
3512 26831 57684
7263 26831 74807
7840 26831 16408
4983 26831 77896
7879 26831 8402
5168 26831 76572
5164 26831 51379
7990 26831 70150
7354 26831 38157
2416 26831 85926
7345 26831 50760
7486 26831 52297
5999 26831 57472
6302 26831 75047
6443 26831 60449
5504 26831 80391
7431 26831 61842
6677 26831 55076
8349 26831 84393
4661 26831 74903
4386 26831 60593
1283 26831 83653
3521 26831 80060
3276 26831 67882
5542 26831 81278
3657 26831 61020
8170 26831 81405
6505 26831 26929
8227 26831 51150
5149 26831 42460
8274 26831 17725
12706 41466 60510
4797 41466 54252
16781 41466 49155
5076 41466 52464
15693 41466 50453
12719 41466 50405
9913 41466 49838
13899 41466 54267
11422 41466 69751
14723 41466 67450
13377 41466 72556
15838 41466 59932
13776 41466 71156
16736 41466 78644
15280 41466 64170
8030 41466 58682
15310 41466 54636
14761 41466 77697
12157 41466 72566
15275 41466 72892
14181 41466 52865
10462 41466 67032
14677 41466 59547
14597 41466 58408
14705 41466 55868
8468 41466 52568
6541 41466 53975
14252 41466 59956
9325 41466 60852
11307 41466 54841
16991 41466 71252
14081 41466 68467
428 39027 88749
9711 39673 0
11110 39269 0
7283 39027 64048
5917 39027 65815
6106 39027 86273
6601 39027 27433
3084 39027 69525
8222 39027 9924
8188 39027 42916
7321 39027 44774
6923 39027 47873
8409 39027 38392
7112 39027 33516
4807 39027 44295
7433 39027 20263
7984 39027 67531
2836 39027 87018
4988 39027 60326
1867 39027 78619
7766 39027 47617
3838 39027 53918
2362 39027 86115
5677 39027 61668
2994 39027 74477
4743 39027 62490
3686 39027 74844
8148 39027 50430
6425 39027 79825
7308 39027 35231
7100 39027 67006
4803 39027 49197
7879 39027 14859
6705 39027 74584
5967 39027 32398
7655 39027 52372
1513 39027 82500
5898 39027 71634
7854 39027 42366
7311 39027 83223
6466 39027 39817
8420 39027 73406
5119 40721 0
8328 41391 4280
14553 41177 4280
9712 40864 4280
3843 40162 0
18243 40935 58535
18243 40619 49780
18243 40885 59740
18243 41457 65478
18243 40167 64927
18243 40555 56988
102 39027 26306
18361 41466 74213
17159 1537 47073
15102 35246 48463
18141 32723 48463
6401 29918 48463
11244 33294 48463
1506 29439 48463
16886 36663 48463
16255 34383 48463
14205 33436 48463
14047 30583 48463
4254 30129 48463
675 36793 1777
675 32236 2097
18558 39027 31289
18668 39027 19390
18243 33426 86714
18243 31363 85790
675 36242 85614
675 35621 86642
7954 39027 88524
1040 26831 20484
1857 26831 2513
697 26831 16436
2096 26831 6591
3800 26831 25291
2909 26831 4177
2403 26831 18190
7112 26831 5292
1592 26831 26961
3710 26831 22825
1794 26831 13040
956 26831 6430
803 26831 36610
6821 26831 7172
2580 26831 24695
934 26831 23989
1549 26831 33026
8692 39132 48463
5271 39273 48463
11449 40003 48463
675 36410 47437
15597 41466 35047
16588 41466 31273
10271 41466 14223
10615 41466 24545
7101 41466 13635
16139 41466 17276
9010 41466 9870
13882 41466 29998
16260 41466 15844
5502 41466 11181
8941 41466 9037
14043 41466 25420
16612 41466 20883
11293 41466 25695
11302 41466 12856
10914 41466 12274
14082 41466 23865
4349 41466 9428
6428 41466 10904
13629 41466 27182
10122 41466 18685
16035 41466 34537
16591 41466 23811
16866 41466 13815
16663 41466 37462
16853 41466 17864
16451 41466 22187
16202 41466 13215
13448 41466 8050
16479 41466 14158
8212 41466 16305
16572 41466 38392
12234 41466 8409
18416 39027 13465
18453 39027 3025
10931 40059 4280
7775 39214 4280
8449 23215 87298
8960 8222 87298
9991 0 37177
10381 0 40206
9949 0 33779
10255 0 30988
9937 0 17509
9736 0 24495
18243 29406 3585
640 17120 41937
12759 30171 87298
16532 30637 87298
14592 28740 87298
17261 33832 87298
11364 27905 87298
17403 28543 87298
16768 34788 87298
17412 38849 84730
4449 37150 4280
5187 31912 4280
9720 34123 4280
3716 36023 4280
1852 32053 4280
3215 33671 4280
8057 36055 4280
2446 33680 4280
18918 28680 43595
18918 24314 42447
18918 15888 42329
18918 24703 43730
18918 23471 42056
18918 13482 42815
18918 16739 43321
18918 23871 43844
18918 19134 42006
18918 24738 44626
18918 25450 44712
18918 7820 42125
12015 38942 4280
8446 32257 1538
0 40033 66349
0 39302 82885
0 39864 78532
0 40794 67409
0 40758 29945
0 40886 70095
0 40957 75954
0 40658 52694
0 40317 85788
0 41188 22205
0 41195 19937
0 41442 82872
675 38686 35116
675 38922 32402
675 38562 18235
675 34995 41081
8446 35267 87349
8446 17556 87988
8446 14878 88156
8446 24815 87447
7525 39027 3163
4139 39027 8504
3998 39027 10940
2433 39027 28045
1492 39027 31574
8058 39027 2906
4501 39027 15284
3581 39027 12641
5882 39027 11069
766 39027 16302
2564 39027 4167
5715 39027 3551
2944 39027 7555
8267 39027 2270
6599 39027 6822
1061 39027 30806
10472 2240 42622
675 28950 58309
675 27608 48009
675 28680 59528
675 28234 57519
675 27798 55408
675 28989 55570
17559 41466 41556
17238 41466 31862
17501 41466 20834
8446 952 66754
8446 1730 86580
8446 798 76780
8446 457 82701
8446 97 86516
8446 659 74017
10472 17610 1130
10472 3362 1403
10472 5131 1668
14431 39216 89010
675 35871 41298
13440 41065 4280
11259 41282 4280
10472 1740 56208
10472 2069 63835
10472 1373 52653
10472 2351 55561
10472 2091 53724
10472 2006 69320
7386 32154 84730
12952 30700 84730
9919 30700 84730
4502 30564 84730
3187 35524 84730
748 33015 84730
8888 32690 84730
4125 30063 84730
4269 34115 84730
5049 31330 84730
18243 27700 9204
18243 28545 8249
18243 28465 24586
18243 27788 12428
18243 28082 6383
18243 9390 46719
18243 21062 45670
18243 12034 46148
18243 20921 45041
18243 24745 46929
18243 20756 43876
18243 23249 46869
18243 39001 28523
18243 38193 5629
18243 38744 15155
2356 41466 88191
8205 41466 87623
5736 41466 85777
3705 41466 85829
3811 41466 86666
10122 29270 63692
15724 29270 56093
8336 29270 57688
4822 29270 50532
16949 29270 72608
12904 29270 51412
18066 29270 52473
14921 29270 51735
12717 29270 51971
8643 29270 55484
8705 29270 53792
13347 29270 50660
17454 29270 55854
8807 29270 61275
11236 29270 56964
15701 29270 59952
15508 29270 61037
13069 29270 56394
8169 29270 54227
14670 29270 71765
10410 29270 67206
3894 29270 54822
13671 29270 74680
12283 29270 67092
16632 29270 76515
17108 29270 58822
15433 29270 59416
10020 29270 60153
16181 29270 49847
12117 29270 61511
8136 29270 59584
12734 29270 55658
12201 29270 65449
16378 29270 64309
2650 29270 49895
7437 29270 58737
13544 29270 60817
18039 29270 73604
1092 37110 40226
1001 35092 40226
9293 30380 40226
3911 29401 40226
14652 30816 40226
14005 30269 40226
11528 30651 40226
3318 33144 40226
5475 32794 40226
675 9313 45501
675 9921 44859
675 13689 44606
675 7256 45815
675 18226 45604
675 13055 44360
8446 455 52609
8446 1735 66029
8446 1173 56245
8446 1040 48770
8446 1994 79792
8446 1965 77914
8446 2186 55679
10472 22001 610
10472 14683 170
10472 15734 643
10472 22513 661
10472 9282 88764
10472 483 88903
10472 24971 88500
10472 5542 87779
10472 17220 88262
10472 2281 72407
10472 2344 79254
10472 1142 60234
10472 1802 68697
675 38871 73680
675 38491 74547
675 37983 84438
18243 27035 34198
18243 27032 9913
18243 27848 27728
18243 27398 16730
5447 2438 44371
6232 2438 45206
8529 36132 84730
16440 36470 84730
6281 37639 84730
16553 37073 84730
15105 34424 84730
17720 33714 84730
17674 32784 84730
6812 37060 84730
12651 746 47073
18243 38594 63490
18243 38417 51388
11728 26831 81409
16096 26831 81226
16437 26831 43454
17063 26831 50743
17113 26831 31362
17870 26831 38555
17662 26831 40539
15793 26831 60698
18147 26831 82536
16283 26831 34742
14229 26831 46096
17783 26831 13938
15791 26831 29090
15950 26831 59178
12995 26831 72333
16234 26831 42329
16280 26831 39500
17989 26831 69228
16754 26831 27158
14672 26831 61026
12870 26831 79320
13511 26831 55041
16827 26831 47874
14423 26831 81099
14196 26831 76653
15159 26831 52010
12017 26831 71350
14943 26831 82865
12483 26831 72245
15048 26831 60535
16279 26831 63678
17045 26831 60127
17555 26831 42406
15690 26831 52202
17687 26831 83600
17475 26831 77053
16800 26831 38461
17517 26831 60868
16083 26831 57922
12134 26831 76006
14824 26831 39987
16642 26831 67380
17629 26831 28385
16223 26831 73740
4182 39027 2686
8496 26831 75414
8678 26831 42170
9341 26831 15223
9295 26831 40229
8754 26831 44389
9751 26831 16194
8672 26831 74188
9069 26831 34825
8466 26831 72241
18918 4440 46744
18918 3604 45178
18918 17421 46827
18918 4619 43967
18918 27701 46562
18918 5472 44163
18918 744 46917
18918 5917 46329
18918 19114 44619
18918 27536 46091
18918 11354 44308
18918 9221 46940
18918 20855 46408
0 4527 44529
0 12304 42839
0 13131 43889
0 14459 43449
0 32196 42462
0 26963 42844
0 11359 41959
0 21009 42368
0 9960 42612
0 2129 45589
0 8571 42521
0 2845 45448
0 18615 43263
13486 0 46405
17303 0 43483
18562 0 46534
11363 36302 1712
12729 33441 1712
11784 30792 1712
14135 31607 1712
15229 30228 1712
11811 35873 87298
16125 35932 87298
16194 36865 87298
11180 38322 87298
14866 35549 87298
675 38828 21584
675 38535 25870
13211 26831 67095
10976 26831 82210
16992 26831 34992
18067 26831 4435
12022 26831 84512
17401 26831 20850
16224 26831 41537
17767 26831 35695
16037 26831 51047
17330 26831 62738
17463 26831 72290
16314 26831 49435
17734 26831 54198
13959 26831 56334
17516 26831 73650
13437 26831 71475
16869 26831 60755
15743 26831 44963
17959 26831 21650
16461 26831 59834
12524 26831 65268
13401 26831 73218
14893 26831 85749
13241 26831 67772
16939 26831 76586
15490 26831 61665
16800 26831 80441
13986 26831 67097
17743 26831 85352
12411 26831 77361
15978 26831 81906
13283 26831 77283
14207 26831 54815
17134 26831 40036
13482 26831 56966
14612 26831 76991
14004 40471 40226
7224 41285 40226
10459 40682 40226
10472 1456 76183
10472 56 84109
10472 219 55739
10472 196 54679
10472 1063 70890
10472 1751 86712
404 39027 82129
672 39027 81510
9247 39027 41025
8854 39027 25904
8665 39027 14891
9817 39027 3661
9529 39027 10283
9990 39027 4944
9306 39027 38814
9616 39027 8914
9048 39027 4995
11564 41466 42082
14073 41466 43750
9816 41466 41504
7202 41466 42250
9743 41466 40341
7476 41466 41309
16353 41466 47899
9913 17632 0
9993 13095 0
9092 33928 0
9850 23795 0
18478 37425 41937
18243 27748 13290
18243 29225 5372
18243 28916 13220
18243 28692 27939
18243 28429 26485
560 39027 66235
0 31148 46880
0 29985 44283
0 22582 46028
0 33454 45659
0 17412 44926
0 34545 43130
0 22031 47021
0 20313 46143
0 32978 44668
0 29115 46756
0 38197 44883
0 11783 45813
0 23152 46632
675 38174 52766
675 38830 53813
675 38992 49178
2822 41453 89010
7437 40829 89010
7227 40350 89010
9714 39027 37276
8890 39027 88026
10186 39027 81174
9691 39027 64648
10303 39027 59279
9697 39027 87453
10306 39027 73319
10239 39027 42130
10437 39027 42732
9687 39027 45970
18243 27176 67183
18243 27727 66609
18243 28190 70551
18243 27483 62247
18243 28118 82908
18243 27013 86530
675 35392 40470
18630 39027 43073
15509 0 45375
14892 0 45262
17724 0 46247
18918 39864 18651
18918 40427 14702
18918 39517 25075
18918 40338 7864
18918 39726 23241
18918 39683 8264
17357 41466 77871
17552 41466 85076
17493 41466 81764
18785 41466 88107
8595 5851 1712
9260 18471 1712
8716 12963 1712
4370 38433 48463
675 30356 41645
2940 39027 29780
9321 0 18046
9878 0 12277
10150 0 5043
10013 0 7413
8814 0 23800
8471 0 39393
10029 19729 1712
9362 12031 1712
10015 6329 1712
13843 37431 48463
5690 32261 48463
6926 35395 48463
3412 30812 48463
10114 35021 48463
7054 36417 48463
807 36064 48463
10200 34013 48463
517 35180 41937
10472 806 37602
10472 1938 38425
10472 354 23711
10472 1273 34282
10472 1410 29139
18691 39027 6165
18243 30082 47870
675 38264 5284
675 38303 17625
675 38064 19299
3035 29782 87298
6117 29337 87298
6770 28830 87298
7410 27971 87298
7986 35029 87298
6631 30728 87298
15555 2438 42397
15245 2438 43360
12440 2438 43196
18243 36328 2884
18243 28312 1932
9075 4295 89010
9827 20825 89010
9855 19941 89010
9400 2480 89010
9395 3835 89010
9432 0 79468
8973 0 83607
10253 0 63867
9244 0 88996
10172 0 60489
10188 0 67573
17449 40822 0
14338 39740 0
11690 40021 0
8446 803 44068
18243 39318 38563
18243 39078 34374
18243 40243 24933
18243 40883 34126
18243 39965 30064
9574 41055 0
12621 40912 0
2256 39027 79863
5900 39027 55836
7411 39027 65353
6027 39027 73960
5067 39027 41458
7061 39027 70931
4472 39027 78079
4666 39027 57130
7690 39027 12085
7673 39027 36648
7204 39027 37631
8294 39027 66722
8279 39027 63886
5650 39027 33384
5363 39027 75085
6940 39027 22449
3115 39027 73931
7116 39027 49064
7988 39027 8808
7721 39027 23700
5063 39027 76550
7801 39027 54268
7027 39027 51503
5545 39027 82319
6455 39027 29602
8016 39027 69250
6639 39027 22890
3814 39027 82169
6194 39027 65192
5636 39027 66728
5440 39027 67387
3030 39027 78668
8404 39027 17218
4915 39027 60911
4918 39027 65489
11231 26831 33696
13153 26831 21844
14924 26831 3974
15660 26831 13165
12542 26831 26912
14112 26831 3586
11891 26831 11935
11589 26831 11239
12117 26831 51196
13937 26831 14049
15471 26831 17666
13655 26831 30262
12515 26831 36950
12033 26831 55768
10693 26831 79675
14855 26831 8826
14802 26831 10033
11024 26831 77059
13982 26831 8308
11338 26831 39365
12560 26831 48624
15613 26831 16681
12533 26831 32412
11809 26831 15331
11623 26831 21548
15800 26831 6935
12076 26831 53596
12990 26831 2858
11745 26831 46329
15457 26831 31714
16396 26831 18234
10780 26831 83121
16434 26831 16528
13397 26831 36930
16006 26831 20576
8846 0 26169
9541 0 14811
9255 0 9674
9138 0 11636
18243 34957 85189
