ply
format ascii 1.0
element vertex 2819
property float x
property float y
property float z
end_header
120 40731 79702
3962 22112 74470
3851 28218 74470
2428 20998 74470
1979 26721 74470
2861 10697 74470
2030 31021 74470
2015 28045 74470
34260 42482 8305
3657 42482 4128
19921 42482 30984
3013 42482 54662
31899 42482 15709
25732 42482 107
22349 42482 24777
29998 42482 20253
8325 42482 8259
19666 42482 3668
19438 42482 25996
19801 42482 2256
18477 42482 16549
8730 42482 54380
5929 42482 2407
10886 42482 14578
6804 42482 27385
603 42482 64172
19337 42482 36065
25475 42482 30831
4233 42482 15593
5144 42482 24562
2251 42482 50086
12417 42482 1923
7263 42482 65095
15886 42482 27137
15840 42482 38470
4580 42482 49203
13602 42482 26051
14728 42482 20764
16968 42482 23691
12921 42482 44722
21051 42482 18090
528 42482 18975
4291 42482 25929
32025 42482 4640
8048 42482 39094
12859 42482 30550
29091 42482 18531
23017 42482 1186
12906 42482 28743
25656 42482 4840
1221 42482 72904
8092 42482 52242
11601 42482 31533
35841 42482 11713
214 42482 12921
7820 42482 24545
16421 42482 6605
30477 42482 16719
21874 42482 23973
11220 42482 25376
3655 42482 7559
6912 42482 2919
2208 42482 14048
4776 42482 13150
36636 42482 925
5650 42482 28002
18222 42482 41028
28431 42482 13281
7811 42482 35497
35452 42482 11013
19404 42482 29150
21241 42482 8946
1494 42482 73580
30954 42482 3996
4358 42482 46721
4514 42482 12195
18863 42482 3378
502 42482 51295
24109 42482 33344
18258 42482 14977
92 42482 3380
19843 42482 34636
29530 42482 13378
10533 42482 29660
21660 42482 16575
29878 42482 17446
4333 42482 70945
4955 42482 15034
20756 42482 1420
36048 42482 4728
3208 42482 18683
25308 42482 6365
23814 42482 23607
2109 42482 6373
5045 42482 46669
22252 42482 10560
3226 42482 10657
7098 42482 9918
18592 42482 1852
2978 42482 28094
8703 42482 18349
10153 42482 41762
26679 42482 8998
35793 42482 5699
9503 42482 24031
3111 42482 26307
23571 42482 18053
5200 42482 26361
12283 42482 44390
27643 42482 17103
3803 42482 60918
5419 42482 6257
19374 42482 20675
15492 42482 44352
3248 42482 25775
682 42482 1740
483 42482 37870
33280 42482 14638
10350 42482 26310
23036 42482 30845
7673 42482 35940
16371 42482 34275
13937 42482 37322
24777 42482 1161
12939 42482 19471
18843 42482 41927
26486 42482 27996
20778 42482 21253
22856 42482 4112
8832 42482 24200
32331 42482 16550
24671 42482 33362
1546 42482 31216
1667 42482 71282
12770 42482 45565
2875 42482 43291
1608 42482 50138
762 42482 34824
7365 42482 32775
7590 42482 7377
11916 42482 51553
2188 42482 57740
12032 42482 41713
12755 42482 51644
10445 42482 31394
15371 42482 8122
27733 42482 3130
19587 42482 32903
13321 42482 52120
3056 42482 33456
1813 42482 54405
9552 42482 35279
14754 42482 29874
7376 42482 37435
16639 42482 42168
28979 42482 3555
21887 42482 37488
34800 42482 8860
5712 42482 41529
29881 42482 11228
18386 42482 33331
3294 42482 38744
18253 42482 5452
19300 42482 5832
4207 42482 45582
31167 42482 19797
733 42482 11494
15532 42482 14575
35963 42482 8936
20410 42482 25522
28057 42482 8414
10748 42482 23567
2561 42482 47605
20541 42482 10769
772 42482 26855
7841 42482 26153
6932 42482 15647
10203 42482 25665
5274 42482 5419
30398 42482 20591
12757 42482 14965
6409 42482 49819
17009 42482 19156
26995 42482 10340
15551 42482 19869
31384 42482 3707
25161 42482 21707
24794 42482 505
1485 42482 43072
6513 42482 29719
12912 42482 7914
2563 42482 25475
9285 42482 3833
19899 40824 975
1545 40824 1332
28075 40824 1265
7013 40824 1020
29046 32621 12213
16498 32621 15809
32262 32621 47890
13238 32621 6034
36543 32621 39861
22342 32621 11972
2735 32621 4531
37369 32621 63407
26562 32621 18042
24274 32621 7289
25207 32621 41181
21279 32621 37970
28623 32621 31835
31459 32621 43131
23031 32621 27392
34210 32621 14997
39660 32621 47609
21602 32621 8907
15385 32621 11150
29070 32621 28832
7153 32621 4803
27145 32621 35248
30178 32621 21208
28180 32621 6150
40256 32621 38809
14143 32621 4678
18303 32621 32705
27060 32621 49346
27062 32621 38647
37684 32621 61266
37718 32621 6899
17589 32621 5350
36698 32621 28934
35495 32621 34433
28095 32621 45075
35927 32621 10040
9758 32621 5066
23685 32621 9451
22626 32621 13318
34539 32621 44573
34498 32621 32070
25506 32621 15724
38259 32621 49966
17876 32621 14375
31932 32621 44831
30035 32621 18988
36460 32621 63786
25706 32621 32679
25973 32621 31020
33345 32621 46470
22179 32621 20898
31504 32621 19987
39145 32621 20411
31900 32621 9096
30299 32621 26179
19170 32621 12523
36221 32621 44431
39093 32621 36477
20000 32621 33138
15921 32621 8501
37004 32621 55110
28003 32621 49198
36320 32621 28605
36829 32621 58017
32700 32621 30793
36425 32621 17619
27260 32621 33112
40689 32621 19927
40282 32621 17464
25741 32621 25370
12366 32621 8313
37169 32621 23224
22261 32621 36309
25102 32621 40212
31544 32621 25606
37559 32621 38287
11809 32621 4276
25573 32621 28245
38813 32621 27448
25549 32621 5245
39769 32621 50746
23772 32621 6451
18785 32621 19559
28412 32621 17669
36845 32621 11208
34165 32621 5620
30852 32621 41214
39679 32621 71942
27663 32621 23724
28934 32621 13991
12561 32621 22021
18061 32621 21835
40458 32621 60843
22226 32621 23888
34801 32621 15637
4995 32621 7299
21593 32621 4800
30714 32621 19100
28590 32621 27865
38597 32621 22397
36890 32621 34501
33059 32621 37322
24101 32621 17696
32285 32621 49042
27298 32621 49744
18969 32621 34867
35016 32621 62945
40708 32621 70399
22725 32621 9091
18490 32621 7985
24205 32621 16500
40905 32621 34919
40057 32621 42223
31954 32621 38967
30057 32621 54571
38074 32621 5770
35169 32621 40746
32004 32621 35915
29951 32621 9458
39183 32621 16017
29597 32621 17663
12802 32621 7067
39657 32621 57593
35464 32621 41403
38630 32621 41015
25708 32621 41106
35023 32621 52722
40141 32621 15573
20943 32621 23725
10175 32621 10019
29769 32621 33651
33961 32621 16640
23540 32621 8270
17920 32621 4927
11087 32621 7344
19254 32621 17717
33280 32621 40876
20519 32621 30745
31940 32621 36901
38458 32621 28853
35923 32621 54647
37460 32621 13763
37436 32621 63963
40050 32621 21344
39651 32621 62923
26157 32621 46578
34873 32621 58316
30989 32621 32534
38126 32621 19206
39431 32621 6037
9802 31866 75344
24304 31866 76824
10503 31866 76454
19820 31866 76707
280 40824 78
24742 40824 1087
23761 40824 1259
12669 40824 1279
30841 40824 160
41360 40824 1177
34044 40824 360
19448 40824 255
41892 40780 37678
42107 40771 44732
42544 40818 6504
42459 40805 17379
41821 40781 36925
42381 40793 26629
42004 40813 10943
29148 41390 79838
33319 41607 79838
41001 41467 79838
30751 41924 79838
29419 41850 79838
3826 33357 76930
4721 13209 76930
2431 37950 76930
2306 36331 76930
4537 17689 76930
2927 34609 76930
4683 23380 74470
3822 3465 74470
4003 2247 74470
3560 7236 74470
2336 2279 74470
4231 1854 74470
4790 13012 74470
36152 40146 76930
19961 37459 76930
16761 40434 76930
35370 33993 76930
39271 38409 76930
16968 38865 76930
34361 38931 76930
27303 37607 76930
16031 40367 76930
36488 32491 76930
25966 38355 76930
18138 38853 76930
17065 39696 76930
7652 40242 76930
37860 36729 76930
38649 36568 76930
13162 40090 76930
31857 38846 76930
35556 37811 76930
28663 42482 35101
34994 42482 33433
33929 42482 19669
32453 42482 61635
39417 42482 44855
31729 42482 41260
37309 42482 64798
28217 42482 44381
30545 42482 64157
41971 42482 35176
33684 42482 72461
10571 42482 62905
27273 42482 56408
25845 42482 44371
41512 42482 46797
13034 42482 76752
42232 42482 52226
3467 42482 76693
36948 42482 22650
9872 42482 71942
22097 42482 76548
40633 42482 9820
39018 42482 45421
13541 42482 65483
7451 42482 66716
14159 42482 53478
35311 42482 33082
29615 42482 77987
23833 42482 51635
29379 42482 41579
23329 42482 53294
21219 42482 74413
30588 42482 65520
27991 42482 41052
14741 42482 79799
31683 42482 64555
24171 42482 75740
29100 42482 69911
39970 42482 30891
33236 42482 22921
29241 42482 59255
13012 42482 77742
36148 42482 29410
38091 42482 42825
19695 42482 62578
36263 42482 67142
15755 42482 56719
31050 42482 40523
38506 42482 60492
37463 42482 55957
22160 42482 74430
35007 42482 16659
24510 42482 65846
42640 42482 72822
12441 42482 73678
24480 42482 36919
36124 42482 20657
5271 42482 74877
31873 42482 69977
9670 42482 67235
30048 42482 39638
14508 42482 76061
33828 42482 35506
37040 42482 22160
16070 42482 50196
34135 42482 76246
34610 42482 26381
39177 42482 30205
36751 42482 56290
30394 42482 36722
19805 42482 68115
27597 42482 60753
23348 42482 68386
27027 42482 71705
41704 42482 3659
20673 42482 44273
37642 42482 16258
26349 42482 36217
27528 42482 40864
38250 42482 57281
16906 42482 68338
35821 42482 19797
16524 42482 76003
32481 42482 39894
32846 42482 31936
34015 42482 79434
33586 42482 76090
31113 42482 49745
27281 42482 78653
11763 42482 67151
35269 42482 20638
23579 42482 37463
19512 42482 57197
29237 42482 48993
26287 42482 77395
20769 42482 78670
20886 42482 71558
35624 42482 67868
14854 42482 70860
32065 42482 60506
35296 42482 75617
10243 42482 74076
36266 42482 34630
24025 42482 79254
27768 42482 61360
31347 42482 79565
24710 42482 75572
38389 42482 8433
26192 42482 49328
36902 42482 41832
38234 42482 58076
21579 42482 56074
13380 42482 58323
31698 42482 35873
22301 42482 55152
34680 42482 22354
25260 42482 56516
28310 42482 56083
20245 42482 63892
42510 42482 20218
31372 42482 39992
31397 42482 31163
30867 42482 29622
32927 42482 46030
40449 42482 13624
32935 42482 45361
26136 42482 41212
20813 42482 73574
39897 42482 46463
41498 42482 23886
12638 42482 57009
41508 42482 58333
37098 42482 17594
33248 42482 49149
32534 42482 72661
25440 42482 70800
14662 42482 67120
34931 42482 23675
22502 42482 75885
17394 42482 51110
29237 42482 39605
33226 42482 27381
27887 42482 71367
18730 42482 71508
38908 42482 48102
42470 42482 35293
25198 42482 77073
28153 42482 70341
27067 42482 65981
42478 42482 46168
42134 42482 20689
10581 42482 71786
42304 42482 25571
11753 42482 78930
31777 42482 20423
23538 42482 41644
29350 42482 51825
17199 42482 79173
24783 42482 68689
20476 42482 61357
40364 42482 49724
7037 42482 70111
25693 42482 63453
36968 42482 76048
32983 42482 67627
34003 42482 26441
31335 42482 66466
35009 42482 27022
36579 42482 78878
34887 42482 71412
22429 42482 77225
15023 42482 70404
39565 42482 38860
24024 42482 47773
28438 42482 45373
39576 42482 19558
35200 42482 57651
22377 42482 47900
30500 42482 69324
31300 42482 57535
1707 26465 76753
1707 12490 75672
1707 16774 76822
1707 22125 76167
1707 8126 75914
1707 2330 75610
1707 25722 2514
1707 17352 2797
1707 32935 2904
1707 30078 3464
9937 31866 76712
8430 31866 76517
25034 31866 76928
41294 40794 26112
42411 40739 70603
42262 40740 69533
41605 40739 70275
41975 40749 62029
41690 40777 39926
40969 32768 68050
40969 34418 56900
40969 33963 50456
40969 35601 13284
40969 38338 10951
40969 38421 4961
40969 38086 5857
40969 38342 19837
40969 32930 7953
40969 37544 22812
40969 32821 36469
40969 37237 15310
40969 35172 25561
40969 34105 34158
40969 39809 6555
40969 35753 18220
40969 34128 14046
40969 32908 10921
40969 39725 10452
40969 35830 24484
40969 39646 4394
40969 37326 26147
40969 37092 10756
40969 35342 17874
40969 34710 23050
40969 33252 19294
40969 32782 50020
32953 31890 4026
40969 39865 68482
40969 40286 29022
40969 35702 61217
40969 37320 59524
40969 40134 60939
40969 40774 29598
40969 39711 32636
40969 35453 66569
40969 40483 8457
40969 40318 16950
40969 39772 12034
40969 40622 55398
40969 40126 40749
40969 36819 63073
40969 39267 37694
40969 40719 64585
40969 39629 68979
40969 38416 50899
40969 33795 68447
40969 35854 54637
40969 37490 65711
40969 40052 70093
40969 38779 23956
40969 39647 55658
40969 33839 70036
40969 39471 67824
40969 38728 47243
40969 38805 32089
40969 39847 70507
40969 37065 57303
40969 39426 63444
40969 36130 55438
40969 39711 59450
40969 39739 52130
40969 40523 67726
40969 40067 24879
40969 39090 62534
40969 35896 59163
40969 35402 72494
40969 39474 15684
40969 33180 70612
40969 38431 72592
40969 40353 74167
40969 37954 29179
40969 36686 48965
40969 39965 42684
40969 38117 53249
40969 38085 61087
40969 38716 62261
40969 34723 68681
40969 37576 44203
40969 37054 36621
40969 38089 72883
40969 38688 71734
40969 39836 73684
40969 37503 46816
40969 38860 55783
40969 37836 30821
40969 36481 57630
40969 37896 55773
40969 38168 28106
40969 39215 38774
40969 40121 71206
40969 39339 27589
40969 38136 69790
1085 40815 8920
1382 40755 57948
825 40809 13694
1209 40802 19655
1588 40783 34631
1256 40797 23164
40969 1180 75475
40969 28210 74669
40969 21357 74877
40969 2300 76352
40969 12049 75629
1707 11526 3534
1707 3449 3698
1707 4733 2282
1707 6481 3080
984 40753 59451
225 40781 36785
52 40811 12334
672 40744 66211
430 40735 73556
100 40764 50063
1337 40742 68328
38130 7346 76930
37985 10314 76930
38498 6270 76930
38641 3482 76930
39637 10670 76930
38617 12028 76930
5125 29831 74470
3957 29847 74470
3108 19841 74470
2692 26272 74470
2213 6915 74470
3684 19129 74470
37427 26946 75382
37427 30054 76259
37427 30218 75502
37427 20881 76008
5560 21776 2450
5560 27457 1890
5560 19533 1943
5560 22643 1975
1180 41009 79838
5560 12488 76782
5560 27969 74999
5560 29298 75409
5560 15898 76843
39486 447 75075
17448 41732 0
7941 41171 0
19359 41585 0
40872 447 75844
4757 15788 76930
4913 22501 76930
5228 28085 76930
5216 4861 76930
4981 32102 76930
5241 28834 76930
4786 21186 76930
5560 981 74536
5560 10476 75567
5560 17783 75097
5560 13240 74477
42676 41880 23197
42676 42326 24264
42676 42019 29788
42676 42363 2101
42676 41741 11318
42676 41709 5150
5560 1615 76037
5560 5523 76279
5560 8566 75951
5560 1971 74476
5560 14137 75507
39305 26446 1789
38092 13162 1789
39032 23097 1789
37861 12777 1789
1947 34826 1789
3815 33511 1789
4612 32751 1789
2528 9738 1789
3311 23977 1789
2316 38643 1789
1745 12548 1789
3792 26799 1789
3354 19295 1789
40969 16838 3493
40969 40056 1837
40969 15788 3196
40969 26547 2822
17579 33390 76930
34885 32400 76930
10794 34448 76930
14666 32522 76930
9490 35149 76930
23301 33840 76930
17405 35151 76930
27346 33917 76930
9052 36788 76930
11569 37302 76930
4157 38909 76930
11556 32436 76930
24255 32522 76930
13088 35029 76930
8758 32186 74470
5153 31980 74470
28538 40764 50271
34636 40766 48519
40750 40818 6894
40867 40737 71997
24320 40751 61031
28643 40782 35565
18888 40759 54084
36177 40782 35837
29756 40736 72605
38265 40738 71627
18409 40763 50841
32492 40794 26126
29979 40738 71163
20300 40772 43872
35412 40768 46694
33179 40805 17507
27630 40772 43467
36013 40800 21520
26310 40781 36099
18199 40766 48730
19857 40761 52742
38449 40806 16149
2473 40732 76102
40681 40755 57356
30131 40741 69245
21749 40773 42770
9757 40745 65784
25656 40741 69172
36797 40762 51481
37259 40786 32411
9751 40737 72241
40572 40749 62370
35562 40731 76692
36279 40748 63521
28516 40771 44350
6497 40737 71641
29379 40775 40982
10978 40739 70165
39345 40745 65860
35347 40753 59228
26977 40745 65858
38735 40819 6159
29754 40765 49698
39202 40802 19233
10884 40734 74274
24836 40785 33561
27225 40778 38886
7939 40738 70970
36731 40756 57007
29277 40753 58854
40720 40778 39202
21498 40748 63480
20439 40760 53314
19072 40731 76552
34909 40806 16258
38687 40763 50956
39689 40763 51225
9516 40747 63883
37470 40810 13116
27296 40765 49367
16471 40735 73342
36190 40766 48773
16316 40749 62289
8083 40732 76198
29200 40760 53617
31266 40777 39828
27818 40769 46016
14828 40743 67204
38754 40760 53218
34995 40764 50136
38270 40743 66919
31363 40789 29717
29714 40754 58264
35818 40778 38517
24915 40751 61061
24175 40778 39305
25654 40757 55617
27009 40771 44369
30197 40772 43699
35227 40740 69892
34262 40770 45304
24572 40772 43931
25155 40772 43735
30323 40791 28141
32874 40775 41746
40738 40812 11306
10962 40738 71256
18054 40750 61575
24293 40761 52917
30647 40762 52092
23108 40768 46854
19307 40747 64253
19183 40768 46718
12012 40743 67463
33693 40803 18705
22581 40757 56002
11245 40742 67923
34163 40783 34965
39532 40818 6358
26162 40777 39810
38476 40778 39173
18620 40751 60533
19251 40744 66675
40326 40773 42665
36596 40750 61845
32172 40759 54634
14829 40736 72941
38529 40788 30816
7262 40735 73823
8280 40744 66654
28720 40745 65545
33277 40786 32654
30080 40757 56134
39763 40767 47941
11972 40739 70213
26961 40774 42526
29263 40785 33214
4150 40731 76668
35071 40792 27934
12107 40731 76795
39169 40798 22575
37647 40754 58372
28762 40779 38038
20287 40734 74324
34334 40742 67948
26221 40758 54701
24263 40782 35874
14216 40739 70190
19843 40734 74250
21697 40770 45404
32103 40793 27011
21284 40775 41519
28629 40761 52795
21631 40739 70383
17246 40755 57177
39011 40819 5616
36516 40808 14957
21117 40763 51078
36945 40775 41708
37137 40751 61074
36387 40802 19717
32643 40795 24917
36494 40801 20209
27251 40788 30732
19347 40738 71033
13996 40737 71712
36981 40800 21531
23240 40739 70532
26022 40761 52345
26093 40734 74853
33062 40752 60345
36748 40784 33919
35406 40773 43091
31826 40762 51851
32176 40741 68781
25187 40762 51620
13225 40747 63564
22870 40754 58587
25298 40739 70131
1707 27896 3990
1707 7665 3164
1707 3204 2979
1707 11862 4019
1707 39145 31313
1707 35474 9785
1707 34931 9272
1707 33934 9728
1707 39977 67734
1707 36557 5612
1707 37652 28063
1707 40517 23166
1707 40226 18974
1707 40560 53861
1707 37341 15845
1707 40177 25930
1707 39523 19279
1707 40043 36240
1707 34442 14236
1707 39507 12504
1707 40137 11327
1707 38925 19863
1707 36670 4440
1707 38546 48109
1707 36917 8562
1707 38386 25410
1707 38452 54902
1707 39739 40646
1707 40477 52856
1707 39459 8255
1707 37953 46657
1707 34949 8135
1707 39449 44571
1707 37398 17883
1707 40396 73016
1707 39904 63314
8740 32111 4026
5560 15815 3727
5560 23032 3172
5560 15338 3084
36068 36912 76930
40195 39718 76930
15354 37845 76930
23916 35650 76930
33160 34864 76930
31288 36687 76930
22214 37743 76930
34939 39590 76930
35193 40658 76930
17429 39380 76930
26856 34811 76930
12784 39653 76930
33876 38069 76930
20335 40637 76930
32206 35796 76930
37647 39717 76930
32077 37098 76930
6321 40148 76930
35624 31941 74470
31015 32601 74470
4726 10209 1789
2205 2950 1789
2991 8733 1789
3068 10249 1789
3691 9523 1789
4302 20920 1789
4620 2668 1789
40969 5786 3853
40969 25968 3670
40969 37474 2524
40969 30022 3927
37570 1715 4026
40262 376 4026
37977 8866 4026
37482 30288 4026
38180 2468 4026
39041 6234 4026
40969 21073 1827
40969 9112 2719
40969 26121 2116
40969 4861 2114
40969 20650 2224
5560 4053 3117
5560 627 2596
5560 7151 2108
5560 22195 1858
0 41408 64055
0 41953 62583
0 41091 59484
0 41440 57017
0 41502 77844
0 42132 67363
0 41939 74372
37427 30145 74514
37427 31173 76177
37427 21993 76024
37427 28950 74697
12585 31866 3374
15552 31866 3080
7992 31866 2181
7215 31866 3149
26698 31866 2683
14339 31866 1922
35697 31866 2415
24388 31866 1832
42402 40731 78336
32983 41356 0
30568 41781 0
24377 41815 0
35476 41362 0
39667 9605 4026
37478 26441 4026
38732 7111 4026
40338 2736 4026
2504 9875 4026
4424 6277 4026
2335 24757 4026
2384 1922 4026
3998 6641 4026
4555 8465 4026
2363 10471 4026
1707 4128 76387
1707 10831 75349
1707 5400 76262
1707 3600 75170
1707 27819 76751
37427 10324 2663
37427 25596 3988
37427 15604 3490
37427 1849 2825
12545 32621 73770
26527 32621 57588
16621 32621 41226
35274 32621 72808
25524 32621 65949
21480 32621 72294
3043 32621 43877
7440 32621 37663
8915 32621 71393
29182 32621 59103
25709 32621 48812
2436 32621 57905
2909 32621 65607
8521 32621 49741
14322 32621 39200
18392 32621 70222
3062 32621 50020
13591 32621 55679
13021 32621 35215
6907 32621 38308
23168 32621 71209
6502 32621 26235
17036 32621 52706
8283 32621 70753
16064 32621 39225
4642 32621 49325
17960 32621 64974
26677 32621 51575
5318 32621 27247
3454 32621 63011
7578 32621 67983
2776 32621 39869
14613 32621 43377
29403 32621 61188
2176 32621 16785
8505 32621 42233
16726 32621 66692
25807 32621 71270
7691 32621 50463
32245 32621 74215
8450 32621 22606
26577 32621 65564
4252 32621 67045
10667 32621 57932
38361 32621 71334
3497 32621 70430
2961 32621 16040
15097 32621 70251
36723 32621 71442
16487 32621 47489
14061 32621 67929
4522 32621 16103
15348 32621 44278
9408 32621 28591
37228 32621 69808
7476 32621 23261
24294 32621 69185
37893 32621 72770
19174 32621 39409
23459 32621 62162
22622 32621 41994
8793 32621 74151
18137 32621 53213
7115 32621 67667
6260 32621 64054
13451 32621 25556
18501 32621 43358
32671 32621 69501
7345 32621 51573
7715 32621 27360
19210 32621 68066
6188 32621 23933
20887 32621 58045
3903 32621 41933
28763 32621 65081
5787 32621 39389
15240 32621 64430
18909 32621 71004
11453 32621 69134
23857 32621 60532
15086 32621 54388
16925 32621 47132
22547 32621 56406
11391 32621 51940
6698 32621 51042
3113 32621 71367
28041 32621 58528
7970 32621 57710
38516 32621 72007
28659 32621 70565
3459 32621 54151
22852 32621 63540
9323 32621 26351
4321 32621 33273
4889 32621 31880
3047 32621 68289
8013 32621 43674
21261 32621 59941
4050 32621 57374
7432 32621 49264
4948 32621 11495
29344 32621 72292
17666 32621 57043
8492 32621 46296
26221 32621 48277
11961 32621 45639
7110 32621 18979
18147 32621 55789
7573 32621 44940
1856 32621 23529
9455 32621 34404
5171 32621 54334
29510 32621 55102
13312 32621 68680
6027 32621 61806
14797 32621 53436
16480 32621 57839
5922 32621 28350
26666 32621 70618
7523 32621 29070
14684 32621 56494
15544 32621 45658
11928 32621 64243
13912 32621 37653
5099 32621 34402
11359 32621 37430
2795 32621 44450
6890 32621 24280
3183 32621 44797
13537 32621 45412
4266 32621 26966
21366 32621 62557
35054 32621 74364
12550 32621 35786
3610 32621 12315
17969 32621 57458
22157 32621 71423
3983 32621 15540
32722 32621 67005
12817 32621 36666
4470 32621 31394
19947 32621 60660
17735 32621 72329
20765 32621 63715
10755 32621 59307
18717 32621 46842
8921 32621 56241
30149 32621 71216
15667 32621 52819
27391 31866 3774
14551 31866 2704
7615 31866 3765
19795 31866 3939
5560 30244 2034
5560 27056 3412
22044 42482 79744
35985 42482 69919
39951 42482 17888
42279 42482 54394
37383 42482 57289
33286 42482 18945
38604 42482 26635
40445 42482 64415
26486 42482 50602
25803 42482 66995
10098 42482 66450
17508 42482 59992
38376 42482 45679
24127 42482 53211
34575 42482 42189
14516 42482 75481
18660 42482 62134
40879 42482 30043
35677 42482 72688
38309 42482 62472
22768 42482 53403
15457 42482 79833
594 42482 79736
31382 42482 25885
31078 42482 33517
33044 42482 74368
28487 42482 36900
33402 42482 41770
14075 42482 74020
40389 42482 24820
28617 42482 51295
33953 42482 43503
40157 42482 37803
39556 42482 69778
35726 42482 25182
42487 42482 50454
41505 42482 37929
35661 42482 28092
26270 42482 46876
25640 42482 62280
25889 42482 42109
9380 42482 62512
24505 42482 76348
38631 42482 10257
41693 42482 77593
17697 42482 61604
19913 42482 78745
20111 42482 56832
5385 42482 73099
34523 42482 44065
17226 42482 67099
27133 42482 40176
15964 42482 61507
34940 42482 27717
25011 42482 70371
23529 42482 59501
38481 42482 12171
26037 42482 50183
21934 42482 67936
41354 42482 5473
42193 42482 58456
19670 42482 44611
27932 42482 74409
5733 42482 77843
22497 42482 46861
26985 42482 33347
20042 42482 56192
38476 42482 69268
27967 42482 64426
32576 42482 62319
16919 42482 70457
25412 42482 73472
40134 42482 71411
39473 42482 35291
40360 42482 11809
40482 42482 27052
28276 42482 60494
34475 42482 30693
20217 42482 53801
34333 42482 77878
40083 42482 51442
37206 42482 58750
24594 42482 42010
36774 42482 45513
20285 42482 73204
30550 42482 68829
32014 42482 44350
34947 42482 39588
39694 42482 79801
36928 42482 38662
40775 42482 28182
40506 42482 74067
35428 42482 50652
33342 42482 31182
34815 42482 69965
31777 42482 53373
41393 42482 9951
33421 42482 53117
40875 42482 55751
25831 42482 47626
27982 42482 37443
12719 42482 69351
32422 42482 73885
36719 42482 70749
7369 42482 69410
28664 42482 32066
33645 42482 20114
17215 42482 74221
32668 42482 43558
22685 42482 39453
36898 42482 27172
41106 42482 54425
24495 42482 71773
26317 42482 76247
16976 42482 75081
36081 42482 36957
30129 42482 32959
35382 42482 48071
13539 42482 69760
30225 42482 50027
20531 42482 79747
37088 42482 24958
35269 42482 53153
26656 42482 61914
33668 42482 57606
8938 42482 76004
28788 42482 26589
28613 42482 71639
30617 42482 27870
25040 42482 64302
21884 42482 48644
15370 42482 62791
40601 42482 7410
23965 42482 57599
30172 42482 75835
28380 42482 69222
18422 42482 57757
35926 42482 71086
20366 42482 44915
33010 42482 24041
36585 42482 69335
25057 42482 49962
16811 42482 73361
31638 42482 62821
24806 42482 73521
35340 42482 15435
42480 42482 29742
20960 42482 41360
31239 42482 35968
42129 42482 51137
11793 42482 65365
37939 42482 10608
32094 42482 46519
40255 42482 63137
39345 42482 56749
35038 42482 37109
30926 42482 57990
39630 42482 12634
26501 42482 30536
27773 42482 33977
16140 42482 76773
40416 42482 57747
33922 42482 44491
13601 42482 63024
32181 42482 55695
33186 42482 44785
42002 42482 70573
42127 42482 21292
28911 42482 46302
31525 42482 38489
17447 42482 75151
25569 42482 54647
21134 42482 77377
36376 42482 48115
37246 42482 61056
15284 42482 76406
41362 42482 28257
30584 42482 66719
4363 6646 74470
1867 897 74470
4470 11656 74470
4000 18110 74470
4443 4900 74470
3344 11772 74470
5258 26461 74470
2437 0 2134
0 42374 2300
0 41611 28506
0 41469 4212
0 41603 16916
0 41935 39536
0 41339 2682
0 41718 19947
37952 27649 76930
40929 12771 76930
40740 22732 76930
39875 15041 76930
38099 33521 76930
39673 27758 76930
40330 17167 76930
40182 30982 76930
39687 8055 76930
37986 3881 76930
38992 6513 76930
37564 30054 76930
37674 1002 76930
37427 26170 76489
37427 2123 75827
37427 19750 76456
31058 32091 4026
28259 32220 4026
30952 40738 71178
31989 40753 59460
10033 40742 68380
36754 40742 68210
2970 40731 76815
35690 40757 55775
37488 40762 52181
34625 40783 35214
35837 40785 33234
38902 40810 12921
37210 40787 31971
40465 40793 26501
36681 40778 38586
23317 40735 73624
30887 40763 51088
25550 40747 64384
21504 40734 74645
18653 40745 65845
22493 40764 50667
6556 40732 75878
7653 40740 69413
40717 40735 73659
37194 40767 47434
33581 40749 62506
22204 40752 59948
37531 40768 46882
29984 40764 50201
26832 40739 70354
37130 40793 27108
39514 40811 12550
25876 40786 32443
33202 40789 30237
11798 40744 66619
26702 40759 54184
20649 40732 76247
13917 40758 55541
23109 40762 52053
38829 40744 66058
23745 40732 75982
26593 40787 31634
8189 40742 68486
40707 40803 18548
28409 40741 68827
28728 40790 28990
23531 40769 46497
24657 40739 70170
39504 40765 49352
27838 40771 44944
38702 40784 33745
29759 40781 36194
21921 40767 47806
19636 40752 59990
25913 40753 59467
26592 40766 48858
36685 40788 30652
24398 40752 60253
20364 40773 42939
37428 40773 42867
17364 40750 61379
33173 40749 62061
15928 40747 63704
37023 40744 66610
39840 40786 32451
38651 40753 59473
21194 40760 53795
33504 40774 41937
30490 40773 42577
11026 40745 65475
10275 40744 66199
40506 40790 29085
40853 40801 20177
32287 40779 38495
32167 40772 43510
40132 40814 10020
39144 40758 54810
35085 40791 28747
38832 40775 41608
32626 40753 59453
19130 40755 57938
30562 40785 33061
40379 40786 32677
21554 40764 49835
39208 40787 31881
36701 40804 17729
28541 40747 63610
19705 40747 64065
34338 40733 75534
37717 40785 33356
33937 40771 44380
9277 40746 64872
24755 40773 42603
35869 40745 65292
11021 40744 66726
32846 40787 31317
38068 40746 64908
24246 40753 59066
34649 40779 37956
19425 40758 54981
23353 40752 59858
40713 40760 53346
14451 40753 59292
32022 40743 67336
21775 40760 53407
15902 40736 73185
28082 40762 52043
35813 40740 69652
21870 40766 48451
29542 40731 76651
26114 40764 50212
40037 40776 40487
19838 40770 45743
34754 40756 56332
25469 40768 47149
31848 40769 45806
14001 40759 53919
23831 40783 34793
34598 40737 71840
26927 40754 58329
36414 40741 68664
4840 40732 76126
17442 40761 52495
28078 40738 70944
14527 40738 71566
27640 40787 31909
27654 40775 41068
32235 40749 62389
36885 40758 54766
26194 40780 37028
38782 40745 65188
12767 40744 66702
32104 40739 70127
24702 40781 36305
13381 40750 61952
33777 40788 30930
9241 40744 66503
13854 40745 65607
31569 40744 66334
32358 40733 75494
40391 40783 34974
31076 40752 60347
25487 40744 66370
25094 40747 64046
35319 40756 56536
40452 40807 15357
16136 40756 56993
33651 40778 38855
36581 40781 36268
20332 40735 73721
35613 40742 68273
27537 40756 56467
33547 40778 39311
37381 40736 72675
8546 40734 74531
20325 40733 75584
31105 40744 66411
3470 2306 76930
2966 26064 76930
2484 3199 76930
2578 10679 76930
3373 7336 76930
3043 23800 76930
2284 32621 13152
10644 32621 65274
16548 32621 31673
13580 32621 33189
11235 32621 73491
24585 32621 65037
12250 32621 55506
22156 32621 65267
22798 32621 55663
9685 32621 27004
10361 32621 22149
32404 32621 59216
6765 32621 25720
19930 32621 42775
17114 32621 41531
23165 32621 71757
17180 32621 56318
7068 32621 65328
19272 32621 45768
22940 32621 51856
2633 32621 22597
8804 32621 64727
16713 32621 61942
16425 32621 45870
11947 32621 65053
11515 32621 69926
3052 32621 19473
19365 32621 48879
29599 32621 60516
25048 32621 62785
30328 32621 70730
4564 32621 58412
14800 32621 62423
11998 32621 42834
3903 32621 35650
13268 32621 64046
3231 32621 27087
19908 32621 72090
12070 32621 52262
15075 32621 64021
17282 32621 34812
22358 32621 45309
9939 32621 52102
3405 32621 7134
17420 32621 44326
12138 32621 43831
25439 32621 64840
18876 32621 50387
15579 32621 57315
7880 32621 25999
28517 32621 69770
23944 32621 68856
3168 32621 46240
8335 32621 36105
5298 32621 48191
29485 32621 73190
3136 32621 12454
19350 32621 44923
26646 32621 64076
22161 32621 73489
10633 32621 52005
25453 32621 54019
23829 32621 50182
4857 32621 71988
13741 32621 48212
23639 32621 59800
19643 32621 63644
4990 32621 34943
6606 32621 39854
15962 32621 31988
3727 32621 54687
6834 32621 35830
21006 32621 69128
13843 32621 44574
15203 32621 45166
2009 32621 15142
11418 32621 32384
24648 32621 64401
24503 32621 45520
9884 32621 18860
31879 32621 58853
10485 32621 35085
17238 32621 36642
1869 32621 42816
17946 32621 51534
31059 32621 71842
4622 32621 60951
5058 32621 46709
17699 32621 41080
13978 32621 27838
32790 32621 62665
5797 32621 65271
7937 32621 24494
29278 32621 64512
8923 32621 34228
3013 32621 32490
9312 32621 65913
19101 32621 64448
17061 32621 62406
3294 32621 33572
11331 32621 66212
23775 32621 61641
25004 32621 63311
17638 32621 38002
24069 32621 44447
1865 32621 33697
29405 32621 57069
4267 32621 70206
2815 32621 50673
2178 32621 65125
2463 32621 36830
20866 32621 51296
9213 32621 20072
3304 32621 30935
16187 32621 52086
9924 32621 48549
30649 32621 69053
2751 32621 6179
10375 32621 72023
3980 32621 56816
7467 32621 58544
10548 32621 38857
18368 32621 37239
30232 32621 61462
12963 32621 41792
7561 32621 25507
2348 32621 42163
2671 32621 62826
5469 32621 44840
25272 32621 46711
8963 32621 48682
23252 32621 48022
5649 32621 46691
31395 32621 59491
25162 32621 70806
18631 40802 19332
8167 40760 53565
12853 40796 24623
6692 40822 3137
14232 40807 15637
8242 40767 47634
17704 40786 32101
2682 40744 66624
7512 40823 2204
15651 40791 28132
5092 40789 30069
19297 40818 6658
15810 40795 25460
8588 40802 19651
33518 40819 6000
8281 40769 46157
6317 40792 27293
6000 40802 19767
27176 40813 10644
35681 40823 2874
10082 40772 43481
8205 40801 20199
20724 40804 18078
12187 40765 49175
2426 40737 72064
29213 40819 5734
4743 40766 48594
31015 40808 14485
3536 40749 62427
25698 40799 21841
5625 40754 58062
17439 40798 22625
4563 40802 19776
1729 40790 29596
18987 40797 23588
27506 40818 6443
25532 40808 15005
31557 40811 12328
11556 40801 20573
20426 40820 4730
21478 40797 23225
12921 40814 10240
17041 40783 34955
9736 40808 15070
2767 40755 57645
16418 40778 38762
38370 40818 6623
21071 40779 38241
6459 40747 63916
4623 40769 46247
4919 40798 22428
15039 40773 42703
6897 40794 25925
29062 40813 11094
21173 40781 36721
27828 40821 4160
13520 40788 31199
7710 40818 6481
3833 40769 46429
14160 40789 30153
23037 40792 27424
17234 40771 44896
20611 40824 1910
9368 40807 15576
14868 40815 8784
4910 40781 36215
1848 40816 8214
7953 40790 28978
5833 40803 19070
9362 40800 21084
11993 40823 2451
6788 40781 36241
7940 40769 46599
28750 40795 24937
2520 40744 66154
16438 40807 15422
2965 40766 48963
18826 40816 8410
4228 40809 13822
2595 40819 5912
4658 40769 45788
4940 40742 67650
2631 40764 50622
9448 40778 39016
28219 40802 19592
13664 40787 31963
6109 40784 34035
1918 40819 5391
4554 40772 43915
19065 40792 27346
20180 40801 20361
16140 40772 43802
18554 40773 43081
6906 40771 44666
11358 40783 35155
16664 40773 43019
32364 40822 3827
3398 40747 64437
26959 40794 26433
10688 40764 50156
9161 40757 56108
4139 40803 18510
10065 40801 20189
7227 40779 38011
9528 40751 60675
29907 40824 2062
9203 40799 22008
11599 40762 51626
5195 40812 11292
5031 40797 23843
30431 40800 21044
7559 40820 5003
6179 40821 4160
14722 40772 43981
9309 40801 20483
5432 40808 15031
8483 40823 2687
6027 40787 31901
22044 40819 6152
4447 40776 40726
17647 40772 43399
30330 40823 2707
20232 40776 40345
21970 40788 31008
16145 40816 8567
28063 40798 22939
32629 40806 16577
3286 40792 27643
5583 40781 36843
11897 40791 28825
27090 40795 25495
5333 40749 62171
22286 40793 26822
8885 40784 34252
6155 40770 45734
3423 40815 9358
21617 40795 25115
12988 40769 46096
7927 40774 42056
11593 40804 17616
21551 40796 24055
16212 40782 35386
6723 40801 20097
10790 40756 56937
14430 40799 21630
15122 40805 17244
20668 40796 24233
27883 40815 9064
29944 40810 13069
8835 40754 58024
10640 40811 12063
9261 40817 7039
9486 40782 35614
9158 40749 62333
13939 40769 46247
2351 40773 42891
3912 40788 30789
8542 40789 29995
4647 40751 60424
10381 40817 7626
1707 19553 2757
1707 12996 2137
1707 19451 1875
1707 27641 2628
1707 33411 2788
16578 33260 1789
25177 33602 1789
10703 37328 1789
11615 37850 1789
8744 37561 1789
10031 37362 1789
2391 40541 1789
2445 39827 1789
12198 34164 1789
20309 32307 1789
10515 35647 1789
23069 35324 1789
12536 35247 1789
26794 34292 1789
10798 34609 1789
28650 31938 74470
10501 32324 74470
40987 40731 78241
1707 34293 68910
1707 40527 76556
1707 33524 38721
1707 38469 57201
1707 33000 9940
1707 35327 38045
1707 35027 57585
1707 37618 50219
1707 33685 18180
1707 35678 66723
1707 34985 33383
1707 38871 63268
1707 36438 70007
1707 37514 55813
1707 37858 75938
1707 36064 71578
1707 34355 67343
1707 35673 72683
1707 35671 41973
1707 39161 63790
1707 33450 25277
1707 38761 73120
1707 37412 62278
1707 35615 73794
1707 32973 23301
1707 37935 58105
1707 32661 19914
1707 35921 41256
1707 36248 74986
37427 25276 2925
37427 11809 2397
37427 17818 2828
37427 18479 1988
40969 19206 75093
40969 16807 74875
40969 25039 74845
40969 6399 75109
1707 35030 53482
1707 36185 65630
1707 33693 16643
1707 34879 42329
1707 32977 73514
1707 36237 62014
1707 37361 52983
1707 36736 46578
1707 34983 40199
1707 33802 42053
1707 35462 53624
1707 34756 50592
1707 33966 52464
1707 34056 69949
1707 33722 68874
1707 37950 70106
1707 37101 51726
1707 40054 71146
1707 38482 60751
1707 32996 31960
1707 34305 70811
1707 38779 64425
1707 33384 71203
1707 34594 58220
1707 36280 39565
1707 39538 72846
1707 33542 47328
1707 38100 55659
1707 32861 47813
37427 9194 2530
37427 8633 3221
37427 1828 2118
37427 8494 2673
24811 41286 79838
1395 42307 79838
10398 41366 79838
0 41022 77824
41730 40809 13914
42309 40778 38628
42393 40817 7755
42570 40767 47595
42006 40800 21154
42312 40782 35942
35123 32621 6047
37698 32621 60540
29172 32621 10203
29275 32621 23398
37715 32621 66328
24880 32621 19173
32522 32621 37133
11880 32621 12533
39748 32621 29380
39346 32621 64482
33270 32621 17558
20816 32621 5552
31651 32621 21898
35043 32621 29301
35432 32621 37569
20713 32621 27235
36609 32621 60847
35531 32621 31260
32813 32621 23323
17846 32621 25708
38616 32621 56266
22824 32621 34981
17035 32621 25674
4063 32621 4373
24266 32621 33005
28419 32621 9159
40746 32621 54287
24549 32621 41701
32008 32621 47387
20043 32621 24395
36307 32621 9107
38483 32621 66641
20598 32621 11879
15453 32621 20905
30741 32621 51998
31347 32621 34585
31222 32621 47935
25783 32621 9685
38780 32621 57677
36595 32621 8618
39157 32621 7433
27006 32621 29862
20083 32621 31664
30433 32621 47548
40337 32621 9443
18832 32621 29430
27682 32621 30496
27666 32621 28934
26954 32621 47919
36840 32621 22203
25523 32621 13373
34415 32621 39850
39989 32621 35846
37757 32621 26257
37248 32621 57073
32521 32621 52559
6846 32621 10159
17213 32621 10189
18861 32621 8454
36611 32621 27624
35702 32621 7572
35284 32621 35929
19430 32621 14962
9015 32621 7741
30647 32621 14968
32809 32621 56137
33502 32621 60401
28818 32621 50030
28855 32621 20609
37836 32621 49212
39514 32621 53256
7270 32621 10684
14474 32621 12518
39970 32621 56650
26550 32621 12743
11620 32621 10319
29336 32621 36548
32274 32621 57160
29182 32621 16282
30926 32621 43261
21483 32621 15064
39426 32621 50007
14043 32621 15679
36384 32621 33717
35271 32621 23918
38038 32621 9859
35120 32621 20605
26981 32621 26087
23878 32621 38777
24496 32621 32301
32945 32621 17915
14983 32621 15508
13249 32621 20535
29507 32621 25475
34749 32621 8642
39930 32621 60186
39221 32621 68261
4367 32621 5962
32111 32621 14255
25338 32621 19163
19254 32621 24205
14462 32621 16013
14597 32621 23606
38506 32621 19431
39889 32621 39780
37437 32621 14253
28800 32621 35371
40876 32621 48110
18614 32621 14558
23014 32621 18015
16637 32621 28640
22206 32621 30667
37981 32621 17027
29863 32621 30335
39539 32621 35626
37966 32621 12727
37819 32621 36033
12929 32621 18744
38023 32621 52298
8565 32621 12195
32314 32621 21318
30515 32621 32774
37287 32621 53399
37004 32621 4212
34360 32621 52238
31060 32621 25785
8350 32621 6838
28450 32621 13641
30941 32621 35423
23968 32621 19308
36378 32621 26638
33107 32621 34702
27649 32621 27636
30533 32621 46266
27405 32621 14238
32839 32621 40854
27654 32621 39233
20060 32621 26881
36082 32621 23145
37977 21813 1789
37434 14130 1789
38910 24319 1789
38520 20859 1789
37904 28106 1789
37501 28714 1789
39846 32281 1789
35752 32175 4026
11347 41291 0
7511 41291 0
21438 41395 0
17779 41200 0
13290 39449 1789
33673 37331 1789
23925 37417 1789
8805 39655 1789
36796 33011 1789
19093 39300 1789
38156 34200 1789
36694 39851 1789
10748 40484 1789
29993 35114 1789
38473 34620 1789
28718 36712 1789
21443 40251 1789
36601 37051 1789
31578 33744 1789
35469 34131 1789
11115 39124 1789
23810 39288 1789
13318 38644 1789
5560 13108 76842
5560 25271 76613
5560 26224 76476
5560 20304 76362
39121 41433 0
29312 42014 0
28963 41618 0
40969 36806 9435
40969 35032 45779
40969 34978 18542
40969 37093 5333
40969 34093 4461
40969 35412 44418
40969 35342 9756
40969 34033 44614
40969 33471 11576
40969 34420 35180
40969 36003 5700
40969 35941 17778
40969 35629 21739
40969 32926 12257
40969 32710 34097
40969 37959 20056
40969 34288 12747
40969 34915 37868
40969 35152 41758
40969 33357 28155
40969 33649 31979
40969 35199 34005
40969 39294 10874
40969 35170 51643
40969 33085 47871
40969 34186 7030
40969 36240 35469
40969 34976 43923
40969 35795 11884
28243 36319 1789
18395 38134 1789
36379 37610 1789
30260 34011 1789
31184 35163 1789
17731 38702 1789
32143 36436 1789
34517 34875 1789
14976 38429 1789
37006 40177 1789
39187 39427 1789
32998 33200 1789
37811 37237 1789
24819 36206 1789
36825 34780 1789
1707 39509 2347
1707 36988 39683
1707 40695 34179
1707 36613 32247
1707 40755 54718
1707 38640 46321
1707 37677 40872
1707 37538 26825
1707 38843 41334
1707 36629 6904
1707 36929 41061
1707 38176 32321
1707 35965 26149
1707 37877 40299
1707 39762 37218
1707 33927 6443
1707 38449 26254
1707 38148 12673
1707 40190 54488
1707 40563 70833
1707 40019 32138
1707 36240 10930
1707 37697 30993
1707 36462 28432
1707 36900 17983
1707 39617 57092
1707 37611 36352
1707 40597 65991
1707 34033 8910
1707 39893 29403
1707 36946 10806
40969 16084 76806
40969 30542 75531
40969 37155 76506
40969 28944 75145
1304 40737 71817
363 40784 34083
402 40743 66997
553 40739 70329
639 40756 56921
7 40762 51637
414 40769 46150
37698 32237 74470
3191 20040 76930
2928 7672 76930
2387 8499 76930
1929 6103 76930
3153 17517 76930
2187 7248 76930
1883 21786 76930
4779 5053 76930
40255 25744 74470
39590 7238 74470
40585 18521 74470
40838 3088 74470
40748 11677 74470
40581 20856 74470
40100 11332 1789
40415 19123 1789
40439 20748 1789
40102 28627 1789
38653 9691 1789
39274 19548 1789
40418 21455 1789
4995 17876 4026
4791 27404 4026
3425 25470 4026
5022 28135 4026
5325 27152 4026
2846 31865 4026
1707 26080 75642
1707 29620 75624
1707 26456 74791
40108 27193 1789
40472 27458 1789
38811 14185 1789
40815 8619 1789
40419 14644 1789
41520 40756 56675
41300 40742 67933
41875 40731 76621
41852 40734 74584
40996 40745 65200
33824 31866 2152
24478 31866 2467
26781 31866 3174
25886 31866 2423
6618 31992 1789
3794 36467 1789
18303 33618 1789
15756 36558 1789
9338 32013 1789
4542 34981 1789
28176 33073 1789
16162 36928 1789
10605 36629 1789
16596 34311 1789
12545 34743 1789
5833 38859 1789
24989 33014 1789
19611 35523 1789
22110 32180 1789
14316 33081 1789
13502 40824 319
35053 40824 738
27533 40824 754
0 40849 1792
42676 42437 6552
42676 42372 66243
42676 42074 19243
42676 42000 39263
42676 42205 6959
42676 42212 15026
42676 41213 18190
42676 41208 21270
42676 41094 40364
42676 42206 79585
42676 42233 69246
42676 42071 64912
42676 40993 60268
42676 41750 46280
23015 31866 74662
12376 31866 74559
7741 31866 74503
25005 31866 75323
10438 32952 76930
5005 38332 76930
4676 37632 76930
31616 32767 76930
9338 32999 76930
8340 36670 76930
28523 32793 76930
19346 34736 76930
34407 32612 76930
17026 34196 76930
12222 34341 76930
3206 38266 76930
13159 36999 76930
40903 0 3767
38667 42186 79838
34642 41312 79838
16747 42354 79838
34184 42151 79838
1707 33438 76034
1707 27293 74502
1707 11798 74987
1707 35398 75761
37427 6508 75007
37427 5464 75312
37427 14596 76204
37427 8261 76611
2846 29915 4026
4726 19570 4026
3559 19467 4026
5221 4854 4026
3690 26359 4026
5318 23960 4026
38557 9742 74470
39943 876 74470
40198 12961 74470
38470 1523 74470
39221 9258 74470
42676 41000 48101
42676 41577 40672
42676 41342 49894
42676 41395 48806
42676 40977 41906
42676 41894 75175
20777 41194 79838
8174 42037 79838
11972 41557 79838
16571 41520 79838
39313 23781 74470
38540 28290 74470
38651 25960 74470
38500 30172 74470
37924 21184 74470
38202 14785 74470
1243 42482 47103
12233 42482 19115
19450 42482 7605
7795 42482 40854
6820 42482 25250
15274 42482 33319
28643 42482 15013
3538 42482 29929
22572 42482 35502
28601 42482 399
6284 42482 13278
12622 42482 585
13635 42482 49181
32064 42482 11788
77 42482 74237
311 42482 68042
11181 42482 48641
14704 42482 11619
15432 42482 5605
2105 42482 49548
4153 42482 55489
9462 42482 58120
7825 42482 4447
19537 42482 1100
32278 42482 18657
5017 42482 54997
14769 42482 47330
3247 42482 539
1163 42482 35592
23169 42482 15302
1660 42482 33025
5787 42482 38589
5877 42482 29905
2369 42482 7250
34813 42482 11679
11360 42482 49781
8553 42482 28504
21570 42482 28745
25145 42482 28452
289 42482 32179
12836 42482 25157
14473 42482 18859
11592 42482 47390
14576 42482 38919
39459 42482 3927
22496 42482 9523
9290 42482 19709
35578 42482 1423
13228 42482 40664
8932 42482 23350
20080 42482 5158
25668 42482 6954
20095 42482 14120
33491 42482 3228
14874 42482 32301
1840 42482 74244
6559 42482 24729
3176 42482 61234
36421 42482 6632
18941 42482 21080
26418 42482 25747
33551 42482 2679
12332 42482 27160
20113 42482 41338
30368 42482 18052
16161 42482 23509
23374 42482 27062
27496 42482 18704
5069 42482 52400
14391 42482 27261
5761 42482 17557
2260 42482 55277
29266 42482 8060
17178 42482 108
25650 42482 3842
29823 42482 21019
33241 42482 1485
2906 42482 55616
10615 42482 57914
3327 42482 62781
25875 42482 29495
17188 42482 43444
4512 42482 16559
24574 42482 25609
14089 42482 18045
4290 42482 36209
20786 42482 18865
5954 42482 62209
13467 42482 12686
221 42482 61011
3377 42482 67310
23443 42482 11592
4322 42482 60795
1793 42482 35933
16726 42482 37377
12025 42482 35977
5732 42482 52721
21618 42482 10860
17714 42482 17263
3118 42482 54199
8344 42482 62157
903 42482 9030
13607 42482 3813
15390 42482 39809
5444 42482 9768
3059 42482 30035
19411 42482 28302
31898 42482 831
23502 42482 32366
2586 42482 38802
2567 42482 66757
736 42482 5689
10695 42482 50108
8990 42482 39190
4716 42482 7034
3241 42482 35064
1309 42482 39032
9910 42482 1989
5038 42482 53783
10013 42482 851
10270 42482 42366
21400 42482 27698
30495 42482 10505
1785 42482 14215
4580 42482 64779
11129 42482 35800
9446 42482 21908
20252 42482 15640
8572 42482 15505
9724 42482 37695
10392 42482 54557
19229 42482 7200
8668 42482 20576
143 42482 63875
3185 42482 14165
1387 42482 33917
8292 42482 49937
867 42482 53888
16791 42482 37819
13999 42482 23014
7243 42482 30892
18569 42482 13494
33980 42482 15292
2564 42482 14643
22938 42482 7569
11842 42482 9428
24822 42482 31695
28885 42482 14035
63 42482 21470
31934 42482 13430
1290 42482 50943
18348 42482 30993
17035 42482 29346
34944 42482 9325
8411 42482 17593
31286 42482 10867
13447 42482 32142
7261 42482 19169
37112 42482 9885
13817 42482 25202
26737 42482 21391
30159 42482 21614
12591 42482 33625
16160 42482 47015
14530 42482 23351
2048 42482 18402
2215 42482 44771
20578 42482 5729
11972 42482 19932
30468 42482 21060
17298 42482 40091
11607 42482 2187
18611 42482 10084
22273 42482 30112
10802 42482 3076
3397 42482 49680
37481 447 75237
33894 31866 75126
33867 31866 74480
20079 31866 75172
29230 31866 74582
13106 31866 74507
37871 31128 74470
37435 26802 74470
38231 24015 74470
39269 28455 74470
37542 8578 74470
37601 21893 74470
0 41097 63233
0 41236 23949
0 41227 73726
0 41465 43913
0 41450 75177
0 41641 77386
0 42180 76161
39104 27266 76930
38473 32109 76930
40624 18623 76930
40141 12594 76930
40948 29920 76930
39504 21526 76930
40208 33941 76930
40924 23891 4026
40150 12192 4026
38211 28714 4026
39457 22811 4026
40212 28575 4026
38828 28664 4026
39610 26958 4026
40690 25886 4026
40744 28510 4026
40283 15854 4026
39877 12644 4026
37427 16667 1870
37427 12253 2363
37427 28068 2929
37427 23657 2436
0 42138 30956
0 42096 37761
0 41987 12670
0 42301 70793
0 41428 8582
0 42310 8820
0 41533 29163
40969 31060 76042
40969 12256 76328
40969 23165 76102
40969 28610 76215
40969 9836 76320
1067 40824 2067
668 40793 26701
517 40800 21380
1058 40817 7378
1449 40760 53487
221 40816 8033
10540 40803 18992
36414 40821 4500
17912 40772 43990
5394 40773 43034
16044 40803 18608
13648 40803 18620
18764 40794 26403
4422 40820 5171
16258 40775 40970
11025 40786 32122
15282 40802 19704
7495 40773 42841
8936 40814 9980
8982 40795 25292
21835 40814 9814
16275 40800 21422
25651 40797 23328
11596 40805 17155
31356 40820 4735
12076 40794 26311
6981 40806 16642
5566 40820 5088
18086 40792 27234
2591 40807 15582
9515 40820 4878
10698 40796 24193
2702 40754 58160
14188 40783 34952
3143 40749 62679
11593 40775 41365
20166 40781 36399
10802 40758 55265
33916 40816 8554
31482 40810 13183
13474 40818 6369
14936 40778 38692
2555 40762 51748
5445 40815 8760
13108 40806 16058
13739 40809 13770
22170 40801 20419
22959 40798 22940
15705 40804 18022
6162 40790 29049
10540 40759 54411
25260 40803 18520
2337 40758 54958
26178 40791 28399
7557 40793 27027
12949 40817 7338
3886 40823 2671
10229 40765 49312
12466 40805 17089
23223 40813 11079
31150 40805 16936
14316 40790 29340
8829 40778 38732
32321 40816 8338
8117 40781 36281
24316 40817 7530
36513 40820 5321
21225 40798 22531
7811 40759 54362
23828 40808 14560
28028 40814 10248
26734 40807 15658
21863 40781 36424
11984 40766 48597
29079 40820 5037
30167 40820 5141
12047 40788 31064
12300 40803 18549
2615 40796 24051
4427 40749 62139
20552 40795 25094
7162 40760 53386
15894 40801 20664
4276 40793 26690
21307 40818 6859
15681 40794 25920
16772 40817 7449
24841 40799 22149
29020 40823 2797
8325 40784 34243
13973 40772 44015
12461 40764 50375
34957 40816 7935
3787 40802 19598
19930 40779 37915
3540 40803 19001
2233 40776 40475
4380 40756 57102
3880 40799 22254
7122 40761 52920
35496 40817 7739
25677 40818 6288
2505 40743 67042
1975 40741 69258
9238 40752 60099
3052 40758 54858
2075 40736 72868
34970 40821 4485
15391 40799 21767
4770 40806 15931
28811 40822 3434
13566 40773 43241
8242 40816 8223
8933 40785 33263
37988 40819 5469
7347 40784 34026
7668 40755 57956
9311 40761 52995
13920 40816 8649
20429 40810 13128
8795 40767 47995
16971 40792 27885
21732 40779 37938
6159 40804 18109
17226 40797 23909
9332 40810 13053
14038 40774 42335
15272 40798 22542
5420 40755 57236
14996 40786 32449
16177 40811 12340
23308 40795 25455
26620 40817 7735
7677 40787 31917
8486 40799 21636
3166 40796 24164
26834 40810 13082
11494 40798 22673
26699 40809 14141
17223 40817 7541
24880 40811 11994
15213 40789 30288
37612 40819 6127
2905 40754 58609
18736 40786 32166
2211 40746 64977
13686 40793 27093
23386 40799 21971
31600 40803 18804
26936 40792 27343
34940 40821 3869
16736 40820 5087
2043 447 75003
3905 8003 1789
5525 15640 1789
5138 2779 1789
3930 6328 1789
4294 3616 1789
2197 27852 1789
4726 30600 1789
3471 30491 1789
3113 21817 1789
3303 16191 1789
4282 21800 1789
3541 35012 1789
3760 24434 1789
40969 32686 1883
40969 9560 1907
3939 4526 4026
3668 14327 4026
3606 1446 4026
2271 16213 4026
2886 3871 4026
1910 20924 4026
5260 2177 4026
