ply
format ascii 1.0
element vertex 2768
property float x
property float y
property float z
end_header
0 38244 61175
2993 37355 55142
14224 37355 57329
4169 37355 57001
2307 37355 56089
2574 37355 56855
4136 37355 54933
5131 37355 56653
6268 37355 57385
1448 37355 57755
26838 39690 18182
26277 39690 12656
28695 39690 15064
32273 39690 18149
20602 39690 19651
14101 39690 5442
13297 39690 13744
24863 39690 19289
33991 39690 19095
25520 39690 17947
8096 39690 12115
9536 39690 17211
12411 39690 8680
38390 39690 20216
9076 39690 11131
9281 39690 9928
17378 39690 20179
32386 39690 17036
18302 39690 12059
21999 39690 19037
32310 39690 15095
1698 39690 18430
29709 39690 20228
16276 39690 12482
31194 39690 17592
29501 39690 14727
23341 39690 12969
14537 39690 14352
18294 39690 19806
16038 39690 12921
21109 39690 14395
28480 39690 20160
21823 39690 15735
11803 39690 18629
20485 39690 13711
15916 39690 11347
17676 39690 12191
8984 39690 15155
8889 39690 19039
21395 39690 9114
4121 39690 16477
14760 39690 13801
2626 38903 10323
373 37355 25960
13109 37355 26523
30529 37355 27635
6634 37355 25728
32944 37355 27271
16775 37355 26218
14359 37355 26726
6585 37355 27702
32814 37355 27747
5090 39114 6883
12500 37355 34461
28710 37355 34684
17365 37355 33878
14178 37355 34539
13703 37355 35120
18163 37355 33929
9927 37355 35652
18943 37355 34192
10483 37355 40952
17848 37355 42320
23725 37355 41364
8459 37355 41257
17253 37355 40871
10852 37355 42740
780 37355 40875
2854 37355 40070
14960 37355 41356
14839 39690 23359
23305 39690 23529
7111 39690 24069
27456 39690 23308
5071 39690 23016
37790 39690 23824
17367 39690 22963
17619 39690 24092
0 39257 44843
1449 39690 32440
8127 39690 34508
9861 39690 35357
17739 39690 33429
21842 39690 33910
23936 39690 34867
33856 39690 34880
3686 39690 33871
8925 20477 16480
11604 20986 16480
15282 4759 16480
10303 24935 16480
10272 6230 16480
17719 12951 16480
22778 13074 16480
9924 23142 16480
31489 1900 16480
13350 20260 16480
9559 14527 16480
9833 3954 16480
26515 5145 16480
14344 16170 16480
6237 2448 16480
5062 8900 16480
35886 298 16480
8884 26025 16480
28571 3247 16480
18475 12733 16480
20726 9501 16480
32119 662 16480
25713 12129 16480
33733 1550 16480
7566 2847 16480
17312 16267 16480
10961 13106 16480
23218 2185 16480
11598 5414 16480
7149 21331 16480
5787 6467 16480
5317 31711 16480
30786 5569 16480
5631 25883 16480
28295 7773 16480
15002 19942 16480
13355 1600 16480
9384 17151 16480
17816 5595 16480
9581 15891 16480
17058 707 16480
15028 1700 16480
33268 2931 16480
14767 14186 16480
6302 35532 16480
7736 9768 16480
8847 24320 16480
19303 8550 16480
20459 8792 16480
15378 2941 16480
11495 13058 16480
27778 1446 16480
6546 17752 16480
18231 14018 16480
30517 3580 16480
11848 27550 16480
5736 16442 16480
11075 29947 16480
11915 6330 16480
9854 2975 16480
12166 9903 16480
24286 4873 16480
14842 172 16480
6908 3147 16480
18541 533 16480
8509 18894 16480
16718 11215 16480
11669 15599 16480
6560 37355 38951
12400 37355 38945
23896 37355 38435
10273 37355 37443
18740 37355 37701
17450 37355 37474
3468 37355 37676
13212 37355 37993
28185 37355 38370
29795 18388 21955
34923 18283 21955
24851 22085 21955
25960 13260 21955
12624 1487 21955
32160 267 21955
19450 8727 21955
21616 469 21955
21778 7148 21955
26398 20831 21955
23210 707 21955
31806 31786 21955
33740 8888 21955
33588 19184 21955
33599 17398 21955
25520 14405 21955
34080 33056 21955
19603 4859 21955
20859 14717 21955
26932 1780 21955
24768 1547 21955
30482 3127 21955
13478 2698 21955
10457 4853 21955
33671 26072 21955
23915 12710 21955
30206 20078 21955
28511 4003 21955
21844 14659 21955
21467 8381 21955
35556 19037 21955
25024 5435 21955
31240 13952 21955
20938 8850 21955
27077 13487 21955
22462 19882 21955
31983 19865 21955
29909 3304 21955
24674 8045 21955
24107 16369 21955
28299 5120 21955
13397 230 21955
28032 11420 21955
28023 19659 21955
32465 9882 21955
21651 2349 21955
23564 8734 21955
12365 6382 21955
22750 7679 21955
25151 19186 21955
26304 25428 21955
25535 6374 21955
35323 4870 21955
20718 13775 21955
35218 32474 21955
23378 15219 21955
29785 16219 21955
35937 2514 21955
32839 16202 21955
17616 4630 21955
35790 26968 21955
17167 14417 21955
21690 19122 21955
34111 26397 21955
18937 13471 21955
31151 39690 3524
33746 39690 8246
17307 39243 81634
31874 39690 8934
28498 39690 7594
28692 39690 7070
33167 39690 9442
28896 39690 6311
25312 39690 852
28821 39690 3806
37493 39690 16842
238 37355 46378
15372 37355 46351
16605 37355 44838
12230 37355 44603
1563 37355 46881
36539 37355 45547
8700 37355 46428
17623 37355 44702
28965 37355 45999
10519 37355 13467
13566 37355 13740
7946 37355 14582
13191 37355 3301
2037 37355 18271
7708 37355 13635
16282 37355 6675
17351 37355 19769
26316 37355 14042
10812 37355 18784
20834 37355 10687
7429 37355 17866
14789 37355 18463
33049 37355 16396
20029 37355 16685
15377 37355 11988
10924 37355 9635
7752 37355 10092
18692 37355 15489
35505 37355 19473
15116 37355 3696
24986 37355 20244
1512 37355 18942
12188 37355 14826
11386 37355 5847
13442 37355 9404
10132 37355 10913
10556 37355 6987
35498 37355 17152
27106 37355 12735
21604 37355 13545
10596 37355 6348
9717 37355 19657
2627 37355 17834
19329 37355 11691
16375 37355 12330
10921 37355 17780
18798 37355 18752
25134 37355 13877
25462 37355 14996
21313 37355 7732
17415 37355 16911
13844 37355 12077
34198 39690 15458
20022 39690 2155
25183 39690 6858
27665 39690 10040
18844 39690 3989
28471 39690 10352
24284 39690 8310
22901 39690 6987
19630 39690 4028
18507 39690 1196
16559 39690 755
9554 39690 3990
3651 39690 9395
41058 39632 47519
9234 37636 78428
40197 37355 22559
33498 37355 22724
26312 37355 22044
27256 37355 22665
28109 37355 21203
30984 37355 22600
10460 37355 21956
35107 37355 22498
23852 37355 59271
34962 37355 58990
37761 37355 59767
38574 37355 57887
12493 37355 58162
23465 37355 57218
22311 37355 59124
20119 37355 57810
31583 37355 57364
6678 39690 64932
27834 39690 79425
15783 39690 68234
22321 39690 73377
17907 39690 67887
19779 39690 73828
24337 39690 78182
13568 39690 69899
25350 39690 72330
10844 39690 66200
3682 39690 63676
17161 39690 69314
24908 39690 75562
13630 39690 67815
28157 39690 75971
26348 39690 71648
29743 39690 77461
29353 39690 72911
13420 39690 70371
24574 39690 71379
27253 39690 77557
29099 39690 75449
24200 39690 73025
40202 38200 67062
28130 10432 16480
24357 35119 16480
34094 20538 16480
32421 34538 16480
32302 23365 16480
22058 23558 16480
33905 33737 16480
14762 29364 16480
24232 35752 16480
14408 33492 16480
8341 36244 16480
15237 26822 16480
25075 13692 16480
13885 34314 16480
28528 30451 16480
27067 21261 16480
16937 29560 16480
27120 22408 16480
29789 25359 16480
35126 31305 16480
35818 25164 16480
34178 17018 16480
33633 13460 16480
14720 35260 16480
22688 32295 16480
32016 5185 16480
25250 33693 16480
25296 24360 16480
8079 34130 16480
31467 22648 16480
25606 36119 16480
22879 27107 16480
25341 29844 16480
32866 19196 16480
32397 37259 16480
30597 15435 16480
30533 22050 16480
33127 25732 16480
32130 33065 16480
22901 28337 16480
27721 28441 16480
28625 27906 16480
23123 19730 16480
15951 28202 16480
28111 21843 16480
11360 33017 16480
32616 32815 16480
29281 31791 16480
24352 29377 16480
28967 10547 16480
16046 37215 16480
22069 32837 16480
28044 26230 16480
23818 18870 16480
32941 27934 16480
8302 35487 16480
11013 30479 16480
10348 35632 16480
33816 16252 16480
15793 24750 16480
22914 17158 16480
29869 14418 16480
17154 34922 16480
14064 37355 72474
13037 37355 71512
19597 37355 76036
12057 39690 60572
16785 39690 60791
24274 39690 60642
6353 39690 60519
27075 0 17827
17803 0 18011
15512 0 18789
5242 0 20700
14174 0 17580
25363 0 16799
8822 0 21007
21221 0 17770
8571 0 16933
14757 0 19651
16401 0 18724
40436 37355 29414
36971 37355 30890
34221 37355 28842
25172 37355 29636
25052 37355 28330
35991 37355 29531
36491 37355 30276
27568 37355 28259
24245 37355 29348
3834 37355 33491
16826 37355 33544
6194 37355 35055
34071 37355 34507
11982 37355 35060
6212 37355 33518
1938 37355 33265
23132 37355 35276
23148 37355 33807
39466 37975 69094
38486 39690 34076
37832 39690 33283
20738 39690 32446
23691 39690 33204
6619 39690 32358
16602 39690 32594
29390 39690 32190
41058 38033 29813
38583 37355 69414
5836 37355 8937
3924 37355 14303
6769 37355 10035
990 37355 16706
39467 39690 67058
4983 6315 17988
4983 484 19586
4983 7662 20082
4983 3219 19995
4983 25606 17484
4983 7719 17252
4983 6547 19600
4983 2663 20376
4983 24900 17012
4983 14444 18280
4983 11433 16809
12821 39690 77736
8965 39690 71842
16184 39690 76237
13961 39690 75149
14150 39690 78979
9154 39690 75885
7537 39690 73494
9949 39690 72431
16930 39690 79134
1683 39690 64183
10628 39690 77129
13239 39690 78690
18191 39690 79777
14150 39690 21903
35328 39690 20696
32082 39690 23119
38421 39690 21367
39505 39690 22032
38254 39690 21940
17751 39690 21419
19617 39690 21126
37207 39690 21427
13614 11684 57368
30498 5422 57368
11700 28679 57368
8443 8187 57368
23174 5497 57368
8732 17430 57368
18392 19585 57368
6660 2393 57368
6613 22481 57368
17812 17164 57368
11229 21307 57368
15133 6713 57368
25829 2485 57368
7383 32992 57368
20056 607 57368
20426 5989 57368
20090 3764 57368
11108 25811 57368
28486 6639 57368
31869 4208 57368
6452 301 57368
23700 459 57368
10740 6410 57368
17700 12449 57368
5487 33406 57368
11599 4347 57368
16460 11864 57368
20094 17061 57368
22155 7929 57368
13841 22029 57368
26734 2627 57368
23178 12155 57368
13709 9038 57368
10029 29793 57368
31130 3774 57368
6241 24042 57368
9892 31109 57368
30166 5964 57368
30978 4303 57368
15167 23600 57368
29981 1743 57368
31180 3095 57368
10792 15064 57368
22193 13308 57368
10314 15361 57368
18035 8954 57368
15085 18340 57368
22439 15137 57368
22337 10585 57368
13548 24007 57368
9549 19619 57368
5784 11522 57368
11838 10743 57368
12662 7823 57368
5326 2599 57368
12072 23421 57368
12058 28065 57368
9771 16994 57368
13108 15283 57368
15643 4410 57368
31085 1207 57368
26694 7699 57368
20821 9495 57368
19035 2999 57368
23954 3592 57368
25024 1061 57368
12045 6807 57368
18152 7206 57368
10557 12849 57368
36471 37355 10650
37545 37355 12756
0 38542 52653
20580 4024 62843
26149 18233 62843
6488 1137 62843
34330 33764 62843
23280 18296 62843
34428 9644 62843
29918 7579 62843
29536 9959 62843
17557 13912 62843
17360 12602 62843
23966 8303 62843
20228 13479 62843
35601 18539 62843
27993 25165 62843
16496 2320 62843
31310 9462 62843
30329 24648 62843
30129 6689 62843
11659 6435 62843
22099 350 62843
17905 328 62843
32736 2258 62843
33719 8298 62843
11851 7644 62843
33773 71 62843
30353 1448 62843
15048 1653 62843
25106 13173 62843
32056 14043 62843
35664 25129 62843
21142 14769 62843
32790 21681 62843
28940 3699 62843
35072 7736 62843
25435 11766 62843
20453 12297 62843
31945 23793 62843
31018 14664 62843
34483 31046 62843
33632 16593 62843
26794 20960 62843
33554 1874 62843
24897 20608 62843
29497 16760 62843
35858 14244 62843
29541 27786 62843
20520 7572 62843
32374 7849 62843
27725 218 62843
26354 5238 62843
35451 15501 62843
17094 5727 62843
31021 19714 62843
30865 17284 62843
35676 9892 62843
30442 10952 62843
35746 11184 62843
24472 4867 62843
12893 1583 62843
34426 32423 62843
31889 7393 62843
17540 1113 62843
16797 10836 62843
27208 4023 62843
29808 26054 62843
19653 6485 62843
35471 35647 62843
20866 11271 62843
36495 39690 11379
33845 39690 5276
36706 39690 43165
22138 39690 43953
32979 39690 43645
31129 39690 43181
18958 39690 43720
28863 39690 43931
26219 39690 43359
31814 39690 43205
12432 39690 43787
24147 37355 41625
17285 37355 42602
2621 37355 41099
6594 37355 40833
11717 37355 41921
1847 37355 40392
9639 37355 41929
10655 37355 41928
41058 39165 55819
9314 37355 52588
25240 37355 52760
12459 37355 52539
16427 37355 52941
17392 37355 52831
3544 37355 50786
444 37355 50912
20821 37355 53474
24005 39382 81545
20687 2465 57368
30160 600 57368
12132 12733 57368
21598 6544 57368
22626 12762 57368
7049 26823 57368
9237 2966 57368
10875 18032 57368
20929 12205 57368
25046 6680 57368
19287 17748 57368
23886 5394 57368
19758 2088 57368
7996 5400 57368
26236 8018 57368
22433 9498 57368
14207 25678 57368
28575 7515 57368
10659 5802 57368
8011 22696 57368
34468 1295 57368
12553 27361 57368
13756 2646 57368
21547 3995 57368
7430 13364 57368
10899 28734 57368
7535 30350 57368
11321 23314 57368
6678 34468 57368
31540 2219 57368
17731 3254 57368
20582 12914 57368
14097 8502 57368
24847 3932 57368
24074 14374 57368
23301 1705 57368
11319 10968 57368
26816 5288 57368
8854 32258 57368
24891 1876 57368
5275 4337 57368
6947 12651 57368
7599 1554 57368
29675 6242 57368
15899 17993 57368
29827 5152 57368
19642 6169 57368
11077 5292 57368
26215 2953 57368
7227 17010 57368
8831 11464 57368
9913 11220 57368
23153 8305 57368
18244 21451 57368
12188 13481 57368
20335 16420 57368
26629 11325 57368
8099 15727 57368
8953 8300 57368
17737 19394 57368
26236 3727 57368
39052 37355 15452
35661 37355 10946
16762 39690 21899
23127 39690 22412
33260 39690 21737
25045 39690 20980
40023 39690 20596
35996 39690 22670
27946 39690 21475
16165 39326 81369
33954 37911 4818
23236 37355 36264
37968 37355 38214
33519 37355 35482
34368 37355 37833
19403 37355 36179
37464 37355 34982
28694 37355 35939
20425 37355 36635
27496 37355 4322
33920 37355 10754
20616 37355 4
25529 37355 1162
21802 37355 781
30622 37355 10049
28916 37355 7552
30897 37355 8619
40313 38710 66572
37240 39690 9456
37737 39690 11909
13401 38849 1082
6761 37355 29942
23058 37355 31555
16422 37355 31092
8600 37355 29515
15286 37355 31822
19187 37355 31569
23811 37355 30730
32412 37355 6777
30096 37355 2414
31090 37355 6124
32550 0 62131
35582 0 59005
23016 0 61529
20514 0 60367
33368 0 60048
35265 0 59816
19943 0 62392
19000 0 62288
30409 0 61041
6998 39690 20394
11455 39690 20886
22687 39690 20471
22600 37355 21392
9802 37355 21472
24598 37355 22296
4924 37355 21315
39440 37355 23544
20560 37355 22358
38441 37355 23586
20768 37355 21448
34188 37355 21075
39255 39690 51423
33738 39690 49549
24108 39690 50143
39914 39690 50519
32338 39690 51119
31486 39690 51430
34052 39690 51160
17193 39690 50489
31117 39690 49776
0 39412 22939
4983 16721 59829
4983 4090 60819
4983 5958 61806
4983 32 58621
4983 23860 58355
4983 6055 58075
4983 4056 62051
4983 8661 60967
4983 1585 57595
4983 10595 60196
4983 17837 57935
12831 38336 1292
35994 39690 11586
37633 39690 14845
17564 37432 72
4983 24386 61352
4983 29185 60650
4983 37153 62020
4983 19598 60832
4983 16336 60732
4983 20734 60894
4983 4028 62597
4983 32020 60607
4983 30734 61828
4983 29147 62007
24202 37355 33615
29167 37355 33199
24338 37355 32030
36092 37355 32662
26810 37355 32228
32937 37355 33061
27630 37355 32522
37557 37355 34184
21720 37355 33429
13627 37355 64136
18491 37355 64262
23808 37355 64829
26449 37355 64893
16235 37355 63784
38234 37355 66787
33880 37355 62141
16492 37355 65854
19078 37355 66092
8543 37355 61732
36205 37355 71999
21984 37355 66258
36514 37355 63196
14102 37355 61742
23567 37355 63796
36851 37355 66986
36003 37355 67763
27287 37355 70002
36445 37355 70264
38503 37355 67774
23162 37355 67550
25593 37355 67421
24864 37355 66824
25803 37355 64105
21500 37355 61973
35461 37355 65986
17577 37355 63495
24458 37355 68181
26311 37355 68169
26395 37355 65681
23573 39690 51572
34779 39690 51248
16030 39690 50641
30916 39690 51137
36925 39690 50339
12812 39690 50769
37537 39690 50612
27990 39061 80477
41058 38614 26907
25060 28463 62843
8466 35611 62843
27868 33141 62843
26907 32852 62843
12044 24112 62843
10248 17441 62843
11089 12991 62843
6884 26326 62843
5609 30989 62843
5954 8166 62843
5069 28947 62843
20044 27313 62843
5092 32950 62843
19618 23986 62843
12167 34129 62843
5955 23641 62843
24516 24659 62843
12431 20384 62843
21465 29850 62843
15311 35500 62843
11724 11860 62843
10011 19280 62843
28314 33369 62843
9748 16775 62843
20156 31907 62843
25466 27331 62843
23962 31193 62843
18560 28776 62843
23386 33978 62843
18237 19418 62843
9001 21149 62843
23003 29142 62843
13902 20836 62843
25663 34882 62843
25773 31555 62843
26357 35594 62843
17651 36910 62843
5315 1948 62843
5484 11703 62843
8978 14822 62843
11450 18166 62843
8917 24099 62843
11513 18926 62843
31181 35890 62843
25961 30583 62843
13295 31807 62843
17870 25516 62843
9214 25532 62843
24295 25622 62843
14568 19169 62843
19640 36237 62843
8253 13701 62843
8681 35074 62843
29710 33836 62843
21079 24633 62843
9863 23936 62843
33025 36393 62843
20162 37166 62843
12726 35467 62843
16130 30960 62843
20238 29178 62843
29239 31641 62843
20414 18461 62843
34241 37105 62843
2647 37355 48043
22503 37355 49676
10096 37355 49390
13064 37355 48217
19171 37355 49133
7913 37355 49354
22106 37355 49237
3647 37355 48539
28462 37355 49313
0 37407 36624
36236 27327 20972
36236 3556 17246
36236 16438 19796
36236 5161 20821
36236 15094 21531
36236 6040 19278
36236 5758 18862
36236 4648 21636
36236 5113 17671
36236 20422 21433
36236 26879 21236
11696 37355 50319
16209 37355 50372
32722 37355 51343
25987 37355 51948
6574 37355 50663
24640 37355 50552
12536 37355 50178
15687 37355 51263
368 39025 65062
24698 39690 61250
18363 39690 61358
36403 38596 74332
4984 39690 59374
4583 39690 58475
11250 39690 59623
13007 39690 59458
19366 37355 81490
10521 35399 57368
10004 36996 57368
30410 23991 57368
21848 29473 57368
8363 37056 57368
14814 35010 57368
31394 12723 57368
27664 24691 57368
18102 21989 57368
16973 33995 57368
28866 9948 57368
22716 19053 57368
13235 28070 57368
28653 34982 57368
25945 22078 57368
22714 20187 57368
29003 25349 57368
35435 24868 57368
32510 24286 57368
35481 28116 57368
33519 26590 57368
35099 2013 57368
12722 36879 57368
32944 22769 57368
28165 17615 57368
30879 30857 57368
15976 30596 57368
16074 25259 57368
34506 33054 57368
17881 23582 57368
30646 10704 57368
11814 33180 57368
35821 29369 57368
9642 32034 57368
25207 36821 57368
30908 15053 57368
35780 8820 57368
13455 27450 57368
36178 18603 57368
31978 35930 57368
35181 21168 57368
17365 31312 57368
14909 36640 57368
31211 32472 57368
33699 20316 57368
14983 25753 57368
31311 16459 57368
32184 6824 57368
23827 23701 57368
26568 14254 57368
26489 25203 57368
30727 13359 57368
33901 12184 57368
15670 28861 57368
21322 30785 57368
29530 33359 57368
33998 30548 57368
22601 23797 57368
31377 19701 57368
24585 24569 57368
20905 20359 57368
26977 17857 57368
23912 28440 57368
17231 26706 57368
28140 24155 57368
34322 39690 54226
38167 39690 56125
29726 39690 55625
37285 39690 55749
35660 39690 53917
34402 39690 53486
20883 39690 54767
16670 39690 54192
37437 39690 46560
11632 39690 46602
27190 39690 46530
37423 39690 48786
10439 39690 47078
28468 39690 48580
31895 39690 48471
40864 39690 45843
2031 39350 70113
29302 37355 79189
7278 0 21941
35760 0 21646
34607 0 21856
33340 0 17752
30954 0 21744
33008 0 19653
25693 0 18590
27373 0 19812
32463 0 19742
28364 0 21561
1106 39690 66080
6144 39690 72610
22662 39199 81713
0 39221 31456
30132 37355 60900
27029 37355 61222
38882 38700 70466
23771 0 59820
31846 0 62201
30520 0 62682
14228 0 62567
16827 0 61396
35479 0 60664
31135 0 58540
19587 0 61291
18116 0 61190
21339 38720 81878
40349 37355 26614
39328 37355 24098
16301 37355 25242
39874 37355 24731
20565 37355 25430
25566 37355 25483
24019 37355 25703
26707 37355 24999
931 38750 67209
39668 39427 68620
22901 39690 60969
36248 39690 60534
12606 39690 61306
21569 37355 60280
5143 37355 62741
17518 37355 60745
8468 37355 59931
32111 37355 62676
28427 37355 62243
10866 37355 61111
14193 37355 59962
14241 37355 62773
3066 37355 50453
32138 37355 52164
34132 37355 49757
12461 37355 51163
28122 37355 51537
28855 37355 51493
31063 37355 50014
20700 33074 62843
13796 24542 62843
5599 21549 62843
17990 24827 62843
18228 18095 62843
19112 37212 62843
18817 19162 62843
12248 25592 62843
9297 26251 62843
14866 21802 62843
16480 37131 62843
5589 4402 62843
20691 37088 62843
20526 34217 62843
23208 28360 62843
21098 20298 62843
5241 8717 62843
5454 3735 62843
25826 28126 62843
23446 34556 62843
16955 24664 62843
12656 17631 62843
16178 27079 62843
22896 23530 62843
31792 35439 62843
20385 32375 62843
5284 29473 62843
15688 36523 62843
6758 12803 62843
11396 14777 62843
9689 7017 62843
10919 14923 62843
29608 35893 62843
8068 30554 62843
21792 31173 62843
11685 9291 62843
24077 36318 62843
30628 35554 62843
21451 22253 62843
16706 22716 62843
7654 11993 62843
23427 24717 62843
30297 35935 62843
13790 13254 62843
7003 31127 62843
4984 26050 62843
14456 20684 62843
24260 23160 62843
19314 26783 62843
6226 21637 62843
9116 12980 62843
10826 20949 62843
8266 32984 62843
20768 25738 62843
12000 9715 62843
21730 24358 62843
27522 35909 62843
15921 15504 62843
13660 25100 62843
24657 33034 62843
8644 30903 62843
22621 29738 62843
17019 28511 62843
23856 36762 62843
13072 28598 62843
38211 39690 27971
15868 39690 29649
6608 39690 28672
33250 39690 27892
19494 39690 29784
29236 39690 30167
19448 39690 28445
14069 39690 29068
12349 37355 23186
15092 37355 22562
8234 37355 24128
429 37355 23143
28465 37355 24083
17683 37355 23593
21876 37355 23788
3165 37355 21689
6856 37355 22029
10201 39690 54658
35126 39690 53874
40867 39690 54613
28803 39690 54515
28062 39690 55663
11285 39690 54273
36779 39690 54439
40279 39690 56376
37576 38712 72677
39846 38554 13522
20185 37355 30561
26407 37355 30981
14519 37355 30591
14261 37355 31570
16350 37355 30176
37414 37355 31258
29993 37355 30917
2862 39690 27523
9133 39690 28104
4965 39690 27968
549 39690 25307
4562 39690 25403
16220 39690 27110
32435 39690 27457
11395 39690 26467
30076 39690 47683
31916 39690 46197
21006 39690 47471
21848 39690 46304
25599 39690 46603
35086 39690 46440
37876 39690 46814
17023 39690 47009
35744 34421 62843
19983 14641 62843
13073 3282 62843
23750 12384 62843
30912 16518 62843
29797 16334 62843
8477 2104 62843
20926 6427 62843
11351 4173 62843
29915 18519 62843
20554 16423 62843
29362 19921 62843
16397 1242 62843
19052 3167 62843
24357 18226 62843
27828 20462 62843
33436 29311 62843
34310 12363 62843
25724 12302 62843
15553 2437 62843
20627 1770 62843
28027 23071 62843
35153 2427 62843
26418 7200 62843
32423 9933 62843
22462 11714 62843
14395 2860 62843
20573 9140 62843
33430 9328 62843
25546 23017 62843
27515 8208 62843
33022 17830 62843
29289 10775 62843
20752 2901 62843
33778 4308 62843
22554 18251 62843
19165 7425 62843
27251 12461 62843
24334 658 62843
23190 21215 62843
34798 27616 62843
9155 2487 62843
31531 5242 62843
22795 10730 62843
29064 5865 62843
9293 2987 62843
22219 18778 62843
32808 30859 62843
10686 1909 62843
29218 7070 62843
27997 6485 62843
19932 12007 62843
33386 32255 62843
33633 6213 62843
32323 19277 62843
34926 16650 62843
32969 28 62843
18225 3609 62843
32118 4203 62843
24624 2904 62843
28616 22226 62843
12256 39690 70404
19458 39690 76640
23316 39690 79572
0 38221 60350
20199 39690 24861
37771 39690 25535
30045 39690 24993
6238 39690 25370
34402 39690 25736
16204 39690 24720
12920 39690 25141
33428 39690 26295
17415 39690 24921
1929 39690 57562
37144 39690 56439
8457 39690 56622
17675 39690 56014
4086 39690 57625
25147 39690 55653
22265 39690 57099
9141 39690 56074
17766 39690 56756
14739 37355 39928
38331 37355 38882
18596 37355 40039
31552 37355 39512
23336 37355 40185
39527 37355 39834
13928 37355 39809
34291 37355 38864
40726 37355 39766
23519 37355 20009
20915 37355 19446
20785 37355 20910
19204 37355 19834
8861 37355 20061
12924 37355 20447
9288 37355 18671
5503 37355 19535
4594 39690 72273
74 37355 19860
1675 37355 16267
5078 37355 11882
2702 37355 14400
28790 37355 21841
24609 37355 20681
7280 37355 20588
10408 37355 20834
19115 37355 19318
6776 37355 17620
7182 37355 18801
24499 37355 19978
9373 37355 21059
12301 37355 18975
40389 37355 64705
27011 39690 8266
22554 39690 4377
25799 39690 6972
29307 39690 9119
19975 39690 3292
13277 39690 1532
33414 39690 15049
14358 39690 2374
32215 39690 12246
36522 39690 16883
40004 39690 19391
40840 38801 17495
21756 37355 20684
3862 37355 20871
33434 37355 44014
32566 37355 42566
40875 37355 44584
15401 37355 42890
37825 37355 42872
36216 37355 44079
31253 37355 43938
28967 37355 42867
40017 38177 14103
14960 38201 81054
41041 38701 19960
0 39249 59082
33738 38407 4607
20129 37355 81806
0 37531 40800
38475 39690 15507
24506 39690 52973
34938 39690 52662
5543 39690 51172
24295 39690 52111
4599 39690 52668
12047 39690 52996
67 39690 53626
20423 39690 53285
1441 39690 51854
34939 39690 19098
15121 39690 7843
19276 39690 13170
7604 39690 20130
7074 39690 17519
27574 39690 17659
21271 39690 18799
33061 39690 19181
4854 39690 13711
19122 39690 11727
10394 39690 4677
23844 39690 16371
3557 39690 18072
20485 39690 18157
23046 39690 11371
12674 39690 16156
25212 39690 19798
18920 39690 16864
18387 39690 5787
23811 39690 20190
24504 39690 12201
2402 39690 17802
27733 39690 16489
11694 39690 13326
20589 39690 16359
10025 39690 19811
14288 39690 6196
34927 39690 19833
10582 39690 16640
14052 39690 9176
22862 39690 9052
23228 39690 19841
25525 39690 19290
3179 39690 16160
5722 39690 18536
18974 39690 12524
21032 39690 18201
36614 39690 18625
33019 39690 15823
7724 39690 18759
10525 39690 5344
3980 39690 20275
0 39445 52100
39987 37355 27466
36101 37355 26255
34209 37355 24574
17236 37355 25478
25066 37355 24620
30994 37355 26924
23971 37355 24640
1723 37859 69492
34409 37355 9852
27944 37355 1238
0 37868 46706
19880 39690 31208
4002 39690 32101
2055 39690 31712
30470 39690 30767
5879 39690 31692
26785 39690 30893
24010 39690 30555
17161 39690 29981
7016 39690 31227
34535 39407 76339
4702 38485 74376
4777 37355 74049
2703 37355 10619
1284 37355 19785
21964 37355 8713
11513 37355 16315
2978 37355 16071
7261 37355 15316
15888 37355 5955
13116 37355 7679
3640 37355 16266
25708 37355 12615
27204 37355 11380
21500 37355 9558
8371 37355 13420
4017 37355 14880
9764 37355 10573
32580 37355 18440
22941 37355 19749
11930 37355 19487
17371 37355 7024
28550 37355 14657
15262 37355 18856
20857 37355 13667
10588 37355 19806
27189 37355 15596
10837 37355 4379
25998 37355 17427
22110 37355 11607
4272 37355 17827
8059 37355 17249
22991 37355 15946
19910 37355 8749
26131 37355 15603
13805 37355 19919
25712 37355 16070
18289 37355 11670
29980 37355 17651
2257 37355 17456
9338 37355 6283
7179 37355 14431
21639 37355 15473
16956 37355 11334
15094 37355 15285
21784 39690 58366
24232 39690 58968
31757 39690 59361
35723 39690 58334
35585 39690 59440
29969 39690 59517
31099 39690 59299
40350 39690 59202
6774 39690 58163
22586 37355 16850
9601 37355 16872
30776 37355 19036
22662 37355 18434
33531 37355 17058
28559 37355 17285
14777 37355 17556
33112 37355 17588
24529 37355 16851
17167 37355 18165
4983 24376 59820
4983 31631 62510
4983 37031 59509
4983 34952 59752
4983 27148 60950
4983 34942 62323
4983 35702 61517
4983 24234 61993
4983 21753 61440
31209 37355 78475
3432 39690 13031
6953 39690 9175
9312 39690 5002
1315 39690 16219
27963 31560 16480
20423 26707 16480
19099 37234 16480
24846 23929 16480
23455 34216 16480
31572 22139 16480
24715 26165 16480
12730 30604 16480
35501 24219 16480
34944 5897 16480
30666 33802 16480
36050 1842 16480
22541 30334 16480
9559 36043 16480
24746 33524 16480
32985 36717 16480
13610 34918 16480
31593 9752 16480
20859 36826 16480
18636 33956 16480
16250 34219 16480
32224 13160 16480
27120 11444 16480
34251 22205 16480
33116 32424 16480
20250 30673 16480
19848 36885 16480
20374 29984 16480
27907 23513 16480
19895 23853 16480
16186 29283 16480
30604 17722 16480
24922 36845 16480
32381 27958 16480
24337 15331 16480
18602 26695 16480
16357 24716 16480
33601 10235 16480
30736 29248 16480
35430 24785 16480
20791 36029 16480
27708 27347 16480
28621 13525 16480
7001 35695 16480
9457 33071 16480
19997 34461 16480
24983 31198 16480
28792 34041 16480
13016 30011 16480
12633 32372 16480
17840 35182 16480
30537 23923 16480
36128 33905 16480
25039 26648 16480
31138 30751 16480
31302 24473 16480
32636 33801 16480
20385 25029 16480
16901 26442 16480
12351 35307 16480
32750 18007 16480
26988 13059 16480
0 37984 52562
4983 24130 18113
4983 15 17554
4983 26060 16551
4983 3518 18281
4983 19721 18564
4983 6774 20261
4983 5045 19143
4983 107 16608
4983 24431 17702
4983 16503 19162
4983 5800 19684
112 38821 18600
10454 37355 66401
26824 37355 71768
22577 37355 69659
27826 37355 73449
24196 37355 77133
23843 37355 72614
17475 37355 72867
26891 37355 75219
18509 37355 71237
15521 37355 69346
24393 37355 71899
29783 37355 78263
21087 37355 76267
12649 37355 67754
31799 37355 72823
25582 37355 70898
24756 37355 72943
7098 37355 64251
15374 37355 68798
22494 37355 76229
21320 37355 74588
34897 0 57405
22979 0 57954
13458 0 57488
14064 0 58805
8178 0 57871
12957 0 60764
15866 0 57794
9003 0 58420
9986 0 61587
6571 0 58068
7696 37355 4581
4496 37355 48848
26085 37355 49295
27460 37355 48797
24775 37355 49546
6658 37355 49167
31829 37355 49017
22725 37355 48800
26727 37355 49012
19415 37355 48465
16079 37355 54377
17856 37355 53798
34516 37355 55258
26821 37355 54606
38077 37355 54370
25223 37355 54105
39459 37355 54521
28266 37355 55625
33338 37355 55289
35800 37355 74800
5065 39038 74873
23395 37355 5593
26561 37355 7101
24254 37355 7545
37262 37355 16657
31704 37355 11857
17709 37355 4071
28071 37355 8805
32827 37355 12429
28180 37355 10464
25496 37355 5331
0 38765 27673
36236 15143 20943
36236 1363 18232
36236 27448 21729
36236 12693 19049
36236 2229 18571
36236 13192 19294
36236 23106 21858
36236 7829 19642
36236 25490 20395
36236 10458 19134
6275 37355 6184
0 38567 54913
5029 39690 35882
21693 39690 36881
13006 39690 35802
34747 39690 36814
36675 39690 37839
37081 39690 36209
30055 39690 37212
38734 39690 35502
27758 39690 36746
5867 39690 74092
0 39104 50296
35774 37355 59445
22853 37355 58376
31905 37355 59175
35159 37355 57669
24872 37355 60372
22040 37355 57660
22911 37355 60250
22697 37355 57793
10977 37355 2794
4023 37355 9673
27646 37355 36057
10731 37355 36472
35184 37355 36219
36916 37355 36095
40292 37355 35047
15750 37355 35905
32946 37355 35262
34831 37355 36815
8441 39039 3794
41058 38181 58082
6103 39690 7524
4228 39690 7898
25705 38963 81214
21597 37355 60891
40753 37355 61017
9724 37355 61234
1539 39690 36357
14185 39690 37547
9942 39690 37250
2758 39690 36419
2811 39690 39269
3518 39690 39356
8717 39690 37146
2913 39690 37869
23124 39690 81643
36236 33539 57622
36236 23609 58483
36236 29101 61533
36236 35614 60279
36236 29809 57873
36236 12250 59056
36236 36387 58453
36236 28473 58537
36236 30360 59050
36236 31627 61833
36236 29418 61043
36236 31119 61260
36236 35729 57808
4983 3947 59187
4983 22767 57955
4983 14699 59702
4983 3288 59404
4983 4961 61519
4983 15569 58339
4983 1763 60174
4983 10705 57516
4983 6795 58552
4983 12915 59667
4983 694 60919
28395 37881 1422
36022 39690 74689
34521 37355 17275
31775 37355 18261
18605 37355 16648
26140 37355 18856
27974 37355 19876
27337 37355 16949
25162 37355 17097
36213 37355 18362
35106 37355 18669
7407 37355 76890
5491 39690 39403
16247 39690 40527
30313 39690 38806
40600 39690 40549
37841 39690 39640
34301 39690 41143
18160 39690 40684
12173 39690 40090
19711 39690 40776
6972 39690 5329
32392 37355 59442
14846 37355 57781
29980 37355 60359
9359 37355 57461
26018 37355 57741
29781 37355 59661
26852 37355 60606
37621 39690 32124
31422 39690 33029
28783 39690 32723
13520 39690 32961
34065 39690 33952
34892 39690 32626
35499 39046 6327
35189 37355 47557
30079 37355 48023
22001 37355 47414
27597 37355 47566
37462 37355 48869
23549 37355 47659
31988 37355 46778
3232 39690 69420
7979 39690 76354
25046 39690 69842
32753 39690 62680
30029 39690 62660
27915 39690 64756
22635 39690 68760
33763 39690 70500
30366 39690 67534
27555 39690 61845
11179 39690 61603
7541 39690 63565
26666 39690 69484
14058 39690 65304
13546 39690 62932
35371 39690 68439
19020 39690 65634
16216 39690 65356
27635 39690 63450
34179 39690 71837
29548 39690 67950
27564 39690 68685
33462 39690 71990
22862 39690 63007
20878 39690 63846
25566 39690 67142
37316 39690 64765
36343 39690 72287
9373 39690 62585
31147 39690 70864
9179 39690 63600
0 37422 33072
26984 39690 74436
31771 39690 75272
18665 39690 71222
21611 39690 73460
21767 39690 71877
17155 39690 72925
11834 39690 68917
25954 39690 70556
26196 39690 76182
29874 39690 78664
35131 39690 74588
26700 39690 78053
26381 39690 74399
28425 39690 77895
6523 39690 64378
28240 39690 76665
31137 39690 76627
22623 39690 76861
14686 39690 68348
10288 39690 68256
5132 39690 64383
27357 39690 71556
2305 39690 20356
10590 39690 20965
31087 38418 78921
41058 39071 49682
1996 37553 11638
8594 39690 44862
8139 39690 45729
29512 39690 45132
10 39690 45249
1899 39690 44228
18586 39690 44922
23943 39690 44786
5733 39690 45695
6705 39690 45083
22229 37355 2016
23960 37355 1408
26937 37355 6131
25597 37355 1687
25011 37355 3461
28314 37355 5708
31273 37355 7149
41058 38106 21345
12893 37355 80132
21125 37355 77294
14727 37355 72710
11693 37355 70267
13846 39690 75924
18097 39690 78830
9479 39690 69802
17134 39690 79780
9279 39690 69230
11491 39690 74881
9811 39690 77349
12556 39690 75383
14430 39690 74870
13700 39690 73223
11898 39690 78212
7011 39690 68546
38607 37678 10724
23012 25498 57368
32512 30579 57368
23143 17538 57368
36139 20227 57368
23900 27057 57368
31676 13567 57368
28339 30912 57368
32543 20405 57368
23251 30872 57368
24711 36028 57368
18214 34694 57368
35176 19007 57368
34598 24569 57368
17083 24138 57368
25763 14180 57368
32863 16707 57368
33130 15177 57368
20738 22741 57368
16708 31671 57368
30545 9097 57368
30797 35519 57368
35054 13638 57368
29846 30746 57368
14261 32979 57368
27815 35939 57368
28320 16108 57368
34873 29549 57368
24393 31667 57368
35245 22185 57368
25491 30342 57368
13180 30558 57368
17640 25126 57368
27766 11318 57368
36175 30118 57368
31875 34461 57368
16067 32908 57368
23051 26335 57368
18909 21412 57368
19968 26304 57368
21535 22314 57368
7677 35129 57368
29576 24993 57368
10846 34630 57368
34877 3878 57368
15710 27677 57368
25498 14877 57368
23869 16423 57368
17041 26156 57368
22135 19190 57368
35269 5629 57368
34352 5497 57368
25714 17807 57368
29471 14919 57368
21276 34622 57368
18466 27305 57368
28692 17055 57368
17527 32915 57368
17719 34623 57368
24630 25780 57368
31494 28769 57368
11727 34505 57368
41058 38541 34125
110 37355 62256
9504 37355 77845
40649 39690 19461
37927 39690 42004
2428 39690 40101
12442 39690 42707
7336 39690 42310
12434 39690 42080
10043 39690 42117
6308 39690 42396
34332 39690 41863
4499 39690 42259
9445 37355 46496
5667 37355 44795
12667 37355 46451
13093 37355 44250
15646 37355 44767
29061 37355 45405
7529 37355 44427
24013 37355 44944
21725 37355 46253
37777 37755 9247
41058 39392 28408
16291 39690 48813
13037 39690 47886
10956 39690 48307
32206 39690 49003
7784 39690 49101
4283 39690 49893
12898 39690 48786
13547 39690 49383
12058 39079 1658
40452 37355 15637
41058 39249 27157
13141 39690 27226
4012 39690 26926
6264 39690 26190
18116 39690 26777
31781 39690 27402
20438 39690 26387
14713 39690 26326
15627 39690 26821
22461 37355 54236
38251 37355 53877
20751 37355 55036
17105 37355 54228
33312 37355 54515
21620 37355 55044
40111 37355 54053
35148 37355 54712
37747 37355 62180
35646 37355 71353
40285 37355 62743
34203 37355 71974
3121 37355 61696
23077 37355 62147
31797 37355 65033
34584 37355 70907
29332 37355 61398
39671 37355 65338
14850 37355 63806
28167 37355 64448
15026 37355 63275
32865 37355 66537
28769 37355 65549
30398 37355 69844
26809 37355 62331
20715 37355 66508
33189 37355 69609
20034 37355 61950
37564 37355 70188
38198 37355 62404
36804 37355 61954
38181 37355 61831
30110 37355 67196
39540 37355 61876
25791 37355 42773
25894 37355 44478
22389 37355 43139
27625 37355 43860
23589 37355 44489
19534 37355 43873
16388 37355 43188
36673 37355 42681
41058 38968 34420
6012 37355 22107
21543 37355 24459
12262 37355 24226
18558 37355 22737
18758 37355 23833
3673 37355 21554
10069 37355 23418
24947 37355 58498
24328 37355 58563
31032 37355 59613
33484 37355 58915
40368 37355 56632
29946 37355 57475
38092 37355 58781
40324 37355 58853
24044 37355 57132
24669 37355 57688
21898 37355 81126
8774 37355 53207
8677 37355 51397
15811 37355 52902
24394 37355 52412
2048 37355 53314
7551 37355 51168
22536 37355 52780
1062 37355 54035
2301 38010 10923
4294 39690 30169
13784 39690 30311
9621 39690 30914
2129 39690 30952
20311 39690 30935
22099 39690 30162
16401 39690 31478
29874 39690 31187
22750 0 17570
7715 0 17719
14893 0 19070
8694 0 19027
17201 0 19774
13037 0 18266
5871 0 20949
30039 0 17326
11561 0 18761
6213 0 21345
27837 39690 59981
19763 39690 59192
14528 39690 59174
3201 38396 9437
38178 37355 14158
13799 39690 982
22449 39690 60265
9564 39690 60454
7952 39690 60533
684 39597 15382
15651 39690 66422
26862 39690 62052
28005 39690 69446
36825 39690 62978
31617 39690 64109
16803 39690 66951
34981 39690 64082
33424 39690 69906
12559 39690 65266
29412 39690 61394
26960 39690 69936
13486 39690 65641
38445 39690 65162
28596 39690 66640
27064 39690 66467
40148 39690 61482
35141 39690 65551
14240 39690 63736
16628 39690 64103
17350 39690 66268
32568 39690 71597
15743 39690 63239
12158 39690 63662
33145 39690 63879
22571 39690 66874
24411 39690 66253
22161 39690 67230
10610 39690 64372
36236 15379 17824
36236 20884 16740
36236 21885 16592
36236 29362 16895
36236 13992 17895
36236 18122 16481
36236 24072 17034
36236 18898 16994
36236 18616 17406
36236 27674 17505
36236 17308 17025
36236 26242 17745
30633 38065 2453
13039 37355 70527
11448 37355 68834
9115 37355 64600
16898 37355 67736
24232 37355 73178
20728 37355 75388
30299 37355 72157
19434 37355 69024
6606 37355 65920
32403 37355 72853
28190 37355 78114
15127 37355 71822
19643 37355 72833
28024 37355 74851
29832 37355 71960
12297 37355 66096
31414 37355 75139
30568 37355 73709
4021 37355 64063
11827 37355 69212
34990 37355 73413
11933 39690 55954
4704 39690 57238
6843 39690 55754
3271 39690 56357
10013 39690 56911
9561 39690 55547
0 38688 57966
18658 37355 80128
12310 37355 72275
6287 37355 66707
7105 37355 72817
21013 37355 80456
13929 37355 76060
3438 37355 65840
15240 37355 75986
10293 37355 74643
12006 37355 74185
24097 37355 80836
15499 37355 75329
9389 37355 73565
36236 5187 59762
36236 22432 61502
36236 8863 62788
36236 22030 62711
36236 10572 62090
36236 32663 62348
36236 14170 60153
36236 15097 62762
36236 13576 60180
36236 2032 57680
36236 17299 62109
36236 2279 58739
5433 39690 37630
6170 39690 39206
14407 39690 38865
23296 39690 37749
7473 39690 39281
18149 39690 37246
27728 0 21205
24129 0 21323
26289 0 19335
19479 0 19701
16824 0 20538
25519 0 19307
20771 0 20462
33469 0 21688
33950 0 17190
29083 0 17804
32319 0 21091
24271 37355 60180
9818 37355 60398
6692 39690 75934
31144 39690 77884
20131 39690 76683
11447 39690 69843
21674 39690 78672
4421 39690 70031
624 39690 62991
17512 11569 21955
32218 4001 21955
35520 21549 21955
29967 13694 21955
24579 22938 21955
14382 10932 21955
35639 18036 21955
35022 26007 21955
18678 11136 21955
27296 24394 21955
20530 7712 21955
28013 8145 21955
34787 16722 21955
26944 25035 21955
16930 11274 21955
10950 6322 21955
30692 18837 21955
35837 3353 21955
28625 16746 21955
35924 30490 21955
29966 29774 21955
33124 6482 21955
26883 10006 21955
14190 1914 21955
12043 7812 21955
11986 42 21955
25261 2702 21955
28840 8282 21955
27331 11237 21955
33884 18314 21955
32691 7991 21955
35489 35439 21955
20599 182 21955
23550 6727 21955
35483 28107 21955
34896 6415 21955
23996 13391 21955
13030 5447 21955
17023 6179 21955
26203 4495 21955
21889 6345 21955
36108 31528 21955
26139 5976 21955
10427 4170 21955
17654 9851 21955
31494 7262 21955
32321 31886 21955
11381 170 21955
22060 16611 21955
33438 3770 21955
13244 8861 21955
17762 11127 21955
22904 16670 21955
33124 2521 21955
8949 922 21955
20295 5530 21955
32661 25767 21955
26297 9298 21955
17404 5489 21955
11934 4044 21955
19798 17244 21955
36180 6920 21955
41058 38512 51691
3314 37355 39032
2404 37355 38967
14286 37355 37031
25428 37355 37837
14646 37355 38604
19382 37355 38899
32214 37355 38568
22174 37355 38720
30869 37355 38541
0 37505 42370
40977 38416 18681
26825 37355 56073
34433 37355 56225
8961 37355 55624
7507 37355 55604
25323 37355 56812
292 37355 57614
8179 37355 56912
18648 37355 56191
4983 19912 20274
4983 20156 21323
4983 5392 21848
4983 17731 21870
4983 15198 20703
4983 12565 20542
4983 22910 18832
4983 35962 19562
4983 34782 17367
4983 8886 21409
4983 20039 21925
4983 34426 17719
40872 39099 64100
13092 37355 62571
11101 37355 58953
12137 37355 61770
15583 37355 61517
20986 37355 61594
15177 37355 61811
21156 37355 62803
4341 39690 73711
2282 37355 69999
41058 39298 23455
27266 39464 80742
10143 39690 2786
41058 38743 24534
23163 37355 46966
27019 37355 46621
34279 37355 47822
33256 37355 48304
36623 37355 48370
14283 37355 47586
13688 37530 977
41058 37596 48593
34115 37355 60507
20309 37355 60210
16582 37355 60670
12687 37355 60194
0 38011 56949
664 39358 66302
3133 39690 28666
33636 39690 29277
8827 39690 29047
35412 39690 27848
38041 39690 28499
31785 39690 29589
38104 39690 28991
38959 39690 30928
7506 39690 52991
33030 39690 52791
18596 39690 51993
13432 39690 51617
31685 39690 52587
6204 39690 53903
33516 39690 53010
3912 38744 73296
15995 16985 16480
16834 16564 16480
16921 17703 16480
9616 25214 16480
16069 14296 16480
9094 7010 16480
18991 6592 16480
17902 1718 16480
12661 2700 16480
6638 34497 16480
7796 7855 16480
8353 15821 16480
5504 32383 16480
12509 7512 16480
16584 4570 16480
15027 14967 16480
6384 10357 16480
14219 18549 16480
30187 6631 16480
8922 10030 16480
11254 15886 16480
15654 21039 16480
10373 13572 16480
23276 10887 16480
15904 23971 16480
23286 222 16480
24529 11863 16480
16548 20448 16480
9249 30904 16480
14006 20725 16480
7454 23890 16480
21862 7714 16480
5388 29849 16480
12820 5308 16480
32946 2551 16480
31645 3977 16480
5659 7679 16480
10257 17080 16480
11496 19333 16480
7339 12851 16480
5129 14987 16480
6803 26088 16480
22143 988 16480
28109 6612 16480
10349 21622 16480
20942 1484 16480
14049 13263 16480
11373 7793 16480
11911 23492 16480
22802 14129 16480
28373 5812 16480
11529 28083 16480
6297 28523 16480
10414 12987 16480
13497 6089 16480
16064 5247 16480
20941 8681 16480
12731 4062 16480
16993 22129 16480
38399 37355 33193
18239 37355 33265
19041 37355 32194
36957 37355 32658
35941 37355 33879
22429 37355 33569
37548 37355 31881
33547 39126 4452
41058 37945 49446
23352 38763 0
2091 37355 69507
10697 37355 59391
18835 37355 59811
18273 37355 59635
37196 39690 57169
25195 39690 58079
1051 39690 57859
17121 39690 58107
7369 39690 58253
18101 39690 57449
21751 39690 59074
34350 39690 59115
26767 39690 1995
28244 39690 2839
27730 39690 6729
31495 39690 7576
26062 39690 3544
32437 39690 8327
23300 39690 1835
24007 39690 1667
36236 22884 16906
36236 22456 18997
36236 22522 18352
36236 27118 17086
36236 11384 17584
36236 28235 16625
36236 18861 18546
36236 28914 18826
36236 19957 18613
36236 24340 19736
0 37719 50827
29407 37355 41311
30998 37355 39024
17229 37355 39097
12282 37355 39707
32578 37355 41316
40317 37355 40994
26447 37355 39995
40409 37355 41967
40890 37355 40720
6213 0 60877
12643 0 58749
25110 0 59124
16363 0 60247
13087 0 61304
34045 0 57600
14259 0 60971
17356 0 58224
5013 0 62705
12214 0 61279
0 38910 57100
11112 37931 79545
20214 39690 39350
30011 39690 39230
40238 39690 39247
34546 39690 39322
25851 39690 39922
39735 39690 39548
35561 39690 39695
18460 37355 80594
39732 37355 28920
9914 37355 28572
30547 37355 29769
23614 37355 28376
28330 37355 30290
37898 37355 30075
39952 37355 30477
31328 37355 29267
36872 37355 29169
10515 22754 21955
10841 20179 21955
6444 4264 21955
24781 29449 21955
23583 29651 21955
13842 12261 21955
26771 28221 21955
29459 35103 21955
26843 33748 21955
6761 11330 21955
14669 35355 21955
8037 28351 21955
13900 11252 21955
5781 25422 21955
21115 28249 21955
8470 13807 21955
9929 30382 21955
19967 32435 21955
10098 29183 21955
8297 33981 21955
19882 23848 21955
28317 32421 21955
21386 29018 21955
27264 31120 21955
8256 23489 21955
6835 15006 21955
5218 22791 21955
15893 21515 21955
23706 22628 21955
17739 21137 21955
7721 34328 21955
24647 27628 21955
9893 27344 21955
13180 26054 21955
10776 34797 21955
13176 21120 21955
17483 25798 21955
7091 12041 21955
6986 34336 21955
9014 21261 21955
14180 37205 21955
22192 23995 21955
5044 31063 21955
17540 22962 21955
24897 28695 21955
32627 36164 21955
6589 22793 21955
13534 28892 21955
11578 24419 21955
7709 17701 21955
25320 24991 21955
13403 30158 21955
6391 26321 21955
17587 17106 21955
20056 28900 21955
7016 21420 21955
11712 17994 21955
13887 11768 21955
14791 31174 21955
27930 27731 21955
19606 30728 21955
15351 22930 21955
30556 36699 21955
5589 12344 21955
6051 35579 21955
21292 25298 21955
28972 38912 80039
32285 37355 4396
33670 37355 6577
41058 38033 38872
553 39690 16305
25730 37355 26900
11214 37355 26535
10604 37355 26628
15867 37355 26394
17543 37355 27903
34590 37355 27625
28540 37355 27654
974 37355 66920
649 37355 65938
36468 39320 7459
13049 39690 23578
18034 39690 23301
7976 39690 22252
9529 39690 23217
356 39690 21853
782 39690 23396
4145 39690 23163
1107 39690 23001
18906 37355 1274
20077 37355 2378
14270 37355 1759
29838 37355 12535
30135 37355 11811
22132 37355 5922
27501 37355 8627
34180 37355 15525
20295 37355 3875
34523 37355 14650
2838 39180 71739
24995 39690 48845
3231 39690 48488
10638 39690 49679
19174 39690 49842
14058 39690 48146
6017 39690 49484
2973 39690 49760
3213 37355 11372
0 38294 36695
21428 39690 25089
25304 39690 26124
14030 39690 25212
23240 39690 26378
31882 39690 25077
25623 39690 25135
28786 39690 25907
25057 39690 25368
33704 39690 25553
41058 37728 36367
19692 38711 81862
31958 38747 3347
0 39492 26802
6243 39601 5643
37364 39690 44584
34378 39690 43834
6539 39690 43350
35994 39690 44811
25190 39690 42770
22224 39690 43410
28800 39690 34093
8594 39690 32908
26583 39690 35093
11212 39690 34441
1213 39690 35858
5163 39690 34219
2332 39690 33179
6499 39690 33246
23627 39690 34349
25299 39690 37030
39555 39690 36195
29521 39690 36412
40740 39690 36295
35645 39690 37155
17504 39690 35961
34968 39690 35310
24578 39690 37388
38053 39690 35630
4491 37355 58482
109 37355 58693
7263 37355 58735
1794 37355 58688
36236 17454 58107
36236 6845 58327
36236 23721 59023
36236 37097 60366
36236 34106 58303
36236 25500 58003
36236 32267 61011
36236 9526 57755
36236 10033 58685
36236 18273 59455
36236 34554 58645
18669 39690 80905
29423 39346 1896
9090 39690 41227
9817 39690 41229
16106 39690 42248
14497 39690 42169
29798 39690 42209
7383 39690 41307
6314 39690 41172
26171 37355 20469
14439 37355 20857
1470 37355 21104
4983 35189 18948
4983 21310 19679
4983 16643 20867
4983 28779 20643
4983 24194 18930
4983 15721 20247
4983 26708 21231
4983 29541 19880
4983 23834 21783
4983 35590 21858
18605 38494 81788
18470 37355 78318
10596 37355 77678
11976 37355 78279
7135 37355 69074
6539 37355 71944
15335 37355 79017
14316 37355 75597
17775 37355 77374
13482 37355 79494
17156 37355 76227
18936 37355 79602
19771 37355 78071
3866 37355 66774
5873 37355 68480
16958 34121 21955
29182 30570 21955
10259 16730 21955
15664 33463 21955
18454 21643 21955
5978 6623 21955
16083 35198 21955
6869 16808 21955
7862 20848 21955
24015 32812 21955
22831 21591 21955
7860 25491 21955
18250 34323 21955
14286 32816 21955
5726 9314 21955
12635 18894 21955
7418 29845 21955
11431 29425 21955
12845 16002 21955
6439 35072 21955
15035 18327 21955
13278 12455 21955
16266 30540 21955
30930 31659 21955
24823 30300 21955
11012 24360 21955
23217 25993 21955
24144 36893 21955
20501 33786 21955
13346 27865 21955
5470 29354 21955
14769 17110 21955
19729 22961 21955
14461 16174 21955
14675 22249 21955
5532 3229 21955
18797 26007 21955
19900 18911 21955
22310 32229 21955
11556 12110 21955
7397 14336 21955
32301 33584 21955
8869 16417 21955
9666 22660 21955
15162 32159 21955
22197 25148 21955
14524 23706 21955
20896 20116 21955
5318 8037 21955
6617 9957 21955
5829 34350 21955
6018 21274 21955
11620 23759 21955
17509 20469 21955
17923 28095 21955
11877 21074 21955
10714 27986 21955
9436 35130 21955
18617 20138 21955
3121 37355 68006
4444 37355 69863
36236 5902 60181
36236 5939 61924
36236 16678 62084
36236 15022 62080
36236 3556 61100
36236 8513 60161
36236 10903 59202
36236 9429 58836
36236 4984 61439
36236 1513 60427
41058 38953 44055
3234 39690 44241
36197 39690 45725
13385 39690 44876
13331 39690 44228
14996 39690 45162
15866 39690 45311
14233 39690 45049
41058 39677 36669
5004 39690 10447
4143 39690 11912
7940 39690 8210
