ply
format ascii 1.0
element vertex 2834
property float x
property float y
property float z
end_header
0 23947 61485
0 24421 15426
0 24128 51723
0 24542 9253
0 24818 16551
0 23778 25887
0 24088 50460
5145 175 74354
7146 6402 9213
12536 11146 9155
11185 15971 76667
6385 21796 6904
11909 5696 8710
9879 7635 74337
7826 7635 75921
41238 21793 75316
38772 23572 78110
35661 5806 11423
11832 13871 7833
37361 15935 9719
36456 1527 5974
36748 9699 72616
35649 17974 11434
37453 19919 7216
12147 9720 76437
38909 15935 75452
38155 18068 11864
39447 10930 71697
38785 15677 71741
10704 15807 76646
7132 5612 10265
37908 17959 9918
40596 3640 8949
35621 17565 7073
36082 9699 7821
37406 7635 76327
12535 12439 12199
10645 8973 10644
7281 0 6138
6535 0 8304
10042 1775 74704
7581 13985 12139
9143 23348 78865
46028 23572 142
36586 22341 74750
17204 25776 1089
4902 26793 3087
27219 25478 504
3355 25432 413
4799 26544 2597
41193 25389 328
22858 25886 1305
5144 26020 1568
8547 23572 17358
6778 23572 25961
5402 23572 52996
6399 23572 28132
6309 23572 31609
5284 23572 26173
6247 23572 54678
5806 23572 55527
5470 23572 50390
7382 23572 41864
5625 23572 20740
5677 23572 60135
5097 23572 47624
5837 23572 27337
5702 23572 41020
38680 7635 75413
10922 21258 6698
34534 12008 76001
41547 0 8405
3894 26516 2544
45823 25259 73
9534 26480 2472
23116 26113 1750
7146 26432 2377
25358 25393 336
34591 25451 451
40804 20534 8693
37141 21796 74861
39502 21796 76817
8734 17590 76961
23269 26871 17225
4458 26871 8616
4222 26871 43901
29059 26871 9551
9524 26871 9874
5031 26871 58120
11008 26871 4028
17705 26871 16363
13523 26871 60463
17171 26871 37778
37176 26871 14088
41612 26871 6600
35535 26871 9959
13456 26871 4347
24362 26871 35486
13710 26871 18818
22934 26871 26312
3996 26871 78666
7659 26871 25369
9019 26871 20603
26572 26871 30636
25472 26871 36481
26123 26871 36363
15904 26871 50217
30318 26871 29051
37880 26871 14179
13876 26871 31010
36731 26871 9645
14215 26871 4062
21387 26871 17227
14602 26871 58013
8386 26871 4356
9566 26871 26368
10011 26871 16281
13860 26871 6120
19067 26871 25045
10476 26871 41299
5751 26871 29516
6257 26871 32961
4796 26871 67092
18850 26871 7060
3604 26871 12898
20472 26871 21198
4186 26871 60226
4492 26871 13331
19286 26871 17183
13822 26871 47069
23641 26871 13151
10762 26871 61691
18729 26871 38703
5415 26871 23095
19270 26871 13500
22798 26871 11731
5902 26871 71404
20828 26871 4621
6457 26871 12344
12203 26871 43108
13583 26871 45780
4469 26871 48908
18493 26871 29673
27931 26871 28119
31659 26871 18798
7409 26871 58946
14723 26871 20549
9384 26871 22064
5599 26871 73960
22371 26871 14059
18445 26871 50300
21459 26871 7026
14444 26871 46597
6715 26871 44002
10195 26871 50628
13887 26871 35355
5172 26871 42943
20738 26871 10188
18805 26871 9842
17823 26871 18956
11607 26871 5202
31574 26871 11902
7102 26871 57983
12552 26871 10866
15195 26871 47745
28806 26871 13048
12207 26871 9527
37080 26871 9216
30048 26871 18328
12912 26871 27464
15524 26871 37365
8280 26871 37539
8092 26871 66734
5437 26871 42219
21980 26871 38374
40160 26871 4993
9615 26871 11335
4683 26871 17116
14871 26871 48913
23222 26871 37148
32123 26871 10155
19402 26871 45153
24734 26871 35217
4567 26871 14339
25899 26871 30694
16067 26871 31567
13291 26871 54967
20138 26871 17866
8558 26871 12286
14099 26871 38668
17151 26871 12346
29753 26871 6768
9347 26871 32217
29663 26871 13684
19797 26871 4883
9189 26871 50547
19002 26871 9318
27553 26871 19826
36497 26871 14948
6780 26871 70853
10677 26871 60344
10371 26871 48647
6171 26871 4066
16614 26871 41074
11467 26871 15296
15994 26871 14967
18764 26871 41327
35181 26871 11655
30442 26871 16631
9244 26871 52454
25170 26871 32976
22623 26871 19881
8492 26871 28803
10241 26871 43178
26312 26871 15945
11695 26871 9705
5479 26871 3276
4985 26871 28265
18476 26871 22090
6043 26871 10394
26254 26871 20549
29627 26871 26854
11939 26871 41445
16644 26871 54336
17308 26871 42345
20988 26871 33914
9327 26871 39514
7412 26871 20880
38535 26871 5420
16718 26871 41937
13570 26871 16926
6770 4718 7898
8366 15935 10800
12119 7635 11498
8542 2175 73157
10707 14248 71587
8620 0 9534
9261 0 7817
8952 19919 73014
40933 2635 72998
7632 14535 7521
36447 9699 75897
7136 1159 5575
8702 15935 75148
38836 9419 12453
38644 17075 71977
8406 18397 77142
27128 23572 7179
18666 23572 6174
30789 23572 8356
36919 23572 8362
24415 23572 5849
14933 23572 5126
24780 23572 7138
12504 10272 10123
40858 23572 74650
27275 25222 41921
28508 25222 75359
30719 25222 41457
15670 25222 71152
38373 25222 31306
37541 25222 45429
19637 25222 54902
42903 25222 21324
37835 25222 21515
29364 25222 63858
32993 25222 63225
25151 25222 81525
18618 25222 57051
13654 25222 69581
24128 25222 65379
45153 25222 41827
44815 25222 14220
45174 25222 76276
28859 25222 33837
14425 25222 77440
46281 25222 21889
15097 25222 65706
22653 25222 60800
32430 25222 82855
31007 25222 62397
13572 25222 83966
39283 25222 75719
46408 25222 30224
25222 25222 58695
45895 25222 9367
31040 25222 47873
33300 25222 80818
41271 25222 30114
17284 25222 76747
20341 25222 78601
21089 25222 73463
41883 25222 12169
28630 25222 55489
37238 25222 80168
46229 25222 9019
9607 25222 74833
38261 25222 55848
38064 25222 81506
20727 25222 51398
18276 25222 58620
39402 25222 26733
31829 25222 64648
37528 25222 36515
26855 25222 59598
43807 25222 37623
23834 25222 51525
10579 25222 79526
11525 25222 80971
23874 25222 75969
37845 25222 56612
45462 25222 61998
30932 25222 65607
39893 25222 17408
44068 25222 40829
21057 25222 50326
34340 25222 58341
44541 25222 63915
12540 25222 82541
43206 25222 43377
26383 25222 43099
21783 25222 78717
31621 25222 58667
46796 25222 62190
23550 25222 53649
22148 25222 66901
41202 25222 58638
17927 25222 52767
33925 25222 72880
44672 25222 5938
47041 25222 52185
25979 25222 75074
44570 25222 30902
42739 25222 72124
23502 25222 82363
46009 25222 66856
33974 25222 57171
34864 25222 53303
24017 25222 60840
42745 25222 23686
19558 25222 64891
22377 25222 57419
32258 25222 48343
26739 25222 54842
21257 25222 71637
12445 25222 74106
16031 25222 69586
14014 25222 70880
39847 25222 59118
44272 25222 76073
36612 25222 61768
37585 25222 57547
38303 25222 60603
37320 25222 61076
7174 25222 71869
24255 25222 68855
29857 25222 80214
24163 25222 71121
21772 25222 69060
44568 25222 28973
45320 25222 69780
24030 25222 64743
40013 25222 31574
37768 25222 63171
34963 25222 63755
21968 25222 49735
16285 25222 68265
2162 25222 82384
15044 25222 60690
24488 25222 72849
28722 25222 81563
28359 25222 47921
46175 25222 5905
32437 25222 73993
46846 25222 24073
27240 25222 61477
32315 25222 56031
44304 25222 57361
28263 25222 50794
31372 25222 38259
27337 25222 37667
36568 25222 49380
17049 25222 62829
17951 25222 54861
38656 25222 33305
40982 25222 63088
16157 25222 57240
24420 25222 75200
26157 25222 66114
29351 25222 44050
45896 25222 35365
12475 25222 62902
20146 25222 68133
35233 25222 56418
40123 25222 39203
35651 25222 32623
27819 25222 68468
46266 25222 12063
23959 25222 56908
29026 25222 67284
23112 25222 55807
23350 25222 80240
40160 25222 71394
25433 25222 50379
42389 25222 13248
32709 25222 62653
29437 25222 74013
34260 25222 68104
35907 25222 65069
43042 25222 76740
27825 25222 77208
14143 25222 81065
37127 25222 57005
47017 25222 19401
36863 25222 38687
16939 25222 79006
35991 25222 50661
42191 25222 57471
35406 25222 54428
25711 25222 44212
44927 25222 22936
26308 25222 79453
44544 25222 23353
35436 25222 78188
37237 25222 28752
45560 25222 42923
27935 25222 74517
36257 25222 27612
43424 25222 22316
46613 25222 73224
45453 25222 14888
20085 25222 56370
45210 25222 62653
39032 25222 22070
30050 25222 84005
36657 25222 47905
32064 25222 71820
23269 25222 62020
44548 25222 37430
35041 25222 44751
21596 25222 68193
42821 25222 66272
24050 26871 14539
30285 26871 27218
8952 26871 36742
23354 26871 41927
24452 26871 17949
20015 26871 40402
17921 26871 5939
8535 26871 60568
7107 26871 29329
12199 26871 44814
13317 26871 58529
3790 26871 10021
14680 26871 36056
23377 26871 31633
30328 26871 3792
8972 26871 38317
7385 26871 39261
17763 26871 38811
14688 26871 13033
6058 26871 50734
18227 26871 35360
19423 26871 26493
20153 26871 27519
4388 26871 43095
17049 26871 48086
17286 26871 36791
13309 26871 41171
30595 26871 22405
14351 26871 23955
6224 26871 69927
4710 26871 56756
26949 26871 24813
10624 26871 24049
4334 26871 60695
5835 26871 52221
10018 26871 18004
10828 26871 29336
21168 26871 36304
5310 26871 57542
8288 26871 6566
32432 26871 11607
22289 26871 19266
12408 26871 39521
12707 26871 46498
6186 26871 23357
9811 26871 25040
9017 26871 6980
11787 26871 33638
24599 26871 7825
16795 26871 46174
12018 26871 11821
10945 26871 57467
3857 26871 60713
18829 26871 13796
3456 26871 34585
15102 26871 28224
4513 26871 48355
3674 26871 17110
6369 26871 55629
14210 26871 40365
17952 26871 49156
3589 26871 33093
13727 26871 13702
24507 26871 9366
7375 26871 33137
6075 26871 4696
10267 26871 45493
6567 26871 32340
5219 26871 16122
12435 26871 40141
29872 26871 22605
28065 26871 24754
5130 26871 32937
32135 26871 14238
14244 26871 29797
18591 26871 20466
18500 26871 47355
9474 26871 27620
26727 26871 20198
23747 26871 4515
15892 26871 32479
7416 26871 47254
25817 26871 7171
26062 26871 25106
12264 26871 26717
15135 26871 26696
19577 26871 30439
20057 26871 32300
18586 26871 15898
33293 26871 11399
29849 26871 24081
4060 26871 34576
31395 26871 26947
22705 26871 37699
4535 26871 63897
23413 26871 20108
9777 26871 59389
32353 26871 23352
4402 26871 56046
35291 26871 17266
8347 26871 23123
16761 26871 14075
5008 26871 39493
22103 26871 21880
10617 26871 9800
4467 26871 69880
34695 26871 10876
8149 26871 9204
13598 26871 40094
10470 26871 28061
11212 26871 56471
9452 26871 16423
24354 26871 27697
20114 26871 8588
6973 26871 4552
7441 26871 27415
22500 26871 9974
27504 26871 15558
20273 26871 10826
18768 26871 35236
21851 26871 30627
25830 26871 4694
21546 26871 5667
7634 26871 61199
5051 26871 32057
17503 26871 29837
7846 26871 48952
22676 26871 6761
19880 26871 12076
22542 26871 4525
26235 26871 26879
26314 26871 3832
34569 26871 16868
5060 26871 51878
22796 26871 15898
11752 26871 50500
39792 26871 7468
13357 26871 53532
6816 26871 63273
6423 26871 13961
9502 26871 67076
17991 26871 43646
8087 9699 75920
12152 16538 74021
34722 8565 11186
36269 21568 77135
37778 21806 78190
34851 7476 74035
12195 7286 71833
8819 23572 47347
9549 23572 65987
8702 23572 61521
9935 23572 18641
8244 23572 40536
8854 23572 63342
9813 23572 46683
7869 23572 50047
6274 23572 66407
7362 23572 52877
8576 23572 34247
8466 23572 66795
7919 23572 41825
8852 23572 67721
6551 23572 70612
10969 19919 7820
34588 10035 8027
36044 2655 8493
37838 23572 8497
8262 21796 7269
8901 11014 76391
37068 23441 78150
39527 23572 79237
39825 18853 72370
8759 11785 8367
10396 15168 12344
10691 9699 73702
11392 19886 75841
39787 3653 74987
39487 3653 75711
7801 2391 6057
34803 7816 9623
18572 23572 80220
12362 9699 75828
10784 1912 76538
37495 15935 72802
6172 23572 74901
41331 23572 59837
41380 23572 71644
41035 23572 27493
38751 23572 58449
39398 23572 49117
39940 23572 46407
39219 23572 60294
39439 23572 68316
40864 23572 48396
40188 23572 38106
39506 23572 71274
41250 23572 34231
38708 23572 56068
38983 23572 68445
37115 1775 77149
37869 11722 7664
37209 19919 73039
40309 2942 77783
11839 15935 10311
34727 13969 71557
44324 25222 45752
4830 25222 75446
41341 25222 36281
10321 25222 70403
30438 25222 60699
41727 25222 38889
16113 25222 62345
25708 25222 46022
40057 25222 34026
25198 25222 39662
29650 25222 80833
44359 25222 51944
20123 25222 58815
37654 25222 58309
46528 25222 10908
35995 25222 65570
12344 25222 62461
42673 25222 61237
32811 25222 43286
12756 25222 83951
37431 25222 34036
35773 25222 63526
33604 25222 53186
14447 25222 84017
31682 25222 74903
9157 25222 72523
36652 25222 50043
46581 25222 61641
35394 25222 47333
36534 25222 83648
30537 25222 43507
26649 25222 49411
21933 25222 80473
39248 25222 59583
3109 25222 81501
39065 25222 16085
46297 25222 21230
32522 25222 30989
42755 25222 69547
40945 25222 56434
19929 25222 70748
22355 25222 44907
41794 25222 77453
16871 25222 55416
40907 25222 39378
24537 25222 44286
15129 25222 59809
30285 25222 60150
20056 25222 81405
36188 25222 51288
45532 25222 57383
41849 25222 43188
32832 25222 26498
34891 25222 55266
38174 25222 29517
15638 25222 83128
22562 25222 83293
31994 25222 45405
44194 25222 80990
44196 25222 41884
15209 25222 58273
26332 25222 58151
16445 25222 72299
26894 25222 83168
26032 25222 74105
14764 25222 83399
44974 25222 71589
28451 25222 59545
39775 25222 79842
13817 25222 74317
44926 25222 8764
44350 25222 10410
40524 25222 83804
40383 25222 37248
25311 25222 81052
22210 25222 74793
20664 25222 60186
44926 25222 6841
35268 25222 46430
17368 25222 60038
27441 25222 81673
30535 25222 49649
24700 25222 72414
39931 25222 83485
14189 25222 75170
25560 25222 59219
26489 25222 41365
19947 25222 74976
29974 25222 74604
15007 25222 70246
18276 25222 74548
12557 25222 81023
43373 25222 29379
25527 25222 39060
3474 25222 78743
27790 25222 70481
37361 25222 62455
34147 25222 44593
38389 25222 21810
5735 25222 82869
40556 25222 25691
33896 25222 61430
44177 25222 34236
33970 25222 32860
29226 25222 75970
39168 25222 54352
46540 25222 80869
44172 25222 32444
42183 25222 33384
19254 25222 80857
37711 25222 29935
28380 25222 69021
40925 25222 71291
45314 25222 48103
22746 25222 64967
33203 25222 46691
34401 25222 69501
33573 25222 64799
24924 25222 69526
36081 25222 44315
14747 25222 63944
26578 25222 44533
27370 25222 45959
37416 25222 22673
38906 25222 27758
10126 25222 79424
36000 25222 66966
35245 25222 37508
36183 25222 47704
5022 25222 81569
41425 25222 21128
31950 25222 59711
32763 25222 54844
39937 25222 61847
24985 25222 48609
37695 25222 26317
16162 25222 58390
35817 25222 49390
44541 25222 65266
9293 25222 77673
43740 25222 20881
15681 25222 59947
16844 25222 64477
40874 25222 55141
44819 25222 55893
43259 25222 7571
46070 25222 63113
46534 25222 18071
38362 25222 36029
36351 25222 71529
17869 25222 77043
19323 25222 58998
34160 25222 45754
22677 25222 77369
38482 25222 52477
18658 25222 55482
34781 25222 45933
44527 25222 15940
36432 25222 74672
39894 25222 51140
31220 25222 71454
46658 25222 75653
26702 25222 63289
45340 23572 82932
7632 17864 72120
12517 10619 9792
6670 0 76968
37840 12547 71500
35310 5155 73956
6684 19184 10092
12518 12909 71890
17544 24585 84030
19289 24941 84030
4471 24084 84030
11006 3653 77124
10754 3653 74826
16762 24521 84030
32458 25206 84030
34623 25155 84030
193 24932 84030
28896 25372 83735
6086 26261 81987
29412 25294 83887
3225 25424 83633
23937 25706 83077
6485 25489 83505
2641 26281 81946
5924 25410 83660
19101 25961 82579
6170 2716 74252
37651 1775 78179
36259 3963 6572
37927 3404 77624
11957 17603 75590
12454 14146 12388
39436 12325 75654
41447 0 6193
40507 0 8151
11630 5612 10182
39188 1775 7367
9673 16018 71784
38502 0 76663
11682 18767 73693
37162 0 76703
35267 7443 11815
38647 7635 7507
11601 15935 10865
36618 7227 12186
10240 7635 10655
7729 8852 76529
9349 19919 75402
8162 17538 7078
34582 10202 9700
9635 9699 8995
34630 14148 73864
34590 13581 9333
5501 22582 9993
38591 11785 11297
37028 21796 7920
36720 13233 73667
36571 22117 73518
8389 15935 8583
7315 200 10045
36038 6286 7124
7634 12692 73829
40064 5708 8186
39441 12475 73249
36634 3381 11289
34586 10103 12120
11424 13871 74252
10249 1775 9972
8821 1775 8826
41105 21796 9156
37717 22546 73622
12470 9566 10891
41705 710 75189
9349 624 78689
1428 25948 40560
916 25688 48510
1170 25816 30861
22 25232 78514
1754 26114 13952
1282 25873 13950
482 25466 3102
2195 26339 18056
1986 26231 6180
761 25608 18036
209 25328 48194
1732 26103 1736
1657 26065 8731
503 25476 24978
648 25551 55887
39527 17959 75201
7607 10083 75324
34636 9367 7793
11006 20107 11318
39317 23572 9574
34882 7308 9060
9577 23572 75686
35087 17388 8966
34276 23572 83750
26576 23572 81632
32423 23572 82555
9957 23572 80953
15096 23572 81797
9791 23572 80484
10815 23572 82220
39604 23572 83833
27491 23572 83926
16372 23572 80675
24297 23572 82864
39982 1500 10615
47084 23741 31234
47084 23824 82265
47084 23983 33203
47084 24640 61913
47084 24053 68543
47084 24543 55270
45659 23572 25170
43538 23572 52974
46536 23572 26415
44665 23572 70894
44533 23572 78083
45066 23572 43827
44637 23572 62761
44494 23572 56763
44398 23572 67346
47061 23572 14585
46992 23572 65532
43900 23572 52565
45992 23572 46785
45461 23572 60223
45465 23572 38227
45887 23572 71432
46680 23572 67150
45768 23572 52274
45956 23572 32025
43059 23572 67934
12010 16355 71846
36264 15935 74673
11054 20875 77534
9307 11019 7639
9449 5612 74595
11222 5612 76408
7005 19599 77455
7686 14967 71665
9436 20743 6207
38972 1775 6930
7537 5612 7993
9644 5612 10884
11559 7903 7399
6639 4214 77372
34859 16137 72788
19413 25222 10305
9197 25222 45592
26420 25222 20796
17114 25222 42899
36745 25222 11345
14989 25222 22284
24114 25222 24505
25156 25222 16340
40384 25222 4111
20002 25222 27052
14633 25222 42831
36518 25222 8467
4592 25222 32071
23400 25222 30373
3707 25222 3765
655 25222 26207
13962 25222 28970
30040 25222 18508
3873 25222 50556
15193 25222 3746
11104 25222 47128
12976 25222 14771
31422 25222 20083
34734 25222 17409
15328 25222 6129
29789 25222 13067
6101 25222 35695
1557 25222 49835
14655 25222 44751
15802 25222 35467
4766 25222 20665
3345 25222 72687
7412 25222 55236
860 25222 26807
27853 25222 10834
11595 25222 3273
23612 25222 7963
10951 25222 54230
14448 25222 4440
6290 25222 70796
10077 25222 1011
9531 25222 16543
25478 25222 37024
2845 25222 25513
23888 25222 9732
6592 25222 70140
7350 25222 64959
10666 25222 52723
35955 25222 4671
11559 25222 53253
11137 25222 9168
18711 25222 14774
8356 25222 6404
5864 25222 24144
11119 25222 4660
2199 25222 14046
902 25222 54527
11947 25222 34399
14823 25222 31988
77 25222 19596
18672 25222 43649
728 25222 46790
33782 25222 10334
4466 25222 62055
6468 25222 39683
7673 25222 36121
7911 25222 2206
12811 25222 32027
38702 25222 10425
24715 25222 12216
1440 25222 2794
30668 25222 1178
1256 25222 14343
14985 25222 6567
35308 25222 4648
1700 25222 23308
23539 25222 6949
9621 25222 19909
25250 25222 15108
18552 25222 42585
4930 25222 36146
30867 25222 22870
8436 25222 9345
29201 25222 13554
535 25222 907
14147 25222 57801
11118 25222 39291
19620 25222 18766
15538 25222 49375
44192 25222 3390
12050 25222 47900
1776 25222 72517
18226 25222 34445
31485 25222 26352
42207 25222 4188
11606 25222 31879
289 25222 9078
14761 25222 41218
14583 25222 5748
12260 25222 57348
5300 25222 46593
1735 25222 33083
9594 25222 6091
18336 25222 50734
17072 25222 27953
22167 25222 10845
8004 25222 5
12328 25222 4717
6849 25222 33308
2750 25222 26203
4350 25222 33776
29555 25222 5781
16478 25222 33885
3070 25222 52789
19110 25222 43057
35048 25222 2893
2451 25222 27351
30252 25222 21798
7701 25222 63533
25536 25222 35505
23475 25222 8490
14673 25222 39658
7174 25222 36120
44160 25222 4468
891 25222 20614
16167 25222 1751
14286 25222 41062
10937 25222 34171
10068 25222 50556
9352 25222 58835
4458 25222 16649
9481 25222 28707
23049 25222 39806
24698 25222 16489
24849 25222 27648
43003 25222 5230
29130 25222 29220
17476 25222 41880
15896 25222 43312
17217 25222 40992
6361 25222 61192
22697 25222 36470
38319 25222 8462
1083 25222 55454
2497 25222 53396
4331 25222 49258
16445 25222 7977
24211 25222 19468
14681 25222 43744
972 25222 3572
16608 25222 32603
2215 25222 50074
6354 25222 57943
19427 25222 45840
3322 25222 29199
14749 25222 3853
18208 25222 2890
12574 25222 3545
4613 25222 26949
15191 25222 56888
29944 25222 13658
5563 25222 43728
10151 25222 34476
31152 25222 18951
33403 25222 12115
21470 25222 6625
24868 25222 17636
22896 25222 18896
18863 25222 1136
19817 25222 44949
28548 25222 30457
6182 25222 7113
40039 25222 4576
17597 25222 42862
28030 25222 7914
24381 25222 27654
28989 25222 11526
14361 25222 51354
39722 25222 2517
19817 25222 21479
6410 25222 8113
24770 25222 10287
16563 25222 3147
20176 25222 1646
9179 6845 7226
10667 21953 76957
39920 21796 6382
11888 9699 11848
11963 14539 11961
12552 11628 76061
38236 1775 9745
36806 728 75036
39920 17069 73779
38483 9389 7559
36318 1860 9692
36373 21854 77595
39204 17641 72079
9666 11785 72401
44103 23572 4234
10582 4642 77281
36209 21392 7652
10901 21315 74597
10319 22750 76216
6162 1775 73886
6600 23572 69442
8837 23572 30259
9522 23572 58277
8244 23572 64659
9780 23572 32858
9082 23572 69934
8741 23572 43938
9713 23572 34467
8656 23572 37059
8214 23572 42767
6851 23572 55494
8996 23572 72988
8996 23572 71351
7476 23572 70959
7873 23572 66425
10787 1922 9230
10006 5437 72183
8717 17959 76175
0 24813 78211
0 24116 60563
0 25076 68708
0 25146 24540
0 24446 47762
0 24699 27062
40984 21057 73124
36623 15737 7391
36226 19794 10858
7419 21186 10945
5504 995 7198
40118 18097 8556
6043 23572 82088
8651 23572 83952
35185 23572 82986
7556 23572 83715
7712 23572 80367
17732 23572 82699
24127 23572 81677
12032 23572 80065
9777 23572 83700
6461 23572 83923
35223 8477 71678
38258 5612 11052
11837 18176 7676
8409 17959 8435
39612 14999 75191
8935 17959 11698
37805 4198 72506
36320 3653 75705
39894 3653 10126
42002 31 76682
36698 5612 8434
9730 5612 73476
39677 15597 9414
6343 23507 5096
42096 23572 78042
39900 19919 8241
36633 13017 10450
35930 3068 11153
35139 17675 75099
47084 24171 52643
47084 24699 83168
47084 23779 62467
47084 24215 69686
47084 23652 45139
47084 24418 47856
7217 20178 77628
36813 19790 11416
38323 20821 77849
10286 12279 76381
11434 3846 7015
39144 12395 12536
11161 20564 73377
39725 6422 76881
2058 26228 82053
17072 25599 83290
26045 25943 82613
1397 25276 83924
29955 25453 83576
18235 25307 83862
17038 25965 82569
16585 25704 83082
40258 1492 78310
35212 10665 12518
35795 16389 71852
40774 3124 77402
39055 3653 7039
6730 3653 9448
39301 9699 75973
9211 21796 10037
8197 10569 7623
11626 12910 76403
7829 16354 76736
37261 9908 76430
41101 21396 7733
34536 11486 72080
9089 11785 72097
7650 12277 9078
7174 22110 5707
35756 16942 76843
39737 17959 10388
5310 23018 7509
6728 4557 76091
7642 11066 74197
37800 18139 72184
10179 502 75801
37656 5612 11666
36984 20941 73000
7058 19919 74039
6249 23572 6795
39367 14220 7555
12874 23572 61110
19697 23572 47654
18839 23572 51043
14380 23572 41294
21122 23572 37329
25506 23572 71173
13002 23572 26430
16470 23572 42201
25844 23572 62325
12694 23572 29142
33223 23572 74296
18755 23572 36971
25580 23572 52462
13557 23572 19634
31850 23572 70524
23976 23572 62912
18322 23572 77673
17569 23572 48371
13488 23572 20825
19525 23572 63018
10090 23572 29714
13700 23572 34861
18005 23572 40092
31417 23572 75008
24158 23572 74984
11771 23572 49092
22688 23572 58861
15459 23572 25425
22645 23572 77041
14421 23572 52727
23148 23572 51777
22308 23572 46074
10574 23572 59799
13624 23572 41905
22360 23572 60113
21272 23572 76270
24240 23572 66248
28607 23572 77347
10127 23572 58712
26505 23572 50240
16470 23572 78397
10717 23572 35584
14271 23572 31763
18154 23572 78910
33278 23572 78844
11562 23572 33281
12752 23572 56299
14485 23572 69203
11917 23572 37816
12137 23572 18376
14624 23572 76258
10567 23572 75064
11451 23572 13570
11461 23572 42291
21197 23572 67755
16208 23572 23049
26023 23572 48990
33375 23572 75070
19783 23572 44505
22574 23572 78537
19412 23572 49690
19521 23572 50907
29284 23572 70952
10293 23572 44539
12063 23572 64701
21583 23572 54843
10887 23572 20661
12959 23572 41689
30414 23572 68864
24953 23572 65466
12199 23572 69681
16244 23572 67425
16314 23572 52435
18043 23572 41990
10616 23572 37537
21646 23572 56446
23912 23572 43478
11147 23572 14919
15542 23572 28459
12944 23572 51850
18840 23572 46919
21525 23572 57002
25694 23572 67135
17952 23572 32795
12293 23572 13496
34343 23572 75807
24121 23572 64197
21383 23572 77823
26707 23572 60056
20403 23572 51330
18412 23572 66781
19606 23572 62557
11483 23572 77446
11840 23572 23265
40024 23572 7224
11361 3653 9103
9976 3653 11248
36080 12729 12524
8988 22291 10519
7553 14240 72943
7696 3653 75157
6598 3653 77037
7496 3653 8661
9730 5958 11955
37344 5612 75852
36463 9699 11921
6061 2401 76041
8802 7574 12249
39408 7635 9701
8117 19919 76232
7496 19919 76006
12234 15798 76645
12544 12175 9449
35951 15935 7532
40934 20912 8388
14178 23572 56111
11766 23572 30010
19647 23572 58254
13027 23572 40366
30312 23572 63594
26528 23572 61605
11352 23572 34675
29792 23572 63461
32416 23572 76973
21190 23572 75564
17154 23572 66504
20083 23572 76448
16934 23572 57092
27458 23572 65845
16661 23572 48678
18499 23572 48598
13335 23572 73725
13044 23572 21240
17642 23572 44183
9973 23572 62559
10621 23572 9893
13498 23572 57186
20323 23572 76034
28830 23572 66928
17008 23572 25026
12659 23572 43678
18072 23572 71129
17102 23572 75509
13535 23572 44588
31632 23572 68678
11542 23572 54691
24963 23572 75178
12103 23572 73853
27543 23572 67645
24974 23572 46012
27866 23572 73859
23566 23572 57784
20426 23572 45243
28814 23572 59673
15854 23572 69100
27279 23572 58795
14269 23572 48388
18237 23572 65981
15719 23572 60066
20168 23572 49281
11831 23572 35390
16801 23572 72698
28807 23572 65995
10016 23572 37336
11451 23572 35853
20365 23572 73948
21927 23572 42058
23080 23572 71841
20715 23572 50696
12840 23572 38944
21247 23572 73937
16097 23572 44643
15080 23572 75463
31877 23572 66952
16293 23572 30943
21920 23572 51149
12884 23572 68975
18339 23572 43908
10896 23572 72868
17758 23572 46919
15040 23572 31407
24185 23572 57844
23410 23572 75300
17442 23572 59741
25453 23572 68132
29433 23572 59529
12952 23572 36069
13563 23572 51961
14615 23572 67753
14464 23572 44968
13181 23572 54047
18379 23572 35079
19325 23572 72124
11370 23572 36744
10289 23572 8569
16955 23572 40074
31178 23572 69088
11816 23572 57111
12207 23572 11413
10772 23572 52984
14341 23572 23483
33007 23572 70500
36294 19131 72442
1992 23572 12403
950 23572 64135
1244 23572 57523
1383 23572 17319
2646 23572 42644
3757 23572 14023
3018 23572 5173
4300 23572 4570
962 23572 67729
196 23572 30868
926 23572 30181
1872 23572 14964
1465 23572 20769
1497 23572 26966
2667 23572 19408
3080 23572 7756
847 23572 33043
1465 23572 3933
3253 23572 25235
1768 23572 13575
12437 9273 7958
12088 15125 71682
5100 23499 5245
7401 7914 9556
8429 2315 6031
37768 13871 74695
8625 26752 81025
9544 26636 81250
34042 26077 82351
39907 25787 82919
27680 26261 81986
34938 26315 81881
36711 26428 81659
11080 13871 75029
36585 23572 80585
26664 23572 79249
45500 23572 83754
40035 23572 81685
23018 23572 79974
16381 23572 79473
43426 23572 77828
44524 23572 79820
22637 25222 32341
22509 25222 17782
18923 25222 41021
30517 25222 26171
1038 25222 19106
9280 25222 26901
4081 25222 6562
33477 25222 5594
11206 25222 15567
25283 25222 33594
2024 25222 37032
6555 25222 21418
625 25222 18394
4539 25222 25174
36659 25222 4778
30732 25222 13002
13669 25222 27375
12589 25222 60045
5046 25222 70971
23810 25222 14583
961 25222 60483
12981 25222 55436
36980 25222 7328
8742 25222 9893
16601 25222 18399
14188 25222 1135
38391 25222 12802
15238 25222 53802
27644 25222 16779
11361 25222 50029
8317 25222 37997
19345 25222 48550
28166 25222 4342
13413 25222 59640
3221 25222 60286
30071 25222 25255
21113 25222 26337
1086 25222 66213
19079 25222 49798
31045 25222 5984
10681 25222 51296
8874 25222 12690
14058 25222 30889
3132 25222 14299
11459 25222 14164
8438 25222 45122
26944 25222 30540
5407 25222 61962
764 25222 78503
5609 25222 3348
1703 25222 77362
25684 25222 8601
20741 25222 20868
17655 25222 192
18623 25222 47490
11562 25222 46849
4766 25222 26023
10029 25222 43210
10925 25222 51766
30650 25222 10478
13917 25222 13805
28425 25222 16577
1451 25222 71884
8242 25222 44449
28844 25222 18478
8581 25222 40187
11105 25222 24857
15946 25222 38385
7145 25222 4713
9638 25222 50054
650 25222 71496
13297 25222 46519
1986 25222 70968
13942 25222 23793
7704 25222 10045
38287 25222 4020
21225 25222 29214
5047 25222 62976
34583 25222 14829
3745 25222 70600
32440 25222 12297
17613 25222 48154
2302 25222 52009
14509 25222 36326
16043 25222 12555
30796 25222 19644
18732 25222 16156
5816 25222 73560
2627 25222 22802
46743 25222 151
26343 25222 31912
3102 25222 55849
12832 25222 39602
19760 25222 38878
32513 25222 6754
1803 25222 63788
4817 25222 2970
2261 25222 66571
10179 25222 30687
20918 25222 31452
15719 25222 45281
26797 25222 10675
8124 25222 53287
6098 25222 27825
7812 25222 57413
14486 25222 49243
25489 25222 31924
24115 25222 40348
7937 25222 46862
4984 25222 13975
21753 25222 3044
10174 25222 2048
27994 25222 28252
6607 25222 57510
20860 25222 29843
19637 25222 13191
35456 25222 13400
29662 25222 28475
10192 25222 45920
28925 25222 12660
43460 25222 6120
4791 25222 35391
11712 25222 29499
10360 25222 55476
28485 25222 15430
14816 25222 10413
36758 25222 12038
33359 25222 7965
7686 25222 68784
29642 25222 1955
9764 25222 554
14869 25222 47754
8364 25222 25717
20782 25222 19062
10632 25222 47836
17980 25222 45116
29918 25222 9461
22915 25222 30984
16942 25222 9138
4473 25222 29159
7792 25222 11083
14643 25222 56763
29372 25222 20315
15763 25222 51418
21490 25222 22034
38868 25222 4100
1816 25222 69706
17629 25222 47519
1793 25222 19080
23112 25222 13131
41132 25222 4828
28643 25222 14223
22592 25222 1037
17158 25222 21433
12370 25222 19329
4359 25222 46383
3860 25222 57050
16555 25222 54157
23581 25222 24900
3746 25222 17835
12999 25222 9674
1200 25222 12868
1455 25222 30294
25877 25222 16556
23073 25222 38303
23382 25222 7499
3729 25222 77046
10036 25222 38833
8689 25222 8928
12535 25222 22924
1949 25222 68406
6056 25222 32919
15354 25222 3204
36231 12624 10852
40141 19306 11542
1224 25149 0
11852 24621 0
24670 24101 0
35848 11012 76391
36867 11785 9724
43957 26813 17142
45069 26247 72760
45744 25904 50973
44265 26656 56420
44435 26570 35987
46441 25548 68300
45093 26235 46517
44675 26448 51363
44491 26541 68971
44305 26636 79141
45177 26191 71383
43961 26811 29855
45088 26238 40410
46541 25497 80090
7862 11785 9116
37465 527 78732
7186 0 75321
12422 14437 73696
8341 11785 12378
45141 26210 9535
44103 26738 3525
46939 25295 27219
46303 25619 41185
46829 25351 4712
45586 25984 24086
46617 25458 15798
45530 26011 8244
47038 25245 20893
44280 26649 9559
45758 25896 40965
46677 25429 36763
45978 25784 52600
46721 25406 58940
6950 18161 11505
9966 5612 74885
10684 5612 76400
38292 996 5503
34663 11647 12553
39074 19919 72931
37651 6239 72023
39417 13871 74076
7584 1775 7095
6105 1775 8576
10866 19919 10400
36487 19919 76921
6739 3900 11447
40381 4463 76519
37626 9699 74994
37060 13871 9345
36018 13871 8833
3079 23572 11815
1671 23572 34056
37 23572 23186
1906 23572 4580
1573 23572 54351
2221 23572 38010
2375 23572 4726
1643 23572 41612
3681 23572 7443
237 23572 55274
2025 23572 15595
3361 23572 19481
1960 23572 16404
1815 23572 7549
1893 23572 44884
48 23572 1939
2427 23572 37541
3247 23572 20450
12546 12130 74726
19043 23572 80562
9732 12711 12525
36313 10969 73260
11269 20247 10709
47084 24127 8543
47084 24345 30299
47084 24860 10590
47084 24801 9380
47084 24674 40089
38657 24415 84030
25208 24024 84030
38179 24380 84030
36126 23577 84030
35589 19488 8735
11448 5612 7677
12071 11301 12070
34972 16760 9829
31319 26871 48243
23075 26871 46253
29800 26871 51344
39326 26871 77136
30580 26871 46426
31846 26871 26514
32927 26871 49369
43680 26871 80045
33328 26871 65591
39099 26871 21453
30276 26871 55352
16838 26871 70885
29128 26871 44947
42529 26871 35993
42575 26871 66131
29356 26871 68277
41455 26871 62278
21820 26871 59309
42588 26871 10906
13538 26871 69465
43109 26871 32505
42876 26871 7979
28217 26871 67493
28079 26871 66843
26670 26871 44769
12959 26871 69628
42182 26871 78629
30243 26871 73451
17115 26871 70333
14519 26871 63349
15286 26871 62721
29882 26871 45817
34106 26871 38866
27331 26871 78341
24158 26871 67911
21763 26871 74962
23268 26871 72686
24670 26871 66847
41213 26871 23375
39195 26871 31597
38744 26871 67281
32951 26871 52262
41326 26871 38653
31562 26871 45883
25056 26871 77584
32016 26871 34139
20319 26871 67934
34041 26871 33180
34991 26871 23807
26320 26871 60163
30215 26871 56496
28509 26871 45614
35026 26871 44531
17879 26871 77421
16215 26871 78154
41184 26871 53458
39415 26871 43745
29221 26871 42340
38815 26871 67987
37981 26871 57964
29130 26871 40010
40548 26871 78237
17897 26871 61268
29121 26871 49559
29197 26871 60531
38978 26871 56020
38779 26871 57793
20572 26871 50737
35130 26871 71999
30019 26871 57214
43049 26871 18964
19388 26871 79158
35237 26871 34637
35323 26871 64000
35272 26871 65133
22019 26871 45590
30076 26871 36502
35808 26871 30940
24944 26871 50093
32231 26871 80159
37285 26871 61783
39491 26871 25843
43348 26871 58186
40656 26871 76307
14703 26871 74482
6769 26871 80198
14519 26871 80746
41376 26871 29920
9549 26871 74599
36513 26871 31502
31098 26871 75351
29655 26871 48126
41722 26871 25926
32969 26871 46828
40410 26871 68630
26363 26871 52433
34910 26871 36761
28494 26871 53030
30413 26871 38883
15836 26871 67923
33474 26871 43246
43389 26871 22321
32342 26871 71821
27401 26871 47661
27883 26871 62329
8459 26871 71751
30403 26871 29556
30926 26871 43557
40840 26871 59796
40728 26871 9467
36840 26871 35168
36503 26871 20138
43174 26871 70780
39855 26871 79289
28902 26871 76358
18916 26871 52748
25902 26871 76674
36804 26871 25796
12892 26871 78933
36817 26871 56277
43008 26871 25954
22382 26871 53034
39384 26871 23365
25527 26871 50298
39327 26871 55175
41029 26871 77794
43361 26871 66518
40310 26871 62533
43204 26871 49436
36579 26871 51682
18018 26871 73021
19541 26871 51899
41045 26871 52613
37762 26871 61449
41799 26871 36333
30979 26871 58646
23589 26871 53187
11108 26871 73388
33213 26871 56704
19323 26871 75367
39065 26871 40642
41352 26871 41992
40121 26871 12995
30481 26871 76511
21087 26871 76855
35198 26871 66428
24111 26871 41041
7262 16532 74631
9227 21796 8250
12496 10030 12057
12088 16888 11781
11127 2909 10642
35999 18537 77179
11422 12888 7627
12143 16590 7830
18723 23572 17468
36358 23572 66325
19910 23572 31461
22358 23572 7420
28020 23572 21654
19118 23572 8523
23444 23572 41584
22823 23572 33188
36909 23572 69509
25402 23572 41607
32501 23572 38372
32035 23572 38784
36619 23572 76461
26249 23572 19044
28266 23572 18994
24949 23572 30755
32766 23572 20425
34915 23572 9611
32847 23572 25026
35367 23572 59632
31171 23572 31708
27894 23572 40575
24737 23572 9753
21169 23572 34343
34401 23572 18369
19460 23572 13409
34845 23572 54502
27355 23572 27009
28920 23572 15201
20394 23572 32414
32220 23572 54631
35002 23572 16142
29490 23572 51742
26886 23572 22968
33173 23572 12863
20429 23572 10298
35081 23572 69540
17865 23572 9726
18781 23572 28215
34053 23572 29508
21595 23572 9273
35047 23572 39311
32084 23572 53129
35167 23572 60809
30189 23572 35977
17954 23572 16090
14979 23572 10671
16785 23572 17131
34923 23572 15677
34135 23572 52538
35501 23572 15574
24436 23572 42614
24092 23572 11387
28952 23572 12368
36065 23572 38622
17853 23572 17220
18634 23572 23965
16592 23572 22250
30132 23572 23140
22648 23572 8619
36507 23572 16969
25584 23572 7950
26673 23572 31017
29220 23572 27256
33478 23572 44021
33164 23572 44622
19800 23572 7350
30921 23572 44099
28744 23572 13862
30592 23572 59359
30967 23572 36229
31869 23572 23745
27861 23572 38578
25943 23572 44115
27332 23572 8941
27954 23572 43535
30205 23572 57507
35906 23572 53475
11634 23572 7234
35830 23572 23420
25323 23572 25167
15938 23572 18812
31883 23572 32691
24966 23572 41899
26985 23572 11910
28044 23572 53194
32053 23572 62690
8204 19919 8017
10077 15504 76614
9799 1775 73662
37886 5612 72686
38534 5612 75308
39686 15684 73258
39114 8619 76554
12219 7401 7475
10721 1739 76083
39551 14423 74690
39465 13129 73046
11716 18640 8030
3311 23572 43188
4716 23572 55114
3539 23572 41336
3428 23572 33636
4166 23572 76958
2249 23572 49982
4527 23572 52663
3811 23572 27649
2508 23572 78371
2348 23572 81324
189 23572 82607
3565 23572 80113
3735 23572 53180
5003 23572 35931
3145 23572 58055
3920 23572 30192
4072 23572 75452
4439 23572 46276
36443 13871 76341
34943 11785 74646
36093 21057 10798
6431 23572 7805
39460 15935 10490
12539 12325 76035
9354 7635 72777
38582 1085 10434
37092 8989 76514
35664 10505 72610
36737 11096 71497
40328 1775 75137
41487 1207 6155
37528 14453 12420
10787 17959 9638
38092 17959 9339
35937 20603 75275
34955 6904 75493
10712 4179 77401
11057 10624 11055
39459 22073 73416
8754 15918 71767
7617 13180 71622
10479 15935 72905
12276 7772 72869
7587 13915 9261
7220 6810 72612
36031 7170 11052
41631 22692 74316
36277 13871 10679
10567 1388 9095
34970 6827 7507
10129 6146 10129
36178 17490 10905
8392 19678 6554
35760 13655 12491
39149 281 73948
8170 0 9914
35425 18861 11255
11031 5851 11936
35881 11941 72828
37726 10776 76399
37877 17959 75860
35810 20234 7524
12874 23572 3737
8439 23572 1529
7016 23572 3388
28748 23572 208
14326 23572 1883
36118 23572 1224
22534 23572 2138
33818 23572 1423
17643 23572 467
14142 23572 2419
36288 23572 710
6074 23572 1329
42034 23572 55225
46190 23572 2906
42049 23572 29151
42888 23572 20220
42413 23572 30627
44708 23572 24242
43682 23572 35917
43898 23572 39541
42387 23572 20813
43589 23572 34052
42663 23572 32135
45174 23572 16540
45236 23572 15173
42417 23572 26363
42784 23572 28287
5854 0 8305
39422 18846 6771
8702 17959 7456
11527 15935 76022
12277 15790 11969
905 25681 68160
432 25441 78066
2782 26636 24321
2001 26240 39659
2536 26511 41972
2866 26680 66353
2358 26422 58200
1139 25801 63244
772 25614 82391
2568 26528 64610
2160 26321 42405
2722 26607 80311
312 25380 76741
11082 20792 8929
43542 23572 1448
37138 23572 2186
30858 23572 3918
21079 23572 4485
32664 23572 4857
25087 23572 3339
5271 464 78306
38220 21796 73774
40009 0 78312
34542 11315 74570
7909 7635 8818
34573 13101 11120
11190 7702 76653
6877 5131 10504
7634 10842 75839
37360 12164 76377
38240 3653 11144
39309 8670 7481
35438 6967 71891
11917 5739 74564
7979 1775 75440
10457 18114 10456
37452 11785 74209
34962 6865 73810
11427 3823 76004
11244 13871 8833
10484 9699 12326
36607 1965 10476
38560 22545 78513
36022 7635 8815
10457 15946 12259
36847 13871 73996
7667 208 73980
35514 10844 7633
11246 20317 73764
47023 23572 36423
45615 23572 59571
46340 23572 59395
42979 23572 66756
45622 23572 28105
45416 23572 63498
43410 23572 55517
43006 23572 70562
46731 23572 29215
43668 23572 63692
44034 23572 74497
46137 23572 47336
46546 23572 66668
44861 23572 36265
47001 23572 11788
45305 23572 40393
46693 23572 48390
45334 23572 71457
46372 23572 30103
44605 23572 75641
8305 3415 11300
11947 9699 71988
19823 26871 55746
42989 26871 13284
40224 26871 31247
41471 26871 61319
27378 26871 66181
31019 26871 54229
37318 26871 29200
35733 26871 35457
25680 26871 40328
30879 26871 68971
19357 26871 63157
27050 26871 69418
40834 26871 31453
36053 26871 27443
26873 26871 37009
31565 26871 62652
40749 26871 38901
14042 26871 67948
39153 26871 46316
24042 26871 47024
6117 26871 80670
39315 26871 69216
24462 26871 74557
35526 26871 68669
31309 26871 80278
22796 26871 49985
25372 26871 42057
20124 26871 70313
30162 26871 71951
21791 26871 50663
7753 26871 73994
35565 26871 61004
38209 26871 40793
27380 26871 46113
32021 26871 40459
32841 26871 50439
20080 26871 80180
39537 26871 33828
20679 26871 52965
15153 26871 61255
40312 26871 59494
20485 26871 69934
32992 26871 60312
40886 26871 57675
14903 26871 60259
15330 26871 77013
32405 26871 38377
20853 26871 63484
35652 26871 76550
24657 26871 76460
35541 26871 41902
27313 26871 53246
38351 26871 48681
32636 26871 76182
18309 26871 62992
37368 26871 64199
35644 26871 58926
27819 26871 54784
33485 26871 67794
29013 26871 32572
20042 26871 53264
23540 26871 69137
32976 26871 28693
38257 26871 50886
28667 26871 34546
17028 26871 67729
5758 26871 78251
33273 26871 29951
41408 26871 58117
38680 26871 66752
32366 26871 51001
35158 26871 70656
25108 26871 57101
30249 26871 79148
32467 26871 77720
42913 26871 78774
38751 26871 28889
34580 26871 67397
40984 26871 12391
18202 26871 66210
10604 26871 78992
38490 26871 20864
41009 26871 56118
31697 26871 37978
32843 26871 46193
23289 26871 60624
6477 26871 76264
33759 26871 26228
6978 26871 78948
38725 26871 72396
38058 26871 73923
10656 26871 75942
38110 26871 14972
23538 26871 76104
24582 26871 49542
16265 26871 60152
34840 26871 77767
40624 26871 36199
16592 26871 79281
27011 26871 63345
41552 26871 8118
36510 26871 35835
33480 26871 49892
19929 26871 52398
43073 26871 21360
34544 26871 64345
38575 26871 77999
17314 26871 68961
13783 26871 72573
15648 26871 76056
32864 26871 68121
34512 26871 35844
21383 26871 65398
20152 26871 51583
25501 26871 50884
34870 26871 29142
43775 26871 34507
19367 26871 53253
42365 26871 45615
42030 26871 31266
34805 26871 60539
39970 26871 67034
41591 26871 72346
23760 26871 60402
15647 26871 65504
43249 26871 15508
33727 26871 72473
29991 26871 68452
13457 26871 65304
37275 26871 39819
31356 26871 30884
18772 26871 75546
32863 26871 47663
25977 26871 70544
42483 26871 6039
15939 26871 57020
33310 26871 29277
37891 26871 21707
43284 26871 62587
28576 26871 74667
11242 26871 78303
40988 26871 38078
36888 26871 75386
38033 19919 10400
12135 7819 76640
39462 13053 8978
7361 7581 73885
11785 5197 74794
47084 24303 21022
47084 24566 1145
47084 24527 13541
47084 24474 40601
47084 25092 55296
47084 24681 54264
36297 5203 72244
37970 5612 7426
6535 19756 10959
39553 14449 10891
35342 13871 8976
37400 2683 72981
11569 19203 10336
35158 11785 8361
37680 11785 11005
9143 17959 72989
7707 7215 7294
12451 13275 76417
40158 5317 7631
7432 8218 76252
10236 13871 11702
8414 13871 12341
5919 670 10251
38111 7635 11588
9651 17912 7010
11614 10897 7635
8796 9699 10371
10696 1685 8041
37811 4578 11623
5487 23012 10203
36486 15935 11513
38525 288 10084
10804 2068 10804
37192 17959 74745
39467 13201 75303
8579 12929 76404
10282 738 8000
11008 13871 71875
35888 23572 80942
30011 23572 80598
33349 23572 80685
38117 23572 79500
28195 23572 81181
9352 11271 76382
34560 10812 74135
40781 3102 74445
5316 565 7377
9532 1775 6028
6835 21605 78120
22773 23572 12081
34145 23572 25259
25832 23572 25770
34193 23572 32351
32261 23572 51436
35373 23572 73699
33338 23572 60728
21806 23572 30343
19365 23572 14889
26631 23572 40204
35419 23572 62876
37091 23572 23589
33714 23572 64011
27084 23572 38881
36731 23572 53396
31510 23572 53694
35110 23572 13564
28358 23572 11126
36470 23572 56211
26032 23572 15415
22250 23572 21826
21156 23572 19813
19387 23572 16051
34335 23572 37979
33087 23572 24243
25524 23572 10353
22037 23572 14090
25782 23572 31275
17387 23572 6559
36876 23572 27285
31227 23572 18030
12798 23572 5681
30936 23572 24044
33136 23572 32149
34015 23572 13115
35614 23572 13629
34399 23572 63542
21780 23572 19486
29531 23572 13604
31838 23572 24345
17753 23572 7680
26837 23572 47622
36757 23572 45874
21134 23572 13836
22545 23572 13503
21318 23572 16256
33618 23572 42688
24168 23572 28379
25190 23572 39569
23781 23572 16351
28829 23572 8692
19024 23572 7075
30546 23572 52209
22011 23572 33289
19332 23572 25039
31619 23572 15842
29809 23572 15208
28250 23572 50958
23892 23572 27685
36771 23572 70817
28853 23572 32096
25566 23572 34990
29079 23572 41152
18774 23572 7660
23178 23572 22668
34855 23572 49592
29801 23572 44413
35813 23572 50282
19917 23572 15888
33567 23572 51530
16191 23572 20465
28637 23572 31531
35118 23572 34035
21047 23572 22485
19998 23572 15382
31671 23572 62004
26415 23572 34821
23422 23572 7870
31775 23572 34740
23540 23572 15385
28197 23572 44320
35737 23572 10347
13537 23572 11164
27794 23572 18780
32465 23572 30385
9405 11785 74972
10145 1775 7351
36910 19752 73857
39011 10679 71512
41565 22541 77994
35435 4671 6918
8519 7635 76350
44701 23572 2861
35384 18700 74846
35916 15171 12343
39573 20804 77844
38897 2077 73190
6190 2776 7077
12520 12858 74531
7673 11785 74014
10351 3120 72831
38655 11785 73714
9982 5426 6953
37807 0 7001
39463 0 7248
10010 24475 0
31035 23907 0
39009 21796 9784
42909 23572 52939
42181 23572 11405
43165 23572 37694
42427 23572 34735
45261 23572 24861
46016 23572 7103
42991 23572 40221
44905 23572 5104
46770 23572 3942
42883 23572 36514
43548 23572 42181
43976 23572 29841
43634 23572 37411
45425 23572 22550
46136 23572 13765
44238 23572 31307
9982 5101 9983
0 24681 32649
0 25071 66554
0 24600 40985
0 24998 15216
0 24721 60116
0 24379 75411
0 24686 48506
40191 18381 73332
36557 8180 71710
9374 1403 5681
39626 22332 5610
31386 26118 1760
37255 26573 2655
16598 26808 3118
42817 26403 2321
18577 26573 2655
23427 26411 2339
11447 10763 12520
11892 16467 11892
40388 23572 1798
22111 23572 4076
39443 23572 1212
16464 23572 4771
43188 23572 894
27322 23572 3490
37156 5612 72746
12260 15947 74488
45309 26125 17370
46925 25301 37155
46021 25762 28722
44972 26297 2520
45621 25966 46218
45763 25894 13896
47059 25234 60466
47003 25263 79698
45951 25798 3442
46723 25405 70094
46338 25601 53496
46729 25401 43948
46644 25445 47558
47067 25230 21580
41789 23572 3516
41787 324 5210
7937 7635 11219
38905 3540 72686
11292 3653 10686
7236 6892 11965
7332 5892 11943
37712 9699 8749
39883 23572 5661
41978 23572 9234
38149 23572 21310
40392 23572 26208
37315 23572 37762
39239 23572 11797
37218 23572 43310
37191 23572 67106
39313 23572 39721
37198 23572 39370
37832 23572 46889
38854 23572 45676
37558 23572 27866
38542 23572 25177
41134 23572 16337
41056 23572 22449
37496 23572 66506
40516 23572 19923
40083 23572 14069
38712 23572 19822
38473 23572 44331
40687 23572 21225
37796 23572 20266
38805 23572 50785
37380 23572 54286
41044 23572 13465
39333 23572 17716
40493 23572 15489
38280 23572 33651
40268 23572 10079
37995 23572 49522
10632 22033 7512
8947 7623 76662
34691 11785 73519
9113 18040 6981
35819 7131 7278
41526 23536 74056
26387 23572 2729
8497 18956 11633
41340 1460 10598
37747 20743 11098
5430 23572 9720
12257 8498 7463
8972 10898 71504
46934 24742 84030
34709 24610 84030
33366 23663 84030
45648 25008 84030
35605 14373 11478
34977 7635 73289
38774 2687 11050
5072 23572 62872
7406 23572 13375
6276 23572 29791
5792 23572 57187
7012 23572 15477
6990 23572 15960
6487 23572 35338
7547 23572 36951
6466 23572 39629
5710 23572 46559
5761 23572 61442
5516 23572 34829
6273 23572 13096
5601 23572 35450
5702 23572 54087
40726 23572 64213
39951 23572 63642
39501 23572 55334
41605 23572 23034
40142 23572 61082
38222 23572 69731
39552 23572 45865
40710 23572 62454
40893 23572 52357
40478 23572 67798
41924 23572 43492
40889 23572 35014
41966 23572 22094
7379 3653 73288
7619 10429 9118
37806 7635 72827
8689 9297 76481
38791 7289 71832
37320 23572 76394
10261 22882 5719
36368 3239 73315
10161 7635 72170
11431 7635 72057
34752 9699 11282
39759 0 77599
41699 723 9960
31567 24287 0
35097 24805 0
36575 24866 0
42616 24172 0
7359 15999 9280
35300 14153 76468
34654 11615 76369
39173 19556 11476
36732 3927 6563
35174 11785 11503
7642 538 5303
10754 26695 81137
43060 25898 82701
42380 25743 83007
30869 26200 82108
18649 26358 81796
39026 26231 82047
39799 26830 80871
6432 20095 9881
40337 0 6630
11981 6336 11980
40219 5085 11610
34440 24561 0
34409 25172 0
43507 24451 0
15748 24926 0
39406 21796 74740
11222 16932 12080
8258 3772 77507
12322 10977 71501
39910 6554 7376
38313 9667 76441
35707 19919 9966
36609 19919 8743
6215 2848 9261
7626 12928 7730
41342 1538 7094
44354 26611 62409
44543 26515 69471
46274 25633 72989
46254 25644 70020
44773 26398 47341
44708 26431 67188
44914 26325 68641
44255 26661 23790
45066 26248 75803
45734 25909 68264
43925 26829 50376
44140 26720 22525
45579 25986 67204
9454 4346 6672
6147 2649 76821
2363 26424 35659
2258 26371 46212
3164 26832 53389
2142 26311 31641
3115 26807 64846
1021 25741 67001
2486 26486 60536
2593 26541 26663
2863 26679 20556
3218 26858 26999
3020 26758 45292
3187 26844 56392
1438 25953 51345
36476 23572 6724
16283 23572 6017
34628 23572 8706
27743 23572 6635
36405 23572 6101
42222 23572 2555
40877 20747 76031
38573 3653 76054
41287 23572 77339
9735 0 78716
34527 11815 71655
36310 17959 9642
9866 22365 73543
6627 19919 6622
10986 19919 6591
0 23713 36825
0 24012 43726
0 23962 49754
0 24313 33056
0 24088 9326
35274 18279 75169
40985 2511 6385
40339 4622 73423
7741 23572 8197
35493 15935 72999
11386 15448 12313
37920 19919 75424
35109 13057 72056
38345 18933 6748
12278 26858 3216
30727 26555 2618
16313 26475 2464
32489 26554 2617
22633 26840 3178
40590 26691 2886
35904 26353 2224
152 25298 42599
551 25501 31413
1219 25841 15480
2315 26400 11831
747 25601 21675
355 25401 45560
575 25514 19215
2204 26343 24602
1188 25826 20197
247 25347 73798
2625 26557 8585
35041 16953 12042
7164 23572 77117
9796 13871 8191
39044 7208 12183
9177 0 78548
9513 11785 11400
9256 11785 11984
5496 22594 74848
7018 3653 76795
9523 3653 76717
11374 15935 74073
3194 23572 69785
4495 23572 62238
3587 23572 61146
4444 23572 64619
2248 23572 56848
2410 23572 74824
1863 23572 64019
4255 23572 52184
4867 23572 71307
1616 23572 81490
1822 23572 64965
4549 23572 29970
3549 23572 55423
1791 23572 62743
3610 23572 60390
5025 23572 72423
3400 23572 76504
6292 20501 77297
9166 2490 10982
7249 1597 78263
35948 15417 72895
10490 5612 72843
8147 19201 6678
9649 13661 71539
37406 5612 74860
39822 16534 75650
11914 6235 7115
16101 23572 1468
20480 23572 2720
24009 23572 2444
35240 23572 1202
38928 23572 77
18772 23572 3191
2723 23572 1788
21985 23572 584
13239 23572 3273
18489 23572 2635
13026 23572 2225
9927 23572 3966
39790 16357 72731
10589 17959 73438
36366 13502 73313
38260 3653 6719
