ply
format ascii 1.0
element vertex 2760
property float x
property float y
property float z
end_header
45329 6304 44927
817 39467 25665
42355 7910 18468
29660 20608 31795
29283 17709 28576
29373 28582 31873
27435 39023 599
15735 192 46006
34865 16802 35685
44265 5788 16861
4217 39871 48383
27061 16204 26197
46234 3688 46069
32683 38107 26135
37266 13307 36730
32000 17026 32602
22688 38445 41404
27752 38445 32120
26503 38445 36829
46937 38445 6736
41940 38445 15123
25430 38445 35739
27144 38445 35657
50146 38445 7443
42359 38445 20756
48430 38445 13861
24387 38445 37831
42154 38445 21654
17976 38445 45559
35907 38445 21071
37646 38445 22132
47865 38445 14282
35467 38445 23980
39767 38445 20629
35967 38445 25404
34006 38445 25706
28699 38445 30191
31748 38445 32842
41837 38445 16946
40988 38445 23280
33255 38445 29639
25859 38445 34496
17015 38445 45647
46313 38445 14543
35282 38445 24439
24750 38445 38310
46839 38445 16447
51372 38445 9984
37561 38445 25144
35792 38445 22144
33315 38445 30923
37630 38445 21467
53389 38445 9892
35552 38445 21445
38837 38445 25741
45547 38445 9899
32700 38445 26556
44847 38445 11391
26083 38445 35245
44799 38445 12077
24299 38445 36696
44216 38445 18596
48391 38445 14737
36121 38445 25856
34311 38445 24766
36733 38445 21335
27980 18330 27248
15675 3990 44812
55730 38445 53229
6272 40131 21451
245 40131 31048
15448 40131 10906
6030 40131 21952
2170 40131 26409
18023 40131 7875
8750 40131 17890
11868 40131 15269
5806 40131 23445
16914 40131 8736
5847 40131 22737
7826 40131 20799
1099 40131 24974
19337 40131 6397
9805 40131 15868
9856 40131 16295
38044 40131 57221
46211 40131 44945
35640 40131 59925
41638 40131 51377
52041 40131 35912
39112 40131 49551
42562 40131 48778
47478 40131 44857
52775 40131 37177
36781 40131 55846
33025 40131 62879
61171 40131 26743
56370 40131 32150
32848 40131 56795
30258 40131 62885
39289 40131 54763
35179 40131 60364
35599 40131 59116
42661 40131 47222
29212 40131 58711
35513 40131 57627
56227 40131 31406
39749 40131 48733
34804 40131 59469
32368 40131 59733
40030 40131 53722
40546 40131 51144
32676 40131 56244
35582 40131 56219
27476 40131 60606
26598 40131 63942
33967 40131 58672
45445 40131 43324
36095 40131 53944
26294 40131 63531
25120 14508 35127
30325 18676 31933
20312 11001 21297
32112 36868 29473
7573 38972 52825
8571 39568 54125
26563 17027 33444
16054 4877 45346
21594 39709 62645
32385 16612 28043
31042 18844 31799
29975 27462 28860
17611 8490 42512
13084 38445 10413
16321 38445 4985
19492 38445 4984
15003 38445 8685
20313 38445 3197
8985 38445 15220
18194 38445 5983
14699 38445 9808
14342 0 44882
31468 38107 26191
16050 7175 44415
27410 16979 34490
25739 15718 26727
28630 37458 31375
42226 8993 43156
37674 14610 38303
31049 31272 28813
30233 32497 28674
17121 224 45548
28681 29722 30260
40817 9520 19386
59502 40122 15023
25566 15846 34460
37725 12756 22340
19942 9574 40494
26926 16621 26061
27779 16557 26980
40502 10521 40033
24442 13189 24753
64584 38529 33243
39404 11106 40178
16817 969 16835
29915 28311 28857
32189 31628 30969
9336 38445 23242
3552 38445 32259
2272 38445 33043
24522 38445 9577
11805 38445 21064
2842 38445 29867
911 38445 34597
8733 38445 29237
11390 38445 24772
4386 38445 36350
14654 38445 22969
21939 38445 11906
23270 38445 9819
7509 38445 29574
3590 38445 33133
14531 38445 19675
10555 38445 22066
19915 38445 13848
11858 38445 25849
15286 38445 19391
21258 38445 13300
6230 38445 30475
5231 38445 33893
1966 38445 38925
12718 38445 23418
1892 38445 36207
13410 38445 20743
16008 38445 18581
46187 6159 46038
20415 10621 39739
30767 36573 32437
29667 34140 32237
42354 10290 41467
31316 17313 31568
21965 12273 39885
16921 246 16015
20993 40131 8352
9426 40131 20365
14533 40131 14214
11631 40131 20516
23543 40131 6226
19678 40131 12187
9100 40131 22767
16225 40131 14009
21492 40131 5309
18049 40131 11916
20950 40131 7468
13904 40131 15860
29222 40131 2849
16788 40131 11672
21458 40131 6756
10178 40131 19268
17612 40131 13717
22720 40131 9346
11835 40131 16850
11131 40131 20546
20201 40131 10221
6179 40131 25499
32866 17652 27145
17097 40131 40131
20545 40131 36868
28947 40131 26300
12190 40131 41190
7949 40131 49981
31515 40131 22936
7991 40131 51944
17952 40131 39052
9484 40131 45319
12398 40131 47148
40144 40131 13228
10323 40131 44753
13919 40131 42932
28436 40131 24471
26185 40131 30474
40909 40131 11975
24705 40131 30114
18232 40131 37529
12624 40131 46097
14581 40131 41176
15073 40131 40334
9261 40131 54212
16488 40131 42202
10232 40131 44025
38724 40131 16531
15128 40131 47468
35895 40131 20170
37349 40131 17574
5946 40131 49575
36827 40131 18411
22087 40131 35012
15821 40131 42756
22907 40131 36544
16133 40131 40261
20739 40131 34035
38949 40131 14806
19142 40131 34425
19108 40131 40626
14302 40131 48488
9096 40131 45037
41230 40131 12327
17474 40131 35424
12010 40131 46187
9699 40131 47051
23168 40131 31033
41546 40131 13212
18942 40131 38638
25677 17253 34903
33424 18585 28411
22954 14134 23776
61776 39082 45122
12349 38445 17920
20408 38445 10492
7295 38445 24712
5236 38445 26667
10598 38445 18715
17789 38445 11658
13258 38445 17010
11235 38445 19660
18786 38445 10179
15844 38445 13996
22559 38445 8106
27826 38445 2328
23013 38445 3485
8270 38445 23099
29734 38445 796
25816 38445 5701
18278 38445 12962
30376 38445 437
9930 38445 21355
23191 38445 9086
11836 38445 18307
32406 38369 36308
26292 14796 26595
26770 38445 31724
26128 38445 30500
27268 38445 27200
24640 38445 30075
25688 38445 32286
24257 38445 30080
55456 38445 49675
58156 38445 46416
57595 38445 47570
49961 38445 56858
59091 38445 45590
47626 38445 57540
44560 38445 59941
50542 38445 53902
61497 38445 43161
50939 38445 56277
15689 5675 44565
29262 19806 31397
28899 24934 31050
855 38643 25377
196 38515 30387
16399 40131 31213
32910 40131 10917
4624 40131 47951
4777 40131 43258
10081 40131 39122
21511 40131 20627
6232 40131 40750
20677 40131 24982
8836 40131 35284
13548 40131 28518
7712 40131 42621
18286 40131 28301
20354 40131 26481
11996 40131 37409
4136 40131 42940
14101 40131 32859
31632 40131 12618
6365 40131 42309
31503 40131 11586
14306 40131 30269
26237 40131 18342
13075 40131 30938
11249 40131 34978
20203 40131 22460
11916 40131 31670
29301 40131 13302
7901 40131 38206
18104 40131 23852
8766 40131 35853
7869 40131 40642
26461 40131 17354
24568 40131 19941
11836 40131 36862
6446 40131 35403
4536 40131 46073
16978 40131 30429
36418 40131 6255
11932 40131 32177
31076 40131 13255
26400 40131 16515
11474 40131 32366
55831 39611 54437
16992 4786 44565
16932 7106 44992
55929 39876 10366
59485 38445 48851
58185 38445 48525
61043 38445 44102
57695 38445 49978
39826 39334 944
39257 40019 868
33377 16763 26641
44126 7198 16133
11911 40131 7763
45391 1550 16300
49981 39402 59254
25610 38107 30603
45816 1116 46351
50191 40131 37921
39924 40131 52546
30021 40131 63622
36310 40131 53288
43133 40131 45115
41983 40131 49102
59601 40131 28289
44730 40131 47062
45354 40131 44385
37421 40131 55091
40036 40131 49778
28809 40131 63823
35333 40131 53676
40851 40131 51932
55409 40131 33785
41587 40131 47381
30999 40131 62363
51467 40131 38409
28352 40131 59348
49634 40131 40831
37550 40131 56777
38728 40131 53462
46106 40131 42618
55592 40131 32604
35313 40131 59566
36544 40131 51124
32788 40131 59617
30422 40131 59019
30863 40131 62000
38323 40131 52005
59134 40131 29412
33010 40131 63420
44164 7151 44873
41470 11326 40683
30476 16509 31873
35364 17141 25847
32270 32735 30605
30713 38107 26001
24999 15051 25987
25201 14263 36658
63959 40131 31323
62777 40131 28993
56030 40131 37371
47990 40131 44502
53984 40131 38859
59545 40131 35902
58931 40131 33204
57579 40131 33649
45117 40131 51020
53486 40131 43274
41558 40131 53759
61717 40131 28226
51566 40131 42937
50190 40131 46507
43242 40131 53418
46154 40131 47058
61998 40131 26058
60298 40131 34386
45443 40131 50386
58236 40131 37287
48684 40131 45024
48674 40131 48262
49987 40131 45647
62850 40131 31031
54120 40131 39943
52255 40131 43885
52822 40131 38075
44374 40131 52618
36581 38107 30918
35214 17179 26353
25164 16695 25717
31587 32379 31924
22997 11770 23059
29027 20911 31047
30168 38107 37304
29494 38107 36458
27441 18640 28301
35493 17142 35694
24180 38107 30971
27506 38107 32803
54933 39944 9222
46341 5455 45784
29429 17891 31082
31649 34920 29038
28614 32088 30226
32714 18576 27439
12571 38982 7024
14775 38806 5334
31932 21107 30484
16155 5655 44094
39770 13143 39779
42610 38529 1849
28783 34521 29518
29010 29678 29459
30020 34913 28629
28183 19050 29153
19101 38944 3064
22749 39614 1553
15927 1170 45267
32022 24390 30589
45011 3853 45757
15746 5791 16053
49227 39322 4842
31216 21841 31814
27928 16933 28707
21201 11715 38875
39804 11500 22160
35833 38107 29317
36131 38107 30284
16995 1658 16206
28842 24178 30301
32270 20376 32123
28531 40131 38165
46068 40131 21356
27553 40131 39267
28220 40131 37361
35372 40131 29776
41983 40131 22906
20266 40131 45974
25078 40131 47980
18035 40131 54250
18325 40131 52168
14319 40131 58154
25145 40131 40081
20141 40131 50478
34306 40131 35931
34771 40131 33811
12865 40131 57735
16224 40131 56626
30608 40131 38092
48388 40131 16355
36967 40131 31615
43342 40131 23935
27667 40131 43450
19824 40131 45241
28765 40131 40889
23578 40131 43476
38357 40131 27994
22460 40131 42393
15809 40131 52537
39316 40131 26621
15556 40131 55494
26160 40131 41348
26811 40131 40961
33485 40131 36168
37896 40131 27960
12641 40131 54958
10539 40131 55072
15961 40131 49185
33864 40131 34501
53049 40131 11694
17970 40131 52655
39309 40131 29529
39427 40131 28111
15551 40131 49837
14677 40131 52377
13346 40131 52015
16914 40131 53910
35453 40131 34078
13592 40131 52859
15609 40131 57662
28807 25341 30713
7780 38445 27290
16538 38445 17268
2213 38445 33821
28900 38445 4354
18590 38445 16327
5322 38445 33246
5091 38445 32045
1804 38445 35684
11381 38445 24374
1798 38445 37202
25803 38445 6826
8510 38445 26437
19657 38445 15948
7150 38445 25129
5712 38445 32765
13157 38445 19771
3587 38445 29808
1134 38445 38138
18081 38445 14921
3679 38445 36786
6572 38445 27229
16997 38445 17210
19719 38445 12728
11219 38445 27318
259 38445 32196
715 38445 35784
17342 38445 15403
35605 38107 29792
34493 38107 27412
32800 38107 31192
46292 5071 45961
17367 226 44904
14871 38851 59415
64136 39321 36643
64083 39467 37045
31719 19871 31197
23566 12499 22816
22808 13462 23797
25592 16767 26440
28727 31847 29837
2022 40131 38421
4179 40131 35395
5510 40131 33512
11411 40131 25175
22125 40131 10352
13228 40131 23670
26881 40131 6155
554 40131 34255
22561 40131 12143
1989 40131 34490
22164 40131 11930
12453 40131 20222
28906 40131 3943
7016 40131 31731
24240 40131 10076
3386 40131 32053
4374 40131 33595
4731 40131 31056
11597 40131 22261
10528 40131 27184
13617 40131 20319
2425 40131 38752
5290 40131 33871
17277 40131 15945
16336 40131 16006
7999 40131 30695
1172 40131 37038
14829 40131 18330
64137 40015 28036
2289 40067 43730
1687 39355 42274
10257 40131 31248
32492 40131 9214
30359 40131 5800
15130 40131 23842
30235 40131 5412
24581 40131 17020
15725 40131 23751
9800 40131 30379
14942 40131 25764
33629 40131 2533
23155 40131 15590
24191 40131 14216
15515 40131 24810
33039 40131 4804
29490 40131 3825
24462 40131 11687
31832 40131 4293
29468 40131 5371
33474 40131 5103
29616 40131 12108
27802 40131 12181
15725 40131 25274
9507 40131 31312
29280 40131 8393
30752 40131 5662
23827 40131 17648
27427 40131 8208
14570 40131 23871
37417 40131 1255
23672 40131 15706
22095 40131 16837
30785 40131 4142
31208 40131 1462
19440 40131 21103
32022 40131 8229
10212 40131 17020
14175 40131 12775
3814 40131 22666
2056 40131 25948
4061 40131 23800
1826 40131 23547
783 40131 27288
7004 40131 18954
9652 40131 18999
2627 40131 28435
9448 40131 16797
6416 40131 22067
959 40131 30880
5327 40131 25250
489 39640 28157
130 39306 30884
24862 14378 23967
19066 10101 41081
56054 40131 43565
46593 40131 55220
52133 40131 45069
44800 40131 54914
59625 40131 38324
54910 40131 43562
39356 40131 61868
48851 40131 51621
47719 40131 52447
44157 40131 57955
61045 40131 36974
42718 40131 54526
57636 40131 39717
59242 40131 38813
42037 40131 56793
40431 40131 58142
40049 40131 61866
39695 40131 58645
56656 40131 40770
54060 40131 45118
45178 40131 54515
41760 40131 59669
24667 15597 24167
29525 17445 29484
18314 7587 17959
49284 38920 59789
23608 13176 38344
44347 40131 54194
36935 40131 60476
46046 40131 53449
36639 40131 61156
50950 40131 50080
41756 40131 58846
39001 40131 60898
53273 40131 46407
43535 40131 58184
47346 40131 51232
35478 40131 63708
36537 40131 63938
50924 40131 49058
39870 40131 60481
50192 40131 50876
36682 40131 61677
53354 40131 44755
34991 40131 63896
42650 40131 58969
30973 38445 34705
33842 38445 28175
29343 38445 36330
31753 38445 30496
33448 38445 28478
32854 38445 30489
38276 12136 39120
13689 40055 6167
10792 39911 8391
23741 39907 63534
17992 8226 18855
49086 40131 7788
19657 40131 43413
17859 40131 44494
40807 40131 15836
43156 40131 13152
34386 40131 23256
28826 40131 35526
28982 40131 31285
30582 40131 30497
42207 40131 17147
26942 40131 35887
33676 40131 29225
31505 40131 31267
42587 40131 16543
26048 40131 35389
30267 40131 33868
45822 40131 13031
16549 40131 46466
40441 40131 24115
18803 40131 44002
33805 40131 30481
36357 40131 24695
21428 40131 40377
17425 40131 44812
12043 40131 52585
50127 40131 9093
26349 40131 36639
28242 40131 35400
36903 40131 25828
22581 40131 38329
38104 40131 21833
48611 40131 14158
43760 40131 18740
44773 40131 16575
52331 40131 12205
45763 40131 11781
49082 40131 12792
50299 40131 5966
34893 40131 23349
45118 40131 13951
27762 40131 33115
41647 40131 20531
53555 40131 10236
39589 40131 17893
43760 40131 14291
26894 40131 32651
43156 9975 42871
28501 39115 64217
24222 13847 23332
31039 40053 64551
27397 16360 28114
5439 39407 50043
46179 234 47014
29805 38445 30510
29183 38445 30458
29254 38445 29371
28243 38445 31125
30706 38445 24554
38511 11510 21721
54756 39211 55591
52903 39534 57012
41621 10568 42391
25348 13806 24935
50202 38445 52920
42349 38445 57287
62541 38445 41641
56528 38445 47430
53740 38445 48691
47006 38445 56349
47543 38445 53451
40700 38445 60742
49710 38445 51535
43875 38445 59008
38795 38445 60699
60491 38445 43147
52210 38445 51180
37418 38445 62228
33747 38107 31616
63977 38708 26822
63711 39165 24803
35576 39923 64292
44269 308 15863
28599 37776 29685
26199 17239 27120
35883 15283 24244
28116 17837 29096
31867 27473 31397
34779 17706 26664
41906 9453 41372
20731 11136 19993
43340 8672 42528
31673 38107 34251
33364 38107 32310
33109 38107 33371
64549 39452 31167
23328 13946 36719
27415 18949 27420
27050 18485 34078
31438 39620 64604
40205 11354 21784
31428 30545 29032
29147 16562 30012
23388 13349 22520
19859 10305 41964
23993 38445 28788
28658 38445 18403
9597 38445 41907
29913 38445 22678
45621 38445 3369
35197 38445 12120
26406 38445 25657
39967 38445 9430
22275 38445 25937
43552 38445 4698
42533 38445 6524
41265 38445 3803
40077 38445 9818
37231 38445 11239
40131 38445 11213
27704 38445 24123
32450 38445 13632
26627 38445 21977
30930 38445 19759
17751 38445 31587
36831 38445 14568
34993 38445 15124
13549 38445 37259
31681 38445 20457
35826 38445 12861
33975 38445 14836
17991 38445 34166
17059 38445 34004
19002 38445 33775
19664 38445 28920
34528 38445 16265
39011 38445 3973
38396 38445 8996
44469 38445 5634
37776 38445 12487
42283 38445 8205
24730 38445 27710
37075 38445 12768
38352 38445 13695
31537 38445 14824
21073 38445 31449
43629 38445 5102
36686 38445 9302
39943 38445 5864
34292 18145 26641
48175 40131 54901
57596 40131 45797
56287 40131 47593
61797 40131 41771
62561 40131 38750
51258 40131 51528
46594 40131 57224
48733 40131 54368
51229 40131 52973
57142 40131 46159
60381 40131 42518
55624 40131 45492
48344 40131 54278
50386 40131 52997
34275 39117 213
37683 38602 662
32283 16671 32628
44618 39947 61995
18114 39080 61203
20058 39360 62009
29617 38445 61555
59705 38445 27948
34899 38445 56783
33896 38445 56640
50549 38445 37115
43177 38445 50097
32978 38445 54609
33110 38445 55817
40882 38445 48137
45160 38445 44283
32107 38445 55789
55366 38445 34573
40729 38445 51012
39351 38445 54659
37912 38445 55295
28372 38445 63160
42230 38445 50242
29997 38445 58953
32586 38445 62828
31701 38445 62452
45124 38445 47283
29199 38445 59980
50930 38445 36804
57938 38445 29824
34928 38445 54025
60245 38445 27962
47133 38445 42412
43943 38445 43694
37661 38445 54697
26529 38445 62537
44994 38445 45569
34036 38445 61379
33457 38445 60645
31960 24470 30038
24326 12902 23903
2482 39740 20481
35888 13481 24812
48471 39047 4277
43530 8814 18018
20278 10098 21055
20750 38728 2381
45109 827 16905
27898 38445 16814
3094 38445 40956
21745 38445 22099
17145 38445 24951
7669 38445 40936
15070 38445 32076
22648 38445 20165
11847 38445 34403
19463 38445 28380
15522 38445 27604
13517 38445 28361
10601 38445 35673
6654 38445 45230
27144 38445 18196
25084 38445 19311
21339 38445 20879
26167 38445 16624
6870 38445 35126
20006 38445 24802
23728 38445 23180
4565 38445 48039
5949 38445 35826
7259 38445 39929
17568 38445 28406
4046 38445 39706
30209 38445 12524
11861 38445 37474
16831 38445 30008
16480 38445 26853
24274 38445 21115
9202 38445 37601
16484 38445 32202
32285 38445 11915
12560 38445 37364
2962 38445 39987
18657 38445 28782
17652 38445 26776
9985 38445 40717
25362 38445 16864
41009 11027 40111
38146 13450 22168
41156 10652 20836
41363 39368 63343
21366 10282 39864
45899 6495 44985
31784 17214 30246
64491 38917 33951
16913 5383 45094
36906 38445 53254
57657 38445 31208
47695 38445 43977
46959 38445 44963
41068 38445 52437
40224 38445 49324
55975 38445 31746
30846 38445 57281
45024 38445 47838
34984 38445 57936
39576 38445 52262
40913 38445 47148
31542 38445 57671
41191 38445 51162
35290 38445 59981
30261 38445 58136
60691 38445 27038
32277 38445 56184
49499 38445 39376
35046 38445 53062
35080 38445 60844
29186 38445 63451
28510 38445 60378
33105 38445 58411
35331 38445 58142
30297 38445 59541
26026 38445 63445
37121 38445 52575
24720 14456 35414
8304 38445 45624
18859 38445 34258
22738 38445 32289
22283 38445 34213
19285 38445 41163
19805 38445 34043
5097 38445 48938
24626 38445 33184
21823 38445 38971
33214 38445 21091
38352 38445 17413
21283 38445 37444
27131 38445 28439
24564 38445 34748
9711 38445 46570
20723 38445 38895
22159 38445 37335
18994 38445 37923
9102 38445 44941
22036 38445 35929
8508 38445 44307
31109 38445 23335
10257 38445 46861
36519 38445 19699
9035 38445 52180
10591 38445 51561
14124 38445 42530
12201 38445 51402
8183 38445 47333
12007 38445 47455
19714 38445 37712
15839 38445 38495
15040 38445 45769
9589 38445 44303
23535 38445 31270
24372 38445 35232
8006 38445 49404
41916 38445 11705
16241 38445 46138
31960 38445 21491
39322 38445 14105
18478 38445 39998
22500 38445 36191
42898 38445 11405
15757 38445 37130
21410 38445 38268
14353 38445 5923
13312 38445 6901
29143 20851 29502
44859 189 17105
34403 15352 27121
30964 38445 35547
31398 38445 30940
32212 38445 29664
35180 38445 33026
35856 38445 29486
34467 38445 28653
43498 7135 17816
28638 31443 30817
30477 38107 23249
593 39017 37303
30853 18920 29130
25918 15117 35984
32658 38878 0
16982 5404 16557
63014 38936 42133
9452 39651 55258
17424 7511 18173
30976 16372 31747
30671 32266 28689
19085 8411 41840
33142 17672 28775
42104 9398 18198
33161 17646 34163
23693 13737 22862
40483 39101 63645
29331 24237 29332
25661 15527 24799
45892 156 15109
33317 18847 27285
29435 34506 32143
53718 38445 50819
60830 38445 43734
45171 38445 61693
45632 38445 58941
50472 38445 54552
46878 38445 59915
48043 38445 59732
48969 38445 56421
26507 17986 34541
4828 40131 28442
22673 40131 10354
2216 40131 37699
10785 40131 23713
2468 40131 33719
1721 40131 39754
5799 40131 31305
15831 40131 17644
9639 40131 24176
6151 40131 27433
10037 40131 26487
13290 40131 22090
927 40131 32848
17257 40131 17941
4674 40131 30230
8596 40131 29771
2282 40131 30887
7245 40131 25434
821 40131 37879
9744 40131 23445
11592 40131 21256
16434 40131 18885
16163 40131 19326
6289 40131 28621
4386 39974 16005
55863 38958 54396
31304 18268 32259
44065 5248 16480
31888 26251 29726
29776 21909 29121
42541 9455 18157
38796 11645 22851
38522 38545 63904
34489 39488 64435
26588 40131 4401
8716 40131 22872
28793 40131 1872
16825 40131 14984
5202 40131 26031
20238 40131 6818
22185 40131 7950
25531 40131 4195
15070 40131 13942
25713 40131 1822
11278 40131 20124
15352 40131 15409
11271 40131 20915
10292 40131 19848
23599 40131 7101
26116 40131 3425
2912 40131 28892
28601 40131 2419
27498 40131 2306
10970 40131 12898
8455 40131 15507
15780 40131 7674
14448 40131 8997
17394 40131 6202
12073 40131 11807
21485 40131 2293
18641 40131 3524
4673 40131 19608
8846 40131 14112
31663 22805 29575
38768 12796 37907
25972 15071 26673
8265 39591 10950
43208 8421 18789
15916 5152 16876
33829 38107 27339
61452 38825 45904
48380 38445 53286
35948 38445 63127
51261 38445 52835
47756 38445 56007
43955 38445 56858
42084 38445 61632
40725 38445 62159
52674 38445 51364
61193 38445 42598
38786 38445 62610
47235 38445 53761
45338 38445 58707
48721 38445 54643
42782 38445 59943
36800 38445 62306
20861 10796 39358
5888 38504 14048
61961 40112 44676
63227 38910 41619
40230 10356 40232
41362 11022 40466
45529 3613 45040
31333 20775 29325
17791 5 43365
28941 18738 31064
31866 38445 36498
33872 38445 30237
34025 38445 32288
34026 17353 27919
31102 37115 32362
29003 18433 30622
51458 38445 57399
58811 38445 49276
54675 38445 53182
62587 38445 42886
50042 38445 58552
35601 15536 34752
31596 16765 29783
29998 35564 32397
40347 9656 20524
30784 23103 28979
29687 19761 31651
31002 18021 31770
31254 38445 19444
43188 38445 2246
22850 38445 27430
31637 38445 13063
41215 38445 9383
28136 38445 18262
34464 38445 14176
38376 38445 14087
33583 38445 17339
24876 38445 25380
36356 38445 15818
13770 38445 36846
41636 38445 4268
16135 38445 34633
31955 38445 18619
45596 38445 5108
19521 38445 31450
38136 38445 9859
11747 38445 40080
37769 38445 6952
34774 38445 11339
21957 38445 26258
47926 38445 4234
37636 38445 13817
19034 38445 31738
15158 38445 36906
33867 38445 14309
27247 38445 19963
41587 38445 6946
18683 38445 29763
42512 38445 7220
37295 38445 6988
28665 38445 21581
36126 38445 10802
35654 38445 10804
17858 38445 33469
27475 38445 19291
20174 38445 30563
35051 38445 8947
42454 9482 19533
29336 19630 32429
17475 8579 18342
34478 15924 27336
62194 39706 20562
36533 13632 25081
29049 17198 30696
33046 40131 45972
33604 40131 43197
21190 40131 57696
47055 40131 32629
48047 40131 30381
29130 40131 53245
18949 40131 58882
21100 40131 60001
32858 40131 44793
39839 40131 42480
49805 40131 27899
24656 40131 56996
37062 40131 43642
29464 40131 52051
34432 40131 47687
41760 40131 37563
47233 40131 30051
33018 40131 45276
51331 40131 26079
43431 40131 36858
24798 40131 59565
43504 40131 34322
22136 40131 61922
35049 40131 44448
38470 40131 40462
32289 40131 52662
37511 40131 41927
30567 40131 53558
33921 40131 44149
50682 40131 27309
25098 40131 51872
39358 40131 42719
34521 40131 49270
38538 40131 38695
25536 40131 52249
25805 40131 58374
24032 40131 61465
23393 40131 53126
30777 40131 52933
28051 40131 51800
36860 40131 46538
30075 40131 52723
22761 12844 39148
31683 18339 31164
25773 14176 35265
16946 8234 17489
35236 39518 64336
11592 38445 33958
8955 38445 33867
24855 38445 17104
17491 38445 28954
27409 38445 16282
32095 38445 9735
15196 38445 33024
28179 38445 16414
16842 38445 28963
8039 38445 37957
7010 38445 40557
8347 38445 36915
31629 38445 11288
7867 38445 34667
2614 38445 42207
11670 38445 36600
19009 38445 25686
18346 38445 27633
9234 38445 33575
19922 38445 27579
8017 38445 36481
5072 38445 42947
10755 38445 34844
18456 38445 25320
32687 38445 10884
8939 38445 40720
21838 38445 21701
20803 38445 25173
26703 38445 19120
3045 38445 45260
2524 38445 39767
6380 38445 43002
13825 38445 28768
7562 38445 43584
5752 38445 42638
11136 38445 38423
23282 38445 23300
9926 38445 35038
17688 38445 24261
43481 7813 43339
3246 38445 23049
1106 38445 26883
14571 38445 13084
16760 38445 10402
12240 38445 14876
1736 38445 25561
896 38445 29395
3047 38445 25701
12530 38445 14558
15507 38445 11384
2108 38445 27816
4779 38445 23343
4761 38445 25636
9941 38445 15145
7435 38445 18237
14466 38445 11305
24980 38445 49634
41867 38445 31914
52862 38445 23240
57133 38445 17752
30126 38445 42219
41885 38445 34358
44367 38445 27891
43255 38445 31886
44472 38445 29743
55690 38445 14522
48376 38445 19345
45233 38445 29270
41019 38445 29551
33637 38445 37709
58724 38445 14638
46956 38445 27895
48107 38445 22479
53544 38445 20088
54632 38445 10545
33024 38445 42154
55028 38445 13809
43458 38445 29614
47870 38445 27153
38437 38445 34024
54731 38445 16945
53698 38445 17423
54397 38445 14342
21617 38445 54559
20550 38445 55629
31119 38445 44441
39159 38445 36767
55653 38445 13017
49004 38445 18721
48285 38445 20815
29922 38445 46417
49116 38445 25145
53469 38445 15836
33044 38445 42767
54592 38445 12993
30654 38445 42612
59365 38445 15876
26193 38445 48567
56232 38445 17172
33161 38445 39979
45724 38445 24167
53608 38445 18410
25159 14304 24300
29217 40131 16375
27824 40131 18654
10189 40131 42369
31202 40131 20984
32787 40131 13591
19677 40131 31103
27036 40131 23574
39695 40131 9679
27837 40131 23324
43406 40131 9189
25144 40131 25281
18976 40131 30402
11208 40131 39637
28408 40131 21940
28507 40131 19321
35727 40131 9569
37973 40131 5619
32811 40131 11522
28942 40131 22664
33401 40131 16067
46444 40131 4939
32865 40131 14607
24414 40131 28211
23342 40131 28328
33673 40131 10566
24720 40131 26614
36241 40131 11706
25316 40131 21606
43178 40131 3608
35054 40131 13263
30359 40131 18685
18110 40131 33659
30975 40131 20575
40084 40131 6568
40716 40131 4185
43840 40131 6311
43427 40131 7234
46472 40131 5574
14193 40131 37982
37492 40131 12192
29993 40131 16072
38499 40131 8906
19395 40131 31632
39226 40131 5073
28998 25406 29683
8746 40105 54353
5840 39749 50565
31815 35369 31850
55791 40131 53473
56119 40131 53088
34360 15197 34177
24519 14108 25381
41583 40131 44064
53468 40131 30686
59971 40131 18274
58829 40131 26130
60060 40131 23462
51591 40131 35286
56185 40131 25628
46915 40131 39769
57006 40131 29342
44280 40131 38208
54012 40131 25107
37578 40131 49534
47827 40131 35691
51726 40131 28151
34801 40131 51743
58152 40131 27619
56166 40131 27694
59580 40131 19271
59298 40131 21051
32358 40131 53608
53537 40131 29948
37892 40131 47310
37222 40131 46663
56303 40131 21604
57727 40131 27897
46605 40131 40426
36618 40131 48380
57731 40131 28411
42860 40131 43556
38299 40131 46772
41909 40131 43861
61048 40131 24353
43823 40131 39642
32468 40131 54124
52091 40131 33447
52695 40131 33249
62729 40131 23404
52370 40131 27760
58027 40131 20065
17060 215 16831
30017 38473 258
31361 38709 82
28972 40131 39054
30943 40131 37282
13316 40131 53430
29046 40131 36037
24082 40131 43706
18332 40131 46989
18618 40131 50109
29970 40131 35752
25252 40131 42637
22972 40131 45556
17488 40131 57711
42991 40131 22900
52347 40131 12981
14248 40131 52264
45678 40131 20788
31435 40131 34964
34624 40131 35544
33721 40131 36793
29625 40131 40898
22490 40131 49160
23210 40131 43369
27999 40131 39093
30748 40131 40285
12136 40131 53166
43559 40131 24494
18593 40131 57073
29348 40131 42592
33994 40131 36488
21053 40131 49666
15734 40131 53647
20095 40131 47202
42218 40131 22455
21730 40131 50363
33504 40131 37392
49225 40131 17249
47189 40131 19405
16164 40131 52380
26576 40131 41339
32164 40131 38657
26355 40131 38471
15941 40131 56187
27334 40131 44480
29846 40131 36561
46965 247 45496
31168 31015 32139
44510 7562 16400
16621 40131 29264
5449 40131 46052
23430 40131 20145
6646 40131 38486
32339 40131 11226
15530 40131 31396
20606 40131 25533
7405 40131 39414
27322 40131 15222
28515 40131 16081
2390 40131 40272
22694 40131 23429
14893 40131 30865
18551 40131 27620
19835 40131 26596
28376 40131 16581
14930 40131 31942
16452 40131 28008
2405 40131 42495
25471 40131 20029
3027 40131 42623
3073 40131 45561
4815 40131 44748
15024 40131 28504
17103 40131 31472
4315 40131 43319
28206 40131 13666
14938 40131 29845
32616 40131 9704
3858 40131 43761
10816 40131 32477
3965 40131 46886
27323 40131 16600
5256 40131 39708
8091 40131 41285
5089 40131 40339
25111 40131 19244
30530 40131 12265
63813 39406 39099
29556 25026 29130
16544 1048 44101
60655 38559 16848
5097 38445 17439
2422 38445 21664
1699 38445 22922
10236 38445 11478
3931 38445 18841
8106 38445 12984
5388 38445 17925
3392 38445 18599
27690 16495 34128
30549 29893 28744
16714 38963 4053
42890 7430 17740
41162 10462 40378
32218 35846 31234
20812 38524 62321
18050 111 15755
26638 38445 12033
32772 38445 1717
19218 38445 17807
6900 38445 33598
30674 38445 4443
13899 38445 26393
33886 38445 391
35763 38445 1403
24270 38445 12126
26188 38445 8702
34357 38445 3088
25878 38445 15835
19239 38445 20896
25053 38445 10013
13041 38445 28087
18245 38445 18415
21457 38445 15758
37007 38445 4524
21833 38445 15932
34284 38445 828
19035 38445 21886
20235 38445 17833
28396 38445 7047
31348 38445 2162
24661 38445 10487
38235 38445 1912
19838 38445 21812
11967 38445 26672
20811 38445 18315
15249 38445 23051
21074 38445 15126
26179 38445 13273
23169 13670 24176
21686 40131 56326
26128 40131 59655
23206 40131 62651
44220 40131 33271
21415 40131 57109
30871 40131 52324
31920 40131 46728
29123 40131 51356
42438 40131 35913
27310 40131 51202
21377 40131 56009
26739 40131 50969
28526 40131 53853
34831 40131 42428
52801 40131 25656
24619 40131 60071
37491 40131 42913
35228 40131 48872
24697 40131 59181
27121 40131 55078
41265 40131 38043
20183 40131 60098
40781 40131 37474
51673 40131 27434
23523 40131 57134
54790 40131 22209
38582 40131 44074
22263 40131 54531
40090 40131 41175
19121 40131 59710
32410 40131 44643
35384 40131 46346
52906 40131 25244
33560 40131 44549
28146 40131 51236
23800 40131 53765
24008 40131 56870
40251 40131 41834
36135 40131 44029
31138 40131 49827
48279 40131 29178
34606 40131 46898
29673 38445 24981
25538 38445 29228
28575 38445 28134
27028 38445 32790
25888 38445 29730
41008 38622 63490
41308 39806 63366
16239 225 15465
48505 40131 9858
12524 40131 51990
11441 40131 52794
52311 40131 7532
53149 40131 11294
23462 40131 39241
33319 40131 26139
43180 40131 11631
52732 40131 11488
33730 40131 26191
46349 40131 11918
45283 40131 11700
46318 40131 10668
39276 40131 18701
36382 40131 26213
38733 40131 18656
49939 40131 12416
47425 40131 12312
31205 40131 32054
34945 40131 23969
26431 40131 36074
50870 40131 7367
41837 40131 15401
45744 40131 17381
12978 40131 51669
20623 40131 41510
32519 40131 27756
36282 40131 21210
38984 40131 22708
38259 40131 19467
29190 40131 29713
48191 40131 11578
32755 40131 29869
10410 40131 54111
42822 40131 17685
32560 40131 28867
45516 40131 14319
39068 40131 20330
48334 40131 13893
35491 40131 21741
41650 40131 15962
18673 40131 43536
44897 40131 9810
34283 40131 28457
29676 18112 29297
29321 29442 29144
43781 7661 43506
29091 28674 31606
24602 13118 24376
42323 8215 17856
59810 40131 45834
59007 40131 48933
56683 40131 50104
55752 40131 51390
60788 40131 46080
32494 38107 30683
40497 40131 3756
27054 40131 18890
24636 40131 23721
36441 40131 14710
13685 40131 38194
27821 40131 22105
20531 40131 29352
38201 40131 14301
29634 40131 21483
45527 40131 3475
22641 40131 27948
28224 40131 18104
28250 40131 23751
25883 40131 23108
19912 40131 32753
36238 40131 13947
38214 40131 9812
39468 40131 13250
47303 40131 4013
23162 40131 27856
28748 40131 23203
41396 40131 10362
32360 40131 16901
25559 40131 25233
46179 40131 3664
29169 40131 22309
41396 40131 3359
23587 40131 29067
42767 40131 5734
46550 40131 3594
28440 40131 20536
42813 40131 6302
22091 40131 28304
35528 40131 15494
38510 40131 6456
47058 40131 5608
32102 40131 16317
35603 40131 15036
44886 40131 3267
46879 39048 3618
31409 17349 29300
44028 172 45872
20526 11291 41067
15055 38445 13007
21871 38445 5863
26414 38445 5556
21981 38445 3866
26679 38445 4225
20453 38445 6284
18206 38445 10142
26581 38445 3147
22425 38445 9238
22244 38445 7437
21394 38445 5813
24613 38445 5219
17307 38445 11264
14183 38445 17411
13713 38445 17192
6319 38445 25155
15459 38445 16480
23267 38445 6368
13598 38445 14809
34227 18007 33494
367 39129 35595
41174 10373 42144
56382 39488 10956
20366 9514 19662
42545 40131 27703
21568 40131 54760
43754 40131 28063
53250 40131 13485
50044 40131 25919
20728 40131 54453
49619 40131 20335
47174 40131 25971
48474 40131 24710
51249 40131 17997
47189 40131 20748
50454 40131 25218
49575 40131 19906
31590 40131 43220
58103 40131 15568
48789 40131 22652
51034 40131 21838
44351 40131 27135
39595 40131 32672
49547 40131 22365
55644 40131 10961
54301 40131 21637
59994 40131 16274
47371 40131 26528
50744 40131 17398
56030 40131 18499
45415 40131 27030
46605 40131 29589
49422 40131 23942
39319 40131 36797
58451 40131 14091
47915 40131 26913
38003 40131 33969
54352 40131 17461
43131 40131 29533
40091 40131 30353
54039 40131 11514
35656 40131 39946
42811 40131 32960
54615 40131 19289
37553 40131 33585
33274 40131 38076
55108 40131 20052
56173 40131 16930
15403 226 44407
61566 39328 19047
61000 39604 17680
51294 40068 6429
15693 200 45045
13890 39214 6013
29693 24063 29086
25384 16650 35879
12620 39457 57689
45190 4306 46158
36519 13003 24486
29411 25570 31789
34544 38445 32124
34519 38445 28187
36488 38445 32168
14933 38445 50964
38276 38445 31129
40285 38445 26340
45510 38445 20714
35198 38445 31545
42865 38445 24973
26812 38445 43170
19151 38445 52099
18098 38445 47013
21017 38445 49216
38208 38445 28813
35712 38445 34851
16975 38445 55769
38615 38445 28579
12743 38445 53993
26892 38445 40319
19489 38445 50694
22723 38445 47852
13743 38445 54084
16977 38445 51425
9602 38445 55089
48862 38445 17264
50035 38445 15186
23266 38445 47837
27806 38445 37033
22297 38445 47396
20291 38445 53556
23131 38445 48464
18287 38445 46425
19459 38445 52706
43967 38445 22522
21456 38445 49774
16604 38445 50824
20678 38445 46497
16439 38445 51690
23459 38445 42423
31828 38445 35504
27143 38445 39879
13685 38445 57201
15054 38445 58714
30183 38445 35656
32318 38445 38644
26561 38445 46407
28243 38445 41209
29862 38445 40766
13594 38445 54625
14233 38445 54887
32226 38107 35934
28646 38107 35853
29318 38107 34369
29031 32494 31716
28435 20062 32018
29589 19775 28820
18249 9570 18585
36544 14874 35670
33693 38396 26078
12195 40131 9920
9600 40131 14609
12267 40131 12362
12286 40131 11074
20656 40131 4036
19324 40131 3367
13662 40131 8343
10901 40131 11617
15710 40131 5760
29839 16109 31728
44829 40131 31376
41600 40131 32361
43144 40131 32669
36998 40131 38604
24611 40131 49935
33517 40131 40871
36670 40131 37218
43955 40131 28946
44562 40131 29127
49232 40131 19749
30877 40131 44445
28725 40131 46851
50127 40131 16862
39833 40131 36369
58005 40131 16228
45577 40131 23786
57231 40131 13978
54085 40131 14686
38536 40131 37176
50716 40131 18173
37132 40131 35298
37618 40131 34635
43950 40131 29398
51819 40131 14248
52067 40131 14606
54774 40131 11728
48215 40131 20338
47899 40131 21960
39162 40131 32642
59101 40131 17198
38148 40131 31764
48215 40131 25208
52939 40131 21777
46168 40131 29406
45544 40131 24447
35887 40131 36208
46804 40131 24652
56662 40131 17913
57813 40131 14116
38209 40131 34866
40308 40131 32805
34237 40131 41337
59034 40131 15177
58734 40131 16693
44451 3174 16968
23526 12741 38366
31397 25752 29188
59582 38785 49549
59564 39748 49572
10499 38445 9836
11665 38445 8544
11314 40131 28830
32428 40131 7022
31249 40131 2033
24626 40131 13691
20154 40131 17616
15317 40131 23155
29358 40131 5918
22025 40131 19717
20475 40131 20487
32871 40131 5840
11299 40131 28279
32506 40131 937
12416 40131 28130
30297 40131 6974
22335 40131 13705
26405 40131 9828
8795 40131 32709
13544 40131 26310
24911 40131 11414
14697 40131 23215
16019 40131 24651
25634 40131 16016
26027 40131 10236
30498 40131 9305
20540 40131 19070
30312 40131 7825
10983 40131 30433
26651 40131 7786
38077 40131 1386
32097 30951 29864
50696 38445 25126
47376 38445 22359
47301 38445 24079
26260 38445 47199
46324 38445 24674
55821 38445 19786
50805 38445 20378
48352 38445 23251
40563 38445 28746
41939 38445 27147
34655 38445 38859
57758 38445 17547
41974 38445 30680
32362 38445 40493
25434 38445 49072
20167 38445 55545
42682 38445 26813
53113 38445 17519
33597 38445 39609
30696 38445 44291
43572 38445 28670
47792 38445 25289
54711 38445 16328
40173 38445 34477
38724 38445 34281
37097 38445 35107
52783 38445 18437
49260 38445 19086
54013 38445 14164
52253 38445 20303
26701 38445 49578
44188 38445 30343
58236 38445 13674
41976 38445 28240
37309 38445 38627
37263 38445 34539
56942 38445 13146
42476 38445 32720
31667 38445 43107
39168 38445 34718
30971 38445 45026
39736 38445 31023
47747 38445 22097
31644 20413 31267
7227 40131 15253
9254 40131 11664
4289 40131 18031
2859 40131 20559
4641 40131 16480
61100 40131 44381
58428 40131 49791
56219 40131 51689
58450 40131 48605
59179 40131 47708
53814 40131 55753
49382 40131 59575
42377 39265 1753
17279 40 46420
47815 39359 60670
30255 18015 31904
38959 13776 39212
34189 15865 25849
28427 39600 64207
41353 9728 42288
31269 38445 36765
24181 38107 29305
28031 38107 28147
27859 38107 28724
34898 16766 25417
46254 6238 45426
32299 33312 30493
30322 38107 27208
45697 38445 38407
44542 38445 39922
42740 38445 44314
37766 38445 46402
48478 38445 35682
54078 38445 29037
52489 38445 26608
54572 38445 27712
50687 38445 33970
57181 38445 21353
55444 38445 25853
57792 38445 19939
61760 38445 24698
51975 38445 32966
38408 38445 45847
31036 38445 55474
55043 38445 30488
40624 38445 43110
59844 38445 24319
39934 38445 43942
30471 38445 55179
49413 38445 32831
46917 38445 38052
55976 38445 24324
41083 38445 41315
57421 38445 20016
60132 38445 17522
57355 38445 21906
59305 38445 24626
59157 38445 23497
56599 38445 24641
58093 38445 27013
39907 38445 43155
36472 38445 47679
31431 38445 54517
44417 38445 40968
51047 38445 34721
32548 38445 52688
35842 38445 48947
31922 29623 31430
41904 9839 42861
62101 40131 36402
58550 40131 45465
51351 40131 52342
63906 40131 33855
54698 40131 46239
60105 40131 41119
51484 40131 51173
47542 40131 55978
51988 40131 49088
64071 40131 34486
63587 40131 39520
46095 40131 57614
62371 40131 40527
2087 39477 43241
1819 39651 42594
15313 38445 40608
39555 38445 14706
9636 38445 51257
17599 38445 39011
16620 38445 45806
21517 38445 31832
13844 38445 39530
27527 38445 30680
15467 38445 43929
17802 38445 36989
18309 38445 43596
17940 38445 39673
20753 38445 32868
12078 38445 50770
16907 38445 37244
7615 38445 46596
45405 38445 7701
16703 38445 41107
6234 38445 48937
10509 38445 53454
16081 38445 46544
11125 38445 52330
10758 38445 48315
6606 38445 51446
14427 38445 45417
23833 38445 31768
12317 38445 50197
24849 38445 32344
13254 38445 49540
15336 38445 38792
17737 38445 38097
33494 38445 23597
22611 38445 33123
14944 38445 46844
6443 38445 49307
9912 38445 44666
28584 38445 26473
8270 38445 52495
21830 38445 35396
11997 38445 42229
36437 38445 19147
10204 38445 42721
22835 38445 34133
45741 6420 46257
29223 20884 31694
29749 24673 31966
29695 23196 31896
61379 38445 41778
51658 38445 47054
63371 38445 33982
42988 38445 55760
46288 38445 53963
34879 38445 62532
45290 38445 53912
55212 38445 44489
40554 38445 57362
41159 38445 55946
44157 38445 53230
61293 38445 40604
52255 38445 47532
58834 38445 44147
58569 38445 43004
55722 38445 42906
46981 38445 51274
48560 38445 50328
59659 38445 43699
63441 38445 38878
25488 16934 34857
58137 39249 51432
31476 23496 31676
29357 38107 32791
38282 13338 39189
25297 38107 32169
42442 10548 41789
46339 4040 45795
59589 39753 15136
16914 7538 17869
31909 21589 30202
25054 13607 35838
13844 38445 7518
19941 38445 2719
8459 38445 16083
16961 38445 6777
20113 38445 3780
8477 38445 15253
5275 38445 19243
2432 38445 22149
11431 38445 12996
35199 38107 33267
35903 16425 25779
44567 889 15703
8410 38656 53915
27214 38107 34018
55924 40131 23189
39681 40131 46113
57107 40131 22544
63134 40131 24270
36201 40131 50659
59561 40131 23261
49289 40131 35585
60620 40131 18427
59513 40131 26547
36421 40131 49345
49130 40131 36763
50755 40131 35300
45582 40131 39868
30476 40131 56943
45637 40131 41502
43704 40131 41160
34075 40131 51455
61452 40131 23725
42842 40131 42501
39568 40131 44992
41659 40131 43244
59375 40131 22845
47197 40131 36617
49547 40131 36318
53656 40131 32529
54372 40131 32652
59926 40131 27134
40412 40131 43321
40994 40131 46315
59990 40131 22075
61983 40131 23899
48778 40131 38286
46215 40131 35772
42809 40131 44043
51223 40131 34738
34659 40131 50558
28768 19351 29783
31581 28991 29207
29019 25544 31361
33867 17706 28062
29320 20292 29514
26084 38107 30316
29981 29333 28802
48885 39793 4581
4124 39604 16518
29110 20053 29883
35924 38445 46321
26912 38445 50292
21244 38445 61845
54124 38445 23981
42236 38445 37918
30425 38445 48596
38449 38445 39380
44695 38445 32909
26221 38445 53267
24055 38445 55526
53516 38445 25001
36636 38445 42340
25142 38445 58235
48622 38445 31123
48316 38445 31750
45773 38445 31340
24891 38445 53142
30665 38445 46742
41792 38445 40272
34660 38445 43291
30440 38445 52426
30629 38445 54697
37710 38445 39399
28570 38445 55667
36103 38445 43329
46425 38445 32152
23765 38445 56623
28917 38445 47967
47623 38445 31196
27693 38445 51191
17565 38445 60093
44669 38445 35781
45023 38445 36127
34880 38445 44354
42516 38445 34992
18283 38445 58651
44118 38445 32750
28609 38445 51400
25610 38445 51313
25772 38445 57786
40797 38445 40917
26871 38445 56542
22505 13861 22507
29863 38107 25903
589 39832 27401
30913 20714 29097
44730 5905 17048
39378 11576 40352
41995 38445 14707
29078 38445 31041
21150 38445 43235
23857 38445 38970
48752 38445 15699
36743 38445 27857
38347 38445 22860
39180 38445 18036
35774 38445 26935
41810 38445 16425
15196 38445 49348
49633 38445 5996
42904 38445 18350
47590 38445 5855
50057 38445 6913
38913 38445 22479
47422 38445 8334
18612 38445 45576
22107 38445 39956
47767 38445 16701
38348 38445 24004
49304 38445 11480
43768 38445 19254
30287 38445 32227
24310 38445 38688
36499 38445 20938
31563 38445 29541
52698 38445 10796
46271 38445 9406
44883 38445 14671
39316 38445 19952
25138 38445 36714
40628 38445 22984
45977 38445 18006
47793 38445 13645
54281 38445 9504
33501 38445 25693
43119 38445 19824
44528 38445 12604
49214 38445 10564
50605 38445 7170
930 39744 39863
540 38616 36914
17352 39355 3788
17703 38947 3643
31956 18930 28096
21106 10057 40330
36762 38445 4027
28093 38445 7399
37724 38445 3107
36461 38445 3432
25035 38445 15765
11336 38445 30217
20131 38445 21042
18470 38445 23137
18775 38445 18081
25858 38445 15171
28017 38445 9597
29798 38445 11059
14306 38445 24181
21013 38445 20005
28824 38445 7877
29020 38445 12570
30486 38445 9892
36356 38445 807
33585 38445 3420
27648 38445 10069
29924 38445 8293
26198 38445 9841
35654 38445 799
7232 38445 34200
23819 38445 11045
31240 38445 6245
26417 38445 12851
21423 38445 18738
21504 38445 17775
30898 38445 5268
19221 38445 22266
36306 38445 4317
20499 38445 15433
33979 38445 31539
42565 38445 25679
20202 38445 50410
29406 38445 42702
37823 38445 30222
39982 38445 29166
31377 38445 38253
35835 38445 30741
35376 38445 30934
33810 38445 34543
14930 38445 51803
19428 38445 47960
29488 38445 39710
19944 38445 47084
22325 38445 49258
28179 38445 38956
43650 38445 21476
36368 38445 29663
31356 38445 38804
26854 38445 43925
33175 38445 32541
20217 38445 50952
34257 38445 32682
22479 38445 45086
32730 38445 33834
27465 38445 40976
24841 38445 47940
27380 38445 41932
20924 38445 50396
50963 38445 14894
22659 38445 42416
49559 38445 16783
25090 38445 41349
21662 38445 48066
41861 38445 25015
13491 38445 56203
18592 38445 47483
13203 38445 51856
14747 38445 52130
33199 38445 33852
20358 38445 49847
20065 38445 49235
24387 38107 30617
29125 16450 30937
30931 18492 29144
39290 13041 38416
2844 40131 21265
2427 40131 21786
8392 40131 12247
7560 40131 14711
5693 40131 17108
22666 11637 38077
27487 38107 28325
28910 38107 27898
37211 13926 22914
42003 10085 19930
59135 38445 42713
53138 38445 45263
61976 38445 40064
49658 38445 49235
47797 38445 52840
50071 38445 49536
49021 38445 48558
42854 38445 54915
54541 38445 46499
51915 38445 48851
63366 38445 34511
49600 38445 50552
46730 38445 53647
54082 38445 45619
51062 38445 47855
42026 38445 55953
54912 38445 45855
55815 38445 45449
41764 38445 56375
63582 38445 37571
58287 38445 40270
60115 38445 39895
27303 16122 33069
23380 12988 36873
0 39418 32798
442 40024 36160
12155 38445 13851
1192 38445 30593
14943 38445 10217
11472 38445 14615
5612 38445 19502
12666 38445 15035
17775 38445 8917
6554 38445 19506
11162 38445 13903
10745 38445 16625
9381 38445 16629
1084 38445 27626
24824 40131 29483
5017 40131 47992
37573 40131 15541
29447 40131 27700
6239 40131 47990
21949 40131 38131
36267 40131 18413
9857 40131 54541
10980 40131 44203
10444 40131 51468
17002 40131 40550
36798 40131 17299
13725 40131 39632
23698 40131 31890
27700 40131 28604
20401 40131 40304
25171 40131 28147
30031 40131 28103
17558 40131 39392
19225 40131 36543
22981 40131 32719
12147 40131 43425
18215 40131 41063
14185 40131 47531
21066 40131 36678
15673 40131 37876
22140 40131 31006
24192 40131 30022
31095 40131 25000
27294 40131 30520
35421 40131 19536
12974 40131 48774
5575 40131 48449
21343 40131 37687
24738 40131 35019
27901 40131 26146
21728 40131 31436
21849 40131 32382
26561 40131 29451
29313 40131 25859
12882 40131 48199
30405 38445 25561
30307 38445 23610
28657 38445 31068
30459 38445 28885
32485 38445 24884
31605 38445 27600
26664 17534 33388
16952 3603 44469
62936 39465 22354
45591 38445 32018
38779 38445 43840
31148 38445 48411
37024 38445 44712
41129 38445 39998
59264 38445 17409
35635 38445 41992
22692 38445 57368
25447 38445 59473
36437 38445 41929
40523 38445 39148
21877 38445 60427
27265 38445 51459
33522 38445 47603
37107 38445 45795
36773 38445 44303
44768 38445 32299
23064 38445 56692
30533 38445 49605
41716 38445 38251
30406 38445 49105
23102 38445 58380
36599 38445 45505
21105 38445 55697
39906 38445 40695
28929 38445 52660
55807 38445 21480
34675 38445 48081
38055 38445 39612
34141 38445 45493
34189 38445 47612
28540 38445 53300
26139 38445 56184
48741 38445 29923
25895 38445 52634
36704 38445 40403
23029 38445 54459
22749 38445 58764
22533 38445 55830
27921 38445 55425
31052 38445 47960
52849 38445 25833
15938 3280 44206
38437 14043 37647
16861 2711 16778
30692 27813 32184
36063 13958 25503
31857 37269 29121
15937 2555 15824
24138 12855 37479
11059 39106 8186
44967 2726 15733
26911 38444 34561
51662 39940 57964
45000 201 17899
62039 40131 42655
53228 40131 52413
45120 40131 60099
57623 40131 47966
46904 40131 58875
51168 40131 54103
48588 40131 59060
48545 40131 58400
58932 40131 46754
54586 40131 51845
37312 38445 49034
55937 38445 27444
26182 38445 61066
52399 38445 29289
52506 38445 31066
47211 38445 35711
56813 38445 27268
54613 38445 24007
60141 38445 27036
44630 38445 37952
37887 38445 49237
58471 38445 22258
58773 38445 25749
56627 38445 23867
59477 38445 21029
54189 38445 32239
54020 38445 32694
55760 38445 27057
44752 38445 41173
49275 38445 37558
58433 38445 25246
57907 38445 21694
51457 38445 31584
51380 38445 35890
35675 38445 50980
60145 38445 22055
40121 38445 45867
60063 38445 27477
58901 38445 26517
54980 38445 30961
60925 38445 19047
54976 38445 26400
60171 38445 36356
57210 38445 36952
56824 38445 33828
55588 38445 38596
53879 38445 38894
50292 38445 43034
62018 38445 30878
59267 38445 31146
54412 38445 39231
38183 38445 58488
48730 38445 44384
61490 38445 30196
62369 38445 31503
60591 38445 28221
62263 38445 34686
40772 38445 55349
52390 38445 41696
58983 38445 34602
49280 38445 43250
40783 38445 55731
50134 38445 45218
58015 38445 36354
55073 38445 36679
42920 38445 51516
44343 38445 49683
41933 38445 53516
11947 38881 57172
14891 39361 59431
24168 13970 35969
47571 56 45989
5409 39761 14672
5086 39263 15092
3201 39331 45929
45803 231 44275
1859 38502 21985
2842 39205 19610
16387 4453 45409
36028 14721 35289
36834 13158 37467
38905 12596 39865
54112 38445 41790
58136 38445 37022
57146 38445 35159
41619 38445 54331
56621 38445 40109
57003 38445 38496
45728 38445 50801
55205 38445 41473
49725 38445 43744
57936 38445 35822
54082 38445 37224
39811 38445 57115
63934 38445 28716
61236 38445 32907
44774 38445 49178
38312 38445 57494
47027 38445 47144
63052 38445 31257
60259 38445 30841
43299 38445 51379
60394 38445 34868
57376 38445 32654
54972 38445 38158
48304 38445 45619
26145 17581 34173
33145 17008 28617
28536 35558 30029
50178 40131 57309
49515 40131 57188
47854 40131 58660
48649 40131 56022
52886 40131 53994
48052 40131 58000
51405 40131 53336
54997 38445 54122
53598 38445 56361
31272 30141 28942
59163 40131 33689
40577 40131 54319
57492 40131 34823
42876 40131 52326
55916 40131 34776
60705 40131 34828
60241 40131 33170
37878 40131 57976
54855 40131 37208
49098 40131 43317
50679 40131 44551
64000 40131 32774
63609 40131 29017
61100 40131 28103
64508 40131 31432
58153 40131 31089
57624 40131 37769
61458 40131 34818
61526 40131 32558
61555 40131 28771
58246 40131 34334
62302 40131 26367
58989 40131 35053
56317 40131 38605
64555 40131 32132
54288 40131 42107
43594 40131 51018
