ply
format ascii 1.0
element vertex 2776
property float x
property float y
property float z
end_header
29563 18282 52212
26501 18789 52212
28560 19663 52212
32696 32292 24447
6329 34071 0
3368 33131 0
23651 34027 0
11641 33987 0
11477 33213 0
17884 33919 0
600 34739 0
29231 19912 48067
28039 19330 44348
31384 32292 41397
31284 32292 40361
15079 18568 52212
33006 23622 54289
33006 27980 55036
17387 19595 36695
29468 17388 33260
17387 17782 35395
31675 24318 27155
31193 21174 29048
30597 22469 28268
17387 33027 33026
17387 32854 43992
17387 32690 34890
11142 33363 82020
7538 32996 82020
45 33273 82020
11742 32827 82020
3988 34503 82020
14078 32799 82020
30136 32797 82020
29303 19426 29808
29782 19001 29808
28750 19181 29808
6380 34776 45968
2954 34776 6677
590 34776 67117
9203 34776 21900
2110 34776 25357
10900 34776 15906
1180 34776 72894
5144 34776 30722
7053 34776 20421
4922 34776 47448
3837 34776 27582
64 34776 41400
3871 34776 57018
6068 34776 48483
6964 34776 47528
1282 34776 4666
828 34776 43500
5140 34776 60236
8222 34776 38900
506 34776 12729
13382 34776 31403
3588 34776 18143
9187 34776 17883
7442 34776 54169
393 34776 58564
1050 34776 48494
10057 34776 38376
4826 34776 34701
6670 34776 11892
4309 34776 20547
10221 34776 10750
7165 34776 39994
2275 34776 47266
9678 34776 33987
2427 34776 44869
3452 34776 67129
4687 34776 23872
5586 34776 28740
810 34776 57436
12906 34776 34011
10515 34776 29410
9305 34776 40470
12269 34776 25295
10944 34776 30756
6266 34776 32750
1018 34776 27466
4120 34776 45378
3393 34776 55191
1521 34776 22628
8032 34776 24071
7979 34776 14230
827 34776 73923
12837 34776 27782
1534 34776 58701
12433 34776 34895
687 34776 59390
6305 34776 40598
6176 34776 54266
2957 34776 39614
1744 34776 15440
3504 34776 59813
1674 34776 29708
2738 34776 40492
2819 34776 58496
6068 34776 15440
1464 34776 73912
2392 34776 60122
11362 34776 21868
2081 34776 26978
5023 34776 40667
8703 34776 44410
7489 34776 35387
6881 34776 56291
2283 34776 36500
2620 34776 7021
473 34776 13764
3911 34776 40807
12527 34776 15720
1529 34776 51685
5732 34776 21267
2838 34776 56201
8661 34776 21479
9605 34776 18191
404 34776 11555
5512 34776 27000
6328 34776 16244
4392 34776 36997
1316 34776 20575
4500 34776 50201
7027 34776 42625
1009 34776 26442
281 34776 53650
1605 34776 68515
6047 34776 22173
14534 1250 32788
12764 13425 32788
13042 9908 32788
32908 18274 29808
31897 176 29808
32776 8077 29808
29158 32292 39890
31909 13302 52212
32284 19125 52212
32264 14140 52212
31659 11682 52212
14213 19912 30096
31101 19912 51878
30869 23887 51451
32732 27133 53405
32251 20522 49426
15400 9132 49273
15400 4224 49910
15400 4408 50315
22549 33865 53486
20599 33865 44625
18544 33865 63032
18523 33865 64242
18132 33865 26927
19120 33865 48509
17482 33865 26760
20916 33865 57570
21942 33865 46635
26014 33865 63294
20112 33865 39567
18455 33865 29559
22826 33865 60300
17581 33865 37571
24300 33865 57337
22317 33865 45936
24979 33865 54355
19668 33865 50619
21843 33865 54712
26161 33865 58282
21990 33865 50478
20039 33865 56879
21723 33865 38232
22242 33865 60319
20892 33865 42592
17568 33865 40135
17758 33865 59784
17811 33865 63784
24346 33865 52645
18962 33865 43676
18299 33865 28667
24082 33865 56015
25130 33865 52117
17387 32348 58633
17387 32437 49545
31774 16418 52212
32621 15836 52212
31994 7995 52212
31455 9131 52212
17387 19112 46700
28039 34581 25602
28039 34010 22323
28039 34133 40951
30323 32292 59072
17387 32501 36757
17387 32620 62995
12420 31404 58272
12420 29526 56634
12420 29996 57141
29852 21014 51418
29852 22208 52629
25640 19011 40766
24278 19011 46260
24881 19011 42046
26561 19011 41589
23726 19011 44100
23733 19011 46781
20699 19011 44673
26625 19011 44788
22147 19011 43872
27280 19537 47245
9732 32292 53033
9677 32292 47182
3289 32292 72160
3865 32292 70952
10417 32292 58409
8008 32292 64876
11898 32292 55969
13035 32292 36022
10761 32292 49338
10862 32292 46792
2513 32292 75246
11258 32292 44895
9912 32292 46284
14446 32292 30323
13641 32292 38381
12950 32292 49883
13158 32292 47965
12466 32292 42298
12416 32292 37503
13362 32292 44410
33006 6523 50320
33006 1042 49208
33006 7659 50787
15063 0 32304
23781 19912 30847
16496 19912 31318
16545 19912 32074
15574 31425 56759
15574 26202 55867
15574 29502 57558
13580 29401 27250
14113 30750 26438
14598 29677 27084
30702 19602 52212
7067 32292 43783
5216 32292 34140
1614 32292 41567
6663 32292 42924
3662 32292 61924
9414 32292 26058
6153 32292 17273
6902 32292 13419
5123 32292 32403
74 32292 19299
1530 32292 10487
2914 32292 27615
3627 32292 18678
1798 32292 73120
1167 32292 16033
7219 32292 19572
3318 32292 53475
4650 32292 53281
7779 32292 29764
4716 32292 36044
3247 32292 8641
179 32292 71526
3999 32292 19242
4853 32292 57097
3854 32292 28892
8069 32292 33496
3017 32292 12086
2498 32292 26304
5240 32292 19645
2044 32292 71043
3090 32292 45087
169 32292 36356
6937 32292 19055
5231 32292 24183
6689 32292 21299
5141 32292 26305
479 32292 12210
126 32292 1411
4179 32292 54165
1503 32292 47209
4400 32292 51955
9209 32292 23008
2045 32292 63503
3769 32292 58796
6698 32292 47636
5989 32292 12302
3507 32292 43750
4497 32292 28611
5668 32292 40663
9353 32292 34873
6951 32292 36891
2819 32292 28783
4125 32292 57886
3671 32292 23167
2515 32292 52036
407 32292 41150
1126 32292 4842
7466 32292 42298
3715 32292 31200
4128 32292 9264
5055 32292 56333
5847 32292 53636
2255 32292 10605
879 32292 50588
4787 32292 23669
9045 32292 32774
859 32292 64071
30190 0 31680
17387 34371 52785
17387 34051 49186
30026 3088 30428
30026 12371 32403
30026 10537 32260
30026 3078 32084
33006 4700 31640
33006 2556 30428
33006 2934 32107
33006 1763 31777
13262 4149 52212
14618 1211 52212
13075 7865 52212
12799 3787 52212
19076 17388 31948
17827 17388 31336
18042 17388 32552
30004 32292 31772
31394 32292 35271
31143 32292 30961
29649 32292 44870
28950 32292 56152
30096 32292 36172
29895 32292 48311
29155 32292 55301
14044 18706 52212
27668 17388 30830
27268 17388 29897
28689 17388 32181
15400 8613 51453
15400 3335 51952
15400 15088 49511
15400 12117 50744
26211 19912 31852
27478 19912 30949
20079 19912 32226
15074 32292 56498
15035 32292 36784
15038 32292 44524
13788 32292 43938
15120 32292 46117
13524 32292 47455
25275 34776 81213
24907 34776 68509
10526 34776 76914
35720 34776 77019
25413 34776 70095
23379 34776 72701
21804 34776 74861
19860 34776 77693
33651 34776 79866
16424 34776 77854
25378 34776 71872
17101 34776 78144
24097 34776 80835
39747 34776 77565
6100 34776 79634
40483 34776 81285
18022 34776 80578
22097 34776 79726
10644 34776 81191
42322 34776 79064
19299 34776 76080
26587 34776 76664
15524 34776 74284
27183 34776 80055
13789 34776 75131
41510 34776 81057
32161 34776 80695
27025 34776 65423
23374 34776 70558
23120 34776 81295
19669 34776 80653
29522 34776 73737
27998 34776 70177
29805 34776 77543
25183 34776 79457
7755 34776 81922
11301 34776 76609
9627 34776 79474
24992 34776 80890
31747 34776 77119
20961 34776 72017
22501 34776 73289
16345 34776 74367
29480 34776 70405
23904 34776 74339
32151 34776 76840
17397 34776 75130
14754 34776 74234
20729 34776 73661
44473 34776 81947
8939 34776 79133
5808 34776 79085
15004 34776 40459
8312 34776 66796
9803 34776 49324
12273 34776 44033
13481 34776 51190
15118 34776 32211
15758 34776 36896
12299 34776 50597
13120 34776 55904
15742 34776 40096
15913 34776 55421
7498 34776 67109
14847 34776 63342
10024 34776 45128
8185 34776 69986
10371 34776 46029
12755 34776 56492
16217 34776 43103
3786 34776 70373
11828 34776 66362
12334 34776 59292
9940 34776 53956
14154 34776 43766
9117 34776 49284
16136 34776 34639
15257 34776 52815
15198 34776 42656
12300 34776 38632
14066 34776 38670
3524 34776 69352
12071 34776 67852
9972 34776 58035
6489 34776 59605
8480 34776 71304
7472 34776 70764
11747 34776 45127
6667 34776 71916
14246 34776 36215
11542 34776 67176
17036 34776 39801
16819 34776 49566
11802 34776 48823
4590 34776 70309
7781 34776 54714
11298 34776 47897
15506 34776 30242
6804 34776 72424
17360 34776 50358
16598 34776 29317
13600 34776 61788
13044 34776 36355
5916 34776 72213
11841 34776 38925
36294 32292 64116
34043 32292 60144
37620 32292 67143
23688 17388 50583
22110 17388 49351
23768 32292 72555
24353 32292 67539
29180 32292 67531
34757 32292 74237
29193 32292 71352
12680 32292 80311
12736 32292 74303
25711 32292 76313
15618 32292 72365
36770 32292 78984
41011 32292 81025
15395 32292 73508
26449 32292 69253
28695 32292 78649
5236 32292 79235
17379 32292 80412
36102 32292 76431
36871 32292 80774
27885 32292 67597
14863 32292 78930
17258 32292 72799
5787 32292 78718
32767 32292 76987
18667 32292 77978
20773 32292 70819
5008 32292 80584
40618 32292 78111
31757 32292 72146
23323 32292 77063
15615 32292 74668
25668 32292 71371
37649 32292 79582
25992 32292 80167
10322 32292 76863
9434 32292 81156
13892 32292 78172
12233 32292 77450
33325 32292 72919
12016 32292 78687
13188 32292 79190
12784 32292 75654
23017 32292 71499
17795 32292 71703
24094 32292 78023
8598 32292 80720
30374 32292 78782
16938 32292 74423
15363 32292 77500
34253 32292 78156
3022 32292 80963
32442 32292 77788
24806 32292 77093
18280 17388 47392
16213 17388 48391
14742 5105 29808
13452 4375 29808
14236 5438 29808
1685 33945 0
18313 33719 0
12808 33006 0
15070 34054 0
22123 33848 0
13385 34125 0
19799 33872 0
7205 34656 0
17387 34555 22474
17387 34540 44576
17387 34558 52023
33006 18280 33714
33006 18494 35911
33006 17940 40624
15242 19912 47834
17080 19912 38222
16224 19912 44815
14818 19912 45345
33706 32292 44039
35353 32292 58539
37471 32292 61156
36470 32292 62887
34070 32292 45328
34759 32292 35494
39334 32292 59106
33791 32292 46437
36265 32292 43226
35232 32292 40395
36932 32292 60905
33008 32292 42663
35870 32292 44541
35237 32292 48315
33616 32292 37997
40420 32292 62276
33358 32292 49892
36164 32292 50357
38003 32292 60433
43939 32292 77973
39877 32292 61066
33374 32292 36922
34337 32292 33630
40608 32292 70394
36550 32292 54521
18284 18199 46873
25817 18199 46728
18734 18199 39784
23449 18199 44890
21022 18199 46430
19145 18199 44203
24836 18199 43688
22612 18199 46947
21228 18199 41629
12774 4442 49059
13117 10155 49059
13879 17082 49059
14265 11152 49059
14812 21522 31993
13953 20542 32583
13287 24672 30097
20504 33109 23608
17828 33109 58901
21605 33109 21634
19524 33109 22773
21656 33109 36969
23987 33109 28379
18696 33109 35847
22229 33109 38226
20857 33109 30461
17444 33109 64267
19921 33109 35698
18668 33109 49172
23640 33109 24602
19142 33109 31828
21059 33109 40116
18069 33109 57149
17797 33109 20477
21010 33109 45091
18047 33109 26672
17587 33109 56672
22479 33109 18537
21253 33109 42993
18727 33109 20158
24747 33109 18693
22840 33109 34563
18162 33109 60599
19715 33109 19676
26220 33109 18412
21787 33109 40437
26798 33109 21996
19038 33109 54439
17647 33109 48782
20305 33109 20900
23594 33109 29204
15600 19912 34688
15063 19912 36504
17387 18095 46967
33006 17416 31988
33006 11648 32233
33006 11027 31760
12894 0 30692
33006 31888 24882
33006 30376 26592
33006 31435 23211
32994 28494 57378
31486 30955 58860
32832 25469 55558
30026 8134 50522
30026 14793 49421
30026 11176 50510
30026 8686 49644
12465 837 29808
12631 4275 29808
13407 6656 29808
14038 11516 29808
28039 18957 38766
32265 0 49143
31477 11818 32788
32324 12610 32788
31001 13277 32788
29647 17388 35176
29635 17388 36981
29203 17388 37637
4942 34776 75231
6809 34776 67251
7033 34776 63865
17073 34776 64142
10533 34776 67884
6489 34776 61215
14780 34776 65562
9779 34776 57035
7958 34776 65223
14375 34776 42232
15586 34776 53593
10082 34776 53019
15700 34776 56544
13110 34776 39369
13699 34776 60382
16014 34776 59261
10607 34776 68884
12885 34776 53235
7423 34776 67842
16536 34776 42313
13392 34776 64454
9869 34776 52472
9110 34776 70032
8903 34776 51859
17131 34776 63003
12195 34776 65115
7842 34776 68873
16752 34776 52533
14187 34776 67026
5885 34776 66783
3151 34776 74457
10010 34776 64769
11522 34776 47504
4719 34776 71217
6751 34776 70213
16046 34776 63081
14520 34776 55611
10536 34776 66170
12211 34776 63148
13932 34776 61152
13635 34776 40042
11942 34776 40858
15270 34776 43458
11527 34776 52051
16963 34776 35569
12033 34776 46150
9440 34776 57335
8679 34776 61496
15457 34776 63676
16576 34776 36886
16059 34776 41696
28039 19588 36771
12420 16130 32745
12420 3256 31096
12420 7600 31369
12420 521 31022
14922 32292 59402
3368 34776 67694
2933 34776 15258
22 34776 6836
5148 34776 25253
5168 34776 33518
770 34776 23611
1872 34776 34718
2843 34776 31920
11168 34776 16643
3149 34776 66682
1968 34776 53595
13568 34776 18257
2824 34776 4402
3789 34776 36398
5115 34776 59772
10093 34776 16172
1515 34776 3605
2343 34776 3540
12249 34776 15199
10799 34776 36508
9844 34776 10129
778 34776 62758
8865 34776 12534
4650 34776 17458
4744 34776 23003
8322 34776 15801
1861 34776 65448
5671 34776 19923
405 34776 33898
5238 34776 58989
11350 34776 19630
2974 34776 17999
10473 34776 22106
11177 34776 35406
11964 34776 29776
130 34776 70679
4426 34776 28301
4400 34776 51143
5954 34776 22678
2929 34776 7563
6552 34776 6829
1956 34776 47863
13003 34776 18144
8815 34776 24991
6850 34776 11437
807 34776 71363
5926 34776 20372
194 34776 19596
2016 34776 35526
2861 34776 4867
9659 34776 42277
4684 34776 47003
359 34776 25188
2604 34776 3181
5389 34776 43974
6959 34776 46130
10045 34776 21370
6118 34776 37953
12399 34776 17424
2580 34776 59654
6607 34776 25468
7009 34776 54532
1375 34776 19245
2495 34776 32738
9628 34776 36471
1165 34776 68181
5267 34776 53071
582 34776 5031
2578 34776 15821
5243 34776 28465
8434 34776 26457
7465 34776 18338
10683 34776 40475
3360 34776 16020
1850 34776 45959
7765 34776 16479
5538 34776 54564
3522 34776 12675
11650 34776 26178
11747 34776 15592
6424 34776 29719
1132 34776 6211
3442 34776 22612
12447 34776 14504
712 34776 7714
1510 34776 71139
9896 34776 15483
3787 34776 64645
8539 34776 31396
5713 34776 51832
6150 34776 44953
30104 15979 52212
30848 12200 52212
30048 10469 52212
30216 786 52212
32763 17388 45181
31157 17388 34980
32456 17388 46048
20144 32782 64632
27012 18113 29808
28300 18489 29808
28039 32761 22783
28039 32583 30560
28039 32949 24651
33006 17986 31692
33006 8324 32345
33006 2263 32784
33006 15223 32683
18123 19912 50573
22791 19912 49758
21008 19912 49301
24805 19741 47245
10566 32292 68773
10202 32292 68000
11953 32292 67892
12707 32292 66743
14627 32292 65495
14885 32292 61296
16446 32292 63140
10211 32292 69146
30796 22954 50890
32959 24018 51531
31128 24677 51927
23438 17388 31787
22771 17388 31696
20993 17388 31601
15400 11407 31344
15400 15764 31897
15400 14859 30710
27856 33865 38482
26578 33865 40489
23617 33865 30839
27435 33865 35556
19169 33865 22044
19313 33865 19581
26730 33865 53068
23539 33865 28397
25000 33865 38240
24738 33865 44315
27784 33865 18479
25006 33865 20152
22120 33865 33745
22458 33865 37802
27574 33865 29680
26734 33865 21802
26761 33865 51590
25390 33865 22217
24376 33865 26367
27467 33865 27872
21566 33865 20101
26091 33865 36602
23199 33865 37487
24616 33865 33975
23289 33865 19746
25898 33865 53028
22118 33865 19621
27612 33865 59338
27247 33865 32309
24988 33865 47081
23252 33865 17993
19061 33865 22621
45426 33604 72385
45426 34715 25674
45426 33897 80848
45426 33387 55704
45426 33240 67915
45426 33857 80123
45426 34228 60214
45426 33892 65740
45426 34560 66040
45426 32984 73958
45426 34615 74895
45426 33634 45944
45426 33167 56750
9767 32292 61921
9761 32292 54968
12455 32292 44722
8081 32292 64242
6707 32292 60027
7243 32292 65024
13088 32292 40819
14883 32292 28178
14505 32292 29683
13999 32292 37222
10742 32292 48154
13364 32292 39916
7911 32292 60388
11556 32292 44509
5539 32292 66508
12068 32292 46988
13239 32292 45144
13336 32292 49588
14404 32292 39954
14178 32292 43675
14357 32292 45973
13506 32292 51012
14611 32292 44587
14095 32292 46755
28039 18060 41046
28353 34776 58420
37245 34776 51870
31415 34776 34188
28793 34776 43464
36028 34776 68645
30282 34776 27269
40173 34776 68147
34106 34776 67554
33856 34776 69460
31180 34776 38375
29474 34776 38935
43077 34776 75192
29229 34776 65016
33114 34776 57495
30910 34776 53121
35329 34776 62352
28923 34776 55660
30717 34776 52126
29370 34776 40425
30760 34776 34648
32510 34776 34325
30913 34776 54202
36600 34776 51656
41543 34776 76409
40379 34776 74692
42288 34776 74883
31485 34776 67792
30269 34776 50159
39880 34776 62111
39107 34776 70810
36440 34776 61576
33376 34776 69693
32480 34776 44692
33926 34776 47512
39858 34776 64673
29947 34776 52663
34553 34776 67436
35762 34776 63712
35525 34776 65701
29577 34776 64621
32132 34776 42586
28537 34776 32005
38352 34776 58199
28592 34776 34528
42972 34776 78232
33380 34776 46626
38834 34776 60065
29659 34776 57120
30789 34776 30369
35177 34776 70667
28816 34776 28879
41373 34776 71614
33336 34776 67392
39471 34776 74911
32884 34776 37733
33006 20797 51844
33006 20373 50654
15543 32292 19605
12420 29993 57858
12420 21278 51643
12420 11339 31645
12420 16872 30579
12420 7852 30420
12420 13395 31930
34170 32292 65374
31058 32292 62159
34800 32292 65192
33673 32292 67334
43802 32292 79476
35604 32292 71340
40839 32292 76201
31726 32292 61824
37680 32292 73316
38695 32292 69940
35065 32292 70440
29713 32292 65549
13106 25991 52717
12727 32178 56441
12828 31600 56094
28039 32987 56218
28039 32899 59631
28039 32826 42753
32416 19912 50951
30026 7479 52141
30026 1433 50205
30026 8818 52140
30026 3839 51497
15400 7734 32169
15400 10153 31796
15400 15189 30261
15400 13216 32101
16821 17388 48102
17480 17388 48334
31687 19912 32809
12860 32292 57966
45426 34353 62025
45426 33489 80529
45426 33761 42270
45426 34319 56562
45426 33037 58561
45426 34219 68654
45426 34023 38753
45426 34366 24004
45426 33745 53860
45426 32526 76434
45426 33215 61688
21450 19121 34775
31209 17987 29808
30440 16675 29808
30310 14094 29808
30071 19912 49440
19469 34776 65662
5412 34776 78480
8473 34776 76105
23675 34776 65947
8595 34776 75431
15072 34776 71942
21445 34776 66580
9838 34776 72313
16840 34776 70435
15400 719 52018
15400 10611 49867
15400 6143 50002
15400 338 49094
30098 17087 32788
31255 10308 32788
32601 14083 32788
31845 13570 32788
31468 32292 54608
32715 32292 32158
32434 32292 43561
32354 32292 45645
31124 32292 50015
30131 32292 23762
29852 31436 24421
29852 26355 26146
29852 24387 27463
0 32934 779
0 33965 23658
0 34047 30957
0 33016 1272
0 34421 5826
0 34626 33058
0 34419 1089
0 33989 14295
0 34424 23552
0 34548 33842
0 34255 22909
0 34614 36633
0 33345 16655
23672 19912 30158
17035 19912 32041
18978 19912 32139
30231 5106 29808
30059 13332 29808
30612 10388 29808
31969 17020 29808
16801 32292 61038
16124 32292 44678
16810 32292 59950
15744 32292 31561
35078 32292 7557
29371 32292 13993
23445 32292 15067
20367 32292 15979
29341 32292 13534
20971 32292 15866
23427 32292 16392
35315 32292 8216
36369 32292 7749
21655 32292 15954
29167 32292 12340
13486 19912 46504
14966 19912 44931
16656 19912 46495
16828 19912 39283
16574 19912 46992
12438 0 29905
10662 32292 32749
7092 32292 48980
12385 32292 24062
27301 33997 82020
32865 33764 82020
22974 34245 82020
36739 34194 82020
14182 34016 82020
18122 34508 82020
16215 33925 82020
9990 32292 34990
8409 32292 41953
12488 27393 56716
14202 22455 53743
37811 32292 33321
41490 32292 21935
40250 32292 17753
43009 32292 67901
41402 32292 7723
36874 32292 19623
43526 32292 49500
42782 32292 24093
42933 32292 61958
37498 32292 30814
40605 32292 23521
42654 32292 51873
44486 32292 22096
40611 32292 21602
44709 32292 26619
37877 32292 39864
43995 32292 33636
36586 32292 16983
43906 32292 67528
44995 32292 8527
44527 32292 36126
43699 32292 3628
44974 32292 32806
42140 32292 63659
40197 32292 40860
39575 32292 52875
39553 32292 45107
43415 32292 58758
34364 32292 23568
44750 32292 26033
39203 32292 41602
40327 32292 38645
43211 32292 66545
43019 32292 51440
42726 32292 62440
39125 32292 26242
35233 32292 24351
43893 32292 48850
44359 32292 33243
45294 32292 39079
39317 32292 32126
45166 32292 27509
45328 32292 29032
43102 32292 65970
44030 32292 16576
36628 32292 21176
43930 32292 22214
37373 32292 36411
38690 32292 41504
42486 32292 60358
36230 32292 33924
42428 32292 66704
44399 32292 72360
38936 32292 24995
39331 32292 13980
39913 32292 14894
34724 32292 30154
36926 32292 26883
38126 32292 35975
45224 32292 36623
42710 32292 25845
40576 32292 42118
41077 32292 30352
42345 32292 43382
43122 32292 60283
40363 32292 49694
43443 32292 41813
44216 32292 62726
26615 17388 34491
24524 17388 32813
16731 17388 50161
15422 17388 49899
18199 17388 50236
14055 0 29995
33006 22775 28286
33006 26515 27115
33006 30518 23678
13898 18956 29808
12796 6414 29808
13654 9244 29808
12882 13657 29808
13455 4847 49059
14003 1686 49059
15061 2347 49059
11491 32292 18946
10038 32292 10894
14253 32292 14419
14949 32292 17969
10031 32292 15660
10336 32292 18224
14324 32292 19187
12502 32292 14412
6403 32292 10648
12311 32292 15906
13691 32292 15658
16163 32292 18286
29852 29126 55254
29852 29007 55909
29852 28446 55036
12420 17603 46874
12420 18512 42849
12420 18338 45935
15258 32292 25550
7203 32292 50711
5345 32292 58475
8111 32292 52556
12499 32292 36031
5804 32292 55672
12875 32292 25601
13346 32292 27282
5261 32292 60805
14622 32292 27582
13171 32292 32524
13361 19912 51166
33006 18053 47646
33006 18829 43049
33006 19081 36970
25169 19912 31568
27079 19912 31690
12732 28726 57518
13448 25418 55527
13617 26842 56384
31612 19912 42158
31278 19912 44063
32410 19912 33489
31254 19912 35586
31133 19912 42344
32877 19912 44747
25138 19912 33394
17129 19912 33215
13873 19912 36203
13597 19912 39543
14899 19912 36085
18970 19862 47245
15966 17388 42337
14493 17388 43951
15481 17388 47589
15044 17388 41601
20153 32562 17388
29921 19912 38598
30178 19912 37481
31287 19912 39355
31716 19912 43369
30026 16083 50834
30026 5633 49857
30026 13447 49477
30026 15094 49753
31663 32292 60722
40359 32292 58756
36069 32292 38088
34619 32292 30714
25392 18146 47245
21251 18199 39739
17973 18199 40297
24094 18199 45256
19208 18199 40486
17648 18199 37916
23272 18199 44364
22819 18199 42532
15049 27409 56725
13470 19912 40410
14752 19912 35376
12542 19912 46273
27391 34776 15908
27081 34776 11726
32469 34776 11028
33982 34776 7105
28549 34776 15049
24615 34776 17269
17719 34776 17324
34993 34776 7391
23295 34776 15224
29277 34776 14216
32123 34776 13164
15574 27639 26613
15574 26725 28153
23166 32759 64632
26832 34618 17388
38398 32292 49678
34076 32292 28521
35171 32292 34871
30894 23539 27624
31361 25725 26308
32462 25438 26481
37273 32292 78455
23131 32292 80415
12810 32292 81029
29501 32292 69661
35244 32292 77090
19369 32292 72741
14463 32292 75520
28400 32292 70390
18831 32292 76763
32786 32292 74417
30273 32292 67843
21309 32292 73393
39621 32292 77727
6370 32292 78104
21069 32292 78093
5235 32292 81972
36221 32292 76996
42186 32292 81430
31127 32292 77915
37482 32292 74538
22329 32292 73335
25194 32292 76373
35508 32292 79897
45083 32292 81798
18383 32292 74528
23815 32292 75749
9728 32292 79557
26273 32292 76489
26614 32292 66932
30824 32292 71160
31440 32292 75045
24417 32292 78809
36210 32292 75297
17318 32292 80912
37237 32292 81441
7553 32292 79467
32525 32292 80037
32532 32292 73688
10533 32292 80450
20702 32292 74856
20539 32292 77565
5656 32292 80261
25843 32292 70171
28404 32292 77166
25506 32292 77898
19111 32292 79411
28050 19912 33503
32177 15759 49059
30569 8215 49059
31080 7660 49059
32325 15094 49059
30026 12999 30796
30026 3662 30156
10874 32292 64171
14562 32292 60697
14320 32292 61236
11863 32292 61364
14158 32292 60128
28010 19578 34775
28039 19183 37322
12420 1220 51400
12420 385 50184
12420 2732 50815
12420 2497 49859
14475 19912 39102
13919 19912 44486
13381 19912 44770
23437 17388 34505
30597 31160 58983
32998 21605 53232
32024 28999 57683
12478 25279 52289
13604 29247 54677
14138 32030 56353
17387 33073 17856
17387 33010 53295
17387 32917 39195
13913 0 51534
45426 32628 2554
45426 34354 1027
45426 32966 42852
45426 32571 31962
45426 32810 16340
45426 32999 33647
45426 32784 12780
45426 33077 1875
45426 34095 13798
45426 32304 48952
45426 32616 67177
45426 32443 45096
45426 33593 22765
21416 18127 47245
30781 19912 46143
31797 19912 48530
29700 19912 47236
30234 19912 46808
19575 33865 18796
25534 33865 23950
24828 33865 26309
24944 33865 25184
23558 33865 35515
23355 33865 33357
27506 33865 50884
24208 33865 30677
28029 33865 44612
24865 33865 40613
27684 33865 29265
25237 33865 42640
20152 33865 21135
23023 33865 40435
26950 33865 18815
20569 33865 21240
26558 33865 23248
25623 33865 28611
21571 33865 19631
23736 33865 44176
25847 33865 41421
18669 33865 18475
26620 33865 56309
27690 33865 46652
24910 33865 23163
27023 33865 28295
19824 33865 24848
25758 33865 18745
22605 33865 35785
25208 33865 47968
32384 17388 46472
30201 17388 40948
29852 30905 57767
31900 31671 25884
31002 29222 27358
32288 23027 31087
32499 24111 30434
28039 33264 43833
28039 33705 60690
30475 29686 27079
30682 21213 32179
32310 21419 32055
15574 31768 58735
15574 28867 56015
12418 32292 34350
9282 32292 47955
5044 32292 63242
11164 32292 40097
9470 32292 45052
5896 32292 58239
5432 32292 59087
8227 32292 48961
16076 32292 59759
15574 22885 52472
15574 28917 54901
15574 20574 51377
0 34507 44443
0 33428 21130
0 33614 22406
0 33724 19690
0 34265 46037
0 34559 27996
0 34144 42728
0 34609 47000
0 33854 25495
0 34144 57804
0 34124 9638
0 34345 7935
0 34127 56514
12420 259 49107
12420 8258 51279
12420 10997 51287
12420 11320 50982
28095 19912 36128
29701 19912 40161
28564 19912 36893
29730 19912 41083
30683 27629 56858
30239 28883 57613
30306 29324 57878
31152 21898 53408
21135 19011 45307
27987 19011 46321
22395 19011 42547
22169 19011 46824
25985 19011 41621
21714 19011 44256
27447 19011 41317
26094 19011 37970
5390 32292 75201
11941 32292 68785
11350 32292 69629
9638 32292 68337
16831 32292 64893
9176 32292 71754
13546 32292 63624
13213 32292 66396
17387 34482 47573
17387 34465 32954
15838 32292 58733
25990 19912 50282
24268 19912 50934
22526 19912 51568
16146 32292 18853
15489 32292 21386
13814 21611 31939
13446 24094 30445
14179 23497 30804
28039 33380 41797
28039 33446 56844
28039 33311 46044
43321 34776 65480
30779 34776 21885
33681 34776 17506
44202 34776 33738
39577 34776 55380
43537 34776 28192
36467 34776 28075
42596 34776 51032
39168 34776 33150
45010 34776 44247
43810 34776 7123
41084 34776 42909
43119 34776 41145
32712 34776 23648
44561 34776 62347
44705 34776 34335
34166 34776 17491
32237 34776 25043
37350 34776 8139
43656 34776 47319
43925 34776 25902
42325 34776 54088
37674 34776 12934
39624 34776 21687
30851 34776 26805
40589 34776 61548
44481 34776 77186
35641 34776 32851
39754 34776 56284
39194 34776 16121
41359 34776 35071
41124 34776 23282
43093 34776 70574
44487 34776 28295
31175 34776 17915
40371 34776 31056
37169 34776 39958
34549 34776 10889
37782 34776 10778
32920 34776 13666
36771 34776 14621
41523 34776 44104
40754 34776 35079
40048 34776 15158
37754 34776 45281
36856 34776 20735
44873 34776 51276
32539 34776 19839
36107 34776 12704
36877 34776 22909
40291 34776 41726
40251 34776 36223
36007 34776 17478
36533 34776 16763
43732 34776 41392
44422 34776 35373
38359 34776 50278
45235 34776 66648
44573 34776 13801
44567 34776 43429
33584 34776 32389
43577 34776 30174
34126 34776 32384
40002 34776 60086
38827 34776 22671
38978 34776 55348
42860 34776 66552
34792 34776 11423
39329 34776 58976
42127 34776 17056
35479 34776 21842
39008 34776 7510
39985 34776 40065
44400 34776 42974
38924 34776 49476
37316 34776 32695
38699 34776 40685
40376 34776 61006
40484 34776 17100
34460 34776 24638
42692 34776 5707
34194 34776 39760
30245 34776 15754
35934 34776 26241
36646 34776 21223
43878 34776 66448
44464 34776 8737
37189 34776 43181
24863 34445 64632
30751 32292 60104
15383 8707 49059
14581 10795 49059
13369 3673 49059
15249 11198 49059
26763 18199 45429
27536 18199 36916
25972 18199 36533
25421 18199 37286
25336 18199 39186
27888 18199 46422
23663 18199 37948
21801 18199 36143
19731 18199 36353
16054 32292 33667
0 33088 37425
0 33523 53073
0 33794 81735
0 32687 41842
0 33153 67303
0 34249 79997
0 32771 58022
0 32840 72639
0 32423 17456
0 32729 68880
0 33602 62283
0 32373 21564
30193 7718 32788
30128 15707 32788
31700 601 32788
3849 33576 82020
20772 32984 82020
6826 33800 82020
25224 32530 82020
21488 32730 82020
36424 32456 82020
4544 32398 82020
2722 34240 82020
31369 32292 28159
30767 32292 34261
30895 32292 28629
30996 32292 39872
32842 32292 25521
28978 32292 51071
28831 32292 54579
29691 32292 34564
23113 17388 51531
20521 17388 51183
17864 17388 50964
20099 19757 34775
16189 17388 37316
15590 17388 36519
16677 17388 35472
14074 17388 36623
13001 17388 38499
30979 27004 25538
32561 32193 22415
30137 28870 24415
30662 29735 54971
30624 28446 54195
29975 32292 54341
28440 32292 62616
23236 34776 7548
14465 34776 10713
34120 34776 6356
37957 34776 2206
14878 34776 8637
17766 34776 16008
24762 34776 5931
29434 34776 3601
15328 34776 4895
33406 34776 5061
32314 34776 6554
27362 34776 3216
19555 34776 7617
28842 34776 6922
9937 34776 6430
13411 34776 695
29654 34776 95
11445 34776 1607
19142 34776 12378
24465 34776 8908
3857 34776 2966
19169 34776 15443
20885 34776 10195
14874 34776 1369
20271 34776 2085
25745 34776 10852
28895 34776 9789
14903 34776 13791
6359 34776 4044
9758 34776 3924
31055 34776 4156
17336 34776 5423
5777 34776 1425
26283 34776 735
17324 34776 3225
37821 34776 4362
25615 34776 3288
16104 34776 15227
25691 34776 2177
22342 34776 1882
32509 34776 659
17489 34776 10556
19390 34776 13299
13039 34776 11947
24683 34776 7317
23910 34776 13104
21399 34776 7408
16649 34776 9619
25739 34776 2665
21306 34776 4899
21472 34776 2844
11305 34776 7270
18464 19011 39874
23253 19011 36296
18166 19011 35206
21207 19011 39575
19177 19011 35404
19282 19011 44999
23769 19011 35231
22480 19011 38964
10738 32292 65922
6290 32292 70854
13916 32292 60667
4564 32292 74906
15289 32292 59993
39903 34776 80225
27701 34776 68048
13735 34776 76734
21036 34776 74230
7363 34776 80861
31500 34776 74449
27177 34776 66674
31636 34776 68953
39764 34776 77007
34440 34776 75423
32431 34776 72544
26760 34776 75850
26158 34776 66871
20017 34776 70126
39444 34776 80798
32197 34776 74862
11040 34776 75923
28118 34776 68361
11854 34776 81434
6540 34776 78889
37802 34776 77228
34027 34776 81077
38450 34776 75352
29178 34776 77650
25520 34776 76245
28242 34776 72863
21604 34776 78826
23919 34776 72553
14751 34776 75568
24492 34776 78495
24382 34776 74043
31720 34776 76005
13242 34776 74876
29111 34776 78633
24901 34776 74881
23700 34776 75842
24194 34776 71312
34645 34776 81811
18848 34776 77370
27717 34776 69038
17805 34776 72470
31444 34776 79138
18187 34776 73000
11736 34776 77455
16006 19105 52212
18486 19108 52212
20688 18210 52212
15574 30790 24428
15574 28694 27227
18607 19912 48437
15383 25556 52456
14774 27748 53775
14350 23800 51398
45426 32728 30360
45426 32978 19417
45426 32720 41321
45426 33914 19786
45426 33538 17554
45426 32428 29681
45426 32318 79131
45426 32984 39713
45426 33504 837
45426 32845 42378
45426 32577 55403
15819 32292 30110
33006 9560 30933
33006 8514 30970
33006 2360 30897
33006 3303 30652
29136 17809 52212
29519 18867 52212
27913 19165 52212
28039 18874 40409
27674 19912 34676
0 32938 45971
0 33097 47256
0 33121 55940
0 33359 53483
0 33036 55041
0 32682 14654
0 33337 61572
0 32913 20913
0 33245 77695
0 33393 44076
0 32398 56531
0 33392 59616
0 32836 52494
29852 23953 29436
29852 23127 29435
27526 33378 0
38675 32357 0
34062 33215 0
12042 32420 0
8094 32610 0
23210 32313 0
36923 33698 0
38816 33249 0
29569 17388 48192
17387 34529 59146
17387 33896 48242
17387 34694 60552
21961 32292 65909
15133 32292 67986
13661 32292 71203
7747 32292 75093
10231 32292 72521
16083 32292 66638
14593 32292 71067
10930 32292 72170
15218 32292 70655
3685 32292 78952
18425 32292 65914
12013 32292 73612
17690 32292 68796
24572 19912 48236
21279 19912 48348
30026 11944 32562
30026 3798 30972
32567 20540 32584
30052 21742 31860
31753 20376 32682
17997 32292 10987
25002 32292 6812
8413 32292 6395
23613 32292 13109
35414 32292 1943
10593 32292 7901
11764 32292 3811
24349 32292 1625
21756 32292 7628
11300 32292 1130
29909 32292 6905
8880 32292 587
38180 32292 4269
26299 32292 9455
27946 32292 2999
17653 32292 6045
25817 32292 3936
25866 32292 1518
15891 32292 6725
17344 32292 8379
10336 32292 2533
25868 32292 6909
12477 32292 5533
21966 32292 1941
32979 32292 167
7530 32292 2337
19592 32292 14214
15305 32292 10499
8769 32292 2256
33653 32292 6781
15281 32292 7847
21154 32292 3176
7373 32292 773
19109 32292 6759
19278 32292 8505
19130 32292 26
30660 32292 9060
19613 32292 6507
6817 32292 5245
37140 32292 1495
27166 32292 9632
20157 32292 13284
40492 32292 2025
11035 32292 9820
18271 32292 9845
23120 32292 5157
12266 32292 5068
14363 32292 7898
25734 17388 47643
9025 34776 76040
14300 34776 70478
17969 34776 68791
23460 34776 67271
7544 34776 76041
17185 34776 68726
13847 34776 69312
4915 34776 77768
26024 34776 64921
22361 34776 66238
33006 31234 56247
33006 27313 55865
16888 32292 31099
17097 32292 24440
17286 32292 61962
17182 32292 34876
16990 32292 40874
17302 32292 52632
14026 0 49604
32506 32292 57845
15173 34776 12489
34471 34776 662
8086 34776 6573
26944 34776 9011
41141 34776 2178
18570 34776 7808
31969 34776 3628
31464 34776 5786
27560 34776 8995
44586 34776 405
19803 34776 11344
22145 34776 6907
33042 34776 6063
20170 34776 8330
22603 34776 8006
25759 34776 7860
21774 34776 3221
17534 34776 1324
16303 34776 6960
27311 34776 2214
39838 34776 1030
26066 34776 6737
17250 34776 12384
35378 34776 4767
19998 34776 9710
7611 34776 6746
17822 34776 8719
8388 34776 7003
28118 34776 4835
16673 34776 13457
19880 34776 3903
20356 34776 4557
34741 34776 3428
43002 34776 801
15030 34776 6886
19198 34776 2611
36374 34776 5322
28647 34776 8901
4025 34776 1904
18305 34776 13707
14360 34776 8022
12184 34776 9677
12860 34776 1058
18251 34776 11802
18228 34776 14801
26402 34776 5458
24206 34776 2189
20152 34776 6248
15441 34776 4160
30026 8657 30008
30026 9115 31270
30026 5874 30391
30026 11583 30747
13346 15852 49059
12957 6862 49059
13180 16719 49059
14832 29092 27437
15253 27748 28245
14507 28751 27641
31934 19912 29945
25183 17888 29808
19253 17530 29808
21482 17565 29808
23551 19011 39775
19052 19011 41224
21186 19011 40595
26801 19011 35923
23675 19011 38940
22845 19011 35429
17768 19011 39411
18385 19011 41514
24775 19011 36579
28039 32339 39092
28039 32399 36547
28039 32717 32604
28320 32292 43597
29189 32292 25490
28767 32292 43093
28513 32292 18962
28946 32292 35867
28829 32292 23073
14694 4432 29808
14102 2334 29808
12950 781 29808
22515 33865 47741
20629 33865 46684
21197 33865 53994
17572 33865 42446
23927 33865 53650
25840 33865 61573
23718 33865 64418
18657 33865 41362
23989 33865 58023
19822 33865 51253
19631 33865 55460
20483 33865 56497
26951 33865 63510
20018 33865 47621
24562 33865 56739
18661 33865 44014
17881 33865 26021
19532 33865 44418
18701 33865 35225
24601 33865 63609
21657 33865 37260
20827 33865 34982
24777 33865 57672
24253 33865 60489
18711 33865 40373
17435 33865 22496
25955 33865 57882
24230 33865 59980
25234 33865 55619
21227 33865 50080
15680 19912 51292
20551 19912 49819
17287 17388 38175
14259 17388 48095
17184 17388 39954
16361 17388 47367
15062 17388 33092
31122 4570 49059
31444 7200 49059
30835 3398 49059
32678 8114 49059
40587 32292 44459
43495 32292 36357
42669 32292 33085
39215 32292 34954
44789 32292 33709
43406 32292 57390
44915 32292 62449
36568 32292 16390
39336 32292 49638
41341 32292 43202
43855 32292 20598
41320 32292 32822
35948 32292 27566
41924 32292 46460
45343 32292 20142
38255 32292 40827
40883 32292 37497
45414 32292 73055
44847 32292 3812
34752 32292 20093
40799 32292 26036
43352 32292 51815
44487 32292 39838
45024 32292 5552
43888 32292 63626
44978 32292 33254
40804 32292 43065
43757 32292 32562
41050 32292 41809
44784 32292 61457
35869 32292 26054
34849 32292 26093
43269 32292 50948
38530 32292 39289
45137 32292 9201
37673 32292 26454
43123 32292 13320
44361 32292 56825
42770 32292 22438
38753 32292 37753
45041 32292 79344
41381 32292 22833
44815 32292 69279
36326 32292 19615
44712 32292 49645
34050 32292 20553
39714 32292 29432
41892 32292 62441
37089 32292 29633
45380 32292 34379
36835 32292 38436
37101 32292 18975
44373 32292 64229
44350 32292 75548
44703 32292 73965
36227 32292 29672
43991 32292 4635
39627 32292 38489
35653 32292 19323
40373 32292 46954
45087 32292 17225
39239 32292 49198
38230 32292 19300
39665 32292 34148
31873 4803 49059
31672 9002 49059
31664 4353 49059
33006 13876 50618
33006 17909 50951
33006 18432 51728
33006 11138 51671
15400 11122 51695
15400 14756 50631
15400 5335 51568
15400 17033 50350
28039 32515 57243
28039 32476 54382
28039 32741 58271
19204 17825 52212
17021 19238 52212
28350 32292 14430
34733 32292 9384
36037 32292 6043
42164 32292 2200
39726 32292 5438
25507 32292 12530
31636 32292 11030
40154 32292 4281
25963 32292 15653
32860 32292 7959
34031 32292 11175
10743 32292 61481
10896 32292 60291
2428 32292 77530
13374 10837 32788
13576 2755 32788
14836 2099 32788
13001 7483 32788
26803 18199 41489
24289 18199 42536
24880 18199 42876
21491 18199 35699
20684 18199 35964
21998 18199 38596
23073 18199 37664
20103 18199 37021
19490 34776 16458
28117 34776 10988
24786 34776 14167
29987 34776 14924
22969 34776 14508
28073 34776 13425
25046 34776 15711
22794 34776 15872
24066 34776 15639
31328 34776 11940
32695 34776 12701
29279 34776 10119
16624 32292 22060
17139 32292 20240
25919 17879 47245
39215 34776 64990
33389 34776 37840
32133 34776 59259
35944 34776 71246
34243 34776 52739
29142 34776 37627
30209 34776 62582
36276 34776 48204
32475 34776 61925
28533 34776 47641
32824 34776 67254
37095 34776 65134
33863 34776 63521
37559 34776 61497
37356 34776 59256
37132 34776 68151
39795 34776 65731
30675 34776 35367
37082 34776 72364
30949 34776 39241
36416 34776 63562
38728 34776 68323
35924 34776 54316
37794 34776 70934
32336 34776 54576
28978 34776 26978
30436 34776 46531
32349 34776 37385
35741 34776 67974
30115 34776 41953
35480 34776 67292
30028 34776 25294
31812 34776 49602
33163 34776 41538
40377 34776 66699
37620 34776 69363
38097 34776 58567
29838 34776 63067
28732 34776 29354
38604 34776 65975
35803 34776 65048
33590 34776 57483
30327 34776 48764
41242 34776 72164
14836 11623 32788
12868 16715 32788
14738 8981 32788
28822 32292 46893
15377 17388 33425
33006 8961 50787
33006 10478 50813
33006 17362 49450
33006 10182 51364
27051 33109 51213
19854 33109 60248
22110 33109 53586
27384 33109 48814
27477 33109 50570
27763 33109 64348
25089 33109 44730
22231 33109 51609
26852 33109 49992
20633 33109 56647
24547 33109 41194
21336 33109 56188
23088 33109 56296
26170 33109 38676
26840 33109 53603
24419 33109 58701
25400 33109 38791
21171 33109 52567
19622 33109 56285
19989 33109 55740
27394 33109 36063
27212 33109 36620
20661 33109 53834
24267 33109 57201
22228 33109 44054
25886 33109 49915
26509 33109 57200
27846 33109 51083
25203 33109 36449
26322 33109 35229
26689 33109 58695
24386 33109 64366
27436 33109 22677
31129 32292 21567
26203 17388 30554
22512 17388 30218
12471 17762 52212
14877 464 52212
13602 7764 52212
13033 644 52212
16737 32470 0
39730 33805 0
33506 33523 0
26685 33692 0
32247 32687 0
38042 33006 0
25506 33199 0
35811 33513 0
32266 12338 29808
32723 3021 29808
32173 2441 29808
21746 34623 17388
15574 26913 26775
15574 24045 27844
15574 20519 31212
28039 34680 25183
28039 34324 54409
28039 34308 62147
33006 18816 48804
33006 18348 48946
33006 19001 40529
15574 20351 52027
15574 24300 52204
15574 20801 49981
36129 32292 53871
38977 32292 62830
37129 32292 47963
33982 32292 32073
34185 32292 54765
40540 32292 68932
38393 32292 59899
37469 32292 55083
37417 32292 47074
35831 32292 41762
34813 32292 41397
33780 32292 44525
36374 32292 53481
38369 32292 57928
37906 32292 61960
40265 32292 71210
37415 32292 47605
35930 32292 59851
35162 32292 55697
35565 32292 47993
33638 32292 55760
40545 32292 65612
35727 32292 51458
34034 32292 42203
34171 32292 50510
34265 32292 38972
28039 33416 26329
28039 33632 36787
28039 33443 33827
14013 28434 57342
15535 26510 56184
14738 29544 58010
17387 17866 36946
30827 17388 43376
29418 17388 47108
29526 17388 46494
30978 17388 44751
29852 20536 29835
29852 25484 28940
29852 20216 32333
29852 25438 54550
29852 22377 51432
33045 32292 57776
35221 32292 61438
33006 7166 49794
33006 50 51939
33006 4742 49731
33006 12625 49165
27318 33109 18471
19793 33109 48744
19290 33109 22150
19195 33109 48719
22139 33109 20855
24230 33109 18995
18259 33109 51816
22888 33109 18259
21596 33109 30494
25973 33109 23909
23216 33109 29987
18628 33109 50008
22878 33109 23508
18538 33109 46342
22881 33109 27272
23285 33109 31380
19170 33109 29092
23053 33109 31794
23910 33109 26332
21957 33109 24434
20615 33109 45860
17637 33109 22245
17857 33109 59397
19024 33109 51319
17912 33109 55711
17708 33109 36199
17825 33109 61300
19259 33109 39078
20005 33109 31180
21254 33109 42422
20012 33109 34473
18118 33109 58135
15317 17170 32788
14814 5083 32788
13347 15825 32788
34784 34776 21276
38866 34776 30391
37459 34776 14841
41387 34776 36558
31275 34776 27722
35229 34776 20816
41000 34776 14878
33421 34776 36172
40137 34776 11908
33055 34776 28785
36490 34776 44626
40293 34776 34722
35966 34776 19251
38401 34776 27282
38107 34776 42882
44386 34776 44054
42813 34776 58129
38202 34776 21310
45389 34776 50839
35380 34776 11466
43835 34776 13906
32718 34776 24284
43658 34776 11039
44835 34776 48707
33726 34776 20802
37185 34776 36162
42350 34776 8264
39367 34776 26574
34276 34776 22206
33186 34776 30462
33874 34776 34328
42984 34776 3355
42436 34776 4441
39785 34776 7320
37687 34776 18491
42105 34776 33626
31984 34776 31302
40844 34776 13104
39686 34776 22955
44598 34776 1670
35699 34776 44438
41555 34776 64183
41433 34776 52476
38722 34776 43561
40522 34776 40095
43342 34776 55614
33066 34776 14769
42384 34776 58084
38582 34776 52352
33697 34776 24056
42641 34776 65115
41073 34776 5208
45411 34776 54545
39405 34776 58098
38777 34776 45154
39289 34776 37479
39001 34776 27765
44432 34776 68471
43844 34776 25423
36295 34776 31414
40862 34776 28722
39130 34776 46551
45216 34776 14756
43347 34776 49302
43346 34776 13130
43645 34776 8400
37808 34776 46826
41236 34776 55102
35741 34776 33452
44911 34776 26516
38840 34776 24585
43503 34776 47848
43867 34776 40933
36492 34776 9756
42195 34776 62265
44550 34776 71445
41588 34776 5594
29698 34776 21457
34968 34776 30983
42557 34776 45783
45411 34776 79861
12420 6690 31386
12420 14550 32417
12420 8455 32621
12420 10042 32310
12420 19887 31050
12420 19824 49536
12420 19218 33935
12420 15379 51236
12420 12305 50295
12420 16203 50458
28039 34606 17819
28039 33925 33887
28039 33934 39900
17387 19371 39958
15400 13959 30073
15400 10145 29811
12420 18335 30985
12420 14701 31725
12420 7052 30409
12420 16424 30697
15201 17545 29808
12420 27678 56348
12420 23075 53662
12420 20678 50837
15400 6106 31344
15400 2135 30982
15400 1402 31155
30026 4811 50116
30026 8870 51438
30026 4117 50836
13635 19912 50230
31763 32081 56383
30415 25216 52251
32123 29695 54947
12420 17910 40825
12420 18468 48004
12420 18143 44129
30261 32292 23235
14594 12965 52212
14788 8820 52212
15306 2305 52212
24731 33051 17388
28039 34327 49565
28039 34261 64608
28039 34554 29090
28039 18593 35795
16119 32292 51919
15664 32292 52409
27128 32408 64632
28039 17793 44231
14226 20441 29489
15469 26388 25909
13405 22131 28472
33006 20034 49174
33006 25091 53742
33006 21021 50163
30694 17388 35679
24862 19912 51643
27822 19912 50589
27777 19912 49819
12898 24468 27065
12685 28958 24362
13530 25416 26494
13140 27560 25204
12420 7761 49114
12420 7799 50266
12420 6854 49977
28039 17650 39256
31069 19912 30106
22167 32292 66517
17563 32292 65684
22520 32292 66818
15868 32292 69475
14686 32292 72231
12454 32292 70879
16816 32292 69006
9847 32292 74570
29852 30614 24362
29852 28724 25229
29852 31835 24659
21172 33109 55595
27665 33109 47561
25418 33109 58285
24810 33109 33642
27656 33109 24153
27292 33109 35483
24590 33109 59434
26871 33109 28304
21121 33109 51281
24402 33109 53732
21610 33109 51008
20844 33109 57451
25436 33109 55674
27974 33109 55072
25576 33109 40417
24545 33109 56793
27781 33109 38156
27015 33109 49169
24651 33109 39232
26864 33109 28877
26452 33109 42844
24237 33109 45658
25291 33109 45971
24423 33109 50726
22359 33109 50728
21807 33109 58426
27220 33109 40101
24507 33109 35442
23275 33109 51471
19032 33109 58719
32307 32292 18548
32818 32292 17615
32918 32292 19847
34118 32292 11681
33471 32292 17523
35363 32292 12102
30744 32292 18665
35133 32292 15716
34237 32292 19188
33764 32292 14156
33767 32292 18926
30874 10198 49059
31704 11821 49059
13135 32292 23857
33006 17529 36138
33006 18101 39499
33006 19067 34349
1565 32292 79110
2261 32292 77937
7854 32292 67282
32534 0 31747
12420 30432 23577
12420 28063 25262
19278 19912 47958
26160 19912 33000
12420 30775 56001
12420 27635 53873
12420 29063 56682
12420 28004 27811
12420 23193 30593
12420 26145 29147
32063 32292 23524
12420 29841 24485
18911 17492 34775
18336 19912 47282
13817 22435 28288
15493 29003 24335
13179 20314 29565
28039 33377 27408
28039 33316 19663
15574 22591 30042
15574 28387 25623
34959 34042 82020
27201 33578 82020
1536 34743 82020
37803 34429 82020
30901 34389 82020
40716 34207 82020
18107 33800 82020
18528 34013 82020
29065 17388 46053
29113 17388 46633
32725 17388 48251
29139 17388 39767
19953 17444 47245
30537 9613 32788
31821 1816 32788
12629 17388 35763
14581 17388 42514
16391 17388 36503
13012 17388 33922
14639 17388 41168
33006 19999 30652
33006 28133 24946
28039 18450 41426
32582 32292 64653
32315 32292 65784
32691 32292 62036
39728 32292 74337
34517 32292 63634
35614 32292 64511
38314 32292 72403
30843 32292 66818
31318 32292 66272
34986 32292 67216
35335 32292 65146
33365 32292 63085
33006 26460 28757
5592 32292 41614
404 32292 41825
5990 32292 43394
2597 32292 31356
727 32292 42574
7100 32292 17700
1120 32292 69866
4073 32292 50766
1966 32292 59715
4713 32292 31252
8620 32292 37237
2505 32292 65499
4714 32292 13741
9603 32292 25597
4693 32292 11879
5238 32292 22565
3277 32292 42691
2856 32292 59688
9281 32292 28274
6922 32292 28799
11078 32292 21973
684 32292 59935
1955 32292 12794
5946 32292 19496
1520 32292 13844
8507 32292 36407
1328 32292 9340
4826 32292 41770
3283 32292 17400
6387 32292 46064
3211 32292 26010
1720 32292 16194
3831 32292 15927
482 32292 7181
5444 32292 30815
872 32292 68253
459 32292 21794
10816 32292 19583
1975 32292 22170
9803 32292 27728
2421 32292 36905
5147 32292 36271
7611 32292 36118
1851 32292 39425
100 32292 72931
13 32292 8489
1367 32292 5813
3801 32292 25267
4474 32292 32193
3859 32292 28373
8612 32292 23761
4207 32292 7962
3782 32292 56405
7323 32292 40205
446 32292 23214
8480 32292 16260
3699 32292 48176
3577 32292 46988
3562 32292 34363
6584 32292 48977
6264 32292 22042
12420 19679 36716
12420 19096 38862
12420 19687 48407
31833 32292 44118
31095 32292 52803
32046 32292 54242
32972 32292 55299
31803 32292 38502
31883 32292 44776
29446 32292 27582
28117 32292 33041
28073 32292 55082
29312 32292 28492
28294 32292 26595
31557 30504 26586
31707 26703 28874
14327 30913 23186
13277 29250 24187
22728 32292 7231
26319 32292 10073
37185 32292 3988
11176 32292 10391
16909 32292 13830
18180 32292 11976
30241 32292 3996
18596 32292 9413
17280 32292 9035
19842 32292 4001
18696 32292 7237
24366 32292 4450
32158 32292 1753
8257 32292 3690
29256 32292 2545
18597 32292 16142
39000 32292 1886
18297 32292 7628
35183 32292 4319
32864 32292 5536
38594 32292 3796
26502 32292 6466
30527 32292 106
29812 32292 8071
15627 32292 12046
42497 32292 1463
10027 32292 8313
33082 32292 6354
21235 32292 8982
22789 32292 9560
17013 32292 9699
18604 32292 2481
18126 32292 14075
12573 32292 11504
1946 32292 1932
7306 32292 6764
18471 32292 12804
23203 32292 8801
16077 32292 13576
28961 32292 8473
34850 32292 6145
30764 32292 5719
32033 32292 2485
19638 32292 4836
17313 32292 2386
25357 32292 7607
14754 32292 136
16226 19062 29808
20205 17444 29808
27719 17513 29808
28210 19912 34032
15367 11079 52212
13362 18418 52212
14807 15032 52212
11886 32292 20513
8898 32292 14559
11694 32292 15353
8391 32292 10916
10902 32292 11734
11118 32292 18355
6060 32292 6624
4248 32292 6008
14630 32292 15013
9970 32292 10330
30839 32292 19870
34695 32292 18767
38380 32292 12675
37696 32292 8233
29548 32292 17918
38870 32292 7587
36507 32292 15428
32443 32292 15370
34335 32292 15432
25963 17388 49526
27210 17388 50828
20883 17388 49532
32312 21367 53088
29928 23960 54649
30106 28164 57180
12420 28476 27756
12420 25354 29015
12420 21537 31924
25742 19168 34775
31220 3147 52212
31454 3998 52212
30933 7231 52212
14563 25541 52446
13168 20190 49225
13879 21331 49912
30271 25864 26225
30151 30676 23328
31142 29168 24236
14889 32292 58376
