ply
format ascii 1.0
element vertex 2548
property float x
property float y
property float z
end_header
37898 65878 36570
37792 65814 15310
18541 62980 27134
19071 62935 46543
19166 62927 20385
18884 62951 40892
18269 63003 50050
17304 63085 44418
41975 67124 29195
1295 56806 8222
20445 37198 57430
31988 18112 57430
20066 38755 57430
34235 14217 57430
2230 66463 14783
39848 67637 47430
37876 65790 29233
10666 16089 0
21274 62800 19494
20082 62833 19219
20922 62810 15602
21636 62790 44809
21447 62795 10606
35044 66106 7333
31387 63814 29720
31624 63862 33191
30324 63601 7874
31971 63931 21204
31808 63898 11113
31855 63908 9304
31675 18281 42346
7076 9424 1245
7442 13143 57185
36763 8934 56739
1222 49635 45694
32650 64520 52233
31763 64835 52233
18383 64678 52331
18188 62947 36588
17472 63007 48203
18831 62892 51008
16856 63060 28121
16832 63062 35410
18162 62949 39522
3797 66865 35063
16104 43975 57415
2233 67159 49540
28718 18047 4501
14157 17797 4501
18653 17152 4501
39968 67778 21393
43306 56667 12216
7958 10761 496
31604 17596 1461
41765 67300 25895
40464 67895 49076
9253 64553 49014
9300 64541 26580
10086 64337 30812
9776 64417 45867
11157 64059 51962
10040 64349 51226
39158 66212 5650
41423 67517 22800
41695 67357 30465
0 58183 24930
882 56424 50371
40702 67924 31158
3604 66740 16355
2959 66340 33307
5811 65757 15899
5890 65789 15290
38816 65374 56136
41955 62526 37382
41955 60284 46910
41955 59394 51480
41955 61883 32563
41955 59076 30867
41955 59788 48921
41955 60168 30481
41955 60162 23434
41955 59138 48839
41955 59493 13008
41955 63633 39872
41955 61273 43103
41955 60967 46429
41955 60620 28699
41955 64744 51370
41955 59468 47374
41955 59020 41558
35266 59873 58312
14692 47832 57430
28352 24517 57430
13851 48844 57430
25807 28791 57430
9016 64621 16080
9056 64608 39626
8921 64651 15240
7684 65049 16036
8353 64833 12741
7062 65248 10283
8256 59751 2505
10320 56682 1687
39261 66885 40360
13287 22677 1456
39759 67512 16121
1372 51899 29127
41955 49529 36307
41955 48980 30742
41955 55866 47224
41955 55881 45836
41955 49679 35486
21780 65520 52233
28134 64511 52233
34065 14192 2576
22051 63322 52331
24381 41816 517
5450 10279 547
1125 53002 19350
41391 66459 20897
1677 49806 24282
600 53783 14692
40009 67829 25585
1618 51437 39881
1618 52581 39849
1618 49668 38775
1618 56519 48909
20742 65827 7333
27257 65136 7333
11260 18514 54438
42565 55018 50690
22076 62855 12484
23456 62894 17688
22372 62863 9625
23787 62903 9253
22050 62854 40228
21846 62849 22342
16080 17036 54719
16376 16174 54719
25584 15184 54719
19156 16530 54719
5228 66131 48648
39831 67720 27760
1087 53501 28586
6285 65595 9064
1618 62351 47928
1618 62318 48774
1618 60525 27176
1618 62370 44774
1618 59070 35749
1618 64209 39433
1618 59172 41497
1618 64419 41233
1618 65182 52114
1618 61928 43207
1618 60818 38828
1618 66212 52164
1618 59470 17188
1618 62110 28521
1618 60692 51444
1618 59840 34688
1618 61825 30565
3593 67910 20078
2656 67623 20520
2876 67759 14405
15067 65924 7333
25471 18494 54719
17238 17888 54719
25088 17508 54719
22861 17990 54719
1673 66991 51382
41628 67396 24209
41540 67448 9455
41505 67469 14472
26832 63526 52233
3646 67794 25083
32619 64096 51492
32457 64054 25739
32374 64032 42278
32956 64183 33661
32376 64033 49375
32452 64053 37174
39707 67335 14798
25929 27622 2568
38261 66028 34043
41021 67590 26984
40736 67767 11671
40580 67957 36601
2872 2977 1460
41534 66697 13518
309 55735 25888
14341 24840 58462
22000 35667 57137
26945 43896 57137
30510 49177 57137
9733 14753 57137
3944 67157 41433
1618 55672 45376
1618 52704 40828
1618 50242 37370
39729 67386 49841
31595 63920 31173
31530 63907 24844
30697 63741 39562
30990 63799 31165
31666 63935 27465
37240 59544 601
20520 31689 781
41197 66136 7350
39879 67777 49129
3575 7156 57965
11100 19691 57853
31436 65995 52233
42482 52738 50168
40828 66242 29717
42328 54622 8413
21891 37545 237
24988 62971 11626
25465 63012 8595
24726 62949 29728
25481 63013 20178
25930 63051 11061
1645 66871 30082
1217 50315 24102
1204 52326 19755
6591 65404 28501
4922 65674 4685
35475 67163 7431
20305 67518 7333
42014 59085 30291
42014 62400 47163
42014 63276 42909
42014 60393 25140
42014 59368 44760
42014 62720 49558
42014 62917 46113
42014 61914 31168
42014 59760 43068
42014 59311 23448
42014 64565 47577
42014 63214 46897
42014 62272 34784
42014 59007 15845
24533 16398 54719
28130 16724 54719
30897 17689 54719
31584 17083 54719
12308 51740 56024
9108 56436 56024
24286 30621 56024
25477 28737 56024
41789 67275 18537
2476 66225 12160
37805 65821 8759
3655 7218 1179
20084 15632 54161
22027 16687 54161
18974 15891 54161
31990 16903 1560
22244 67380 52233
1108 51302 11641
712 53950 42703
42307 48968 25284
2865 67897 18479
3367 66593 17246
2904 66306 12515
1463 56449 37781
39202 66149 52880
7733 57298 56474
43636 57936 45765
20403 31658 200
26365 67498 52233
17405 44705 56199
18928 62884 44038
18487 62921 23037
18651 62907 19369
19139 62866 17311
19192 62861 48256
18105 62954 12757
4203 67081 11264
12432 63777 7661
12674 63728 15593
12623 63739 14260
12093 63845 9888
12113 63841 11812
13225 63618 9131
12424 63778 13282
42565 54063 9560
11320 64016 46239
11351 64008 23149
10840 64141 12039
10380 64261 19435
11207 64046 43564
40657 2862 1235
19851 67288 52331
37779 65736 38840
1591 66925 41613
1196 50293 11945
41473 66596 10085
1385 48984 11078
10306 17693 1459
42852 57080 9673
36916 67171 7333
41955 66112 20990
41955 66180 27744
41955 62324 7354
41955 60860 16085
41955 62483 8878
41955 65646 44960
41955 59994 8121
41955 66173 15428
41955 66357 24697
41955 62067 24297
41955 61113 17866
41955 63524 25318
41955 65921 36025
41955 64241 7575
41955 64533 10548
41955 63267 30786
33841 67674 7411
32102 18782 21617
28434 46138 58602
19624 31733 58602
11692 17807 58602
14729 25695 1135
1677 53491 26936
1677 51229 10324
1677 50622 11930
1677 55492 32497
1677 55713 29398
1677 54074 12776
1677 55688 22387
1677 56495 16667
1677 56358 40868
1677 58250 18312
1677 50539 13816
1677 54876 13012
1677 54331 13583
1677 56685 26808
1677 56031 12676
1677 53338 17024
1677 57651 31228
1677 58565 35019
1677 50083 8586
1677 56005 36007
1677 55411 27091
1677 53674 7688
41955 51744 24979
41955 49460 21280
41955 50440 17184
41955 50389 22567
41955 49026 14842
41955 50080 21452
1618 58087 32912
1618 55334 23232
1618 54978 26748
1618 50686 15708
1618 55850 18390
1618 56344 8909
1618 57707 44381
1618 53213 8001
1618 57693 34318
1618 54533 16421
1618 53509 12745
1618 52797 18750
1618 56911 10171
1618 56952 15377
1618 53851 22199
1618 55130 31404
1618 57925 9197
1618 58494 22111
1618 58557 23316
1618 58048 42967
1618 57264 23132
1618 51760 7886
1618 57319 10941
43305 56208 33025
36871 65344 38645
35196 64807 15006
36323 65168 38003
36356 65179 22053
35525 64912 8469
35838 65013 25534
36301 65161 27082
960 51475 13660
37044 9074 2565
39731 4720 57427
40318 66555 16255
40441 66478 18229
12955 66334 52331
19521 65532 52331
10263 56357 1234
39155 66867 43654
23516 40375 57614
597 54019 43981
36224 61453 58266
5010 66292 32508
11547 18653 21752
42014 48938 42933
42014 51818 43154
42014 53993 50997
42014 49540 44699
42014 52244 48768
42014 57802 51142
42014 52442 47272
34671 64705 23244
35894 65097 22385
35291 64904 16932
35752 65052 18374
34832 64756 13398
34565 64671 48552
39491 67252 12089
39498 67261 36929
5486 65954 10235
10924 18535 52453
1631 67064 14553
14193 22788 1465
26830 45085 1465
30250 50470 1465
40453 67246 52167
42834 52608 13301
4068 67242 37750
4065 67246 22571
29372 48392 58602
33368 55476 58602
27754 44763 58602
25122 41232 58602
35495 14411 1266
38117 66010 50954
28641 25328 56024
39330 6424 56024
41180 3570 56024
30199 22609 56024
8423 64877 8534
7765 65089 9000
8115 64977 18028
7610 65139 14711
7365 65217 10859
8933 64714 8950
40169 67975 28814
2965 65638 4969
19377 38457 56045
42626 51186 34704
12353 49604 56986
15406 63319 11019
15833 63259 15256
14749 63413 13493
14717 63417 37987
14874 63395 30314
15124 63360 28673
12983 52052 57259
38996 64961 2145
32210 18381 3554
38830 65884 55080
19540 62994 52331
35842 65014 16894
35874 65024 11577
36770 65312 18590
36676 65282 23651
35977 65057 9420
2229 67136 8980
18785 32127 57214
6058 7619 1091
39391 67036 34245
18461 62924 12240
18056 62958 16439
18601 62912 15594
2113 66660 43897
39410 67156 15427
5550 65915 44083
15224 18514 4829
71 57583 44204
1677 56211 52322
1677 50443 45661
1677 53162 51763
1677 49077 47716
1677 51075 41654
1677 51552 48223
1677 53410 46620
42465 50057 33460
2513 4070 0
662 1232 0
7958 13603 0
22430 37033 0
42540 51519 42159
30793 18514 4756
24885 42519 1252
28974 63362 39213
27897 63209 17540
29245 63400 30101
29181 63391 43418
39919 67819 33136
43482 57168 43895
41954 66451 33459
27058 63263 7431
39711 67554 34468
30005 20209 56397
907 53515 49315
45 57512 33910
3717 67815 37230
42014 51505 35719
42014 51096 31743
42014 50166 30888
42014 51273 32383
4856 66424 23353
18779 15149 54719
12781 15434 54719
12614 17571 54719
21453 15318 54719
41988 66684 33997
41321 66350 45480
11767 18196 12731
11767 18440 35989
11767 17909 53967
11767 15758 49691
11767 18122 44972
11767 18493 48771
11767 18377 10542
11767 15682 51865
11767 17406 44152
31696 18764 29901
2820 67654 48778
25772 40460 390
17001 65446 7333
34544 55105 325
42014 56294 48523
42014 52374 41234
42014 53052 42110
27865 15840 5059
21923 18406 5059
25918 18172 5059
13730 65480 7431
39861 66840 42464
9349 64594 38044
10260 64357 25884
9302 64606 44254
10287 64350 13623
10561 64279 23324
692 53295 13938
42674 57780 30824
19832 64861 7333
1249 51373 40536
27113 63161 24278
27207 63175 31461
29080 63441 12949
27710 63246 28890
27972 63283 22317
7391 9822 57570
38147 65954 11971
37837 65767 7461
24153 62850 25650
24195 62852 27289
24003 62846 24101
24269 62854 49885
23627 62836 11789
23190 62823 20633
4910 66377 45948
37496 7713 56476
7068 59519 2577
12385 52079 2577
10444 54315 2577
9865 54864 2577
29709 63478 45851
30295 63595 39142
30579 63652 43278
30902 63717 33692
31127 63762 48013
30087 63554 31862
4526 66334 6037
3808 67605 38177
42269 49029 24062
20348 36297 1561
38617 66371 32705
42122 48979 8779
2198 67338 29839
21302 62862 16742
20338 62890 50976
21131 62867 46797
21014 62870 43157
20994 62871 51940
20503 62885 48143
43272 55618 44106
40343 67956 29512
28631 45763 1443
11605 20189 1377
31394 16061 44406
31394 17091 49670
31394 15401 46581
31394 16307 33068
31394 16606 40052
31394 16341 36433
31394 15828 34038
41955 56535 8626
41955 58828 22405
41955 57690 46220
41955 57694 24858
41955 56960 32874
41955 58292 21485
41955 53432 21118
41955 57682 22935
41955 55340 32359
41955 55546 14815
41955 58353 38341
41955 58538 39725
41955 57998 7802
41955 58396 41659
41955 53459 8848
41955 58674 10608
41955 57971 22103
41955 56179 19510
41955 51074 10488
41955 56482 35868
41955 55412 36704
41955 57127 15558
41955 51954 15203
41955 58365 34433
41840 67217 34610
31759 18514 5282
32354 16279 56963
42865 54630 10819
31501 67081 52233
34512 64588 44492
33572 64343 19960
33856 64417 8757
34029 64462 23011
33481 64320 23577
33577 64345 14200
2711 67886 19656
2636 67841 45073
29240 15165 40071
22758 15165 43618
24144 15165 36412
22812 15165 30306
18483 15165 43308
21076 15165 31989
28076 15165 34190
29577 15165 28666
30717 15165 13507
28825 15165 46893
30333 15165 39884
27701 15165 20161
21026 15165 37199
30446 15165 42522
24433 15165 46157
27792 15165 22330
30053 15165 22751
22734 15165 39085
21977 15165 49556
24933 15165 44784
23228 15165 47673
24981 15165 27029
26255 15165 49302
18175 15165 41805
22316 15165 49071
20953 15165 48033
28159 15165 51067
26486 15165 26502
17814 15165 40415
25359 15165 47158
26387 15165 19763
19814 15165 38537
25088 15165 31880
23091 15165 52742
21445 15165 33843
30741 15165 53994
16152 15165 47926
12243 15165 53642
20811 15165 51603
19964 15165 43236
25153 15165 27786
22650 15165 27537
26522 15165 39418
26846 15165 48266
28363 15165 45790
23964 15165 30091
40978 67853 33799
40960 67863 26487
36270 65152 51630
34547 64598 14776
35391 64870 39674
35188 64804 44391
34710 64651 15402
3496 67961 41373
41034 65881 51766
33369 56256 1437
3353 67956 15878
30351 48474 57199
21150 32793 57448
3166 67930 32022
974 51559 16575
1647 66450 34651
39812 67078 53247
37006 65390 44016
11767 16500 32060
11767 15264 40459
11767 16834 25416
11767 15688 17095
11767 16911 20040
11767 17303 9896
11767 16164 13507
11767 16900 8372
31050 63811 13410
31223 63846 8554
29786 63558 22059
29778 63557 30797
29669 63535 14968
30752 63751 29172
9197 64568 51675
10345 64270 34518
9498 64490 41806
9340 64531 32748
10250 64294 45572
9543 64478 39863
37075 60041 10
1618 49872 50984
1618 56235 51233
1618 50322 47288
1618 49974 50339
4690 66654 29212
2737 66039 9069
37168 65523 30858
23247 37011 57138
31911 17421 9777
31911 15063 36767
31911 17066 18113
31911 16243 8245
31911 16640 29530
31911 15771 26710
31911 15806 11998
31911 17367 15503
31911 17454 14868
31911 16978 25141
39525 67195 48693
1373 52198 8610
1416 49519 36843
42014 53385 32290
42014 50764 24775
42014 50546 23926
42014 49182 11855
42014 54088 32800
42014 51912 22655
20572 16233 4501
23584 16368 4501
27916 16766 4501
21472 15193 4501
32027 18204 23147
3521 67879 34950
246 56259 26093
1677 51030 32186
1677 52346 35994
1677 52837 34505
40963 67625 15168
40621 67838 43147
3810 67526 39668
19878 62903 15411
20929 62873 12570
20281 62891 33606
19828 62904 18381
19298 62919 45960
38679 64400 1626
20227 33771 58602
18134 30555 58602
10248 16481 58602
4380 7353 58602
32034 18821 6154
15236 22892 1024
11089 18805 31691
16241 66729 7333
5236 67543 7333
40401 67964 15240
11681 18514 28281
11391 18514 16778
16047 63164 19083
16066 63162 17698
16596 63086 48743
16306 63128 35712
16278 63132 42667
16668 63076 38024
1478 57657 21139
930 53314 28085
16906 16620 4501
12682 16744 4501
15102 17139 4501
22164 17759 4501
29084 18514 54643
3029 65786 50764
6211 65629 40867
30418 66472 52233
2259 67376 24270
2840 67737 44166
25546 65577 52331
1677 54239 17915
1677 58332 23961
1677 51008 12936
1677 55521 14701
1677 57212 13351
1677 54545 23612
1677 52691 17579
1677 58789 44344
1677 51146 10981
1677 57208 8113
1677 55166 13775
1677 58050 29627
1677 57398 45502
1677 49272 9553
1677 58237 46289
1677 56255 32119
1677 58827 29369
1677 58032 28501
1677 53950 14100
1677 52565 20463
42966 53786 12927
36030 57769 57274
1019 52560 36429
41955 50209 30114
41955 51937 33368
41955 52599 34296
41955 57819 49223
41955 53690 37963
42753 52443 16755
12493 14998 33878
15022 14998 34124
16175 14998 38602
28231 14998 53724
16304 14998 24774
17975 14998 32717
21384 14998 43487
19563 14998 30209
15483 14998 21346
23226 14998 49731
29840 14998 52838
27238 14998 47760
22406 14998 38265
17795 14998 28606
15259 14998 30180
14304 14998 45975
13914 14998 54215
17349 14998 52550
13333 14998 50557
16605 14998 38247
11627 14998 35338
17572 14998 30570
24473 14998 54312
13227 14998 35356
26082 14998 43544
12358 14998 45835
24338 14998 44858
18879 14998 25700
17554 14998 31927
27424 14998 49141
13039 14998 38085
29183 14998 52914
11884 14998 33463
11287 14998 40955
12116 14998 38462
27855 14998 52444
16372 14998 21397
23042 14998 34798
18433 14998 34802
29811 14998 53973
12986 14998 46707
16161 14998 19307
26587 14998 45051
19950 14998 28155
16572 14998 43687
17555 14998 27407
13858 14998 17255
11305 14998 11444
12584 14998 49982
19211 14998 45765
14170 14998 53102
11355 14998 21928
14245 14998 51929
7163 58243 56888
8261 56416 56613
11326 18838 13688
912 51914 26813
31662 18729 38436
27059 15165 27580
22963 15165 48733
30760 15165 33000
21896 15165 37536
22309 15165 51781
22878 15165 35819
16581 15165 54083
19567 15165 39586
25426 15165 35192
23735 15165 53096
31289 15165 53894
17275 15165 42076
27820 15165 18732
30571 15165 7380
18094 15165 45742
28715 15165 38038
31339 15165 14186
24754 15165 39616
19396 15165 50249
16670 15165 50719
18784 15165 53273
29150 15165 44905
27264 15165 29260
27074 15165 37580
28189 15165 24366
26844 15165 46744
25715 15165 20380
25797 15165 19142
19336 15165 51108
28132 15165 25315
26506 15165 28022
16920 15165 48694
23291 15165 45378
18218 15165 41052
20510 15165 35453
20169 15165 42011
14672 15165 51479
27605 15165 26146
23845 15165 41924
29025 15165 52106
21526 15165 38164
40381 67963 43658
1322 50589 40424
26145 41060 57889
2311 66341 23652
1618 49468 29101
1618 49087 24242
1618 54816 42092
1618 49824 25289
14344 49834 1381
12300 21685 449
39152 62806 2239
6494 65512 29038
26156 29996 1280
3215 2972 246
1303 49102 44859
19227 33202 1110
8526 66421 52233
42447 50063 35195
42909 57001 19011
19300 66055 7431
19844 40739 1450
1588 66912 46984
42130 50056 8434
22936 35665 56487
1669 66976 15345
8463 59470 56122
42966 53336 34007
41991 66703 49101
11250 17234 43596
11250 17336 52998
11250 16197 22718
11250 15323 30553
11250 15989 25728
11250 16521 46160
11250 16527 40940
11250 16438 51465
11250 17397 54221
11250 17352 38696
2743 67676 11124
2861 67750 36331
43220 56634 48227
43252 55703 24843
6068 67010 52331
18616 31978 150
39402 67148 49352
38266 61981 407
42943 55902 31732
42938 58845 36848
41955 53642 45369
41955 56792 50859
41955 53906 49315
41955 48833 47066
41955 49665 50357
41955 52907 45335
41955 54162 46641
20425 36691 56049
42014 64907 30600
42014 61714 11096
42014 63269 24084
42014 65064 43001
42014 60712 15131
42014 65155 36487
42014 65886 32807
42014 64190 15266
42014 64128 22739
42014 63009 30147
42014 64583 40517
42014 65549 40729
42014 64967 35645
42014 66072 44229
42014 63889 28043
42014 63912 36222
42014 63948 14354
11541 18667 30238
24932 66835 52233
1295 53452 30799
18908 18419 54161
11771 15576 54161
13543 17074 54161
31394 15470 51913
31394 17414 47353
31394 16899 50317
31394 18026 50040
31394 16728 33830
31394 16110 21390
42289 58717 29482
42014 51216 48502
42014 49727 49529
42014 50409 42053
42014 48988 43681
3152 66460 43527
1669 66978 28004
34327 54726 58244
31529 18514 20604
27829 63263 11402
28738 63392 17368
27334 63193 43740
23499 34307 56080
15063 63304 15611
15443 63250 10449
14398 63399 7533
16492 63101 32168
14819 63339 17366
16606 63085 19660
14053 63517 46289
13709 63586 21095
13226 63682 39374
13210 63686 24464
13679 63592 37431
13435 63640 20611
36217 66150 52331
37464 65650 39467
32094 18238 28846
39780 67471 19690
41970 48754 39802
25479 15165 12732
23767 15165 7617
22626 15165 10839
15577 15165 36419
16174 15165 39419
13902 15165 48267
24849 15165 18891
22196 15165 12407
16530 15165 26399
30426 15165 6661
16019 15165 11448
17731 15165 25356
20510 15165 12852
11828 15165 22949
16999 15165 9706
12815 15165 45367
13794 15165 35454
19662 15165 29627
15584 15165 44335
21667 15165 15300
20028 15165 28693
20694 15165 14720
21340 15165 10789
13441 15165 18795
18542 15165 28495
14900 15165 27019
25194 15165 17744
18673 15165 18328
13856 15165 32208
18499 15165 15796
20384 15165 15241
24887 15165 14523
15772 15165 6305
13726 15165 20404
13419 15165 33198
12117 15165 19376
14269 15165 26855
22604 15165 14658
14512 15165 41540
12047 15165 50972
14355 15165 7505
14088 15165 43960
15561 15165 38098
13668 15165 33916
15261 15165 26386
23128 15165 5426
18246 15165 34228
17849 15165 14684
26163 15165 7603
14989 15165 24204
39556 67336 13831
1677 54358 51178
1677 53933 50169
1677 55219 51018
1677 48972 42721
1677 55687 47886
1677 49171 39169
10951 18648 50241
31092 18453 2307
5618 65948 18055
38024 65880 46662
11329 66608 7431
42976 56272 41346
34416 64628 19841
34019 64525 32857
34405 64625 43116
32869 64227 39180
40753 65803 54330
18032 63024 20597
17319 63084 14353
18004 63026 23981
17708 63051 18131
17117 63101 8022
4821 66537 20808
42834 52548 44879
4406 66939 24324
35038 64756 35390
35250 64824 23553
34818 64685 36636
34810 64683 39312
41573 66765 46530
42014 66477 47112
18680 28754 232
3786 67568 10532
3625 67810 46222
19131 62930 14218
18541 62980 30403
18066 63021 42640
19156 62928 40042
18486 62985 48389
42915 53018 14990
4360 66896 12673
13203 19526 1106
22592 62870 24200
22356 62863 11196
22257 62860 18914
21875 62850 47258
24017 62910 7764
22785 62875 34643
21090 67172 7333
10749 53290 56024
30988 19739 56024
23173 33049 56024
18367 41483 56024
18081 30797 1435
39708 67031 20556
475 56160 35748
31911 18390 11300
31911 16035 53331
31911 17135 32097
31911 18094 24709
31911 17544 49729
31911 16870 49694
31911 17077 39450
31911 17329 48432
31911 18149 53914
31911 16295 43053
11250 16888 42219
11250 16181 28888
11250 15441 35129
11250 16712 33509
11250 15841 37157
11250 15747 17631
35191 57166 57137
26474 43545 57137
21484 34817 57137
23593 38779 57137
13848 15165 15545
20334 15165 6978
17815 15165 11196
24654 15165 11048
17664 15165 25991
25580 15165 5457
19581 15165 17772
28888 15165 9662
16317 15165 8101
18120 15165 5757
18355 15165 23576
15104 15165 24751
27932 15165 7355
24251 15165 9166
14379 15165 30166
14572 15165 46664
24200 15165 17562
18686 15165 14383
21551 15165 17940
27067 15165 10035
15506 15165 15472
17790 15165 6482
16879 15165 28586
20155 15165 8039
12092 15165 21146
26308 15165 10274
22286 15165 23987
13559 15165 28805
26586 15165 9253
13729 15165 5691
19093 15165 7341
17588 15165 20483
28405 15165 12282
20490 15165 16069
14310 15165 19494
29051 15165 7929
13576 15165 24727
25488 15165 8090
16979 15165 36892
17466 15165 38523
36342 65246 52233
12545 64966 7431
16845 64838 52331
38057 7246 1220
28478 63355 42061
29146 63450 42379
29326 63476 35227
28029 63291 43494
28185 63314 39054
38958 66579 11840
39235 66859 9153
16444 46479 56747
22119 37025 56720
40666 68003 47339
32233 18457 2259
3908 67013 43908
1260 49584 16763
31706 63878 39401
30174 63571 11041
30748 63686 22623
31043 63745 26619
31731 63883 36337
25925 62987 28563
26183 63009 24118
26096 63002 9138
25115 62919 18378
26435 63031 32753
26890 63069 35215
1812 67242 18926
18652 16991 54161
23551 17935 54161
22794 35898 56973
999 51316 26781
42015 67028 35365
38808 66451 16485
37450 65643 15890
20885 62811 9336
19801 62841 9528
20909 62810 35110
20452 62823 23570
20992 62808 17865
24165 41457 974
17048 29601 851
22667 14998 31083
28563 14998 16136
23557 14998 20896
26176 14998 37844
16391 14998 14628
25800 14998 6680
20438 14998 23300
17820 14998 4947
27066 14998 4831
23299 14998 14238
29883 14998 44158
27362 14998 5405
21924 14998 27497
31390 14998 50937
22192 14998 14015
31138 14998 45237
31743 14998 27654
21299 14998 9109
25210 14998 11085
29884 14998 26286
26190 14998 13785
27461 14998 25104
18061 14998 16329
24048 14998 35180
30610 14998 15406
21123 14998 25620
26542 14998 13015
29830 14998 10621
29166 14998 13121
31318 14998 43740
30543 14998 23855
31875 14998 18599
30526 14998 11469
19437 14998 5616
28352 14998 6134
22471 14998 13291
14883 14998 8214
23780 14998 19295
27119 14998 30011
26930 14998 33334
26999 14998 11318
28417 14998 22256
28144 14998 32877
19051 14998 4787
26411 14998 22709
28022 14998 38644
42492 51307 48999
1677 50277 33391
1677 53764 43166
1677 53071 43257
1677 49297 33848
42888 55740 10472
12047 63854 44822
12031 63857 46458
12817 63700 40781
12212 63821 23127
11824 63899 49986
11953 63873 24025
12445 63774 37935
41955 57313 49889
41955 50797 39038
41955 50872 34572
41955 49892 33200
41955 51836 40184
10674 67192 52233
15839 67438 52331
41955 50230 51221
41955 52982 51407
41955 53122 50657
41955 50944 42298
41955 50911 41477
41955 49346 49017
41955 48830 44457
42339 53966 30578
19151 32380 1461
42014 60757 43559
42014 61058 39914
42014 61431 47830
42014 64233 45208
42014 65246 52042
42014 66102 51132
42014 59212 14148
42014 61959 43915
42014 59615 29341
42014 59270 25866
42014 61390 50590
42014 65367 47238
42014 62808 50831
22065 66143 7333
25537 66114 7333
5350 64780 55570
3253 67953 15315
42433 52428 37092
31394 18156 25857
31394 17530 7642
31394 18425 21332
31394 17596 12727
31394 16895 14578
31394 18095 30544
31394 18264 47155
14021 66587 52331
15645 63867 52331
5342 66049 21599
909 52152 33062
39655 7165 56033
38831 66553 20665
10518 15026 58009
12655 18586 57971
37903 9033 1172
37579 9852 1172
30992 20977 1172
37752 9547 2577
40992 4033 2577
31523 19348 2577
32675 17138 2577
41105 67469 49560
16780 63066 25786
16722 63071 11198
17082 63040 33013
17628 62994 33813
17569 62999 25480
17099 63039 42231
33550 14324 1511
31591 18589 40486
43472 57765 12340
32976 64189 49613
34421 64564 51325
32038 63945 21850
32600 64091 48456
33901 64429 49927
32155 18735 55368
30512 23043 1944
28512 26375 2103
35480 60307 980
2900 67980 10047
6232 8239 58512
15900 65649 52331
40572 68022 20550
4025 67299 36041
1083 58356 30558
5367 66109 19729
37468 65582 16578
4429 66827 15486
20877 35930 333
11767 16365 42571
11767 18042 46704
11767 18214 22469
11767 17173 47862
11767 18281 34026
11767 16334 37181
11767 17676 23810
42014 57550 36561
42014 57449 32039
42014 56909 41324
42014 53623 28481
42014 56657 36926
42014 58527 26987
42014 58846 32827
42014 58032 12630
42014 56592 29993
42014 57537 8891
42014 52921 14655
42014 51509 14093
42014 56180 7964
42014 58600 47756
42014 55885 29539
42014 54147 9053
42014 52643 18655
42014 58064 26006
42014 54210 25923
42014 51083 15865
40846 65551 53561
4318 66946 20669
39563 63418 2557
24762 62889 38992
24791 62891 23903
25651 62964 43043
25078 62915 36204
24636 62878 48824
24724 62885 14644
26497 63100 51494
26022 63059 38594
25610 63024 34971
26625 63110 22184
25501 63015 38377
32297 67674 52250
42909 55802 18674
2798 66243 38083
41458 67570 48833
41549 67517 32220
21235 32880 637
10268 14611 546
144 58426 11803
20171 62831 46129
20048 62834 50256
20038 62835 43221
19619 62846 34169
20851 62812 48986
19657 62845 24775
11767 16082 27455
11767 15528 21704
11767 15539 7204
11767 15203 12844
11767 16294 29171
11767 15942 9468
11767 15403 42985
11767 16863 10261
29230 49843 57450
27547 63223 52104
27847 63266 45978
28889 63414 18587
42211 56919 51723
821 56284 19143
1021 53330 10447
32221 18408 48654
30461 51813 58373
9632 13559 58171
27592 27881 1529
4365 66891 51558
880 52436 24673
23662 33967 2542
39430 5187 1177
1226 50431 48799
42155 49575 39661
3810 66877 45531
41955 52633 32702
31651 18715 37063
14258 64593 7333
6405 65479 33762
3820 67587 33944
39594 67390 48055
6576 62919 56164
34294 13045 1675
3300 64709 5236
17447 41647 1203
40825 66243 21508
42550 50574 45732
37104 65498 43450
37270 65564 29610
23417 37225 1461
31721 18514 46671
40314 64665 55288
11463 67395 7333
31781 18514 32833
12325 63863 39430
13574 63613 13709
12461 63836 31574
12953 63737 12191
28647 22517 57133
42528 53216 19286
40752 67906 32490
40388 65103 53375
42397 51710 28569
4940 5740 1030
1677 54168 38051
4521 66734 46465
3623 66752 42030
3292 66547 42657
3928 64677 55244
26375 63026 31655
26933 63073 16469
26530 63039 18084
25416 62944 12434
25655 62964 22792
25344 41012 1465
35732 57844 1465
23928 38319 1465
725 53673 32663
18587 40025 1172
13084 63646 27309
12554 63752 10230
13219 63619 34367
13375 63588 28231
39935 67744 35579
18537 42353 57417
30113 63559 18246
31003 63737 40183
29975 63531 41739
29924 63521 33490
42581 51130 43602
43044 54088 26544
1618 51373 48857
1618 51929 49944
1618 49082 52288
1618 50458 43562
1618 53503 48141
1618 50825 48417
507 55405 35549
1139 53209 50660
8441 14439 1465
3407 4933 1465
28330 47216 1465
1500 2116 1465
35893 65097 29421
35137 64854 43071
35487 64967 51300
35982 65126 50072
35786 65062 36532
442 1918 401
3716 67725 12706
1037 51047 35069
40006 66749 41642
3724 67808 8336
11250 18031 25245
11250 16251 10648
11250 17915 44957
11250 18443 13293
11250 18180 29308
11250 17903 39525
11250 16433 21143
11250 18223 10198
11250 18165 36135
27698 66540 7333
23919 14998 10955
30028 14998 13223
28999 14998 33972
31742 14998 52298
27176 14998 28604
27455 14998 13545
31158 14998 21108
26681 14998 25669
15270 14998 13805
28544 14998 14986
31544 14998 19525
16138 14998 7556
27641 14998 31845
28046 14998 20755
19174 14998 19733
17627 14998 18219
26173 14998 12441
16847 14998 13646
25026 14998 30340
19618 14998 10113
24786 14998 6424
18828 14998 22563
28231 14998 15585
30039 14998 9434
23517 14998 12963
30604 14998 44827
30322 14998 26863
29450 14998 34397
13481 14998 9482
27622 14998 42706
30158 14998 7738
15122 14998 6770
27009 14998 6382
29520 14998 24458
29342 14998 47178
22491 14998 28842
29622 14998 20356
21086 14998 8126
30233 14998 10016
17576 14998 15575
29691 14998 12297
31789 14998 49834
29935 14998 5995
26847 14998 12264
24712 14998 19436
17737 40692 2294
12862 48752 1798
8485 56043 1821
17689 27580 57151
37494 59976 57530
37585 9039 57430
40466 5605 57430
39712 6213 57430
38444 8214 57430
25497 31218 57250
4093 66454 5031
27297 63123 32469
28169 63247 37817
27556 63160 38918
27991 63222 44522
28518 63297 35558
157 56905 26180
31664 64756 7333
41955 66445 32612
41955 65011 11284
41955 65832 48275
41955 62727 23071
41955 65161 10708
41955 66186 26586
41955 64815 13451
41955 65734 16511
41955 62012 15045
41955 62796 18355
41955 62188 12758
41955 64630 15706
41955 61875 19860
41955 62903 29561
41955 65435 17160
193 56628 45923
16474 42746 1577
33906 57684 57872
14466 25299 57644
39172 66884 38137
6651 65449 30883
1618 55897 44331
1618 49242 26758
1618 53138 37356
1618 49709 31247
32128 19550 56024
27986 25439 56024
30308 21642 56024
41950 66452 40564
21376 36810 58107
42014 57126 7675
42014 55368 8770
42014 53848 21884
42014 58078 35408
42014 54640 23782
42014 53518 24885
42014 58046 30357
42014 57173 12915
42014 58633 10033
42014 50711 15291
42014 53539 19160
42014 52518 15731
42014 58402 18176
42014 57218 33890
42014 56724 17214
42014 54596 7944
42014 58670 36580
42014 57578 31433
1404 0 58219
41620 67045 40994
1794 67315 43685
15238 17582 5059
12643 15236 5059
20301 16879 5059
15248 15951 5059
42284 49834 23349
42910 53816 48059
1569 50831 51630
1677 60195 45280
1677 60668 50254
1677 61670 32339
1677 61289 44894
1677 61828 45908
1677 62070 36234
1677 61735 43975
1677 65260 49873
1677 60609 44376
1677 58953 50822
1677 60371 47378
1677 62330 37925
1677 64365 50215
1677 61388 30215
1677 60545 45828
1677 59578 46004
1349 51954 40012
909 54164 18844
7911 65042 9817
7533 65163 36114
6763 65410 17232
7393 65208 30929
39548 67084 52302
3696 67717 43366
9233 15386 57137
9673 16448 57137
2577 4230 57137
40123 67913 39075
4521 66825 37496
37884 60616 57723
43450 57386 43383
6295 65523 44475
38400 66206 20881
8989 12590 57374
32150 54708 57451
839 52184 25684
24649 42255 58174
36783 9179 1293
2574 67731 17591
2589 67740 16703
2670 67862 49783
2737 67901 47931
2384 67693 42167
42448 52198 40461
28755 22280 2158
6883 65305 20704
8050 64931 45330
6946 65285 13132
38372 66186 25982
13745 20475 1182
38055 65898 16623
1687 67034 37645
5150 64999 3170
11060 66523 52233
1025 50963 45971
34662 64702 20912
35768 65057 23562
34976 64803 31973
35530 64981 20813
35933 65110 9978
23900 64988 52233
25825 27178 57055
33372 14583 56734
41437 1147 56828
42192 51811 37491
42492 51130 11233
5181 9669 57329
39256 66974 17070
1933 67428 34528
2240 67608 19309
2107 67530 28318
43511 57178 13717
2109 67457 31002
24945 30817 1172
32115 19315 1172
42205 1773 1172
24071 32103 1172
42230 49688 28566
15043 66164 52331
26186 63010 39663
24706 62884 39754
25594 62959 37153
25990 62993 47510
25480 62950 48580
10187 14537 57435
16346 66805 52331
43713 58464 44725
6563 8499 57433
2897 67772 43103
42014 60232 12925
42014 66244 19854
42014 61911 22046
42014 65948 8929
42014 63380 15014
42014 64546 26812
42014 62907 9838
42014 65268 32342
42014 65549 31106
42014 61530 15611
42014 63704 24738
42014 66404 34617
42014 63247 16720
42014 62500 24950
42014 64706 16528
42014 61334 20132
42433 3138 1499
42657 54571 9975
23740 32560 2577
20196 39397 2577
27381 26773 2577
15306 47443 2577
14496 66230 7333
4512 65807 52411
16030 24214 58156
32239 18506 10465
1061 50901 47204
1677 51643 26435
1677 50764 22297
1677 49885 23603
1677 57701 48365
1677 52161 22588
1677 52468 27188
40745 67761 41224
40996 67605 40554
1096 51831 28087
41119 66006 52776
4338 67020 34531
18461 64540 7333
39324 66957 49903
1677 55624 47267
1677 50061 35635
8163 64895 52243
6707 65362 39094
7135 65224 19949
7467 65118 43270
8196 64884 39476
1677 64943 32380
1677 66225 38134
1677 64681 19677
1677 63883 32830
1677 62753 17425
1677 64998 23075
1677 65694 26966
1677 64396 14538
1677 62673 28727
1677 66375 46866
1677 61226 12503
1677 63385 9721
1677 65891 22340
1677 64956 21282
1677 64608 36963
1677 65923 30009
1677 62951 12515
1677 64086 23242
41868 67180 44157
519 54513 33425
40979 5604 56836
38754 9312 56852
15482 47724 57345
23657 67054 52331
7743 57618 2494
1644 66694 36495
6293 65592 9646
22852 35784 1550
24699 32507 56167
40454 68030 8752
24729 38702 57658
19006 29166 57797
11075 18232 46915
29863 50950 842
16189 46765 56226
12933 49228 2563
8526 56313 56109
16274 63196 45640
15364 63325 36056
16239 63201 24877
16472 63168 26688
15301 63335 35148
15370 63325 30670
40797 67954 48428
40514 67903 37831
31394 16822 25831
31394 16905 29080
31394 16212 11083
31394 17974 35671
31394 16725 5621
31394 18303 7447
39998 66754 17373
40249 66598 28522
43025 54572 12096
7847 60486 2484
43410 56309 45465
1578 55680 51938
31680 18276 52983
4862 65387 53263
17108 63102 29363
16725 63134 15905
16984 63112 46551
17052 63107 26350
23431 63623 52233
42751 53784 18626
3287 67957 12095
1618 53482 34351
1618 50049 22693
1618 52106 23385
1618 49771 13091
1618 50738 18362
641 56460 23426
4390 66958 46982
19772 37265 57067
32468 65605 7431
23431 65847 7431
6568 65414 37553
5851 10942 58136
20501 67325 52233
43150 55218 16530
10752 52267 56705
11594 64011 19647
10986 64168 30300
11294 64089 17275
11063 64149 42361
9837 64467 48470
11436 64052 11658
11905 20668 1387
1262 50342 36344
5459 66044 11826
5656 65925 20446
16249 63200 41409
15971 63239 34243
14363 63468 50336
15636 63287 50499
41955 63270 47545
41955 59725 16991
41955 60424 31011
41955 60503 38858
41955 63894 41263
41955 59103 9237
41955 60565 48744
41955 64328 50877
41955 59557 28228
41955 59265 11898
41955 65460 50419
41955 61918 27518
34408 54826 849
42985 475 56494
4518 66827 14706
20618 39526 56950
20321 40020 1681
29311 25043 1677
42014 52104 35905
42014 51709 34326
42014 56476 46287
42014 53014 35069
7761 66008 52331
12405 63847 33594
12291 63870 35391
13245 63679 19348
12676 63793 29694
12703 63787 26676
571 54189 15786
29409 24281 1190
21922 66919 7333
43239 56609 17346
38461 66172 31302
31933 18845 13029
29382 66696 7431
40213 67947 24433
10276 15605 0
35786 57961 0
33764 55443 0
29258 48618 0
19686 62845 42773
19402 62853 13310
20921 62810 42556
20227 62829 31494
31839 17653 56054
887 53602 18335
941 55378 9605
24970 62970 9705
26844 63129 8272
24441 62925 42980
24815 62957 21479
24631 62941 25992
26456 63096 7462
34868 55877 58479
9086 55041 1706
8820 67370 52331
41625 67008 47741
40175 66578 49467
41954 67009 20009
9132 66306 7431
992 51524 12941
24340 65314 52331
34185 64503 37210
33946 64441 27086
33869 64421 24095
32728 64124 18532
34274 64526 31857
34449 64571 38461
24884 38964 456
12391 63785 24931
12106 63842 21529
12073 63849 20444
11433 51175 1502
43154 56465 11450
13264 63675 42801
13730 63581 18997
13855 63556 16163
13763 63575 41225
11871 63954 51729
43503 58142 32631
20598 62882 44489
21649 62852 35363
21515 62856 41157
21093 62868 45378
1195 50076 43372
10945 54521 1172
11901 51840 1172
22163 34556 1172
30174 21371 1172
1641 66738 11668
3996 67450 44246
1618 66486 40145
23219 16290 5059
21206 15373 5059
22378 16577 5059
20579 16396 5059
41358 67555 47225
21322 63759 7431
5935 65695 16743
42407 52271 28928
43608 58158 26590
38639 66305 23823
11011 18743 26181
5795 65841 35232
5756 66174 52233
2067 67209 41655
41709 740 2266
1677 60506 31613
1677 60677 46513
1677 65133 49265
1677 61471 25344
1677 60002 27416
1677 59712 48706
1677 65280 47166
1677 63093 37067
1677 59658 28385
1677 60280 33566
1677 63152 46808
40471 67925 45175
43030 54822 42681
36380 66286 7431
10932 18594 4774
15188 23154 92
42014 51597 21236
42014 56109 40861
42014 52218 29786
11464 63979 36151
10653 64190 21635
10396 64256 24569
10846 64140 14126
10689 64180 16404
37149 65448 13482
26531 25979 1800
2486 67077 8072
39031 66653 36320
10947 18636 53015
30122 67085 7333
2731 67824 34521
2386 67620 14870
42014 50359 34289
42014 49402 38630
22130 36482 56052
5989 65669 29459
5936 65695 44886
41277 5103 2160
9340 64596 21261
9866 64460 23203
14234 63422 49566
15696 63214 38876
14470 63389 36281
15053 63306 26161
14362 63404 35606
14392 63400 33728
39731 66981 12662
42014 66478 44989
5943 61924 1456
33641 64427 32435
33952 64508 42421
33326 64345 34140
32979 64255 43511
34231 64580 16965
31638 18330 6349
1686 66522 49101
36584 65319 49974
36181 65189 43495
35244 64889 47787
36334 65238 47292
22211 34666 58398
16020 27641 1331
11701 18514 43520
11039 65823 7431
18111 67612 7431
43554 57326 25925
1359 2860 58584
1618 60915 36062
1618 63200 50665
1618 64809 44354
1618 63448 40316
1618 59501 32173
1618 61447 39922
1618 59218 13365
1618 59158 43337
1618 62342 36866
1618 62936 44847
1618 62197 50613
1618 59715 14055
1618 61394 42989
1618 61273 48012
41955 49594 25805
41955 55650 43552
41955 52620 35700
37204 59488 57583
42735 52915 17780
11250 17598 5984
11250 18426 38804
11250 15528 6714
11250 17656 8251
11250 17556 9165
11250 15832 13743
11250 17549 16188
32062 18809 33584
31911 18007 52222
31911 16009 49307
31911 18101 27862
31911 16691 41638
31911 16629 44966
31911 17044 34846
31911 17898 27081
31911 18321 34286
16717 66431 7431
1083 53312 9887
4223 67405 7431
15839 47444 56338
1618 54215 31853
1618 53004 30603
1618 52473 24476
874 52326 12955
42248 54833 20665
43057 54041 34468
385 57921 36047
42904 53642 42987
26230 16252 4501
28372 17473 4501
29483 16144 4501
19450 62915 32996
20156 62895 21915
20042 62898 35126
19685 62908 27139
20705 62879 26279
11355 18829 14560
11222 64119 7333
5805 9954 58602
3150 4167 58602
1112 1239 58602
38226 67621 52331
1618 49461 8921
1618 54814 20745
1618 58049 15074
1618 55257 18660
1618 57263 38630
1618 57842 24622
1618 56956 29554
1618 55564 30259
1618 52738 10796
1618 56270 19036
1618 57524 16282
1618 56721 39815
1618 55647 13398
1618 55670 20931
11639 18514 4864
32314 64082 17599
32436 64114 15941
32911 64237 32576
33078 64281 20598
32225 64059 34134
43273 55625 15661
24978 64659 7431
12335 66565 7431
22935 32160 57255
41425 66516 20181
1199 52200 50246
5918 65704 24575
11178 18839 33320
28420 48546 57876
24151 41433 57833
30531 63707 13973
30287 63658 8490
30723 63746 17434
30532 63707 26370
29613 63523 46801
38720 66459 44370
26086 63065 41539
24822 62957 48033
25491 63014 41791
26440 63095 34153
26464 63097 36487
4135 67163 46020
42676 54718 31458
39729 67470 39839
1618 60308 7340
1618 63378 11871
1618 62010 17032
1618 64373 30799
1618 64286 20776
1618 63925 15103
1618 65761 34286
1618 63901 27887
1618 60893 14090
1618 63423 32407
1618 66396 43351
1618 65468 35566
1618 64094 15983
1618 62343 10132
41955 58480 17275
41955 55952 18591
41955 52029 7446
41955 51670 17410
41955 56855 34803
41955 57844 15436
41955 55283 18299
41955 56070 16185
41955 56167 27806
41955 57443 44444
41955 52048 18438
41955 57449 27993
41955 57886 17185
41955 53995 10340
41955 50422 8834
41955 57729 11887
41955 57005 19149
41955 54240 14775
41955 57482 39025
41955 54121 23578
41955 57516 26267
3182 66334 49157
35100 56082 1217
40224 66614 11343
40716 66308 24592
23309 18514 54248
3945 67190 14900
3348 68011 13803
38685 66345 40929
25384 43449 350
23683 37534 24
28637 25557 2565
28776 48338 57137
5719 8595 57137
23822 39636 57137
5445 9215 57137
32237 18495 16286
15474 23375 58330
39107 67147 7431
23888 38115 58602
31325 53373 1062
39682 67232 25383
4149 67244 19955
39163 6525 57430
30331 21896 57430
36077 67381 7333
11985 50221 2181
4126 67270 31146
38535 62391 56450
24383 62920 38386
23847 62905 41462
23149 62885 41626
23228 62888 45888
24096 62912 13299
22793 63270 7333
6145 9431 0
1960 2863 0
11061 18096 0
14161 63496 38427
15278 63338 14911
15559 63298 9636
14489 63450 28964
14259 63483 19141
14542 63442 24083
42746 51881 14860
23747 37081 58194
1577 66812 13621
10136 15315 1465
21564 34791 1465
22058 35636 1465
28817 47670 1465
310 679 58137
43553 57387 15065
1677 52848 29790
1677 50906 25209
1677 50115 16782
1677 53976 32758
1677 51864 27768
23255 64026 7431
9358 16775 1066
4774 65470 54949
649 53681 34898
40229 64758 54050
42030 66979 31307
726 53739 47891
20782 66731 52331
704 53771 12602
29835 18514 4677
3794 66862 13643
5681 65910 51543
1169 50496 27460
6144 65662 35997
39940 67069 5391
37201 65537 22346
9770 17466 58176
37943 10663 1834
43309 1724 1872
38443 66237 24725
41432 67585 29011
41575 67501 39605
4000 67334 28737
3862 67528 49971
3725 3710 638
14967 22439 650
120 57175 46082
27193 43378 1445
22863 67109 52331
1618 62023 21161
1618 60814 14813
1618 63348 16853
1618 60348 12870
1618 62257 11249
1618 64495 27448
1618 65840 48394
1618 63118 19930
1618 66360 41929
1618 64102 13888
1618 66491 14995
1618 64893 17156
1618 66336 35927
1618 64949 19187
9573 57169 1174
3434 67919 25902
1320 51271 20132
10405 64319 50444
9919 64446 39217
10502 64294 28680
11388 64064 47860
23340 62827 34615
23456 62831 43550
22778 62812 38794
22829 62813 35472
32217 18629 46069
41328 67647 8671
41465 67566 13371
11141 18827 5700
33491 64388 17292
32275 64072 8527
32517 64135 13718
32113 64030 26724
32719 64187 36022
32305 64080 43506
32788 64205 24624
8586 64826 41142
8333 64906 38686
42749 52555 27231
1196 55338 39717
42752 53279 42330
11508 52129 2577
27966 25037 2577
8520 57585 2577
18593 40363 2577
23236 39908 57959
26983 63079 25295
28122 63241 29967
28669 63318 43688
27076 63092 44626
27006 63082 33442
27172 63106 13020
3109 67903 37231
23663 62837 26848
23213 62824 15258
24346 62856 50452
23335 62827 10985
24136 62850 39925
24244 62853 17194
12493 64418 52331
32155 18292 51497
412 56022 42963
23530 62896 32702
23756 62903 38876
23768 62903 46624
24289 62918 30895
8326 60003 56833
1677 64584 28796
1677 60026 10001
1677 65277 12365
1677 65863 21117
1677 63329 25840
1677 65688 28359
1677 64930 38552
1677 65860 44448
1677 66211 9014
1677 63363 30799
1677 62077 12559
1677 64200 7545
1677 62020 20077
1677 62176 19111
33047 65764 52233
9095 64662 40804
9091 64663 24251
8820 64750 32425
8881 64730 25861
8891 64727 50813
8766 64768 36989
27815 63197 9152
29467 63432 40050
28218 63254 7981
29158 63388 21768
27541 63158 15928
27893 63208 14816
26153 65380 7431
31324 63866 44142
31201 63841 25749
31862 63974 28889
30731 63747 41587
38519 66214 46214
4742 66604 39002
42495 52870 40413
14371 14998 50038
13148 14998 51450
14532 14998 45362
13613 14998 22519
15917 14998 18326
13516 14998 36819
17839 14998 36349
15847 14998 31594
13938 14998 19059
12233 14998 18058
19360 14998 46479
19030 14998 32274
11315 14998 6461
25717 14998 46244
12873 14998 16375
18837 14998 30706
11415 14998 47923
15078 14998 31815
15591 14998 33219
23536 14998 46211
13268 14998 45903
13994 14998 47040
14456 14998 17067
14714 14998 20823
19446 14998 45062
16572 14998 41676
27850 14998 47867
18373 14998 48814
27449 14998 44338
15048 14998 22248
11393 14998 13858
26497 14998 53372
12973 14998 15035
11893 14998 48758
11405 14998 15791
12193 14998 49509
19443 14998 48338
25658 14998 42661
17178 14998 45777
36377 13173 1424
38798 66525 8998
41180 67491 42382
41380 67367 33396
3845 7098 58564
24812 16538 54161
31055 17876 54161
30009 16699 54161
42778 53812 36090
8101 57814 1172
40088 4226 1172
12358 52158 1172
19487 39554 1172
39024 66736 28249
39152 66865 46845
37713 65774 31190
16518 63995 52233
30884 52617 58241
26339 17377 5059
27074 16081 5059
25323 17158 5059
27998 23543 56434
11675 18514 52282
39755 67429 8961
39025 66737 7830
26178 42184 0
27630 45226 0
17698 28426 0
12783 65863 7333
41333 67570 48096
41187 67656 50458
43168 56343 32314
42786 56967 50340
15204 63284 37129
14961 63319 32275
14790 63343 49649
14703 63356 50915
15050 63306 31696
75 57575 25059
516 56742 41861
12710 21897 1424
42513 52297 49809
42927 58060 19323
6058 63676 3302
13644 23248 7
43129 56869 41819
1369 49934 9731
24462 33070 57115
8209 64880 13496
8783 64696 23355
8627 64746 10267
4523 64293 4597
5376 66103 16093
1640 66803 32600
34379 57982 57174
37264 65494 51844
1882 67312 10058
1677 57714 49533
1677 48767 22027
42498 50479 24850
39767 65938 52420
21626 36451 1
38482 64726 3586
20023 63852 7333
42014 51010 28005
11018 18751 42177
42499 50802 17618
39600 67288 28702
2168 67493 21087
2560 67723 40061
42209 51472 51198
2962 68002 28332
41955 51099 23162
41955 49241 20389
41955 51200 19140
41955 55892 41569
41955 51032 17573
31663 18297 45896
39824 67545 45109
11405 18219 40062
11275 18845 2795
37214 65473 32060
42214 3547 2116
41964 57340 52331
22024 62790 39372
23768 62840 50366
21818 62785 50012
22190 62795 46338
22665 62808 50186
17075 29363 122
39845 67580 38117
14637 22051 1275
31911 16851 6596
31911 16352 31150
31911 16753 16475
31911 16134 32060
12630 49587 56071
38377 66111 9021
