ply
format ascii 1.0
element vertex 2787
property float x
property float y
property float z
end_header
8599 29020 76461
8599 29236 77438
6112 18111 73813
4649 19358 73813
5138 20885 73813
7748 680 73813
6920 2563 73813
4510 1558 73813
0 29786 22254
35081 27266 49786
6449 22136 16483
6449 25482 13881
6449 21880 14535
33715 20782 46272
5016 21992 58272
5016 22565 50800
5016 26555 66207
5016 21663 47606
5016 26117 64176
5016 22559 63281
34215 25492 68080
38275 29382 55287
35353 29382 61674
38613 29382 48568
40124 29382 67691
38998 29382 51006
39214 29382 35286
36235 29382 61114
36459 29382 50431
37816 29382 59515
37970 29382 39964
39942 29382 39093
39501 29382 28326
37594 29382 44131
36753 29382 56847
34973 29382 72354
38755 29382 45596
39389 29382 42879
36957 29382 68197
38565 29382 71762
38056 29382 70289
39685 29382 20199
38820 29382 62440
4299 22387 74305
4299 11370 77043
4299 14789 77207
4299 13814 76999
4299 21155 75984
4299 16063 77140
6449 28765 22557
6449 28016 20177
6449 29100 57596
6449 28897 39057
5960 27949 37228
32052 3407 73813
34681 8332 73813
32642 9441 73813
33176 9611 73813
34831 2888 73813
8599 17240 8762
8599 16299 9434
8599 25480 8241
8599 11881 11630
8599 14075 11849
8599 10735 10992
8599 12015 11099
8599 2645 10533
33682 28289 72842
33682 23111 68295
1090 28528 7883
6375 27237 7883
4966 0 74116
40131 27261 11338
8599 8931 75079
38653 29382 10871
37111 29382 11770
6449 27111 69760
6449 25487 68617
34596 20980 32375
20117 18991 10983
21030 18991 10456
22750 18991 10271
33483 18471 73813
31858 9768 73813
32728 25505 12183
31692 21207 12183
2569 25082 10736
6449 28452 38078
37999 29382 8848
34026 0 8509
33682 22619 44576
33682 26466 43101
8599 23486 10828
4739 27623 73813
4310 26649 73813
35097 21481 49862
5350 27566 55975
8599 21514 11688
8599 27625 12001
4755 27931 12183
31531 18944 73927
31531 18503 74353
34915 28494 12183
39325 29172 12183
35115 22796 28831
35115 21927 22243
35115 22068 37429
35115 23902 23187
35115 21859 21111
35115 23602 32137
35115 22478 22646
7819 29056 7883
3476 26889 7883
6987 29382 11917
291 27651 73813
34701 21085 33794
33682 19149 67481
33682 20490 21567
33682 19357 56868
33682 19120 45885
33682 19453 42722
33682 19341 18030
34994 0 75207
35832 12826 77701
35832 498 75886
35832 2708 76737
35832 11870 77207
35832 4403 77211
35832 2037 75879
6449 27996 67196
6449 28824 64575
34747 27601 56367
28906 18991 10220
27984 18991 10576
23450 18991 11201
35832 22630 75643
35832 9878 74691
35832 11074 75541
35832 24635 74982
35832 17115 76244
35832 12412 74801
6449 19168 58878
6449 20446 64522
6449 19983 67969
6449 19018 31052
6449 19737 35714
2857 27310 78113
1957 28258 78113
31531 3736 11789
31531 8540 11507
6132 16777 12183
5487 12403 12183
35115 21504 38953
35115 21562 25630
35115 23852 30819
35115 23062 25442
35115 23359 30104
35115 22469 29697
31531 8379 77762
31531 18732 76899
31531 17264 76412
31531 9937 77980
35115 26370 30470
35115 26439 32111
35115 27022 36038
35115 24422 37041
35115 24517 31974
35115 25947 38403
24519 29382 8440
19229 29382 8214
34513 21789 67965
4299 7371 8829
4299 5272 10743
4299 708 9026
4299 8847 8482
4299 8686 8024
4299 2367 8245
2580 29382 37199
1812 29382 51245
2590 29382 26141
3244 29382 21177
2869 29382 41902
808 29382 39241
3746 29382 33099
898 29382 18591
452 29382 28277
2487 29382 47294
4863 29382 16866
1114 29382 33106
4372 29382 20798
1392 29382 17801
2562 29382 22940
1668 29382 28561
2336 29382 27713
136 29382 45100
1114 29382 21767
138 29382 20149
682 29382 36479
28407 28887 75963
27187 23779 75963
28209 25295 75963
23344 23326 75963
25960 28367 75963
13580 29255 75963
29943 24418 75963
25660 25459 75963
26634 27590 75963
31178 28779 75963
23135 28000 75963
25491 28552 75963
29008 27008 75963
6449 26859 71509
6449 29065 72808
6449 25257 70636
7444 23532 7883
4528 25015 7883
8408 20459 7883
8059 7184 7883
8193 12762 7883
8096 13318 7883
22551 26245 10033
9095 22919 10033
10431 28233 10033
19989 27039 10033
24426 27795 10033
14905 22467 10033
19548 26443 10033
19911 25833 10033
19759 29273 10033
14411 29062 10033
18833 25043 10033
14456 23941 10033
24951 27780 10033
21134 23506 10033
24094 19434 10033
25461 19491 10033
22644 24977 10033
28499 19669 10033
21463 19359 10033
27843 22902 10033
20954 22681 10033
17901 23137 10033
30337 28363 10033
23732 20378 10033
31433 26668 10033
33355 6344 78113
35228 14604 78113
35170 3497 78113
34272 7348 78113
32900 6866 78113
33430 10614 78113
34972 5397 78113
33856 5580 78113
33518 186 78113
34895 2172 78113
35356 7240 78113
33707 3879 78113
11363 18991 52253
13327 18991 55861
16591 18991 49336
15356 18991 54615
14384 18991 61237
11400 18991 65963
29612 18991 71430
8811 18991 67641
13160 18991 33034
13066 18991 28753
21652 18991 64231
8016 18991 18918
16109 18991 44969
7373 18991 16105
8198 18991 36721
21656 18991 69622
16916 18991 44065
26967 18991 67071
15337 18991 37850
11188 18991 28060
13630 18991 54138
27688 18991 69707
8664 18991 70114
12077 18991 32428
25534 18991 61526
13843 18991 62554
22022 18991 65120
8866 18991 62507
17345 18991 46606
18151 18991 70283
12232 18991 42155
19736 18991 50204
20405 18991 72857
23750 18991 71668
18362 18991 72216
9793 18991 53014
26874 18991 71843
11800 18991 48418
18758 18991 66758
10886 18991 66375
17809 18991 42292
10055 18991 44623
17928 18991 51782
15413 18991 65094
25044 18991 59025
10336 18991 53306
6875 18991 23183
28120 18991 72487
14509 18991 70857
13436 18991 49064
11229 18991 56266
9566 18991 35277
20312 18991 56786
24673 18991 71135
12403 18991 62291
19784 18991 67990
12195 18991 70397
17152 18991 51127
22496 18991 59314
10566 18991 58957
22170 18991 57371
21421 18991 50575
11265 18991 67566
8560 18991 52406
27535 18991 68412
28203 18991 71951
21975 18991 72750
11524 18991 44184
30023 18991 71147
9850 18991 42277
19502 18991 59679
28653 18991 71035
21187 18991 61269
12666 18991 59530
15976 18991 48924
16019 18991 43669
20052 29382 11591
15346 29382 11551
26750 29382 10588
6449 20425 15793
6449 19678 12248
6449 23107 15913
4797 15183 7883
6547 10285 7883
5466 3794 7883
4571 21064 7883
5485 5093 7883
5820 1093 7883
5016 25456 65675
5016 22433 59162
5016 23946 58891
5016 22460 52449
5016 23325 62258
5016 25181 64677
8599 26892 74573
33682 20501 28121
33682 20543 32559
33682 20582 26424
33682 20667 52600
33682 19536 58084
6449 27801 45148
6449 22181 43277
6449 28121 60542
6449 28499 66501
7973 0 8163
5774 27949 64531
5435 27607 33565
34381 20782 25015
29828 29382 62933
27247 29382 73466
24845 29382 64836
20385 29382 59947
18088 29382 68151
20353 29382 50547
31586 29382 27080
29698 29382 59735
24903 29382 67640
31778 29382 46292
23540 29382 44797
31142 29382 38876
30628 29382 40644
26160 29382 40211
27541 29382 34931
12338 29382 67529
18534 29382 72455
10598 29382 69804
29378 29382 43472
24588 29382 69536
31548 29382 56637
23194 29382 62819
30337 29382 69969
21402 29382 61287
19985 29382 52795
31779 29382 30756
20856 29382 70141
17239 29382 55009
19951 29382 55509
31001 29382 19499
29522 29382 46479
29359 29382 25192
30926 29382 45071
27038 29382 39749
29495 29382 66816
26716 29382 58042
17016 29382 70062
18795 29382 58127
26572 29382 32584
23926 29382 59455
27742 29382 69084
29636 29382 29237
24215 29382 51492
23402 29382 50058
14118 29382 61190
30450 29382 28126
20742 29382 67641
17086 29382 64377
18646 29382 64460
16893 29382 60947
17062 29382 64894
30423 29382 21728
19961 29382 61890
13815 29382 62713
18111 29382 71396
23836 29382 42101
18443 29382 56621
28911 29382 41672
15904 29382 70454
21943 29382 56988
21177 29382 51393
31391 29382 59065
15958 29382 69691
32995 29382 24890
14407 29382 68217
21881 29382 63513
30808 29382 62126
31464 29382 32150
30838 29382 25408
24896 29382 38120
25890 29382 52375
23860 29382 47951
30777 29382 48910
29736 29382 31197
27236 29382 29650
7358 22294 73813
33682 20873 41859
33682 26167 40934
8599 948 12078
8599 13304 11533
8599 18127 12132
8599 3326 9205
32173 11440 12183
31555 1821 12183
31906 3771 12183
8178 29382 7154
30465 29382 1924
33682 20786 72809
33682 23711 72901
33682 20327 71663
5615 0 76854
33682 19610 24826
33682 19034 63262
33682 19345 23707
33682 20401 24677
33682 19936 38022
5062 21453 61976
6449 22161 17173
33268 29382 57020
33091 29382 65271
33537 29382 22523
32750 29382 64875
31651 29382 70944
33234 29382 54240
32941 29382 43438
32414 29382 63499
32693 106 73813
33374 14328 73813
34459 10214 73813
32813 0 10866
37271 25082 10486
31531 2691 74123
31531 1605 77096
31531 766 75644
31531 4703 75152
31531 640 77623
33682 20983 12292
33682 23228 13569
33682 20600 12826
31257 18991 69357
12553 18991 26555
17116 18991 37791
23444 18991 53093
28182 18991 62323
8696 18991 17671
31416 18991 69812
20776 18991 45646
0 30040 27493
5326 26380 40397
6449 21738 70829
6449 27451 72969
6449 25269 73246
31910 10017 12183
32086 12881 12183
0 28462 73917
0 30645 3646
0 30490 30589
0 29697 3008
0 30846 36576
0 31126 42868
0 30476 6990
0 30892 39273
0 30917 34211
0 30951 17467
0 31348 37667
5171 21344 62525
7630 6193 12183
8221 11071 12183
5610 2489 12183
5490 1237 12183
5837 3399 12183
31531 8654 8588
31531 4139 9894
31531 17029 9675
31531 601 11249
31531 7065 8872
31531 15118 7947
31531 6081 8424
39671 29382 74751
37802 29382 76919
5589 26489 73813
33682 28479 23435
33682 28039 21014
6449 25581 42337
6449 26986 42210
33682 28429 32960
31531 28166 76989
31531 27349 10777
5491 27165 18202
22943 21069 75963
16671 20412 75963
11299 26696 75963
19515 21596 75963
9721 20069 75963
12943 26184 75963
21887 23185 75963
11112 21248 75963
13747 21349 75963
24444 20768 75963
10889 27127 75963
29338 19098 75963
20140 19814 75963
36647 29382 2637
32256 29382 4213
31535 29382 6395
26777 29382 7027
22110 29382 4803
24189 29382 6910
32302 29382 3141
27773 29382 3372
24986 29382 4921
20253 29382 6220
37579 25082 12117
22728 29382 7283
16447 29382 6682
25384 29382 5233
21247 29382 7334
29768 29382 6072
26033 29382 4818
19293 29382 7627
26641 29382 3586
33610 29382 4663
5947 27949 24963
0 30664 69776
0 30909 81706
0 31063 80587
0 30827 72438
0 29573 27330
0 31121 76217
8599 25567 9210
5511 27727 63733
5107 27323 67141
32865 25813 78113
34885 23200 78113
32946 21824 78113
33116 27744 78113
31690 28321 78113
34678 21327 78113
32290 18432 78113
12538 19160 10033
30728 27265 10033
25135 22142 10033
28953 22223 10033
26337 23026 10033
29605 19533 10033
8870 19025 10033
19671 19176 10033
23911 22154 10033
21048 19588 10033
27260 22662 10033
25983 26564 10033
1119 25082 11008
6334 24730 68080
15962 29382 81761
2370 29382 79831
13052 29382 78322
16944 29382 82658
19483 29382 78174
11778 29382 80741
442 29382 79797
3471 29382 81355
2602 29382 79327
16166 29382 82412
16649 29382 78246
22038 29382 80356
8410 29382 78435
6367 29382 82574
34535 29382 78581
10887 29382 81826
10483 29382 79918
5257 23754 40328
32987 20352 73813
0 29869 80826
6217 20782 57359
0 26478 77825
8755 18991 75011
22749 18991 75419
12253 18991 74704
4299 233 76349
4299 4196 76100
4299 11878 74685
4299 7530 75056
4299 15363 74399
4299 17966 74926
5991 20782 34111
5105 23322 29294
5105 26692 39501
5105 22072 38376
5105 27022 40039
5105 22672 23374
5105 24991 38394
5105 24054 31409
33682 28835 57096
33682 28400 63949
33682 29044 50680
33682 29162 72073
33682 28963 62049
19455 29382 75987
14104 29382 76845
5016 25808 47124
5016 22759 49031
5016 23561 47845
5016 24836 53121
5016 24044 46989
5016 23665 51666
5016 22199 47884
8033 29382 70596
16454 29382 51293
23545 29382 36026
12930 29382 59808
23411 29382 36992
16592 29382 53356
28119 29382 24980
6444 22108 7883
7566 7584 7883
8109 27123 7883
7950 28392 7883
6956 22920 7883
6016 23869 7883
33706 0 10514
34648 21032 27977
34628 21011 22447
6449 28553 52783
31531 17446 76911
31531 7859 77809
31531 16832 76666
31531 10742 77380
6412 7443 73813
6637 11735 73813
7031 8526 73813
5917 4446 73813
33818 27949 56983
34723 27624 50426
35034 27313 59170
32696 28326 12183
21638 25292 75963
31490 29273 75963
26463 28656 75963
28448 23734 75963
27968 20881 75963
17042 27835 75963
31178 27438 75963
29045 23280 75963
26143 23543 75963
24563 24210 75963
5330 21185 62970
35089 26676 45838
0 26666 76539
0 28195 9953
34536 20921 63598
8599 16604 10134
8599 14083 9905
28252 18991 12181
10633 18991 11092
18818 18991 10996
32698 8053 12183
39650 25082 73938
35982 29382 74074
34633 15958 7883
35813 2527 7883
35525 18953 7883
35134 9581 7883
34810 7582 7883
0 25107 11754
5602 0 77502
1201 25082 77144
4944 23711 12183
4759 22889 12183
5172 25266 12183
39244 28416 7883
36480 27891 7883
38748 29382 8265
35583 25736 12183
36736 26104 12183
32595 5961 12183
33979 12136 12183
34335 8652 12183
35793 11832 12183
35403 15409 12183
34523 13710 12183
40131 25780 74711
27418 29382 12106
27648 29382 10639
40003 29382 7396
37319 29382 7399
34890 29382 6388
6229 7229 78113
8316 23389 78113
8572 22866 78113
7631 1368 78113
6218 3586 78113
6457 10104 78113
5962 8836 78113
34128 27949 39925
5105 24295 20929
5105 24905 25632
5105 25058 23415
5105 26784 22129
5105 26414 29622
5105 25626 23845
5105 24850 21946
33682 20294 48129
33682 19842 47482
33682 20779 27599
33682 19770 51580
33682 20097 46101
5016 2945 7883
5825 8688 7883
6266 7770 7883
4899 6717 7883
5687 16879 7883
35272 26099 78113
33788 28067 78113
8245 29382 79174
14924 29382 81292
2015 29382 82087
8104 29382 83613
24288 29382 78950
25610 29382 80148
33450 29382 79141
19091 29382 80544
1969 29382 78875
1412 29382 83443
6132 29382 84770
10890 29382 78124
19353 29382 79041
9741 29382 82226
27308 29382 79375
34570 27778 26980
23054 29382 10033
26646 29382 9203
29463 29382 9904
6121 855 12183
6433 2366 12183
24114 30218 0
25294 29942 0
33613 29781 0
30496 29578 0
15429 29585 0
34108 27949 22206
1025 25082 74448
13242 30115 0
10144 31459 0
3603 29618 0
1896 30405 0
2998 30772 0
5717 20843 32638
35115 23631 60688
35115 23115 66863
35115 25895 55771
35115 24895 57192
35115 24449 66806
35115 25299 58286
35115 24114 62574
40131 28525 77161
7253 29382 10164
1619 29382 9405
4808 29382 9099
4545 29382 9679
18360 29382 76270
12555 29382 76805
10335 29382 77042
8599 24861 11020
6449 19919 21066
6449 20500 24921
6449 19166 14897
6449 20438 46450
6449 20289 39410
7679 18991 55135
7138 18991 36395
7540 18991 65174
6893 18991 38548
7235 18991 48398
7370 18991 53014
3893 29382 76827
5652 29382 76045
31531 24395 9526
6004 20551 12183
38322 27155 12183
40131 30033 7531
33682 25781 41513
33682 26569 13081
33682 21471 12912
7410 0 74823
31531 10841 10887
35210 0 10849
31531 19627 74803
6449 19971 43039
6449 20328 54200
6449 19636 64802
6449 19321 42675
6449 19572 65975
6449 20183 65631
4299 13575 10460
4299 23038 9034
4299 19700 12025
4299 21071 10877
4299 15722 10641
4299 21007 10188
33703 25629 17916
0 30117 25001
0 29646 5903
0 30126 29289
0 31187 30810
0 31434 17157
0 30828 2109
0 31524 28585
4640 14015 73813
4831 10298 73813
4656 21881 73813
39483 29272 73813
18822 18991 74427
25603 18991 75288
27897 18991 73833
38399 26551 7883
474 29382 7931
25573 18991 47613
23855 18991 48464
31806 18991 39021
30189 18991 37175
28778 18991 20973
18976 18991 34061
29506 18991 36406
25874 18991 39556
31865 18991 21288
15280 18991 19624
15351 18991 24791
27690 18991 16989
23054 18991 33000
29332 18991 57491
29779 18991 54153
33421 18991 69962
9490 18991 14829
22953 18991 27859
16092 18991 22352
10528 18991 16411
21457 18991 36525
13229 18991 20048
14629 18991 30566
25652 18991 50127
27491 18991 52958
30738 18991 15295
32522 18991 59614
31617 18991 50136
19034 18991 19127
33320 18991 40924
30179 18991 32442
28643 18991 61402
23707 18991 27546
20886 18991 34097
32771 18991 52303
32805 18991 55216
21188 18991 23484
29492 18991 50279
31966 18991 63592
29730 18991 45982
10781 18991 20575
25723 18991 41784
20172 18991 30375
22574 18991 18194
22570 18991 33238
20101 18991 34288
32265 18991 23458
32473 18991 49195
11181 18991 14528
21666 18991 45062
18534 18991 31269
24830 18991 42318
19297 18991 18424
27098 18991 53733
32606 18991 18664
25568 18991 29556
22425 18991 41780
17761 18991 36837
19730 18991 20925
27966 18991 29942
32555 18991 20948
17444 18991 31943
29256 18991 47967
14618 18991 24557
26663 18991 30615
31443 18991 29275
15550 18991 32126
29348 18991 46451
30747 18991 51648
26847 18991 56948
29065 18991 46023
32078 18991 26904
30348 18991 45093
30327 18991 61173
30179 18991 65131
23830 18991 21792
26962 18991 38177
33021 18991 45680
30325 18991 29165
19825 18991 21716
23827 18991 20869
32965 18991 64310
20948 18991 16842
32250 18991 58889
16902 18991 33253
11548 18991 21623
27680 18991 34609
18555 18991 16852
21305 18991 37175
28929 18991 58287
32530 18991 36127
6430 27949 49651
33916 29382 47536
33832 29382 25828
34434 29382 25218
34409 29382 50111
36271 29382 36070
35971 29382 43771
34842 29382 27508
34765 29382 60618
34197 29382 19499
34355 29382 30548
37499 29382 24889
36622 29382 20604
33696 29382 17427
34164 29382 45357
35991 29382 38422
34014 29382 37856
34018 29382 44750
34034 29382 41010
35326 29382 20575
0 25567 9096
31531 17585 10010
6314 20782 53009
5068 22853 67415
31930 5505 78113
32449 12445 78113
35366 24474 78113
32112 14889 78113
34268 24929 78113
34465 25638 78113
8447 29382 8540
36409 29382 46996
34170 29382 14174
35682 29382 39834
37323 29382 34733
34884 29382 17278
35428 29382 50609
35011 29382 25066
34935 29382 25841
36730 29382 18443
37983 29382 16705
37663 29382 14569
35073 29382 23665
36035 29382 43057
34548 29382 29483
39859 29382 14552
34964 29382 31942
34998 29382 42282
33856 29382 51454
36849 29382 21663
34080 29382 69023
33682 21388 71145
33682 23478 71537
33682 22632 72451
14447 31532 21764
5476 31532 61658
12999 31532 29943
4254 31532 14219
34644 31532 2874
10869 31532 13545
8950 31532 35674
16067 31532 33228
32066 31532 14026
13721 31532 21208
19173 31532 43598
20213 31532 28787
8963 31532 42615
13112 31532 16370
6953 31532 31166
3172 31532 45687
18833 31532 16818
26028 31532 8636
29364 31532 4434
23366 31532 10678
9197 31532 8263
2574 31532 18979
16080 31532 25397
17042 31532 3991
2204 31532 37626
1680 31532 27435
4032 31532 9560
20811 31532 10204
2528 31532 32311
16600 31532 38237
13547 31532 33746
6843 31532 19512
1861 31532 55899
1561 31532 22950
13343 31532 6609
13978 31532 42401
12695 31532 41268
1284 31532 56151
20966 31532 34394
10638 31532 30521
2013 31532 58916
33891 31532 2912
12828 31532 7429
21322 31532 39515
30081 31532 12128
4828 31532 48938
7492 31532 13209
978 31532 61934
23457 31532 7745
8706 31532 58630
2836 31532 78044
17512 31532 26755
19339 31532 27431
30946 31532 16536
4175 31532 30424
7540 31532 31361
8157 31532 29493
5304 31532 38299
21388 31532 25773
12186 31532 54934
8164 31532 12122
21697 31532 34005
36103 31532 7494
576 31532 27496
4385 31532 48627
15210 31532 33439
13794 31532 3023
25273 31532 3346
20619 31532 12082
22559 31532 36887
15796 31532 10213
27133 31532 15116
12599 31532 6898
22470 31532 17606
2567 31532 21408
9797 31532 4990
14486 31532 6503
303 31532 47237
5483 31532 4007
22374 31532 25321
32743 31532 6511
1451 31532 64866
14839 31532 766
5813 31532 73232
25207 31532 14452
9220 31532 38683
29726 31532 19718
30471 31532 14041
26244 31532 20401
22643 31532 7649
19555 31532 22299
13879 31532 12704
23661 31532 28820
4759 31532 38251
3018 31532 69064
948 31532 54883
11815 31532 19224
31274 31532 17497
4923 31532 53290
11587 31532 54299
5774 31532 14076
28589 31532 9468
35875 31532 418
543 31532 37705
5386 31532 62478
5008 31532 31062
6543 31532 71291
683 31532 47861
2909 31532 62024
3872 31532 42272
21689 31532 4055
1215 31532 61231
5990 31532 52373
32982 31532 13101
34838 31532 9442
15181 31532 46117
13349 31532 20571
19109 31532 38703
28970 31532 8697
2634 31532 638
5627 31532 55661
7015 31532 14863
11913 31532 23794
895 31532 28743
18179 31532 646
10333 31532 27541
3414 31532 48506
1255 31532 39554
36634 31532 5832
2709 31532 16807
27497 31532 18658
3680 31532 12844
18564 31532 27710
1450 31532 8979
38757 31532 109
16302 31532 8643
8635 31532 15837
14287 31532 18361
7910 31532 53775
16246 31532 15763
12578 31532 29127
6908 31532 26380
27 31532 60574
5530 31532 41606
3698 31532 14536
1927 31532 16368
5235 31532 33654
978 31532 83688
27357 31532 1006
9793 31532 26109
7101 31532 10311
23032 31532 10129
15033 31532 38246
20242 31532 1582
5482 31532 40534
16318 31532 23493
30788 31532 932
7111 31532 17723
976 31532 33213
9135 31532 43563
4885 31532 72793
13543 31532 23166
5569 31532 70894
17048 31532 469
20728 31532 15995
32280 31532 668
149 31532 74961
2768 31532 17682
8251 31532 36746
8655 31532 3564
21022 31532 28713
2251 31532 70444
14680 31532 16118
5300 31532 23773
16675 31532 43044
14818 31532 35352
15320 31532 12583
16421 31532 45195
6949 31532 23224
33491 31532 691
113 31532 26773
5370 31532 18534
12968 31532 32476
6120 29382 11372
19218 18991 11354
21389 18991 11980
35832 2489 77619
35832 6831 76901
35832 1963 77429
35832 21747 77698
35832 10569 77436
35832 3510 76117
13012 29382 74138
27518 29382 73842
25364 29382 74282
945 28174 78113
3781 29382 74121
580 29382 74736
5222 29382 75385
33682 28433 42088
33682 28562 43259
32820 1379 12183
32691 4320 12183
34195 2413 12183
34719 17067 12183
34445 15378 12183
6449 28015 16260
6449 27314 17052
0 30142 37894
35764 6538 73813
34150 27587 73813
35611 4292 73813
28863 29382 75197
11346 29382 75805
25718 29382 75907
3223 25390 73813
31531 21506 74314
772 28054 7883
34613 11115 7883
34665 22843 7883
33613 26108 7883
35009 19972 7883
33993 19756 7883
35725 17474 7883
35115 26844 50824
35115 26621 55823
35115 26221 57120
35115 26639 52074
35115 25371 59769
35115 21932 66804
5131 26748 45749
8599 18963 73896
8599 11392 75030
8599 16619 75053
33682 25222 69311
33682 27660 71844
34692 28700 78113
32175 28817 78113
7336 0 10349
39357 29382 10039
40104 29382 11872
130 29328 12183
21835 18991 73916
34298 20782 54558
40131 29672 2252
32902 18991 56548
32420 18991 69362
21087 18991 37983
25058 18991 48911
28443 18991 20479
22460 18991 31802
27721 18991 48205
7330 18991 12194
21119 18991 29789
29597 18991 21416
12576 18991 23832
22968 18991 24125
33055 18991 53817
21545 18991 13712
13188 18991 18563
29958 18991 30302
14710 18991 20884
11570 18991 16756
21648 18991 41166
12325 18991 12625
19872 18991 25786
21295 18991 21127
26417 18991 50877
20469 18991 20834
32521 18991 61524
18738 18991 17414
25196 18991 22506
32753 18991 38100
28571 18991 50472
26666 18991 37186
16838 18991 32013
23989 18991 18654
18650 18991 37436
16677 18991 12659
32307 18991 16877
23402 18991 13134
24120 18991 17572
20654 18991 26628
20386 18991 16792
27152 18991 18466
28217 18991 58190
30966 18991 22523
24422 18991 23187
24375 18991 27050
18631 18991 31908
24758 18991 30727
23703 18991 19661
20400 18991 38724
20571 18991 40277
31364 18991 63235
21601 18991 20414
26820 18991 34435
32308 18991 46944
31758 18991 56732
26158 18991 48863
16888 18991 18160
28881 18991 56238
17749 18991 34597
25743 18991 21378
30895 18991 67413
25201 18991 45337
14111 18991 26009
15272 18991 16056
28620 18991 55620
25290 18991 51478
12310 18991 15134
14907 18991 25211
27819 18991 37698
11936 18991 14242
28600 18991 49294
10249 18991 13322
25781 18991 34579
26353 18991 33720
18354 18991 13284
26931 18991 13509
20545 18991 13540
19861 18991 14845
14566 18991 27939
26908 18991 42893
24427 18991 40909
22827 29382 8232
11089 29382 9448
26225 29382 8303
20244 29382 61076
23723 29382 68519
23471 29382 70443
13499 29382 70673
21173 29382 62528
30066 29382 36747
13450 29382 67813
20948 29382 50158
29711 29382 70049
28364 29382 55673
25353 29382 57851
32346 29382 38723
31883 29382 40031
27946 29382 31574
29096 29382 42559
28113 29382 33363
30361 29382 50182
31217 29382 29780
28830 29382 61771
25238 29382 67261
27623 29382 48937
26282 29382 51853
27774 29382 69845
30249 29382 42588
13043 29382 70409
26128 29382 39488
26361 29382 59797
25503 29382 45636
31758 29382 21519
22263 29382 68055
26668 29382 63291
30137 29382 57627
30705 29382 34851
27406 29382 58270
20996 29382 54329
29585 29382 73086
17087 29382 68828
23486 29382 59763
31916 29382 49504
17614 29382 52446
28344 29382 53168
26863 29382 42342
20006 29382 45919
33074 29382 18981
27936 29382 37916
13662 29382 65558
31396 29382 53726
30814 29382 56972
14056 29382 61689
31213 29382 22721
18743 29382 65893
18149 29382 64959
21094 29382 46452
10158 29382 70376
32202 29382 39476
28380 29382 35092
30187 29382 66014
31995 29382 23856
16942 29382 61636
27478 29382 32162
23982 29382 67300
24675 29382 59237
27480 29382 28938
31331 29382 70068
29819 29382 25736
21161 29382 65927
16420 29382 65311
23598 29382 64469
26158 29382 71287
18400 29382 61791
205 29382 44117
1908 29382 48633
388 29382 30069
143 29382 58880
1251 29382 12282
2058 29382 30673
2962 29382 24287
2141 29382 32876
2855 29382 13174
842 29382 43030
1036 29382 31985
3141 29382 23365
4094 29382 24328
3068 29382 15556
602 29382 45315
808 29382 34001
33682 28066 46204
33682 27969 51346
8171 29382 74662
33475 16898 12183
40131 29650 74453
39021 31532 35648
38304 31532 21393
25324 31532 85364
21483 31532 46899
35819 31532 47493
8436 31532 70915
25831 31532 54399
12280 31532 60401
15583 31532 84741
17757 31532 79021
11398 31532 67873
27244 31532 59981
20318 31532 75225
34547 31532 45283
38731 31532 9957
23902 31532 45326
26774 31532 30787
27430 31532 82250
31156 31532 58761
32517 31532 48954
31447 31532 39710
5595 31532 81544
29170 31532 25792
36133 31532 71279
28198 31532 52369
9811 31532 83281
27116 31532 42758
33426 31532 41914
24807 31532 69264
10790 31532 84706
38916 31532 65703
27831 31532 71468
29277 31532 75987
28119 31532 59488
34601 31532 69556
14313 31532 73027
39733 31532 52267
10312 31532 65620
26339 31532 59334
22906 31532 76359
33493 31532 51171
29408 31532 44020
25041 31532 70052
18559 31532 65899
39496 31532 54520
27261 31532 70598
15821 31532 76805
21902 31532 41281
16697 31532 64214
20557 31532 62959
24471 31532 50059
30402 31532 52437
30000 31532 50488
31088 31532 85747
11588 31532 71993
17309 31532 59536
32868 31532 62332
26057 31532 39420
32676 31532 22453
15932 31532 53110
33660 31532 81216
26745 31532 33266
25816 31532 34680
35643 31532 14093
32767 31532 76464
31604 31532 71910
17627 31532 57202
34916 31532 29845
37779 31532 64302
32716 31532 46087
28798 31532 33547
9127 31532 82890
39264 31532 71769
22200 31532 69098
24883 31532 41431
33018 31532 25360
21544 31532 52907
32381 31532 39661
25068 31532 50408
15445 31532 70508
25153 31532 80745
27654 31532 83658
34445 31532 35367
33405 31532 35992
30766 31532 65777
17938 31532 85816
36453 31532 72287
33968 31532 41581
33170 31532 59802
12663 31532 75041
35814 31532 60307
22478 31532 64451
35923 31532 51788
14866 31532 64173
29499 31532 57766
15533 31532 84084
30586 31532 56279
37969 31532 58249
39166 31532 26192
31755 31532 64574
38800 31532 56161
28483 31532 81511
15397 31532 68953
32472 31532 58252
32167 31532 46315
30670 31532 48950
2079 31532 85675
28888 31532 32121
38801 31532 14346
29276 31532 61130
32830 31532 18163
29793 31532 42229
30390 31532 79070
20802 31532 41751
28689 31532 57156
22756 31532 61696
40048 31532 7416
12756 31532 69044
12641 31532 74259
19333 31532 75371
30768 31532 85371
16956 31532 50670
18359 31532 68370
13165 31532 76659
39704 31532 25698
14232 31532 61850
29686 31532 46259
29516 31532 85590
13252 31532 58930
29450 31532 24768
31145 31532 32020
39594 31532 29273
25574 31532 33256
3655 31532 85345
29760 31532 69563
38874 31532 81967
26968 31532 74034
35535 31532 21788
19240 31532 79866
40091 31532 9620
34773 31532 57503
9632 31532 66340
23882 31532 80031
37238 31532 24601
26322 31532 76765
30220 31532 25297
12504 31532 82578
10037 31532 85222
17957 31532 48641
29258 31532 73807
34538 31532 36401
9996 31532 73381
39046 31532 12777
22002 31532 79063
30155 31532 35767
33720 31532 35169
37352 31532 26515
21623 31532 64600
27531 31532 65071
33080 31532 57450
28397 31532 75302
32320 31532 66379
24315 31532 59107
22386 31532 85373
28055 31532 65302
28294 31532 73643
37122 31532 69250
20968 31532 61959
13942 31532 60126
29613 31532 76413
31897 31532 22443
12641 31532 84036
39507 31532 14708
5893 31532 77963
38830 31532 77470
39773 31532 28213
25904 31532 81062
37525 31532 53373
10937 31532 67632
27614 31532 68007
36744 31532 34745
35778 31532 72097
5899 31532 75394
16496 31532 73646
17656 31532 61718
1665 25316 12183
35510 9234 73813
34951 25056 73813
34338 26937 73813
35115 26892 24965
35115 25044 30972
35115 22648 36259
35115 25816 31666
35115 21968 39249
6114 27949 25661
40131 30488 2335
6575 24133 78113
4365 14595 78113
6635 21144 78113
5663 14590 78113
4678 23175 78113
4329 11876 78113
5230 7476 12183
35832 4915 9655
35832 525 11553
35832 14750 11217
35832 2527 10139
35832 8242 12049
3115 29382 77414
34648 14522 73813
6208 20782 24256
5668 25153 18025
32292 27013 73813
27850 29628 0
32606 29605 0
14504 30124 0
35283 30228 0
9708 29430 0
0 25592 77134
4299 17833 77707
4299 16104 76647
4299 15574 75518
4299 19089 76432
4299 24713 76927
34460 27887 61213
27663 29382 74327
21940 29382 74834
26960 29382 74420
31531 5396 74449
31531 9105 74161
31531 3828 75373
31531 1943 74397
34388 20782 58455
8752 29382 11427
19159 29382 10517
17404 29382 10921
5761 27933 28613
34558 23830 12183
35020 22905 12183
6818 16108 12183
5183 6234 12183
5786 20782 28193
34831 27516 26157
4105 29382 8215
6682 18991 21506
7506 18991 58767
6571 18991 63836
6540 18991 61522
7184 18991 40716
6639 18991 23623
8053 18991 63370
7547 18991 49744
6449 24912 44230
6449 21691 44934
2088 25082 8891
3295 29382 9899
8599 15845 10384
8599 14750 10786
6458 29236 12183
6785 21944 12183
1037 31532 24235
11483 31532 22888
7709 31532 7581
27124 31532 24527
21087 31532 32160
5405 31532 42410
9408 31532 18144
12383 31532 46172
18079 31532 37200
6519 31532 51020
246 31532 64781
14638 31532 36455
22694 31532 22169
29962 31532 4803
31401 31532 14622
5726 31532 17239
10868 31532 18081
18853 31532 28737
17084 31532 29802
4485 31532 56799
32026 31532 4992
3041 31532 28735
26203 31532 14853
2322 31532 72040
23887 31532 12404
10173 31532 25441
14530 31532 38984
8746 31532 8802
25378 31532 24643
11701 31532 1916
1939 31532 72497
27546 31532 12759
639 31532 36673
15594 31532 13435
27710 31532 14036
13310 31532 39695
15358 31532 32768
27405 31532 19928
27766 31532 15661
10302 31532 5591
20248 31532 13418
17507 31532 21744
2621 31532 56570
27729 31532 11109
21428 31532 19621
16629 31532 43705
4220 31532 70027
17618 31532 46829
4197 31532 26799
30832 31532 11941
4509 31532 45370
2116 31532 36831
2238 31532 3865
14012 31532 39986
10690 31532 46783
25970 31532 1214
7742 31532 52866
13173 31532 1191
6186 31532 28446
12328 31532 1748
13461 31532 44142
6171 31532 34474
28006 31532 8929
2241 31532 60740
7899 31532 11546
25584 31532 18474
30266 31532 8174
24545 31532 9917
5439 31532 68699
7025 31532 23897
10105 31532 10672
4635 31532 39406
28156 31532 17480
8343 31532 28125
5417 31532 56235
20357 31532 14383
14949 31532 2525
15602 31532 35452
5993 31532 16116
18709 31532 35532
6233 31532 1896
3759 31532 27900
14739 31532 49792
3058 31532 6818
8281 31532 60249
21406 31532 7440
10063 31532 57609
29005 31532 14703
18485 31532 2684
17521 31532 30
16533 31532 32280
3902 31532 33881
9509 31532 6094
13421 31532 18210
2308 31532 63919
15788 31532 34807
24577 31532 29552
15301 31532 16401
35549 31532 2268
36801 31532 2228
9645 31532 53217
30880 31532 9278
31650 31532 6755
23313 31532 18019
5784 31532 16563
8105 31532 63117
13983 31532 9348
8391 31532 32402
12815 31532 43458
12069 31532 30472
18470 31532 7134
22313 31532 19194
25710 31532 14083
5788 31532 45123
9738 31532 30195
9529 31532 46183
16875 31532 8069
9822 31532 24922
24013 31532 25865
23994 31532 9631
11105 31532 34302
23702 31532 24301
29747 31532 15383
11035 31532 18976
2224 31532 2691
22577 31532 19843
13186 31532 42899
21212 31532 21749
13486 31532 30483
16593 31532 29034
6976 31532 33350
6567 31532 66122
3574 31532 52952
2660 31532 27505
5791 31532 21144
1120 31532 15669
2772 31532 49423
29136 31532 17789
4057 31532 69363
20419 31532 15476
15551 31532 24303
7202 31532 45844
25318 31532 551
542 31532 19437
11066 31532 31736
15040 31532 34511
20802 31532 25548
15381 31532 3973
9962 31532 52249
4281 31532 74456
10695 31532 55031
24689 31532 2124
19876 31532 24453
14293 31532 45521
4615 31532 61442
22920 31532 36130
27963 31532 17960
12031 31532 22908
27438 31532 2890
7971 31532 23893
6334 31532 58009
36918 31532 4968
6467 31532 56601
8204 31532 66304
5771 31532 5492
29176 31532 21506
23281 31532 5035
4062 31532 73573
26439 31532 1941
17642 31532 6891
37427 31532 1883
6090 31532 17739
933 31532 39973
13641 31532 26833
6034 31532 53530
7680 19552 73813
6462 19540 73813
6449 28532 25178
6449 29063 56666
6449 28672 18462
6449 29310 59403
31531 23115 10561
5328 21232 20371
34484 20867 47170
13999 18991 75371
20962 18991 75691
12998 18991 74750
33682 29243 43894
33682 29189 67354
33682 29232 30435
33682 28912 35141
5582 20933 63725
34279 23721 17916
17319 18991 59172
12520 18991 55583
13186 18991 47817
8614 18991 56162
18667 18991 44547
11485 18991 62871
18645 18991 52327
15724 18991 36296
23920 18991 56900
14363 18991 69905
13918 18991 37441
10026 18991 31280
23114 18991 65954
25832 18991 62002
10661 18991 66778
22223 18991 67963
25728 18991 67656
12734 18991 38056
23398 18991 72446
14633 18991 43548
8379 18991 26683
17152 18991 64979
10759 18991 32866
18795 18991 64231
12292 18991 64542
20657 18991 73579
24091 18991 67349
16443 18991 55878
23187 18991 70139
17400 18991 53212
11347 18991 34616
18933 18991 71682
17182 18991 42322
9065 18991 57890
24637 18991 58153
11219 18991 24737
10295 18991 28871
16384 18991 39203
9157 18991 70957
9623 18991 26399
18345 18991 45702
10423 18991 22227
19267 18991 69184
12293 18991 67471
8966 18991 20368
12291 18991 35433
19061 18991 45876
15746 18991 71912
14028 18991 53575
17818 18991 71762
12005 18991 68380
19915 18991 54538
24342 18991 61917
9384 18991 46703
19194 18991 60908
10177 18991 56100
10312 18991 35336
17119 18991 52030
23105 18991 61666
11037 18991 23556
9502 18991 72562
18838 18991 48427
20731 18991 66874
13195 18991 55027
17063 18991 65841
17476 18991 71184
33734 27949 32348
37873 29382 79114
30492 29382 82275
34852 29382 83927
26819 29382 82706
29647 29382 80255
35115 29382 79435
38815 29382 81847
37053 29382 81376
32151 29382 79734
27306 29382 84131
20752 29382 83264
10524 29382 85823
38008 29382 83735
34279 29382 80969
15190 29382 83191
24128 29382 83478
35832 24377 9753
35832 21863 10870
35832 13454 8635
35832 20375 9981
35832 10503 8618
35832 24264 10844
8599 16942 75710
8599 10949 73823
4157 25082 76029
137 26242 12183
5062 29382 31533
3930 29382 46722
6348 29382 70146
5268 29382 25607
5062 29382 70279
4864 29382 70893
5491 29382 29895
2334 29382 66110
5794 29382 31286
6151 29382 65591
5659 29382 49329
6171 29382 72247
4083 29382 59859
6047 29382 45814
4245 29382 45015
6321 29382 44633
5193 29382 27843
6122 29382 51706
5035 29382 30404
4314 29382 54004
1105 29382 69913
4782 29382 65067
37159 25082 8729
34994 9593 73813
31531 4929 11047
31531 15889 7887
31531 473 11831
31531 17921 9168
31531 2334 8653
31531 11237 9174
31531 703 9102
5176 27347 38802
38701 29382 7714
38650 29382 2617
36868 29382 6129
40123 29382 5854
3792 25082 12133
33966 28991 73813
31531 22639 9777
36896 26282 73813
8014 29382 11767
40131 28469 74710
31531 28494 76360
4459 0 9561
34323 29382 8141
0 29954 83541
33682 23025 16477
33682 23264 17194
33890 20782 55857
5285 21275 39145
35832 8858 9522
35832 20658 11776
35832 9880 11608
35832 2975 9965
35832 13201 10679
37363 29382 78110
32353 29382 78072
39687 29382 77114
6504 29382 7123
12077 29382 6889
13760 29382 6452
34936 21321 57673
34178 25587 45148
32482 29382 70202
32803 29382 59326
33621 29382 36890
33296 29382 58419
33211 29382 37163
32255 29382 64219
33616 29382 34074
35115 23219 58327
35115 24370 53949
35115 21883 54618
35115 26364 48206
35115 22934 46281
35115 22915 51313
35115 21878 56849
34214 27949 30703
3482 29382 431
7367 29382 195
9410 29382 4806
18836 29382 4107
19554 29382 2629
916 29382 4151
19030 29382 1227
26913 29382 601
24004 29382 2807
23167 29382 2779
4691 29382 2870
21118 29382 3422
17588 29382 124
29065 29382 581
12889 29382 3819
1581 29382 7415
10376 29382 671
1020 29382 3634
5833 29382 76933
22806 29382 77636
15125 29382 78047
20092 29382 78092
39708 25646 78113
5016 26043 57424
5016 26601 57784
5016 25639 51902
5016 23824 53989
5016 24565 46483
5016 25095 54651
5016 24541 56435
5499 27670 19036
8599 23680 75737
33682 26444 15542
33682 22722 17147
40131 27521 8833
38239 25082 77370
40131 29555 15040
40131 30430 25713
40131 30123 18931
40131 30594 6484
40131 29642 17482
40131 30067 20859
40131 29436 50620
40131 27785 10644
5831 20782 58426
2877 25082 74708
3188 25674 7883
31531 20295 75750
31531 20796 75797
8599 25032 77189
6449 25521 72361
6449 21103 70402
6449 23720 71202
40131 31270 70828
40131 30293 76939
40131 30990 37269
40131 31524 39833
40131 31265 53981
40131 30733 65036
40131 31142 85666
40131 30385 83934
40131 31454 23719
40131 31095 44792
8599 18472 76108
36776 26093 7883
23663 29382 33838
26524 29382 27083
10723 29382 37887
21949 29382 14568
21598 29382 16711
10618 29382 59045
19331 29382 32337
10482 29382 53566
7288 29382 40331
7348 29382 65661
28600 29382 21954
15711 29382 35901
10667 29382 39318
20111 29382 38555
15152 29382 48315
8911 29382 40539
29666 29382 16624
8145 29382 21486
14085 29382 12457
24529 29382 15326
13250 29382 25329
19814 29382 19085
7128 29382 19801
16962 29382 24624
13323 29382 16549
8763 29382 15757
8530 29382 52645
17280 29382 41916
6756 29382 63407
10088 29382 30090
7619 29382 36454
16645 29382 16722
22747 29382 12809
29554 29382 17398
20126 29382 30812
15946 29382 19563
10947 29382 60928
24693 29382 26123
28255 29382 19718
20630 29382 26589
20115 29382 15592
18962 29382 25574
19816 29382 25083
20745 29382 24252
21495 29382 16159
10824 29382 44710
17627 29382 33672
17683 29382 35981
8968 29382 65897
11756 29382 25887
17035 29382 26037
13841 29382 32505
7851 29382 34501
17913 29382 14914
27978 29382 16220
18727 29382 29448
8242 29382 51594
13016 29382 53970
16051 29382 31274
26360 29382 28003
10763 29382 32863
7042 29382 38429
21326 29382 23021
23266 29382 17481
18202 29382 35551
8877 29382 57951
25714 29382 23765
21089 29382 35498
20587 29382 34100
13946 29382 30901
6908 29382 64532
32265 29382 15361
16820 29382 16259
8116 29382 49574
10666 29382 16573
16584 29382 36498
15681 29382 17137
8626 29382 41075
17146 29382 45797
6863 29382 58485
26953 29382 21494
19109 29382 41093
9420 29382 64794
11902 29382 13753
14217 29382 42052
11209 29382 12438
11015 29382 24478
19567 29382 35179
13675 29382 36456
7278 29382 37666
33721 20782 34583
5884 19434 78113
4429 22421 78113
7502 25331 78113
6776 25676 78113
6495 20290 78113
5583 15721 78113
33743 31532 83271
34717 31532 53494
36349 31532 27261
22429 31532 69812
15094 31532 81952
23844 31532 39291
37939 31532 9568
16836 31532 72834
33953 31532 65932
24425 31532 34141
17169 31532 58693
19275 31532 58831
33291 31532 67803
12934 31532 71580
11878 31532 64232
20511 31532 71126
26690 31532 46061
36446 31532 36931
29265 31532 34718
2374 31532 84108
31713 31532 32139
22634 31532 43632
27394 31532 77300
32763 31532 27241
29134 31532 58614
34159 31532 74480
37830 31532 26193
30948 31532 80148
39015 31532 50856
19460 31532 54952
22712 31532 51767
21098 31532 44652
31776 31532 41244
31743 31532 67627
26374 31532 35818
26648 31532 48381
30406 31532 34323
26218 31532 56080
15888 31532 66791
21163 31532 74615
37747 31532 13119
15687 31532 53613
14991 31532 65385
21948 31532 48185
26763 31532 36216
26680 31532 67566
32185 31532 18699
33790 31532 68917
19510 31532 51464
31455 31532 59377
3555 31532 82462
24848 31532 62911
22240 31532 58750
19763 31532 71358
29436 31532 49197
40032 31532 54822
21708 31532 76611
34585 31532 34536
3062 31532 81017
35671 31532 13029
33846 31532 63106
37291 31532 17451
34183 31532 55612
33029 31532 16326
20493 31532 66648
22848 31532 67345
34056 31532 59642
28628 31532 72678
20524 31532 77843
28724 31532 27585
9569 31532 79244
29319 31532 71333
11809 31532 76291
39761 31532 27240
4078 31532 78016
26381 31532 38375
11349 31532 64043
35513 31532 37195
31991 31532 52730
4417 31532 84652
3607 31532 81175
7168 31532 85129
29157 31532 59347
11282 31532 74226
35704 31532 10131
32988 31532 65340
34068 31532 82263
19620 31532 82886
13621 31532 65065
39700 31532 15419
23248 31532 44498
35971 31532 33360
34247 31532 28575
30838 31532 68846
19063 31532 62630
28992 31532 49967
27804 31532 55122
37338 31532 80298
29975 31532 33558
19483 31532 66793
37734 31532 65383
13186 31532 63378
4096 31532 77266
36098 31532 41932
27676 31532 67083
34847 31532 25594
13830 31532 62785
39138 31532 58197
38584 31532 42684
34031 31532 47186
28713 31532 53378
5909 31532 79575
39810 31532 55985
19364 31532 62208
16032 31532 65989
13653 31532 72401
39115 31532 41407
36233 31532 85664
20942 31532 76186
30727 31532 41131
28916 31532 37913
17675 31532 54780
10755 31532 72948
31391 31532 63765
28964 31532 80817
34140 31532 40896
35306 31532 44624
32195 31532 82955
34175 31532 17496
29130 31532 63758
14742 31532 85487
23557 31532 85693
12711 31532 67840
33918 31532 79290
27698 31532 57886
36309 31532 9463
29241 31532 53082
27866 31532 28289
17141 31532 49796
32810 31532 67657
17801 31532 50528
23430 31532 52583
28597 31532 71597
23196 31532 43552
24861 31532 38271
30485 31532 63973
36366 31532 13709
35624 31532 15623
10525 31532 80413
24444 31532 61510
31080 31532 28251
16031 31532 52608
12827 31532 65243
28727 31532 60048
27446 31532 63146
32075 31532 43245
34163 31532 32837
4643 31532 85943
25818 31532 68228
32480 31532 32743
32994 31532 75052
28697 31532 66964
20196 31532 72315
1893 31532 84451
14278 31532 66088
18816 31532 46844
26061 31532 73343
36048 31532 28524
5698 27915 55253
37159 28165 73813
33910 29382 9236
35810 29382 8044
38568 29382 43904
38777 29382 50029
39039 29382 55210
37187 29382 45010
38577 29382 57631
39554 29382 40354
39526 29382 26356
37067 29382 49307
39328 29382 21653
39280 29382 71574
39013 29382 72689
36461 29382 47840
38182 29382 58802
36668 29382 46118
37181 29382 56169
38390 29382 65848
39557 29382 57406
36290 29382 56365
37318 29382 40229
35216 29382 65924
36899 25082 77987
6198 29382 5880
12440 29382 1826
3382 29382 1229
20336 29382 794
8245 29382 886
6647 29382 2519
19052 29382 2191
5765 29382 2586
25704 29382 1765
31028 29382 314
1172 29382 5548
16767 29382 2622
13711 29382 1664
23119 29382 214
7792 25018 12183
7545 19400 12183
2004 29382 8599
291 29382 9387
5129 21431 24885
36437 29382 74732
32156 0 74591
5908 27728 40848
31531 7447 11833
31531 15350 11408
21704 29382 10534
12065 29382 11488
24747 29382 10256
7487 28458 73813
7994 27776 73813
6449 22850 41053
31531 25615 10153
7325 19499 78113
6630 6502 78113
8105 1227 78113
8471 24134 78113
6866 2906 78113
4936 3926 78113
7502 46 78113
11210 31292 0
12552 30805 0
8283 29968 0
10600 30937 0
35115 25664 50324
35115 21631 61126
35115 25342 48752
35115 25015 50715
35115 22864 52728
35115 22222 49423
35115 23851 47341
38052 25082 10254
40131 25299 74333
31952 5266 73813
32590 15996 73813
31967 17613 73813
32436 23006 12183
35832 7805 74259
35832 22669 76333
35832 21034 77127
35832 10545 74205
35832 22646 75003
38644 25777 12183
8599 19690 78108
8599 6769 77298
8599 4240 75441
8599 6217 76480
8599 11314 75715
8599 13891 76729
32913 22045 73813
31631 27005 73813
0 30279 74567
0 30029 61460
0 29649 41206
0 30714 67089
0 30654 59306
0 30140 68612
5993 27949 58627
4949 0 11916
33682 21343 44823
33682 27442 42203
33032 29109 73813
35036 24665 18553
0 28447 8895
38457 31094 85996
34186 31095 85996
23892 29382 82233
28056 29382 85380
39565 29382 80895
21836 29382 85078
11605 29382 83728
27592 29382 83554
36796 29382 85621
6991 29382 84970
15980 29382 83796
22203 29382 84487
19017 29382 84053
12388 29382 83851
21833 29382 85756
26882 29382 82228
32688 29382 84649
9167 29382 85022
26498 29382 80987
29947 29382 80707
37374 29860 85996
25247 31312 85996
23919 30512 85996
6577 31264 85996
38995 31373 85996
12457 29382 75038
14029 29382 74733
32096 0 77063
6330 20782 23304
34995 21380 26380
13024 29382 9923
16786 29382 9623
36324 25082 76197
5105 21990 33969
5105 25629 35415
5105 22795 37488
5105 25168 35421
5105 25339 39827
5105 25706 39217
5105 24267 32576
34001 20782 22090
3073 26348 78113
3033 28169 78113
4299 10100 11210
4299 20731 8884
4299 19594 9849
4299 22899 8458
4299 23440 10305
4299 12614 12171
31531 25228 11217
35042 24023 45791
8827 30867 85996
15035 30156 85996
1744 30236 85996
8210 31036 85996
6285 24903 73813
5699 23294 73813
5105 26657 26100
5105 25470 19927
5105 24600 27324
5105 25841 30192
5105 24194 23403
5105 26904 34357
5105 22855 22920
8283 15326 73813
6922 18580 73813
8001 17843 73813
7453 15403 73813
8143 24860 73813
4816 7073 12183
4968 10078 12183
5412 27045 12183
33770 27949 63753
33186 19863 12183
37158 26061 78113
36446 25602 78113
4299 13991 75128
4299 1715 75324
4299 6131 76888
4299 7583 74374
5609 27147 67957
5822 20782 60899
1208 30957 85996
25904 29624 85996
35047 29491 85996
7435 30116 85996
6848 30375 85996
8546 25492 12183
22085 26486 10033
17262 28798 10033
13501 28676 10033
9952 20652 10033
8846 27232 10033
12876 23899 10033
11380 22825 10033
12470 28192 10033
8746 24526 10033
22868 25582 10033
22369 28537 10033
6449 28465 53713
14754 24172 75963
13536 25332 75963
20026 20771 75963
11436 20151 75963
9775 26138 75963
24895 21041 75963
14366 26402 75963
18633 19766 75963
17148 19229 75963
10261 21598 75963
19409 19769 75963
31576 24014 7883
31712 21482 7883
33140 3311 7883
31676 9930 7883
32781 8579 7883
31580 22912 7883
33138 12797 7883
31531 11675 75575
31531 471 78058
8599 25696 75839
33746 27732 17916
40131 30053 10923
40131 30192 32006
40131 29407 60175
40131 30084 23178
40131 29582 33988
40131 29957 39398
40131 30470 35446
6449 20601 40742
6449 20591 48246
6449 20585 61500
31531 28490 74607
31531 28066 75645
33730 0 75979
34948 27399 33199
1858 27762 73813
34363 9977 7883
35078 304 7883
32043 9017 7883
33416 75 7883
31998 23733 7883
33914 1664 7883
6292 27949 29873
199 25394 78113
18537 29382 46837
29202 29382 22542
19085 29382 46902
16321 29382 54383
17788 29382 51018
24141 29382 35003
8627 29382 69295
35936 25357 7883
0 30685 81303
37204 29382 75003
17059 29382 12382
12739 29382 19526
24212 29382 29464
6846 29382 23750
20423 29382 14119
7343 29382 44396
22660 29382 32072
11134 29382 35014
22462 29382 27883
10369 29382 61916
6661 29382 27455
15803 29382 44448
21444 29382 29511
8697 29382 68304
31422 29382 15806
10458 29382 38730
11074 29382 18751
6473 29382 71816
17870 29382 39400
14153 29382 45181
11869 29382 51470
19916 29382 28040
16037 29382 16091
11579 29382 61307
25509 29382 20318
28480 29382 15516
26900 29382 19254
14389 29382 36794
10516 29382 34623
10968 29382 61659
8779 29382 32617
18459 29382 44128
24141 29382 31073
21554 29382 37158
12125 29382 22060
22187 29382 34518
24875 29382 13664
13861 29382 26891
14801 29382 36510
14219 29382 46387
24689 29382 25233
25672 29382 22176
13280 29382 37297
25590 29382 20946
16045 29382 32302
15979 29382 22865
18417 29382 18549
8822 29382 64526
15646 29382 46459
7899 29382 55777
19423 29382 31009
19726 29382 39471
18979 29382 22229
22761 29382 27089
8623 29382 51208
19986 29382 19734
24903 29382 18514
8211 29382 40459
8937 29382 29547
6622 29382 43244
14299 29382 40431
12386 29382 29020
16477 29382 40624
12808 29382 33470
10907 29382 57008
33255 29382 12933
7111 29382 61141
17251 29382 41390
15787 29382 14216
10640 29382 12369
6805 29382 49320
7430 29382 58615
23240 29382 18258
25232 29382 16096
16357 29382 50143
16083 29382 48026
11448 29382 19307
10006 29382 13569
15013 29382 39283
19299 29382 37928
16303 29382 14062
11076 29382 43821
17013 29382 28894
10704 29382 23802
33682 28545 24014
4299 16173 8297
4299 5075 9330
4299 2563 9646
4299 7938 9207
24408 18991 54689
13832 18991 29114
23239 18991 51331
29968 18991 66494
26975 18991 61917
26667 18991 58672
14796 18991 31515
22851 18991 50165
34671 27676 30715
40131 29897 82779
40131 30271 57200
40131 31379 10546
40131 31478 85994
40131 31498 48985
40131 31047 67092
40131 30088 67607
40131 30621 79827
40131 29187 11306
20886 29382 77882
21434 29382 77248
15285 29382 77511
34347 29382 75625
34567 27036 67912
6785 23997 12183
5551 29382 58315
3399 29382 55686
1508 29382 67628
6179 29382 25755
3818 29382 45947
2807 29382 68639
4811 29382 40757
6331 29382 31815
5152 29382 69533
1975 29382 62210
5556 29382 65337
2708 29382 60715
3852 29382 42590
6423 29382 35858
3568 29382 70774
2875 29382 59482
4122 29382 58618
2317 29382 72878
4785 29382 37576
4558 29382 51767
5946 29382 70920
5998 29382 54272
8599 10909 8850
8599 9006 8102
8599 15083 8679
8599 13372 8536
35832 24768 8340
35832 7988 7974
35832 11880 9816
8599 5843 77945
8599 7001 76063
8599 7934 76762
8599 18977 77069
