ply
format ascii 1.0
element vertex 2739
property float x
property float y
property float z
end_header
49724 0 3662
4427 48351 16899
12790 48291 59863
5196 48946 19694
6750 4429 7345
49046 17053 58877
49830 30815 57938
4427 41921 58664
4427 39329 58662
4427 44804 58758
5889 42698 60633
5571 39325 60633
5934 41356 60633
5196 47609 19787
50249 49661 6404
50968 21343 6345
51393 48896 55686
49196 15178 5108
51440 10686 5708
51818 5217 59078
50048 16414 4685
31 50822 31204
55628 50446 44566
55628 50899 40141
55628 50727 30310
55628 50376 58103
55628 50663 51979
55628 50349 9506
55752 51449 50233
5282 47713 4426
5330 40498 4426
6263 45250 4426
7122 47238 58475
7122 42320 58912
7122 39178 57941
5980 31344 57938
6103 15605 60318
6845 15480 59150
51182 48369 30517
5190 45523 8351
5130 8610 4374
4949 1159 61190
6780 34290 57748
3760 1730 5482
7122 48473 58091
7122 43850 58348
6501 0 60053
7705 49730 4149
191 50957 26949
191 50984 19003
191 51235 48919
191 51324 9282
191 51026 29573
4310 33871 59196
50716 17098 58439
19402 48915 60633
40777 48886 60633
1958 51479 64928
50373 21196 60319
14708 48988 4860
27321 48988 4533
49611 2584 3840
23014 47519 59863
48826 51490 21971
54218 51490 51465
52083 51490 18877
30451 51490 41761
46717 51490 60198
40186 51490 28108
46324 51490 32846
50863 51490 45119
44692 51490 21339
13092 51490 53893
51974 51490 40805
22118 51490 40966
24097 51490 45608
55134 51490 10013
37919 51490 44681
41818 51490 18405
55414 51490 60395
39976 51490 35575
52854 51490 43632
42844 51490 16350
33315 51490 35004
35592 51490 26727
33163 51490 27315
16503 51490 49673
50609 51490 31701
15530 51490 63551
49328 51490 32833
55447 51490 29429
40276 51490 24674
32801 51490 51744
46849 51490 43963
27191 51490 59635
28800 51490 64321
10024 51490 53964
44686 51490 58570
16685 51490 48577
48881 51490 46085
33937 51490 63299
51260 51490 16559
16768 51490 57376
49933 51490 13358
14914 51490 53184
54333 51490 47674
42844 51490 46792
13404 51490 51059
50336 51490 44481
4111 51490 60688
31010 51490 57129
46506 51490 24257
31937 51490 42078
38699 51490 26010
26873 51490 43530
46733 51490 17018
49279 51490 12439
51039 51490 33787
54165 51490 22440
47763 51490 62897
46304 51490 64447
37002 51490 27800
27688 51490 40553
45315 51490 40381
54571 51490 23693
30672 51490 63608
47088 51490 26306
13515 51490 60155
51284 51490 20859
50171 51490 25152
33376 51490 59214
52660 51490 57282
42850 51490 33430
41941 51490 39814
33255 51490 37038
26913 51490 47139
18719 51490 60395
15816 51490 50362
12693 51490 58791
44589 51490 51209
42077 51490 42969
55043 51490 15107
18900 51490 62548
39008 51490 37347
9733 51490 63148
46691 51490 10944
44227 51490 41112
52651 51490 31710
41915 51490 45019
39947 51490 24334
46611 51490 31737
55424 51490 53804
42018 51490 49753
18301 51490 54973
55369 51490 62683
21948 51490 61516
14495 51490 56198
11696 51490 53183
41099 51490 22595
27150 51490 50716
41656 51490 56054
43361 51490 41048
25644 51490 41406
51702 51490 26126
30161 51490 45125
49153 51490 36423
42318 51490 25367
37888 51490 51553
11152 51490 63310
19923 51490 60728
47263 51490 61997
31690 51490 28193
43028 51490 23878
21141 51490 43129
54898 51490 20775
3786 51490 61743
41363 51490 47040
24337 51490 37544
29116 51490 52982
53459 51490 6401
22620 51490 56006
31070 51490 60228
46349 51490 41370
44593 51490 22124
50909 51490 15795
33001 51490 62168
53167 51490 24402
53749 51490 43843
47384 51490 21357
55484 51490 55600
53779 51490 41838
22491 51490 41297
21862 51490 63063
20402 51490 47200
43635 51490 15295
31942 51490 61300
41563 51490 26798
39389 51490 60140
42232 51490 54089
25536 51490 47725
39849 51490 31746
30745 51490 53877
20519 51490 59924
43698 51490 34576
33856 51490 25804
40626 51490 62276
55459 51490 44284
31291 51490 38635
54773 51490 48049
38161 51490 32325
48878 51490 16227
23535 51490 56629
36887 51490 41782
53419 51490 19597
55408 51490 45390
44513 51490 43094
15541 51490 57391
53453 51490 53934
14261 51490 58949
23075 51490 49167
9202 51490 58383
21808 51490 60454
18496 51490 44011
45083 51490 53908
30610 51490 60740
48768 51490 10368
39875 51490 27235
45241 51490 24780
49745 51490 30506
32024 51490 45985
32809 51490 34587
42768 51490 64165
22163 51490 49278
13831 51490 58117
45326 51490 32180
42916 51490 58949
47819 51490 32066
25646 51490 36079
51704 51490 54315
38727 51490 50824
46217 51490 62385
34081 51490 44795
25483 51490 61865
50422 51490 41694
35230 51490 36902
25729 51490 39893
54399 51490 21265
28320 51490 51340
53106 51490 27457
54761 51490 26252
43713 51490 54764
43511 51490 56611
24288 51490 56671
43303 51490 17347
38801 51490 28516
45809 51490 52563
42670 51490 34437
33414 51490 53366
43323 51490 28104
48141 51490 46864
52588 51490 50278
27170 51490 52532
24978 51490 62975
35529 51490 34798
39225 51490 41744
55474 51490 27855
20596 51490 50329
33177 51490 40632
8420 51490 56247
52160 51490 5492
49572 51490 11586
22261 51490 50880
41007 51490 53114
44977 51490 16518
41360 51490 21008
27452 51490 41248
48932 51490 8410
41728 51490 48664
6831 51490 59528
22031 51490 54168
53683 51490 57981
26672 51490 51260
44588 51490 38590
30658 51490 35021
30087 51490 40670
42175 51490 24256
14254 51490 48905
30485 51490 42927
18624 51490 47234
41910 51490 27466
23218 51490 59767
10426 51490 60291
52126 51490 57596
20513 51490 53184
48698 33186 6234
50952 1424 3924
4239 5839 58446
34871 48233 60633
50972 14505 58659
5187 31830 57938
50623 48864 12010
51099 29550 6047
55727 51280 61938
43404 48980 4426
50663 50327 4440
48698 47753 6450
48698 47003 5546
48993 17458 6047
5671 26296 4698
7193 49029 60072
989 51127 35
48318 29992 58089
50298 33824 4324
9087 48687 60633
5196 48365 47145
6105 48711 60633
5426 44557 60633
4466 8945 6558
40504 47063 60456
18345 48988 5087
28095 48988 5029
4016 5062 58881
40871 48988 4454
21552 48988 4581
7122 46667 4625
4427 32582 6839
6766 1550 3969
49981 51061 65059
49663 0 58919
30898 50372 173
48491 50393 163
6642 16609 6415
5834 0 6216
51684 6276 58776
5361 29530 60283
50623 48021 12221
50623 47999 11571
48336 47931 4426
49774 91 61421
0 51032 63219
6461 14537 4898
48698 39466 59763
48698 37407 59999
48698 48414 60595
50623 47302 15506
50623 48053 17254
33027 47380 60633
48698 44694 59929
5153 45743 7121
4830 4064 4144
48222 4698 59390
50782 47063 46890
4427 48960 48609
3728 1053 59705
50488 24602 4788
5607 37897 4426
6148 38946 4426
50839 45942 57938
17917 47523 4481
7122 46815 5605
7122 47627 4727
49569 27828 60256
5196 48606 14408
4427 47846 56374
5605 22547 6840
5984 34517 60816
7131 5640 58175
6113 22640 60313
396 50452 64868
19734 50856 64868
5770 51318 64868
6156 50621 64868
4427 48240 40407
55628 51487 52067
55628 51354 31082
55628 51384 23770
55628 50481 3286
55628 51113 7238
50623 46918 55119
51393 47186 57482
5196 47511 49786
6381 17311 60179
4427 45645 55879
50915 50059 58429
51196 0 6370
51681 1270 58020
4886 48988 46640
4552 48988 49936
4661 48988 47817
7019 9530 60084
49568 49622 7704
44566 48579 4426
7269 8446 5329
51065 23159 59646
4000 2425 4871
10672 47488 4426
7026 44429 60633
7677 1815 6480
7447 29825 59900
191 50414 39664
191 50488 12526
191 51226 60378
50623 47816 26323
50736 45903 10047
50516 21282 4800
5621 2280 7766
40244 47297 4426
5115 30689 4426
14937 50989 0
50623 46414 8030
51483 34927 60199
51462 50296 58591
7122 47257 6896
7122 35594 6676
50485 0 60835
48791 48909 7121
48727 35320 7121
4621 48988 57130
47202 47327 60633
5075 47893 21472
50039 31156 7121
50747 22274 58463
7518 0 6519
8376 47022 59863
4864 38773 60633
5153 43702 60633
40420 50850 20
50623 48933 10770
25291 48169 59973
55739 50557 20196
55813 50706 8273
28790 48510 4426
48251 2631 58472
48698 47319 60555
51393 48072 21896
55788 50819 35158
5607 11682 7083
8858 50470 64935
4860 13117 4968
49464 29887 60200
50623 48217 43392
3991 0 4708
4895 49772 61216
0 51081 62295
5616 16484 4705
16302 48868 4426
4703 14830 6006
50611 5974 57647
6199 9060 60740
5468 42001 7121
5926 48912 7121
55628 51344 47597
55628 50919 4346
55628 51019 20495
55628 51294 52909
55628 51317 46979
51393 48876 56950
49371 16191 58443
5196 47187 13250
51404 4078 4479
6296 10031 4433
6368 50260 60504
51909 2466 59967
5891 16418 6847
6488 50057 61115
5651 12030 57996
4714 25754 59501
44480 47726 4426
41732 47260 4426
47411 45693 59863
4022 5051 5327
6337 41175 57938
5766 38181 57938
4816 4284 60884
53921 50966 191
37694 50472 191
27420 50880 191
31618 50537 191
42271 50874 191
4427 39188 60073
4427 36543 58331
51342 29703 7325
5196 48923 7279
49948 49734 60050
48566 3423 4559
51359 45549 9471
19233 51460 191
51030 51426 191
37261 51230 191
26217 51324 191
10201 46830 60633
51902 1075 6733
5196 48904 41757
5196 48561 31890
6866 3655 57733
4848 48208 29542
51393 38515 4905
51393 47077 5091
4158 29800 57631
51675 49150 5177
6701 9864 4658
48698 45896 60127
4774 27786 6181
49054 15833 5348
48495 7930 59678
4484 47344 25498
191 51484 8706
191 51048 19797
191 51035 27401
191 51276 26104
191 50916 16082
7138 8340 58504
52151 96 59780
29925 48487 5196
48427 6301 58736
4427 48501 25357
31585 47842 5190
51393 40131 5659
51393 40484 6163
4427 33418 59559
48774 5321 60545
48128 46069 4426
7423 5627 6378
51135 43468 7121
6654 49084 7289
7195 9256 58814
48968 23312 59373
6975 6943 6935
50941 47498 39894
51393 45669 7838
19246 48988 60072
30457 48988 59969
38665 48988 59909
48698 37174 6323
48698 35625 6315
4606 9518 6674
6726 29776 58765
48985 18563 59496
4000 141 58067
49074 23879 58811
51393 43890 6150
51130 47063 15930
50168 35190 60633
50855 37918 60633
50522 41274 60633
50278 15557 6833
55755 51342 56134
48698 41016 58684
51393 47777 38147
4044 2021 6826
8808 46711 59863
49536 21779 60243
6289 2501 57357
51498 9615 59073
51393 33151 58609
4801 29945 58586
50018 4816 57461
51393 48010 23579
40834 48429 60633
4427 45465 5942
4427 44358 5613
4427 46727 4746
17185 51317 79
51393 39978 59521
51393 37787 59406
51393 39589 58859
7141 2820 60703
50932 50776 65028
51330 11196 59723
51393 47240 48819
51229 8772 58315
34742 51145 54
4427 47761 19694
50623 47554 55337
50249 38717 7121
49181 36672 7121
51085 35326 7121
7705 49742 59713
5855 7042 60942
55820 50973 13254
55798 50675 41475
55795 50669 12638
51393 30859 4544
39702 48933 60633
5450 13645 58145
41538 48114 59863
16969 47927 60633
50832 42330 4426
48936 35153 4426
5726 29647 7088
5699 29864 57593
7356 6357 59914
49798 10279 57886
4675 670 57466
7120 30769 60633
5984 5878 7497
33 50813 31826
49848 28475 60348
4925 46952 52015
3816 2217 59732
55688 50455 32012
55658 50396 19132
4474 38223 7121
4632 43670 7121
50743 25518 4948
26084 51490 51505
52485 51490 58951
18517 51490 56173
27000 51490 39880
43153 51490 20880
36057 51490 38561
33161 51490 58054
48120 51490 50116
44915 51490 57936
40963 51490 53734
54151 51490 28176
6150 51490 61185
25279 51490 50305
36630 51490 47739
21477 51490 59511
50520 51490 15514
11452 51490 57060
30015 51490 41621
46719 51490 34255
14154 51490 61185
17937 51490 60576
18359 51490 54375
26065 51490 58776
44262 51490 50127
43127 51490 25492
49789 51490 57191
16805 51490 47356
38522 51490 44337
28514 51490 61427
46560 51490 15218
38930 51490 34180
33138 51490 32415
35652 51490 29603
47824 51490 50811
40810 51490 24845
18602 51490 49833
30026 51490 63899
24515 51490 44831
32070 51490 59885
32249 51490 44087
48898 51490 43534
19597 51490 54371
43041 51490 32410
31278 51490 54713
35099 51490 31357
49898 51490 9995
43710 51490 45405
42147 51490 31941
39880 51490 46312
54598 51490 16364
49084 51490 47040
19835 51490 59661
4260 51490 60171
14116 51490 59959
23465 51490 38834
22986 51490 50759
47794 51490 51310
47176 51490 36079
21456 51490 43465
8547 51490 63552
49652 51490 26283
46299 51490 33935
49339 51490 23014
29221 51490 37538
33805 51490 43748
32657 51490 57960
53368 51490 58615
24387 51490 64441
37174 51490 31451
13465 51490 63649
55062 51490 17347
48500 51490 45483
52195 51490 20804
49500 51490 43035
39698 51490 23166
47367 51490 52940
52325 51490 60440
41668 51490 54184
46080 51490 50789
21127 51490 61637
48354 51490 11780
25641 51490 37224
35064 51490 34962
42411 51490 21180
12905 51490 57233
37670 51490 33605
40818 51490 56414
40005 51490 20249
47751 51490 47570
20404 51490 44930
34248 51490 29999
48494 51490 17219
21597 51490 45726
44304 51490 34036
33967 51490 49709
47312 51490 33985
51650 51490 41591
51815 51490 52866
45771 51490 36571
49750 51490 45659
47116 51490 58473
45638 51490 18656
29931 51490 43152
45496 51490 47825
42518 51490 19241
46853 51490 50905
52888 51490 58131
48682 51490 18397
49922 51490 64736
5575 51490 59485
48403 51490 39604
48622 51490 36482
29057 51490 42751
17169 51490 49881
53256 51490 49849
11451 51490 58207
55241 51490 61874
39432 51490 26582
31792 51490 39367
47426 51490 61011
53736 51490 47200
33580 51490 38799
53684 51490 30324
53390 51490 59838
27383 51490 47403
17406 51490 61095
41366 51490 19851
40178 51490 54878
26866 51490 53341
21438 51490 54959
16706 51490 61224
20777 51490 48464
43884 51490 51983
33674 51490 59673
26447 51490 57870
38324 51490 26471
30012 51490 54900
2440 51490 62255
18280 51490 59278
10925 51490 64794
43231 51490 19140
34646 51490 53664
19161 51490 52207
51019 51490 25909
43779 51490 32495
35332 51490 39002
30397 51490 53349
35790 51490 62891
42032 51490 21940
28922 51490 36443
32245 51490 60380
48022 51490 12660
39255 51490 39647
36069 51490 46543
41995 51490 20501
46311 51490 48042
47746 51490 53225
35645 51490 50263
21864 51490 53422
34646 51490 43543
26100 51490 35418
52538 51490 27934
42829 51490 41733
54985 51490 29047
52530 51490 32611
53992 51490 32721
44269 51490 33050
22536 51490 63150
9161 51490 62276
47210 51490 26754
47510 51490 63581
38900 51490 50355
23741 51490 51658
6109 51490 63949
16736 51490 58990
55065 51490 54681
52435 51490 25170
55533 51490 9400
54309 51490 7419
27691 51490 36328
13514 51490 52515
30026 51490 63303
37702 51490 36807
7156 51490 64454
37458 51490 61379
37323 51490 45840
31314 51490 49515
26728 51490 45601
28281 51490 50500
35330 51490 54617
33749 51490 48863
19867 51490 56366
55135 51490 40753
34275 51490 31935
37226 51490 44481
10622 51490 56425
32972 51490 53215
38707 51490 36913
51340 51490 29264
35903 51490 40051
33723 51490 54115
39417 51490 46255
54832 51490 19525
27291 51490 39063
43197 51490 31805
50052 51490 8565
21385 51490 64576
50718 51490 48161
17620 51490 56836
25875 51490 62342
24736 51490 48379
17856 51490 48794
43398 51490 40399
37799 51490 22778
17480 51490 54441
51162 51490 56527
29128 51490 59185
40836 51490 60361
39347 51490 62376
18093 51490 49908
46500 51490 54069
46723 51490 20006
24570 51490 58450
33578 51490 40872
23381 51490 53406
48771 12263 59391
49693 1058 3719
7122 32972 58874
4661 6704 4514
5362 22995 4776
47373 48988 60561
41191 48988 60205
49162 20619 6395
51393 46405 6479
51393 40564 4629
50462 32235 60633
6861 15454 5763
16428 47063 60433
13525 47063 60148
14132 51004 0
46677 45627 60049
47024 47976 5196
5265 15014 58770
51393 48518 60443
51393 46753 59218
48421 4466 6655
55742 51321 33227
50721 15014 6160
31571 47848 59958
6004 25533 4715
51119 29360 59404
48932 14242 5537
35929 48988 60419
38280 48988 60322
11207 48988 60619
48548 33993 58830
49201 30384 60769
5690 919 7873
51116 20299 5631
21400 48807 5196
32574 48986 5196
13105 47737 60633
48698 33248 58079
47033 48178 59863
55777 51133 10658
3920 1206 6713
51393 47975 39117
49867 51467 97
32800 47450 59863
5421 31627 60633
7122 35368 58794
7122 42036 60180
7122 41696 59836
51006 18231 59788
17886 48314 59863
11959 48137 5196
45860 51172 64985
9443 48726 4426
30530 48420 4426
4427 47801 8955
5099 48988 48028
5155 48988 22302
7059 5196 58026
4814 25007 58781
48659 50312 58515
50623 46334 56529
4939 8359 60609
50971 47781 21014
51116 16829 5634
6151 41904 7121
5517 40284 7121
50098 19790 4692
5935 26168 60353
4427 33575 4946
50781 13587 60211
27016 50659 29
48571 29668 58962
36756 50721 191
28977 50535 191
50299 22217 58230
55788 50778 21331
6820 23964 6066
14424 48487 4426
38755 51490 15189
5960 51490 16938
40115 51490 11520
8176 51490 31958
29189 51490 27771
32487 51490 23596
3870 51490 23122
2960 51490 50394
24772 51490 32898
5871 51490 2328
33785 51490 16487
7600 51490 29532
19345 51490 18227
25651 51490 24310
13515 51490 32400
17132 51490 23679
32896 51490 20589
32534 51490 13262
14083 51490 18208
44183 51490 12452
21667 51490 24885
12676 51490 9875
6398 51490 11254
23599 51490 17281
41150 51490 15665
7333 51490 23770
6869 51490 25044
9524 51490 1188
11487 51490 48647
17950 51490 21447
13628 51490 4236
6911 51490 7467
15520 51490 42562
16140 51490 13550
17317 51490 5708
45211 51490 11848
8755 51490 47516
25065 51490 17617
6359 51490 22162
12614 51490 11224
17394 51490 12561
36385 51490 3773
25407 51490 9303
2243 51490 13644
2734 51490 36746
9052 51490 42705
18248 51490 22720
33989 51490 3540
8929 51490 44766
27687 51490 31054
18752 51490 28988
16539 51490 40851
26638 51490 14985
3131 51490 42358
33011 51490 22042
16968 51490 24577
9622 51490 36094
9369 51490 37948
32824 51490 4545
4350 51490 12905
14849 51490 12445
32461 51490 26824
23174 51490 37875
42163 51490 6968
5020 51490 49884
11155 51490 21147
27156 51490 9674
2251 51490 41078
7428 51490 24635
9427 51490 21146
6147 51490 44909
17434 51490 14861
33952 51490 12921
27002 51490 28126
2300 51490 59446
13770 51490 2023
34188 51490 18690
28563 51490 19266
11204 51490 26801
24101 51490 22553
30888 51490 4513
34080 51490 22940
6660 51490 30067
31976 51490 11463
10247 51490 36606
13675 51490 10038
33298 51490 11063
8502 51490 52196
37052 51490 5779
31493 51490 4250
46849 51490 6884
19377 51490 14461
4907 51490 48244
41746 51490 15312
2239 51490 37302
25340 51490 16524
19802 51490 8593
25282 51490 12515
27238 51490 18427
53975 51490 1118
936 51490 56582
7225 51490 37975
12810 51490 23437
32903 51490 11426
15741 51490 21710
8801 51490 33826
17006 51490 12233
2340 51490 2423
21652 51490 10426
23714 51490 6624
35610 51490 3361
7671 51490 20924
29490 51490 23442
33134 51490 12160
3719 51490 15266
3203 51490 41006
32829 51490 750
20992 51490 11712
20860 51490 10385
13385 51490 24502
1639 51490 8896
31277 51490 20934
36564 51490 6076
39389 51490 17507
8774 51490 32422
7484 51490 45315
26037 51490 4685
13092 51490 43880
608 51490 11451
21055 51490 12583
14072 51490 23336
24668 51490 33760
28479 51490 16142
7320 51490 18974
45902 51490 8915
10001 51490 51965
25579 51490 17961
7349 51490 10245
28984 51490 20127
5509 51490 49936
625 51490 34968
25739 51490 13305
3924 51490 14774
20970 51490 1775
27432 51490 13172
30959 51490 20476
42697 51490 9031
29948 51490 6130
28140 51490 3232
27896 51490 17384
14900 51490 1061
31637 51490 12665
28521 51490 8519
14020 51490 35628
10634 51490 48956
27265 51490 17700
6121 51490 4766
11534 51490 9842
18983 51490 42194
31227 51490 13916
17675 51490 3595
29610 51490 14742
16146 51490 21327
3115 51490 26423
27701 51490 23252
36949 51490 13479
21573 51490 17121
7653 51490 38149
35962 51490 2055
1914 51490 32398
21155 51490 9703
20586 51490 6846
18757 51490 15458
27405 51490 28652
22612 51490 14644
46066 51490 7961
35715 51490 15260
14522 51490 28138
8767 51490 43153
7343 51490 17518
13019 51490 38857
28273 51490 27750
35481 51490 22737
4295 51490 38151
43031 51490 12061
31454 51490 10841
3459 51490 22729
36613 51490 8139
5598 51490 52652
37031 51490 16552
19106 51490 35825
28090 51490 19701
23438 51490 5274
25562 51490 11018
24153 51490 29458
19814 51490 23171
49090 51490 3226
1346 51490 60965
6008 51490 42693
15005 51490 23338
4315 51490 25409
8130 51490 10254
12282 51490 6571
36854 51490 6495
9825 51490 17514
29598 51490 12076
34129 51490 6406
2971 51490 48905
863 51490 19860
14538 51490 10597
11113 51490 7128
6828 51490 50920
9250 51490 38682
27475 51490 25745
10295 51490 23016
7231 51490 33354
34409 51490 22174
6506 51490 56830
10145 51490 33022
2949 51490 7774
45633 51490 2725
21642 51490 26593
7627 51490 30815
3144 51490 4153
17402 51490 43235
43804 51490 5413
18178 51490 36641
37072 51490 3027
3741 51490 29658
28723 51490 1052
12973 51490 32326
25847 51490 27305
20288 51490 18269
35593 51490 12520
14746 51490 25033
48115 49440 5709
16682 51242 95
55800 51116 45482
50949 48786 4426
50645 46476 4426
49204 42835 4426
50943 46972 13173
48698 46991 5024
51048 26575 59686
50461 11427 58010
6087 396 3666
7122 42363 6650
7122 45646 7069
7122 37157 6429
3843 49931 5480
4211 8230 5636
7064 50302 58530
4427 47629 50277
5128 21876 58420
6751 21498 6235
6459 0 5443
50971 3985 7418
47745 50622 64868
55464 50813 64868
54604 51457 64868
42697 50706 64868
5403 50293 60706
4510 33177 7121
6274 43654 4426
4634 35777 4426
6081 43012 4426
4796 11334 60219
48677 35085 5193
5620 30786 60633
49007 18454 6087
6974 2801 57738
50040 37008 57938
49661 38627 57938
314 51147 65003
51191 13259 59672
48698 31498 6557
48659 7432 58424
51340 32781 60633
11066 47259 60633
48698 41655 6970
48698 43990 6508
6363 17647 58376
49155 5229 57724
51393 48570 52932
3843 49345 6991
50483 29950 7496
51393 47406 13365
51393 47661 19149
8783 48330 59863
51116 15002 59435
7122 35655 59464
7122 39895 60246
7122 39358 60293
48698 46343 60401
51016 6461 57894
5876 20695 6850
48407 29781 59940
5618 49661 58984
46478 48032 5196
7374 5404 58520
5571 6979 4130
46607 46275 4426
48674 30410 5348
51103 23913 59044
40607 47467 60633
50261 49450 61216
49899 8070 7347
34 50793 64333
7138 33952 7262
5673 51490 8632
15349 51490 13968
25913 51490 8873
9829 51490 30460
29486 51490 10416
4176 51490 38809
39202 51490 2548
23285 51490 19712
229 51490 52982
4571 51490 26796
41122 51490 14335
7613 51490 12651
3365 51490 37599
20242 51490 6352
14288 51490 25176
34399 51490 18277
16766 51490 20724
24517 51490 5230
15691 51490 44860
30366 51490 8743
10937 51490 29175
14525 51490 26716
21723 51490 18804
7711 51490 36440
36473 51490 3320
1619 51490 53901
3385 51490 52022
21204 51490 845
21434 51490 6245
24506 51490 18710
5545 51490 5251
5979 51490 38957
6742 51490 45812
1066 51490 22513
33454 51490 16946
958 51490 17452
3285 51490 1674
11405 51490 6578
27487 51490 4590
45370 51490 4505
26336 51490 33770
26674 51490 14005
14241 51490 7701
25795 51490 6728
53046 51490 2678
45927 51490 5053
40962 51490 4721
24530 51490 30153
34323 51490 3851
7608 51490 2159
32531 51490 24700
8959 51490 9920
17499 51490 39357
34778 51490 7503
15884 51490 15152
27360 51490 26649
29870 51490 13711
9816 51490 19355
2646 51490 12828
8082 51490 45721
15975 51490 18672
7421 51490 22323
12022 51490 33078
28121 51490 709
10403 51490 16285
17291 51490 13582
2921 51490 19559
3960 51490 59506
12104 51490 34775
12029 51490 20609
1635 51490 45122
2245 51490 56778
11132 51490 10160
15824 51490 4758
9957 51490 5188
11344 51490 45994
20544 51490 39804
25925 51490 3121
7542 51490 11115
48471 51490 7597
18188 51490 28833
14250 51490 35137
11044 51490 11403
6499 51490 24747
19621 51490 36770
14363 51490 23776
29413 51490 30485
22309 51490 9204
14350 51490 33045
4766 51490 45727
12627 51490 7931
27047 51490 6213
669 51490 18532
20871 51490 14811
35494 51490 20017
19198 51490 4291
18863 51490 40052
31285 51490 10015
21314 51490 10735
38342 51490 6757
16661 51490 35883
10227 51490 10100
13779 51490 6060
9634 51490 45021
33018 51490 5143
13681 51490 4914
7465 51490 32112
12852 51490 46740
1946 51490 57196
3218 51490 12667
12041 51490 1524
16581 51490 33354
34989 51490 19007
5162 51490 33873
22167 51490 24209
26730 51490 10286
18796 51490 37852
7265 51490 31616
28859 51490 6093
22115 51490 26165
811 51490 21951
1743 51490 10278
33086 51490 22896
16879 51490 11627
20654 51490 35076
3386 51490 43938
8301 51490 19280
19824 51490 21044
6054 51490 9381
10234 51490 49703
8884 51490 206
7115 51490 35734
10214 51490 15048
18075 51490 35895
6056 51490 47822
17167 51490 29498
29745 51490 21110
26850 51490 26134
19593 51490 23890
272 51490 4604
24469 51490 1334
19178 51490 19311
620 51490 32561
25107 51490 28940
33457 51490 17822
9073 51490 50632
8584 51490 13351
49298 51490 6710
10836 51490 4874
18974 51490 25611
7610 51490 16741
12018 51490 11104
52151 51490 1556
3509 51490 6295
12632 51490 34169
6919 51490 44795
26283 51490 16072
12146 51490 26434
2900 51490 37362
21169 51490 4226
16427 51490 38196
717 51490 29911
18995 51490 38744
23240 51490 19027
16716 51490 14873
14975 51490 3351
1514 51490 59585
19628 51490 38217
5595 51490 19538
14924 51490 41711
7600 51490 41816
41934 51490 11391
7706 51490 26325
30389 51490 3470
24507 51490 6608
7436 51490 46612
45512 51490 10067
16834 51490 10779
21967 51490 29221
9457 51490 43507
18790 51490 31147
17924 51490 41014
26083 51490 1447
7983 51490 20321
1260 51490 1756
20807 51490 17092
8139 51490 4545
45586 51490 3876
17461 51490 38667
5369 51490 53274
9217 51490 29819
15647 51490 43690
18687 51490 21484
4233 51490 3601
22211 51490 16734
48936 51490 1865
4615 51490 17915
12184 51490 46969
14830 51490 34466
3503 51490 45207
6471 51490 33999
24552 51490 8164
28854 51490 30313
30832 51490 26012
5551 51490 34241
10080 51490 45674
712 51490 37701
30891 51490 25066
8839 51490 21098
10209 51490 3493
37986 51490 10816
31627 51490 805
55628 50870 49145
55628 50369 15901
55628 50340 16859
51171 48988 31064
51173 48988 27201
51268 48988 28834
51092 27696 6068
51872 50058 59603
4427 47853 4582
4427 48512 5206
4427 46430 6447
4403 34096 57767
51393 48759 33634
51393 48855 21665
48538 103 7329
55812 50896 51167
4427 48759 43107
6616 15754 59962
49156 50071 6509
48698 31433 5699
50142 25078 4698
27088 51290 89
15944 48625 5196
48796 0 60668
4427 42556 60061
4427 48760 60615
5196 48484 10043
5196 48088 16454
51037 27163 58857
51393 33104 6969
5051 45836 55128
7039 0 4586
50244 1043 57209
50495 24530 58303
35259 48041 5196
49449 38172 60633
50613 45406 60633
50356 31609 7121
39724 50335 11786
29747 50335 5314
31975 50335 6626
20584 50335 36179
2310 50335 20736
29738 50335 7168
35409 50335 9928
8672 50335 20960
14717 50335 1912
25101 50335 18919
5471 50335 19470
4957 50335 52955
38407 50335 16312
27847 50335 26860
37149 50335 4981
37140 50335 5895
36965 50335 6485
12838 50335 6423
1519 50335 8650
12339 50335 47242
5978 50335 11781
32291 50335 22697
10411 50335 1883
26718 50335 8728
22789 50335 16762
5328 50335 37658
42815 50335 7351
38357 50335 15582
10477 50335 2378
42534 50335 14479
4101 50335 46953
16914 50335 8519
33633 50335 9859
2184 50335 60560
22666 50335 37946
5000 50335 45014
6929 50335 28601
20872 50335 24982
29782 50335 25528
24539 50335 6790
10574 50335 47563
36668 50335 8288
38088 50335 20044
11080 50335 3509
43071 50335 10926
43139 50335 13575
11917 50335 32120
3663 50335 44015
9910 50335 19500
4579 50335 16241
12807 50335 44222
8235 50335 35982
2218 50335 45830
27218 50335 3358
8305 50335 3380
608 50335 54456
36228 50335 17459
8100 50335 15689
23968 50335 17329
8556 50335 16052
4069 50335 43350
25564 50335 24435
43059 50335 8163
11793 50335 28029
20650 50335 34858
20909 50335 5858
29652 50335 8807
2404 50335 17181
39543 50335 10586
15733 50335 22473
10516 50335 44704
3790 50335 48914
8898 50335 42095
19560 50335 27825
27149 50335 24387
14358 50335 19061
1324 50335 2667
13683 50335 41259
16540 50335 34770
8012 50335 47095
4030 50335 15753
558 50335 22082
9786 50335 35766
3180 50335 19102
18566 50335 9748
18942 50335 37629
12147 50335 17439
4639 50335 14281
6050 50335 7494
33804 50335 19597
23415 50335 28812
5194 50335 2715
5412 50335 3471
38043 50335 16010
18341 50335 25532
898 50335 32781
15653 50335 34393
21874 50335 27532
31878 50335 2522
22457 50335 13123
9436 50335 36666
36720 50335 7058
9910 50335 15527
35280 50335 14125
17652 50335 27493
27855 50335 28887
18392 50335 13599
2388 50335 59368
4560 50335 46582
694 50335 61344
4044 50335 16264
27609 50335 6124
608 50335 59722
4299 50335 59635
3336 50335 4524
11348 50335 21974
33912 50335 7056
21050 50335 37329
32462 50335 2562
29745 50335 14767
35692 50335 21840
22055 50335 35585
6492 50335 5564
21818 50335 5850
17606 50335 21225
2245 50335 2751
37830 50335 11336
35989 50335 9564
12042 50335 18355
18472 50335 8659
30191 50335 14308
41428 50335 14179
5614 50335 58035
12146 50335 6001
25665 50335 21247
6438 50335 19850
46192 50335 1943
30175 50335 22607
21659 50335 16326
9489 50335 5568
35429 50335 16346
2750 50335 61196
8511 50335 2376
33455 50335 24145
42856 50335 6409
8067 50335 26145
48598 50335 726
25043 50335 33519
37216 50335 19242
17874 50335 16650
5526 50335 23398
13833 50335 18494
19921 50335 28172
13120 50335 33605
24503 50335 18076
52092 50335 242
34781 50335 18604
30182 50335 10158
32440 50335 21756
1979 50335 53385
3042 50335 35066
28367 50335 28826
8489 50335 13514
29240 50335 3280
4591 50335 9234
3711 50335 48185
23127 50335 7473
5365 50335 27560
8888 50335 24191
32297 50335 4270
10511 50335 51140
27498 50335 27961
39431 50335 7169
16493 50335 23206
10532 50335 41509
41764 50335 3638
17604 50335 25798
7531 50335 12656
13902 50335 29653
34054 50335 20297
25355 50335 2949
8572 50335 40117
17895 50335 29376
22855 50335 29659
48664 50335 2261
26417 50335 19112
31337 50335 25759
9483 50335 2761
15013 50335 26453
46609 50335 2154
35023 50335 5881
28649 50335 12014
6881 50335 36564
1198 50335 50305
6083 50335 10347
39475 50335 1616
8950 50335 43929
15523 50335 30611
11218 50335 29814
1539 50335 27677
28392 50335 17164
28340 50335 1799
4006 50335 54384
8347 50335 5970
22805 50335 10610
15325 50335 46143
5556 50335 34960
47877 50335 6750
25086 50335 14764
20737 50335 3254
21473 50335 20950
21253 50335 11757
5150 50335 39410
26400 50335 26785
43674 50335 1280
1183 50335 51360
43591 50335 6128
17208 50335 4903
33090 50335 15283
13285 50335 11353
26806 50335 5084
21803 50335 22348
13899 50335 306
32016 50335 12006
6858 50335 2518
18623 50335 19715
2114 50335 6716
3168 50335 5716
24201 50335 7531
3643 50335 46626
9393 50335 14381
4731 50335 27502
8668 50335 7663
10993 50335 45069
13242 50335 28997
19553 50335 10126
19119 50335 21496
194 50335 60535
48491 5573 6616
6383 25857 58391
5900 33954 60774
22640 50488 64944
29379 50504 64952
8 50895 20624
50744 13225 58298
47993 420 5168
4377 1880 7253
4970 46246 54343
48124 3275 5634
51435 2541 4348
44076 50591 63
50864 34569 57760
49210 13722 58450
51393 48288 16049
51393 48673 9413
9777 47974 60633
29515 48374 4695
48958 43575 4426
4669 47655 40281
7056 33379 7121
5071 49308 57383
48770 6463 4653
53804 51013 65059
50911 47063 19120
6614 6345 60781
48757 45784 60633
48789 35883 60633
48380 50151 57859
5216 13312 60355
5028 49661 59590
51393 45991 8216
6295 27959 58333
49229 25153 5065
4427 47285 57548
3842 855 58469
6866 13412 6259
6258 12718 6920
5925 34385 7312
4427 47445 48367
4427 46480 9220
48698 44584 5255
48698 48818 4785
50259 7718 7363
49260 43211 57938
49394 45617 57938
50135 44994 57938
23506 51187 64976
50721 48988 53065
50866 48988 44985
51188 48988 46845
6644 18582 5134
49365 34750 4281
7122 42143 5019
7122 39509 4568
7122 44031 5008
7310 34446 5900
51366 47029 13690
33196 50335 21163
16963 50335 31637
6375 50335 11160
14200 50335 34582
15210 50335 20474
358 50335 62414
6120 50335 45383
8122 50335 34443
17013 50335 44527
44763 50335 4446
14402 50335 4774
12695 50335 29355
20843 50335 17604
49124 50335 2954
11732 50335 35040
15812 50335 31357
15389 50335 7011
24369 50335 26115
2049 50335 8248
7018 50335 14240
8888 50335 35618
24576 50335 33117
24714 50335 13943
22288 50335 34631
16657 50335 38437
15799 50335 7964
29864 50335 15819
31099 50335 7993
20197 50335 25653
9258 50335 47417
1141 50335 19060
3833 50335 17354
7341 50335 26313
373 50335 28483
19426 50335 38863
18986 50335 25120
12217 50335 48278
2998 50335 42215
2843 50335 39776
3530 50335 21313
25267 50335 22268
35279 50335 22311
14610 50335 16230
29765 50335 5873
265 50335 5900
53467 50335 2128
20546 50335 27269
34605 50335 9775
6440 50335 9806
39790 50335 17667
13137 50335 36812
643 50335 57269
11983 50335 38380
15642 50335 40208
21945 50335 19732
27645 50335 8404
1178 50335 60411
2921 50335 10991
26932 50335 6565
27068 50335 5592
9911 50335 8207
6689 50335 39961
20746 50335 11954
22589 50335 30897
5839 50335 25796
35807 50335 17719
13760 50335 5369
5246 50335 56715
4566 50335 5901
32361 50335 679
16030 50335 44870
27859 50335 26185
50339 50335 2220
42146 50335 4499
39851 50335 4591
6984 50335 19229
13453 50335 25533
4146 50335 25808
24740 50335 9516
37447 50335 9326
5090 50335 45559
15418 50335 31974
5792 50335 55620
17192 50335 30511
8008 50335 20212
5401 50335 1746
15290 50335 25943
10336 50335 15155
11970 50335 49020
20372 50335 34447
12955 50335 20424
23541 50335 27525
2796 50335 51186
13574 50335 38026
21103 50335 15540
25097 50335 12284
27163 50335 15292
34757 50335 9114
7658 50335 13570
6836 50335 5050
28843 50335 27210
938 50335 47989
46304 50335 1217
21424 50335 30425
20664 50335 1375
5894 50335 25265
6066 50335 54800
20958 50335 28051
26032 50335 4866
38496 50335 13669
13503 50335 39872
4938 50335 55288
7413 50335 3795
30170 50335 13483
8838 50335 23135
6870 50335 4558
33561 50335 10483
11265 50335 31584
40603 50335 664
30514 50335 17439
11613 50335 46051
38425 50335 5773
5195 50335 25132
4389 50335 51132
12785 50335 34433
20368 50335 38682
15985 50335 43595
18172 50335 11229
33857 50335 8041
18538 50335 40086
19470 50335 23448
34048 50335 23423
1290 50335 51881
20385 50335 32580
38482 50335 18607
5520 50335 53680
44858 50335 439
2785 50335 25159
16949 50335 37576
40985 50335 3476
19688 50335 15284
15424 50335 34943
7738 50335 7089
30994 50335 1870
29605 50335 2876
20937 50335 40532
6162 50335 54351
28553 50335 6306
4764 50335 12276
13040 50335 3560
9649 50335 10866
36531 50335 15794
35672 50335 8474
20808 50335 34159
38751 50335 16718
42448 50335 12623
26561 50335 2791
11419 50335 36698
2114 50335 4999
12764 50335 28521
25476 50335 13331
7577 50335 32565
8941 50335 29012
40784 50335 6614
3106 50335 43930
13892 50335 47989
15515 50335 17375
45828 50335 6103
3461 50335 36283
2424 50335 44874
1869 50335 40462
30460 50335 15036
924 50335 30582
6171 50335 273
7974 50335 2404
14630 50335 42773
26193 50335 14991
18068 50335 34126
48362 50335 4905
354 50335 41448
34580 50335 16537
24601 50335 8587
736 50335 63679
2454 50335 51975
25918 50335 11060
10347 50335 33310
45921 50335 8363
17034 50335 4317
27662 50335 14378
33678 50335 21366
9530 50335 42013
35769 50335 15895
7430 50335 34270
15847 50335 14338
9602 50335 47959
33246 50335 6535
7519 50335 24087
13609 50335 42956
41714 50335 4093
27413 50335 28494
5793 50335 41007
19056 50335 41389
12050 50335 3221
20315 50335 4669
2543 50335 50627
21354 50335 9672
922 50335 10008
42390 50335 7758
27204 50335 7070
45611 50335 9064
653 50335 47029
43150 50335 6805
11417 50335 17342
47184 50335 5040
10291 50335 51545
5041 45523 7881
5720 17025 6855
12684 47681 5196
49550 4075 3959
51393 48364 37812
51751 30161 4898
51393 47388 54034
12779 48822 60633
42545 48988 4880
30258 48988 4783
32858 48988 4792
55820 51044 17697
51343 48435 57938
50913 44501 57938
48886 35578 57938
6580 26679 58562
49628 32040 57938
48532 48722 5196
48698 43888 58379
48698 46981 59963
51393 46381 60084
51393 37607 58156
51393 43126 58391
13336 51357 65008
4427 42261 6251
4427 39953 6655
4363 50298 6944
5196 47346 48507
16679 47808 5196
6119 43300 7121
6877 35476 7121
6271 36097 7121
4427 35389 5398
18033 48077 60633
46108 48618 59863
40417 48266 59863
4336 34924 4971
11018 48677 4426
7603 4526 59443
4427 47939 39545
16929 47349 60633
4806 48024 42316
12255 48832 59863
49089 29238 5263
4704 20563 5630
49325 49141 4161
28531 48488 59863
4719 28132 5518
49535 26090 4816
4780 45903 57938
5476 42222 57938
49685 34164 7300
42755 50733 10
48989 17588 5529
51873 1762 58384
5083 35998 60633
50317 50038 4941
49169 41798 7121
49886 47588 7121
51552 29681 5431
51506 7444 58568
7122 33258 6484
5261 19601 60241
6861 28138 59268
48115 49863 4572
55568 50335 59029
35788 50335 55633
25601 50335 43901
42117 50335 58209
45656 50335 40234
10736 50335 60664
39068 50335 36219
54859 50335 6013
15705 50335 49982
37659 50335 52465
47410 50335 58439
40471 50335 49869
19596 50335 42805
29625 50335 46886
19998 50335 42340
45916 50335 21544
30585 50335 46815
52030 50335 15292
20414 50335 44712
26194 50335 60567
17720 50335 56650
18861 50335 46247
38490 50335 51232
39818 50335 27123
26829 50335 44119
15694 50335 53725
45708 50335 48233
53448 50335 34462
40912 50335 50109
49890 50335 50554
35905 50335 53466
20881 50335 46814
26923 50335 62066
42764 50335 46213
39496 50335 52340
41643 50335 46018
31588 50335 40610
37984 50335 33080
44181 50335 40580
22985 50335 55647
11107 50335 55800
31955 50335 58951
13260 50335 61120
12513 50335 61232
35051 50335 28161
3908 50335 62894
54767 50335 50607
35145 50335 38105
31233 50335 29289
2013 50335 63455
21434 50335 53734
35666 50335 40332
34602 50335 60063
39100 50335 57387
3495 50335 63203
50410 50335 20872
20131 50335 62309
55613 50335 55493
36610 50335 50103
47447 50335 21906
25205 50335 35984
30640 50335 51746
47232 50335 55998
54726 50335 8602
42504 50335 26374
20744 50335 51728
39526 50335 42481
42351 50335 32404
38799 50335 27206
49269 50335 60733
35253 50335 57266
21353 50335 64501
52258 50335 56830
40015 50335 37543
17788 50335 63408
54558 50335 12573
19662 50335 47340
48900 50335 39677
51576 50335 25215
44444 50335 44852
47563 50335 48485
48223 50335 28663
55204 50335 22861
37211 50335 40046
35979 50335 42471
49412 50335 12970
28687 50335 61810
55428 50335 45419
49569 50335 49717
53314 50335 26490
37397 50335 47492
55473 50335 10989
47583 50335 36768
43909 50335 29233
52076 50335 63860
54617 50335 31651
43162 50335 18119
37834 50335 46252
28699 50335 39832
13004 50335 63015
51006 50335 30014
44587 50335 54980
47364 50335 60168
38198 50335 32210
5571 50335 61626
44791 50335 14009
48716 50335 29813
51408 50335 49416
29211 50335 36846
45402 50335 28331
27642 50335 54848
54263 50335 19674
37019 50335 27951
22018 50335 61308
6410 50335 59224
45405 50335 29587
40979 50335 40511
52334 50335 35916
28101 50335 38373
31715 50335 56874
49863 50335 58600
33175 50335 34544
16189 50335 51912
27250 50335 61461
36485 50335 36276
40755 50335 54189
38640 50335 61361
35431 50335 45467
42979 50335 51605
53058 50335 40959
42323 50335 18957
42443 50335 34446
52548 50335 15170
46075 50335 46194
37497 50335 25975
42850 50335 17384
33613 50335 29458
50835 50335 49472
54248 50335 60640
40961 50335 61483
42468 50335 44823
4049 50335 61954
45771 50335 32257
19302 50335 63920
12885 50335 52296
27341 50335 47761
4684 50335 63954
5503 50335 59304
38834 50335 48951
38860 50335 55679
55504 50335 47824
12352 50335 62286
40646 50335 60868
23335 50335 63219
28793 50335 64441
20108 50335 47958
53802 50335 59061
51091 50335 59490
31269 50335 35017
21655 50335 62866
51634 50335 37615
31874 50335 28829
47085 50335 44652
44290 50335 16649
23592 50335 47012
54182 50335 58436
51619 50335 5158
40132 50335 43905
22915 50335 49146
24188 50335 48102
20223 50335 58026
47112 50335 38350
37834 50335 44907
26250 50335 55331
43134 50335 44440
50365 50335 47300
49227 50335 10783
39424 50335 62443
20058 50335 50876
29273 50335 52423
37274 50335 33040
53939 50335 49395
33575 50335 61420
25893 50335 57993
50094 50335 24644
44259 50335 58895
41724 50335 50960
47218 50335 34182
42535 50335 28288
28256 50335 56521
37700 50335 59980
36600 50335 34593
45327 50335 60567
9285 50335 54261
42913 50335 27357
52538 50335 35230
36557 50335 63581
54935 50335 7986
35125 50335 50977
44034 50335 36022
29838 50335 60978
50208 50335 23638
18400 50335 63185
26020 50335 44712
55615 50335 10294
36987 50335 31860
46614 50335 53965
32126 50335 40549
27892 50335 33393
52395 50335 19946
2931 50335 61938
49621 50335 46557
50234 50335 21448
52822 50335 13328
37050 50335 52283
49500 50335 45793
42249 50335 20117
53816 50335 54336
29424 50335 37724
40291 50335 55251
48803 50335 41008
35429 50335 49852
53922 50335 21852
11808 50335 63460
11046 50335 63105
34077 50335 56321
54239 50335 6673
46528 50335 57059
23056 50335 41289
25820 50335 50165
43388 50335 38380
44502 50335 22659
53747 50335 11014
52045 50335 19096
22004 50335 42491
46759 50335 34878
53492 50335 30004
5826 3009 57333
51684 303 7149
7797 46275 60633
49690 8101 57741
33542 50817 65026
24087 48364 5196
45186 46931 60633
50446 25314 58283
49334 49268 61119
33205 48665 59863
48717 7875 6658
50627 15014 59246
50728 48988 42342
51194 48988 50271
50786 48988 29367
4921 33477 4426
4675 46725 12015
51393 30413 4433
50137 29773 60361
6281 7710 4246
50920 50062 5424
50623 48273 28268
6268 0 7467
49852 28694 6838
5196 46963 9765
49550 11284 7028
55646 51488 30188
48838 50254 60395
30401 51289 64868
28758 51148 64868
14921 51080 64868
6873 51298 64868
50931 48988 16926
50799 48988 15411
51317 48988 40507
4427 32710 6011
55668 50416 54454
55658 50394 51464
4070 6169 5970
50623 48558 46365
50703 0 59428
72 51332 18515
49397 42185 57938
49660 47797 57938
50221 48482 57938
9 50698 11706
25 50668 23985
4427 47865 16892
4427 47850 15120
5055 13107 58303
4044 30010 4072
7815 1002 5284
6126 46592 4426
4666 48928 4426
91 50535 58211
178 50364 20009
48890 3144 60835
6845 33944 4288
5196 48349 27300
50919 10734 6853
50768 47988 22066
6630 13460 60127
4427 48718 59020
4427 46821 58476
51133 2543 57629
29216 50956 191
2080 51228 191
1232 50655 191
6236 29861 4798
4427 46832 9564
51393 48606 27599
51393 48920 14156
29092 48431 59939
5758 19345 58199
7181 9040 59829
3827 368 60158
18970 48283 59863
7106 31489 4426
48146 3311 59001
32404 48220 4426
6201 36615 57938
5839 39880 57938
5913 42473 57938
4980 33669 57899
10671 48714 60633
5676 24163 60361
13685 47063 4649
4696 11822 60030
50150 27172 4698
18242 48804 59863
51701 29802 58955
21042 48131 5196
9527 47968 59863
49485 50291 7197
191 50351 56393
191 50831 36831
191 51052 53556
191 50384 24789
191 51059 41510
55787 50787 28839
5487 4458 57469
50173 5244 3993
4427 47701 7734
55820 51102 19057
5791 5822 57531
51772 30072 5751
49427 38076 7121
50112 41949 7121
48186 50039 7325
50761 17789 4963
27548 51471 106
50802 13282 6711
4715 21822 5547
49216 7527 4371
7274 34006 4836
6367 19236 4869
25 50759 34389
50890 29985 6447
50951 26453 58691
22446 47140 60346
3865 49693 57355
4710 21300 5958
51008 34723 7271
49080 21567 6264
5196 47439 7131
50623 48343 56089
48124 1455 60013
50024 23903 6859
10319 46625 5196
51033 5639 7228
49702 14896 58250
6401 6576 7339
50623 47808 46106
44526 46783 59868
51747 558 4510
4621 2921 57713
50764 48489 32039
7302 34171 6779
25834 48719 5196
46 51413 36396
48264 5440 5785
55728 51216 14274
50104 3625 61193
6842 3023 7402
51290 47231 25694
22701 48624 59863
7320 48080 4426
48459 448 4348
17010 50335 53813
45443 50335 30698
45491 50335 35825
52909 50335 55396
48792 50335 56039
54343 50335 51747
55199 50335 5032
5332 50335 62066
44585 50335 48271
9638 50335 57328
51374 50335 44659
51198 50335 38600
33335 50335 50945
48955 50335 48493
18601 50335 62130
47190 50335 26861
52988 50335 52676
53895 50335 48212
26718 50335 61229
15402 50335 56308
46871 50335 49013
3085 50335 64423
49387 50335 15227
30805 50335 37153
15310 50335 48346
23819 50335 57438
36686 50335 59101
51015 50335 60138
22043 50335 47123
50128 50335 41437
34265 50335 51341
47563 50335 54960
29692 50335 45460
25314 50335 61135
30714 50335 29793
53625 50335 3043
46378 50335 15561
40708 50335 18155
34502 50335 45110
42543 50335 51828
32474 50335 37769
43370 50335 29418
40743 50335 49093
10967 50335 58167
9116 50335 60488
22952 50335 47194
28892 50335 40707
39420 50335 38258
40762 50335 56464
37213 50335 42211
12402 50335 59118
53764 50335 53821
30705 50335 39612
40894 50335 20377
41302 50335 25596
52269 50335 38416
46519 50335 48111
32486 50335 56913
28464 50335 34714
24727 50335 57620
39686 50335 51360
45432 50335 23957
43913 50335 59214
41930 50335 22414
31662 50335 41445
37894 50335 55895
42249 50335 23245
47894 50335 64494
54340 50335 24219
34325 50335 55270
50545 50335 29360
41584 50335 26684
54842 50335 19662
43763 50335 45575
53480 50335 45862
44281 50335 57437
26504 50335 40409
27969 50335 45266
43590 50335 53291
38440 50335 55855
38364 50335 48283
52578 50335 8190
45289 50335 40682
40697 50335 44098
45974 50335 51902
49018 50335 24447
38838 50335 56280
23290 50335 42874
29511 50335 47985
21056 50335 55902
48776 50335 37669
35661 50335 34583
35922 50335 29839
41943 50335 27121
31242 50335 52186
25330 50335 47872
37001 50335 26751
19870 50335 59830
15343 50335 58184
17367 50335 45865
50453 50335 57326
11747 50335 57151
53409 50335 50219
32798 50335 45004
41184 50335 45927
40478 50335 28007
51581 50335 46473
16359 50335 63276
13880 50335 60096
46688 50335 28954
21101 50335 51207
50622 50335 12548
23068 50335 61832
42107 50335 50525
13302 50335 57781
42298 50335 47077
48386 50335 44835
17611 50335 61126
22412 50335 45197
50816 50335 45355
47860 50335 26221
12832 50335 62384
17729 50335 64744
53081 50335 64729
49068 50335 26628
53062 50335 64049
51230 50335 19920
30859 50335 50855
23229 50335 44494
47264 50335 62704
54935 50335 3205
5751 50335 63108
49411 50335 9469
37744 50335 38722
52440 50335 41875
52987 50335 54664
53649 50335 29277
54210 50335 34819
28158 50335 38873
28343 50335 58433
53234 50335 10533
41623 50335 29183
35917 50335 24521
24647 50335 51087
46545 50335 59422
44645 50335 39378
48200 50335 19454
49776 50335 56329
52829 50335 56823
13181 50335 57257
23009 50335 50721
35396 50335 57835
48687 50335 45895
31637 50335 31723
11290 50335 59829
48003 50335 44109
28546 50335 59188
38758 50335 28627
54846 50335 25524
28744 50335 63788
44848 50335 44150
42673 50335 16943
55416 50335 5534
38662 50335 63986
21498 50335 48741
24593 50335 46219
53702 50335 47334
51959 50335 16356
21452 50335 55131
49930 50335 14447
42916 50335 45527
49115 50335 59235
29445 50335 59393
42441 50335 30201
32964 50335 52766
39511 50335 64412
50565 50335 60861
33321 50335 55231
27924 50335 47548
11105 50335 64054
31971 50335 31116
41267 50335 51733
47678 50335 17960
27487 50335 35443
28015 50335 52149
48961 50335 9294
24873 50335 51699
47374 50335 43886
53280 50335 21427
45143 50335 48800
23937 50335 56491
40715 50335 55752
45765 50335 62844
41177 50335 32635
49773 50335 10165
45044 50335 31451
43442 50335 36687
49596 50335 51370
28493 50335 34110
49528 50335 33186
35799 50335 45955
34859 50335 29684
42755 50335 50852
32645 50335 39937
32755 50335 58920
44222 50335 27650
39108 50335 27769
47678 50335 46329
24353 50335 39124
29602 50335 57902
28873 50335 47889
18472 50335 45844
50046 50335 31830
7330 50335 58126
43649 50335 20292
52929 50335 6720
36599 47965 59912
4427 46410 54560
48630 10015 6041
48247 109 6963
4770 27522 5376
12554 50667 65034
51393 48453 18739
50623 48579 19330
48706 49364 57355
49294 23845 60069
51063 14896 58899
6511 8134 4375
5430 686 61368
4757 19001 6139
51401 50606 64868
40744 50668 64868
27201 50376 64868
42067 51177 64868
51695 6620 5403
5230 18374 4831
5489 0 61050
51393 45088 60380
51393 42197 60501
51393 38594 58693
49078 17034 5290
9283 51007 65059
27524 48489 60628
7596 4135 58857
50623 47770 52791
51053 45523 56782
5926 29305 4705
26318 50450 64925
50087 49427 3843
50623 48939 49060
50623 48979 23897
54646 51142 52
5531 0 5115
46678 48520 5196
30820 48262 60633
4555 29668 58170
6254 0 58869
48811 2462 57735
43056 47708 5196
42266 47635 5196
5620 16759 60354
50150 42088 4426
51391 35419 4426
49130 36553 4426
5196 47402 38540
48928 31626 7121
50677 49741 60050
48054 1637 58775
49749 35115 4419
51107 49010 60671
7122 32136 60485
6972 31747 57938
52185 39 5500
4260 4791 60293
5790 46015 57938
4921 48829 57938
41505 47630 60633
7024 3683 7202
5541 24887 58226
35706 48012 4519
51530 6412 60140
7828 50688 15
18385 50615 52
34599 47922 4426
51351 31721 4426
51393 46759 10058
59 51440 25420
49940 1516 7827
51393 47442 10827
48698 47555 4585
49279 29766 58219
41039 48429 5196
4536 12097 58905
4427 30580 58168
6026 15014 59816
17817 48988 60406
9177 48303 4426
4832 48988 10949
4825 48988 19022
5093 48988 12859
99 51468 50140
49189 28417 5118
51146 14525 5588
5826 24869 4692
49998 27998 4691
51393 47451 48197
4427 47604 48977
49036 23901 59667
49781 33020 57938
51972 1805 6428
