ply
format ascii 1.0
element vertex 2670
property float x
property float y
property float z
end_header
45486 25773 956
44075 22816 82352
44274 30147 81633
44902 27713 3919
46450 29131 71469
46450 30580 61393
46450 30174 71009
46450 30982 54437
46450 29214 70828
46450 30060 63223
46450 30860 21090
46450 30091 44181
46450 31035 52503
39869 9496 0
40101 20386 0
39399 7386 0
42508 30848 0
44671 31061 0
46486 13370 82455
46486 14979 82062
43327 28900 47256
43225 28900 57065
40572 28900 31331
43720 28900 7577
39447 28900 4305
45046 28900 21117
42104 28900 14139
43042 28900 58842
42071 28900 9567
44312 28900 5087
41432 28900 14419
42627 28900 16693
42224 28900 4573
43010 28900 22195
41208 28900 42692
41168 28900 5181
41509 28900 40038
42803 28900 11399
45061 28900 8606
44267 28900 36770
43108 28900 34218
45475 28900 18313
41861 28900 8431
40276 28900 6537
40879 28900 21838
44323 28900 31767
43268 28900 29639
42390 28900 30249
42835 28900 23285
43215 28900 61098
41289 28900 38170
3729 26539 82866
2482 26643 82866
1944 28301 82866
2673 31166 77409
2621 31166 57320
2728 31166 35650
4587 31166 61439
3369 31166 32944
3406 31166 58572
1553 31166 51888
3419 31166 77365
4648 31166 62942
1105 31166 72866
3505 31166 30491
6800 31166 78099
5347 31166 56895
4582 31166 46246
5779 31166 59426
3473 31166 48164
2830 31166 9296
4227 31166 36848
5058 31166 69334
2601 31166 17124
2650 31166 62024
2960 31166 54789
4322 31166 35678
4217 31166 40464
4449 31166 73176
2976 31166 28132
2415 31166 48797
3302 31166 24084
3552 31166 64523
3614 31166 65393
3091 31166 14881
2645 31166 79051
4466 23109 6220
45666 31166 77092
0 5326 82657
0 16638 81960
0 6594 79990
0 3948 81199
0 8170 81869
0 7674 79791
0 1215 82288
42027 28900 42649
42417 28900 17892
43023 28900 20156
40224 28900 12846
42989 28900 33251
41478 28900 20951
43944 28900 15209
42870 28900 40058
44074 28900 40791
43213 28900 51673
42722 28900 8224
42432 28900 3951
42387 28900 15542
39693 28900 5713
44864 28900 10198
42022 28900 60880
41438 28900 10171
44092 28900 8497
43952 28900 5527
39577 28900 6754
40726 28900 4709
44099 28900 17750
40346 28900 5953
41220 28900 48151
43192 28900 59783
42862 28900 24295
42332 28900 73333
43247 28900 41081
45491 28900 13231
43445 28900 45282
44839 28900 15284
41938 28900 12125
45238 23788 718
44542 23602 725
44135 25773 81685
46450 29374 888
6959 28594 78796
44535 26712 0
41665 26192 0
5900 31166 1866
4728 31166 5799
22160 31166 578
10748 31166 2098
24028 31166 136
16677 31166 264
14413 31166 1882
21119 31166 846
27290 31166 1918
13143 31166 819
22957 31166 2573
3276 31166 2962
26777 31166 548
23574 31166 2529
22001 31166 2659
4560 23678 82084
0 30691 82518
0 26119 81247
39113 27647 526
4227 28569 77976
2999 27493 77976
1688 31166 18144
692 31166 40406
1129 31166 21967
1441 31166 35718
510 31166 60644
763 31166 49021
552 31166 59135
2159 31166 7710
1854 31166 16590
1170 31166 19442
747 31166 57803
46471 30449 80167
46457 30479 77477
46474 27744 80610
948 8643 0
1841 4820 0
58 9101 0
1525 5688 0
4681 1699 0
343 14012 0
1863 13140 0
6061 22816 82718
0 11147 1669
0 2578 269
40727 4240 3919
40240 3099 3919
39498 3899 3919
43244 7978 3919
45876 789 3919
45243 1117 3919
42509 10051 3919
42541 8852 3919
44307 6091 3919
39282 11540 3919
4100 31166 82425
45719 22816 867
46450 28959 57137
46450 30185 20018
46450 29073 69839
46450 29597 8624
46450 30214 6225
46450 29527 47407
46450 29710 30075
46450 29198 48560
46450 30519 10341
46450 29238 55592
43047 28900 3021
42366 3542 78529
42366 12791 77125
42366 19166 77231
42366 6988 79234
42366 3060 78949
42366 5253 78501
42366 4584 77447
42366 386 81289
42366 8359 78305
42366 0 80536
40688 28900 2755
2843 30261 6413
825 25505 81415
41240 22594 0
40162 24531 1562
0 30158 81014
40180 13687 0
39521 11636 0
44715 30937 2274
45233 25100 82010
19094 30406 0
5130 29232 0
14183 30670 0
25433 30743 0
6367 31166 28180
6962 31166 41273
7824 31166 47165
13687 31166 37271
28436 31166 25701
27060 31166 10771
12197 31166 11461
9641 31166 55341
19598 31166 45806
25186 31166 18732
29136 31166 14705
20206 31166 7857
7132 31166 32057
32235 31166 6735
17695 31166 7984
12018 31166 56912
25035 31166 22128
25895 31166 19540
12535 31166 52673
23241 31166 15702
12881 31166 35268
15246 31166 12649
24083 31166 7752
38279 31166 1376
27956 31166 5560
7701 31166 14182
13300 31166 10612
5734 31166 23514
10051 31166 42273
30544 31166 8828
14571 31166 51369
24413 31166 23943
17338 31166 27561
9046 31166 10342
12150 31166 59468
28321 31166 7874
18928 31166 5017
18539 31166 20925
7597 31166 36393
21299 31166 40873
13114 31166 33497
4495 31166 26704
16349 31166 12720
35354 31166 1109
14890 31166 31708
22390 31166 33826
10830 31166 29499
11773 31166 60356
20640 31166 22130
9753 31166 43803
14900 31166 13077
19318 31166 42870
15326 31166 29007
9441 31166 42237
9169 31166 31581
27846 31166 26598
27565 31166 17791
17985 31166 8596
5555 31166 41838
24140 31166 26676
11578 31166 30745
8894 31166 61661
6300 31166 24267
11396 31166 42607
6520 31166 52747
26210 31166 12625
20014 31166 13752
18326 31166 26106
28543 31166 10313
15138 31166 6098
25355 31166 15883
21573 31166 25307
11400 31166 54297
23317 31166 5244
18342 31166 27337
12553 31166 16745
30870 31166 14969
6526 31166 58130
31295 31166 10948
7736 31166 72928
14862 31166 20286
9948 31166 67186
26932 31166 15918
10266 31166 60965
19225 31166 41280
3267 31166 13092
15834 31166 27775
24902 31166 17778
13433 31166 62682
14169 31166 34496
4244 31166 19998
8688 31166 67915
8053 31166 21166
7121 31166 45087
19576 31166 32344
19859 31166 31243
10899 31166 27044
13160 31166 43708
16648 31166 37919
6112 31166 16620
19043 31166 12847
15483 31166 53065
21661 31166 6845
33486 31166 12039
15207 31166 26243
11517 31166 23774
18518 31166 42522
15176 31166 44960
10431 31166 31953
5296 31166 35172
10500 31166 59851
14233 31166 46907
21615 31166 5292
22580 31166 20625
6831 31166 72129
26708 31166 20799
10048 31166 11598
22329 31166 5784
5419 31166 8894
20416 31166 31048
29206 31166 13916
20026 31166 10016
22198 31166 6761
11786 31166 19208
10858 31166 48905
23357 31166 6780
27807 31166 11778
22250 31166 15947
6907 31166 29088
28661 31166 3277
24525 31166 32410
10905 31166 54789
7078 31166 18707
17412 31166 34975
23878 31166 15439
9614 31166 29934
24760 31166 27866
29626 31166 3413
29705 31166 23133
22986 31166 5965
11444 31166 61416
23013 31166 37920
23704 31166 34776
7714 31166 17484
4002 31166 24673
25593 31166 4030
30098 31166 20986
7250 31166 77690
15689 31166 29488
19286 31166 23868
13273 31166 59711
12259 31166 66652
19962 31166 18357
12497 31166 42198
6948 31166 23472
9794 31166 20861
24258 31166 13459
14006 31166 52538
9201 31166 17642
19415 31166 37093
6500 31166 12034
8618 31166 62453
20824 31166 43304
15673 31166 31399
16096 31166 40315
8259 31166 10888
9283 31166 30998
19673 31166 7227
14540 31166 60446
20948 31166 39806
27691 31166 18385
28536 31166 16696
12334 31166 25387
0 30134 20845
0 30177 19517
0 29161 32319
0 30051 22244
0 29349 30311
0 29401 21780
0 29782 46135
0 29774 39534
0 29041 60133
0 29239 42991
44253 28900 81767
0 20236 3461
42366 9826 78454
42366 6381 77699
42366 10833 76928
42366 19903 76607
42366 1132 80588
42366 12323 77839
42366 7589 77375
976 22816 80839
22923 31166 2015
3825 31166 6312
9062 31166 569
4955 31166 5066
7355 31166 1296
6067 31166 264
10722 31166 5357
28021 31166 1343
33732 31166 151
11320 31166 991
11804 31166 2817
12325 31166 1861
5523 31166 4280
19258 31166 1739
12915 31166 4394
42816 25773 80979
44577 22816 79304
6210 25615 79871
0 9221 1014
294 8763 1721
150 14316 1721
591 6328 0
1507 14929 0
1274 12957 0
2174 8844 0
2562 2477 0
323 5755 0
498 19253 0
3403 3456 0
0 350 82556
0 8276 80675
0 7766 81140
0 9684 80511
0 9865 82126
0 7169 80155
0 13996 82452
45736 28900 68328
45411 28900 69955
46206 28900 35186
45803 28900 51367
45455 28900 42392
45936 28900 48212
45691 28900 36110
45297 28900 63174
46263 28900 13735
46366 28900 31739
45720 28900 38528
43472 20655 0
861 25615 80278
42568 22816 78565
3581 25114 82079
955 25612 1417
1788 28900 78619
952 24762 3518
1435 25653 77976
4653 26457 77976
44806 9577 0
44494 7869 0
45072 11709 0
46475 29185 80786
46466 29983 79293
4820 25840 77976
3518 26930 77976
24279 28900 82777
11745 28900 82414
17804 28900 82627
34720 28900 82536
8183 28900 81232
24134 28900 81649
41416 22861 3302
41693 24470 3302
6959 3189 81917
6959 1506 81773
39858 28900 29118
29834 28900 73358
17768 28900 68106
40665 28900 59931
38488 28900 46120
33816 28900 37930
26056 28900 52521
33744 28900 27829
17674 28900 66996
32328 28900 46513
40919 28900 58655
25370 28900 57733
13801 28900 66744
34311 28900 75482
39111 28900 46097
29628 28900 47104
27577 28900 40152
36677 28900 45730
31314 28900 35055
25461 28900 73148
15363 28900 73054
21492 28900 50450
23032 28900 72671
29079 28900 52983
34618 28900 63357
36193 28900 48018
29617 28900 53180
12257 28900 70327
27065 28900 42158
41145 28900 55537
36261 28900 74775
37915 28900 67390
23105 28900 63807
11112 28900 71400
35637 28900 63508
37136 28900 69018
34954 28900 70532
29190 28900 64771
27094 28900 66519
36039 28900 34854
17551 28900 54150
14712 28900 69164
25613 28900 60258
40639 28900 55165
21079 28900 52392
38883 28900 18121
21042 28900 51648
25977 28900 55391
20515 28900 51057
26165 28900 75127
36320 28900 80214
35015 28900 16867
23775 28900 79260
15719 28900 77308
20406 28900 60973
36127 28900 35884
24100 28900 62120
19665 28900 52958
15783 28900 78455
18846 28900 59116
31676 28900 61216
21436 28900 49912
23229 28900 48989
31679 28900 69474
26594 28900 43199
38748 28900 78833
16689 28900 75769
32113 28900 73600
31620 28900 79294
27662 28900 79087
37318 28900 47434
31317 28900 26142
34405 28900 30873
40003 28900 61617
24046 28900 80171
40652 28900 46603
22423 28900 48985
40415 28900 62504
25557 28900 68871
32660 28900 47299
34428 28900 74149
13297 28900 77957
33728 28900 49741
24778 28900 69385
21169 28900 46976
27456 28900 46778
14156 28900 62676
38714 28900 8011
30105 28900 60173
22673 28900 69234
27493 28900 76176
36889 28900 22271
33901 28900 51771
22888 28900 43097
41247 28900 72571
35870 28900 69585
22726 28900 67973
29593 28900 36712
29573 28900 65380
29586 28900 66528
31327 28900 29070
34992 28900 61285
36456 28900 32572
36729 28900 70582
13763 28900 67752
28510 28900 35139
25499 28900 74578
28465 28900 54526
22152 28900 55020
32098 28900 68730
37246 28900 64489
37794 28900 68788
33695 28900 60803
35861 28900 26192
26287 28900 44990
34613 28900 14696
29155 28900 67429
13108 28900 67601
33247 28900 55601
35477 28900 19968
29774 28900 44111
29880 28900 48590
38431 28900 7226
38903 28900 65784
17132 28900 71775
28719 28900 56554
38596 28900 77918
21689 28900 67949
24057 28900 40528
35254 28900 49164
31784 28900 40781
25161 28900 46259
38487 28900 57458
36278 28900 59286
28228 28900 43727
18645 28900 79059
19732 28900 60669
26156 28900 58430
39095 28900 76484
32428 28900 31418
17346 28900 63593
30895 28900 25546
26493 28900 55172
34213 28900 79433
38909 28900 11089
34385 28900 70974
26700 28900 46281
41996 28900 78149
21929 28900 52365
19896 28900 61692
20912 28900 74978
10787 28900 77587
10570 28900 76073
39940 28900 69974
29981 28900 40909
18052 28900 79348
37893 28900 40523
31736 28900 43121
34149 28900 66296
14555 28900 73269
25228 28900 59221
25799 28900 50442
22541 28900 50404
32376 28900 25157
38528 28900 60666
13553 28900 75274
25978 28900 62305
32656 28900 62247
35443 28900 21841
21669 28900 76086
36852 28900 59234
38052 28900 23417
31933 28900 48695
408 16281 4144
30 19798 5140
271 17558 3056
997 10807 2672
11552 28900 3945
19325 28900 3403
25515 28900 559
9747 28900 5531
5074 28900 5980
36677 28900 21
20659 28900 3681
11224 28900 4762
28734 28900 231
14292 28900 4167
30646 28900 16
31483 28900 1329
7509 28900 5576
26580 28900 426
21991 28900 3054
15510 28900 2637
2467 24472 6142
6959 26581 80120
41124 3040 81
41119 15131 173
43892 25773 82834
2843 30518 5021
5985 5060 82866
5929 3701 82866
6468 1603 82866
43390 10945 82866
44355 10602 82866
43658 11516 82866
43181 16616 82866
42047 31166 44617
44186 31166 79254
46486 19665 82686
46486 18438 82636
3401 31166 53356
3169 31166 19699
5974 31166 79988
2494 31166 45580
2079 31166 47102
3923 31166 34430
4520 31166 49053
3189 31166 49829
3375 31166 46170
3826 31166 26006
1777 31166 37239
2707 31166 31107
4155 31166 52317
4007 31166 69203
1104 31166 73625
2706 31166 76547
3290 31166 72480
934 31166 62999
2784 31166 14136
5893 31166 64525
2004 31166 33069
1166 31166 69505
2830 31166 51385
2578 31166 29920
2351 31166 59022
3636 31166 48679
4366 31166 37776
1378 31166 65790
46464 1572 76284
0 30245 206
0 31138 346
3491 9450 81532
3695 1414 80535
3453 8178 81374
4960 4188 80879
2991 911 80472
4164 25673 4070
5014 11563 5607
5014 21277 1665
5014 23035 5156
5014 10847 5344
5014 15384 5824
5014 12266 6193
5014 15956 5211
5014 19076 4317
5014 18974 2579
5014 21490 6790
5014 18902 3698
27717 28900 81258
7666 28900 78621
14358 28900 79799
23198 28900 80602
13587 28900 79735
12774 28900 79608
13292 30869 82866
17876 30878 82866
38355 31156 82866
34580 29636 82866
30974 31110 82866
1557 22816 78099
46450 15063 183
46450 23 1767
46450 15630 341
46450 3755 2524
46450 6934 1054
20006 30883 0
16667 30172 0
30020 31004 0
2867 30867 0
13160 30344 0
1188 31166 3509
46450 16471 3552
46450 15312 2792
46450 22649 2484
46450 14522 3834
46450 10118 3422
46450 13680 3889
46486 22722 80147
713 23109 5158
0 8460 6559
0 220 6368
2636 8210 6887
3277 5621 6896
155 1778 6854
3195 2322 6895
743 19238 6862
232 11082 6855
579 4953 6859
628 10321 6859
45914 11133 76284
43844 1503 76284
44296 7933 76284
45712 12055 76284
44182 3961 76284
45739 3310 76284
3878 27167 6904
5384 29493 80210
4581 30356 80210
1854 25774 2034
1255 25773 2638
39113 13612 2979
39113 9023 3122
39113 11724 2081
39113 15196 3232
39113 17933 2915
39113 21279 302
2650 25774 3287
2885 25774 4966
232 4070 82866
641 8361 82866
45608 23876 77114
722 28586 77976
39113 26756 3625
46486 7448 76349
46486 6962 76655
42486 22816 82460
6346 20780 82866
6013 17110 82866
0 27718 79858
0 28089 81343
4481 27540 6913
6716 22816 79635
40160 24781 837
1230 25379 6139
44581 23050 82010
46450 29460 34000
46450 29139 60169
46450 29988 12887
46450 29310 8158
46450 29594 33116
46450 30058 24250
46450 28466 3243
46120 31166 79236
3960 7423 0
3984 12659 0
3154 8997 0
3495 22106 0
2543 15426 0
4283 4928 0
4649 19579 0
2413 16390 0
39236 27266 3919
41029 26572 3919
5046 4952 82677
5046 4651 81932
947 4594 82866
1424 4041 82866
1253 10888 82866
43776 27189 3919
42366 26591 79392
42366 26657 80380
45906 30497 82866
40825 27413 0
40677 29054 0
43593 31166 949
44692 28900 46748
43987 28900 57761
44154 28900 51135
43551 28900 63213
44838 28900 50600
45185 28900 36731
44439 28900 42987
44559 28900 55318
43046 28900 66241
44274 29763 78234
5014 1586 5711
5014 7491 3852
5014 14962 1075
5014 2602 652
5014 2972 5528
5014 7764 236
5014 3757 4717
5014 20474 650
5014 12962 1107
5014 18999 1032
41592 28900 59325
41861 28900 67689
3749 28696 82866
43645 31166 72161
43466 31166 69337
44273 31166 81370
4915 24829 79266
42366 27441 78598
2961 23955 6143
23024 29532 0
35670 29899 0
35270 30497 0
18373 29771 0
862 23109 3541
45937 23142 77536
135 28900 8237
2844 28900 62592
1050 28900 35043
3553 28900 51789
3557 28900 61725
3010 28900 70702
1069 28900 42454
255 28900 18749
4681 28900 73382
1179 28900 53069
1524 28900 77078
4419 28900 62287
821 28900 64744
1887 28900 75797
4198 28900 66631
3578 28900 71313
2749 28900 53497
1894 28900 43716
287 28900 73663
611 28900 39454
4557 28900 61272
1755 28900 69169
3576 28900 58748
1160 28900 55703
2647 28900 51200
2303 28900 58851
4477 28900 60385
14 28900 65652
2258 28900 62401
171 28900 16288
272 28900 69954
687 28900 54340
4108 28900 72472
30444 29308 82866
9840 30144 82866
20374 30178 82866
18293 29432 82866
40829 25773 3124
46425 18154 81280
46258 12933 81280
46050 2401 81280
45358 25773 78260
46486 6435 77745
46486 10451 77809
3560 23460 6144
3312 23422 79266
40473 25773 2562
328 17033 5192
1124 9628 4424
1682 4440 4707
612 14389 4606
1776 17232 82866
884 26276 6864
23032 31166 42077
25852 31166 35172
25677 31166 35725
22754 31166 42563
37480 31166 4551
4024 28900 6484
45706 24452 2434
0 21798 2150
46462 27075 78427
46454 26331 76995
46450 4880 3906
46450 20278 2677
46450 6462 3828
46450 20897 1130
3737 28900 28953
6169 28900 60044
4477 28900 34741
6077 28900 51783
3620 28900 7564
5450 28900 58569
5845 28900 42841
5197 28900 23659
2679 28900 17241
5032 28900 48541
1972 28900 26485
474 28900 9357
6442 28900 62426
4537 28900 26717
2424 28900 13322
2298 28900 11709
3762 28900 29955
5482 28900 29647
3982 28900 9708
4565 28900 8769
4675 28900 37787
5173 28900 52121
3840 28900 15939
0 29349 50201
0 29025 13382
0 30021 23013
0 30067 35629
0 29174 57009
0 29075 63139
0 29110 7694
0 29819 15676
0 29309 45455
0 29027 62469
4468 25068 82083
46068 17765 0
46045 10814 0
46118 6845 0
43460 28900 81188
43328 27268 76284
1820 29678 80210
43044 25659 741
42542 26936 82866
42366 19417 80734
42366 6681 82481
42366 21681 80625
42366 9677 82199
42366 19900 78981
42366 15757 78761
42366 12602 79667
42366 10568 81678
42366 14917 81481
44730 30445 0
2217 23109 2834
42667 23214 745
5014 26062 2507
5014 25826 3266
43377 23860 80420
44364 12031 734
44364 10153 599
44364 3001 130
44051 26552 82866
4143 25487 1217
45650 9537 3919
44718 14160 3919
40239 20062 3919
43965 11734 3919
45706 3959 3919
43280 21722 3919
44145 18447 3919
41173 17358 3919
40140 21104 3919
46425 12611 3919
44508 2243 0
45171 10413 0
1698 25615 79152
1313 22816 79590
40428 1044 0
44279 28729 82866
1931 2123 5169
1469 6423 3932
1015 10643 4119
2141 178 2513
3505 30963 82866
0 30884 79230
0 30325 76063
0 31152 37330
0 30739 23129
0 30472 43120
0 30991 38541
0 29833 74026
0 31026 62394
0 29955 59229
0 29760 74956
0 30008 60993
43670 28900 80027
5014 18315 312
5014 9382 859
5014 2095 4375
5014 11261 2384
5014 1572 4214
5014 9909 1219
5014 6085 882
5014 11137 3270
5014 4191 4384
799 27448 6863
44748 674 0
45361 2980 0
45573 2456 0
46275 20019 0
13633 31166 68917
30982 31166 76684
30746 31166 60340
35546 31166 17284
28869 31166 68037
39270 31166 17796
36713 31166 65023
40304 31166 70182
36165 31166 41766
14779 31166 65425
22940 31166 60842
16050 31166 75840
21778 31166 70504
38861 31166 34595
37946 31166 71611
31529 31166 31189
27530 31166 65984
17690 31166 69724
36404 31166 39947
22092 31166 68327
37301 31166 26643
17641 31166 68610
27002 31166 46675
30871 31166 41694
22269 31166 74106
38846 31166 63843
31162 31166 68587
33596 31166 63980
21744 31166 46375
24930 31166 78502
26345 31166 48953
39185 31166 11329
35323 31166 79370
23082 31166 62951
36857 31166 35916
24199 31166 46172
37947 31166 14978
12777 31166 74310
37673 31166 54664
41951 31166 55043
38134 31166 27284
36850 31166 14808
14473 31166 70215
31070 31166 54226
41494 31166 61939
20929 31166 61473
25302 31166 56344
31640 31166 76281
34671 31166 35565
27452 31166 63902
39510 31166 28636
27253 31166 50672
28680 31166 63635
40439 31166 43365
24066 31166 63242
30980 31166 70061
37055 31166 29766
17832 31166 55747
31205 31166 47024
40682 31166 46343
37833 31166 76254
31994 31166 40426
38734 31166 69081
12306 31166 71705
36399 31166 82673
37818 31166 33460
38001 31166 78693
32456 31166 52274
33461 31166 64840
33954 31166 50683
30231 31166 32255
24026 31166 79589
26374 31166 76802
29013 31166 61903
42349 31166 53318
37739 31166 24438
34512 31166 73882
32806 31166 39609
28499 31166 59373
16701 31166 82749
38638 31166 67487
40106 31166 66682
30367 31166 73105
37587 31166 9113
27550 31166 48087
14422 31166 70885
35492 31166 20796
28482 31166 44297
37280 31166 38442
25623 31166 70468
42203 31166 76839
22031 31166 47121
37788 31166 31369
29866 31166 56693
24389 31166 62484
20972 31166 58755
27395 31166 53263
16919 31166 77246
38481 31166 14274
38929 31166 68315
35076 31166 48052
39152 31166 48259
36625 31166 59083
19759 31166 64602
15690 31166 69214
27318 31166 57614
25616 31166 60202
31455 31166 79178
27784 31166 62785
43283 31166 78553
28838 31166 75585
35426 31166 25367
35862 31166 73634
30964 31166 43348
41224 31166 49227
18886 31166 77028
26340 31166 80190
26054 31166 77604
32568 31166 50507
39571 31166 46792
26424 31166 48072
40783 31166 64814
32351 31166 20389
25361 31166 52294
30371 31166 34602
38339 31166 13288
36902 31166 19160
27979 31166 82213
30796 31166 79544
39804 31166 73462
32114 31166 60921
21413 31166 72344
12109 31166 76720
21428 31166 48431
35711 31166 47872
29758 31166 54427
39874 31166 45370
16964 31166 80395
34368 31166 21435
37126 31166 45591
41849 31166 46636
21115 31166 53706
29652 31166 52117
27406 31166 31946
14455 31166 80061
34861 31166 53979
31916 31166 54647
26241 31166 56929
30536 31166 58329
17959 31166 81145
38812 31166 24489
40446 31166 71293
25935 31166 79400
41836 31166 48753
39864 31166 23083
32981 31166 68193
34820 31166 17379
24173 31166 65586
9903 31166 78181
19258 31166 59208
31953 31166 57787
24868 31166 60448
36915 31166 67841
39348 31166 8496
38472 31166 76981
30035 31166 77135
39148 31166 36084
40044 31166 53254
36212 31166 45863
34353 31166 37255
14133 31166 72838
22206 31166 50486
22464 31166 72237
29820 31166 30316
9232 31166 78504
16668 31166 59207
16119 31166 64654
14464 31166 78187
39224 31166 57640
24246 31166 64558
39563 31166 80516
26737 31166 69121
22199 31166 81525
37930 31166 39739
41643 31166 82132
32889 31166 37702
27891 31166 42540
36910 31166 48075
38572 31166 20467
29620 31166 79626
25591 31166 76647
43597 25773 78611
43055 22816 2398
4172 23576 5032
44623 7340 82866
45380 288 82866
43771 6631 82866
42868 18434 82866
46464 28460 78823
46066 26715 76284
6959 30965 81562
5014 27706 869
5014 26603 3728
2739 31166 779
40165 23553 3260
43746 29082 0
45173 29021 0
42947 26544 0
27054 31166 26977
18919 31166 31565
6719 31166 64363
19155 31166 30442
11615 31166 55015
8268 31166 27568
28579 31166 23740
18308 31166 34216
10981 31166 67954
18691 31166 41894
14087 31166 6784
12193 31166 45705
32227 31166 11882
9486 31166 46744
12428 31166 44786
22189 31166 9338
12928 31166 18780
4703 31166 31965
15705 31166 50536
32295 31166 12751
34497 31166 4592
9772 31166 41613
16968 31166 47599
22409 31166 21625
16247 31166 35924
28035 31166 23668
16154 31166 20049
4639 31166 33028
11459 31166 40795
30112 31166 17145
13671 31166 47750
7966 31166 6704
7466 31166 74983
24025 31166 18962
23174 31166 15152
13611 31166 13898
33156 31166 9324
16310 31166 49762
6576 31166 43840
14591 31166 27300
6609 31166 39398
35313 31166 5761
19038 31166 9960
20104 31166 45388
5779 31166 19118
13378 31166 53782
6951 31166 35100
7163 31166 37448
29482 31166 17298
18977 31166 39239
12729 31166 5723
22833 31166 16544
6729 31166 21294
31037 31166 5481
8516 31166 10183
17367 31166 30047
15946 31166 43370
20352 31166 5698
9145 31166 68980
7152 31166 47496
8134 31166 29516
11025 31166 66804
30915 31166 3194
19919 31166 34599
15358 31166 32175
14709 31166 9637
4833 31166 11096
20641 31166 28051
12620 31166 17638
10431 31166 14019
32159 31166 5912
14094 31166 8986
22564 31166 26375
9843 31166 35404
33477 31166 7191
18001 31166 35759
6942 31166 51301
13023 31166 16255
35559 31166 8692
26033 31166 4885
3730 31166 22496
15551 31166 8538
34514 31166 2174
25168 31166 12422
6246 31166 8479
5348 31166 50183
10152 31166 56019
3779 31166 16788
8364 31166 64901
20570 31166 14690
13483 31166 46082
17610 31166 6835
15162 31166 14569
21930 31166 28008
24582 31166 21724
9714 31166 64549
24429 31166 5325
9006 31166 41870
17983 31166 49669
30063 31166 19553
21678 31166 29370
10009 31166 9786
11127 31166 62372
31284 31166 6650
14800 31166 55634
21354 31166 3855
11279 31166 21881
15729 31166 25753
9252 31166 21561
9631 31166 26500
15594 31166 28295
30581 31166 12274
17020 31166 24976
14082 31166 41944
14683 31166 10987
16292 31166 26534
16261 31166 52482
7934 31166 30463
27093 31166 13022
24011 31166 20732
5252 31166 48255
13652 31166 24999
18250 31166 30892
12041 31166 22807
12703 31166 12591
23989 31166 11433
5090 31166 32387
4668 31166 13301
21231 31166 15262
14398 31166 33507
15550 31166 37546
6635 31166 53530
5298 31166 40896
17237 31166 4562
7620 31166 71280
29142 31166 12070
5058 31166 40393
11274 31166 69271
18596 31166 3885
37301 31166 3532
5411 31166 7790
6276 31166 29804
21792 31166 16922
16793 31166 30431
14643 31166 49597
10128 31166 10634
26645 31166 10382
30476 31166 19951
19791 31166 4052
10576 31166 50774
16400 31166 21832
20402 31166 11202
12732 31166 11367
7385 31166 25645
16762 31166 10778
39963 26768 3919
44609 23520 3302
43238 1189 1827
43978 3697 1583
43765 8359 1128
43410 2800 1669
5046 13630 82697
5046 980 81346
5046 11009 82040
39113 15907 870
39113 2582 2918
39113 1506 606
39113 7090 1003
1921 29028 6852
42 25773 1557
4619 25774 325
1650 25773 200
46402 19843 79262
45351 9793 81236
46132 17261 81264
46389 19724 80177
31088 28900 21880
29725 28900 25350
37441 28900 5570
39019 28900 3584
34666 28900 11218
22707 28900 39942
35540 28900 11508
37090 28900 8453
35231 31166 11366
29015 31166 26383
35673 31166 10803
35013 31166 12311
7861 29611 82866
12349 30794 82866
14608 28963 82866
12901 29218 82866
3005 14250 82127
2469 9339 81518
2442 12718 81937
2737 7282 81263
1984 22306 6879
3417 22504 6898
2563 14516 6887
4831 19361 6917
3229 21082 6896
4891 9180 6918
3787 21908 6903
3457 14208 6899
46450 6016 480
46450 1111 3023
46450 1960 486
46450 10003 1156
46450 276 1223
32989 30674 82866
32493 30290 82866
41169 29776 82866
35347 29475 82866
19685 30405 82866
46450 25834 1422
4172 24924 5065
39986 25773 2254
0 5559 78514
0 14661 80437
0 3291 78112
0 22810 80636
0 19686 78352
0 8586 79371
0 21152 80610
40644 29958 2274
6959 29231 81084
43341 10698 76284
43299 18312 76284
44372 18810 76284
42427 1430 76284
44098 17150 76284
0 29134 79397
4926 31166 82108
44581 28221 76284
41681 28900 64984
41791 22816 924
42366 28640 77433
46450 28977 2359
0 28179 5836
2622 5278 81014
2421 6781 81201
3872 18546 82660
4513 18680 82676
20789 28900 81573
11088 28900 82283
22570 28900 82197
15387 28900 81999
33517 28900 82239
21981 28900 82813
40736 2337 0
40704 4674 0
41045 8010 0
5746 22239 82866
42366 9223 81596
42366 6756 81093
42366 10556 80040
42366 13866 79585
42366 15435 82754
42366 3104 82348
42366 3719 82045
42366 4481 82213
42366 15720 82000
42366 20384 79375
42697 31166 7551
44096 31166 48865
40450 31166 12513
42905 31166 13498
45439 31166 15161
41423 31166 11806
39964 31166 13186
42972 31166 50482
44850 31166 12441
43885 31166 13369
46292 31166 2805
42858 31166 12653
45041 31166 29229
45192 31166 27712
41393 31166 31985
43806 31166 54395
45327 31166 33314
42948 31166 12121
44274 31166 18038
44907 31166 30640
42940 31166 24856
44239 31166 75366
41835 31166 6031
41943 31166 33221
40814 31166 8941
41686 31166 21871
43820 31166 28362
45679 31166 18146
43224 31166 4478
44181 31166 29528
44806 31166 37770
40044 31166 7638
42028 31166 19316
42913 31166 44846
42725 31166 21691
44892 31166 15460
45542 31166 8947
1773 31166 3075
39113 4427 534
39113 5943 2179
39113 846 2222
39113 11690 1163
39113 4353 2467
39113 12389 394
5747 22867 80686
1805 6558 82311
1805 10724 82472
1805 2404 82552
46440 12460 82866
45336 14885 82866
45561 8088 82866
45758 21909 82866
44096 18848 82866
44753 12565 82866
3480 28900 1149
14036 31166 62952
8437 31166 78064
23554 31166 39848
7704 31166 79888
19078 31166 51511
9394 31166 76285
0 23030 6121
85 19283 3499
1388 7179 1869
670 13852 2222
1237 8575 2497
1570 5485 2640
43057 25773 77750
39645 29583 0
43098 17736 215
41333 12832 692
42674 19538 39
41515 11104 861
45070 7105 79242
45255 8868 78976
45014 6562 79550
45251 8834 79690
44772 4251 80294
46450 29490 2030
0 28621 3966
4110 25272 79266
46486 21436 79956
1805 5027 81346
1805 1874 81909
491 20413 82866
518 7173 82866
745 14991 82866
4586 25774 5446
5014 22292 3954
5014 20306 4147
5014 20426 1706
5014 13293 3019
5014 9050 6100
5014 19776 3099
5014 11626 5056
5014 19593 4060
5183 28900 70246
3860 28900 60547
2855 28900 60239
2131 28900 38163
1132 28900 57445
987 28900 37757
4860 28900 67984
2279 28900 36395
1288 28900 74886
1957 28900 29370
2148 28900 60225
1721 28900 36146
3521 28900 77530
214 28900 60764
140 28900 38089
3593 28900 73682
533 28900 26257
3359 28900 59841
505 28900 45950
2153 28900 63251
1987 28900 32017
4343 28900 76980
2538 28900 55260
1571 28900 48154
2449 28900 50310
3894 28900 64511
6262 30635 80210
46444 16699 82866
46419 5739 82866
45706 18936 82866
45357 21009 82866
45971 19460 82866
44303 21399 82866
2567 20455 6887
3443 18263 6898
4648 7030 6914
413 21635 6857
3439 12715 6898
1284 18010 6869
2766 22056 6889
19294 28900 79715
21137 28900 80201
9107 28900 79436
2928 23704 725
44009 22816 80535
6102 21738 82866
4738 14782 82193
3047 1560 80553
4291 12330 81889
3643 9975 81597
485 22355 82866
0 2085 5296
0 7537 5579
40422 22816 3042
43377 23593 77835
1833 23109 4852
1868 30872 0
45932 25644 77829
42366 26676 81386
45621 24729 3302
45458 25614 3302
43887 520 82866
43665 3415 82866
42448 19755 82866
0 30502 6159
41514 28900 2879
45368 31166 55172
45036 31166 52466
45361 31166 53678
45072 31166 76141
46109 31166 74183
45721 31166 75888
44456 31166 71406
46373 31166 23537
45443 31166 72837
45968 31166 18714
45896 31166 65083
5969 18781 82866
5339 17810 82866
5785 20984 82866
43371 29695 2274
43751 23665 82010
214 30264 80210
0 5848 6087
0 16990 6659
41293 21775 0
6959 9075 81088
6959 15644 81267
6959 12472 82097
6959 3317 81156
6959 21665 81156
6959 2113 81364
6959 17610 81020
44274 30111 77536
43942 30312 2274
0 28766 80017
6704 7013 82866
6685 15089 82866
6464 8886 82866
41057 929 1279
41114 5433 259
6959 9570 82473
6959 7721 82149
496 8784 5235
25 18331 5235
1069 7537 5235
31075 28900 21125
22484 28900 40464
24186 28900 37852
33750 28900 15191
32232 28900 17607
38349 28900 3966
35096 28900 12103
46486 610 76525
46486 3821 76957
42260 25773 503
0 26872 3896
40164 23700 2669
1714 3096 5235
189 10956 5235
0 19631 274
0 16960 1368
46486 16948 77675
46486 13899 77119
46486 15828 77853
0 22369 2597
0 28886 341
0 30714 5027
0 29839 1496
44534 22816 1926
30013 29817 0
25967 29230 0
18856 29492 0
38736 29670 0
39113 28171 3534
44605 2652 81100
45466 10888 80412
45564 11828 79484
45720 13321 80435
2119 10220 77976
2514 19621 77976
5181 18602 77976
292 16149 77976
2967 17794 77976
670 7991 77976
412 8790 77976
2074 7156 77976
4644 22009 77976
2210 13493 77976
688 14545 77976
6959 12966 77996
6959 11388 78181
6959 14169 79130
6959 1352 78175
6959 15882 78239
1746 26789 82866
870 29507 82866
1669 29612 82866
44457 31166 1383
45170 22816 76945
44364 6609 302
44364 11367 758
46450 28531 1873
5596 25615 81798
41272 7819 1181
43231 13341 643
41312 19465 46
43716 16073 3919
40663 18228 3919
43506 19578 3919
46145 18396 3919
43140 18873 3919
41236 18267 3919
44148 13539 3919
43830 10148 3919
43209 11435 3919
44452 9582 3919
825 24523 80209
33479 28900 11112
8258 28900 64698
26891 28900 26070
17485 28900 8407
7862 28900 68445
22194 28900 39307
12422 28900 61874
10163 28900 46793
14372 28900 36043
12324 28900 61007
6973 28900 14733
23955 28900 11660
16318 28900 41588
8391 28900 34197
22811 28900 9752
32444 28900 8788
21360 28900 40059
21971 28900 6962
13539 28900 22310
18502 28900 19856
9457 28900 14726
24720 28900 22003
24261 28900 16707
38238 28900 1630
6735 28900 49516
14829 28900 41561
18816 28900 22207
11042 28900 57192
6301 28900 33759
17561 28900 11988
5920 28900 32146
36851 28900 2829
18816 28900 30263
7106 28900 62604
37358 28900 3271
13476 28900 55277
16288 28900 43937
13496 28900 26120
9517 28900 7212
18612 28900 16976
9392 28900 52067
11186 28900 16801
16604 28900 33735
25335 28900 30626
7617 28900 11210
10631 28900 36647
12604 28900 55322
7011 28900 11343
18840 28900 4633
21753 28900 5097
7605 28900 27930
37747 28900 1378
7367 28900 26263
8394 28900 34873
19252 28900 9768
6085 28900 32934
8444 28900 8771
15975 28900 15129
11506 28900 11262
15471 28900 14864
17778 28900 36260
19178 28900 35970
31986 28900 6895
18145 28900 23173
12380 28900 11612
24822 28900 11611
33994 28900 6390
10677 28900 56510
26336 28900 29838
6742 28900 18425
31634 28900 4608
22743 28900 30898
11628 28900 17814
27735 28900 13864
20014 28900 35662
15937 28900 12625
32323 28900 13357
26963 28900 23877
25237 28900 3558
18141 28900 26248
13572 28900 30458
16558 28900 47759
20226 28900 32235
24497 28900 35357
34686 28900 9034
10500 28900 9010
28546 28900 22204
26276 28900 17898
5877 28900 9397
10367 28900 30399
23158 28900 22300
21324 28900 29243
13713 28900 46727
18153 28900 47535
5574 28900 22721
10450 28900 38929
14718 28900 23709
8988 28900 52848
32134 28900 16436
18906 28900 24432
8505 28900 72799
8468 28900 63698
11679 28900 61308
11808 28900 32914
23827 28900 4544
30031 28900 11611
29884 28900 14036
5378 28900 18316
12280 28900 46430
25904 28900 15943
14989 28900 47462
25662 28900 10572
6302 28900 43629
20805 28900 29872
17348 28900 50883
15144 28900 41108
14416 28900 5062
15407 28900 38591
12907 28900 42338
7848 28900 36596
5383 28900 9027
22915 28900 14052
16478 28900 23367
8546 28900 61349
8265 28900 29274
12111 28900 12943
24422 28900 15163
24329 28900 24691
34268 28900 2197
5495 28900 17368
8699 28900 52367
12270 28900 24709
5621 28900 10372
20857 28900 26152
20309 28900 18936
6117 28900 11070
22544 28900 17175
23543 28900 24756
12560 28900 18571
18979 28900 38710
9025 28900 6606
11718 28900 63054
20482 28900 27966
7459 28900 37387
8079 28900 47890
23129 28900 3507
12261 28900 34092
8873 28900 16129
6746 28900 15838
11157 28900 42439
29459 28900 6903
44322 22816 77164
42695 31166 544
4947 28900 5381
0 12370 808
0 14691 59
0 10416 468
44808 28900 2501
39113 19171 3692
39113 16238 2068
39113 9599 3104
39113 19007 1454
46437 22816 80802
4471 28900 21732
3611 28900 38206
1462 28900 11328
4671 28900 35813
5242 28900 37469
1017 28900 12792
5826 28900 54753
5123 28900 49416
6014 28900 62989
1637 28900 16677
3673 28900 40127
772 28900 8359
4845 28900 44931
5625 28900 48541
3482 28900 30486
4481 28900 19185
3241 28900 22228
5949 28900 56220
5102 28900 33677
45484 6276 76284
46092 15639 76284
44868 7175 76284
42912 66 76284
6959 30731 80993
4019 25615 81380
5364 28900 78557
955 23972 1336
0 8024 78998
0 22142 81247
0 19948 80110
0 17399 78346
35859 28900 3009
9197 28900 46082
14889 28900 52497
19925 28900 14372
7225 28900 8798
12148 28900 30044
11041 28900 39890
25758 28900 22949
32284 28900 9390
13491 28900 53148
19273 28900 44438
9086 28900 25362
11719 28900 42369
8597 28900 16859
16001 28900 51208
15321 28900 16776
18452 28900 6662
19207 28900 42938
9885 28900 50436
14659 28900 11607
24795 28900 19838
23215 28900 33008
27438 28900 21277
14338 28900 30785
5154 28900 7374
24877 28900 24706
19590 28900 40873
35030 28900 1913
16424 28900 17559
21576 28900 13668
15457 28900 23956
17956 28900 42714
25000 28900 20428
17902 28900 16134
6368 28900 25486
7971 28900 69535
6311 28900 44635
29705 28900 6101
22360 28900 12272
30503 28900 20728
11785 28900 41045
32155 28900 14466
7435 28900 51873
17585 28900 31769
35890 28900 6189
15835 28900 28883
19132 28900 19541
13076 28900 54702
34235 28900 1288
15544 28900 42469
8540 28900 40467
6605 28900 28310
25517 28900 7781
23479 28900 33483
24227 28900 10057
10263 28900 64990
9719 28900 26558
9465 28900 13795
11754 28900 58534
37279 28900 1108
7533 28900 65728
12965 28900 53648
14401 28900 18539
15901 28900 27869
22659 28900 9197
13940 28900 40026
15975 28900 30117
27335 28900 28096
6217 28900 48666
12979 28900 49502
10498 28900 20261
18192 28900 39517
15614 28900 13629
6433 28900 26338
35926 28900 891
6834 28900 66003
23679 28900 18927
8530 28900 32797
28114 28900 11247
17516 28900 34831
6938 28900 65056
25093 28900 16021
14514 28900 24473
6162 28900 36371
18756 28900 39587
8461 28900 44650
18220 28900 27098
22206 28900 36901
28223 28900 14832
24992 28900 18739
18760 28900 5593
21871 28900 4462
32289 28900 4929
34796 28900 8435
11129 28900 32299
9282 28900 50017
21508 28900 24044
19259 28900 33793
18898 28900 7108
8818 28900 70646
12714 28900 61419
8742 28900 24909
28487 28900 22787
15003 28900 37369
16363 28900 34906
7321 28900 61337
23231 28900 25362
15933 28900 36518
21103 28900 27606
11841 28900 35369
13524 28900 17939
29128 28900 4044
27546 28900 8901
22267 28900 28055
10124 28900 41905
16827 28900 49376
8486 28900 35970
30187 28900 18931
10700 28900 34501
10917 28900 50193
9057 28900 39058
12805 28900 29778
16153 28900 26930
12884 28900 57592
24888 28900 9160
22957 28900 13443
32751 28900 6341
11542 28900 11859
25144 28900 26731
9246 28900 56904
25784 28900 29079
9886 28900 48976
25727 28900 29628
11319 28900 64818
12242 28900 32491
22856 28900 15098
19808 28900 28371
3407 23109 869
2123 30140 0
40127 9405 3919
39936 10463 3919
40202 2476 3919
44260 2164 3919
43034 4997 3919
39775 17277 3919
44184 5265 3919
45715 163 3919
42057 2587 3919
40830 2230 3919
2702 25615 79718
5014 28666 1026
46450 30911 60961
46450 30634 68989
46450 30485 52890
46450 29945 45278
46450 30134 36356
46450 30164 72122
46450 30762 31104
46450 30760 72959
41906 31166 1833
45235 31166 811
41115 31166 24086
42272 31166 31317
43040 31166 42256
43027 31166 16334
43783 31166 63398
41620 31166 33839
44779 31166 24899
42220 31166 45179
44330 31166 30737
44030 31166 38598
41663 31166 18405
40953 31166 3604
44612 31166 38765
41173 31166 13568
39721 31166 3974
44924 31166 35651
44689 31166 16509
43611 31166 35189
41257 31166 10347
44645 31166 4721
44628 31166 55444
43759 31166 44713
42002 31166 5416
44860 31166 47286
42427 31166 23256
43271 31166 25909
43113 31166 17184
46001 31166 15760
6534 27358 82866
6318 26196 82866
39113 29062 1944
5020 22816 81561
45880 23062 80813
5014 27638 5888
5014 27970 2168
2384 20963 0
4696 17683 0
4380 20797 0
1663 19565 0
2530 18402 0
1674 23007 0
4181 11132 0
3009 31166 80250
0 29390 75422
0 29365 70174
0 31125 19326
0 30182 38522
0 30917 49761
0 31045 26853
0 30696 57111
0 30495 36457
0 30739 60673
45092 23086 3302
6959 13612 80664
6959 10450 80849
6959 20185 82269
6959 18773 78617
6959 14425 80478
6959 14662 81111
31226 28900 78263
30987 28900 76708
32667 28900 70712
38546 28900 27205
34284 28900 80648
20352 28900 72322
38626 28900 37714
31510 28900 57641
39557 28900 45652
37361 28900 29926
37123 28900 33134
16240 28900 79131
40334 28900 40217
24158 28900 70096
27893 28900 50209
21326 28900 69956
33466 28900 35884
33067 28900 71429
26383 28900 79719
34481 28900 27140
25249 28900 52386
25803 28900 51800
20782 28900 69224
30269 28900 80860
40650 28900 77471
18652 28900 62149
27983 28900 69831
37062 28900 74096
38296 28900 24893
30437 28900 43217
37429 28900 50322
26440 28900 54105
23951 28900 47515
36265 28900 47053
40999 28900 74543
17559 28900 62896
24129 28900 72237
29245 28900 60404
17162 28900 73031
22817 28900 60589
30546 28900 77945
37427 28900 25127
36566 28900 22923
31957 28900 33437
32020 28900 37723
36000 28900 24144
33281 28900 58800
21993 28900 61167
39238 28900 41650
21701 28900 62940
22947 28900 56958
36557 28900 15399
19922 28900 57119
36963 28900 31849
27212 28900 63012
32917 28900 48910
24160 28900 60107
13140 28900 77427
33097 28900 56628
29853 28900 74276
22076 28900 79759
39493 28900 23849
30429 28900 38921
26922 28900 48425
39362 28900 43565
28652 28900 36602
18294 28900 55335
17434 28900 70279
33514 28900 50676
33656 28900 32642
34430 28900 68421
38589 28900 62614
39794 28900 34679
33118 28900 34307
19339 28900 71801
26701 28900 38147
24716 28900 44086
16049 28900 61343
36495 28900 33827
29299 28900 80673
37592 28900 56580
33114 28900 20371
19524 28900 50086
38481 28900 41809
26876 28900 50638
23364 28900 47432
14172 28900 65516
22081 28900 58215
29180 28900 35538
36159 28900 39298
35544 28900 22415
13257 28900 65158
29025 28900 68952
34403 28900 49106
33295 28900 76211
32289 28900 69637
33797 28900 33479
32046 28900 54091
36113 28900 31703
16459 28900 70487
27905 28900 70813
36519 28900 49074
10865 28900 76715
31449 28900 71119
39854 28900 77853
41082 28900 66523
32370 28900 37002
35878 28900 76742
39397 28900 19881
30650 28900 79213
31640 28900 31552
19445 28900 72914
37471 28900 28888
27711 28900 55333
34755 28900 77437
21670 28900 72950
29575 28900 61182
20155 28900 70351
33560 28900 25700
25922 28900 60965
9756 28900 75965
29719 28900 33093
37529 28900 37275
39236 28900 14541
31668 28900 45163
29066 28900 47565
39079 28900 59294
37624 28900 73777
20065 28900 58555
28068 28900 62539
38291 28900 66194
40843 28900 80085
34201 28900 53271
28424 28900 39272
23602 28900 70120
35594 28900 28483
39207 28900 36328
33011 28900 50142
35562 28900 14297
37436 28900 66805
9984 28900 77125
32707 28900 27181
37722 28900 18357
36877 28900 30367
39515 28900 26131
22605 28900 78594
27401 28900 60502
39333 28900 19343
38193 28900 70456
31232 28900 59047
17853 28900 69605
39417 28900 30216
943 3100 6864
1571 7855 6873
2023 13677 6879
52 15735 6853
41368 25773 2251
347 391 1721
96 5404 1721
221 31166 6030
43783 28295 82866
1545 31166 80245
6959 27658 80041
1283 23691 79266
42926 28900 82848
3687 28900 78735
2720 26360 0
27 26162 0
45975 28133 82866
308 28900 78627
43377 25229 80440
514 6792 77976
791 9286 77976
3354 11669 77976
1577 9891 77976
3528 15642 77976
3143 13433 77976
620 2313 77976
27384 31166 29948
10906 31166 72582
34562 31166 11407
11369 31166 70835
10381 31166 73279
8168 31166 77341
44654 28900 70047
45979 28900 74775
45301 28900 75614
45135 28900 67672
46240 28900 33700
45042 28900 62621
46034 28900 64815
18817 28900 1251
16966 28900 2018
28182 28900 2021
7926 28900 464
5555 28900 6722
23244 28900 2509
18078 28900 977
10040 28900 136
6295 28900 2848
23793 28900 619
34004 28900 662
18265 28900 4073
12789 28900 1542
45860 14659 78307
44387 569 79656
44605 2655 78871
44539 2024 79097
2461 22816 78249
46486 13307 81835
46486 5700 81882
39597 22816 3365
45607 31166 42913
45300 31166 59819
45970 31166 70797
46355 31166 56117
45683 31166 62904
44754 31166 68222
46135 31166 43046
46314 31166 20381
4952 16018 77976
6417 2865 77976
6911 14655 77976
4926 7244 77976
3245 6750 77976
5298 1618 77976
4481 13631 77976
3569 1479 77976
3323 9305 77976
6851 17169 77976
45881 24983 80735
0 21783 6480
0 18070 5985
45257 31166 80217
17059 31166 67073
22336 31166 78950
37892 31166 34238
18418 31166 56618
36458 31166 28127
40831 31166 32459
41312 31166 43685
24820 31166 59223
16369 31166 76968
28375 31166 56315
41757 31166 63542
16172 31166 72378
25689 31166 63549
24884 31166 72530
41145 31166 68358
40676 31166 57987
18485 31166 71178
27105 31166 35444
41401 31166 65935
11561 31166 77790
27572 31166 61607
21002 31166 50170
27473 31166 59543
36349 31166 67165
36757 31166 55600
31671 31166 28591
27669 31166 72164
24795 31166 53667
30333 31166 81396
21219 31166 63136
22996 31166 71872
16399 31166 70377
9095 31166 81435
35072 31166 31784
20356 31166 80769
21253 31166 63742
32051 31166 82198
26848 31166 49275
29468 31166 65045
39927 31166 31292
29761 31166 49311
39471 31166 14718
8617 31166 82342
38914 31166 54692
26807 31166 63712
26737 31166 47415
31560 31166 80543
37190 31166 32068
22865 31166 82080
16781 31166 75030
10345 31166 80502
36385 31166 26070
33106 31166 65597
42387 31166 79138
13220 31166 81570
38128 31166 74270
33725 31166 56121
30504 31166 39365
32466 31166 38081
35616 31166 43360
24330 31166 66255
26998 31166 43552
33993 31166 47972
27177 31166 48770
39044 31166 43959
36936 31166 37532
27296 31166 39019
39721 31166 55701
36100 31166 29798
30908 31166 37290
36545 31166 12194
35737 31166 58017
17973 31166 61201
37475 31166 59369
36441 31166 70179
21820 31166 63296
18455 31166 62461
24211 31166 50204
25984 31166 39112
10292 31166 81848
32510 31166 19856
32591 31166 27572
26207 31166 42274
29733 31166 51386
34464 31166 72393
23088 31166 60095
21623 31166 61971
40282 31166 42079
35179 31166 36363
21653 31166 55994
16964 31166 57997
36003 31166 51824
13988 31166 79570
25594 31166 80855
32195 31166 74641
26957 31166 68220
36694 31166 31432
27400 31166 55097
33196 31166 48668
32294 31166 75300
35490 31166 33976
21774 31166 76107
12497 31166 75456
31284 31166 22155
39033 31166 75002
36041 31166 62319
25989 31166 78755
25844 31166 51997
35426 31166 82071
31548 31166 77004
29962 31166 67405
33315 31166 74433
24704 31166 68756
34287 31166 78669
28992 31166 69852
38384 31166 49941
39615 31166 21094
18914 31166 73742
37304 31166 15587
24229 31166 54167
28455 31166 53695
36350 31166 17296
17799 31166 80439
28647 31166 82133
30310 31166 44615
12205 31166 77520
31260 31166 44993
39785 31166 48858
22325 31166 66031
31777 31166 64856
41103 31166 73854
31490 31166 56105
40583 31166 33118
25329 31166 46418
29896 31166 74269
40627 31166 67793
36160 31166 71324
42111 31166 77889
33788 31166 66608
31246 31166 25295
27630 31166 56941
15127 31166 68251
27042 31166 79232
27204 31166 33932
33787 31166 16773
28271 31166 66444
32817 31166 51755
39124 31166 46416
17485 31166 59011
37620 31166 49832
38169 31166 51041
16966 31166 67660
15296 31166 75579
39351 31166 12836
22437 31166 67324
25710 31166 74757
34342 31166 31726
24086 31166 70263
27345 31166 67246
18835 31166 77575
44601 31166 76954
4132 10295 77976
1458 1465 77976
4500 2495 77976
3128 4278 77976
6458 18983 77976
4602 6551 77976
4649 9893 77976
6800 18174 77976
44551 23994 77100
43777 28900 66961
43074 28900 71925
45763 28900 16659
44295 28900 59236
44584 28900 47430
43403 28900 73120
42902 28900 75196
43654 28900 64610
44142 10723 898
43722 14197 559
659 23109 4170
2843 30607 1549
39113 26091 1278
46389 5386 81280
6867 29597 82866
1253 31166 7993
652 31166 27437
1314 31166 33172
885 31166 39601
622 31166 43073
2122 31166 13351
1898 31166 11060
1700 31166 20641
138 31166 30747
364 31166 20215
551 31166 16874
43692 19618 76284
44643 16592 76284
45371 22224 76284
44898 18625 76284
43537 9796 76284
42606 12916 76284
46486 1652 81645
46486 195 81552
6959 4348 79825
6959 20835 78168
6959 4915 78994
6959 6560 78888
6959 11973 78766
