ply
format ascii 1.0
element vertex 2744
property float x
property float y
property float z
end_header
38879 43922 0
3113 75203 3009
1650 51495 34417
2054 49492 34417
1646 52998 34417
1707 60471 34417
3404 46659 34417
2500 53011 34417
1989 56327 34417
2369 50687 34417
10052 43014 6620
6069 43014 20344
6736 43014 18780
2804 64161 6364
3067 63138 6364
31010 45820 10815
32801 45820 21635
32739 45820 23384
16682 37404 5112
7466 37404 4078
4917 37404 4487
17282 37404 4955
4675 21804 35665
4675 27103 35139
3791 61640 6163
3651 64442 5685
34671 43014 21422
11503 17904 35200
8037 17612 35200
1110 43950 22645
1921 43950 23878
4116 43950 10386
3414 43950 14331
1316 43950 9974
3048 43950 8920
3272 43950 12281
1987 43950 12686
30918 17719 35200
24477 19075 35200
27377 19307 35200
35405 44926 23016
4675 12414 5557
4675 1636 6249
4675 4623 5220
3495 43950 15810
3629 43950 17163
18110 43014 35280
34339 38473 34417
2776 82262 3060
3016 82274 17082
3215 82284 37929
11426 45032 33539
4675 13175 35008
4282 43950 13304
2885 79755 39755
33965 16155 37223
35518 24952 37223
35075 28568 37223
36445 39796 37223
33677 29096 37223
35890 26370 37223
36029 33242 37223
35179 19573 37223
36762 41266 37223
36135 36202 37223
34875 21405 37223
36447 33647 37223
3356 70330 3837
3552 66425 4452
3870 60047 4056
2835 80750 29992
3006 77331 25410
2803 81403 33205
2923 78987 36300
3139 74685 37350
2927 78915 34170
2887 79712 28317
2762 82215 38305
3061 76229 23772
2934 78764 25561
2764 82183 12166
2813 81191 26066
2818 81097 9857
2851 80429 23266
2774 81984 7965
2832 80787 27051
3089 75677 27678
2988 77688 38054
3079 75871 34202
3100 75448 28473
2778 81904 26762
3012 77209 31163
2824 80980 33719
2761 82227 5419
2925 78948 34729
2784 81768 22843
2869 80072 36515
2884 79784 37356
34112 45820 21198
11200 44621 33551
4603 39920 35478
7757 44885 30743
10561 19560 5121
36631 37830 32113
36631 38442 33809
36631 40103 19928
36631 40753 26535
36631 37455 7631
36631 38302 23814
36631 38178 17620
36631 38922 19827
36631 39678 29248
36631 38795 28005
6701 17591 5486
12644 18674 5486
6255 17740 5486
34760 40360 14611
34760 39170 13145
34760 37613 26135
34760 42663 20615
34760 42130 20952
34760 38608 28802
34760 39580 28790
34760 38015 18730
34760 40662 20628
34760 40027 18552
19285 18737 35200
33592 37079 37043
4423 43244 34417
779 43950 30148
464 43950 31378
37421 43014 145
29419 43014 1859
8646 43014 5785
26316 43014 2823
15823 43014 4314
35170 18956 34417
34364 31399 34417
34973 29609 34417
8039 44370 9926
1469 43014 33496
37472 43950 37268
36435 43950 34411
36323 43950 28374
3413 69197 36312
3557 66305 35276
3474 67944 36210
26829 43014 36614
34721 43014 39587
26086 43014 36435
33592 34867 36374
33592 32334 36255
33592 35474 35139
33592 25998 34905
33592 27257 35664
26675 43014 11236
25753 43014 12839
27007 43014 21476
27246 43014 27880
25182 43014 12767
26107 43014 8817
26487 43014 20505
35569 43014 31644
35805 43014 9748
35500 43014 21127
10965 44056 7349
32868 43014 1885
22620 43014 5667
1681 37404 20535
1547 37404 13823
2222 37404 13809
1901 37404 18044
1226 32117 6364
1058 31445 6364
36778 43950 19133
38813 43950 39054
37470 43950 12436
37891 43950 31811
37347 43950 26840
38190 43950 4072
37594 43950 9669
37125 43014 5235
39274 43786 15118
39274 43618 16088
39274 43880 30134
36223 39852 34417
33070 45820 22884
33434 45820 17767
19642 19560 20996
19192 19560 8130
935 11966 36320
935 22296 35401
935 55436 34485
935 13491 34628
935 38193 34446
935 11901 34880
935 50191 34750
935 9555 35693
935 56662 34868
935 1843 34637
935 35997 35312
935 19430 36269
935 48795 34668
935 15618 36413
935 60620 34830
4316 58931 28995
4456 58938 18768
3682 75963 632
3749 71472 632
34911 43014 27373
33652 44070 11630
3435 68761 1121
3576 65938 1103
34868 37404 23907
36390 37404 9058
34814 37404 28437
39097 43950 24771
23084 37404 4201
14046 37404 5267
18096 37404 4943
23639 37404 4177
36315 41272 3559
11203 43742 33291
30953 18059 36135
28405 18800 36135
31596 17810 36135
17664 17589 36135
27144 17387 36135
3944 37600 6364
2522 18881 6364
6172 45820 21019
6324 45820 17534
31011 43014 37299
28723 43014 36521
32164 43014 38105
26551 43014 22951
25292 43014 6772
25821 43014 14457
26743 43014 14800
27159 43014 11247
26087 43014 10458
33577 43014 21191
32071 43014 15776
31634 43014 15189
32355 43014 23385
35554 43848 21430
4459 58938 30294
4536 58943 35395
37328 43950 31053
36193 43950 24467
24281 43669 5419
32503 43014 34717
32888 43014 30603
1716 6708 37223
2257 8525 37223
4086 33910 37223
3046 16988 37223
4383 38826 37223
3536 29045 37223
4061 21484 37223
3989 28877 37223
3622 5412 37223
4504 17985 37223
3829 3374 37223
4517 11220 37223
20105 19368 8323
20105 17320 6611
20105 17400 7119
20105 19402 15328
20105 19083 6201
17412 45820 24498
16211 45820 25238
17295 45820 22511
17494 45820 26066
16380 45820 23939
17592 45820 25089
17177 45820 33300
16053 45820 29513
2975 77944 3229
3020 77060 3995
4675 19359 35056
4675 7259 34499
4675 25101 34616
4426 48935 36316
4324 50973 36316
4606 45326 36379
37279 41173 34417
11192 43950 35175
12154 37404 35879
7508 37404 35951
10112 37404 35906
5861 37404 36106
19224 43014 24608
19354 43014 28260
19783 43014 15230
18809 43014 24322
19284 43014 11411
18032 43014 20570
19482 43014 32275
19805 43014 20952
7114 45820 24762
7714 45820 28768
7587 45820 25800
2402 52427 37223
1733 51051 37223
3200 56299 37223
3489 58023 37223
1879 64577 37223
2115 62239 37223
17224 43014 14702
18154 43014 15136
16927 43014 18791
16510 43014 27720
17370 43014 11633
16914 43014 9278
16538 43014 9786
17259 43014 8369
19499 43014 7083
17590 41929 36755
22385 41485 36755
17130 42168 36755
24315 41358 36755
18406 40623 36755
7823 39902 36755
10568 40346 36755
17511 41299 36755
27984 42561 36755
7543 38983 36755
28106 41836 36755
27641 45820 7887
29080 45820 19472
30138 45820 22322
29481 45820 23143
29286 45820 20488
11264 45820 12091
11675 45820 16934
11116 45820 11215
12324 45820 25462
11019 45820 18260
12322 45820 29053
30517 43014 6730
29673 43014 7022
3732 58390 3559
3527 55207 3559
3181 73832 30876
3025 76947 18796
3269 72079 36895
935 60731 35352
935 53022 36059
935 26296 36985
935 40614 36208
935 57914 35130
935 52244 35190
935 48049 35693
935 45240 36286
935 57070 35096
33592 10042 6263
39274 43650 3208
39274 43544 10531
39274 43740 11916
2792 2009 34417
1718 11041 34417
1297 26537 34417
3692 6059 34417
1088 22742 34417
2107 12702 34417
1929 16096 34417
1497 14972 34417
1456 21556 34417
3820 8102 34417
1242 35388 34417
935 50976 5934
935 53654 5773
935 57068 5548
935 62500 6131
935 49025 6320
935 56594 6260
6441 43014 12268
15914 44885 36057
36249 27190 6364
36039 26554 6364
5764 43950 8319
6142 43950 11046
33568 43014 26635
22459 17324 35200
21146 18159 35200
3389 42186 28434
3389 41538 19474
3389 37664 6953
3389 42652 22913
3389 39902 8068
3389 42528 14484
3389 38777 8038
3389 42983 14260
3389 42536 31466
3389 38565 9829
3389 42181 8551
35018 43014 31778
5221 43014 15937
37122 37768 34417
36941 21865 34417
36819 15299 34417
36710 43950 862
30234 43950 4432
35544 43950 1590
29590 44885 7641
35208 9893 37223
36524 19149 37223
37070 24237 37223
34146 2434 37223
35797 12402 37223
36547 11964 37223
36502 3565 37223
35425 2569 37223
36432 9255 37223
32986 43950 40343
19565 19560 6309
19713 19560 14599
4127 64600 632
3386 74034 632
34061 43014 8611
38712 43014 2182
31331 18833 5486
29458 18172 5486
28304 18506 5486
30231 17742 35200
20339 17835 35200
26838 45820 13253
26312 45820 12303
26970 45820 15650
26067 45820 18860
24925 45820 12276
26314 45820 9153
28100 37844 5896
27753 38863 5896
30339 39305 5896
23995 40937 5896
17320 37883 5896
28202 40263 5896
26300 40161 5896
23314 39391 5896
30190 38134 5896
4975 37424 5896
9991 17222 4850
7010 17222 4874
2385 43014 13142
2937 43014 16086
2751 43014 7190
4634 27540 34417
4541 6473 34417
3911 24280 34417
4350 41282 34417
2219 72004 36925
22741 18955 36135
10434 18251 36135
30870 19392 36135
17147 19336 36135
4546 46544 5891
4223 52993 6117
4372 50018 6140
4298 51485 5349
4436 67454 684
11740 45383 33341
28940 37404 35966
32972 37404 35406
13127 37404 36755
21633 37404 36648
36471 37404 9846
6097 45465 26721
22841 17222 36130
10401 17222 35986
32230 19026 35200
1938 43014 32597
4603 40764 5228
4396 48181 6364
3569 54946 6364
3736 57529 6364
3787 44989 6364
7202 43950 34311
10167 43950 33460
3737 62712 38375
34760 42607 28528
34760 41562 30966
34760 41258 32703
34760 41559 26315
34760 40805 33506
34760 41896 34123
1947 71448 37223
1544 71914 37223
33279 19560 35672
4751 43950 5946
7533 43014 29379
7454 43014 32391
21703 43950 4658
31154 43014 31518
12331 43356 7078
27722 43014 3654
24573 43014 4608
24974 43014 5184
7245 42854 35255
5137 42854 35231
36077 25920 37223
35686 41391 37223
34500 25238 37223
35648 42001 37223
34746 18985 37223
34163 41635 37223
33933 35454 37223
33789 31775 37223
34378 18191 37223
35114 31418 37223
35646 23403 37223
35289 24062 37223
1279 43014 29461
34895 45267 16413
34375 43469 40492
30688 43292 40138
34666 16486 6364
36076 36262 6364
34916 17063 6364
34605 18155 6364
36457 37296 6364
26624 44223 5583
9648 40324 4026
10213 40779 4026
12976 40004 4026
24526 38160 4026
17150 38574 4026
6115 37747 4026
12496 37426 4026
32020 37651 4026
11967 39405 4026
25286 37756 4026
15564 40361 4026
3106 75343 1612
3161 74236 1492
35126 27101 34417
35122 17452 34417
34475 30885 34417
35680 43950 17205
22960 19560 4609
19889 19560 4967
1643 49784 37223
1437 50210 37223
1721 53184 37223
1737 59835 37223
2066 54106 37223
2679 64272 37223
16608 44438 35823
3579 65870 2902
3877 59915 3123
1260 0 37207
29580 45820 30153
27699 45820 31622
28220 45820 21143
28707 45820 24279
27745 45820 17373
28094 45820 30918
30858 45820 21336
31456 45820 27295
30832 45820 16451
30985 45820 20158
32175 43014 1314
9081 43014 6152
20099 43014 4175
17861 43014 5154
33592 22215 36846
33592 13873 35694
33592 400 36904
33592 1828 36098
33592 4404 36802
33592 2687 35589
33592 33238 36711
1442 41901 3559
1329 58689 3559
969 18720 3559
1831 28917 3559
2258 37592 3559
2943 12462 3559
3369 13868 3559
1136 9699 3559
2760 18649 3559
999 57259 3559
2215 30042 3559
3209 11385 3559
1087 52799 3559
1844 47677 3559
2018 10603 3559
2729 4249 3559
1756 48705 3559
1054 12619 3559
2906 32775 3559
28164 43014 32938
30630 43014 34570
15847 43122 38712
21026 43455 39210
2814 37404 21189
2435 37404 22049
3365 37404 12646
2474 37404 26820
4675 20312 34752
4675 33248 34431
4675 9198 34593
4082 74525 39398
3828 79627 39225
3864 34292 6364
2183 15691 6364
3326 33513 6364
30856 37404 5413
12422 37404 5439
24044 37404 4647
6206 43382 27004
197 43014 28839
511 43014 26334
3607 65311 38091
3343 70602 39007
3081 75834 39035
38879 43191 0
4675 18946 4550
21836 19560 35488
5719 44261 28524
1905 65592 3559
2760 63911 3559
29667 44377 7404
15683 17987 5486
18225 18568 5486
20080 45820 25306
22173 45820 34155
22687 45820 30615
21137 45820 33088
20703 45820 25629
22993 45820 34127
21308 45820 20201
20700 45820 16816
21780 45820 25229
19169 19392 21579
19169 19199 19387
19169 18268 24789
19169 19012 18275
19169 19413 15052
2990 43950 31406
3473 43950 24404
4607 43950 34076
1942 43950 32616
4675 12368 35633
25647 45820 24451
24332 45820 12963
24007 45820 11789
23833 45820 15075
24455 45820 19450
24268 45820 24633
25116 45820 22532
24230 45820 29721
27136 43950 5958
35176 43950 37182
28776 43950 34069
33859 43950 35259
33278 43950 35583
4759 43014 20550
4526 46914 3899
4332 50795 4624
4311 51224 4007
3389 42010 23861
3389 40868 17235
3389 40663 20965
3389 42759 28977
3389 39659 11890
3389 42502 26814
3389 41067 7363
3389 41888 25639
3389 38809 6491
4675 21096 4816
1006 43014 13714
952 43014 24064
28950 43014 5278
32405 43014 2460
37884 43014 185
37225 43014 22845
37245 43014 27053
37652 43014 32107
32906 19560 4937
24343 43950 2229
11168 43950 2982
17820 43950 2628
27368 43950 1578
26603 43950 1971
5621 43014 8779
7178 43014 8209
34760 38032 17577
34760 39140 23234
34760 38653 18211
34760 38115 21423
34760 40451 24727
34760 37861 25541
34760 38394 27921
34760 42138 22445
34760 37438 30020
34760 37550 18926
32232 43704 29775
33024 45820 13625
4300 61328 39907
4001 58915 5614
31919 38052 34885
27262 39479 34885
32183 41154 34885
28616 39833 34885
20503 40556 34885
27850 39339 34885
31729 42306 34885
29572 40841 34885
24612 41129 34885
33664 18286 35707
22140 19560 5067
6691 19560 4644
19169 17434 14820
19169 18034 16099
19169 17555 11543
19169 18905 11025
19169 17262 34549
28813 43014 12495
28095 43014 26242
28188 43014 24626
29167 43014 16834
28079 43014 8820
31702 44885 9493
648 43950 15587
376 43950 13838
22006 43950 36612
24584 43950 36805
7330 39842 5896
6038 38421 5896
13019 42801 5896
10104 38882 5896
8191 38971 5896
26512 42309 5896
9037 41505 5896
6002 37857 5896
7911 40493 5896
6351 39720 5896
13827 42564 5896
3916 43014 16351
4370 43014 6487
14067 45820 7030
15127 45820 20261
15728 45820 13551
14960 45820 23629
14423 45820 21046
14839 45820 6486
15863 45820 31747
13424 45820 14846
10386 42854 35151
28402 42854 34946
24128 42854 36129
28159 42854 35944
7455 43014 30650
7307 43014 29877
23210 39090 36755
10911 37603 36755
23660 40367 36755
27542 38787 36755
9661 37617 36755
31111 40879 36755
25180 39575 36755
19729 39079 36755
22680 40549 36755
8925 37817 36755
33592 24876 34706
37338 43950 3800
37903 43950 2281
28949 45820 20029
28211 45820 27780
28093 45820 18914
27535 45820 19346
8663 43014 20050
9179 43014 29610
8149 43014 21463
33857 20470 6364
33609 23484 6364
34370 33220 6364
34049 28724 6364
12569 43014 10874
14242 43014 11124
12718 43014 26594
13077 43014 18695
13168 43014 17677
14299 43014 12411
14236 43014 16418
3007 77311 23670
2801 81444 13581
2993 77599 36954
3061 76234 36540
2885 79758 13677
2863 80199 19129
3025 76952 34924
2993 77599 36322
2953 78390 25175
2919 79078 28847
2801 81426 30165
3089 75667 37873
3032 76805 32838
2925 78948 14143
2760 82257 4331
3038 76688 29112
2927 78915 24842
3112 75206 32815
2785 81758 19357
2828 80890 8820
2971 78032 22643
2873 79993 21905
2831 80835 15091
4182 72525 34479
4342 69335 30845
4007 76027 36677
3846 79240 30669
3697 82242 18788
3721 81752 18012
3704 82075 22178
4422 67733 38743
4135 73476 36817
4334 69469 25769
3715 81877 5436
3854 79102 38778
3746 81263 9149
4259 70984 29058
4353 69119 32460
3953 77118 32861
3998 76226 18833
3885 78481 30538
4336 69459 33482
4432 67547 37997
3959 76995 14914
3815 79886 26281
4471 66755 38796
4448 67214 27953
4287 70435 26393
3773 80717 17895
4225 71668 28901
4191 72350 25357
4246 71266 23819
4699 62197 34933
4176 72663 26515
4571 64759 36007
3716 81848 30614
3777 80636 18360
4141 73348 24473
3895 78284 18187
4511 65958 31017
4117 73828 16382
3753 81111 20805
3939 77398 21364
3899 78188 24295
4021 75745 12309
3932 77538 17499
4673 62718 34938
3985 76471 29591
4762 60908 38080
4367 68830 30533
4018 75813 27589
3939 77406 39027
3804 80105 31598
3799 80178 38379
4039 75390 14194
4479 66607 29447
4312 69930 31485
3736 81458 19299
4442 67315 35845
4244 71300 37511
3957 77045 18457
4027 75642 18103
4426 67632 30827
37157 33393 34417
37044 27545 34417
36558 10061 34417
34709 43145 22457
3682 62838 3559
4692 45130 23740
9241 37404 5744
26251 37404 5198
32721 37404 4630
37172 23778 36444
36565 5167 36220
36617 6763 36983
36818 12905 36929
37215 25077 36456
36627 7054 34878
36489 2820 35289
36398 22 36397
36411 422 35380
34362 43950 32183
33690 43950 29130
35316 43950 34829
35483 43950 32413
10943 43014 29583
11050 43014 21163
11919 43014 31211
12175 43014 31608
12080 43014 23306
12128 43014 30054
0 43940 15700
0 43293 26924
3957 77029 25905
4139 73391 25874
4051 75157 29284
4191 72350 27469
3865 78878 29297
3753 81125 11533
4050 75175 18648
4444 67298 26457
4006 76056 30739
4304 70102 22517
4132 73520 38006
4066 74848 25304
4289 70389 21542
3879 78603 13885
3746 81253 5666
4511 65958 37741
4015 75883 37925
3756 81058 8702
4546 65255 29354
4658 63013 33981
4056 75060 36367
3787 80442 11996
3985 76477 27676
4106 74056 28054
4084 74492 18346
3714 81904 25069
4328 69619 23703
4034 75502 38396
3881 78549 37184
3907 78032 12198
4011 75950 19982
4281 70566 34585
3835 79487 18090
3766 80859 6388
3978 76625 13629
4311 69950 32444
3720 81782 14011
4215 71879 28069
3799 80194 17137
4215 71871 18607
4025 75674 18950
3796 80262 23866
3696 82254 7212
4229 71579 19762
4086 74463 16163
4032 75543 34300
4165 72884 28178
4232 71548 35601
3941 77358 37430
3799 80175 11114
3794 80289 15249
3856 79060 16921
4417 67838 27411
4532 65542 33657
4204 72108 31593
3781 80561 27129
12770 44019 5751
7957 17222 35930
3389 40996 28067
3389 38706 26314
3389 38152 18949
3389 38982 20625
3389 37567 21945
3389 38182 30007
3389 40736 23770
3389 37440 10530
3389 39304 32768
3389 40056 22222
5831 44725 12043
6636 44034 28964
35688 44750 19538
13008 39205 5896
10165 39493 5896
6727 41171 5896
13891 40312 5896
31334 42632 5896
22718 40920 5896
9410 38812 5896
5404 40108 5896
14701 39732 5896
7777 38631 5896
6324 39069 5896
33592 31485 4024
33592 25293 4640
33592 22383 3906
33592 25671 4099
33592 16618 4427
36941 39798 34417
3910 53386 37223
2072 46285 37223
3861 58498 37223
2217 44203 37223
3010 52844 37223
3882 67986 39907
4632 60875 39907
13509 43014 25720
15417 43014 16347
16008 43014 12490
15608 43014 18300
13627 43014 31639
15217 43014 20500
13530 43014 32512
14002 43014 22949
4675 4014 34668
1737 49018 34417
2971 47495 34417
942 53865 34417
2635 52470 34417
2806 51990 34417
2107 48011 34417
5529 42588 4026
7902 39196 4026
20074 37496 4026
14627 39158 4026
12189 40481 4026
24194 38738 4026
8825 39724 4026
22628 38275 4026
8897 40525 4026
14715 39934 4026
26376 38464 4026
37600 36906 36259
37547 35261 35004
37637 38043 35759
36992 18263 34622
37175 23850 35582
37500 33840 36236
37766 41987 36603
36876 14678 35019
31825 17222 35528
34428 42513 6364
12443 17288 35200
36631 41956 29759
36631 39323 21903
36631 38275 28874
36631 37476 11166
36631 38452 20779
36631 39488 30762
36631 39178 17598
36631 39887 20395
36631 41721 34391
36631 42457 34026
36631 41442 31200
4675 3513 3914
36579 23169 6364
35715 6229 6364
36401 26166 6364
36752 21899 6364
33770 1700 6364
35179 5671 6364
37509 37694 6364
36275 3847 6364
36032 14498 6364
39274 43338 32636
39274 43117 30230
39274 43189 12931
35442 44896 17748
32621 43014 8744
33083 43014 6310
33592 4097 34586
33592 14179 35253
33592 23071 34736
33592 19525 35076
33592 15963 34863
2917 79114 1170
24657 44167 5271
38114 43085 40851
22171 43516 39319
9536 17222 35642
35103 43014 24701
25053 45426 34704
37692 39711 36521
37517 34358 34486
37362 29605 35144
37716 40465 34516
37717 40470 36608
37432 31731 35007
37562 35735 36023
1519 41892 22838
1519 41391 31545
1519 41230 15503
1519 40953 22083
1519 41800 13717
1519 38380 32798
1519 42357 32931
1519 42722 18662
1519 41525 34103
1519 39118 26685
1519 42732 21244
33212 45665 27385
3766 62123 35209
3874 59959 36688
3657 64319 36400
27102 19560 35584
23186 17222 5078
2243 37404 25008
2907 37404 27822
2839 37404 29748
37948 43014 29804
38019 43014 28342
38030 43014 30334
17235 44885 4673
3641 64629 20491
3704 63351 16853
3361 70225 9581
3910 59254 18851
3771 62021 24915
3640 64661 17153
3884 59778 18773
3907 59283 24757
3753 62402 23215
3532 66785 8651
3434 68780 10090
3716 63140 13447
3906 59340 12453
3916 59143 33760
3815 61149 15309
3593 65594 11984
3421 69038 8116
3551 66442 13494
3352 70390 8117
3874 59969 7020
3640 64659 16647
3846 60510 30585
3848 60486 29917
3806 61324 26986
3802 61405 12830
3879 59869 28428
17556 43062 5666
1663 25157 6364
2627 33826 6364
2180 25913 6364
2210 33372 6364
1442 17324 6364
4630 44705 25893
36228 43014 16123
36458 43014 17732
30561 43014 38721
17672 43014 37838
12302 43014 36825
14097 43014 35885
12601 43014 37783
19459 43014 38225
10611 43014 36487
33937 43014 39705
18732 43014 36949
12926 43014 36535
3429 68880 2731
3506 67341 2382
3895 59548 3462
33592 9932 36205
33592 26457 36140
33592 5383 35539
33592 20816 35719
33592 24832 36551
33592 30882 36632
33592 4793 34971
4468 58939 14408
4148 58923 22524
35831 0 3719
1519 41249 7255
1519 40551 12291
1519 37766 18928
1519 39446 24060
1519 39422 12004
1519 37672 17251
1519 39372 8070
1519 38245 11761
1519 37881 26927
1519 37862 22518
1519 39782 17566
4675 32839 34871
1558 43014 13100
23261 43812 5044
34760 38488 6469
34760 41308 13713
34760 41106 12252
34760 42676 12722
34760 42794 8049
3360 70260 36507
3471 68037 35288
3401 69432 35797
4675 16124 4982
13587 43014 34386
7747 43014 36724
39117 43014 27382
30171 43014 26319
29051 43014 29604
30102 43014 31153
29771 43014 24197
23782 43411 35203
20017 43950 4471
18172 43452 5192
35856 43950 15407
36139 43950 17035
35409 44570 15406
34578 40852 3559
34900 0 5872
458 43950 23019
471 43950 30773
3995 58915 10656
4587 58944 10055
31958 43014 2779
30354 43014 5317
31292 43014 3377
16802 43332 38803
19866 43147 39098
28333 43206 39912
36259 19566 34417
36371 22787 34417
36383 28965 34417
35783 21403 34417
10014 45820 24597
10033 45820 20915
9869 45820 25227
9466 45820 21540
9691 45820 20534
4675 10001 3674
4675 16030 4284
4675 17725 3918
8994 43950 32394
3460 68251 5127
3602 65418 5438
6199 44885 28893
14068 19560 35669
7368 19560 35900
4675 4077 4906
4675 6088 5853
4675 7971 5505
13687 45546 6583
14343 43014 30889
13772 43014 29061
14102 43014 31915
12507 43014 32806
13994 43014 26169
15032 43014 33083
15534 43014 12190
16013 43014 9685
8516 43950 32850
7810 43950 33103
1599 43014 28026
20105 19558 7343
20105 19220 24943
20105 18091 10332
20105 19425 22028
20105 18324 7206
35813 23523 6364
37400 39371 6364
19578 17222 13283
3497 67523 18478
3175 73944 5902
3664 64169 25377
3595 65552 20925
3316 71142 11538
3572 66009 21596
3240 72658 7473
3499 67474 16117
3629 64857 24425
3107 75314 9657
3161 74224 7761
3222 73019 12536
3344 70580 16286
3604 65372 22454
3195 73549 8499
3194 73568 10968
4933 45626 18930
18227 45820 13587
19847 45820 18449
16974 45820 6753
17678 45820 6480
19720 45820 13880
16498 45820 7405
19086 45820 15083
19402 45820 30055
2017 54469 3559
4670 40721 3559
3229 40893 3559
4224 30040 3559
2412 53705 3559
3031 48729 3559
3799 26178 3559
3022 50897 3559
2444 48371 3559
1265 67055 3559
4037 25707 3559
26574 45820 16119
27064 45820 7380
27020 45820 20753
26585 45820 19913
26908 45820 27352
24282 45820 8690
26648 45820 20474
34750 6217 34417
34618 21693 34417
34182 24148 34417
34929 14157 34417
36078 4164 34417
34744 1035 34417
33619 27842 34417
11931 43950 35738
4675 23486 5524
4675 39911 5161
4675 34674 5852
4675 35533 4456
1953 43014 33144
2013 43014 22616
27998 43014 13798
29600 43014 13592
28451 43014 20585
29120 43014 18073
27480 43014 25885
28430 43014 9975
4929 43357 22850
7397 43950 4194
9931 43950 4513
7231 43014 25189
7054 43014 15239
13445 43447 6517
22131 45820 26334
20698 45820 15302
20159 45820 32604
20654 45820 17970
20239 45820 26254
20975 45820 27366
20300 45820 22511
21017 45820 19546
6027 43014 29396
4942 43014 33520
7962 45820 13200
8617 45820 21791
8286 45820 20062
7732 45820 17904
9494 43950 32496
36451 43950 4760
32775 43950 10433
33844 43950 10424
34192 43014 14575
3570 66050 36384
3764 62169 36168
3789 61678 36504
34087 43014 33169
4639 43950 31614
35726 43950 3656
34324 43950 7175
33387 43950 9563
35021 43950 8604
3391 43014 19145
4075 43014 10038
33664 17546 35200
18027 43014 19846
19174 43014 20587
18415 43014 34813
17828 43014 34526
17496 43014 32072
19007 43014 20155
18472 43014 19046
18401 43014 23504
17092 43014 28324
1697 0 37029
37458 43014 866
19248 17222 28941
20105 17822 24198
20105 17339 31768
20105 18681 34495
20105 19124 31662
4675 32046 35270
4675 38346 36654
4675 42804 35083
4675 38609 35939
4675 36382 36737
935 11085 34640
935 26567 35479
935 3623 34724
935 19626 34567
935 13728 35684
935 4905 36421
935 28206 34514
935 64210 34541
935 37542 34778
935 6508 36052
935 43421 34432
34401 45820 23596
21671 45820 13076
23174 45820 20889
23772 45820 26848
23306 45820 30683
22096 45820 20650
22103 45820 9936
22174 45820 17540
3244 72580 39616
3357 70316 39572
3178 73893 26396
3112 75211 13759
3356 70337 18804
3139 74680 19701
3485 67762 31460
3386 69739 21487
3338 70688 34075
3614 65164 29708
3125 74945 15813
3480 67864 34203
3727 62923 33927
3068 76101 18784
3107 75305 22724
3095 75546 15861
3784 61766 33556
3034 76779 10647
3711 63228 29778
3679 63883 31208
2880 79850 5519
3557 66321 30317
3373 69989 21886
3134 74774 13117
2852 80411 7570
3286 71744 23136
3719 63067 32115
3143 74587 25359
3420 69048 20398
3743 62591 29736
3364 81074 656
4321 66868 632
34372 26079 6364
34414 31555 6364
34398 29443 6364
33795 30149 6364
935 62995 35991
935 71750 37118
935 55074 36461
935 68695 34855
935 60813 37130
935 65817 36948
37919 43014 39119
29955 44566 8209
1519 40863 10709
1519 37567 9377
1519 38828 9661
1519 37988 30922
1519 39489 13774
1519 40378 6788
1519 39062 14266
5643 45245 26192
4986 43014 21240
4048 43950 14147
3916 43950 15248
0 43243 8846
0 43516 15157
24425 44677 4673
33592 8284 34426
33592 37648 34842
29837 39141 5896
22055 39275 5896
15665 38660 5896
33096 37953 5896
28123 41150 5896
26849 37792 5896
17280 38585 5896
18899 38537 5896
25192 37957 5896
18115 38926 5896
25596 40703 5896
19146 37692 5896
35077 43950 15173
33244 44456 29620
33657 43014 29665
36513 43014 2959
33592 9971 3664
31401 43950 40096
23737 43950 39206
7739 43950 36265
30564 43950 39595
11717 43950 36749
4864 43950 35569
30571 44847 32038
3687 63704 1128
299 43014 22266
132 43014 18965
34603 43014 19034
5606 19393 5486
4939 18116 5486
23721 43014 32292
22914 43014 19551
21036 43014 28396
20722 43014 31389
22865 43014 17815
22858 43014 24327
23165 43014 18880
23029 43014 16826
6061 42755 36755
13257 42444 36755
18176 41603 36755
27193 41743 36755
15139 41976 36755
23869 42295 36755
11514 38732 36755
18748 41357 36755
5004 40560 36755
4914 38873 36755
13813 41754 36755
5567 43014 20370
3336 4116 34417
2446 22984 34417
2226 21113 34417
2308 6845 34417
1725 4455 34417
2781 275 34417
2379 19116 34417
1074 2349 34417
1528 33152 34417
1311 16942 34417
1097 9567 34417
30199 41875 4026
29796 38204 4026
32989 38527 4026
22735 40748 4026
19098 42828 4026
29911 40492 4026
19931 42186 4026
9183 42595 4026
12261 42295 4026
33097 40723 4026
29831 41040 4026
25974 38919 4026
4675 13738 36737
4675 30053 37201
4675 9920 36649
4675 19240 37136
7907 45820 15593
8492 45820 23910
9024 45820 24904
36592 43014 33068
36515 43014 10519
36199 43014 18172
8601 43014 3048
23956 43014 35511
26550 43014 37137
7439 44625 9947
13727 18133 35200
6895 19354 35200
31223 43652 31005
17823 45820 34159
18270 45820 29027
16118 45820 26971
18256 45820 32082
16474 45820 21394
17822 45820 34865
17940 45820 30915
37164 23527 3757
37580 36278 5516
37441 32027 3571
37675 39195 4590
37702 40016 5457
37542 35112 4906
37263 26574 4442
36876 14689 4447
12779 45820 25083
13360 45820 25212
12969 45820 33458
12735 45820 9972
12459 45820 18377
12902 45820 23694
6659 43555 2952
22288 43030 1450
16406 43256 2016
36104 44315 19147
34163 43014 4111
35420 43950 29782
37000 43950 33794
34955 8377 37223
36716 27130 37223
36158 7094 37223
36170 10174 37223
37070 28389 37223
37152 35059 37223
36558 5736 37223
36301 12922 37223
0 43360 18684
20031 19560 9892
19549 19560 16398
9047 44885 31961
4675 37361 36461
4675 24440 35916
4675 33133 36598
4675 28773 35826
1392 54520 6364
1976 66570 6364
1339 57412 6364
1287 55045 6364
1475 58471 6364
9428 18869 35200
16868 17633 35200
9980 19472 35200
2909 37404 12903
1689 37404 30705
2423 37404 14725
6787 45820 22893
31748 43950 9305
31938 43950 852
17730 43950 2140
28773 43950 1693
14499 43950 4043
25842 43950 1315
4808 60019 1063
4149 73194 1825
32819 43014 19479
32071 43014 17869
32808 43014 14905
26340 40019 36755
27656 40845 36755
24401 37685 36755
24539 38392 36755
22326 37583 36755
24139 40152 36755
18754 39583 36755
5344 37404 36755
19366 40078 36755
4707 43720 16764
36995 42982 3559
5466 43950 29480
38466 43014 27942
38340 43014 27268
38297 43014 29031
37102 43014 14044
37331 43014 15221
36829 43014 27316
35235 43921 16315
35193 18806 3559
35460 31234 3559
35559 13976 3559
35375 20905 3559
34742 25314 3559
8853 43950 5870
8671 43950 5297
26760 44608 34578
4675 19437 5695
4675 27127 6261
4675 4560 6281
5877 43014 16707
33592 9781 5171
33592 22888 5409
33592 19897 5305
33592 2463 4788
33592 28903 5444
37574 43950 29880
36790 43950 17066
38794 43950 37580
38588 43950 34495
36684 43950 22314
38105 43950 22909
36673 43950 16241
36501 43950 11999
37130 43014 6455
37476 43014 9368
37142 22845 36630
36445 1479 37094
36505 3327 35406
36769 11414 35256
36879 14801 35571
37108 21813 35861
37345 29063 36901
36500 3150 36481
22112 43371 5337
33576 43014 15284
34295 43950 36005
33422 43950 36075
33659 43950 37649
20662 45745 35296
935 69669 4442
935 65452 5094
935 61260 4942
935 59152 5425
935 70908 4943
30145 43014 8742
29355 43014 7588
21520 44255 4208
18942 17222 5352
22842 43950 38420
8878 43950 35717
11296 43950 36336
15401 43950 36904
18170 43950 37127
9126 43902 8821
34322 43950 27295
36724 43950 36138
35244 43950 36210
10661 43592 32686
35254 43780 23186
3919 77284 39907
4603 39271 4394
20710 43414 35609
35987 34455 3559
36816 38601 3559
37219 28132 3559
36508 27402 3559
36999 31873 3559
37404 37987 3559
35985 22871 3559
36574 37404 8618
36440 37404 23310
35953 37404 29012
12409 45432 6990
33592 32955 3872
14478 43950 5463
39120 43014 15719
15922 17222 35399
36579 43950 1491
31482 43950 8526
29589 43950 5273
31584 43950 5123
32442 45820 23925
32138 45820 18128
3132 74798 2756
4603 39377 36694
39274 43577 28661
27528 43950 2163
1421 43014 7201
23863 43014 1457
36586 32869 3559
36870 34198 3559
37001 19953 3559
36687 30331 3559
37468 34143 3559
1519 40881 18196
1519 42732 16053
1519 39833 25551
1519 42272 30643
1519 42193 10909
1519 39157 32952
1519 40908 34398
1519 39885 23572
1519 40922 17331
1519 40767 33641
23640 43950 35958
38074 43014 7535
33833 37830 34417
26779 45820 30064
26079 45820 30992
24922 45820 26291
24498 45820 21431
26318 45820 27236
26970 45820 32084
10238 43014 22503
10242 43014 23131
10599 43014 9191
9652 43014 24522
10269 43014 17925
18077 43950 4639
2056 43950 15385
1865 43950 13475
1049 43950 26269
4079 43950 9827
2350 43950 16561
2182 43950 18808
1282 43950 27002
4517 47095 34662
4057 56297 36378
4382 49820 35491
38977 43014 6932
4423 43615 20987
935 40334 5736
935 22833 5900
935 24491 5711
935 32634 5944
935 49570 4519
935 37220 5067
935 13996 6088
935 47797 5079
16674 45293 35424
3611 53568 34417
3604 57771 34417
3294 60993 34417
27858 43014 36435
29486 43014 37072
29164 43014 35622
9585 42854 36452
23236 42854 36446
22008 42854 36257
8024 42854 35774
20589 43014 7168
21258 43014 19170
21341 43014 8156
21492 43014 17271
20286 43014 10316
21226 43014 18400
23133 43014 9387
23152 43014 6971
33592 32430 6078
33592 21550 6214
4675 28102 5504
4675 31335 5351
4675 40124 6163
4675 28294 4864
13242 44885 34947
0 43782 22363
0 43673 34179
25248 43512 5989
10153 43014 33087
11279 43014 33657
33660 43721 27726
34760 40822 29827
34760 40310 28065
34760 38165 32945
34760 40603 27684
19135 43950 36872
935 601 6090
935 67688 3612
935 31221 4740
935 21913 3635
935 16036 4381
935 20899 3969
935 2799 5936
935 8360 4416
935 55979 3885
935 9394 5021
935 11130 5774
935 16060 5718
935 55403 3600
935 29939 4769
3779 80596 1830
4104 74083 1541
935 40106 37194
935 43601 36485
935 45726 36110
935 14034 37050
935 9114 37134
935 64900 34790
935 13659 36711
24024 43014 20504
24635 43014 20724
24917 43014 17148
24547 43014 17463
24645 43014 16479
24519 43014 15592
25770 43014 21787
4240 52653 35645
4309 51249 35732
3967 58117 34459
3228 64485 6364
2890 66195 6364
33960 43950 1054
27270 43950 2721
5276 43658 15240
298 43014 20133
136 43014 12746
9104 18503 36135
5725 18291 36135
28820 19227 36135
12366 19105 36135
6907 17924 36135
4419 67805 39876
17798 45526 5380
3389 41551 31071
3389 37946 19596
3389 39314 16801
3389 41305 26235
3389 39263 24466
3389 39113 29830
3389 37955 32699
3389 39507 33732
3389 38047 10543
3389 40290 30699
12262 19169 4551
26371 18682 4551
30528 17534 4551
18048 19417 4551
4675 20652 36855
4675 28597 37104
4675 6175 37018
32674 43108 12500
5747 43411 14749
4675 23969 4883
32011 43014 10709
31536 43014 8685
36884 14923 6343
36643 7542 5657
36705 9440 4288
37120 22187 5465
36475 2384 3870
36698 9242 4921
36838 13525 4608
37398 30690 5673
17187 42187 4026
29733 39278 4026
29195 40981 4026
15743 41219 4026
23131 40292 4026
19030 41877 4026
19697 42697 4026
20537 40118 4026
26833 40954 4026
32451 39917 4026
33932 40514 3559
17709 18073 5486
16045 18600 5486
25741 45113 5964
8089 44531 31619
3557 38913 3559
4514 37575 3559
2260 54871 3559
3213 31989 3559
2469 46802 3559
3773 44191 3559
4620 20814 3559
4328 34573 3559
3981 17987 3559
4270 33665 3559
2501 58772 3559
3149 74472 3501
3176 73929 4331
3804 18383 34417
3836 9942 34417
2261 31997 34417
2757 28372 34417
3710 17037 34417
13937 43874 2253
22978 43794 1384
19315 19560 19090
19547 19560 23597
4675 5031 36723
4675 4802 35877
4675 11585 36359
4675 1432 35028
31171 43950 6043
32014 43950 7005
37066 43950 1227
3312 43014 32990
3186 43014 22249
5016 43316 17518
30208 17222 35343
9944 43014 32662
7974 43014 33756
23990 43014 21649
25240 43014 31852
25344 43014 22318
24126 43014 24040
24077 43014 12946
25108 43014 33880
24968 43014 21431
28953 42854 36045
32227 42854 36393
33550 42854 35410
3502 67415 38982
3201 73426 38264
3271 72037 37368
36902 43014 1909
12944 45820 29948
12772 45820 23090
13090 45820 22750
13304 45820 21668
12869 45820 28599
12859 45820 26920
19438 38137 34885
17620 40016 34885
5994 42052 34885
16559 37883 34885
22539 39322 34885
18067 37792 34885
9557 40456 34885
5752 37836 34885
15766 40109 34885
23662 38271 34885
9062 38388 34885
4437 45188 19365
1009 0 4128
33592 27570 37013
25060 43950 36184
33154 43950 37658
31913 43950 37827
31004 43950 38268
32019 45635 11486
35342 44690 23812
36631 40999 12904
36631 42800 30387
36631 42675 9796
36631 40998 11525
36631 42478 14767
36631 41110 6718
36631 41897 14956
36631 42691 22906
36631 40261 9893
962 72004 4784
21268 43950 37533
2745 0 6020
36631 41091 20144
36631 39663 13462
36631 42098 10540
36631 42732 29049
36631 39714 16473
36631 39612 11334
36631 41874 24418
36631 42854 32621
36631 39562 14805
4004 51512 6364
3729 47218 6364
3069 48044 6364
1557 44397 6364
3269 72067 35495
33266 18550 5486
28223 17681 5486
29078 45226 7962
30070 45820 16458
29759 45820 17812
29221 45820 14032
29714 45820 15777
33474 43014 9987
3752 62409 39186
6777 43950 31308
15331 43658 5508
15778 19560 5421
7832 43950 31418
5209 43950 33905
38071 43014 18399
22353 19560 35963
8912 19560 35521
32680 43748 29264
21766 45300 5124
4920 43950 3993
5819 43950 7026
11306 37404 36166
13101 37404 35384
13670 37404 34954
10484 37404 35475
2238 43950 33329
2330 43950 30265
30474 43014 29020
31079 43014 24416
31640 43014 21733
2822 72004 4109
6074 44147 28168
11355 17515 4551
28624 17463 4551
6637 18463 4551
16760 17853 4551
6514 45474 13016
4676 43667 23309
9024 43014 7705
6746 45820 26705
1194 11681 6364
1702 15913 6364
3217 35634 6364
1777 30244 6364
2525 30216 6364
4550 44959 37223
3532 50209 37223
3868 50573 37223
31674 44176 30905
34207 43668 26269
33677 43014 36693
19604 17222 30956
20041 17222 20238
32891 45167 11860
3339 70677 24689
3330 70863 25368
3242 72622 28709
3192 73610 17168
3393 69590 20614
3487 67707 24912
2988 77690 9875
3591 65604 28544
3560 66254 27106
3344 70560 30206
3240 72654 27622
3063 76190 16914
3469 68070 29711
3479 67868 33681
2879 79877 6307
3426 68935 29129
3391 69627 33830
3150 74447 18424
3771 62030 30401
3291 71640 24288
3081 75845 20109
3389 69672 26628
3289 71674 18902
3424 68954 27184
3406 69337 24263
3874 59963 33785
3243 72594 25761
3526 66943 23515
3078 75893 11277
4675 11095 35589
4675 265 35320
4675 8102 36446
37189 43014 23863
11424 43450 7627
38535 43950 5174
3459 78134 39907
10153 45820 27924
11069 45820 27278
10280 45820 20011
10162 45820 30119
9576 45820 27204
31049 43014 28865
31306 43014 26382
31859 43014 27751
31586 43014 24985
35552 44308 24967
1921 66843 34417
3159 59145 34417
13310 43521 34226
1842 19265 37223
2324 19891 37223
3104 38814 37223
4107 41242 37223
1535 26265 37223
4509 41970 37223
1724 26887 37223
1595 27793 37223
1701 18676 37223
2525 23032 37223
1010 29445 37223
1763 12352 37223
35213 43950 10077
36872 43950 9148
34529 43950 11887
22861 43950 4457
37290 43950 32039
6018 43014 13520
4675 2001 3600
4675 14309 4138
4675 37082 3602
36139 908 3559
34420 23557 3559
33877 25647 3559
35704 1427 3559
34028 12115 3559
33907 2421 3559
34099 7054 3559
14727 43658 2177
12871 43346 2355
36367 6703 6364
35825 6962 6364
36416 4945 6364
35816 8604 6364
36209 5996 6364
36027 9358 6364
38711 43950 16225
19169 19537 28758
19169 18969 18876
19169 19195 11611
19169 18729 30951
19169 19260 34943
33592 26709 3975
33592 29142 3957
33592 20000 4233
33592 36665 5827
33592 8304 4022
33592 32595 4566
1697 72004 3931
30366 18871 4551
14452 19178 4551
17884 18894 4551
21056 18432 4551
19490 17222 25031
19756 17222 19091
7210 43014 22864
7069 43014 16026
18342 17459 4551
14137 17525 4551
15214 17972 4551
8606 18135 4551
7325 18666 4551
35703 41302 34417
15740 43881 35622
1359 53881 6364
2101 53527 6364
1007 68751 6364
2188 63709 6364
1005 65028 6364
18811 43014 2940
28659 43014 1286
21810 43014 2063
26529 43014 1939
7325 43014 4134
38891 43014 8826
26941 18748 36135
6573 17237 36135
33040 17500 36135
32858 18037 36135
35839 43014 8941
35514 43014 32277
23257 43014 23057
21723 43014 23525
21985 43014 20926
21342 43014 27097
21545 43014 34058
23092 43014 16335
23090 43014 26650
20414 43014 32910
7842 44885 9538
25594 43950 2830
28316 43950 2891
19169 19111 7449
19169 17271 27106
19169 17661 17361
19169 18595 17399
19169 19412 6558
10840 43014 23475
11825 43014 22874
12276 43014 24932
11276 43014 30556
12154 43014 12316
11323 43014 28740
3145 0 34621
19238 43648 35865
4759 60975 39185
34697 44885 14454
10386 43950 5995
8972 43950 6537
35932 43950 20236
1263 34765 37223
2566 40383 37223
3266 34950 37223
1429 9520 37223
1241 16515 37223
1803 30838 37223
2443 35710 37223
2826 39510 37223
1308 28850 37223
1882 42174 37223
1072 43401 37223
1383 37144 37223
21781 37404 35844
28412 37404 35816
30330 37404 36122
2022 0 35192
29276 17222 5098
4325 6539 6364
1876 3707 6364
1596 3145 6364
4291 23176 6364
3967 17496 6364
4103 30695 6364
3138 8237 6364
3568 4839 6364
2832 11049 6364
4162 32354 6364
1769 7231 6364
31775 43014 4495
22027 45820 15854
21703 45820 7354
22766 45820 14554
22961 45820 22211
23248 45820 14971
21063 45820 5858
22194 45820 7680
5957 43014 9408
2340 13975 37223
3462 17850 37223
2965 21531 37223
4661 36204 37223
1739 7679 37223
3984 20287 37223
4434 34328 37223
4354 37001 37223
3946 9066 37223
1909 3900 37223
4633 5430 37223
12074 43950 35180
20146 43950 38940
4106 43014 26030
4237 43014 33055
3502 43014 33850
33122 43014 26178
33133 43014 17447
27594 43014 31786
29283 43014 19024
29630 43014 30289
29983 43014 23045
24339 18717 5486
20383 18153 5486
16987 42410 34885
22021 39873 34885
21926 42831 34885
24929 40594 34885
19669 40214 34885
17110 41642 34885
24598 39455 34885
28347 40338 34885
32060 41624 34885
33536 41929 34885
23281 39775 34885
34973 34842 6364
34378 10334 6364
34115 9593 6364
34224 15597 6364
36009 30192 6364
11752 43657 33605
10884 43950 4611
35625 43014 37036
3410 67220 34417
2801 69927 34417
33656 0 34453
28334 43842 869
34191 43293 306
16966 43695 1962
4159 54280 4747
4559 46271 3956
4167 54098 3944
8121 45820 25019
8914 45820 28576
3562 82301 27127
3556 82301 31699
3599 82303 13615
4031 44887 20556
28226 44860 34421
4603 42285 35404
4382 68542 744
4162 72917 814
31111 17222 5315
33099 45476 28085
7886 43014 7536
735 43014 31545
38662 43950 7616
18909 45820 13050
18348 45820 8591
16050 45820 6060
18712 45820 23909
18863 45820 21111
16523 45820 8643
19680 45820 20071
34390 43014 18231
15177 43014 7309
12860 43014 23416
12616 43014 25523
13131 43014 27268
12696 43014 28323
13969 43014 17816
2599 43014 13905
2207 43014 21528
2394 43014 15771
39199 43950 29395
22025 44279 4275
26775 19560 5457
34034 43014 10192
2829 66255 3559
1252 71655 3559
29866 43950 38934
35998 37404 18454
35517 37404 23608
21312 43950 36738
23282 43950 36675
4833 59520 10491
4204 72098 7551
4649 63205 13443
4362 68920 10555
4428 67622 12107
4347 69235 4335
4559 64983 6476
4408 68020 18593
4847 59218 10912
4212 71934 3361
4701 62141 16011
4558 65018 20788
4434 67470 25153
4629 63598 10985
4859 58990 27244
4658 63021 16416
4279 70585 12539
4515 65877 5916
4316 69863 6801
4109 74003 10792
4642 63331 17251
4637 63407 26636
4726 61639 27839
3790 80370 3224
4747 61245 16937
4275 70679 18572
4440 67375 18332
4808 60020 24890
4687 62447 19237
4204 72073 10334
4342 69325 6512
4077 74636 12062
4591 64354 13166
4028 75616 8394
4349 69194 22305
4772 60727 18400
4780 60578 25968
4348 69219 15375
4592 64338 30142
4232 71524 4219
3936 77452 8272
4834 59486 24874
4287 70445 7842
4565 64873 18287
4512 65938 3813
3882 78515 3867
4857 59038 25172
4699 62205 7052
4711 61952 25895
4471 66754 6007
4803 60117 16293
4494 66288 26952
3982 76535 9056
4326 69659 14349
4637 63434 1974
4096 74245 11309
4536 65450 7707
4129 73568 2499
4228 71618 11297
4781 60549 16728
4790 60369 4675
6580 43014 25200
6419 43014 22326
11856 45820 19501
11343 45820 21610
10662 45820 11007
11196 45820 17703
11226 45820 9058
10121 45820 12580
10001 43084 31539
935 60659 3835
935 20609 4882
935 18551 5121
935 5438 4138
935 60119 3782
935 48872 4071
935 2341 6054
935 16371 5112
935 16628 3643
935 10213 4715
935 41717 3678
935 46907 4322
935 19910 4233
3674 27004 34417
2354 31410 34417
2537 27019 34417
3185 35894 34417
3206 19848 34417
9507 44858 32836
36079 9033 3559
34599 32830 3559
35803 23605 3559
36084 4702 3559
34699 30662 3559
8096 43198 11087
3682 63822 15336
3878 59886 22283
3557 66283 17450
3907 59317 21214
3799 61445 13432
3923 58996 33104
3510 67258 14236
3341 70640 9266
3544 66576 15915
3691 63643 13081
3895 59553 14416
3861 60231 20200
3326 70940 6366
3711 63232 24107
3604 65363 13334
3841 60639 7002
3824 60956 12673
3877 59907 16764
3611 65237 18265
3724 62958 20413
3670 64050 14666
3910 59260 8453
3762 62211 27021
34760 42037 11545
34760 41045 7871
34760 42446 15972
34760 42110 7568
34760 41196 14411
6031 43014 31738
35100 31041 34417
36487 14747 34417
35851 22199 34417
36231 32044 34417
35685 28983 34417
3081 43014 30154
3018 43014 16938
38178 43014 14163
35247 43014 14118
35550 43950 1064
27780 43950 5849
30059 43950 3518
5409 41283 34885
14608 38051 34885
14022 38177 34885
11935 38232 34885
9897 41446 34885
14013 40534 34885
7489 39616 34885
17838 38759 34885
22258 37911 34885
10557 41322 34885
15670 45500 35007
3406 82294 2677
984 21396 6364
947 25213 6364
34958 11412 34417
33633 20781 34417
34161 7072 34417
35251 8708 34417
33630 20299 34417
33815 4469 34417
35243 4009 34417
36208 43014 34548
4251 52435 36231
4529 46857 36643
4521 47034 35672
9093 43014 17931
8034 43014 12230
8356 43014 20946
9287 43014 16939
33592 12767 5571
33592 23177 5855
33592 24569 5232
33592 3445 6308
33592 18906 5919
33592 16779 6075
33592 4159 6026
37425 31523 4669
37766 41986 4040
37522 34509 5163
37642 38201 5020
37281 27104 4909
4675 14393 6024
4675 13768 5827
10519 43014 12833
11207 43014 8852
10833 43014 14093
9922 43014 26039
10732 43014 14586
2826 27936 3559
3238 17002 3559
1022 36712 3559
1178 6850 3559
4116 855 3559
2619 7107 3559
1644 46052 3559
2381 28460 3559
2190 10130 3559
2736 37277 3559
2275 41195 3559
3082 10745 3559
1091 53838 3559
1195 26684 3559
4004 4316 3559
4448 67215 7847
4320 69772 10226
4820 59778 3866
4687 62414 14596
4076 74654 6773
4099 74200 2443
4589 64405 18577
4789 60407 12786
4834 59486 13686
4129 73582 6193
4252 71147 13043
4417 67815 23518
4224 71702 17086
4479 66594 21149
4746 61265 21893
4004 76070 10732
4544 65288 3013
4382 68549 22690
4809 59986 25406
4858 59015 4635
4186 72450 11187
4043 75320 3867
4127 73637 3759
4831 59566 15819
4807 60045 10429
4734 61493 9289
4707 62033 2926
4742 61331 29556
4609 64006 26524
4623 63725 18887
4479 66588 23504
4074 74688 10359
4204 72073 13460
4591 64364 10863
4372 68738 17849
4434 67504 14714
3829 79588 3524
4584 64483 26908
4814 59877 3085
4589 64393 29186
4549 65202 12288
4632 63537 22926
4795 60287 21575
4651 63139 2403
4534 65499 14229
4834 59495 32218
4061 74956 5082
4467 66845 26339
4412 67947 15221
4842 59313 36096
4805 60085 18053
4762 60923 3605
4664 62894 2978
4697 62244 16483
35719 44122 24502
864 43950 12466
340 43950 8708
35260 37404 26623
34800 37404 10840
35822 37404 6899
18083 44569 4702
34678 43014 36940
12355 43014 35772
24392 43014 37865
21720 43014 36899
14211 43014 36883
16434 43014 36088
21765 43014 39213
35170 43014 40121
33052 43116 13104
3396 69525 15095
3685 63756 26328
3017 77124 6281
3411 69232 17377
3344 70567 12277
3218 73094 8034
2886 79744 3947
3223 72985 6263
3199 73475 13560
3327 70890 15166
3437 68695 19202
3269 72054 15436
3566 66130 22311
3472 68008 19263
2957 78299 6698
5169 43014 28795
16468 43014 19351
16923 43014 7704
16498 43014 23255
16490 43014 25226
18259 43014 10235
17712 43014 9944
17582 43014 12302
33912 45820 24437
33562 45820 19446
935 55033 4472
935 43227 4797
935 36466 5478
935 55955 4748
935 48406 4779
935 54470 5247
935 62583 4401
935 23449 5528
4592 22415 34417
4428 39918 34417
4490 23518 34417
4532 28536 34417
36027 37404 33748
36292 37404 22290
24337 44885 35860
3587 29767 6364
3951 9406 6364
4110 12322 6364
3514 21168 6364
3147 181 6364
1317 3828 6364
4173 2769 6364
3332 5459 6364
4554 35345 6364
3564 44826 20578
39001 43014 6376
4648 44489 4596
4366 50130 5178
2059 70617 34417
21068 43014 17856
19960 43014 34841
22263 43014 7603
21418 43014 10275
20208 43014 26697
20286 43014 8968
29619 19520 5486
9493 45812 9637
37021 19151 6223
36774 11571 4373
36514 3604 5164
36634 7269 6037
36910 15741 4991
36788 11989 4749
37223 25322 5662
37307 27922 5968
37047 19944 4987
30795 43014 32815
28928 43014 33238
38573 43014 1263
4179 44885 22839
2862 82266 28604
2902 82267 25926
4634 43014 27651
4633 43014 11155
4003 43014 25360
29730 43950 7782
35918 43950 39870
27540 43950 36142
29499 43950 35963
12556 43014 34317
10731 43014 34691
30786 45820 21961
30737 45820 17648
31202 45820 28096
31623 45820 23349
3821 61035 37456
3706 63324 37450
13563 17222 4840
29780 45047 8278
9765 43950 8213
8655 45429 30710
935 66276 35464
935 62792 36912
935 66426 36479
935 65620 35299
935 67810 37182
29014 44756 33817
20105 17646 22892
20105 17543 27619
20105 18791 32391
20105 17584 15684
10772 43014 7164
4449 62568 632
35484 11085 3559
34143 17218 3559
33854 31464 3559
34001 26724 3559
35896 2342 3559
34673 9225 3559
34598 21133 3559
34070 28116 3559
3879 59845 38937
15714 45820 18460
15845 45820 12122
15367 45820 10772
15312 45820 15047
15668 45820 27838
15054 45820 15522
15296 45820 25996
4676 43014 5677
25655 43014 2085
10442 43014 3722
9258 43014 5442
10586 43014 4621
27446 43014 1331
3657 64299 3811
3723 62993 4676
2354 68401 37223
2498 65759 37223
