ply
format ascii 1.0
element vertex 2789
property float x
property float y
property float z
end_header
10919 35770 0
10951 32605 0
8600 34579 0
7160 35019 0
8124 36749 0
20296 33609 0
18980 33067 0
7767 37471 0
11799 35214 0
42471 26480 20611
42010 27508 35468
43059 25168 10313
42923 25470 16159
42022 27481 6789
42164 27164 10027
42903 25516 11889
41924 27699 8059
41965 27607 32712
43233 24779 2232
42276 26914 17749
43095 25088 892
41896 27761 18860
42417 26601 18267
43124 25022 7878
42125 27251 25174
42666 26045 22606
42824 25692 8330
41911 22435 41744
40198 21761 41744
42839 22796 41744
43323 21288 41744
32409 1322 30718
32665 1605 31574
32720 1665 20256
32140 1024 34333
32396 1307 37696
32136 1020 40131
33382 2398 35689
32814 1770 12860
32995 1970 11261
32390 1301 29136
32327 1231 31432
33305 2312 40012
33318 2326 20247
32614 1548 37047
44648 16183 31798
44650 15515 25441
44650 15719 31599
44651 15296 41722
44647 16337 26926
44647 16377 18288
44650 15663 17412
44647 16434 23686
44649 16033 41743
44650 15590 11769
44644 17432 28137
44647 16330 38366
44652 15144 9371
44652 15174 34877
44648 16174 16013
44643 17589 36347
44644 17453 26164
44646 16748 27411
2773 27076 0
2240 13064 0
1801 688 0
485 46721 0
1168 34345 0
1383 45710 0
1616 26775 0
1360 12480 0
1251 63007 0
854 32947 0
1394 61660 0
1324 51294 0
3917 371 0
651 11485 0
3674 14813 0
133 41976 0
1036 15125 0
1092 1998 0
2304 6118 0
1887 30497 0
3896 23506 0
4077 12468 0
4143 4900 0
319 3978 0
1260 12990 0
633 2460 0
1525 9813 0
1588 22480 0
896 53450 0
1172 19119 0
1313 59288 0
2956 29617 0
1218 50691 0
5391 1488 0
154 32062 0
294 57675 0
1140 39986 0
3183 2825 0
365 5751 0
675 20068 0
5796 2265 0
1752 47727 0
3421 18532 0
3384 9572 0
445 51148 0
655 34659 0
3389 13881 0
242 27519 0
3748 27288 0
82 53127 0
38776 12829 41744
38300 14107 41744
36290 6614 0
36268 2985 41744
36433 4318 41744
36250 20558 41452
36150 20879 32111
36050 21199 20913
36285 20446 40646
36711 19085 38082
36043 21220 14001
36193 20741 32718
36026 21275 10785
36159 20851 10518
35992 21384 20295
36071 21130 21627
36025 21277 36993
36356 20220 19336
36148 20884 36446
0 37663 41398
0 48190 38336
0 71259 24429
0 76237 9959
0 60634 37983
0 21912 35353
0 54789 25749
0 69407 17276
0 48092 20507
0 59317 10688
0 63729 12616
0 64384 41302
0 43122 34273
0 60733 17452
0 70229 23974
0 50091 25164
0 62778 36212
0 52597 15015
0 24861 35286
0 66323 34390
0 21269 33908
0 33057 38579
0 60855 34953
0 19084 35425
0 53324 21047
0 74750 15810
0 77817 40924
0 31538 32640
0 50369 34600
0 43844 26878
0 71391 37039
0 43169 24282
0 43413 40184
0 51711 18598
0 44429 41115
0 76336 15815
0 46966 33612
0 71252 23570
0 58466 19585
0 46740 33127
0 72557 26591
0 39874 22802
0 31808 36080
0 55841 19515
0 68648 38860
0 48443 36889
0 62415 9179
0 74984 31157
0 67892 16836
0 57234 33876
0 38523 23228
0 58690 31642
0 60933 12089
0 73952 16432
0 64962 11267
0 66825 16249
0 20086 40192
0 67637 23986
0 48501 41552
0 72337 36979
0 62363 22873
0 49652 24544
0 40288 31025
0 67040 18913
0 57111 11749
0 72779 24888
0 26271 33342
0 39609 33362
0 72151 4812
0 76546 11344
0 27010 33475
0 63165 22272
0 51385 18063
0 63704 39886
0 74394 34822
0 71322 33284
0 65755 33889
0 66956 11602
0 60659 28243
0 68743 14121
0 72116 16607
0 42160 26803
0 53281 32547
0 58986 23067
0 68653 31814
0 34826 34856
0 45686 25773
0 55576 25510
0 51857 35379
0 15559 33759
0 60445 36010
0 38826 39555
0 30034 32783
0 43294 34963
0 22854 33409
0 77059 33721
0 64744 8906
0 61176 11218
0 65757 30492
0 65166 32617
0 66993 6867
0 64530 35561
0 63279 29201
0 29159 34668
0 63085 12476
0 76210 32450
0 73742 26338
0 78511 13194
0 42636 20051
0 54470 32678
0 69089 25751
0 36643 40050
0 16097 41575
0 22488 31017
0 79043 7725
0 13648 35310
0 57523 12332
0 23103 41556
0 60257 40373
0 28245 31670
0 77201 36516
0 16365 35500
0 46925 35736
0 31423 41025
0 38985 27655
0 78049 6057
0 72702 20629
0 77007 16357
0 50010 16495
0 41997 25558
0 72872 18520
0 11518 37148
0 74951 16864
0 40316 33486
0 70887 27832
0 59288 16546
0 66377 33037
0 15765 37761
0 55571 39988
0 44456 25182
0 47633 30421
0 43547 38917
0 58920 37993
0 58271 12577
0 71335 8361
0 74827 19261
0 49532 25792
0 57637 34773
0 74744 27736
0 60336 34273
0 39164 33120
0 41979 28231
0 67677 29002
0 67277 27573
0 68043 31042
0 34556 25780
0 37666 40114
0 20432 35512
0 40409 26256
0 70667 19882
0 64976 29685
0 51233 19826
0 36934 32862
0 66698 35423
0 28739 32348
0 71491 6241
0 44480 19907
0 59611 15476
0 17155 35863
0 64866 31332
0 73227 16501
0 61241 33992
0 67608 20244
0 70841 33448
0 55530 32814
0 43391 37409
0 36936 37076
0 67447 6435
0 57735 13226
0 60659 30837
0 52873 20112
0 34814 26862
0 53744 37459
0 36095 39701
0 63521 25546
0 64146 23718
0 55139 31398
0 44055 37462
0 60209 28474
0 53175 27712
0 53733 19082
0 71490 41271
0 69398 41652
0 35094 25411
0 44863 23346
0 15012 41076
0 51703 15494
0 27520 28858
0 63103 20302
0 67087 40231
0 59013 41400
0 39591 34178
0 60140 22248
0 72371 9103
0 61248 21096
0 63477 18680
0 51700 34441
0 68451 40957
0 46178 31005
0 70657 26710
0 74950 5879
0 23560 32403
0 61721 37145
0 65955 27648
0 61562 21704
0 70480 18924
0 53240 18650
0 72588 13378
0 40534 29060
0 69747 38594
0 59072 35094
0 20388 41524
0 4875 39514
0 40389 34576
0 78577 11144
0 9658 41030
0 57843 32109
0 26684 27873
0 71738 25468
0 74338 25877
0 58349 27362
0 65331 15096
0 65209 25322
0 18363 36609
0 38482 35036
0 27561 27415
0 77045 13849
0 78862 30900
0 70700 4912
0 68358 6837
0 24077 36003
0 73186 37236
0 56518 34163
0 42827 22084
0 59925 19921
0 44201 33839
0 43104 25618
0 58641 21555
0 4382 39854
0 52560 27893
0 70334 18004
0 23601 32945
0 40866 30358
0 44344 27158
0 18561 40248
0 30274 25954
0 63882 17632
0 15334 39507
0 55721 27379
0 61078 39009
0 68385 32669
0 41112 37239
0 55969 27974
0 72914 4942
0 63442 8397
0 51637 25898
0 12242 39133
0 76503 36296
0 42078 32818
0 54282 21142
0 74727 3761
0 71017 31944
0 64952 22292
0 58919 24293
0 63515 33826
0 72269 30372
0 70212 29384
0 69683 6162
0 49873 34002
0 47173 21261
0 34618 41028
0 56115 12208
0 29508 40229
0 33681 31716
0 55148 18000
0 64521 21753
0 26313 41260
0 56097 16502
0 78382 32417
0 69668 12098
0 71788 38086
0 59283 21544
0 28352 41678
0 48157 18710
0 74034 12247
0 71113 40111
0 30609 41732
0 76731 5476
0 38530 27314
0 56821 20023
0 24033 34216
0 27369 36610
0 40656 36511
0 30823 26406
0 77823 23974
0 57286 24176
0 68641 10191
0 30148 30633
0 70541 29805
0 57461 32873
0 9645 39864
0 46842 39270
0 56768 14984
0 34615 33100
0 67580 28354
0 8220 38772
0 44492 39060
0 54026 14008
0 32329 37609
42915 8739 41461
42451 7684 15374
42186 7084 31637
42426 7629 27413
42813 8509 37722
43009 8954 25745
42292 7324 27868
42619 8067 21589
42830 8546 33281
42026 6719 36875
42440 7659 20600
42084 6851 21482
42977 8881 35307
43079 9114 28416
42920 8752 32813
43215 9422 40221
43369 9772 39092
40826 23868 0
37349 23966 0
36305 20384 847
36565 19552 7679
36882 18536 19779
36866 18587 21830
36017 21304 1103
36462 19879 2197
36683 19174 20691
36911 18445 29024
36685 19168 16392
36863 18599 30546
36606 19422 15206
36155 20861 556
36712 19082 23178
1209 0 34747
4760 0 18323
5109 0 9623
6024 0 23157
3713 0 29950
2031 0 38080
3837 0 36272
3003 0 35525
3534 0 30635
4961 0 19988
5083 0 13745
429 0 40715
3272 0 41217
3642 0 25558
4065 0 27523
3025 0 37433
4730 0 34253
3051 0 24962
4072 0 25287
6287 0 17864
5459 0 25964
2131 0 38700
6520 0 35444
3883 0 18806
2792 0 33137
35864 1211 0
36672 1055 0
36177 4025 0
35378 4824 0
38208 1917 41099
38341 2038 37266
37334 1122 32231
39334 2941 22197
38030 1754 25810
38092 1811 26538
38506 2188 17124
39139 2764 3152
37819 1562 29927
38706 2371 38062
38674 2341 13895
38352 2048 31215
37482 1256 38133
38250 1955 22105
38969 2610 18149
37742 1493 41027
37805 1550 23480
37337 1124 41627
40163 19400 0
36773 21114 0
37539 20989 0
41817 7239 0
39885 8821 0
6568 42557 27451
6568 41230 12325
6568 38592 4911
6568 40805 25338
6568 40072 30396
6568 38858 19579
6568 64055 38773
6568 53864 34112
6568 56739 31857
6568 60914 36286
6568 53733 20878
6568 70812 37079
6568 51420 14482
6568 63108 35130
6568 52491 31774
6568 39575 22403
6568 54808 31227
6568 50490 39822
6568 69524 39781
6568 41879 17034
6568 43124 9265
6568 42701 26302
6568 41280 29720
6568 50788 39013
6568 63612 39684
6568 40532 3140
6568 47259 37852
6568 67991 41479
6568 46792 29863
6568 42406 26963
6568 55843 26932
6568 56353 38885
6568 52169 15186
6568 52111 19495
6568 61100 39981
6568 42579 41255
6568 56089 33788
6568 52969 22314
6568 41101 15695
6568 61308 39360
6568 49777 19952
6568 59820 40753
6568 43843 23618
6568 42135 20083
6568 44206 33363
6568 54307 40859
6568 64812 37504
6568 51534 40118
6568 39995 28454
6568 52547 15706
6568 54807 35541
6568 44073 14919
6568 57853 23632
6568 56130 19678
6568 47059 36389
6568 51752 21160
6568 47967 40833
6568 55721 36053
6568 66656 35447
6568 39996 20513
6568 49388 32050
6568 42700 29111
6568 67468 30420
6568 57456 32155
6568 43614 16353
6568 43210 8289
6568 72537 36639
6568 42953 32733
6568 41718 21257
6568 64103 26982
6568 60987 25181
6568 53773 20151
6568 39606 25812
6568 41109 40134
6568 52274 18443
6568 39375 30377
6568 54808 39078
6568 56750 40192
6568 55922 23511
6568 41232 21950
6568 52021 17165
6568 47964 23578
6568 42006 21664
6568 47658 21069
6568 44264 35076
6568 56383 22497
6568 40087 14136
6568 40373 39002
6568 69251 40361
6568 49077 38806
6568 70245 34821
6568 60533 28729
6568 39093 23228
6568 47292 16921
6568 45484 39640
6568 64636 34697
6568 47981 18339
6568 44066 13911
6568 44862 22296
6568 38774 14660
6568 63309 29169
6568 51753 25890
6568 38422 40435
6568 65409 39624
6568 67004 38995
6568 71061 33720
6568 43053 40774
6568 47256 31625
6568 68355 35388
6568 55856 27469
6568 42137 25068
6568 52487 27066
6568 42704 37610
6568 39676 26962
6568 47895 14375
6568 40932 14794
6568 41854 41296
6568 51581 22438
6568 47944 38734
6568 53635 25918
6568 51609 23449
6568 57574 40850
6568 61280 34380
6568 39876 29822
6568 58255 34071
6568 43703 24635
6568 64273 39535
6568 46751 13807
6568 69685 36065
6568 50550 21304
6568 62660 27463
6568 47190 27226
6568 40218 7292
6568 40057 27475
6568 61295 41383
6568 68869 37439
6568 44677 22958
6568 63567 37298
6568 41687 14834
6568 42607 8269
6568 49533 17068
6568 60795 26814
6568 53921 28868
6568 40165 19879
6568 53055 24852
6568 54455 30323
6568 64982 40727
6568 49708 30351
6568 60500 35982
6568 45180 10035
6568 40032 4430
6568 56926 32609
6568 48288 16385
6568 45792 35468
6568 43301 10027
6568 49817 34295
6568 45481 24405
6568 73848 36485
6568 48214 25714
6568 58401 39320
6568 45727 13286
6568 44055 41269
6568 39193 20636
6568 42188 40422
6568 39446 35142
6568 44083 10178
6568 38527 721
35211 1014 41744
38437 2137 41744
38394 29785 0
39941 29261 0
34385 30302 0
0 17567 30049
0 45336 8532
0 8700 23708
0 10674 479
0 7944 20924
0 30561 14852
0 31223 17453
0 26360 24713
0 25950 20676
0 38083 14039
0 11201 8763
0 73416 1933
0 36351 4532
0 11920 14580
0 21990 29276
0 34154 8456
0 33609 18331
0 4330 9663
0 56687 6063
0 4879 17994
0 51451 10194
0 52367 8984
0 11777 4967
0 5919 18445
0 48578 4147
0 16965 23065
0 2497 16836
0 23440 8656
0 2867 9705
0 8883 11806
0 63809 5877
0 52193 5833
0 8525 20076
0 4552 16221
0 41105 15504
0 11022 13133
0 16107 7274
0 29070 17866
0 2453 24197
0 51368 3090
0 9215 21550
0 21821 4363
0 52093 5026
0 45338 2163
0 4792 35181
0 1039 30194
0 49912 12992
0 24560 14522
0 13366 25809
0 8991 26973
0 66802 1263
0 27410 2930
0 37091 14934
0 1765 18347
0 7615 16794
0 7581 19966
0 16302 22083
0 36123 11556
0 23470 3212
0 48060 4403
0 9098 28615
0 1290 11987
0 28438 11860
0 12652 5192
0 14441 21670
0 45640 7061
0 40633 17806
0 1610 20980
0 48675 14286
0 54839 11450
0 41676 1315
0 50927 9727
0 18538 1081
0 69387 4429
0 13282 17029
0 25261 19097
0 17519 26023
0 21312 20618
0 5231 3852
0 12379 13888
0 35055 9967
0 13383 34036
0 61949 4988
0 40605 16661
0 52041 123
0 16050 32449
0 50301 6735
0 337 30179
0 30490 17695
0 52309 12729
0 4833 14827
0 37038 16120
0 8430 32667
0 31242 24440
0 17217 8809
0 15043 24609
0 38947 19549
0 3247 28888
0 33210 11184
0 21403 5416
0 1071 9827
0 33051 5584
0 31636 958
0 5641 13134
0 18925 19489
0 10398 2550
0 16728 30571
0 30417 12624
0 47694 2743
0 39856 20163
0 18263 4981
0 60300 8394
0 25099 1571
0 5970 19871
0 6353 5324
0 12027 17312
0 24353 20410
0 6428 38174
0 29746 6149
0 5310 795
0 3446 32735
0 24031 24045
0 4835 18894
0 15372 9333
0 21549 11408
0 38220 19120
0 23362 28829
0 25942 4986
0 57532 2562
0 40892 18708
0 13999 11913
0 6836 15033
0 2167 13594
0 64318 6232
0 16785 15234
0 25273 14813
0 6171 17479
0 4224 35095
0 32360 3546
0 11396 5907
0 42640 18951
0 3481 14201
0 4203 1311
0 10006 26210
0 16341 6766
0 39451 20567
0 41423 9400
0 12989 2518
0 7471 34825
0 41964 4184
0 12841 12052
0 45925 11151
0 53892 4369
0 54985 6077
0 29615 17093
0 6672 35203
0 67280 3587
0 68262 5172
0 60536 2440
0 17192 11190
0 3276 32154
0 7605 15982
0 26961 24248
0 8193 27176
0 7709 7228
0 52680 390
0 46654 14093
0 8255 14514
0 18970 4909
0 21178 23971
0 22549 13508
0 43989 3330
0 68570 967
0 14631 23199
0 50064 4084
0 15438 24156
0 10178 23561
0 45035 2752
0 1382 37666
0 2070 35298
0 17744 1981
0 9676 8549
0 25000 23712
0 58160 3634
0 47447 13797
0 4810 25921
0 23410 27094
0 63795 4245
0 15706 8592
0 32911 21827
0 8245 16545
0 42688 17066
0 39762 8327
0 23795 4724
0 12433 16693
0 47932 9026
0 35981 4962
0 13403 21326
0 29387 5171
0 65862 3128
0 4615 27792
0 14075 8317
0 55290 11191
0 7116 28565
0 19758 4715
0 26888 228
0 62105 8579
0 18722 7991
0 7818 28240
0 63781 2739
0 12104 15413
0 62965 866
0 9846 9178
0 65906 386
0 48541 12848
0 26572 10135
0 60470 9334
0 25468 17422
0 30842 22510
0 2102 4641
0 6542 10438
0 55082 5286
0 29950 18224
0 17360 695
0 35843 8824
0 47486 6413
0 58623 9187
0 5412 27176
0 8854 23184
0 5250 12139
0 34030 9405
0 4807 22231
0 33426 12911
0 1510 29996
0 19819 3416
0 54277 474
0 32409 16575
0 2509 7567
0 13280 20392
0 48111 10691
0 50950 12140
0 28676 14526
0 20909 15544
0 29911 25025
0 21439 17499
0 4088 24869
0 60261 3209
0 30334 2454
0 42074 5672
0 19987 1972
0 78061 98
0 32443 12354
0 4218 29477
0 10902 1649
0 53580 12394
0 3478 13533
0 28248 18160
0 15150 582
0 28529 4447
0 68482 4358
0 36599 18089
0 27313 23491
0 35260 3433
0 26534 26852
0 45735 13014
0 2283 36981
0 8976 33553
0 20781 17285
0 34553 10146
0 2574 24988
0 47197 3526
0 12880 27034
0 5822 16145
0 596 33229
0 14628 4591
0 39612 16531
0 14017 27046
0 5913 2406
0 63846 7682
0 20148 11240
0 39052 2186
0 6186 26311
0 63056 1529
0 53919 2126
0 36647 17180
0 2253 2365
0 35108 11823
0 28208 3662
0 6235 4200
0 17677 28433
0 2861 12615
0 34269 1285
0 25205 8720
0 1035 7978
0 2912 34805
0 17569 27103
0 6414 36976
0 34741 21499
0 5115 30560
0 31798 5554
0 1160 1712
0 30718 11590
0 54344 8047
0 37638 19016
0 46428 13537
0 24907 4123
0 25200 13461
0 9250 19016
0 6561 9891
0 11255 34812
0 49812 2202
0 40014 18115
0 28863 12936
0 9330 30404
0 28455 8046
0 18811 18414
0 24452 22048
0 33638 22184
0 13346 23978
0 31379 8667
0 20644 11205
0 19422 13573
0 17959 26737
0 12649 10247
43981 22439 30468
44445 20290 38935
44605 19548 34669
44259 21151 34991
43794 23309 38234
44563 19742 11321
44120 21797 23708
44061 22068 29519
44462 20212 33803
44410 20451 36146
44375 20613 22578
44325 20845 37111
44272 21090 17184
44589 19620 20370
44238 21251 26426
44137 21717 34385
44112 21835 32739
44499 20040 38501
43925 22702 6393
44171 21561 8286
43897 22830 13721
43960 22538 20343
44069 22033 2312
44037 22180 3264
44355 20705 4345
43704 23723 7661
43790 23326 14725
44000 22354 12749
44091 21929 17361
44292 21001 6141
44135 21725 14232
43997 22369 18922
43806 23254 12438
44034 22196 14616
43714 23680 4725
43720 23652 9796
43840 23092 23864
38919 11561 0
43054 14120 0
43159 12915 0
35794 6661 41613
35700 6430 32589
36108 7426 15485
36378 8084 27951
35784 6634 25669
35984 7122 26104
35677 6374 31287
36430 8211 13476
36432 8215 22615
36437 8229 38470
36041 7263 17897
35699 6429 38317
36250 7771 21590
35779 6622 29497
23419 38173 41744
37940 32555 2918
39214 31412 16894
37864 32623 7951
38411 32133 10615
36767 33608 7637
37054 33351 10687
37635 32829 17854
39202 31422 13875
38976 31625 24165
37793 32687 10824
38638 31929 2907
38641 31926 6111
37453 32992 13444
39276 31356 2267
39137 31481 3908
39202 31423 7699
39264 31367 31540
38089 32422 23012
6568 19113 16030
6568 5682 6
6568 32148 33505
6568 21672 25749
6568 19060 4601
6568 18346 16710
6568 20269 14732
6568 31322 5491
6568 23237 15266
6568 29127 13318
6568 17088 21366
6568 9327 8106
6568 21737 27589
6568 5874 2769
6568 26656 12192
6568 30749 12001
6568 7154 318
6568 16517 3142
6568 30442 4060
6568 7404 3072
6568 12996 10222
6568 7234 9246
6568 27354 23312
6568 25666 27575
6568 31999 35409
6568 25368 14909
6568 20197 250
6568 20698 6862
6568 23493 2887
6568 29139 4812
6568 21607 14827
6568 29069 25701
6568 10892 7429
6568 28521 10362
6568 22490 13626
6568 18109 18822
6568 20638 19164
6568 24137 8327
6568 19413 8489
6568 9802 7557
6568 9376 4805
6568 25451 9220
6568 31810 2319
6568 29900 27241
6568 28925 30294
6568 25989 22264
6568 29782 5729
6568 11583 3305
6568 24608 28125
6568 27225 34498
6568 14955 772
6568 19430 14485
6568 14409 17104
6568 24830 3744
6568 19701 16603
6568 27036 15624
6568 32344 1758
6568 14993 12178
6568 21216 5507
6568 16723 18920
6568 26157 2060
6568 11064 6248
6568 31227 29410
6568 10756 3051
6568 30289 12327
6568 2734 1274
6568 29088 20885
6568 11699 12
6568 13702 897
6568 25977 20785
6568 3747 1976
6568 8464 9061
6568 31334 20511
6568 28648 12692
6568 10224 280
6568 29608 28282
6568 24907 30345
6568 5934 1507
6568 17518 843
6568 25749 29383
6568 27574 12281
6568 31949 40507
6568 32293 4544
6568 14130 16612
6568 19956 2369
6568 16277 1045
6568 24797 489
6568 21899 15250
6568 29878 25306
6568 19503 13474
6568 27671 7219
6568 30925 30243
6568 9450 7094
6568 11881 5039
6568 20331 6164
6568 2887 2581
6568 23172 17222
6568 16218 8351
6568 31698 31899
6568 3978 4946
6568 22850 2882
6568 17309 2308
6568 25013 8695
6568 22372 5932
6568 19448 6210
6568 27839 17291
6568 13983 7762
6568 32455 18588
6568 25440 26843
6568 17338 13946
6568 21947 631
6568 32150 26316
6568 31070 33478
6568 12756 1850
6568 18513 13348
6568 25306 18035
6568 28308 22669
6568 31974 36377
6568 13879 9392
6568 29639 12962
6568 17302 11400
6568 27159 5055
6568 16512 20711
6568 21987 19326
6568 29236 34192
6568 4662 3807
6568 9897 8795
6568 27177 17644
6568 23395 3450
6568 23264 20995
32045 770 41744
41818 15739 0
42562 17282 0
44603 17608 0
40013 30348 9525
39519 31024 24386
40979 29024 4411
39742 30718 14100
41655 28098 1173
40123 30197 24025
39976 30399 25110
39678 30807 34282
39458 31108 11344
39611 30898 27383
39471 31090 33187
40146 30165 10089
41112 28841 6831
39515 31030 28978
39981 30391 8864
40577 29574 5179
40261 30008 20283
39506 31042 12235
20063 37309 0
23088 36981 0
25370 36413 0
31617 35269 0
14682 37568 0
34000 0 21229
35565 0 31220
34412 0 17809
35155 0 9475
33616 0 39342
31986 0 41664
35255 0 27632
32674 0 30547
35229 0 25977
33315 0 34896
35669 0 22122
35041 0 22636
33746 0 22682
35456 0 11583
35355 0 28932
35016 0 34245
31947 0 39733
35452 0 18382
35756 0 25562
31758 0 37129
30203 37153 9367
31856 36617 16265
31434 36754 23828
31406 36763 12400
29839 37271 1099
30183 37159 16206
30919 36921 25698
30093 37188 11593
31270 36807 10067
32041 36557 25452
30006 37217 19136
32118 36532 24168
30810 36956 1267
31843 36621 10388
30473 37065 3113
31394 36767 17473
31557 36714 533
31488 36736 5253
29499 37381 14818
35371 5629 5660
35865 6833 7224
35750 6552 10079
35657 6324 7146
35643 6292 14534
35649 6305 2140
35326 5517 8221
36066 7324 2605
36034 7246 956
35791 6651 4126
35721 6482 24316
35527 6007 150
35415 5734 15444
35500 5942 24707
41028 28956 34292
41443 28387 29399
40897 29135 26571
41478 28339 35632
41562 28225 24084
41284 28605 18185
41658 28093 11165
41579 28201 19704
40095 30235 30901
41157 28780 31155
41096 28863 20401
40153 30156 32384
41088 28875 28938
40983 29018 26067
41507 28300 16068
40480 29707 35009
41299 28585 30375
41143 28798 14562
40929 29092 38759
6011 59585 41744
5478 54393 41744
4823 73447 41744
5721 63645 41744
6138 76800 41744
2943 65812 41744
4949 59791 41744
2257 71942 41744
3476 73143 41744
6285 51453 41744
4295 61650 41744
6180 42623 41744
3562 76326 41744
1664 73140 41744
5216 58315 41744
6358 67058 41744
866 76131 41744
4593 70156 41744
5129 61416 41744
5923 66081 41744
4746 71287 41744
3337 60287 41744
6403 71170 41744
6470 46111 41744
3524 63395 41744
6150 74177 41744
42360 26035 0
41308 24649 0
42576 24916 0
41101 26731 0
34468 24404 35422
34744 23867 29592
35625 22158 40797
34715 23924 35003
34560 24224 31726
35213 22959 28606
34936 23495 37271
35308 22773 35025
35774 21870 39542
35081 23215 39797
34898 23570 27910
34701 23951 32898
34570 24204 15167
35301 22787 40979
33596 2004 0
30302 29123 12582
31352 28147 10406
31058 28420 10996
31390 28111 3270
29954 29446 13109
32066 27483 5106
30243 29177 18869
31827 27705 4371
30627 28820 7206
31503 28007 1518
30635 28813 4551
30131 29281 5775
31789 27741 5884
30826 28635 1985
31640 27879 4981
18771 33424 41744
19019 36031 41744
20781 34604 41744
20880 36383 41744
8763 33959 41744
10018 37238 41744
14558 36596 41744
8993 35572 41744
11742 32921 41744
20107 34383 41744
13529 35578 41744
21630 33870 41744
25466 34522 41744
25637 33826 41744
16144 36936 41744
13779 33597 41744
11392 36185 41744
34869 23624 256
34982 23407 7812
34838 23684 11280
34664 24023 2918
35787 21844 8370
35613 22183 31124
35701 22011 24872
35023 23327 15808
35354 22684 4181
35731 21954 30507
35897 21632 26861
34838 23685 6434
35420 22556 4794
35556 22293 30064
30843 31826 0
26684 32118 0
39667 3384 16831
40522 4573 21082
41064 5327 30625
39426 3048 10785
40056 3925 18936
40159 4068 41144
41403 5798 38515
40697 4817 24903
39680 3403 28789
40068 3942 35594
39611 3306 25735
39552 3225 9300
39899 3707 24047
40197 4121 17329
41224 5549 31999
39982 3822 31141
39925 3742 30111
37255 12245 15763
37305 13414 1775
37240 11896 5380
37306 13435 9564
37306 13440 17885
37285 12933 4579
37234 11758 17440
37254 12224 641
37341 14254 3246
37246 12028 7739
37306 13436 10707
37250 12119 19021
37305 13413 8497
37272 12637 24515
35471 0 4770
32890 0 6299
34014 0 16588
31839 0 32616
32295 0 10692
34186 0 10306
34936 0 6793
32710 0 25595
33200 0 14790
31388 0 2485
32827 0 18699
33451 0 6110
32702 0 3768
33955 0 15954
33099 0 16596
31335 0 31882
34086 0 6844
34144 0 11886
31341 0 32524
34895 0 7849
31822 0 10379
4707 48916 41744
5836 41339 41744
6163 36334 41744
38896 7485 41744
39096 6447 41744
42761 25832 28242
43607 23945 3605
42463 26498 35705
43129 25012 19989
43318 24591 34391
42880 25566 36159
43520 24138 37727
42663 26050 30257
42619 26149 39518
43101 25075 24189
43380 24451 31569
42665 26046 27611
43274 24687 10751
42573 26252 34656
42982 25338 37561
42329 26797 36115
42781 25789 38479
42110 27285 39987
43584 23996 23854
32248 27314 31802
31453 28053 20552
31442 28063 39759
31784 27746 27986
30588 28857 38505
31376 28125 36907
30888 28578 35203
30291 29133 36258
31996 27548 30153
31969 27574 31274
31259 28233 26151
32043 27505 40928
32234 27328 2896
31014 28461 28337
3672 51056 0
4396 29401 0
6012 26942 0
2989 47241 0
1650 64331 0
5210 22593 0
4289 48624 0
4295 36454 0
4596 32730 0
3956 41262 0
4513 28886 0
5809 19615 0
3884 37480 0
4278 34603 0
4577 41322 0
5566 17678 0
4790 23026 0
552 73505 0
5123 41465 0
2920 52033 0
2310 51456 0
1258 66851 0
40727 14351 0
37514 14612 0
40315 17170 41744
43295 19096 41744
37848 16601 41744
36787 27006 0
34656 26163 0
35008 25134 0
6232 36344 0
5393 45273 0
5563 40720 0
44227 13503 41744
40948 12589 41744
40872 11218 41744
44639 18829 25537
44640 18345 24512
44647 16477 9405
44640 18522 11144
44644 17412 2092
44638 18983 7181
44648 16065 2875
44639 18612 32558
44641 18154 19735
44640 18426 17025
44641 18279 15643
44641 18162 16473
44641 18114 7398
44639 18705 3389
44645 17033 13831
44646 16874 14651
42861 19385 41744
40240 20436 41744
36917 18952 41744
6568 10064 21974
6568 5462 30606
6568 17528 27790
6568 29422 38335
6568 23447 38641
6568 23631 34167
6568 22827 35770
6568 4705 33659
6568 6193 38189
6568 17372 31773
6568 13891 24997
6568 9041 16779
6568 21732 28671
6568 8552 32742
6568 8157 25241
6568 17864 30954
6568 2803 28492
6568 3211 9727
6568 180 37996
6568 29793 40224
6568 13444 37702
6568 2239 4483
6568 1116 17128
6568 2055 3021
6568 20205 29824
6568 256 30597
6568 5445 26290
6568 14327 20985
6568 18513 39968
6568 17854 38484
6568 92 1550
6568 19239 26030
6568 7848 21380
6568 10403 18220
6568 12163 41661
6568 8948 37866
6568 3189 39183
6568 5240 19856
6568 10558 32356
6568 21626 41616
6568 23120 36970
6568 3655 22122
6568 6977 15153
6568 12452 18911
6568 16980 34540
6568 1318 40097
6568 19560 40406
6568 17592 33425
6568 28689 37613
6568 19227 32432
6568 758 33290
6568 16152 35940
6568 10508 35807
6568 10707 13796
6568 6545 29431
6568 10256 40377
6568 19775 31042
6568 22213 29939
6568 8827 32208
6568 1222 8631
6568 11662 30378
6568 22014 33350
6568 28918 38076
6568 1569 30216
6568 24583 37939
6568 24988 33758
6568 11724 36264
6568 423 10850
6568 20185 36946
6568 9074 26557
6568 17185 29112
6568 6413 12622
6568 18536 41732
6568 19708 26776
6568 4640 7346
6568 24270 32282
6568 8952 31485
6568 14390 28144
6568 21140 29018
6568 3754 11047
6568 11061 24753
6568 15495 25230
6568 8090 19600
6568 1461 41735
6568 4194 40702
6568 1922 18235
6568 18750 28741
6568 9693 33807
6568 5670 41469
6568 12055 19773
6568 5125 24940
6568 14060 18061
6568 7217 40317
6568 4915 20638
6568 26468 41109
6568 6706 19853
6568 853 6214
6568 22165 39470
6568 7178 10495
6568 7481 35979
6568 941 27239
6568 6981 35160
6568 5042 7679
6568 12797 26890
6568 11640 31006
6568 26679 37170
6568 3788 34943
6568 259 24842
6568 203 12930
6568 1404 29674
6568 17448 22365
6568 21775 34984
6568 8006 12627
6568 88 12014
6568 24877 39719
6568 21018 38893
6568 11704 27642
6568 372 40959
6568 18342 31266
6568 16247 22199
6568 9045 12231
6568 10203 31182
6568 21147 36002
6568 6748 34015
6568 3992 27495
6568 16162 26218
6568 3808 29373
6568 6556 40278
6568 6451 34952
6568 24625 39064
6568 13999 23487
6568 8648 27363
6568 21005 29623
6568 1562 22976
6568 15540 33806
24336 38267 15933
24231 38278 27495
25266 38170 38478
25745 38119 28219
25013 38196 34073
25670 38127 34541
26240 38067 27885
24856 38213 15821
25549 38140 31418
23546 38350 18522
23836 38320 32049
24148 38287 22650
23688 38335 24628
24930 38205 39832
23903 38312 34633
24390 38261 8997
24511 38249 30832
37563 1329 18590
36181 72 18575
37607 1370 283
37720 1473 2700
36287 168 37345
38260 1965 6807
36504 366 13207
37345 1131 24966
36298 178 12730
36271 153 29884
36300 180 36180
36840 672 8291
36697 541 11067
36795 630 32106
37056 868 5893
38868 2517 1868
36590 444 4055
36560 417 9759
26543 31537 22575
26909 31381 28651
26912 31380 27286
26400 31598 37136
26661 31487 38437
26387 31604 40769
25000 32194 35781
25760 31871 27518
25895 31813 25914
25282 32074 39230
25735 31881 35878
26782 31435 30130
26790 31432 4872
26626 31502 24547
25845 31834 19241
25764 38062 0
27041 37983 14027
25157 38181 8322
27174 37969 10778
26747 38014 13609
26462 38044 23774
26256 38066 565
27130 37974 397
26432 38047 14641
26942 37994 5722
26602 38029 17177
25787 38115 21037
26200 38072 6634
26381 38053 17667
27478 37937 11298
26709 38018 6666
26989 37989 11989
25679 38126 5222
27919 37891 30036
6568 49676 5717
6568 75263 4499
6568 54039 14764
6568 68578 10142
6568 56823 14276
6568 69842 27608
6568 57470 6501
6568 56352 16943
6568 75588 5559
6568 70166 15374
6568 67202 1605
6568 61362 21841
6568 74319 10049
6568 55688 1599
6568 61575 8646
6568 60791 1602
6568 59748 3672
6568 69845 2875
6568 68047 14062
6568 56988 9369
6568 50901 3567
6568 74402 2897
6568 78628 40931
6568 58087 7320
6568 71654 27464
6568 77023 2342
6568 74761 4121
6568 59514 17204
6568 74706 12019
6568 69877 25959
6568 68398 28381
6568 56982 12028
6568 73271 15902
6568 79106 22236
6568 77154 25719
6568 75178 3781
6568 68753 26787
6568 78200 2886
6568 52074 8262
6568 63099 3918
6568 76081 31487
6568 75058 33318
6568 63023 23078
6568 73923 8012
6568 76171 904
6568 75446 22617
6568 73239 8106
6568 62715 22159
6568 75304 29276
6568 64822 24899
6568 57026 6929
6568 62208 2022
6568 66062 4406
6568 41393 1217
6568 48148 9655
6568 78743 11507
6568 63980 11756
6568 79058 13383
6568 53659 14228
6568 71678 11151
6568 57049 1501
6568 70785 25820
6568 71892 16441
6568 68108 651
6568 40745 296
6568 50893 12111
6568 71432 18450
6568 51027 7142
6568 44613 1260
6568 73713 24636
6568 65097 16890
6568 72514 20932
6568 73050 19714
6568 71628 6194
6568 71340 5516
6568 77233 4299
6568 70262 5782
6568 62998 4645
6568 55100 14264
6568 73091 32054
6568 72691 9244
6568 54820 15303
6568 66943 3472
6568 68008 24113
6568 78634 28081
6568 56631 10027
6568 64445 9882
6568 66511 26698
6568 75052 32699
6568 76744 36072
6568 60607 3590
6568 66980 15442
6568 70816 18741
6568 75778 14221
6568 69978 20247
6568 73321 34379
6568 72479 13493
6568 78848 5896
6568 60476 17926
6568 77255 39445
6568 72167 10452
6568 57739 13887
6568 43978 4494
6568 56289 17521
6568 72434 12397
6568 66653 11297
6568 65512 2803
6568 78397 32748
6568 69391 20697
6568 72098 19511
6568 70288 17051
6568 55583 10346
6568 78776 36887
6568 69910 6835
6568 76998 30680
6568 72754 26282
6568 60353 2251
6568 68226 13385
6568 67580 5990
6568 61214 4782
6568 48101 2853
6568 62783 1080
6568 74642 35591
6568 57300 14590
6568 52703 5934
6568 57799 15244
6568 61853 18576
6568 69233 8064
6568 58721 11477
6568 70862 12489
6568 66511 27684
6568 62816 20761
6568 51138 9120
6568 78718 23818
6568 70961 32234
6568 66593 5496
6568 78824 38369
6568 46681 6593
6568 74812 1517
6568 46127 4378
6568 62770 3078
6568 71323 17187
6568 62436 6668
6568 78579 22079
6568 52957 14592
6568 54204 42
6568 78108 808
6568 67370 25505
6568 53287 3247
6568 63672 19585
6568 56381 1738
6568 77969 3997
6568 49331 9679
6568 66143 21024
6568 73353 13918
6568 58415 12711
6568 66669 17180
6568 40936 2389
6568 59718 20908
6568 71865 13678
6568 72021 9771
6568 74525 21379
6568 73390 30772
6568 75474 35967
6568 67227 21679
34018 25035 26766
34291 24674 25578
34291 24674 23156
32719 26746 2272
33437 25800 5633
34066 24971 11033
33498 25719 19711
33686 25472 12472
33670 25492 16009
33794 25329 16950
33939 25138 14377
33868 25232 11952
33380 25875 9456
32799 26641 1417
34095 24932 5416
28236 30567 34165
29665 29640 36859
29710 29611 7830
29561 29707 25912
29000 30071 37389
28899 30137 40595
27924 30770 39866
29241 29915 19523
29562 29706 32935
28780 30214 38384
28273 30544 29743
29894 29492 32419
29586 29691 28129
29430 29792 16954
36312 34017 24705
38397 32145 36345
36274 34050 7648
37588 32871 31795
36254 34068 33157
37404 33036 40703
37608 32854 39508
36889 33498 19212
37559 32897 36237
38522 32033 35765
37568 32889 35374
38717 31858 36965
36604 33754 22895
36368 33966 29872
36142 34169 5088
36678 33688 40635
38612 31952 37775
28797 30206 41744
37842 31107 41744
30029 30519 41744
30421 30257 0
32577 30086 0
43338 9702 25797
43418 9883 480
42363 7484 2738
43693 10508 10013
43590 10274 11936
42550 7910 8154
42815 8514 8707
43177 9335 6701
43613 10326 18023
42513 7827 6722
42968 8860 17760
42957 8834 16435
42710 8273 5142
43194 9374 15111
42537 7881 2447
42396 7561 4255
42975 8875 9827
1762 79143 39750
6451 79143 25195
5766 79143 25631
3923 79143 39364
2039 79143 31422
4028 79143 41396
4883 79143 37989
4161 79143 19024
5304 79143 13503
6119 79143 28855
2632 79143 27297
6298 79143 24693
4275 79143 22429
3612 79143 27065
6401 79143 31513
2831 79143 37522
6357 79143 41416
3898 79143 26540
6566 79143 28405
3146 79143 34751
4965 79143 16446
4511 79143 32524
5513 79143 22354
2975 79143 28312
672 79143 41034
1831 79143 33706
3232 79143 35497
4468 46236 41744
6057 35212 41744
1339 68031 41744
3994 39501 41744
4370 33843 41744
6409 3287 41744
5986 27621 41744
5352 28140 41744
5934 33941 41744
3481 41659 41744
4063 47972 41744
6393 4050 41744
2780 49300 41744
6137 7938 41744
5266 37313 41744
2427 61362 41744
3333 51582 41744
3987 38279 41744
3041 42717 41744
5188 27170 41744
4732 29235 41744
40949 10643 41744
38519 10123 41744
24290 32497 13980
26698 31471 2300
24693 32325 32641
25462 31998 21257
25325 32056 9437
24716 32315 20916
25090 32156 6455
25190 32114 22169
24157 32553 18759
24351 32471 35315
24229 32523 32578
25280 32075 13118
25108 32148 16615
25401 32023 18201
5109 47948 0
6076 70382 0
6304 49279 0
1841 73825 0
4816 78860 0
5804 49992 0
6168 79010 0
5166 68148 0
4810 69000 0
1665 78855 0
3030 75907 0
5995 46184 0
1224 72963 0
5116 65170 0
5988 64893 0
6463 60801 0
4239 74578 0
5573 54632 0
3070 73322 0
4246 76636 0
3725 58491 0
1930 70535 0
5361 57032 0
2676 66804 0
2118 68032 0
1211 78237 0
25553 36195 41744
27604 36456 41744
26721 36294 41744
21648 36971 41744
28367 35695 41744
23759 36938 41744
37766 17329 0
37586 15891 0
38247 26597 41744
35724 26483 41744
30803 33230 0
33492 32769 0
29225 33100 0
36530 33370 0
3506 79143 8221
4286 79143 4532
859 79143 1374
2405 79143 12227
3247 79143 8670
3233 79143 12738
5960 79143 2913
3980 79143 15786
2623 79143 14921
1614 79143 29768
4049 79143 5510
1757 79143 13372
1081 79143 28994
2602 79143 17740
159 79143 28705
2509 79143 25023
405 79143 10900
1824 79143 22246
80 79143 24584
251 79143 27715
1088 79143 13051
5116 79143 3512
379 79143 1559
217 79143 15995
3211 79143 10049
2615 79143 20650
2147 79143 16471
32106 987 4721
32191 1081 16453
31646 477 22816
31240 28 6641
31451 262 33515
32524 1449 13124
32096 975 6515
31349 150 19143
33108 2095 5479
31955 819 22277
32630 1565 10486
31414 221 34861
32219 1111 7160
36569 8667 11844
36621 8907 26287
36565 8649 20392
36731 9404 25084
36662 9093 7607
36544 8555 30213
37034 10788 9877
36938 10351 10629
36673 9142 9905
36598 8802 35324
36771 9588 2631
36598 8802 1814
36685 9196 17366
36538 8528 24127
33641 2771 13847
34477 4099 8252
33671 2820 22161
34574 4254 14186
34094 3491 10414
34391 3963 8932
33499 2547 39218
33717 2892 30255
33695 2857 8099
34082 3471 23567
34162 3599 14841
34610 4311 2022
34928 4815 4405
33959 3277 21257
33935 3238 19804
34525 29963 41744
39668 28564 41744
37378 28919 41744
32171 29265 41744
9274 38353 25401
18980 38353 37978
9288 38353 21604
11495 38353 28595
7915 38353 11272
7036 38353 12639
7234 38353 37227
7723 38353 40090
9710 38353 26823
14975 38353 41138
15204 38353 23958
9221 38353 20079
17368 38353 39921
20729 38353 38662
12283 38353 21495
16384 38353 34405
9146 38353 40003
6726 38353 10829
12621 38353 30205
11331 38353 41688
18658 38353 37321
18352 38353 36514
14936 38353 29106
9608 38353 35539
9426 38353 22362
17550 38353 27885
14625 38353 21363
11418 38353 31919
12083 38353 27313
11331 38353 30798
11036 38353 28887
8466 38353 41394
14095 38353 30159
7989 38353 20272
7260 38353 19175
18345 38353 40086
7991 38353 29271
15351 38353 35151
15431 38353 39281
16609 38353 29807
8597 38353 24675
16189 38353 24721
13019 38353 30532
13295 38353 31886
10713 38353 25733
10837 38353 21527
18458 38353 31776
7677 38353 22196
11489 38353 14365
6595 38353 35130
9398 38353 23544
7959 38353 27383
8919 38353 10266
18979 38353 36771
8202 38353 26224
9263 38353 34569
11901 38353 15711
8380 38353 30620
7265 38353 9260
6638 38353 8656
13881 38353 27865
9712 38353 38977
17713 38353 37298
13802 38353 33997
7526 38353 39136
15334 38353 32687
16872 38353 30458
19961 38353 34826
37228 11671 11537
36989 10581 36198
36537 8522 41482
37073 10967 35701
36965 10473 22608
36716 9338 38782
36919 10264 39993
36903 10189 35240
37229 11677 23956
36700 9264 30905
36985 10562 30252
37186 11481 8817
36969 10493 38707
9424 37687 0
25402 34470 0
24628 33292 0
21805 35167 0
13320 37078 0
21094 34289 0
24152 35255 0
25077 34017 0
28609 33322 0
22529 34960 0
37792 25740 41744
39555 26278 41744
42401 25138 41744
41894 25197 41744
44471 14104 34597
43975 11722 38379
43923 11474 26505
43900 11363 35418
43927 11492 28982
43913 11422 23240
44518 14330 39711
44075 12202 31094
44107 12355 41276
43862 11178 25287
43969 11692 12078
44010 11889 29423
44180 12706 32886
43870 11216 39496
44539 14430 38791
43978 11734 19344
44106 12351 24179
30748 36816 0
26401 37172 0
25578 37194 0
34649 4372 37082
35226 5290 34539
34979 4896 30207
34470 4088 24276
33869 3134 40670
34660 4389 38277
34199 3658 24832
35135 5144 7079
34431 4026 39772
34973 4887 21688
35220 5279 15738
34882 4743 9586
35215 5271 14739
34636 4351 30474
28016 30710 16292
28263 30550 19863
27958 30748 9104
27853 30816 5081
27688 30923 11489
29053 30037 12827
28165 30613 13218
27321 31161 26555
28528 30378 16543
27562 31005 25447
27320 31162 32276
29158 29969 6079
29272 29895 262
28941 30110 13600
27823 30836 10222
44538 14422 1415
43988 11784 474
44067 12162 5011
44502 14253 20278
44058 12123 3239
44502 14250 25759
44464 14069 11666
44235 12968 2876
44630 14864 16314
44352 13530 24375
44469 14091 8159
43900 11364 3047
44608 14758 14421
44603 14736 3166
44409 13805 14991
44158 12598 14470
44353 13534 16770
44193 12769 12195
34702 27461 41744
36929 28452 41744
33958 25112 33697
33444 25790 36574
32500 27035 17396
32516 27014 22348
33696 25459 32290
33654 25513 41574
32969 26417 38641
32491 27047 23499
33658 25508 31273
32859 26562 13063
33120 26218 36664
32441 27112 15779
32973 26412 26161
32626 26869 12752
33124 26212 18653
33531 28218 0
36621 27580 0
40510 21334 0
40397 20685 0
43503 21953 0
39290 5138 41744
38177 5458 41744
39483 10019 0
36750 8904 0
39994 10431 0
21498 32737 41744
24779 33537 41744
24224 33509 41744
19573 38353 10030
10336 38353 8083
14764 38353 6762
21134 38353 542
17585 38353 21111
9871 38353 4522
16107 38353 12589
16865 38353 12376
7813 38353 917
21092 38353 10687
18840 38353 27378
23255 38353 21076
21496 38353 35232
17373 38353 8847
20297 38353 29904
15588 38353 10117
15723 38353 7269
14999 38353 9817
10426 38353 5267
22553 38353 21682
17373 38353 9436
21256 38353 3356
17176 38353 17873
18485 38353 19569
13028 38353 9302
21471 38353 13124
21029 38353 27173
13916 38353 1572
17121 38353 421
9087 38353 5481
21911 38353 2979
18444 38353 783
19580 38353 24803
19475 38353 29651
21310 38353 33215
23504 38353 9146
10236 38353 2784
22175 38353 1725
12827 38353 6405
14717 38353 12222
19522 38353 26769
23005 38353 1000
22410 38353 27783
13988 38353 14823
21629 38353 14970
22541 38353 10720
19693 38353 27848
22098 38353 10468
19024 38353 13884
22357 38353 9800
11849 38353 10510
17165 38353 24365
13478 38353 9583
10363 38353 8967
21531 38353 4166
15892 38353 18629
22480 38353 25281
17683 38353 7772
11936 38353 8607
18777 38353 23561
22966 38353 11101
14584 38353 4850
19589 38353 18728
22979 38353 30438
23471 38353 6970
18979 38353 6377
13968 38353 4525
16982 38353 25113
12617 38353 3693
1599 47652 41744
3738 17436 41744
4261 26466 41744
3943 13207 41744
119 67401 41744
4509 11017 41744
1251 20811 41744
1639 15313 41744
1707 8677 41744
3353 11211 41744
2810 31498 41744
1610 1947 41744
321 7994 41744
2251 47514 41744
3359 12307 41744
1297 25856 41744
3355 23596 41744
316 20768 41744
1525 56358 41744
2336 50509 41744
917 40954 41744
550 31674 41744
3022 34444 41744
3084 30581 41744
1035 63500 41744
2197 3377 41744
1183 64510 41744
391 35731 41744
869 37359 41744
780 29161 41744
1215 15657 41744
2753 32412 41744
2740 25380 41744
3435 13519 41744
1479 48434 41744
2020 20896 41744
4302 2313 41744
5035 3197 41744
3984 29346 41744
2825 29485 41744
617 52528 41744
2492 17944 41744
6390 670 41744
4361 17262 41744
1638 34657 41744
3841 9338 41744
1249 35905 41744
3050 10222 41744
40846 9492 41744
42447 7827 41744
44569 18409 41744
41875 16770 41744
42880 16975 41744
2206 0 14330
1643 0 3057
3521 0 4410
806 0 10822
4831 0 1435
931 0 7595
5621 0 206
3201 0 12940
1560 0 1707
1080 0 6222
3793 0 9271
2477 0 22387
2292 0 5125
3640 0 874
242 0 21533
79 0 5985
350 0 17539
4672 0 8339
1875 0 6282
2498 0 1416
1807 0 7946
2957 0 15150
2530 0 617
926 0 28002
264 0 3248
504 0 26608
35406 34645 30053
33017 36020 5462
35363 34669 30737
35954 34329 21239
35879 34372 14044
33874 35527 14684
35420 34636 2266
34782 35004 1326
34843 34969 3974
33056 35997 539
35786 34426 14954
32638 36238 1166
35700 34475 31157
34966 34898 22404
34514 35158 13527
35534 34571 5849
39206 24052 41744
39547 22716 41744
8436 32602 3972
8291 32602 33241
16807 32602 15505
18030 32602 13657
11368 32602 9131
12763 32602 10725
15060 32602 8431
16082 32602 1915
11653 32602 22404
13546 32602 12242
21478 32602 2098
17035 32602 6074
11720 32602 11454
13832 32602 8744
16296 32602 4322
15960 32602 10051
14918 32602 10928
13737 32602 9776
9705 32602 4933
10712 32602 13181
14902 32602 7177
15699 32602 8033
7073 32602 39279
6883 32602 22728
7805 32602 14358
8176 32602 11204
10181 32602 2598
14703 32602 12504
11648 32602 24902
7755 32602 31273
6685 32602 36502
13569 32602 7642
7143 32602 19451
8963 32602 9498
7481 32602 35171
14372 32602 8694
9268 32602 17924
15257 32602 8957
10036 32602 27445
11521 32602 9857
18315 32602 2274
14721 32602 16514
18328 32602 10886
16764 32602 13240
16774 32602 4758
16713 32602 12537
7748 32602 36943
9388 32602 30081
6698 32602 37081
9354 32602 34690
8270 32602 7281
6755 32602 956
14705 32602 21351
10092 32602 7216
8088 32602 23567
13158 32602 6107
22183 32602 411
20271 32602 6842
9643 32602 20680
8221 32602 26331
17919 32602 2633
12762 32602 18063
22712 32602 2483
9563 32602 8496
21273 32602 3989
14676 32602 15257
10464 32602 29115
6821 32602 30972
11807 32602 19976
9368 32602 7411
19980 32602 8490
12040 32602 24107
37354 14542 21600
37368 14869 37047
37353 14516 10472
37343 14285 12128
37313 13596 39091
37350 14456 33397
37340 14210 17768
37244 11985 41716
37321 13788 34724
37298 13248 36798
37324 13859 36335
37339 14204 13369
37301 13324 28653
37328 13934 20684
37251 12151 37958
32865 36108 27859
33698 35628 41740
33762 35591 33258
32514 36310 30475
32703 36201 15792
32971 36047 9815
32906 36084 41533
34240 35316 28775
33157 35940 34321
34412 35217 38297
33111 35966 22634
32232 36472 4887
32712 36196 13316
32230 36473 11072
35001 34878 37761
33623 35671 32372
32247 36464 13826
33642 35660 19488
30062 37198 29793
30117 37180 23393
30670 37001 27760
28046 37852 22762
29457 37394 34436
28157 37816 28782
28578 37679 18117
28154 37817 23306
28643 37658 40676
28071 37844 1933
28004 37865 11937
29097 37511 27925
28716 37635 21566
29205 37476 37661
28302 37769 41193
31134 36851 37424
29008 37540 20350
28594 37674 29003
29380 37419 35618
31807 32565 41744
36282 33314 41744
34266 33647 41744
33052 32620 41744
37562 32524 41744
15754 32602 36866
12579 32602 28751
15623 32602 30038
19590 32602 28416
18798 32602 38187
17105 32602 22693
23632 32602 6843
21259 32602 21804
11245 32602 39474
16933 32602 20202
23350 32602 14968
12477 32602 40256
21864 32602 40898
22905 32602 23439
22611 32602 41425
12560 32602 27696
19066 32602 18709
18829 32602 28020
15497 32602 35467
18423 32602 33737
7775 32602 39789
19380 32602 24357
23892 32602 21420
21275 32602 12561
14703 32602 26737
10811 32602 32162
21222 32602 22647
18210 32602 27361
10930 32602 39909
23216 32602 37986
15986 32602 33526
16936 32602 24670
22437 32602 30675
15760 32602 31776
22743 32602 15616
19507 32602 21301
15020 32602 36596
19894 32602 40386
18575 32602 16133
11293 32602 37056
19456 32602 22236
13633 32602 29518
20505 32602 21930
21496 32602 33182
23848 32602 20479
16939 32602 27090
21089 32602 27525
20194 32602 27743
18837 32602 22482
23711 32602 9830
13800 32602 27876
9830 32602 38769
16591 32602 40789
20195 32602 35840
13746 32602 26893
20406 32602 37210
12903 32602 35242
22452 32602 20666
18074 32602 20384
21084 32602 20987
23455 32602 28139
12780 32602 39535
10274 32602 36968
14700 32602 33387
19098 32602 26193
20001 32602 23721
12057 32602 34737
21194 32602 23574
20608 32602 11351
39484 5057 0
38773 4212 0
19411 37942 41744
16516 37975 41744
28196 36872 41744
29077 31549 41744
40611 4697 19010
41243 5576 14924
39900 3707 1860
41840 6406 28023
41127 5414 6265
41928 6528 24570
41848 6417 35481
40031 3889 3399
41067 5331 14008
40986 5218 11749
39781 3543 2750
41268 5611 22806
41894 6481 16553
41397 5790 23465
41690 6197 14643
41856 6428 18165
41125 5411 7733
36988 17985 23659
37314 15498 40659
37087 17230 25144
37098 17147 15646
37040 17588 20957
37212 16275 40255
37056 17469 40001
37227 16163 34884
36991 17966 8549
37038 17605 28599
37076 17311 19756
37001 17885 26107
37095 17171 4592
37225 16176 428
37306 15554 29952
37151 16739 1483
37323 15427 22912
37324 15419 32269
37239 16068 24246
37017 17769 4986
37187 16468 23402
37353 15200 21807
37373 15044 4294
37191 16438 7767
37308 15538 3714
