ply
format ascii 1.0
element vertex 2772
property float x
property float y
property float z
end_header
54142 49729 5286
57338 30559 50473
57706 30580 43114
14376 8869 1628
15629 5606 33235
16696 11212 6168
16884 11249 5012
11507 30577 5651
14025 20442 7076
17726 7985 5287
8528 41358 5892
8761 40054 6607
16815 10235 7022
17272 9034 6267
3371 56225 4521
12915 6454 50446
18502 10701 53182
40651 10701 54127
16679 10701 51382
23465 10701 52483
23081 10701 53832
59493 10986 3086
19448 6459 51910
46745 9588 54671
37001 8432 54412
25602 7166 52501
33838 8087 53765
56232 31557 52408
56539 31462 48619
22519 7158 53767
37336 10631 54754
16963 7435 53492
29039 8489 54188
19278 7643 53626
20035 9168 53757
41307 9804 54913
13321 6024 53215
43035 10695 55056
9665 38638 207
35876 45803 52113
33918 45310 52957
46764 48642 54627
43723 47837 53033
50129 49503 54181
13552 13556 42566
2466 54365 38853
5581 42988 41129
9011 30292 41386
4585 46561 39508
6794 38519 41477
11401 21450 41484
6866 38147 40058
6394 39914 40259
45500 48586 1966
17018 5392 34064
17280 5870 28016
55460 22485 5365
40504 27416 4578
56432 15286 5417
53397 26008 5257
53063 16810 5239
16545 26792 3316
59803 17516 5595
48755 21635 5012
55489 23771 5367
27673 26573 3902
49710 20609 5063
56673 29754 5430
18924 25549 3442
57063 19140 5450
43011 23263 4710
32370 21994 4150
25127 24729 3768
50598 18753 5109
39494 28151 4525
50343 19251 5096
24732 27051 3747
31385 24991 4098
59487 22783 5577
46661 27451 4902
58231 20278 5511
18876 26199 3440
27771 22672 3907
47622 22531 4953
31065 27888 4081
48807 27564 5015
53653 16101 5270
55189 15367 5351
50429 24749 5100
42992 26293 4709
33616 23208 4215
23042 25347 3658
48520 17514 5000
43978 28758 4761
15270 10789 1739
58765 6153 4752
57276 9281 50564
8881 30221 1160
9060 29621 322
7421 37009 146
19457 40847 53818
52482 42251 55553
46126 47941 55220
26111 40389 54167
51500 40094 55502
34519 42190 54610
53243 39620 55593
48640 39844 55352
52363 40719 55547
32673 44427 54512
49532 48478 55398
40942 42256 54947
46269 43413 55227
35795 40418 54677
37828 40142 54783
50557 47709 55453
45710 43777 55198
40557 46398 54927
33556 41151 54559
20722 13068 53885
39727 18657 54883
24285 16634 54072
48801 24212 55360
45074 27658 55164
45493 21251 55187
41721 28072 54988
46875 15234 55259
44806 16148 55150
25305 13216 54126
50137 29010 55431
43975 23715 55106
49104 34113 55376
16344 13708 53655
54505 27074 55660
49084 12900 55375
25234 15292 54122
30572 11245 54403
52966 25924 55579
27545 20623 54243
22034 16142 53954
54934 14746 55682
42569 23220 55033
49119 16529 55377
29928 14910 54369
47086 18376 55270
54307 23294 55650
55623 34429 55719
47832 25293 55309
37284 16428 54755
43409 27664 55077
45485 18661 55186
24129 13818 54064
54382 37395 55653
27933 19390 54264
19057 14979 53798
35733 23009 54673
46408 18610 55235
45676 27133 55196
30403 16989 54393
28087 12209 54272
32918 24359 54526
36288 15692 54703
32868 20835 54522
31147 18331 54433
25226 12537 54122
54466 29894 55658
50798 11794 55465
32784 21541 54519
30655 16196 54406
55344 31273 55703
32683 18350 54514
35655 25422 54670
31851 14774 1248
37591 13080 1549
41191 21004 1738
35042 18811 1415
48143 25625 2105
37216 13711 1529
34790 13155 1402
19734 12354 611
35683 17915 1450
35573 19511 1443
37018 17523 1520
55002 19692 2465
54677 33026 2447
54014 24265 2412
22464 17189 755
39063 25578 1627
53215 28340 2370
48731 13608 2136
58991 23528 2675
44761 19336 1926
56930 13647 2565
47342 15279 2062
56937 37156 2566
55750 16741 2503
47074 12584 2048
45207 26126 1949
26180 15188 950
33160 13159 1316
43612 22201 1866
32976 12038 1307
18821 12896 563
42772 24517 1822
49085 24407 2153
27970 19185 1044
32724 22653 1294
44994 22667 1938
56197 23911 2527
32974 17389 1307
58348 32679 2641
27862 19785 1038
43236 13428 1847
54433 26495 2434
40546 24690 1705
40593 16924 1707
56657 30981 2552
36771 16728 1506
29605 12645 1131
52666 28025 2341
43761 18944 1873
47204 11633 2055
54729 31757 2450
36192 21953 1476
39848 19449 1668
54871 13867 2457
15214 4951 14362
15332 5517 10779
29637 11110 1131
11192 10306 53383
7025 37948 43871
7269 36963 43339
3731 50158 43839
10217 26021 43267
11997 19353 42826
6090 41395 43711
8534 32390 44132
8271 33310 43752
13543 11103 3152
10199 40685 3028
11849 39486 3056
56420 31745 44714
56565 16349 54672
56546 23120 55042
57982 10818 41099
30212 9974 54340
23672 7961 53876
16950 6507 53435
36268 9878 54652
17753 10315 53706
18963 9474 53718
32508 8095 54348
13604 7626 53327
18521 8675 53648
16057 6067 53362
19860 38272 50973
52752 30909 5223
35554 28609 4317
37188 28959 4403
47417 29605 4942
59503 29599 2702
24488 38930 3727
53734 48446 52753
16750 41468 50800
26252 43679 2173
55850 47460 2510
56005 45971 2517
18181 41254 52873
17266 41014 52510
35434 45719 54335
39275 46711 54530
29375 44152 53883
57898 48653 5250
7631 43886 19350
7440 43871 21046
8096 44181 37558
7891 44027 27484
8120 44332 50192
8943 38872 52753
34738 45537 54141
23381 42606 53737
10828 39330 50657
12389 39743 51453
17025 40937 51445
15458 26760 35411
15637 26599 15186
15687 26642 18789
15787 26794 32757
16322 3341 1437
59134 27827 5559
57211 10979 2565
37330 9440 1428
45225 10147 1886
51877 10764 2272
36661 9545 1400
21880 10180 661
22816 10915 755
35289 9631 1332
32213 8081 1078
39881 10511 1626
16389 4470 36005
16019 4503 48320
14710 4363 50340
50901 9519 5184
41120 8117 4740
58211 10600 23342
57574 10506 35601
58997 9984 8197
16037 5817 27962
15784 5863 40299
37999 28308 54793
26574 28360 54193
30750 30504 54412
49601 35597 55402
39211 34455 54856
43753 37895 55095
19767 21412 53835
19580 34679 53825
17411 26305 53711
8130 22823 53223
24110 35257 54062
10459 17639 53346
7986 33597 53216
5999 32321 53111
7111 35822 53170
22692 37307 53988
24561 26585 54087
14209 21726 53543
15268 25984 53599
35858 28989 54680
20208 30287 53857
30072 37022 54376
32040 27166 54480
8417 33208 53239
49477 37462 55396
9693 32207 53306
10485 37533 53346
24793 20645 54099
27007 32300 54215
12009 26388 53427
36968 36727 54738
16871 27559 53683
41799 35694 54992
46828 34611 55257
22136 35522 53959
21477 28079 53925
26238 36538 54175
15612 25316 53617
41514 35009 54977
10812 29801 53363
22683 29061 53988
14367 29037 53551
7213 32531 53175
42165 31197 55011
48837 37184 55361
16029 22867 53638
24825 23683 54101
18783 34543 53783
17016 30015 53690
12719 17522 53465
17744 32307 53728
27484 30955 54240
30095 28748 54377
43377 32778 55075
35081 33778 54638
5520 36022 53086
28042 23651 54270
48862 38143 55364
19388 24836 53815
24504 10701 51311
54671 10701 55438
22543 10701 51385
23169 10701 51294
53059 10701 54569
59219 28652 3566
59219 36685 3563
59175 27824 4401
15589 5895 49263
14037 5723 50661
14720 5700 34063
56581 36095 54706
56641 28873 53576
56590 44231 54538
56648 20634 53440
30602 38288 4049
26937 29572 3856
16098 17560 3286
28097 27933 3917
20035 26715 3493
10427 25097 2989
23921 29399 3697
45625 35726 4838
16855 25994 3326
29854 24586 4010
56558 37961 5412
31273 38154 4085
17023 36936 3335
8702 37496 2898
10849 26241 3011
28548 31399 3941
39045 38479 4492
17156 30196 3342
47315 37618 4927
39615 33498 4522
26591 26271 3838
30552 34033 4046
37870 28077 4431
15942 25617 3278
37723 34984 4423
27953 33061 3910
15859 22446 3274
49226 37791 5027
30222 26294 4029
13252 31258 3137
19983 35486 3491
28672 33309 3947
27030 27161 3861
24205 22069 3713
41574 32149 4625
39101 30188 4495
41727 29035 4633
40875 36648 4588
14546 21285 3205
38256 27112 4451
36023 37617 4333
14517 35916 3203
7625 35848 2841
16840 21538 3325
17393 31183 3355
40374 32479 4562
30560 24742 4046
14865 36498 3222
39038 33012 4492
15060 16621 3232
14734 18212 3215
34664 36425 4262
24161 28509 3710
23147 32831 3657
11120 32963 3025
33127 31834 4181
23956 10842 54055
42359 10846 55022
27118 6804 10007
53527 10141 37150
28217 6941 10856
54290 10089 14412
58073 10698 39097
54500 10232 33201
38910 8286 20812
39982 8323 6313
33679 7605 12381
49081 9620 39014
41516 8679 33779
49456 9628 33159
59518 10681 8905
54419 10175 25617
57342 10691 51871
52422 9830 8820
28024 6930 12875
20834 6033 7074
19679 5888 6112
43092 8812 24683
54433 10115 15859
46706 9177 13924
52788 10003 29353
21399 6095 6148
41623 8664 29242
56559 10424 24494
57265 10391 5773
22822 6277 8023
40154 8446 22506
53923 10134 28574
38556 8268 24651
43827 8900 24716
49978 9699 34459
57927 10643 33258
27303 6847 13259
56661 10344 9942
21899 6163 7433
51582 9718 7052
31982 7365 6527
53155 10012 23757
45415 9044 17367
52267 10039 44962
39607 8338 15805
50030 9562 11785
58991 10679 18735
49528 9583 24756
29793 7143 12910
41814 8702 31566
43972 8793 5070
48308 9415 21268
52240 9904 24046
51433 9694 6105
53262 9980 16761
32641 7514 17517
49326 9516 17860
25716 6648 11834
56247 10418 29335
40421 8457 19195
51718 9909 34726
49621 9559 19158
58057 10626 28020
53109 10032 27884
46494 9127 10053
29444 7130 17585
56366 10439 30473
37797 8124 16326
51373 9876 36075
50096 9705 33185
33021 7494 7267
52132 9894 24589
44408 8897 13201
48976 9558 31212
46269 9152 18207
24990 6511 4002
30382 7180 7697
54917 10165 14654
36846 7994 13809
56166 10298 11875
38448 8234 21300
23766 6373 5253
50904 9848 40597
42379 8692 19349
31070 7319 16480
45920 9103 17188
45196 8971 10001
55631 10413 40369
14957 0 2787
56638 29857 53285
56550 35504 54970
1638 56195 37407
32682 41003 1292
43473 39902 1858
57908 40626 2617
51001 46500 2254
53781 40665 2400
55945 44180 2515
48122 40139 2103
28249 42232 1058
45491 44057 1965
23904 40782 830
29549 41246 1127
18981 41007 572
31595 44271 1234
34779 44731 1401
48642 45873 2131
35800 44789 1455
52496 42049 2332
23546 39928 811
34822 42413 1405
56419 31816 42779
9850 43106 33372
9639 44129 29540
10860 38525 49277
9415 43646 37588
10521 44244 11693
14332 30849 41718
13746 33309 34012
13554 32916 40739
11088 40217 31855
11957 39342 21885
11476 41017 18207
13177 34047 39264
11553 36967 47970
13977 32598 35054
10592 41118 34437
13580 34163 30617
12493 35979 37527
12989 34434 39899
10870 42331 19728
11875 40046 18034
12347 38795 18606
11880 40580 13814
10204 40174 49177
12952 36335 25937
13166 33115 46668
12710 34085 47959
11652 37888 38972
13447 34365 31608
11672 37935 38218
10074 44197 20651
12747 36754 26651
14062 32056 37603
12794 35356 36538
10328 44137 16218
9853 41519 45564
9755 43114 35146
10642 42571 22259
12381 38279 21927
59186 2805 4563
40658 47806 54269
9531 44142 11885
8434 43854 4146
8448 44147 29174
9896 44185 9954
9169 44117 15363
6657 43471 14988
7726 38896 16609
11577 25309 15120
10537 28751 16092
4654 49781 17678
6030 44795 17487
6177 44797 16103
6232 44188 17132
7401 40394 15851
59246 41967 3198
35536 45328 2852
35288 45247 1608
41999 46990 2622
37987 45964 3243
23829 42293 1531
43653 48180 3485
49857 49783 3792
49458 49672 3198
50260 49879 3246
56532 9209 4322
27859 5661 1512
57801 9365 4265
23405 5110 1078
36303 6704 1965
7853 39361 52328
33442 39025 51687
13854 38609 50657
59136 42228 5312
59709 46257 3143
56574 44092 55769
56947 6497 52912
58079 31517 18170
57522 31326 32905
56672 12553 52982
2745 55064 23136
5344 45311 23842
3635 51829 22949
3071 53162 26074
4546 48030 24778
5392 44690 25679
9147 30674 26365
7188 38381 24370
7409 37079 26390
49012 11112 2687
45045 11067 3228
34319 11102 2075
33253 11119 1727
57582 11070 3835
58453 48140 4232
13424 4964 53202
56258 45844 55340
59341 29711 15276
59735 16009 7793
59179 16282 18350
57905 27165 42552
58017 27404 40437
58905 25465 23568
59266 19150 16709
59223 18485 17527
57732 28921 45832
58122 29006 38425
58132 27752 38244
58625 27064 28876
59789 20915 6780
58685 22018 27744
58184 30026 37256
58973 21351 22274
59153 18843 18850
59801 28247 6547
59592 16282 10509
59695 23381 8563
59378 25844 14574
59410 16314 13972
59391 20484 14342
58420 23970 32774
59357 22908 14981
59480 20649 12644
59433 20370 13539
58869 22301 24255
59807 22791 6425
58493 25433 31388
58459 25441 32037
59850 13794 5616
59185 19040 18242
59538 25004 11542
59506 17329 12142
59399 21574 14173
59118 16820 19523
9166 42454 50242
7535 44193 50236
58959 4622 4233
33805 17979 51702
13215 10376 50617
26954 12986 51341
29326 14276 51466
34977 16589 51763
23686 9009 51169
20272 22390 50989
16912 10830 50812
25722 19571 51276
21499 16163 51053
33280 18733 51673
19821 22977 50965
31538 14544 51582
33288 13728 51673
28106 11161 51402
20424 20939 50997
34623 10752 51745
20001 18540 50975
21381 10767 51047
25586 12664 51269
36067 12864 51821
45075 10338 52295
32246 11487 51619
23848 15113 51177
30291 8808 51517
46107 14449 52349
13242 15221 50618
20999 8109 51027
34962 17539 51763
42840 14222 52177
14507 18037 50686
45381 12095 52311
10893 26311 50495
16647 15898 50798
15377 9383 50731
39808 15810 52017
14814 12753 50702
15040 11567 50714
16820 7108 12814
12752 22445 12019
16614 7018 14605
15820 10006 14451
11119 28020 12925
12719 22789 11546
12594 22456 13224
14743 13955 14489
4906 51797 10965
56327 9243 55588
11934 31838 49949
11481 32534 49956
34022 29104 9206
46907 30762 27119
26666 28207 6715
51541 31247 16050
53052 31569 38290
42457 30236 28348
30107 28708 20707
50135 31059 12942
49103 31037 29010
52577 31515 38816
44731 30468 21929
53133 31397 9618
24786 28037 15474
32842 29053 23556
50035 31213 39180
56677 31960 31521
38854 29776 23912
28471 28484 16317
18263 27208 8018
37520 29637 27152
30586 28690 8861
48760 31089 43834
24169 27951 13583
42506 30116 8447
57544 31941 11964
46710 30622 8777
41422 30001 10739
40580 29971 21973
40709 30052 32424
42533 30124 9213
15665 26883 5846
22348 27728 12886
53181 31602 41199
45874 30618 23902
44507 30549 38999
50679 31116 11570
30325 28651 7649
53714 31713 48548
42913 30246 21298
28812 28503 12922
25961 28188 17073
33834 29108 13335
29759 28651 18327
38412 29690 18621
48652 30971 27151
33057 28988 9056
40442 29923 17028
40260 29850 8891
26716 28239 10773
42805 30209 17404
31128 28833 21116
31308 28777 8830
38827 29753 20772
34943 29186 4629
38922 29795 25637
55100 31823 39646
50680 31098 8743
49952 31084 20339
32384 29004 24407
48437 30897 19587
53996 31742 47820
56002 31927 39096
30845 28772 16801
37691 29653 26521
26250 28153 6119
54566 31675 26329
30545 28714 13373
44508 30520 34413
53177 31488 23215
24055 27907 8766
56822 31941 25761
39716 29926 31276
44986 30436 12019
36948 29470 11667
36877 29486 15441
29072 28522 10889
46566 30694 22880
49799 30971 5312
47695 30876 30299
56430 31890 25088
29556 28605 14843
46543 30607 9521
34991 29214 8111
37522 29556 14280
46032 30538 8355
42287 30230 30604
54652 31645 19940
47472 30913 40387
45896 30686 34326
38244 46319 54806
24389 42636 54078
24995 41085 54110
45596 41943 55192
40527 39695 54926
44750 44518 55148
47182 39540 55275
33646 42505 54564
44750 47774 55148
27993 42270 54267
40149 45340 54906
37146 42780 54748
42927 41041 55052
54592 41636 55665
51051 46785 55479
42846 41821 55047
36637 44335 54721
22719 42062 53990
57464 10779 40277
7316 38864 710
39105 10701 54306
15245 10701 53436
21595 10701 53202
29922 10701 53365
15579 40214 395
55218 47304 2476
22745 11449 3636
16747 5887 25601
15803 5695 14070
16053 5700 10068
15562 5675 15410
18171 6975 50645
50588 10736 52574
30152 10658 51496
24016 7464 50982
21112 7423 50827
38723 9253 51862
19470 10154 50905
21822 8030 50901
51370 12647 2273
37839 24564 1562
52210 21208 2317
54208 30484 2422
32149 16675 1263
49318 30123 2165
15887 12179 410
44916 13777 1934
50113 24082 2207
41910 23167 1776
58109 24976 2627
42633 20385 1815
17687 12934 503
43838 12676 1877
51734 30894 2292
39685 24571 1660
55899 18863 2511
36536 20602 1494
33575 17297 1338
38520 22515 1598
23650 15054 817
24186 14178 845
25729 19125 926
57291 32781 2584
55230 30273 2476
21598 12112 710
52794 16334 2348
42205 19036 1792
24930 16588 884
43818 14111 1876
32034 19169 1257
27996 12104 1045
24990 11834 887
46994 25586 2043
29295 18566 1113
52618 20779 2339
56977 27689 2568
42023 14646 1782
20692 12967 661
57818 23729 2612
50130 21328 2208
41397 12545 1749
37952 23826 1568
35126 16967 1421
52987 18724 2358
28322 15931 1062
59225 27857 2686
43493 23701 1860
42003 20221 1781
51952 14386 2304
36187 12804 1476
17825 14103 511
57389 13539 53021
57389 28559 53012
57327 11878 54197
57377 37009 53246
38030 39145 1572
18300 39235 536
56870 19759 55783
6780 38429 39484
15302 6820 38990
13772 12479 38867
12657 16677 39787
14710 9126 40631
13653 12971 39593
15072 7663 38889
8411 32321 38607
10921 23049 38972
53534 49839 4782
14781 13233 3386
12485 26695 3277
14857 15618 3393
16704 9143 3486
16370 10005 3469
13111 25132 3310
8670 37118 12734
5343 49222 13010
5354 49697 11920
4340 52739 13375
12649 21792 14195
7066 43393 11934
9946 31630 14415
6268 45415 13867
42149 47427 52713
33957 45308 52088
49876 49421 52937
45812 48389 54080
36901 46069 52280
34353 20862 51735
55585 11204 52850
31526 17735 51586
47094 12989 52404
40998 29389 52083
25586 15219 51273
30944 15758 51555
38348 25462 51945
48869 11391 52497
49658 12725 52538
36362 20682 51840
40570 17156 52061
36881 27077 51867
47183 21275 52408
44251 20061 52255
44438 12709 52265
47058 16865 52402
46722 11509 52385
55041 29278 52822
43986 14463 52241
43400 20615 52210
41617 17744 52116
27569 17962 51378
38831 16784 51970
37221 11388 51885
35219 24460 51780
47572 23366 52429
33663 16493 51698
24977 12672 51242
54657 36361 52801
25460 12103 51267
34957 21812 51766
48477 16837 52477
52302 21575 52678
40091 18827 52036
52160 17995 52670
52393 16985 52682
36460 21474 51845
21750 15542 51072
53277 34962 52729
45363 25453 52313
54009 36959 52767
36270 25160 51835
44395 28006 52262
38685 23233 51962
23492 13528 51164
55316 14918 52836
12865 11562 50606
25934 17565 51292
52057 32455 52665
55158 47492 55326
59870 30784 5236
59880 17446 5042
59921 14583 4260
59861 25622 5402
39805 28062 1666
22272 20624 745
29089 26458 1103
12563 15036 234
35971 29677 1465
26545 20022 970
30967 28822 1201
38818 34171 1615
23595 34407 815
11156 24320 161
24971 31302 887
40825 34402 1720
46382 31876 2011
22562 25378 760
23004 20826 783
16830 16309 458
23458 18575 807
21850 27395 722
28160 29319 1055
24257 30809 850
49618 34722 2181
21410 37744 700
14914 13898 358
48162 35573 2105
15420 28697 384
19219 19089 584
15082 25870 367
22510 19428 757
16708 34624 452
14309 19899 327
24649 32190 869
12580 26290 235
57337 38426 2587
17340 19646 485
36134 28041 1473
19478 33299 598
21328 36237 695
36249 37438 1479
31516 38161 1231
11950 21717 202
9858 34970 93
15594 16541 395
41386 33529 1749
12789 28694 246
43970 36111 1884
21303 22484 695
35031 30621 1415
46456 32884 2015
34420 30048 1383
49777 35784 2189
29135 22462 1105
26442 24925 963
31051 29554 1206
43078 36679 1838
38419 29728 1593
9480 36610 72
44091 35186 1892
41043 30874 1731
59969 4290 3357
53060 10701 53962
37007 10701 52506
41024 10701 52357
41751 10701 53002
42380 10701 54010
59952 9721 3669
13965 39762 1508
15704 40221 2310
14574 39925 1955
57560 9441 35877
58282 9471 21964
57924 9471 28859
55974 7362 55356
19422 11039 50950
13217 275 50318
50692 50283 55069
56647 29341 53120
57077 18163 52918
9923 26726 37567
10364 25103 36227
10303 25323 37132
8015 33784 37909
10076 26158 38010
11083 22440 36815
15112 7526 36864
7723 34866 38114
9740 27410 36376
19663 7582 3271
39900 8847 4410
17079 6941 3096
17848 9435 3286
19105 6955 3203
25289 10214 3724
44137 10063 4706
30096 10623 4001
15930 8435 3125
28677 8551 3802
55905 49158 5068
59270 45053 2965
59241 33462 3518
59267 30296 3021
56644 43918 53439
59351 36131 5570
30697 43804 4054
35987 40553 4332
23382 40394 3669
48664 40661 4998
55803 41166 5373
28542 42130 3940
33075 43646 4179
49641 43741 5050
52236 40344 5186
53643 41917 5259
46430 46781 4880
54642 45159 5312
53215 45454 5237
50085 47477 5072
48981 47188 5014
32147 44197 4130
47072 46547 4915
34678 41620 4263
26395 40739 3827
42410 46970 4670
769 56091 47202
23141 6800 53467
36523 8358 53296
30887 7704 53691
20158 6450 53218
13255 5331 50692
13584 4460 46372
11740 21324 25465
14601 11251 23463
9208 31140 23487
13483 15489 22988
6596 40764 23524
11312 23425 23293
14855 10088 24390
10233 27388 23366
48928 8369 53595
45161 7930 53571
41826 7546 54345
17440 4699 53431
43581 7746 53749
40053 7334 53422
52937 47063 52711
4549 47577 26685
14899 8921 29318
12329 18601 28182
14435 10462 30391
7680 35945 27108
9412 29586 26880
13541 14177 27867
4834 46434 27243
38191 40434 51936
39428 39529 52001
32186 40741 51621
53489 41874 52740
41215 41929 52095
48382 41944 52472
37704 40018 51911
32555 44148 51640
53390 44591 52735
49938 48968 52554
22707 40272 51123
48539 41274 52480
43819 44596 52232
42836 40107 52180
32114 39440 51617
38979 43716 51978
32555 44723 51640
49469 40213 52529
40990 45910 52083
57291 8500 54881
44304 44071 52257
40156 45576 52040
42012 46466 52137
31597 42311 51590
43496 46092 52215
33452 42525 51687
51170 39487 52618
34425 44006 51738
49639 43773 52538
11580 39486 50538
53063 43344 52718
34945 42239 51766
55477 39804 52845
28780 41199 51442
28444 39269 51423
4548 37629 51628
5611 32871 51610
6936 27009 51278
22437 6441 2960
28625 7199 2417
30180 7390 2471
49048 9730 5017
59157 24896 4753
59169 13899 4521
34188 46136 54057
12872 40619 52218
18800 42156 52901
23132 43283 53714
16455 4576 51905
23161 5364 53023
37223 6999 52637
47746 8225 52708
28278 5952 51717
58003 9390 32252
59038 9485 16315
11028 20407 1995
10556 22447 2331
11729 17460 1182
59876 9211 2726
58013 10091 40997
57962 9884 41982
57400 9658 52813
17212 38845 53701
16295 4662 27041
56514 14754 55642
56519 34619 55557
12541 19102 22543
12480 19850 20890
10660 26112 22293
10134 28457 21009
8173 35649 21129
7954 36155 22071
11991 21852 20256
59146 36776 4966
59244 28925 3097
59209 22864 3753
59209 35584 3772
58250 41196 5501
39620 43018 1656
37379 44015 1538
27446 39634 1016
44480 42302 1911
36314 41261 1482
51585 40023 2284
36425 40397 1488
48747 40707 2136
50104 46874 2207
53305 41372 2376
41360 39966 1747
53465 46346 2383
43141 42870 1842
45903 39472 1986
24546 42399 865
45145 39935 1947
43098 44005 1839
55291 43919 2480
22226 40904 742
48561 43834 2126
43860 42258 1879
19838 10932 53838
48031 11172 2098
38754 46252 1611
40242 19584 54911
48149 22540 55326
46598 27626 55243
20847 11794 53892
47384 29826 55286
48083 19590 55322
55925 20727 55735
46535 27087 55241
42778 11797 55043
41330 28934 54967
23673 11446 54040
36322 24385 54705
39980 22461 54897
52054 36223 55531
12946 12224 53477
53950 22669 55631
29215 21521 54331
49478 23876 55396
38079 26681 54797
50132 15764 55430
43205 29717 55066
40837 14896 54942
36098 16956 54693
33794 12801 54572
36947 25910 54737
41053 19705 54953
37184 18669 54750
52400 30322 55548
51272 13658 55490
53866 24901 55626
35639 14497 54669
48179 16917 55327
46908 28533 55261
36358 18095 54706
42482 12364 55027
29807 16590 54362
55475 38005 55711
40409 23323 54919
48813 17950 55361
48744 15576 55357
50485 23341 55448
27280 19713 54230
41321 17672 54967
49652 25874 55405
37123 25309 54747
21189 14128 53910
45263 12964 55174
42848 24442 55048
38108 22935 54798
18571 14132 53772
54482 34579 55659
37344 8435 4127
40189 8790 3876
16444 6073 1395
19778 6477 1324
15991 5970 2275
25272 7105 1883
42099 38993 55008
24015 39189 54057
12937 12688 39934
13024 8232 48458
14865 8174 13609
12791 16497 34015
14546 10081 15311
14255 10866 19058
12669 12019 46540
13580 10746 32142
13072 16094 29593
14139 9037 25428
13841 9651 29694
12654 17492 34341
14041 10010 25071
11534 21214 47111
12833 13356 40376
13664 13506 24249
13149 11223 39250
12368 18277 37985
13405 9866 37481
15069 7073 12245
11321 22331 48617
12008 16038 49930
13034 13076 37206
13141 7674 47506
14309 6538 27907
13348 11999 33700
12979 16929 29459
14415 6798 25286
15268 7059 8504
14660 8279 17239
15132 6099 13274
14577 9655 15695
12432 15599 42881
11852 18246 47862
12591 11687 48783
14405 6091 27095
13799 6039 38730
11678 21170 44485
38316 10972 2765
47487 10972 3286
58728 10972 4378
2483 56053 9617
11460 9034 53062
44032 39435 1888
55771 46762 54598
14326 4840 31406
14410 11258 345
8206 21010 52591
9011 17354 52792
5936 31071 53045
4204 48980 47160
3066 53250 47363
9608 28949 47306
9877 27776 46540
6246 41667 48347
10459 25852 47577
3466 51992 48370
4756 47046 47668
11782 20730 46659
16529 5755 9422
17310 5888 15016
17067 5831 10950
17555 4535 23640
13594 39674 2821
26001 42876 3210
34609 45098 3511
24585 42503 2606
18212 40843 1295
12582 10871 51615
58899 10156 23935
59759 10294 7363
59517 9923 12034
11628 36743 2938
16696 27697 2813
9680 41114 3021
35555 6839 1611
33240 6327 1506
20574 5197 928
13820 16259 17113
14760 12811 17081
12234 22124 17051
8500 35362 18344
13337 18064 17049
12373 21405 17582
9715 31001 18060
13929 15432 18197
13038 19372 16530
56627 14131 53499
11127 22528 31866
9745 27606 32263
7114 37352 32051
2098 55925 31690
6061 41304 31324
7876 34534 32050
8060 33821 32424
2205 55597 30839
7601 35474 32890
30677 44839 3631
24431 43216 2632
15004 40774 1612
25826 43586 3455
58432 11766 32548
58720 16297 27071
58351 20716 34087
58355 19533 34007
58874 18016 24145
57901 11417 42634
58691 14599 27630
59730 11857 7903
57947 17878 41766
58774 15440 26054
57500 29111 50240
59012 11500 21536
58806 18069 25441
57847 17286 43655
59328 12058 15525
58654 14348 28339
58357 18749 33974
57570 26150 48923
58441 14801 32382
58255 14982 35907
57929 25412 42096
58569 18048 29951
57673 14436 46954
57816 11154 44243
57713 19939 46197
57739 11361 45706
58996 16444 21827
57921 12233 42256
57413 18919 51900
58933 15929 23028
57385 13126 52432
57425 22932 51683
58387 14049 33397
57976 16752 41213
57771 23502 45096
57506 15518 50129
58018 21475 40411
56511 10972 4115
51566 10972 2668
48071 10972 3355
21658 10972 988
11443 18758 1110
12077 15558 2634
11967 16357 1327
26758 11441 3847
8870 22931 42532
1494 51452 36094
6591 30770 45395
4524 41355 30690
1256 54116 27221
7321 30808 31790
4199 44548 20784
6174 35885 27608
3181 44173 41341
9127 21139 46740
4052 40233 44946
4554 40983 31977
11819 11466 45430
929 54276 32427
3068 43981 44367
435 52996 47862
7446 27809 44407
3131 47074 27805
6103 35190 32365
5431 37031 35528
5966 36309 29312
10887 14948 45224
8916 23079 40959
5038 38911 33414
4135 44249 23436
8706 24051 39967
3234 45678 32867
3486 43455 39306
3450 49783 8478
1961 54081 14429
5670 36293 34809
3940 41618 40116
1886 47607 48021
7656 28293 38161
4051 43596 28223
3423 46380 25915
3995 45862 17984
2561 53282 7407
1716 52588 26355
4129 42781 30855
9504 21397 38527
9962 19540 39352
4753 39598 35219
7859 27572 38011
3664 46405 21359
5217 41718 16171
3371 41735 49974
2661 47523 34201
3365 42270 47406
2866 49227 21955
10687 14991 48664
10115 18648 40989
7040 33210 25004
11121 13258 49315
3623 41152 48248
6430 32392 40282
2782 52530 7101
10103 18089 43980
2866 46329 36386
9263 22979 35082
7341 29327 38787
2219 51249 23796
985 54971 27933
8566 25685 34430
10423 16567 45683
6953 30940 37900
3683 48211 12027
0 55062 45580
8320 25577 39474
3483 41711 48033
7687 28676 35687
4473 39220 42245
4981 36080 48539
1266 49602 49467
5328 40012 22601
6483 33182 35386
11629 11454 48974
7560 28059 41069
1627 52733 27287
814 52530 43216
4301 43486 24192
5385 40845 17424
2055 55054 7861
3684 46535 20356
5784 39154 18499
5183 35207 49180
1164 51184 43500
3587 46414 22738
2142 52400 19488
523 54337 39576
2006 49146 38156
2559 52272 12467
3728 46002 22193
1254 52281 36377
2728 44411 48470
1595 51222 35369
2641 52153 11559
3288 45097 34774
2939 47525 29093
3415 44129 37233
38405 47067 54814
37461 46836 54765
49172 49236 52708
43446 47777 53888
19810 41653 51328
25472 43114 51528
40292 46948 52677
2232 56118 19630
20458 5653 3798
27833 6587 4135
40348 10486 4570
27192 18854 3877
25222 21099 3773
27236 6845 3879
44209 11058 4773
41713 9588 4641
15100 14703 3240
37383 9874 4415
14947 22007 3232
33651 11037 4217
40343 12496 4570
19800 13889 3488
28233 17898 3932
28334 10190 3937
17369 24313 3360
34861 12359 4281
34447 8847 4260
40760 11006 4591
38102 17166 4451
21389 13497 3571
15195 11307 3246
54972 11254 5340
37324 17963 4410
45219 10988 4826
18396 20710 3414
33225 18037 4195
20114 14698 3505
37171 13336 4402
20973 20961 3551
22790 6361 3645
19011 19174 3446
26356 16351 3833
33569 17407 4213
16933 9891 3337
59233 19003 3662
59152 11078 5206
59185 26574 4577
59218 47190 2961
38298 6963 4082
41570 7365 4065
36528 6743 3765
14647 8531 306
18128 4744 14570
17818 4949 19986
56514 45288 54782
51517 10022 3201
25957 6866 1662
39045 8487 3246
37452 8285 2270
36579 8182 2973
49288 11181 2165
43512 39164 1860
42806 39194 1823
30311 38759 54388
59939 29299 3919
59997 19650 2817
59883 41972 4977
59957 28588 3582
59887 38985 4916
33407 28462 51681
49623 29797 52535
53025 31467 52713
939 55881 28047
717 55882 32596
1769 56101 27712
54994 47704 54397
55400 41910 55707
59509 41350 2702
15753 5253 3585
39991 47056 52021
59239 12520 3193
56789 8164 52902
31802 39377 4112
15534 39180 3257
6323 37507 16807
14688 8033 9828
7983 30635 20506
5304 43040 7998
9836 21286 32982
13339 12449 12628
8822 26659 24879
10619 20649 21772
11067 19824 17657
4483 45234 12161
13958 7916 23812
11992 14019 29540
14499 6720 19816
9869 24604 15877
12259 15692 16328
7583 35287 4713
11612 14216 35540
12115 18461 5196
3300 51344 3465
7644 33528 12345
10063 20976 30357
11031 18828 23266
11874 13656 33508
11716 16366 22942
10818 19876 21964
11836 11626 44321
9484 27130 10376
5392 41236 15338
13699 11871 8885
14330 10269 5279
8330 29887 17864
13085 11023 24379
13025 14007 10645
8453 30894 10589
6602 38056 8959
11374 16434 28879
13038 8307 38744
6193 40610 3751
9880 25027 13578
12515 9939 40240
8625 30989 6966
14873 5484 19107
6957 34260 21315
15001 5315 17592
4291 46791 7931
8780 30303 7533
11597 17257 20687
5711 42182 4790
11440 18734 16228
12993 9394 34165
10219 24645 9243
11704 14827 30820
6211 38349 14660
13525 10992 16463
5065 42644 14323
12206 13093 30229
12493 12017 30302
4683 44777 10759
11628 13466 38990
9873 22171 27908
10768 17758 33414
10790 17193 35829
11140 16522 32743
9618 27043 8365
13722 11418 10699
10719 21678 14818
5901 38815 18043
11358 16337 29670
7556 32750 17831
11976 15984 20063
9697 26129 11445
10108 21188 28488
9236 29064 5328
10130 22187 23093
7865 29810 26781
12181 14468 23851
11655 15138 30178
7723 33831 9394
6855 35687 16063
12825 10858 29954
7080 34974 15501
11087 21250 10201
7205 34469 15716
7170 34411 16657
14027 6545 29342
12482 17018 5646
12713 11407 29295
8644 31236 5390
13472 6941 37553
9462 26275 15043
12666 15984 7403
12955 7172 45911
7648 32225 18738
10980 19131 22711
11384 14186 39877
11797 18157 12550
51695 47608 55511
53863 44952 55626
25574 38765 918
20619 10799 52243
24973 10713 53906
41448 10757 54028
17206 10763 52657
13610 10723 53131
12200 18541 32144
7326 36473 33099
6510 39481 33255
8820 30980 32752
11180 22123 34351
12134 18641 33809
10053 26460 32329
11503 21105 32291
15235 7176 33849
25440 19785 911
27132 29347 1000
34915 33710 1410
16180 23978 424
25621 37967 921
39650 30596 1657
21222 35565 689
43073 33141 1837
13029 34081 260
32216 31111 1267
43677 32065 1870
19236 16274 585
21180 30131 687
34067 33948 1365
13257 23572 271
17789 16773 510
13704 21589 295
30432 36728 1173
34287 36150 1376
35656 36619 1448
39967 36749 1675
45076 37364 1943
37478 26568 1543
29070 25531 1102
18425 15871 542
11859 27935 197
43457 30575 1857
21909 32883 726
27360 33157 1012
34018 24499 1361
51792 35652 2295
15790 22580 405
47276 36569 2058
46735 38702 2031
49954 37751 2199
13702 14126 295
17689 33387 505
13760 23296 297
11931 26937 201
37471 29591 1543
8085 36649 0
48354 33172 2115
23888 29892 829
18739 32243 560
39725 38217 1661
14342 37507 328
21537 23645 706
8528 33857 22
21443 24470 701
18379 28845 540
56975 5709 55790
16183 5930 43680
7162 26169 50550
5990 31139 51756
10165 12733 50467
32710 39072 4160
37970 39421 4436
8065 41706 8184
11718 27130 10287
9031 37544 9298
9993 33629 9994
10974 30342 9415
7450 42592 10683
8275 40895 8263
7630 41844 10838
9404 35706 10151
27929 29269 51397
24678 21378 51226
16994 20497 50823
18793 34609 50917
33563 31187 51692
11129 19416 50514
16887 27048 50817
31104 38165 51564
28247 33648 51414
40726 38234 52069
8894 31238 50397
35556 31848 51798
45804 34970 52336
11120 33828 50514
22960 27060 51136
17037 34670 50825
15869 26277 50764
25490 25894 51269
22727 34260 51123
51581 37157 52640
16236 29731 50782
15454 14594 50742
37071 34115 51877
40255 34764 52045
14400 14084 50686
27226 33840 51360
20552 26974 51010
31655 30788 51593
13562 26715 50642
15620 23337 50750
21530 27022 51061
11196 25449 50518
48017 36803 52453
13300 35198 50629
48459 38646 52476
18149 18138 50882
15999 34366 50770
17436 22808 50846
42222 36012 52148
46115 38212 52353
22092 29132 51091
40805 35239 52074
18263 20144 50889
50312 37224 52572
13058 18239 50616
42426 30850 52158
30522 27052 51533
16247 23563 50784
22242 23921 51098
33313 32926 51680
33465 29346 51688
14060 27755 50668
17268 16331 50837
9577 33753 50432
56906 43512 52908
25355 43338 3785
7148 37797 45906
15251 7340 43187
6905 38726 46122
3121 52743 46010
8623 32336 45981
15710 5970 45422
6524 39992 45128
15404 6838 43636
35966 30450 51819
40900 30680 52078
30745 30381 51545
54896 38746 52813
8354 37015 50368
52442 38343 52685
33062 36923 51667
33628 35440 51697
26876 34857 51342
20641 32742 51014
25511 31304 51270
21733 20277 51072
28976 33920 51452
31248 26948 51572
26475 21429 51321
26031 35680 51297
22919 38166 51134
30411 24135 51528
45405 33690 52315
9759 16948 50442
47005 36689 52399
6508 29284 50272
13153 37904 50621
29074 25515 51457
21268 25334 51047
15300 17843 50734
24295 24401 51206
40114 29506 52037
9889 19781 50448
47137 34986 52406
18177 26974 50885
31176 32522 51568
10955 12311 50505
9737 33165 50441
23537 38099 51167
12992 25363 50612
16680 31898 50806
16419 21145 50792
33752 30041 51703
20300 29560 50996
25504 23135 51270
9147 19579 50410
25707 32816 51280
13707 14641 50650
11115 24220 50514
12658 21105 50595
14194 24469 50676
13537 23162 50641
31126 28434 51565
53396 38205 52735
25955 37503 51294
17224 40602 2248
31069 44179 3000
15400 40120 1362
23598 42247 2493
56548 30017 55337
56571 28503 54892
56615 19037 54059
16778 4455 25846
15437 4279 24216
15970 4343 23946
14920 26452 13402
14405 26404 17996
15203 26736 37660
13412 26517 48598
14226 26510 32464
59861 8946 5405
7409 38165 2755
7007 38062 29371
7359 36690 29834
6591 39438 30363
3171 52173 29722
3564 51155 27047
7738 35230 30194
8490 32666 28881
5492 43808 28449
6211 46872 2957
9049 31159 3093
4491 47848 2865
11507 25051 3221
8694 33920 3077
5038 50777 2898
7076 44027 3001
53951 10463 3487
50773 10101 3130
54875 10624 2552
57365 7398 53481
50240 9952 52679
58898 23059 5535
37512 15276 4412
57089 30800 5441
56492 36263 5409
49769 32261 5056
57131 28512 5442
42714 13896 4685
41310 25605 4611
27304 15848 3876
43244 22511 4713
32193 15085 4132
58166 30022 5497
40018 13611 4543
57034 16518 5437
44374 12950 4772
38977 25129 4490
48756 16424 5002
32181 20806 4132
39677 18523 4525
25088 18869 3760
51372 17068 5140
29077 18373 3968
40713 25563 4581
47816 30542 4953
22860 15811 3642
56934 13284 5432
36848 19504 4377
43655 18702 4734
34810 13534 4270
55159 24732 5339
38223 19093 4449
36565 20866 4362
38515 11802 4465
55669 25721 5365
33023 13575 4176
19116 11684 3446
54504 22276 5305
54650 32969 5312
40816 18521 4585
46005 25029 4858
57162 31460 5445
42282 26022 4662
28639 14193 3945
55999 32029 5383
36760 13934 4372
58491 34068 5514
36627 22607 4365
58231 28680 5500
50832 20586 5111
45807 26924 4847
26434 43387 53361
13445 40018 51712
48603 49125 55271
33614 45251 54423
23434 42599 52238
50567 10827 53352
52570 10773 54356
11337 12689 50416
4299 41327 50066
2166 48089 49957
1711 55144 49941
6679 35992 50190
2863 48293 49996
17555 41204 53718
9591 39020 51317
12692 18457 31405
12443 22261 27463
11545 23900 40779
12332 24555 24323
13035 26028 7611
13745 21862 3640
14616 10368 13306
11503 24501 40202
11929 23895 33491
12261 21653 32296
14677 13633 4715
11100 25297 46028
13366 22515 9357
13947 18671 7071
13447 23651 5206
12444 21729 28650
14077 16513 9538
12256 22435 30618
13218 24919 6680
14022 16557 10481
11424 24787 41044
12590 19191 31676
12206 26072 23267
13361 23600 6973
14821 12849 3769
13745 21092 5396
13248 20400 16418
11665 24217 37781
12562 19050 32521
13558 18612 14609
13215 19018 20198
14563 10543 13936
12032 23057 33454
12623 22975 22409
14357 15722 6040
13860 19409 7045
11580 24199 39432
13533 22940 5203
13313 24959 4773
13118 18535 23149
13791 16563 14873
7740 38898 49124
11663 29773 44066
6729 41865 45688
8087 42424 15251
8615 37141 45833
6302 42741 47127
8484 39327 31492
9022 36939 39569
8727 36420 49263
9893 33871 46483
8240 40497 27177
8336 40452 25670
10944 32869 34004
6480 43753 35912
11053 31200 44789
7425 39666 49261
8411 38938 35914
8194 38876 40563
10593 33214 38095
10078 35628 29375
7184 42404 32770
8638 40629 18491
9502 37130 28869
10385 34112 35169
10139 35362 30244
9764 36259 30539
9661 37933 19606
8620 41903 8989
8405 39289 33312
10001 35331 33141
7889 39781 39437
6694 43618 32825
6394 42445 47647
8249 38298 43964
8723 39597 24826
7463 42054 30112
6877 41328 46964
8526 19775 51752
8155 21106 53162
7569 23853 52636
13330 2803 53196
52505 49731 5132
48869 48766 3105
48192 48590 2972
47209 48327 2278
46531 8462 52293
48833 9017 52430
12857 874 53172
36579 38854 54717
59899 6259 4675
26185 6642 53959
37656 7990 54643
51151 50261 54493
16198 36606 3292
14878 30871 3222
34396 28787 4248
28959 26620 3962
26288 28825 3822
47162 33632 4920
13348 19642 3142
49357 34274 5034
27817 38259 3902
10326 28533 2983
13985 14632 3175
46169 35676 4867
12650 23730 3105
47449 33148 4934
31273 35374 4085
19549 38408 3468
12566 22446 3101
20321 33284 3508
34760 38691 4267
31704 30816 4107
24909 35356 3749
31349 31526 4088
13209 34364 3135
24006 31896 3702
20171 20148 3500
31463 29969 4095
12056 35521 3075
25477 38181 3779
21767 19437 3585
31773 25481 4110
25253 27270 3768
21812 25751 3587
45856 34009 4850
9992 31016 2966
56123 38371 5389
33845 34688 4220
15767 16954 3269
13511 21332 3151
19901 22054 3486
33037 26891 4177
38636 37977 4471
19278 32252 3455
17181 20428 3343
18000 29059 3386
49981 38627 5067
11688 19210 3055
11123 32407 3025
14413 28051 3198
9149 29231 2922
15217 33166 3240
25884 35892 3801
34372 30529 4247
57356 36630 53651
57243 39664 55803
57258 43075 55518
57295 30049 54803
14798 5311 21431
27352 5615 3951
10378 38213 2986
53182 45445 52724
59170 9550 4976
22272 38286 51100
15911 5540 22712
35340 8049 51093
16622 5600 18526
24482 6659 37084
30009 7233 22941
30267 7267 23533
46284 9352 49729
53334 10187 48197
22939 6455 34267
32849 7724 47092
19519 5924 14746
44715 9108 40761
16088 5617 31376
29947 7212 20935
17004 5581 8297
22282 6258 15206
21667 6298 33307
20198 5986 11690
33449 7710 33394
43028 8887 37868
27765 6953 21276
22083 6399 41406
15340 5575 39005
18969 6084 50862
23738 6555 34822
16145 5689 41776
24605 6611 27124
31689 7545 40514
40155 8540 37501
14333 5499 45997
47600 9523 51776
24424 6617 31498
18404 5829 20922
44992 9155 43059
43510 8949 38577
50707 9887 50571
51060 9939 52163
20123 6078 27782
39747 8575 50763
36531 8160 46068
25558 6750 31158
31094 7483 42020
40834 8629 38780
22595 6272 11581
44193 9098 49213
30384 7268 21383
23479 6597 46335
14802 5407 22438
40478 8597 40284
35157 7983 44209
20972 6112 17002
22243 6474 50355
29026 7168 31327
29345 7291 44820
17594 5792 30541
19555 6028 30683
28774 7130 30344
20438 6041 15984
19159 6002 33973
17462 5857 43292
20084 6061 25784
15880 5690 46917
35885 8005 33737
27937 7129 46015
17950 5845 32305
30773 7332 24170
39885 8575 48218
15892 5515 19019
16589 5715 37360
54129 10294 50093
17343 5865 46876
19599 5975 21312
16979 5650 19853
36887 8177 42042
20224 6180 42082
51905 10038 51669
22936 6375 21451
44976 9192 49181
53171 10196 52671
34341 7832 35711
15966 5672 42360
37704 8254 38697
21510 6352 44915
20167 5974 10441
17415 5709 20694
16332 5614 26188
14587 5548 48980
10946 21014 988
9312 28508 255
10188 24440 865
13724 4230 47599
15375 4324 31367
15312 4296 27887
22934 8130 593
20325 10898 622
25658 8616 766
35917 9518 1360
46737 10724 1999
43088 9449 1731
23225 9226 674
35328 11121 1424
27214 7253 51143
24110 5986 50958
30539 7580 51341
45004 47783 3237
39819 46449 3388
43892 47494 3040
46773 48260 4787
51025 49551 53582
58761 30999 15848
59011 10933 14475
58904 10895 20786
58018 43003 5489
12637 2083 52944
10026 39601 52368
28992 42783 3965
29489 40251 3990
47950 46347 4961
49541 48059 5045
18805 40158 3430
48792 45363 5004
26506 39832 3833
39462 40388 4515
46449 40867 4881
19047 39629 3441
38735 42872 4476
26485 42023 3832
42210 42723 4658
52789 47175 5214
27447 42994 3883
43923 43643 4748
43797 42990 4742
40806 45610 4585
20788 24034 3540
11540 26642 46096
43130 30411 43297
24558 28112 31804
22398 27829 27925
12823 26804 47339
32540 29165 46956
31081 28856 25643
19403 27475 28751
24217 28130 41129
22274 27834 31059
26378 28257 20078
12927 26681 25903
44843 30655 49386
21543 27725 27689
42076 30289 44019
16983 27124 19021
36041 29562 43364
36895 29693 48030
51921 31511 50678
31927 29022 35987
23218 28073 51119
32548 29177 48728
44857 30671 51701
19774 27617 44129
15165 27020 37157
18358 27407 37873
33888 29291 41354
26837 28378 30613
21935 27910 49612
38002 29847 51291
39573 30020 48916
15215 27058 42164
45323 30677 43733
14732 26924 30047
28887 28667 37532
18181 27340 30538
44236 30596 51653
13097 26683 23006
18049 27243 17650
22687 27937 39558
26854 28366 28330
27292 28541 47761
48737 31139 52153
16227 26961 7485
27169 28427 31998
46197 30802 47048
27488 28448 29320
21674 27723 24786
16342 27181 40192
43545 30492 48286
30520 28856 36379
18677 27295 13964
15950 27093 33771
28958 28753 49826
14806 27002 41059
45930 30777 48102
13215 26651 15683
24761 28044 16979
21249 27834 50609
21957 27769 26748
24984 28234 43009
13812 26760 21569
16123 27025 19646
17100 27120 16150
28395 28641 42756
15458 26887 10449
30366 28868 41229
37292 29646 33006
14612 26970 39639
14360 26766 12014
23349 27893 19985
44825 30644 48017
20056 27565 30570
25130 28154 27508
20016 27553 29341
13929 26916 44072
32825 29121 34649
32554 29134 41819
25331 28128 19591
40521 30128 48010
41586 30249 47001
40803 30154 46743
14296 26843 25528
29306 28804 51225
23800 28072 39852
42559 30383 49779
56617 19485 53677
56586 36546 54271
56635 34171 53339
56642 32157 53210
18395 5675 7282
8374 36839 53236
17744 18700 53728
6114 35012 53118
21117 36661 53906
29752 33646 54360
44712 35078 55146
11983 25819 53426
8481 34685 53241
51371 37435 55495
28900 30418 54315
20899 21592 53894
16544 17428 53666
42672 33757 55038
9694 34438 53306
15312 35872 53601
16220 30387 53649
11212 26647 53385
17813 31632 53732
19915 19877 53843
17548 34839 53717
16894 36499 53683
14945 17951 53582
5725 34412 53096
16582 21947 53667
21992 25031 53951
19760 25723 53833
19903 18626 53842
14984 24421 53583
47677 36859 55301
19140 37720 53801
18140 16534 53749
12370 35162 53446
41672 38329 54986
34237 27613 54595
19116 27146 53801
19602 35265 53826
8199 30210 53227
40080 29520 54902
13732 37383 53517
30478 35312 54398
13930 28684 53528
11280 20976 53389
35764 30024 54675
20241 37496 53860
35641 33759 54669
14327 22844 53549
12943 19722 53476
33522 45068 4213
935 56082 43128
12494 7576 53265
16247 4269 7398
16676 4318 6694
10454 37954 4192
13354 28931 18022
12958 31307 7313
12216 32715 10721
12210 29073 38935
12920 29122 24895
14380 27362 10362
14965 26640 4720
9861 38682 9992
11580 33845 14252
12488 28052 41463
9387 39920 9561
8989 40720 11032
11365 35286 7247
9036 40821 9360
12563 31800 11098
12249 33400 4800
12514 30692 20595
12848 30238 17678
11858 34157 6475
12459 31885 12457
11201 32610 31057
10481 36679 13507
13997 27305 18187
12251 30926 23846
11248 35792 5600
11515 32458 26169
10130 37924 10672
11845 29959 39116
13525 28161 20647
9461 39168 13935
11071 36404 4283
13105 27357 34964
13624 29570 7912
10534 37654 4987
55343 46446 52838
30057 10972 2492
23900 10972 3280
29257 10972 3935
20961 10972 2647
57464 35824 5460
57739 18895 5475
30688 19390 4053
51259 34449 5134
22314 13982 3613
55229 23261 5342
47638 12149 4945
43879 23743 4746
33025 19320 4176
45189 30789 4815
48859 14064 5008
46389 16334 4878
29010 12638 3965
31136 13117 4077
31999 18881 4122
25042 16512 3757
42975 16921 4700
36549 23295 4361
36628 12973 4365
46858 31747 4903
45333 22536 4823
34084 22447 4232
38835 15841 4481
58941 20277 5537
49415 26114 5037
58916 30078 5536
39362 12158 4509
51096 33648 5125
47801 26422 4952
54782 30374 5320
41467 16290 4620
25897 13416 3801
53414 11359 5247
45627 19379 4838
35513 14613 4307
34758 11791 4267
48613 13481 4995
26131 17265 3815
43887 24694 4746
15515 11974 3256
46064 25868 4861
52857 22196 5218
16981 12284 3333
41705 12587 4632
14549 5365 37082
16134 5472 12906
15903 5461 16766
59761 2368 3811
11325 29389 8804
11686 28682 7681
9172 38098 7360
12032 26473 9385
12422 24961 9528
17050 8578 8411
8941 38797 7624
56532 2257 55647
39192 8664 52518
29631 7552 52743
26217 7150 52055
22797 6749 51647
29191 11041 2826
27743 10973 3873
23239 11073 1972
38009 10978 4340
17270 11137 591
21594 42859 51722
38035 47117 53322
35940 46575 53111
43928 48623 52399
47007 49451 54981
38734 47289 52736
13649 23345 4657
13897 23139 3530
14827 19664 3636
4507 56103 5907
7716 45018 4815
7098 47649 4235
9173 39567 4976
15683 4302 1939
15875 27596 37136
13121 37229 15789
13901 36012 10165
16167 28475 24730
15064 32063 18267
15661 28803 31931
16579 27023 28016
12766 38527 12607
15199 29003 39271
14631 33730 13745
13857 36734 5460
16821 29664 2985
11215 43473 4286
11301 43358 3510
16048 30404 12135
14385 32287 29592
17156 28071 8834
15307 30701 24109
15307 30950 22176
15126 30394 29945
13360 35383 25444
16901 27060 21532
14012 33065 30779
12971 37739 14740
15010 29064 42452
13712 35468 18004
12179 41122 3885
16141 27799 30453
12677 39920 3576
16546 29404 10280
15930 28986 25349
14727 33748 11748
17279 27617 9963
15745 32067 5137
13205 37673 10725
13488 36990 10582
14437 32641 25869
16574 5385 42536
37316 10972 4115
21041 10972 1018
25771 10972 2022
19667 10972 1081
41068 10972 4065
29415 6499 54151
38860 7543 54714
59132 13033 5217
59130 35474 5267
59139 13844 5092
5498 43112 36379
2450 54395 35175
2003 56051 35712
2123 55596 37046
8047 33680 35807
6568 39158 35655
6818 38232 35217
2049 55867 37875
4761 45832 37449
42048 9139 52522
29939 7740 51520
40176 8923 52374
55580 10634 54948
48676 9914 52915
45697 13040 52331
33915 23047 51712
38036 24269 51928
54271 20918 52781
44220 21853 52253
24360 18607 51210
28412 16604 51422
38393 15856 51947
45821 17823 52337
48679 24455 52487
35938 25713 51817
41100 17455 52088
34692 12763 51752
50972 24610 52608
24247 15854 51203
40633 17960 52065
50882 14361 52603
48988 21027 52504
29978 13553 51505
21792 13980 51075
50872 26668 52603
32286 12984 51626
14222 12171 50677
45549 18740 52322
45289 32247 52308
14426 11477 50688
29186 21429 51462
32927 14389 51660
45819 23493 52337
42053 18871 52138
27176 14240 51358
42807 15590 52178
46684 13859 52383
41548 11289 52113
50341 34230 52575
31491 15621 51583
33945 14379 51713
40842 13341 52076
31838 19042 51602
32590 15638 51642
52871 22361 52708
29420 17761 51475
41732 26655 52122
38477 19926 51951
43977 24617 52240
53727 11007 52753
43988 29094 52241
51260 19773 52622
47594 13580 52430
8142 34957 49798
12085 20435 50306
9393 30336 49902
14702 10682 50152
12672 17963 49023
14413 11647 49672
12757 17315 47556
15002 8947 47410
5975 42875 49238
50294 18340 52570
47260 14656 52410
48781 25545 52490
42293 25346 52149
44526 23846 52266
56717 23561 52907
54706 26923 52802
31336 21100 51572
43882 23205 52232
23795 26704 51175
42225 16421 52145
47802 16715 52438
21772 24261 51068
41389 24633 52101
51462 16946 52631
35860 18479 51810
54974 17256 52816
51661 20935 52642
56637 13543 52904
46170 18480 52353
28578 21506 51426
26737 24607 51330
50758 29636 52594
30862 22796 51547
19653 24050 50956
55543 21984 52846
32054 28192 51608
56395 19713 52891
38718 21542 51960
55107 19715 52822
37784 28573 51911
32489 22899 51632
24952 26038 51236
33372 24898 51678
30082 26361 51506
43555 18337 52215
13332 12259 50526
14960 5890 50607
7104 37625 50216
20955 39037 51031
25327 39163 51261
3121 54035 21846
6668 41825 19136
2911 55132 20830
3669 52662 19816
3799 52340 19314
4264 50777 18852
6583 41514 21112
52051 49389 52883
37874 8163 1715
50446 9206 2288
56626 46674 55711
