ply
format ascii 1.0
element vertex 2718
property float x
property float y
property float z
end_header
46123 3285 43008
37463 7518 46948
37237 3662 37110
33107 7514 37135
24519 7322 50632
23112 6196 65379
14146 6170 22997
16436 5123 26811
20886 6965 35824
20396 13 43162
38731 6851 47543
10193 7002 37369
33834 3024 49227
7035 7969 43527
16332 1287 53674
25472 7419 47891
21361 7039 52076
16803 3859 32093
42938 3132 44692
24001 3973 29780
24444 3891 30096
11444 5086 54118
10212 6382 7830
12107 6190 10355
25500 4643 27774
21192 6436 18789
13702 4117 33393
11885 4565 33214
32636 7236 34470
26279 7501 38204
24912 7396 53879
42149 4555 46665
14581 6346 41695
20581 7092 43718
14901 4465 54817
35606 3042 37459
41184 7929 44213
14158 5897 18609
17211 3543 52424
25525 6752 25504
30588 3770 32189
7411 7247 42176
13230 6562 37091
18745 6758 57185
10601 6287 73764
11912 6128 71629
20377 3494 53631
8324 4971 48971
9152 5096 51248
16067 6438 27635
19018 6771 28011
12466 6121 17840
18571 5690 18204
17862 6345 49514
17193 3147 46316
15337 5329 59305
3241 6998 43354
35378 3056 48389
20736 6930 57494
30729 7906 45985
15811 4231 54472
12931 5922 33070
40627 4148 47183
19148 6809 38237
31369 7137 32475
10097 5430 54030
24547 6469 62572
35005 8311 43329
35689 4294 50857
7180 5143 45443
14523 3584 48498
30598 4391 54756
14725 7926 50550
10797 9509 42555
7632 8468 41737
13271 8128 44305
16650 4640 56829
18362 3896 30592
9234 9715 37148
29038 2212 44679
35204 7383 48391
19127 4440 57088
41226 4106 46840
25224 6204 62572
20776 5591 30592
19265 5215 30592
18912 1186 32055
18777 3759 44196
36874 2513 40167
8354 5353 45105
32980 6831 33377
32360 2717 48395
23247 6552 22172
19668 5731 41909
15052 3687 50704
14317 3737 50042
21023 3534 53994
20057 6821 27101
13501 6396 49384
24060 7293 34105
19664 2827 32014
18003 1130 42685
20878 126 31542
14114 7502 49732
27205 4365 56588
26406 4331 56674
16386 6502 39116
4250 9653 42851
18084 5671 18797
8230 6792 2040
14761 6162 11105
20511 2752 45788
13224 4879 30586
5626 7148 42341
4173 7054 36819
9936 4553 42104
42139 5041 38930
12413 3982 40953
13306 4110 51581
12026 4424 51832
8993 6917 37294
19264 6669 25578
18135 3016 46338
5071 7229 44105
1568 9363 43180
11987 5533 56788
29425 7762 38465
31076 7290 51987
29069 7474 51796
19990 2850 55799
18249 1609 31907
39129 4094 48002
14866 6236 62395
27926 2236 42276
16587 6477 52356
13634 6097 31092
11657 8112 36892
20591 5731 55706
17886 6727 44798
10339 5596 47243
12102 7084 42986
14150 5495 59040
38504 3511 47457
1514 7924 49364
12154 8912 44286
6882 9717 36589
41812 6249 39151
25554 3378 53637
26569 3194 52886
23320 4927 59510
28194 2367 46813
16590 379 53341
5838 6896 80868
8654 6543 76020
11985 6132 69914
27201 7732 42076
12629 5905 48616
21554 7074 52895
26960 2434 38219
24570 2552 37357
9695 6433 78502
8878 6513 79561
18888 587 31329
27905 7651 38647
9361 6877 49957
10167 4440 46522
20526 6393 68252
15415 5694 64113
25248 5749 23427
12564 6324 42876
19694 6901 53769
22795 7253 45442
9516 6429 74707
8736 9227 42079
41663 5944 38881
20486 5394 22839
21824 5332 23912
34075 7384 48820
7134 9616 42540
38278 6324 37277
26680 6702 26225
12225 5860 54601
11288 5624 33501
29948 2502 47786
19548 679 32104
29088 7187 55036
25890 7445 31953
18345 847 54862
27345 6903 27593
42438 478 43639
28084 7420 32374
23221 2586 47949
14361 9159 49277
3870 9305 845
12547 6414 70703
11840 6466 71723
28564 6921 56874
15770 7370 36270
8710 4944 36207
8131 5046 36522
38576 2422 44282
3195 8887 84786
18081 6751 55394
40587 7962 41415
10871 7181 36559
10849 5231 31608
3824 7409 49493
20449 5648 65991
13149 7357 49894
19837 5731 53111
8707 6355 49993
15400 4927 28417
19924 2911 52776
33866 7517 48219
17335 682 32050
26571 7488 35495
21470 3892 31910
17769 6487 18120
13210 7705 42445
36610 4998 35150
24240 7276 49096
19197 2179 31965
12723 6875 10671
21007 3845 55277
18850 439 32889
10246 6437 6696
16064 6433 53483
16328 4630 30592
13987 3753 43417
12197 5971 41059
9905 5398 51047
10754 5524 52038
8935 5540 43486
33694 2665 47505
42290 7121 45537
15250 6986 49559
21534 2901 35107
15790 3951 41567
8454 9704 37174
18003 5726 68677
16831 1222 31088
26978 7531 48264
19097 5731 32933
18189 5731 32412
46177 3910 41605
38491 7945 40716
18715 1150 32420
6794 7821 48346
14939 6255 37290
21830 4169 42655
21382 4304 52776
18527 4825 52776
25364 2364 40527
15906 3340 47063
16272 508 53870
15820 6413 53966
8971 7623 35455
20816 7035 45875
15506 5690 21361
37323 4622 49809
41037 3192 39977
9501 5325 34735
5707 9718 42909
35166 4583 34068
19731 687 53480
13566 9181 37687
4245 8860 84795
27587 3092 52401
27974 3084 52279
14708 5855 15638
10507 6337 8587
9873 6395 7859
28672 7532 51187
21470 4000 43334
16297 6166 12179
9807 4530 46788
12948 6045 66166
42779 3767 45667
20989 858 41703
4033 7087 49989
37805 7251 47531
15837 5437 60729
12494 5921 30657
21913 2597 40294
12452 5597 28000
16112 6503 40563
13791 6121 54530
24766 6244 22579
20126 6978 30455
15271 6823 12111
9464 7302 3672
22526 7139 48244
6272 6803 83762
10483 6359 77626
19838 1060 41847
8123 7526 1386
44272 6302 40353
6946 7322 49586
38612 6415 48083
7799 5369 42388
14549 6183 49942
15101 6260 50989
13926 3670 46024
21136 6491 65961
19297 6852 39067
23164 7207 34301
19952 3651 31511
14968 8641 35853
11634 9085 35579
14773 3607 42442
6411 7299 2338
11941 5841 47496
18258 6700 47808
45668 7441 43246
8888 6486 78062
15366 5781 67414
12846 5992 61711
22470 3558 31347
23254 3564 31249
18019 5202 60504
14791 6269 57767
36460 5250 34993
27230 7564 37745
15097 5565 24718
25645 7440 33431
29762 7173 31179
13338 5654 59167
22319 6685 62037
12366 5901 29358
14510 6206 25705
44850 4553 45340
31296 2322 39715
16570 6533 56388
18129 5315 24401
15986 5189 55799
19853 6946 55042
29915 2658 49084
30210 2904 50420
31803 5621 30619
13091 5947 52537
17114 6586 38785
13971 6688 72312
20770 2773 37351
16631 530 32670
18878 6517 15285
46028 7392 42808
5595 7926 48369
17620 4534 56891
22814 4978 25849
9067 8276 38209
11966 7126 48947
13440 5944 69086
10159 6341 73871
3909 8187 37685
28086 4370 29410
12696 6040 16774
10935 6263 13916
7497 6689 7706
18834 6775 32779
9302 6978 78241
5787 7312 83931
18267 1277 32958
31110 8048 42104
19377 6091 70203
8840 5313 37840
42544 2857 41495
11663 5976 49480
15386 3511 36140
14426 3679 36016
5810 7459 1321
19143 6187 70642
32670 3234 50800
13927 7096 50019
19959 6940 29805
22647 3107 33090
23816 5679 22158
30300 2180 41610
26624 3887 30453
22809 7218 55649
12799 6027 39802
20154 6882 49585
20426 6910 49317
30522 2194 40763
35218 7249 36713
8819 6075 42868
16499 5525 23517
20948 486 53271
22650 5292 24239
26164 7598 44320
16977 6410 21178
16970 6417 23814
20291 5705 18933
41267 6860 39384
6261 9071 50844
17575 6676 40134
18938 6543 62721
23191 5505 62990
12143 5856 28793
26893 2334 45861
17235 6610 28736
2488 9560 43051
13679 6903 10874
14861 6284 27123
13384 5953 69607
12060 6119 72753
12963 6006 70637
43721 2964 42020
38958 2897 39579
12352 9425 42655
43778 7346 41041
15571 3398 38914
13167 6215 17460
24326 7363 55310
1960 8916 49759
16881 6401 65302
15303 4313 54458
21138 5329 23817
15683 6394 38602
26178 2348 39835
15577 6306 24168
19954 2844 37078
20131 6549 20108
28976 7382 52905
22336 6625 22594
835 9032 42952
18488 3387 52445
2134 8959 42493
10306 6396 36467
2070 7704 36963
23376 5472 23090
12460 3984 48651
28090 7440 53044
36984 2611 45997
24769 7064 27430
1872 7233 42618
16966 972 54983
13101 9462 50330
23372 7280 54985
41378 6245 38941
20206 3741 41173
19002 5354 41173
19882 4642 41173
18605 4313 56425
14955 9446 36884
12775 5982 58176
26367 7045 28009
25230 2683 49874
13773 8269 44263
24023 6787 25080
14966 6722 9651
13191 5976 70012
9069 6464 77363
35513 5763 51357
10250 7154 35878
8938 6979 7120
18449 6362 71566
9486 9375 50676
8696 7249 44165
22136 7275 42444
25877 5875 23853
26508 2628 36142
27250 2594 36529
19650 6502 18741
20753 5731 55286
16831 5731 54530
22105 6874 25782
18199 3264 55799
33402 8087 40501
17983 4730 27825
19784 6307 15905
15298 6397 45318
4099 8735 35574
14971 6254 63444
14286 6176 61961
18902 6659 59777
21470 3742 53147
13515 6021 34675
13319 5995 35715
13633 3743 45009
37423 3033 47130
15566 3410 40740
20353 2796 55799
36144 5650 50864
14470 5854 66209
32162 7511 48918
21925 3601 54435
12921 9410 35997
14941 6789 72853
31447 7968 39927
14282 3700 42511
40614 4200 38431
19635 4625 27732
8469 7567 48412
20920 7048 30961
26691 6473 60104
13862 7335 42749
17198 632 43060
24637 2436 39559
13663 7640 43871
19001 6587 61170
36193 2715 46794
29647 3621 53532
17062 6533 68892
13657 6828 73965
17965 5355 61453
11898 6307 77125
12596 6212 75804
25203 7416 38404
6270 7093 43981
9255 9104 35523
15066 3476 40097
13001 3871 37030
11830 7114 6728
16439 6735 13445
18763 2636 54068
13729 3807 42702
33245 2622 47428
15790 5705 53541
12154 5818 32254
29886 2239 40263
28762 2216 43711
20862 5976 68230
18432 5467 63485
11773 8505 38124
36253 8326 43613
18728 5731 43318
16968 5731 42986
21039 870 43088
27636 3756 31124
28322 3561 31926
22005 7237 41944
12589 5648 58052
12842 6016 22600
2429 7815 50595
12669 6115 37192
17463 6429 66761
31854 3179 34592
29463 7594 49735
17237 381 32468
39077 5244 37153
43691 4499 45873
20445 5535 20987
1958 8642 42219
21638 7029 49039
17478 3095 46797
32827 2175 44062
14904 6264 65714
6957 6778 78640
27126 7532 50400
16209 6464 53843
31985 2919 35905
29952 2961 34801
19421 5131 44196
20634 5519 44196
18037 5624 44196
34633 6024 51928
5917 8754 41810
8389 6920 7199
18848 4318 52776
32159 5917 31048
33822 7896 46437
27942 7669 39074
7144 9740 49641
31511 6893 31909
38419 8111 41401
23897 2463 40425
31072 7742 37764
30448 5631 29180
21397 6070 17951
26730 3837 55026
3340 7139 42533
22516 6654 62501
15766 8004 50447
13947 5890 16741
5971 6825 3270
8919 6479 8310
35257 7806 46456
12600 5490 28357
33165 2166 42169
26766 7562 38783
7399 8070 44619
17189 6439 24077
16137 6400 35897
17261 6552 35687
5818 7874 1188
25061 7355 35999
73 7864 42801
19169 3099 31968
23173 6827 60545
29227 2815 35360
29932 2741 36097
16800 3979 54094
19543 6863 52964
12986 6019 59064
19093 3583 32071
18459 4662 27907
13042 6649 72507
12239 6675 73298
14464 6435 69458
34100 2257 40771
42516 2951 41141
20960 5456 63542
17624 3997 54617
13832 6256 43718
21089 2757 48455
6650 7348 2071
20280 617 54268
18098 5442 22977
15235 5790 18231
21470 4210 30963
2865 9594 639
10257 6637 4512
13931 6182 65917
35022 6226 51279
14579 6216 22147
9339 9356 42216
37776 4454 36383
12561 3946 40447
15855 4707 29060
15444 5075 27718
20909 5658 19755
19908 538 43621
14293 8804 43658
20220 6634 24045
10574 7187 50574
20374 2606 31918
20889 126 41904
20621 5472 63816
8411 6843 49694
15370 9177 49288
18822 2272 31969
5948 7018 36271
11440 6312 77182
12526 6093 42301
24188 7287 56150
14333 7649 43261
15575 3520 35756
33801 2289 40467
12357 8034 43197
1726 11380 85588
22895 2531 45354
11017 5876 42283
21176 3612 42552
13439 5789 60690
22208 7172 39462
17254 5697 18019
17891 6572 59704
36900 2774 46680
13241 6059 26763
18972 1271 43582
22352 4736 27041
14247 6273 41263
36223 2267 44240
25227 4742 58276
26853 4385 56765
14905 5821 67295
23445 3207 53040
33594 4083 52160
33386 6992 51548
17642 5115 25929
13108 5982 32013
18988 2983 42887
21110 2686 46013
20605 7001 54034
10827 7466 50831
26157 3997 55676
21897 4465 32179
30866 5164 29866
17473 6549 59390
14855 5636 61266
13143 6212 68198
9238 4719 43404
15340 6760 13326
16209 6693 14510
23828 5134 60361
16015 6209 73945
32251 3944 52829
15944 3346 48008
37373 8285 43625
13620 5165 56814
8279 5371 41290
21476 7045 29024
13592 5880 62048
12838 6019 63270
21331 2662 46327
25456 2369 45641
41045 7696 45159
19608 3323 33615
40565 4413 47372
21904 7125 53764
31637 2202 44869
27291 2992 52069
19772 949 31451
19502 2913 49037
18931 5578 65468
30330 7507 35264
28822 7469 33613
17695 3605 30592
23180 7192 50099
42828 151 42499
7915 6909 36343
14328 6209 65328
10991 6952 50126
35970 7649 38790
2900 9922 621
21043 7063 39968
22506 2551 40529
32330 2626 37821
43848 3541 40776
14591 7137 36620
24400 6801 25328
19287 6801 37428
17346 3126 37808
14658 8958 37447
19708 6629 24435
4823 8255 41770
12697 6718 79057
20277 4859 59148
16713 6398 62888
33181 2805 37090
31627 8048 41507
39046 7298 46855
16062 6393 26006
19537 6581 23278
11444 5525 56028
47263 5392 44156
19589 6863 32922
16831 3194 47020
9419 7239 4949
19978 2825 37754
18101 2962 33615
28752 3851 54532
9506 7111 79386
12147 4083 43726
12349 5844 50112
12410 5856 49355
26043 5608 60974
29500 7310 53236
31711 4357 31710
19695 6826 36449
19840 6875 33793
18558 6738 47655
32986 7421 36519
32452 7301 34891
32900 6463 53076
18770 3226 55799
28808 4699 56588
8501 4835 45017
15653 6411 31035
16584 6556 30540
19643 6568 63993
15310 8746 48664
21244 4758 26982
17724 6645 57340
24006 6349 21934
14037 4268 53234
19634 6845 51305
18869 6737 49503
43199 7979 42513
9120 6562 4890
10087 5746 42986
30150 4828 29790
35070 4049 34736
5217 8129 48355
16651 6522 38663
23825 7363 40750
14048 6105 50727
13973 6100 48987
20166 2811 48242
18850 6765 28334
45672 6751 41426
29176 6326 28166
23395 6641 62061
17488 6440 20469
12606 6083 73092
16538 4005 31641
40765 3628 39166
21356 2649 33615
34595 8181 41119
31546 2524 38123
14412 9139 36265
44148 4115 40248
38449 2334 42904
14466 5622 24926
7964 6860 43031
20588 3460 32108
17203 6566 33265
37689 7941 45195
25702 3013 52314
25743 3184 52923
22681 5201 24672
21661 6413 19266
27635 7666 39690
28050 2406 47306
40840 7091 46247
11273 4347 49867
13302 3870 49419
21454 3706 30868
16675 5498 23871
13784 5732 24989
22237 2569 45168
11673 4124 44708
11171 9591 50285
36132 2633 46424
7142 9042 35513
10222 6282 43646
12277 5924 59623
13273 5990 36263
13738 6060 35929
44053 7834 42080
43322 5950 45981
16182 6505 55476
7883 9138 37930
35055 2537 39361
34318 2436 39655
20160 6964 54431
4197 7530 35761
18391 866 42685
5088 7414 48691
17083 5597 64904
36119 5510 34746
26656 7542 47213
27038 6516 26071
11097 8256 51104
10851 4633 51204
20038 5249 30592
16667 5639 30592
30034 6089 56834
23279 7198 37075
47540 4144 43499
20838 2864 44196
5396 8362 38094
15335 3435 46136
7823 6566 37156
14394 6234 29609
28655 7716 46833
2251 11013 85470
45438 6947 44173
29078 2288 39788
15790 4963 53135
28519 7585 35207
12580 5914 37454
4734 8895 84803
24499 2906 33898
28285 5489 27074
2936 8962 49244
2737 7236 42477
26986 6933 27580
25041 5277 60617
39573 3094 39446
21645 6774 24862
36045 2247 41544
8591 5233 37096
31263 3114 34507
19478 3602 42730
18153 6733 46187
3486 9259 851
19796 2132 42766
21704 5541 21450
17886 6627 36033
19102 3848 54706
29489 4112 54861
9791 7249 50687
11116 8441 44510
33317 2858 48836
24237 7322 52494
19314 3803 31950
18806 5387 62223
24413 7301 35842
6772 7988 1334
20964 5731 53692
9676 7138 48811
11651 5712 32674
7086 7816 38083
14598 3619 41904
7528 8994 50946
28387 7291 31165
17221 6638 29807
16611 6388 23848
15702 6322 19923
31292 2711 36848
30161 6635 55793
40965 5075 47320
25064 5475 61347
14150 3633 48124
8013 7417 83786
10130 7247 81030
24704 2441 46572
14283 6221 18920
21399 6682 61919
16225 6412 67641
13660 5421 27594
13236 5221 28983
21054 3219 32968
26186 6201 61344
12589 6475 78327
31545 4467 54248
23429 6485 63894
13971 8180 44013
23850 2572 48352
0 8634 43645
44639 3079 42551
15906 4456 55519
27316 2436 38089
32589 6473 53400
12326 5941 39264
15357 6295 60873
12548 6861 74962
10715 7012 77625
31931 7287 51325
33723 7321 49582
41778 6886 39653
18174 3743 31852
5668 9722 43420
10980 5606 31836
10680 7807 43137
3146 8986 928
38466 2354 42158
12885 5978 54603
46224 6086 41107
4755 7729 37913
17769 6062 49744
4376 9168 42099
18214 668 32990
13616 4467 31974
18049 1023 32497
27880 6768 27682
39692 8163 43609
14182 6180 26420
29131 7643 48720
20879 4966 41173
20548 4243 41173
21203 3529 41173
18725 5266 61151
19634 5130 25074
12504 6000 40373
18722 6744 48050
31682 7946 39564
21310 7054 47144
12937 5880 24941
20709 4093 56161
11440 5933 43039
19063 5419 62967
19355 5454 63597
28174 5429 58559
26371 7482 50861
16847 892 32782
8290 8436 51127
10914 7190 5350
10477 7227 4684
13979 6947 9463
27211 5468 59534
10839 6871 36715
15046 6322 46747
26637 2309 40285
15928 4228 52776
21706 4039 54103
25767 3472 53956
12730 8999 50837
9641 5570 40796
25116 7503 41342
5826 6856 82143
19388 1952 41173
16775 806 54221
25249 3093 33026
24515 3131 32822
40310 6016 47407
36837 2438 45126
40989 2703 41008
27189 7523 48935
16622 6640 42163
4416 7284 50433
17540 3124 37149
17760 3294 50895
18335 3084 49402
24856 6064 63205
7392 7959 48279
36023 6817 49427
16176 6734 13813
22702 5605 21491
34198 2562 38915
34579 8028 40079
22532 7213 39731
30671 2794 36086
31304 2155 44379
37207 4216 49518
20779 2850 36191
20461 2972 35170
15573 7421 50282
35119 2230 41380
11199 8890 48383
33019 8175 43757
38738 2434 41356
15790 4885 30872
6125 9634 42608
12203 5877 30098
29838 7799 47016
8941 4745 38892
3987 8651 37707
9904 8790 44495
10764 5574 35507
10681 5568 35987
16723 4164 55799
24815 6839 25804
25032 6752 25260
25735 2350 41745
21223 7032 33206
21294 2732 43068
39666 7752 40280
21137 3293 55799
18915 6799 46934
21470 4046 42999
12787 6134 43258
19077 6961 42904
12539 6434 14785
5931 7145 3241
12806 6358 15667
14558 6256 30807
19650 1831 54238
21138 2737 43612
17500 6521 25558
11841 4103 48258
12591 7789 42452
29732 3427 52961
9528 5595 41582
16167 6072 73001
24946 7396 47180
16195 5726 66600
3511 9767 583
15719 8447 35907
4899 7019 3172
30509 5373 56347
15045 6273 20537
19734 2896 42605
16280 6311 43024
20304 3712 31152
16156 6352 62659
44404 3128 43658
43884 3067 43887
17916 5731 41280
6413 9277 37765
16397 6716 14119
22756 2569 39316
21582 2663 38747
20323 5071 60349
7953 6923 6808
9586 6724 9872
7012 7030 5115
24270 4537 27865
24936 4190 29111
15774 5605 62346
9895 6993 50299
45321 4898 40500
20078 6582 21240
22246 6480 20390
11740 5759 31451
25012 4836 58638
24775 4896 58986
29495 3595 32142
13703 6905 74809
13425 6948 75483
33621 2193 44103
19858 751 54154
17112 6425 22937
6608 8329 1091
12567 6608 6752
28086 2780 35295
28593 2823 35076
17649 6628 52714
10860 6744 4549
9130 7192 35810
7031 7023 84205
8200 5393 43917
14105 5638 25359
19401 4172 31967
21563 7101 46337
11457 5708 54294
9577 8870 51019
34354 2780 47921
26916 7515 34441
43188 1935 42929
15573 3577 35199
15308 4406 30807
13954 6161 30725
19384 4489 32025
18552 607 32211
17279 6633 29425
27516 7325 30759
17544 4424 29279
18787 2989 48946
20395 4990 55799
20358 4645 55799
40519 8168 42532
934 7803 42590
17204 5719 68744
11188 8323 48248
14756 5948 71959
12396 6163 74954
8958 6552 80545
23251 2499 44183
17427 6456 61580
24847 7441 40138
10989 5480 30437
1011 8614 49545
11421 6691 50109
9196 5268 50912
17215 6540 48942
9564 4626 37499
15058 6658 71354
8463 8654 38167
22515 7122 56796
31144 7254 33343
13387 6025 53579
31558 3002 35259
30517 3030 34660
5807 7111 43055
10666 6932 43528
11680 6468 6750
20827 7067 44519
10616 5609 37619
26036 4715 27640
22476 3996 55989
38863 3120 39049
9407 4673 48371
17249 3985 54365
29015 7651 37112
36835 8164 44432
19453 5360 62122
3250 9262 49031
29159 7562 50410
7345 7472 43624
23987 7377 44952
22300 7213 44800
8094 4937 41213
8745 7471 49532
14975 6287 66935
17535 5821 69951
16407 5959 71820
17538 5867 70413
48255 6040 43014
33216 6385 32807
35900 8065 45142
17682 5731 53672
16658 5731 53928
18890 6697 59079
17587 5696 67809
17853 6453 19724
17606 6764 43372
4715 9258 44221
7246 9003 44470
16222 4519 52776
13394 6101 21798
13971 3649 38732
10895 4264 39690
7215 6695 6382
11075 6230 13267
6823 6742 5495
25650 7408 35834
29861 2558 37365
6526 8184 41732
24257 4681 58268
28211 6387 27181
33826 7819 46838
23330 2506 41818
20365 1022 41945
22354 2671 37144
11939 8853 48406
25906 6579 25005
29266 7864 41478
11598 7531 43122
42471 2678 42337
36455 8063 45048
10239 6708 81572
21127 7034 32645
36369 2236 43550
18380 4728 55799
12507 6967 49861
16132 3553 51253
15613 3659 51421
4325 6991 43183
15900 3502 33615
9564 7170 79929
23408 7130 28067
21470 4269 41890
14492 6203 32308
19027 5731 32286
33154 4563 53229
5233 9406 48916
24888 3677 30895
12348 9576 50173
4519 9672 84951
28412 4669 28865
5752 6919 1507
7336 5244 41625
9471 6468 6483
8177 6605 4575
18562 3037 42185
35992 7506 38198
28138 3205 52629
26512 3537 54105
19554 6789 58346
12431 6102 12289
5911 6831 1998
20431 2039 44196
15019 7563 50271
15479 6359 67525
36485 7965 40219
11493 4154 40603
29403 2227 45043
11739 4151 49051
12288 4216 50540
21470 4989 41927
29655 5162 28795
20646 2822 49089
21863 2777 49509
23995 3874 30118
16502 6374 19179
5362 7409 1496
25431 2898 51726
26192 2681 49970
16854 770 54540
18431 4456 42563
7031 7417 83995
882 11666 0
13189 6017 19262
5695 7053 43900
24501 7356 30150
9519 8052 43361
1089 7945 36724
20537 5731 32060
18534 5731 31980
30475 7906 40183
954 8599 36631
8635 6991 37367
14853 6319 30288
12947 6318 49370
21229 2759 48761
12985 5981 23416
13399 5912 23520
21301 7020 34730
28109 2579 48856
17032 5025 58671
29673 2404 38692
23879 7004 58944
22247 4170 29061
13892 6947 76057
10086 7256 81440
14038 6929 75575
22302 3299 53290
13032 7238 42721
30106 6942 30495
32466 2155 43623
23248 7356 43840
19494 6985 43511
30293 7382 33954
31098 7467 35501
35709 2216 42436
30746 7575 49260
1183 7635 42706
15150 5784 66102
5127 8801 84628
18618 3227 34320
17866 5630 19603
19762 5362 23446
25655 4165 29347
24573 7405 39796
21470 2869 41411
15642 6512 69476
13832 6635 71851
24323 2577 48578
23109 7355 42058
32406 7929 46540
18805 6504 65599
16340 6453 26806
16469 6553 40818
15226 6304 25896
13842 6148 63542
13486 6123 64893
14715 6269 47035
24403 2635 49256
44984 3639 41233
41994 7217 40102
15223 5933 71823
13400 6172 75153
10328 6458 79299
31625 8071 43814
10484 4603 35412
10116 4777 34881
13402 5623 26684
13378 9120 43688
17794 4687 57597
17247 5731 43598
19411 5731 44034
14361 9185 49780
18990 3814 31137
20304 6840 58565
2348 8113 36750
12882 5907 33940
13191 8165 49727
36791 2274 43858
17828 926 32104
26047 6901 58818
45405 6548 41058
10547 5488 52378
34570 7290 36512
11750 7127 79390
12591 8450 43516
9473 5500 39562
18126 1357 54220
16417 5366 52776
10692 4389 42621
27255 2465 47970
23720 7297 31704
13399 5959 17294
15897 5731 32635
19451 5731 33400
16064 956 53654
7874 5060 48435
29288 5308 28212
16266 5473 61294
21470 4115 31385
32239 7693 47935
12278 5849 53718
45307 7292 43826
24217 7303 48010
13120 4346 32968
16690 5162 59400
9492 9337 37790
14788 6214 33482
42069 7716 44764
16850 11 32590
25378 4891 58791
13245 9538 49239
10828 5720 39479
16340 6468 38242
21926 5775 65991
6634 9276 48643
6958 7067 36029
19137 3528 53382
16798 6576 30870
18891 543 54861
23158 7292 40357
38018 4999 49288
16359 1121 33008
4403 7206 37189
41776 7813 41132
26179 7464 53152
15324 5929 49684
10283 5113 32733
19697 6976 41556
9459 8029 49958
16301 6507 30844
1740 9256 42798
24911 6689 60927
45765 3552 41974
2170 7634 42493
8919 9185 44314
24527 6873 59750
1619 7437 43425
19068 5706 67649
40520 3122 45820
20627 7010 31330
3244 7949 48660
1801 10748 85401
21218 7001 35537
23849 2456 44355
15959 5743 19035
16578 6485 58743
46492 6752 43735
36128 4941 50924
10790 5970 43519
48066 5923 43518
34842 4155 34372
28709 5000 57311
30517 4139 31329
29850 6531 29322
15752 6396 58609
23742 6354 64060
14232 6908 10616
1133 9703 42375
19075 1564 42603
12343 7069 78069
17931 6610 69969
39479 4956 37420
38407 2613 40211
15691 6433 39765
9498 7249 44131
28491 3151 33298
2500 10369 465
21915 2642 43841
32922 5842 31789
11330 5655 32538
9951 5617 40644
12991 6178 42913
22367 5451 22752
18666 3072 35977
15054 7226 50032
14773 5225 27564
14358 3652 43938
14251 5797 62772
14802 5708 61999
15790 4818 31590
12605 4324 33564
12804 4246 33871
29487 6697 56431
32603 2869 49211
28022 2962 51685
29317 2931 50954
21176 6590 21334
39949 7608 45809
15570 6469 16589
3961 8429 50636
26957 2248 44535
27067 7419 31589
19558 2904 42089
23059 7237 46761
23076 5573 22046
29108 2207 41704
17705 3094 48163
18260 2757 44196
14574 3550 46225
18331 6632 26323
11507 7206 48803
8560 9309 35681
12790 6956 7006
8460 7053 50432
15054 4222 31800
25949 6666 60322
16004 6339 24031
21232 6467 19397
12301 8188 38106
12892 7147 49000
21121 2644 41173
19114 6550 22611
22067 7142 31826
23019 3799 55312
16006 6102 73333
28522 7776 40922
16964 5721 16976
12033 9385 50536
23685 4861 26541
18017 5534 64440
21235 7084 55489
29947 7418 51634
31218 7399 50758
15826 5137 27219
19229 1380 31962
29563 2246 45395
33413 4843 32359
11495 7527 50851
32005 6247 31256
32840 8001 45946
12170 4041 37176
13188 7633 49619
18456 6522 18009
14916 6659 49430
7985 8669 38159
25301 3895 55512
20748 7036 45541
11308 4197 47827
15812 5850 15079
16435 5784 16020
16787 0 43201
23556 6819 25154
34474 4959 52396
31294 5908 55497
31285 7881 38968
26771 4928 58337
16249 5752 16586
12568 6175 10474
16091 5828 15376
24722 7433 45413
47410 4033 42445
24777 7330 49659
18174 1288 31392
12652 5947 38136
17782 4171 55442
20230 2787 47543
18875 2207 41173
25931 3114 33012
25572 7403 37091
12850 6063 20675
20657 6946 35295
15291 9063 37560
12037 7291 43357
35183 6562 35012
869 11390 85606
17592 4255 30592
10793 5616 48628
30381 7775 47562
20680 5137 60746
2881 9006 50924
17629 3124 44289
18996 1226 53807
22118 3089 52451
10592 8028 49896
25679 7501 45947
15331 7214 36619
16900 4937 27442
16003 6447 56663
23562 3881 55608
41823 6762 46091
14655 3542 45259
9817 6830 3191
24108 4534 57802
22498 7134 29088
23915 7321 30982
10999 4256 41142
14533 6341 9744
21408 2407 52776
23638 7232 35711
22362 5493 63378
27126 2562 48912
20349 6937 47543
38308 3270 47172
28281 2342 39212
37131 3189 38006
15178 6305 59464
22369 6776 24604
40639 3228 39724
9447 7659 36637
12336 5906 47334
11153 5790 45740
14272 6235 75480
8867 6867 43146
33099 2919 36443
21090 331 31230
10760 6979 8391
27492 6348 59436
39319 7543 46235
13269 7861 36848
24365 7480 43618
25920 7439 54308
18569 3689 54247
25182 7458 39728
20514 6257 68781
15817 8719 36323
27830 7566 49826
32811 8105 41003
15790 5232 54691
10547 6419 72430
10290 6433 72771
9560 4641 37093
21054 6601 64174
14316 5059 28669
26036 7640 42246
33453 3532 51109
10691 5675 46763
19830 6868 57118
22806 2907 51379
23264 2706 49663
28135 2229 42833
29374 2344 39155
18524 6482 66193
12589 5942 57688
38360 5842 48777
10828 6288 9398
15449 5803 16121
7278 7253 37307
18131 5609 19877
35502 4832 51448
19784 4928 52776
19496 4655 52776
3652 8695 48856
10786 4286 46317
11979 4053 46099
1771 9939 550
32851 3483 51404
18816 5731 31393
16506 6463 48401
8843 5248 49430
9379 5336 49779
18313 6752 39463
22765 6791 24742
20935 2774 37065
34079 3764 51145
17880 3047 38980
33459 8245 42594
11909 4666 52909
25541 5807 62097
18237 1477 42797
15651 6311 22148
24112 2581 37097
15228 8208 48730
36019 6170 50445
22800 2669 36572
19515 3118 34369
8059 9449 50571
17057 5035 26904
13316 5999 71836
15197 5786 68805
14846 5833 69626
21019 2696 40348
17458 784 53786
15285 6357 28458
10228 6542 5345
15418 6059 12415
13299 6282 9274
11534 6223 36438
4361 7893 35545
14842 9033 36127
10045 5455 35929
11943 6958 9347
22275 7137 29464
26338 6741 59676
15126 6321 57847
1390 11268 85523
43584 3592 40588
13042 6026 72114
10804 6279 75716
16346 5018 52776
14945 6236 51394
24077 3066 33113
42690 5107 39193
20819 7106 41780
14352 6487 70045
15768 9194 49111
36700 7821 39702
43805 3141 41521
18629 3256 51689
18895 3104 50332
19022 4137 29805
21196 740 43566
41716 3706 46122
17480 6447 64257
13699 6085 48141
28169 7155 29761
29241 7573 35466
2357 8364 49931
16102 5731 43071
20391 5731 44182
13756 5885 63791
19282 403 32902
24478 5272 60841
12630 6927 6619
14883 6249 25478
10004 6693 37260
10887 5757 40194
9256 9595 42574
15826 6423 36962
11013 7164 4927
25124 2586 36692
23320 2631 36675
11790 7885 41973
12708 5982 25294
5855 6995 4333
5412 7012 3750
15790 4516 42365
31187 2270 40143
17826 3937 31201
28671 2408 47196
30382 2459 47311
19240 4479 28390
18932 4319 29111
14658 7899 35635
43747 6486 40259
22295 6981 58635
7596 5051 39780
35246 7463 37698
3381 8939 44362
33381 6913 33950
25334 7573 42161
15472 6306 66025
18101 6691 56990
23301 5746 64411
25526 2381 42948
3778 9018 48684
17454 4566 33615
16671 5560 33615
22451 6733 61456
13927 6472 70187
18240 107 54803
14464 6237 66755
8563 9649 43710
19323 6918 44347
17621 5707 17353
2335 8316 41927
26465 5485 25400
33192 7343 49779
35787 8334 43408
7534 5061 40375
17798 6446 13268
28571 7495 33844
14588 3554 37882
9028 4779 48633
24111 2487 46811
24420 2470 47050
15892 4743 56799
7197 5170 40749
18196 6672 34756
18942 6766 33957
14385 6271 45317
41298 2672 41345
21374 7087 54465
2411 9172 84853
6636 7380 48611
18442 5423 23060
13897 6134 24857
34638 2346 45398
3878 9296 49954
12292 4043 41697
28121 7030 56765
22977 6973 26500
28672 7246 54754
17459 3893 54078
19942 1133 31162
12762 8847 42397
32037 2155 41680
35920 4752 34600
30752 7827 38578
14380 5852 17202
30390 6638 55522
18837 6541 62336
1402 10816 85420
38283 3433 38220
20642 3074 52776
9385 5323 35306
3786 8547 41851
18279 662 41916
10066 6507 5713
13283 6213 9980
24740 7396 46613
17692 6699 40497
19395 2412 52776
42380 6712 39800
21814 4412 57450
21211 682 32910
9829 7990 44554
7749 6812 84056
27005 5653 60222
10477 7209 80087
32360 6712 53249
28106 7471 33154
25943 5707 24283
36035 2224 43293
14326 3588 38897
18404 1959 32109
24071 2640 36430
24077 2767 35279
31042 4896 30370
25612 7530 44714
13117 5537 58065
11639 6186 69746
33297 5095 32129
33222 3712 33970
9426 6477 79365
10825 6322 77101
19318 6980 42530
24285 4410 57362
25840 2359 43438
19044 824 32443
6033 6873 5245
9343 6459 10978
18969 2919 45111
19486 1613 42524
22207 5103 25147
32316 8170 42731
4056 7754 48839
11094 6413 71908
11013 6308 71103
9718 6489 73734
15883 6518 36479
18276 2833 52776
1069 8880 42610
16953 6613 55307
21179 2681 39046
21767 2633 39353
9046 8876 35407
15321 3690 34461
23778 2889 51439
23536 2869 51200
9767 7451 44296
15048 9184 50049
13492 6481 42904
14884 6781 75916
7930 4997 43988
33851 8080 40221
17308 3409 51537
5580 6741 43112
20418 2822 43331
20799 2964 41173
19315 5731 30770
20984 5731 30955
21885 7066 37080
39162 8251 43244
25240 2392 43628
7789 7193 36597
18379 6525 24064
28097 2230 41849
12228 5363 29409
27139 7530 35075
17397 6512 68313
27295 6081 25586
26501 7486 52374
17644 6676 45910
21830 7081 33946
13506 6319 36438
15578 6342 48327
13599 6100 25728
9148 4961 35340
618 9623 42834
25798 7495 39226
6708 9732 42865
41438 4560 38648
14128 6161 61431
47981 6122 42314
15117 6294 18788
25753 7429 50733
13206 6719 43404
21016 6365 67632
17748 3059 39331
12532 5865 52899
8276 6567 79945
10724 6295 76232
28187 7576 35487
18758 2962 44183
12469 8894 42100
41380 2566 43586
27053 7413 54187
11670 4332 35239
41049 7178 39617
37449 8324 42366
6164 7499 44386
5585 6979 84175
20545 6762 25606
17063 58 53720
27921 2947 34041
9883 7276 82115
6225 6757 37039
24671 7361 33037
19642 6571 21904
3620 7873 41909
17067 4476 52776
19321 4017 30592
24829 2424 42588
20552 6129 16833
12951 9020 48550
21470 4684 54949
18584 3581 33615
14067 7978 36759
4968 6982 2731
23788 7123 27850
15482 6683 71383
17819 6464 64527
20127 6874 36549
19350 6788 36392
7480 6151 43306
30364 2512 37891
15603 7675 37403
21281 2665 39475
24249 3737 55048
28033 7579 36339
43123 1098 43666
25828 6223 23930
21166 3492 32228
11084 4729 52255
10246 4823 51375
10563 4768 51614
34987 2692 38517
20122 4143 56202
26166 7293 56018
15719 6348 35331
17261 6549 36162
38209 3801 48154
39749 2429 43340
20799 3463 53634
33986 8206 44084
27485 7315 55052
13828 6159 46451
14431 6225 58159
23036 7182 50405
2534 8800 49117
22343 6562 64022
43324 7424 40927
22846 4920 59515
19484 4310 42564
19353 6542 64783
21090 5201 24536
13909 6250 41652
19972 2812 39728
8576 8370 44628
27045 6159 60349
39407 8269 42879
27541 7540 51275
20334 26 41808
14489 6695 13586
14419 6660 13915
40675 2545 41641
16144 6399 49443
16062 6395 50404
14947 3520 36968
16462 3826 44196
9259 6236 37210
35647 3424 49146
31727 3641 33118
16384 5386 24899
20090 1319 55011
18655 5537 20908
9561 7039 7015
19216 6816 47447
38615 4917 36863
14641 5768 21866
14031 5845 22023
27382 7375 31205
19262 6520 16049
9853 7350 37169
31422 3409 52204
10042 5194 52995
16807 5421 44196
20783 3518 44196
19899 3733 44196
7262 7949 51071
18906 6763 51831
26261 7680 42672
14639 8868 35696
29020 3972 54759
21425 4909 55799
45229 3226 42893
7511 5072 45879
8215 4902 45785
9004 8438 48227
18988 1526 32273
1958 10464 422
21430 3728 54377
5629 6905 4002
18331 5220 60742
16809 615 42695
10465 6318 9377
9858 6373 8927
12261 7359 37017
14021 3922 51327
13311 4025 50822
24109 6177 64105
18960 5520 64564
20728 6951 37120
18473 6508 63711
25548 2375 46023
33296 3526 34460
28072 7775 41601
21775 6994 27819
17495 3296 35078
18090 3112 36275
20802 2749 47868
12364 5936 25850
24620 7347 55666
18759 2526 42857
14667 3553 44577
17666 5271 24893
12497 5919 57209
12645 5903 36923
13829 6130 60329
22065 6887 59686
29869 4086 31076
8443 7989 36740
28071 7708 45767
9122 5484 44947
9173 5395 47263
7603 5145 46899
17540 3194 42750
14802 5825 66390
28219 5043 27935
15823 8747 50066
24920 7125 57710
32857 7723 38105
20438 1429 53657
8405 6910 42780
38931 8112 41574
7563 7331 2861
16845 6484 59582
11365 6984 36247
28479 7675 47558
8238 4912 46587
9723 6385 9588
9751 6387 9251
7675 6627 5986
39195 7658 39774
19091 5544 20709
12519 3948 46266
10963 4253 46780
43060 7861 43852
16884 6398 66371
10589 5691 45928
27730 7379 31575
33664 7382 36655
31415 7347 34546
32445 3223 34776
39022 2383 43331
14587 5744 23295
15282 5640 23917
17679 3658 53178
14744 6221 24211
10797 7177 49490
30078 7922 41388
14488 6226 31465
915 8218 49965
7917 6605 78601
18350 408 43086
20633 267 54615
17252 6692 43925
19692 2841 40942
17377 6676 72097
17162 834 32470
12986 6761 50009
20241 3280 32972
8177 7386 83044
17711 2684 33615
32489 2949 49708
30438 3146 51694
5798 9159 48609
19738 812 32716
39140 3687 38286
7819 6969 6310
9517 6790 9243
20843 5113 25036
6519 6763 81670
10270 6326 75770
20481 6930 37346
15630 5119 58257
6122 7195 82673
8108 6940 78872
14748 5802 65446
13271 6373 50056
10178 7092 78773
5152 9236 42107
11080 9735 36699
8657 6869 36965
43430 2821 43096
28084 4654 28733
20621 4309 56960
22529 7129 49981
39391 2399 42606
9651 7312 37816
10475 6631 80950
11416 5016 53802
18457 6479 19442
18743 776 42548
6933 6998 1468
26777 2259 41103
5523 7694 84256
12670 5883 51030
12653 5873 51453
14063 5757 61348
45714 3157 43388
26229 7468 35002
34298 5662 33114
16541 6383 64371
22520 6301 19849
10577 8108 36785
12224 6560 79064
20767 6657 61716
16245 8233 49096
16119 5735 67638
19322 609 42684
10564 7508 42079
32413 4734 54042
13189 6909 75086
14548 6769 72830
36524 2418 40538
40758 7906 44455
33994 7881 39184
2009 8784 36337
4831 7067 43713
6026 7163 37517
15790 4310 32503
26490 7475 32381
34272 7242 35897
20662 2743 33615
15737 7329 37118
3772 7514 84278
36205 2411 45202
8066 5265 39534
5796 9077 50808
16257 6363 20255
21434 3427 42685
22200 2909 51205
21386 2964 51132
29660 6752 29550
25105 6423 62053
9604 8045 51110
23377 2519 42846
20209 6902 48248
21010 2968 34806
14732 9226 37017
39407 5163 48312
10995 5607 50545
10136 5480 49251
8883 9307 50744
26745 7504 50264
21284 4190 56594
17837 5982 71171
13037 5929 33443
14361 7449 37047
19680 6409 69542
13304 7226 43530
33042 3724 51863
24179 2466 43201
25819 2356 39854
18636 5731 53908
11415 5122 31432
13546 6957 43061
11759 4093 47294
17524 3129 48629
5186 7255 35928
22774 7184 47567
12090 7088 78374
11271 7154 79444
17765 3099 41296
9917 4566 43129
5409 9007 41929
14474 6464 15924
10317 6883 9050
15093 6440 16571
15530 3439 44239
13386 5083 29485
30294 7908 40652
11904 9552 42903
7596 6943 37280
12371 6950 49568
11210 5701 48221
25415 2802 34652
26296 2712 35478
16904 655 32144
8186 4936 41650
21155 2706 38228
35473 3524 36151
45411 3901 44583
11186 6244 10105
25593 7425 54369
4529 8125 1243
15161 3481 44447
20045 709 53293
14742 4969 56934
9607 7065 50448
21674 7076 52375
20489 178 31669
14425 6758 36510
8463 5383 44713
27002 7509 52169
11198 7720 43342
21470 5300 55190
20127 1269 53800
33708 2502 46608
37613 2849 39063
34313 2217 41254
11701 7503 35604
32427 7229 51430
19999 6531 65953
32836 6106 53711
13431 6107 63965
26382 4915 27168
9699 4544 40096
25329 7014 58345
12889 5921 61071
37410 5132 35818
18976 806 43526
28170 3115 33335
27221 3269 32603
19996 6491 66793
5286 9122 84842
4241 7620 84356
16465 5684 19641
23763 7310 54817
10671 6427 6821
17187 5784 16063
11030 8810 44423
31300 3001 50512
30267 2977 50815
12270 6137 68415
24302 7336 47235
21193 568 55043
38975 7549 39337
23296 7392 42431
8060 5221 38733
16682 6572 45207
10619 7119 6898
22566 7277 41653
16183 5947 36554
15845 6376 59495
20197 69 42212
16922 6162 43103
19412 6858 53390
44819 3723 44651
10676 4379 49030
10327 4469 49033
18651 6738 37685
16308 3370 42366
16065 8508 50228
22697 7159 51048
10939 6247 10853
17199 3241 43220
6512 8548 84563
15525 6342 74977
15749 6553 43096
19315 6549 64105
26903 7703 43650
16243 6729 71781
8277 7339 36576
11725 7130 35990
21459 7097 39588
42984 2764 42185
17886 5731 31213
18446 6706 37394
19827 2852 37388
16632 4878 41173
34212 6462 33956
15561 6499 43691
15202 6364 29932
27902 2495 37514
16445 580 31303
18159 3343 41173
40562 3046 40033
12765 3906 37695
31851 7874 38724
22292 7186 30495
17351 5512 63384
39027 7648 45982
22907 3887 30037
20769 4534 27857
9210 7292 4211
26678 4065 29899
6376 9010 35525
20215 6482 18870
27571 6691 58506
17027 5904 71000
15758 6037 72882
14996 6127 74110
8688 9159 37926
7131 9061 48460
32923 6143 32090
20612 6966 29046
29351 4676 29504
15633 8161 37782
21914 6572 21478
14901 7528 36198
8854 7161 49490
31687 2309 45770
16623 5731 55602
4467 9424 42357
15790 4752 53838
16757 6556 29176
22439 6827 60545
11736 7174 43423
17840 6715 30073
19087 1266 43270
13902 4505 54113
34125 4970 52727
18884 5823 16335
8666 4816 38234
42916 3404 42791
13282 6062 28325
40953 6626 46620
14496 7275 37375
17032 4595 55799
11186 7855 36981
14707 5793 20716
16602 4992 33615
8112 7275 50218
14690 4137 32447
29678 7084 55295
12587 6266 9189
31625 5249 30518
21689 5490 63670
17680 6554 26007
16622 4839 44196
7514 7269 48673
21413 5545 21276
21743 5430 22675
11409 6526 72593
11052 6478 72461
8884 7095 79649
17053 6629 12708
5750 8156 84401
12991 8602 38043
14481 6829 12125
14442 5089 57233
13660 4872 55462
17368 5718 16948
6096 9630 43764
28234 5672 26769
23161 3628 54657
24342 5486 61877
19437 6902 55535
3606 10206 85198
21454 7032 50687
15927 6428 46999
21728 5146 60786
25681 7509 39946
16216 5647 64763
20786 3082 51918
13938 8405 35498
16485 5460 24307
27627 5255 27050
12352 5833 50801
18201 6658 36782
17833 2217 44196
4056 8749 41887
16289 6373 61219
17419 940 53348
40065 6436 47201
13649 7284 49538
34304 3993 51441
26411 7489 48141
21335 7017 37236
5802 6844 2687
10424 6309 10238
3506 8357 1067
13746 3708 39805
21470 2972 42279
27113 7584 47100
18644 6526 22820
47616 5182 43947
13717 8690 44196
38340 7863 40344
18921 5102 25443
3503 9475 36432
18849 3960 32085
11193 6263 76042
14247 9165 48792
19587 2852 40261
14108 7862 43815
6050 9608 36283
22598 5845 20036
13533 4233 52612
35085 5386 51866
1444 9027 44018
43149 3191 40982
14046 6944 76394
15664 6192 49344
34553 5499 52338
17505 5465 62531
16485 5613 64413
22258 7146 32622
20178 5471 63880
18120 3251 52776
15125 4059 53208
23611 7357 44463
15000 9265 49659
11155 5686 29218
29631 6858 55891
25223 5241 25296
14166 6395 16368
11387 6723 11293
13381 6074 59410
20131 3397 55799
12458 5967 46251
16184 280 43483
31134 2266 45494
17655 3357 34219
2560 7819 44350
16038 5783 69536
28225 7658 38185
21997 5291 61523
38409 6024 37047
25351 7264 29171
14652 6260 56943
13534 3731 38274
22474 4399 57450
18194 4674 33615
19843 4482 33615
19428 4995 33615
18145 6581 71320
18689 6824 40741
31515 8113 42878
10881 8906 50973
19447 6511 68705
36493 2537 45770
34388 2465 46147
26058 7624 43738
24845 7343 48496
18732 6811 30929
12591 8472 42636
4556 7341 48829
16512 6590 11665
15705 9090 50392
16879 6548 57405
19035 127 55028
8714 4835 37589
9518 6776 42954
12009 6255 49369
17251 6007 71796
8686 9027 48401
22355 5573 21478
10208 6586 11582
4047 7384 36366
38776 7820 45367
14047 5849 63949
46076 3277 42560
38957 2627 45269
2924 8119 50476
20150 6926 38478
4986 9603 36486
15944 6334 74533
19563 6544 20419
27965 7085 29161
31817 2466 38591
8649 4799 40462
4721 7170 36103
22107 6788 60865
18698 1406 31587
11849 5885 46004
17488 3093 38569
21595 3014 33804
4697 8571 50949
23945 3444 31649
23671 3546 31281
16280 6438 59103
14367 6221 19353
15279 3435 38307
36734 5693 50316
14037 6946 9144
10014 7148 82443
40365 7837 44854
15616 3449 49293
14170 3839 50786
9194 9682 49194
15615 8385 48632
9660 8293 38212
9415 4664 43794
21013 7018 47274
37470 5624 35978
13601 6111 22985
1677 8785 37005
30696 7963 44406
10968 4564 34733
23771 7290 32458
20777 6966 51052
18724 6503 20325
19441 6828 37771
32843 2515 38673
17663 3788 31933
34943 7649 38475
13597 9070 42613
8150 6603 77020
31952 8043 44629
15151 6267 33457
12957 6131 67209
41630 3012 40596
35140 6766 35302
26806 7535 37892
20546 385 43446
26440 5375 25731
13508 6092 29074
16963 6067 49394
29825 7670 48698
9837 6566 80719
7122 7268 37731
13708 7912 37954
23526 2532 38676
2680 8594 1031
17882 6687 56447
16531 6462 33704
14887 6230 34921
19094 5731 42293
17911 5731 42506
6306 7396 42054
36108 3289 48552
36542 6406 36053
14791 6214 34126
26026 7431 49194
20206 2786 40867
24066 7325 55609
33575 6651 33624
34546 7936 46083
21854 2737 49099
20598 2959 50455
24428 6837 60064
19090 5731 68105
16707 6165 49861
30800 7565 36279
21099 5116 60666
20587 5501 64196
17447 3114 45513
15790 4130 43200
36731 4420 50137
12966 7585 44108
8017 8602 41754
28008 4228 55881
38803 2357 42773
12970 6085 65704
12567 6518 71614
12519 6553 71969
8147 7027 79569
31817 7658 37392
25429 6093 23231
17420 6577 50747
17854 6627 50325
19836 2849 41546
2732 8476 41915
38619 2817 39618
18275 3368 33420
17060 3597 33086
12403 5969 39796
14684 6297 39730
22595 7196 46682
28096 2224 44460
16684 6418 60878
15994 7793 49964
35415 2373 40393
5875 6825 49879
4057 8943 50474
20247 4892 26337
7988 5402 43214
8131 6585 7814
9699 6395 10231
13140 5981 16499
31347 5581 55505
33390 6358 52713
12537 6120 67695
31254 7717 48024
6481 6804 84130
15777 5871 70924
16666 6544 39344
33903 3300 50105
19374 5279 61396
18005 5973 14682
20280 5731 43141
42834 363 42166
27587 6049 25935
18772 327 31107
21442 5686 65837
17742 3445 33376
4271 9558 36587
16585 3239 47877
18569 5669 66866
30222 2242 40200
30563 2289 39861
21194 6984 57270
6956 6892 6164
11757 6228 15882
24731 7342 37418
14813 6226 52472
7608 5100 47779
10727 6512 12639
9765 6047 36639
12000 5756 52189
5712 7000 50171
20370 4187 29226
21320 3984 33615
9926 6843 9106
11389 6678 11711
13914 6413 16015
2979 9163 36885
45034 4103 44992
25270 2545 37212
13729 6052 34203
12551 5867 34871
592 7591 44349
31939 4170 53455
14237 3959 52063
13047 6633 13320
11427 6765 10941
12403 6860 10628
15056 6616 14746
6260 7133 82054
15790 4895 41969
19638 2782 54088
43771 3254 44455
19241 5731 54590
21014 1077 42233
13186 6085 64299
11261 5742 38308
21980 3091 33222
8464 6806 77424
6268 7041 81312
21701 4641 27398
24508 6738 24908
6212 7355 37313
26912 5191 26653
15198 6484 42953
24250 7419 44421
6887 7108 36674
26686 2787 50676
28624 2628 49149
11048 7812 49618
17261 6536 26329
16661 3880 30592
42946 2719 42690
25660 2348 44079
15909 6332 63146
9111 5339 48293
15173 3520 41943
28871 3935 30950
18543 6755 32189
11515 7846 43159
13532 6942 77506
19116 6831 56435
13616 7123 37218
15413 6337 26241
558 6791 43499
22370 6591 22096
21629 6520 20481
37009 7709 46328
21923 5787 19603
3279 7419 42197
14290 5861 19930
13521 5948 20425
14699 5836 18105
21040 5731 42667
19915 5731 42414
19273 2892 39356
10309 6545 37265
24118 3231 53199
9367 6432 9555
1153 10538 352
7530 9743 49772
25993 7450 53634
12447 5917 55150
34952 8338 42812
30217 7725 37504
12881 9109 42664
14036 5725 24658
25501 7604 43182
9657 6897 77259
10923 6757 75032
25540 7331 55921
22575 7144 34838
18457 2476 31892
13718 6242 9856
10478 6530 5574
10353 8003 35333
47048 5844 41454
9833 5662 41872
3833 9535 49740
35465 6957 36018
15186 6855 10729
9134 7111 6032
16726 6496 17035
29379 2203 42852
33626 7244 50293
43515 7000 40559
11229 9478 37548
11473 9236 50739
33659 4887 53133
17589 6453 21428
20167 6700 60624
11914 8241 51065
21610 5430 63058
13776 6140 55724
26531 2459 47642
28783 7343 53539
11055 4787 33205
13581 6145 19846
14029 3647 39517
12076 7167 42653
11052 4381 35896
14060 6343 9308
39038 8155 43856
15895 5731 33077
16086 3567 34344
10378 4387 39171
20034 3457 32299
39313 3550 38564
15426 6305 24855
18948 3287 52776
21014 6790 60085
36946 6820 36973
35744 3232 48625
24333 7225 28751
14425 6090 73945
13795 4030 33819
13081 4016 35396
9704 6402 8240
2237 8176 44157
16033 6463 16954
2269 7390 42735
11637 6328 8237
2794 8577 49028
22831 5574 63856
12261 9158 44096
37644 4724 36115
4765 8719 35509
11108 6278 14903
10392 6426 13041
9987 6455 12446
28065 5653 59055
35731 7238 36896
16902 5092 59055
30336 4835 55742
23269 4484 27980
24296 4418 28278
13086 5960 37045
21111 343 42022
21013 4380 28401
11159 5876 43754
25329 7552 41820
8671 7253 4349
27165 2899 51411
22126 2617 41773
15104 6258 23391
1464 8995 42648
31260 2379 46452
40050 3393 46501
26444 5628 24985
10285 7038 78157
14646 8232 35561
44534 3779 40815
45515 5309 45095
15946 6340 66699
16882 6511 51481
14630 6196 49266
31540 4834 30831
2949 8265 37117
43644 7831 43752
10320 6536 73599
33885 6872 34351
5803 7632 35548
11018 7098 43484
17491 862 31375
19634 5919 16391
15421 5776 17661
23982 3751 30547
16913 3209 40785
12891 5972 37799
25220 2362 44651
22809 2545 45710
24581 2424 45583
11167 6953 8921
24834 2791 34890
