ply
format ascii 1.0
element vertex 2513
property float x
property float y
property float z
end_header
34238 6210 29263
37012 8228 20962
49162 2138 30118
59476 2769 29358
44569 7806 27427
16659 3501 34150
33130 1642 32142
33835 7369 62870
41764 6195 20607
64302 6293 29302
55356 6268 29290
34639 5866 29103
46697 6078 29201
62180 6163 29241
47955 6170 29245
63074 6314 29312
58655 5832 29087
42678 7084 41057
41054 6876 27677
6258 14125 33634
42008 7280 29173
42637 7261 29173
69901 2731 29755
56020 2411 34365
41595 1194 36901
21362 3700 35086
40380 7725 25550
5266 14585 32470
44666 7444 25699
66297 3868 35225
64640 7070 34137
38627 7612 54410
12810 7463 32897
40486 1215 37237
31541 2074 33832
20263 6907 34356
68159 1684 31550
41369 7824 26665
41952 867 28160
36494 7503 60958
54023 4976 28840
2108 14552 31224
41354 8400 22510
39713 8119 29817
36695 6538 29461
9705 4854 30976
42834 7580 20099
4886 14503 30614
36729 7362 18224
4972 7417 32023
70366 5563 29667
45541 6119 19665
64942 2142 33971
66139 2193 34073
40555 6288 20496
11782 5851 29858
5931 6881 31238
65196 4164 28832
43231 7663 41844
42210 1367 35875
25143 7866 32056
32405 7847 32322
35992 7861 32129
35958 7317 58683
40644 7273 44951
39735 7281 47503
43466 1879 31037
40230 6966 25962
70002 2043 30800
37536 7147 7828
27819 2296 34252
12899 6120 34296
3757 14454 30287
24436 3797 35201
68076 1771 32984
48801 1642 31943
35380 7349 1090
70352 7070 32554
26202 4909 28836
14106 7200 33574
39728 7150 13253
2750 14143 27255
37625 7285 22609
73195 3509 30646
23025 6170 34835
6508 14542 32616
38337 4622 35261
3729 13988 29484
39697 7639 19802
40585 7816 36176
70914 2197 30896
38439 7526 55673
45472 3578 35124
72429 2632 30759
43918 7753 32915
71071 4204 34476
38568 7605 40192
44588 6828 35760
42550 7965 39196
38279 7315 43672
70501 3154 29616
45619 7474 29173
43059 6534 29173
44214 6130 29173
43030 7666 22350
41166 7339 15661
57908 6428 34706
66579 5707 29041
17581 5201 29122
44576 6826 22562
41919 3991 36198
67192 1637 32087
41109 2883 37427
46478 7819 21328
51151 2765 34717
63577 2116 33917
72074 2297 32813
2161 14157 35227
30132 7225 30113
35869 7315 30213
12612 4586 33947
45202 6565 42053
70338 1420 32601
53564 6375 29340
40827 6676 43819
45819 7470 28641
38637 5063 35233
69468 986 31527
45661 6820 42868
41300 7861 42091
41399 1821 35822
39038 7297 47597
37445 7303 54108
38128 7523 41369
36800 7298 59053
65855 2387 29736
38917 7656 41145
52574 2784 29348
4895 13904 33904
44819 1204 32812
44978 1381 33956
4335 13826 32130
39672 7213 42478
52449 1818 33272
40536 5041 35234
13619 4628 29863
37785 7075 27942
16631 4216 29442
41010 7781 25042
5682 6942 32010
42962 7586 43071
40451 7690 19884
38773 8733 42777
22461 3181 34927
47516 7694 30954
50509 7771 31225
51467 7702 30982
7661 14366 31479
35096 6643 34532
37184 6702 34484
39344 6661 34517
37666 7546 44054
37952 2950 28710
41902 7944 36946
42304 7976 37068
25726 7841 32413
26704 7847 32316
38194 7516 18579
5732 13715 31814
50266 5565 28990
69980 2016 32948
40681 1651 35300
40409 7626 22894
36198 7303 60894
45025 5102 35230
46548 1562 30186
37351 7343 49499
39977 7220 42963
41274 6968 37327
37113 7252 38426
12923 8291 31942
12334 8542 31960
13690 8637 31996
18260 7794 31985
14045 8762 32017
51616 5810 35001
70307 3846 29342
43385 8531 30842
19282 6023 29166
30453 5391 28928
73048 2800 30991
71217 4488 34382
70941 6362 31376
44244 6918 25760
73195 2785 31769
14572 6359 34359
40257 7784 37000
34295 7404 59940
60080 7655 33260
62400 7732 32990
61938 7707 33078
65605 7641 33308
20630 5415 35173
10181 9449 32257
7396 13444 32206
45164 8285 43210
27224 3598 35131
64721 7523 30565
55740 7626 30742
58648 7527 30572
67183 7594 30687
72256 4566 33740
38211 7288 54007
68813 3016 34781
54280 2599 34552
55307 2671 29455
46395 7581 30665
42065 7548 30608
39953 2009 33554
45842 9321 20631
33654 2723 29404
44283 6995 25200
66353 1818 30808
2786 14193 37898
41290 7264 44778
39119 7143 39499
47021 7668 29251
17201 7109 30102
37692 7090 34115
38272 7126 34074
33952 7024 34188
26268 7213 33978
35414 7332 59157
61243 5309 35179
43700 1140 31636
36568 7485 48126
39102 7714 49568
34859 7210 5527
39769 7746 43722
44816 8573 31528
39968 3088 33649
58936 4541 35266
45351 4560 35265
51399 4593 35263
39957 7648 50667
32336 5162 28852
45543 4247 20795
37485 7173 24408
10217 5740 33915
37692 7596 47601
42866 3700 28912
66768 4850 28832
2697 14388 34289
44016 7624 43854
42703 989 29042
73244 4553 32963
50896 1657 32292
42342 2953 26676
36785 6832 29701
28078 6480 34664
37539 7222 30110
35990 7054 29923
41624 3371 26838
2909 14709 31794
67643 1773 31049
62905 1744 31212
59889 1732 31277
42126 6953 37686
4981 9364 32100
60807 5020 35235
16573 7362 30491
46110 7018 35001
65571 2616 34568
23075 1724 31324
45464 7294 27747
39481 7631 22395
9672 8322 31848
29818 6151 29236
66619 5380 35154
41617 1221 27497
39533 7593 13664
47084 7606 33372
44991 7585 33407
17247 3261 34113
15966 3755 34167
41402 1516 32205
44735 8238 34469
49286 2666 34619
1186 14404 26965
20989 1750 31241
59630 5925 34948
42046 622 26846
37457 7205 22976
69623 350 31548
34895 7147 21880
17467 2391 32308
2817 13913 31224
36834 7427 44905
26627 5721 35032
37834 7507 29173
70563 2926 34304
47135 6737 29173
28418 6411 29358
60355 4153 35245
3944 13879 32858
70127 2507 30079
39745 7093 38978
38291 1819 35054
45878 4595 22719
15946 4739 29387
39694 7674 28865
45592 8910 20471
13201 6002 29715
4154 13861 31482
67951 5583 35059
9474 8026 32222
45811 7765 31205
45820 6694 21463
39955 2160 34889
40881 7774 25564
19505 3308 34690
38208 4394 28816
40717 1216 29175
47155 2685 29441
3204 14561 27570
40740 7992 43924
41836 1467 28545
39300 7591 28039
38712 7535 24557
55683 5512 28971
2111 14559 37753
55308 7232 30121
36489 6681 20890
21155 7840 32363
11140 8182 32256
9046 11158 32223
41378 6 26901
65826 4709 28823
45727 7168 43205
18888 7141 29994
45797 5783 20875
41195 6899 34137
40904 6919 34763
43968 7252 43858
39742 6104 20838
41139 7623 17326
35810 7135 1641
845 14492 25260
45216 7826 31454
32817 7863 31992
43419 7112 20151
35547 7365 3024
49088 5549 28984
53273 2591 34544
37381 1596 30807
37503 1528 31228
5839 14433 32858
36056 7385 8721
46147 7817 21126
38742 7179 15092
38526 7180 14569
45237 2256 35402
46029 6877 42819
46552 4146 35245
9820 4609 31484
33904 7217 2366
14201 4661 34355
68960 1712 32527
40964 6854 29603
58558 7860 31948
57277 7862 31979
43360 7126 41075
44092 8554 32536
7536 5431 32856
2777 14103 28323
40992 4646 35260
46101 1535 29711
40379 3643 28708
61183 1827 30784
67442 5767 29062
6720 5432 31911
41725 1226 31875
68870 7576 33059
23767 5601 35075
6560 10605 31904
68307 2677 34586
6373 14539 32241
41823 51 35764
39142 7597 14833
39884 7646 17841
23609 2235 34156
31238 2200 34085
24444 2228 34142
3538 12598 31978
27434 7757 32901
36414 7645 33295
29463 7684 33157
40774 1736 28441
42139 6017 42403
14506 4095 30017
47264 6661 34883
36259 8117 21828
39441 7698 38546
37453 8201 20786
34440 6845 29711
30298 2982 29228
21421 3986 28939
36898 7231 29885
24484 1993 30410
29876 1971 30461
43402 7192 41534
41546 7151 42238
38677 7284 53394
37916 7650 54844
27396 2965 29238
34530 2810 29332
71968 4435 33976
38242 7503 21533
60726 7724 33020
64872 7786 32800
4606 13625 31686
40097 6968 35282
30998 7833 31559
34508 7838 31634
45230 7719 35853
39382 7329 22855
6419 12309 32215
10440 8583 32268
6829 11898 32219
7386 11602 32234
6930 6973 32115
34502 7237 5860
56861 7832 31545
13880 7597 31482
41200 1339 35320
42161 5536 35098
45422 10520 19311
19216 6985 29818
36956 7195 11296
69223 1392 31605
46188 8195 32322
37685 7505 11421
37922 7520 12432
34995 7480 59971
41518 6930 25471
70715 2022 31332
38590 7876 33385
7536 14406 32546
38791 2401 28561
69559 1792 32476
32007 7612 30718
31525 7508 30540
33507 7559 30627
66537 7203 33990
1373 14308 26040
45905 1487 34099
6177 7951 31972
40658 7559 30626
40091 7627 30742
72013 5136 30666
60000 7068 29940
26309 1676 31601
43479 2853 29477
44318 1238 30944
43971 1247 33210
40987 7862 29206
40245 7772 45033
36919 7190 25844
37674 5704 29040
5858 13634 31376
5453 6959 32696
63855 6556 34602
4479 14534 29404
71871 4408 30028
9506 7408 32405
45817 7332 41935
30526 7763 32880
34210 7728 33005
32854 7750 32927
35716 7364 7215
40016 7036 37646
44256 1723 35197
41858 3834 27415
40728 3601 35162
39759 6554 22634
30556 1651 32223
45046 6859 35672
40013 7088 39229
43462 1655 34116
67319 3958 35232
4779 14443 35954
64528 7861 32126
58688 3355 35044
36778 7324 19626
42576 1097 32179
45376 7099 36489
40470 2204 32205
25305 6688 34494
6385 11494 32192
3923 14369 31852
61521 3027 34878
38813 7687 47127
39030 7694 45795
42049 8107 41295
45733 6686 42238
50932 5437 28945
36710 7288 22323
19485 5484 35103
40766 7630 16623
45724 6834 40664
39712 7655 24080
59785 7540 33484
49287 7440 33655
35455 7353 22108
34813 7387 57119
40786 7351 14617
38822 7665 33227
23301 5013 28842
58166 2017 33716
2543 12160 32036
43105 2377 35974
40431 7153 15359
41492 7800 23172
42753 8016 36116
62715 3170 34965
2830 14058 34242
45282 8240 21782
14064 7509 32968
45711 8691 46754
36019 7418 49306
43202 1982 35630
6101 13595 32544
46107 1270 31874
5253 14080 34967
43325 3870 36395
36922 7421 14769
72527 4878 30764
28759 1654 31826
3076 14105 36376
30546 3249 35007
36854 7280 21483
37428 7409 21064
45219 8310 34909
73481 4110 30979
38939 7080 24315
39685 6952 27510
2617 14276 32866
39054 7372 34909
51155 3426 29009
44594 7287 38805
43079 8000 37957
39005 7619 53387
39133 7540 11725
40374 7669 49395
47571 7783 32811
50311 7811 32712
51410 7694 33122
51883 3222 29082
35034 7330 2403
3749 14140 37064
8400 9432 31867
17793 2925 33907
1732 14550 38149
40250 7163 17015
1993 14167 34363
43082 8036 36398
38799 8629 21170
67662 1960 33593
66884 1957 33586
20342 7663 33205
36850 5183 35224
49498 6432 29375
43524 6751 22681
33327 6365 29335
38745 6304 43218
42628 7756 42767
40071 8182 31148
39973 8167 33590
42489 7003 22935
35746 7169 5505
35974 7171 6333
37880 7263 19006
3692 14577 36415
5905 5678 32246
68814 6688 34294
43198 1069 35987
41595 980 35439
41972 1366 27436
56243 5016 28842
43806 6751 29067
41569 7158 18854
10216 7213 30976
59646 6939 34282
41603 7969 35175
42984 2052 35052
51405 1674 32461
49488 1674 32458
26311 4098 28837
4109 11040 32098
43175 7493 29173
43051 2758 37479
38982 1243 31702
18777 6696 29571
43006 8280 43692
10956 7384 31253
43485 3278 30593
24423 5322 28903
30517 2671 29455
8383 8071 32186
39433 7680 36639
38674 7825 31442
52104 2333 29789
35074 7282 8520
8457 5501 30769
938 14719 32236
71399 2855 34006
42635 6925 24843
42166 6984 23515
43477 2689 28364
24547 6616 34553
45855 6564 23407
18188 7403 30387
34263 7423 61408
26848 2609 34561
27444 2582 34535
56590 6072 34879
48424 6300 34773
65901 6387 34732
55115 6378 34736
57004 6367 34742
64279 6072 34879
40627 3783 36771
29302 2247 34181
25692 2068 33819
3274 12396 32087
42469 6782 29621
40341 7156 15794
18889 5070 28969
41723 7258 44711
41269 8356 34598
40718 8276 33721
40297 8215 34382
40323 8765 21237
39064 7626 35670
1297 14654 23557
49864 4938 28837
37074 3300 29053
45536 4820 17338
37734 7224 39179
11161 4418 33192
40121 7699 25933
4465 14414 31708
4282 14532 34756
20713 4781 35249
64509 3040 29192
28364 1778 31018
26358 1787 30974
27072 1803 30878
4604 13993 32858
45532 7575 35735
41073 4299 35255
45930 7545 34909
62053 2573 29552
37758 7335 48517
40885 885 26760
32378 1862 30708
28039 1896 30632
36006 6907 20851
35202 5306 35181
69595 4471 34972
57344 7397 33728
60327 7489 33571
61985 7545 33476
62360 7409 33708
10167 4856 33350
33301 4582 35264
43936 6958 38357
32775 3089 29163
42070 2 37059
22116 3881 28923
57879 4929 28837
25913 3614 35136
21402 6096 34920
18383 2121 31898
36208 7473 50090
54935 6496 29427
39281 7299 46123
42077 6855 34176
31055 1637 32001
40714 7802 44384
6902 14537 32481
40477 1297 28769
40765 332 28428
53826 3056 34895
39315 7126 21912
19087 7682 30879
40139 1989 37753
28944 5626 35066
38976 7048 34140
18138 7471 33557
23866 2009 30377
24321 2174 30045
73387 2818 31408
21194 4947 28869
39019 6171 42184
41637 7041 22266
40081 7157 15570
45632 8385 30784
45484 8420 29498
43433 3353 31743
42428 3368 29826
40370 3397 31807
55843 1656 31804
38227 7487 29675
2805 14549 36673
6373 5831 31262
42774 8001 37743
54596 1921 33504
51997 1919 33500
10700 7212 33178
45576 9771 44033
39794 6927 29603
40427 6161 41926
11047 4209 31656
35258 7322 6804
36682 6286 34780
45629 5573 43045
58738 2892 29282
35749 7138 2192
10816 4338 31385
37109 7524 46635
43044 2338 29332
64181 4630 28817
41204 716 27330
43570 6331 43321
37095 7357 37980
25071 5437 35134
45270 4067 28839
53582 6551 34607
2875 14584 37314
3858 13973 34382
23429 4782 35251
41875 7718 45071
3059 14488 35271
36765 6807 43296
32027 4041 35237
18077 7803 31391
43350 6697 34488
35477 7084 42706
40212 7278 45578
36242 7307 59129
40652 8063 41271
47598 2183 34052
31574 4881 35244
63781 3852 28858
39937 7392 12388
40218 7695 22137
30094 4720 35255
44629 6967 43675
59232 7106 34097
6281 9832 31929
3911 14561 36921
69143 1777 31226
8057 9074 32197
39548 7609 52099
39919 8479 43552
38845 7665 34029
42132 8027 29657
30623 3763 28889
24221 5147 35227
56696 3913 35228
46030 5619 29009
38112 7474 8497
22143 2058 30377
21367 3432 29137
39127 7710 51090
20538 7864 32176
29294 2007 33699
62952 7391 33738
65129 7325 33851
38141 7221 40150
41084 2671 31875
36241 7926 20870
26674 1862 33370
56824 2446 34400
69925 1677 32340
40396 7727 26345
41834 597 27335
41836 2068 28807
39349 1284 32863
39336 8037 30463
38546 7561 36809
35982 7313 14835
54746 4994 35237
1102 14595 24291
65309 2246 29899
39348 7011 26004
45584 1606 34899
45688 6964 35374
39140 7819 22741
4971 13758 31605
2449 14592 37926
37720 7620 56317
39441 7010 35526
38038 7154 37349
44377 6684 20443
17530 3458 29706
22594 7799 31346
43279 1297 26032
32812 3297 35024
44535 7892 36581
30109 4192 28830
39118 7152 12497
5666 13716 32297
36900 7215 24608
49031 4270 35253
39841 1382 30285
43467 1993 34584
29182 2161 30071
33448 2066 30262
40317 7778 44516
35570 4448 28812
39950 1746 35184
43338 7761 40847
42145 7896 27324
69898 6008 34416
44989 8540 34289
45894 8321 32850
5307 13771 31530
37110 7529 47003
36702 7150 6355
39630 7174 16949
43415 6800 34045
43612 7932 29173
37401 7456 6803
1942 14534 22996
36806 4725 35255
35209 7342 3055
22601 2609 34506
21616 2834 34616
37640 8572 42677
58540 1889 33431
15090 6741 34157
58713 7127 34073
20031 3783 34995
43235 6632 41479
45482 5373 41126
39310 3048 35564
18432 4800 35057
28054 2593 29533
24734 2310 29813
45154 7023 20476
43295 6895 36916
42588 8073 29655
35278 7729 21542
54641 3383 29024
36453 7543 53250
3965 12131 31967
38171 7232 17780
44021 7878 38037
51525 3430 29007
7941 7287 32543
69798 905 32028
30464 3610 35135
28474 3407 35063
35702 7413 51086
1479 14282 37307
51318 2147 33982
43009 7955 27160
14789 5984 34525
37545 6527 43214
42608 5457 35127
36197 3168 34964
43111 7025 22710
41012 3386 30790
42314 3364 29324
40374 3392 31040
3006 14275 25347
34924 7400 55630
46044 6204 29260
57195 6307 29309
2276 14124 34142
13812 3635 30922
51032 6774 34425
41355 1745 34959
3456 13928 31613
2017 14262 38547
4470 6663 31682
34142 7261 761
71883 5387 33368
6842 10559 32187
69153 3063 29321
1640 14296 38665
42169 3276 31875
42687 7829 32575
38143 7623 46156
17853 6547 34543
5649 14542 32328
47824 1756 31146
50043 1752 31169
55273 1790 30953
59929 1797 30918
61700 1787 30968
35393 7357 56901
23652 1669 31670
32656 1674 31618
38560 7193 15909
37964 7188 13726
70559 2467 30192
51779 4565 28813
54793 4551 28812
22345 4719 28833
36964 7573 51647
38490 7016 28841
793 14546 24486
27375 7143 30022
31030 7177 30059
36246 7198 9262
51776 5248 35201
3688 13888 32118
69264 4240 29038
38892 7193 9555
28819 1750 31180
25711 1740 31235
37633 6878 20456
41055 978 28847
36956 7359 49754
13612 7029 33753
42530 6534 43675
31961 3128 34939
58891 2188 30016
43475 2571 31718
9377 11508 32104
9907 10617 32136
10937 8687 32221
71029 5089 29818
52126 1812 30832
57555 1764 31102
56195 1755 31151
27026 7014 34199
34969 7186 34009
30010 7199 33994
39536 7196 33997
41414 7192 43155
42200 7043 39966
51234 2456 34410
42659 1290 27351
34201 7353 62487
13292 4288 30200
41851 8138 29173
59666 6775 29654
35452 2419 29705
2471 14441 35396
37853 7295 53636
37960 8464 21901
43256 2782 31875
43411 1822 31875
23963 3748 28895
274 14492 23962
1163 14370 31417
11006 7715 31816
9722 8787 31837
36729 7364 50317
36677 7139 3910
37335 6651 20665
45928 2159 28862
37980 5180 35225
36792 4737 28824
59654 4353 28819
59548 5568 35087
40425 7629 15959
13289 5900 34388
37696 7496 40756
36935 7601 55931
39347 7722 46724
61374 3623 35139
73297 3180 30855
41176 1504 35854
70717 6132 33546
38207 7242 41021
50629 5312 35178
46473 8031 34063
4382 14457 31331
35365 7163 3887
2161 14539 37362
37984 7638 49234
22643 5333 28907
43464 1798 29751
58044 1642 32141
39967 2975 29475
7115 5592 32876
46335 1447 33479
5650 10658 31933
41930 8029 29955
39929 7067 22999
16764 6264 34606
63354 7696 30963
58296 7767 31211
57046 7749 31148
56421 7790 31292
38531 2478 35540
11056 6928 33614
44873 3825 28867
60811 7300 30196
45774 10889 44344
1824 13754 32518
42348 6309 43456
34123 7445 64181
69198 2939 34673
38523 7639 44118
45654 7236 35831
9365 13918 32432
42592 7825 42124
62988 1827 33290
36085 7271 13398
10085 7004 30694
5405 12359 32177
44200 6957 22679
36035 7489 52446
39608 6848 20189
40593 7495 34909
38361 7891 43746
39766 7303 51642
42134 1935 35325
47966 4490 28809
60063 4446 28812
71629 4189 29836
70036 363 31484
6728 7297 32042
37511 7231 15655
37440 7283 19646
36965 2399 28865
62746 5096 28848
49093 2963 29238
36982 7542 48958
35817 6990 22110
41658 3378 30736
57210 3447 35077
36602 7528 50859
48416 1636 32072
45629 5666 22506
38811 1511 34264
44958 8092 22349
1852 14751 31970
41688 7801 22375
39973 7046 34909
42049 7570 34909
42104 764 35126
72609 4342 30460
64670 4146 35245
36892 7256 15263
46560 7283 34909
45559 5404 35146
55844 2150 33984
56777 2092 33869
65071 3249 29071
1929 14206 30713
41053 7057 22180
36766 7429 43699
44892 3248 28933
45654 8379 30187
47916 2045 33773
54180 2708 29418
35424 7347 57600
41142 7334 44034
41129 6025 42930
37387 7322 26540
41649 7054 39910
43111 6856 35886
3288 14696 32094
38130 7611 45250
45710 5065 20793
43982 8031 36104
20894 7460 30504
40302 6912 27715
45251 8096 22117
37267 7474 11442
33488 2255 29881
823 14496 38866
32908 7830 31521
37574 7835 31588
34236 4530 28811
10358 7392 31845
40583 7821 40544
52843 7478 30489
50825 7467 30469
52356 7538 30591
41504 1367 27160
25688 7400 33722
28445 7424 33683
46317 6977 21872
39348 7612 16238
18916 4654 28984
42835 7905 25442
44317 6915 37350
37579 7447 19341
41530 7462 30461
66520 4564 28813
30074 3999 35234
45641 6012 21161
37939 7290 54889
55571 7841 31671
64094 7827 31475
51286 7841 31667
45674 6887 21986
39956 2182 29786
49199 2351 34306
36219 7566 58756
44343 7542 25135
42463 8462 34512
42311 8451 33223
45087 1486 29426
46687 5501 35111
49596 7527 33505
64592 7628 33334
50927 7611 33362
45736 8359 34014
45723 6225 38559
44566 1478 34861
2342 12468 32043
36913 7214 35283
40673 738 29151
3009 14022 33570
40046 7298 50772
42444 1204 29180
47336 5557 35091
43235 5998 21269
43665 6792 20281
38325 7314 48382
38357 7309 48895
27471 6499 34649
58018 5539 28981
34119 7265 0
37027 7399 44054
5400 13953 34159
39095 7017 29883
1459 14330 28361
37139 4830 28830
43832 8547 31654
43941 8550 29732
37873 7126 35788
39196 7694 42497
37545 1716 34561
35819 7359 9118
45859 5945 43262
65996 1654 31822
7449 5221 32138
36797 7382 41481
44352 6973 29173
43950 6384 29173
2858 13713 31573
44860 8496 21662
65644 1662 31736
49882 1675 31609
15702 6068 29498
40354 8192 43817
2606 14086 29652
45107 8302 20929
44808 7034 34176
43881 7017 34196
44278 7094 34110
37550 7149 8338
27750 6123 34855
66321 3258 35010
37604 7164 10337
4362 14214 36685
42449 5517 28973
37904 7129 35012
4927 13911 29999
31472 5299 35183
38253 7516 35364
37785 7504 40402
65958 6819 29690
33036 4767 28826
44573 7853 31839
16586 5399 29258
41091 0 35199
44545 6663 34909
43526 6914 34909
40446 6636 34909
7363 13699 31719
42060 7704 30991
40546 1977 31875
38875 4139 35244
43600 3918 35229
62499 1651 32226
47797 3013 29208
28729 6690 34493
38491 7512 24273
45740 6215 25199
37384 7180 43641
4139 6599 31512
51437 1662 31729
45543 3221 40036
41350 5624 35067
42076 6179 22319
39556 7630 26975
39847 7662 28104
8867 11264 31838
8369 12981 32016
44614 3666 35155
48834 3571 35121
71579 5496 33626
3867 14053 36006
24205 6790 34412
41038 250 27620
43010 6084 42289
37983 6261 42449
38466 8614 21410
43626 6498 20464
39720 6929 28964
43471 2265 33615
38493 7092 36325
68038 2628 29513
42438 7922 27521
42185 7891 26441
5935 10705 32160
20120 1882 31279
36900 1784 33596
38297 7203 39822
39502 8073 34370
37227 7296 58488
65862 5525 28976
41414 1952 26282
43479 2850 30699
63658 6984 34233
45900 1352 31098
5271 13598 32388
67454 1803 33202
63980 1782 33084
67416 1722 32741
64694 1775 33041
68300 3081 34861
39942 1238 32639
38973 7116 38325
37295 7465 13862
36958 7445 12152
3090 14108 32858
36074 7529 55220
39819 7028 24476
37419 7143 26114
42219 3605 28726
42336 2779 31875
54612 2433 29689
2217 14129 30072
30999 7748 32934
35175 7707 33079
43866 7978 37232
34014 5980 29156
37102 6121 29222
22312 2871 34729
38338 7225 20056
45673 1322 32957
41981 7144 42231
43670 3012 35655
12285 4268 33471
43563 8540 32030
12429 5626 29771
15002 5344 29442
3967 9486 32025
48485 2117 30157
51552 2222 29947
56863 7846 32338
61869 5029 35235
42548 1506 35105
40541 6479 43661
40982 3534 26916
38843 1312 31264
12191 7533 31871
1757 14350 23892
58448 4053 35238
36604 7224 12247
3410 14593 26977
61120 2935 29256
67756 2134 33954
57919 6607 29517
68899 922 31730
49824 4231 28827
43457 6747 29659
44694 7844 32360
2266 14182 36791
45300 6612 21817
46441 8049 31837
40906 7757 22884
63739 3523 35104
40595 7270 48461
42388 8009 35579
4920 11835 31933
3445 14108 27289
9451 4838 32924
9162 14024 31761
40023 7761 46573
39900 7755 47842
41820 7659 19336
17406 2486 31292
40000 7651 17389
40276 7668 18078
37253 7179 25064
19917 7880 31981
7142 13935 31328
43959 1431 29555
45017 7733 36375
4659 12749 32160
37334 7070 20435
15232 7164 30368
44518 1806 28853
37250 6671 29569
41532 6647 29550
20322 1782 31662
18907 7852 32615
38864 7568 21231
36704 7225 25041
45639 8537 17105
41413 7313 16341
23349 7738 31110
30360 7757 31176
25609 6508 34641
25162 5055 35233
53218 3371 35050
17289 7638 30971
47302 7442 29908
7415 12936 32279
10062 8915 32262
5713 12979 32206
6125 8768 31957
39102 7682 41652
40537 627 27549
45612 8002 34704
54664 3970 35232
41567 7731 20151
40379 7425 13710
48891 1681 32513
59857 1739 32838
34918 7067 42538
35131 7487 30504
36677 7459 30456
40569 8323 22558
69195 6327 29623
67104 6515 34635
55879 6765 29646
32274 6783 29661
41544 6671 41340
41820 8414 31977
42187 8442 32427
42325 8452 30016
9953 11324 32052
9059 12404 32044
68349 1891 30722
13655 6957 30259
40479 8857 42273
2933 14022 33233
11293 8796 31918
43513 6753 29294
43691 6082 34875
67521 6771 34427
20728 2776 29639
41721 8790 43129
59980 5948 34937
41891 7807 43889
11805 7157 30685
35685 7259 459
20278 5874 29096
34769 7310 2131
6484 14561 31525
12411 3809 32244
38638 7551 19964
24945 6556 29476
30168 7530 30578
28563 7482 30495
27417 7432 30410
68310 5568 29056
69712 1786 31933
45245 7494 43397
39971 3220 30349
42527 7639 20833
44049 8553 34648
21980 5022 28860
58911 6424 29369
35828 7294 13812
72520 4866 33345
72490 2398 31315
17980 6957 29861
36992 7305 40224
38828 7156 21640
4832 13825 31298
40052 8108 41323
70773 1977 31716
42934 6973 23555
34221 7338 63852
67565 7147 34051
26054 7722 33026
30609 7662 33236
2644 13085 32011
14659 4718 29615
46011 1752 29181
10855 4969 33748
44600 2839 35622
42832 6777 29088
37509 7188 23564
69440 7437 30943
36870 1864 29868
69184 7661 32192
11698 6407 34071
20430 2377 30129
40549 1334 38024
52345 7823 32659
58709 7832 32530
63310 7838 32454
55543 7830 32562
22812 2351 29800
32314 3643 35146
34987 3616 35137
37113 7216 13341
38259 8529 43187
7549 5471 31165
36815 7152 6842
65508 4678 35258
46135 7035 34175
32655 1805 33206
28313 1810 33235
36462 1741 32848
40482 717 28832
24379 4891 28834
49867 3179 34971
37614 7448 34039
58580 4476 35268
28034 6252 29283
35803 7536 62036
45494 7345 22443
37641 2648 35447
38517 7681 50101
37314 7621 54605
39894 7151 40931
38212 7513 36832
37586 2390 28722
42006 357 29217
2484 14183 37349
42976 4021 28072
59310 4123 28835
51672 2010 30375
39127 7220 41952
72308 4413 30298
56477 6514 29441
43343 6833 35311
43641 1100 32161
37224 7428 40684
3530 14221 31224
37440 7102 28034
40297 3925 28532
4003 14516 29386
37197 6501 22095
39974 7331 29173
36913 7431 43026
7196 14513 31575
37897 1447 32764
38065 1456 33101
65704 7172 34024
39265 6699 41448
53301 7098 34106
12145 5189 34172
38041 6960 29820
38206 7793 29207
45553 6836 34955
36589 6976 20646
71708 2503 33509
44929 6561 20646
41774 8043 20197
44224 7168 39606
20333 7473 33599
45993 5099 28848
40571 7147 41545
41721 857 28563
33646 6484 29417
15818 7717 32001
63760 5211 28864
61970 7432 30410
59015 7555 30621
65886 7497 30522
60674 7629 30746
8155 8682 31891
39081 6155 22080
14944 7893 32148
14112 8040 32147
17146 8271 32064
41475 3596 28751
40031 7172 17713
37164 7153 7838
36397 6538 21794
36112 7357 12486
49190 1735 32812
50861 1791 33127
47981 1784 33089
20266 2375 33941
21559 1810 30981
72212 3312 30173
73195 4137 31725
48368 4696 35256
35014 7179 4003
40718 7750 23810
44339 6789 34515
69904 1752 31158
43198 2192 28888
40167 7827 31471
46247 7109 29984
38130 3291 34976
35020 7316 63147
42994 2456 28742
57612 2377 29747
42678 834 28572
39045 7161 13746
40223 7170 17993
37425 7620 52885
37768 7640 52021
53307 5562 28989
35609 7456 63660
40507 790 36615
38039 7179 22505
40844 6286 22473
8596 4895 32192
3419 13992 33999
38555 6357 20689
59300 7372 30307
48045 7623 30736
38490 7644 45131
19381 3790 34931
38250 7666 53858
42591 7764 22304
41171 7102 40846
69985 1209 32391
39538 7625 17817
60100 3915 35228
36690 7406 13865
37391 7446 17371
59886 3164 29117
40806 6983 37195
39381 8047 29925
23136 5692 29035
2532 14233 32399
43944 6212 22103
72842 5079 31578
23937 4406 35263
35635 7537 61562
41832 7050 21953
35592 7152 3521
47250 2406 34361
40243 7760 47822
23495 5294 28893
38695 4837 28831
41267 3983 28408
43595 6838 26706
31369 5805 29076
52267 5745 29054
40248 7218 13267
37927 7454 43773
41668 5139 35228
39950 1755 30833
39962 2580 28981
40879 5995 42483
46364 7684 42111
46884 7452 33634
38803 6439 29380
55535 4930 35241
41004 7127 20328
42062 1454 34949
41175 7877 37970
37249 7396 20238
38964 7314 44570
68482 5460 35039
45947 3773 35192
37680 7564 20362
60542 2408 29715
63981 3178 34970
16332 4174 34540
40693 312 35229
69465 2162 32953
21557 1637 32002
44258 7062 29933
9352 13965 32091
2565 14151 36646
17288 5632 34879
36713 2045 29302
42442 6833 27460
40580 6935 34095
20123 5267 28941
44908 1206 31329
45061 1179 31650
40459 5825 34994
31346 6025 34901
32586 6002 34912
27105 5841 34987
32149 6103 34865
12201 6623 30098
35231 7479 57973
11521 7500 31803
43208 8433 29173
47119 5567 28991
71073 6420 31901
1561 14267 26944
67968 7776 32745
5264 6623 32817
18342 3968 34855
45524 8163 41730
42688 7549 43993
7312 6699 33189
36714 7352 40654
1907 14631 39343
56239 6949 34271
22756 7774 32836
52620 3462 35082
51091 6894 29751
44554 7752 26988
53719 4607 35262
61815 4695 35257
63171 4687 35257
36479 7354 16373
40965 3388 33083
40874 3390 34544
40011 3401 33458
41511 5891 21541
38467 7234 18891
1170 14555 39059
37774 7315 50719
62702 6941 34280
43843 7775 20245
50419 3084 34913
45843 6651 19779
47256 7478 34400
41214 1592 31875
37727 7294 41803
68279 2057 33666
41100 6845 30103
53601 3938 28848
35450 7508 41965
46004 7839 32435
41004 8410 22490
57806 4037 28841
37290 7400 44883
44400 5433 28943
37619 7681 43687
28030 1687 31526
28632 1692 31506
35602 7426 51644
2562 14439 28808
19491 7748 31135
43405 6919 43828
2867 14049 29975
34665 3783 35196
41240 1397 28626
41852 7160 19270
40655 7946 34909
37185 8023 20674
39365 4255 35252
30141 7847 31757
26710 7853 31845
23359 7858 31911
42827 7836 23875
42036 1113 25948
36368 7958 43281
21017 3200 29294
42638 8140 34909
39211 2684 28414
14927 3287 33084
44334 7829 31502
22752 5994 29157
7325 14029 32720
56607 2122 30150
58145 2092 30210
62391 4921 28836
37902 7143 36565
43493 4252 28826
41739 7926 28938
24953 6161 34838
35921 7341 56059
70274 3623 34693
22801 4245 28838
39514 3741 28897
36795 7186 29450
39282 8491 43447
43967 7249 34909
42151 6975 34909
41683 6441 34909
37251 6061 34909
38984 6219 34909
51668 2575 29550
42600 8833 42280
44244 2893 35656
58379 5261 35196
3453 14599 37366
34781 7379 57808
38575 6266 29173
38294 6852 29173
11566 9472 32026
29626 5211 35214
40070 8182 32761
40768 8283 30868
40711 8275 31226
33275 2054 33792
46471 2486 28921
36848 7455 60360
41530 7848 28065
39201 8403 41618
2168 14679 32605
43536 1434 34555
4703 13784 32273
6218 13960 33337
70191 4950 29318
43857 8446 22195
37960 7635 55491
32416 1745 31207
30276 1798 30909
30928 1778 31020
45299 7526 20683
38602 7214 17777
20755 3139 34762
2327 14327 24294
63460 6470 34672
72853 4305 33472
39475 1463 34227
40487 7811 40100
2019 14173 29011
40705 2913 26676
14905 6597 29839
35077 7504 61972
35809 1864 33375
6147 14389 30560
45203 7097 43542
49297 7830 31520
16245 6630 34347
13053 4650 34084
43404 7964 38348
38081 7499 19390
39140 6668 20315
55932 5815 29079
46738 5751 29057
45725 9375 25230
10790 5385 30113
38103 7601 30698
65182 5282 35189
7575 13757 32310
7250 13613 32658
41582 7669 46289
43009 1193 28224
4629 14214 36318
41508 6859 27642
21895 6542 29453
40116 3381 30037
40906 3381 30311
41789 3374 30094
45252 2798 28590
35258 7136 680
43375 2602 32205
42898 2509 32205
45872 7222 30110
3290 14571 38291
38611 7633 42264
43757 7118 23209
43793 2025 28656
4317 6624 32611
42578 4447 35266
41480 4451 35266
43484 3163 32618
36779 7174 27363
54552 5401 28932
41983 8719 21004
19722 3336 29363
15484 3233 30752
19706 5409 28971
11818 7990 32195
14624 8168 32123
12706 7725 32209
72217 3376 33932
41160 3386 34766
40342 3397 33247
70907 6389 32747
41776 3376 33010
42230 3371 33154
68845 4092 28954
41930 7058 40201
36411 7369 51307
48006 6731 34460
47674 6555 34603
2266 14533 26936
37227 7387 46169
36611 7386 49051
42302 1757 37878
2612 14063 30784
3944 14571 31261
36815 7280 36666
43822 7453 22785
36501 7058 34358
37233 7325 51968
37810 7328 49019
44112 7451 40088
10140 6395 30246
45923 7179 29173
45110 6486 43106
37069 7261 16149
53113 2738 29389
38986 7681 44190
23736 6085 34873
4617 8860 32007
44613 1715 35164
46874 1760 29860
7972 14368 32282
4311 14285 27087
40439 7782 46098
43068 7272 42805
42347 7107 41491
3841 14351 32322
42877 1716 28438
51967 7768 31213
19781 7102 34142
938 14162 32087
41635 7743 31128
46531 7751 31154
66392 6801 29675
4711 8475 32072
45734 6073 22117
38995 7059 36395
8775 13784 32187
37369 7720 31047
35082 7687 30930
45578 4175 40618
7289 6350 33276
35964 2308 34264
13476 7469 32986
41669 2578 32205
45866 7954 23063
72770 4562 30686
70494 6328 30467
38569 7673 53301
14934 7522 31020
38967 7282 52915
51726 7861 32126
48868 7860 32137
38361 8599 42113
43332 3355 34037
43416 3353 32308
2817 14548 24579
37115 7400 18828
18197 6517 34591
63399 5692 35043
40809 7827 32605
40344 7849 32299
39841 7811 32713
33647 6169 34834
45897 4612 20404
37715 6341 22026
58597 2109 33902
46386 7668 34550
43999 8607 42025
46201 5289 35186
59806 5067 28846
67478 6928 29784
18033 4515 34973
41320 7814 44535
65292 6813 34393
37295 7110 28461
5661 14108 29522
37168 7299 22527
37014 7501 45853
37365 7294 57813
41401 7502 16860
41861 6819 28589
71613 2115 31807
11489 4334 33212
62234 7057 34151
3585 14568 27774
16907 2718 33088
28968 3738 35180
43485 3542 35420
45818 6752 22931
21799 6978 34273
18099 7829 32559
14009 3838 33582
43385 8698 21325
43394 6974 38767
16017 2984 30953
40924 4658 28819
41527 6881 26900
40432 7047 23029
43505 1213 32974
41712 2311 37665
5009 10353 32122
69145 6289 34492
45566 7165 41034
44374 8229 29840
1817 14207 33555
40445 7095 21589
34545 7271 4156
39489 7678 30897
40503 7814 38307
36431 7164 7120
38397 7148 8917
27037 7647 30791
37860 7720 31048
55300 3921 28849
46439 6897 34164
66426 2260 29870
45133 7649 22239
56998 5276 28887
34287 7207 3379
67646 3160 34959
37783 6375 29340
33096 2735 34687
65343 2868 29296
38253 7553 39353
5271 6759 31290
42157 3625 35143
36584 7303 58422
39458 7282 48629
66032 2703 34655
67028 2930 34819
25454 2720 29406
3244 14626 31411
30545 7849 31790
25854 7842 31680
33663 7857 31904
35607 7260 11073
41645 6990 23649
41548 7008 23202
25405 3578 28955
18924 2562 30223
45501 9817 38784
22502 7122 29993
37773 7425 23087
45615 6614 20346
33716 7369 63426
4544 14003 28743
45023 6398 34727
66461 6300 34773
57212 6025 34901
55364 6087 34872
53838 6203 34818
39914 6780 43833
45861 3423 20113
12954 7068 30445
38645 1564 29575
44408 7842 37327
64585 3325 35034
26824 2898 34800
38386 7123 22710
38536 7148 9347
7512 14512 32026
52668 5968 29151
30016 5832 29087
63883 6224 29270
59484 5983 29157
49922 6007 29168
44576 6002 29166
65509 7837 31619
53490 7849 31791
47951 7842 31691
54439 7836 31608
71395 3489 34312
60733 7859 31936
50878 7865 32011
44126 7967 28238
8057 7002 31929
37765 7244 20461
42925 2840 29058
6473 11148 31895
44955 7572 43715
18558 3498 34655
10787 5792 30021
67998 4868 35218
64664 5730 29049
40554 4015 36097
44915 6704 30038
18389 7082 34131
15418 2968 31758
14608 3205 31665
62186 1886 30654
66929 1926 30563
54015 1782 33076
51734 1770 33008
57181 1791 33130
21043 6315 34817
35175 7311 64097
14688 3506 33397
41039 567 34945
39972 3321 29351
38389 7540 17585
0 14545 41044
38198 7001 20303
33908 4365 35260
37992 6384 42025
41169 7930 29823
36889 7449 10361
35863 8001 43062
43064 8146 34735
44259 7866 32035
38340 1304 31910
55268 7231 33958
35347 1892 33439
34321 1918 33496
41060 3916 27672
36705 7110 43462
38476 7851 33924
70257 947 32200
27915 1646 31912
65866 3738 28898
5334 14520 31541
34125 7236 3003
7983 13837 32380
34898 7486 61444
37705 7303 52920
41167 7874 38774
68315 6634 29642
36094 3793 35200
13341 3598 32601
37546 7615 56765
40376 7718 23887
38137 7154 10409
39307 7717 50608
16482 7497 33320
46360 6826 29846
59713 3921 28849
73195 4394 30937
35949 7553 60148
39027 7077 22787
28260 5700 29038
39201 7871 29173
49157 6472 34670
35513 7438 53033
73515 4706 32177
39672 7277 49321
40785 7268 46344
42420 7971 38497
42086 7937 39693
48592 4097 28837
29841 6898 34324
29121 7380 30320
33573 7325 30226
19781 1909 32714
44234 7388 33744
40228 7346 33816
40558 2845 37430
39814 7507 12881
38731 7048 29917
68317 7454 30597
44489 7810 32717
35434 7322 8660
25285 7449 33640
28832 7423 33683
39411 1407 33799
5320 9183 32108
41967 6519 20300
37944 7334 47811
36532 7306 57842
41798 6072 42111
73901 4350 31768
36808 6581 20904
25515 1880 30666
58888 4098 28837
71658 6037 31825
59981 7292 33890
51296 7281 33903
38149 7464 24232
34382 1984 30431
35177 1984 30432
19867 2347 30289
41230 7039 39224
40918 7130 41358
35977 7195 8238
21874 2429 29819
4915 14489 32252
37827 7634 34638
38684 7569 14087
72894 4650 33205
38885 7217 19493
39014 7266 43208
39358 7612 18959
3745 14475 34145
53841 7265 30157
34750 7148 753
61159 7850 32282
59540 7846 32329
65697 7840 32421
67601 7840 32417
64544 6901 29757
15486 2975 32565
40188 7705 27292
35981 2108 30179
2160 14102 31968
45034 6735 43450
34090 7384 60637
45175 6863 20969
14594 7650 31573
48392 7863 32093
65189 7864 32081
73195 3018 33065
17243 5095 34921
41617 3954 28501
38174 7558 56110
64640 1986 30426
60608 1982 30435
35517 7322 9525
40948 1901 36911
42205 7980 34909
35422 1660 31762
45888 8080 42476
36291 7411 4555
45829 5992 45626
41028 7747 21424
42693 1175 28726
10220 9750 31885
7775 13584 31985
63067 4140 35244
38686 7004 29175
31798 6289 34778
36923 7328 52962
37226 7296 56807
39382 7711 42188
16975 7411 30554
41572 8396 34009
42973 8500 29544
16531 2676 32528
37319 7284 18424
37505 7350 48139
70266 2217 31280
46625 7944 34390
38086 7513 38048
51925 4218 35250
26455 6619 29527
43575 8041 28588
4477 6084 31899
40438 876 35416
35536 7313 10487
37723 7864 32078
29005 7861 32118
57460 1647 31895
68207 1671 32429
19891 6462 29398
52792 2859 34776
26108 2928 29260
31848 2803 29336
39188 7155 40064
39289 7035 36236
946 14359 37297
23219 1735 32812
29365 1687 32551
25366 1784 33086
57072 6874 29735
37043 7412 17050
41019 7562 16369
41409 7774 21752
46012 7659 43164
38630 7154 11672
42631 1267 31875
36728 7236 13434
45501 3189 29034
27355 4481 35268
38481 7682 52577
29975 2100 33884
37533 7150 6175
3240 14523 35649
39332 6957 29281
56724 3578 28955
37011 7323 34411
45077 5606 29005
41105 6525 29450
39742 3538 35105
14219 3344 31475
10477 7865 31831
10129 8112 31837
43620 8186 29875
70434 1940 31530
54804 7825 31439
45322 7876 41806
27898 7785 31275
26255 7739 31113
55516 3197 34981
35511 7512 58567
62005 2144 30105
65699 2147 30100
40993 6853 29243
37523 7633 55453
38308 7550 38600
36833 7366 42287
41395 8116 34909
6797 8104 32134
41735 7780 21523
12862 3668 31993
30278 6278 29295
45524 4653 40796
45465 8546 43527
35588 7453 53416
36573 7301 59391
6396 8228 32124
38864 7021 26805
19313 2195 30752
39469 7349 53048
43459 1441 32382
40105 7776 39936
40367 7023 23851
45811 7954 21830
1346 14528 25644
37899 6486 43265
4671 13947 29509
39020 7041 34793
46857 7800 30895
10501 7375 32761
10494 5234 33806
26400 1770 33009
30789 1707 32659
37004 7459 7739
38836 7567 20526
24738 7831 32551
29140 7839 32430
37700 7356 46707
34267 5294 35185
6426 8619 31950
4761 14488 31013
36456 1930 30694
39949 1717 34529
43969 6171 42783
11742 5371 29907
45809 6092 42029
56768 4832 35248
17890 5475 34965
17676 5171 34971
31027 3256 29069
68653 7153 33863
36341 4062 28839
37113 4175 28831
33822 1728 32782
34372 1722 32739
45450 8096 45978
23777 3043 34888
31578 2926 34817
36186 7396 3458
63028 2959 34837
60778 1859 30716
50893 2508 29616
4777 13991 35027
42792 7808 23349
18274 4600 29063
17026 5073 29189
53233 1972 30459
51396 1925 30565
33470 5014 35236
54969 1718 31360
63434 1762 31104
60815 1721 31341
63178 1707 31414
44707 7991 20482
39915 7754 45619
41337 7894 37107
42982 7396 33729
37673 7510 33535
45597 8040 18644
40923 7854 39057
41927 7749 20941
37125 7234 22865
37586 7618 50742
70284 6545 33681
39971 7552 13741
28060 7614 33357
34049 7406 33713
28554 7612 33361
35679 7287 12875
39950 8748 21265
42507 8650 20895
36982 7454 59996
28715 4342 35259
38868 7938 20300
67030 6595 29507
16598 3200 30275
5022 13656 32655
36203 7160 6041
69847 2224 30412
52827 2262 29866
40705 8580 41682
38619 1624 34928
51781 6747 34447
41001 8264 29173
42586 3875 36472
44610 8567 31874
9233 7393 31672
64309 1864 33375
61879 1890 33433
49959 1980 33639
43005 1148 27890
53671 3301 29053
45474 10865 22185
44974 7020 41883
49848 3756 28892
9422 10234 31804
10486 8587 31812
8779 10741 31816
8860 9840 31842
49115 4167 28832
41056 1275 29105
20716 1736 31450
44588 8422 29173
8546 8791 31876
34033 4101 28837
41002 4060 35897
38515 7860 29995
9051 7305 32690
35936 3021 29204
60091 5130 35228
40753 7768 27280
41188 587 36675
26590 3112 29149
41470 1752 27695
65318 3508 35098
37010 7302 36091
5530 7246 32087
19010 2538 33850
38500 7122 23632
42139 7672 20211
15239 7927 31944
12157 7896 31883
49289 4766 28826
37086 7176 10042
37742 7187 12979
15448 7668 32665
68909 5241 29038
44400 8490 41926
821 14651 23004
7670 9087 32184
42342 8453 33867
42781 8486 32442
25590 5193 28858
8175 10246 32225
3017 14281 31899
45893 5752 46231
39551 2186 28597
1629 14671 31368
17825 2301 32421
36419 7448 61557
36696 1952 34458
8775 7266 31335
38967 7650 39464
40778 932 34955
35692 6637 34537
35373 6860 34355
40340 6664 34515
17192 7726 31298
36822 7444 6045
39735 7743 40853
39670 7267 43971
25395 4348 28819
40915 3639 28957
35268 7328 6272
37145 7563 49286
37456 3593 28949
42176 7849 23757
38654 7567 15372
35619 7370 3825
67177 3556 35115
45447 9856 21859
38311 7189 21434
35288 7512 60825
38560 7671 47588
55104 5845 34985
54667 5890 34964
45532 7821 19085
630 14639 41122
35968 7480 33586
2800 14006 32159
41428 7767 21257
37004 7314 23303
46597 1957 29320
43415 7986 27951
41334 7132 20041
19378 2038 31173
61394 4315 28822
20941 2594 34361
2361 14001 31224
37089 7144 6410
41740 7291 33892
39018 7564 26424
10801 5344 33953
44941 6738 28937
41188 7341 48114
40684 7043 38785
58348 2353 34308
44128 7991 34909
42882 2748 34961
43722 7830 32561
61904 3105 29153
36518 7424 9104
22608 3507 35077
36484 7309 17005
34033 5545 35095
21167 5064 35237
38490 7551 11679
36115 7227 10851
4095 14065 27868
1146 14324 36982
18644 2440 33565
42302 7963 28746
43000 3462 35264
40144 7160 19952
42787 1891 26262
38993 7583 19053
1621 14260 29492
39860 1317 30737
72236 5445 31568
36873 7312 55224
41221 7891 22833
28347 3602 28946
52802 6843 34368
39966 2920 30848
2300 13692 32168
26092 1640 31970
3022 14347 33176
41455 1585 37326
24946 5481 28960
43989 8217 29890
43364 8529 34126
45442 7603 19406
69113 5627 29211
37705 1528 33173
37384 1488 32322
29055 1664 32351
19711 7848 32507
39017 7186 16528
18799 2087 32744
62923 7282 30176
68966 3784 35054
14732 3641 30432
21638 5364 35190
46174 5721 35032
35995 7394 5807
40200 8614 22161
69601 417 32278
40546 7269 47627
23750 1962 33598
41073 7655 47731
20362 7126 29999
42606 7153 20502
2733 14304 24870
5040 12055 32159
70373 7084 31893
40891 8635 20784
73040 2528 32235
14102 7632 32136
45716 11437 22691
38390 1636 29293
69801 6930 33684
40666 6503 34645
43839 7822 25755
38928 6988 29460
43895 7815 31379
18935 6997 34255
42451 6898 36498
34773 2432 34387
48264 4829 28830
38232 7647 47896
35547 7472 54973
8207 14315 32016
16809 3950 34520
42826 1799 31875
25725 4083 28838
37569 3936 35230
45155 3928 35229
36130 7381 51564
25436 4867 28833
46909 7252 30143
64376 2513 34466
61890 2571 34524
38378 6694 20414
41796 7856 42977
64510 2194 30003
39889 3407 28859
36959 6847 22351
41931 7843 24262
42178 7790 22108
18649 2324 30736
5611 8456 32102
14572 6444 29782
2336 14213 37855
72580 5316 31939
36764 7269 15635
32553 7819 31392
8045 12008 31806
9420 9877 31816
7820 11549 31831
6209 12632 31866
45721 8420 21837
61393 7797 32761
36944 6713 34909
60389 6936 34286
38004 7351 45812
10711 6164 34016
62661 7763 31197
49902 7802 31335
65371 7681 30910
16883 6632 29676
41042 7033 38882
40950 6923 35461
48299 3836 35215
39498 7173 11632
14741 6787 34088
36192 7561 58081
39622 8099 33118
41159 8340 33650
40882 8300 33273
34551 7071 29943
41017 7240 30130
40141 2382 32205
42091 1806 32205
41470 7168 17729
34751 3125 34937
38372 7499 23863
68780 7452 33399
40937 1160 27665
537 14702 32000
36873 7586 53947
