ply
format ascii 1.0
element vertex 2470
property float x
property float y
property float z
end_header
8370 16048 29188
73993 7256 26002
34286 3748 47634
48764 4201 32840
35814 9100 28303
38721 9103 28275
32652 4115 53764
18944 6414 31839
12363 9770 27566
23128 5460 22617
44904 8023 30550
31006 8211 30347
42161 1568 20719
31894 1846 29566
32669 1850 29525
38545 1873 29244
4633 15293 27741
39050 3211 22626
66895 2338 27232
19011 6943 32640
36132 3834 50942
38037 3589 17769
51770 3604 25253
55364 6567 31272
22172 6727 32355
44361 4203 36277
44518 3593 16768
10895 5214 27893
36467 5116 24894
41963 5101 24897
40024 1889 26775
12999 12672 28664
65610 3517 30708
34704 4022 47738
16214 12484 27626
18925 9827 29029
43800 4069 23174
63935 7603 30863
72614 1035 27423
37828 3132 33046
43642 7630 30847
49718 7643 30840
49887 7315 31031
50274 7671 30824
47398 7626 30850
41270 7558 30889
42664 1774 23207
4280 16349 27851
53605 9101 28298
20392 7294 23569
33794 1904 26057
40588 3113 34254
60187 2368 27129
37663 3446 15162
5983 15344 28560
12343 7628 27738
32888 3717 25063
39674 3226 19724
38161 1848 28621
24791 7340 30847
25200 7382 30875
21043 11762 28703
25206 8218 30196
48927 2325 25506
38573 3535 36220
41195 3841 25058
35826 3956 25054
37336 3688 25064
33707 4055 6046
18618 10557 28450
30847 4038 53343
45389 6259 31296
22697 11754 27491
37165 3418 18705
49316 3232 33253
24996 5510 22567
31996 3977 51076
12875 4900 27234
41285 3459 13028
8520 6337 28668
26737 7988 25619
55586 8198 25845
29755 8106 25745
37664 8217 25865
30083 5621 24890
15238 9363 27265
42335 4083 37770
38586 3252 31787
23659 2608 27380
8484 15656 26345
34418 3693 9977
43102 1039 23932
44556 4089 24679
11667 7948 28418
12800 8568 27613
41182 4091 12775
34227 1828 28725
45389 8233 30324
42237 488 22539
37827 3851 49389
31972 4145 55834
58494 5244 24890
46105 5282 24890
8682 5286 27715
31348 9066 27599
72569 455 28700
11665 5587 27082
17371 3982 29293
33564 3838 49836
26606 6755 24473
36651 4041 45837
37395 4032 44515
36965 4057 46035
39478 4013 41138
14174 5620 29601
50227 2946 24373
10144 6549 28428
56402 5046 31299
14171 8875 27437
66388 2241 28539
61370 2241 28113
9781 6586 27559
54506 8243 30313
49923 9104 28266
11857 16134 28436
32744 3978 50035
36149 3730 48033
21275 6772 24829
16896 9721 29016
41368 754 32288
35410 3762 7801
38126 3356 17365
8537 14871 27607
60131 7784 25448
11941 4732 28261
40116 2757 33590
38706 3335 17548
27015 6073 22516
37427 3465 41426
20238 10267 29055
52711 8973 29010
60989 8893 29248
60480 8880 29289
51127 8947 29088
66108 8966 29031
59036 8975 29006
72128 832 27852
24278 7575 30645
23526 7395 30654
15138 6279 26445
1394 15729 34592
1506 15724 33602
54556 4214 31107
61021 4294 31153
59034 4297 31155
65781 4175 31085
26623 5637 23157
2415 15809 36180
46706 3223 20092
25786 8051 30467
32602 3816 48523
33465 4145 1707
13900 10056 27412
14637 9678 27336
47038 4310 23157
70331 2780 29779
40386 3149 21185
41950 3791 43363
24707 9456 29063
22042 6267 31210
64831 5492 31316
55048 5807 31316
54020 5869 31316
26225 5336 23887
27001 6858 31981
38607 4118 44652
35451 4101 49250
40692 4101 41076
36921 4117 47256
36524 4099 47541
39813 4127 42929
41411 4041 38816
30668 4723 24966
24186 6172 22358
39606 3363 24920
46533 6235 24908
40927 7037 31182
10606 13716 27583
66833 3973 25237
28256 4585 31217
63327 2592 29589
29480 4075 56295
31082 5020 24912
47107 3060 21093
39534 3202 35794
73442 3195 30007
9897 16925 28319
53381 6759 31251
15660 8585 27232
37737 2533 25243
38122 3272 23231
23848 7562 23575
36121 3901 44465
3878 15870 34930
46307 3530 37140
12033 7667 28436
24718 11176 28995
68839 2303 28829
74906 3090 29599
16199 11680 28671
7299 15657 31264
47441 2885 33299
47969 2819 32407
48269 2797 32169
61484 2335 28963
56352 2328 28938
66828 7382 30992
25287 5815 31221
21713 6026 30814
35079 3776 47207
5904 15889 22422
6490 15659 32127
56049 6346 24917
35757 3705 42913
34260 3741 45403
36018 3712 42614
38570 3085 32538
37013 3708 41172
41166 2950 24880
19225 6917 23431
19563 6947 31955
74929 4647 30436
33157 2013 30587
43007 1885 27322
48958 6354 24917
19386 3391 29172
73716 2078 29137
25253 11499 28986
41014 3120 21488
23510 3726 25735
68027 5949 24933
34917 1764 28084
41871 1268 32503
17380 9916 27169
15060 11941 27539
39142 1910 26082
62393 3919 30939
66662 3820 30882
65402 4085 31033
13461 14218 28575
15669 12734 28586
39374 3255 19166
63571 2365 29065
37871 3687 48084
68879 2789 29820
42534 732 34144
2456 15721 25613
1965 15766 34803
47064 1917 26217
32045 6116 24899
41579 3788 33513
16186 10415 28867
14633 10150 28820
15946 10773 28817
40497 2993 24428
39770 3629 10172
16100 6435 29922
39384 3148 33691
77688 5735 26633
13419 13255 27552
46053 4249 32098
45366 4219 33341
9141 15504 28654
70294 8573 29551
23331 8370 26540
36507 8586 26326
54828 8758 26623
48764 8771 26645
26201 8543 26250
41641 8654 26443
50409 8771 26645
69571 2724 26476
70794 2904 26292
17978 8822 28709
56875 2241 28588
55793 2241 28191
1906 15685 35254
35690 4027 9662
42814 3610 14350
18270 8752 27957
40117 3984 10284
18211 9083 28868
8071 10688 27985
54197 5057 24905
32768 5009 24914
21632 7417 30400
67880 4085 31006
22975 11919 27920
17523 3551 28038
20788 6933 22756
20323 7282 30312
2420 15811 19622
1916 15745 33170
50396 3761 23827
73769 6050 25493
45666 1910 29644
13640 5039 29302
44313 4150 18403
40560 3230 19027
23859 2665 29097
15752 6732 29758
36906 3543 39579
41790 1316 22539
65319 6919 24994
37699 3509 42873
38468 3648 38472
32926 4008 2067
32335 3973 3067
32913 3883 5319
29739 2275 30493
1786 15697 34076
18373 7395 29896
13842 5023 26868
62595 5950 24890
57736 2260 27503
19931 5023 30552
41552 1602 32343
37759 3359 21029
18990 3402 27211
33405 5788 31316
39855 5743 31316
30393 4034 55379
19840 6102 32319
22469 11886 27767
73172 7314 30423
6691 14851 28478
18673 3791 29479
9429 6401 27588
2221 15719 31093
43548 3170 18550
41247 3175 19966
41354 3158 20310
43695 3094 20340
42711 67 22285
76085 7046 29499
43558 3213 17420
6926 15662 32262
5683 15668 34068
39296 3675 36892
39102 3258 36936
43432 3270 39573
26723 6370 24468
33544 8410 30134
34412 8360 30188
27512 8411 30133
24380 7559 32447
56482 6766 24956
59024 2764 29831
66401 2764 29832
64065 3083 30213
58198 2766 29834
2359 15807 37412
10399 11799 28464
67439 4051 25202
31192 6076 24896
41343 8910 29198
51027 8828 29444
29332 8840 29407
53055 8840 29406
30548 9008 28907
59318 8833 29427
49410 8824 29454
32391 8847 29384
24471 11929 27996
13408 7128 28879
52790 2121 26343
76842 5903 26324
64600 6057 24894
37011 5656 24890
26218 6920 32782
35314 9120 28124
40844 1865 28036
72343 7072 25454
3284 15713 30367
3155 15692 32862
3426 15718 29683
26041 6662 24039
37680 1881 26488
34453 3900 4558
24742 6884 31710
14543 5077 29526
29525 2542 30708
34434 2283 25399
35566 4141 50660
5529 15695 29493
6151 15689 29334
6116 15684 29843
40393 3715 35028
40524 3708 34608
42744 3960 33697
21131 11943 28159
71006 8699 29152
42350 1495 34220
43313 2878 25083
59707 2820 26307
39739 3418 14417
41507 3288 16804
39982 3365 15740
44079 1885 28738
39054 3012 31395
42586 2100 34454
56853 3449 25553
54075 3416 25593
42465 4128 15417
1725 15670 19043
40284 5732 24890
55731 2998 26094
22517 6160 30895
68817 2241 28099
23443 4871 25258
21229 8113 26539
26446 7045 22469
40641 3033 23592
33846 3719 10457
49240 3328 22711
37282 3278 36233
41495 1979 25838
30549 4101 452
42091 1950 23458
64088 6394 31286
42787 1900 29820
37008 1869 26847
34458 1862 26641
38453 3843 40580
39945 3947 39579
37530 3558 17345
77944 4204 26850
51564 5581 31316
35429 3624 11588
62116 6876 31222
76953 3737 26700
31477 3947 3909
5849 14606 28367
18948 6464 30431
56954 7898 30684
7259 11954 28241
495 15884 28166
66198 4539 24999
11850 6050 27022
47175 4215 21804
15322 8478 28927
2316 15768 33111
32066 3986 53460
32780 3966 53024
78956 3754 27783
18725 6236 22961
38745 3595 19399
34237 5366 24890
17859 10995 28857
40083 7090 31162
30020 7522 30910
26314 11204 27056
21551 5516 30796
71035 4778 31073
33742 6908 24992
76618 4837 29950
16141 12989 28499
36329 3545 40414
30746 2239 30728
44810 4164 23187
44271 4122 23015
35200 4480 31196
42587 3786 31157
67446 9097 28007
45796 3888 37535
19765 7503 26096
41943 3127 20687
42574 3080 21446
43424 3015 22492
7394 15671 26531
8370 15662 26839
6490 15667 24994
9044 5159 27859
11751 14107 28659
34427 3612 44088
7723 12893 27830
27173 10075 28646
39338 3593 35432
76215 5262 30100
6680 12534 27962
12790 6778 27096
7966 16039 27035
76714 4498 26330
2726 15106 27921
23950 8275 29937
38037 3700 7983
42603 727 32514
73619 7243 30337
62871 7428 25241
33667 3727 9228
33509 3762 8336
16146 8489 28765
58285 6553 31273
13339 5092 26942
26286 5220 31316
18368 4124 26425
41767 4136 14560
23163 3653 25866
61534 3315 25714
58424 8611 26368
29008 8490 26160
59465 8562 26283
63622 8555 26272
53426 8514 26200
63711 8761 26629
55597 2862 29949
62992 3345 30528
53641 3411 30606
54482 3460 30666
24237 11070 29195
23777 3985 25547
45811 3413 37472
45369 8911 27011
61844 8863 26867
43764 8819 26738
65800 8855 26844
37468 8833 26779
67062 8932 27074
35951 4088 4013
75794 4411 30148
38821 3791 8345
21406 11867 28520
6294 15967 31890
27355 3354 25348
62484 2250 28671
61885 2280 28773
36836 3893 12827
74007 4105 25682
33013 2735 25103
40992 3104 34296
44964 2865 31721
31796 4115 1401
73883 2552 27127
34534 4131 2388
57949 7983 25613
43107 2021 25792
52115 6028 31314
16912 5497 26111
12950 4569 27728
20257 8982 29176
35433 4121 6555
34622 4099 5697
41699 4110 16537
41496 4114 16142
34953 4115 5923
38711 4045 13107
40654 4023 16550
48920 3270 33735
8611 12039 28365
17581 3746 29029
67026 3104 30239
65017 3248 30411
65269 2672 29722
61100 2652 29697
42477 2514 30897
20134 6269 24952
54039 8062 30508
17500 11456 28618
39701 2638 22643
69114 2425 27014
39880 3045 23737
39638 1888 29528
40504 1892 29993
26189 6703 23478
17809 12331 28310
30117 4081 368
32750 1816 28620
32123 4011 2122
38583 3637 47079
4272 15655 20687
72199 4079 25385
9710 8616 28164
77412 3127 28580
47012 4281 33696
9892 8867 27934
38410 3888 48667
37417 2025 30530
44045 7222 25121
38883 2766 25106
41657 7073 31172
36499 7125 31141
24812 11646 28855
23141 5001 32311
25368 8781 26869
25529 11782 27527
59258 2241 28585
42153 3594 13470
19908 7203 23431
36877 3478 38939
21642 5300 22854
15520 8235 27265
22118 6834 24391
50259 3458 23593
5382 16133 28497
46012 7036 31183
48136 1906 28187
34037 3919 52038
11414 6983 28319
33586 6538 31274
14048 13197 27580
41973 1871 28062
43885 2109 25648
22723 6704 25338
23905 2990 26506
71952 1124 28012
20187 5483 31835
25675 2549 29451
42747 607 33667
7827 15986 25215
71564 2991 29988
3262 15843 34592
4709 15891 30980
4372 15893 32941
46944 6534 24932
24746 6099 25053
40555 3590 32513
41825 3742 32071
43429 4022 33121
42905 4108 36892
43787 4161 36146
19196 6911 33108
42451 6791 31244
8468 5185 28170
67964 2241 27749
40612 4000 39198
40396 4145 13136
21940 6703 30821
3831 15677 33659
5487 15690 30069
5101 15686 30990
4552 15685 31833
39995 3482 32136
21788 5037 32892
7282 15680 27417
5775 15666 23952
18908 9137 27634
45360 4168 24774
42653 4145 16877
6735 15680 23254
72912 0 27719
60128 2392 29149
65956 2457 29291
31646 4121 55143
31269 3929 4397
33076 4144 1506
63644 8238 30319
36465 3606 15339
22738 7910 26066
21318 5670 31620
25530 10158 28808
31609 4018 55895
39162 3161 34481
39822 3144 21693
72211 8768 28299
5786 15930 27619
4741 15909 23815
4905 15903 25198
54708 2220 28726
71735 8363 26528
14973 5766 26457
33268 3093 25088
78897 5905 28719
18563 6052 25812
26234 5792 32185
27756 2071 27430
25196 5083 33111
36788 3529 16607
47807 4363 31618
46107 4275 34092
15861 11489 28721
68460 4897 24992
42848 4024 41260
36103 3970 45225
75376 2665 28814
66892 2367 29072
72583 8724 28115
9908 9784 28369
61472 6359 24918
32868 4073 55672
32669 4144 891
79289 5463 28908
23189 6240 31504
37085 3663 31141
31253 4063 31157
32735 3548 31136
41866 3993 31154
38381 3971 31153
36290 4112 31158
68568 3806 25386
34287 4143 3318
73327 8576 28099
3099 15658 36694
5450 15668 32531
22636 11075 27170
12464 15552 28431
72779 2952 26366
20785 7027 31823
7079 13906 27797
32724 3956 6371
57197 2241 27731
55666 2241 27653
13805 6420 29500
36483 4139 5925
26229 5254 32580
40669 3809 31146
34351 4110 31158
31887 3345 31128
41189 4086 31157
32133 3060 31117
37624 3644 31140
16766 4500 29702
69364 8832 27159
53315 2077 27416
75092 6848 30065
43898 2520 30886
4446 15880 31450
4224 15873 31975
50018 1917 27846
78146 4775 26807
35752 3558 14846
60144 7894 30689
32293 3907 4807
14434 4304 27558
26602 6372 23481
71024 8909 28110
63009 4303 25048
34581 3928 9278
39879 4642 31226
47155 4467 31194
53211 4762 31248
42279 4556 31210
22397 2813 28897
35183 4128 50309
35821 4128 49244
37158 4135 47623
34573 2665 31086
41873 333 32277
36900 3604 11193
41457 2233 30705
2202 15788 20717
17376 3797 27171
26118 10566 29039
26092 11738 27470
30555 4029 55890
36350 4144 49588
12507 7605 28484
32309 4628 31223
77537 3819 26870
38561 2746 31095
52110 3158 25549
9558 13650 27639
2765 15655 37494
38235 6801 31241
73689 6467 25525
36144 3471 16222
30806 4020 0
22546 6397 32365
33869 2117 25520
10186 9110 28343
37628 3475 14335
44714 1904 27028
49941 1924 26959
50062 1928 26352
48436 2102 25748
33093 4112 3102
37852 4038 12026
33444 4097 4140
31497 3964 51646
40513 3025 22539
70164 6508 31121
39629 4145 11945
27227 2107 28564
73581 8411 28764
41172 1889 29249
50548 2683 30768
19889 8154 26892
65489 6279 31295
17174 4790 26246
34231 3822 6665
48271 2825 32681
34473 4145 52904
19950 9127 27045
69808 2241 28275
79151 4778 27192
41308 3681 23932
41541 3759 23127
72565 267 27679
34570 3341 47059
25932 6152 33877
43963 4471 31195
59409 4674 31232
48682 4480 31196
47910 4763 31248
38933 3329 38672
74891 7959 27216
8019 15755 31721
10726 7751 28209
19757 5468 33201
36309 1953 25882
21172 5059 23684
20283 11342 27852
39432 3976 15603
41262 4086 43336
43063 3367 15434
39264 3986 15256
1146 15274 28021
44057 7979 30597
37930 7981 30595
34982 8039 30532
13093 9864 28728
13163 9170 28681
71979 568 28579
42638 3240 38894
34539 3996 25052
2654 15605 27825
9043 5913 27431
38166 3874 41303
42725 2415 34160
5336 15673 21558
6085 15669 22641
36386 3704 8733
2937 15817 34066
24086 10673 29215
1451 15702 22210
55430 8172 30390
58480 7799 25457
45397 4236 20788
42925 1900 26343
27386 9808 28352
28987 3910 25055
39306 3489 22425
21362 9209 26995
19234 9967 27095
77959 6412 27724
37827 8458 30082
56788 8358 30190
58962 8410 30134
9700 6012 27300
23928 10194 27062
39909 3104 33579
15502 7295 29269
42423 3014 22581
37041 3188 25085
42620 832 23207
45491 3034 20624
45338 2984 21959
43783 3043 21539
46927 2917 22564
43935 3125 19377
48972 5765 24890
66644 8028 30544
23730 6116 22378
48877 3948 22488
23898 4726 30978
16357 8046 27784
42325 3895 42685
41868 405 23927
50515 4145 24937
47039 6173 31303
45583 2917 23258
10470 5329 27701
36763 2595 33557
18929 7407 30018
37616 2691 33464
38458 3105 23348
66195 7958 25587
21009 3583 26398
40617 2411 30849
68314 8219 25969
54037 4398 31181
27207 10827 29071
41409 3819 34414
40721 3686 33788
37421 3713 15548
43794 4024 16521
41662 202 33891
7269 11688 27991
39881 4144 44465
26681 3715 25259
12939 11619 28619
36708 3579 40237
38186 2698 25139
14295 12860 27566
80014 4410 28291
41370 3947 36814
40004 3746 36487
40099 3794 37136
55851 9058 28086
1081 16098 28122
30766 8574 29902
38951 8637 29793
39803 8582 29888
32064 8557 29931
29402 8571 29906
61609 8526 29984
33850 8595 29865
20903 9611 27023
21798 10070 27001
25426 7356 33480
45554 5929 31316
41798 2405 30833
37045 3559 43815
51754 6845 31230
44051 6826 24971
37549 3798 14830
20838 10849 29016
1265 15729 35300
670 15704 36386
41039 4766 31248
56852 4914 31275
40630 4071 44487
32904 3764 47799
38624 3565 36594
33530 1948 30329
22502 9475 26975
46439 2669 30955
68584 7938 30516
75427 5438 25874
45319 3182 37347
72732 2635 29492
48036 2933 33500
42163 3009 23274
22479 10014 27701
72181 8312 29679
66672 9111 27995
63983 9107 27968
6151 15966 31129
7751 16032 28642
49111 7974 30602
43000 1397 32999
74804 6028 30478
2897 15822 34739
71004 3319 30391
22032 3022 26938
31326 4156 25046
6373 13077 28278
9386 11053 28412
40275 2973 24919
38327 3190 24742
42061 8630 29805
34581 8580 29891
29809 8650 29771
43648 8530 29978
38105 8700 29684
31376 4133 415
42904 2942 32056
9558 15930 26373
27950 2968 25496
59538 5843 24890
37519 3706 7837
38783 3312 18092
33879 3812 6982
2942 15827 19374
21983 10927 27148
49093 1999 25946
51301 2000 25987
32061 3897 50138
70426 8225 30058
19035 6183 25738
14790 11876 28675
51967 2275 25824
41393 3103 34543
26373 2465 26680
46286 2938 33723
45096 3090 36706
46367 2977 34763
45317 3006 34777
44238 3052 35184
9787 15588 27575
25517 8676 29598
34120 3999 2057
33146 9122 28093
40072 9113 28015
18854 10824 27203
78529 3969 28983
37626 7179 25096
37017 7176 25094
17356 9105 27162
48328 2900 23099
41433 3539 43606
10715 14255 27548
38953 3363 16568
40541 8757 29585
45634 8680 29718
51314 8629 29806
53948 8689 29702
55630 8723 29644
62778 8765 29571
37883 3100 23749
50586 5520 31316
26312 6815 32004
40139 2198 25516
3131 15839 20034
8690 5390 28579
36606 1841 28110
37740 3460 36882
29127 4616 24985
37545 3628 10054
39433 3541 11124
38974 3579 10388
38576 3542 11729
40524 3414 13951
40181 3442 13405
36091 3787 6574
35834 3816 5943
39712 3482 12610
58130 4685 24973
48103 4657 24978
46132 4631 24982
19955 5564 32360
41776 4140 41470
42254 4035 19922
43106 4071 21231
43135 4111 19895
67284 2348 29004
72778 689 27992
33617 3787 7668
9487 15076 27552
36654 3649 41058
7670 11597 28259
23442 3253 29918
25699 3173 30293
14690 4636 29222
58419 4912 31275
64931 4956 31283
63576 7104 31154
44190 4184 37201
62342 2509 29405
22795 9762 26994
42011 8680 26489
56450 8795 26687
27616 8654 26443
39622 8736 26585
36125 8628 26399
27067 8638 26415
72314 2039 27083
15269 12342 28634
16418 12007 28607
37536 3811 41531
24481 5851 22400
35257 3602 44008
48094 8448 26113
44775 8389 26050
47283 8398 26060
74584 3547 26082
36363 3429 39715
42906 4120 18827
45285 4242 21749
68917 9002 27877
21969 5136 23038
8379 16036 29612
9723 13940 28593
32220 4141 929
60703 2864 26254
22408 11451 27378
6085 14102 27862
73459 2495 29061
40896 8176 30386
49420 5027 24910
3537 15797 29017
22548 2697 28528
31161 4030 949
70194 2241 28195
55403 7636 30844
18295 10284 28645
73105 3342 30230
46598 2830 31931
32115 7059 25029
47083 4218 34474
46442 1896 27743
10093 14258 27576
40692 1875 28980
36828 1842 28721
33657 3872 5464
53551 7091 31161
17503 9691 28823
3185 15780 26809
67219 2241 28109
35251 3759 48200
30643 3793 31146
27956 4218 31164
40728 2966 33657
32888 3794 7624
39150 3142 34007
55839 3610 25444
40046 3950 16742
39538 3830 17295
43056 2247 30701
34865 4054 48646
58457 9051 27465
41764 6051 24894
43712 4270 25041
77554 6412 27077
21790 7404 23893
46999 2755 25200
53094 5465 24890
54706 5604 24890
66225 5954 24890
62763 5477 24890
34024 4049 49545
20568 6924 33433
48415 3005 33728
18011 11471 27549
18795 10467 27149
65260 2614 26570
58039 2605 26590
59186 6604 24937
26514 5543 22828
33325 4133 2625
39450 4130 12592
35002 4140 4751
38010 3518 37217
41629 1813 21453
27537 10218 28852
31297 4061 2702
39782 3537 45140
39351 5985 24890
10029 13534 28583
52312 3075 30559
33385 9083 28459
46606 9098 28324
21357 8506 29230
22715 10836 29226
37029 3513 13705
68468 5738 24955
43019 6539 24932
8737 5631 27431
38566 3374 16524
35488 3714 9111
57101 3935 30947
66696 9041 28809
61691 9033 28833
63513 9023 28863
48092 9006 28913
55950 8957 29060
62211 5138 31316
37952 5103 31310
17041 4816 29945
38778 3637 18723
16050 7626 28979
21464 5887 33720
12157 13466 27545
48928 7593 25337
40176 7869 25498
47390 7626 25356
37312 7702 25401
31789 7764 25437
32462 7776 25444
43843 7640 25365
25066 5505 31840
37191 9074 28535
47989 2962 22476
5279 15861 34642
67340 3113 25961
36062 3831 5334
37326 3562 44109
46142 4000 36737
23341 11767 27973
37972 3263 36313
61403 2615 26568
56473 2626 26543
24335 5730 33774
20366 6238 31526
43018 3195 18252
40755 3257 18183
49939 6562 31272
18119 8838 27588
30387 9094 27848
22870 7450 32330
30325 2799 25147
25185 2408 27299
19956 9726 28854
23891 6844 33726
751 15678 37484
72524 1203 27853
29903 4319 25037
15155 4125 28603
2921 16087 28329
27039 11569 27503
42640 3223 17805
51963 6341 24916
35676 2300 25397
42275 2009 32600
9023 6528 27628
10773 11049 28536
41542 1635 22048
31482 4006 2367
13123 15005 27742
35265 7021 25020
44007 4057 32318
41987 1769 34780
37900 3799 7054
38942 3843 39887
65798 7635 30845
43383 9104 28271
31278 9099 28309
22675 2679 28047
74044 2368 27895
35912 1835 27577
25666 2257 27807
58799 4950 31282
51633 4916 31276
9379 16041 27197
38843 3133 33595
29136 6511 24930
41975 1216 22059
60274 3149 30293
59908 3236 30398
58712 3043 30165
6612 15121 27648
34664 7324 25181
33361 3885 5189
35553 4617 24985
43405 4140 17430
23640 6197 31970
40458 4144 12691
23681 6543 33815
18363 5552 23371
43797 4099 33896
42212 4036 36444
38500 3507 12792
39529 3445 13783
41172 3364 14900
35541 3831 5719
37049 3660 9485
37507 3665 9001
37767 3596 10797
4276 14845 27919
42618 96 32987
14750 14161 27886
3490 15853 35859
9106 14219 28579
39552 3746 18590
20794 6364 32358
65851 2924 26183
27492 2240 26691
51223 2288 25584
26637 2560 26389
30869 5441 24890
61173 5589 24890
65518 5647 24890
66143 5495 24890
56060 5476 24890
26721 5930 32148
23996 6805 24594
34059 3650 11249
42364 3362 41345
42477 7893 25517
41387 4145 41843
22484 10681 26979
74232 2710 26884
69363 2334 27275
44083 3865 16208
60301 2241 27590
70964 2270 27503
74618 6636 30386
22462 4086 30523
21096 3989 30267
41501 3013 32659
50916 3391 24341
3681 15723 27366
36503 3525 13754
26582 7198 22866
54525 3709 25388
76046 3566 29733
12273 14215 27569
21740 6844 31807
26610 7620 32996
15602 11811 27533
21118 2995 27328
1204 15710 34254
18519 5617 24080
19086 10620 27469
42051 3048 33631
32287 2399 25291
10088 15912 26867
77171 3777 29450
21957 4331 25617
18445 6879 23413
40990 3033 23422
67812 8866 26991
20674 3861 30071
41798 3475 42858
35462 3518 41852
33336 3762 47830
70821 7110 30898
19941 5515 23450
2926 15833 35595
20038 6359 25500
37685 3646 16623
16016 12812 27649
59065 7408 25229
16616 9595 28217
46142 4236 24828
27036 5070 24903
34916 3780 7634
11609 14294 27547
14258 11071 27517
46587 7285 25158
34119 1846 29198
32732 1835 29126
9625 10089 27844
42322 1037 32375
12334 12770 27563
4301 15855 30013
4785 15877 29275
3546 15817 30746
22019 8289 29529
9526 15688 26662
10579 8057 27959
69110 6223 31198
55019 5794 24890
6551 15672 30655
26684 4070 25055
60642 7753 25430
78536 6095 27556
72902 5532 30915
29990 4047 54782
22145 9265 29239
62518 9046 27422
19939 6031 24367
46217 2998 35179
43832 3043 34684
44336 3104 36559
44836 3002 34339
70396 3974 30849
5651 15494 28563
73349 8267 26891
47447 5488 24890
38894 6937 31207
14258 7193 27153
23410 9626 29191
74954 6084 25774
64726 4493 31199
62132 4474 31195
44280 5540 24890
37523 3530 43345
19948 6401 23717
42355 1201 33667
42163 2975 32308
33219 3826 6735
14205 4518 28928
41703 1497 33667
7685 15709 24292
52682 2124 29920
42269 1475 33207
68413 8790 29337
41245 9057 27519
59173 7987 30589
35138 3688 46232
77690 3449 27217
79754 4367 27611
19954 5667 23832
46726 2074 30440
56314 7328 31023
15954 12088 27584
76334 2792 28465
70871 8131 26087
3107 15115 28315
43817 6245 24909
35601 3895 4154
4822 15906 22149
8229 12482 28376
32563 4122 2048
41115 4068 16430
39585 4027 14807
35472 4081 7374
42485 4121 17554
42042 4096 17341
42111 940 23831
3295 15710 25442
2663 15691 22589
3185 15716 26016
29857 5215 31316
24685 3423 30381
26301 6639 22600
38528 1850 28230
43536 4055 31156
72614 7525 25770
32129 1829 27129
31496 1813 27428
35104 1860 26784
10871 13108 28600
45021 3646 17463
9981 12544 28505
30655 1994 30292
38150 3391 34804
67682 3152 30282
49620 5993 24890
73484 2899 26539
53459 3238 25806
71931 2835 29798
15103 4877 29538
49220 2017 30290
36794 3136 36626
29997 4723 24966
37423 4833 24946
37870 4883 24937
59794 7078 25038
43620 5720 24890
69053 8549 26479
61835 3885 25287
42573 2984 23530
4038 15876 21156
25534 2645 26592
71398 5741 25112
38323 4113 47850
24162 7339 22848
45333 4245 21215
8045 11537 27904
71858 7243 30717
47625 2290 25514
37247 3253 35566
36404 3857 12603
74548 6062 25670
18071 4705 26090
18536 6720 23097
55084 2426 29223
60557 2526 29444
9758 5185 28212
36721 4134 7941
41972 4051 18500
43083 4119 19436
43928 4154 38025
39159 3057 32300
24296 4969 25138
46817 1898 28436
24135 6764 25188
35269 3336 43255
54728 9120 28125
35128 4135 3466
22321 6740 22523
33820 7925 25552
48735 8022 25655
43554 7967 25596
38173 3950 49041
41451 3746 33097
47053 4924 31277
53526 4942 31280
41228 3075 33766
41787 4134 40130
38918 4138 45092
36678 4025 45186
36176 4040 46414
40266 4008 39928
35857 4043 46940
30740 1999 25850
61464 6935 31208
50406 6689 31262
37970 3398 16291
35204 7630 25359
23542 6941 24487
71419 7477 30632
19833 8052 29479
37428 3254 20505
8943 15998 26306
27081 6512 31802
47522 8438 30103
59905 8393 30152
48827 8451 30090
10944 13080 27605
38779 3235 25038
12335 14887 28576
76272 5858 30074
18597 8648 27051
76254 5417 26111
22992 6842 31793
41471 921 22539
25558 7654 23504
31709 4020 487
63467 4064 25185
22882 7204 33407
51653 1931 29488
50327 1925 29409
49001 1924 30012
37242 3370 38578
33620 4129 52832
39638 4130 43321
8269 13156 28437
37903 1846 28317
17478 6086 30196
76324 3791 26449
73370 2314 28557
3956 15875 21916
70025 2401 29127
34757 6439 31282
21381 9994 28782
77282 3267 27247
60404 8212 30347
21382 6210 31826
37194 2822 19514
41509 1896 26338
47363 4065 21128
37502 3547 12393
72626 7793 26034
47778 1940 30154
2590 15775 32176
20454 6811 31578
36723 3611 45072
42511 1873 33667
33972 1837 27218
36678 1860 27029
74033 8015 26814
44106 2986 22716
7056 16003 26501
37092 3750 6881
51277 3956 31041
20935 3505 29699
76944 5998 29816
42216 2125 21762
32412 6848 31229
33630 3250 25082
18213 6549 24332
45338 3745 38291
1754 15077 28133
46076 3671 37452
57199 6910 31214
19305 11185 27275
41883 3760 23953
42138 3775 24304
29214 1954 28662
30561 1882 29479
25417 9780 27286
25357 11937 28055
62227 9081 27730
17067 9824 28139
41207 8778 29548
47384 8660 29753
58272 8707 29671
38619 8764 29572
64838 8559 29927
33295 8811 29491
45158 2921 32812
44137 2900 31921
32605 4021 54719
32179 1813 28416
50278 2825 31376
72164 6108 25190
18679 6982 32772
42775 585 21822
25305 5545 24983
47877 6807 24966
17375 8018 27137
22897 5518 33629
54678 5197 24890
37187 5218 24890
24187 6247 32316
26934 5894 23991
36836 4095 5689
35844 4131 51623
68029 5053 24945
19386 9223 28311
79217 5857 27898
17993 4106 29641
70767 6850 25184
42638 5780 31316
24592 11208 27225
26982 6865 22422
39880 3651 21056
40085 3613 22170
40887 3723 22183
52001 7609 30860
43947 7407 30977
44895 7710 30801
48511 7482 30934
34399 7665 30827
40211 7755 30775
30447 4036 54801
47968 2788 24347
47413 2764 25037
47952 2810 23960
19837 10534 27169
19551 5291 32452
40921 3666 23246
53662 5615 31316
57848 5486 31316
37812 4141 8186
75220 3082 26718
3420 15852 35383
56407 4369 25030
30790 9106 28248
63743 5934 24890
42492 4138 15867
38052 3861 14872
75829 3572 26405
17113 11385 27526
39047 2970 36711
75579 6717 29943
36227 3674 46500
37971 3547 37817
41140 4038 12218
63565 3556 25475
66667 3541 25484
54720 6549 24933
30848 4052 53730
75705 7679 28922
41259 2977 31848
60560 9101 28299
63108 9050 28746
50240 9084 28451
53307 9059 28666
43601 9057 28687
57895 9081 28469
48036 2646 25283
29297 7407 25229
47156 3035 34891
77021 2955 27782
62487 7955 25583
34041 3923 4087
34774 3764 8065
24986 10644 29205
22557 4384 30707
22315 6276 22418
39148 3436 33226
40987 5263 31316
36663 5212 31316
59173 4953 24924
37664 3369 38851
69638 7258 25310
7217 14860 27682
43562 2987 22970
31709 7663 30828
40183 1871 27279
39151 1875 26997
26051 6181 23507
7495 15984 31226
47200 1900 28494
9371 15870 30242
42428 459 32999
3340 15433 28410
60527 3795 30867
71681 2409 27091
36045 3648 43413
30399 4014 2344
68991 7502 25405
37961 3373 17012
21611 4598 30681
27674 5426 24890
33447 8385 26045
49620 8398 26059
26767 8488 26156
48503 6959 25004
2628 15715 25113
46704 4251 21796
12373 6099 26931
33221 6432 31283
30430 4022 54080
34975 3659 10766
53388 6289 24912
73011 2255 28028
21182 9048 29209
47959 8988 27238
51013 9038 27389
38098 8964 27167
33502 8889 26945
26918 8977 27208
44844 8927 27060
52891 8992 27250
38275 1848 27719
48568 6518 31276
38008 3401 40042
37704 3336 18200
37965 3277 19532
35251 4027 9074
36451 3670 9658
71383 8086 26108
20537 6890 24002
19327 5758 22865
40343 3666 10772
25109 10309 27282
51142 5215 31316
42823 5149 31316
27471 2753 30320
28333 2364 30137
36612 4145 6542
37410 3463 14843
47089 1912 29032
33201 4018 54495
41589 3073 22270
10538 15658 28597
20672 5456 22816
25954 3490 25510
71944 4181 30891
32666 3885 50915
38888 1910 30122
33955 3858 50425
34318 3900 51593
5631 13974 27910
72986 328 28788
18680 6041 31756
11117 13523 28634
41809 1070 33667
49705 2734 25009
42798 1030 34185
45716 2375 30770
19291 9351 27503
35056 3466 9078
20038 6895 23902
4002 15697 31166
25533 4581 25056
23351 2584 27797
51816 7131 25068
64908 8395 26056
55304 8391 26052
50712 8340 25997
9475 14400 27598
22498 4964 32713
33046 3778 48204
25623 4384 31127
47685 6822 31236
42247 4145 40302
39283 4145 45099
3816 15686 23591
2834 15671 20686
75859 3050 29257
12094 8767 28531
39949 3848 17692
19926 9416 27948
31071 3974 52344
22774 9963 28383
18678 9483 28977
14726 11497 27505
38561 3289 37366
62967 3619 30767
36944 3839 50418
26626 2154 27694
45352 4202 23549
45290 4028 18590
38010 8875 29301
42644 8928 29146
36245 8985 28977
48586 8882 29281
53666 8874 29306
40786 8899 29230
29443 8965 29036
37955 3563 44627
39714 3492 43887
38391 3564 44973
36997 3674 47081
39370 3522 44486
36380 3748 48720
39233 3499 43766
38358 3597 45896
39006 3484 43143
26950 2250 29272
40092 2971 31182
35219 3814 49754
22697 11506 28784
64525 8127 30438
26787 2506 29799
70966 6536 31077
32575 3869 50472
2121 15701 22983
27411 5771 31316
72782 2380 27290
23196 6143 25232
40587 6335 31290
33170 3353 9225
41042 3211 22639
34503 3732 8956
45698 2860 24216
47633 2834 23700
69626 2435 29206
43030 3935 14785
32600 4068 52087
41634 2935 24919
37574 3339 37998
43205 1402 34065
23953 6209 24300
25229 10610 27005
40029 3601 45562
45388 1896 27402
67834 7356 25244
16646 9847 27196
20267 9852 27314
31694 4479 31196
71595 8804 28524
35086 1905 30141
25166 6637 23761
36004 3220 43443
70354 8907 28473
58596 4299 25050
11274 9012 27747
53388 2975 30153
43138 2919 31762
7490 16020 26558
43899 4098 38876
43780 3174 37921
43640 3115 36346
42366 3174 36962
40780 3180 36044
19983 3988 30079
45541 7571 25324
37769 7636 25362
36495 7706 25403
52012 7642 25365
45144 1910 26293
44733 1907 26525
35362 3580 12765
19900 5562 24406
28869 8146 25788
41859 8138 25780
35614 8090 25728
76979 6689 29172
30344 2822 31076
42347 3016 33152
61746 2241 28276
68768 8584 29699
40966 3872 36425
27539 9996 27519
20289 4461 30418
48178 2241 30650
25906 7361 25229
23288 10696 27150
13808 8271 27525
42970 6586 31270
21993 4997 32588
40413 7187 25100
53164 2403 29995
17765 7610 26696
8895 15660 26547
37916 2635 22595
72429 825 28623
8138 14186 27689
36464 3877 5031
13694 10772 28708
11301 11253 28540
15485 10542 28819
37925 3671 8534
16898 7936 29048
24442 6081 33856
51559 9071 27645
48753 9087 27789
46589 9078 27703
41922 9110 27986
59145 9067 27608
38241 3853 7388
15986 4507 26727
70276 5467 31161
22002 5457 25359
52262 8258 25909
73037 3083 29949
7346 16009 25741
26489 7584 32432
0 15575 28141
13399 7827 28600
19497 9626 27301
33679 6995 31193
22248 7048 31793
939 15727 19237
30946 9051 27465
21706 6965 25534
22127 7170 25599
9702 15752 29626
5750 15686 26053
5841 15694 27053
43716 2985 33264
46092 2928 33408
51744 5856 24890
74569 2409 28466
24655 8387 29916
69986 8923 28505
10941 9277 28443
72693 2509 28084
16657 10243 27263
2242 15741 25150
26931 6853 33805
18295 9151 27111
8986 12726 27756
6437 14312 27815
11062 16863 28072
25144 9934 28969
18930 7042 23834
34422 5094 31308
41350 679 23359
26776 10623 27159
23549 4265 30786
10386 15575 27600
70832 5933 31130
27627 9080 27724
49675 9065 27591
18181 5999 33193
74212 7244 30136
38454 3920 14822
38957 3776 17046
39031 3223 35996
40361 3524 24224
26265 6018 33310
37149 3992 43988
41625 4581 24991
10252 4991 28173
20072 6618 32375
62534 8547 26258
57820 8655 26445
66096 8615 26376
43033 8499 26175
64739 8785 26669
3891 15719 28970
40780 3949 25054
37752 3429 25075
41771 3928 25055
20929 6476 31519
20431 5896 33620
49138 2571 30861
37523 2991 22690
65138 2241 27569
8338 11075 28295
22796 6887 32112
20273 3548 29612
15674 13614 28312
3516 15663 20639
4412 15684 24159
42442 1126 23753
66378 7165 31118
42475 3765 13632
39344 6286 31294
40652 3765 20953
41838 3878 21794
58111 8130 30435
29550 3614 25067
7028 12759 27898
22795 7337 25612
25403 7398 25315
43268 3209 38456
40028 3290 38377
42787 2825 33787
45419 6426 24923
46211 4242 31377
35521 3658 45513
26063 5237 23137
38178 7366 25205
71739 8641 29095
36598 5718 31316
33843 5713 31316
18081 10658 28977
40589 5476 31316
2711 15754 26510
14644 5590 29684
68874 3341 25732
68084 3122 25971
46626 7977 25607
52093 8034 25668
51287 8089 25727
21591 10546 27157
26028 7068 23136
24486 4634 31033
24598 2408 28150
42421 3273 16569
40436 3310 16981
68039 4538 31168
15736 6322 26341
53513 2140 26760
40608 3267 38168
42004 3195 37273
39653 3298 38321
3720 15685 32901
30453 4072 1291
19133 3566 26850
42501 511 23714
40052 3744 19902
42472 4008 21004
41950 4021 19437
50634 2825 31144
56024 4020 25210
52050 3696 30811
63661 3565 30736
34605 3644 12323
8989 6631 28078
37075 3779 6442
19929 6047 33108
26776 5503 33125
41231 5853 31316
44695 6203 24906
10920 14575 27548
74453 7176 26109
18745 7096 26045
21734 5654 31621
40314 3075 33254
54555 2204 28119
24635 6174 32221
9049 16043 27027
34356 3133 12791
32179 4142 419
21213 5252 24227
34401 6074 31311
38215 2840 22543
75291 2733 27200
27657 3686 25105
35917 4057 8842
34872 4061 7318
25602 7574 23057
24647 7443 33297
75295 5530 30369
23845 11494 28990
960 15699 28260
38108 3800 15595
4018 15836 26332
3572 15828 24609
3342 15827 23518
56182 5469 31316
22374 11932 28184
41257 3053 22907
23105 11862 28496
41250 3644 31864
21854 9131 26974
32498 4153 25046
9915 11178 27726
6795 15666 30992
7251 15667 30297
42346 1502 21919
3529 16382 27914
22884 2726 28846
74220 2845 29476
42106 3272 39372
40953 3329 40149
39743 3419 41826
38186 3501 43017
42794 1043 22019
38754 3374 23089
35832 3663 10303
35560 3690 9733
21950 5900 33753
55339 4150 25136
36631 3576 12186
71508 3754 30677
30179 9025 27350
54053 9041 27396
36870 8928 27061
46399 9029 27362
26499 8942 27103
33164 8982 27222
28843 8925 27052
25001 11678 27669
37322 3610 16506
61349 2467 26893
60734 2395 27048
57814 3550 25479
2621 15713 31243
44816 4166 33071
24254 8751 27070
42457 56 34391
27156 3282 30783
43366 4131 39162
5015 15800 35314
20259 7341 25937
20887 11445 27266
40185 3040 32514
35519 1833 27827
11524 13286 27568
24867 9977 28415
45543 4022 18845
69868 2241 27893
20810 7274 24014
52662 3551 30728
16116 4156 29101
46604 4224 34927
49766 2874 24189
5130 15891 28699
4313 15862 30564
30405 6095 24897
37178 4130 6754
22248 2739 28291
39090 3302 38058
55722 6512 24930
16127 9344 28983
65062 6414 31284
25168 6110 22342
5957 15668 24402
4370 15667 22230
5362 15671 23964
9263 10440 27856
11570 14949 28611
4467 15881 21249
17981 12038 28464
35076 3601 42774
49319 3560 33673
25034 7582 32419
20423 6566 23756
36312 6719 31260
73487 5271 25406
33672 2165 30725
31223 2558 31045
45535 7899 25523
14943 4955 26660
25191 11198 27053
37937 3437 40994
12591 15581 27852
53959 7615 30856
40994 3440 43235
41369 611 33811
29514 2050 26304
76483 6215 26314
21359 6707 30851
11164 6755 28705
21578 5059 23290
35801 3613 14327
35288 3625 13483
22112 7443 23374
17835 7829 29219
8724 16054 27204
71471 8348 29757
69210 3721 30750
19783 11196 28313
54791 2228 27528
23978 10271 28895
7150 16957 28183
38250 3431 20972
5883 15661 23524
5301 15661 22761
8690 15663 27394
22866 6541 24662
46558 8366 30181
41463 8325 30225
65808 5306 31316
60013 5896 31316
64340 5619 31316
40996 1875 27281
40830 3847 11163
22839 7218 24265
24380 6469 24624
15239 11266 28725
37850 3203 31121
54901 8330 25987
60957 8284 25937
65378 8408 26070
59914 8380 26040
17554 8268 29072
35217 4007 53373
26150 2845 26209
79528 4246 28671
18958 6111 33256
45014 2114 25661
27224 9120 28081
43304 2040 30444
38046 3207 21291
79811 5118 27501
68739 8838 27069
27539 10536 29126
41094 3857 44635
42100 860 22031
26051 9316 28768
21601 6843 24571
19275 4288 30152
40915 4437 25018
41838 3270 17076
46970 5888 24890
38511 6088 31310
40614 3658 22623
50707 3971 24586
24855 6853 24258
35916 4017 10226
18347 5439 30355
44909 2247 30684
41739 1874 27436
57917 2447 26936
56094 2445 26940
12243 9161 27628
39874 3337 39594
42358 3289 40054
41229 3309 39790
35664 3752 48323
3070 15724 29478
71672 5078 31074
18202 5707 25876
15884 10645 27378
14677 10103 27379
24646 10149 27405
59196 8888 26943
62449 8872 26894
60657 8860 26860
47237 8817 26732
44283 8849 26827
63338 8965 27172
22328 5850 25322
9061 14921 28632
20118 6811 22774
41762 1895 29451
26444 2168 28281
53964 2143 28515
64528 6261 31296
38911 8026 30547
34454 8008 30566
37020 8081 30487
24450 5029 23967
43966 1945 25993
33337 3724 9371
33616 3699 9961
39401 3627 46357
39737 3538 33595
40371 5906 31316
23763 11762 28704
25660 10409 27232
58161 6149 24901
42545 3534 42045
9926 5453 27557
26732 6042 24893
64935 9099 28315
51231 9094 28361
55225 9078 28497
41534 9063 28633
46620 4562 24995
39427 1889 30015
44873 4159 32604
22129 6696 25360
43466 1888 28874
22973 5405 30958
20787 5560 30709
15101 6972 26721
33135 3909 51602
33096 3874 50683
39811 3124 34015
31645 1959 25810
61853 4587 24990
56823 4805 24951
62041 7551 25313
32697 3416 47024
32342 4055 4276
39507 2994 36675
38399 4139 9100
34916 6889 24987
42983 3228 38785
64211 6430 24923
45437 2192 25569
21400 7818 26178
9709 14389 28619
12933 11406 27615
34630 3846 5966
20923 6086 22505
45177 3099 19372
34259 3708 9631
26936 7627 23407
58238 3127 25939
33896 3310 9090
73935 8307 27419
53396 2088 29228
2424 15686 21705
3658 15701 24985
31940 4014 4662
26739 5873 33632
24092 11673 27386
18716 4084 29844
9354 5779 28868
32968 1817 27762
17870 9525 29060
72832 1716 28002
12950 4591 28540
38225 3630 46737
41823 3353 41477
38719 3582 45712
38063 3543 44125
38083 3588 45435
40606 3423 42586
18629 10711 29011
25343 5052 32578
15110 4071 28217
22348 8631 29260
18721 8824 29156
29042 5082 24900
3890 15686 32584
11800 4884 28610
45935 3037 35818
2997 15829 21431
5193 15910 26203
26795 7580 30876
30843 1852 26940
21815 11447 27404
33781 3755 47733
27007 4167 31162
44056 1898 27168
68692 3348 30487
5104 15923 23948
24645 11715 27759
26367 11921 28271
29083 1965 27834
38620 2859 33679
19205 7035 32211
31084 6324 31291
38243 3365 34150
26456 3184 25703
2752 15823 36870
42153 4135 16639
72336 4882 25207
9559 16941 27887
14976 13652 27697
55735 5082 31306
76085 6062 26093
74459 3240 26346
37218 6085 31310
43829 2908 24299
44636 2885 24303
64115 6017 31315
19231 4145 26145
19300 10870 27672
69454 3538 25566
22799 3898 25741
23089 6216 24368
77502 6718 28290
18452 6254 33287
44835 3152 18722
20878 3075 29001
42184 632 23207
20163 3033 28133
11695 13716 27545
72526 5668 25222
32771 2406 30916
31906 2377 30902
40937 4100 43730
21802 6269 25401
20532 3242 26958
13814 12820 28664
19353 7616 26297
72706 7584 30362
46107 4168 35882
78027 5488 26730
39159 3010 19466
29589 1927 28712
72693 6522 25316
2965 15799 23945
4422 15859 26503
20020 10973 29067
65256 2887 26227
36450 3895 43941
1564 15720 23133
52577 9097 27871
53593 9095 27861
40347 9085 27772
40759 9100 27900
39518 3530 33975
28098 5977 31316
63072 2652 26508
16674 8093 28202
50625 3608 32218
42917 4068 15427
39676 3195 20488
39962 3064 32850
23453 9919 28269
41592 2977 32021
9905 10643 27769
37375 2528 25242
70253 6367 25079
38406 3755 39711
10392 5581 28722
49209 3936 33378
25977 10619 27160
74623 5230 25655
36068 3729 13479
34590 3775 10918
37256 3619 39898
43714 5694 31316
9350 16048 28927
41707 1583 20683
39320 3019 31651
36930 4460 25014
23938 5523 22543
27800 2385 26225
10770 5463 27264
26110 5890 23811
47705 4178 34096
25079 9861 28113
30854 2403 25331
49495 1923 29288
48323 1919 29381
50899 1927 29194
56244 7921 30659
33433 4137 54939
38704 3345 32817
1528 15763 36906
21416 7241 33219
40325 3244 37402
6966 15968 24377
9465 12718 28483
34840 4145 3962
20384 9558 28339
47310 4275 22637
45608 3847 18342
37790 4117 48634
68855 8086 25873
24823 5005 32414
72389 1126 28361
44282 4143 22220
36703 3491 41642
4624 15700 26165
1988 15673 19748
22724 4591 25392
42439 2939 24433
41930 1731 32274
39790 1978 25818
41730 5418 31316
69247 2619 29609
24105 5016 33155
39722 3779 37782
44368 3118 19286
45131 3057 20286
44177 3145 18729
46157 2950 22259
42375 1093 22674
39778 3727 19531
41159 3906 19627
17060 12650 27782
25073 6972 31076
22889 7692 25809
19940 6746 24521
22967 7233 31966
43899 4151 35413
45519 4244 33811
43219 4065 34438
28544 2006 28518
35035 3753 44435
35340 3664 43064
24535 5595 31136
29674 6811 31239
31260 7680 30819
26577 9876 27393
43916 2874 31364
69804 4978 31166
33741 4009 54309
887 15681 37025
23688 9902 27040
43832 3454 40057
44401 2280 25492
18703 7744 26600
75709 5049 30243
26004 9361 27425
42163 3080 34482
41291 3178 36338
40169 3170 35395
41939 3173 36648
13854 4555 27342
35489 3790 6929
13906 9759 28810
11949 9837 28600
50919 3859 31703
5317 15780 35009
12172 5221 29076
1637 15746 21415
1064 15723 20266
22320 6835 30789
48611 1909 28591
42474 194 23932
57158 4011 25215
44433 4011 38736
26269 7158 23985
24819 4995 33020
35722 4097 48746
33656 4118 52378
31167 4028 55483
32233 4067 3699
50775 1925 27078
47419 1915 26952
49159 1919 27352
25673 6875 25036
23518 7507 23821
20875 11381 28977
16243 10082 27279
21709 7270 22991
39233 3364 31127
41669 3372 41929
37441 3134 25088
37069 2896 36684
29673 2248 25768
