ply
format ascii 1.0
element vertex 2544
property float x
property float y
property float z
end_header
7048 13863 32514
39447 4052 22212
40402 4004 22236
39369 4128 21499
30891 6307 59954
29922 6490 61241
48523 2280 41840
29539 8223 29201
24901 8128 29137
34929 8542 29419
22829 8435 29346
28675 8371 29303
30779 8553 29427
53008 5537 28734
50077 5610 28725
43506 5694 28715
32822 6465 7964
19084 9898 31344
50866 2828 29728
13183 6018 34264
46041 4277 28898
46685 4757 28833
47290 4355 28888
42031 1638 42191
40668 4651 17996
43062 4145 21778
43363 4324 21553
45814 3862 25263
39775 4895 16425
20405 3997 34553
39054 891 35762
6211 9862 31671
37098 4617 49321
25999 3771 29484
46076 2567 35097
8007 15529 32535
43061 4556 35996
42995 4376 34900
43131 2254 48634
37216 2629 35221
35746 1968 48843
48523 2259 23906
40292 2758 16155
38468 1590 48984
52929 9095 29888
37675 3453 27939
40055 3340 28210
36884 3373 28840
43286 3235 28166
38842 3732 25285
37494 3728 25704
45984 2968 29621
39445 3429 27641
40532 3491 26813
43057 3170 28768
36501 3323 29363
41472 3351 27710
44606 3022 29562
39046 3441 27655
11202 13390 32621
40337 1126 26736
30474 6032 56796
9201 11268 32647
39300 1704 22864
29112 6475 60438
29656 6299 58993
30856 6158 58305
37683 2630 16113
41450 6079 28670
8150 9973 32343
33248 2442 49833
23418 6541 35474
18912 4399 34699
43270 3186 39992
40123 5208 21552
37515 4762 21555
35291 5198 51092
36450 5007 49803
37583 4746 47767
17126 8083 35159
57090 3334 34393
36609 465 26763
50010 2319 33666
25646 7441 35300
10937 9782 31312
10662 5949 32172
21568 9758 33270
40127 2730 40275
16173 10080 31301
53696 7006 35419
5278 12609 31819
39254 9 37562
15862 5422 29352
39389 1825 23485
46836 9251 34108
51679 4173 29164
23570 3196 30464
21440 9113 34283
34194 1965 31396
18858 4031 29909
20330 3329 33339
40582 3466 13511
59830 2307 32083
40082 2232 41656
62828 1585 32501
27684 5619 35453
41385 1697 24373
41993 1152 24064
37379 4765 16327
34261 5468 14817
2224 22077 31927
30773 6312 56995
67268 8793 32470
46045 3119 28263
28863 6814 368
6132 19691 32325
40556 3430 28919
64530 6155 35140
17149 5133 35066
14332 6368 29403
34242 2296 29499
14206 12444 32566
15303 12016 32525
33253 3070 14636
69197 4250 30304
29200 6477 4991
27446 5165 35399
4521 13071 31878
14268 10524 32800
41562 1832 49903
56360 3026 34035
37388 5098 14966
62096 1276 32084
10873 9495 33537
38530 3869 28921
3342 14411 31954
38257 4553 35323
44552 5113 35393
40597 4551 35323
42746 2301 49478
14192 9690 33458
44595 3137 28961
18000 9723 33469
32471 4055 29030
60423 4608 35169
41491 3422 23819
26963 4043 29250
12559 8968 29438
9591 8805 29982
6030 9530 22758
12707 8891 30143
11768 9038 28616
9271 8967 28505
9929 9150 27130
5803 9563 22411
8776 9190 26453
8751 9299 25514
9681 9207 26569
8686 8958 28413
39349 1636 41075
8437 8392 30348
39504 4175 13908
55572 8429 34835
47811 7272 35362
3458 15288 32261
642 20226 32156
63687 2433 32564
40676 9058 34332
34798 8978 34424
31705 9082 34304
22116 9234 34128
26725 8941 34468
32373 5232 35408
30955 6122 55776
23263 6202 35514
67040 4491 29722
1181 19310 32001
39903 3059 23994
6048 9179 25543
5393 9360 23885
3258 19402 32340
2186 18073 32231
40262 1267 26318
32800 6117 54226
40213 368 26664
21601 7007 28756
41936 4128 23236
62001 6286 28805
45300 3435 23842
39843 1580 27853
38235 2160 27591
47446 3550 22858
5306 10584 32360
5144 9690 20424
7531 9041 26317
7348 9123 25512
6626 9458 22242
12793 6507 34420
38867 648 36323
61206 2229 31248
42936 1909 31439
47153 1894 31535
20765 4398 29237
38465 2914 48003
31961 2405 33935
11902 6015 33675
65815 3659 29914
39556 192 36323
17507 3680 32888
45814 1320 24337
10550 16938 31996
64335 2454 32358
51221 4980 35331
42360 3003 22097
46693 8425 29340
33880 8783 29584
35899 8686 29517
51085 9007 34391
39495 2066 23911
38321 3722 16078
31901 5523 11635
33098 5195 14214
35802 4389 20652
33399 5457 11539
7657 17831 32429
13629 9263 34018
9688 9414 33538
64971 6563 35059
36746 2488 50545
16289 9812 33230
34841 3182 35201
65066 9360 31301
37416 501 27157
39178 1863 41573
58464 3597 29556
44481 6727 28725
36760 288 35818
48882 3210 34967
8311 12556 31591
32511 6494 7537
34194 5267 15878
59864 5350 28758
42701 3787 23225
24286 3098 33649
26909 3102 33732
39297 1770 27017
48652 9185 29993
32912 4565 28881
48673 2408 23039
33352 5510 13821
35149 5210 16998
42009 2394 24554
40901 4025 23124
28944 6623 2272
31507 6159 5424
34089 2339 48914
49448 7823 29017
35186 8030 29093
54461 8089 29115
58231 8871 34534
46864 3587 23139
35845 4618 49424
8369 6735 32385
8027 11979 31585
16296 4003 32353
13881 4885 32591
10208 6206 32750
40263 2158 40163
57724 9742 30860
35892 9848 31086
58722 9814 31013
51264 9712 30795
42201 9869 31130
54748 9767 30914
44538 9709 30790
49339 7434 35303
10022 8982 33888
38333 2909 13504
31702 8318 29267
33016 8346 29286
27173 8542 29419
22264 8413 29331
38935 8410 29330
7207 11215 31613
34697 1847 32214
41337 4792 39086
40335 4691 39380
41240 4986 40292
42054 5032 39845
40551 4834 40019
36151 3991 28921
61103 9026 29936
48942 2927 41686
38361 1540 14884
55928 8485 29381
63730 3913 29495
68216 5965 34386
59686 6281 28673
34409 4061 14839
32089 5793 8828
29695 5371 35424
7536 7136 32703
38118 5659 13636
37018 5861 12324
43631 4830 22031
38665 5591 14603
41073 5227 18257
47979 4272 29612
43546 7268 35363
36564 1101 37702
34241 4499 35310
58008 8035 29095
50721 9088 29880
39698 2863 41196
40292 2406 40685
22890 4736 28945
34348 2730 49736
27362 3466 34475
20294 9283 30048
39784 2339 16008
40920 2538 29041
14707 12652 32491
7059 9053 26416
6369 9226 24874
8152 8707 29644
5783 9331 24018
40292 1464 23287
37833 1214 28705
44956 7680 28965
43195 7930 29056
47953 7986 29077
45381 3254 22320
7903 7038 32837
15801 4320 33179
64423 9478 31498
40988 5803 35475
7949 9902 32683
4844 9784 43942
11843 9170 36697
9161 9377 39213
8708 9462 40101
28710 6781 2864
29315 6669 3987
36617 1322 28533
47785 3380 35177
34063 3003 48668
52670 9854 33078
40222 9845 33099
37850 9901 32979
42845 9754 33293
45027 9777 33244
30640 9847 33094
46969 9798 33198
66204 9089 32930
19262 10083 32691
62230 9744 32620
35312 4796 14378
29568 6135 57278
50432 6825 28737
30295 2259 32636
8387 14047 31608
72202 5674 31980
63403 678 31207
28924 7854 29029
23890 7603 28937
48686 1351 24064
16523 8548 34848
33882 2700 49038
31855 5691 53848
40613 2187 39793
38542 2411 16038
63890 6433 28971
4509 11650 31911
46122 4169 38951
42101 4972 44717
47451 4151 36652
43099 4843 43172
4156 9493 32595
5488 9096 33040
52262 8872 34533
35763 3953 39838
35931 3695 37782
10736 16647 32254
5081 22162 32141
46233 3579 23078
38613 4543 46295
34409 3386 50029
5029 20662 31877
33606 8942 29711
65457 8318 29893
29411 6859 63527
38492 5081 49534
53930 4113 34973
43457 2856 35209
35745 4102 41056
3186 15945 31924
36661 4337 40545
38916 1647 15307
12087 13015 32635
12561 12535 32655
30045 6778 60269
28894 7075 63147
46607 616 23203
42611 744 40762
38607 3680 48079
46643 1987 31011
42091 1889 31549
47159 3102 42003
35684 4470 19937
35815 4673 17933
37047 4324 20699
38592 4206 21106
34961 5066 14575
36657 4661 17665
39352 4386 19041
35265 4887 16149
36815 4523 18903
38282 4275 20599
38568 4490 18414
39130 1733 49978
37495 1825 26538
18208 4000 30140
5333 9868 31824
45356 4610 25051
46621 4374 26526
42905 5010 21630
40208 5375 17120
32951 6454 5944
36449 5908 11064
27993 7133 0
31517 6340 7614
38372 978 37164
18616 4412 29513
63863 9630 32173
68391 3494 33466
12087 13320 31555
18918 10024 32199
56821 4677 28958
41643 1144 41711
3101 21307 32285
37213 4100 26008
29655 6391 58340
39298 1807 28395
38639 1313 35514
35226 4017 13855
31128 5701 53871
4034 13230 32276
47102 3506 28960
44695 3398 23300
34236 1871 32284
48098 1989 32846
51104 2225 32830
38235 5072 20536
37498 4981 20350
11367 8648 29980
69397 5538 34055
64515 5033 35071
48980 2082 24413
9750 11625 32655
46720 9949 32656
55474 9930 32788
52354 9934 32761
44503 9958 32597
34627 9927 32806
53613 9947 32671
59010 9920 32860
48022 2429 29431
37839 4850 49030
36649 5111 51025
35872 5413 11264
44903 3555 25552
46667 3229 28173
34513 5717 9006
43512 4012 22578
41085 4321 19600
44235 3811 23960
44991 3375 26419
33709 5336 49092
35969 4840 44458
42308 3361 35261
19943 5369 35361
46787 3408 22521
35778 4505 44613
38942 4326 44371
33534 5308 51250
39557 4274 44160
34399 5165 50286
36497 4464 44563
40372 4156 43411
36035 4852 48048
37211 4649 46652
34768 5020 49070
35615 4930 48601
18405 5602 35358
40939 4316 15583
35201 3997 15833
21397 5432 28754
34024 3053 49159
17252 9955 32766
52307 6729 28726
30139 6135 6546
29022 6459 3953
44163 4246 41471
40587 4176 28573
39555 4058 28472
44472 4575 29220
18759 9549 33718
33749 6106 10845
14804 8848 29725
41574 960 41251
8657 7732 30406
48790 3356 41605
36092 4328 49532
36662 2226 34834
33655 3045 49598
39033 1170 27853
31085 2805 29748
35217 3805 26092
35039 3511 28286
43166 3012 15772
68089 6389 29823
61911 5690 35348
50546 2538 34168
39830 3915 40928
39851 3966 41359
36429 4070 41031
63824 8414 34482
60391 2563 33235
33486 1905 31979
40138 1898 41293
56372 6410 35489
57196 6451 35485
48106 7214 28794
17956 9943 31345
35727 4389 15429
25997 5507 28737
51557 5253 28767
41780 5490 28739
40292 2381 22533
12272 6223 30105
38251 2419 36178
33603 3837 15388
47247 3080 39911
62138 1175 31194
57485 6543 28704
38546 4818 15008
4750 10415 31929
56043 9174 34197
39683 2544 40710
40309 2446 29092
44129 7941 35117
37789 8062 35073
47278 7924 35123
16719 9931 32922
62718 753 32069
9403 8498 30203
44576 3839 35267
41394 3742 35267
21689 5141 35380
17862 6193 28732
46322 4846 35360
43440 4119 35269
43630 4586 35328
41949 973 40415
5037 9509 41738
6666 8870 35568
38474 9222 34142
14022 11317 31470
7164 9686 21266
12237 9768 33199
60023 9173 29998
50670 8403 34853
64079 7869 29389
35138 4818 17263
35788 4527 19578
7996 12849 32568
64293 7249 29168
61813 5161 35290
37323 4012 40860
37667 3990 40797
41741 3813 40755
33282 5974 11205
30909 2122 32236
11348 8872 36971
11202 9095 37802
37283 467 28558
42585 4808 26093
38384 4533 24001
40443 4716 24749
19598 3819 30032
27125 9934 32761
32506 9953 32635
43416 10013 32222
37247 10006 32267
51651 10018 32188
39464 9998 32324
39829 10025 32142
33970 3948 48845
22245 6696 35456
50832 2904 34551
26233 2726 32907
16692 11048 32515
65398 6002 35042
35980 4086 13826
15650 4270 31321
1549 20244 32232
43052 3897 15878
39363 2054 30571
40107 2668 23159
15869 11455 32549
13274 13224 32546
10378 12298 31510
18282 6991 35455
23926 2889 31523
25336 2906 31281
39560 2546 41502
32955 5318 14525
30069 5935 8731
33948 2250 49330
41597 3789 23682
43456 3555 25148
43982 3509 25371
40106 3707 25047
42559 3675 24371
45354 3104 28656
40814 3766 24208
39338 3788 24589
38800 3910 40521
41482 3720 39795
43876 3303 36812
41174 3694 39427
44541 3209 36193
39731 3775 39615
45811 3066 35344
44439 3260 36628
63995 3733 34531
13219 12028 32676
40928 7949 35114
47915 7949 35114
38626 8083 35065
42980 2370 15725
24147 2653 32255
22041 3029 33175
34481 4974 49812
52530 4381 29066
28355 7419 28869
59949 9517 33778
30872 6595 58525
30170 6727 59833
33461 2578 48815
48523 1922 41613
35276 2231 34601
48206 8458 34816
46470 7243 28805
19424 3458 33260
41355 5259 22250
30066 6947 2546
61561 7529 35146
14939 10218 32837
61752 8017 34942
4068 19454 31832
42913 2691 24485
3773 15693 32303
36213 4082 23126
32013 6656 58229
30433 6893 61055
31488 6734 59113
33282 6440 8489
33056 5880 7325
39386 4530 17550
38611 4725 16162
36837 2024 33398
36658 2112 34024
35201 7612 28940
50988 2492 30292
32630 5324 13238
6888 16342 32496
59230 9096 29890
62974 1191 32983
8303 10305 31514
8698 9519 40893
36783 8131 35039
36489 3886 37298
44803 771 23830
48709 1592 22161
10292 13312 32630
15581 7980 29168
51735 2290 31347
33179 5578 13293
33538 3409 35136
37179 3930 48206
48322 3552 23110
28342 6565 3329
47935 2744 29164
23996 7215 28795
34775 7275 28817
34170 3275 14268
55289 6595 28710
39624 2504 22346
35338 4477 20037
33723 4921 16558
8526 8322 33854
56407 10002 31880
46695 10008 31915
42340 9977 31709
51013 9939 31447
48130 9958 31581
58436 9998 31852
44608 9963 31612
43885 3298 24044
43323 1973 33091
33438 5263 13407
44918 2288 29350
35225 4859 14740
6538 9682 21558
9882 9341 25453
8853 9421 24489
27542 3049 30656
36398 3857 26992
63310 2101 31210
55462 3129 30023
8287 7429 30672
32658 5683 9629
61606 4957 28938
11281 13536 31561
6039 19141 31801
7336 8956 30617
41714 3352 50679
9550 10911 31495
34121 2512 15333
41360 7469 35290
28644 7113 588
24553 6932 35428
51213 9360 33982
39285 2103 41189
34031 5772 12993
50985 8209 34986
45454 3939 40917
39447 1843 41354
39764 3891 13676
40494 3415 22760
38908 4892 41992
39205 4875 41600
2996 19823 31863
52313 3123 29825
65455 6036 29153
6341 9671 43917
16869 9134 29787
3403 13013 32038
12324 13862 31626
40261 4303 50101
7790 9099 38603
7561 9338 40999
10557 8632 34599
10529 8804 36357
9405 8817 36164
8131 9160 39331
12366 8611 34908
7743 9172 39339
8419 9183 39647
37823 6199 28663
51831 2212 32241
33590 4193 49543
44287 4085 23403
42081 1757 14528
49009 2351 30106
17384 3645 32330
40700 4201 48441
17142 8376 29140
11141 5855 32558
20696 5519 35420
11006 7775 34315
6893 9063 30717
33382 5280 50581
34397 5002 48372
36542 4318 42939
61221 3700 34660
18239 4183 34312
33210 5839 52286
33034 2188 30724
7053 12841 31638
13094 8978 34669
5128 9738 43462
7593 9475 40505
11379 9110 36294
11997 8871 34065
6104 9455 40753
5687 9666 42680
11372 9029 35598
7916 9400 39771
8354 9131 37339
16967 5759 28932
9389 13832 32609
38005 2479 13616
14157 7508 34893
24558 3279 30174
33405 3890 14379
39515 3063 40832
45063 2240 34705
42863 2165 34278
42202 2179 34406
25581 4592 28973
62963 1117 31569
34302 2537 14357
6788 9896 31602
67774 8579 32675
41740 3891 41475
40240 4055 42366
5781 9902 32616
55189 3288 29838
63155 2312 32903
17385 5443 35222
5014 17698 31778
25405 3490 29779
21462 5425 35424
41651 1984 31027
40245 2093 40507
4362 22165 32032
51146 7252 28808
54294 3301 29823
39265 5571 45561
36582 5973 50221
32126 5308 28761
64308 4618 34953
35236 3562 36496
35947 3398 35362
58080 2585 30886
36095 4736 20382
34588 2231 29814
64657 8093 29601
36870 1614 28475
17145 10851 32509
37884 240 37019
42028 4516 49120
14909 10885 32741
39801 2058 41462
40318 2036 22112
12621 9579 33533
48523 1854 23550
1785 19066 32225
28174 5242 28769
13433 6733 34695
56251 2338 32297
16457 5908 29015
5706 21157 32007
19495 3232 31916
43928 634 41294
48159 2408 34693
43529 4608 28233
40936 4233 28495
48950 2124 41907
57201 2873 33858
37778 9657 33498
29803 9581 33661
39623 9577 33669
33429 9582 33659
58670 9751 33298
51807 9703 33401
53009 9824 33144
58683 9586 33651
21553 3205 30557
44781 4633 40561
47227 3999 37285
38955 5467 49440
14750 12630 31686
22938 3500 34274
67993 8597 32072
25564 8904 34511
39603 1690 40688
39898 1889 40037
11679 13396 31557
51645 2268 32753
47554 1835 31948
36679 745 28767
35783 3617 48071
67427 5438 29589
39423 1371 36323
39145 4912 49710
23482 5816 35477
31335 6086 28669
35434 9883 33018
51267 9874 33035
28949 9740 33323
38561 9732 33340
41465 9829 33133
22808 9631 33556
28291 9733 33337
30225 9889 33004
34063 3274 14655
49108 2168 40002
59705 3317 34373
6554 9743 32925
41970 3982 42467
39937 4439 45856
40986 4202 44105
44215 9495 30353
52718 9457 30309
50137 8905 34509
57827 7275 28817
41663 2556 29047
36471 2199 48339
18583 6396 28692
63846 3135 34014
6393 15470 32484
36027 4672 28845
53174 2570 30919
57843 2775 30482
49029 5819 35477
54854 5760 35470
32312 3327 35019
29469 6497 3292
2559 19955 31918
41360 3724 50578
10318 10655 31448
55966 5016 35344
35332 3438 35013
35580 3688 36772
39514 0 28014
33419 5241 14437
28975 2840 33406
41785 9284 34069
13681 8817 34676
32854 6538 6313
43273 4987 23198
39473 5541 18871
45468 4661 26614
41304 5279 20256
42169 5148 21923
34790 6245 10192
36420 6005 12455
32482 6593 5624
45050 4715 27297
44520 4794 26390
45238 4699 25693
37439 5847 15084
32287 6375 56127
42362 7330 28837
37499 1976 31071
37587 682 36437
42641 2968 15035
31244 6736 5037
62164 2837 33774
6301 11597 32479
31619 6639 5979
28040 6971 1154
39014 434 28686
58685 2404 32749
70900 3897 32582
33235 6471 55907
42029 3484 41107
37206 4788 47978
63928 2519 32920
64270 3538 29791
40255 9155 34220
15489 12849 32141
45957 897 40181
35353 1838 32235
52155 3241 34532
38318 1820 27590
51192 2130 32046
22009 2862 31726
39563 4543 14873
33380 2908 50036
32700 6368 55754
58837 3968 29303
35743 5053 14831
34253 2334 14703
15752 8786 29588
40487 2019 50301
46404 3938 38307
47952 3521 35787
36074 5744 53738
47998 3130 39964
54214 8853 34546
7248 9140 37714
38104 1295 36508
32355 5899 53372
31686 5749 53084
5607 22110 32088
36002 3841 25176
37524 2828 13513
7641 11574 32582
12056 6923 29801
61907 2917 30306
8232 8682 34289
8812 8563 33278
5862 9307 39935
7287 8726 34299
65854 4813 29361
37425 5806 51173
46632 4473 36621
38171 5685 50127
35405 6065 54695
34823 6171 55404
42242 5074 43909
65019 3656 34379
42033 4491 15206
3563 9899 31822
39510 5150 28780
43688 4600 28854
45593 5114 28785
38495 1616 14432
39569 1060 37649
11449 15770 31826
67257 7458 34220
50304 6314 35501
58804 7641 28951
16833 6279 28820
47949 8908 29671
68288 3821 33800
39695 4838 23327
33162 5826 11917
37463 2450 50550
6993 8801 34876
7204 9095 37330
7042 8893 35652
6487 9163 38110
5667 9287 39395
46220 3006 24322
34272 5260 13045
9584 9400 24842
9068 9474 24041
9438 9442 24421
47171 7105 35408
43410 4276 40823
48067 1408 41997
13904 5564 34112
42833 4311 22774
17441 10095 31327
47455 5542 28733
39495 5600 28726
30453 5600 28727
41628 4270 14033
71093 3904 31910
42697 2476 42297
10591 9340 30498
21784 8148 35028
40132 2669 40911
54843 7381 35322
46869 3489 40464
55728 8906 34508
44821 967 40106
38404 4521 49542
33779 2618 14519
49796 2981 29457
50256 8208 29191
67853 4252 34187
46699 2216 21849
44083 3484 23724
40261 3268 47984
43626 2056 33556
7374 8796 29447
5346 9300 24586
7042 8832 29049
6692 8956 27888
15905 9822 30986
8782 9999 32246
35481 4000 24057
35842 3964 24221
42641 2967 14039
47291 2385 29312
34778 6113 8448
46007 4200 25072
48641 3771 29003
42641 2688 14335
5318 9729 32780
48844 9335 34011
40263 1900 22822
62941 9648 31326
49558 3705 29176
8364 8936 30479
48415 9520 30385
36877 9728 30831
53559 9531 30409
36391 9754 30886
29935 9724 30820
35606 9554 30459
49206 9552 30454
45967 9630 30621
30432 3167 29487
15622 6784 29004
38536 1860 32471
47361 4900 28814
46034 6943 35427
39814 3299 41113
12552 8315 34442
47338 3818 28941
66283 7346 34540
33913 5451 11289
13189 8949 35478
47670 1105 41757
63607 9336 30740
40292 2977 23997
32867 6251 54948
8059 6985 31318
29923 6919 62840
33881 3215 13812
36473 2160 50313
16663 4117 30683
36988 6140 35515
30538 6017 35500
33891 2946 35085
39357 3306 40511
25652 4011 29308
14772 9313 30156
39792 1867 22564
43845 1068 41931
63762 8934 30148
58983 4610 35195
12828 5775 30305
13049 5383 30777
16744 4578 29787
39943 3682 16096
36209 6411 28688
37423 4025 23170
39516 3980 22819
26940 8672 34670
30183 8767 34605
34638 8679 34665
30207 8264 34948
24307 8433 34833
26492 8455 34818
31961 5610 52094
35376 4725 44372
35631 3181 28942
19587 10343 32292
32004 6142 58724
34323 2814 48474
10623 7758 29948
36669 3746 28087
5638 16801 31745
39852 2277 40230
60483 8676 34608
8944 17325 31778
38037 3856 35612
40351 4098 35273
68927 7662 32880
28167 6890 64385
57777 2793 33733
59551 2538 33191
57936 9505 30364
31802 9490 30347
33103 6379 55485
15821 10015 31890
39522 2118 40684
47219 3249 22314
2698 16922 31941
20232 3073 32083
58204 9483 33838
10157 8726 30822
12992 8998 29304
10171 9236 26459
7959 9251 25697
11583 8980 29057
9764 9293 25858
7357 9446 23855
10817 9127 27578
8204 9319 25187
10124 9072 27853
40176 509 27853
29712 6031 7842
35127 4188 22998
66560 2745 32807
33553 3389 14058
28417 5896 28692
21078 7243 35394
10767 12636 32659
48334 2283 34166
29090 6578 35470
41121 6347 35497
34951 6591 35468
40083 7028 35417
60143 7299 28847
14981 13030 31863
58162 2533 33181
59449 2698 33532
37468 6709 28723
7674 10781 32601
64830 3066 33809
24206 2124 32082
37426 1352 37586
14121 13668 31833
67572 8621 31331
46491 1509 42179
29519 2461 31414
31048 2416 30955
51286 2343 30900
65125 7664 29421
63117 5997 35330
36513 4923 48966
59604 2418 31329
48523 3092 41159
40284 1849 32408
29778 6506 2885
28442 6704 1788
64686 8623 29999
31124 6849 28740
41705 3805 16045
39453 2240 41649
63810 2846 30504
54866 2327 31950
45255 3966 35267
54362 5322 35418
34000 3929 49422
40165 4831 35358
41065 4987 35378
41991 2057 15587
38353 4726 48046
59648 3280 29848
6768 13228 32085
66238 9166 32331
38640 1334 37882
39386 1302 23243
30050 6015 56366
46736 2491 35001
36580 4449 41478
13324 7943 29481
66330 9092 31488
42423 4434 35742
42637 4369 35150
44113 2987 42090
4689 9718 20782
4431 9761 20349
43962 3001 41145
41674 1814 32209
46619 3430 35223
33646 3291 14468
36978 3979 49567
38886 236 27861
14009 9306 30194
40014 1555 37914
11500 8932 34084
48523 2567 40715
28249 6665 61830
30647 6224 58849
30291 6315 59544
29705 2905 30398
7390 9622 31027
42300 2802 39737
47158 3591 36824
37555 5356 51237
30337 6783 62358
35784 5696 53934
41630 4447 44659
26482 6886 28744
36614 4502 19196
37248 4518 18749
35841 4925 15520
40098 4192 20548
38142 4541 18119
34833 4867 16537
35923 4704 17593
34415 5067 14818
36586 4746 16885
36418 4370 20553
20674 9715 30790
35293 2454 13849
39971 3408 23269
33406 2623 34843
12331 11868 32688
33529 5371 51849
15212 5818 29368
21061 9526 30375
31247 5782 10543
32050 5490 12830
779 21097 31987
52847 2329 31840
40962 1819 31945
31649 6465 3997
33587 6042 7084
48229 3315 40200
10691 9082 30286
64124 7227 35012
27411 6923 152
13873 8381 34592
5106 7877 32367
42192 4525 14775
35977 5182 12821
50975 5441 35432
35458 5467 35435
54956 4180 29158
44097 3364 37479
41270 3780 40278
43705 3363 37307
42324 3597 38967
43915 3430 38030
43297 3565 39054
40214 4313 27285
37446 3881 27833
42236 4491 27883
37859 4212 25803
38181 4180 26341
42088 4558 27254
47925 4761 35302
37501 4288 48555
6970 11573 32540
35693 2206 13972
48050 1062 23834
32626 6551 58448
43110 5014 41967
42352 3222 28935
8568 15344 31633
36403 4799 14380
42517 3558 40670
39955 2675 22222
49341 2023 31674
47339 1137 22313
58032 1708 32079
48297 1660 22051
56689 5878 28694
55661 5756 28708
25881 5211 35405
12032 6466 34181
60749 9768 31092
3171 14099 32187
5373 8177 32896
3979 17385 32365
34188 2565 29182
34742 2882 29021
4315 12671 32306
14593 13313 31840
61960 6791 28854
28035 6628 61274
29616 6821 63215
37024 5298 51632
1971 16898 32009
58768 8459 34815
2741 9878 32121
41516 5093 18627
47752 3940 27716
45115 1292 39856
34653 6207 53131
15424 9505 33805
8768 13761 32595
42678 3395 49567
55973 2456 31161
33693 3188 48788
37796 94 37804
41523 2501 35120
33568 8828 34563
31380 8825 34565
11579 10083 32815
42640 4213 21164
36317 5484 11344
47899 3566 23425
38060 214 26818
7622 15379 31650
49939 7556 35258
34441 5129 28783
11017 8821 33919
7277 9267 38810
11713 9033 35535
7888 9050 36772
10584 9228 37530
10343 9138 36831
41909 1519 24376
61315 9236 30199
29776 6335 4748
30607 6179 5813
29647 6043 56377
40122 929 28687
41573 1210 22403
33417 5520 53301
5643 20363 32284
22088 4564 35107
9040 9639 30948
56957 2908 30280
11836 11102 31446
39475 2499 40112
37339 4224 42645
39086 4150 42751
39287 4074 42105
36815 4520 15049
64412 7856 34713
33797 5111 47812
36823 5527 47343
35770 5384 47541
35822 5282 46948
35251 5370 47938
35807 5580 48546
38139 5322 45058
47599 2299 42320
36811 4761 20896
39316 5158 21061
41773 4566 14822
45911 3795 35258
27494 3954 29305
63777 1701 33046
6532 11323 32506
8858 8622 33948
8080 8618 33517
8228 8566 33017
7636 8965 37092
38403 4229 13979
38341 4271 43568
36922 4448 44603
39755 4331 44797
37822 4443 44977
38662 4293 43929
36513 4507 44978
35843 4464 44259
36718 1953 15626
63334 3833 34663
39675 7106 28770
35537 6262 35507
7169 14846 31665
19238 10460 32045
55445 6115 28666
53507 5889 28692
60381 5714 35433
37903 3239 28916
23884 3105 30835
62892 2360 31345
41706 2711 13560
40171 2859 41563
66017 8971 33321
38351 959 27551
45133 3337 40183
4065 10898 32099
43800 9181 29989
24155 9431 30278
39343 9335 30167
49562 9275 30097
40787 9344 30177
21924 9454 30305
5972 20849 32188
39867 2510 41241
45333 2380 34930
28727 9220 34143
26084 9338 34007
27119 9170 34202
39039 4183 48417
19672 5055 35209
53376 7165 28777
20566 3547 30188
43687 4000 41452
40873 3696 22929
38436 2000 33239
24983 3684 34578
32969 5256 50485
35040 4619 45365
17877 9013 29655
42995 2911 39782
38013 1635 37318
48866 10014 32218
58819 10032 32096
41476 10029 32115
43992 9979 32457
47084 9992 32369
41390 3139 40005
32577 2937 34922
35992 2802 13530
4597 12916 32322
7543 19031 32296
12093 9911 32736
18264 6568 28674
70494 5614 33557
33648 4302 15180
43546 1984 24548
36272 5642 48455
30613 5799 9629
37660 1579 14553
42340 2983 48046
36690 1712 14594
12348 8704 34297
72253 4712 32385
71425 4124 31841
48523 2729 22437
42938 3572 41154
57020 4307 35084
22815 2918 32945
23528 2759 32507
42984 2847 28981
36035 4160 39918
5128 8887 31256
13321 14514 31926
12348 15428 31993
2209 19070 32259
14414 5353 30021
15660 8073 34965
25040 9540 33750
27577 9532 33766
54515 9680 33450
49333 9591 33640
55072 9669 33474
43462 9590 33643
34101 5062 14664
4439 9916 31719
63648 3412 29816
40772 4505 14510
20602 7078 35423
40853 2227 29353
45473 2250 29426
38822 2275 29220
34568 5222 16448
32880 5461 13686
67873 4949 34425
33593 2990 15016
4397 11232 31944
7979 7224 33165
11118 8859 27080
14119 13110 31687
14993 11435 31545
6139 10869 32516
63376 1027 32991
10304 13084 31535
38870 5634 17364
38509 5697 15355
44306 4830 25449
43803 4893 26471
42994 5032 22181
30078 6950 1891
44179 4853 24623
35743 6105 11346
33278 6470 7777
41124 5310 19181
42479 5109 21237
36772 5733 15651
34551 6136 11366
36588 5796 15122
11777 6111 30426
58399 5931 35490
33348 3373 49645
38976 5028 14647
63017 8491 29636
43622 3064 39898
35262 4407 35302
34377 4959 16141
34656 4820 17246
32559 5545 11486
54815 3202 29938
37577 128 36248
28297 6485 4182
7637 9600 33195
37713 5807 48781
31051 6804 60456
32922 6523 57012
34361 6309 54797
32451 6595 58043
35041 6209 53863
30087 6948 62163
44766 4764 38449
40239 5433 44962
46486 4510 36013
60736 8232 29280
38056 4453 24226
40058 4466 26017
39266 4246 26875
40812 4545 26147
38647 4151 26992
37779 4106 26498
32946 3188 29119
47306 6405 28687
60845 3308 34345
40336 3068 41856
38033 2067 33701
38548 2077 33772
44353 1848 32399
46513 1956 32993
6938 12197 32528
10573 10035 32795
17695 4282 34327
35347 7487 35283
10284 6081 32182
49629 3876 35033
39132 1433 40815
7235 15675 31669
34235 3084 13911
36798 456 27157
57547 4981 28846
51976 5096 28804
45456 3427 41616
36389 3824 48139
39102 5281 43965
35325 5667 49449
36684 5257 46033
38207 5108 43855
33407 5452 49985
31933 5839 53386
21863 7503 35277
19671 5791 35432
27334 3972 34852
32155 3476 29158
35612 3882 25903
57758 4155 29176
42580 4060 40904
40665 4524 14994
38197 390 35503
36670 2185 29648
28556 5143 28781
42681 3421 13897
37330 5275 18636
36552 5510 16676
36558 5208 18288
38784 5230 20198
35517 5373 16463
33471 3461 48438
42353 1785 14931
38817 1534 14834
27504 7066 64016
68254 3753 30405
37151 2839 48012
12923 9838 32924
35372 3908 25427
48553 3777 35145
45441 1461 24411
34409 3310 15187
30035 5426 28747
51304 3939 29323
8208 14681 32567
45331 3554 38343
44854 3574 38742
37648 5060 50156
36387 5329 52198
32795 6092 57988
44835 3427 38094
46667 3107 35451
36234 4372 43372
35614 4644 45531
48437 3028 22180
35353 3926 39471
35674 3867 39102
33331 7422 35307
37094 3671 35093
47141 3447 22609
40021 1586 35599
8271 7973 30428
49255 8479 34801
10657 8491 34111
42002 2470 13687
39178 3139 23919
42558 4629 37000
40786 4330 36479
41832 4442 36309
40135 4357 37291
37485 4068 37675
40640 4516 37981
39454 4374 38054
19699 8458 29307
33272 3390 13800
3229 14952 31949
43474 3561 40695
67604 6474 29708
33999 6316 7722
33196 6474 6657
39121 2668 23288
39586 881 36594
5472 9728 43282
54484 9445 33883
32630 5957 10734
35621 2044 33436
43208 6524 28701
58294 4798 28914
13962 6247 34639
39093 2543 40709
55408 7945 29062
34508 4525 20077
33655 4906 17325
34443 4597 19643
2494 21530 32271
37387 3683 29265
50100 3518 34878
63449 7411 29126
39275 2307 34993
38262 3340 29873
54575 8785 34592
39591 1876 31622
35096 4355 42574
53918 2732 33603
54308 2612 33349
44058 1882 24537
38215 4032 28922
71434 6175 32288
34931 5932 12884
35108 6059 12299
34403 5993 12070
27841 6917 62781
30826 6707 59227
56399 3682 34679
7264 12059 32551
39818 2394 23780
45767 3604 22873
46747 4047 26142
45750 4041 24908
39869 5197 15942
41210 4306 22714
18454 10007 32810
7669 15844 31654
49047 1207 23747
2567 19105 31889
51081 9157 29960
38401 2524 48099
61411 9862 31873
39005 4108 49307
33259 5664 54722
35207 3365 29625
35004 3680 26886
8577 17591 32385
46167 584 23199
6622 11838 31673
37658 4691 42064
69525 5000 33957
64667 9190 30744
11839 8264 29770
8324 9090 25513
7344 9478 21807
8385 9275 23590
10763 8552 30350
7623 9335 23193
9584 8882 27287
10821 8651 29306
62527 2646 30798
59457 9904 31215
57781 10010 31930
37112 9991 31799
28082 10033 32085
39516 9978 31712
47031 9967 31637
3357 16344 31897
17058 7711 35308
39854 1396 41400
20028 9918 32941
5393 9481 23047
53653 4474 29033
30937 5671 53282
34517 4555 44248
32405 5382 50456
48052 3495 22762
22545 3096 33576
36552 4920 15221
34907 5199 13310
35943 5093 13784
62460 6231 28828
37492 2073 30440
13777 11637 31484
5531 7837 32626
9384 16729 31739
25335 7972 35106
23129 7701 35205
5176 18878 32390
42877 3605 13645
63239 3383 29799
66072 3471 30104
63810 7695 29271
59113 6141 35515
35418 4529 44679
34222 4839 47084
65079 8223 29737
38871 3343 28916
13352 9932 31346
42333 3871 22622
37768 4222 21345
46275 1610 24462
42220 2101 42314
52314 4062 29239
29605 6609 59619
21296 7549 35276
13786 8849 29819
4757 8299 31456
60259 3802 29432
20501 8557 29401
25549 3545 34482
40154 1419 37116
39268 5495 44965
37878 5703 47388
38260 5580 46338
30717 5920 8359
31769 2639 29743
20319 9756 33303
41645 4318 41437
39407 4529 49481
17873 6756 28688
6781 8891 28468
9005 8661 31052
7706 8609 31132
6254 9143 26171
36686 4750 49333
31520 2579 30222
33510 6938 35427
42828 3077 22954
9752 12510 32640
31905 5899 28691
39011 4537 17710
35865 5129 13454
36912 4890 15314
6565 8152 33340
47664 2107 21863
39906 8814 34573
20871 9122 29883
41967 2833 28969
48027 5569 35447
66168 8699 30422
39119 9055 29842
25307 3738 29533
28269 9021 29803
32984 9284 30109
30504 9163 29967
22610 8982 29757
31625 9283 30107
42655 9252 30071
0 21017 32086
57653 9278 30101
29537 3899 34872
70338 3510 31943
31071 3392 34856
28788 7380 28855
39445 4732 16673
39805 4628 17378
47094 3187 28641
38443 4868 15402
41283 4281 19907
36724 2369 13693
62208 5173 28908
42846 4816 37902
39534 4676 39995
40969 4782 39350
39221 4568 39645
48797 1170 40408
53015 6196 35515
7957 13703 31623
38649 4727 22969
4457 19038 32377
34319 3527 48838
61225 4937 28928
39985 207 26313
57408 7909 29049
39928 1649 23384
63349 6766 28940
33434 4907 47350
35413 4377 43222
30751 5711 53765
18134 6348 35471
34337 6245 28669
33682 6263 28671
43751 2753 24459
44342 1834 21890
39421 1896 14004
52896 3792 34754
49465 5881 28693
23782 6597 28710
45391 2865 29007
23977 4410 29080
58437 6373 35494
58824 6555 35472
4356 17621 31800
45616 762 40365
41656 4208 48450
37360 5662 47599
38072 5644 46875
36322 5735 48933
56553 7724 28981
7425 17086 32464
29312 6970 2053
30289 6794 3967
36855 4756 49789
14216 9497 33741
35653 3808 35240
37110 1597 35410
45991 3662 41274
37662 2314 48184
41650 3730 24214
40967 3623 25503
44950 3146 28419
42415 3567 25451
45695 3120 28365
44752 3237 27636
43138 3660 24288
43015 3385 26933
33381 3851 49871
31692 4304 35185
5494 12991 32405
56895 4935 35315
60737 4371 35069
60504 6882 35392
35632 5268 12133
12797 10211 32825
50158 9202 30013
4473 13966 32313
53110 4884 28882
36166 5250 49330
67836 4065 30103
41353 3241 16195
37823 3543 48023
51921 9156 34218
33522 3829 14711
39629 2234 34888
39977 2161 34372
32277 6605 6674
69836 6985 32730
42892 1961 42299
40806 5186 22344
44882 4609 29331
28051 7075 28767
34931 2088 33651
33504 3537 15058
45610 3897 39210
39526 5001 48298
44432 4046 40783
42271 4347 43749
35664 4339 41692
35990 2215 34706
22591 3655 29709
33443 2252 49312
41966 9622 30604
26186 9776 30932
38461 9708 30788
27070 9818 31022
50658 9530 30408
33816 9695 30759
44797 9558 30466
28430 2734 31200
65592 2574 32441
61927 8559 29596
38711 7342 28841
66305 5407 29350
23161 2699 32039
24334 2895 31451
26204 2942 31079
28339 6607 60544
40541 1509 41803
41612 3282 22955
34384 4752 17862
34790 4634 18790
34059 4840 17169
36470 2897 50667
24695 4690 35217
4409 17018 31982
34119 3736 14922
8404 9295 40801
9481 8658 34552
10268 8933 37614
8521 9123 39060
9812 8678 34851
10101 8789 36078
9407 9042 38487
10997 8589 34284
33504 5563 53812
60748 6423 28742
59093 9983 32428
43861 9903 32974
58516 9914 32895
56519 9949 32663
57934 9925 32825
30117 3384 29457
38819 423 26246
39842 2018 15803
55236 6697 35456
44439 9309 34041
8448 9707 31458
46484 816 22540
40705 1719 24251
43003 3347 15790
47196 2854 35153
36758 4740 43215
20971 3695 34271
39300 1372 35503
40940 4197 20079
33807 5662 9132
52258 7611 35238
33609 5059 48825
32801 5568 53426
30692 6013 7440
5688 20641 31922
40292 1394 40912
42335 3795 50509
39645 2126 23421
17555 8725 34760
5205 18104 31773
41496 2686 16105
38805 1571 28352
62208 2374 31692
6564 8633 33448
37572 936 37036
11329 14744 31652
12339 9105 27955
45901 2975 34592
41752 3248 35683
39729 3332 35811
37966 3591 37468
37559 3416 35890
41508 3367 36605
39129 3346 35758
44794 3136 35617
36568 3329 34884
45164 3077 35226
36717 3606 37236
39505 3206 34696
38460 4921 21570
39779 5046 22152
36241 4096 15842
33360 6343 55055
48666 2721 24386
37292 8219 34979
4318 17064 32386
36061 2178 15778
36793 3537 48020
60561 9963 32050
36265 4012 38509
50222 4500 35155
26133 4874 28837
62565 7126 35224
5571 10021 32161
33376 2231 33958
66133 6951 29484
61923 9624 31008
38365 4678 28844
33242 2988 48347
26384 6914 35430
29219 6296 6056
38136 4107 49385
34712 5239 51163
39123 297 35488
56729 6125 35513
8195 9249 23915
10032 8664 29409
8458 9027 26119
9718 8708 29042
10807 8785 27933
8586 8960 26781
10752 8691 28921
34913 2283 14140
39300 1862 40122
29096 6298 5566
10738 9240 25628
41547 4018 22715
6170 9125 37875
5884 9213 38702
7637 8960 36052
43389 707 23702
41679 4712 18885
47203 3689 27216
46760 3767 26555
43692 3126 23121
37590 1494 27928
38003 153 35874
68526 3149 31257
39786 7197 35390
36733 4014 23505
39792 3932 23115
36380 4276 21461
35819 4642 43538
53738 7506 28901
17512 3857 33454
13724 9711 30786
41578 2888 35230
61409 3141 30038
33532 5584 10131
43002 2789 48492
32095 6569 57397
36030 3201 13477
8892 6572 31608
11872 5568 31439
4363 16678 31796
39261 3897 29397
34606 9985 31764
30520 9972 31674
48616 9909 31245
30297 9917 31299
39081 9927 31369
22828 9938 31439
35126 3568 50544
40215 1784 23507
62278 9422 33566
47648 4255 35733
33925 6314 56688
33182 6419 57882
44310 4774 40644
40109 5372 47392
37758 5708 51142
38881 1760 14150
43485 1248 24292
3028 22241 32102
57706 3470 34535
54026 7533 35266
34658 3917 28916
40361 804 37697
10254 14187 32588
40292 2963 23183
16338 6769 28852
17665 9903 32930
39890 3969 29445
43985 4458 29581
62549 4 32911
9795 12995 32643
67723 3648 33837
38766 5087 43235
7622 18539 31819
50847 4357 29075
37244 8674 29509
30091 8760 29568
24467 8897 29662
32281 8898 29663
34514 8808 29601
45179 8352 34888
48792 8250 34957
10389 6041 31731
62789 1861 31173
40142 2417 23982
38397 5167 49212
37301 11 26552
50448 8723 34635
41122 2022 15695
20140 3288 31224
4393 12016 32283
38291 1608 49728
39686 2369 13654
11733 5802 33244
9442 6544 33009
33780 2185 33855
55798 7776 35177
57205 9901 31198
43226 9802 30988
50681 9767 30913
59214 9559 30470
41229 9766 30910
33579 9817 31020
8586 9866 32832
13235 10039 32092
20005 3639 33952
62850 8719 34382
62772 2591 33258
43158 3094 50539
21050 7903 35153
48204 1824 39723
28928 6470 59318
35784 4053 23516
40533 3172 29473
37884 3399 28331
39990 3595 26101
39389 3314 28612
41951 3372 27400
43861 3175 28502
38155 3263 29392
36871 3756 25645
39297 3379 28098
41185 3168 29324
38514 3253 29374
39967 3265 28859
66620 8277 33947
18641 9677 30645
7795 6974 31581
30859 6423 6617
30616 6461 6210
28024 6828 2053
35934 3456 28352
35248 3374 29190
6608 9465 41999
6846 9176 39000
49641 8993 34408
23234 7056 28764
52364 9096 34288
39331 1402 28679
35493 3298 48046
6178 12675 31713
45734 2180 29837
47308 2142 30126
37395 4172 50271
28128 6576 3638
33998 5549 10208
2012 17513 32198
41087 1054 40809
32901 5070 15795
39887 1916 50194
49136 1398 41388
39241 883 37746
28146 6171 35518
34039 3452 49907
61771 7308 28964
37455 5827 13241
37628 1294 36668
40712 4588 38437
41460 4494 37042
40272 4463 37936
38584 4385 38954
38968 4039 36062
38084 3936 36145
40343 1945 31241
25582 2815 33079
5853 17959 31745
7613 10876 31935
42688 2040 24551
10358 16817 32292
61461 7796 29121
72134 4555 31983
7083 19122 32319
36894 4456 23004
41383 2033 33424
46296 2129 33978
46138 2064 33606
37550 3212 50698
39334 3125 16196
35743 4295 48587
40209 4487 14450
40223 3822 48138
21143 4298 34857
32494 5610 10497
43264 2300 50013
16669 6932 35386
14329 9935 32936
68862 7827 31480
41763 7701 35205
35142 4298 42048
24988 7849 35151
22074 7826 35159
65835 5895 29219
23834 4726 35219
39916 2004 30919
5928 9331 33139
2412 20395 31881
35705 4402 49892
48455 3466 23659
60014 5700 28724
56876 6769 28730
39213 5063 42685
39480 5023 42186
62071 1041 31752
4684 15744 31792
41053 1651 49011
4861 15200 31791
32340 5751 9115
34587 5779 50714
32871 5190 49801
31466 5575 52817
21318 10029 32058
22125 6278 35505
27582 6867 632
39031 648 26465
25222 5875 35484
44013 6558 35472
12222 9959 31458
53017 2793 33735
38533 1081 26799
59982 7604 35230
11381 8982 26890
13146 8634 29587
46971 4206 35280
45458 4692 35341
61640 2261 31313
37934 2000 15786
36229 4375 22853
57012 5349 28756
37897 5421 28748
36480 5154 14305
42434 1986 31017
41263 1924 31354
61622 6661 28819
11023 6492 30378
3198 16784 31898
35089 3832 38425
61956 9441 30607
64829 5343 35077
5107 16168 31758
56744 2421 31314
36541 3040 35255
8253 9393 30755
63759 4522 29216
14775 9971 31255
47742 1255 22245
30434 2630 30721
31246 2721 34155
34253 3163 15522
38862 4761 49159
68003 8203 30740
30320 6461 28694
34102 6518 28701
33774 2571 48579
39219 1582 23923
40391 2073 33738
41485 2234 34837
5799 14794 32456
11627 15628 32343
34333 2957 50328
15696 10098 32870
59507 6725 35452
63093 731 31718
5178 12974 31820
5622 9533 41549
6404 9342 39686
48537 1465 39979
50784 2369 33554
42872 3929 14156
27402 7452 28881
32118 5871 8016
49041 2875 40204
29292 2731 33315
30693 3005 34518
40290 2835 35238
59430 8320 34909
52362 2661 30474
8891 9504 40605
42783 2090 30318
44774 2090 30318
47830 3457 41542
31810 6206 8617
59667 8684 34661
40992 4905 24135
43159 4749 26940
41978 4969 24630
42344 4891 25403
38262 915 36626
64050 5760 28985
66735 8816 33155
34798 4516 43790
35047 4714 44604
34253 4891 46236
3034 15191 32219
53373 6878 35434
14661 8486 34667
39405 2844 40557
6308 8986 27519
6187 9043 26961
18530 9177 34321
10633 9223 33775
15253 9544 30435
18127 4406 29595
39275 3013 50683
32165 6633 6333
32585 6571 6834
19613 3575 33733
38579 802 36869
52450 6831 35440
38560 3470 50664
5543 15218 31854
6959 13801 31666
31892 2480 30256
35410 3731 37901
35215 3877 39030
36949 5262 14850
3701 12193 32137
35476 5166 17526
50203 3825 29238
53998 2758 30518
36835 3867 36819
40298 1122 35544
34264 3536 49370
54332 8409 34849
39859 5306 35416
38416 4581 17614
32816 5914 57051
29094 6610 61893
6002 14360 31714
40639 3588 16135
31540 5900 10122
28944 3511 29600
55791 3896 34825
40472 4732 14645
34533 4599 44929
32932 5099 48952
43269 4177 48650
31686 6093 58165
10750 10347 32753
37381 1815 28574
24272 3300 34073
62260 8549 34554
13066 5110 31859
6153 9584 21105
7035 9197 24864
7836 8968 26966
6817 9364 23168
39745 2728 39974
7290 18696 32354
1422 21136 32135
49313 2428 29883
6743 16398 31695
40989 8602 34717
41310 8495 34790
40560 8539 34760
45736 8571 34739
37940 2497 35135
34409 3765 14631
34221 4885 47444
47430 2123 33890
8969 15877 31661
37815 9439 33890
40819 9478 33844
36379 5672 15661
40971 2496 39748
39668 1689 22921
58206 2159 32109
30847 5035 35343
33524 5029 35363
30513 3761 29344
39735 2341 22898
40407 1830 31885
15119 4882 30303
12496 5699 30615
10778 10939 32722
37925 1629 36248
40888 1638 15196
21988 3157 30563
55572 4777 28921
18949 7512 28821
61303 9272 33926
54569 6361 35495
37848 4574 40972
33917 2991 50030
30810 2215 31503
44041 3463 41528
15239 7073 35131
8742 9317 23439
19093 7101 28745
32116 4928 28809
4906 17049 31778
10344 13507 31555
39831 1672 48820
32300 9907 31232
31109 9995 31830
35489 9938 31444
31149 9929 31383
23283 9962 31605
37700 9955 31557
48110 997 40391
42716 3055 13586
45548 1934 32877
47012 1826 32276
34589 6042 56010
42972 4420 43266
41878 4788 45151
37963 793 26331
37524 3621 35267
39325 3920 48198
66452 2672 32395
11317 16427 32085
5441 8587 31127
31476 2095 32367
44044 3668 39699
46886 3069 35137
46164 3440 37283
38950 4796 48115
40760 4474 45480
46012 3138 36019
5631 9532 42279
5903 9615 43291
68269 5134 34349
38699 459 27083
42546 2155 29857
42322 2083 30363
46165 2046 30629
59422 2309 32103
45800 602 41089
21580 9518 33782
40314 639 28487
51707 2798 34161
33335 2397 29580
44003 1370 22053
28033 4620 35228
53134 3224 34264
62512 3474 34478
68475 6308 34260
66062 7468 29642
3855 14216 31913
60660 6200 35462
17001 4095 33779
12702 5616 33558
14558 10464 31370
29493 6874 28743
37966 3750 34874
39927 3969 34702
39543 789 36968
47245 913 22572
45719 6744 35450
40710 3447 23621
38464 5184 14320
33443 6134 6705
45109 3817 24710
35419 2503 15896
12107 5723 33362
40228 8126 35042
34073 5359 28755
41947 1813 49809
32618 5725 28712
38855 3054 35257
36328 4984 19269
36376 4923 19638
38938 5357 19661
35975 5424 16610
53359 5718 35465
49406 5699 35463
43193 4148 22696
51711 3155 29629
52305 4365 35105
38662 3737 13604
38065 5826 28700
22213 5801 35475
21066 9797 31502
8607 17559 31779
45387 4670 37170
42972 5018 39313
43335 4968 39297
44235 4840 38779
35869 6085 52308
41605 5235 43706
33733 6407 56417
45084 4715 37664
39162 5592 46516
36202 6035 51828
39483 5550 46904
38072 5756 48686
26476 3623 34578
20521 9997 31831
39664 1330 37093
33539 2954 15487
30197 8126 29135
55297 5119 35382
32436 2363 33976
37866 3681 38190
39685 3547 37586
36472 3421 35624
38305 3721 38648
38302 3570 37383
39448 3593 37904
37019 3394 35556
38955 3665 38361
66540 8125 30117
11384 7126 34284
5792 11630 32453
27059 3386 29841
39579 4558 28860
40319 2551 13591
48556 5099 28803
13383 13922 31741
6614 10623 32552
49929 2103 32776
56493 8989 29765
21816 3813 34578
17638 4951 35012
24275 6532 28702
6177 9261 24583
7474 9006 26718
6754 8967 27509
27765 6716 62008
36174 4269 50145
31380 6015 6998
30069 6005 8342
41682 4532 49454
43609 3004 41158
8026 8887 36236
27290 6103 35510
63175 407 31190
40190 6049 35504
40984 5000 40594
33994 2394 34814
39395 4252 15668
69210 6733 33786
