ply
format ascii 1.0
element vertex 2742
property float x
property float y
property float z
end_header
62105 3768 20473
26766 1654 36002
35521 2509 37414
37300 3995 36622
37765 1802 38537
34715 1750 37843
24862 1665 35533
28246 2425 35725
32465 2239 36897
26293 634 27553
27625 1210 30251
29516 554 29516
28488 1156 30674
30053 1026 31345
51123 6483 27273
48095 4455 17912
40095 4455 16528
41912 4455 18602
39751 4455 15586
53491 4455 17954
48723 4455 16824
44738 4455 18156
47081 4455 19030
46097 4455 17758
47896 4455 17224
44569 4455 16661
48425 4455 17228
40201 4455 17244
50081 4455 18740
40952 4455 17316
52265 4455 18005
40652 4455 16792
27750 1562 6273
22111 1562 4392
29647 1562 6135
34984 1562 8859
24021 1562 4822
18455 1562 944
33533 1562 8520
23045 1562 5284
17416 1562 2566
24320 1562 4908
22201 1562 3498
23084 1562 3926
22885 1562 4500
29379 1562 6264
24084 1562 5718
28469 1562 5362
37003 1562 9419
43471 4455 30681
40679 4455 33410
49963 4455 32179
41907 4455 30568
50906 4455 30022
40945 4455 33923
42558 4455 33105
43109 4455 30150
43778 4455 29994
53698 4455 30215
46698 4455 31242
40928 4455 30667
52557 4455 31345
44639 4455 31548
45039 4455 31012
44112 4455 30357
47542 4455 33427
40910 4455 35365
42115 4455 30802
42520 4455 29625
52731 4455 30691
42786 4455 30178
73003 4514 23923
72163 4028 23060
69712 6893 24171
69831 5951 23436
60183 3811 18884
63430 276 24495
73016 2614 24495
81911 1908 24495
67621 1393 24495
74312 1049 24495
78076 1489 24495
73619 2867 24495
76054 2236 24495
71253 2351 24495
72577 1819 24495
73132 3106 24495
20071 1245 26774
24117 707 26996
22005 703 25738
20443 901 25616
25306 1437 30611
23995 345 25472
24635 1096 28854
23498 921 27486
22892 369 24925
25279 772 27936
17420 1532 26371
19708 1257 26611
37957 1562 8097
38474 1562 9484
36206 1562 7847
29829 1562 5123
49631 1562 13458
34255 1562 7756
37132 1562 9029
19197 1562 1035
38540 1562 9093
44887 1562 11849
21183 1562 1729
64972 7833 25563
45217 4455 17140
45151 4455 15781
47490 4455 16912
56543 4455 18389
44339 4455 15647
49119 4455 17564
48786 4455 18794
44316 4455 19109
54157 4455 17985
42360 4455 18653
40669 4455 19589
44317 4455 18040
45635 4455 17528
52183 4455 18328
57400 4455 18736
63417 2270 29609
61246 2830 30643
77146 1657 24495
75480 3215 24495
71782 2955 24495
74615 997 24495
72484 2838 24495
62115 152 24495
75189 1448 24495
71996 2126 24495
71358 2837 24495
60964 4455 27995
51486 4455 28537
59407 4455 29792
55929 4455 28953
59514 4455 29298
54171 4455 28806
45530 4455 28942
63849 5589 26935
64979 1140 28623
62542 739 27550
66825 955 27177
61991 777 27903
61749 300 25775
62143 358 25913
64503 845 27412
66555 892 26973
67099 1559 29879
67515 1385 28943
26189 3039 24495
24649 2131 24495
25144 2909 24495
27751 2827 24495
26391 1744 24495
62899 3482 20732
61815 3224 20573
62295 2225 20093
37677 1675 18154
39281 1981 18419
48294 3288 19696
42422 2146 18715
64081 2184 20193
53295 2402 19578
49238 1908 19052
59519 3135 20373
63731 1611 19875
56195 2924 20041
40848 2194 18634
58289 3449 20451
55580 2349 19705
62642 1623 19808
54207 2229 19551
50885 3302 19877
54548 3938 31962
39698 2195 38152
47452 2965 35035
45775 3958 34755
40575 2323 37766
43082 4197 35422
49988 3364 33894
39939 4158 36461
38870 2696 38006
48215 3624 34249
44052 3448 35727
51903 3797 32925
58849 1562 28356
52239 1562 27356
25161 1562 25419
68717 1562 28756
61656 1562 28681
50043 1562 27488
61852 1562 28100
61337 2683 28724
61063 3263 28446
50915 1593 29985
46862 2525 29781
59648 2555 28904
46281 1799 30192
54460 2753 29152
59201 3085 28662
56848 3775 28468
54052 2242 29441
53265 3464 28869
39652 1679 30701
44572 2613 29890
58805 3513 28470
62239 2175 28924
54086 3576 28756
44342 2130 30153
49692 2879 29409
57148 2479 29111
46760 1562 18772
65264 3365 24495
67623 3537 24495
63279 3784 24495
67185 4019 24495
68087 6200 24495
70754 3425 24495
65015 3055 24495
69576 5681 24495
66312 9373 24495
70554 4048 24495
70262 6332 24495
72070 5516 24495
65465 4989 24495
71182 4528 24495
66176 5795 24495
66454 8174 24495
67405 6309 24495
20743 1562 7788
23884 1562 7538
27641 1562 11416
34781 1562 10794
35797 1562 9781
37122 1562 10177
26068 1562 7265
19065 1562 4861
25308 1562 10696
15385 1562 4127
23634 1562 6916
35869 1562 10213
20915 1562 9531
21521 1562 6884
14788 1562 4156
30502 1562 10566
34576 1562 9294
27888 1562 10733
26884 1562 9697
14154 1562 3322
30741 1562 9348
32865 1562 9742
26444 1562 7065
16098 1562 4501
24485 1562 11348
22086 1562 7092
19302 1562 7863
31710 1562 11521
22719 1562 10364
27714 1562 7124
26348 1562 7683
63262 3219 20654
65841 1562 24944
61199 1562 25578
70636 1562 24915
68646 1562 26524
56927 1562 25379
61108 1562 26064
36453 1562 25254
41228 1562 24888
71703 1562 24518
46109 1562 24624
62542 1562 25012
77242 1562 25834
54520 1562 26470
65347 1562 24991
60105 1562 27007
55666 1562 26056
69854 1562 27229
78291 1562 25919
64557 1562 26039
48397 1562 24633
73164 1562 27368
68529 1562 27967
44192 1562 26406
66324 1562 27800
57136 1562 26855
27257 1562 25137
57850 1562 26782
54716 1562 24595
70590 1562 27309
44124 1562 25610
62220 1562 25917
47331 1562 25632
77018 1562 26386
77800 1562 25860
74401 1562 27301
63554 1562 25056
22701 1562 25021
57310 1562 24526
73524 1562 25556
36791 1562 25924
36035 1562 25880
21851 1562 24885
59981 1562 25305
37972 1562 25769
57267 1562 27352
83525 1548 24567
66430 573 25538
82547 1475 24543
71439 1379 27658
68302 740 25708
70782 1400 27964
80980 1467 25009
69827 1059 26693
81241 1391 24574
68903 1019 26806
73565 1318 26695
75956 1242 25576
63651 217 24781
75751 1358 26181
29202 1288 17321
28744 1236 16681
24648 1482 14179
34573 691 18051
38323 422 20539
47531 350 21205
35994 478 20022
37494 96 23550
35937 564 19230
53699 51 23971
42631 76 23738
52881 13 24322
36460 216 22442
33461 580 19077
29422 457 20214
29519 306 21612
31197 427 20495
27442 246 22166
40413 478 20018
28262 376 20964
37155 68 23815
46651 216 22448
42112 349 21211
48477 222 22392
35503 311 21564
42557 448 20295
48319 327 21421
51065 182 22761
36281 152 23033
36063 272 21924
32894 356 21151
43022 31 24151
29655 495 19862
49528 19 24267
56376 12 24329
41928 265 21989
35210 555 19307
34865 591 18975
41281 409 20659
36643 6 24390
28460 214 22459
34332 308 21590
64486 7461 25822
26564 2003 14886
29509 2241 16758
28903 2371 15827
32362 3025 16881
30586 2264 17636
28535 2260 15839
54464 4455 20559
56264 4455 19292
58398 4455 20380
56673 4455 20123
55047 4455 19408
55582 4455 19230
56709 4455 19682
43722 870 32580
49205 722 31215
45383 920 33046
35528 721 31205
42734 1061 34347
40533 1438 37827
41943 1338 36903
45335 697 30986
37107 955 33370
34603 879 32664
34934 918 33027
44612 1029 34049
44527 590 30001
39253 1122 34912
42823 984 33633
37931 993 33715
45135 554 29669
46018 735 31341
37146 1363 37133
54387 436 28575
40899 1410 37572
53645 505 29213
38370 1116 34856
51467 492 29095
45151 672 30753
36285 1129 34978
40081 685 30874
38173 1088 34597
33964 724 31233
47868 784 31791
49199 457 28766
36591 756 31531
38157 854 32439
41709 876 32635
53417 221 26593
40192 1367 37176
38507 629 30361
47900 386 28110
55585 149 25926
36804 822 32142
40692 999 33778
53445 279 27122
36487 3796 17619
37393 4166 14423
32886 3226 15585
38773 4444 14233
36728 3901 16662
36311 3899 15385
37141 4074 15134
27952 2345 14440
38491 4308 15565
31847 3119 14069
27342 2217 14624
36278 3796 16962
29602 2696 13912
47225 1562 35698
45454 1562 36302
58185 1562 32164
31254 1562 35225
49484 1562 34651
42509 1562 36544
44882 1562 36577
40872 1562 37830
39035 1562 35520
49868 1562 32837
41782 1562 34774
37351 1562 35208
37818 1562 36104
40681 1562 36630
42183 1562 34919
34492 1562 35184
43487 1562 35218
37878 1562 37765
50763 1562 33391
43265 1562 37151
36510 1562 36891
47724 1562 33618
50772 1562 34491
40251 1562 34202
52130 1562 33673
45606 1562 35201
31295 1562 36315
52509 1562 33888
36838 1562 35283
47650 1562 32901
55993 1562 32768
57372 1562 32642
79091 2059 23520
79302 2349 23928
80025 2538 24382
76711 2045 22740
75556 2561 22976
71954 1900 21045
74893 3157 23462
74417 2681 22751
30284 1562 14394
36177 1562 10627
31961 1562 13492
26185 1562 15236
27423 1562 13012
31438 1562 12987
30953 1562 13642
33501 1562 11759
26712 1562 15425
27637 1562 14254
32750 1562 12024
31485 1562 13948
68438 7036 23607
25979 1562 34263
28526 1562 32891
48157 1562 31685
35994 1562 31892
24693 1562 35154
50005 1562 31898
32895 1562 33234
38347 1562 33210
29338 1562 33920
28855 1562 34685
32090 1562 32467
37719 1562 33365
45371 1562 31879
41525 1562 31753
26362 1562 34812
24594 1562 34727
30809 1562 34408
56204 1562 31859
26783 1562 34822
31633 1562 34411
62546 5123 21656
63797 4191 21267
25506 1562 14719
32062 1562 11720
28410 1562 13024
30072 1562 14187
35989 1562 10990
35796 1562 11934
25618 1562 15106
27902 1562 14892
26852 1562 16126
32417 1562 14074
26749 1562 13311
24984 1562 14258
68951 5011 22167
442 11924 29164
13921 6811 26344
11041 7947 26970
7742 9265 27697
14289 6509 26177
12671 7481 26713
18492 2499 24621
20648 1950 27347
20364 1815 27541
18881 2335 25284
21603 2242 27130
24056 1663 30110
23548 1825 29381
19215 1869 26723
22651 2674 26593
22469 3265 24911
31968 2895 19063
45402 6339 24254
35640 3879 20636
50908 6675 22480
41895 4888 20897
33391 3639 20987
28524 2071 17943
48046 6311 22717
29215 3103 21312
38555 4633 21786
54484 7394 23148
28780 2731 20198
44248 5322 21194
57122 8086 24222
41076 4931 21497
31222 3851 22937
46451 6091 22786
36903 4945 23817
35911 3629 19580
45943 6172 23356
36993 4300 21429
42432 5606 23209
31815 2764 18670
46674 6510 24185
34609 4512 23494
48826 6157 21734
41265 5196 22357
31439 4093 23699
39700 4692 21378
57662 7961 23474
35287 4397 22707
57412 8120 24189
47150 5914 21763
35808 4125 21439
34028 4001 21957
49676 5114 28213
58706 6336 26881
46118 4552 28785
42219 4630 29002
55136 5730 27480
55300 4710 28073
64072 7129 26051
59187 5354 27430
56793 7074 26574
56813 4696 27979
55488 6178 27192
58678 4520 27958
51287 6059 27545
61240 5155 27409
51227 5311 27992
45380 4999 28571
60204 6401 26742
64744 9005 24895
63164 2502 19504
31239 2532 31595
32635 2957 31659
30766 2732 32618
35427 3370 30458
34153 3130 30851
28153 2322 33670
33858 3025 30789
27845 3405 24495
29590 3055 24495
27346 2322 24495
24103 2814 24495
26980 2448 24495
53855 540 19575
57190 1482 16283
47970 1481 13331
65260 1351 19477
51307 1284 15314
61983 580 21995
46339 1555 12463
55636 768 19088
53277 713 18587
59371 1518 16815
61004 38 24191
51298 732 17863
53824 734 18668
61095 769 20837
48950 1172 15073
57944 1266 17526
67933 1237 20861
62093 508 22363
63079 793 21359
61247 260 23238
47509 1324 13909
51862 1206 15850
60436 1345 17956
56027 635 19831
65022 664 22579
61166 970 19930
65450 1228 20109
63726 1361 18940
49178 1045 15735
67314 1525 19331
65925 1526 18883
50962 1269 15274
48534 1413 13826
48316 1175 14858
53557 1334 15805
62754 915 20693
64953 1554 18438
60845 1372 17965
66149 7643 23437
9649 6864 22368
16890 4151 23830
10666 5135 23031
11046 5766 22845
7673 7426 22029
6323 9094 21362
3990 9931 20904
6338 8117 21695
22344 3478 24466
16395 2346 24407
3362 9344 21056
11685 6803 22541
12408 6815 22591
14749 5977 23050
17212 3027 24236
19218 4410 23916
7918 7219 22118
14389 3113 23996
40765 2738 12109
41447 3075 12739
45540 3724 14623
48527 3069 14440
41179 1961 11137
47570 3822 15248
55269 4438 17958
39437 2043 10829
45922 3018 13741
40737 2066 11174
40597 3464 13071
48674 4318 16199
46152 4088 15273
43208 3778 14134
43200 4019 14465
43498 3302 13548
64459 1811 29394
65950 7463 23322
37464 1562 31248
54236 1562 30666
62042 1562 30309
54778 1562 31228
49617 1562 30290
58897 1562 30574
60409 1562 30440
36143 1562 31225
33102 1562 31435
48883 1562 31387
50244 1562 30444
64268 1562 29659
25936 1482 33670
27178 1469 32633
26425 1384 33680
25458 1656 18040
22995 3253 23739
24208 2120 20009
23953 2565 21345
20179 1924 21848
16320 1678 23457
20350 1660 21045
20472 2309 22702
17450 1660 22744
66005 3615 21159
66437 3556 21155
65675 2777 20665
36468 3348 19015
12155 2197 24495
13312 2604 24495
14659 2845 24495
36808 3585 19077
35612 3189 18857
4678 10205 28216
2646 11782 29085
3799 10729 28504
15361 6541 26194
28222 1562 42142
18576 1562 45357
35595 1562 40223
24129 1562 43984
16008 1562 49034
23051 1562 45333
16546 1562 46250
27615 1562 43486
23497 1562 43957
30875 1562 41257
23129 1562 44277
16452 1562 45340
17684 1562 45611
31596 1562 41894
24550 1562 44859
31106 1562 41987
17015 1562 47840
30337 3774 25891
26958 3079 27039
31253 4224 24757
27807 3518 25916
24966 2265 28993
27075 3565 25538
25188 2673 27773
25714 3313 25911
26486 3115 26777
25459 2621 28021
26998 2866 27725
31970 1220 34914
33535 1301 35864
33126 1052 34009
34717 1433 37088
34155 1308 36063
28729 1389 35327
32273 1097 34121
35652 1351 36734
29588 1251 34561
27727 1402 35176
29008 1422 35627
29691 1423 35803
6190 6364 22513
4555 7885 21652
10069 3085 24272
8924 4175 23647
28437 1156 32936
28109 1434 31971
35681 2607 30493
50744 3736 28899
48455 3713 29065
49448 3917 28894
54584 4309 28347
53926 3911 28595
37996 3749 29752
39764 3493 29764
40822 4060 29402
32691 2103 30953
33101 663 30669
44499 228 26650
26255 44 24953
46245 249 26846
31326 367 27934
37309 410 28340
36045 277 27109
32507 21 24741
32596 528 29429
36291 638 30437
35951 564 29761
34458 340 27690
34063 270 27042
30749 134 25787
46879 374 28005
54007 33 24858
28046 180 26211
35047 424 28460
42763 44 24955
58637 27 24801
49057 166 26083
28644 24 24770
32187 211 26494
31711 691 30935
37102 314 27452
30484 561 29734
28680 374 28002
44395 315 27453
54039 139 25833
34974 232 26687
31783 574 29849
32955 341 27699
36655 219 26574
47698 130 25753
41535 488 29057
37566 185 26257
31018 553 29659
31984 124 25691
31012 268 27024
47621 1562 30946
53123 1562 30448
57592 1562 30406
57822 1562 30203
62495 1562 29913
48019 1562 30408
35185 1562 31224
42266 1562 31414
58115 1562 30088
56018 1562 31152
24309 1943 19479
15759 1673 23771
24935 2003 19271
23582 2399 21120
21111 3120 24490
21107 1677 20645
18455 1781 22479
19946 2696 24043
20972 2624 23250
39942 1562 12869
49999 1562 16468
34251 1562 15625
43294 1562 14092
39144 1562 15889
41474 1562 11696
48796 1562 17133
35553 1562 14812
39027 1562 11346
41788 1562 16968
52022 1562 14869
55229 1562 16646
57574 1562 16998
39086 1562 10614
43912 1562 12279
56925 1562 16657
35284 1562 14654
38337 1562 11643
35205 1562 14049
45582 1562 15028
39433 1562 13426
35612 1562 14323
47167 1562 12818
40904 1562 10754
40192 1562 11286
52726 1562 15496
31592 1562 16043
36857 1562 12871
46664 1562 12866
36571 1562 16960
36988 1562 12359
42787 1562 13149
32138 1562 14964
37889 1562 16055
42179 1562 15984
40193 1562 17488
41355 1562 12459
33522 1562 14359
33968 1562 14554
39295 1562 15261
45185 1562 15848
28730 4046 24458
23730 2993 22682
29930 4102 24261
24805 2486 20748
27430 3806 24102
26537 3198 22457
24566 2403 20559
26351 1931 18513
28154 3055 21504
27121 3618 23604
69826 4484 22190
71082 3640 22150
70741 4627 22803
76624 1265 23520
71678 1459 21038
74446 1356 22399
72368 1116 22845
74086 1459 21810
68894 1099 21810
69987 1256 21434
66472 460 23990
77707 1396 23262
75055 1430 22255
69293 601 24242
73425 1271 22466
70037 790 23605
71934 1326 21734
62414 3798 20783
57858 1562 19412
47409 1562 18040
52477 1562 18997
53914 1562 18104
57866 1562 18922
61145 1562 17700
49153 1562 17822
40757 1562 17637
58770 1562 18134
42522 1562 18310
55615 1562 18463
62501 1562 17936
61200 3937 19946
32026 1521 24495
27008 810 24495
56783 413 24495
36971 2790 24495
31539 1966 24495
42551 2066 24495
45429 1793 24495
40088 2551 24495
38111 214 24495
30417 3113 24495
48959 1339 24495
38926 2657 24495
43208 1578 24495
38835 1760 24495
33370 1722 24495
32063 2059 24495
42351 1113 24495
39706 2797 24495
30118 3315 24495
50176 348 24495
46978 474 24495
40078 765 24495
41818 717 24495
38911 254 24495
19874 3223 24622
7052 7338 26978
13938 4390 25462
13218 5621 25934
17008 4643 25318
9893 7458 26806
13170 3619 25258
16071 2585 24689
12527 3558 25285
11092 7405 26699
17259 2969 24731
6321 7642 27136
962 10877 28635
13452 2286 24784
17165 4396 25223
17429 5074 25433
6937 8547 27397
5179 8826 27623
11337 5355 25984
51729 709 30877
59108 1551 32403
56921 1389 32354
60037 1047 29776
59918 445 27030
50756 1279 33822
46944 1492 36027
57704 534 28153
60138 1440 31560
60828 913 28903
51685 1036 32399
56281 1000 30762
60616 1222 30397
59624 380 26822
52585 1325 33447
58078 254 26740
61789 1418 30932
47845 1500 35776
57681 796 29373
56308 1295 32119
59803 1225 30673
52952 700 30443
56327 1521 33157
58455 559 28027
60263 768 28415
60640 236 25834
67769 7177 25623
63970 1562 30680
66441 1562 29405
26999 1562 31187
24247 1562 30371
61359 3658 19668
34433 3260 30998
39341 4187 29502
26830 2067 34060
34692 3380 31138
32917 2805 30948
28043 1627 31652
51361 1562 19572
82308 1562 24126
45466 1562 19250
53897 1562 19415
49737 1562 19386
77642 1562 22673
35263 1562 18267
53831 1562 20198
32580 1562 18003
70457 1562 20849
50170 1562 19673
71327 1562 20641
61584 1562 21427
40255 1562 18474
78475 1562 22745
74606 1562 23142
62559 1562 20833
59766 1562 19690
57683 1562 19807
59520 1562 20662
44935 1562 18810
53271 1562 19508
41854 1562 19115
59055 8090 23229
41125 4342 19905
41417 4581 20117
67941 7302 23566
12571 2034 24502
10596 3685 25383
11518 2388 24518
3354 8469 27512
65615 4793 21795
1247 10020 20723
8343 5024 23075
8554 4063 23846
12366 2628 24032
64787 5057 27133
64137 5404 27008
57599 3504 20433
38930 2354 18587
48822 2200 19173
57100 2062 19660
46486 1709 18765
59227 2595 20077
47678 2364 19181
41180 2360 18741
48208 1854 18955
61098 2003 19899
59068 2371 19951
38105 1903 18300
56102 2166 19646
56262 1623 19379
58030 3644 20534
42592 2552 18934
35765 2037 18211
70997 2645 27727
69698 5100 26346
71375 5090 25453
20024 4521 23910
11462 7621 22200
14662 6654 22734
14323 6884 22607
13894 7041 22521
3886 10644 20533
62875 2230 18853
63205 1809 18513
23782 1211 20175
22438 1031 21686
24600 903 20930
18344 989 24253
23960 494 22941
24969 616 21863
22130 1117 21521
21797 1486 20240
24395 1388 19109
18369 1140 23633
16902 1259 24019
32822 3229 34177
37205 3933 31645
38651 4233 32251
34071 3538 35765
27801 2284 34094
33081 3236 33291
25636 1933 35275
30760 2846 34255
31772 3031 34140
34513 3602 35365
37082 4133 36421
39888 4353 29852
36990 4085 35760
27631 2320 35545
35302 3744 35235
29988 2703 34280
25292 1862 35147
37994 4244 35126
63137 2744 19840
57317 687 28983
49175 1296 34406
53372 961 31514
43305 1364 36600
60177 1296 30884
52400 712 30673
53805 1499 33863
59722 1116 30197
56628 1452 32740
61141 621 27453
57437 920 30024
55690 1437 32971
45270 1200 35216
51972 1379 33894
61397 962 28949
50494 925 32268
53853 968 31391
53499 1523 34070
49406 1137 33597
48585 1248 34374
54894 1294 32564
61366 892 28635
26324 1562 26348
41397 1562 29434
27265 1562 26425
20653 1562 25921
22027 1562 27160
44472 1562 27411
62571 1562 28957
26977 1562 28885
25684 1562 28752
34991 1562 29033
54144 1562 29197
48314 1562 28344
19874 1562 25438
53090 1562 28389
41982 1562 30534
21443 1562 26720
56005 1562 29207
28275 1562 30219
43600 1562 30394
31588 1562 26146
38534 1562 29909
22831 1562 27472
49109 1562 28815
45609 1562 27708
34636 1562 26366
44466 1562 30417
54694 1562 29185
49492 1562 29180
38813 1562 29203
38920 1562 26964
45635 1562 29420
35375 1562 28598
19627 1562 27326
23168 1562 25555
44096 1562 27902
55508 1562 29467
45433 1562 29182
26163 1562 28920
16759 1562 24965
24678 1562 27119
40414 1562 27665
21742 1562 28062
23342 1562 28696
28896 1562 31003
24974 1562 29721
70130 4296 22195
69795 4138 21880
70994 4864 23140
65831 2626 28397
68007 5024 26901
50456 4455 32069
43542 4455 34559
49824 4455 32652
41723 4455 35537
52882 4455 30301
41981 4455 31719
42888 4455 32962
45922 4455 32219
43221 4455 33402
55556 4455 30588
49244 4455 30660
47797 4455 32486
54138 4455 31103
43183 4455 34774
49975 4455 29990
41502 4455 32440
46905 4455 31460
41496 4455 29434
48817 4455 33211
68166 1455 19928
64139 1381 18980
56835 1257 17211
41186 1409 11490
59496 1268 18014
59650 958 19497
49705 1439 14083
46014 1189 14053
66467 1501 19170
56465 1099 17822
58899 1187 18194
50031 1359 14556
57178 1124 17938
62199 1181 19282
53106 1342 15620
65752 986 21326
48419 1094 15267
47889 1192 14641
60968 612 21521
67470 1481 19583
60777 467 22131
53930 1112 16952
52208 1149 16228
62782 597 22172
51726 1261 15554
47282 1199 14416
50701 858 17091
55620 660 19584
64445 1548 18304
62672 829 21064
53093 890 17709
23301 1675 24495
19983 1235 24495
22919 1936 24495
16989 1916 24495
33847 1562 35925
33091 1562 35683
51294 1562 34028
44138 1562 36172
41202 1562 35996
43321 1562 36196
45575 1562 36013
32711 1562 34898
49467 1562 34201
28593 1562 35738
39295 1562 34716
56348 1562 32342
43576 1562 35499
45359 1562 33239
43708 1562 36600
40297 1562 36391
37152 1562 35562
52664 1562 33268
51622 1562 32998
39721 1562 34144
42365 1562 35469
57110 1562 32866
42873 1562 37265
44890 1562 34219
19939 1562 42786
30119 1562 38922
23140 1562 39241
28298 1562 40351
35194 1562 39247
29266 1562 38841
21991 1562 37348
23647 1562 40335
31545 1562 40549
23876 1562 42440
26562 1562 39045
16102 1562 43359
31491 1562 38112
26691 1562 41833
27737 1562 40299
26616 1562 37610
23638 1562 39211
32174 1562 40405
26672 1562 41100
29407 1562 37213
19721 1562 43977
17027 1562 43889
29729 1562 40651
29951 1562 37181
24472 1562 36962
18319 1562 41238
32794 1562 39792
22999 1562 43186
29804 1562 38184
29602 1562 37535
24658 1562 42023
68112 1931 28634
67585 3978 27518
68435 1826 28671
68951 3715 27574
68654 3944 27465
49015 4 24588
33950 488 29054
41761 425 28475
44904 328 27576
31002 652 30571
36171 379 28049
40383 439 28600
47916 164 26059
40386 338 27667
27762 54 25047
37925 69 25187
34919 592 30014
31168 479 28970
43245 44 24957
35084 486 29036
30557 0 24548
46287 113 25590
33325 706 31070
30104 547 29601
43817 92 25396
48570 15 24690
29703 1 24554
57674 4 24590
29328 21 24745
43244 381 28070
47176 76 25246
34787 344 27722
45556 240 26763
43075 130 25751
49715 123 25680
39597 119 25647
31778 320 27502
29644 399 28230
39174 81 25294
42044 359 27862
38337 210 26489
34214 309 27407
44672 188 26283
67635 1562 23209
29294 1562 18068
68879 1562 23650
28644 1562 22627
61078 1562 23088
30659 1562 21581
28185 1562 19440
62771 1562 23464
59564 1562 24457
30588 1562 19724
26473 1562 23924
31254 1562 23206
27515 1562 20601
41334 1562 23961
45113 1562 19857
50188 1562 23574
41580 1562 22447
26143 1562 22374
27754 1562 24069
27034 1562 21548
40007 1562 20373
23196 1562 22601
18183 1562 23085
28719 1562 20078
31536 1562 22596
43027 1562 24179
26892 1562 18133
44216 1562 20967
22345 1562 21402
25290 1562 19275
33605 1562 22022
60509 1562 23359
57644 1562 24342
23875 1562 22599
38637 1562 20997
68738 1562 24267
41282 1562 21003
62581 1562 23108
42709 1562 22387
70038 1562 24187
32817 1562 19174
62074 1562 22656
32931 1562 18838
55126 1562 22777
26526 1562 17865
53160 1562 22167
53082 1562 20848
31840 1562 20093
50633 1562 22824
17427 1562 23423
26378 1562 23023
33646 1562 18581
35381 1562 23594
37661 1562 21974
32781 1562 21152
29666 1562 24301
22437 1562 23571
30879 1562 19321
74007 1562 23835
53751 1562 20869
41069 1562 20539
24668 1562 24117
39201 1562 22589
66432 1562 24029
65379 1562 22539
29509 1562 21343
24238 1562 22350
29584 1562 20502
70058 1562 23848
25659 1562 23782
60909 1562 19664
63651 3717 28001
64067 4232 27670
30840 698 18112
26366 266 22523
28408 894 19179
29638 1120 17636
27693 1095 19049
36227 3911 14918
39093 4366 16517
26186 2021 14178
29766 2651 15153
26144 2034 13834
35139 3572 17026
30231 2806 14094
35954 3801 15857
33770 3343 16461
33495 3260 16945
30018 2727 14708
38787 4352 15781
39010 4450 14884
37835 4274 14049
73200 4501 24972
73397 4176 25142
72085 2644 27143
52685 1562 27553
53236 1562 27629
45132 1562 27089
58135 1562 27963
24780 1562 25372
64840 1562 28901
51838 1562 27382
60499 4253 29175
50104 5661 21130
49784 4788 20591
57569 6481 22118
48467 5477 20911
50558 5955 21335
51022 5574 21140
52826 5078 20968
62529 5404 21814
52969 4650 20724
61665 7918 23245
57489 4912 21184
59100 6490 22227
59618 7821 23049
62097 7170 22831
60112 5311 21596
61741 4718 21355
60950 6987 22645
62569 6787 22635
66793 2222 24495
72253 4505 24495
70311 2819 24495
72677 4833 24495
70110 5841 24495
68447 3814 24495
72008 4849 24495
66479 2999 24495
64644 4825 24495
66068 3921 24495
64054 3922 24495
64855 5577 24495
67403 2498 24495
69213 5116 24495
60439 7647 23001
56863 5583 21539
51765 4723 20687
55002 6058 21695
59398 7165 22646
52689 6065 21543
47133 5504 20837
62972 6126 22271
51002 6065 21430
56533 6099 21822
56272 5104 21215
52174 6688 21878
55392 6657 22076
61548 8163 23382
59651 4780 21251
58948 7523 22827
47561 4811 20456
55896 7420 22561
51242 4855 20729
56138 4028 24495
49919 4441 24495
54413 5225 24495
42278 5675 24495
64095 6226 24495
55551 7847 24495
51014 6609 24495
54269 3660 24495
61119 5507 24495
61527 5481 24495
60885 8245 24495
60495 281 24495
32831 4400 24495
43770 5817 24495
44519 5816 24495
53754 4462 24495
53147 7274 24495
58405 8107 24495
57737 2945 24495
64609 8272 24495
61295 7793 24495
46717 5772 24495
42093 4000 24495
42445 4270 24495
60119 8596 24495
58140 4684 24495
61802 5177 24495
54537 4061 24495
42072 5042 24495
63624 8867 24495
49864 3646 24495
48722 6082 24495
46406 6103 24495
58514 5569 24495
62779 7859 24495
43077 2985 24495
43338 5695 24495
38638 3853 24495
47283 4550 24495
59765 6580 24495
58533 1175 24495
52253 5641 24495
54247 7033 24495
43760 4821 24495
60688 2206 24495
61154 4587 24495
31008 871 17023
26042 1377 14934
23054 1778 29217
16477 1620 25782
23259 2385 27720
18764 2098 25849
22634 1896 28657
22652 3128 25384
16133 1671 25444
18829 1906 26399
23567 2767 26881
18628 1692 26851
29507 1562 5870
23795 1562 4140
16130 1562 1458
15388 1562 2313
23798 1562 5593
20534 1562 3158
30241 1562 6844
24458 1562 3830
20068 1562 1843
31102 1562 7438
16943 1562 3193
16148 1562 0
25328 1562 6270
16819 1562 1033
14773 1562 1799
32251 1562 7688
26309 1171 19200
25644 560 21948
63787 5079 21762
64114 3367 20840
66564 1562 19650
68951 1562 28933
26391 1562 19121
40396 1562 21411
50760 1562 23934
49686 1562 21527
58605 1562 23095
33135 1562 23467
73303 1562 24466
25989 1562 18987
52819 1562 23720
26944 1562 19569
31655 1562 18401
60911 1562 24272
49742 1562 22798
32567 1562 20055
38303 1562 21439
43878 1562 22941
40282 1562 22179
63879 1562 24386
37807 1562 19447
36624 1562 23816
26562 1562 23531
72205 1562 24150
48659 1562 21599
48766 1562 22490
21133 1562 21570
60201 1562 23810
34930 1562 20522
58529 1562 21480
40924 1562 23564
22450 1562 21010
79631 1562 24264
43111 1562 23500
20923 1562 21040
34433 1562 23859
57280 1562 22277
40111 1562 24423
39357 1562 21574
46307 1562 24303
34163 1562 21521
55816 1562 24003
23559 1562 21643
29169 1562 19578
41007 1562 23024
35543 1562 24283
35676 1562 23667
49206 1562 22362
71047 1562 23942
58127 1562 23848
22684 1562 19589
31549 1562 24184
40644 1562 24030
42241 1562 24139
53701 1562 23026
35243 1562 20903
37226 1562 18832
28373 1562 20215
21877 1562 21608
37094 1562 22255
47247 1562 23939
45737 1562 23504
21990 1562 20733
57847 1562 22096
23511 1562 22074
52899 1562 22449
55977 1562 21442
41313 1562 22684
37409 1562 22627
59111 1562 23108
54263 1562 22147
26511 1363 30657
26234 1136 29634
34494 1562 32241
30393 1562 34370
40970 1562 32468
46295 1562 32321
51842 1562 31445
35394 1562 32217
47789 1562 32379
42067 1562 32314
31094 1562 33599
30205 1562 31576
43732 1562 33256
31916 1562 34074
38108 1562 31642
36023 1562 32935
41162 1562 31972
28157 1562 33596
31506 1562 33311
37819 1562 32301
37420 1562 33166
30801 3696 24495
39162 1507 24495
43219 253 24495
50559 1254 24495
32886 3624 24495
55902 620 24495
40559 2853 24495
37508 66 24495
37672 1478 24495
58623 223 24495
27033 1440 24495
43917 1651 24495
35284 559 24495
46145 567 24495
30904 717 24495
36455 2449 24495
51548 873 24495
28942 1280 24495
38698 2121 24495
65549 1866 20144
66895 3681 21256
2298 9543 27921
917 10477 28408
1735 9883 28100
1478 10675 28491
19197 3602 24643
7722 4799 25489
12292 4991 25477
9957 6796 26410
16737 3929 24859
2945 8795 27543
13566 4402 25162
13783 5267 25578
5686 7535 26867
14899 4477 25168
7521 5276 25726
10882 6364 26178
4612 9646 27918
18477 4752 25220
9057 7076 26566
13265 3531 24745
9227 5384 25739
75462 3793 24391
75838 3684 24384
76505 3313 24162
79241 1639 23075
74580 1831 21806
78413 2319 23607
76272 3015 23738
72492 2509 27057
79617 2025 25341
78758 2653 24880
79846 2491 24721
76452 2001 26382
74123 2491 26554
74903 1588 27363
82032 1723 24921
60548 4042 29445
38750 3390 37469
31430 1597 37176
34365 2125 37450
32000 2499 36571
31552 3064 35998
36550 3342 36977
29232 2615 35807
34290 1651 37822
6055 9955 20913
12731 7602 22211
6599 9229 21314
16302 5904 23147
17097 5743 23236
7184 9501 21164
72038 1340 27285
76051 1048 24649
70343 737 25043
67492 563 25147
74182 1162 25778
74661 995 24850
67680 872 26516
72121 1501 28005
81320 1534 25210
80070 1395 24966
80536 1424 24950
76436 1065 24605
31472 2471 30744
44107 5028 28477
44946 5181 28341
27144 1701 12995
35128 3602 13692
35842 2936 12601
29571 2328 13275
36822 2199 11348
37938 1914 10685
35943 3651 13562
36438 1966 11119
31427 1849 12166
36373 2501 11873
37899 3874 13398
35851 3414 29908
49792 6226 27415
46910 3599 24495
62410 6958 24495
58928 1373 24495
46678 2778 24495
48903 2059 24495
56609 2815 24495
60417 5281 24495
61755 1748 24495
59760 4475 24495
43713 3159 24495
50285 3607 24495
60299 8171 24495
51257 2190 24495
52385 1835 24495
47897 2986 24495
45915 6384 24495
54669 3274 24495
46253 3190 24495
58402 3936 24495
50849 1957 24495
50271 6632 24495
55437 4558 24495
61836 4849 24495
60285 1539 24495
56777 5051 24495
44359 2498 24495
46465 2549 24495
44598 4097 24495
56538 2093 24495
44101 4589 24495
62680 4293 24495
49600 6068 24495
59777 7097 24495
52423 2298 24495
57417 2675 24495
59821 3836 24495
55844 2996 24495
63759 7948 24495
50709 2951 24495
61591 3770 24495
34766 1562 7841
43679 1562 10769
27658 1562 4503
52751 1562 14142
20243 1562 1350
57769 1562 16020
37858 1562 8420
50086 1562 12903
38983 1562 9696
33397 1562 6618
32383 1562 6860
65161 3961 21282
64328 6060 22368
61731 2674 18527
67271 6380 26187
36026 777 17258
35860 741 17590
41670 1202 13327
48055 647 18464
38019 1310 12333
41090 865 16443
46750 964 15525
40937 1167 13653
42314 507 19758
39537 1252 12869
44726 747 17540
37198 1303 12393
49896 779 17241
36877 718 17808
38719 1303 12392
49505 560 19263
42251 806 16995
36002 673 18224
50544 630 18622
43806 648 18447
49027 673 18218
47777 513 19696
34836 726 17732
36085 1043 14795
34289 885 16263
32980 864 16454
40472 753 17478
41351 1240 12974
47378 648 18453
51515 646 18472
55916 324 21447
42691 635 18569
44937 960 15570
58352 143 23118
35839 949 15669
44398 677 18185
42333 1055 14690
43686 1152 13790
35589 1070 14548
36933 1072 14535
25184 430 22536
26668 1182 19149
62496 301 25539
70551 1540 28686
63298 1035 28674
66338 957 27342
65505 733 26573
68186 1527 29384
63342 586 26587
66858 1281 28670
65358 5278 22039
64521 5098 21850
16397 1573 24495
17578 2028 24495
23029 1534 24495
21785 3239 24495
34447 3007 30349
45549 5334 28301
70173 4799 26345
71110 4249 26308
70718 4168 26586
63170 3544 28149
64437 3718 27918
37532 4165 20646
28317 2194 18504
37851 4798 22770
32314 4116 23306
61855 8748 24051
51975 7329 24274
43913 5420 21729
34889 3363 19170
39034 5195 23568
32316 4242 23761
37370 4633 22431
46932 6067 22438
35436 4848 24265
27491 2178 18892
30179 2552 18790
49653 7027 24442
36349 3779 19888
48908 6821 24099
40900 5181 22501
30106 2767 19608
55206 7432 22891
42021 5651 23598
42770 5986 24406
30575 3242 21079
47509 6034 22004
33851 3651 20780
35121 3639 20048
31087 2671 18726
41878 5488 23085
47904 6595 23824
55859 7747 23681
54735 7603 23768
33927 3418 19893
43375 5441 22099
79353 2507 24860
77812 2843 24960
75694 1861 26790
77110 1883 26311
76918 2912 25166
78221 1983 25837
55974 1562 17080
31224 1562 16156
43422 1562 11593
37717 1562 11707
48244 1562 16901
49628 1562 16534
42636 1562 12451
45242 1562 12921
34943 1562 12712
39747 1562 14128
42648 1562 11732
50978 1562 17313
53785 1562 15309
38992 1562 14091
45551 1562 13941
56546 1562 17056
50818 1562 16042
40345 1562 16256
39860 1562 10941
30385 1562 17097
44457 1562 17301
54036 1562 16753
44332 1562 12515
28662 1562 17438
34610 1562 14945
40741 1562 13719
38470 1562 14531
39559 1562 15569
58335 1562 16987
46270 1562 15276
58978 1562 17117
42230 1562 17372
40496 1562 11546
42869 1562 13449
41814 1562 15884
20141 4165 24095
18713 3925 24179
14644 5520 23310
1959 9537 21065
19154 3915 24194
11348 5417 23284
19204 3639 24330
9238 3825 24011
14651 4349 23880
6312 8793 21526
2487 9154 21263
9818 3344 24258
6392 6542 22624
8379 8249 21838
5183 8534 21626
18678 3292 24486
17364 4827 23709
3843 8323 21698
11548 3304 24317
25098 1212 29589
20672 1011 26193
18916 1251 26124
14711 1466 24516
23545 695 26611
23893 659 26673
16051 1364 24893
23975 1402 29692
23693 325 25217
21591 637 25233
4021 8189 27454
2812 9024 27841
5205 7464 27155
8041 4404 25298
8520 4258 25303
38592 1579 30823
42077 2416 30160
53195 2227 29507
43146 1907 30348
51186 2915 29290
49892 2321 29681
57680 2293 29171
48765 1674 30089
61914 3760 28134
63921 2524 28631
50798 2687 29433
57563 2023 29317
62612 2399 28784
55921 2105 29386
53835 1854 29655
60405 2787 28734
59683 4221 28048
66315 6271 22676
73190 3300 22995
72799 4159 23512
72512 3273 22607
71660 5467 24009
29169 1562 9129
27498 1562 8256
19146 1562 7344
26176 1562 8942
28742 1562 11631
25934 1562 11069
28839 1562 7764
32309 1562 8924
23434 1562 10255
22871 1562 12014
28549 1562 9446
15681 1562 4809
25113 1562 9543
27435 1562 7631
23888 1562 9648
37608 1562 9809
26834 1562 12314
24842 1562 10601
21979 1562 6205
31677 1562 9591
20081 1562 7510
21732 1562 10206
21702 1562 9476
23822 1562 11803
27119 1562 9901
30772 1562 10319
20133 1562 7083
22364 1562 10246
19436 916 23906
17673 1048 24409
23100 790 22259
16686 1444 23404
25207 1163 19535
24908 1492 18391
21331 1508 20425
24590 570 22267
16059 1270 24466
19454 1056 23335
49873 4242 20291
32807 2547 18273
37361 3064 18845
41539 3001 19094
54031 4433 20669
42968 3760 19579
50963 4127 20305
46637 4194 20049
52539 3852 20271
42405 3701 19511
29110 1153 33750
30947 905 32441
35592 1435 37311
31107 1134 34097
35970 1361 36878
30746 1170 34266
25485 1542 35625
31920 892 32586
26281 1520 35667
32447 1126 34368
28472 1328 31194
26482 839 28317
25819 489 26782
25273 220 25575
28138 1224 30644
41708 1562 18177
60930 1562 18367
41613 1562 17634
60856 1562 19082
52606 1562 18588
35433 1562 17560
57701 1562 18060
55147 1562 18504
63091 1562 19394
54098 1562 19000
59867 1562 19014
58129 1562 17987
24430 3570 24704
25691 2455 28615
26176 2903 27353
27010 2047 30315
26152 3151 26561
26283 3627 25099
27083 2549 28753
28272 3663 25601
20626 1562 46888
29589 1562 42239
23965 1562 44843
35436 1562 39927
22504 1562 44298
19704 1562 45441
13809 1562 45953
32589 1562 41202
17620 1562 45943
25774 1562 44055
25768 1562 44787
22069 1562 44348
63173 1737 30607
56576 4212 17962
58507 4455 18764
39008 2180 10914
42108 3489 13469
47223 3814 15154
45685 2856 13461
49496 4083 16074
53041 4240 17147
42197 2429 12028
48942 3775 15515
48765 3346 14880
40353 2737 12008
40438 2524 11734
43477 2862 12936
49489 4393 16500
54153 1651 15012
47784 2438 13618
54404 3737 16810
52330 3167 15676
48469 1876 13375
53461 3437 16261
58615 2617 17239
47664 1570 12864
41707 1610 10987
59869 1972 17109
51943 2381 14905
61454 2003 17644
60509 1727 17113
59858 3592 18440
80443 1389 24172
65621 461 23712
68537 833 22925
67202 657 23311
73765 1428 21850
68312 1088 21675
66457 644 23133
69241 978 22479
63752 232 24170
68299 768 23148
78937 1514 23112
75413 1012 24301
76822 1079 24445
62799 2850 19707
46320 4455 29038
59025 4455 29291
56067 4455 29510
53506 4455 28755
46286 4455 29338
44546 4455 29321
66549 2330 20472
67902 3187 21046
67955 3770 21378
28180 1696 17248
27995 2112 15815
31694 2633 17488
26659 1805 15575
25547 1835 14501
27708 1748 16673
47378 3812 19903
57105 4185 20749
34463 2337 18277
36521 2371 18433
40366 2792 18908
44987 4201 19941
36983 3224 18902
38236 3591 19174
26273 768 27978
25916 955 28818
72939 3632 25848
71883 4817 25412
72429 4037 25779
72075 3223 26659
30306 915 17811
27394 329 21622
27685 1259 18548
61475 6025 26878
63716 8009 25554
52992 6491 27175
57740 6213 27019
61834 7916 25736
50503 5641 27846
58418 6106 27037
58263 4850 27790
48893 5112 28267
47371 4762 28577
59807 7619 26048
48759 5575 28002
54541 6735 26926
63140 8891 25071
62555 7388 25999
61089 7242 26185
18391 2931 24495
16865 2881 24495
17856 2791 24495
67779 8098 24838
65554 1562 25355
54225 1562 26294
80057 1562 25394
59867 1562 27793
78259 1562 25373
44023 1562 25151
65989 1562 25355
63332 1562 27000
32553 1562 24761
30891 1562 25052
57373 1562 24942
37451 1562 25798
70171 1562 26711
58763 1562 27374
25358 1562 24967
51089 1562 25863
59516 1562 24799
76784 1562 26019
72991 1562 27729
67821 1562 27718
25296 1562 24589
75801 1562 26869
61444 1562 24861
73653 1562 25845
55603 1562 26641
61660 1562 25846
61162 1562 27688
66021 1562 27834
78491 1562 25106
28096 1562 24706
70371 1562 28067
65554 1562 26650
64682 1562 26891
66241 1562 27366
66962 1562 25887
62032 1562 24509
55230 1562 25663
71214 1562 26574
40337 1562 25714
72863 1562 26931
69945 1562 24994
69396 6582 25253
69172 6867 25132
4962 7818 21694
15506 2459 24302
15883 2135 24440
2862 10147 20746
5607 7924 21706
15432 4288 23675
15948 4951 23488
15417 2118 24411
14372 2602 24168
8573 6183 22519
10909 7593 22215
14726 4992 23383
16085 5489 23316
17676 3156 24227
7324 6823 22208
1908 10609 20517
6433 8402 21605
74125 1562 23228
70494 1562 22150
73824 1562 21315
65981 1562 21937
74315 1562 22753
64674 1562 21068
50566 1562 19865
79323 1562 23411
62507 1562 21412
52205 1562 19729
50235 1562 20220
61552 1562 20525
76080 1562 23380
68745 1562 22153
63232 1562 20854
73858 1562 22676
67873 1562 20822
55270 1562 20880
49319 1562 19711
33450 3022 18735
43173 4744 20262
51581 6600 21908
38780 1562 40331
43914 1562 37470
45543 1562 36987
37303 1562 40317
34569 1562 41109
35182 1562 41091
44325 1562 37996
28299 1562 44143
45936 1562 37188
40776 1562 39034
30709 1562 43589
40595 1562 38414
51045 4455 20304
55506 4455 19998
59627 4455 19973
58358 4455 19844
56889 4455 20862
56338 4455 19578
50370 4455 20054
66547 6850 23018
46457 1595 36480
48539 2476 35089
49865 1874 35159
55547 2676 32679
56099 3889 31505
56996 2086 32700
45292 1956 36557
54052 1745 33924
54567 3340 32447
48762 2035 35380
55948 3018 32269
57886 2260 32272
51490 1782 34714
55196 1872 33453
59446 1562 32476
27491 1562 44517
47893 1562 36910
50244 1562 35332
40245 1562 38629
40673 1562 39426
52448 1562 34649
53439 1562 34505
34038 1562 42309
43883 1562 38343
49096 1562 35692
38383 3212 30001
52631 4162 28554
53630 4046 28546
55208 3996 28465
33714 2638 30610
37615 3704 29801
40598 3891 29504
43343 3997 29264
48177 4336 28765
41103 3406 29718
67469 6186 22706
61046 3094 18562
59542 4210 18924
33131 1562 28420
17247 1562 25591
38380 1562 28086
22998 1562 28729
17312 1562 25239
17779 1562 26102
20182 1562 25312
54488 1562 28566
46977 1562 28362
41659 1562 27282
24518 1562 28543
32851 1562 27525
25351 1562 26987
19027 1562 26646
36640 1562 29357
23847 1562 27698
36009 1562 29526
42227 1562 28623
38071 1562 27427
37961 1562 27747
27273 1562 30483
47699 1562 28402
22899 1562 26177
35275 1562 29633
34481 1562 27028
32340 1562 30123
36546 1562 28891
38669 1562 27151
28849 1562 28402
39545 1562 30434
17986 1562 25301
41951 1562 28864
45031 1562 29264
42939 1562 28624
24902 1562 29314
38383 1562 30548
36912 1562 28015
42365 1562 27293
47509 1562 30132
53354 1562 29754
37689 1562 29199
48433 1562 27884
42482 1562 29160
42917 1562 27055
28181 1562 30621
54027 2337 15536
57962 2508 16940
61166 2229 17737
57544 2967 17183
59109 4399 18864
60411 3060 18180
45509 1922 12463
50477 1697 13872
50998 2555 14745
59464 1953 16964
43882 1589 11667
56080 1819 15769
49136 2745 14304
53459 2893 15813
54439 7264 26294
37251 4725 26158
64534 9257 24548
41702 4928 27843
30628 3179 28168
30364 3306 27565
46476 6206 25803
28485 2278 30275
36593 4047 28264
32199 2957 29831
59909 8438 25006
50754 6741 26185
46414 6362 25200
32993 4150 25931
41214 4737 28273
39589 4898 26804
37764 4514 27206
39389 4329 28759
49856 6574 26304
52193 6916 26335
47922 5922 27620
59107 8283 25133
35745 3718 28995
26428 1688 31296
41934 5098 27354
34506 3465 29242
52733 7492 24537
47957 6539 25400
53564 7110 26374
29043 2636 29279
44528 5374 27761
29416 2235 30938
62179 8800 24926
40895 5531 25217
33857 4165 26346
33950 4630 24712
51218 7131 25024
66031 5667 26672
66764 4491 27285
39527 1112 34817
46757 603 30115
42444 773 31687
41670 1256 36149
38316 728 31274
52086 243 26791
49704 364 27911
51292 455 28755
45815 841 32311
42801 646 30517
48491 518 29333
37376 1319 36734
44232 910 32956
46756 826 32179
47906 638 30445
42653 509 29252
46703 658 30626
39616 970 33505
47394 808 32012
36178 875 32632
53013 524 29389
42317 538 29517
55519 378 28042
48268 638 30437
53683 377 28034
39584 687 30892
52261 601 30097
41702 622 30295
35118 825 32169
34094 1009 33864
38948 969 33496
43830 647 30520
47692 916 33007
35990 1115 34844
45558 971 33516
48177 582 29920
68752 3155 27902
68635 2336 28371
67679 2556 28311
68472 5054 26853
35984 3128 12831
31301 2108 12554
35493 1706 10988
36471 3762 13589
27482 2113 13482
31460 2297 12777
38490 3257 12405
29972 2495 13408
32063 2271 12594
32474 2392 12663
37634 2722 11874
58552 2810 31606
53630 1786 34026
60606 2482 31218
57923 3554 31196
46026 2468 35900
56792 3744 31402
55931 1572 33464
47634 2016 35757
49704 2161 34975
44204 1618 37183
52917 2055 34032
55625 3252 32181
56237 2892 32280
29354 3324 21982
26637 1906 18346
27720 2579 20135
28326 2972 21191
26956 2066 18752
25651 3266 22949
24672 3438 23795
27059 3225 22381
26510 2149 19154
24763 3164 22903
37847 1501 10651
32247 1401 12714
29352 1162 15103
30238 976 16206
34887 1151 13850
36871 1425 11431
33932 1364 12571
32256 1489 12088
34508 1526 11282
28861 1444 13227
26614 1469 13590
30092 1335 13700
38082 4036 30318
38971 4436 35321
37772 4249 36144
36158 3891 34949
36009 3771 32966
39345 4261 30065
34822 3571 33457
24350 1694 35318
34733 3483 31925
26489 2092 35266
31504 2991 34363
34849 3672 35513
36730 3813 30975
33312 3292 33554
36647 4015 35650
37429 4122 34787
33441 3300 33213
44529 229 22324
38675 70 23792
35054 121 23320
34395 258 22055
37883 372 21005
32504 485 19954
32366 315 21529
42626 209 22511
50983 93 23583
39249 385 20885
32302 86 23651
54917 114 23392
31514 85 23656
50536 106 23458
51602 84 23664
28860 165 22917
31392 511 19716
27492 9 24363
40727 379 20941
47037 313 21545
33036 730 17690
42253 251 22126
40054 514 19693
33198 456 20224
37654 200 22589
46799 284 21817
54176 36 24113
46016 89 23616
50820 17 24287
30707 17 24283
51693 205 22547
31171 386 20872
42018 456 20229
38113 471 20088
51679 6761 26615
33625 3906 27162
40796 4950 27269
29912 2940 28648
44220 5683 26474
50972 7007 25340
36219 4300 27143
37838 3939 29334
38771 4990 26025
57273 7755 26053
47647 6126 26729
38567 4518 27629
54750 7723 24795
32471 3962 26329
35535 4891 24625
49309 6788 25230
39586 4530 28138
35745 4069 27721
57246 7833 25752
44811 5680 26805
46087 6159 25762
33375 3912 27004
60688 8545 25040
54323 7495 25390
30134 3579 26450
31463 3102 28902
40652 5130 26539
41465 5379 26079
31682 4166 25161
32671 3916 26606
53219 7241 25714
65534 9394 24595
44325 5499 27197
33553 3111 30006
67192 2187 20435
70032 2426 20761
67479 4104 21534
68361 4104 21593
4068 8829 27533
5338 9498 27830
19462 3897 24781
16656 5506 25628
4133 7763 27013
12884 4738 25341
8633 4739 25439
11890 5130 25554
4022 9328 27777
8113 7478 26783
13539 6218 26046
2226 9227 27769
9914 4092 25095
15026 5103 25469
6488 5964 26084
6530 6225 26210
14126 4146 25024
8581 5251 25689
10625 4307 25183
5157 9179 27679
30278 1237 14353
34565 1109 14224
33040 1114 14552
32941 1412 12464
32152 1013 15484
34039 1273 13184
29673 1337 13786
32485 1256 13684
37050 1469 11069
32147 1121 14719
33321 967 15531
71347 6176 24549
68278 6940 25550
25010 1562 40153
24263 1562 41837
23288 1562 36039
18996 1562 44194
24628 1562 38406
28575 1562 36664
22617 1562 38304
21799 1562 39852
17734 1562 44279
22800 1562 40716
18232 1562 43978
17306 1562 44231
24048 1562 35824
22822 1562 40350
19817 1562 39945
32798 1562 37571
25023 1562 41612
29033 1562 39149
29440 1562 39648
35774 1562 38540
22688 1562 37908
28450 1562 38563
21055 1562 41275
26501 1562 38640
18407 1562 42412
28911 1562 40139
26292 1562 36209
30395 1562 40243
27053 1562 36777
24015 1562 37108
31166 1562 37477
13644 3707 24169
11773 4964 23515
8616 6192 22845
21469 3662 24370
2894 9658 21027
16667 4085 24054
7394 7436 22211
7365 8543 21672
11910 4400 23792
8515 4964 23440
18603 4451 23920
7832 5571 23129
10363 4548 23685
4509 9094 21338
3829 9605 21074
8156 4406 23703
0 11246 20188
19829 4126 24107
8142 4951 23438
67510 8244 24132
24556 1562 29898
21372 1562 28347
47096 386 20872
52089 577 19104
52976 224 22373
48185 388 20855
43458 813 16923
36224 720 17786
47787 818 16876
44126 1112 14161
39626 763 17387
39460 858 16514
35917 1174 13593
40555 947 15685
47236 828 16790
35476 735 17649
44890 1049 14742
48934 338 21313
32079 794 17099
46536 781 17221
36127 1075 14502
36412 1185 13484
56471 163 22931
43802 543 19425
47236 794 17104
53560 220 22404
38245 1455 10986
37033 1134 13959
40576 1187 13471
38377 1215 13212
53070 452 20261
58419 89 23616
33366 748 17525
60470 35 24123
59699 75 23753
54830 415 20603
53884 319 21491
38556 1172 13604
51932 283 21822
39990 2423 37871
44488 3116 35861
51492 3503 33299
39730 2626 37787
40065 3130 37266
51710 4218 32641
49099 3884 33752
43936 4054 35266
39026 1726 38753
49733 3930 33511
52232 4415 32311
9211 5542 26207
7578 7004 26825
12765 6571 26290
13042 3009 25060
19094 2947 24587
14457 5334 25744
10463 4303 25692
11673 5274 25931
11631 3662 25387
8557 5556 26260
16365 4208 25219
193 11002 28735
12643 4050 25443
7388 8810 27453
20191 3135 24569
