ply
format ascii 1.0
element vertex 2517
property float x
property float y
property float z
end_header
3568 19372 36599
5402 9979 46525
11008 9849 37242
60510 11114 38283
56573 6217 39049
46941 4561 47889
46634 4596 46916
45933 4652 44016
46170 4687 46606
7847 10310 34313
3811 12930 36386
4962 13620 36381
6387 9939 36255
7130 7871 36135
26763 5562 34676
9966 7451 35936
29468 5102 34496
47959 4071 33281
47780 4210 28747
46593 4983 61687
47411 4468 50360
59302 4409 34354
53437 9947 34725
4796 9727 32705
60962 3633 42311
14885 10367 37355
13539 10259 37300
31899 10589 38257
40628 5134 71893
40063 9153 34298
40840 9491 34361
57786 2615 37320
8466 10345 35893
9634 10017 45589
1021 10782 36491
49899 7420 33909
39851 10649 38218
63036 7578 37458
60595 14508 39813
30463 3444 36943
53878 10192 34985
31276 3523 34752
6007 10159 41353
3876 9870 42017
1262 18517 36597
4812 9816 46125
29956 3568 37437
51698 9921 34632
54265 10441 37743
52392 2950 38309
18825 6436 35275
9575 7532 35960
20187 6390 35157
28560 5219 34562
45208 4841 34013
33370 3457 33115
33058 3295 34974
30661 3400 36391
6730 12090 36361
54493 5145 39064
52474 3109 34722
46442 6941 33846
48269 6652 33840
41644 10427 38535
63368 8287 37096
5770 10130 40967
4159 9919 40757
22574 7145 38270
31388 4354 34080
61060 11937 39553
45532 11265 36282
18142 9410 37749
60172 8483 35139
11928 10881 37090
63874 7747 36757
48377 3258 32049
52926 7134 39243
6819 9539 30605
62344 6605 36124
57907 3079 36202
51680 5321 33978
36370 3923 23671
36657 3723 26190
35808 3819 25685
36429 3549 28867
35457 3955 24116
35774 11238 38302
52682 3500 38713
2776 17474 36466
38577 10152 34589
41410 9834 34458
60172 6888 35648
23905 12764 36309
22900 12635 36135
48770 11015 37390
6699 9774 24993
45174 2877 36622
49892 9309 39003
60795 3244 43249
13755 9574 35726
29111 12460 35455
31569 12870 35409
45593 6771 39361
46850 6551 39366
42461 5793 69655
42521 5708 66865
41830 5817 71111
42439 5823 70659
42838 5864 71518
42737 5421 57443
45558 2902 37154
43155 2955 37567
41899 2967 37505
10366 10152 41829
38461 10917 38208
44491 5464 10460
44678 5171 18806
44468 5344 14101
43956 5195 19755
44030 5259 17650
44674 5593 6188
44456 5264 16529
43860 5357 15134
44704 5544 7607
42909 5193 22216
44071 5524 9639
44730 5399 11863
43374 5235 19874
45000 5184 17670
48678 3876 38906
46785 2908 35665
45217 2954 35177
45979 2914 35737
46950 4668 60589
47409 4374 54818
45978 3599 48448
45115 3421 45495
43397 3657 48873
45134 3482 46447
47271 3115 41107
47201 3146 41569
44649 3547 47373
46480 3375 45036
47136 3055 40120
44386 3704 49797
46596 3308 43995
44539 3499 46605
45567 4793 68153
45902 4407 61787
44650 4099 56410
45534 4728 67051
45786 4561 64336
45591 4196 58241
44546 4298 59699
44621 4489 62892
45774 4513 63536
46317 3999 55095
42554 3897 52634
43338 4000 54503
45035 4144 57250
46641 3919 53829
42762 3742 50091
45392 4435 62161
44303 4021 55041
44996 4564 64220
42959 3850 51927
45693 3896 53251
45203 10166 34531
46874 9875 34405
8386 10316 34202
35492 5569 34092
36984 5430 34047
40687 5319 33915
8447 10282 40930
45381 5223 14532
45311 5158 17340
45540 5431 6042
44984 5446 9769
5461 11342 36321
40582 4982 46399
40227 5008 47437
41170 4833 41866
40503 4939 45341
40468 4776 41008
40148 4791 41671
40205 4736 40146
60827 2755 44368
46198 4817 67787
47518 3798 50604
47138 4151 56426
23377 9638 35203
32570 10205 34820
32259 9027 34566
21537 9707 35322
28721 10093 35009
26567 9999 35108
21130 9952 35401
28567 9567 34896
41767 3183 41072
42034 3483 45858
42323 3500 46183
43186 3305 43276
42571 3343 43759
45687 3210 42278
43643 3396 44809
42180 3623 48099
41727 3396 44414
43301 3076 39682
44174 3167 41295
44765 3230 42412
44774 3266 42984
42713 3130 40414
54431 8352 34110
32028 3532 33819
2194 9089 36756
31507 3720 39800
60737 12179 30010
15798 6474 35546
26215 5018 34806
27496 4788 34722
13053 6192 36012
21911 4910 35455
46003 9079 34160
7209 9622 26564
59997 6245 35922
7936 9673 37082
33678 11979 35117
33522 12558 35242
6877 9563 44643
34706 13947 37035
34440 5153 39012
7005 10186 28492
53951 6264 33951
7512 10290 34747
7504 9039 36107
6011 9024 36206
17465 8870 35448
59341 8802 38577
4815 15467 36773
37688 4550 46563
37854 4553 45686
37140 4361 43454
38264 4591 44546
37479 4473 45211
37638 4448 43442
35975 4124 42356
38618 4525 40251
38573 4577 42284
36616 4249 42781
13081 9543 37428
42268 4861 33955
11299 9476 35491
60642 11006 30248
1286 10041 36715
60922 1322 32186
46751 4878 57375
46812 4847 59496
46795 4850 56505
60172 8752 35938
60501 6597 35092
36393 4517 56564
37276 4725 57636
35648 4315 54116
35699 4275 51026
36062 4357 51247
36019 4415 55311
35533 4230 50498
37613 4920 65002
36600 4550 55899
42498 5631 73407
60601 15233 40369
80 9689 36597
32562 3505 39741
5355 12786 36365
4644 14710 36399
38924 11839 37582
44989 3068 33298
42719 3200 31672
41753 3445 27997
46345 3073 32937
42362 3338 29550
45298 3146 31995
43256 3079 33465
42107 3056 34062
46149 3115 32301
44306 3137 32333
42997 3142 32529
41640 3062 34061
45802 3103 32573
43228 3244 30862
31510 3411 35476
42319 6921 39335
55596 5195 39002
38240 3507 44668
39137 3678 47655
38714 3704 47847
37017 3477 43644
39336 3615 46807
37121 3340 41641
37638 3820 49083
36992 3531 44427
38510 3764 48640
56540 2749 34752
45469 11262 37003
9244 9382 34787
8795 9427 33220
35743 5356 39090
39942 6374 39346
36846 5781 39172
30262 4378 38919
37757 10675 34719
56825 6423 34161
56995 9928 35123
2187 8175 36636
47724 4144 22079
47487 4306 19198
60938 10922 32492
14704 5884 37009
49065 9551 34277
60701 1935 33589
49174 4872 39179
15102 11396 37149
47950 3858 24938
44797 5367 284
9974 10162 30675
47217 3565 25410
47041 3630 24220
11361 9676 37301
28499 4706 38550
17457 6226 37762
16215 6460 37682
46790 4740 52589
44961 5606 68831
45641 5084 55796
45374 5388 64381
45163 5360 61791
45466 4983 50930
46131 4855 51539
45758 5021 54482
45601 5042 54033
8492 9752 47217
44631 8119 34017
47393 8955 34123
29736 3563 37053
9280 10254 31825
6406 10169 42892
45674 5348 7916
46081 4870 21490
46375 4949 16481
45821 5346 6834
45874 5241 10131
46609 4960 14305
46354 4984 15411
45862 5151 13367
47209 4583 16617
41702 8515 34120
5031 9734 43481
5015 9719 41962
41615 5123 1129
50014 3951 34253
60746 12716 28164
41050 4901 29406
40732 4954 27662
40032 4890 28730
42106 4807 32900
40631 4999 26378
40408 4796 31611
1750 8185 36598
50746 4704 39118
49929 8436 39144
40545 5495 7448
40411 5218 18865
40934 5512 9724
40764 5649 2261
40148 5401 8594
40650 5305 16814
40373 5393 10710
39908 5504 2102
40784 5500 9085
50828 2902 37934
15808 9391 37614
62906 7218 35827
35851 10445 38455
45559 5443 1000
37338 4593 33819
50864 2858 37320
7520 9699 25477
39345 4848 46940
38944 4683 43683
39677 4919 47411
38733 4638 43368
40096 5011 48061
40062 5054 49736
39828 4990 48922
59942 7503 38664
13852 7729 37600
56827 5687 34330
54469 5645 39161
43759 11154 35509
28319 3769 37082
6301 10160 30169
2013 11702 36438
3894 9880 31869
4854 9994 30722
36242 13589 35678
60479 10865 37910
44267 4918 46482
45104 4823 45696
43546 5021 47695
45725 4566 40365
45697 4621 41715
45179 4775 44637
53924 4608 38959
10472 10231 33821
39864 5348 72869
7116 10306 36934
19965 6057 37966
25930 5264 38396
27774 5008 38527
44188 10267 38632
47832 9809 38796
24796 4897 38206
19121 5590 37758
60838 15224 41341
11453 10245 37187
52825 10912 36575
28146 5861 34528
32176 6335 34186
31241 5708 34286
23129 6328 34911
26514 6476 34634
31944 5904 34222
29490 6457 34396
25207 6230 34749
38822 12074 37145
54524 3040 34578
5401 13498 36809
55138 2579 37869
35346 4330 33644
60172 8950 37759
44362 5038 1400
2187 18899 36552
41019 5287 39275
60964 6235 35694
34407 4506 33929
58039 8012 38934
2749 12587 36421
1943 14451 36467
3002 15480 36431
60839 14950 40970
36510 9439 34492
37780 9307 34413
35403 9069 34446
11986 10056 35073
10154 9362 37017
47704 3135 41004
47174 3491 46821
46646 10549 34885
47541 4365 26696
47747 4224 29462
57912 7604 34209
3756 17068 36445
26585 4068 35973
23741 4491 36138
21021 4885 36407
60942 5651 39610
54095 6121 39224
8590 9420 39729
48104 3856 46592
60666 3325 33906
500 16636 36571
6227 10208 37803
8691 10356 36526
55888 2555 37208
59935 7970 34494
38815 7676 34056
35902 8143 34240
53323 6651 33925
2131 15902 36722
2729 16551 36742
13366 6607 35779
6455 7453 36317
3970 7519 36581
45642 5529 1489
39774 3587 26594
37453 3817 24261
36481 3271 32896
39186 3570 27124
37635 3379 30723
39355 3605 26524
37882 3810 24143
38337 3466 29083
38618 3523 28102
36824 3640 27201
6688 10171 29010
33788 4067 33474
43362 4829 4894
45744 4330 12705
45076 4635 7773
44964 4416 11444
45210 4814 4766
45675 4255 13969
44222 4733 6321
44033 4624 8179
46307 3887 19973
43703 4897 3704
45508 4169 15433
46407 4146 15622
44415 4760 5839
43731 4928 3176
4831 10320 36306
7704 10116 26522
57449 9723 38228
47645 4289 51220
31857 4723 38834
8947 10240 30763
30401 3679 38831
60902 14708 41284
6840 10203 42551
36568 11278 38320
57080 3115 38814
42643 5845 722
55907 9454 38661
55345 10202 35210
40647 5262 455
19900 10447 35574
28580 11252 35240
22041 10688 35499
24315 10851 35403
58775 4678 38956
43360 8286 39133
38756 6854 39261
33248 7141 38985
36108 7068 39118
34207 6707 39087
57678 2610 35873
60763 4646 42507
33135 3147 36523
29742 11022 35134
13936 10354 35888
28904 10871 35152
42559 5085 39236
60863 3964 42907
8174 10239 42984
31873 3747 33359
56370 3342 38913
6692 10211 32104
45987 10739 38108
60817 12680 29045
6164 10144 43532
36979 5997 33995
37971 5449 34008
40502 6391 33823
37720 10854 38438
4639 8429 36895
9465 8132 37267
7539 9380 36569
34082 3284 34434
32560 3229 35961
11540 10240 36668
5961 11615 36324
58534 7330 38859
42897 5279 39274
9691 10185 42427
17014 10695 35779
38686 11339 35269
38422 11870 35413
8639 9567 44899
9950 11014 36829
9906 9990 28086
27578 12920 37500
9143 9480 31735
9116 9502 31063
52192 7329 33948
48731 5786 39305
48764 5306 39260
53163 2656 37116
41950 5152 23472
41551 4969 28036
41267 5077 24859
41694 4996 27411
40513 5092 23759
6189 13177 36392
55616 2599 35094
3806 13473 36798
59203 6679 38470
8077 10188 45339
27030 4263 34946
55423 4599 34177
44110 5773 72196
50169 6825 39312
6609 9530 32258
9630 9891 27215
47027 4714 16060
47624 4341 22874
35768 11118 34868
48663 3310 33958
54155 2652 38089
55226 10553 37230
42152 4435 11728
41101 4782 6577
42214 4742 6644
42176 4644 8277
42323 4826 5205
41207 4276 14835
42252 4782 5972
41857 4214 15509
41843 4049 18227
42368 4988 2513
41568 4898 4413
41116 4514 10969
39389 11314 37660
57286 6525 34224
49398 10475 38246
55601 2562 35866
6715 10096 26478
35466 3652 44827
36148 3930 49397
36386 3625 45365
35840 3520 43348
42926 5490 73473
60981 11771 31162
22689 4874 35352
3342 11185 36817
39874 3317 30758
40950 3170 32624
39072 3320 31043
40667 3127 33423
39246 3440 29096
40578 3083 34146
40548 3531 27124
38975 3183 33242
41231 3498 27356
41397 3412 28640
36895 3262 32867
36967 13204 36912
35847 4158 28594
35533 4212 23618
35652 4158 26851
35528 4184 24725
60845 5179 41208
35902 4380 54727
36796 4606 56744
36903 4638 57265
36473 4454 51778
35384 4227 52216
37255 4745 59108
37183 4736 59485
34937 4100 50412
35355 4207 51429
49938 2837 36547
43961 9221 34225
45540 9482 34274
58777 3595 34198
52231 10234 38331
60664 3495 34420
17541 11949 36411
14117 11510 36508
6587 10153 44985
37906 12631 36250
6235 10040 26028
47029 2904 37515
47029 2944 38243
35434 10141 34690
61012 10544 38540
51842 2770 36957
50301 10072 34666
2355 11790 36767
56170 4660 34136
5228 9750 27242
8418 13535 36512
60518 2777 34118
58220 2660 35328
46622 10214 34612
57876 10131 37406
30511 12411 37820
28841 11739 37868
45423 3210 30966
46574 3090 32609
41824 3583 25801
44564 3325 29301
44341 3105 32839
41767 3232 31357
43062 3165 32130
45126 3296 29659
42325 3485 27247
44171 3260 30416
43881 3294 29943
40090 5475 4798
41136 5650 5115
41090 5517 10743
40056 5280 13306
40866 5392 14617
40802 5584 5482
41123 5626 6066
40502 5510 6454
40870 5438 12561
36085 3188 34404
36364 3162 34705
36728 3050 36459
33666 3158 36273
7465 10295 37566
9281 9373 38100
8691 9350 37275
26347 8057 38412
27614 8119 38486
31166 7296 38840
17401 8085 37822
21137 8443 38014
27846 7109 38650
12253 8555 37415
25922 7449 38474
24189 7811 38307
31564 6908 38923
18576 8632 37818
7905 8603 37123
22985 7696 38245
256 11284 36559
60733 8675 35005
47108 4296 32154
47258 4426 27319
47051 4424 28717
47540 4257 30535
58956 3320 34504
7606 10270 41450
34069 3201 37884
36689 3143 38340
35317 3098 36789
37915 3040 37239
37383 3605 45732
36172 3251 39864
36405 3285 40486
38296 3685 47367
36925 3702 46964
39225 3728 48452
36868 3387 42226
41177 3689 48796
37083 3736 47566
42698 7579 33952
4450 16768 36444
8657 10158 45294
32351 3419 34458
7417 9516 43666
10911 9511 39162
40369 5283 72756
44782 4878 26706
44081 4923 26955
44964 4773 29024
44450 4808 29150
57285 5523 34489
34658 7271 34165
34007 6573 34095
34366 7992 34278
44711 5111 72436
4619 9268 36896
38581 8272 39032
37604 8297 38991
40462 6895 39322
11420 9714 40314
3265 8533 36378
43740 4807 30624
43417 5009 26064
43412 4970 27085
44959 4585 33873
42934 4755 33606
43014 5067 25371
42563 4828 32454
57796 3779 39138
41348 4994 27171
42118 4878 31005
41711 4899 30067
42406 4939 29635
42360 5015 27542
51121 8110 34023
6572 9648 26589
53900 10770 36233
44470 4979 71019
43443 4656 65426
44640 4923 70116
42579 4152 56874
42744 4753 66910
42721 4409 61177
42200 4265 58673
42237 3920 52945
43028 4481 62434
42295 4489 62426
43430 4869 68984
45025 2965 38163
46339 2977 38690
60641 4061 43306
41837 2994 37988
44098 2913 37022
46273 2878 36866
11083 10141 33389
4322 9952 34155
39340 4692 64213
40388 5041 70511
41146 5062 71259
39241 4659 63628
40045 4903 68058
41261 5015 70535
40643 4918 68624
40748 4826 67161
39249 4369 58862
39897 4681 64342
40147 4731 65299
41529 4854 68034
42254 4969 70298
4770 9745 31806
5998 9589 31308
5630 9663 28939
30793 3622 34424
43239 5026 39222
20552 5058 37513
25575 4344 37925
35976 12835 38005
864 9111 36633
47863 3325 43435
47223 3595 48209
8024 9575 27310
48189 3543 44404
46263 5196 68303
44797 4508 9943
45046 4448 10897
44338 4811 4996
45103 4558 9043
43478 4866 4251
45180 4495 10078
43083 4978 2481
44743 4668 7293
45174 4324 12932
44296 4675 7269
44100 5740 559
43117 6363 33817
45669 5807 33876
60478 4681 35040
6546 16299 36689
7666 13163 36753
35938 4267 48281
36393 4385 49083
34870 4058 49150
35352 4101 46627
54641 3385 38820
62731 7833 37739
19103 8295 37902
10990 8398 37356
20833 7456 38140
28530 8425 38500
24984 8183 38304
24029 8431 38205
13235 8094 37548
25561 8337 38319
9392 10121 28377
5833 9868 48244
45856 5028 71465
45759 4924 70089
60774 11803 39240
9398 7137 37117
5673 7310 36744
11265 6797 37230
8851 6967 37005
7110 10268 35328
26365 10350 35195
45980 4483 33961
57818 4826 35461
38282 4700 25019
39057 4842 24760
38497 4637 28448
37982 4669 24292
38949 4706 28768
39512 4685 32807
60712 6141 37433
10775 9694 41873
60764 9805 32917
45909 5410 70109
61064 7397 38377
16011 10565 35811
1408 13071 36713
6911 10174 28064
39554 3037 35257
41016 3025 34857
38243 3128 34395
42621 5317 0
36732 12332 38123
6151 9632 27458
60773 9370 37388
3858 9890 34081
4007 9900 32568
20576 8999 37950
19695 8965 37892
38504 4861 53161
37538 4646 51024
39192 4915 50192
39900 5238 59212
37661 4770 55642
37056 4568 51247
39084 4954 52806
39554 5356 67182
39905 5169 56038
39182 5056 56641
38356 4986 59922
38814 4891 52086
39743 5119 55078
39691 5008 50512
38076 4901 58280
39018 5176 63293
39885 5090 52655
38242 4765 50843
17312 6381 35421
22463 5642 35058
28441 4666 34653
6498 14602 36755
46374 4539 43555
45818 4739 45843
45839 4634 42886
45504 4942 49814
34844 13920 37441
5427 9626 33683
24108 8938 38180
28629 3745 35769
42868 11059 35351
11599 10162 35203
30857 13654 35970
8135 9522 43936
554 14153 36550
7185 13127 36777
35035 4029 49694
36846 3865 49182
36374 3853 48542
36203 3768 47176
60925 3909 41954
53608 5069 39093
2229 11033 36419
57046 9170 34482
60463 10330 30961
36086 4446 16919
38082 5030 7672
37403 4838 10427
38440 5199 2202
38705 5233 3540
61315 9432 35768
6621 9640 46518
60725 4585 41715
9803 9513 41074
9479 9469 40608
31846 11730 38028
61064 6143 37211
49079 3077 34819
9986 9501 32707
10203 9495 33211
15067 9726 37504
7131 9460 33971
17534 11359 37310
20201 11656 37401
25188 11387 37735
25822 11294 37789
23149 11048 37688
23408 11331 37646
10775 10147 36031
5505 9839 35953
34064 3280 38714
41257 5376 73232
31936 4118 39446
37487 3171 39147
39212 3060 38170
37235 3153 38783
37354 4801 63953
36568 4449 57725
38294 5149 70255
36977 4649 61218
38709 4915 67125
37949 4726 63425
5062 17329 36473
53095 4979 34093
6949 9569 27727
60367 6728 38243
60654 1467 33369
7658 9393 37714
10621 10299 36934
44110 5779 1194
5872 17532 36673
1153 11186 36718
8834 10339 37638
21683 6996 38192
26053 6022 38503
25497 5994 38457
8027 7814 37130
28025 6538 38682
16559 7447 37799
20507 7166 38104
22675 6754 38261
29617 6315 38800
6062 16960 36505
31574 10143 38331
29606 9760 38309
29237 9859 38266
28811 10040 38200
32011 8990 38621
30688 9301 38475
32286 8708 38701
25637 9846 38067
42006 4108 56021
41362 4203 57246
40949 3963 53077
41798 4253 58297
39907 3930 51999
40690 4263 57875
41028 3875 51667
42398 4738 66587
41229 3782 50240
40501 3798 50124
41317 4137 56129
39963 4298 58058
40144 4028 53727
41806 4042 54829
40724 4459 61116
40663 4020 53863
40018 4146 55592
41066 5515 62548
39937 5428 67438
40384 5410 63155
40592 5338 58317
40397 5515 67780
40283 5574 71327
40694 5480 63886
41295 5754 71533
63069 8578 37113
50682 6135 39307
4359 7447 36631
44773 5366 60450
44662 5629 68036
44974 5178 55273
44301 5731 70271
44116 5617 66438
44629 5717 70597
62097 9040 37447
51671 3214 34730
11297 11265 36687
47113 4441 58651
30998 4429 34218
58606 2802 34980
40064 11357 36231
2677 18159 36492
4223 9829 30762
39813 9453 38812
39319 9404 38811
50022 9953 38615
6064 10195 36905
60562 276 33120
47133 7026 33855
53166 2655 36169
48286 3884 30413
41291 7896 34023
4114 17912 36721
42080 7530 39242
5377 10031 27810
14446 9078 35647
9507 10148 43837
58834 10088 37063
60652 8407 34733
15412 8941 37608
6991 8887 37049
9498 8805 37214
35293 4029 23241
37415 4234 17840
36597 4006 22193
38147 5041 4738
36335 4268 18477
36280 4412 16341
37391 4211 18219
37249 4650 11678
37318 4333 16434
37631 4389 15252
41536 4298 58894
41727 4790 67088
40321 4191 56502
41974 4859 68355
40979 4483 61645
38388 4126 54411
39195 3985 52534
39298 4273 57306
40748 4185 56626
38182 4000 52229
39268 3895 51067
39107 4095 54275
39863 3809 49963
40671 3853 51122
39567 4031 53473
61433 6159 36284
35558 4708 39099
35971 4330 39594
37306 4620 21554
39546 5204 12769
38575 4914 18208
38514 4839 21109
38667 5124 9511
39517 5401 3682
39884 5127 18877
37536 4689 20234
38532 5027 12806
39638 5203 13530
39047 5231 7653
39893 5273 12344
40137 5183 18312
39152 5155 11880
39862 5112 19345
38230 4763 22312
40207 5158 19995
39737 5336 8299
38250 5037 34053
43708 5551 63507
43746 5447 60484
43155 5563 62600
44550 5185 54525
44352 5221 55146
43198 5763 68676
44094 5197 53831
43159 5190 51459
43622 5409 59060
43314 5250 53609
44112 5110 51271
43639 5285 55417
44925 5028 50693
50355 11103 36595
47342 11127 37297
22298 10207 35393
23426 10247 35338
37323 12316 35192
7515 12320 36395
58609 4882 36772
32514 12616 35308
33013 12128 35183
5375 10068 31132
37419 4690 62308
38708 5199 71462
38557 5165 70783
37252 4758 63172
39031 5016 69011
35549 10707 38395
53713 9006 38973
6085 10114 27865
44734 8219 39160
48588 8482 39159
6198 9584 42748
4562 18761 36666
8751 8149 35980
10379 8141 35854
43684 3974 19060
42957 3940 19773
43302 4639 8071
46301 3733 22535
42257 3790 22412
43758 3733 23043
43666 4003 18572
43030 4433 11545
45031 3908 19879
43332 3951 19502
44274 4200 15172
43447 4358 12715
44100 4380 12224
45388 3879 20295
44317 4132 16301
44183 4013 18311
44250 3918 19864
44100 4054 17631
44449 4301 13462
42464 4665 7809
42800 4038 18166
8711 11888 36403
19383 5270 37574
7649 10153 46080
11156 10232 35404
60887 4962 34919
33254 3874 39879
59577 4727 34778
44445 11137 35553
53984 9564 38706
48207 4610 34068
4307 9840 44510
5433 9697 44980
50663 8904 34141
50235 8543 34073
42528 5390 56673
42408 5333 54970
42560 5628 64280
42490 5760 68574
42533 5570 62452
42902 5795 69246
33572 9485 34604
60540 5131 35367
58748 3694 39046
46723 4907 11312
45237 11000 35396
48692 10520 34951
48260 3888 39182
42480 5228 33923
47398 4470 49277
13181 9749 35799
42979 10583 38407
48484 3531 42025
50261 7925 33972
34678 9329 38660
52807 2758 35111
48518 4405 39076
56276 8830 34269
4823 9696 38934
5406 9632 39670
37933 4398 14791
38908 4652 9859
38717 4763 8375
39422 5031 3536
38708 4957 5431
59191 4917 36456
60948 3335 33219
47142 3991 19119
46326 4531 9831
46836 4227 15138
46409 4402 11863
7350 10222 43716
59997 8100 38336
39692 8746 34208
34834 8879 34422
51014 10736 35484
4538 9775 41345
4928 16409 36445
1164 16390 36513
1554 16202 36496
49234 5078 33966
56154 10271 35505
52728 10756 37358
7392 10257 31822
60172 9109 36456
53137 5465 39186
57034 3557 34159
3042 18595 36689
36075 3194 38879
35586 3168 38164
35985 3149 38046
37110 3044 36850
5972 9677 46360
18632 5246 36706
7702 9507 29919
60441 7746 38578
59997 6801 37746
31854 3258 37031
46641 11011 37667
45377 5090 19207
45607 5472 4100
45558 5468 4606
45469 5193 14913
55517 4235 39049
60773 10528 38011
42752 5333 18394
43236 5592 9550
42828 5392 16437
43443 5538 10661
43050 5661 7892
44036 5606 7285
43570 5800 2554
43038 5337 17615
34940 3960 44470
34859 4018 47556
34871 4001 46725
34963 3906 41993
34158 3789 44064
34117 3693 40421
60654 3648 45482
9801 11234 36384
56921 8727 38896
43621 4096 17030
42626 5017 1915
43170 4159 16074
42201 4374 12705
42818 4106 17040
45316 3734 22721
44695 4155 15836
43947 4237 14629
44476 4275 13887
45711 3952 19011
42536 3879 20863
42834 4763 6107
44469 3939 19480
42912 3744 23042
43033 4490 10608
44685 3786 21956
42611 4596 8930
45957 3715 22877
43327 4135 16454
42639 4736 6599
44140 4087 17087
42444 4137 16589
40559 10833 35159
18750 6468 37915
27585 5462 38576
28675 5377 38664
30081 5360 38790
56537 10464 36929
4709 9864 46724
34411 13880 35721
10325 10193 40888
60675 16558 40868
11301 10057 40166
34854 12433 38044
50470 4761 34057
5501 9768 36923
32526 4443 34023
32699 13890 36936
50999 6937 33903
40564 9840 38723
41558 9892 38717
46945 4431 13268
62363 7765 37932
48405 9424 38998
6320 14867 36439
3746 13346 36393
7979 10207 28713
3823 9833 39249
35026 3935 42686
33880 3695 42600
34795 3955 45498
34437 3812 42614
58019 5255 38849
30703 10343 38240
25343 10203 37969
37187 4636 53437
38679 5167 66022
38609 5126 64450
38434 5094 64831
39100 5287 67783
7150 10262 34317
46129 5344 39271
44585 6015 39338
15422 9752 35674
47092 4097 17490
46461 4308 13333
47545 3798 22630
37521 12695 35457
60758 9397 34371
43144 3711 23528
46689 3489 26325
42512 3695 23901
45044 3349 28845
43033 3661 24326
45290 3658 23942
43945 3584 25362
46513 3591 24744
45604 3295 29594
44207 3611 24883
8547 12158 36768
60562 15529 40076
7267 9477 32618
35119 11581 38215
12472 10018 36090
48624 6789 39342
60713 16582 41439
41219 5104 1392
12572 6185 36756
25820 4199 37361
21202 4869 36907
46766 2945 34979
46450 2970 34575
51114 2835 35558
47709 3876 50260
46821 4500 61356
6705 13156 36789
5956 14201 36780
31927 13791 37016
7845 9493 30601
7951 9474 31476
5999 10165 40232
4925 10029 39388
47001 4730 59058
40956 10662 38244
41949 4841 41357
41279 4876 42924
40323 4754 40516
41255 4911 43879
40148 4971 46505
40233 4861 43487
35250 11107 34883
60660 16147 40819
30493 3600 34944
50070 4207 39013
3255 10972 36377
60778 6343 38776
43895 4813 33975
4499 9775 32163
49943 3393 38395
60839 6080 39091
7609 9467 41219
44039 6958 33851
43087 6836 33844
40345 5524 68563
40957 5462 61036
39836 5457 69544
40141 5332 61565
40470 5501 66570
41498 5763 70329
40718 5602 69186
40627 5419 61692
16279 5965 35639
5948 7256 36433
41792 11360 36209
3742 14540 36408
3529 16077 36431
15857 5941 37466
60172 6100 37314
60496 14348 39477
39675 5099 2213
37693 4301 16525
39363 5092 2668
39080 5042 3721
39577 4961 4431
31312 3410 37665
46808 4499 34093
4814 9763 29661
4287 9832 29682
32837 13501 35520
46749 4655 62929
13616 11381 36225
57176 9529 38420
61240 6715 35230
59372 5207 36128
7626 10169 27372
42436 5845 1121
47792 3493 45881
43227 9798 34425
43839 9910 34448
28180 13311 36805
51282 3081 38298
48301 3732 29219
11818 10163 37323
30938 3765 39534
0 11583 36585
42571 5073 47080
44194 4830 44096
43332 4967 45885
43410 4829 42485
42601 4871 41927
44311 4714 41336
43156 4892 43582
42725 5121 48629
42311 5843 71942
13886 7810 35585
4104 8474 36338
60993 4942 40421
47767 4246 24611
47900 4158 25979
35887 3726 26908
35799 3488 30333
36086 3872 24661
35806 3587 28938
17293 5502 36047
41810 5259 19939
42496 5640 8478
42357 5546 11316
42199 5373 16700
42479 5188 22948
42894 5806 3602
41963 5550 10769
42298 5334 18054
41813 5438 14180
42673 5741 5439
527 12884 36647
9165 10046 46060
54713 7787 34020
52097 8930 34176
40348 4584 10214
38852 4410 13867
39595 4640 9702
39169 3898 22118
40966 4211 16025
40171 4833 6222
39909 4577 10570
38440 4109 19037
37845 3964 21740
38305 3915 22278
39782 3947 20988
39550 4482 12313
39285 4523 11785
38587 4291 15969
38151 4171 18145
41171 3876 21433
40341 4308 14759
41093 3835 22127
39625 4149 17756
39677 4373 14043
40421 3929 20947
7472 11277 36872
39723 5440 72493
8734 10398 37007
11231 9494 34969
10795 9527 33464
11129 10062 40633
10750 9407 36154
33400 10979 34930
39928 7384 39224
38036 7674 39107
38510 7797 39105
8736 9626 27288
29106 13430 36832
33119 5895 34167
32343 5365 34232
38110 6164 33936
48867 2970 37963
10072 6557 36578
23486 4498 36484
4041 16680 36759
5529 10068 29320
41677 5774 3277
41950 5676 6702
40637 5198 20580
42287 5744 4903
42080 5610 8987
41284 5412 14461
23756 4555 37533
6970 7055 36742
12083 6302 37025
31083 13465 37496
37114 8857 38861
39731 8562 39029
38819 9365 38804
20941 12034 37366
5375 9740 46103
52015 5536 39226
8816 9467 41403
42535 5654 8061
42804 5703 6783
42186 5464 13784
40875 5186 21234
42622 5317 18974
41623 5406 15008
41742 5457 13513
43222 6289 39368
44973 5853 39322
48246 10812 37838
46192 10927 37829
40513 4633 9325
39568 4036 19646
40577 4352 13913
39504 4271 15812
40207 4231 16104
38800 4152 18143
39597 4116 18304
38483 4329 15393
39954 4297 15145
39963 4385 13691
38553 4210 17310
40645 4099 18047
39633 4728 8234
40113 4474 12153
1176 15198 36688
1138 14031 36695
10644 8852 35901
18930 8866 35351
15261 8685 35597
48412 3810 32144
40532 3470 45119
37592 3239 40260
41214 3577 47059
40706 3339 43115
41021 3095 39413
40972 3313 42820
39361 3471 44640
37903 3190 39630
39033 3300 41819
38998 3152 39471
39314 3371 43064
38621 3330 42123
42308 11146 35470
10802 11608 36565
48252 3324 42540
25021 4273 36363
25790 4167 36221
39936 9928 34503
41886 9742 34424
33206 3463 40032
34019 3380 39696
11220 10235 37544
9642 10326 38313
39496 5214 72065
7151 10226 30744
4012 12729 36811
54857 7389 39199
59997 8124 35843
61747 7960 38196
40393 8811 38988
42808 5163 611
44154 8113 39171
45838 7915 39222
36028 6105 34029
34597 5888 34104
5044 16982 36729
1909 17293 36695
39623 5088 18595
37692 4738 19242
39267 5320 5353
39616 5263 10643
39828 5206 14880
38819 4905 20545
36910 4529 22565
38078 4778 20453
38655 4996 15108
38952 4956 19266
38965 5170 9750
38537 4935 17000
39741 5319 9115
33980 3633 30098
35614 3321 32868
34663 3573 30266
35270 3444 31486
34964 3443 31803
34567 3644 29371
37006 4614 18711
38140 5010 9640
37602 4790 15860
36719 4517 20797
37020 4609 19166
36514 4467 21137
36129 4388 20952
38445 5064 10340
36625 4572 16329
38206 4978 12422
47771 4224 45767
43536 5086 23867
45422 4714 29634
44734 4845 27641
44113 4874 28125
43686 5088 23514
1853 9986 36767
42954 11154 37732
7136 11010 36901
33722 3499 40955
34791 3690 44712
34622 3428 40844
34578 3736 45126
33401 3547 41304
40290 5377 104
38375 4738 48924
39901 5015 49348
38517 4701 46813
37541 4574 48274
39622 4792 43394
39524 4859 46257
38516 4675 45922
60617 11316 29444
29484 13361 35806
48513 3007 38514
6016 16373 36480
52190 4709 34108
46288 4962 56492
45526 5306 62687
45239 5183 56199
45138 5388 62589
46264 5003 57739
46371 4832 52586
45944 5032 56318
45847 4977 53644
6248 10173 31438
11733 9710 33755
43344 4902 44216
45540 4536 39273
43234 4830 42146
42978 5017 46460
42706 5001 45495
43648 4904 44884
54364 6019 33987
14305 11137 37173
44275 5158 550
20581 5615 35249
6562 7809 36201
11505 6982 35881
18409 5941 35400
41760 5576 9703
42069 5763 4069
42421 5787 3690
40866 5264 18746
42229 5655 7691
41568 5630 7765
41028 5434 13468
20785 8932 35228
9675 9373 35112
59038 5422 35803
57177 7202 39065
10816 11004 36280
25450 12676 35764
5175 14198 36395
48332 3090 33787
47816 3050 33542
47888 3282 30420
54730 2774 34827
41681 4738 6984
40576 4870 5403
41974 4991 2679
41444 4593 9494
42178 5025 2003
41774 4595 9294
41008 4631 9099
41703 4483 11162
41431 4243 15266
41627 4101 17484
46194 4779 23722
46317 4674 26049
46169 4761 24420
58532 5710 37710
55300 3323 34356
49489 2983 37667
8071 6899 36361
22953 4680 35669
39678 3092 34370
38626 3080 34971
6000 9967 25317
40518 7920 34037
47555 7959 33959
48318 9037 34126
37070 4372 28955
36735 4198 32843
38716 4609 30695
36311 4186 30723
38921 4584 32730
36178 4206 29294
36855 4415 26240
38306 4571 29554
36692 4353 27374
10022 10298 38310
59997 8239 36876
4602 17977 36484
46198 4648 7892
45676 5015 1628
19320 7822 35206
11581 8461 35807
15871 8308 35503
18742 8440 35335
24499 8426 34956
20733 8346 35191
11042 8313 35820
16764 8041 35405
23865 8514 35010
24846 7743 34832
23686 7946 34938
29266 7767 34546
23420 7534 34895
47721 3224 42227
47816 3067 39878
25323 4939 38284
8406 9434 40244
8157 9538 28522
51881 3792 34434
7914 9454 32266
58154 2995 37487
45113 5164 39253
20356 11503 35752
25934 11389 35415
11088 10454 36064
20565 10922 35625
13442 10585 35958
22673 11670 35655
43403 3662 24239
45587 3635 24244
43693 3566 25687
43669 3610 25005
43986 3541 26039
44530 3452 27326
45569 3445 27218
46376 3189 31105
44482 3625 24608
45844 3563 25333
5709 10111 42090
5604 10085 43252
36474 4312 45714
36329 4182 42200
37953 4412 40381
37323 4471 46085
36754 4307 43916
37314 4520 47778
38222 4448 40010
37353 4319 40795
36615 4209 41430
60743 3282 44866
34783 3878 30841
34998 3980 28400
34762 4048 23538
34330 3767 31521
43474 5806 70589
44113 5475 62168
43439 5730 68251
44598 5529 64908
44527 5565 65810
44456 5625 67451
58643 2956 38511
46882 3890 53014
47004 4013 54620
47033 4180 57026
43806 8610 34107
43475 9057 34186
14769 8999 37566
9120 9287 37194
54455 4561 34237
7970 10281 40994
42355 5040 46344
42098 5080 47644
41941 4994 45477
42053 4888 42516
41531 4984 45593
7180 14098 36741
40317 3760 23728
38413 3631 26587
38582 3584 27202
37089 3790 24832
37787 3784 24596
39173 3733 24693
37325 3581 27851
38514 3683 25760
37325 3613 27365
48202 3930 40352
47988 4073 42475
49888 10261 38424
1957 12960 36456
2497 15847 36455
1432 12669 36475
48118 3810 26548
49926 5768 39285
7742 9542 44854
2739 17772 36719
25327 7248 34727
21413 7634 35041
22820 8439 35068
27000 7907 34715
25629 8254 34856
7894 8620 36072
29331 8554 34658
18574 7859 35260
43979 5247 18126
43027 5269 19659
43676 5185 20688
44634 5125 20268
43567 5279 18132
43428 5265 18864
59945 8322 38651
32243 3190 36437
5345 9664 41027
33903 7701 38935
46542 4428 41310
47118 4441 45416
46264 4472 40841
46938 4291 39771
39162 11867 36312
57648 4824 36407
12336 10052 37100
6924 9426 36384
6283 10532 36279
61014 5332 34717
60417 9827 36916
4733 9840 26821
46238 4604 8606
46487 4653 8300
35949 12994 35219
9291 10232 41955
60642 11605 28804
59230 5287 35282
48121 3143 32724
47440 3367 28520
19507 5386 35515
17530 5753 35582
39677 5081 53902
39895 5214 58153
39571 5043 53007
39252 4951 51362
39320 4985 52338
38765 5082 61021
39370 5081 56274
39361 5311 66683
39655 5294 63642
38256 4825 53466
39484 5208 61100
38689 5094 62148
62082 7568 35166
44962 4744 43405
44583 4801 44114
45046 4881 47060
43888 4925 45908
44511 4944 47626
45492 4823 46456
41485 5140 39248
8272 10521 36236
40177 7531 33982
6693 9505 33210
40234 3022 37983
39315 2986 37080
38165 3155 39199
35660 13874 37190
50877 5775 33922
32991 4481 34019
28593 12313 37739
38270 4524 60691
36795 4264 55138
36176 4160 52889
36839 4013 51362
37799 4630 61800
37263 4339 56783
37554 4275 56120
37549 4406 58123
36386 4034 51200
30952 3904 33663
7792 10299 39732
33478 9989 38472
60751 14049 40741
7716 10071 47220
41116 10820 35124
60757 8859 38231
59020 5397 37455
46606 6067 39337
10457 10254 34511
35669 4182 47164
35737 4253 49450
60240 9649 35598
23317 4560 37096
19101 5185 36821
60683 4378 34362
45579 2870 36598
9789 9594 43305
9299 9629 45285
52996 9727 34555
37708 4453 29999
37375 4509 26147
37795 4502 28861
39045 4635 31741
35759 4039 32421
38440 4543 31296
37816 4486 29519
36516 4275 28970
51707 10675 37737
2721 8526 36428
49688 6167 33866
8232 10285 32431
59546 6095 35359
59656 5963 37596
49146 7370 39301
62786 7724 35509
56045 6702 39186
46364 4518 42849
46320 4424 39768
47215 4436 45893
39110 5323 69783
37121 4608 52623
37641 4824 58883
38523 5178 68676
38813 5251 69330
37995 4943 61395
60640 5970 36997
4630 11364 36860
39486 6329 39325
39605 5769 39277
9949 10112 29665
53763 10502 37720
958 11543 36697
49757 3593 34587
55262 5639 34059
60667 13876 40235
44183 5695 72743
11429 10132 38877
5143 9657 39136
5894 9565 39541
6227 12333 36367
34378 12532 38002
60752 12459 39046
35003 9310 34517
3647 17752 36731
58340 8543 34365
42629 8982 34184
50176 3127 38192
7992 14389 36661
24342 6190 38372
8889 7865 37201
32201 6282 39006
15730 7509 37735
23837 6992 38364
24488 6872 38412
31866 5722 38957
54411 2595 36149
39291 3226 40776
39788 3309 42273
40909 3199 41010
39676 3218 40786
40103 3098 39091
41748 3579 47306
41725 3530 46530
39697 3545 45953
39160 3450 44226
40412 3614 47309
39078 3429 43849
41481 3442 45048
10157 9701 43781
42886 2986 35104
42415 2979 35356
43568 2938 35835
43253 2919 36245
44276 7735 39232
3974 10128 36852
42777 3490 46117
44486 3318 43740
44012 3047 39369
45252 3225 42431
45117 3087 40222
43947 3120 40504
42151 3589 47558
44925 3164 41397
42951 3069 39504
46586 3098 40701
44719 3060 39731
8055 9429 33124
8167 9401 34130
7602 10291 39084
45654 5469 69353
46194 5056 59073
46654 4846 55244
46291 5165 63610
46935 4758 54320
46079 5282 66070
55604 4114 34143
36151 3081 36209
36897 3068 36044
29198 4146 39007
60172 7781 38028
56066 10002 35007
45119 5381 72706
49467 8741 39105
38176 12467 35962
58735 5266 34662
3309 12308 36797
58859 6714 34629
52030 9717 38678
47552 3967 52100
41972 5375 56814
40731 5148 50893
41650 5727 68430
40778 5179 51837
41839 5587 63729
41684 5774 69893
41198 5218 52620
41624 5344 56202
41865 5715 67824
41133 5261 54066
42271 5213 51296
61047 4511 34282
43837 5555 9248
43449 5599 8827
43135 5821 2915
43850 5655 6229
43300 5844 1857
42888 5375 16830
43068 5470 13555
42921 5497 13099
5405 16227 36741
6359 13449 36790
6156 7745 36926
10131 7075 37182
19784 5669 37868
21670 5481 38027
60485 4066 34913
48015 10305 38472
60957 12347 39955
906 13495 36679
39346 3130 33921
37998 3179 33709
40400 3321 30476
40178 3385 29571
38213 3399 30172
38767 3385 30147
41147 3140 33014
38995 3297 31437
41473 3322 30024
38169 3222 32954
27801 9342 34887
17458 10013 35620
29610 9278 34772
33054 9786 34696
25709 9782 35106
23166 11047 35503
21506 11537 35694
12596 10613 36011
24420 12059 35634
16689 10913 35840
24656 12392 35686
60638 5933 36467
52669 4327 34222
45135 5440 33909
46847 5638 33896
6801 9482 39220
33735 13036 37865
33286 12905 37867
5780 9750 25999
10078 10205 32098
46628 7400 33885
57538 3624 38307
6521 10218 34239
49793 8809 34105
5869 9578 33121
4789 9687 35034
9935 10057 44229
63801 7736 36310
36050 13656 37562
46354 4840 5920
42704 8563 34113
50508 7146 39287
8890 9413 33699
9182 9353 35784
8772 10264 31344
43467 4284 59244
43449 3838 51822
43547 3874 52439
43737 3792 51127
43798 4235 58495
45439 4618 65210
44136 4088 56126
42495 3854 51908
44193 4274 59240
42863 4001 54426
45454 4001 54954
45511 4139 57252
44843 3856 52416
44037 4183 57692
45036 3980 54522
45557 3855 52542
44020 4007 54756
45050 4588 64631
43498 4034 55091
43737 4108 56377
44046 4376 60892
46086 4169 57863
4359 10595 36864
35166 4475 39356
36882 4427 39543
60783 10329 32063
41649 6078 33843
25329 4294 37470
46557 4839 7549
58640 4883 37566
46833 4826 17054
54474 10452 35503
16905 11651 36028
22873 12309 35799
7380 10148 27030
51795 2776 35695
48493 2895 35960
9256 9574 43825
8122 10247 30564
8450 10256 30983
1684 15280 36484
19377 12184 36623
40413 7520 39220
41137 8262 39106
46459 4768 22189
46511 4775 21542
45709 4914 22816
45641 5281 10492
46238 5141 10825
45899 4937 20556
45666 5128 15645
59360 9144 34822
35167 4745 39025
44569 9630 38850
45322 9382 38945
60635 6474 35743
52489 8074 34041
1711 10804 36438
57768 3126 37339
8031 10256 30982
33789 7599 34248
37660 7054 34006
36009 7502 34139
61505 6542 37667
10521 9478 39060
10751 9542 40155
7906 10279 32071
56506 3738 34138
52202 2750 37858
8072 11639 36358
9536 9345 37096
46336 5143 8578
57133 4330 34044
40954 4738 33695
40446 4746 33004
41174 4788 32556
41250 5244 446
47826 3820 48993
60715 0 31955
26390 12842 37416
25626 12702 37429
27182 4473 38359
16090 11362 35963
53305 10230 34973
32536 3290 37805
7117 9930 24899
7614 9552 27855
28055 3831 35669
42493 5625 39307
11635 9473 36128
7239 9497 41584
59034 5230 38385
3013 15863 36757
8216 9346 37145
50522 2888 37490
6549 9542 31760
36775 11344 34878
6688 15911 36495
6836 15382 36482
35712 9744 34591
28537 3849 35049
47492 2864 36894
34449 12599 35200
35453 4042 29849
35909 4244 25623
35192 4083 25852
35463 4105 27358
35117 4082 25249
24282 12812 36997
21551 12462 36740
7665 10316 36680
2803 9951 36386
44350 5262 56357
43940 5101 50598
45148 5061 52199
44841 5048 51081
42860 5342 55321
44887 5064 51686
44269 5346 58672
44137 5251 55548
43254 5327 55784
44257 5165 53237
63636 8176 36267
52555 6660 39277
10087 9709 29105
40630 4678 64658
39250 4404 59428
39956 4653 63898
37733 4046 52755
39706 4724 64941
40978 4930 68986
39337 4515 61297
39366 4444 60151
2931 12632 36779
2679 14483 36755
42068 6874 33851
40954 5578 166
61809 6290 36677
33588 3595 32300
35102 3990 28921
34442 3872 28120
33949 3745 29107
18527 11832 37225
22957 12397 37335
57538 4757 37903
5645 10133 37905
9226 9961 26777
56388 10393 37278
49210 5864 39306
55045 9005 38944
41273 5475 60781
41204 5456 60254
41278 5430 59315
42355 5354 55722
41545 5430 59044
41844 5390 57438
41885 5285 54014
41580 5360 56747
43628 5812 72123
39307 4750 29386
39883 4837 29807
39639 4857 27699
40262 5068 24162
39352 4713 30927
38452 4615 28934
39400 4938 23507
60751 616 31776
54014 7924 39158
52522 8298 39114
60958 9756 33527
49591 6571 33854
47534 3545 26181
8369 10059 46821
34233 5659 39059
35015 6306 39132
27865 3985 38057
34443 3099 36624
37324 4384 15646
37431 4844 8512
37793 4514 13158
35782 4109 21492
36921 4125 20033
37119 4001 21700
10877 6435 36558
31732 3217 36586
46052 11211 37238
22624 4689 35889
26328 11568 37763
27074 11790 37761
21558 11948 37420
17420 10791 37417
18314 11311 37364
43100 5828 72569
10582 9583 41136
46313 4368 60989
46384 4218 58672
59613 6731 34760
6394 10204 39581
49206 2942 35857
30840 4782 38775
23814 5829 38285
28331 5196 38606
233 12046 36567
55399 6780 39233
7186 9536 44216
6093 9998 47757
5617 9655 29875
51280 10976 37096
61406 7732 34856
42884 5105 24675
44207 4813 29502
42793 4970 28342
44183 4785 30277
42490 4851 32010
43951 4864 28716
55505 10405 35597
60728 11722 30709
33782 4149 39625
50970 3824 38811
8904 9572 44493
3609 12949 36803
56206 2554 36384
6576 9468 37750
37093 6516 39234
33094 6073 39035
38737 5271 1663
35877 4394 17329
36801 4661 13259
37510 4876 9518
7830 10317 35288
46743 4655 23855
47095 4585 23637
45583 4904 24009
46536 4674 24612
45803 5274 63681
46039 5260 65018
46064 5129 60616
4669 9990 33030
39485 5174 1430
50775 10627 37894
28472 3790 37633
43016 5077 71981
32125 13417 35541
45092 6352 33824
43515 5783 33872
29543 12495 35440
7616 10308 35912
37483 4818 12668
36083 4397 19797
37686 4797 16532
37255 4749 13858
38259 5001 11724
37122 4672 16741
21690 10319 37742
30256 10257 38232
34664 3417 32454
33834 3594 30802
34611 3697 28585
34709 3355 33280
9980 10229 40573
10300 10231 39753
9101 9607 28132
10586 7815 35857
28373 6394 34488
29760 5794 34401
11106 7627 35822
18372 6785 35274
26950 6669 34591
21007 6752 35064
59997 8753 36550
7542 10244 42757
5080 9739 44561
27886 9240 38333
31696 9207 38553
31012 10071 38316
32875 9248 38610
29128 9031 38450
33287 13899 35788
31163 11997 37938
32197 11591 38075
39286 11791 35918
56047 8796 38947
59997 7102 36090
28151 6812 34488
12023 10168 36640
43753 5668 73123
10001 9875 45295
5776 10009 26336
7814 12849 36434
6633 9537 41441
7135 9447 34580
57648 9435 34771
4541 11683 36345
4656 11971 36839
14740 11347 36048
6995 10230 36250
46755 7430 39304
43499 7351 39279
55222 2574 37076
32921 3462 33435
55398 8982 34252
54991 6851 33959
44814 3686 49608
44802 3588 48055
46528 3210 42465
42925 3632 48380
46172 3555 47798
43875 3572 47618
47052 3285 43738
5727 10049 27125
60765 15529 41621
60725 233 32543
19756 9488 35371
5680 16706 36715
5798 9975 47497
20504 12328 36889
23358 12694 36965
54895 4903 34220
20657 10574 37637
17466 10421 37488
28329 10536 38069
6570 9461 37347
9274 9603 28597
12366 7978 37491
6191 9503 35005
5239 10067 33262
5966 10109 45078
42637 11335 37116
5188 9929 46910
7931 9379 35241
45981 8874 39066
44306 8595 39093
5280 10049 42597
4447 9929 43580
47063 4523 25688
47085 4387 29598
47501 4203 32400
46470 4444 31854
46081 4484 33139
35457 3432 41731
33727 3442 40157
35242 3619 44135
34090 3540 41888
34164 3412 40167
35573 13900 36004
32064 12658 35340
29382 11685 35285
23598 4617 35474
29478 13477 36315
5200 9116 36933
16455 8875 37677
8468 8917 37148
35055 12695 35191
3614 9444 36841
28231 3759 36631
43890 4536 63544
42637 4333 59896
44585 4770 67571
43818 5015 71481
43292 4577 64081
42687 4646 65109
44254 4940 70321
43088 5021 71445
42170 4308 59381
44633 4888 69542
47915 4121 47674
46408 5592 33899
50319 8872 39064
51006 8413 39122
8998 10325 38444
40957 9968 38687
20707 10369 35515
58985 5615 36686
48240 3918 31518
53518 6071 33957
53061 6314 33922
41915 11299 35712
28926 13407 36431
56870 10433 36468
5650 12048 36849
4655 9995 39099
39292 4943 68181
37356 4461 58760
38731 4769 64932
37444 4378 57573
37336 3967 51189
38504 4738 64208
42206 4861 41656
41359 5066 47947
41472 5097 48690
41798 5142 49600
42111 5145 49376
42374 4910 42799
11400 9449 36913
48164 3970 44302
60492 1364 33731
59272 7256 34469
7651 9436 39803
50770 10543 35171
58305 4863 36346
58480 4140 39116
36545 9227 38752
37525 9280 38775
33952 8645 38793
60172 7034 36776
40445 2970 35940
38074 4953 39117
54847 10115 38206
58334 9888 37794
