ply
format ascii 1.0
element vertex 2782
property float x
property float y
property float z
end_header
40495 19745 11525
41250 31138 11525
40851 30050 11525
15992 32271 12508
33091 32271 12482
40340 9622 70383
40340 26199 70671
2306 28536 70842
2306 17637 70452
2306 22038 70745
23950 34576 60485
24070 34576 56304
20174 34576 50279
42343 34576 57739
37168 34576 40442
30843 34576 56213
12101 34576 71220
17417 34576 70601
24092 34576 51862
20004 34576 73072
10943 34576 63673
35876 34576 44306
41696 34576 61541
10442 34576 73455
34026 34576 21965
26054 34576 36346
39105 34576 20292
27472 34576 68341
37272 34576 49889
24030 34576 38827
19972 34576 66703
15749 34576 61852
17739 34576 73035
23242 34576 61471
13159 34576 82758
42634 34576 50961
32416 34576 26729
26417 34576 66437
9618 34576 73469
21382 34576 47173
11801 34576 63156
35723 34576 19375
20594 34576 60738
12831 34576 62568
43014 34576 8587
12392 34576 73386
40997 34576 22983
37582 34576 31019
11599 34576 77896
42404 34576 46836
32215 34576 50043
34492 34576 57388
19191 34576 47972
15538 34576 82330
26467 34576 68563
14791 34576 76198
31292 34576 25189
40913 34576 31074
40993 34576 75590
32302 34576 34524
12973 34576 64563
29253 34576 52964
33841 34576 71061
22771 34576 62167
42577 34576 73247
39727 34576 7747
21085 34576 71403
38090 34576 45315
39068 34576 37081
17554 34576 81602
8384 34576 77957
30211 34576 55985
19958 34576 56536
36540 34576 44858
32892 34576 34215
32949 34576 43008
31788 34576 77775
28862 34576 72953
37244 34576 72066
16504 34576 82857
43556 34576 53126
36990 34576 33551
36261 34576 37160
37178 34576 63061
42585 34576 10639
42412 34576 19568
32412 34576 60742
19864 34576 45777
24185 34576 60042
23197 34576 60980
23106 34576 74142
43219 34576 34226
27007 34576 53750
34173 34576 61236
13854 34576 74641
24281 34576 77281
28759 34576 75663
34600 34576 76972
17658 34576 58776
35054 34576 48815
25677 34576 64908
5329 34576 73737
34653 34576 31182
19779 34576 70945
16805 34576 64356
24237 34576 68193
40027 34576 79921
7434 34576 78639
39515 34576 76858
18390 34576 67009
42691 34576 61248
28864 34576 66305
33049 34576 23732
16861 34576 78033
41228 34576 56477
40513 34576 51117
43423 34576 82280
40277 34576 78719
21636 34576 68761
32478 34576 24109
18301 34576 81662
17071 34576 62862
12267 34576 62632
41775 34576 29403
26105 34576 49713
37914 34576 46690
14884 34576 67141
28527 34576 82577
20388 34576 71114
23524 34576 82093
37808 34576 33622
30531 34576 50487
33802 34576 58196
10359 34576 70759
14026 34576 67421
20700 34576 61190
38985 34576 75523
28070 34576 68057
28141 34576 42483
40886 34576 30413
7661 34576 75912
28098 34576 82467
43625 34576 13928
13991 34576 70144
29863 34576 37767
40615 34576 28009
39282 34576 74021
12110 34576 77893
29142 34576 60630
32507 34576 52114
39853 34576 70946
16879 34576 76503
10829 34576 73079
13653 34576 60866
23155 34576 58960
40822 34576 81529
31112 34576 76065
12242 34576 65838
14866 34576 62412
38210 34576 73135
31667 34576 32485
22966 34576 72351
43292 34576 61919
25804 34576 82737
42413 34576 44233
20350 34576 55376
41414 34576 66657
29512 34576 47642
35224 34576 34420
33142 34576 76135
27701 34576 66527
30247 34576 69813
42117 34576 61275
39657 34576 16493
33454 34576 79322
30542 34576 78062
39740 34576 46379
41900 34576 50831
30457 34576 39584
39061 34576 13443
16758 34576 57481
25835 34576 74908
39134 34576 10378
29385 34576 75316
38872 34576 45412
33099 34576 67324
18905 34576 81255
31390 34576 73968
24982 34576 57184
36094 34576 28857
35554 34576 41764
29643 34576 63872
24475 34576 52402
43533 34576 1698
23311 34576 65906
29372 34576 69347
33464 34576 60718
33770 34576 70557
28476 34576 62832
38350 34576 37208
26340 34576 73742
25153 34576 74707
28645 34576 77918
17629 34576 69355
35144 34576 52624
19726 34576 73913
22994 34576 74815
42867 34576 44052
29189 34576 44819
38984 34576 52634
28989 34576 34091
19198 34576 75851
27194 34576 39607
38629 34576 57205
24863 34576 75660
30640 34576 79258
29691 34576 40299
26785 34576 40661
18365 34576 59617
19287 34576 75107
40236 34576 80680
28457 34576 46623
31784 34576 70481
32130 34576 70266
31665 34576 42917
29266 34576 34752
31987 34576 49267
34339 34576 23761
30045 34576 74398
17550 34576 79735
16012 34576 71486
41784 34576 46367
30953 34576 30671
14245 34576 80231
27755 34576 33176
25749 34576 49037
37987 34576 23707
10287 34576 64485
16123 34576 75944
14702 34576 75671
35358 34576 29494
35414 34576 67812
33947 34576 19247
9138 34576 72677
23537 34576 55730
38268 34576 52350
31270 34576 28728
40607 34576 18059
29561 34576 70567
31798 34576 54052
20265 34576 48317
26619 34576 82104
35854 34576 54988
42333 34576 15805
25554 34576 57644
35232 34576 37563
37770 34576 27623
34962 34576 51342
42554 34576 38190
43312 34576 10804
23267 34576 56950
34345 34576 58741
30150 34576 57343
21701 34576 52259
25906 34576 44036
40345 34576 67145
36819 34576 55829
18392 34576 56950
38232 34576 41799
32929 34576 60724
19584 34576 48689
14980 34576 79059
42205 34576 8354
29943 34576 29804
9351 34576 77024
18564 34576 79382
40078 34576 44417
25671 34576 45114
39447 34576 65173
39429 34576 56615
25685 34576 71859
17629 34576 56523
37981 34576 53898
35705 34576 45153
40340 5278 12226
40340 4618 11974
40340 2355 12441
4808 1152 11772
5289 1152 11618
7543 1152 12366
41492 1923 71178
41492 9802 70837
41492 9040 70333
41198 5833 70306
41016 10804 70306
41347 17473 70306
34963 0 11740
28855 0 12230
33851 0 12451
29777 0 11983
21040 34576 13649
3379 34576 44028
16927 34576 5515
30582 34576 4409
7293 34576 52471
8589 34576 37379
3848 34576 5225
1509 34576 9729
1402 34576 48503
32902 34576 13324
26475 34576 10979
8134 34576 13123
4683 34576 51919
23849 34576 8625
18770 34576 29869
18395 34576 34691
30352 34576 20599
15918 34576 45482
16082 34576 34615
15836 34576 50331
17368 34576 38835
17116 34576 29951
34294 34576 7812
24700 34576 26994
6820 34576 29840
7789 34576 5061
22538 34576 22676
24382 34576 17337
20777 34576 36325
980 34576 50218
2881 34576 14337
1812 34576 17070
757 34576 15759
11374 34576 12389
20444 34576 14005
657 34576 38975
2144 34576 46505
8823 34576 65578
1375 34576 7012
7456 34576 63716
14305 34576 27215
6273 34576 37611
12756 34576 24825
12121 34576 38184
1756 34576 41043
4920 34576 12091
14201 34576 31283
26402 34576 27736
14374 34576 48640
7134 34576 50408
16730 34576 16010
2106 34576 55313
27979 34576 10082
12666 34576 53158
19913 34576 15996
10761 34576 53046
27951 34576 7800
23908 34576 9399
5959 34576 55873
19959 34576 20960
5614 34576 29759
10468 34576 12612
15622 34576 27017
5928 34576 30028
29764 34576 18224
14489 34576 33153
15220 34576 3797
22052 34576 36786
3422 34576 38374
23714 34576 2688
11955 34576 31578
33231 34576 9006
12158 34576 14774
6640 34576 30327
22639 34576 34644
3604 34576 16886
17685 34576 8478
25615 34576 10235
12257 34576 27901
29089 34576 24605
17148 34576 41861
3070 34576 21509
733 34576 7480
3486 34576 64485
19499 34576 18202
34710 34576 11511
17977 34576 44620
9683 34576 57373
30958 34576 574
3225 34576 60287
9233 34576 3176
32200 34576 3452
20711 34576 39318
12612 34576 54982
23216 34576 34841
1389 34576 27307
13082 34576 52668
25861 34576 1005
6863 34576 32897
16379 34576 11005
12815 34576 56025
5592 34576 20119
14002 34576 52561
6881 34576 9471
29043 34576 24055
1335 34576 66075
13302 34576 992
3986 34576 50104
6399 34576 48048
20459 34576 20645
6194 34576 61048
1737 34576 70922
32901 34576 16169
473 34576 70002
30077 34576 8733
38373 34576 9452
3849 34576 58658
14943 34576 6350
27281 34576 1699
14976 34576 6818
31282 34576 19157
4979 34576 7787
18480 34576 44853
8150 34576 56063
25525 34576 2710
25246 34576 9461
17748 34576 37266
24432 34576 6849
20 34576 39932
8471 34576 19319
28624 34576 15053
5536 34576 27737
15553 34576 40271
15831 34576 36470
6344 34576 59543
37887 34576 1337
7074 34576 17741
2682 34576 37204
13613 34576 28492
34959 34576 11154
16214 34576 19822
2692 34576 29396
4426 34576 22578
31782 34576 19557
11760 34576 18891
15343 34576 22604
3859 34576 28202
7875 34576 41943
8084 34576 54220
26187 34576 16863
5531 34576 21653
5627 34576 23609
32836 34576 199
4276 34576 7560
23567 34576 21297
7916 34576 33964
35169 34576 4360
4963 34576 12931
15773 34576 1230
10888 34576 39697
16632 34576 36005
7165 34576 2614
9329 34576 44743
1240 34576 42257
13898 34576 34231
6519 34576 11892
11397 34576 48056
25864 34576 15249
20712 34576 8643
1513 34576 73807
4022 34576 59242
23467 34576 6765
10016 34576 19163
2637 34576 33920
24036 34576 1090
20163 34576 5295
303 34576 66551
11261 34576 21835
5544 34576 9304
4510 34576 59632
14107 34576 20322
4267 34576 26027
9989 34576 43308
6030 34576 26595
12939 34576 9423
4648 34576 56911
10389 34576 6622
18238 34576 16995
3209 34576 52305
25395 34576 33865
1865 34576 30432
6638 34576 63545
19911 34576 5677
3102 34576 10783
10524 34576 44916
6483 34576 1499
9316 34576 65230
2006 34576 15948
2516 34576 25913
32546 34576 2688
21935 34576 25976
22514 34576 17051
31500 34576 5559
24822 34576 31597
6604 34576 64073
17717 34576 17489
7596 34576 10643
17743 34576 33932
34595 34576 15614
12974 34576 29946
5773 34576 14502
5439 34576 67665
9074 34576 7305
20324 34576 26721
4334 34576 36955
1703 34576 22840
23736 34576 37025
14274 34576 55630
5239 34576 3153
31469 34576 778
399 34576 71332
20124 34576 33595
23836 34576 17266
39270 34576 6942
14508 34576 11889
15419 34576 26355
7074 34576 41441
14907 34576 30861
10931 34576 28592
25011 34576 7821
30704 34576 15396
7608 34576 51263
23385 34576 35606
3138 34576 44974
16933 34576 47208
12482 34576 46269
13226 34576 18156
40876 34576 3972
13573 34576 5108
7259 34576 24292
15749 34576 25075
39200 34576 4335
27691 34576 8255
2377 34576 14323
27177 34576 15185
29909 34576 26005
37992 34576 5928
30709 34576 6467
7884 34576 31429
12576 34576 27201
4046 34576 64657
28357 34576 6173
38485 34576 4896
3805 34576 64125
6928 34576 26219
3959 34576 33492
18988 34576 1695
1735 34576 66966
2664 34576 9505
5007 34576 52625
27039 34576 13099
991 34576 39846
26641 34576 12755
39863 34576 3796
16819 34576 39668
21037 34576 4690
15729 34576 16583
6821 34576 58487
16229 34576 40429
15652 34576 46483
16825 34576 50751
7944 31700 12677
5119 32002 12677
9282 31622 12677
22566 31119 13103
23235 31119 44583
23592 31119 32457
23314 31119 33885
23403 31119 45395
31071 31633 11525
36090 31612 11525
40110 31183 11525
20005 31166 11525
40747 21586 71458
41439 27139 71458
23513 1152 21247
22938 1152 51417
23038 1152 63445
23168 1152 36135
23605 1152 14668
23190 1152 35608
40861 20236 71458
40761 29316 71458
41034 12669 71458
0 34005 48058
0 32650 11612
0 33471 4350
0 34273 69691
0 34251 54003
0 34442 49135
0 33801 20885
0 33160 19749
0 33738 32662
0 34248 40442
0 34044 28393
0 33385 9895
0 32831 5690
0 34457 43340
23628 31882 63561
23628 32043 44615
23628 31677 57226
23628 31616 49815
23628 31395 62625
23628 31974 46173
40830 30574 70306
40403 11884 70306
22475 583 56719
22475 490 39530
22475 352 37077
22475 537 42863
22475 152 24042
12171 1152 70336
35755 1152 70326
24010 1152 70795
5244 1152 70891
38120 32348 0
41842 32709 0
24514 33469 0
8711 32615 0
36668 33674 0
26180 33642 0
43692 32975 0
22083 32316 0
40340 13512 71338
40340 20992 71154
43798 32944 31982
43798 34507 1300
43798 32431 60359
43798 32383 56825
43798 32513 34964
43798 33501 29290
43798 32724 17188
43798 32592 28506
43798 32736 39187
43798 32400 24410
43798 33888 3230
43798 32432 36686
43798 32553 5986
43798 32950 53145
43798 32405 49125
29603 917 11525
25882 863 11525
33323 967 11525
39328 32865 82983
35244 34315 82983
25347 34409 82983
37389 34365 82983
29513 33677 82983
9886 34093 82983
22811 33461 82983
18827 34216 82983
0 33448 49491
0 32406 34456
0 32296 5403
0 32729 77968
0 33898 79584
0 33108 65697
0 32548 75191
0 32566 72822
0 34443 79477
0 32410 19151
0 32815 28115
0 33614 67908
0 32594 70348
0 32287 50079
9256 1152 70652
11048 1152 71187
17219 1152 70600
40708 7670 71458
41154 1913 71458
11589 0 12472
24766 0 12273
7658 0 12472
22164 0 12168
43798 32615 80994
43798 33953 80597
43798 33448 81070
43798 33918 25811
43798 33973 81512
43798 34499 40558
43798 33657 46873
43798 34379 67825
43798 32997 74315
43798 32585 81623
43798 33699 67627
43798 33222 64836
43798 32520 79591
10865 32271 71138
32534 32271 70565
31312 32271 70546
1852 32271 40444
27855 32271 70611
2795 32271 34566
5464 32271 32072
21868 32271 44308
16581 32271 78813
10938 32271 51255
16177 32271 43812
16377 32271 40502
7649 32271 51963
8978 32271 76297
1473 32271 3308
24572 32271 70244
7906 32271 30406
8309 32271 66215
10149 32271 50537
27302 32271 67831
6374 32271 52003
1917 32271 41344
20584 32271 53261
19548 32271 45475
17166 32271 58628
10967 32271 48669
19300 32271 70496
17719 32271 73942
18153 32271 52972
9110 32271 61173
12385 32271 58053
3406 32271 38922
5723 32271 65096
600 32271 27541
4939 32271 10883
30705 32271 82289
11706 32271 64935
29184 32271 74566
27849 32271 57561
13373 32271 52809
7454 32271 65474
8472 32271 64213
5571 32271 18744
3328 32271 13782
11656 32271 28773
1214 32271 35294
365 32271 65973
14658 32271 46375
5128 32271 41467
10156 32271 53043
22452 32271 71853
29294 32271 69338
8882 32271 66933
10492 32271 82201
3698 32271 28350
3688 32271 27386
6178 32271 32386
24171 32271 49964
12404 32271 48951
33248 32271 67248
8999 32271 27260
33817 32271 78664
4510 32271 76370
26759 32271 51495
24413 32271 49186
10501 32271 68879
34175 32271 78989
28553 32271 59474
6631 32271 48616
14064 32271 41473
20243 32271 70499
14271 32271 76435
19076 32271 73425
13655 32271 65895
1091 32271 16415
475 32271 26178
20330 32271 40076
6509 32271 67566
20640 32271 73557
38593 32271 79333
31776 32271 70796
18572 32271 76867
6358 32271 79498
1913 32271 77816
38500 32271 73442
12069 32271 65901
18001 32271 57703
29910 32271 67796
29305 32271 62635
15413 32271 52304
13089 32271 64757
17583 32271 67387
2175 32271 37098
19878 32271 46536
28703 32271 60759
26009 32271 61411
5502 32271 67951
7728 32271 40393
15758 32271 40073
11109 32271 31308
14791 32271 44937
4041 32271 67240
31139 32271 79515
19517 32271 55537
15231 32271 54701
2535 32271 66519
37667 32271 75217
6410 32271 49427
9764 32271 73266
2768 32271 8833
18251 32271 67375
15940 32271 50333
17260 32271 44288
3703 32271 82062
7151 32271 59936
22266 32271 71033
15057 32271 31651
34626 32271 70891
5964 32271 28839
34187 32271 67982
11036 32271 56921
18158 32271 35119
1118 32271 50851
27379 32271 62603
17277 32271 59012
19258 32271 54118
20138 32271 53615
5305 32271 74818
33776 32271 72857
12831 32271 41512
750 32271 65381
28277 32271 75944
3821 32271 30025
5708 32271 43993
13930 32271 81562
9880 32271 38575
6339 32271 78155
9344 32271 71896
2009 32271 34722
22263 32271 77101
9897 32271 58627
3335 32271 24124
13742 32271 39893
11809 32271 46839
27985 32271 81607
21948 32271 62790
40751 32271 80579
18686 32271 75967
4076 32271 24547
17690 32271 77842
16378 32271 63558
7995 32271 46235
16077 32271 31230
2833 32271 78185
5763 32271 22005
694 32271 59043
15178 32271 34545
10285 32271 31174
19282 32271 60380
2824 32271 35646
31079 32271 64351
20165 32271 51453
2354 32271 57884
4100 32271 10923
8983 32271 41463
11474 32271 80241
5321 32271 61701
5373 32271 77087
20180 32271 72748
1345 32271 32710
10062 32271 42525
16790 32271 82038
19221 32271 82653
6638 32271 27860
17606 32271 38727
17375 32271 75525
21414 32271 58774
10113 32271 39066
17775 32271 36881
2152 32271 30427
13088 32271 82860
7817 32271 74381
39994 32271 80281
38303 32271 72608
15338 32271 82750
21399 32271 52432
25726 32271 68813
16814 32271 45291
29583 32271 77299
7379 32271 32737
4716 32271 14365
7639 32271 77654
16110 32271 45647
17210 32271 38790
8098 32271 56250
25513 32271 57220
8439 32271 34930
24488 32271 53976
23774 32271 58255
19277 32271 68051
11036 32271 72961
20867 32271 40181
399 32271 73569
14888 32271 82622
642 32271 39206
20880 32271 78951
23725 32271 79009
14889 32271 49344
1643 32271 67706
6743 32271 51492
2849 32271 82568
9776 32271 22777
16349 32271 33514
22127 32271 49057
5799 32271 55148
13469 32271 69636
6201 32271 75676
18806 32271 82398
425 32271 17036
709 32271 17667
17076 32271 39927
800 32271 39633
15628 32271 31887
19372 32271 81097
7589 32271 81033
28602 32271 81830
13247 32271 53455
9061 32271 33459
2244 32271 10709
10283 32271 49545
15203 32271 59799
2082 32271 60716
10943 32271 39413
11904 32271 76428
1611 32271 81490
3109 32271 79334
10142 32271 52108
8589 32271 60038
14368 32271 69329
8184 32271 73960
39076 32271 77042
29595 32271 57190
17080 32271 66153
22137 32271 61520
19743 32271 50558
12518 32271 52234
1500 32271 18754
3812 32271 46025
27301 32271 72333
42109 32271 81557
8678 32271 81628
19193 32271 64164
4577 32271 23907
16516 32271 48807
6954 32271 26902
29399 32271 81416
21357 32271 79517
5144 32271 24917
7767 32271 32077
16789 32271 45717
5202 32271 66618
7521 32271 52524
21115 32271 50478
9633 32271 50997
20754 32271 78281
14915 32271 77642
5219 32271 40425
4296 32271 24916
18509 32271 81334
28877 32271 78722
39771 32271 79401
4083 32271 69565
20708 32271 49068
17591 32271 42620
4905 32271 39054
27074 32271 64421
18361 32271 65594
7881 32271 65203
39505 1033 70306
17803 966 70306
16338 1105 70306
23628 115 61071
23628 529 20344
23628 1142 13132
23628 525 21603
23628 429 44589
23628 772 16589
26338 641 70306
25250 515 70306
24699 1150 70306
8953 31336 70306
5436 32073 70306
11262 31990 70306
16492 637 11525
25036 225 11525
28445 224 11525
3583 95 11525
40412 2843 12677
40394 10772 12677
40813 10509 12677
7215 31221 70306
34953 31608 70306
26722 31372 70306
23628 31934 29911
23628 32026 48423
23628 32094 69613
23628 31502 67114
2487 4538 70306
3012 7772 70306
2838 4092 70306
40244 31337 71458
26062 31650 71458
34564 31863 71458
2755 17599 71458
2574 2723 71458
2716 4518 71458
4012 1142 12677
38871 332 12677
32731 392 12677
2797 17267 12677
3127 9298 12677
2394 28973 12677
2306 29343 12448
2306 17080 11645
2306 23303 12294
4299 31762 70306
14105 31926 70306
25308 32130 70306
30966 32259 70306
16454 31119 12677
40576 31361 12677
30779 31447 12677
2306 189 12052
2306 1330 12279
2306 25425 12610
41492 10388 12522
41492 24542 11863
41492 26828 12282
23066 0 52759
22884 0 44135
22651 0 29366
23308 0 55989
22604 0 36297
2529 14234 71458
2984 8994 71458
2506 507 71458
23075 32271 65207
23610 32271 67588
23482 32271 61021
23150 32271 49859
22952 32271 47895
5211 31119 70815
37332 31119 71393
5313 31119 71362
32593 31119 12131
30061 31119 12282
25789 31119 11530
38107 31119 11664
40859 17129 70306
40364 8176 70306
3458 14334 70768
3458 10240 70339
3458 4105 70698
3458 19112 70873
3458 20304 70799
21543 33989 0
21713 34401 0
10204 33871 0
12146 33619 0
14819 33202 0
3826 32990 0
12327 34312 0
7800 32271 71176
14800 32271 70942
7373 32271 71170
41492 12878 70657
41492 126 70491
41492 20132 70377
3458 5101 71458
2771 23696 71458
3454 25934 71458
23096 31119 50201
23045 31119 54742
23124 31119 54165
22976 31119 61848
22943 31119 41094
36049 31176 71458
35620 31924 71458
26613 31642 71458
22475 32061 39747
22475 31556 34279
22475 31443 15500
22475 32041 35387
22475 31359 19879
22629 0 45569
22579 0 64046
22939 0 62465
22918 0 44742
22789 0 45169
9671 1152 12367
11681 1152 11968
14064 1152 11652
21291 1152 12008
36594 138 71458
24535 382 71458
16310 224 71458
2848 27015 12677
3133 29565 12677
2811 24223 12677
3458 7666 70806
3458 5712 70910
22832 31119 26292
23456 31119 48868
23178 31119 12919
22776 31119 17355
22914 31119 19297
11660 160 11525
15694 96 11525
41492 5895 12266
41492 14754 11819
41492 10519 11642
22475 31555 14800
22475 32126 40741
22475 31949 36072
22475 32057 48330
462 34037 82983
3909 33421 82983
16319 32382 82983
18490 32414 82983
12194 33608 82983
17076 33307 82983
2307 33750 82983
5221 34052 82983
22475 31391 49151
22475 31989 58901
22475 31735 46578
22475 31964 61428
22475 31265 22389
20090 994 71458
28148 490 71458
16455 1083 71458
39311 350 71458
10308 32252 71458
15152 31713 71458
16993 32028 71458
2381 31941 11525
2616 10813 11525
2863 30748 11525
3386 16502 71458
3444 2743 71458
3279 20329 71458
22475 458 65526
22475 89 54873
22475 113 25227
22475 293 49452
22475 428 36208
3458 13205 11529
3458 24634 11639
3458 8823 11919
39927 32271 70880
35269 32271 70813
35951 32271 70749
36280 32271 71342
24641 32271 70854
7954 34081 0
18839 34519 0
13317 34544 0
31691 34302 0
8852 33411 0
11273 33265 0
3502 33303 0
0 32615 78539
0 33699 65723
0 32684 32268
0 32597 55145
0 32994 66183
0 33823 76402
0 33215 56268
0 34250 73774
0 34369 75717
33246 0 12249
36375 0 11763
37329 0 11876
33076 72 70306
4773 1083 70306
3285 755 70306
0 33411 19112
0 33443 27494
0 33717 20194
0 34257 49669
0 33299 23606
0 33477 15367
0 33993 56259
0 34400 30963
0 34155 32917
0 33780 44877
0 34533 54856
0 34400 9275
0 34072 52826
0 32751 14722
5873 31119 70887
9374 31119 70840
23012 31119 71193
6323 630 70306
28695 337 70306
4299 165 70306
28097 88 70306
12351 360 71458
34769 20 71458
17894 278 71458
22475 31831 49496
22475 31543 44038
22475 31358 66491
22475 31609 39718
22475 31793 59975
22475 31521 59081
40340 18432 71107
40340 13354 70961
40340 17451 12365
40340 8751 12199
40340 2523 11898
3267 18950 12677
3413 4582 12677
3386 27322 12677
38278 439 11525
37204 347 11525
37647 155 11525
22522 32271 16423
22783 32271 17621
22766 32271 24708
22641 32271 53113
22839 32271 41981
35870 31119 70591
35191 31119 70598
25870 31119 70491
16121 32271 38213
3804 32271 56745
8429 32271 79348
12414 32271 79650
18112 32271 69229
982 32271 48207
3421 32271 28780
13790 32271 34833
6358 32271 64232
6990 32271 38212
8338 32271 54844
27533 32271 73440
17444 32271 52425
13624 32271 46348
12567 32271 71433
14869 32271 69208
21318 32271 51857
7898 32271 28780
578 32271 8937
28974 32271 68821
8167 32271 58712
25436 32271 52400
9852 32271 41106
28512 32271 66882
6054 32271 31766
18145 32271 61890
887 32271 5815
18173 32271 53584
6899 32271 73437
13269 32271 38237
19944 32271 51983
11125 32271 67698
1344 32271 74654
22593 32271 55668
13968 32271 48665
597 32271 79978
15872 32271 62301
15644 32271 31322
14881 32271 78516
6390 32271 22231
17475 32271 81324
10794 32271 25792
31037 32271 74527
14552 32271 51702
8813 32271 19981
7396 32271 49305
19346 32271 75239
42188 32271 82545
19415 32271 43278
13434 32271 72814
15057 32271 59417
27631 32271 74097
15990 32271 55311
10669 32271 32409
7736 32271 58416
6911 32271 70010
24687 32271 60379
18147 32271 72632
16130 32271 46569
9407 32271 25568
36376 32271 70677
21577 32271 57348
1471 32271 60062
2034 32271 45902
13022 32271 74370
7144 32271 65940
7174 32271 27608
14984 32271 75966
467 32271 62367
59 32271 26351
26216 32271 78017
10926 32271 27848
657 32271 44376
10843 32271 43095
297 32271 2212
11042 32271 53372
27881 32271 55160
16050 32271 39442
7131 32271 75858
12885 32271 24970
24900 32271 61526
6323 32271 71672
12576 32271 45730
24955 32271 51689
10473 32271 48086
5038 32271 12965
4907 32271 9668
6695 32271 29586
24881 32271 66657
22104 32271 56972
24798 32271 50313
462 32271 79387
2721 32271 63613
21900 32271 54755
32954 32271 66907
468 32271 9707
10471 32271 20884
22792 32271 73796
8327 32271 39339
2651 32271 29669
25357 32271 73830
4839 32271 27054
2376 32271 49519
19853 32271 80141
17086 32271 41713
7138 32271 77614
14992 32271 35701
11945 32271 53723
3200 32271 8055
15537 32271 77454
4429 32271 35348
23808 32271 72088
7976 32271 35925
33202 32271 81498
33028 32271 74413
28641 32271 81031
5799 32271 31268
32019 32271 63853
3345 32271 22180
12778 32271 35471
3598 32271 70060
4528 32271 67937
10747 32271 27403
7881 32271 39584
14219 32271 44101
14918 32271 73343
9158 32271 69771
26506 32271 64746
2357 32271 18617
29323 32271 65247
3699 32271 56233
8228 32271 82919
21874 32271 43266
14756 32271 77145
34209 32271 81470
17188 32271 32658
12746 32271 60500
1980 32271 70509
6883 32271 58755
10130 32271 74415
20125 32271 62315
14829 32271 64505
38528 32271 80438
6899 32271 49515
34933 32271 67889
29974 32271 79992
21203 32271 41140
897 32271 38515
5066 32271 48306
26313 32271 69090
7199 32271 53771
11646 32271 26829
394 32271 51582
9 32271 32867
23206 32271 45703
14312 32271 81868
25065 32271 57204
5413 32271 72191
3015 32271 14447
16076 32271 57184
41330 32271 79494
2410 32271 5847
3978 32271 38034
11722 32271 48400
19813 32271 68260
29485 32271 75196
5424 32271 27610
7458 32271 47225
1731 32271 24708
14364 32271 40250
30723 32271 81734
13502 32271 54296
22000 32271 67035
13195 32271 46238
3691 32271 20608
25102 32271 58526
3444 32271 16353
5973 32271 78597
23748 32271 75202
13808 32271 60033
23977 32271 60349
16744 32271 55798
30771 32271 68118
5308 32271 81909
24017 32271 54561
8333 32271 76097
14118 32271 80767
37083 32271 79601
15163 32271 45972
110 32271 70115
18073 32271 47888
17215 32271 62258
21951 32271 58194
8003 32271 31011
17224 32271 45835
2624 32271 51823
2711 32271 77205
4778 32271 21402
9500 32271 78683
29233 32271 82905
27122 32271 74752
933 32271 18215
15432 32271 34070
28406 32271 63171
28530 32271 60158
4418 32271 28303
22177 32271 70581
24432 32271 68224
4564 32271 16663
7556 32271 68342
23819 32271 65032
18971 32271 78646
26200 32271 70728
32234 32271 68220
26972 32271 58869
13670 32271 64899
3894 32271 74020
17204 32271 42753
1957 32271 14709
14767 32271 36366
7243 32271 57179
10528 32271 60251
2404 32271 14572
13139 32271 27063
7291 32271 78470
21922 32271 51117
10754 32271 82769
26256 32271 55096
24547 32271 51338
18025 32271 48289
4976 32271 64471
5952 32271 81680
11489 32271 68525
12418 32271 31337
20878 32271 63748
11403 32271 28148
17287 32271 47980
3917 32271 79156
6687 32271 15490
32711 32271 78306
5919 32271 22548
8734 32271 20957
26071 32271 54417
26066 32271 57660
13853 32271 42077
9073 32271 27694
8028 32271 36527
16265 32271 42626
9971 32271 81533
14609 32271 30013
12088 32271 44795
17834 32271 33967
35695 32271 82954
13933 32271 50797
25349 32271 73068
23628 31653 27023
23628 31332 40106
23628 31766 18791
23628 31458 13518
23628 31738 32041
2306 8585 11815
2306 24422 12133
40340 10175 11620
40340 16729 12082
40340 30869 12557
2674 22245 11525
3032 29963 11525
2749 15554 11525
11158 32271 12271
30498 32271 11550
4184 32271 12191
21158 32271 11631
3384 22294 70306
3196 2703 70306
23952 31119 12004
24501 31119 11537
22603 1152 50723
22505 1152 32395
23017 1152 18817
22560 1152 37249
22494 1152 17452
2341 18576 70306
2440 23941 70306
2483 21270 70306
16020 31492 70306
21591 31556 70306
31481 31355 70306
41292 8925 11525
41374 2350 11525
41104 5650 11525
22475 908 57133
22475 664 18409
22475 876 33900
22475 783 13507
2306 21001 70726
2306 26203 70373
16317 31814 12677
3110 31567 12677
26697 32074 12677
22578 31277 12677
41075 13639 70306
41088 10023 70306
22671 31119 58033
22545 31119 62825
23325 31119 66831
22600 31119 49767
22670 31119 38912
34511 33511 82983
19795 33991 82983
30957 34207 82983
27938 33711 82983
41344 33459 82983
22179 34075 82983
3458 7717 12071
3458 13955 11734
41492 30397 71161
41492 12595 71030
41492 17732 71303
23628 396 22793
23628 364 46807
23628 303 20979
23628 422 42523
23628 76 49124
3125 34576 70570
10059 34576 20405
7079 34576 39157
1778 34576 25456
23241 34576 6250
32427 34576 5668
6987 34576 26683
1274 34576 2861
40157 34576 33
7869 34576 39466
28520 34576 16868
3095 34576 27028
1963 34576 33124
1679 34576 5589
14528 34576 22727
5296 34576 1649
23249 34576 34245
14498 34576 47430
30088 34576 6324
13442 34576 7513
3623 34576 57219
32070 34576 14181
6753 34576 31845
27355 34576 16899
631 34576 48008
29835 34576 22358
12758 34576 6729
17248 34576 46538
4343 34576 30578
5519 34576 71810
5749 34576 38463
2830 34576 71743
13385 34576 40258
38094 34576 6635
8736 34576 55356
14157 34576 46841
7701 34576 12504
1835 34576 48454
15361 34576 700
21177 34576 24730
1428 34576 21085
12551 34576 38168
19106 34576 15901
13181 34576 26142
14734 34576 40705
11618 34576 53776
8664 34576 59606
6574 34576 44747
7308 34576 54606
2442 34576 14820
1155 34576 9221
16506 34576 42235
11835 34576 42684
3934 34576 33927
25311 34576 25682
9914 34576 562
5308 34576 69458
9324 34576 46526
12453 34576 10379
5052 34576 22390
14854 34576 41394
19176 34576 20428
17148 34576 26431
12693 34576 1920
15816 34576 38530
37459 34576 8575
14537 34576 30486
36208 34576 14018
10897 34576 21225
4026 34576 65762
39629 34576 4611
19339 34576 5970
13069 34576 29354
1567 34576 59490
19335 34576 27796
28124 34576 21758
27229 34576 27096
8538 34576 49135
33177 34576 17847
2098 34576 74263
3656 34576 44760
11112 34576 57140
15437 34576 43257
1294 34576 41712
3009 34576 53207
5927 34576 21493
2357 34576 61715
1477 34576 8961
17545 34576 38164
7812 34576 25314
13028 34576 33555
1348 34576 8561
2881 34576 7762
11169 34576 52610
3527 34576 41122
7643 34576 61938
11724 34576 21710
3913 34576 47294
4913 34576 15952
3859 34576 51670
15957 34576 50869
5936 34576 28524
33266 34576 4003
16554 34576 22920
11409 34576 56177
17942 34576 28348
3154 34576 17623
6518 34576 51212
6387 34576 171
2528 34576 6358
27935 34576 3457
6106 34576 8323
11927 34576 56951
26801 34576 8822
22664 34576 13826
12879 34576 47713
7209 34576 67647
30918 34576 7982
36714 34576 12646
26685 34576 17673
9105 34576 19573
23912 34576 5225
20394 34576 16994
10794 34576 59210
17362 34576 20640
993 34576 58342
36652 34576 5454
3667 34576 39983
9301 34576 14288
23138 34576 2193
1467 34576 77784
27721 34576 20254
5899 34576 50793
25915 34576 29517
8469 34576 22077
30291 34576 23610
13664 34576 30951
7139 34576 1903
6433 34576 22029
26417 34576 15137
8084 34576 12068
2167 34576 21098
8106 34576 8971
3556 34576 69175
18632 34576 8271
370 34576 40796
26820 34576 29699
9339 34576 42932
31549 34576 17071
10244 34576 35303
25147 34576 30353
9094 34576 31565
23360 34576 12564
20162 34576 34846
3202 34576 30317
8522 34576 62110
23030 34576 6735
9711 34576 3596
19133 34576 3201
29229 34576 6853
34752 34576 7118
3074 34576 36558
15375 34576 46170
12384 34576 37321
2131 34576 37140
2968 34576 51178
12572 34576 4433
8716 34576 8273
31569 34576 12216
31433 34576 17769
36760 34576 9018
21537 34576 10554
28427 34576 19329
19463 34576 41252
14266 34576 19246
5699 34576 6570
6954 34576 38329
15953 34576 31874
14035 34576 27710
38125 34576 8172
15587 34576 43712
31572 34576 316
14143 34576 2416
10114 34576 4883
20979 34576 42241
29159 34576 5115
20263 34576 4586
31157 34576 5306
7224 34576 58613
31869 34576 8235
16951 34576 3725
22133 34576 21555
514 34576 32278
9874 34576 47678
20386 34576 9713
3959 34576 48857
18962 34576 7463
17942 34576 5800
17526 34576 43188
16887 34576 37773
25353 34576 12152
5024 34576 48799
22047 34576 19446
10660 34576 29198
22123 34576 9041
19096 34576 36531
15901 34576 49265
12694 34576 7311
9336 34576 16937
14874 34576 7245
22112 34576 24080
12973 34576 2651
23604 34576 19966
11228 34576 58532
3350 34576 67140
32181 34576 7785
17170 34576 23267
8169 34576 2314
22364 34576 14412
7674 34576 20436
19408 34576 36191
74 34576 10807
29355 34576 7396
22057 34576 33702
15786 34576 20649
26451 34576 29050
12478 34576 48457
12878 34576 50467
27699 34576 5767
6693 34576 23743
9614 34576 62008
17735 34576 7977
18177 34576 45723
3024 34576 38770
17287 34576 31595
17475 34576 10444
4706 34576 51226
19225 34576 15303
28787 34576 17735
2564 34576 59928
23514 34576 9930
21381 32271 12453
38846 32271 11895
22837 32271 12443
3372 32271 12662
32166 32271 11732
14196 32271 12121
31280 32271 11561
40635 16027 12677
41066 7518 12677
40518 5641 12677
23628 607 52987
23628 1128 49041
23628 1083 66385
23628 948 63736
23628 1142 26583
41205 17717 12677
40680 24261 12677
41142 23263 12677
18696 1152 12264
29170 1152 12315
16347 1152 12607
34506 32271 34862
11973 32271 14765
32652 32271 10307
12248 32271 17576
34479 32271 17087
42837 32271 2406
24576 32271 41838
43218 32271 62466
41437 32271 14993
29627 32271 16169
18108 32271 24659
38467 32271 15941
43664 32271 19807
21579 32271 11658
35780 32271 38165
32861 32271 16787
13925 32271 21995
22066 32271 4419
30231 32271 7952
25066 32271 18154
42349 32271 25049
39334 32271 61737
20191 32271 37376
15823 32271 26590
33175 32271 41552
43555 32271 25145
43635 32271 80227
30675 32271 11063
40358 32271 2807
35912 32271 56937
23549 32271 13178
33327 32271 46249
39668 32271 52891
33742 32271 48710
21020 32271 15524
27786 32271 25313
39416 32271 11701
41469 32271 26392
4504 32271 7742
32810 32271 5070
39956 32271 17332
33236 32271 42193
37316 32271 10862
42530 32271 66845
28140 32271 25808
36682 32271 68781
3403 32271 4834
19131 32271 16074
31358 32271 2503
42873 32271 51963
30971 32271 7116
25309 32271 1249
35141 32271 42060
24487 32271 27938
35706 32271 41951
35464 32271 12656
17946 32271 28939
24351 32271 26473
21959 32271 10817
24564 32271 15534
42363 32271 22391
35812 32271 35676
35457 32271 44167
28475 32271 49044
42273 32271 28979
24552 32271 19271
11321 32271 10039
34426 32271 57914
40051 32271 59386
34462 32271 53726
42600 32271 47261
29824 32271 56010
19326 32271 273
4681 32271 1890
9038 32271 15615
37041 32271 24292
17383 32271 28637
31981 32271 58952
39118 32271 50509
34727 32271 2228
24719 32271 185
18478 32271 20934
29832 32271 50430
36822 32271 22356
22822 32271 7833
26706 32271 23548
16971 32271 16467
39729 32271 44920
39088 32271 24682
14438 32271 9625
35533 32271 55276
30269 32271 15143
33999 32271 32953
18854 32271 6819
16418 32271 1049
28969 32271 43820
41869 32271 46045
21165 32271 8301
20013 32271 13458
28846 32271 31253
23537 32271 25410
35448 32271 6445
20839 32271 22697
28806 32271 25821
17235 32271 5845
39601 32271 72526
42366 32271 2045
20510 32271 8979
28316 32271 46482
9455 32271 15427
27163 32271 41505
17590 32271 27380
2966 32271 5032
10063 32271 11248
12354 32271 2039
18725 32271 35167
34125 32271 16107
19609 32271 12370
4636 32271 542
37438 32271 31098
14432 32271 3195
40296 32271 13413
41653 32271 1345
38955 32271 2289
33334 32271 44962
41630 32271 66120
24880 32271 35457
42549 32271 9304
36386 32271 38665
40054 32271 10459
42366 32271 46872
40234 32271 25431
42288 32271 32000
31773 32271 12204
24927 32271 12205
32332 32271 59553
41150 32271 63744
26466 32271 20371
27043 32271 39072
36615 32271 53800
10811 32271 15272
28373 32271 37550
16136 32271 30099
36909 32271 16844
43703 32271 34163
32045 32271 16121
16985 32271 12234
39480 32271 13726
28929 32271 5074
26947 32271 3522
13047 32271 15818
19019 32271 4660
21207 32271 39968
40728 32271 53492
38199 32271 62942
27179 32271 22749
31015 32271 30612
27766 32271 11294
41649 32271 25002
39365 32271 56594
41467 32271 56184
9412 32271 6135
11353 32271 4499
32874 32271 10835
6616 32271 4888
30539 32271 33895
41160 32271 2145
8880 32271 12265
41705 32271 9114
26187 32271 4075
6684 32271 3180
39778 32271 43478
43538 32271 23391
15959 32271 7115
41307 32271 24313
35833 32271 21339
15126 32271 15193
38161 32271 69836
38402 32271 66493
25020 32271 41843
34376 32271 45018
20137 32271 16978
30172 32271 42321
39399 32271 25175
32861 32271 25021
26513 32271 35416
31945 32271 6508
12066 32271 20164
34523 32271 52537
40150 32271 47194
11067 32271 14097
37075 32271 55050
41251 32271 72047
14292 32271 26889
21783 32271 23505
13479 32271 16245
28468 32271 27703
34612 32271 37274
33462 32271 49622
11720 32271 10234
35777 32271 1315
42363 32271 65803
13223 32271 11733
14169 32271 13023
26463 32271 12319
22907 32271 30220
29663 32271 24440
30266 32271 56491
33099 32271 30790
42789 32271 18119
40234 32271 70333
15917 32271 24016
19529 32271 13743
14906 32271 21707
34856 32271 51952
22900 32271 25519
43521 32271 18737
37198 32271 43749
39823 32271 37599
36005 32271 4424
32369 32271 11337
28196 32271 34240
36415 32271 11234
37189 32271 38661
40544 32271 51459
34050 32271 29921
17213 32271 4640
39342 32271 30921
10293 32271 11765
16051 32271 19191
42872 32271 80032
24346 32271 9108
27186 32271 24210
33759 32271 45274
4415 32271 5960
41454 32271 69607
37612 32271 65545
35327 32271 25396
456 32271 214
41792 32271 33437
27072 32271 11059
34493 32271 53102
10288 32271 16648
42262 32271 77716
25679 32271 41032
38500 32271 42846
40903 32271 7069
37665 32271 4196
10347 32271 1840
43026 32271 50274
28295 32271 30190
39924 32271 73493
32410 32271 13306
13679 32271 6755
42700 32271 68193
14931 32271 26462
40598 32271 64172
41564 32271 50166
29050 32271 43048
39008 32271 35196
40129 32271 15258
32161 32271 50041
12856 32271 22123
42675 32271 63339
26388 32271 2251
28240 32271 26836
26940 32271 21365
34037 715 12677
38052 1077 12677
33569 692 12677
19554 861 12677
23197 32271 69484
23171 32271 51191
23326 32271 43338
22692 32271 64650
23358 32271 50780
40343 7571 11525
40414 28146 11525
22683 0 22191
23564 0 24404
22656 0 20462
23621 0 23208
23562 0 28753
23335 0 18842
33818 34576 56239
43276 34576 66367
41268 34576 10206
22515 34576 59733
21715 34576 82730
40231 34576 46462
18761 34576 52457
6853 34576 71465
24030 34576 44927
43139 34576 30733
16287 34576 55930
15189 34576 79870
33723 34576 74075
26150 34576 76452
28840 34576 58924
40630 34576 36467
32231 34576 25571
34373 34576 26445
29669 34576 38743
31460 34576 59312
13183 34576 81881
16040 34576 63502
42014 34576 25782
10241 34576 72807
19509 34576 66288
14152 34576 69070
19521 34576 57650
23525 34576 76752
24784 34576 60741
40375 34576 7844
36521 34576 62877
16928 34576 63810
12709 34576 67937
21762 34576 58964
38795 34576 50558
36848 34576 45399
34295 34576 53811
31046 34576 61476
22765 34576 78034
24253 34576 78155
8469 34576 79362
11408 34576 71938
34562 34576 49437
22884 34576 40670
35779 34576 31719
31572 34576 44528
17653 34576 77785
32573 34576 61551
12351 34576 62062
32282 34576 78316
28814 34576 42127
42299 34576 82607
29735 34576 43611
43150 34576 48739
25824 34576 79250
22775 34576 65285
41910 34576 60648
31221 34576 23977
15763 34576 69279
33992 34576 20820
42982 34576 18770
22215 34576 45029
34088 34576 52853
41968 34576 18113
9118 34576 69307
39948 34576 42420
8759 34576 67587
22957 34576 53133
28088 34576 44683
26398 34576 34442
30161 34576 31236
43259 34576 36722
42839 34576 36189
11628 34576 74939
40319 34576 66258
35683 34576 74471
34038 34576 59581
37121 34576 38314
40711 34576 67308
28308 34576 73407
41985 34576 40502
24084 34576 70407
16381 34576 66224
42349 34576 76706
33140 34576 42641
23367 34576 47389
23554 34576 62535
23455 34576 58148
25576 34576 36863
26879 34576 44128
22250 34576 62734
25830 34576 47702
35439 34576 47506
29928 34576 61679
6541 34576 78282
25008 34576 78923
27029 34576 73080
39124 34576 37742
40506 34576 6443
37820 34576 26130
37116 34576 74986
12786 34576 75585
30864 34576 69403
30716 34576 72693
39642 34576 14050
13150 34576 74324
30919 34576 34842
39038 34576 62010
34750 34576 35429
42073 34576 22489
38147 34576 23159
7024 34576 70837
17018 34576 66614
19185 34576 46995
22300 34576 80987
43431 34576 47969
32896 34576 71031
36536 34576 40318
43369 34576 32430
42206 34576 54971
1436 34576 81320
19387 34576 54690
32423 34576 66164
37627 34576 43975
32139 34576 61709
14431 34576 65609
10488 34576 81077
15725 34576 72929
37867 34576 62866
35731 34576 47779
30449 34576 73355
30648 34576 80314
42932 34576 53951
31641 34576 52060
33327 34576 31176
16149 34576 80973
36778 34576 34525
36906 34576 75989
40139 34576 77524
33523 34576 66970
40386 34576 69780
18417 34576 68081
26724 34576 37797
22356 34576 67966
37976 34576 59907
13212 34576 61895
42508 34576 30492
14675 34576 80358
25105 34576 50154
32696 34576 73296
32639 34576 40672
40206 34576 16190
9766 34576 72626
4591 34576 75718
8481 34576 75778
14598 34576 74089
17320 34576 74065
42573 34576 60042
23360 34576 75112
41016 34576 10799
25844 34576 40704
26895 34576 60629
40415 34576 62552
20364 34576 51320
32789 34576 58639
16384 34576 53775
12637 34576 63236
34239 34576 43444
22516 34576 58504
35606 34576 52006
40963 34576 79030
33663 34576 19954
43700 34576 20507
29756 34576 72666
34847 34576 68837
31454 34576 65013
35619 34576 40703
30465 34576 46214
32606 34576 75814
33192 34576 68479
38618 34576 16114
21892 34576 65046
37330 34576 44755
32713 34576 82615
7878 34576 74644
25924 34576 81985
9328 34576 70938
25779 34576 41984
21624 34576 79129
29819 34576 28871
39825 34576 36512
18466 34576 77094
21901 34576 43094
19680 34576 61886
43072 34576 27249
35573 34576 35298
37510 34576 81107
36370 34576 24569
41306 34576 41566
30411 34576 43393
11783 34576 70489
24914 34576 71003
34781 34576 44412
19118 34576 79018
27476 34576 81230
43166 34576 65440
26868 34576 74718
9961 34576 81925
33488 34576 23249
35802 34576 72787
7251 34576 79523
31818 34576 66566
17791 34576 78920
26824 34576 57112
36675 34576 14815
41952 34576 7681
38522 34576 72548
41851 34576 24783
31494 34576 69371
28290 34576 32834
28666 34576 54728
38502 34576 48429
34406 34576 63275
25951 34576 69423
10508 34576 71316
35018 34576 40169
21684 34576 51374
25767 34576 67502
19980 34576 68924
16499 34576 72269
14233 34576 57766
39055 34576 66058
42923 34576 17899
26748 34576 59829
41767 34576 73491
26446 34576 50989
27288 34576 80597
12095 34576 75914
25915 34576 42456
29987 34576 69190
11973 34576 60997
30392 34576 68347
38689 34576 42737
29986 34576 71995
41271 34576 27573
24965 34576 59616
17105 34576 68187
25865 34576 66800
10766 34576 63057
38470 34576 39210
13712 34576 78669
32526 34576 23580
36257 34576 36561
41492 29525 70673
41492 29581 71401
41492 13752 71250
37718 1152 71022
39915 1152 70538
34661 1152 71403
4841 31119 12273
24572 31119 12388
13718 31119 12381
22475 788 14139
22475 740 34796
22475 877 40349
22475 780 15503
22475 1106 33560
37950 33546 0
24082 33444 0
39194 33304 0
38723 32525 0
30839 33048 0
3458 20079 12153
3458 15463 12440
3458 31093 11844
3243 5824 12677
2326 17106 12677
2455 193 12677
15077 32104 11525
6119 31634 11525
15456 31910 11525
33323 31202 12677
36290 31804 12677
32590 31470 12677
35192 31119 71214
25873 31119 70917
34857 31119 70982
35226 1152 12225
37099 1152 12080
23628 31206 56468
23628 31140 51605
23628 31541 37726
23628 31189 55327
40665 8094 11525
40996 4619 11525
40705 9721 11525
2443 2350 11525
3249 4995 11525
3055 16599 11525
41492 1688 11584
41492 26437 11646
41492 2870 11672
26795 0 71277
3239 0 70507
11838 0 71418
22776 1152 35563
22847 1152 43913
23301 1152 12866
22715 1152 29799
22981 1152 39589
23198 1152 13743
43624 32271 70665
35083 32271 38697
22332 32271 32106
15925 32271 21342
36709 32271 47380
33734 32271 26524
5061 32271 5793
33764 32271 62346
39459 32271 15103
40084 32271 3927
34450 32271 50209
33950 32271 22741
35574 32271 36200
31301 32271 43502
18251 32271 27517
5722 32271 549
35040 32271 41620
36069 32271 6377
39665 32271 58601
40971 32271 60330
36945 32271 19549
22124 32271 25063
18070 32271 7160
37678 32271 41054
34345 32271 55928
42916 32271 23595
39190 32271 62254
26021 32271 25390
24676 32271 45093
14223 32271 4246
33121 32271 37068
43566 32271 43626
19018 32271 9969
31013 32271 29650
20164 32271 26176
27700 32271 18274
19347 32271 22271
13727 32271 2240
18752 32271 27501
32174 32271 30327
42778 32271 28873
34327 32271 18529
15289 32271 14657
37746 32271 9209
25848 32271 2071
27210 32271 9679
33687 32271 4671
22190 32271 22293
22515 32271 17018
28492 32271 21384
26965 32271 4069
35772 32271 59204
41694 32271 40590
5467 32271 7947
14024 32271 15845
2769 32271 2004
13701 32271 24167
17767 32271 7658
25826 32271 34600
7251 32271 6549
24995 32271 38860
31288 32271 58744
19018 32271 17798
41602 32271 4251
29306 32271 28894
36090 32271 63935
14551 32271 19722
39096 32271 20772
17456 32271 8861
23860 32271 7010
36502 32271 4421
37036 32271 29613
39684 32271 35630
23346 32271 18981
43350 32271 70248
30668 32271 42958
33108 32271 3889
27351 32271 15944
20374 32271 18241
34223 32271 57152
39819 32271 36646
15449 32271 16181
24099 32271 6341
28639 32271 2030
42545 32271 79691
32234 32271 18100
38335 32271 31427
39066 32271 60622
28419 32271 36793
33615 32271 55166
37857 32271 52569
32451 32271 26597
24901 32271 9547
10468 32271 18213
41543 32271 73957
20905 32271 27919
32320 32271 8782
41321 32271 7658
37405 32271 21034
20721 32271 27056
41894 32271 17577
23090 32271 2287
32721 32271 32499
38082 32271 7553
40254 32271 22860
9099 32271 12654
41086 32271 12758
33717 32271 8168
35657 32271 61108
42935 32271 73353
39410 32271 64181
36338 32271 2997
38286 32271 19734
43420 32271 45598
8616 32271 2778
16971 32271 27927
40987 32271 14247
42808 32271 64755
13749 32271 13482
19885 32271 8156
23036 32271 16576
37230 32271 22414
12276 32271 6
30802 32271 9731
12753 32271 3910
7418 32271 11083
31717 32271 51925
42278 32271 54665
26089 32271 31765
37211 32271 66367
33708 32271 24408
19303 32271 1360
25697 32271 13951
20415 32271 13013
42056 32271 74743
40762 32271 43883
8498 32271 5214
42582 32271 35792
39045 32271 67046
33772 32271 4010
24169 32271 21322
34703 32271 55701
42208 32271 7329
30767 32271 25019
31920 32271 59955
41795 32271 19104
22324 32271 24598
41991 32271 23103
28360 32271 51928
43122 32271 39840
41910 32271 57754
22731 32271 39181
39997 32271 67934
31129 32271 45650
40868 32271 5925
4623 32271 1145
22610 32271 18518
42496 32271 56274
29253 32271 17690
31039 32271 33440
25352 32271 21243
26096 32271 1452
41702 32271 41178
23489 32271 2812
14152 32271 11506
32454 32271 6990
26143 32271 12036
42268 32271 47509
40353 32271 56035
25737 32271 34082
41043 32271 50053
40583 32271 33176
37385 32271 16184
23386 32271 43941
37914 32271 68152
22264 32271 3746
37095 32271 14250
11071 32271 2129
12171 32271 869
15852 32271 25969
9783 32271 17006
11816 32271 16410
6357 32271 5576
19272 32271 3280
42902 32271 49834
22948 32271 17047
42932 32271 51409
27571 32271 39804
22240 32271 41329
20321 32271 34119
40566 32271 58716
32084 32271 29650
43612 32271 1242
37373 32271 40048
16308 32271 26710
28435 32271 4137
26718 32271 15729
23274 32271 22088
16999 32271 25854
41025 32271 30054
12378 32271 14530
37629 32271 38422
42896 32271 12926
24697 32271 12812
31601 32271 12800
20690 32271 26107
31236 32271 7872
34610 32271 59933
38182 32271 51590
40885 32271 49414
33684 32271 7595
33374 32271 8437
38065 32271 36375
35349 32271 42993
34174 32271 30303
41666 32271 22579
43323 32271 48547
16685 32271 4274
28245 32271 44307
5761 32271 978
19160 32271 24039
31310 32271 34403
39524 32271 61165
35972 32271 65103
40721 32271 26234
36718 32271 62408
22043 32271 971
33699 32271 15169
30616 32271 39831
43727 32271 49695
28910 32271 8987
41444 32271 8354
27381 32271 35830
25043 32271 31006
38558 32271 18384
41778 32271 63970
34083 32271 47476
36168 32271 6766
37829 32271 48851
35709 32271 41287
15785 32271 19916
20180 32271 14574
17071 32271 19
43526 32271 73721
25370 32271 13634
3401 32271 983
38977 32271 13032
37162 32271 62501
29404 32271 5277
12034 0 70681
2533 0 71445
5249 0 70412
22833 32271 37654
22721 32271 37036
23026 32271 13575
22732 32271 27446
31263 0 70493
12903 0 70499
35714 0 70489
22647 31897 71458
4870 31936 71458
40340 20659 11730
40340 18549 11927
40340 30540 11850
40340 14891 70767
40340 16721 70802
22673 1152 65295
23600 1152 28352
23366 1152 44326
23384 1152 42835
2335 1190 70306
2928 29337 70306
2842 31047 70306
38765 1152 70428
32354 1152 70843
24409 1152 70996
40605 26498 12677
41281 22542 12677
40684 28583 12677
10644 31119 11903
8988 31119 11848
6849 31119 11930
32565 0 70717
9457 0 70308
36871 0 70668
31448 0 71044
2481 3407 11525
3299 22298 11525
41492 27981 11757
41492 29230 11780
41492 23557 12358
2306 15550 12370
2306 2084 12441
2306 20825 12337
5392 1103 71458
34972 773 71458
17553 933 71458
14185 453 12677
15150 134 12677
9756 724 12677
3746 492 12677
43798 33780 30183
43798 34278 23828
43798 33911 65992
43798 32622 78548
43798 33576 50766
43798 33503 61522
43798 33755 38887
43798 34117 20926
43798 34149 62290
43798 34126 40092
43798 32906 82978
43798 34297 79903
43798 33332 49888
35943 23 12677
16488 362 12677
5782 178 12677
7789 0 12084
26029 0 12300
6938 0 12577
10197 0 12275
43798 32757 25462
43798 32415 43099
43798 33549 27608
43798 32567 51742
43798 32989 43051
43798 32334 61309
43798 33463 39564
43798 32506 10360
43798 33079 10330
43798 33149 3868
43798 32418 64002
43798 33451 1713
43798 32966 7537
43798 33737 16114
43798 32670 23358
2306 11447 71096
2306 10157 70723
2306 3007 71078
23628 696 46182
23628 1052 44739
23628 597 48690
23628 357 55766
3458 21328 12451
3458 25307 12091
40372 23876 71458
40358 22758 71458
41021 7929 71458
10551 31480 11525
6996 31391 11525
17287 31647 11525
22696 31839 11525
9557 32275 82983
34096 32301 82983
5934 33684 82983
7046 32311 82983
20423 32510 82983
14173 33436 82983
2306 17702 71191
2306 2352 70460
11775 31333 11525
23801 31564 11525
32906 31285 11525
23393 0 36643
23414 0 25637
23264 0 47239
23537 0 30901
23559 0 27952
3458 14897 71292
3458 15788 71355
