ply
format ascii 1.0
element vertex 2718
property float x
property float y
property float z
end_header
42176 7574 11281
26191 19774 11170
41281 3162 11109
12135 2866 11106
20702 25427 21724
37216 8079 71060
4336 37000 11902
14905 6528 11758
21213 19693 65183
21207 23468 57698
18 37421 34916
20840 20031 14012
20537 38101 41205
33243 38101 41044
13010 38101 42312
31291 38101 42061
25810 38101 42571
30831 38101 41742
24332 38101 42410
37105 38101 40704
24866 38101 42604
25876 38101 41502
636 6821 70394
1056 6146 11792
17 37417 61036
25640 16410 11024
26780 24622 11232
20978 38101 79145
7155 38101 78382
26069 38101 78306
8645 38101 78478
9724 38101 79358
34002 38101 78402
29258 38101 78184
11640 38101 80198
6695 38101 78567
8294 33971 11049
41826 5483 70923
42408 6566 70985
6840 5660 70227
21124 30012 66277
0 37140 79957
2009 8138 11072
5054 241 11193
7055 6204 70231
40921 2468 11553
27038 38101 41203
26574 38101 41257
16998 38101 42501
20278 38101 42215
28902 38101 41274
30547 38101 42198
35363 38101 41074
16170 38101 41848
31615 38093 692
700 38091 46256
3272 38101 5016
1376 38101 2500
2130 38101 10491
2727 38101 6226
3130 38101 9745
2578 38101 4399
3922 38101 28634
3988 38101 22611
3997 38101 7592
3054 38101 8253
2651 38101 21987
20617 30077 70560
16549 16354 70226
5390 4406 11444
21206 37911 81743
35272 888 70466
20885 20404 38784
20422 24378 59895
42431 37155 72698
37127 36994 70216
28682 37990 81634
34124 34476 71036
0 37293 16650
0 37269 62753
28360 29267 11339
16923 13384 11691
23436 20306 11495
39918 1818 11882
26574 37965 81676
34720 658 11918
21273 24931 60966
20425 25984 20388
42317 37673 58268
27262 24872 11026
21359 20705 10449
59 37555 33918
21279 19705 51856
20956 21354 36328
37736 8784 70247
45 37517 50448
18491 30070 11394
6607 7626 11924
22751 20111 70688
25428 14356 11134
10443 38101 80768
23196 38101 81115
35205 38101 79465
34548 38101 80629
39206 38101 80203
30160 38101 78825
38401 38101 81210
14966 38101 80159
6370 38101 81123
31148 38101 80084
9044 33806 70320
32047 38101 30372
11374 38101 38093
24170 38101 24526
33646 38101 27588
25785 38101 31201
31984 38101 17665
27054 38101 24345
32942 38101 13080
14612 38101 35792
23865 38101 34860
32797 38101 29405
7110 38101 37606
20963 38101 27964
34576 38101 27977
25066 38101 29271
32170 38101 38406
27152 38101 25077
36064 38101 16315
32611 38101 36317
22220 38101 35218
23170 38101 33259
19658 38101 23430
23788 38101 20583
33720 38101 18122
33322 38101 29783
21081 38101 23353
31068 38101 13976
38011 38101 37988
32747 38101 26543
29723 38101 30475
24092 38101 37313
18365 38101 38013
37050 38101 34847
35954 38101 29089
22969 38101 24678
31236 38101 37680
20580 38101 37436
28342 38101 29489
24238 38101 34509
31630 38101 36441
11530 38101 33280
33160 38101 37049
36736 38101 17081
30261 38101 21848
20419 38101 29366
23529 38101 38722
17027 38101 30416
20593 38101 35207
35212 38101 29748
8687 38101 35976
18492 38101 25449
33431 38101 14376
23800 38101 23341
20048 38101 26430
35746 38101 36823
37108 38101 30951
25610 38101 20608
17532 38101 32473
35279 38101 26646
30729 38101 33368
23390 38101 19476
33413 38101 34513
29454 38101 23384
37784 38101 9455
29287 38101 39316
35997 38101 13821
29929 38101 39194
22490 38101 37678
36679 38101 36187
22939 38101 20678
21103 38101 28896
15452 38101 38337
34933 38101 14306
36390 38101 22646
36249 38101 25964
20961 38101 33512
26433 38101 38793
32658 38101 13720
31845 38101 33969
15538 38101 27990
29383 38101 34366
37809 38101 35720
28734 38101 25428
29987 38101 24138
37323 38101 9669
14848 38101 37977
18377 38101 29518
32816 38101 33469
33860 38101 36497
32235 38101 25504
37307 38101 37225
38099 38101 24317
22408 38101 39205
35340 38101 16982
24258 38101 31512
27282 38101 32445
31200 38101 32733
23143 38101 35173
31559 38101 22087
19829 38101 38272
28090 38101 15827
27905 38101 34226
25994 38101 24295
25915 38101 30261
25702 38101 20140
31996 38101 27229
10279 32375 71096
42258 37763 50839
41692 6886 70518
21082 20442 66290
0 37294 29517
20513 22361 56803
42091 37934 6960
17090 20314 70670
20805 30164 13656
42418 37398 76959
20932 20341 50929
15341 24188 70279
15906 9823 70227
37569 36779 11711
20594 20645 35506
1886 2874 11868
20997 21568 33159
15990 8580 70802
361 37951 17109
21055 29980 15646
6452 5961 11376
21545 20161 16398
3078 9029 71109
27315 26089 11383
29518 3174 11507
29064 29566 70547
36791 7876 70216
16695 18365 70278
28149 26316 11734
42388 37513 70955
26940 29369 70775
41727 37398 12
21013 19747 38721
1028 5383 70925
5835 4662 71020
37765 8202 11329
15830 20780 70336
18842 38101 1156
22122 38101 1357
22576 38101 1891
3234 38101 954
12411 38101 980
40691 38101 796
4661 38101 2940
27246 38101 834
5020 38101 3229
24536 38101 1975
9053 38101 1007
16436 38101 933
23940 20448 11489
34389 435 11071
42430 37314 63590
21075 21275 45998
42431 37189 81276
29166 4235 11923
12030 2858 11889
26104 18737 70865
20860 20210 61306
16798 14107 71070
20695 20517 36876
37716 37849 237
14247 27111 11585
42062 7539 11837
412 37983 71217
21149 21274 46666
21473 20318 67225
20836 20076 24090
4023 38101 39869
42415 37409 17343
40741 8358 11833
2326 8141 70733
11706 29890 70775
29154 38093 81355
20575 23069 23970
14874 25652 11751
10662 1353 11725
36302 35919 11475
27604 6338 11224
10006 32375 70221
14003 29795 11339
3895 38101 38648
285 37891 15462
27223 8177 71100
21075 20410 42723
379 37965 58927
14516 7198 70523
3669 38101 49634
3470 38101 54146
2907 38101 36313
4045 38101 65285
2734 38101 38253
3190 38101 35646
2049 38101 18406
2971 38101 32332
42108 6776 70205
13264 38101 70486
35674 38101 62442
30944 38101 76972
25925 38101 74651
20902 38101 71083
25627 38101 71882
25033 38101 56689
27075 38101 54839
38214 38101 60693
6989 38101 77478
31492 38101 57769
29803 38101 54115
31450 38101 67866
32360 38101 77844
29728 38101 72775
23873 38101 65243
20425 38101 75788
35883 38101 72958
33914 38101 51513
7243 38101 77855
6057 38101 77674
21355 38101 72299
18442 38101 66495
31623 38101 57267
23574 38101 69934
14826 38101 69954
26671 38101 77964
34637 38101 66501
35447 38101 47943
33600 38101 67735
16731 38101 73132
25522 38101 56901
14533 38101 76257
20971 38101 70104
34117 38101 48646
20309 38101 67019
23931 38101 59109
11564 38101 72349
27203 38101 57845
37047 38101 69605
12549 38101 72302
15353 38101 66893
22025 38101 62214
34515 38101 53550
14255 38101 68599
19164 38101 63974
32514 38101 74280
22873 38101 61496
21241 38101 65853
24803 38101 69273
33607 38101 62806
12720 38101 73187
27154 38101 56225
19035 38101 63136
31967 38101 57643
15769 38101 77205
37789 38101 69224
23073 38101 73961
29956 38101 75822
26832 38101 66830
36215 38101 53013
28816 38101 70320
24910 38101 76497
30947 38101 71097
30679 38101 54678
34901 38101 56587
32093 38101 60248
15949 38101 66725
21098 38101 75065
12425 38101 77104
35270 38101 49871
37229 38101 63877
38065 38101 59024
34050 38101 55616
19080 38101 69816
32667 38101 54805
34004 38101 68106
24586 38101 62183
29260 38101 56512
37781 38101 65179
36834 38101 55637
25607 38101 70891
28250 38101 71801
19832 38101 78043
13240 38101 71204
25332 38101 75708
12966 38101 76196
31331 38101 72051
31398 38101 65026
35418 38101 61514
35438 38101 66348
24592 38101 67853
17425 38101 74455
34850 38101 71820
30603 38101 77392
25225 38101 59907
30399 38101 74408
14750 38101 67041
30740 38101 77931
38009 38101 56740
19839 38101 68954
30818 38101 53234
22313 38101 68460
21481 38101 67385
25925 38101 57121
6328 38101 77288
23998 38101 72137
38154 8410 11700
27152 7701 70245
20478 29515 69545
22045 38039 81539
37957 4698 11047
21551 20120 46779
28235 27926 70442
22114 38101 2019
15217 38101 2242
5675 38101 2130
4113 38101 2115
30758 38101 960
28917 38101 821
12816 38101 1502
20854 20530 47288
4151 38101 6103
9240 38101 14227
20216 38101 9537
9670 38101 12229
9134 38101 24076
12225 38101 10477
7019 38101 27417
8524 38101 19548
22209 38101 15920
16562 38101 4000
14486 38101 20699
28250 38101 6617
21593 38101 8052
18061 38101 12571
10625 38101 7787
13706 38101 22465
15213 38101 23783
14845 38101 7886
18737 38101 17608
5584 38101 26584
26968 38101 14250
6664 38101 29120
5903 38101 29162
24650 38101 17923
5186 38101 5792
13326 38101 9224
7367 38101 32101
32224 38101 6523
5840 38101 4197
13371 38101 5624
18674 38101 19615
8365 38101 8366
23235 38101 7266
28800 38101 9331
26572 38101 5753
9402 38101 6522
8373 38101 29872
14157 38101 18852
8707 38101 23793
18187 38101 12145
7687 38101 4617
5446 38101 18926
13971 38101 4064
12845 38101 20565
22745 38101 13877
7029 38101 19148
34612 38101 5093
5921 38101 34226
7685 38101 31621
12818 38101 12820
5025 38101 24414
13109 38101 6850
7376 38101 8797
17575 38101 14561
6867 38101 33461
27094 38101 8705
11893 38101 4513
16655 38101 9378
19076 38101 20743
18011 38101 4346
11743 38101 12190
12710 38101 14192
11279 38101 16146
19021 38101 16222
12071 38101 28990
6676 38101 21837
26640 38101 6287
13902 38101 20583
11190 38101 18614
8404 38101 10573
12931 38101 22003
14558 38101 22955
7329 38101 34795
29410 38101 8050
30037 38101 11857
36604 38101 4807
12078 38101 27188
20230 38101 18035
8630 38101 26334
27457 38101 14303
21480 38101 20789
19624 38101 9846
15754 38101 21312
10625 38101 15740
12159 38101 14974
11224 38101 6002
6081 38101 17532
15099 38101 20618
22524 38101 12903
16435 38101 6218
35405 38101 6987
16993 38101 15039
30402 38101 5885
21010 38101 9121
9850 38101 32654
30389 38101 4275
6489 38101 23310
12360 38101 8878
12998 38101 16150
32242 38101 7358
14914 38101 16315
4689 38101 14791
10483 38101 21128
8526 38101 17529
11248 38101 14988
12036 38101 13375
40095 9324 70610
20919 20322 26945
26 37454 4974
36918 317 11208
14478 25148 70322
41656 38098 77345
39222 6494 71071
15886 38096 720
5497 38101 78292
13728 38101 79890
21756 38101 79084
23912 38101 78955
10646 38101 78267
3155 38101 79113
17219 38101 78775
21226 24052 23497
2539 2432 70538
41821 5982 70788
20479 28496 64371
29614 4326 11340
35785 37900 81755
20695 29342 68566
1594 8252 70266
35879 564 11924
38459 8515 70883
26048 14324 70570
32559 32880 11772
10403 38101 66245
14519 38101 64007
9519 38101 57783
9316 38101 60304
4129 38101 46298
17626 38101 59925
24978 38101 53238
16146 38101 59113
4424 38101 73143
12967 38101 49264
16494 38101 64620
9532 38101 69937
17963 38101 55631
8001 38101 67466
9374 38101 57133
20026 38101 44299
14992 38101 46078
27315 38101 50258
14380 38101 49027
9704 38101 49754
7475 38101 65185
16744 38101 51712
9786 38101 56575
20341 38101 52027
6122 38101 48934
15078 38101 57069
30215 38101 44518
27956 38101 49225
10927 38101 57058
8793 38101 57196
7910 38101 62065
5708 38101 63815
26411 38101 48070
8573 38101 59679
33058 38101 46257
15267 38101 65110
14366 38101 57334
7022 38101 52550
24595 38101 50568
23662 38101 56132
11413 38101 44596
24231 38101 52172
5160 38101 46707
16517 38101 57237
12286 38101 60327
5673 38101 73045
36059 38101 44440
20520 38101 46957
32994 38101 44077
12669 38101 55596
11616 38101 55839
29302 38101 45631
23397 38101 50249
25493 38101 49698
8028 38101 54986
8857 38101 67174
9319 38101 48379
4516 38101 53676
4650 38101 45088
12105 38101 43008
4863 38101 50205
15930 38101 62229
28420 38101 48556
10122 38101 48353
15322 38101 42887
8993 38101 56373
11887 38101 46025
27272 38101 42748
5900 38101 55663
6287 38101 50276
12691 38101 53702
16727 38101 60262
14246 38101 49569
7802 38101 72541
13423 38101 52491
6767 38101 67910
5488 38101 69128
11090 38101 67235
12179 38101 69572
5821 38101 68306
5226 38101 45223
9579 38101 58975
9570 38101 71303
17069 38101 57589
22837 38101 56495
21045 38101 47767
16384 38101 56246
15494 38101 54865
13513 38101 61578
4888 38101 48288
18360 38101 48089
23866 38101 50514
15209 38101 48117
26101 38101 51288
12947 38101 48730
17434 38101 62955
12736 38101 45133
18333 38101 51262
13484 38101 55872
29791 38101 50668
14614 38101 45370
15725 38101 45649
22084 38101 58441
23474 38101 44880
26782 38101 46090
5936 38101 43310
8913 38101 64126
34569 34880 70266
27350 6785 70484
21195 21516 50526
622 38074 59943
30479 2708 70208
26410 11776 70762
40557 38101 56043
40687 38101 46932
40751 38101 33490
38811 38101 76229
39346 38101 58371
41178 38101 40312
38919 38101 73037
40033 38101 46969
40144 38101 71910
41232 38101 76288
40964 38101 47983
40065 38101 56821
39324 38101 71150
41444 38101 6014
39955 38101 65790
41387 38101 68622
40838 38101 80083
40565 38101 30222
40542 38101 68240
41102 38101 80574
40200 38101 54444
41279 38101 61572
40838 38101 79136
40381 38101 59413
4071 6308 70898
15594 29197 11339
20916 25871 21275
20523 20027 10858
35080 450 70217
42153 37883 34957
21147 20216 10139
27683 7701 70872
21242 21527 32119
463 38013 6970
26492 9399 70254
29734 29118 11337
30178 29858 11672
10691 31582 70222
9880 1675 11345
17351 29943 70547
5659 38038 501
14565 37345 3
15819 38101 41411
17260 38101 39912
11422 38101 40573
6761 38101 39586
23881 38101 40465
13513 38101 39561
17841 38101 39601
16120 38101 40870
18648 38101 41028
13129 38101 40862
16669 12872 11050
25790 12512 11041
2632 1358 11621
284 37889 55449
16722 29609 11339
7083 51 11775
18953 29608 70775
20855 20197 59819
827 37747 81887
19975 29580 70547
20543 28711 18153
5613 5263 11525
24597 37801 81849
21110 20449 19020
21304 21867 29079
42309 37688 12726
20502 26376 61920
26463 10426 71099
26862 38101 8085
12752 38101 25859
32191 38101 9280
23520 38101 6702
17441 38101 14999
16760 38101 22394
32784 38101 9169
9604 38101 14945
16040 38101 26990
32827 38101 7733
12211 38101 11157
4959 38101 11119
11585 38101 27580
15841 38101 7017
14332 38101 7597
35663 38101 5380
17780 38101 21229
19165 38101 17799
9564 38101 10317
12747 38101 21426
5726 38101 8302
37570 38101 4646
20287 38101 15385
16021 38101 23395
16817 38101 5544
19801 38101 4035
12838 38101 11567
9768 38101 5844
26250 38101 14983
12742 38101 23603
6112 38101 12357
4503 38101 32896
23743 38101 10763
27088 38101 11682
31805 38101 10552
12276 38101 26459
19604 38101 14128
13747 38101 16272
11106 38101 8571
35161 38101 5551
29172 38101 10616
12487 38101 4343
26449 38101 11139
11877 38101 20411
27374 38101 10223
6263 38101 18693
27626 38101 6165
13235 38101 26564
14117 38101 19545
20627 38101 7690
26829 38101 10490
7934 38101 11968
15359 38101 14533
7679 38101 7821
6488 38101 7769
20530 38101 17148
31180 38101 11236
10067 38101 30403
26101 38101 5039
20029 38101 5282
5808 38101 15498
24792 38101 12192
11593 38101 26207
34616 38101 6949
20280 38101 18482
20725 38101 10637
22774 38101 7816
29285 38101 9060
26110 38101 10244
21448 38101 8674
21443 38101 16646
15038 38101 25181
23340 38101 13359
15822 38101 15905
9790 38101 13225
21916 38101 6263
21396 38101 19286
17020 38101 9729
24420 38101 11301
4226 38101 10710
7118 38101 17049
24401 38101 17053
7638 38101 22725
9676 38101 20762
19088 38101 17108
9628 38101 25495
8984 38101 28540
19900 38101 16069
20190 38101 5770
19697 38101 18762
5230 38101 14088
24762 38101 15060
8314 38101 14060
24727 38101 9589
8083 38101 4823
16166 38101 14269
25884 21288 70947
21355 19736 24675
27511 26065 70262
16367 12198 11915
6425 8018 11028
37351 4163 11526
26162 22673 11242
7631 37969 373
32554 772 70575
704 4926 70212
692 38089 65539
25957 16569 11680
20428 29582 12018
21290 20447 63288
21290 21063 44819
6203 37114 56753
35596 37114 69147
6763 37114 36631
30694 37114 72838
15658 37114 44436
13400 37114 56789
9087 37114 73415
25838 37114 63978
1329 37114 76076
4451 37114 19766
1324 37114 66670
29094 37114 81024
19402 37114 65942
16040 37114 78381
21803 37114 56395
19773 37114 48858
15382 37114 45556
5591 37114 25355
1494 37114 63419
4107 37114 66470
22437 37114 59157
4173 37114 48059
28816 37114 74086
36998 37114 74124
28043 37114 56856
34751 37114 80921
9219 37114 65876
36630 37114 80081
1030 37114 39995
20040 37114 69340
12440 37114 60393
27099 37114 59269
24577 37114 56658
28671 37114 81994
5032 37114 72741
9967 37114 34540
10841 37114 29832
40034 37114 81957
7393 37114 21115
5967 37114 69018
15898 37114 73469
24098 37114 57732
35399 37114 74632
18836 37114 44389
4333 37114 51380
16684 37114 61088
20088 37114 53989
23954 37114 62158
17236 37114 48744
8504 37114 59218
7429 37114 19616
1664 37114 24393
15632 37114 70409
26130 37114 59710
22677 37114 75025
23642 37114 59279
31100 37114 75484
14830 37114 40946
22151 37114 62552
7181 37114 68460
34789 37114 78250
34374 37114 76659
36766 37114 79297
8081 37114 81992
31052 37114 69337
1147 37114 49947
6549 37114 52668
15518 37114 64535
21779 37114 51942
7087 37114 34183
22122 37114 81556
12338 37114 81633
3608 37114 33934
23117 37114 79867
8988 37114 76002
7242 37114 80512
11328 37114 49131
2845 37114 33919
894 37114 79971
16004 37114 63462
13031 37114 38519
29134 37114 64548
6119 37114 80434
24417 37114 49072
23457 37114 76920
2558 37114 48422
33963 37114 80886
38253 37114 79067
12043 37114 27787
12489 37114 75359
38388 37114 78250
10439 37114 51597
15642 37114 76345
18531 37114 57368
1211 37114 72987
2561 37114 65406
271 37114 24713
161 37114 43125
41087 37114 80923
8609 37114 66907
25030 37114 55990
3793 37114 37890
34031 37114 81946
8032 37114 67153
16852 37114 58471
31212 37114 74866
10342 37114 75947
506 37114 61583
10718 37114 27718
3071 37114 30406
1722 37114 33095
11234 37114 39645
9005 37114 36228
14521 37114 74876
5015 37114 34520
23060 37114 49237
9098 37114 57020
19556 37114 55927
8628 37114 40604
19005 37114 48922
541 37114 77586
8608 37114 29660
11446 37114 41959
33258 37114 72553
13644 37114 34637
58 37114 31188
32722 37114 79447
5043 37114 32498
17617 37114 68893
10269 37114 20206
17572 37114 79630
14610 37114 58340
3827 37114 40803
101 37114 51147
38297 37114 75862
29382 37114 73685
8255 37114 52962
18858 37114 62772
23409 37114 76243
20265 37114 56767
7445 37114 74637
18189 37114 57072
19367 37114 66419
956 37114 35864
23970 37114 72353
22408 37114 65693
386 37114 22947
36115 37114 75236
4100 37114 81487
23733 37114 47776
3053 37114 15181
19037 37114 45984
2474 37114 66164
10915 37114 60352
18906 37114 69942
15215 37114 77694
211 37114 42627
8353 37114 27255
10235 37114 56461
16532 37114 33275
9514 37114 33424
36345 37114 73635
11943 37114 33055
22756 37114 81326
1050 37114 69544
15927 37114 43971
36181 37114 72162
192 37114 49506
15094 37114 37578
16285 37114 75050
26836 37114 67325
34195 37114 67908
20311 37114 55815
14745 37114 61005
15186 37114 51903
19067 37114 68264
8044 37114 45545
10596 37114 31583
13622 37114 75954
16497 37114 58895
93 37114 35265
7905 37114 34061
30037 37114 60650
38283 37114 76485
13492 37114 63254
16470 37114 49204
1319 37114 11217
5102 37114 12044
19835 37114 74218
18211 37114 67977
1526 37114 48641
20458 37114 81439
19644 37114 76933
26463 37114 51895
21433 37114 80027
6982 37114 49848
7365 37114 50916
11937 37114 31532
22853 37114 63775
945 37114 11672
4921 37114 29130
27779 37114 58013
1219 37114 3438
7762 37114 36140
3357 37114 53217
904 37114 11065
32664 37114 72790
8502 37114 64276
13548 37114 62610
14353 37114 61282
34941 37114 68137
14094 37114 51119
8885 37114 35631
8728 37114 67775
25354 37114 58004
23844 37114 74136
4113 37114 75603
19309 37114 64883
23011 37114 53401
20752 37114 74517
5062 37114 15147
29221 37114 78980
24356 37114 72733
20457 37114 49767
1439 37114 7274
18041 37114 42965
1105 37114 8308
11576 37114 25389
379 37114 33075
13078 37114 36071
14920 37114 48529
905 37114 24091
7848 37114 29954
33038 37114 76513
12898 37114 55121
16127 37114 68369
24194 37114 80078
15144 37114 60749
4218 37114 21374
7889 37114 52442
24334 37114 77562
11010 37114 29049
34616 37114 75476
8177 37114 79200
5757 37114 34174
6867 37114 47716
1195 37114 58178
15795 37114 43191
21155 37114 64428
36749 37114 73338
6586 37114 41620
26437 37114 53076
14112 37114 53332
19156 37114 72436
13118 37114 72520
30403 37114 70478
18943 37114 41133
9871 37114 71030
10981 37114 76962
923 37114 37375
24391 37114 79630
3076 37114 21710
14157 37114 67697
18605 37114 42629
28756 37114 69183
3201 37114 24387
82 37114 79537
25474 37114 50888
34726 37114 77654
6337 37114 18263
16994 37114 72499
11675 37114 39992
721 37114 47394
22463 37114 72934
10808 37114 66477
719 37114 32392
1910 37114 46715
8905 37114 64088
25786 37114 56414
18535 37114 74459
25455 37114 49537
6486 37114 24105
437 37114 14007
4839 37114 74854
3627 37114 18653
4813 37114 53116
9366 37114 41746
35216 37114 70423
26965 37114 81062
7982 37114 58080
3878 37114 29196
11668 37114 73509
4969 37114 20783
17716 37114 74090
13397 37114 81386
9340 37114 64604
29515 37114 79864
41675 38097 34332
40249 38101 55102
41513 38101 25234
39577 38101 76359
40923 38101 34352
40959 38101 55063
41001 38101 32632
40069 38101 39427
40979 38101 75608
41604 38101 45293
40067 38101 60761
40458 38101 47475
39217 38101 78784
39288 38101 60075
41275 38101 69385
40117 38101 41699
41603 38101 35064
39494 38101 55026
41356 38101 29712
40269 38101 63770
40703 38101 72933
21439 19797 28603
9458 38101 33952
21026 38101 31097
28799 38101 37657
23762 38101 25597
30517 38101 28784
32492 38101 31335
31968 38101 35134
37595 38101 21344
32792 38101 30276
24877 38101 33887
31722 38101 19535
30820 38101 29521
17592 38101 28519
20777 38101 32210
26035 38101 36715
30303 38101 25886
27334 38101 35013
31427 38101 29789
27872 38101 19429
32420 38101 15595
38264 38101 31139
23513 38101 22381
33061 38101 23956
16693 38101 37185
13451 38101 35270
32138 38101 11311
18255 38101 25807
11824 38101 37507
14858 38101 35317
36141 38101 27671
8891 38101 34678
27399 38101 28246
24085 38101 26265
11226 38101 38589
21483 38101 29821
34266 38101 15898
32484 38101 14469
20175 38101 23778
26497 38101 29939
19905 38101 34578
15005 38101 28160
26507 38101 37961
36312 38101 35555
34448 38101 17794
21804 38101 28261
31005 38101 36262
37667 38101 38636
21198 38101 37565
15855 38101 32872
35760 38101 9881
23699 38101 28943
15125 38101 30193
14528 38101 31597
19467 38101 25305
37680 38101 14948
16936 38101 31467
14170 38101 31929
34988 38101 24960
15277 38101 33146
28436 38101 36267
36324 38101 11555
35012 38101 29204
19981 38101 26984
25246 38101 24506
29571 38101 13072
28434 38101 30219
28258 38101 25261
10579 38101 35941
11681 38101 35586
34413 38101 10414
31068 38101 22908
33985 38101 35131
16050 38101 35531
9223 38101 35495
31654 38101 14014
37132 38101 19776
26751 38101 20241
23866 38101 37811
15557 38101 34961
37476 38101 27109
35991 38101 26399
20472 38101 24964
37253 38101 15054
33141 38101 27069
34366 38101 24891
33540 38101 20675
26895 38101 23518
37607 38101 26299
14449 38101 32728
7272 38101 38995
27372 38101 38520
36642 38101 15993
35752 38101 19307
37190 38101 22228
26419 23410 70937
973 4981 11112
799 38100 73600
21228 28000 18036
21526 19932 42440
26878 37114 29142
4726 37114 2985
25316 37114 14231
13873 37114 525
39720 37114 14603
38097 37114 69088
35848 37114 50989
14239 37114 4158
27992 37114 32969
34506 37114 36823
11808 37114 7784
37603 37114 55317
42116 37114 75853
29115 37114 5027
14039 37114 5122
24041 37114 43924
35985 37114 9108
31788 37114 32139
21794 37114 1819
28566 37114 31821
29087 37114 21416
2151 37114 1826
31719 37114 15515
29330 37114 4012
30305 37114 34192
28012 37114 54079
36742 37114 70036
40563 37114 70836
35208 37114 55277
40887 37114 12481
30091 37114 47888
18537 37114 34987
37671 37114 53141
29274 37114 18424
24744 37114 1225
40303 37114 34388
41902 37114 7434
25769 37114 2675
8322 37114 4008
19342 37114 7463
37748 37114 43067
29562 37114 36025
14943 37114 5733
34254 37114 2371
16485 37114 20948
36378 37114 63921
42306 37114 28315
22777 37114 20071
27896 37114 53244
38691 37114 47161
14937 37114 793
28333 37114 52734
19138 37114 30
41977 37114 31723
25490 37114 36277
24183 37114 3034
30403 37114 3257
34749 37114 65233
33609 37114 48636
21953 37114 35635
14814 37114 27681
29824 37114 26037
13526 37114 9086
30945 37114 40809
36349 37114 35089
37967 37114 20048
30821 37114 33266
39769 37114 2074
17473 37114 7098
12545 37114 3976
27747 37114 21925
9413 37114 15623
33258 37114 24019
23829 37114 24551
17204 37114 18564
40850 37114 42730
34538 37114 27927
32894 37114 9872
36894 37114 25473
23118 37114 27915
32260 37114 40166
39947 37114 32519
27671 37114 31166
21304 37114 29011
34538 37114 39036
34805 37114 29058
34378 37114 19796
32109 37114 23744
37528 37114 14330
35387 37114 29903
35611 37114 63748
36512 37114 57439
22279 37114 9879
37312 37114 70667
8503 37114 5860
35712 37114 43579
20063 37114 24539
34078 37114 57367
32200 37114 45488
37225 37114 19364
26284 37114 38243
20204 37114 3501
25637 37114 5858
17099 37114 3231
24762 37114 39380
24205 37114 17947
40406 37114 1577
7260 37114 4882
41524 37114 822
36833 37114 1416
40298 37114 58989
40901 37114 13690
35250 37114 29306
21332 37114 24657
32265 37114 21432
19081 37114 22666
33581 37114 49340
36388 37114 20232
40560 37114 7630
33954 37114 50486
22298 37114 8792
35134 37114 24238
40770 37114 72854
25463 37114 29750
37430 37114 30615
33062 37114 7134
26543 37114 13391
9346 37114 13988
5951 37114 10579
30262 37114 45144
42396 37114 51451
30228 37114 41044
36314 37114 1683
10948 37114 19328
28245 37114 21769
22837 37114 27067
37537 37114 60962
30817 37114 10174
21136 37114 14115
39628 37114 72613
21792 37114 35092
25840 37114 12411
37846 37114 70373
20743 37114 4086
25876 37114 16252
8811 37114 2443
35713 37114 35633
33971 37114 13565
40557 37114 36856
32413 37114 34333
21465 37114 30771
19554 37114 31061
34708 37114 20692
41143 37114 32553
33468 37114 25863
21759 37114 26165
28885 37114 19193
41736 37114 77809
41818 37114 35385
39154 37114 15237
12195 37114 6071
19734 37114 4467
23350 37114 18451
42213 37114 16976
37636 37114 41083
13828 37114 24367
21854 37114 6364
30109 37114 44738
34537 37114 41989
20935 37114 19819
39131 37114 58923
40590 37114 47297
40006 37114 68539
39236 37114 8394
33896 37114 46554
39641 37114 28424
20601 37114 11037
34100 37114 40152
11680 37114 11956
37908 37114 46448
22938 37114 19566
31401 37114 46881
11200 37114 21202
39805 37114 31036
38927 37114 1410
33793 37114 33730
32215 37114 14021
33305 37114 38255
37838 37114 1052
37941 37114 8024
12375 37114 10969
28580 37114 33447
30607 37114 56906
39267 37114 75360
37782 37114 56003
21782 37114 41987
39065 37114 61313
33315 37114 37059
20951 37114 38270
31615 37114 16073
41861 37114 41408
20116 37114 16211
35718 37114 26815
22801 37114 23289
39454 37114 50811
20441 37114 13953
12976 37114 424
16113 37114 16439
16116 37114 7618
24304 37114 7997
31802 37114 43617
38336 37114 13113
15657 37114 1023
26370 37114 39125
32664 37114 35857
14521 37114 11447
28715 37114 7573
39657 37114 21255
10795 37114 11109
39325 37114 711
32863 37114 13861
22004 37114 25006
14743 37114 14398
23882 37114 30421
38798 37114 68643
37837 37114 51024
20683 37114 2120
29857 37114 18640
26384 37114 5199
21409 37114 23761
23713 37114 3695
36913 37114 69115
27340 37114 8598
13674 37114 3304
29539 37114 40634
39721 37114 39350
42371 37114 27330
27982 37114 36130
40498 37114 67167
31095 37114 18856
30671 37114 31447
42304 37114 201
29263 37114 16633
25980 37114 1245
36675 37114 31805
40680 37114 9719
4043 37114 3242
24987 37114 15526
34360 37114 494
21424 37114 13535
19513 37114 16640
39737 37114 73782
37298 37114 50356
27668 37114 49155
36696 37114 21483
20740 37114 27063
27266 37114 32736
9306 37114 1353
18033 37114 226
26849 37114 38299
40735 37114 301
37564 37114 51995
30097 37114 2127
11476 37114 2371
37295 37114 55879
37327 37114 47824
17689 37114 13251
32748 37114 36748
29682 37114 21375
22379 37114 38167
35483 37114 1330
25599 37114 6441
21589 37114 3606
38565 37114 52844
34977 37114 1400
40714 37114 25426
27354 37114 13008
41779 37114 25086
36310 37114 45608
38362 37114 61104
30832 37114 36467
41730 37114 55871
28114 37114 24397
41501 37114 27109
29315 37114 27225
17644 37114 30137
41139 37114 34816
24410 37114 9743
16840 37114 13877
26250 37114 46469
38280 37114 18286
41194 37114 30929
18177 37114 21465
40438 37114 48936
22136 37114 28053
38998 37114 22410
36843 37114 29469
31673 37114 20133
16737 37114 18696
16119 9104 11169
29669 3703 70213
6260 5653 70505
786 38099 34936
21104 19706 19534
21471 20321 63732
21527 20222 44288
40493 2030 70728
15240 29399 11567
1411 7325 11857
41808 38074 15693
20951 20358 30632
34195 300 70899
20455 21515 31122
20222 29675 11042
38619 4941 70216
42431 37169 54589
31542 2214 11262
21356 23914 23113
40374 37419 82026
41869 38055 859
39173 1481 70208
33273 1050 70232
7815 311 71089
42351 37609 24960
20432 29846 68492
190 37787 63692
41164 7940 11772
12329 30057 70999
38467 38101 38626
21549 20018 31670
6575 38101 66104
13990 38101 64523
16937 38101 55695
7966 38101 69150
33976 38101 47015
21477 38101 48238
15559 38101 50827
22268 38101 52032
7742 38101 59186
11297 38101 62225
22048 38101 48033
19869 38101 59432
31655 38101 43982
12447 38101 63023
14984 38101 51995
18985 38101 58962
5323 38101 53540
4757 38101 46161
13713 38101 65610
5367 38101 74230
6336 38101 69792
18181 38101 46416
10180 38101 44996
4976 38101 47387
6881 38101 53091
12103 38101 68482
24609 38101 44270
5615 38101 50754
23288 38101 47287
7492 38101 66395
26516 38101 47220
9647 38101 45232
34093 38101 44584
16172 38101 57829
15556 38101 64760
18459 38101 46899
23182 38101 57343
9973 38101 64093
14654 38101 61116
9682 38101 66800
8389 38101 62553
17139 38101 46957
18445 38101 62162
7323 38101 46703
28780 38101 47333
4155 38101 55529
9450 38101 43764
33213 38101 43507
4821 38101 48764
18607 38101 50626
15494 38101 52530
7329 38101 73064
24785 38101 56272
6058 38101 64514
14081 38101 44579
4404 38101 54224
16023 38101 52937
17901 38101 61651
35100 38101 43621
18951 38101 48361
4876 38101 55259
6797 38101 48969
13576 38101 57506
21955 38101 50335
7649 38101 49108
12566 38101 43637
35408 38101 43976
16414 38101 47328
16367 38101 61653
17311 38101 52812
16872 38101 54788
18059 38101 52617
11028 38101 61275
18828 38101 55735
23644 38101 57481
8765 38101 63313
26712 38101 50555
5978 38101 73658
7817 38101 60393
24441 38101 46033
10556 38101 63984
8384 38101 58159
8188 38101 50279
27452 38101 48539
12504 38101 50896
4180 38101 48959
13435 38101 45407
15833 38101 48527
8491 38101 68557
5969 38101 44672
9004 38101 44144
12342 3396 11929
29156 29351 11821
15971 11381 70539
13921 26074 70623
39305 5749 11884
21217 19694 28998
17956 38098 81297
4675 1046 11722
40693 2470 70283
10135 37596 81971
18492 37114 5679
14943 37114 12699
33671 37114 8364
41195 37114 70869
22210 37114 11899
42340 37114 74031
28738 37114 6523
23211 37114 25933
34412 37114 17143
27040 37114 16952
28149 37114 13409
23291 37114 5760
23146 37114 14623
25238 37114 5033
10401 37114 19385
37594 37114 38501
33297 37114 15406
37330 37114 51607
23744 37114 10809
17915 37114 24015
41808 37114 72097
39526 37114 47017
28446 37114 26861
28354 37114 10815
23635 37114 26715
41372 37114 73301
3086 37114 1958
30523 37114 55157
23740 37114 13124
27168 37114 19428
9254 37114 182
41760 37114 59909
20311 37114 16876
38406 37114 38532
14453 37114 7956
33651 37114 30976
19118 37114 20274
26963 37114 40827
6541 37114 6188
18908 37114 2942
35490 37114 9293
25403 37114 9152
22501 37114 31294
34383 37114 54284
17235 37114 27673
17476 37114 24428
26538 37114 29541
39866 37114 76409
30118 37114 4278
29374 37114 42210
23250 37114 29276
26090 37114 47791
22545 37114 42476
35394 37114 30737
36229 37114 2393
40244 37114 77625
38707 37114 55770
26976 37114 7768
10053 37114 4209
22836 37114 4867
40717 37114 29170
15718 37114 13154
33857 37114 34185
4661 37114 4032
40845 37114 26815
40197 37114 70412
27535 37114 18210
20044 37114 7505
24830 37114 6974
18775 37114 29962
26658 37114 31138
29079 37114 36598
24044 37114 33856
34119 37114 31660
40160 37114 50171
36497 37114 51592
36152 37114 22416
35923 37114 25022
33657 37114 30194
24565 37114 27849
37177 37114 43874
30405 37114 6499
28145 37114 43010
16919 37114 9758
41385 37114 38293
39714 37114 58348
36488 37114 23604
42304 37114 49635
37527 37114 23351
41067 37114 47783
20629 37114 33051
16109 37114 20051
40210 37114 1178
25157 37114 45985
32140 37114 18492
39793 37114 13175
33764 37114 51008
39045 37114 39930
36371 37114 12782
9736 37114 3486
17449 37114 5550
33332 37114 47039
34325 37114 65072
36232 37114 39237
19219 37114 33725
18778 37114 23800
41674 37114 47892
30967 37114 7383
35277 37114 19775
3625 37114 1832
38872 37114 9613
40915 37114 58979
33086 37114 45557
31788 37114 56870
26350 37114 33864
25271 37114 41583
15367 37114 11237
24662 37114 25716
39841 37114 33927
14151 37114 22291
15378 37114 24479
41967 37114 22257
39229 37114 49291
11077 37114 1822
41032 37114 64668
30337 37114 46119
33203 37114 55993
36179 37114 10682
19061 37114 18380
26238 37114 1945
17094 37114 28640
41963 37114 48272
24833 37114 16262
13457 37114 22514
42030 37114 20158
42385 37114 2728
33638 37114 19852
34939 37114 64499
23160 37114 16715
23959 37114 18840
41028 37114 22354
14146 37114 7399
30580 37114 27548
39166 37114 33869
26230 37114 2907
37256 37114 3617
38341 37114 5133
39949 37114 18409
38445 37114 22171
23740 37114 9133
26526 37114 45372
35509 37114 32302
38376 37114 20295
15968 37114 3473
8744 37114 2876
16197 37114 14496
28355 37114 34999
41586 37114 51869
24132 37114 21257
34533 37114 35966
36522 37114 11945
22278 37114 32596
34917 37114 495
27170 37114 51670
20119 37114 35875
35462 37114 45455
7734 37114 6976
21749 37114 13002
38386 37114 30076
7577 37114 5490
26150 37114 36367
20437 37114 2963
41750 37114 46293
26502 37114 44111
1614 37114 1096
31823 37114 42374
25035 37114 18279
12742 37114 38
25587 37114 292
12782 37114 14465
33707 37114 36675
12014 37114 5669
37789 37114 57945
37477 37114 47036
29213 37114 52937
40361 37114 54070
41063 37114 26287
26500 37114 35841
22829 37114 768
37665 37114 20652
22391 37114 30617
27853 37114 45779
19057 37114 14395
30634 37114 52059
41964 37114 10066
31026 37114 14876
25314 37114 42676
26315 37114 21991
20684 37114 29486
19229 37114 34810
32491 37114 51289
42066 37114 45266
13673 37114 20181
34437 37114 61873
29283 37114 44021
31248 37114 21161
13935 37114 18353
30405 37114 21497
39141 37114 65345
31545 37114 50376
24183 37114 29325
29890 37114 7647
40698 37114 21546
29026 37114 47452
8671 37114 5331
6943 37114 11611
30747 37114 44584
23686 37114 21250
35902 37114 32006
33864 37114 61981
39148 37114 24196
19008 37114 30496
6414 37114 2178
32399 37114 15712
7594 37114 10611
26918 37114 9611
22245 37114 26279
26299 37114 30636
40311 37114 17697
26424 37114 40183
15246 37114 3955
33063 37114 20263
16027 37114 19508
20277 37114 8601
30069 37114 44075
9258 37114 9026
38631 37114 35161
40591 37114 3365
33450 37114 36244
30808 37114 24453
21506 37114 27543
27591 37114 12007
9604 37114 2622
30112 37114 33734
35091 37114 44954
17922 37114 4198
14545 37114 13797
29403 37114 1274
36121 37114 30815
34021 37114 16864
22421 37114 20621
41590 37114 56571
28816 37114 52434
5089 37114 4221
16764 37114 17976
42233 37114 79132
34551 37114 31702
34075 37114 7234
38800 37114 46176
10425 37114 3614
22733 37114 26175
23159 37114 42931
25482 37114 22780
33300 37114 14468
32308 37114 29936
40590 37114 4389
32635 37114 54584
25203 37114 4123
15936 37114 6890
28271 37114 28455
38045 37114 52364
35574 37114 53938
20478 37114 25143
14087 37114 20417
9530 852 11889
35494 37114 77084
20766 37114 41708
18315 37114 38210
9216 37114 80539
19103 37114 71741
13849 37114 62920
12232 37114 42702
18744 37114 48366
18414 37114 54094
12655 37114 34150
1859 37114 69563
12311 37114 68724
2885 37114 67953
3852 37114 28111
21969 37114 65402
6580 37114 75241
9827 37114 79568
13845 37114 65174
15732 37114 72847
1985 37114 65892
7753 37114 40962
3383 37114 61569
22212 37114 58652
11479 37114 36601
5572 37114 11337
29512 37114 75720
12131 37114 30751
25587 37114 55788
2938 37114 6153
3335 37114 77473
23009 37114 57663
8679 37114 18549
9536 37114 76244
10877 37114 30367
232 37114 25409
24397 37114 72172
4796 37114 10945
8394 37114 39561
13385 37114 42378
5557 37114 35528
15656 37114 41681
7188 37114 35662
3687 37114 16619
7159 37114 58787
3161 37114 58995
996 37114 15374
5775 37114 38848
16316 37114 74310
27964 37114 81142
5428 37114 59582
26878 37114 56271
7400 37114 32338
27922 37114 67475
16767 37114 38900
7891 37114 58785
10270 37114 51090
11704 37114 32353
13523 37114 27508
2417 37114 5325
14144 37114 40433
17257 37114 37852
31383 37114 72584
844 37114 49129
12475 37114 44459
873 37114 32908
41268 37114 80265
13513 37114 69950
1948 37114 10147
13637 37114 37118
12016 37114 53023
27226 37114 74380
2709 37114 81655
25811 37114 49956
29631 37114 74883
269 37114 54331
27526 37114 55594
23044 37114 67335
7704 37114 53178
12395 37114 65372
9749 37114 51673
16828 37114 47363
22036 37114 46499
21188 37114 43523
1934 37114 11270
17534 37114 36658
17863 37114 51286
27768 37114 73578
3157 37114 57430
15992 37114 34230
27549 37114 53537
29997 37114 73618
10286 37114 35732
8658 37114 53547
2507 37114 10758
5679 37114 71894
15945 37114 77064
2493 37114 27291
20279 37114 42170
4023 37114 71368
7987 37114 78649
11454 37114 71209
37703 37114 76343
2174 37114 36246
6494 37114 79411
26469 37114 59351
4491 37114 10273
401 37114 18154
19831 37114 62677
8652 37114 72633
8991 37114 70854
23562 37114 75638
23969 37114 66282
18464 37114 70284
31327 37114 76609
29767 37114 61654
25162 37114 67749
13358 37114 54288
17393 37114 62550
13620 37114 57351
988 37114 44622
14341 37114 68324
19836 37114 63610
30100 37114 59802
8889 37114 55014
32751 37114 63599
5217 37114 77103
5441 37114 30509
20949 37114 78571
6562 37114 38255
825 37114 33570
10657 37114 50205
41182 37114 81720
1701 37114 54835
13599 37114 30016
21078 37114 81377
18145 37114 75773
6782 37114 45573
32 37114 48261
10839 37114 51900
21835 37114 71463
6483 37114 68682
7781 37114 45118
21657 37114 75344
11665 37114 35571
18090 37114 48940
24174 37114 68040
28294 37114 81720
22337 37114 50236
13954 37114 52754
5834 37114 30675
8956 37114 39953
31789 37114 71249
11616 37114 53762
3417 37114 59801
22622 37114 57027
14019 37114 36617
13450 37114 33597
26025 37114 75021
4459 37114 9099
31025 37114 72015
1241 37114 39296
9715 37114 74233
14843 37114 65184
549 37114 73485
27043 37114 76066
30686 37114 62151
16097 37114 70880
445 37114 30409
18061 37114 46554
2076 37114 78556
12205 37114 51776
1390 37114 2763
20723 37114 49353
316 37114 66956
19558 37114 39136
23927 37114 58754
268 37114 3769
16892 37114 36187
2759 37114 22055
21090 37114 51731
12410 37114 78356
12655 37114 50021
27702 37114 78092
17097 37114 74758
11655 37114 62656
19420 37114 52672
28194 37114 72118
1078 37114 6523
4882 37114 15894
11405 37114 42563
17507 37114 41489
11207 37114 38003
25847 37114 71515
559 37114 39545
10136 37114 74749
31052 37114 64218
11471 37114 63368
16938 37114 65317
29299 37114 63737
3627 37114 74592
8519 37114 80356
22859 37114 54198
7025 37114 15050
2421 37114 24345
10682 37114 64858
5374 37114 31567
358 37114 39085
26803 37114 55287
2566 37114 34901
11271 37114 59722
10310 37114 22834
2184 37114 43563
4968 37114 56633
3790 37114 80317
977 37114 17519
932 37114 7105
16133 37114 72652
14593 37114 58903
13589 37114 73308
7318 37114 41239
12785 37114 77073
2879 37114 49999
13999 37114 76867
1149 37114 50451
6520 37114 53431
5738 37114 48962
8338 37114 76364
8825 37114 31974
2606 37114 14375
5058 37114 78241
153 37114 6562
10904 37114 81233
644 37114 41312
29754 37114 68385
5546 37114 26127
11434 37114 74327
1614 37114 48210
2704 37114 9673
18528 37114 66499
29982 37114 76228
16309 37114 55685
10958 37114 37261
16626 37114 66703
37720 37114 79113
14371 37114 28380
1200 37114 26865
25423 37114 66495
10481 37114 77995
11556 37114 41452
23408 37114 80995
13173 37114 50716
15781 37114 33594
11578 37114 42989
16663 37114 74825
21201 37114 76050
9471 37114 32890
6533 37114 32716
9846 37114 35086
36613 37114 77359
11368 37114 68819
8862 37114 24704
12638 37114 46613
8739 37114 26178
885 37114 48644
6009 37114 16814
5018 37114 58220
12105 37717 135
20935 27444 18451
21121 28365 65153
10816 38091 81367
30825 38019 457
42244 37783 64245
499 38030 25390
25486 30165 70547
20693 21250 45390
42431 37245 3367
20511 21523 31947
3573 5335 11489
4630 5272 70428
20652 26389 19577
37049 4998 11209
21200 20461 53108
31459 1560 70298
647 6566 11108
20856 29299 66843
3808 37130 11022
21083 19714 60094
42218 37815 22103
21537 19962 34827
36311 6988 11802
11060 2508 11172
20889 23298 25288
19059 38101 2728
20706 38101 2683
38820 38101 3456
19320 38101 3431
39234 38101 1127
37254 38101 2475
37635 38101 3712
6927 38101 3875
33015 38101 3125
32071 38101 3776
52 37536 72677
38840 5930 11231
42124 37908 53981
21349 19733 50722
20424 25779 61500
42394 37496 7051
20708 27932 63468
8664 34343 11537
3899 38101 32636
2995 38101 16135
3034 38101 14117
4022 38101 29311
3757 38101 30328
3965 38101 5055
3532 38101 24194
3650 38101 21209
3411 1420 11907
16056 19291 70431
26238 19482 70775
6334 4783 70876
16033 21888 70258
36526 8248 70554
17567 19978 11558
41754 38086 16872
11120 30631 11429
42189 37845 71420
13527 30055 11339
25466 19847 11345
21377 38101 80617
41389 38101 81199
5543 38101 81033
37608 38101 80930
23714 38101 79411
26975 38101 80563
24045 38101 80261
18971 38101 80105
37428 38101 79457
32838 38101 78685
19617 29281 11567
16216 17893 11691
10109 31870 70450
12713 29439 11091
19468 20154 70723
533 38044 3129
41 37506 9650
21041 25506 20379
39258 5964 71099
41770 38083 54750
38887 6433 11879
12843 29536 70799
39136 38101 19516
38312 38101 9151
40291 38101 10521
40968 38101 7454
39735 38101 4117
39787 38101 15042
38645 38101 19150
39248 38101 27136
38851 38101 23567
38707 38101 12145
42260 37761 29457
20799 21308 28753
4040 6106 70379
21073 30177 10427
1087 5370 11363
23885 19790 11439
42030 37977 23527
13580 28344 11549
20424 20988 46633
10069 33007 70677
21204 23058 58287
25627 29670 11339
21179 30252 70582
30894 31728 71053
29523 29884 11567
42099 37927 42532
19800 30252 70644
18963 38050 81513
0 37117 4182
21316 20437 22236
1687 8610 70723
4596 1099 70472
3479 5879 11762
34673 34716 70692
28188 5974 11927
20629 22278 54995
8236 37862 81793
41702 38094 62463
3464 37408 70215
30547 30819 70217
21283 29939 12419
40269 37507 39
39393 6363 11772
42393 37500 56195
33088 33995 71089
20416 21058 48659
25304 16532 70410
4545 36646 70218
31173 2443 11767
1084 37178 0
35577 6282 11237
38971 5436 11033
20492 21030 42693
26094 10105 70478
6697 8037 70357
40477 2881 71030
35949 7491 11189
2 37331 53228
25339 14849 70928
13222 4786 11886
21547 19997 26622
155 37738 57393
2410 38101 51517
1971 38101 54907
1841 38101 76903
2078 38101 68263
1931 38101 66338
1437 38101 80468
952 38101 51967
1477 38101 69161
2922 38101 75066
1718 38101 41956
1677 38101 36922
1548 38101 64567
1778 38101 25635
1619 38101 21528
2455 38101 77296
968 38101 21963
2420 38101 61376
1781 38101 54480
1555 38101 23441
1089 38101 19539
2318 38101 48097
22294 37473 82014
26449 9907 11029
39801 8586 11343
23935 19933 70447
20597 29382 14364
16179 12609 11693
3549 38101 70071
3686 38101 74272
2326 38101 78872
2125 38101 57042
2349 38101 53138
3080 38101 59614
851 38101 28388
3380 38101 74965
2247 38101 52062
3785 38101 71342
960 38101 8900
994 38101 24752
1445 38101 57569
1548 38101 79938
2439 38101 68883
2662 38101 43889
2345 38101 41707
1122 38101 21234
1629 38101 57175
1904 38101 65654
1128 38101 63525
1082 38101 59969
2071 38101 37720
20429 29451 70775
21031 23629 59427
887 3323 11338
41878 37531 81995
15488 23693 70250
5894 35571 70355
9082 33313 11922
20967 28285 17487
41933 38030 63916
5136 8635 11108
27552 30007 70775
21142 19699 17314
40484 38101 14969
16411 14763 11809
42277 37737 41843
13891 30052 70547
25985 13947 11784
193 37791 67335
21093 20467 38281
39101 38101 27952
38432 38101 32375
38329 38101 36971
41237 38101 4395
40665 38101 3355
38470 38101 14698
38400 38101 14029
39023 38101 9264
39510 38101 17464
38678 38101 15395
36717 7451 70410
33771 34109 11821
26423 23256 70319
36410 5725 70622
21691 29398 11339
21335 29583 14521
427 4579 70645
21476 29779 11232
6087 38101 41350
29427 38101 39817
7306 38101 41885
14508 38101 41594
9065 38101 40984
26269 38101 40546
12029 38101 41153
36499 37851 238
31951 33121 70402
13757 4997 71077
8436 189 70668
38979 38101 55112
39465 38101 31346
39382 38101 43338
39973 38101 34030
40110 38101 20906
39384 38101 46230
39450 38101 29556
40292 38101 26267
38930 38101 43978
40686 38101 16328
21253 22776 24726
13863 26192 11429
22578 30005 70547
21297 29485 66580
6094 36129 11158
25552 14591 11911
15733 23616 70671
26755 10399 70742
8569 759 70225
16363 17487 70305
3041 1058 70699
11479 2827 11844
31849 2017 70478
16557 14735 11040
39718 2185 11118
13667 29301 70622
15307 37992 412
8598 238 11552
25428 13357 70830
42410 37434 1734
386 37969 2231
26868 23014 70319
20838 22754 55980
2975 1957 70931
20876 20256 46555
22996 37692 120
21349 21555 54221
30617 30402 11485
33799 33999 70465
41797 38076 47157
7403 0 70765
21135 29384 13709
41930 38031 10635
613 38072 42335
37607 887 11920
20626 25591 60791
103 37653 6863
36465 4826 11053
14163 25589 70573
6498 35876 11172
16239 19631 71099
20882 19890 41377
40634 2440 11078
414 37985 65011
12956 28433 11039
37322 37222 11884
10166 32872 11300
1489 37468 27
42054 37963 73559
18704 20361 11318
16925 17316 70404
1263 6791 11754
3967 38101 54048
3432 38101 55665
3183 38101 34666
3384 38101 57474
3271 38101 40594
3068 38101 44193
3581 38101 65299
3918 38101 42625
2817 38101 33006
21526 38101 64676
28817 38101 75674
35767 38101 57097
32611 38101 67924
29299 38101 60315
33290 38101 57273
8834 38101 77092
19706 38101 74001
13935 38101 71157
21127 38101 66600
19910 38101 68095
34086 38101 77309
20181 38101 70739
24813 38101 60588
22356 38101 59306
28678 38101 68628
30775 38101 68883
11616 38101 77885
32351 38101 64856
21797 38101 73002
32536 38101 58537
31517 38101 59563
17562 38101 67935
19967 38101 71888
36612 38101 59027
15736 38101 73047
33266 38101 69179
19969 38101 76118
18120 38101 69778
16718 38101 75176
20257 38101 73782
24743 38101 57856
8981 38101 74747
31213 38101 64637
36138 38101 57353
12135 38101 71089
27470 38101 59558
36553 38101 57806
14770 38101 70639
29983 38101 77859
36135 38101 71205
36964 38101 60564
35784 38101 55891
37436 38101 74012
17675 38101 72588
15356 38101 69159
28213 38101 77978
13589 38101 70178
26686 38101 62097
32261 38101 55736
29800 38101 69914
37582 38101 52964
20530 38101 67652
29889 38101 77367
37799 38101 61421
27463 38101 65702
23648 38101 64152
30529 38101 75846
33142 38101 63694
11911 38101 73770
37282 38101 65930
21440 38101 73887
18929 38101 76255
30960 38101 66659
29922 38101 63322
30090 38101 55457
27782 38101 70853
34280 38101 70112
35351 38101 64755
35257 38101 65339
30218 38101 73288
19331 38101 67797
36831 38101 45140
21444 38101 63055
33982 38101 49963
26852 38101 68464
14655 38101 72988
33251 38101 51861
18900 38101 70882
32386 38101 70249
31525 38101 59093
33650 38101 76003
34880 38101 64179
19383 38101 77052
27729 38101 74936
29803 38101 58064
24651 38101 74439
555 38052 55996
20996 21781 52233
9159 37763 166
21173 20461 43417
21351 29690 69608
8775 808 71099
21398 19761 58159
2657 37909 297
39212 9109 11034
27971 38101 2160
33176 38101 3772
35991 38101 2104
24141 38101 3416
38448 38101 1720
31116 38101 2499
33892 38101 3008
31528 38101 3700
25079 38101 3184
25918 16059 70917
40322 8989 11899
20708 20397 41903
8822 403 70971
38611 4697 71096
21017 21408 35206
41681 38096 3622
25631 20141 70657
315 37914 74189
20256 29160 11567
42303 37700 38748
15368 8187 70210
13625 26856 70381
21541 19973 57155
42041 4530 11857
36623 925 11733
15310 24646 11281
20416 20776 41432
812 38101 74933
11559 2333 71060
37514 37000 11044
20881 19892 24813
20592 24264 23216
27705 6000 70660
6693 5369 71078
28549 27499 71081
42400 37478 18759
21168 19696 33509
39124 38101 54612
39882 38101 38166
40277 38101 23905
38899 38101 61897
40387 38101 22328
38767 38101 51502
39423 38101 32175
21762 19946 11125
11600 3061 11180
1929 8259 11925
20849 19975 47826
27121 29332 11339
30121 29908 11150
25706 37213 82042
21522 20232 42022
20677 24466 60601
41999 37995 40182
