ply
format ascii 1.0
element vertex 2776
property float x
property float y
property float z
end_header
2284 38269 32190
49890 673 31649
49840 20853 31649
32210 22625 15912
21571 9992 33205
31862 21898 25840
39194 16516 31649
31862 15524 25173
43195 10380 33205
21389 21003 31649
513 38269 31298
33362 25279 56460
11746 21226 32006
31862 22202 49526
30290 17165 31849
37884 38269 32835
9618 38269 33048
18914 20428 32183
1384 32959 31649
64709 33410 32201
25389 37169 2277
32870 9809 46015
34242 19600 33205
33418 25449 7437
16304 2686 33205
34709 21548 32096
5165 38269 33502
59817 37987 47396
54652 23324 33205
19359 7343 31649
29540 19239 32931
23560 22022 31649
31862 21313 39074
41988 38269 60344
37757 38269 60756
24606 13347 33205
31862 6449 47004
29165 38269 2920
25754 38269 2802
32584 23093 13100
27544 18009 31849
47997 6950 32467
17861 21420 31649
31862 3548 15715
32807 20285 33205
22763 12101 33205
33237 20695 23781
48410 22646 33105
51175 38269 15050
39242 38269 14650
32121 38269 15289
13060 38269 16437
22159 38269 15557
42792 38269 16820
18280 38269 16519
56178 38269 13254
48643 38269 12665
38006 38269 16502
34774 38269 15515
15008 38269 16551
44291 38269 12826
29441 38269 14918
37668 38269 16757
54015 38269 16141
33979 38269 16329
50131 38269 12446
42988 38269 13843
33849 38269 15724
30413 38269 15524
39161 38269 16862
18779 38269 16527
47989 38269 11933
30963 38269 16139
45345 38269 14579
37552 38269 13499
26344 38269 15897
43272 38269 15488
18312 38269 15271
54241 38269 14983
63075 37478 27351
33418 26318 4976
33418 22921 9281
35134 38269 48734
43478 38269 49440
21961 38269 48661
17136 38269 48505
23128 38269 49723
8965 38269 49972
13579 38269 50681
11467 38269 53541
42666 38269 48557
8557 38269 50977
28608 38269 49024
19465 38269 50340
14770 38269 53251
33503 38269 49115
33889 38269 50048
28449 38269 51855
37811 38269 50114
39067 38269 48491
29435 38269 51198
27771 38269 50694
8122 38269 49705
29612 38269 48149
12365 38269 52280
30152 38269 51200
16636 38269 48449
14427 38269 52871
30152 38269 50310
30931 38269 49949
39368 38269 49218
23442 14845 32027
17723 7681 32982
32092 21224 31201
41613 12767 33205
32334 8321 17893
18098 37025 24797
35804 37025 24445
40751 37025 25504
30105 37025 27772
25588 37025 28915
51260 37025 24735
13801 37025 25713
44574 37025 25104
33259 37025 28139
35178 37025 25602
15426 37025 29523
6145 37025 27097
6841 37025 24387
8255 37025 24677
32027 37025 27401
15415 37025 25986
23192 37025 28581
45849 37025 25742
6437 37025 30393
47793 37025 25347
36626 37025 25462
16389 37025 27197
39912 37025 25484
48404 37025 25374
3956 37025 31859
28139 37025 27765
3883 37025 27103
29169 37025 27759
10515 37025 30185
33299 37025 24817
13328 37025 30348
22246 37025 25929
32693 37025 26153
10994 37025 27981
8707 37025 31020
7993 37025 28938
4624 37025 24965
12680 37025 30917
23022 37025 29237
15025 37025 26864
42756 37025 25932
25654 37025 27114
1683 37088 33540
21961 38031 61381
32822 29845 1617
51600 37481 8106
33418 22342 9257
32529 23066 42770
33418 2643 17322
33418 19967 35715
33065 30959 61254
2107 29315 31683
11850 38269 31745
26957 38269 31821
35179 38269 3213
33418 11572 21355
49546 3398 33205
55665 37162 53075
33301 23061 22340
49265 4055 31649
28758 18817 32437
25412 38269 3807
40947 37734 62364
5741 38269 31722
10102 38269 31896
31862 21967 37868
4955 37025 19981
17960 37025 17895
7585 37025 17681
22030 37025 21597
28455 37025 19933
31415 37025 17514
25925 37025 18231
33597 37025 19061
34872 37025 17297
6201 37025 22311
6244 37025 18268
33463 37025 18501
21385 37025 18052
19020 37025 21255
30962 37025 19834
35545 37025 17378
24758 37025 20848
18299 37025 18920
18671 37025 17538
8979 37025 19324
26898 37025 20326
11730 37025 22447
25580 37025 20449
32766 37025 18168
35602 37025 18967
26371 37025 19612
23709 37025 17594
8312 37025 19082
52312 37025 17382
26967 37025 17028
28031 37025 16886
15125 37025 20889
38694 37025 18185
13699 37025 18382
38517 37025 16944
26971 37025 4150
32831 37025 2438
23697 37025 4077
28694 37025 3151
26766 37025 3232
52157 37838 8533
18756 37174 4800
63066 31213 33205
21349 9186 32917
45783 38269 51628
27993 38269 52749
36873 38269 52161
32269 38269 51757
34397 38269 52456
54420 38269 52900
51365 38269 52648
38686 38269 52738
43056 38269 54371
48837 38269 53493
45879 38269 53264
49975 38269 53055
34401 38269 53848
18508 38269 53743
15343 38269 54273
52088 38269 49405
51721 38269 50204
48149 38269 54169
52700 38269 53043
46348 38269 53171
48449 38269 52510
28360 38269 53427
42454 38269 53655
29949 38269 52976
40891 38269 54306
33259 22681 17558
61585 37311 43128
32226 22657 16952
33037 20465 25432
33143 16268 39924
39838 13678 31860
31862 8812 19853
15003 1399 32907
31862 15188 24262
56888 24193 31649
17348 1214 32379
32304 4163 46625
33183 19039 33205
54579 22041 33205
31878 8863 43965
33418 23445 8748
33418 21107 40963
20246 11368 32181
2244 37227 37796
33418 3264 17400
30528 17308 33205
37053 22213 31741
43046 22348 31649
32312 25700 60293
27522 20701 31649
3535 37746 22112
29754 17934 31649
31862 5705 46054
31862 19276 30300
31862 22379 20538
17715 20367 32408
36834 37415 1876
31862 20386 32034
32324 19700 28836
33352 20285 33508
9045 22423 31649
4110 37265 44130
61636 31351 32986
62256 28220 33205
31937 20383 38835
33418 34723 1908
191 36393 33140
2487 37029 25208
33418 17404 38164
31862 18927 34151
63687 37590 31998
8069 38100 51061
318 34827 31851
2342 29124 33205
22848 38269 3293
33849 36403 62766
27071 38269 2396
29106 37025 62641
33418 26711 6552
31862 18506 32413
48056 821 32555
3595 38236 21966
33418 902 16359
30209 37025 62194
40163 37025 62159
44017 37025 60114
41383 37025 61679
2365 31689 31649
32462 21398 11046
19272 22917 31857
46449 5888 33205
26744 16865 33205
2084 36304 32264
32613 21022 31727
31862 21312 22076
64474 33753 33205
31862 24468 58156
37144 16245 33205
32281 20324 48460
33418 21325 37359
58852 25882 33205
31862 21891 44033
33418 21653 16988
33418 34472 63535
32859 20645 13596
33396 22607 26408
32881 23100 20339
30531 19843 31649
23859 15194 32598
20037 38110 4269
33418 215 49563
32990 241 49722
20116 7344 33075
64798 37445 31293
63564 37069 33788
33418 21240 20988
60134 27925 31649
33418 30758 62259
14817 20506 32580
33418 26339 58966
30161 38269 1893
31862 3200 16834
62524 33383 33205
33418 18019 33594
34061 36403 1901
53609 23618 32131
42679 22050 31649
26037 38269 35178
10775 38269 34550
32676 38269 36220
23009 38269 34360
24938 38269 37115
28337 38269 36587
28493 38269 34361
23231 38269 34703
16855 38269 34450
24508 38269 36710
16066 38269 36843
21161 38269 34986
12998 38269 37904
37247 38269 36286
33103 38269 36562
57147 38269 34459
42956 38269 34974
10704 38269 36070
41063 38269 34710
7264 38269 34673
35079 38269 35981
42210 38269 35768
22350 38269 34061
42477 38269 34311
12092 38269 36819
31641 38269 35620
4073 38269 35272
26610 38269 35452
12592 38269 33974
42580 38269 34770
36597 38269 35688
6284 38269 37422
52025 38269 34146
17663 38269 37424
30713 38269 34814
50997 38269 35258
16134 20668 31649
2147 29252 32312
31862 25845 58832
33418 22505 21070
62958 38195 38396
28110 37025 59536
28299 37025 61134
21886 37025 60586
29194 37025 60674
32767 37025 59697
43022 37025 59790
25255 37025 62171
41981 37025 59721
25068 37025 61024
16641 38009 5834
43996 11200 31649
40978 38269 60606
43589 38269 61268
37486 38269 61936
45320 23061 32307
29298 17370 33205
33418 21700 21237
32764 4746 16016
32656 19486 35270
31862 20735 29338
23902 12194 33054
33392 36403 1788
15675 38269 31594
27705 38269 31557
58411 25852 33205
31899 25436 56706
29976 38269 4845
36689 38269 4321
35912 38269 3487
34014 38269 4014
37643 38269 5297
37188 38269 4737
31089 38269 4384
16652 4137 33205
55655 37025 48106
29825 37025 49061
13640 37025 50810
44122 37025 48173
18526 37025 48982
24987 37025 51160
14875 37025 53255
21949 37025 50588
6161 37025 48460
44567 37025 49459
28283 37025 48706
41546 37025 48738
13557 37025 52083
10459 37025 53613
14421 37025 49387
57178 37025 48239
24479 37025 48276
13930 37025 52960
23359 37025 48851
16305 37025 48846
11773 37025 53612
12182 37025 54102
26762 37025 51183
19868 37025 48453
13713 37025 51216
10176 37025 50409
18521 37025 50845
38491 37025 49417
26099 37025 49256
32164 37025 50683
6149 24445 32954
31862 10843 21948
32463 19450 29678
40261 16165 32698
14818 21598 31649
32550 23085 43723
25666 13882 33205
33835 37958 1921
33418 22792 18968
63178 32885 31649
34428 19080 32270
33418 20435 34515
31862 20145 36525
31862 11601 20322
63357 38269 32202
31862 21677 24195
32358 38237 62012
31302 21267 32745
31862 16539 27617
13684 38269 47865
14874 38269 47615
58672 38269 42938
42264 38269 43796
60744 38269 42491
10314 38269 47428
49886 38269 43689
50034 38269 42144
47988 38269 44190
59401 38269 44807
59100 38269 46359
62167 38269 40942
52440 38269 45474
51988 38269 47348
53531 38269 43350
32212 38269 47334
44077 38269 45152
52408 38269 43385
42247 38269 46397
60353 38269 42484
47864 38269 47493
37236 38269 47962
46726 38269 42889
53538 38269 46637
42691 38269 43606
18230 38269 47482
42239 38269 47612
39977 38269 46994
52151 38269 44070
54327 38269 46892
46198 38269 44131
33721 38269 47389
44283 38269 45921
37094 38269 47311
31862 18008 34806
31862 4155 17818
31862 21051 29038
18809 5126 31649
31862 2336 48430
9968 24407 33156
32264 13714 39583
33418 35843 63978
48541 3393 33205
32020 22281 37100
27576 37154 62864
32490 37958 62675
31862 30031 3322
47017 37748 5003
33418 17096 27980
817 32438 33029
6021 27372 33205
33334 22408 56018
33301 7095 47697
31862 23172 9090
33071 22910 45826
26535 15408 33205
14128 22692 33205
27544 20091 31795
63418 36316 32024
322 38269 31837
45798 38269 37220
6984 38269 40323
19949 38269 39733
43804 38269 37643
47984 38269 39950
56785 38269 38083
16473 38269 39893
53722 38269 37734
60324 38269 40010
60161 38269 37865
60591 38269 36730
47772 38269 37397
42686 38269 38067
33334 38269 39231
58023 38269 36736
58962 38269 34756
41501 38269 38280
37543 38269 39996
42394 38269 36764
48785 38269 38530
21779 38269 39325
46178 38269 36085
50457 38269 39400
47168 38269 36583
55583 38269 36351
31065 38269 37821
39307 38269 38286
36474 38269 40071
58019 38269 40255
61935 38269 39683
62201 38269 34209
32663 38269 38595
53559 38269 35413
60737 38269 37753
62342 37025 32930
33418 21622 50307
63272 37025 32353
32556 37025 34525
18628 37025 32941
3529 37025 35004
20029 37025 36337
18955 37025 36030
4348 37025 34457
54292 37025 32574
37150 37025 33821
15729 37025 35208
15590 37025 38669
7786 37025 35705
13115 37025 36504
30030 37025 34845
25474 37025 36720
15384 37025 36705
14947 37025 33440
55932 37025 32706
41768 37025 34715
11921 37025 33557
10198 37025 39466
36251 37025 35457
44848 37025 33033
19169 37025 35660
45374 37025 34179
13449 37025 38740
10389 37025 38054
28455 37025 37031
24728 37025 33654
8737 37025 32737
50757 37025 32832
16106 37025 37848
50775 37025 33848
23622 37025 35685
32215 37025 33704
18823 37025 35114
9712 37025 38662
38573 37025 33326
9132 37025 39316
44106 37025 33808
2617 37025 39016
9190 37025 38616
4793 37025 33787
15657 37025 33441
30811 38269 62831
61115 38269 41246
23984 38269 47634
55947 38269 43586
8232 38269 47881
38332 38269 45142
58215 38269 46298
49183 38269 44330
51671 38269 44102
30066 38269 47944
48809 38269 42388
56419 38269 42774
51013 38269 42984
54738 38269 45790
53185 38269 41920
18811 38269 47898
17443 38269 47294
32927 38269 46062
52815 38269 44957
30357 38269 44979
29787 38269 44914
34826 38269 45605
44967 38269 46416
57211 38269 46233
39032 38269 44306
47529 38269 46598
46075 38269 45966
39069 38269 45978
31713 38269 45003
33477 38269 45972
31862 35929 441
15913 37545 58461
23911 22826 33205
17963 6871 33205
62372 32269 33205
33418 22741 14604
32342 21503 54041
31862 21028 52248
33418 5225 17385
43972 11134 33205
3048 30359 33205
31942 18021 32517
16563 3545 31649
31862 9430 21149
31700 38269 31425
17229 38269 31437
3378 28009 31649
32056 2576 15162
6442 38269 34994
10453 38269 36788
8005 38269 35433
2561 38269 39218
12328 38269 34290
19729 38269 34557
30175 38269 36273
34382 38269 36761
30345 38269 35920
12728 38269 36610
35341 38269 36317
13885 38269 35945
44520 38269 35513
9207 38269 35475
19173 38269 35576
48106 38269 35327
30162 38269 33974
15044 38269 37893
15577 38269 36240
40111 38269 35491
26492 38269 37791
16287 38269 37826
19131 38269 34849
14499 38269 35280
46828 38269 35436
58040 38269 33995
58556 38269 34399
27217 38269 36862
29559 38269 35654
30735 38269 34125
5148 38269 37978
28642 38269 37243
7567 37025 38535
6005 37025 33760
52761 37025 32954
12565 37025 38233
22464 37025 37578
46158 37025 33302
13230 37025 35374
31203 37025 34337
13796 37025 37497
41200 37025 33563
37416 37025 35455
32755 37025 35515
29460 37025 35825
21715 37025 34043
26631 37025 34077
18435 37025 37615
3321 37025 33187
8798 37025 35800
27142 37025 34727
4566 37025 32997
59575 37025 32479
6590 37025 36039
8241 37025 33647
5978 37025 38514
2671 37025 37192
47707 37025 33199
5354 37025 36223
5017 37025 34665
53115 37025 32712
22232 37025 37023
47165 37025 33913
20813 37025 37372
18182 37025 32574
58270 37025 32606
51485 37025 32670
33418 5153 18547
27061 16060 31649
33226 38269 1481
60137 38269 31925
48908 38269 31863
33418 28683 3542
33418 22120 23616
33668 38269 2832
31862 13194 42561
33354 21679 54430
32898 25276 59876
23946 38269 44842
37272 38269 43118
60254 38269 40658
18402 38269 42114
7011 38269 47047
36341 38269 41770
6334 38269 46920
25800 38269 45264
22758 38269 41056
22044 38269 43019
12806 38269 40755
40459 38269 41588
53323 38269 41120
30683 38269 42433
12810 38269 46273
10272 38269 42622
20893 38269 45482
16219 38269 42649
10304 38269 46485
20609 38269 44143
32559 38269 42495
9775 38269 44324
33365 38269 42769
35874 38269 41964
14212 38269 43513
31907 38269 43085
13410 38269 46179
40796 38269 41339
23392 38269 44922
15857 38269 45388
38929 38269 42369
15485 38269 42011
50914 38269 41972
4413 38269 43289
15641 38269 43912
4347 38269 42730
44383 38269 42208
42557 38269 41903
33418 13924 24145
49000 1598 33205
33418 2600 15185
33418 10145 19496
42335 11197 32938
64395 36403 31809
36096 38029 63075
50271 38269 31591
41696 38269 31529
15434 37275 58094
41253 13959 31649
27521 38212 62856
30835 38269 1698
47270 3763 31649
26288 37025 3310
24519 37025 3729
36493 37025 2592
31862 22547 11657
9475 22555 31649
22307 38269 4866
30005 38269 3446
26902 38269 4648
31819 38269 4512
40693 38269 4518
32363 36352 63902
64017 36347 32591
31772 21086 32536
61570 30895 31649
32380 34335 2516
50023 2204 32774
19706 37025 7541
39649 37025 5788
39655 37025 6463
38211 37025 6062
20682 37025 7756
30283 37025 5965
27060 37025 5881
16850 37025 7422
44361 37025 5939
18426 37025 6020
23328 37025 8716
38681 37025 6086
51724 20716 32572
18324 4195 33205
48653 38269 33951
32073 16166 24808
38761 20343 32169
48904 38269 33018
47909 38269 33196
16536 20321 32557
31862 31609 2162
67 37517 32908
33782 37999 62486
16237 22621 31913
16937 22525 33205
31862 22224 21704
13026 21286 33205
13558 20716 31784
33915 38269 32336
51006 38269 32240
2278 37372 26797
29328 19627 33053
63049 36475 31046
418 36837 31352
33418 19877 31484
20421 11597 32651
63226 38171 28497
31862 10258 44732
33924 36403 63168
33013 18362 32466
36941 38269 62682
31862 17554 28295
33418 21488 48368
32597 20468 39448
33317 36403 2216
56112 37025 34139
48210 37025 37625
35094 37025 39610
31604 37025 38220
57726 37025 35139
14841 37025 40417
18433 37025 38643
58502 37025 38623
55338 37025 35064
61490 37025 35077
30394 37025 38962
21126 37025 40443
51675 37025 37797
59260 37025 36034
42368 37025 40371
34416 37025 37805
38684 37025 37253
53235 37025 38892
27272 37025 39721
52873 37025 35465
45579 37025 35323
48447 37025 39647
19811 37025 40405
40071 37025 37018
53531 37025 37603
39761 37025 39097
61819 37025 39440
42755 37025 37852
55388 37025 33910
14221 37025 39357
12199 37025 39284
11759 37025 39614
47095 37025 35870
34418 37025 37130
51551 37025 40352
46089 37025 36037
42651 37025 38382
44950 37025 34905
13541 37025 39173
49316 37025 36580
59615 28029 32909
44424 8541 32488
33418 20909 14043
31862 20215 32671
39675 38269 51593
41450 38269 53460
53439 38269 49729
52462 38269 51346
41061 38269 51439
33023 38269 52238
41800 38269 51443
36116 38269 54154
43808 38269 50402
34753 38269 51576
27589 38269 54364
35123 38269 51397
35459 38269 53486
29656 38269 53250
48705 38269 54099
55644 38269 48536
54560 38269 49085
38301 38269 50899
53753 38269 50069
20785 38269 54168
8099 37405 51100
23432 38269 42797
16874 38269 43866
39216 38269 41694
34044 38269 40820
54030 38269 40896
12363 38269 42274
13381 38269 41641
8453 38269 46263
13295 38269 43621
24775 38269 45038
43634 38269 41571
40639 38269 43188
21334 38269 42106
23067 38269 45639
22714 38269 41622
33428 38269 41437
12015 38269 41162
21488 38269 40921
40723 38269 40619
28394 38269 43289
21004 38269 43241
21535 38269 41393
5220 38269 42107
13186 38269 45509
8125 38269 44740
5223 38269 46616
18546 38269 45865
5187 38269 43085
3238 38269 41462
11032 38269 46263
33569 38269 42238
25211 38269 42568
29669 38269 41100
34429 38269 42586
14666 38269 45586
50781 38269 40808
21006 38269 44093
10610 38269 41343
51789 38172 8251
29448 16659 33195
60425 37155 18925
38742 37025 52869
36336 37025 53040
45947 37025 50734
43247 37025 53784
45474 37025 53516
37138 37025 52991
40128 37025 51013
26386 37025 54340
47744 37025 53561
16212 37025 53790
33216 37025 54234
26183 37025 52778
41429 37025 52443
48031 37025 53132
43992 37025 54134
29655 37025 54416
31918 37025 54055
54075 37025 52495
54250 37025 48996
50250 37025 53892
49348 37025 51059
26246 37025 53733
28199 37025 52148
52127 37025 52492
31862 25896 5118
29922 16975 33069
35560 20697 33205
15201 2024 32167
32575 23500 53132
46440 8735 31649
62867 30322 33205
27274 37025 12107
32274 37025 12298
20818 37025 14680
19741 37025 13334
18593 37025 10743
23133 37025 12119
17527 37025 14599
33063 37025 11693
31658 37025 11614
12282 37025 14574
32632 37025 12667
33333 37025 12670
10529 37025 11078
34233 37025 12880
44686 37025 11347
31270 37025 12832
21821 37025 12385
44942 37025 10790
23817 37025 10491
49896 37025 11022
21243 37025 14758
28674 37025 12029
6893 37025 15721
40419 37025 12097
10160 37025 13121
17504 6539 31649
62920 37958 32941
25356 37617 62572
31862 12880 41267
33045 7978 47166
45712 6431 32651
35591 38269 3141
39706 22753 33073
23738 12475 31649
32546 1702 47565
15206 265 32829
46666 5381 31649
11447 37025 14340
20713 37025 12739
34675 37025 12943
9310 37025 16039
42853 37025 11595
18965 37025 12304
28331 37025 11687
15000 37025 12239
15195 37025 14256
16580 37025 14316
30209 37025 11494
27632 37025 11097
9712 37025 12350
18331 37025 11153
14703 37025 13152
27824 37025 12935
13570 37025 10538
37392 37025 12270
24004 37025 13079
14137 37025 12146
10963 37025 11544
39933 37025 11853
7797 37025 16302
8886 37025 13013
14505 38269 33494
36684 38269 33348
35282 38269 62908
42229 20759 32916
16207 38269 32538
63047 38269 31247
33418 21366 12813
19241 6850 33205
33418 15309 40237
33418 31834 63855
61238 26709 33205
31754 37025 54745
20406 37025 57404
26366 37025 56166
35478 37025 56427
47681 37025 54963
43250 37025 55246
32239 37025 56166
14588 37025 55102
15818 37025 54425
22806 37025 58142
29608 37025 57515
32923 37025 54806
20364 37025 56477
43751 37025 54475
49973 37025 54673
28951 37025 56730
18261 37025 56256
27993 37025 55542
38798 37025 55332
20966 37025 55312
16795 38269 22110
5532 38269 19576
7151 38269 20778
20335 38269 20348
11867 38269 20472
42595 38269 18840
7739 38269 22000
11340 38269 18859
18584 38269 21768
27030 38269 20212
8521 38269 22806
16729 38269 18059
5878 38269 20960
26432 38269 21178
9804 38269 21589
38828 38269 17133
5512 38269 23562
18981 38269 18602
53280 38269 17287
21621 38269 20987
30995 38269 19344
9752 38269 19285
43521 38269 18157
15132 38269 22560
36146 38269 17457
46748 38269 17222
16285 38269 20103
7766 38269 20571
8264 38269 18790
23027 38269 18848
48350 38269 17990
27921 38269 19264
6335 38269 20380
37062 38269 18547
9122 24949 32739
33246 20986 32446
33418 22067 52022
40598 15882 32047
25742 21102 33205
42861 38269 4424
5136 27571 31649
18225 22698 32673
51674 23010 32938
29783 37025 8501
43626 37025 6667
31139 37025 10009
51415 37025 10258
25932 37025 9497
39251 37025 8555
42132 37025 9544
43336 37025 7589
44605 37025 7661
30811 37025 8407
37222 37025 7754
40906 37025 10155
22466 37025 9458
46805 37025 9388
45865 37025 10412
41813 37025 7593
25385 37025 8619
44757 37025 6882
39335 37025 6982
60789 28343 31649
33418 1977 48085
26539 20998 31649
37390 37025 61406
44490 37025 60646
41932 37025 60885
19113 21879 31649
52390 37374 8712
48185 1950 33205
34633 20790 31649
31862 28437 60521
32408 18949 36087
33418 20641 27606
40507 37025 4776
38995 37025 3882
38667 37025 5237
39128 37025 3243
39676 37025 3737
30900 37025 4000
43547 37025 5176
37020 37025 3621
33322 13784 22184
65263 37100 32699
41483 37025 57613
49018 37025 57610
48481 37025 57909
37572 37025 58325
40025 37025 56851
25090 37025 58708
28631 37025 58331
42005 37025 56316
50484 37025 56893
47318 37025 56321
39810 37025 58723
31987 37025 59166
35834 37025 57882
46273 9748 33205
3648 27010 33127
25786 22686 31649
61955 31445 31649
32925 1864 47513
49014 38148 58732
17485 37025 43405
29984 37025 41959
21816 37025 44312
15788 37025 42707
50878 37025 41849
32093 37025 41711
11973 37025 45256
32341 37025 43055
7161 37025 41781
11533 37025 46476
5280 37025 46837
34654 37025 41339
3171 37025 40845
22868 37025 40506
11987 37025 43737
4823 37025 41521
57559 37025 40620
8126 37025 41216
10087 37025 41545
10658 37025 44480
43696 37025 41747
6449 37025 42084
26028 37025 44079
35843 37025 42385
8384 37025 47316
38922 37025 42780
58352 37025 40907
39713 37025 42119
12462 37025 44195
53793 37025 41337
6836 37025 41074
22928 37025 42943
34138 37025 43974
16050 37025 44025
9498 37025 44856
15736 37025 41583
51799 37025 40921
7610 37025 47632
43184 37025 40852
31970 18337 31649
32518 37958 2592
24638 38015 2377
26037 15791 33205
29699 20008 33205
43276 38269 60990
40445 38269 61878
41541 37254 2736
42868 37673 61568
50921 37025 47140
45292 37025 46457
13979 37025 47653
49992 37025 42704
43677 37025 43604
44777 37025 43785
35079 37025 44374
54494 37025 42767
23901 37025 46325
26780 37025 47893
25453 37025 45433
41264 37025 43381
52738 37025 44003
17131 37025 46792
55063 37025 42609
58014 37025 47118
46853 37025 42596
47608 37025 43885
57327 37025 46735
34770 37025 47658
42725 37025 47232
52298 37025 42868
39150 37025 45343
45317 37025 44403
58109 37025 43425
16290 37025 47236
27747 37025 46631
38488 37025 45267
41206 37025 44492
15429 37025 47667
34767 37025 45782
38999 37025 46900
54758 37025 45810
53368 37025 41704
29477 37025 45409
38193 37025 45761
214 36403 32676
32423 21400 34110
56479 37025 18916
53226 37025 18167
29093 37025 23525
34641 37025 20551
20665 37025 23439
50816 37025 23310
55363 37025 21540
59591 37025 23920
56046 37025 22299
58527 37025 23714
40610 37025 23389
18857 37025 22479
34006 37025 23831
42021 37025 19521
56190 37025 20259
51588 37025 21862
44686 37025 22911
46610 37025 22908
30979 37025 21631
33699 37025 22252
15062 37025 23194
10945 37025 23843
45760 37025 23244
31099 37025 23334
50993 37025 20738
56621 37025 20873
35965 37025 23371
38376 37025 24168
55331 37025 18911
33917 37025 23223
42717 37025 19170
54960 37025 21688
26508 37025 21814
56406 37025 19639
48296 37025 23849
10601 37025 24122
33148 37025 23677
35792 37025 20101
35751 37025 21611
46381 5171 32324
13649 37443 8130
31862 5810 48034
19889 10231 33205
31862 12023 43446
31862 34533 63435
43659 12974 32092
33365 11466 41863
33332 25512 4723
33162 10625 22238
44854 38178 60746
54968 38269 32178
41799 38269 32344
60746 37770 45155
17704 5571 31649
37979 38269 3069
37390 38269 2676
7042 26555 32836
44438 23010 31649
24920 20566 32850
7303 38269 32927
11962 38269 33089
32177 38269 64874
56111 22341 31740
29869 18909 31649
32600 18511 32119
32315 26674 6691
45480 38269 32484
37521 38269 32546
28409 15968 32040
32472 30057 63328
32578 22678 47371
32632 31703 61575
31583 19313 33205
5174 28398 33205
31862 94 48703
47031 37318 59844
33418 24887 5501
33418 23259 53001
37839 15323 32851
33221 35128 62402
47463 21339 33205
43195 11518 31649
26552 38269 58091
28499 38269 55596
43361 38269 54789
18673 38269 55080
18427 38269 55752
31296 38269 57307
21266 38269 55271
20679 38269 58130
36865 38269 56204
16430 38269 55883
26732 38269 55574
35705 38269 54450
34793 38269 55843
23317 38269 56588
39192 38269 56155
23764 38269 55685
63120 36403 31734
31862 28068 3947
17694 7634 32497
20847 20802 31750
22857 12398 31649
1665 37781 33399
32222 3511 46919
38127 37025 2067
50561 20518 32172
62693 36088 31920
63502 37851 34262
18606 4525 33183
44013 9078 32772
7961 23105 31743
1818 37442 30287
33418 28613 61083
25322 16418 32616
33021 8521 18013
31862 30666 62369
11138 38269 31000
33418 20090 34164
4702 29361 33106
20306 22219 33205
15784 2006 33205
17687 2286 33067
31378 37064 64419
1065 35783 31649
47850 38269 31386
46974 38269 31347
8074 24769 33205
54774 21738 31714
45078 21245 33205
62032 37286 22803
32910 5268 48601
41321 12254 33102
22784 38026 61723
32884 14069 39158
63635 37445 31602
33185 22850 40190
23475 37713 2845
33418 19590 33163
32515 3901 18111
31862 30487 2688
33418 21848 10343
31862 21327 20813
13812 37985 8003
18135 7471 31649
31001 19023 31727
21669 10477 31649
31862 23233 54985
45928 37904 4553
33418 30411 2961
32647 20635 45160
41038 38269 33756
20490 38269 33769
31862 20279 36100
34621 19818 32450
53932 38269 31244
32820 22145 36578
31862 20404 17508
33349 38024 2698
16283 20952 33205
33156 13578 39744
18885 6330 33205
31862 21029 47076
22792 11748 31649
33418 15756 26625
11505 23358 31649
35965 19122 31978
30459 38269 32160
32013 38269 32124
20123 9310 33205
31664 36403 64686
48764 4074 31649
62951 34649 33205
48461 20332 32345
31966 22851 24654
33418 1654 49153
33320 28686 62564
10662 37765 10422
31862 6276 17890
44883 23103 32941
3507 27174 32791
31862 21603 47985
31862 11201 44216
53154 38269 11533
11894 38269 16864
39317 38269 12906
41148 38269 13443
41407 38269 15927
27883 38269 15836
19448 38269 16156
44343 38269 12144
48902 38269 13545
32738 38269 13659
52408 38269 14175
55202 38269 16703
25543 38269 14765
49523 38269 12771
41926 38269 15790
24693 38269 15742
55256 38269 14898
22782 38269 14832
45821 38269 12476
47588 38269 16549
52193 38269 15796
52667 38269 11641
43501 38269 13235
45297 38269 16813
41752 38269 14053
51674 38269 16356
33227 38269 16576
42286 38269 15942
52731 38269 12904
23655 38269 16551
45249 10576 33205
39173 38269 60556
64633 38269 33500
32374 8297 46975
32585 29978 4101
30422 38269 33425
55112 38269 33504
2387 36288 31705
1473 34162 31649
32515 37025 56807
17304 37025 59329
12947 37025 54813
40116 37025 55999
33903 37025 55069
37704 37025 55683
35901 37025 56860
34218 37025 56357
14064 37025 54604
14181 37025 56734
38109 37025 55494
23951 37025 57669
19961 37025 57225
43832 37025 55135
31887 37025 55740
37884 37025 54976
23616 37025 55921
41293 20696 31744
39375 15474 31649
33418 7670 19776
31862 22381 48986
48400 277 31649
32853 22631 16264
982 38269 33674
47848 22668 32386
62872 37775 39050
62811 37958 39509
31862 35656 63036
33289 20763 51677
8778 37721 12869
32394 20126 37657
32636 18587 32931
17522 22671 32324
8294 37522 13500
32372 20790 43594
41554 38269 6338
39857 38269 6466
45236 38269 5822
33383 38269 6745
31682 38269 6848
38006 38269 6423
40132 38269 5734
16108 38269 6410
27889 38269 8059
26247 38269 7990
36683 38269 6962
27005 38269 6072
22050 38269 8272
37125 18045 33205
48334 6330 32916
32232 3619 17983
33418 4345 46894
36604 21495 33205
2886 37958 32248
29817 37025 62512
31423 37025 63033
33375 18743 36421
31862 32636 62436
18099 22131 33205
23398 38269 5873
26169 38269 5886
20057 38269 6472
13708 38269 8677
37600 38269 6121
13467 38269 9793
30516 38269 5563
34812 38269 6707
21261 38269 6115
16549 38269 8209
18105 38269 9160
38357 38269 6749
33312 38269 63228
42886 37025 27906
36890 37025 30564
53612 37025 28842
53486 37025 30667
55149 37025 29221
45365 37025 28802
20256 37025 30012
31013 37025 30420
47599 37025 28437
47433 37025 27909
27403 37025 30904
32949 37025 28838
48400 37025 29091
17266 37025 32044
25240 37025 32165
40018 37025 27963
50511 37025 26814
46396 37025 26709
52468 37025 30117
46345 37025 31720
42399 37025 32257
22143 37025 31436
58367 37025 27803
37222 37025 29729
56142 37025 31279
55549 37025 27333
42028 37025 27456
56549 37025 25216
38397 37025 31990
50923 37025 32380
47852 37025 32151
57638 37025 28260
20648 37025 30457
38468 37025 29849
45656 37025 26678
31936 37025 29841
19476 37025 30169
26779 37025 29917
61389 37025 25984
61906 37025 26280
45384 37025 27386
28009 37025 32244
28739 37025 29188
26299 37025 31390
51644 20694 32987
59482 37025 35474
52122 37025 37750
27497 37025 40347
47807 37025 36893
34871 37025 39286
35266 37025 36254
21145 37025 39138
43880 37025 38604
60485 37025 37767
60535 37025 33187
54280 37025 39825
58462 37025 36586
39331 37025 36762
35321 37025 40093
48977 37025 34494
39603 37025 35723
53276 37025 35527
28684 37025 40438
60023 37025 36764
49951 37025 35477
38220 37025 38366
9744 37025 39758
24940 37025 39962
48005 37025 40105
60537 37025 36082
51332 37025 37313
49310 37025 36988
55807 37025 36793
50100 37025 39645
52580 37025 34706
42231 37025 39664
57114 37025 33615
55708 37025 40449
15758 37025 40000
48245 37025 35755
31862 8275 45273
17262 37309 5418
31862 5180 18433
27281 37025 62025
29681 37025 60881
22076 37025 60932
25844 37025 61481
40693 37025 59396
19374 37025 59609
37913 37025 60309
51604 22947 31649
33418 11795 43945
22579 37025 48991
27691 37025 50947
31057 37025 48217
31895 37025 49828
16173 37025 51007
28662 37025 51812
50337 37025 48336
15716 37025 48348
40236 37025 48996
11592 37025 51393
28816 37025 51279
22694 37025 52387
29272 37025 49999
23990 37025 49805
27666 37025 48024
30740 37025 49041
36553 37025 49588
15424 37025 53485
30749 37025 50569
19757 37025 51181
25287 37025 48117
35772 37025 50174
38731 37025 50268
36550 37025 50703
17346 37025 53289
16877 37025 53494
14034 37025 53539
47522 37025 48661
27156 37025 50626
7217 37577 14903
15562 2293 31649
23671 23018 31922
39010 22066 31649
10729 37961 54483
56863 22813 32961
32228 36403 0
27111 22503 31911
32670 33878 62232
33418 11403 42384
2182 38031 37330
19935 21616 31649
33418 12247 43848
32058 12501 23983
57085 22955 31822
33530 17921 33018
31824 37317 63423
431 35100 33205
33118 13793 42662
28335 38269 27628
54133 38269 25133
25610 38269 27517
26687 38269 26293
22614 38269 25954
4768 38269 27830
32540 38269 24824
11373 38269 24996
27265 38269 27252
9151 38269 29479
33541 38269 24985
51636 38269 24821
57769 38269 24612
15468 38269 28192
3279 38269 28888
40038 38269 26335
6589 38269 25907
10468 38269 28664
31255 38269 24998
9496 38269 26381
28342 38269 26831
19960 38269 24398
29535 38269 25071
15287 38269 27426
47387 38269 25125
7747 38269 30227
14929 38269 28471
8594 38269 25434
24244 38269 26694
38160 38269 25731
3887 38269 30415
26414 38269 28243
16475 38269 26776
43714 38269 25933
6709 38269 30257
744 32726 31888
25774 38269 60676
27670 38269 60415
26921 38269 61087
29966 38269 60433
30830 38269 60962
33595 38269 60913
38876 38269 59664
19670 38269 60109
32364 38269 60499
3967 37025 23372
5464 37025 20128
39308 37025 17933
49896 37025 17518
17234 37025 17829
31103 37025 18477
15534 37025 17908
6799 37025 22536
49391 37025 18115
6745 37025 17881
20415 37025 20775
10184 37025 18790
40105 37025 18582
29189 37025 17441
22645 37025 19074
5229 37025 21362
41283 37025 18905
8382 37025 17589
24031 37025 18904
12115 37025 20539
5892 37025 17613
22852 37025 20995
12472 37025 19355
18455 37025 18202
10720 37025 19707
35944 37025 19337
16414 37025 18144
4664 37025 20579
16379 37025 21395
27417 37025 17522
49335 37025 16944
42812 37025 17426
31862 25436 59807
24182 37025 58585
33516 37025 58785
32034 37025 57689
21473 37025 59026
45427 37025 58592
52472 37025 54764
43117 37025 57058
50932 37025 56499
22869 37025 58607
40877 37025 56738
38316 37025 57814
37141 20326 31649
33418 19149 30982
31862 20514 15661
31862 16496 27192
46655 21302 31649
31384 20194 32889
31862 23894 55496
32706 20763 51677
38271 22530 31874
46312 8586 33205
34443 19086 31795
35048 38269 2798
8410 23393 31649
44245 38269 31014
63506 29975 32188
31862 20864 38649
33418 21520 29303
50043 259 32054
46064 5845 31783
11207 38269 21365
14831 38269 16906
19251 38269 19070
43496 38269 18577
18211 38269 20882
9328 38269 18303
4623 38269 23295
5138 38269 23923
13468 38269 22143
8944 38269 22805
14259 38269 22761
31518 38269 17262
13803 38269 18194
43625 38269 17350
33409 38269 17081
26937 38269 18383
25140 38269 18999
14869 38269 21024
16210 38269 19527
15119 38269 17403
37541 38269 17129
6756 38269 20462
15443 38269 21233
6221 38269 17201
30625 38269 17234
26010 38269 19992
33151 38269 18356
26689 38269 17189
15871 38269 17480
20682 38269 17184
3140 38269 24025
16648 38269 17611
64973 36426 31497
31862 19838 34042
46888 4052 32678
32010 17688 33768
31759 37025 62622
38570 38269 7398
15825 38269 9895
43696 38269 8301
16360 38269 9847
37897 38269 9472
45312 38269 7502
31825 38269 9557
50076 38269 8655
50068 38269 8215
47040 38269 7144
42192 38269 9758
34830 38269 8482
47775 38269 6267
51609 38269 9366
43777 38269 6296
43646 38269 9682
28100 38269 9116
33781 38269 9438
46551 38269 7262
13801 38269 10198
16139 104 31699
31862 14442 24996
45095 38269 33585
31887 37958 2426
33418 3472 47284
30544 38269 23236
49862 38269 19505
35084 38269 20500
60110 38269 20309
39197 38269 23870
33422 38269 23484
24992 38269 24129
28929 38269 22738
34873 38269 23780
37454 38269 21362
45028 38269 22855
26268 38269 22087
34187 38269 22338
43547 38269 21270
29266 38269 23094
30147 38269 23536
41170 38269 20988
22493 38269 23561
26733 38269 23550
45626 38269 19607
49468 38269 21315
25530 38269 21523
47393 38269 20364
56737 38269 21169
45269 38269 19411
42982 38269 19062
51958 38269 18916
32673 38269 20479
44168 38269 24307
38064 38269 20976
59586 38269 18309
56917 38269 18141
53747 38269 17682
15658 38269 24292
46689 38269 21545
62325 38269 23606
35797 38269 20215
51630 38269 21635
60873 38269 24207
53462 38269 20214
63238 29419 33053
31903 16146 28464
34845 18266 33205
58814 38269 31303
31174 18956 32684
31862 21871 18601
14702 444 33021
29381 16615 31966
32328 16499 35860
40713 37025 9346
39358 37025 9613
53234 37025 9520
33392 37025 9735
22287 37025 9992
48388 37025 6077
29667 37025 9374
30455 37025 9696
40421 37025 6655
48431 37025 9341
33715 37025 9468
40183 37025 7651
47163 37025 9008
34733 37025 9082
52043 37025 8450
27049 37025 10227
46249 37025 8660
35538 37025 7802
56518 22592 33005
63665 33296 31649
31862 13015 22485
56322 37413 52220
5643 28054 32561
33418 27385 61635
41705 21905 33205
36454 18863 32593
33418 16572 25464
733 32769 32357
26184 20634 31649
3607 31437 31692
18973 20980 31649
52285 23182 32672
27207 38269 27992
47887 38269 24949
48655 38269 25141
13349 38269 24488
8333 38269 29829
13759 38269 24859
17120 38269 27691
5510 38269 30242
6538 38269 25510
6732 38269 28511
2941 38269 24915
7400 38269 26734
10819 38269 25222
9538 38269 24437
15714 38269 26950
19080 38269 27176
17428 38269 24675
8082 38269 27837
35780 38269 25883
17672 38269 27947
43315 38269 25236
28981 38269 25224
23224 38269 24484
5374 38269 24406
39433 38269 26388
3020 38269 29736
17379 38269 25374
12472 38269 29227
53159 38269 25073
37255 38269 26259
32514 33476 341
51973 38202 56462
31093 36664 63466
61456 38269 24245
50363 38269 21833
44219 38269 22310
55031 38269 22435
19524 38269 23631
57828 38269 17963
49902 38269 23219
46342 38269 22997
37110 38269 22438
25849 38269 24173
58494 38269 23364
55013 38269 19761
46611 38269 23880
16349 38269 23871
43113 38269 21727
27473 38269 22700
54101 38269 20917
53456 38269 21039
45577 38269 23200
41949 38269 21950
15785 38269 23884
59240 38269 24099
45929 38269 21236
59560 38269 17052
49219 38269 22748
57929 38269 20513
26430 38269 24177
28523 38269 23482
52135 38269 19291
58242 38269 19932
58608 38269 18847
39891 38269 23335
44617 38269 23160
45353 38269 20165
30438 38269 21928
55977 38269 20913
25128 38269 21657
30872 38269 24275
53099 38269 19701
32971 28694 4908
1475 30670 32920
31862 21006 24673
43159 11590 33205
31862 27523 59655
43106 20776 32830
31862 4500 46816
32048 37835 64954
55868 24763 32037
33418 24223 7211
31862 17663 29500
32580 29258 1930
21060 21921 31649
33418 21978 24179
62400 37958 31690
32317 27326 58799
31862 13330 22211
31009 38269 50616
27097 38269 49743
9751 38269 49089
41856 38269 49190
19511 38269 51526
39108 38269 50224
17327 38269 50772
16501 38269 51433
23973 38269 49471
11907 38269 50769
13152 38269 53324
14969 38269 49280
34653 38269 48111
28805 38269 50213
40422 38269 50402
47298 38269 48102
13685 38269 50287
45675 38269 49015
36513 38269 48613
15498 38269 50712
15907 38269 48541
11030 38269 53787
27798 38269 51832
25921 38269 50673
14727 38269 50257
23951 38269 52222
10695 38269 49217
40952 38269 48651
31862 33855 1542
36223 38269 31936
33217 38269 32019
32311 37958 1731
12658 38269 55088
17175 38269 58338
34248 38269 54914
26175 38269 55740
17910 38269 57795
23756 38269 56614
30114 38269 57067
20654 38269 58646
22114 38269 55518
33036 38269 55666
12048 38269 54804
52005 38269 54595
23847 38269 57796
16780 38269 57798
17188 38269 57785
17603 38269 56614
32142 38269 55914
39008 38269 55524
28707 38269 56752
63082 31964 31649
32910 6675 47949
33008 4386 46524
22257 12712 33205
33418 31314 63075
9544 24678 31790
28173 38134 1912
32413 10287 42875
31862 6732 19270
31862 21051 16181
33145 19062 30686
11514 21740 33205
50051 423 33205
2756 38022 33370
31954 4520 48940
31916 36403 64241
9521 22182 32001
43133 38269 31128
33418 9028 19007
31862 20284 33983
32724 34507 130
25549 22756 32041
19985 37321 60563
31631 37958 62679
2649 35315 32796
54845 38269 30917
31862 31037 63241
32506 20635 32121
17954 3083 31972
32633 17695 26860
49347 21981 33205
27919 15641 32388
43975 38269 4429
46267 38269 4986
33418 22506 45421
52243 22158 31649
40167 38269 31154
6984 23804 31649
61733 37132 42772
34814 20652 33205
15916 21665 33205
56944 25452 32348
12501 21138 33205
37395 15619 33199
33129 23011 45342
23306 37185 61939
33418 27067 59384
49531 38269 56001
48494 38269 56677
50734 38269 57224
36370 38269 58443
29311 38269 58611
50724 38269 56289
27569 38269 59225
40442 38269 58730
34421 38269 58081
47922 38269 56420
21200 38269 59076
45444 38269 56892
49738 38269 58017
33418 7388 45884
31862 20863 27730
33418 21913 49384
33418 21287 37878
9152 24061 33205
50427 924 32886
30704 19137 32517
59026 25718 31649
10733 21891 31649
32527 23105 44773
47142 22695 32048
52463 21919 33205
31862 6961 17317
31862 14817 41218
64307 31832 31933
33418 35668 141
33281 0 16524
5456 27709 33205
32801 16547 29066
50798 38269 27510
37698 38269 29077
50369 38269 30059
48062 38269 26199
34552 38269 27503
50085 38269 29380
56458 38269 29111
45612 38269 26832
54386 38269 27506
35735 38269 28194
21667 38269 29978
51179 38269 26919
19439 38269 29636
22228 38269 30780
30583 38269 29907
23473 38269 29433
29128 38269 30330
46280 38269 27077
60155 38269 26521
54608 38269 25844
33808 38269 30580
30938 38269 27779
28895 38269 28557
39672 38269 28561
15369 38269 29483
14701 38269 29789
57162 38269 26034
61829 38269 30106
63216 38269 29563
18273 38269 30085
45190 38269 27800
48120 38269 28209
21506 38269 29124
31862 33544 1089
49772 37136 58151
38420 20268 32484
59110 24427 33158
31862 21486 28063
32713 22782 14620
33418 29372 61979
53279 22410 33205
36464 37025 5479
30906 37025 4939
41988 37025 2922
40292 37025 3266
35415 37025 4557
43576 37025 4298
38435 37025 3363
46527 37025 5352
33418 32712 1538
16565 1126 33205
33418 7573 18580
60576 38269 33527
27767 38269 33664
33015 20455 49827
43736 38269 57270
31071 38269 57651
45739 38269 56300
30596 38269 59137
22615 38269 59268
48369 38269 55691
40172 38269 57875
44138 38269 59295
51076 38269 55388
47594 38269 58859
33447 38269 57896
48269 38269 58145
28317 38269 58902
22673 21826 33205
31862 22672 50186
59825 25926 33205
33418 22392 42993
33187 11124 45008
2949 36510 31809
1823 37951 34601
33418 35721 1414
32859 19250 34657
16370 5058 31757
21073 38269 39282
41472 38269 39070
44229 38269 38677
47016 38269 36000
40255 38269 40159
42239 38269 38094
26219 38269 38758
59441 38269 38291
57032 38269 36776
41257 38269 36571
51026 38269 37530
57051 38269 38713
19510 38269 39515
23002 38269 39147
47088 38269 37264
32969 38269 38883
39120 38269 40305
54406 38269 38686
52919 38269 35991
41712 38269 36550
12824 38269 39848
38585 38269 39304
54123 38269 35931
55291 38269 35902
60781 38269 35882
46871 38269 39788
11554 38269 39722
49561 38269 37119
59537 38269 35988
23524 38269 38977
32004 37025 1693
48411 22646 32588
48993 37434 58748
16970 3153 31649
37348 38269 62811
24994 22409 33205
33418 22039 51504
8614 37548 51772
34838 17865 31649
57878 37095 14662
3922 28307 33205
32107 20698 51445
33418 30843 3192
32947 28335 59666
41598 11965 32246
55078 23880 31649
48249 22281 31649
29960 19252 33205
33418 16796 28507
31862 14366 39643
3426 27401 31649
33473 36896 2627
32832 37958 2337
32605 17235 38685
33418 31143 2299
31862 19564 30996
33418 18656 30859
42433 12774 33205
60850 37025 42442
50940 37025 42948
20250 37025 47010
39167 37025 44627
58720 37025 43022
30365 37025 47334
50014 37025 46795
18839 37025 47345
33848 37025 45163
53083 37025 47762
31326 37025 45719
25834 37025 46114
41060 37025 46501
15089 37025 46871
35367 37025 47227
54878 37025 47958
54942 37025 45358
59667 37025 45177
13463 37025 47626
51897 37025 45455
46273 37025 43689
36749 37025 46979
59634 37025 44131
53398 37025 46896
55911 37025 47722
53803 37025 42421
24432 37025 46079
50335 37025 47110
19973 37025 46596
51575 37025 46479
33378 23890 10856
58498 37454 15470
50578 21475 31649
33418 2352 16127
22522 37025 7554
32946 37025 6460
21897 37025 7442
35464 37025 5831
21710 37025 8841
21848 37025 6802
30906 37025 6800
17128 37025 8076
25685 37025 6203
35521 37025 6275
24678 37025 8442
32221 37025 6415
33285 18799 31649
49555 2969 31649
32849 2684 49658
5432 38269 30933
33384 24973 8872
32816 7876 20223
57494 37752 50692
20558 8080 31903
33418 23591 55786
60574 38269 32587
43824 38269 32614
31862 15416 40845
38640 22306 33205
60501 27026 31649
2447 36559 33672
34016 19729 31649
31862 32456 63367
33215 32891 2872
15871 38269 32202
31862 25959 60380
32113 17314 26288
13731 22975 31746
62616 38269 33613
32572 4935 18579
38178 37025 51112
48224 37025 51166
46738 37025 52415
50877 37025 50562
26973 37025 52527
45379 37025 52353
36881 37025 54392
52255 37025 50075
30333 37025 53576
54192 37025 53337
46727 37025 50285
49930 37025 49813
45336 37025 52869
44682 37025 50467
50210 37025 51729
35118 37025 53774
36157 37025 54112
48709 37025 49770
18919 37025 53920
47625 37025 49685
52638 37025 50396
41095 37025 51800
1227 37313 33941
45852 10300 31839
8294 22891 33198
47929 20352 33018
32627 20697 33205
33977 17690 31721
57520 25932 33017
32678 22861 18792
33418 12168 21000
1214 31739 33205
31153 37025 24395
52838 37025 24601
48700 37025 24888
11583 37025 28649
32522 37025 25628
17614 37025 29645
48927 37025 24546
25192 37025 27312
38766 37025 26819
49992 37025 24522
2955 37025 31530
9458 37025 29099
21545 37025 25162
17904 37025 25963
11780 37025 30069
10381 37025 30643
12327 37025 26273
16035 37025 28555
41748 37025 25516
2944 37025 26363
10544 37025 25308
23332 37025 26981
24020 37025 29354
6297 37025 28420
3574 37025 26400
7476 37025 26158
4776 37025 26751
6551 37025 29486
7023 37025 25771
20403 37025 28211
26623 37025 24837
41596 37025 24624
8560 37025 26430
21342 37025 28403
32455 13558 21968
33418 29368 3042
5720 24817 32014
31904 28028 5452
28636 20692 31649
31862 21771 22537
40128 21381 31649
31905 15859 24441
33360 20624 40564
51906 22628 31649
18990 38269 11712
14422 38269 13929
31916 38269 10713
12967 38269 13086
10103 38269 11783
24968 38269 12660
25552 38269 13286
26157 38269 13072
8597 38269 15535
37087 38269 12538
40098 38269 10832
11853 38269 10934
11907 38269 14964
16872 38269 14159
41868 38269 11728
16706 38269 10729
29287 38269 12159
24210 38269 10857
15116 38269 12356
19145 38269 12794
22014 38269 11246
9764 38269 16180
42291 38269 11340
35011 38269 12491
30515 38269 13239
25134 38269 11277
49271 38269 8582
46262 38269 9396
50961 38269 9945
44033 38269 9530
30933 38269 9551
34017 38269 8970
31222 38269 9105
34989 38269 9026
36370 38269 9242
42098 38269 6478
51865 38269 10117
46129 38269 7112
33708 38269 7802
45436 38269 8606
45217 38269 9480
33447 38269 8405
20920 8626 31777
29269 19099 32107
33418 20529 38963
31862 21052 23389
24165 38269 32743
58811 38269 32561
59855 27054 33205
26689 14861 31649
34074 37025 16260
20540 37025 16591
15655 37025 16677
48228 37025 14145
33863 37025 14092
47373 37025 16347
43326 37025 14509
17800 37025 16684
40748 37025 15225
48928 37025 11986
41031 37025 13572
53964 37025 10685
48689 37025 13240
47314 37025 13884
27856 37025 14333
33051 37025 13927
38817 37025 13379
41499 37025 13973
19224 37025 15389
40539 37025 13887
56110 37025 14644
20829 37025 15194
53084 37025 14435
29643 37025 14814
29825 37025 15890
12644 37025 16042
28347 37025 14408
48331 37025 16678
57732 37025 16417
26294 37025 15170
41066 22046 33205
33418 16597 39512
55956 23024 31649
32771 22949 23956
33266 19502 29542
33418 13614 41258
35015 38269 29986
2492 38269 30854
23846 38269 30347
47437 38269 29502
54877 38269 28816
45264 38269 30064
57012 38269 25295
48654 38269 27754
45711 38269 27951
48529 38269 26369
42454 38269 28587
30131 38269 29878
33770 38269 29775
55642 38269 30253
61538 38269 30447
46365 38269 27876
61058 38269 29867
23099 38269 28924
46836 38269 30841
38580 38269 27935
47176 38269 30484
61810 38269 28129
46822 38269 28278
14520 38269 30173
28497 38269 30031
32015 38269 29230
46126 38269 30372
44093 20796 32857
63544 37025 32910
47522 37025 23030
59532 37025 18996
56351 37025 23364
15716 37025 22969
45048 37025 20853
35980 37025 21929
49125 37025 21502
42838 37025 24146
21732 37025 22428
42876 37025 23265
31808 37025 22714
50977 37025 18665
16753 37025 22642
57392 37025 22539
25435 37025 24331
53736 37025 21883
18309 37025 24354
58914 37025 18519
32905 37025 20781
38497 37025 20729
34665 37025 24142
32608 37025 21194
44777 37025 19004
37960 37025 20238
47430 37025 22273
34459 37025 22451
57424 37025 19951
51792 37025 21143
45627 37025 22190
42986 37025 20091
13564 37025 23779
50793 37025 24059
43624 37025 22150
22315 37025 23609
30407 37025 2273
32197 17154 38806
0 37838 32570
58210 38116 15094
34116 21116 31649
32881 18892 28658
18429 38269 12641
25362 38269 10912
17151 38269 10839
37867 38269 12367
6012 38269 16653
11605 38269 15255
46464 38269 11315
7611 38269 14430
19243 38269 13874
16197 38269 13558
25168 38269 13770
13705 38269 13419
27537 38269 11543
9207 38269 13620
13391 38269 12471
8715 38269 13738
15106 38269 13366
15791 38269 11810
35756 38269 12328
23243 38269 11641
20407 38269 10581
18770 38269 12979
21977 38269 13210
38105 37452 2043
13336 38269 33359
57036 38007 51289
32261 34209 156
62668 36678 31309
29985 38269 61469
31847 38269 61514
23629 38269 60616
35206 38269 60611
33013 38269 59770
21502 38269 59506
25205 38269 59422
36123 38269 60402
14754 37025 44205
25853 37025 44597
34931 37025 43465
10534 37025 45711
32604 37025 41815
20133 37025 43562
35512 37025 41598
38621 37025 40805
7375 37025 44168
29007 37025 44432
31667 37025 42371
4982 37025 44990
11844 37025 41873
35482 37025 42003
11912 37025 42811
11174 37025 44562
9576 37025 40888
33333 37025 41117
29567 37025 44740
4220 37025 43259
7757 37025 43155
13353 37025 42132
50531 37025 40726
36821 37025 41360
22019 37025 43774
7728 37025 45305
23357 37025 45234
23237 37025 44462
39106 37025 41017
19731 37025 43699
22078 37025 44664
29846 37025 41445
33091 37025 42114
50465 37025 16597
36067 37025 15022
55412 37025 16510
36650 37025 14256
28441 37025 15433
48295 37025 12053
17691 37025 15697
46318 37025 14728
51778 37025 14560
31344 37025 16465
47330 37025 14728
13976 37025 15879
35273 37025 16840
30327 37025 16659
51181 37025 15288
27426 37025 15367
43152 37025 15296
21988 37025 14942
9251 37025 16566
37834 37025 16514
37256 37025 13599
31204 37025 16842
45455 37025 12348
53913 37025 11380
50541 37025 11855
2725 34378 31687
1736 37249 33941
31862 801 49972
62551 34328 32143
3938 30669 32110
33418 23952 56959
33418 10967 43617
34551 38057 63279
39676 15353 33205
2139 34859 33205
32668 37958 1521
32719 32572 64284
32331 27082 6266
36459 19759 32489
55140 37059 11093
31961 23087 19873
31862 24869 55856
33044 20558 50676
31924 5698 48406
31862 22683 41185
33418 22163 53613
2208 29917 31649
31912 9779 46038
42902 38269 32973
54440 38269 33076
33418 21438 35609
57149 37025 28606
55667 37025 29117
31556 37025 30950
41525 37025 28835
30519 37025 28672
12308 37025 31920
54509 37025 27104
18356 37025 31328
47859 37025 29314
46743 37025 27988
19841 37025 31475
20735 37025 31746
39684 37025 29569
50884 37025 31470
33845 37025 31693
45477 37025 29889
40895 37025 30133
61809 37025 25773
38364 37025 28021
57886 37025 25684
57502 37025 26516
27007 37025 30416
51352 37025 27857
56368 37025 28627
50190 37025 31258
11183 37025 31404
41835 37025 31649
52134 37025 27951
20052 37025 31059
54134 37025 31232
24589 37025 30627
37602 37025 30964
52458 37025 31221
59100 37025 30392
45293 37025 31125
62537 37025 30098
48491 37025 30894
22560 37025 32198
31853 37888 63427
31862 22254 14300
