ply
format ascii 1.0
element vertex 2684
property float x
property float y
property float z
end_header
39818 28394 11681
25544 28394 78237
33900 28394 76369
21650 28394 77240
45525 28394 76084
40622 28394 77223
21278 28394 77850
45569 28394 77021
33841 28394 79442
27738 28394 76563
6569 28394 76258
20018 28394 76198
35553 28394 76789
15331 28394 77313
21403 28394 76787
43676 28394 79874
11238 27494 68423
46607 29041 13426
8065 28394 80997
27919 28394 81342
36884 28394 47796
4605 28394 46283
20246 28394 48162
1560 28394 47581
6679 28394 42958
16133 28394 47392
9277 28394 47025
14088 28394 43478
27650 28394 46274
13420 28394 45629
2924 28394 42793
24366 28394 47193
6848 28394 44058
19077 28394 46455
2446 28394 43516
21869 28394 46746
11811 28394 45964
22758 28394 44741
15018 28394 43553
35580 28394 46962
12262 28394 26145
6365 28394 27422
16277 28394 23078
10996 28394 22704
16509 28394 26470
28617 28394 24790
4476 28394 23791
23734 28394 24169
4894 28394 24310
7562 28394 24930
23471 28394 27251
11826 28394 26959
13639 28394 23123
32131 28394 27415
21290 28394 26778
40301 28394 26570
10508 28394 23592
3721 28394 25875
9705 28394 22167
27789 28394 26437
10831 28394 25102
9102 28394 23323
4093 28394 21682
43807 28394 7572
11326 28394 7896
31136 28394 8394
30120 28394 7509
35256 28394 10030
22208 28394 9346
34546 28394 7339
16615 28394 7156
29589 28394 7523
31975 28394 8103
27525 28394 9873
15846 28394 7569
24230 28394 8772
24781 28394 61571
39317 28394 61767
4772 28394 62016
26375 28394 60192
24829 28394 58901
29304 28394 60580
29100 28394 61738
39883 28394 61997
10318 28394 59855
13796 28394 59772
20210 28394 60174
15891 28394 58727
29339 28394 60058
680 28394 58928
2645 28394 61025
34211 28394 60651
4158 28394 55781
13837 28394 61779
21346 28394 59957
27252 28394 60729
10734 28394 60662
12416 28394 62012
37452 19020 13944
14219 29254 81960
8792 28394 11961
37760 6685 69079
36874 29254 4102
17612 29254 6822
11758 29254 6212
27289 29254 6084
42771 29254 6428
35837 29254 6752
37145 29254 3362
33102 29254 5653
26303 29254 5010
41336 29254 2260
42622 29254 5848
35967 29254 5237
22911 29254 5279
37949 29254 4111
10334 18953 69329
43348 28394 68222
28705 28394 64847
40615 28394 66047
10266 28394 63398
33270 28394 62344
44009 28394 67083
13208 28394 63700
30141 28394 63474
31083 28394 63635
34321 28394 64787
23248 28394 62459
16898 28394 62143
25715 28394 63530
42186 28394 62342
24392 28394 64201
20847 28394 64038
6035 28394 62170
29417 28394 62303
45494 28394 68226
35285 28394 64024
37485 28394 66184
37082 5910 14147
367 29053 27614
13045 28394 81814
37836 4187 69391
10774 28394 78045
10866 28394 76879
13356 28394 79039
18615 28394 80802
5304 28394 80682
16028 28394 78698
23205 28394 80251
13454 28394 80153
12824 28394 79090
4844 28394 78061
21333 28394 78540
15060 28394 77897
41098 28394 80790
36944 13597 12069
39273 29254 1146
37447 1579 12295
37810 7215 69197
46582 29165 69374
16783 29254 53918
33174 29254 50589
38604 29254 50310
33803 29254 53081
40452 29254 50656
13030 29254 53695
37633 29254 50274
42052 29254 50740
20280 29254 55008
31806 29254 51059
44933 29254 49173
32914 29254 53729
39885 29254 54194
28896 29254 52334
33429 29254 54627
17698 29254 54075
9373 29254 54244
20254 29254 53603
22883 29254 54963
14176 29254 54248
39846 29254 52785
18801 28394 31057
20672 28394 32930
18746 28394 33356
17349 28394 33111
2111 28394 27889
10800 28394 32500
23454 28394 31159
260 28394 30725
27627 28394 33797
5200 28394 32175
43036 28394 34118
14535 28394 32345
35874 28394 33655
11431 28394 29840
4356 28394 31313
11009 28394 34340
22401 28394 31689
34298 28394 32648
4313 28394 29518
23173 28394 31816
42036 28394 34157
25764 28394 33778
14143 28394 33562
42372 28394 68587
23679 28394 67100
27354 28394 66931
3457 28394 65377
34928 28394 68209
16830 28394 68405
6862 28394 64189
9880 28394 68005
7342 28394 65479
17393 28394 66450
5482 28394 66176
23051 28394 66853
14399 28394 64302
39731 28394 68654
10690 28394 66095
2880 28394 66188
17608 28394 67910
24577 28394 65949
5652 28394 64296
10450 27248 69995
11836 1074 68403
29747 3819 68403
27291 12798 68403
35231 23835 68403
31231 11365 68403
25449 8563 68403
33442 18819 68403
35905 11392 68403
34443 5063 68403
21040 10955 68403
36580 20130 68403
34893 13167 68403
36406 10137 68403
31549 5606 68403
27706 8349 68403
33480 3887 68403
20969 3279 68403
15998 5307 68403
32225 6253 68403
30791 10658 68403
29966 16794 68403
32831 13213 68403
23957 9243 68403
34958 8961 68403
36151 27202 68403
31259 19955 68403
16571 1772 68403
19628 3020 68403
29781 7012 68403
32426 9188 68403
28001 10736 68403
34639 14804 68403
35660 9636 68403
30959 14217 68403
30873 9730 68403
34309 1369 68403
34111 10617 68403
15822 4126 68403
29097 10791 68403
36273 4577 68403
29552 16404 68403
16222 2522 68403
35416 3444 68403
31147 5116 68403
32835 5644 68403
14643 29254 1490
29919 860 13258
30396 1831 70554
14406 7816 70554
19373 3604 70554
16401 8997 70554
17696 17374 70554
28516 1260 70554
23139 1005 70554
23945 14706 70554
11404 4942 70554
22820 9142 70554
22856 6916 70554
21619 12288 70554
13766 20850 70554
17126 14537 70554
17195 15244 70554
18153 11133 70554
30014 4747 70554
11997 6184 70554
24145 8333 70554
19131 14704 70554
21591 10359 70554
16275 3263 70554
19477 6004 70554
16205 10354 70554
11591 8383 70554
25428 8467 70554
11579 2090 70554
21347 11175 70554
23742 13876 70554
20521 6984 70554
33538 2567 70554
14625 16900 70554
11657 3289 70554
12466 24977 70554
20700 13116 70554
25187 10999 70554
25667 2495 70554
29303 5890 70554
14684 6328 70554
23766 5995 70554
15242 6863 70554
25412 3095 70554
28138 7227 70554
24885 9515 70554
25205 11610 70554
14350 860 69776
11200 9469 12071
8276 28394 12531
5607 28394 12828
9347 28394 13349
10996 24149 12130
26285 28394 80921
31682 860 12884
32329 28394 55370
5681 28394 55739
43879 28394 57176
15748 28394 55252
18920 28394 57251
28983 28394 55277
40522 28394 55440
34037 28394 57469
37010 28394 59250
33821 28394 56875
35797 28394 56703
25546 28394 55333
20003 28394 55678
42623 28394 59070
39166 28394 57069
38820 28394 58452
39671 28394 56347
32584 28394 56785
20530 28394 56531
40071 28394 57398
33383 28394 58061
43778 28394 59074
29820 28394 962
39737 29254 81593
26646 29254 81092
37129 14783 68472
7864 29254 10810
42557 29254 7183
6200 29254 7874
18132 29254 9521
6946 29254 7010
5194 29254 9453
3241 29254 8978
17487 29254 11169
44509 29254 6937
38214 29254 7112
4005 29254 10211
2477 29254 9773
10088 29254 10624
3913 29254 7319
19221 29254 8756
30476 29254 6914
22836 29254 7243
37837 2631 13202
16430 9374 12045
30322 23424 12045
18044 10725 12045
32277 24457 12045
11607 5049 12045
11747 7305 12045
33080 25583 12045
22068 13490 12045
12689 3833 12045
22608 17989 12045
26958 23541 12045
25869 22210 12045
15084 22726 12045
25672 16725 12045
16980 7254 12045
29126 21044 12045
18504 15063 12045
16369 17188 12045
24342 25407 12045
29679 23247 12045
18320 22774 12045
21369 18457 12045
12913 11051 12045
12536 16016 12045
20879 13252 12045
17169 11855 12045
31487 27340 12045
31518 24159 12045
17193 23324 12045
30942 27366 12045
16954 18528 12045
24758 19690 12045
27958 19597 12045
14207 25491 12045
16162 27544 12045
14581 23997 12045
17749 24385 12045
14097 22402 12045
25289 27588 12045
13100 6519 12045
21511 25030 12045
12951 16596 12045
24036 20693 12045
18901 25328 12045
22838 17361 12045
37647 29254 81408
10388 4742 12755
10821 21191 14030
10995 2789 12131
4875 28394 1065
22570 28394 82091
10330 9177 12992
14683 28394 12026
7505 28394 8998
14452 28394 9918
13213 28394 8753
21603 28394 11670
14848 28394 10678
32102 28394 11721
13723 28394 9546
8368 28394 9414
45800 28394 10706
45095 28394 9368
45708 28394 9125
40091 28394 12638
7324 29254 4384
7712 29254 5558
3575 29254 2182
13796 29254 4643
23536 29254 2462
9758 29254 2619
9306 29254 3700
26634 29254 1862
7295 29254 2113
42216 29254 1867
6746 29254 6297
22818 29254 2543
7751 29254 3587
25575 29254 2306
13804 29254 2175
3197 29160 81026
31735 860 69179
40505 29254 131
25640 29254 78076
16291 29254 78677
3350 29254 76657
7654 29254 77894
9891 29254 79677
17228 29254 76155
10696 29254 77667
30464 29254 77400
28071 29254 76713
16771 29254 77133
8365 29254 78373
5594 29254 78617
20015 29254 77017
37339 23011 14031
628 29068 23796
39017 29254 13657
27002 29254 10617
45962 29254 10790
26493 29254 12181
15692 29254 13023
31697 29254 9320
12721 29254 12833
33272 29254 9989
39838 29254 8788
16932 29254 11729
44892 29254 8288
29397 29254 11618
41650 29254 7680
37305 29254 8866
42185 29254 11799
24423 29254 11627
18489 29254 11676
36905 29254 9998
17754 29254 13590
13336 29254 12408
35832 325 70324
37570 22922 70191
21520 28394 82247
27192 28394 76612
40672 28394 79746
36694 28394 76352
36083 28394 79314
39776 28394 76606
26357 28394 77793
27119 28394 78423
30263 28394 77615
39388 28394 78374
32152 28394 77675
36858 28394 77755
38475 28394 76512
24784 28394 77365
35261 28394 77254
22232 28394 78078
37613 5990 68823
11821 860 12289
24349 16139 14197
27050 13327 14197
25616 17847 14197
32974 24822 14197
34246 26145 14197
35458 20132 14197
33606 21156 14197
34788 7313 14197
20780 19591 14197
26542 15243 14197
32900 14853 14197
31313 11497 14197
36703 10075 14197
34942 7849 14197
20291 22909 14197
32076 11665 14197
30900 7933 14197
32620 17211 14197
32587 21613 14197
33482 12332 14197
31136 16944 14197
26554 20743 14197
14427 25217 14197
36645 7952 14197
28509 10374 14197
35267 16471 14197
20505 27176 14197
33103 27348 14197
24160 19096 14197
29318 24579 14197
36446 4415 14197
33002 8801 14197
27276 19828 14197
25881 14684 14197
32529 8425 14197
25685 22519 14197
32523 27467 14197
32104 12201 14197
34118 27971 14197
34974 26535 14197
22879 27841 14197
23761 22522 14197
32888 22617 14197
28478 24789 14197
20492 26575 14197
17608 27991 14197
10334 3778 69326
19886 12802 14197
18092 8379 14197
20328 10852 14197
28997 3969 14197
14850 12722 14197
20597 14641 14197
23145 13928 14197
20903 16847 14197
20181 15508 14197
12563 4490 14197
13618 24104 14197
23420 4363 14197
25602 3440 14197
25560 7002 14197
17956 13427 14197
15662 21567 14197
23401 8796 14197
19346 12064 14197
12961 23112 14197
34976 2375 14197
12995 11955 14197
26550 10196 14197
29233 6842 14197
30075 1532 14197
14063 21177 14197
11710 6361 14197
13528 6464 14197
30078 7159 14197
20432 16169 14197
13233 22663 14197
17349 18288 14197
20629 5045 14197
23832 14862 14197
17761 11051 14197
24618 10837 14197
14489 6460 14197
17370 5074 14197
14746 7014 14197
15633 6442 14197
16282 22765 14197
15979 12413 14197
13073 5667 14197
12978 10566 14197
24650 7213 14197
12914 4042 14197
14721 23065 14197
15797 20806 14197
22577 9437 14197
1104 28535 64616
34199 7724 12045
31630 22049 12045
26935 10619 12045
26104 15109 12045
17137 5335 12045
27238 11611 12045
25016 4081 12045
23308 12838 12045
30851 10248 12045
14525 1833 12045
31825 5554 12045
21703 11493 12045
34993 12695 12045
24104 4467 12045
19009 4788 12045
22127 10650 12045
31471 17361 12045
23519 2146 12045
32930 16507 12045
30479 1318 12045
33244 17228 12045
34145 11687 12045
33984 15161 12045
20357 957 12045
35785 19721 12045
36607 2343 12045
36347 4845 12045
33257 19071 12045
34547 14935 12045
18260 5511 12045
27890 9327 12045
35439 14626 12045
24566 3236 12045
26186 875 12045
32571 12336 12045
19125 5734 12045
32150 21572 12045
25876 11983 12045
25720 2018 12045
32266 20776 12045
36492 26740 12045
22620 3728 12045
34159 22037 12045
29299 18024 12045
31325 8886 12045
32354 28394 18038
25558 28394 17273
41303 28394 19530
18579 28394 82594
17030 28394 151
31228 29254 26173
24938 29254 25327
44976 29254 23628
29902 29254 26004
20738 29254 25996
17797 29254 26428
16154 29254 25836
43301 29254 21813
36965 29254 27421
16871 29254 26839
45619 29254 22522
42316 29254 27088
17010 29254 26240
30148 29254 26627
43049 29254 26456
39596 29254 25700
46237 29254 24968
43634 29254 25842
23518 29254 25502
21633 29254 25346
37845 13763 69458
287 28844 53052
10162 29254 67666
26227 29254 66435
37006 29254 67785
41624 29254 63118
45726 29254 66866
44356 29254 63714
35839 29254 67817
33459 29254 66923
17047 29254 67939
26147 29254 66968
41997 29254 68364
16361 29254 67013
8875 29254 67944
29370 29254 67370
25324 29254 67198
45420 29254 62604
44253 29254 66674
33572 29254 66366
39677 29254 63400
36240 29254 65556
34010 29113 0
9431 28929 0
42605 29254 82435
12653 29254 42109
3352 29254 41837
22583 29254 44355
6144 29254 44159
30529 29254 41570
14402 29254 42671
14607 29254 44678
19358 29254 44902
29584 29254 43790
13528 29254 41420
33111 29254 42372
15801 29254 43863
2001 29254 42729
9928 29254 41770
23327 29254 41683
25407 29254 41998
16397 29254 42046
1307 29254 43904
4546 29254 45385
17272 29254 44135
13813 29254 42600
10375 6931 12786
37762 18973 69876
14303 29254 702
10879 5678 68536
10336 21134 13281
44691 28394 49228
21910 28394 50120
32348 28394 50743
30267 28394 48814
20000 28394 49859
33252 28394 51341
46801 28394 51030
15540 28394 49950
42690 28394 50227
9653 28394 48873
9591 28394 48324
18956 28394 49682
38763 28394 49523
26248 28394 51854
32210 28394 49512
18352 28394 50506
25215 28394 50991
20937 28394 50882
34814 28394 49986
14326 28394 49691
38918 28394 53818
27889 28394 50014
29762 28394 75310
13426 28394 70877
28543 28394 74378
15751 28394 71700
2347 28394 73836
14992 28394 74769
16504 28394 74448
11531 28394 73478
17356 28394 72422
6875 28394 75372
3590 28394 72966
3347 28394 74774
14534 28394 71278
9755 28394 72932
8928 28394 72497
12301 28394 72820
25179 28394 73004
21792 28394 73305
25417 28394 74810
38928 28394 13194
41632 28394 11665
45021 28394 10710
39876 28394 13166
16117 860 13501
36968 10328 70528
15393 28394 252
11090 14606 68448
24838 29254 58219
10695 29254 56926
10321 29254 58423
16811 29254 55862
18227 29254 56350
4208 29254 61161
17506 29254 58084
17836 29254 55493
8613 29254 57766
16693 29254 57833
19817 29254 58891
29936 29254 55389
28452 29254 57189
3671 29254 57975
5660 29254 57850
34764 29254 55412
42493 29254 55704
18896 29254 58773
5010 29254 55215
20375 29254 55904
4436 29254 58722
10529 12972 12492
10596 18632 12405
37334 28394 69182
35764 28394 69037
39790 28394 70163
44437 28394 75380
29338 28394 73095
44433 28394 69145
21047 28394 69149
44844 28394 73659
32454 28394 71086
36513 28394 72499
44799 28394 72008
29365 28394 69253
16301 28394 70503
35813 28394 71763
26323 28394 69019
27168 28394 70419
18579 28394 69608
22811 28394 70710
38894 28394 74585
24228 28394 72306
35695 259 68624
47370 28629 61163
23455 860 69676
3531 28394 3980
3921 28394 3138
22786 28394 6437
6636 28394 5789
5341 28394 5254
9863 28394 3773
29922 28394 6135
6223 28394 6258
33787 28394 5637
35076 28394 6608
4670 28394 2067
14162 28394 3704
5375 28394 6106
19159 28394 6286
22542 29254 81824
4007 29254 37184
42799 29254 35067
31140 29254 35687
37258 29254 35129
11780 29254 37036
15296 29254 34971
97 29254 39954
17266 29254 37442
5489 29254 36490
33942 29254 34927
24163 29254 34722
2172 29254 37452
1470 29254 40782
17785 29254 38734
29471 29254 35805
15497 29254 38948
32864 29254 35382
16214 29254 38716
12960 29254 37590
3193 29254 35707
2263 29254 34690
16536 28394 82100
15621 28394 82313
5334 28394 25983
39027 28394 26558
25196 28394 25146
7442 28394 26420
3492 28394 25177
665 28394 27347
24222 28394 25617
8014 28394 25468
1023 28394 20690
8293 28394 27436
6186 28394 26730
7544 28394 25907
11594 28394 23061
18810 28394 23408
33968 28394 26051
13331 28394 27147
1347 28394 22937
9103 28394 26565
11624 0 13190
4354 28443 82430
13422 29254 81700
28837 14882 68403
28567 8869 68403
18233 1653 68403
32701 16771 68403
29800 14144 68403
34341 16275 68403
27066 9511 68403
32732 22078 68403
29235 1444 68403
23200 1884 68403
32037 4236 68403
21655 4549 68403
21270 7891 68403
27283 11466 68403
20679 4829 68403
30740 8544 68403
12058 1537 68403
31311 1000 68403
20066 6972 68403
25848 13799 68403
24514 11462 68403
27376 5530 68403
26644 4094 68403
34387 13572 68403
26828 13950 68403
28262 15601 68403
19245 4651 68403
34408 7902 68403
24750 3651 68403
32534 18517 68403
27012 2850 68403
28585 6645 68403
34197 12616 68403
34832 7100 68403
33468 19686 68403
23557 5598 68403
29387 5828 68403
24354 8537 68403
33506 21513 68403
30585 20554 68403
21639 6752 68403
25694 3680 68403
28896 13345 68403
35948 12692 68403
29154 13986 68403
10409 2955 13539
10334 13583 13274
24007 29254 51580
13703 29254 52568
22530 29254 51633
9081 29254 53770
5536 29254 51646
9883 29254 51336
20786 29254 50353
22299 29254 48559
10893 29254 49949
2790 29254 51418
1175 29254 49297
34385 29254 48745
5530 29254 48494
15739 29254 52023
5375 29254 49081
38248 29254 48353
1831 29254 54647
3116 29254 52593
6636 29254 51799
14639 29254 52662
15836 29254 49183
39946 29254 1000
35009 19760 12045
34480 15874 12045
31125 13889 12045
25231 9551 12045
33609 9269 12045
33637 4083 12045
35942 21094 12045
36198 6585 12045
28073 12728 12045
34877 17836 12045
36061 22700 12045
35358 13162 12045
34547 8691 12045
29875 9769 12045
35399 10380 12045
36411 16094 12045
29094 13585 12045
14713 3650 12045
17515 6044 12045
28373 7212 12045
20414 1602 12045
33276 10620 12045
29588 1886 12045
27121 5703 12045
34540 13884 12045
24377 8578 12045
35610 4962 12045
16196 5473 12045
28743 19330 12045
19803 4801 12045
35219 20603 12045
36456 13920 12045
27160 13153 12045
27260 12205 12045
17947 6750 12045
26433 10760 12045
28542 17466 12045
35447 6945 12045
25123 12584 12045
35048 1795 12045
8087 29254 9777
23735 29254 8570
9824 29254 8204
3571 29254 12421
12865 29254 11920
12446 29254 9151
3152 29254 11085
25936 29254 7725
19855 29254 10591
17038 29254 7360
29068 29254 9340
13163 29254 10477
6082 29254 8421
3309 29254 7495
36928 17580 14176
32112 19959 70554
29317 28323 70554
35707 27274 70554
32207 22984 70554
34943 9658 70554
33220 5924 70554
26501 27828 70554
32094 17822 70554
24247 23063 70554
29265 10472 70554
33443 17539 70554
31014 16052 70554
23390 19618 70554
30393 17431 70554
28421 10237 70554
20967 27579 70554
19319 27980 70554
19733 22804 70554
25651 19138 70554
25438 24494 70554
36069 14785 70554
35728 11468 70554
36182 2469 70554
13950 28168 70554
15875 26534 70554
36236 28312 70554
34988 3292 70554
28958 9822 70554
32364 22296 70554
21441 26526 70554
29054 9269 70554
34650 4683 70554
26605 17860 70554
35633 16310 70554
27614 13601 70554
31144 20913 70554
33274 10086 70554
33130 15600 70554
33850 13773 70554
17473 25465 70554
31351 16808 70554
13541 26568 70554
26739 22475 70554
33599 4303 70554
24698 18059 70554
20807 20681 70554
32611 29254 1591
40810 28394 860
37549 11491 12382
37649 7198 12513
34995 28836 82600
32033 29046 82600
46890 28891 16260
40336 28394 27671
43390 28394 30665
10138 28394 28527
38335 28394 29087
3601 28394 27503
40212 28394 30133
3216 28394 27867
14174 28394 28536
37187 28394 31204
29309 28394 27524
18494 28394 29590
30495 28394 29632
47976 28394 33135
23686 28394 30662
16799 28394 29672
40710 28394 31551
21168 28394 28815
15105 28394 27518
28818 28394 31323
28125 28394 28821
38791 28394 12456
10943 18041 12152
30434 29254 74751
38325 29254 73371
23051 29254 72800
38205 29254 71627
35995 29254 71518
35257 29254 71675
29070 29254 73612
22082 29254 74095
26535 29254 73847
3984 29254 75645
43755 29254 71291
35258 29254 73594
27802 29254 75173
27983 29254 72116
10760 29254 75324
24253 29254 73309
45575 29254 73671
37481 29254 73942
38441 29254 70918
37780 26348 69125
10779 25496 70353
40860 28394 9706
37621 28394 23649
46030 28394 22267
21722 28394 22862
13458 28394 21472
39562 28394 24408
15946 28394 22498
9286 28394 21739
23681 28394 21631
41434 28394 25205
9806 28394 20902
47499 28394 26521
37044 28394 25206
11723 28394 22169
40009 28394 25766
21720 28394 22106
40852 28394 25876
46198 28394 21302
43088 28394 23274
47738 28992 26736
37656 16839 70077
45047 28702 80543
45816 28913 7114
24903 26833 14197
29208 14847 14197
20621 24766 14197
26267 16995 14197
22536 19339 14197
31146 18012 14197
21248 26731 14197
30678 20114 14197
36116 10069 14197
19580 24262 14197
33876 20716 14197
28576 22959 14197
34633 12250 14197
35824 3604 14197
28559 23626 14197
22958 26502 14197
34449 18241 14197
32513 28117 14197
23814 15529 14197
27861 24736 14197
25403 16808 14197
34348 26678 14197
28415 21877 14197
34202 24180 14197
33132 20650 14197
36570 20599 14197
32652 18566 14197
23721 21468 14197
28033 23394 14197
27062 18729 14197
28715 17995 14197
22144 23627 14197
25526 24558 14197
18152 27083 14197
34807 24719 14197
20698 25271 14197
17822 22958 14197
21355 23171 14197
21490 21855 14197
30874 19444 14197
14090 27765 14197
26835 15734 14197
26378 7726 14197
21307 6889 14197
24778 12013 14197
17396 19819 14197
18674 19395 14197
13716 9258 14197
21186 2334 14197
16259 13911 14197
18542 5038 14197
32418 4282 14197
19763 17740 14197
20329 2126 14197
19769 8946 14197
15519 18373 14197
19595 15325 14197
13208 8091 14197
18873 2608 14197
23178 13084 14197
14961 24090 14197
20615 1387 14197
14507 18693 14197
20340 7240 14197
12770 13428 14197
23594 5292 14197
16462 15696 14197
16527 16347 14197
22135 1176 14197
12335 23247 14197
16898 2035 14197
24229 7878 14197
25647 8131 14197
11722 12711 14197
15058 19752 14197
19604 14708 14197
12723 6763 14197
21130 6399 14197
15105 12161 14197
11426 5139 14197
2272 28720 7704
29328 860 68469
43011 28394 8715
39644 28394 81288
34134 860 12083
16410 28394 1750
28138 28394 3538
28746 28394 2326
9866 28394 1732
39031 28394 3000
20781 28394 2615
33418 28394 3033
35529 28394 5468
39693 28394 1999
27760 28394 3049
40573 28394 2374
38755 28394 1717
15478 28394 2890
41883 28394 4799
10071 28394 2458
37066 4758 68446
11196 18119 70528
32717 29254 24592
8805 29254 26523
46090 29254 22778
26848 29254 25830
23029 29254 24830
23542 29254 24372
41155 29254 24236
40273 29254 24151
30682 29254 25474
26077 29254 25156
34738 29254 26480
45361 29254 25745
33971 29254 22947
42905 29254 27080
22869 29254 26022
39536 29254 22384
28665 29254 25385
42087 29254 23473
20224 29254 27441
43499 29254 23248
48063 29071 34057
3652 29236 677
8426 29254 81664
34839 741 69437
22830 28394 32894
11310 28394 32693
19334 28394 30599
7668 28394 33397
12230 28394 32312
3151 28394 28542
45044 28394 34217
12997 28394 32500
6277 28394 33800
23691 28394 33844
44297 28394 33982
21594 28394 30712
18215 28394 33261
20104 28394 30486
31136 29254 1345
10620 26016 13870
40304 28394 1304
20719 22760 12045
19153 11146 12045
12254 15377 12045
17573 19182 12045
11694 16134 12045
12162 10484 12045
20844 11275 12045
15131 19595 12045
20727 14897 12045
14051 10281 12045
14773 8960 12045
20997 17082 12045
13456 8269 12045
19368 17813 12045
12913 19510 12045
13943 3796 12045
35990 28165 12045
19036 23121 12045
19756 23596 12045
17915 13849 12045
15082 16790 12045
12851 28338 12045
14280 15066 12045
19799 11140 12045
21858 25601 12045
25405 26063 12045
15041 24781 12045
15800 18612 12045
17237 12772 12045
21588 12214 12045
30561 21932 12045
21829 19560 12045
18213 9193 12045
18574 11872 12045
15226 24138 12045
13366 18397 12045
12964 2707 12045
16760 26081 12045
12811 4721 12045
191 28394 37200
12318 28394 40367
15588 28394 39690
24414 28394 39953
125 28394 40859
21904 28394 40130
2004 28394 36645
6174 28394 37261
35530 28394 40140
12290 28394 37738
4925 28394 35513
13061 28394 39418
39271 28394 40572
26987 28394 38814
28941 28394 40286
19404 28394 38952
4146 28394 35959
2966 28394 35981
17821 28394 38883
24541 28394 39314
9811 28394 40795
32818 28394 72478
31200 28394 71821
33506 28394 72124
30503 28394 71111
34997 28394 69542
5279 28394 69073
31519 28394 70701
22017 28394 70026
6826 28394 68978
18740 28394 71041
35503 28394 69998
28711 28394 70901
40768 28394 72265
38361 28394 69272
39609 28394 71716
23544 28394 70370
39483 28394 69651
32242 28394 72988
48080 28523 47964
36783 29254 20870
4676 29254 23076
5317 29254 23220
4350 29254 25210
20245 29254 21902
1480 29254 26276
32420 29254 20593
2457 29254 21200
8486 29254 24917
9086 29254 23753
31606 29254 21978
12517 29254 24773
35275 29254 21425
15488 29254 20981
11797 29254 24441
466 29254 27057
7129 29254 23098
23035 29254 21179
17618 29254 24862
40054 29254 20671
30369 29254 21536
5564 28394 81329
10476 27165 13683
13533 28394 42777
44514 28394 41622
40485 28394 45161
36967 28394 41975
13916 28394 42427
9127 28394 41465
40210 28394 43408
25123 28394 42173
10520 28394 42739
24921 28394 43592
45415 28394 46882
31167 28394 45023
45797 28394 46267
30310 28394 43091
41788 28394 44219
24540 28394 42871
44337 28394 43185
2320 28394 41474
46315 28394 41869
47573 28976 24356
34683 29254 1336
10429 17243 13588
37076 6127 12093
38964 29254 54604
21938 29254 53627
41805 29254 54777
47612 29254 53834
42880 29254 53306
45121 29254 55116
31277 29254 52345
15367 29254 53699
42957 29254 49925
28740 29254 53042
22970 29254 52437
31992 29254 54058
47170 29254 52431
34052 29254 51936
30352 29254 55057
29362 29254 52833
43599 29254 54881
47391 29254 52944
45033 29254 50704
46017 29254 52045
10586 860 12593
15538 29254 80221
39930 29254 76601
41025 29254 77477
32385 29254 80510
37636 29254 77559
39178 29254 79382
25884 29254 79291
36689 29254 80553
28530 29254 79316
16781 29254 80721
32138 29254 78512
39654 29254 79150
39052 29254 80674
42731 29254 80399
1637 29254 23228
7896 29254 26285
18136 29254 20977
14197 29254 22087
5676 29254 20963
14101 29254 24997
3047 29254 21747
27371 29254 21410
22298 29254 22172
23026 29254 22106
6584 29254 24199
21757 29254 22247
19712 29254 24171
16068 29254 23438
35849 29254 21494
20980 29254 23629
22968 29254 22824
11135 29254 22822
34441 29254 21968
11040 12351 68469
35143 29254 58721
35984 29254 58218
28698 29254 61293
30264 29254 60319
41534 29254 58384
33693 29254 59292
42520 29254 56609
32291 29254 59522
38612 29254 59966
41963 29254 57994
37098 29254 58277
30933 29254 59118
36486 29254 61416
45575 29254 59802
12006 29254 60811
35139 29254 58152
24045 29254 59951
46389 29254 61220
18182 29254 59574
47302 29254 60503
4873 29254 61778
10821 16564 70385
34762 29254 18247
32011 29254 15935
34224 29254 17790
31199 29254 17240
7921 29254 20137
33523 29254 19254
28587 29254 20394
31115 29254 20207
42758 29254 14779
28917 29254 17487
44964 29254 14639
29471 29254 18903
44961 29254 20083
42197 29254 20500
25619 29254 20358
32595 29254 16064
32121 29254 18354
27449 29254 18170
22566 29254 17489
14837 29254 19240
19516 29254 28766
1257 29254 32874
20769 29254 28705
5620 29254 29986
15386 29254 30508
6456 29254 31112
8073 29254 27778
1808 29254 31460
6455 29254 33091
23488 29254 29242
28001 29254 28470
14190 29254 29036
6599 29254 29934
5831 29254 31190
4173 29254 31282
29696 29254 27581
22933 29254 28491
18672 29254 30545
16522 29254 29062
30117 29254 28239
13812 29254 29521
37202 8399 68502
39104 28394 31927
47582 28394 28185
43807 28394 28484
25403 28394 28836
28076 28394 27665
39376 28394 29667
14433 28394 29408
41823 28394 31540
22569 28394 28165
47243 28394 29818
40227 28394 29176
42873 28394 30851
46775 28394 31142
36435 28394 29963
43664 28394 27744
46118 28394 33035
43441 28394 29084
27478 28394 30501
19944 28394 29350
36073 0 12887
16427 7057 68403
15549 27429 68403
14507 9400 68403
13591 19026 68403
14468 12775 68403
13191 5049 68403
27289 21882 68403
16059 8397 68403
13473 4054 68403
20347 22972 68403
28533 24289 68403
17967 12356 68403
21775 21308 68403
17772 7933 68403
16642 13774 68403
19299 27893 68403
20061 27982 68403
21171 13293 68403
23506 18895 68403
17615 16513 68403
21382 17229 68403
13825 17028 68403
28901 21518 68403
26755 25070 68403
12330 22088 68403
21946 26980 68403
13479 6677 68403
30945 27215 68403
12156 18762 68403
23249 14246 68403
12287 5624 68403
25092 25849 68403
17369 28008 68403
19773 11714 68403
21524 26103 68403
15141 16073 68403
25661 25743 68403
25833 27631 68403
15982 19601 68403
12188 13059 68403
20076 12418 68403
30868 25747 68403
18598 16967 68403
14966 5163 68403
24248 23499 68403
18467 27664 68403
16256 860 12800
12134 28394 38752
28409 28394 41130
20118 28394 37430
40403 28394 40442
7426 28394 38721
34618 28394 40514
8198 28394 39854
6041 28394 38165
2869 28394 38500
17765 28394 37869
20593 28394 40683
6594 28394 39433
30699 28394 40827
26254 28394 39306
14295 28394 39052
9141 28394 37328
15138 28394 38232
12240 28394 39357
30275 28394 40410
28710 28394 39493
11573 29254 81859
17073 29254 5442
33318 29254 6738
33595 29254 4203
26808 29254 6550
40920 29254 3918
34271 29254 4049
43969 29254 6774
38408 29254 3480
21785 29254 4972
27138 29254 5277
37388 29254 6052
30727 29254 6455
32458 29254 3710
36810 17428 70549
21641 28394 1074
40801 28394 22482
22656 28394 21808
19603 28394 20694
28208 28394 21366
34184 28394 22427
31367 28394 21860
33731 28394 22107
26439 28394 22449
13474 28394 22375
27435 28394 23953
44511 28394 21630
46503 28394 25972
35224 28394 22185
31063 28394 24328
35752 28394 25640
24396 28394 21545
1713 28394 20596
41726 28394 24190
27881 28394 23067
28901 860 70122
37354 4304 14019
24897 29148 82600
9653 29166 82600
10606 24746 68749
20038 28394 14761
31091 28394 17335
41774 28394 17494
24347 28394 16328
31795 28394 16966
34030 28394 18013
43460 28394 19344
15958 28394 14793
38397 28394 18716
16793 28394 14302
27941 28394 15909
10605 12042 13851
11070 20605 70500
11620 29254 18665
40545 29254 13758
27480 29254 15178
3072 29254 14253
20029 29254 14681
34673 29254 14894
3638 29254 14245
16276 29254 13826
30536 29254 14015
7743 29254 15091
24025 29254 16970
11106 29254 16739
14956 29254 14236
14788 29254 14915
5386 29254 19198
5790 29254 15280
19215 29254 15595
25689 29254 14961
11895 29254 14053
23113 29254 13780
6670 29254 13831
14647 29254 74514
26804 29254 73068
28485 29254 72014
26924 29254 75079
41375 29254 69859
21586 29254 73640
16531 29254 74406
33925 29254 72957
45817 29254 71521
23276 29254 73439
12345 29254 74564
30438 29254 75418
40912 29254 72300
24755 29254 73979
34571 29254 75231
35655 29254 70906
35016 29254 70775
35413 0 69737
1126 29210 64843
44971 29177 1605
42969 28394 67255
31047 28394 65924
32802 28394 66661
14792 28394 62768
29022 28394 65765
11118 28394 62397
37289 28394 63175
32717 28394 62414
43849 28394 63830
34191 28394 62754
37751 28394 66893
30581 28394 65631
19202 28394 64242
38928 28394 65404
39891 28394 64290
25782 28394 62995
44574 28394 63205
45003 28394 62178
13048 29254 398
36002 29254 80920
37477 11225 70282
37828 6612 69627
4451 29254 81541
12019 268 70209
8714 29254 81140
10995 29254 1598
37508 28345 12342
39442 29254 32028
39867 29254 30271
31584 29254 34208
27716 29254 32628
41152 29254 30534
11318 29254 32945
39689 29254 29000
14983 29254 32720
20059 29254 34256
41627 29254 29721
30563 29254 32801
36243 29254 33722
33864 29254 33809
13751 29254 32493
41966 29254 32986
43030 29254 29421
47768 29254 32629
40063 29254 32005
10370 29254 34275
32568 29254 32559
26993 29254 34058
38460 29254 33870
38133 29254 31046
19601 29254 17262
23048 29254 17006
1535 29254 15606
13113 29254 16235
1256 29254 18051
33579 29254 15535
15362 29254 16998
10475 29254 17922
26690 29254 15950
4080 29254 17623
7361 29254 15514
12075 29254 15307
21309 29254 16707
27344 29254 16286
31812 29254 15131
29181 29254 14258
9209 29254 15277
28810 860 69057
10341 29254 36973
20669 29254 36502
28765 29254 35775
6187 29254 35710
14090 29254 36034
3143 29254 39006
8613 29254 34413
16768 29254 34920
8110 29254 36554
8301 29254 35558
3678 29254 40179
21546 29254 37551
2710 29254 37729
4283 29254 37915
322 29254 40895
9545 29254 37397
22211 29254 37065
17990 29254 35277
8884 29254 37138
10888 29254 58662
37224 29254 55673
2502 29254 61752
5579 29254 60153
3579 29254 57169
36036 29254 55664
8165 29254 59091
5250 29254 58881
6361 29254 57918
8096 29254 56209
29020 29254 55132
6603 29254 59230
16329 29254 56086
6533 29254 55584
27116 29254 55482
19647 29254 56768
13454 29254 59513
2851 29254 55659
43343 28530 82568
33752 29254 60103
23341 29254 60765
45810 29254 58529
47393 29254 56246
40968 29254 60443
31305 29254 61486
43616 29254 56836
15880 29254 60509
37212 29254 59973
17858 29254 60721
26325 29254 59273
37944 29254 59165
40543 29254 61496
35568 29254 60528
36515 29254 58856
16585 29254 61556
6891 29254 1253
46754 28394 37299
38477 28394 36998
37072 28394 39504
42460 28394 39268
29747 28394 38290
36052 28394 34600
30910 28394 37396
26297 28394 35643
10065 28394 35380
44242 28394 36660
41010 28394 37563
43449 28394 39030
39633 28394 36646
46390 28394 40380
21318 28394 34530
23581 28394 34924
37093 28394 37623
6560 28394 34451
15459 28394 34409
46413 28394 35001
38627 28394 36274
48090 28684 35331
45987 29033 74116
10508 10526 70081
20184 10760 68403
16224 6574 68403
11412 21926 68403
14372 21660 68403
16475 23954 68403
17518 12649 68403
32347 25774 68403
26420 25677 68403
17817 27657 68403
23453 23389 68403
14328 13621 68403
12215 6583 68403
20904 19746 68403
28411 21734 68403
27342 23340 68403
31319 28066 68403
24659 26566 68403
13481 25342 68403
14013 23856 68403
27343 19827 68403
17322 17486 68403
17879 14958 68403
20471 13170 68403
22494 13135 68403
23988 20084 68403
11695 15141 68403
17121 11232 68403
26556 26844 68403
24199 20643 68403
24914 22230 68403
15846 22247 68403
34068 26733 68403
15576 23505 68403
21797 20508 68403
22669 15612 68403
20889 12159 68403
19465 22779 68403
28249 20867 68403
33274 24936 68403
12861 15229 68403
10438 15173 68990
20812 29254 81497
34911 860 13975
32934 29254 43060
11966 29254 41369
28591 29254 41508
11840 29254 45214
15212 29254 44472
20892 29254 44900
6911 29254 43330
23277 29254 43975
2347 29254 44999
5098 29254 42130
30519 29254 42534
3833 29254 41652
3657 29254 43782
22027 29254 41454
24845 29254 42637
33935 29254 42817
717 29254 43347
37691 22553 12568
45016 29254 29991
26931 29254 30509
43752 29254 29098
45146 29254 31880
24670 29254 32576
8961 29254 33454
44437 29254 28033
41450 29254 29132
40823 29254 28681
42130 29254 28852
17806 29254 32834
23350 29254 31658
39927 29254 29659
36360 29254 32582
22703 29254 33793
18562 29254 34108
45422 29254 33101
34236 29254 33251
8878 28394 82446
36946 19628 12069
10403 10763 69075
42756 29254 77232
33963 29254 80315
22112 29254 79014
39506 29254 77838
34890 29254 79122
9153 29254 80725
37592 29254 78303
22548 29254 80481
28172 29254 80284
38152 29254 80590
44350 29254 80332
20214 28394 151
2965 28594 79562
23053 29254 70678
6537 29254 69665
18966 29254 69129
2344 29254 74411
8092 29254 71815
4216 29254 69733
32495 29254 68913
7835 29254 74743
8761 29254 72040
34958 29254 69344
5222 29254 70054
19992 29254 72882
18533 29254 72716
6214 29254 73840
18452 29254 71754
13207 29254 70781
22065 29254 70868
18373 29254 69956
5703 29254 71734
8786 29254 72992
23109 28394 903
18381 29254 888
37813 11379 69740
37603 15345 70147
11801 29254 81052
22673 28394 43050
27966 28394 41634
42561 28394 42864
42262 28394 45353
19421 28394 41743
26462 28394 42324
11890 28394 42673
14097 28394 41942
36954 28394 46412
31481 28394 41889
47565 28394 46577
4531 28394 41617
41235 28394 43302
41051 28394 44223
28974 28394 43947
30121 28394 45606
23363 28394 42436
26738 28394 44807
40054 28394 42581
22459 28411 0
40247 28785 0
19322 860 70001
46022 28394 14286
40548 28394 15845
43940 28394 17594
44596 28394 16075
38693 28394 14944
40987 28394 14294
41387 28394 15335
45386 28394 17071
22131 28394 78775
29470 28394 80028
10640 28394 78790
4346 28394 78312
7096 28394 78549
5999 28394 80873
11888 28394 78994
26597 28394 80295
6228 28394 77279
4294 28394 80662
27657 28394 80480
9738 28394 79623
10763 860 13096
36061 28394 6298
22408 28394 4461
25429 28394 5460
9089 28394 4721
19309 28394 4117
24625 28394 4551
41384 28394 6754
38308 28394 5947
13911 28394 5767
29180 28394 6248
3452 28394 2588
16316 28394 4660
5425 28394 4159
16509 28394 318
26669 28394 208
30239 29254 17897
46606 29254 15414
21987 29254 17530
23474 29254 17586
39820 29254 15174
26675 29254 18251
46580 29254 20490
45844 29254 14731
4513 29254 20212
26765 29254 16957
15515 29254 19880
34535 29254 16282
26897 29254 19160
33159 29254 20013
39251 29254 17975
11180 29254 19537
14670 29254 19919
39272 29254 19228
36612 29254 18647
26273 28394 81784
22106 860 13686
36854 25359 70543
11134 9877 70520
7337 29254 81266
5457 28394 55190
31575 28394 57453
26012 28394 56239
41637 28394 59267
35917 28394 58039
44716 28394 58780
12960 28394 56755
41634 28394 60390
43843 28394 61158
26193 28394 57923
26705 28394 55391
47183 28394 57249
39575 28394 55817
39970 28394 59047
25018 28394 55145
16044 28394 56735
34740 28394 59581
38214 28394 56996
30698 28394 57587
48130 28844 44368
10845 20308 12195
11129 26510 14163
12417 29254 697
9256 29254 81747
13157 28962 82600
36907 10712 14179
10807 25389 12225
14515 28394 14936
39317 28394 19261
40485 28394 10616
39811 28394 601
32128 29254 82102
11262 4929 68420
13258 671 12805
14353 29254 72409
21006 29254 70226
2905 29254 75167
42961 29254 69359
7195 29254 71348
14892 29254 69020
17825 29254 69553
36937 29254 69329
39976 29254 69749
7680 29254 72815
28000 29254 71441
13975 29254 73150
15503 29254 71316
5504 29254 74053
19270 29254 71744
30271 29254 69919
36148 29254 70146
37510 9516 13899
14230 29254 75932
9625 29254 76687
9303 29254 78699
11595 29254 75804
35272 29254 76417
18953 29254 75847
7347 29254 79384
16992 29254 78884
6310 29254 79865
5729 29254 76290
25393 29254 76364
34304 29254 75964
12910 29254 79376
7042 29254 78731
24869 29254 77165
34932 7636 70554
26770 11793 70554
31126 14184 70554
30469 11343 70554
24342 26875 70554
22126 21018 70554
33567 11228 70554
30664 18295 70554
34458 24241 70554
28719 13540 70554
25515 19917 70554
22282 27371 70554
32275 15067 70554
36549 20645 70554
36551 23899 70554
27754 26297 70554
26441 12444 70554
24851 27248 70554
30558 9388 70554
33881 9332 70554
17783 24103 70554
32430 27782 70554
34718 13283 70554
31510 22757 70554
19165 27177 70554
16252 27181 70554
31223 11847 70554
25620 22719 70554
35716 8469 70554
27117 21697 70554
28449 17748 70554
29681 26600 70554
23996 17549 70554
25961 16305 70554
37749 7994 13548
34938 29254 876
10333 15978 69620
10340 15959 13314
36814 26864 14191
6681 29254 68087
4695 29254 65938
32957 29254 63863
22327 29254 62119
19235 29254 63160
1445 29254 62722
27979 29254 64067
25483 29254 63247
18204 29254 62812
10795 29254 63869
9936 29254 63074
1956 29254 66177
9848 29254 65809
2661 29254 64290
37613 29254 62149
41807 29254 62027
9164 29254 65254
6164 29254 62369
18906 29254 64040
15284 29254 63233
41942 29254 81337
4454 29254 1432
47930 28777 30866
28065 29254 82187
31304 860 69776
0 28560 42057
21295 29254 49127
12114 29254 53071
7996 29254 50222
35217 29254 48960
32799 29254 48888
4576 29254 49914
24001 29254 49572
20940 29254 49561
28380 29254 49418
27960 29254 50958
1247 29254 54208
29171 29254 48939
9128 29254 48985
42159 29254 48646
8389 29254 51797
39400 29254 48422
36031 29254 48549
17963 29254 49909
30688 860 12986
11267 28268 12061
16528 28394 72220
7908 28394 70836
11343 28394 75174
10676 28394 74945
14645 28394 72869
7309 28394 73102
21068 28394 72040
21054 28394 74920
16005 28394 72948
8142 28394 74927
28178 28394 73850
10816 28394 71662
24497 28394 73113
12086 28394 73568
6663 28394 73295
15787 28394 73983
8350 28394 70363
47388 29254 47572
45770 29254 43500
39332 29254 47068
23793 29254 45599
19063 29254 48099
16025 29254 46701
38364 29254 44371
36776 29254 43233
41689 29254 47359
34003 29254 44876
26037 29254 44923
44969 29254 47303
46462 29254 42459
17168 29254 46185
12206 29254 47343
14516 29254 48012
34796 29254 47395
15354 29254 47272
37937 29254 43100
39953 29254 46940
24598 29254 45106
11534 29254 47996
33818 29254 46448
71 29085 35445
11639 28394 66120
23916 28394 66045
7406 28394 66982
13465 28394 64695
3770 28394 68576
8836 28394 66937
19141 28394 67609
10810 28394 63871
5100 28394 63731
13868 28394 67847
32495 28394 67723
7682 28394 67429
19143 28394 65361
3275 28394 63661
27795 28394 67505
1963 28394 68516
6787 28394 65149
35180 28394 67311
37662 8589 13713
515 28776 57181
35522 28394 1675
37336 6636 68567
10665 3617 68691
37638 27224 13744
10444 15016 12619
35089 29254 82132
39347 28394 3437
42455 28394 4582
31056 28394 4566
25442 28394 3482
45014 28394 4839
31621 28394 2717
18616 28394 3464
19674 28394 2774
28789 28394 4655
26507 28394 3508
18429 28394 2661
29147 28394 3390
10321 27631 69427
2589 28671 77118
32718 29254 47337
40859 29254 44613
42199 29254 47446
19969 29254 45416
15223 29254 46432
43822 29254 47383
35653 29254 44258
36763 29254 46247
42505 29254 42727
41994 29254 46837
42540 29254 45254
43894 29254 42294
32245 29254 43632
30958 29254 46540
33541 29254 45518
27993 29254 47831
44196 29254 44994
41367 29254 44150
47957 29254 46387
32134 29254 44131
41832 29254 12545
21632 29254 13568
33248 29254 12098
39111 29254 12460
25775 29254 12169
20392 29254 11258
27210 29254 11790
23045 29254 10798
28474 29254 9896
37444 29254 13474
32791 29254 11390
40139 29254 10806
30634 29254 9619
40839 29254 8385
36129 29254 8340
34921 29254 13565
32276 29254 10503
29079 29254 10096
44934 29254 12276
45334 29254 9228
6551 28394 1256
14899 28890 0
2142 28394 19598
30703 28394 18870
19677 28394 20182
34202 28394 19461
28030 28394 19855
30731 28394 20321
27920 28394 18859
20643 28394 16749
18310 28394 17256
4229 28394 16841
6919 28394 17626
4142 28394 16199
7683 28394 16407
19421 28394 17165
7638 28394 19503
6199 28394 18606
23526 28394 18863
17486 28394 19623
6949 28394 15222
7214 28394 18861
36990 6256 68431
32003 860 70202
37824 13143 69656
37246 9806 70436
12084 28394 15982
10507 28394 17476
19340 28394 19655
7956 28394 19994
37369 28394 20106
40220 28394 20317
15248 28394 17518
19344 28394 18865
15900 28394 17521
5355 28394 15014
18885 28394 17848
3255 28394 14574
3493 28394 15145
4056 28394 20283
14975 28394 20396
9466 28394 19991
23444 28394 17090
2736 28394 18365
20287 28394 18566
29913 28394 20550
3666 28394 12844
3223 28394 9455
2192 28700 74264
32621 860 12448
26164 29254 38992
32397 29254 37389
18071 29254 41004
46553 29254 35699
29772 29254 40427
36707 29254 41178
38624 29254 37007
37447 29254 37549
43322 29254 39476
44016 29254 34992
43010 29254 36071
41908 29254 38114
18645 29254 40974
13096 29254 41072
28893 29254 37918
28082 29254 38125
41170 29254 37769
43740 29254 39079
38520 29254 38533
14436 29254 39751
20724 29254 39180
40962 29254 40082
8614 29254 65615
7343 29254 67956
24399 29254 64913
1533 29254 67139
7288 29254 62782
1864 29254 64909
33189 29254 63291
8272 29254 62404
13439 29254 63755
39239 29254 63082
10283 29254 65519
3460 29254 66585
13028 29254 64072
32078 29254 64074
11806 29254 62654
1844 29254 62224
7071 29254 64730
21840 29254 63774
10921 29254 66724
32701 29254 36844
42342 29254 35822
30795 29254 38217
18060 29254 39281
35926 29254 37816
46676 29254 41155
32897 29254 38069
43565 29254 36280
38562 29254 39097
44627 29254 41063
34437 29254 36964
33990 29254 37461
45073 29254 35507
46545 29254 34673
47134 29254 34904
29618 29254 37348
36553 29254 39568
14227 29254 40549
29804 860 12216
18304 29254 3951
43775 29254 1814
11128 29254 3797
27443 29254 2504
19936 29254 1983
10455 29254 5555
12228 29254 3289
27232 29254 3647
34048 29254 2941
10030 29254 4046
12686 29254 2253
25950 29254 3377
18087 29254 2377
6270 28394 61372
3954 28394 57941
19246 28394 59282
7308 28394 60381
12771 28394 59193
6466 28394 57849
27213 28394 59504
1787 28394 56982
11697 28394 60419
2094 28394 58540
15548 28394 57986
4050 28394 59610
26727 28394 61111
8505 28394 57730
33831 28394 61454
9568 28394 59676
17761 28394 59832
36526 29254 66219
44105 29254 62945
27044 29254 68382
20872 29254 68232
38033 29254 65394
30646 29254 65463
14211 29254 68138
44578 29254 67583
45972 29254 68175
38515 29254 66119
42702 29254 63389
22507 29254 66906
45242 29254 64123
34694 29254 68387
45277 29254 66298
24580 29254 68376
18762 29254 66925
32134 29254 65327
25020 28539 0
36508 28553 0
21447 28560 0
11373 17156 12048
4752 29254 32184
37293 29254 28702
15152 29254 31872
8134 29254 28285
38647 29254 27756
3293 29254 32095
7066 29254 32539
2770 29254 28979
28457 29254 28740
29811 29254 29610
12948 29254 30445
20516 29254 30841
27750 29254 27999
8656 29254 27922
14197 29254 27616
1787 29254 33764
21739 29254 29266
36349 29254 28444
5288 29254 507
37642 2435 13739
31 28710 44255
29144 28394 81506
10370 28394 81065
12325 860 70468
21380 28394 7927
17779 28394 7916
40608 28394 7315
18673 28394 7540
36440 28394 10853
28343 28394 8508
32103 28394 10820
23948 28394 6945
31149 28394 7568
11952 28394 7202
39868 28394 10158
32250 28394 7113
28131 28394 7160
17237 28906 82600
24413 29254 598
6399 28394 81704
1447 28921 68155
47992 28671 50259
20177 28394 15493
36399 28394 16184
41491 28394 18308
26203 28394 15172
31184 28394 16816
35619 28394 16804
34153 28394 15932
34130 28394 17243
16763 28394 53811
37399 28394 54296
33348 28394 54245
4920 28394 51716
36385 28394 53712
702 28394 53159
28708 28394 52928
1741 28394 52813
19535 28394 53814
549 28394 50496
7785 28394 49610
30620 28394 53152
1500 28394 53587
43958 28394 54850
4781 28394 52993
26089 28394 54044
3484 28394 48809
28199 28394 54049
26007 28394 52667
6589 28394 52302
18553 28394 54711
14631 28394 52575
28824 28394 34887
43850 28394 40229
27096 28394 36534
17577 28394 36197
18403 28394 34641
32631 28394 35709
36118 28394 37969
13719 28394 35699
26815 28394 35097
19626 28394 34399
21769 28394 36652
29786 28394 35635
40527 28394 38743
35559 28394 36285
31151 28394 36778
32551 28394 38804
31780 28394 37140
31572 28394 38497
33869 860 69578
42838 28394 52332
37728 28394 53448
41978 28394 52267
17820 28394 49849
13026 28394 48634
14901 28394 50144
34110 28394 50051
23621 28394 49046
28313 28394 49541
23229 28394 50836
43522 28394 50967
16567 28394 49336
27199 28394 51500
40307 28394 49016
13390 28394 49780
24783 28394 49165
9303 28394 49363
40776 28394 51194
22194 28394 49316
37354 28394 49753
13243 28394 49144
17948 28394 49049
1492 28633 13998
6821 28394 9458
12251 28394 1236
3185 29094 1632
37672 10689 70057
6650 28394 8740
7412 28394 7874
12610 28394 10921
4267 28394 7854
12445 28394 8884
31016 28394 11734
9386 28394 9493
18969 28394 10921
46399 28697 11766
30010 28394 81624
46250 28394 48211
23683 28394 46051
32682 28394 47410
23647 28394 45434
17321 28394 46855
1117 28394 42530
16303 28394 45050
15091 28394 47191
12060 28394 48026
7317 28394 45440
382 28394 43773
24786 28394 45633
2843 28394 41976
609 28394 47389
30703 28394 46237
2660 28394 46512
24869 28394 46745
12736 28394 48013
3706 28394 42821
20309 28394 46729
1983 28883 10012
34898 28394 402
36969 29254 81067
47788 28883 55147
39409 28394 54572
30977 28394 53766
1475 28394 49505
8067 28394 53832
35104 28394 54723
10405 28394 51491
9853 28394 54721
12810 28394 53032
36410 28394 54921
36194 28394 54324
2734 28394 53693
10999 28394 54149
12957 28394 53938
9552 28394 53702
8215 28394 50924
14593 28394 54434
16364 28394 51742
11635 28394 50312
19355 18327 70554
17658 10725 70554
12786 7393 70554
24792 7935 70554
21958 16239 70554
12866 2173 70554
15265 9104 70554
12531 5792 70554
23825 2739 70554
22835 5115 70554
15068 23936 70554
11640 27898 70554
22530 8352 70554
13218 16292 70554
23322 10577 70554
16965 8657 70554
16911 5934 70554
21592 8114 70554
20654 10781 70554
31001 1769 70554
15937 17764 70554
25496 6261 70554
19388 7412 70554
13541 25620 70554
13706 8363 70554
20480 16354 70554
18994 2621 70554
12148 26714 70554
21624 5544 70554
35193 905 70554
24699 3985 70554
14876 19680 70554
12481 13975 70554
16696 16186 70554
17793 19748 70554
19649 5025 70554
17616 9236 70554
20061 10304 70554
13927 19055 70554
11780 15897 70554
16167 14063 70554
15762 14686 70554
