ply
format ascii 1.0
element vertex 2765
property float x
property float y
property float z
end_header
8632 38726 67607
36142 41372 65693
36787 41372 40638
36444 41372 66976
36238 41372 68316
36500 41372 72528
39343 37910 51611
39343 38491 57006
39343 37301 37565
39343 36270 42748
39343 36475 31540
39343 37919 54489
39343 37428 47326
46758 39996 67693
47670 39996 67638
9275 33771 23940
9275 36645 41292
9275 38055 43945
9275 35004 34751
9275 36335 39122
9275 36235 33950
9275 32762 38554
9275 33589 34511
9275 33325 29834
9275 34144 36514
9275 32948 29237
9275 32285 43944
9275 32780 49037
9275 34274 49881
9275 34319 34150
9275 32563 60775
40739 19751 6451
41378 30875 6451
38421 27324 6451
40499 15505 6451
41442 13083 6451
40479 30103 6451
37935 38387 6451
37459 35324 6451
39971 35901 6451
40148 16425 7742
39649 28080 7742
39705 32258 13406
39973 32258 23779
40106 32258 17168
15453 32633 68388
29389 32804 68388
29042 34512 68388
21082 33819 68388
34709 32989 68388
30804 34511 68388
26131 35002 68388
23098 33276 68388
2084 40082 39861
3995 40082 40769
41535 24027 10441
41535 31339 11429
41535 16388 10524
41535 33510 11379
41535 9777 11081
41535 26450 10857
41535 21737 10643
15933 41372 64869
18387 41372 48770
17220 41372 52342
18611 41372 73135
16138 41372 66037
19281 41372 77220
16287 41372 68164
16092 41372 31113
18830 41372 62495
15838 41372 33183
18479 41372 51613
15948 41372 71478
17078 41372 61042
18248 41372 60100
17337 41372 45504
15631 41372 19778
16308 41372 35940
15546 41372 31516
17794 41372 46789
19496 41372 70077
16279 41372 17715
42388 4934 68062
42388 2210 67987
42388 29051 66298
42388 11538 67185
42388 37148 66152
42388 4789 65886
42388 20752 67610
42388 3605 68744
42388 3073 65076
39205 13086 7742
37511 26222 7742
38879 16061 7742
38312 24910 7742
39732 6130 7742
8040 40082 1349
6304 40082 1008
8338 1046 64517
8490 22281 64517
40699 725 69678
40918 8383 69678
44896 38792 38539
41517 38792 40758
20605 32862 7742
14859 37678 7742
22328 34989 7742
21714 32908 7742
15281 34327 7742
15446 36999 7742
24610 35243 7742
13308 34660 7742
40167 40082 3785
41869 40082 847
47900 39718 10441
17662 39996 69215
4807 39996 70389
23677 39996 69760
22412 39996 68246
16425 39996 68099
14189 39996 70463
244 39850 11517
46018 38710 7261
2760 38768 68213
6382 38776 67831
36373 24620 7173
36373 32927 6715
36373 37811 6716
6765 41372 34185
5416 41372 12935
47378 38792 38194
45461 38792 38432
45909 38710 10563
46527 38710 8238
36663 38729 66179
40772 39452 66179
30267 33264 68388
26554 33112 68388
15669 33272 68388
34108 34410 68388
30024 35038 68388
29501 34909 68388
33474 34174 68388
31545 33226 68388
40962 37176 69678
1190 40082 21320
1707 40082 24843
2459 40082 16211
1019 40082 20036
531 40082 31791
285 40082 23015
43206 39229 11613
36373 14572 7049
36373 1360 6790
39343 36216 21951
39343 33856 12183
39343 36665 22858
39343 38638 15336
39343 38465 27669
39343 37864 12845
39343 35002 11851
39343 34991 11038
39343 36511 14740
17824 33656 69678
29670 37851 69678
28360 37134 69678
23986 36143 69678
17213 34553 69678
19555 36373 69678
24230 38024 69678
30832 37116 69678
47900 40095 38356
46145 38710 68422
11540 38849 66179
1142 41372 14908
4188 41372 42300
3673 41372 26497
1838 41372 12250
4245 41372 31111
1940 41372 23656
1430 41372 5923
4028 41372 58080
4827 41372 12971
3269 41372 32309
3582 41372 4480
2683 41372 28358
4567 41372 37048
4424 41372 57101
4950 41372 24275
9275 6040 68439
9275 11299 68366
9275 17790 68780
9275 4312 68674
9275 1473 66224
9275 23978 68873
9275 8868 68599
9275 37614 33943
9275 35225 24632
39270 38710 8384
37573 38466 7742
46040 40848 77420
14962 41372 64104
12713 41372 31380
13164 41372 5210
13360 41372 44288
11899 41372 2251
14018 41372 55585
14442 41372 64200
12042 41372 14217
14028 41372 11198
14077 41372 19815
13929 41372 42905
14589 41372 58675
14880 41372 9840
14034 41372 22643
14423 41372 57500
12127 41372 5135
13799 41372 27935
11958 41372 13006
14979 41372 51592
7632 38710 6478
3714 38710 7547
2831 40082 35743
3575 40082 36612
1515 40082 30986
3414 40082 26348
4678 40082 29860
4650 40082 18890
24632 41372 44042
24588 41372 34888
21754 41372 14681
23145 41372 9810
24500 41372 47440
23856 41372 12394
21472 41372 13611
23891 41372 21022
23122 41372 29191
23518 41372 9414
24058 41372 20360
24066 41372 54855
25042 41372 52693
25239 41372 56045
24279 41372 26459
22617 41372 18205
23421 41372 39958
25441 41372 16896
22375 41372 9170
24212 41372 18172
8162 25374 12258
8416 35711 12258
8159 16698 12258
18243 40082 73219
19453 40082 72112
36781 40082 54394
28081 40082 61535
35763 40082 54230
27481 40082 63882
14649 40082 76316
14946 40082 73427
16720 40082 74900
40843 13389 69678
41133 24096 69678
42573 38710 6764
20742 38792 38700
18289 38792 40946
26881 38792 39571
22306 38792 40122
14153 38792 39307
9297 38792 41889
27004 38792 38132
38607 32377 69678
6676 38792 39826
4627 38792 42532
8334 38792 40286
29563 41372 323
29277 41372 48036
30336 41372 69608
29931 41372 43373
29192 41372 14342
30392 41372 51400
29711 41372 31857
29583 41372 24294
26662 41372 13741
27323 41372 3810
29618 41372 23599
29521 41372 26805
30515 41372 65574
26311 41372 5581
29083 41372 43662
29027 41372 25215
29160 41372 30159
29829 41372 4934
29975 41372 55518
29834 41372 34728
18086 39050 11613
39934 38710 45459
39994 38710 51144
7986 15437 70868
7986 36790 70222
7986 38128 70188
7990 37373 12258
9095 28470 12258
5816 40082 66314
7566 40082 64576
7675 40082 69790
6736 40082 58182
9262 40082 72126
5862 40082 62321
9322 40082 77362
5865 40082 73818
31656 40082 6831
40671 40082 9814
39653 38710 26709
47900 40406 23551
47900 40198 27799
43318 40082 4711
42746 40082 1489
7986 10517 6899
13081 29198 70969
8198 664 70969
10701 2389 70969
12470 28886 70969
9804 4919 70969
12302 29544 70969
11947 2557 70969
11080 18374 70969
12762 10136 70969
47900 40292 52820
47900 40873 75874
47900 40161 49370
32943 40082 40775
32158 40082 38257
13945 40082 38405
45177 40082 39034
37291 40082 41188
45679 40082 39860
45951 40082 41326
30315 40082 39930
45661 41372 30592
45958 41372 10078
45266 41372 14878
43635 41372 15721
46329 41372 34097
45702 41372 32478
44449 41372 22270
44481 41372 8311
47018 41372 57867
47151 41372 28712
45220 41372 9920
46385 41372 51397
45089 41372 16448
45808 41372 40736
44918 41372 6227
46878 41372 36521
45428 41372 4816
44367 41372 5810
45746 41372 15188
47619 41372 66314
47602 41372 3320
47528 41372 58268
11718 38710 10330
35879 38710 11430
29041 38710 11003
27838 38710 11356
13704 38710 11024
29543 38710 10708
39343 35348 9862
7986 13553 65548
7986 7265 69006
7986 21542 66625
7986 8736 68476
7986 2051 68358
7986 14335 67994
7986 22497 67403
7986 8456 67617
7986 7443 65894
7986 27459 66788
9275 36049 26623
9275 34490 18094
9275 38252 33013
9275 36974 17094
9275 34450 14092
9275 37146 30754
9275 38460 20507
9275 38597 24344
9275 38617 27820
38824 38148 69678
32370 40950 77420
18553 40082 71613
11952 40082 75891
13199 40082 75438
25210 40082 63825
31869 40082 57811
22440 40082 69494
11679 40082 76878
23126 40082 67388
11593 29643 6451
12447 13690 6451
10059 26760 6451
11282 26485 6451
11590 38273 6451
12538 30378 6451
11950 34244 6451
13049 2373 6451
12190 25393 6451
12758 5932 6451
47498 39278 6451
42388 31877 67039
42388 32874 68028
42388 34265 67223
42388 26181 69464
42388 26592 67873
42388 28527 67790
42388 30235 68152
25798 39026 70969
7672 39360 70969
31878 40082 67656
38543 40082 61028
27213 40082 76106
30198 40082 76496
27458 40082 76803
27435 40082 75270
31674 40082 74923
45335 40082 47497
34766 40082 63506
27265 38996 11613
31779 38869 11613
930 40082 8911
963 40082 8271
47900 40147 8308
35742 38710 70257
4030 40082 6160
4823 40082 5553
11890 11625 70969
12222 17589 70969
11723 5946 70969
11927 21268 70969
12960 12471 70969
12173 6511 70969
11476 10158 70969
12499 27013 70969
12779 9246 70969
40391 40082 2499
35955 35040 7742
31093 38027 7742
30403 38457 7742
16899 37788 7742
20942 38582 7742
32640 34650 7742
4200 40689 0
46928 40082 66219
46937 40082 55216
46271 40082 72866
43657 40082 70090
44666 40082 66098
46700 40082 75179
46226 40082 60681
45959 40082 67567
46504 40082 62734
39707 40254 77420
35865 40200 77420
39582 38710 49972
7986 15200 12094
696 40082 34993
833 40082 28375
1361 40082 11910
1299 40082 27769
2034 40082 21090
4647 40082 13292
776 40082 26424
25195 40082 2592
24867 40082 5811
47900 39126 69032
40262 17651 7742
40988 6676 7742
42761 40082 42276
20608 40082 42638
15704 40082 42484
8100 40082 40189
15639 40082 39268
10990 40082 40375
10217 40082 41048
13112 40082 41580
20795 40082 41102
6394 40082 41760
9780 40082 42287
36304 40082 7818
44104 38710 8286
44605 38710 7934
41593 7298 64888
40625 5614 64888
41181 10159 64888
10625 38786 70969
37425 40082 30922
43289 40082 34287
27866 40082 27252
44014 40082 23916
38379 40082 27839
21023 40082 33042
43541 40082 30441
30167 40082 25886
27387 40082 34578
42526 40082 32228
39780 40082 18271
39397 40082 36172
34995 40082 34337
33132 40082 27419
21879 40082 36121
43157 40082 24247
42311 40082 31232
22005 40082 29586
30641 40082 26166
37259 40082 20881
44083 40082 22844
30722 40082 24069
47308 40082 28380
23157 40082 29054
35772 40082 23455
40450 40082 26604
38946 40082 26519
36635 40082 28973
45778 40082 36208
33278 40082 32996
46654 40082 25565
14634 40082 34622
44625 40082 36195
42197 40082 19209
37712 40082 25568
46981 40082 32960
42603 40082 37947
36939 40082 26951
35246 40082 20907
13965 40082 35261
42003 40082 23711
26650 40082 35950
43171 40082 32616
45810 40082 37764
39345 40082 27831
23882 40082 29330
41336 40082 30532
28343 40082 31355
18531 40082 34965
32719 40082 32105
28319 38710 7325
20787 41261 77420
18569 36148 9031
15148 38097 9031
12675 37470 9031
31908 37806 9031
11329 35456 9031
14241 34777 9031
13739 37858 9031
12615 34853 9031
14796 34263 9031
41417 37344 64888
9177 41372 67060
7964 41372 73910
6114 41372 55685
8519 41372 63353
5829 41372 41792
5199 41372 19326
6240 41372 71635
5390 41372 38511
7317 41372 61711
6973 41372 67669
6123 41372 63492
6684 41372 51762
7438 41372 45969
5829 41372 62248
8985 41372 72029
6507 41372 74977
7849 41372 61960
41535 37473 6534
41535 28220 6843
244 40156 71994
244 40914 25371
244 41086 20926
36401 41372 61188
36757 41372 76985
36587 41372 43115
25588 40082 67769
38185 40082 54821
45116 40082 45924
23228 40082 72196
31660 40082 61768
20080 40082 72895
39713 40082 52974
28664 40082 66478
26397 40082 69425
41344 3648 11613
40892 2517 11613
40796 14977 11613
7986 2717 6640
41535 6701 10523
41535 8923 8664
41535 9490 10349
41535 4133 8182
41535 22638 8055
41535 9501 8161
29427 38710 9371
26268 38710 8445
34904 38710 10134
30541 38710 8656
10059 0 70966
37886 9933 69678
38718 14974 69678
37892 5631 69678
38388 19318 69678
23566 40082 8189
13263 40082 6538
36572 26770 7742
36682 25816 7742
38572 12437 7742
39301 7806 7742
37417 2491 7742
38199 11869 7742
9275 17256 66894
9275 24342 68119
33099 40082 74361
36007 40082 72115
35311 40082 69100
35281 40082 73588
37283 40082 75403
41622 40082 58541
37713 40082 65545
38323 40082 68142
34526 40082 76064
35630 40082 71186
37038 40082 65151
30923 32258 69266
25896 32258 69064
410 40082 10098
7986 9321 69598
7986 30631 67845
7986 34962 67840
7986 11371 69003
7986 33918 68426
1932 40082 56421
1824 40082 52358
1516 40082 43356
826 40082 61116
824 40082 45334
885 40082 66895
1284 40082 44802
3323 40082 50441
39528 38710 6630
9275 23837 67650
9275 7547 65514
40220 38792 39290
36317 34388 9031
24952 32367 9031
33771 36000 9031
27615 34469 9031
35497 34227 9031
34941 32579 9031
31009 36042 9031
35086 36900 9031
31643 35577 9031
36244 40082 60642
29194 40082 68313
39841 40082 55228
24480 40082 74573
35543 40082 59542
29862 40082 66968
28347 40082 72155
29655 40082 69825
31434 40082 63876
25240 40082 7028
37531 40082 9649
12720 37902 69678
11777 38649 69678
30862 38710 9694
17440 38710 7859
29256 38710 7932
29947 38710 8641
9275 7920 8778
9275 21858 9610
9275 16724 8792
9275 11680 9131
19445 40082 597
16326 40082 1971
41070 30174 7742
40553 38597 7742
40365 37367 7742
10565 34699 52823
10565 37240 58739
10565 34720 51296
10565 36580 62525
10565 32448 27413
10565 35792 53688
10565 35538 57087
10565 34894 43485
10565 34222 29989
10565 36409 60870
10565 33618 40279
10565 33647 66598
10565 32955 55987
10565 36746 64360
10565 35988 44343
10565 32655 53148
10565 32275 63905
10565 33779 44904
38980 40082 17656
30576 40082 22774
18031 40082 32033
45570 40082 13090
14296 40082 32415
29988 40082 23431
47900 40253 39758
47900 41187 50535
47900 40258 46843
47900 40985 20524
47900 40735 29084
46274 40258 0
36373 18455 7461
36373 23635 7581
40795 15063 7742
40471 2949 7742
40878 0 11439
39754 32258 9813
39810 32258 22583
39627 32258 10656
244 40847 9557
8639 0 7216
576 39996 66263
2163 39996 67505
6366 39996 67200
20110 39996 66992
7867 39996 66474
13650 39996 67774
37760 1148 69678
38299 6291 69678
37957 19616 69678
38101 8734 69678
39774 38710 68885
39488 28840 70969
38292 9942 70969
39543 33829 70969
39663 26918 70969
38972 25709 70969
41847 36783 70969
41120 33818 70969
38420 14885 70969
37876 32717 70969
23168 40459 77420
38344 40082 3385
40244 37194 12399
47200 38710 69702
7986 21737 65316
7986 14496 64752
7986 7515 64692
7986 38264 65279
11262 18736 69678
12017 19126 69678
10437 29066 69678
10812 22783 69678
11087 26979 69678
11742 26371 69678
41535 33769 7442
7986 20252 70547
7986 25602 70617
8587 38792 41351
5108 38792 41463
22170 39704 66179
3035 39213 66179
11395 39662 66179
3908 38864 11613
1920 39737 11613
30456 40038 11613
2111 39028 6451
11464 39001 42811
7986 37758 68369
7986 15878 68699
7986 36943 68886
3671 41372 426
2083 41372 2657
244 40410 67253
244 40503 77094
244 40808 62235
860 41372 933
623 41372 5634
1283 40082 41674
13147 36809 70890
13147 32759 70433
13147 17889 70222
47131 40082 8182
39343 38137 62818
43104 41372 39425
44822 41372 73995
43221 41372 50014
44082 41372 39613
46570 41372 64289
44422 41372 40912
42852 41372 41095
42690 41372 46138
46926 41372 73572
43574 41372 62491
46198 41372 57847
46302 41372 74353
45108 41372 56210
43755 41372 26288
42598 41372 69005
44196 41372 31262
43023 41372 38709
42531 41372 30511
43634 41372 24800
43274 41372 41914
42647 41372 73577
45082 38792 42195
46188 38792 41972
26000 40082 53732
15517 40082 47984
30413 40082 48056
38429 40082 44047
10620 40082 73280
39705 40082 43502
17575 40082 49642
16943 40082 44790
20609 40082 54869
10537 40082 63816
35538 40082 48052
20613 40082 47766
18430 40082 50217
12153 40082 48651
6703 40082 46796
10039 40082 53636
24732 40082 58897
29459 40082 45880
21941 40082 63663
18457 40082 48609
37126 40082 44989
12465 40082 42849
8767 40082 45107
13975 40082 54908
15791 40082 69000
21605 40082 66659
10914 40082 44444
13438 40082 47775
16444 40082 56564
38417 40082 45817
11689 40082 71812
20487 40082 61641
46360 40082 42970
19945 40082 49960
10105 40082 49846
22448 40082 64881
14540 40082 52175
19926 40082 51483
20783 40082 55897
17768 40082 50607
34241 40082 52431
37349 40082 52286
19531 40082 47937
33007 40082 53465
8738 40082 43265
14995 40082 57391
40429 40082 45508
29101 40082 56274
8592 40082 55995
32799 40082 44072
24842 40082 52853
10343 40082 53050
12720 40082 46776
31002 40082 56176
30480 40082 57467
24436 40082 51602
18991 40082 54591
11387 40082 74236
5927 40082 45668
31377 40082 57022
15109 40082 64351
10435 40082 61434
35035 40082 46444
33996 40082 49962
27565 40082 50835
23241 40082 51113
24151 40082 58096
13145 40082 65984
25755 40082 45907
13282 40082 53164
8078 31068 69678
8022 18887 69678
8622 8528 69678
8996 2716 12258
9139 16135 12258
9275 5195 65873
9275 2207 67487
9275 11764 66983
9275 12693 66909
9275 12806 67736
9275 1921 65219
9275 3348 66695
5405 40082 39240
8983 38710 69640
25800 34300 69678
37102 36594 69678
36598 35644 69678
33008 33652 69678
34572 37250 69678
31323 32834 69678
27153 35722 69678
14530 32480 69678
20067 38710 11419
26559 38710 11220
25865 38710 10310
22448 38710 11550
31047 38710 11468
33420 38710 11551
37664 24193 69982
47900 39726 7028
42388 34154 65931
42388 16852 65184
47900 39985 39164
7986 7648 7066
37267 40082 72297
33135 40082 75983
38113 40082 72705
38255 40082 66199
37735 40082 67172
38040 40082 70744
44873 40082 50181
33919 40082 74469
36288 40082 74202
32196 40082 76499
35685 40082 70340
29115 40419 0
7164 38822 11613
2608 40082 1408
1436 40082 3250
7001 40082 63821
5767 40082 49467
6376 40082 56317
6984 40082 57068
5132 40082 55898
6978 40082 70664
6095 40082 68398
7238 40082 63108
8486 40082 74536
10532 35450 6451
9857 32947 6451
12470 6956 6451
10502 31252 6451
11965 21210 6451
9177 34555 6451
12729 25363 6451
11527 19185 6451
1765 38792 41295
4365 38792 40153
39388 41372 58768
37286 41372 54058
37740 41372 20703
37502 41372 16810
39803 41372 42510
39881 41372 72991
40374 41372 48258
41370 41372 68663
39066 41372 32732
39153 41372 52692
37509 41372 37940
41486 41372 70394
41204 41372 72016
37885 41372 25959
38773 41372 55208
38007 41372 49146
39501 41372 58228
37306 41372 37160
37213 41372 9647
38948 41372 39095
37204 41372 20388
7902 41372 26456
9447 41372 37118
8097 41372 32612
6357 41372 16548
7850 41372 43058
8632 41372 16983
8450 41372 33075
9016 41372 59019
9619 41372 58277
8081 41372 7744
9912 41372 67335
7133 41372 29818
10009 41372 2400
6583 41372 14766
9587 41372 21028
9442 41372 28539
5749 41372 10912
9937 41372 72910
9440 41372 11418
38228 41372 11530
42142 41372 36173
40458 41372 3951
41988 41372 24265
41635 41372 31582
39607 41372 34914
38785 41372 24026
42263 41372 19327
40012 41372 27556
41107 41372 24883
40752 41372 1356
41869 41372 59635
42413 41372 58027
42378 41372 62456
40047 41372 2843
41651 41372 12058
41257 41372 42600
40712 41372 12956
42166 41372 46292
40680 41372 50138
38468 40082 11236
10437 40082 10294
34028 40082 10171
32621 40082 10970
9974 40082 8371
33666 40082 11030
26169 40082 11012
16690 40082 10286
14837 40082 10425
24465 40082 10599
9760 40082 7640
39566 38072 7742
47381 40082 3092
0 41299 267
40244 2569 66477
40244 20670 65301
40244 15791 66899
40244 8696 67405
40244 1744 67896
40244 19181 66429
40244 13003 65264
18248 38450 68388
20140 35996 68388
17399 37973 68388
30159 38554 68388
17709 35200 68388
29307 37665 68388
16352 37072 68388
12639 36459 68388
12014 34272 68388
2314 39516 70969
40244 16823 68626
40244 18605 69627
40244 26646 67265
40244 21260 66627
40244 11639 67993
40244 26189 68235
40244 17696 69674
39343 34523 29803
12282 40082 3099
47900 39381 39965
18283 40082 5544
41234 38710 66957
41796 40082 49836
22270 40082 71277
19417 40082 73201
20887 40082 71901
26983 40082 65105
37808 40082 53526
35202 40082 56461
40283 40082 51535
20753 40082 72613
10704 33273 69678
39343 36468 45543
10671 3768 69678
10770 13384 69678
11477 4981 69678
11727 9716 69678
11274 12891 69678
11540 12379 69678
24037 41283 0
13147 12438 6669
13147 35446 7516
24986 38818 11613
42649 39271 11613
37098 40082 8803
41535 16615 7218
41535 3130 7392
12926 41372 45039
14992 41372 76994
10690 41372 21189
10304 41372 28041
12128 41372 45134
11311 41372 35632
13057 41372 61470
11931 41372 32477
10570 41372 31638
14166 41372 73502
11029 41372 76739
11057 41372 56487
12299 41372 37831
12675 41372 58207
10454 41372 56934
12060 41372 67804
10983 41372 52666
11916 41372 42860
12630 41372 69020
11825 41372 35505
38366 33746 69678
39187 39060 66179
12232 38714 66179
21121 41372 52475
22870 41372 52768
22280 41372 44031
23558 41372 59414
20698 41372 29700
22152 41372 33736
22919 41372 74224
22144 41372 40729
20890 41372 31415
21015 41372 35274
23059 41372 42783
20973 41372 42472
21452 41372 43868
21016 41372 69445
20783 41372 13354
21511 41372 58412
23559 41372 68144
22926 41372 54694
37896 41372 18094
39515 41372 50343
37771 41372 28157
39736 41372 55789
40056 41372 50099
38308 41372 18896
37786 41372 12650
40805 41372 57117
37852 41372 44317
37347 41372 32838
38325 41372 63038
37522 41372 68983
37553 41372 39087
40599 41372 56196
37305 41372 43452
40875 41372 55446
37794 41372 60570
38278 41372 74634
39685 41372 60684
41206 41372 69343
8100 0 67165
16063 32696 7742
31473 33167 7742
24507 33609 7742
15924 34487 7742
20121 35211 7742
14140 36466 7742
36614 40082 3556
32971 40082 5948
9350 40612 77420
39736 32258 45216
40244 32258 40174
42850 41167 0
31763 40082 8809
27780 39996 66291
34450 39996 68977
34851 39996 66920
30486 40082 4749
30029 40082 4255
41130 26165 7742
40953 20297 7742
9275 37979 37727
9275 37909 35861
10565 38573 12399
10565 38453 58096
10565 32887 13561
10565 37134 16971
10565 36394 19350
10565 37285 42112
10565 37650 42793
10565 38319 32424
10565 38681 9718
10565 35437 27645
10565 34802 27120
10565 35006 18296
10565 38844 13949
10565 35534 24173
10565 35625 36480
10565 37756 54801
10565 35763 12746
10565 37860 18250
10565 37310 20318
10565 38749 60975
16096 38710 66995
19953 38710 68409
31435 38710 66254
12085 38710 66716
10021 38710 6868
40244 37979 21971
40244 34824 12644
40244 36984 20668
40244 37348 36259
40244 38497 35586
40244 36995 44700
40244 38014 16393
40244 37807 43996
40244 37532 29392
40244 37506 41316
40244 38127 45596
40244 32962 14049
40244 34195 15000
40244 38211 17690
40244 36103 39309
40244 38456 24109
43980 41372 67480
43424 41372 37946
45181 41372 53680
43206 41372 40513
42843 41372 32013
45147 41372 61889
43050 41372 18777
44533 41372 76999
45332 41372 42034
43547 41372 65552
43204 41372 48238
43284 41372 24148
43684 41372 60194
43526 41372 28458
43889 41372 35703
42785 41372 69783
43795 41372 26992
43992 41372 56448
43432 41372 37020
43110 41372 49451
43627 41372 36472
12940 40078 11613
40993 39948 11613
17526 39565 11613
8352 40615 0
11683 37889 68388
20235 38197 68388
17009 33793 68388
11090 32663 68388
13152 35475 68388
23229 36738 68388
20800 37731 68388
10649 35386 68388
25256 37139 68388
40341 2485 6451
40466 635 6451
39651 1765 6451
36406 37340 6451
38637 17468 6451
36562 31798 6451
40964 3420 6451
36557 24 6451
38193 3177 6451
9275 11772 64796
9275 31637 68077
9275 23600 65969
9275 32167 66432
9275 12894 64676
39176 16468 69678
39383 26150 69678
39693 30969 69678
39429 23550 69678
28550 32258 8491
33891 39996 70103
39884 39996 67527
32986 41130 0
32108 40082 4600
32214 40082 2450
25756 40082 889
19073 38353 7742
23039 38343 7742
34677 33101 7742
23401 37640 7742
35428 36367 7742
21884 37644 7742
24429 37345 7742
21503 38468 7742
47900 41326 45154
47900 40994 45901
47900 40932 30390
7986 10711 11793
7986 3901 11138
7986 21680 10654
7986 9830 11875
7986 22153 11051
7986 636 11412
7986 2314 11625
7986 5807 11143
37108 37712 7742
19581 40082 6356
19569 40082 4718
3121 40082 44360
2619 40082 59812
775 40082 54784
2496 40082 45331
263 40082 55925
2061 40082 55116
2246 40082 48880
42388 16971 70771
42388 4571 70219
42388 3079 69989
26438 32258 68411
39747 38563 9031
13147 28812 6690
13147 31350 6537
13147 3746 7260
13147 7803 7127
10320 36340 69678
10122 38476 69678
20735 40189 0
44368 40082 38494
37140 40082 39502
45059 40082 39853
37305 40082 40258
41323 40082 40248
27348 40082 40168
21572 40082 38947
45498 40082 38321
43144 40082 41310
10294 13993 69678
9835 8501 69678
9685 23333 69678
11850 5811 69678
10019 4716 69678
39309 38710 67491
39343 38367 60213
39343 35487 32701
39343 37128 43516
39343 38459 53890
39343 38688 44769
39343 34915 26826
39343 37707 53265
244 40772 38487
244 40358 48387
46930 41372 34441
43132 41372 4411
45701 41372 35136
43522 41372 160
45153 41372 36671
46548 41372 47216
46761 41372 2773
44245 41372 5157
44458 41372 26504
45780 41372 29699
46373 41372 30986
46209 41372 49567
47362 41372 38388
44925 41372 12118
47374 41372 23457
47360 41372 49109
47652 41372 57498
46234 41372 33116
47325 41372 52968
23869 40082 2696
23929 40082 4150
3308 41159 77420
38223 35172 6451
39859 34196 6451
38099 37689 6451
39878 30955 6451
40543 10268 6451
40246 36539 6451
37776 29703 6451
41161 35638 6451
40370 14184 6451
7986 20754 65526
7986 33359 66540
8622 29749 64517
8309 32259 64517
31823 38710 6956
7986 13644 6932
7986 30473 6688
39921 12935 70969
41326 9134 70969
41366 4375 70969
39980 9980 70969
40927 24086 70969
41373 13513 70969
41094 25119 70969
7986 12024 70283
7986 17872 70340
4882 39996 68743
11359 39996 68210
8870 39996 68453
11750 39996 66649
17219 39996 66295
14821 39996 66418
9275 38739 42748
34591 39999 71232
32897 39999 71211
32393 40039 74171
42593 39996 69185
42122 39996 67159
38567 26095 69678
38927 23298 69678
40177 19576 69678
9694 32258 8313
45502 39682 6451
39619 38710 25331
18560 39346 38065
12134 39337 38065
42128 13873 70969
42053 25300 70969
12174 38710 70293
3274 38710 8689
494 38710 7393
42388 23785 70050
21439 40082 2269
21101 40082 5146
34621 40082 8694
11835 40082 6213
20989 41372 16111
21444 41372 29281
23933 41372 54112
23269 41372 77327
20647 41372 51210
21141 41372 68792
21320 41372 55852
22350 41372 38006
23346 41372 53726
21748 41372 37385
21359 41372 39332
21056 41372 23173
20774 41372 62682
23183 41372 58044
20751 41372 6138
25179 41372 76197
20533 41372 10722
23981 41372 63904
36373 30343 7509
10267 39996 70575
18195 39996 68935
19737 39996 68144
27322 39996 68271
7792 39996 70946
17282 39996 70387
17460 39996 68136
13649 38710 67223
15521 38710 68482
16904 38710 67886
15177 38710 67658
12380 29434 7742
10152 17349 7742
11450 28382 7742
12586 27744 7742
10071 19718 7742
10653 32110 7742
10399 24031 7742
3784 40082 8542
10745 32258 69572
244 40395 60770
244 41160 74656
244 41177 67450
244 40429 59218
40639 8028 70969
41799 32352 70969
41278 14210 70969
39001 5031 70969
38951 3980 70969
41676 16691 70969
9726 38710 10917
9275 14286 65328
9275 18227 65065
9275 26666 66237
9275 16234 64935
9275 20750 66205
9275 22405 66939
9275 4978 64965
41110 22304 11613
41454 20075 11613
10424 32258 61550
9454 32258 64052
10332 32258 46600
10094 32258 34841
26441 38710 68333
27521 38710 69641
38294 38710 68141
35778 38710 68429
13147 4661 6619
13107 40082 4966
14626 40082 3378
36839 1465 7742
38162 13307 7742
36469 22258 7742
37054 21780 7742
37049 17530 7742
37665 7201 7742
4139 41372 75135
362 41372 44678
661 41372 43052
2509 41372 51416
2775 41372 57708
400 41372 28161
1708 41372 74876
2842 41372 49384
3370 41372 53680
615 41372 41831
548 41372 58229
1672 41372 47378
2259 41372 58973
2987 41372 72758
997 41372 30763
1446 41372 54257
4764 39223 38065
39816 38710 42965
39696 38710 46935
40828 0 8184
20921 34726 69678
28524 38108 69678
13625 37114 69678
23908 35194 69678
30385 38320 69678
18650 35101 69678
15149 36956 69678
13427 36625 69678
47900 40874 2565
8597 37295 64517
10782 30023 69678
10302 24648 69678
12350 15258 69678
11442 25171 69678
12786 6227 69678
12630 10575 69678
36373 29741 7548
40332 33488 64888
42974 40082 5753
44124 40082 2007
40361 31248 11613
40956 23290 11613
43742 40082 9150
9275 35658 57908
9275 37518 62963
9275 36456 53795
9275 36847 56103
9275 34614 60840
9275 37702 58436
9275 34979 62138
41437 39085 42811
20998 38811 6451
42388 36625 65472
42388 30003 65686
42388 22374 65476
8299 19053 64517
8660 10203 64517
27383 40614 77420
9275 19012 9349
9275 27130 9762
9275 20210 9240
9275 5108 8441
9275 20388 9840
4447 41372 63542
694 41372 11263
4225 41372 54606
2102 41372 3922
3729 41372 33841
2853 41372 30935
2120 41372 19435
2976 41372 39845
3167 41372 21547
3697 41372 57549
1315 41372 21916
2340 41372 35474
4431 41372 8797
4904 41372 10823
2361 41372 12580
244 40293 15563
244 40468 19324
43182 40082 6955
24732 38792 38249
29226 38792 38821
10228 38792 40506
22540 38792 39589
11280 38792 38990
21811 38792 38313
32168 38792 38557
41199 0 68371
7986 28257 12054
28900 40082 8694
8409 13529 70969
10385 32023 70969
7987 2546 70969
8355 8153 70969
11725 36534 70969
12073 35163 70969
8165 1408 70969
8947 23738 70969
41208 37496 11613
9275 33389 63065
9275 34207 59222
9275 37463 64096
9275 33809 61867
9275 38547 56335
10565 34075 68116
10565 33170 59574
10565 33269 53506
10565 34566 42927
10565 34141 51052
10565 37103 66555
10565 32638 36575
10565 33056 38483
10565 33620 26578
10565 32344 56355
10565 35012 51825
10565 37758 66004
10565 33471 39520
10565 33928 56285
10565 36042 64891
39343 33265 27106
39343 35940 59080
39343 37293 59585
39343 33032 58424
39343 35991 47036
39343 34436 30858
39343 33997 47503
39343 34050 51538
39343 35999 49345
39343 35390 62613
39343 37252 65268
39343 35389 63797
39343 33942 57756
39343 33782 64602
39343 35093 38924
39343 34337 38246
39343 34543 61121
11551 41372 22124
4064 40082 1950
32990 39824 42811
4699 39964 42811
8987 38710 10624
22081 36039 9031
26190 36432 9031
30703 37727 9031
11079 36837 9031
12059 32757 9031
34025 38102 9031
27036 37139 9031
12227 38275 9031
15732 41372 21049
16539 41372 29693
15360 41372 71495
16741 41372 28663
16661 41372 76237
16373 41372 24780
16225 41372 73827
17589 41372 65398
17368 41372 66236
15209 41372 35891
15245 41372 6168
19106 41372 68352
18199 41372 75171
16779 41372 74761
18302 41372 52702
18104 41372 61799
17020 41372 62261
16394 41372 20153
15668 41372 25235
29993 32258 8113
7047 40082 7250
40696 28827 64888
42272 4781 64888
42312 30513 64888
42274 2413 64888
42382 1674 64888
20024 40082 6960
13147 21529 70225
13147 16655 69727
13147 23506 69751
699 41372 24499
3535 41372 68193
4300 41372 72524
992 41372 49073
2123 41372 63012
1503 41372 36615
399 41372 12674
1411 41372 28672
1831 41372 75439
708 41372 22428
515 41372 47036
2905 41372 48368
2380 41372 64604
3426 41372 56945
8982 0 69503
14200 40082 57063
12349 40082 44919
25252 40082 59831
21733 40082 62085
12270 40082 54729
12469 40082 68527
9174 40082 61399
26678 40082 53728
23802 40082 46644
31137 40082 54797
7473 40082 49569
13122 40082 71786
33566 40082 52596
35402 40082 52072
5908 40082 46231
6712 40082 53156
13816 40082 52377
17927 40082 62369
22282 40082 52198
24693 40082 58277
21909 40082 52634
18269 40082 52183
20134 40082 56229
18365 40082 55177
15151 40082 56177
21202 40082 58705
8864 40082 49161
23287 40082 44521
5305 40082 44250
29231 40082 43667
46165 40082 43960
9188 40082 54619
10827 40082 54834
24683 40082 48006
31852 40082 55708
18286 40082 47536
14963 40082 58956
14302 40082 54216
9422 40082 63472
31821 40082 46762
22867 40082 56260
15707 40082 55063
14649 40082 69009
36687 40082 44651
7806 40082 43743
29626 40082 54625
27152 40082 49218
32453 40082 53369
31331 40082 49819
25335 40082 54435
12948 40082 45445
22314 40082 59404
10317 40082 68392
14654 40082 47188
28493 40082 56647
14349 40082 66959
23298 40082 48005
20022 40082 60350
30530 40082 45698
34367 40082 49162
27319 40082 57149
12624 40082 55622
11137 40082 56020
20501 40082 66488
41521 40082 46329
27998 40082 54937
32748 40082 52382
42388 18730 69786
42388 17256 70077
36373 19058 6638
36373 9691 6693
26514 41372 41979
28550 41372 73340
26548 41372 45152
26735 41372 58095
26392 41372 46713
26587 41372 49018
28650 41372 62012
25641 41372 29041
27136 41372 54016
25575 41372 14145
28742 41372 51489
26062 41372 52385
26534 41372 17666
25925 41372 39878
26205 41372 59622
25805 41372 37674
29027 41372 53218
26835 41372 63065
27689 41372 45011
29551 41372 76131
39650 38710 44025
44331 40082 9429
15735 40326 77420
7986 37663 7587
7986 11759 8604
7986 17809 8137
7986 24181 8539
7986 24566 10141
7986 9134 8364
7986 32712 8376
7986 31731 8161
34592 39873 66179
44378 39439 42811
33769 40082 4840
8467 1048 12258
9268 22287 12258
47900 41122 887
11634 40082 22094
33128 40082 17983
9229 40082 33132
20712 40082 13650
20676 40082 25112
12409 40082 22997
10309 40082 13006
12542 40082 17193
9859 40082 28546
21387 40082 18805
5755 40082 28567
18384 40082 27651
7111 40082 20314
6039 40082 31774
15587 40082 25912
19814 40082 13156
17495 40082 13883
15660 40082 13823
22369 40082 23899
7739 40082 21377
10087 40082 23934
6097 40082 33087
7845 40082 35494
15493 40082 30779
6009 40082 26368
5465 40082 12669
16638 40082 24476
28167 40082 15241
6505 40082 33676
17292 40082 16740
24505 40082 25558
14579 40082 26592
10222 40082 25504
22622 40082 24589
24389 40082 13095
8674 40082 19062
25695 40082 13531
32490 40082 13706
42782 40082 13720
9158 40082 26948
10490 40082 18767
28396 40082 13072
10326 40082 19400
5505 40082 26749
19681 40082 15214
22579 40082 25141
12776 40082 18382
23801 40082 22410
17113 40082 13124
19751 40082 20920
28812 40082 14203
7104 40082 27441
20394 40082 20720
7325 40082 30212
6626 40082 20040
9658 40082 19749
22711 40082 15438
9241 34155 64517
36898 31093 7742
38152 27331 7742
37287 30364 7742
8429 38792 68281
13147 16865 70385
13147 14520 70757
5689 38813 38065
18571 40082 2179
5602 41281 0
10565 35734 33670
10565 36081 20729
10565 36076 12116
10565 34565 13865
10565 35609 31363
10565 34692 21537
10565 38668 60214
10565 35233 11364
10565 34040 24308
10565 33960 17750
10565 36858 14318
10565 36707 33479
10565 38074 30804
10565 38279 40821
10565 35514 34265
10565 37362 32214
10565 38688 24524
10565 34850 12967
10565 37583 29491
10565 37603 56667
40244 35153 50857
40244 36968 63573
40244 32450 56571
40244 35247 52389
40244 36220 59488
40244 32810 52920
40244 33548 42687
40244 34132 36008
40244 33229 29982
40244 37598 64782
40244 37909 61932
40244 36244 60404
40244 33572 53231
40244 33218 47105
40244 33686 47438
40244 34731 57369
19621 41372 33050
19945 41372 60847
19210 41372 23833
16473 41372 12572
19722 41372 55293
18940 41372 14921
17911 41372 23236
19485 41372 61935
19100 41372 58547
15877 41372 7323
19720 41372 5404
19590 41372 5986
19114 41372 54015
18076 41372 7060
17309 41372 8383
18566 41372 29289
20066 41372 41804
17394 41372 26857
19499 41372 26731
41535 18232 11029
41535 24114 11244
41535 36945 10657
41535 29115 8752
41535 6076 11203
41535 23489 10107
41535 22863 11345
41535 14748 10426
10967 40082 35775
12834 40082 35283
29409 40082 23839
38095 40082 18316
28506 40082 24111
23174 40082 27170
41381 0 70296
7120 38775 67888
9275 38712 11641
12990 31611 7742
9640 32197 7742
10542 27887 7742
11067 22362 7742
9475 7866 7742
9518 18345 7742
10299 26792 70969
8166 9730 70969
10262 32547 70969
10572 24156 70969
10584 34031 70969
9535 34752 70969
9923 16932 70969
9988 23002 70969
9250 31884 70969
9818 23863 70969
43232 39996 67539
40630 39996 70028
41140 39996 69110
35475 39220 42811
24152 38796 42811
8569 30433 64517
41348 38710 68068
9275 1121 11994
9275 6471 10541
9275 11566 11641
9275 13347 12105
9275 14415 10521
9275 30138 8571
9275 9086 8071
33217 40082 2624
47900 39870 68267
699 40082 2353
44544 40082 60395
46332 40082 49174
41589 40082 65020
39224 40082 76910
42606 40082 60148
40332 40082 73461
43211 40082 64552
45735 40082 52186
41119 40082 66403
44703 40082 5669
46955 40082 1727
21025 32258 68559
21401 32258 69135
38931 40082 11829
35108 40082 19223
33065 40082 20051
44050 40082 13499
10297 40082 17948
25938 40082 24502
9501 40082 15805
14946 40082 13205
35857 40082 18200
24415 40082 23348
15377 40082 25342
32082 40082 16298
8588 40082 22519
11587 40082 31836
12830 40082 21139
9839 40082 20417
28892 40082 18859
10394 40082 31619
7628 40082 17349
36807 40082 13998
21046 40082 20061
10824 40082 33659
24079 40082 18252
26091 40082 14930
7334 40082 22689
5824 40082 36857
27822 40082 13149
8775 40082 34894
37131 40082 14648
15019 40082 14374
26088 40082 14256
30540 40082 13027
38322 40082 15970
6867 40082 15270
12745 40082 12595
21655 40082 15266
6145 40082 18916
33512 40082 16623
32077 40082 19037
7868 40082 22923
23336 40082 19953
43513 40082 14238
24620 40082 13695
5149 40082 34702
13693 40082 19580
12918 40082 31365
29223 40082 15006
9559 40082 18129
33225 40082 70113
41088 40082 54686
31952 40082 73311
44559 40082 48845
32643 40082 68781
41288 40082 55475
34218 40082 64607
29095 40082 75400
42197 41372 47257
39434 41372 5845
41768 41372 17615
41809 41372 14411
40343 41372 22845
41344 41372 46682
38683 41372 15479
39147 41372 7548
39743 41372 25678
40028 41372 3596
39661 41372 31706
40760 41372 44618
40401 41372 45084
41077 41372 43744
39107 41372 14147
39921 41372 14333
42114 41372 633
41906 41372 50253
1955 38735 69785
40281 32431 11613
41127 28848 11613
30704 40449 0
14311 38710 70654
15307 38710 70503
11883 38871 70969
1002 40082 76249
4270 40082 76266
4930 40082 58518
1279 40082 73760
3971 40082 61971
3346 40082 56424
4569 40082 64247
4286 40082 52613
39343 37103 10141
14302 39576 42811
30635 40040 42811
13403 40040 42811
9744 38710 70794
40244 35289 33976
40244 36337 44544
40244 36710 37311
40244 33544 14174
40244 37221 38661
40244 35413 27152
40244 34558 17406
40244 34506 25948
40244 37212 22423
40244 38099 21260
40244 38284 53976
40244 37720 26710
40244 37644 23120
40244 34007 21261
39343 33837 28449
39343 36111 65663
39343 33187 20030
39343 37478 57251
39343 32636 43885
39343 32601 29350
39343 34171 32938
39343 32869 24490
39343 37219 63884
39343 36035 63526
39343 33423 34444
39343 34170 52318
39343 35742 53743
39343 37300 56419
39343 34601 34107
39343 33077 28927
39343 33170 45474
36469 40078 77103
34529 40035 73923
42673 38710 66819
42318 40082 71389
43554 40082 69366
45009 40082 56458
39378 40082 72411
45169 40082 58896
41355 40082 74580
43306 40082 62023
41128 40082 73821
42388 38620 69860
7986 29639 65857
7986 15120 65310
21086 32258 8966
42388 17906 67739
42388 8665 68848
42388 28374 65988
42388 32824 66259
42388 25723 66141
42388 1595 67059
42388 15890 66713
42388 10396 65266
12148 38875 11613
6781 41372 66538
7849 41372 54070
5941 41372 27175
6820 41372 71257
6986 41372 41234
5863 41372 49446
7702 41372 63990
6019 41372 60954
8867 41372 75409
7679 41372 65405
7380 41372 58793
5242 41372 40990
5096 41372 29032
5109 41372 58665
9309 41372 70647
41133 38719 70969
39472 40082 8105
40244 32422 9394
10843 40082 4762
13177 40082 783
13323 41372 1518
13244 41372 24189
13984 41372 23226
12644 41372 21415
12050 41372 3488
14105 41372 35586
13482 41372 25575
13657 41372 21232
13960 41372 42085
12709 41372 27677
12830 41372 16556
11468 41372 7890
15146 41372 19012
12235 41372 19478
11085 41372 1385
13970 41372 57967
208 40266 5750
2845 40082 38950
35763 41372 6519
34655 41372 26594
34588 41372 56234
36030 41372 21672
33529 41372 1733
36561 41372 31118
35549 41372 36944
36365 41372 3481
36543 41372 8645
36552 41372 11179
31355 41372 8383
31807 41372 11111
35618 41372 34736
36571 41372 13044
34656 41372 43317
33136 41372 11899
35638 41372 40966
32419 41372 18569
36204 41372 8150
35918 41372 2293
35012 41372 48145
34565 41372 15466
34418 41372 20055
33911 41372 29875
37014 40082 35561
32022 40082 37338
29225 40082 34796
38331 40082 29729
23614 40082 33241
25500 40082 33369
42052 40082 20978
36147 40082 26850
39805 40082 26141
46317 40082 31587
39284 40082 25268
32222 40082 31326
18679 40082 33162
16766 40082 35218
11675 40082 36657
32183 40082 34482
39813 40082 33453
38177 40082 34842
13744 40082 36994
38018 40082 32161
46921 40082 27293
46504 40082 15636
41834 40082 31982
42973 40082 33294
35527 40082 27365
43681 40082 14930
39920 40082 34648
33663 40082 28318
44693 40082 37853
11027 40082 37486
39765 40082 23014
39933 40082 35980
43197 40082 20486
29572 40082 25104
27596 40082 35901
40839 40082 21292
41875 40082 36892
31436 40082 25012
10094 40082 37818
28838 40082 29035
35019 40082 31693
32598 40082 25601
40746 40082 19423
47821 38792 41666
42024 38775 11613
5679 40082 897
8425 40082 201
9275 9761 10312
9275 5543 11429
9275 14545 11498
9275 503 12062
9275 19619 12064
9275 1471 10315
37664 37578 69801
37664 33931 70568
37664 14955 70514
38356 40082 2768
39261 40082 1578
40925 15980 64888
41603 3517 64888
41008 11926 64888
40528 6151 64888
32096 41372 26260
32883 41372 56974
32075 41372 41710
30735 41372 70352
33107 41372 40562
33951 41372 50776
32838 41372 67140
31433 41372 53073
35463 41372 73350
31344 41372 61976
35031 41372 71977
30716 41372 40064
34286 41372 72543
35112 41372 66589
32061 41372 25461
32481 41372 75824
33978 41372 54634
34155 41372 63942
32230 41372 43507
33529 41372 46752
7986 3964 70314
7986 15683 69947
9275 36274 37693
9275 32859 46193
9275 32576 30170
9275 32690 54302
9275 33832 47579
9275 32981 43334
9275 35458 46639
9275 34479 36022
9275 34328 54312
9275 32515 62241
9275 32489 35448
9275 35450 38412
9275 32372 48357
9275 33260 38770
9275 37358 39130
6065 40082 39440
6090 38710 9736
5000 38710 10026
8519 0 8979
32098 38792 40717
21100 38792 42155
16016 38792 41810
39002 38792 38616
36129 38792 40198
30410 38792 42059
31418 38792 40808
37890 38710 8121
38505 7113 70969
39967 36230 70969
38745 24414 70969
41377 34425 70969
37966 8108 70969
37839 24653 70969
38743 33170 70969
39343 36732 15978
39343 38266 25144
39343 37584 21876
39343 38645 42444
39343 37540 17033
39343 37130 12064
39343 36661 13087
39343 38462 13503
39343 36677 29296
39343 37756 26542
12365 41272 0
7960 40082 5875
9227 40082 1158
13147 20382 7710
15016 39070 38065
8845 39364 38065
9212 12830 6451
8082 3881 6451
10556 10258 6451
9865 10227 6451
8713 28788 6451
9390 18002 6451
8034 29777 6451
10409 8901 6451
10690 1345 6451
11537 33068 69678
9549 33725 69678
24304 39838 6451
11381 39901 6451
23830 39310 6451
37397 40082 58208
41055 40082 53284
45045 40082 46997
35673 40082 58299
27026 40082 70911
27075 40082 72272
28002 40082 69914
39246 35719 68388
8717 33849 69678
9145 30519 69678
8922 38710 7619
9357 21738 6451
12529 275 6451
10762 1932 6451
7992 28156 6451
8655 33077 6451
8789 14898 6451
8645 10036 6451
8182 21474 6451
8004 35035 6451
8875 25278 6451
6346 39612 6451
26131 38851 6451
36187 38710 70792
29854 40030 38065
43931 38942 38065
9275 23040 8099
9275 21415 8413
19348 38792 41979
30482 38792 42752
21295 38792 42650
26687 38792 42619
18834 38792 42248
29176 38792 41398
8233 2164 69678
8254 25019 69678
20098 41346 77420
29012 38710 6574
24943 41372 20882
25260 41372 3006
23799 41372 29304
24304 41372 48985
25273 41372 30943
24794 41372 12522
23407 41372 11034
25067 41372 1562
23754 41372 47230
22985 41372 13518
24051 41372 14510
22338 41372 5040
24865 41372 51286
25234 41372 58380
23745 41372 41133
23091 41372 23718
23745 41372 13914
40244 22393 67713
40244 31920 66785
40244 25223 69566
40244 12774 68677
40244 28661 68139
40244 31483 66453
36867 37158 7742
501 40169 0
13147 13034 70900
13147 15462 70379
34713 38710 70949
39813 38710 7542
29124 39700 38065
35602 39596 38065
37664 35483 69685
37664 9144 69940
40576 10595 69678
40711 1665 69678
7986 2363 64871
7986 17232 66086
7986 3242 66481
7986 26788 67780
7986 18928 66081
7986 6968 68437
7986 1022 67602
7986 1465 65343
47900 40089 24660
47900 40553 17931
27487 41372 27161
28481 41372 17494
29902 41372 12717
30643 41372 66411
26617 41372 5036
26550 41372 10930
30462 41372 24646
30348 41372 23011
28250 41372 5139
29845 41372 36037
27209 41372 97
26782 41372 12428
28634 41372 26333
26627 41372 1833
26047 41372 4151
29385 41372 36789
28089 41372 1666
28377 41372 25345
29697 41372 47127
29384 41372 10581
12690 26433 7742
12439 7016 7742
11380 3833 7742
11417 1804 7742
12590 17055 7742
12020 8557 7742
11592 16638 7742
26054 41372 9664
26624 41372 50950
25646 41372 50545
28131 41372 51260
26674 41372 47165
30058 41372 77257
26103 41372 73891
26634 41372 74385
26685 41372 52047
27380 41372 43112
25835 41372 11453
27361 41372 48659
26908 41372 32700
27611 41372 47182
26066 41372 39036
26015 41372 27621
29271 41372 56962
25810 41372 35762
26080 41372 13920
18578 41363 0
39887 32258 59642
40151 32258 50915
37746 37957 9031
31001 35390 9031
21822 33770 9031
38445 36509 9031
28351 35755 9031
36010 32743 9031
35954 35228 9031
34052 34491 9031
6618 40082 6755
42353 24578 64888
41593 28402 64888
41556 21766 64888
42141 37004 64888
41798 20255 64888
5087 38792 39759
728 38792 41269
39116 32258 68871
2962 38715 70738
9275 38166 19227
9275 38424 21570
9275 35852 25750
9275 38264 34451
9275 37142 15082
9275 38372 18031
9854 32258 60648
10295 32258 62336
34115 41372 70354
31378 41372 16405
33425 41372 71044
32345 41372 60195
34719 41372 65418
31094 41372 59444
35143 41372 70378
31717 41372 66060
32172 41372 34003
32488 41372 44128
32086 41372 55676
32342 41372 52727
33181 41372 60186
32851 41372 58700
33205 41372 52619
32646 41372 34590
31675 41372 61525
33087 41372 75304
33247 41372 38562
22884 32258 8963
16380 32258 8924
28846 38969 42811
38263 38856 42811
18970 41372 55153
18782 41372 3381
20333 41372 10165
18662 41372 633
18259 41372 39672
19052 41372 34255
19207 41372 4621
18282 41372 8531
20046 41372 17067
19323 41372 25236
15334 41372 317
20241 41372 6756
19866 41372 49074
18508 41372 7721
19860 41372 36420
18324 41372 32279
17453 40466 77420
12127 13584 7742
9735 3016 7742
10824 2285 7742
11807 19156 7742
11424 2359 7742
27797 40082 11486
11414 40082 7174
18144 40082 8424
8547 40082 8109
7477 40082 10738
30162 40082 10114
27870 40082 9176
14035 40082 7888
40826 40082 11113
25390 40082 10739
11944 40082 9194
7995 0 66439
34088 41372 7590
35608 41372 47951
35874 41372 30792
32978 41372 15338
33215 41372 34031
34285 41372 12162
34068 41372 37204
36781 41372 263
35084 41372 3419
34225 41372 5741
35562 41372 28672
36054 41372 26071
36275 41372 14056
33270 41372 7324
35301 41372 44906
36131 41372 55192
34442 41372 32237
35897 41372 45170
34062 41372 41158
35263 41372 56935
32258 41372 9607
35614 41372 51169
31528 36019 69678
28580 32437 69678
24990 34495 69678
35400 34107 69678
29466 32699 69678
22386 32775 69678
19070 32749 69678
30785 33669 69678
37664 30702 70297
2296 40082 36413
4902 40082 36407
4458 40082 19791
2076 40082 32958
4252 40082 21382
4382 40082 22269
4166 40082 16851
28964 40082 5583
17820 40082 40527
18846 40082 40082
14950 40082 42158
9085 40082 39690
7892 40082 41727
11602 40082 39780
22425 40082 41231
31590 40082 40886
25194 40082 42381
22337 40082 39705
13373 40082 42035
41920 0 65899
1209 38738 69625
39343 34111 8460
7986 33024 64713
7986 5958 64518
13449 41372 61910
11134 41372 47053
14471 41372 70090
12387 41372 43225
10322 41372 57567
10485 41372 38977
13214 41372 54796
13799 41372 60596
13806 41372 69615
11130 41372 25600
11420 41372 55709
10540 41372 69833
11194 41372 53779
11282 41372 50647
12090 41372 61731
10998 41372 65005
11782 41372 53048
10589 41372 42426
36791 39623 6451
40967 39644 6451
33223 39797 6451
23343 40082 1856
24745 40082 514
33944 40010 72020
2091 38792 67055
47493 39919 70969
25222 39685 70969
40244 37002 9736
10232 32258 18409
9482 32258 23597
9767 32258 11707
9665 32258 20327
9733 32258 37226
9694 32258 45129
7400 40471 0
5771 41372 17005
7569 41372 43518
6654 41372 31285
244 38748 8542
2213 40082 63158
3489 40082 57304
2996 40082 70455
3543 40082 69112
2337 40082 69158
4405 40082 58847
4243 40082 75116
3944 40082 77106
41535 18080 7345
41535 14919 7277
41535 9108 7166
32422 40078 77084
7787 40082 4539
9621 40082 5958
44956 38710 10791
7320 38710 9231
37727 818 6451
39445 9809 6451
38321 610 6451
39705 579 6451
38514 14362 6451
37565 19178 6451
37895 8098 6451
39016 10144 6451
38271 4059 6451
40505 0 66870
7986 5863 9915
7986 19357 10802
7986 24624 11770
7986 11646 10862
7986 904 10828
7986 17463 11025
7986 30558 11395
7986 15885 11191
47900 41195 74313
47900 40603 58266
43879 38710 67927
47550 40082 58601
47208 40082 72502
47283 40082 68748
47230 40082 52907
44755 40082 75651
45278 40082 60063
46755 40082 61091
46900 40082 73566
45781 40082 58749
7986 12143 8008
7986 36429 6529
7986 27941 9431
7986 25534 9375
7986 13205 8184
7986 37777 6544
7986 29556 9885
7986 10454 8498
7986 10649 8008
1421 40082 11378
42388 17508 70786
42388 12469 70636
9905 41372 17019
7607 41372 39658
7840 41372 21541
7262 41372 566
6967 41372 24686
9249 41372 44563
8707 41372 28324
9544 41372 1856
8569 41372 30502
9113 41372 3553
8488 41372 8498
9299 41372 9808
9674 41372 62426
7743 41372 5546
9627 41372 12148
18655 40535 0
8970 19454 69678
8864 24520 69678
40244 16912 66493
40244 2083 66148
40244 12757 67057
40244 25368 65325
40244 11615 67374
40244 11703 65080
40244 3460 67759
39430 30161 7742
40090 14961 7742
23663 38710 7066
32680 38710 68169
31092 38710 69320
37257 38710 66817
27032 38710 68522
25305 38710 68588
40608 23595 69678
40500 32231 69678
40244 32966 38787
40244 32818 64705
40244 36118 64306
40244 36055 61790
40244 35649 53983
40244 32733 25375
40244 34806 36884
40244 37115 58353
40244 35006 53059
40244 33054 62587
40244 33006 29069
40244 36690 48422
40244 32334 37567
40244 35170 59992
40244 34180 43472
41535 6896 9078
41535 10618 10469
41535 2725 9612
41535 5833 10308
41535 9523 9390
41535 5858 8805
41535 21773 9147
28017 40082 753
27343 40082 3564
41629 8203 70969
41930 9212 70969
34526 39996 67740
29771 39996 67711
35492 39996 68588
31250 39996 69336
35177 39849 70969
39440 39196 70969
13453 39839 70969
36314 39077 38065
42388 27424 67673
42388 35717 68473
42388 27970 68428
