ply
format ascii 1.0
element vertex 2775
property float x
property float y
property float z
end_header
35778 3357 15810
51312 5021 23890
48825 5025 21674
25621 483 12088
9291 36892 24630
10826 36892 36626
9391 36892 34920
12834 36892 40238
10965 36892 34650
5440 36892 20068
5983 36892 14212
3937 36892 23466
7006 36892 16140
6982 36892 29334
11193 36892 41553
11548 36892 36055
7983 36892 20916
6170 36892 22821
7169 36892 22634
7632 36892 25016
33602 33662 31255
31154 32887 32025
21559 39988 40325
22817 39988 45415
19059 39988 35785
18882 39988 32701
8681 39988 11304
19056 39988 41023
7228 39988 13356
20816 39988 40735
17654 39988 28728
15363 39988 18872
14254 39988 30376
11328 39988 16822
11406 39988 21051
9978 39988 18202
15937 39988 21506
11406 39988 17858
13907 39988 29471
12132 39988 19672
24365 39988 53834
14800 39988 26736
12107 39988 18601
24739 39988 54661
8176 39988 15938
15556 39988 33632
38203 487 9470
51217 4952 29351
9976 1579 39589
8804 39603 54629
8931 38295 54756
15843 1948 22275
55708 2923 33454
30670 3039 8713
13363 1263 45874
55353 2206 40014
8063 36892 52721
3553 36892 45060
9893 36892 54760
33871 816 51609
21209 1972 17111
34516 5029 12129
29813 5258 46734
17395 2285 13509
35241 15942 24476
40516 5046 13729
16732 2228 43367
25784 15768 31437
46551 1950 45962
15952 1970 40135
43582 38679 37452
53971 2869 40642
15332 4661 44306
38442 36502 33687
31873 3956 15508
29897 4395 15282
47311 2327 45702
47100 6295 34302
23580 13213 28809
25325 36892 56530
17281 36892 27670
14184 36892 21629
15244 36892 22387
18505 36892 34563
15753 36892 24140
15393 36892 33141
10851 36892 17702
25526 36892 58353
18266 36892 33293
14258 36892 20092
26707 36892 60032
21551 36892 46267
17282 36892 25337
17866 36892 28230
21871 36892 41544
11793 36892 11290
12420 36892 10244
20501 36892 38959
24309 36892 53329
21341 36892 46778
18717 36892 30948
12470 36892 12806
53032 3120 21762
52241 3210 20564
33654 1933 12542
43281 2329 48949
46389 430 15344
26943 1962 12999
52454 2655 26307
29883 36820 44096
35224 8597 17104
45804 2171 14338
44837 2070 45749
26544 2310 11079
34012 21878 26644
61685 39988 20250
28717 5013 12323
24959 4138 17395
48822 4058 27400
52750 2227 39751
52755 697 18916
56260 2386 26642
33792 18437 26917
11273 2726 36429
42701 2386 51217
16429 6933 28282
14531 39 43687
41542 38608 40385
39651 373 11111
17789 5182 28347
28287 2708 54210
42264 36900 27712
19381 8895 28052
8588 36892 52492
4535 36892 46391
13977 2385 27144
37338 2278 48867
20121 10676 29586
13589 246 20966
23583 241 52933
34936 30030 31465
27472 3055 11545
50602 4958 21725
11674 1888 26547
30967 21213 35966
40379 2873 12709
11342 4555 34999
37221 38648 44057
18436 2725 48677
35506 4342 53918
11378 1827 27614
47894 3003 15971
56226 821 27431
48544 39988 24846
51678 39988 31719
51503 39988 33860
48602 39988 22942
48356 39988 15923
45677 39988 15729
54815 39988 43376
43496 39988 3615
49455 39988 20565
53712 39988 40922
45757 39988 9190
46143 39988 19299
57641 39988 50322
45157 39988 6688
40410 39988 6157
47072 39988 24255
44009 39988 11327
51224 39988 27766
49707 39988 20976
39653 39988 2575
48697 39988 23847
47279 39988 22352
33354 36892 3386
38072 36892 5812
39640 36892 24708
37168 36892 2692
47717 36892 47245
37596 36892 11145
34783 36892 1585
48036 36892 46070
31233 36892 1957
35479 36892 17681
38810 36892 23050
38334 36892 23606
49918 36892 51603
41881 36892 20869
38948 36892 15179
38135 36892 7521
37981 36892 21650
33458 36892 4410
40872 36892 19126
35239 36892 2633
30195 36892 4594
37277 36892 15773
38062 36892 11001
46824 36892 39598
42651 36892 32102
33806 36892 8957
38127 36892 19235
34843 36892 12759
50126 102 45836
32351 34705 30600
46232 10095 34646
14306 38252 5433
32285 4231 54056
64555 37455 27206
63371 38929 22787
22386 346 13006
50488 2617 45394
43100 36905 26566
53110 3212 34804
48369 1975 42682
37135 4292 14615
13477 4248 27178
10880 1713 21732
14496 503 39949
28254 3870 16238
36370 2006 52879
39311 38504 707
39503 39604 758
49305 3170 32821
51603 364 40824
14506 410 21990
15267 4917 21331
41189 4593 52087
43762 38730 38559
18186 2691 39874
42637 4335 45735
53600 2587 26901
53802 177 39899
9050 1941 34688
30264 36578 41147
32692 34513 31116
47817 7873 33843
27891 2537 51160
12691 2324 24991
32226 26388 29925
51454 2427 43141
48734 2765 46604
47926 1892 50519
47139 2904 47949
10921 2116 27899
26275 4736 52139
52181 2233 21498
24928 2174 8863
54430 2873 35442
32969 23444 29308
20248 2202 11185
57280 37036 11456
56750 37396 10926
54023 4790 34549
44062 5027 47366
14768 4921 29480
35370 36902 23585
39238 749 9132
45199 5033 16255
35758 3203 9537
32866 35547 33139
22687 38887 63343
19999 38741 62624
15399 3130 18609
54098 4760 31380
51218 2623 20811
29716 39988 52535
25983 39988 54326
19442 39988 28343
30235 39988 64126
24127 39988 36182
24882 39988 49054
20969 39988 33845
30731 39988 51033
28348 39988 60431
18064 39988 24579
23062 39988 32983
13912 39988 10252
28628 39988 62692
32222 39988 60136
29769 39988 56813
21328 39988 37926
23394 39988 44939
34938 39988 62674
25274 39988 46867
21914 39988 31667
28161 39988 51710
22136 39988 36981
30136 39988 61658
25530 39988 47597
26156 39988 49438
28161 39988 59423
29444 39988 63556
16884 39988 21771
14553 2961 20384
31596 1881 9736
23176 4264 45589
32894 36440 32773
29497 2253 10892
36380 5053 12730
14606 2519 43758
37568 2653 54271
36986 377 51622
60144 36892 16120
28775 36826 42631
26194 36840 38677
49183 161 47577
12977 674 34051
32090 28417 30595
45219 39988 2937
51263 39988 9530
52390 39988 9635
45867 39988 3195
50255 39988 14247
52376 39988 13340
51606 39988 8847
57807 39988 32767
60775 39988 40051
54136 39988 22931
51087 39988 12602
52024 39988 11051
54526 39988 24107
32173 37172 44751
37899 21762 33701
63598 37435 23638
41047 12987 33452
48150 8043 35233
14697 672 16864
52967 2781 36769
32097 36397 34742
53383 2039 30101
23911 37640 39916
13616 485 38264
50176 2172 44117
49876 471 42977
45796 265 51113
23948 3076 12705
27287 4733 52415
55730 2458 38198
35525 6146 14720
20069 4611 14491
57660 39988 12009
58517 39988 20839
53515 39988 7998
58113 39988 13933
60771 39988 24599
54007 39988 8225
53307 470 34576
17789 1993 47395
30829 23984 31135
15969 1956 42092
55177 1776 41152
16678 2737 47772
21749 10501 30623
45685 1943 17006
51909 2980 36675
25125 374 11854
21668 2104 13164
38532 5028 50990
36929 2916 9996
35665 36843 39928
34932 36854 37045
10271 36972 8707
32906 36579 31350
35413 37770 43744
33970 37152 32483
29381 5058 51070
37477 2635 53458
1780 39968 43314
40615 38795 22760
11246 1682 29421
38643 36867 34838
42070 36865 35869
52423 4587 22507
13604 711 36899
38353 666 54868
39665 4968 51228
5736 38637 51021
38119 2833 52532
3532 39606 47205
40681 1983 14937
52701 2273 23253
14198 2250 41935
34205 38801 20100
30080 4558 48921
9885 39988 33221
7145 39988 19509
5787 39988 21746
7922 39988 31011
11156 39988 36792
9006 39988 31540
14351 39988 42986
11432 39988 35525
8183 39988 27663
4143 39988 23665
9610 39988 25888
10612 39988 35670
4507 39988 24359
8257 39988 30031
10838 39988 30393
14233 39988 46442
4636 39988 23762
47089 2168 47719
21907 4907 14459
12326 4878 35398
28671 1777 55508
35212 37938 20300
15522 2489 45249
52206 2004 25518
23601 2085 49293
28595 2642 53524
31727 365 9841
40665 39988 16617
32540 39988 8332
31567 39988 2367
37396 39988 18005
43740 39988 33199
30037 39988 1810
36325 39988 13966
38632 39988 16647
45374 39988 36182
48699 39988 45466
44557 39988 34295
36362 39988 1989
34305 39988 14485
34501 39988 5754
39210 39988 14002
33883 39988 8470
41369 39988 20066
33922 39988 6711
39269 39988 25266
37896 39988 4601
48472 39988 49048
39981 39988 26194
31279 39988 4492
35862 39988 2223
38885 39988 17649
42073 39988 26031
32710 39988 9661
47095 4753 21297
18283 2560 45904
31617 34869 31552
45369 38740 29366
26887 1980 51162
21618 36871 30532
12541 4615 24827
50993 5022 37381
23241 1960 48949
28251 20964 29835
21786 2757 14640
34108 22812 27216
23480 36897 24844
22621 4769 46352
15312 3585 17802
16092 2446 17898
22801 2059 49824
53610 2260 36865
63640 39942 41012
49542 2730 46573
42191 37270 39538
44824 37879 31112
53824 37172 56803
54614 37810 56013
41199 2631 9473
49969 95 45251
52199 1297 36098
17261 2658 45021
32104 30418 30698
50747 1229 40329
32325 26120 28791
5243 36892 28143
5945 36892 32462
11007 36892 50393
6581 36892 34173
13908 36892 58891
9090 36892 36897
17503 36892 59775
7101 36892 35142
11090 36892 52676
13530 36892 54243
15557 282 17900
33361 30903 29854
24840 3409 17789
13827 2804 40181
14921 5033 38194
34893 37058 25358
11176 173 28247
32809 39701 0
35125 39608 0
17132 2073 43652
28572 21872 29925
13007 3997 21859
26252 38789 21446
11762 2925 34395
40535 13899 34021
28909 3489 52437
29859 24906 32459
27002 3180 10899
12437 3416 26862
12744 36892 55292
10840 36892 45674
15663 36892 53804
8871 36892 44486
12257 36892 47492
7633 36892 38536
10333 36892 48306
12472 36892 54845
13949 36892 56861
14648 36892 57342
14997 36892 59489
13285 36892 50762
7330 36892 37140
22629 36895 63329
30022 10263 42232
36033 4462 12509
16466 6198 27469
40737 2102 12556
53031 2705 23481
32056 36893 27420
31218 36900 25623
33335 20614 28041
45298 5013 46057
23245 4952 16371
45307 37663 28978
40475 38398 41274
27400 36828 41926
33843 4737 49497
36608 3873 12835
42401 4736 46742
54182 2444 36343
25765 2755 11721
13642 4600 27616
33015 26367 30474
44829 39509 62616
22984 782 53518
34028 26780 32640
40057 36853 38422
35958 36868 33953
40009 38800 21467
45447 37306 34583
27270 446 9739
15280 4782 29309
13580 2885 42877
29491 1520 53513
16163 5550 29491
11574 177 31769
33888 38698 44217
52319 37385 58308
9675 2583 27571
36663 4947 11760
3103 39529 18344
3286 39206 18027
38637 20628 33635
48792 2725 19152
26303 39988 60722
22482 39988 63093
21131 39988 59896
24661 39988 63240
20914 39988 59268
20607 39988 59755
20081 39988 53497
11944 39988 31396
13692 39988 33932
18809 39988 52030
25781 39988 62985
21051 39988 49245
12165 39988 30166
18128 39988 55997
18807 39988 53343
17347 39988 45729
11915 39988 26881
18023 39988 53656
23408 39988 61007
14663 39988 33117
21416 39988 51502
22834 39988 61838
13693 2364 22115
32113 36557 34286
25840 1968 13189
29748 1426 12318
21807 2758 49538
36312 37135 44373
48710 2577 38403
33335 658 11211
1856 38950 43601
1857 37048 43604
15039 5017 37709
29662 27271 31292
35515 2499 10119
34156 24680 29167
22029 3199 44186
47174 6110 35055
35561 28447 31706
17373 5025 21124
54482 3101 25845
2584 36892 31877
2650 36892 34080
774 36892 27823
11854 36892 56452
8731 36892 45441
7535 36892 44214
2486 36892 23228
4143 36892 35744
7741 36892 46348
8265 36892 43296
61122 38167 17341
28916 39988 42014
18860 39988 18029
17311 39988 12750
21839 39988 25720
24215 39988 24079
30854 39988 49716
32079 39988 51950
22667 39988 13763
22813 39988 30521
21716 39988 10940
25203 39988 36368
19996 39988 3630
16124 39988 10710
26492 39988 37274
21328 39988 13549
17527 39988 14707
20596 39988 20886
17308 39988 6033
24499 39988 19859
17789 39988 16361
18501 39988 5371
33647 39988 55362
28413 39988 40950
16768 39988 6595
29461 39988 39122
21239 39988 27018
24249 39988 20634
22632 39988 29673
19151 39988 21628
18687 39988 8203
24054 36891 26266
28704 36897 25810
31399 36882 29813
29103 36890 27510
23642 36881 28702
26358 36886 27878
18220 38034 3173
17134 37875 3802
36285 37144 43549
45629 4638 20183
31139 368 51940
15378 4421 45243
54796 4378 28860
10697 3274 35620
44174 5022 15424
36310 38436 64803
30892 7138 45280
23556 38705 40661
30808 14071 39261
45873 514 12804
37914 2784 53746
49883 841 15243
25546 36483 29865
48182 3341 25771
34067 33136 31225
38789 36875 32967
37709 36888 29622
42429 36890 30156
40249 36885 30755
36737 36881 31036
40718 36880 32005
38989 36905 25841
28934 2 53611
15542 2423 18808
15625 4976 25273
51932 5028 26192
33537 38129 64803
30132 3406 9484
58886 38259 13471
48181 1110 13190
54300 1847 27474
35071 2610 54828
37167 36839 41012
37275 36836 41944
28211 23413 31146
42042 12360 32913
53031 39988 23062
54062 39988 32090
47037 39988 10072
57025 39988 37209
53893 39988 35110
55173 39988 29963
57418 39988 42688
60302 39988 43814
58497 39988 36118
60062 39988 40471
49705 39988 14816
53806 39988 30582
59626 39988 41843
56527 39988 41146
48451 39988 13713
61253 39988 41981
55243 39988 36128
55386 39988 31417
35312 12134 20279
26349 1961 50709
60522 39523 48501
51349 2275 24313
45394 37622 29509
29389 36920 20566
12046 2804 26057
28600 1982 12254
12744 5005 31734
53998 3753 39953
17844 2748 48952
13221 2847 22655
15012 2426 15724
21674 1513 47696
39680 3314 10524
35570 4740 49417
18787 3478 40029
52505 5046 30475
23381 1893 12134
13496 2396 36602
50535 3542 17766
1688 37509 21832
54036 4615 27478
35962 25101 31444
36956 123 54112
12609 228 23007
47047 2971 13322
30628 36372 40392
43744 2773 19208
21724 3069 11873
33843 27029 30257
22966 1385 9821
21976 3200 12397
53710 2240 38146
14433 2306 21263
42147 2696 52788
13321 2477 40840
22363 1628 50766
22395 36880 28743
25075 36902 24029
28811 36880 29979
25639 36881 28923
24711 36894 25666
46709 7281 33699
44549 38234 29012
45138 4627 14158
37397 2540 12418
49946 5036 21990
21987 2787 12978
53838 271 35135
11496 4655 29947
42881 2462 12645
2012 37876 20621
22136 38482 25210
53052 4669 39550
37812 1874 50795
36157 3533 54354
34055 15770 25301
14815 1980 40794
43114 455 52877
14678 2318 46720
7537 39988 31728
10426 39988 31072
8828 39988 32453
10235 39988 31545
10330 39988 37695
10013 39988 28783
2608 39988 19577
5508 39988 14643
9107 39988 34997
6140 39988 27572
5592 39988 15403
7976 39988 22718
4598 39988 16467
6816 39988 25939
7538 39988 23828
9164 39988 33216
26694 37011 30521
47882 3048 24984
19846 456 15541
25017 39866 63969
24116 90 50920
30533 5405 48958
32229 2528 53737
34638 38273 19414
43844 3847 19696
48337 2203 13092
23714 2358 12445
56471 2726 30344
49394 4533 27329
54013 2073 36642
64803 39945 36017
41449 2891 12396
57001 39498 53627
56566 39222 54062
46794 2694 22490
45624 39290 2621
10885 2698 32764
34697 37323 32345
18992 2579 22280
20489 37489 28881
50276 484 42359
35710 2116 11138
48978 1972 44161
24444 2457 51073
19651 2986 13872
46566 1559 48792
19131 39988 24655
26370 39988 40562
27782 39988 55816
24668 39988 45464
24061 39988 39594
27729 39988 62853
23670 39988 36713
32610 39988 55482
18572 39988 27225
26907 39988 46262
27363 39988 44722
25089 39988 37315
28089 39988 49842
28167 39988 58911
17539 39988 19989
31743 39988 56499
25636 39988 52797
27648 39988 54491
28321 39988 48564
27737 39988 51035
35137 39988 63177
30504 39988 54213
30195 39988 56568
24342 39988 43097
28775 39988 54663
33559 2526 53734
16237 481 48322
14969 2282 43435
16387 2707 17293
51905 2683 39384
34470 36890 28631
58139 36892 23164
52230 36892 14786
62095 36892 31041
53999 36892 11435
56867 36892 20659
59772 36892 27538
52247 36892 6566
63147 36892 33126
51189 36892 6616
55412 36892 18757
44076 1960 16492
1884 39988 37135
2016 39988 39114
54435 240 27914
13244 36892 25453
19856 36892 35854
22257 36892 49836
19560 36892 35319
11399 36892 21922
9437 36892 10132
16165 36892 21056
19204 36892 40750
24314 36892 50790
10549 36892 19339
18484 36892 32650
10530 36892 12645
25062 36892 57081
21126 36892 44986
21283 36892 39822
10317 36892 17239
18889 36892 37463
12278 36892 19059
12663 36892 15392
17648 36892 37837
16872 36892 23448
19876 36892 41575
47501 338 15220
49396 424 48346
40623 37700 21900
32383 3223 15589
12196 1363 19439
48243 4697 46799
17276 3920 26981
14074 2587 24663
10266 37595 56091
12078 38337 57903
47719 4469 40329
17942 2895 15514
16202 102 46841
21777 4508 44911
21533 38118 26119
17863 1925 19009
16361 2872 30888
9786 1573 38892
31446 11482 43470
14858 2043 28676
19405 2308 48640
13416 1998 21708
39087 565 11956
26966 2617 51809
42715 4348 51660
42265 38998 1500
55469 1295 40262
50780 448 17516
33537 33241 31720
43327 4480 12820
31187 9251 43175
40611 2039 51063
60006 38492 49396
61665 37259 46521
12563 310 42657
35235 7073 15916
24339 2685 17574
36350 4350 53763
16255 1985 43444
33963 26209 29878
30760 36906 24114
31689 36891 27930
28323 3759 9975
37344 2407 8040
53146 2794 28402
10822 193 28861
38769 16420 33016
53615 561 21232
51915 328 21998
40730 37876 41077
16396 3064 18194
30531 4854 14095
14950 38655 5062
37377 2134 11921
37852 18556 32284
11843 2508 36568
32870 35806 32631
37497 4819 14784
52752 2252 32450
10973 4131 28165
42859 3114 45139
43706 10418 33154
14469 4879 22348
44607 4880 49206
30533 708 8420
34382 3026 8703
51129 1995 28250
16271 4922 19635
49805 1933 22336
54588 4550 31544
26892 4047 47426
64011 39988 37926
63698 39988 36373
61747 39988 40034
58997 39988 23282
64097 39988 35242
61716 39988 38486
56458 39988 16684
60912 39988 30325
61761 39988 37798
62552 39988 31328
31811 29016 30636
39227 444 9987
33556 37835 44828
56885 36892 30338
49567 36892 13157
52029 36892 15845
56105 36892 28803
58126 36892 32877
57040 36892 23687
54159 36892 22051
63435 36892 36560
57180 36892 27860
60083 36892 37388
57592 36892 30817
47087 36892 7113
60798 36892 33211
57651 36892 25781
36128 36892 32669
30143 36892 16426
25178 36892 11656
39050 36892 42044
22989 36892 6067
31191 36892 14348
30275 36892 22518
35338 36892 29895
27107 36892 9439
41542 36892 50113
24641 36892 11436
27661 36892 2605
24062 36892 2497
24606 36892 3516
28039 36892 4214
38520 36892 39258
36393 36892 39277
31244 36892 19149
33471 36892 20014
28557 36892 6608
34912 36892 37712
22606 36892 6842
35049 36892 35910
34609 36892 34267
38829 36892 41459
35620 36892 30448
30826 36892 18194
26186 36892 4089
23917 36892 7785
49655 4991 43496
44728 2682 50002
50777 3844 45774
47163 2100 43222
39455 36847 39597
37799 36843 40235
52749 1983 27974
43057 2896 51000
53230 38268 7405
55471 37436 9646
43397 4872 17258
37306 5020 50262
46427 39988 28085
55828 39988 53608
55360 39988 54192
46241 39988 25509
50692 39988 35654
52450 39988 40007
46717 39988 26829
51448 39988 44077
51581 39988 42026
51528 39988 43454
52105 39988 57484
54817 39988 48902
48130 39988 27709
53643 39988 51522
48935 39988 40197
40588 39988 11172
54568 39988 47911
49002 39988 34686
44402 39988 22327
42044 39988 13196
48164 39988 41619
54398 39988 43124
52100 39988 47672
48242 39988 40435
28735 4027 53885
17052 5022 44230
54600 2320 33443
3980 36892 47391
35679 9143 17445
34473 1743 53449
32944 2270 51754
22882 10498 29910
23568 37243 40719
55440 2648 24061
16241 4264 29849
62347 37227 45341
48899 2134 40031
47347 2059 20586
32601 22387 28341
22466 1634 9998
25474 542 50351
32527 2003 50444
10674 544 24782
46748 4445 41939
36302 39442 0
32649 20966 27216
37881 4865 11681
20586 481 12255
40139 2082 48709
92 39988 28639
64 39988 35443
4662 39988 46809
15872 4512 33450
32134 2594 48831
15483 2105 20644
28210 37245 64803
32872 38248 64803
36864 1224 12157
31943 22907 34454
49982 39353 59667
48662 39486 60428
31631 37602 43904
15578 4883 36757
30822 36628 31632
16729 1959 41822
32473 34327 32552
48887 4585 35425
19081 4903 47339
39647 3172 12599
64576 39988 29937
63470 39988 26711
63842 39988 30366
32342 37302 31625
16402 5043 41645
21047 37945 33387
52733 2048 26654
36508 5045 51267
51892 2073 40335
41613 38038 40292
55135 225 32674
26714 37879 64424
22121 39578 63193
43406 2341 13221
48277 3920 48231
22653 714 10701
21662 37826 27989
46945 997 51322
56836 2303 29396
35801 2544 53181
25547 4582 16388
27801 21854 30236
33950 37472 20131
33626 28833 30913
34081 18727 24875
32326 769 8168
41155 3136 10570
16308 2806 32400
52413 1409 28983
30434 38610 44584
49831 4521 29039
31582 35514 31776
40751 2872 52410
30442 4786 53046
18802 4722 21396
47197 2201 42606
28981 36859 34697
30275 36849 37366
29142 36843 38712
26663 36865 32995
28862 36831 41360
27968 36865 33206
24426 36876 30035
23068 3081 13076
49094 1114 49538
59058 39988 14201
20914 38233 32367
52483 377 20263
44282 3160 13593
12685 4772 38042
31091 36848 37737
45928 2746 14336
17578 1995 21473
45987 4821 44017
26095 2232 10866
1602 39524 42651
26949 36892 28704
30368 36892 48424
18734 36892 18567
30352 36892 43912
23104 36892 18924
24073 36892 31234
18441 36892 11203
19609 36892 19634
17062 36892 13682
26206 36892 26618
21836 36892 18017
19717 36892 20991
17453 36892 16339
31598 36892 50332
22877 36892 27723
31012 36892 50247
19337 36892 11147
18432 36892 4898
17725 36892 16944
19471 36892 14300
24644 36892 20654
22944 36892 19946
19394 36892 15894
22415 36892 15197
32065 36892 49075
19859 36892 13581
19355 36892 6616
11520 146 33947
43730 5054 15860
33173 21736 36184
14087 1736 37365
30834 19722 36630
30882 7080 47172
33126 33584 30500
10123 2873 31488
50686 2887 19154
20776 2331 47683
29407 9751 43562
27647 4048 10321
53597 2733 20436
22600 36860 33301
11651 2989 38676
12323 2802 30799
15102 862 40289
41321 3232 11440
44138 2921 12733
15808 2092 26034
45635 1502 11215
36682 37997 44298
29771 22003 30438
33267 32214 32140
40234 37983 21622
27546 3906 47481
14149 39281 59279
12864 37934 58537
54568 3059 32435
53608 1720 38771
42264 37896 24620
29295 2018 50791
25862 1953 49794
26418 17801 31700
42452 37916 23595
50240 2061 20809
22407 4340 51244
24765 4591 16824
47525 1687 47942
64715 39833 37002
55287 1204 22821
24871 4668 51947
10313 39988 23829
17979 39988 50647
20994 39988 62200
24184 39988 55577
18145 39988 54134
20512 39988 54497
23143 39988 63037
20544 39988 53246
15712 39988 42997
9150 39988 19744
20372 39988 59040
15602 39988 38159
17841 39988 47549
20450 39988 47299
19443 39988 44426
21951 39988 59521
13912 39988 40027
20390 39988 52183
25699 39988 63976
26622 39988 62270
21552 1959 16614
57421 39592 53206
22017 5030 16332
44234 38308 35879
11210 2628 22644
18061 2066 44719
54470 2509 28243
16628 3427 32584
34604 39988 32819
39555 39988 44753
25256 39988 8615
26195 39988 9775
43389 39988 58133
25752 39988 14945
25947 39988 1850
30248 39988 26735
39594 39988 45639
23129 39988 8423
40844 39988 49524
24772 39988 8452
22350 39988 6816
28437 39988 18763
26586 39988 13413
27476 39988 17834
35070 39988 29614
34408 39988 27141
28265 39988 1979
23944 39988 2511
29152 39988 9302
23278 39988 5101
42193 39988 55912
26867 39988 15329
28513 39988 18267
29135 39988 19765
35843 39988 35137
38334 39988 42116
30595 39988 15677
52792 3812 21539
56066 402 30279
50472 657 41638
27836 18601 29837
40909 15272 32369
33361 36797 32317
28018 3701 53855
47514 39150 3712
52324 2079 35182
46171 4000 41972
44785 39988 50350
38566 39988 30568
35958 39988 23851
45121 39988 56322
40285 39988 39841
48689 39988 56349
39321 39988 31140
43336 39988 55428
46407 39988 59973
43812 39988 55999
49772 39988 55823
47959 39988 56607
39890 39988 39323
38518 39988 31413
36862 39988 21427
39269 39988 27441
45531 39988 48981
46704 39988 46346
34038 39988 21152
38394 39988 26178
44832 39988 46676
38900 39988 28655
42579 39988 35810
44764 39988 54322
46156 39988 46099
33266 39988 18609
35096 39988 21262
45737 39988 47420
31127 39988 7477
46162 4358 14244
59222 38688 50752
20201 9750 30326
46790 8340 35653
42410 4688 51127
18484 1662 48132
32352 1635 51306
48917 5041 42537
33625 31539 30494
16106 2285 36622
46991 2500 41653
35388 24335 31629
40344 37343 22693
37532 36918 22669
36217 36902 26146
12925 1922 28511
34036 3446 9473
32091 29687 34333
25300 17541 30951
47256 39988 39701
37375 39988 19854
39372 39988 21441
34880 39988 14153
28606 39988 741
36313 39988 11703
38938 39988 25771
39874 39988 21907
44681 39988 38035
40458 39988 18042
33646 39988 11090
34319 39988 3080
40264 39988 14551
36634 39988 3687
38317 39988 13126
40382 39988 15542
42325 39988 30794
33093 39988 5951
40466 39988 23773
44829 39988 39698
47445 39988 40353
41699 39988 21888
32195 39988 2477
30741 39988 2867
47344 39988 41806
46869 39988 44492
34618 39988 11765
16904 4961 27551
13789 5005 25472
42254 2333 50763
16471 290 17669
19974 873 16451
34601 3044 54291
10542 198 30339
0 37050 28298
28331 1132 52041
36365 2218 51342
55137 3678 28119
25459 16609 31463
16170 2341 27590
23604 3673 18474
41509 14672 34634
20991 3397 50988
28611 5663 47497
19590 10038 28841
35778 37177 0
28279 36916 0
24167 3177 11265
11928 36892 32465
14127 36892 31818
11793 36892 26546
20456 36892 60440
22874 36892 61325
17728 36892 48662
20035 36892 55006
15914 36892 41795
20483 36892 56256
19609 36892 47114
23618 36892 56980
16047 36892 42269
22392 36892 59452
17701 36892 43727
21634 36892 50792
20541 36892 54723
17394 36892 52015
18254 36892 56246
16834 36892 39705
12897 36892 34644
12677 36892 32770
14340 36892 34723
1900 39232 21043
1426 39892 22813
11603 3230 24936
52838 2608 38727
20565 2900 20912
36730 2216 7869
5746 39988 48929
4176 39988 41678
6276 39988 48369
6061 39988 47689
6251 39988 44687
9230 39988 50484
57919 37859 12094
55169 2978 36343
13489 5028 36000
16562 39988 58981
15229 39988 59501
11923 39988 45341
11892 39988 52371
12462 39988 52086
14460 39988 55119
6372 39988 30172
7406 39988 36909
17569 39988 60854
14188 39988 54466
11678 39988 48074
5842 39988 28806
12109 39988 51259
28849 2318 48842
17042 36892 8379
25138 36892 28686
21944 36892 29026
20566 36892 10053
29177 36892 45537
20751 36892 11022
25490 36892 30971
23005 36892 15407
29974 36892 42452
16942 36892 15290
21525 36892 22422
28501 36892 34909
17397 36892 11723
23139 36892 31432
30327 36892 44560
17186 36892 5456
22046 36892 12275
18321 36892 13319
30935 36892 44379
22136 36892 22390
20281 36892 24768
30561 36892 49278
18617 36892 20729
27375 36892 35688
13037 2927 41020
54425 2805 34460
23588 38778 23419
34581 28283 33417
9115 38394 9864
16961 5024 19831
28038 2334 52828
26901 19527 31706
51004 1964 26379
40491 4947 51105
36467 3516 11830
34152 17741 24282
34454 39988 18180
42990 39988 42917
43041 39988 38352
42553 39988 39214
45769 39988 46937
43945 39988 49749
46187 39988 54789
42240 39988 44861
41005 39988 39150
43067 39988 44701
43287 39988 46166
44196 39988 44762
44988 39988 60967
43869 39988 42961
44776 39988 57952
36595 39988 31325
40887 39988 41475
44632 39988 52783
48332 39988 52227
38954 39988 27820
32952 39988 17727
46604 39988 60751
36728 39988 27778
50921 39988 56727
44364 39988 44073
39915 39988 31818
18056 1220 12908
53007 361 43319
32407 669 51628
35295 36867 34026
34866 36869 33527
51768 36892 24456
54507 36892 34115
53407 36892 24667
56897 36892 42253
53924 36892 35216
57063 36892 37770
57832 36892 38138
59493 36892 41711
56905 36892 45331
56067 36892 31176
58478 36892 50883
49019 36892 16007
60654 36892 45795
53068 36892 28916
51493 36892 26532
47708 36892 9364
26107 18598 29865
26807 2166 11847
5572 36892 43806
2718 36892 35086
2300 36892 38946
6156 36892 45734
10896 36892 55135
7741 36892 47721
43627 10894 32997
39473 3121 11130
30199 15270 39877
39244 36892 63280
35409 36892 51884
31912 36892 37811
22993 36892 12920
30202 36892 40067
33344 36892 44131
35013 36892 55481
32307 36892 44184
35170 36892 53266
29801 36892 36755
36653 36892 62736
42907 36892 58675
27482 36892 30489
33309 36892 43365
36571 36892 52387
40575 36892 56185
25136 36892 19290
24940 36892 16281
28125 36892 23059
40523 36892 60462
31947 36892 43457
27422 36892 29129
35284 36892 56893
26408 36892 24808
33542 36892 49491
36898 36892 48111
41601 36892 62962
37631 36892 48132
39944 36892 61571
18791 2615 15087
25768 3016 11185
23060 37242 1358
13966 1959 34013
55518 551 38098
13477 169 43661
16417 2940 33509
26901 2523 15974
35335 8530 19584
54818 2240 21864
36537 2858 8493
42496 36892 2096
49413 36892 19944
42087 36892 2478
46551 36892 20872
53724 36892 37679
45411 36892 8946
38854 36892 4917
51871 36892 36103
55197 36892 41755
45197 36892 5976
40643 36892 2917
49339 36892 21654
39709 36892 3777
40333 36892 6971
52516 36892 34218
42967 36892 5038
48978 36892 18594
48601 36892 16392
44659 36892 12021
45671 36892 11946
64803 38041 36114
64803 39294 35982
24603 36843 37759
19786 5052 17557
46586 1204 45852
24711 37432 22289
41672 3760 18106
50769 1958 23265
10082 348 29240
10851 2669 39243
48197 2193 16054
30738 19723 37260
59645 36892 17153
56672 36892 13858
62363 36892 23441
36062 4477 48716
24923 2708 50949
21191 1891 49735
10400 196 33881
39409 2689 16357
37460 2109 14535
32236 2240 14366
34947 5016 51962
18899 3121 14318
12823 2086 23319
13472 2068 17573
14379 2152 22154
37739 38510 42955
30213 2927 11356
13339 1591 31785
34491 26817 31464
47535 38830 61080
50525 37033 59354
50946 628 16985
27840 36892 3591
27677 36892 19721
38089 36892 43789
42913 36892 57675
28281 36892 15655
36141 36892 34401
30581 36892 16921
30587 36892 13505
29210 36892 23292
26038 36892 14935
26236 36892 1767
26841 36892 8406
26193 36892 6093
29799 36892 25983
23600 36892 5822
29135 36892 14345
29756 36892 10168
32655 36892 19809
37944 36892 43219
33430 36892 33292
35993 36892 29834
41101 36892 50740
26073 36892 9985
32688 36892 23209
41906 36892 52691
32973 36892 24992
29325 36892 11407
29974 36892 12994
34526 36892 25983
39276 86 53481
38422 17504 33833
13567 2175 35772
8047 39988 46094
6117 39988 42375
2898 39988 32805
7658 39988 40297
5608 39988 38314
4020 39988 32607
10080 39988 50175
10419 39988 52534
3768 39988 26684
5656 39988 41686
18428 737 45282
20349 4829 14980
31349 3803 9542
12309 2845 38587
10255 2264 24268
24130 1981 13777
47843 762 45137
35901 4650 53358
54192 3542 24450
56776 1887 36178
45056 38799 2292
32991 21431 28273
51804 4078 36592
17532 38084 61232
25216 3117 11481
18586 4690 41952
33291 1937 55732
34405 2575 11800
28895 20163 30237
9595 2655 31259
32061 2523 11695
21751 12580 29384
43944 36877 33439
44710 36880 32789
54137 2243 33049
31930 36920 20994
32622 36921 20978
51107 2383 40377
35889 3021 11270
46371 2825 49781
16902 2583 17597
43370 1014 14694
54780 1284 42264
20383 38749 29633
35219 36864 34881
40349 36845 40283
30644 2853 53538
35868 3963 13777
56330 703 35686
51915 5054 28103
31506 32024 30848
32836 36886 29345
33217 36915 22489
30030 12844 40752
42771 105 50420
21631 36892 32969
21566 36892 35383
31390 36892 60975
30475 36892 60927
28002 36892 51524
28351 36892 60698
20837 36892 30032
25522 36892 48294
29659 36892 59147
26019 36892 44463
27992 36892 58475
25424 36892 40867
29863 36892 58497
29820 36892 60039
34407 36892 63474
21167 36892 34586
17842 36892 23325
24514 36892 48167
30978 36892 55498
17895 36892 20515
20589 36892 32391
30749 36892 58362
20919 36892 33066
30290 36892 53788
34180 36892 60973
19774 36892 24036
30869 36892 53784
36696 50 52598
19997 38177 2179
26139 39421 534
24963 2671 12041
20673 3114 42862
12072 2249 36057
50397 6142 35248
12151 2931 23540
56581 39988 26695
51346 39988 16746
52638 39988 14515
46498 39988 3746
56549 39988 24709
58245 39988 30793
49844 39988 8358
55658 39988 23058
54625 39988 23629
52866 39988 8936
57661 39988 26851
55415 39988 20048
52415 1182 28470
33048 36831 42094
33254 36864 34460
31898 36828 42553
32035 36856 36188
11381 2527 28200
33283 2629 54841
12543 1879 39118
9451 548 33792
11188 2293 31829
27919 38259 43760
49871 4700 27727
15294 5036 24390
43712 2006 47064
34798 4099 54165
31821 28835 34431
19738 2136 14342
47831 2008 47591
45849 37545 62053
48911 3200 16809
47011 2004 17339
34676 473 9082
23691 2844 10233
45917 4938 47961
42049 11770 33481
10457 2948 30188
52645 318 23519
11299 3508 25820
27598 38091 20463
55761 363 34553
8978 1044 31287
31702 33582 32260
52024 2548 38261
48238 36892 29158
47414 36892 34907
42008 36892 13926
40226 36892 12188
55695 36892 53374
45597 36892 21560
52641 36892 46812
50833 36892 45501
48727 36892 40513
45167 36892 28555
44752 36892 29699
53404 36892 41443
44770 36892 22446
55871 36892 51729
51970 36892 52316
38056 36892 4038
56976 36892 52826
50188 36892 45156
55148 36892 45188
46690 36892 27857
43420 36892 17986
50222 36892 36050
45412 36892 24944
47101 36892 37450
48329 36892 30385
30099 2216 14441
44413 36901 27801
27575 2150 52702
20286 1381 16697
23439 4872 50515
50687 4817 20658
8656 37633 54481
23844 505 13096
31834 39835 0
44629 38053 29622
44219 12354 33574
28533 36910 22674
51626 2161 46714
42697 36892 51625
32397 36892 11715
46207 36892 55848
35192 36892 20499
47730 36892 54734
38063 36892 27770
40613 36892 45047
44610 36892 52305
39736 36892 28860
43990 36892 42790
38570 36892 30157
46567 36892 56751
38322 36892 25334
39808 36892 31114
39866 36892 33858
38764 36892 33835
47647 36892 51860
36275 36892 26997
39411 36892 40780
49561 36892 52760
40324 36892 32573
46559 36892 45966
45816 36892 56462
45009 36892 49584
49173 36892 55480
43790 36892 43502
43894 36892 46450
43869 36892 41309
45051 36892 59399
36153 36892 28918
30649 4950 11496
5156 37980 14787
36699 2246 14771
25107 2358 16516
34466 33548 31901
0 38464 34687
0 38197 35345
47859 4661 40804
28254 19059 31611
43105 38693 1723
18691 2045 17233
39542 4525 16038
20726 38727 34882
48077 3955 25299
20732 1697 16399
11881 2295 34925
40554 5036 50319
23180 4063 18494
12141 2111 33969
34776 3047 10881
12923 5017 29435
19589 9202 30158
43852 37796 36798
47084 36892 13312
48705 36892 23808
46053 36892 11245
40276 36892 8135
37419 36892 1768
42782 36892 3573
46426 36892 23542
48511 36892 25464
48147 36892 21184
46762 36892 12174
45384 36892 4280
50279 36892 28285
42824 36892 5558
41790 36892 9990
43710 36892 14646
53506 36892 39156
42856 36892 7911
48686 36892 22647
43830 1965 48621
16109 397 16222
37421 4228 11765
15351 711 47726
11822 2683 32665
33312 24029 35533
51649 4402 20605
46407 2676 47791
37509 5052 50699
23466 2609 12109
30302 2075 50035
22448 2869 50979
0 38007 34879
47669 1945 44335
40817 2811 17306
52456 2838 42482
31399 2347 10476
31744 1243 55767
50317 39884 5330
51753 4813 36088
62981 37074 21331
24212 37924 1050
22659 36921 1466
48396 2811 48386
49245 4058 47103
45224 10148 35313
24109 38707 40356
49340 2503 20176
13300 4133 42319
64803 38147 31401
64803 38830 28783
21102 36892 53561
21576 36892 50104
20551 36892 50810
16486 36892 49382
23819 36892 58423
11518 36892 29890
26188 36892 63400
10958 36892 29178
21522 36892 57607
16499 36892 40203
13343 36892 36990
18219 36892 42915
21954 36892 57048
17494 36892 42761
17694 36892 44237
21105 36892 51252
20471 36892 46328
29525 2742 15594
32115 12886 41068
4143 39871 48263
27243 4936 14575
25562 37482 42430
35921 8555 16846
36336 37477 19718
15499 2297 33587
26907 38791 21109
45536 2860 49053
34574 10217 20851
33313 2777 54347
33204 37136 30244
55290 2978 27042
48042 63 47464
49831 4590 18307
21925 2039 46754
40153 642 50421
55447 2122 22987
53522 388 28216
38482 2454 51219
45489 4691 44041
12419 2053 32209
46396 253 47427
11324 2409 32954
22330 346 12189
0 38562 30072
34006 12845 21406
33122 31664 33940
14356 5003 30811
31994 26704 33157
22958 4527 51234
8584 37045 10396
44897 3041 14697
35815 392 9619
49781 1673 41783
36754 37162 19876
48190 2600 45446
49447 2653 17376
13315 1947 30330
43119 13299 32996
11692 1753 36609
33693 16223 25454
30965 37215 38667
23660 2573 13985
16348 4133 33705
16796 3349 29097
17062 38720 3842
17445 38392 3621
52170 2982 42063
44373 38779 27158
35688 2501 15061
53773 2807 21129
14706 1638 43966
47417 2633 15365
16308 1219 21163
28106 4633 15351
50490 4922 27175
32363 23727 28440
37118 2120 10906
51035 2445 47037
24680 1942 49379
36892 36876 44199
50562 2791 44221
33973 36924 20466
22969 37138 29142
64237 36892 31656
55028 36892 11260
62666 36892 27755
63377 36892 26564
58347 36892 20894
32594 29406 34551
31399 8730 44997
52133 2675 40573
53299 3114 24333
15369 2246 32511
3660 36892 36334
7440 36892 41277
3867 36892 30903
1571 36892 22322
4082 36892 36888
7897 36892 45891
6720 36892 41538
4280 36892 38223
27365 18675 29613
21334 2784 11273
46476 1834 17407
32575 16120 39025
31717 32664 31169
18632 5042 45402
32579 3961 9617
41492 38050 63512
44474 3265 43525
33189 39988 31497
27639 39988 230
35058 39988 38096
31810 39988 17947
34737 39988 32297
37126 39988 38660
27183 39988 3743
32514 39988 20923
34738 39988 30694
37501 39988 42344
41829 39988 52352
22509 39988 4402
31430 39988 27499
29023 39988 8188
37600 39988 35648
28585 39988 19815
29000 39988 23043
37834 39988 36898
29453 39988 24406
33044 39988 28407
40750 39988 50353
28328 39988 13757
37198 39988 39551
30756 39988 13349
34222 39988 28066
41103 39988 48643
23542 39988 6729
29877 39988 17841
47130 4587 48296
16554 76 45229
27650 2857 11980
40388 14684 34346
31189 9647 42760
43999 2689 14897
54420 2992 37943
34867 558 51761
30984 2189 49659
30632 4167 15365
30542 29349 30929
30388 28429 32414
32873 33132 33693
31624 39988 46304
23239 39988 24725
13312 39988 7013
20871 39988 11690
20011 39988 14133
32386 39988 52759
25960 39988 37857
22382 39988 15373
19537 39988 6435
21322 39988 15577
29148 39988 44814
17947 39988 5707
18597 39988 3780
19672 39988 8281
19923 39988 9356
22814 39988 28024
22012 39988 26403
32499 39988 50668
28132 39988 42465
26333 39988 31247
33310 39988 54102
27120 39988 39025
21744 39988 17645
21043 39988 16465
19781 39988 20523
30917 39988 44101
23218 39988 22140
19953 39988 13242
49761 874 48743
17004 3321 47756
16509 1401 42618
38059 2873 53019
43612 36892 54739
48933 36892 51135
40898 36892 39428
33210 36892 15399
30761 36892 9257
35731 36892 27466
40494 36892 42331
36465 36892 23944
43111 36892 54931
47929 36892 58401
50331 36892 57653
49958 36892 55111
40504 36892 36653
40489 36892 41672
49732 36892 54367
43159 36892 50124
34676 36892 24199
43808 36892 40700
42174 36892 41199
42904 36892 42019
41462 36892 35448
48826 36892 50142
41603 36892 39824
37011 36892 30322
38831 36892 31427
37176 36892 26142
36259 36892 25620
14851 2489 20544
52862 4137 35419
53450 2323 25809
43297 36872 34508
35008 36878 31526
18491 2309 50446
62511 36892 27213
62971 36892 27029
56126 36892 15340
56127 36892 13904
63624 36892 31877
56563 36892 16009
53061 2731 41259
15486 199 43352
53404 2089 35482
31480 37052 64803
28660 2379 53959
12140 2111 31665
44774 4145 50721
23751 4922 16241
19154 4574 42394
12464 3005 21746
18346 2850 47624
18983 4771 42942
34373 34301 32251
39252 3123 9847
55203 36892 19610
58521 36892 22254
47617 36892 4930
60090 36892 27931
59271 36892 24062
54382 36892 18172
53480 36892 16269
52523 36892 9310
60233 36892 26215
44031 2827 49916
12749 573 30817
1421 39988 40549
47951 3026 17109
35877 23052 31725
22201 36838 38459
31295 8410 45441
40264 4417 52612
47779 2783 46392
51959 1955 32510
21342 994 10920
52767 1727 41190
17931 37415 61462
56002 557 28354
39274 2685 52480
30015 13430 40589
53762 3403 40798
9018 39988 49821
4957 39988 39323
1746 39988 28133
4790 39988 36956
3792 39988 34353
3399 39988 32378
2085 39988 22393
1978 39988 25758
8150 39988 47689
33791 35148 31873
27131 37215 42555
55064 424 25451
41109 36911 24859
13479 2345 22713
34833 32018 32170
50220 4854 36452
48444 2446 39298
56549 1527 26770
44817 2471 44206
53508 2769 30802
48461 1608 47112
11923 226 28757
37643 399 10765
51198 2852 42088
11965 4837 32938
11006 1107 21924
15528 2313 44019
32495 16337 38377
9421 553 31916
8046 36892 19916
3536 36892 23059
12410 36892 35655
16587 36892 54192
7815 36892 30489
8618 36892 21751
10128 36892 33598
14644 36892 46459
15981 36892 52614
12076 36892 38958
14742 36892 43752
11411 36892 38979
8700 36892 30369
10811 36892 31658
14787 36892 50180
7686 36892 28534
13059 36892 43397
38110 2654 54167
27008 36870 31933
31644 36874 31867
27776 36856 35284
22931 36872 30694
28832 36868 32620
21979 36875 29746
39131 1459 50425
17461 2102 22700
34107 35654 31725
36200 1978 12022
40224 37902 63852
39697 36963 63992
24256 12283 30254
25688 820 12837
15105 2004 22265
44219 2584 10646
44071 4478 44866
44330 57 50104
33667 35880 32733
12478 225 25369
16353 2297 37427
21059 38754 28559
43911 36867 35883
40209 36869 34611
16609 3353 30187
55383 2870 25819
51390 430 46067
41029 38502 23226
30684 8494 43599
45552 5037 47204
16335 401 19019
52101 1873 27450
45189 221 51314
33730 32385 31059
50251 2124 27347
58418 39988 19554
55411 39988 12884
62095 39988 27551
60781 39988 25910
60102 39988 23361
46292 2178 48334
52244 5057 29062
43787 9607 33919
64803 37137 28533
64803 38005 30897
33236 35012 31238
31154 37645 19419
16848 280 16932
33222 413 10450
33515 39988 38361
37679 39988 52432
35856 39988 48534
26983 39988 22708
32431 39988 39451
29625 39988 29526
37794 39988 45877
25334 39988 16706
33891 39988 41643
35162 39988 40552
43192 39988 60073
21571 39988 8336
37958 39988 46567
34503 39988 44161
31384 39988 32550
31077 39988 43051
34121 39988 54372
24578 39988 17862
36565 39988 43437
28777 39988 34717
30083 39988 31433
26922 39988 24430
44166 39988 62308
44602 39988 62605
23779 39988 13701
32952 39988 48017
36260 39988 41950
34308 39988 50203
22640 39988 9436
27084 39988 28417
13651 2311 41305
25138 342 11055
26218 16721 29357
43489 1832 50796
44961 4005 20671
32003 35751 32834
45519 1976 18066
36430 182 52147
54532 1853 35763
13237 2582 41578
36843 39988 54562
37014 39988 55755
33738 39988 50261
33955 39988 45878
37252 39988 57065
30378 39988 38159
40421 39988 53746
42679 39988 58292
22161 39988 8257
27295 39988 27051
26202 39988 25353
37095 39988 49964
34993 39988 41648
38075 39988 60070
21474 39988 6895
31641 39988 45338
33086 39988 36195
43956 39988 60302
34521 39988 45649
32815 39988 46933
39376 39988 58120
32892 39988 45490
37985 39988 53654
28237 39988 29262
38099 39988 61043
40251 39988 58927
33391 39988 37065
40279 39988 56955
39465 39988 54343
40665 39988 60021
21213 1916 52690
41773 1085 54161
33963 36822 44401
41027 4162 17442
53138 2327 39300
36845 2734 52218
31604 2462 55058
9350 39417 9630
7332 37552 11646
32932 30627 32437
41196 38019 1212
44638 38089 2134
43384 3173 11607
42656 2070 16571
36945 20517 32014
21806 36849 35846
49259 2505 27123
49225 5033 22109
15016 5347 29008
33724 2409 14782
63003 36892 22595
33204 4818 10931
14452 1055 38689
14965 5740 28333
38574 2004 49581
48745 2917 18557
9478 927 26636
49746 6643 34843
55115 4142 32653
15395 5005 41910
12838 1978 34187
35213 4777 14296
34363 36845 39204
30561 36830 42050
33523 36841 39964
20090 0 49335
48908 3682 47705
35846 3228 11999
30986 38641 43822
32752 36821 44524
63398 39155 41911
62948 38610 43594
48334 2719 25226
10012 1738 24280
31220 26634 30541
32094 452 10531
37132 5038 13299
52605 1245 32443
36157 4757 14589
19846 2727 21431
21704 36859 33500
12476 4897 28314
53144 2616 32329
39682 15576 32561
58500 39988 26140
58287 39988 22573
55810 39988 17097
60433 39988 29137
62855 39988 42227
63812 39988 40022
62238 39988 35180
62496 39988 43226
56667 39988 21341
16421 39988 59816
12377 39988 52794
10890 39988 50999
12205 39988 44506
9226 39988 39236
3367 39988 23379
6165 39988 33208
16134 39988 58346
11090 39988 41854
3841 39988 25965
19473 27 49370
43677 39988 22618
47638 39988 32642
54041 39988 48661
43280 39988 19354
52903 39988 47860
49905 39988 47039
47044 39988 33629
43818 39988 25195
47802 39988 35976
38509 39988 5342
40979 39988 11683
52772 39988 56067
55360 39988 45674
44669 39988 21176
53962 39988 55501
56308 39988 50490
53161 39988 55185
54618 39988 49390
43977 39988 19051
57287 39988 52741
54270 39988 50000
50447 39988 45219
52705 39988 43239
51723 39988 37940
12175 174 35688
28886 5047 13121
16831 4018 35568
15113 2253 22771
41929 2171 47259
49384 3970 33815
36386 7728 18381
55420 535 25818
40971 2713 50860
20022 2109 48427
27561 21770 31472
10755 2844 29180
27071 36892 45774
24624 36892 39693
22584 36892 37477
33928 36892 62957
28300 36892 51142
20241 36892 30258
34618 36892 64211
29978 36892 55903
26737 36892 58547
30323 36892 51187
25748 36892 54131
27847 36892 62056
20004 36892 25519
31873 36892 59215
23406 36892 45456
25162 36892 45294
25883 36892 49655
32288 36892 60254
20621 36892 35204
26150 36892 45434
25860 36892 42110
27451 36892 53936
49915 232 43937
19309 2745 14320
47597 2915 47549
49943 5040 23180
18095 4592 23282
18882 2239 48372
28997 2000 50055
11409 4621 31888
43032 1526 51077
37515 2084 52112
52489 4367 21952
50516 39988 21634
58868 39988 43239
54279 39988 26059
58263 39988 48607
53627 39988 31434
55608 39988 29514
54611 39988 36313
59357 39988 37983
56354 39988 37714
58696 39988 40425
59363 39988 45680
49236 39988 13866
55058 39988 27901
54802 39988 35497
58581 39988 45807
60727 39988 46264
60994 39988 41156
52179 3145 21840
43807 2134 17591
40454 1939 49861
36821 870 11807
50511 2241 30738
24910 37085 30040
14519 852 23945
46500 4532 42553
31195 22152 36726
11036 416 39929
13222 1768 32906
52555 188 42992
58447 39554 12707
39374 2080 8445
31951 27102 31654
44933 2665 14222
39857 39156 63950
18103 622 17619
5854 39957 13576
2287 38964 19757
10318 750 39518
15536 1588 40640
45762 3218 14030
33871 16495 23576
12530 2686 36613
30724 1910 53103
54487 4610 32956
23111 39433 1345
19911 39747 2202
56562 869 35194
11096 3021 26773
34482 21493 26997
60618 39988 20976
62815 39988 28441
64746 39988 34677
37253 19169 32572
56267 36892 35665
60238 36892 46350
49873 36892 18952
54302 36892 36564
55641 36892 38958
54882 36892 27737
54396 36892 35801
59455 36892 43111
59831 36892 45065
52030 36892 25298
51004 36892 21942
57639 36892 48569
61022 36892 41455
56107 36892 42606
54216 36892 34731
12641 38802 58408
26932 23 52231
42071 37368 40983
42118 5018 48335
8812 36892 50799
2742 36892 37022
10471 36892 54785
1487 36892 34949
941 36892 35880
25525 1661 8586
29929 13166 41533
40507 4921 12662
20206 2786 50337
17318 2885 46821
38813 374 10824
20119 1983 18441
5469 38009 14244
4053 37227 16697
50592 3469 46081
15920 4645 28556
33862 35274 31279
55900 38431 10075
55489 38956 9664
27381 761 55023
26734 37547 21727
29429 2350 53244
48329 36892 48106
42020 36892 31145
47287 36892 43296
31107 36892 2733
30158 36892 1228
49520 36892 48386
34414 36892 735
36021 36892 16571
35254 36892 9426
32407 36892 5590
35947 36892 2612
45899 36892 40389
42322 36892 23091
36808 36892 3420
36754 36892 12093
39864 36892 25915
38369 36892 15186
46043 36892 37424
39049 36892 21406
39279 36892 15609
43487 36892 27359
40462 36892 16614
30548 36892 2370
43909 36892 28914
39619 36892 13999
36360 36892 1785
64581 37532 37502
63006 37184 43379
32172 26065 29533
23804 14935 29366
54593 175 35237
906 38381 24751
1034 37581 24272
36553 2167 10119
33782 30154 30393
15065 121 45591
52110 38187 58439
48516 99 47767
54075 1637 19994
10669 2948 32056
31979 38801 19742
31271 2958 54220
17450 4711 40095
41680 2150 11852
15419 262 18893
16751 4423 27885
37396 898 11991
50594 1144 22753
31230 27136 32594
26817 20225 30322
56492 692 32760
26436 2006 12681
24998 4147 52781
48632 1999 22104
13560 1943 28665
49990 2087 45323
8501 39988 48952
7568 39988 49595
2010 39988 35030
9894 39988 55506
34474 2234 51737
34840 7795 17306
21377 5010 15393
42152 2994 13056
41881 2367 17191
48907 4738 24507
31371 1936 51409
17407 1451 43634
18227 2338 22764
9632 38971 55457
20901 2462 50045
56377 36892 27585
61533 36892 41349
54722 36892 21034
58858 36892 30358
50971 36892 16267
64279 36892 37366
61538 36892 31976
56593 36892 26734
58996 36892 28864
63858 36892 35438
53656 36892 20463
59670 36892 36834
55483 36892 22715
22724 36837 38775
13231 60 41023
15294 4772 30472
5248 38359 50177
54127 36892 8620
55816 36892 10748
58568 36892 17106
50573 510 20690
882 37871 39959
1747 37707 43192
13348 39988 15437
15063 39988 16573
14197 39988 18980
16288 39988 25829
11949 39988 12426
27177 39988 61267
26065 39988 57782
10476 39988 10576
18292 39988 28223
14213 39988 16672
21677 39988 45135
9171 39988 10799
12641 39988 24672
18691 39988 37658
21759 39988 45768
14981 39988 29277
15798 39988 30147
18754 39988 30568
11850 39988 16409
19769 39988 38164
12680 39988 22258
50397 3048 19812
46257 2333 43145
54452 36892 52154
44579 36892 19888
57027 36892 52200
51013 36892 49676
44522 36892 25106
50859 36892 46224
49703 36892 39459
53228 36892 42181
53724 36892 51552
54347 36892 54743
54188 36892 55393
51701 36892 46321
50350 36892 42892
45724 36892 31937
44465 36892 24155
51212 36892 35472
42874 36892 17027
51797 36892 55195
54011 36892 44176
52894 36892 43806
43325 36892 20509
47214 36892 27168
17242 17 46967
36266 36892 55386
29751 36892 30923
25709 36892 21206
36597 36892 63698
34796 36892 38519
36970 36892 49746
35678 36892 46340
30418 36892 34847
23892 36892 16532
35575 36892 44541
36091 36892 43932
34542 36892 49912
35837 36892 49093
40095 36892 59470
34519 36892 51225
36875 36892 53605
31997 36892 41248
33728 36892 41901
23844 36892 12830
37598 36892 60321
26219 36892 25260
32843 36892 41413
34709 36892 44869
23739 36892 13855
32585 36892 37683
33995 36892 51607
38384 36892 63316
35856 36892 41732
8911 1495 34390
18092 4308 24149
42284 1981 15814
16588 4743 38766
42325 39988 7402
55924 39988 45946
45627 39988 17712
49637 39988 25528
44532 39988 7938
52525 39988 31353
48975 39988 19127
50426 39988 24166
53968 39988 40335
44847 39988 10332
47180 39988 19838
45327 39988 14358
40518 39988 4596
45645 39988 19557
45998 39988 7061
48034 39988 16451
52193 39988 30396
47964 39988 14444
47427 39988 25538
46659 39988 11013
51212 3183 19407
12904 158 38764
