ply
format ascii 1.0
element vertex 2731
property float x
property float y
property float z
end_header
40131 11133 25058
39708 10797 25058
38958 25602 25058
39925 15608 25058
2689 15522 26340
2689 1845 25780
2689 9132 26122
2689 22139 26406
39077 3696 1306
38854 10683 1306
38850 4398 1306
40188 25371 84609
40188 19965 83789
40188 18543 84450
1897 10099 83757
1474 18590 83757
1947 14503 83757
2689 7415 58303
2689 8376 58197
1129 27663 21057
855 27663 31866
544 27663 55116
1612 5497 1306
1412 24803 1306
2019 4284 1306
2283 27663 35672
26640 27928 0
9137 27730 0
36605 27663 3309
39670 27663 18488
33561 27663 12251
23470 27663 13357
29902 27663 6649
34258 27663 18339
35115 27663 14865
24923 27663 13927
39076 27663 8728
39974 27663 17601
37655 27663 16903
37664 27663 18078
33615 27663 13418
27954 27663 17669
38253 27663 19408
40137 27663 7735
8553 27663 6049
36137 27663 22039
35958 27663 3996
26237 27663 13826
34328 27663 3546
34452 27663 14515
22868 27663 9241
28288 27663 2763
23412 27663 6614
34038 27663 9158
36236 27663 7794
30977 27663 6380
14476 27663 6859
23051 27663 4093
38573 27663 7504
31475 27663 6245
39296 27663 15509
33160 27663 6326
32580 27663 4123
18254 27663 4363
36424 27663 16298
14221 27663 3780
35560 27663 7475
27911 27663 5341
37874 27663 8203
33210 27663 5181
19464 27663 5126
24523 27663 13241
33603 27663 6492
25452 27663 10736
17924 27663 7122
22963 27663 14003
15587 27663 7572
38960 27663 19852
30867 27663 19060
10919 27663 6877
37738 27663 4143
39648 27663 17025
33435 27663 17016
39000 27663 9657
15045 27663 4247
19127 27663 9734
22354 27663 12983
22734 27663 11969
26821 27663 15881
26975 27663 9555
26890 27663 13134
37714 27663 20182
30059 27663 16857
21947 27663 6234
27121 27663 8376
31540 27663 9746
8532 27663 3364
35520 27663 3305
36963 27663 11368
21644 27663 7338
30196 27663 16129
38805 11035 26162
38805 26948 25685
38805 24223 26013
40188 16908 2491
40188 10555 2648
40188 9741 2219
40188 14635 2467
39512 16811 2689
39429 19755 2689
39002 18742 2689
15566 27663 2534
25131 27663 2616
9143 27663 2256
5829 27663 2389
2114 24116 59356
1564 12222 59356
2421 22900 59356
1668 14026 59356
2186 1574 26441
2505 3866 26441
2614 14603 26441
28451 27663 15369
39456 27663 6129
27790 27663 8699
18565 27663 9799
33373 27663 6938
29206 27663 17561
29001 27663 10124
32825 27663 14507
14086 27663 8351
23242 27663 8607
22919 27663 3578
26881 27663 4953
16795 27663 10736
8743 27663 3912
34537 27663 3132
22991 27663 7813
38608 27663 14373
29548 27663 6308
6741 27663 4203
7590 27663 3067
32605 27663 5656
37093 27663 9438
28679 27663 7960
33491 27663 8465
29627 27663 15476
24849 27663 3363
39587 27663 23556
25365 27663 9824
26582 27663 7451
13765 27663 7139
38552 27663 23751
28037 27663 4652
19965 27663 11341
15914 27663 9372
17914 27663 4710
38665 27663 21084
20525 27663 5265
31552 27663 5648
20335 27663 3547
25027 27663 11924
26140 27663 13024
12996 27663 3893
36759 27663 7965
35255 27663 12821
36883 27663 21246
36429 27663 4166
39463 27663 9098
33941 27663 15302
23895 27663 7786
21535 27663 11726
20572 27663 7594
36343 27663 22609
38139 27663 22365
36603 27663 10741
29254 27663 13492
29088 27663 12144
30832 27663 3788
34755 27663 9961
23089 27663 11428
25702 27663 6909
35438 27663 4411
21861 27663 5316
37267 27663 3408
24688 27663 9023
38805 8256 25549
38805 2943 25926
38805 3035 25471
38805 170 25180
1306 23991 84413
1306 7089 85006
1306 26326 84865
39978 10807 57973
39578 22334 57973
40183 25792 57973
2288 0 58881
1901 2517 59356
2346 18626 59356
2552 15522 59356
2304 19933 26441
2012 6552 26441
2381 20823 26441
1239 27663 83946
1328 12439 57973
2017 9413 57973
1919 6772 57973
39794 8216 25058
39694 12026 25058
40028 17627 25058
29287 27663 224
5634 27663 819
2002 27663 140
19116 27663 253
21242 27663 481
23306 27663 58799
15462 27663 59195
7628 27663 59247
38685 27663 59205
2184 6539 2689
1555 110 2689
2045 13747 2689
2294 5321 2689
31726 27663 25854
24088 27663 26165
33061 27663 25783
29319 27663 26174
2689 7454 85015
2689 16603 85069
2689 15128 85105
1306 16133 84497
1306 21623 84892
1306 24853 84707
1306 25768 84755
29551 27663 65580
37864 27663 60401
24758 27663 68888
8209 28210 86446
7386 27988 86446
1467 27828 86446
21857 27663 25074
23894 27663 25504
17404 27663 25535
36443 28376 26163
33861 28376 43815
22643 28376 60929
27764 28376 58163
35359 28376 46268
22335 28376 42574
13930 28376 80038
22549 28376 57488
16186 28376 85218
25583 28376 52517
25565 28376 43950
18042 28376 64781
22647 28376 56551
16553 28376 79435
34599 28376 29242
18261 28376 70820
32391 28376 28481
36166 28376 59636
38411 28376 52257
41479 28376 83970
30697 28376 27257
31900 28376 69358
37740 28376 33918
29912 28376 62196
29973 28376 75183
38018 28376 50645
23217 28376 40505
24471 28376 43166
41203 28376 3109
30052 28376 32246
15359 28376 57649
6885 28376 83614
20490 28376 67024
22041 28376 48708
41084 28376 67863
25407 28376 35777
17505 28376 64059
17074 28376 80067
37438 28376 11787
29755 28376 58423
27260 28376 72918
30346 28376 54703
32950 28376 41246
39691 28376 16273
40892 28376 21734
18860 28376 81032
35804 28376 60085
31453 28376 35694
30820 28376 84017
26215 28376 80694
20900 28376 55253
33627 28376 37634
33823 28376 71906
36895 28376 58259
29061 28376 36982
26782 28376 86301
38125 28376 18663
33547 28376 40817
34636 28376 27506
25275 28376 42792
39042 28376 19840
7601 28376 85958
24265 28376 73866
28280 28376 44670
30274 28376 61116
17794 28376 75009
22206 28376 63917
28171 28376 55881
26675 28376 41090
7717 28376 78792
37343 28376 13633
25494 28376 72620
26438 28376 74982
26822 28376 55585
37580 28376 68506
24804 28376 58104
13430 28376 77010
34862 28376 56780
33749 28376 21133
26918 28376 43541
34311 28376 34204
30764 28376 56517
8397 28376 72774
23603 28376 56292
30692 28376 31878
26876 28376 71284
26724 28376 38201
36917 28376 67174
31616 28376 69927
37633 28376 77184
31489 28376 61602
35869 28376 67875
40813 28376 4037
13715 28376 73713
37115 28376 46789
34614 28376 26558
40124 28376 25010
1926 28376 86234
36144 28376 18449
30416 28376 59154
34292 28376 46581
23459 28376 42513
21134 28376 81459
9195 28376 73869
39672 28376 77106
16157 28376 71585
34664 28376 59798
23875 28376 65710
19763 28376 62326
20089 28376 69770
33787 28376 36006
14116 28376 80595
30610 28376 79112
23254 28376 80068
40277 28376 2988
24418 28376 41995
36387 28376 29587
40821 28376 27020
19605 28376 56658
28464 28376 58575
40844 28376 2674
5206 28376 86373
16102 28376 81221
14921 28376 67145
36502 28376 65923
36746 28376 47576
18061 28376 77243
15517 28376 68157
39662 28376 21457
31961 28376 56337
33969 28376 54706
26463 28376 34683
28513 28376 48588
26273 28376 49603
39064 28376 11248
38948 28376 48781
37121 28376 84642
24583 28376 67720
26087 28376 79910
40675 28376 77496
36526 28376 68447
35460 28376 84734
35349 28376 36573
30587 28376 41977
19325 28376 63154
32922 28376 18169
38958 28376 75803
21617 28376 47186
28455 28376 43191
27756 28376 76474
30584 28376 60534
29393 28376 43405
27980 28376 54144
20924 28376 67757
39826 28376 82179
14339 28376 62838
35772 28376 59091
23132 28376 74431
40663 28376 71862
29793 28376 41274
38897 28376 60043
19172 28376 54395
26829 28376 57837
9407 28376 81554
20358 28376 66533
26785 28376 32112
20494 28376 45604
19979 28376 46851
40455 28376 23921
34794 28376 18591
27880 28376 68945
40689 28376 51204
34991 28376 37433
37164 28376 47404
13384 28376 62006
32390 28376 59612
24300 28376 53634
23946 28376 50862
28534 28376 51517
23655 28376 56935
39995 28376 4285
29650 28376 39386
29485 28376 60347
18273 28376 72952
39038 28376 23004
37617 28376 78897
39371 28376 38430
23230 28376 50616
9608 28376 78983
32737 28376 61127
39846 28376 28298
34901 28376 78484
33114 28376 22214
24797 28376 36684
23805 28376 55770
35774 28376 20509
32572 28376 47727
25666 28376 64048
40234 28376 14988
38922 28376 68707
28258 28376 40844
25116 28376 46472
30595 28376 45012
40535 28376 59072
22153 28376 40651
34738 28376 37957
38498 28376 12912
30383 28376 74853
11255 28376 77243
40494 28376 53441
34516 28376 28520
39402 28376 9081
36002 28376 46355
10904 28376 80418
32222 28376 30280
23359 28376 47387
35848 28376 79424
39783 28376 85125
39969 28376 60408
40952 28376 34243
37479 28376 67485
30056 28376 33326
18818 28376 66606
39473 28376 28816
17407 28376 75897
17932 28376 59134
17532 28376 63564
3546 28376 80655
33120 28376 40227
22353 28376 74177
26166 28376 55293
12784 28376 68071
33398 28376 25820
37707 28376 31141
28373 28376 60660
31645 28376 83212
37875 28376 47933
40304 28376 8806
29512 28376 48355
27404 28376 77177
34397 28376 53263
8340 28376 76938
40595 28376 44701
40658 28376 58168
27617 28376 83501
31482 28376 22464
32596 28376 82901
5354 28376 76900
40980 28376 56373
40429 28376 38201
37003 28376 23841
27861 28376 31255
23015 28376 79088
35696 28376 21941
33759 28376 61823
27309 28376 42367
34117 28376 68094
26929 28376 85358
29517 28376 65752
20647 28376 81368
30721 28376 69667
15829 28376 74826
39164 28376 72568
27726 28376 70161
19753 28376 83095
27910 28376 33005
19686 28376 52637
29977 28376 85123
34737 28376 31102
11097 28376 75490
34278 28376 34692
30030 28376 64258
34175 28376 70567
30009 28376 34616
36021 28376 83936
28918 28376 56633
39755 28376 26269
40311 28376 52174
34420 28376 63637
39685 28376 47216
3207 28376 83499
38177 28376 74129
22105 28376 43146
30251 28376 40706
37106 28376 85841
37871 28376 57450
38606 28376 28701
28550 28376 47070
35483 28376 65194
36990 28376 55042
34601 28376 41966
11748 28376 73720
12204 28376 69129
13906 28376 69876
40869 28376 47051
29170 28376 50550
28515 28376 52080
31392 28376 58408
12394 28376 84905
41023 27663 59457
40588 27663 34372
2689 9632 83842
2689 21395 84212
2689 6130 83938
2689 11613 84198
33909 27663 1064
35968 27663 276
17171 27663 1244
35708 27663 655
40101 11207 1306
39943 22827 1306
39241 24558 1306
2689 7601 83970
2689 19797 84334
2689 15807 84103
2689 26461 83770
1596 13072 83757
1421 7380 83757
2102 2315 83757
1413 27663 19801
2233 27663 6491
1437 27663 4335
31647 28370 86446
22685 28062 86446
1872 22878 83757
2492 8654 83757
2406 20066 83757
40167 24220 26441
40149 9739 26441
40182 21005 26441
39992 22488 2689
39981 9279 2689
39979 8419 2689
1306 14777 84140
1306 1842 84781
1306 2391 83896
1306 25383 83768
2557 22717 1306
2225 13173 1306
2076 17039 1306
2689 10548 59076
2689 569 59174
2689 13184 59035
2689 11073 59150
29296 28248 0
18272 28052 0
2887 27663 14054
2767 27663 9308
24177 27663 18350
15739 27663 24480
11818 27663 11217
5291 27663 4587
22789 27663 17508
19875 27663 20845
2990 27663 10884
31838 27663 24626
23080 27663 16257
7382 27663 6314
15483 27663 17872
7629 27663 17157
8554 27663 23261
9183 27663 18463
15511 27663 18739
17239 27663 16735
25651 27663 16588
32198 27663 21976
9347 27663 12391
14468 27663 18006
10024 27663 17995
15461 27663 20731
24058 27663 24618
3289 27663 8016
4819 27663 9749
9782 27663 12232
8126 27663 6711
7509 27663 5739
11399 27663 24481
10013 27663 10734
12485 27663 24674
3037 27663 20607
26907 27663 17567
7714 27663 20038
9742 27663 21756
17847 27663 16987
26125 27663 19329
15067 27663 12051
22466 27663 19982
19962 27663 24281
6402 27663 21603
9597 27663 23765
16516 27663 23765
13587 27663 15108
2915 27663 15230
18746 27663 15066
16252 27663 22774
5554 27663 5353
6710 27663 7778
14514 27663 14278
12812 27663 21234
10049 27663 19269
24214 27663 23516
14062 27663 16357
4454 27663 14644
26150 27663 17684
25867 27663 20604
3431 27663 24159
19763 27663 22192
16072 27663 21242
4562 27663 16558
12489 27663 12432
13459 27663 11608
3167 27663 22326
5815 27663 15804
27466 27663 24756
7598 27663 7764
3353 27663 14592
18504 27663 20052
7234 27663 6804
40668 27663 50789
40826 27663 61867
40212 27663 48187
25673 27663 32097
4306 27663 28878
14709 27663 39067
20469 27663 41827
4649 27663 33109
13349 27663 29152
11761 27663 33368
25969 27663 35390
9369 27663 33484
19629 27663 28530
7128 27663 50613
3637 27663 38303
11056 27663 32375
11996 27663 37062
27217 27663 30897
27729 27663 32247
10617 27663 29956
32164 27663 29217
10074 27663 40131
10648 27663 33884
4814 27663 42433
14042 27663 46761
19462 27663 30054
16674 27663 30153
25594 27663 29338
1360 27663 56975
18053 27663 39444
3101 27663 51705
10419 27663 33323
10931 27663 40315
13335 27663 40307
15242 27663 26988
6089 27663 44111
5857 27663 28654
12890 27663 44375
22597 27663 40003
14615 27663 44176
16309 27663 33627
3880 27663 43847
20617 27663 41109
27992 27663 26472
9143 27663 45626
4495 27663 39763
5990 27663 35082
6631 27663 51722
30436 27663 31639
6874 27663 34112
1732 27663 49341
8537 27663 31457
7157 27663 41613
22323 27663 38904
3064 27663 50089
3154 27663 42826
9548 27663 40549
12744 27663 48293
4190 27663 54420
7575 27663 47493
16794 27663 41375
10538 27663 49009
32026 27663 30700
13113 27663 28577
5793 27663 33850
5383 27663 27522
15835 27663 33510
9430 27663 41854
8515 27663 34603
12479 27663 39384
14464 27663 41323
10538 27663 31999
8208 27663 50715
23653 27663 33304
7928 27663 37425
7687 27663 29097
7969 27663 27974
25758 27663 27166
4457 27663 48322
11167 27663 46689
14568 27663 31467
19452 27663 30586
9773 27663 47608
21186 27663 29121
3743 27663 54164
6257 27663 48906
6140 27663 31282
28378 27663 35111
8862 27663 38620
6510 27663 40248
10875 27663 28979
24683 27663 35200
3833 27663 27782
15442 27663 35618
9351 27663 44808
26606 27663 34222
2105 27663 68761
2184 27663 65248
40188 5399 1694
40188 2307 1604
40188 18456 2431
40188 10750 2141
13921 27663 25918
7662 27663 25480
18647 27663 25379
11116 27663 25148
2931 27663 78583
17727 27663 64054
8496 27663 68422
21105 27663 69563
27726 27663 65704
14139 27663 63846
21733 27663 61315
30648 27663 60322
15084 27663 66263
11178 27663 73909
26251 27663 64639
27745 27663 62072
2188 27663 77368
21348 27663 61610
4487 27663 76099
2522 27663 66087
10420 27663 61528
7127 27663 72790
15947 27663 71799
18218 27663 71006
23370 27663 68209
17285 27663 63547
32425 27663 59441
4260 27663 62493
13846 27663 66350
13160 27663 60962
25875 27663 62884
17103 27663 69848
19718 27663 65591
6009 27663 64791
37196 27663 59356
3110 27663 65104
6920 27663 74724
16442 27663 73856
31240 27663 60360
34491 27663 60801
3255 27663 59947
19389 27663 68494
8181 27663 66649
34684 27663 61299
24519 27663 66925
14546 27663 70131
30613 27663 60978
15575 27663 73529
9410 27663 65193
4346 27663 69988
5214 27663 69203
11700 27663 69102
14963 27663 65327
7111 27663 78877
22802 27663 63409
3674 27663 81106
17549 27663 65772
3312 27663 61633
3141 27663 75589
3863 27663 70784
10175 27663 74477
20539 27663 61823
29634 27663 62442
34066 27663 62068
7512 27663 71287
5949 27663 69918
12413 27663 70462
27671 27663 63115
26073 27663 65516
5296 27663 79454
8313 27663 63386
3323 27663 66790
29464 27663 64006
30632 27663 59582
35169 27663 60087
20064 27663 66386
21954 27663 69528
30825 27663 61966
24240 27663 62613
39226 13806 85140
39498 22969 85140
39025 16766 85140
348 27663 60967
165 27663 3932
964 27663 15914
1147 27663 1402
282 27663 48390
103 27663 21146
514 27663 17922
147 27663 10649
472 27663 43768
820 27663 27151
2689 18723 58196
2689 15650 58508
2689 14864 58041
38805 7019 84827
38805 26871 84359
38805 19534 84643
40188 7742 85067
40188 2699 84924
40188 6008 84662
1306 25144 25158
1306 5729 26045
1306 8478 25713
17262 27663 16020
20798 27663 19291
17631 27663 18599
3752 27663 16391
3539 27663 4554
32295 27663 22532
12244 27663 9667
17165 27663 12418
22819 27663 24122
19438 27663 24715
18525 27663 23018
26357 27663 23393
27731 27663 18594
30687 27663 23243
15810 27663 18241
10160 27663 8089
6541 27663 17669
9489 27663 15222
24560 27663 24256
8478 27663 14748
7467 27663 20898
7812 27663 23263
15065 27663 24207
3550 27663 5154
11024 27663 11845
29583 27663 20076
5516 27663 16394
28027 27663 21359
5788 27663 23098
6682 27663 6459
3066 27663 21562
27463 27663 23553
12694 27663 15034
16541 27663 16730
32152 27663 20743
16748 27663 14958
26098 27663 17197
20849 27663 15699
15541 27663 16261
32782 27663 22344
24711 27663 17741
17783 27663 15354
16774 27663 12182
19952 27663 16653
12613 27663 10652
18396 27663 20684
5722 27663 14689
13331 27663 18331
16467 27663 20819
11803 27663 20623
18234 27663 14172
8452 27663 17624
5256 27663 11450
10543 27663 11924
11609 27663 13173
8399 27663 19279
2951 27663 19685
12610 27663 13763
19161 27663 22357
12537 27663 16811
17515 27663 13627
13580 27663 10432
6851 27663 18237
29732 27663 23913
7628 27663 85794
31626 27663 85348
16230 27663 85823
21906 27663 85660
20619 27663 85410
38849 26518 83757
39097 14994 83757
39122 18342 83757
33403 27663 66976
35702 27663 64655
31233 27663 68601
26749 27663 70188
34458 27663 72883
16479 27663 81463
25041 27663 75735
28508 27663 81432
24137 27663 71330
35012 27663 63148
23398 27663 81182
32344 27663 74986
14842 27663 81503
33347 27663 80518
25810 27663 71029
26275 27663 82970
39006 27663 70113
29316 27663 72503
18448 27663 75695
36320 27663 67371
36377 27663 78940
17080 27663 78161
2273 27663 83537
30075 27663 68356
38562 27663 64369
35261 27663 67482
38514 27663 68395
33649 27663 73290
27429 27663 83215
17767 27663 74342
7919 27663 83220
37411 27663 80362
27094 27663 74032
38532 27663 73652
18104 27663 79478
36853 27663 65542
11748 27663 82547
24990 27663 81231
26795 27663 79132
37617 27663 63708
34461 27663 73466
23645 27663 74837
38845 27663 72710
34730 27663 81484
10566 27663 80481
21232 27663 75498
30738 27663 81052
38567 27663 70332
19283 27663 83440
28095 27663 72212
22808 27663 79093
15524 27663 83638
30991 27663 74180
39470 27663 72843
19967 27663 80568
8849 27663 81747
34201 27663 64239
28648 27663 67604
10107 27663 81181
16301 27663 76844
30487 27663 74044
23793 27663 80233
20639 27663 81342
40171 27663 72335
26178 27663 75955
39062 27663 73168
37134 27663 75728
38937 27663 80370
35864 27663 75138
33003 27663 75903
15521 27663 80938
25404 27663 72002
31703 27663 78520
39973 27663 75171
19185 27663 73453
19191 27663 78677
22438 27663 71150
34339 27663 80205
1726 27663 24265
2040 27663 23300
2242 27663 19512
39171 21331 1306
39616 21961 1306
40130 19337 1306
2077 13412 85140
2404 12829 85140
2685 11906 85140
38997 23746 85140
39078 6389 85140
38882 3448 85140
39247 21782 85140
2234 8197 59356
2069 10094 59356
2323 20179 59356
2689 13637 1802
2689 24883 1840
2689 16863 1473
33106 27663 1974
37572 27663 2024
13724 27663 1562
11659 27663 1413
34367 27663 1761
2689 19256 1792
2689 24996 1390
2689 20468 1392
38856 21997 57973
39399 12715 57973
38811 1424 57973
40188 12855 84155
40188 23239 84261
40188 23801 84338
40188 26862 83978
16017 27663 58381
8629 27663 58919
23592 27663 58055
2964 27663 58043
13137 27663 84199
18363 27663 83832
4167 27663 84553
33529 27663 83892
7765 27663 84033
40188 24095 57981
40188 17201 58701
40188 11678 58380
5799 27663 83846
8682 27663 84322
32247 27663 83787
9348 27663 84029
29110 28376 7723
28328 28376 17694
349 28376 37887
4541 28376 9092
5788 28376 20457
2714 28376 33051
10583 28376 49871
16353 28376 12019
11250 28376 33824
20133 28376 42112
35700 28376 9081
14875 28376 30743
19346 28376 25003
705 28376 10661
31799 28376 7541
5001 28376 72186
13502 28376 19339
12203 28376 525
16277 28376 151
636 28376 18787
579 28376 45337
31886 28376 8853
33391 28376 16819
18314 28376 8748
19491 28376 4914
10007 28376 26837
11606 28376 61386
17620 28376 9445
1663 28376 8586
3533 28376 39503
28146 28376 9058
2070 28376 44792
1724 28376 30624
11224 28376 40577
3269 28376 69460
25832 28376 9992
23558 28376 35185
18858 28376 36486
4719 28376 20313
3297 28376 30198
18180 28376 15206
20957 28376 35336
10525 28376 42426
15617 28376 31404
11 28376 72627
12526 28376 51097
422 28376 27785
9399 28376 59521
29359 28376 16702
3103 28376 79916
12707 28376 4509
7401 28376 31942
10160 28376 7993
20950 28376 41165
38724 28376 2896
20499 28376 16348
9903 28376 30749
15655 28376 43319
27029 28376 1285
6416 28376 43469
207 28376 36593
11980 28376 55925
31564 28376 836
1380 28376 77594
7964 28376 42036
6354 28376 32675
16492 28376 20969
23672 28376 6854
1497 28376 45708
9857 28376 41501
35065 28376 1754
28585 28376 20633
25360 28376 22659
8378 28376 37599
10419 28376 8878
1452 28376 64400
1329 28376 36876
9976 28376 13789
8667 28376 44351
5147 28376 41853
29281 28376 10698
4647 28376 74919
13089 28376 47544
9405 28376 20278
7761 28376 26383
9741 28376 15571
7867 28376 1439
12670 28376 36096
8507 28376 11537
1660 28376 80215
395 28376 9424
22005 28376 16218
19737 28376 27192
19247 28376 37543
32250 28376 11948
22653 28376 25560
26131 28376 8586
15981 28376 5199
8772 28376 60858
16411 28376 19513
19081 28376 10306
9907 28376 3187
1752 28376 63294
7036 28376 20686
19318 28376 40421
3439 28376 46756
24968 28376 20323
3189 28376 53120
2643 28376 80052
14303 28376 20657
1396 28376 5203
2779 28376 14780
2025 28376 5457
4287 28376 40564
17421 28376 16919
5014 28376 60906
3082 28376 25834
20379 28376 23850
33564 28376 15296
26771 28376 16809
18742 28376 19176
3781 28376 9318
25258 28376 15087
38955 28376 4285
7096 28376 31022
32048 28376 2069
2486 28376 40747
21700 28376 19659
8566 28376 54143
13244 28376 7043
423 28376 43169
23746 28376 11274
8721 28376 61650
19198 28376 36874
9998 28376 51151
29798 28376 20934
5231 28376 69359
5552 28376 56766
18629 28376 42327
19227 28376 29552
18056 28376 25990
5491 28376 6973
3427 28376 50939
19068 28376 45700
428 28376 46157
22660 28376 6753
16615 28376 49002
5012 28376 25362
26381 28376 2889
33233 28376 2249
18308 28376 4994
20760 28376 38170
10604 28376 55994
2797 28376 51993
30514 28376 13932
31 28376 59152
12604 28376 6657
5713 28376 31672
3514 28376 12224
11578 28376 52575
5051 28376 60164
16955 28376 35022
31197 28376 15422
5149 28376 30714
8993 28376 33408
24323 28376 21622
6144 28376 2788
10641 28376 29387
17268 28376 40912
3540 28376 56808
16486 28376 27983
2773 28376 79564
3348 28376 6153
8034 28376 7489
28011 28376 191
23687 28376 27395
575 28376 7906
25988 28376 9339
31133 28376 7654
11229 28376 17056
11375 28376 6492
7988 28376 25164
23512 28376 25851
2527 28376 65891
2749 28376 37466
18350 28376 17737
14564 28376 30303
1587 28376 15138
29796 28376 17100
22210 28376 25436
10641 28376 32168
4831 28376 48477
25338 28376 11246
20626 28376 29395
27923 28376 25959
15893 28376 46403
14157 28376 41477
22435 28376 16085
2105 28376 57793
1206 28376 7548
29451 28376 15146
16394 28376 14339
10702 28376 3547
1198 28376 44437
8079 28376 36287
2184 28376 70986
22081 28376 38111
2191 28376 55992
4795 28376 52030
11389 28376 26339
17907 28376 32998
13550 28376 17377
7436 28376 60729
3121 28376 18129
24705 28376 7951
22503 28376 30495
17919 28376 19114
17489 28376 23327
585 28376 72782
25045 28376 10903
8000 28376 48914
1826 28376 76471
1251 28376 11059
3422 28376 35727
24747 28376 26461
28960 28376 4262
16665 28376 21714
11748 28376 36867
20789 28376 11400
25445 28376 26095
1701 28376 51776
14486 28376 18653
2480 28376 65441
5663 28376 10778
39101 28376 4869
2415 28376 62721
29848 28376 7794
3869 28376 43385
26506 28376 12490
8589 28376 29894
10295 28376 15408
33632 28376 7970
26280 28376 26660
22197 28376 11839
15274 28376 8280
20804 28376 32382
22965 28376 3931
7020 28376 66292
23631 28376 29962
16591 28376 3417
12602 28376 1313
7630 28376 698
77 28376 35870
29223 28376 19381
704 28376 11987
6257 28376 14921
16020 28376 39246
6429 28376 64189
8971 28376 34706
2740 28376 68778
13027 28376 34590
1710 28376 41298
31817 28376 15352
30080 28376 15954
16292 28376 10024
2017 28376 4490
14958 28376 45893
11480 28376 29628
2867 28376 32100
1034 28376 22611
4941 28376 1562
1292 28376 68027
18760 28376 13182
13547 28376 43701
10867 28376 20052
6299 28376 66191
8680 28376 48847
8212 28376 22174
16088 28376 18908
34297 28376 4481
5611 28376 60641
3160 28376 42769
27016 28376 15056
14797 28376 880
8563 28376 4260
7650 28376 2241
677 28376 39872
3867 28376 69962
12582 28376 13069
3942 28376 19645
7878 28376 28723
9748 28376 28483
23560 28376 12894
3999 28376 5846
11824 28376 23006
32463 28376 4935
13695 28376 2579
19017 28376 12513
19411 28376 11514
4260 28376 7119
2175 0 26015
1306 22901 25627
1306 22274 26180
1306 27420 25875
1795 7673 1306
1572 8809 1306
1879 13812 1306
40592 27663 9943
40808 27663 32772
41414 27663 44059
41001 27663 53744
41307 27663 42455
41417 27663 68031
40817 27663 25643
41063 27663 45583
41203 27663 29890
41414 27663 24743
38805 3637 83934
38805 6493 83919
38805 17896 83803
38805 6331 84786
1855 6740 85140
1763 6152 85140
1589 2098 85140
0 28225 626
0 28214 16635
0 27856 9897
0 28140 31473
0 28065 40956
0 28363 48094
41330 27663 85310
40385 27663 65785
41494 28259 51404
41494 28246 80389
41494 28371 54973
41494 28372 85776
41494 28222 43105
41494 28054 78453
10554 27663 53784
27462 27663 54500
17374 27663 47410
36724 27663 56721
30372 27663 49422
18417 27663 49822
35282 27663 53818
23668 27663 56822
28389 27663 41738
26931 27663 40265
36911 27663 47064
22434 27663 51784
21577 27663 54766
25428 27663 54583
35782 27663 57810
27505 27663 47543
37567 27663 46506
23991 27663 39823
14642 27663 48479
38169 27663 29323
28681 27663 52210
36322 27663 34783
18806 27663 53554
7362 27663 55783
38131 27663 40990
30922 27663 53409
38591 27663 35644
11024 27663 54924
5714 27663 54893
13228 27663 52833
36602 27663 45109
31187 27663 38734
21641 27663 50941
29124 27663 47462
20669 27663 53161
38058 27663 36820
22182 27663 49359
12363 27663 56644
19174 27663 57700
28117 27663 50588
24149 27663 47085
20244 27663 55368
16173 27663 48742
23796 27663 42871
39565 27663 55171
39820 27663 51015
19451 27663 48913
36780 27663 35985
35226 27663 45974
32067 27663 56254
27429 27663 51087
15128 27663 48448
38238 27663 34060
39750 27663 44622
39731 27663 36330
17138 27663 48811
39249 27663 44894
24909 27663 53956
27064 27663 42574
18439 27663 48903
12497 27663 50750
34644 27663 57674
8547 27663 55357
30184 27663 56524
27210 27663 51976
14253 27663 57432
33546 27663 33030
23430 27663 48196
16261 27663 53482
28383 27663 43535
31288 27663 49002
9654 27663 57089
21534 27663 45634
34957 27663 44874
20306 27663 47614
31634 27663 36881
11541 27663 49807
6144 27663 57271
39721 27663 29839
27179 27663 45817
11087 27663 57215
38133 27663 39864
26117 27663 40860
26557 27663 39435
38715 27663 44257
27093 27663 56452
27296 27663 39948
38500 27663 56953
38079 27663 32808
16815 27663 50341
6480 27663 54669
33113 27663 57432
18539 27663 53912
29723 27663 44658
15773 27663 54437
25646 27663 50881
17332 27663 57042
5056 27663 55072
29893 27663 34968
21036 27663 55340
2595 27663 45911
33822 27663 27865
5475 27663 50563
21570 27663 39323
5204 27663 39005
3547 27663 40891
12655 27663 36078
5646 27663 52694
8734 27663 46403
9792 27663 48071
27271 27663 27700
5926 27663 44832
26199 27663 29823
24721 27663 27984
22764 27663 32539
15359 27663 28740
6996 27663 44450
6499 27663 41407
35032 27663 28397
19000 27663 29517
25238 27663 32969
7257 27663 34433
9398 27663 46038
17829 27663 26695
17870 27663 38872
9131 27663 38001
6009 27663 47743
11604 27663 35647
26109 27663 26880
8063 27663 27210
25392 27663 30571
12449 27663 41793
35536 27663 28547
17435 27663 36021
17654 27663 30788
11007 27663 49034
11063 27663 38682
5549 27663 42925
19514 27663 38725
25057 27663 36028
3270 27663 35112
3161 27663 27110
5772 27663 41768
9964 27663 40719
13994 27663 44372
3364 27663 46397
17845 27663 34554
15099 27663 35939
28001 27663 34268
30264 27663 32789
24323 27663 36779
4988 27663 26920
12896 27663 38068
14707 27663 39971
9867 27663 46439
3247 27663 27759
14592 27663 38536
10116 27663 33864
10282 27663 43411
2784 27663 44371
4997 27663 39551
21129 27663 31113
17952 27663 41337
16841 27663 31789
30056 27663 28876
16740 27663 43920
13170 27663 39636
15621 27663 42089
4974 27663 29222
11743 27663 39836
26394 27663 33571
35430 27663 26531
2704 27663 55894
24807 27663 34204
6034 27663 50208
7437 27663 50285
9866 27663 45547
16096 27663 32862
6482 27663 53188
9199 27663 46517
40188 9872 1538
40188 17205 1442
40188 6700 1350
2385 27663 64626
1363 27663 73490
30243 27663 33718
23812 27663 39075
19718 27663 42873
7825 27663 52670
2043 27663 64115
2314 27663 61586
2689 7758 59296
2689 1321 58054
2689 24311 59301
2689 19256 2495
2689 9271 2054
2689 22985 2603
2689 5690 2317
2569 25534 85140
1340 27392 85140
1415 24219 85140
40188 8184 84850
40188 13021 84614
40188 17782 84912
38827 25829 83757
39504 7838 83757
39091 18890 83757
1306 5019 2587
1306 17956 2226
1306 19828 1876
39423 23136 26441
39187 13528 26441
38819 23552 26441
39232 10761 26441
38805 17416 25354
38805 1307 25988
38805 7195 25255
41494 28135 5458
41494 27674 23276
41494 27804 10000
41494 27695 72943
2664 27663 21
15451 27663 708
36957 27663 71
9763 27663 909
11145 27663 847
2574 27663 86256
5467 27663 85547
13383 27663 85568
39767 2582 2689
39224 1522 2689
39666 9984 2689
40589 27663 626
1511 8251 25058
1613 15829 25058
1447 22696 25058
2126 17599 25058
2419 20430 25058
2431 10289 25058
40188 15770 58191
40188 12464 58441
40188 12964 58048
41494 28306 70841
41494 28360 17364
41494 27806 84689
41494 28091 61683
41494 28055 66949
39093 19332 25058
39014 14369 25058
39546 5159 25058
38805 11616 84501
38805 15472 84034
38805 4878 84559
38805 12684 84225
1306 15163 58206
1306 2160 58803
2689 18531 25780
2689 21572 25890
2689 5556 25076
2689 13561 25170
1306 8964 2113
1306 2399 2223
1306 21207 1620
2166 17042 57973
1758 25533 57973
1878 26892 57973
1943 24627 57973
547 27663 75723
1301 27663 70027
537 27663 80361
39964 3436 1306
40103 720 1306
41494 27791 65038
41494 27878 11777
41494 27697 33520
41494 27991 31527
40188 20126 2291
40188 26003 1852
40188 14394 1776
39400 24810 2689
38992 10821 2689
38965 27001 2689
35386 27663 29372
13807 27663 47627
38805 2631 58659
38805 18538 58182
38805 10800 58251
39324 0 26013
18920 28123 0
14131 28079 0
39939 13394 59356
39901 317 59356
39504 6408 59356
1187 27663 33688
2431 27663 28714
1788 27663 36370
1765 27663 39607
2423 27663 30183
1059 27663 43926
1556 27663 41416
40434 27663 73105
35294 27663 951
28020 27663 1253
36418 27663 171
23594 27663 84834
28095 27663 84554
27268 27663 84335
15180 27663 85131
4122 27663 58762
12658 27663 58895
11251 27663 58974
1306 778 59336
1306 14627 59208
1306 21758 58683
26364 27663 86144
35500 27663 85603
39567 27663 85721
4669 27663 86429
1859 24105 26441
1356 19003 26441
1779 22314 26441
39121 26467 57973
39798 18581 57973
39959 20340 57973
38805 12655 2215
38805 23433 2173
38805 7450 2575
38805 18275 2121
30378 27663 1989
35060 27663 1334
24623 27663 1958
31075 27663 1586
1566 27663 7698
1872 27663 15172
1661 27663 15961
2689 12336 25386
2689 15800 25709
2689 7150 25352
34782 27663 85866
22838 27663 86207
27410 27663 85990
39938 27663 86047
28067 27663 85979
38805 3526 58277
38805 6069 58183
38805 12277 58721
38805 24070 58135
1747 23725 83757
2686 17867 83757
1935 21592 83757
6666 28376 82625
17909 28376 85266
37267 28376 23346
33721 28376 21816
38264 28376 85391
33692 28376 32327
41085 28376 58405
30934 28376 53890
22916 28376 62155
27166 28376 53322
38710 28376 30242
34054 28376 40483
28259 28376 70632
11359 28376 68470
38796 28376 8057
17854 28376 60176
14417 28376 74833
39721 28376 48958
22930 28376 75410
28034 28376 86010
39170 28376 58507
14824 28376 84287
38458 28376 10457
33576 28376 75276
41226 28376 77979
40279 28376 41725
22190 28376 56668
23777 28376 78071
16844 28376 84664
37958 28376 38497
21423 28376 75299
32551 28376 46622
24797 28376 78554
38414 28376 49924
25041 28376 76741
13829 28376 82354
37744 28376 22631
39176 28376 52494
31214 28376 72278
12737 28376 70400
34889 28376 36121
7989 28376 84131
27616 28376 85751
34139 28376 49942
13520 28376 79527
40182 28376 9737
23082 28376 76077
34418 28376 21009
24375 28376 38225
32161 28376 52420
25955 28376 83316
39207 28376 64155
38412 28376 15616
40500 28376 71024
36305 28376 36086
38738 28376 62743
25852 28376 41476
32883 28376 58480
29593 28376 70710
29724 28376 33819
35881 28376 74657
13293 28376 81718
41444 28376 6526
17362 28376 62748
25911 28376 57897
39662 28376 17237
37314 28376 45637
8281 28376 71413
13082 28376 72698
38288 28376 78882
15107 28376 70488
28238 28376 79488
36981 28376 32421
32116 28376 22963
39905 28376 56281
31293 28376 59651
39483 28376 62610
37619 28376 84430
30813 28376 63507
31823 28376 26194
22762 28376 47052
33610 28376 50603
24000 28376 40841
40710 28376 1828
35781 28376 15779
34034 28376 86053
38510 28376 27312
27122 28376 66705
29701 28376 24665
33876 28376 51556
13149 28376 67243
38724 28376 29620
37431 28376 20428
17104 28376 65642
33547 28376 83552
22636 28376 42922
31358 28376 64759
36737 28376 49860
24098 28376 70562
37067 28376 72688
33272 28376 82036
21201 28376 74846
31336 28376 84244
39695 28376 56868
36926 28376 62984
39538 28376 4489
23815 28376 74341
24840 28376 45124
13771 28376 78977
40717 28376 56909
22274 28376 75809
11497 28376 72947
30974 28376 78826
7861 28376 75598
27097 28376 64853
36688 28376 82492
28943 28376 42216
21292 28376 53355
17584 28376 68492
16017 28376 73977
40601 28376 59666
39173 28376 81721
10354 28376 83751
14431 28376 69007
18161 28376 73963
18184 28376 79625
25735 28376 56248
39859 28376 50287
14128 28376 61578
33412 28376 66659
32511 28376 53656
28849 28376 66425
30103 28376 77708
26037 28376 43246
30193 28376 73891
27469 28376 78847
33660 28376 85484
19115 28376 70258
30743 28376 59697
34931 28376 17129
28046 28376 72447
21915 28376 69300
39099 28376 41515
41289 28376 80003
18466 28376 82942
14107 28376 64524
22787 28376 85319
36908 28376 40506
15630 28376 55815
21967 28376 54517
25040 28376 49221
40278 28376 40100
27147 28376 60444
31506 28376 30898
22643 28376 58773
17035 28376 52317
29169 28376 84320
18265 28376 56625
35837 28376 50542
30925 28376 81567
12750 28376 83230
18686 28376 69268
35572 28376 70407
34225 28376 51894
19690 28376 65274
40670 28376 75483
12279 28376 71496
40416 28376 62607
28814 28376 48185
22568 28376 66845
2869 28376 84969
39274 28376 15701
21194 28376 42550
23036 28376 40956
31560 28376 29056
27193 28376 68905
30150 28376 68720
21305 28376 72958
36947 28376 68724
38577 28376 85807
36476 28376 72472
37206 28376 76341
36013 28376 23708
26640 28376 78501
18278 28376 52205
34712 28376 29711
40258 28376 14084
28162 28376 77800
19385 28376 73949
21374 28376 76158
30919 28376 43634
22608 28376 80223
36332 28376 48832
31739 28376 79742
41331 28376 58947
35435 28376 27952
29975 28376 31667
2261 28376 84108
36795 28376 37343
7328 28376 71231
27689 28376 37069
31780 28376 53662
32962 28376 35976
32833 28376 23425
20711 28376 46449
29018 28376 34842
33484 28376 47707
28081 28376 36854
10516 28376 71945
30998 28376 76482
30593 28376 35191
13627 28376 59960
12369 28376 79275
37674 28376 77941
40371 28376 4865
23470 28376 66340
35380 28376 28796
33629 28376 23278
35894 28376 77836
27625 28376 41576
26657 28376 67367
32654 28376 38023
8793 28376 74643
27299 28376 32938
21049 28376 65463
21002 28376 52669
25224 28376 40411
31795 28376 21076
39569 28376 25224
35101 28376 26134
6437 28376 83729
22139 28376 61239
1105 28376 86282
5334 28376 83714
22769 28376 74715
33940 28376 39840
26115 28376 37316
15359 28376 73685
6497 28376 76922
21943 28376 78561
39888 28376 72149
31684 28376 76181
35606 28376 22490
39533 28376 74816
14677 28376 58813
11796 28376 63093
40565 28376 12263
34348 28376 49424
26116 28376 85999
33943 28376 76215
30861 28376 55886
34951 28376 64247
12591 28376 76007
30508 28376 82211
16233 28376 85739
31516 28376 39908
32214 28376 31478
39732 28376 51870
20323 28376 72024
11761 28376 71831
4647 28376 81721
20562 28376 71580
35233 28376 29537
32429 28376 81369
34708 28376 70121
39612 28376 79445
33043 28376 68591
32946 28376 77666
33733 28376 66222
1306 13611 25458
1306 14776 25322
0 27698 75093
0 27838 23782
0 27723 58119
0 28034 52050
1636 19051 2689
1726 11017 2689
2069 22178 2689
2339 21786 2689
0 28273 37406
0 27862 18819
0 28068 34447
0 28258 69611
2111 13520 57973
2174 23484 57973
2358 11129 57973
2689 14320 2157
2689 11505 2197
2689 5445 1602
2689 6840 1729
2689 6405 84984
2689 12348 84588
2689 8026 84767
40188 18929 25932
40188 10609 25229
40188 26186 26028
40188 14145 25336
2284 1296 25058
1326 19362 25058
1389 21852 25058
1306 8400 2352
1306 26815 2667
1306 14275 2421
39670 21577 59356
39945 26591 59356
39562 26864 59356
39904 22369 59356
112 27663 5116
523 27663 32700
565 27663 11252
37 27663 51175
877 27663 22538
70 27663 42820
958 27663 7572
17 27663 49500
417 27663 31125
39531 9941 85140
39616 3402 85140
39877 12693 85140
39201 7564 26441
40056 12449 26441
39464 3897 26441
2689 16771 26204
2689 3196 25604
2689 5375 25624
28687 28010 86446
39921 28193 86446
30507 27663 25507
17352 27663 26013
31130 27663 26363
34322 27663 25730
15455 27663 26138
40121 1902 83757
39777 14291 83757
39986 6206 83757
38805 23980 83968
38805 17078 84868
38805 9105 84842
1605 2818 57973
2347 4244 57973
1893 10357 57973
1695 9646 2689
1790 21718 2689
1627 16345 2689
38805 24277 59024
38805 25426 58988
38805 26816 58586
38805 12871 58822
20605 27663 2466
12669 27663 2249
18663 27663 2567
39211 11522 57973
39749 1065 57973
40188 1875 59337
40188 9064 58982
40188 7067 59296
40188 5108 59145
36288 27663 59047
21301 27663 58686
25204 27663 58658
25390 27663 59247
39909 0 84557
1306 13548 83824
1306 1325 84902
38805 25166 2288
38805 5359 2511
22550 27663 70397
33699 27663 63041
38352 27663 60347
39101 3732 59356
39514 8365 59356
39423 9206 59356
2462 11114 25058
2652 26461 25058
2299 12504 25058
36639 28376 7373
19707 28376 20147
28400 28376 6645
21233 28376 35907
13671 28376 27308
20601 28376 13601
30298 28376 13084
23444 28376 1281
7124 28376 39476
13489 28376 46545
31453 28376 9589
17378 28376 21460
15845 28376 38601
8732 28376 10502
9017 28376 32246
27285 28376 4259
26451 28376 5384
27710 28376 24377
15867 28376 45041
5989 28376 65664
9670 28376 56796
29762 28376 14348
18800 28376 37434
4360 28376 16629
26762 28376 11587
2692 28376 1104
262 28376 82150
6932 28376 18179
1212 28376 41496
1853 28376 60714
22767 28376 31416
2164 28376 34844
11729 28376 15474
9642 28376 54892
5331 28376 23586
24467 28376 23309
1672 28376 48888
27285 28376 26805
3630 28376 5147
4345 28376 29050
25391 28376 3805
2232 28376 36785
21538 28376 26887
32212 28376 14592
1426 28376 9470
16590 28376 47560
27471 28376 18869
13123 28376 53720
27266 28376 16530
11732 28376 10761
10076 28376 35410
20235 28376 18717
1072 28376 81184
17804 28376 23880
4592 28376 56640
31194 28376 20604
13428 28376 40380
33704 28376 2804
18111 28376 35375
11848 28376 27897
10335 28376 53395
17926 28376 30267
25332 28376 29404
36524 28376 5157
12203 28376 47239
27933 28376 4456
19129 28376 35249
4926 28376 44076
9316 28376 8704
100 28376 40125
2782 28376 44908
328 28376 77270
19589 28376 22758
4530 28376 25662
27860 28376 27799
15138 28376 45107
22507 28376 9949
38191 28376 5776
26948 28376 18022
25684 28376 2428
31858 28376 6511
25860 28376 19191
6339 28376 71221
2210 28376 24512
7464 28376 13750
12079 28376 12333
9177 28376 7206
17047 28376 16011
10832 28376 61888
2782 28376 63750
30305 28376 22986
7198 28376 37225
17466 28376 39970
7889 28376 47654
9248 28376 11207
6837 28376 56257
38887 28376 3516
2191 28376 58274
8363 28376 12503
13760 28376 49508
24003 28376 26958
18666 28376 26022
9512 28376 5853
4559 28376 52924
2572 28376 66934
3382 28376 6993
3747 28376 60154
28044 28376 1844
10207 28376 6520
20947 28376 33707
20891 28376 1283
20382 28376 34446
2429 28376 37896
15027 28376 29726
25380 28376 26755
6948 28376 19576
2240 28376 59880
1080 28376 21078
20103 28376 19211
11034 28376 51393
8839 28376 36141
19002 28376 41531
10155 28376 51743
21808 28376 10411
15209 28376 25193
15209 28376 5532
6468 28376 42170
12886 28376 5561
1147 28376 65186
31544 28376 17471
7062 28376 58916
10387 28376 23725
26136 28376 19984
22121 28376 37246
6447 28376 49590
7637 28376 39371
15500 28376 52100
6230 28376 51241
13034 28376 20359
28383 28376 19444
23533 28376 36388
7389 28376 15488
26516 28376 22866
22426 28376 33367
26512 28376 6104
11588 28376 37546
270 28376 77826
14904 28376 32707
2175 28376 31033
3337 28376 51880
22476 28376 34685
14514 28376 25641
22598 28376 10657
22996 28376 37232
30450 28376 11995
25234 28376 14353
12409 28376 45105
12169 28376 25279
34493 28376 9195
9864 28376 55400
3646 28376 63870
6043 28376 1971
18303 28376 40521
12905 28376 18251
29860 28376 12394
24108 28376 33570
13851 28376 3851
8762 28376 24893
12106 28376 31434
14342 28376 20141
14108 28376 47469
8467 28376 26187
18267 28376 43156
621 28376 49429
5974 28376 5948
14654 28376 39764
3170 28376 57406
13959 28376 53164
18335 28376 28944
14302 28376 52373
6152 28376 44352
28931 28376 18735
961 28376 16398
5639 28376 8576
12782 28376 9127
13906 28376 29795
919 28376 5949
14061 28376 6801
22544 28376 4368
3842 28376 34
11752 28376 54392
3474 28376 50255
8331 28376 68527
12552 28376 24015
8134 28376 12908
29805 28376 10441
6432 28376 69858
9805 28376 43528
12591 28376 21517
10865 28376 25420
4708 28376 33075
5549 28376 45813
15260 28376 26960
7541 28376 45388
35729 28376 5010
15584 28376 50569
1582 28376 71320
17235 28376 37223
15068 28376 46354
34166 28376 5359
35267 28376 3099
17405 28376 19338
13359 28376 25331
17663 28376 20392
7062 28376 6728
30359 28376 7455
12919 28376 15031
4117 28376 18127
1411 28376 25836
10157 28376 52827
27484 28376 15609
5907 28376 57886
6877 28376 28409
22914 28376 29833
5711 28376 25956
21498 28376 34448
11867 28376 48239
37096 28376 27
11747 28376 34958
3896 28376 16164
3078 28376 74592
10923 28376 2768
9412 28376 16792
2840 28376 22713
7176 28376 25352
26886 28376 9496
16690 28376 30691
8926 28376 30933
20870 28376 4173
21224 28376 40281
11858 28376 46539
871 28376 29175
4729 28376 27801
3900 28376 24655
32466 28376 9003
6306 28376 12701
11357 28376 44067
10894 28376 12528
11243 28376 53448
6804 28376 44644
23889 28376 6425
11669 28376 32547
34608 28376 6267
22480 28376 32868
12459 28376 35088
3525 28376 55562
30177 28376 8171
13168 28376 48525
26674 28376 1724
25037 28376 28504
21292 28376 24225
3204 28376 70281
24819 28376 21974
19715 28376 5708
17870 28376 5314
7341 28376 154
32295 28376 16959
16694 28376 26075
11257 28376 46128
25359 28376 18646
3396 28376 8959
25134 28376 17396
6099 28376 31184
41293 27663 1918
40701 27663 14999
41017 27663 6767
41188 27663 19869
40681 27663 5435
41152 27663 51453
40974 27663 48892
40831 27663 5872
41035 27663 21236
39843 18041 83757
39558 14693 83757
39980 7491 83757
39261 19784 83757
14718 27663 67801
24612 27663 61838
24083 27663 64791
21605 27663 63514
9205 27663 78486
8337 27663 59795
17694 27663 69848
5467 27663 68319
32791 27663 60730
5003 27663 76675
4792 27663 77491
6474 27663 65023
19628 27663 69916
26581 27663 63993
11963 27663 64036
10417 27663 67654
6632 27663 76818
19303 27663 67261
8505 27663 73490
28544 27663 62153
13542 27663 68190
8103 27663 73797
35746 27663 59921
8985 27663 70617
28979 27663 63616
11140 27663 70181
33076 27663 59751
22559 27663 59863
16231 27663 62628
25086 27663 62051
12914 27663 72760
9574 27663 63900
2451 27663 80591
2982 27663 76934
3452 27663 68195
1951 27663 80634
32151 27663 62954
15085 27663 62623
5914 27663 64193
17189 27663 65118
1713 27663 78372
19263 27663 69483
10444 27663 69981
15395 27663 69826
22157 27663 59399
2492 27663 70036
9702 27663 75226
6689 27663 71980
14416 27663 68267
1500 27663 80338
32294 27663 61754
6879 27663 69778
3946 27663 63026
3157 27663 62642
14780 27663 67122
11025 27663 63340
33831 27663 59886
23264 27663 66402
9527 27663 66623
29953 27663 59878
8544 27663 76098
31698 27663 60048
14531 27663 66568
10976 27663 61308
8104 27663 71718
17490 27663 60588
25064 27842 0
2416 0 84112
1491 18904 85140
1930 18650 85140
1306 26889 25671
1306 12747 26023
1306 26078 25390
1478 23682 59356
2546 9586 2689
1932 8998 2689
2156 88 2689
1771 21968 1306
2307 10331 1306
38805 17812 25689
38805 26562 25191
38805 20888 26284
1306 19440 1328
1306 5024 2018
38827 8411 59356
39762 20768 59356
39232 22749 59356
38897 18323 25058
39420 12920 25058
40188 6231 58926
1306 5644 59177
1306 24896 58119
1306 21242 59102
1306 25784 58436
39203 19218 26441
39683 24779 26441
39300 24118 26441
38805 27392 58041
38805 22837 58529
38805 21327 58299
38805 878 1519
38805 20386 1449
38805 3472 1934
38805 40 1703
16552 27988 86446
2369 28053 86446
22375 27663 84389
26094 27663 84726
32599 27663 84437
6407 27663 85019
30904 27663 84604
1119 27663 40329
359 27663 72662
2179 27663 31539
1124 27663 55939
1924 27663 42289
1672 27663 43021
1680 27663 31958
40188 8538 26035
40188 7412 26129
40188 5052 26103
1645 27663 20725
2080 27663 16162
2591 27663 13517
1306 2953 58288
1306 2832 58859
1306 1258 58255
40188 10345 25603
40188 6314 26389
35599 27663 41135
37019 27663 50162
40020 27663 29374
21662 27663 48010
31647 27663 57699
36104 27663 53776
28680 27663 38146
27955 27663 52721
39803 27663 49732
34442 27663 32233
24778 27663 42491
19988 27663 54126
29576 27663 46055
19503 27663 43720
27674 27663 40438
17599 27663 48859
38415 27663 28108
34796 27663 43899
37958 27663 40320
19056 27663 55274
27965 27663 41449
28452 27663 46246
7903 27663 53487
33621 27663 57126
37847 27663 43912
17541 27663 45322
16812 27663 56831
32912 27663 37602
29129 27663 45350
30008 27663 51368
31630 27663 40766
14120 27663 49956
11590 27663 54733
11664 27663 56994
13798 27663 57077
14233 27663 55806
9795 27663 54587
13628 27663 52188
33940 27663 43439
27672 27663 53143
30268 27663 36327
23442 27663 53593
28928 27663 42493
30476 27663 37470
20360 27663 49806
32954 27663 32560
27782 27663 38608
35045 27663 41761
22888 27663 42520
24814 27663 48318
18889 27663 47510
38430 27663 29872
37637 27663 45717
29974 27663 41317
32157 27663 53505
28273 27663 44669
11121 27663 52515
39306 27663 31162
26673 27663 55311
4298 27663 55564
29987 27663 52738
30336 27663 55615
39293 27663 57801
18739 27663 43896
27850 27663 42487
22219 27663 42815
6069 27663 56132
12119 27663 57656
11866 27663 50131
35144 27663 33832
5607 27663 57302
33372 27663 44495
33409 27663 48593
7006 27663 56229
19837 27663 56026
36617 27663 39033
31605 27663 34623
35460 27663 33343
25881 27663 53696
26593 27663 38035
38072 27663 46620
38368 27663 50649
28586 27663 39803
6566 27663 55514
9387 27663 56243
16374 27663 48231
16007 27663 56558
27889 27663 37456
32543 27663 47373
25523 27663 43589
19680 27663 45343
37836 27663 46117
24029 27663 40900
40357 27663 45936
40193 27663 46591
40188 18622 25464
40188 24001 25556
1897 14656 26441
2514 27622 26441
39919 8915 85140
40177 12115 85140
354 27663 67766
972 27663 24783
37473 27663 76188
36007 27663 68230
37559 27663 79820
5940 27663 81960
20691 27663 77559
22536 27663 74475
21841 27663 82561
19627 27663 79010
10276 27663 79978
16842 27663 77415
22114 27663 77458
23231 27663 78797
37949 27663 67997
30503 27663 75619
30597 27663 69178
39245 27663 79633
20832 27663 78680
31873 27663 69660
26148 27663 79077
18774 27663 81085
3437 27663 82934
14658 27663 78173
26016 27663 77320
34950 27663 64119
33033 27663 77532
32184 27663 72129
29735 27663 75000
11131 27663 77766
30465 27663 79190
37533 27663 83702
30675 27663 65788
33127 27663 71292
20274 27663 78623
15100 27663 80010
35217 27663 78292
29072 27663 82021
12536 27663 82163
31518 27663 81097
21992 27663 81990
30164 27663 78151
14212 27663 79693
22859 27663 83161
39759 27663 62381
4642 27663 81906
23633 27663 72156
34593 27663 66971
19497 27663 76721
29607 27663 70835
31198 27663 69107
33554 27663 77962
28673 27663 80347
26209 27663 77901
33580 27663 65036
38058 27663 80316
38529 27663 79784
37949 27663 70116
8277 27663 81019
20215 27663 75101
31522 27663 75966
16966 27663 75517
36034 27663 81143
32894 27663 77052
39313 27663 73541
25549 27663 79735
37065 27663 64400
29241 27663 67926
25186 27663 78662
32192 27663 70371
37649 27663 73185
14083 27663 78047
28165 27663 79726
17972 27663 80814
38616 27663 62208
40446 27663 32209
40202 27663 6117
40801 27663 44494
38805 8064 1942
38805 15761 1443
38805 1923 2582
0 27936 73602
0 28316 82941
0 27688 5878
0 27845 56503
