ply
format ascii 1.0
element vertex 2782
property float x
property float y
property float z
end_header
44291 20021 67028
31627 26526 0
40246 26048 0
4509 27420 0
19230 27246 0
37880 25821 0
50576 24766 0
8720 27521 0
50548 26631 0
42948 26388 0
24277 26447 0
9743 9811 8697
9743 11460 9218
9743 17892 9880
32366 24391 10162
18247 23936 10162
12159 23717 10162
17863 23408 10162
26986 23828 10162
11312 20769 10162
28012 23270 10162
22874 22630 10162
8442 6969 13223
8171 9053 13223
9721 670 13223
44291 8479 13493
44291 18868 11529
44291 12104 12659
44291 17305 11295
44291 21836 11812
13036 23960 72663
11154 23237 72663
18228 21724 72663
32277 23638 72663
14703 23869 72663
17340 23941 72663
14262 22170 72663
29642 23772 72663
6862 0 68739
8734 20267 33905
9715 20267 36352
8011 20267 44211
8254 20267 55947
8544 20267 38935
8783 20267 40018
8988 20267 51733
7174 20267 59027
8563 20267 49031
8502 20267 60879
9743 5956 68601
9743 290 68852
9743 19758 69490
9743 8771 67852
46199 0 9220
47391 20267 40157
47249 20267 23175
45799 20267 55518
46614 20267 55245
46962 20267 29545
45801 20267 43290
46544 20267 53917
45603 20267 48010
46806 20267 39319
46819 20267 51802
19712 25644 0
1553 27495 0
8611 26886 0
23822 25462 0
1213 25358 0
12528 25915 0
3818 27044 0
23913 24655 0
40885 24593 0
44747 20267 29343
45688 20267 13777
45619 20267 29863
45353 20267 39709
46753 20267 16379
46152 20267 18689
46876 20267 14717
44922 20267 35371
46233 20267 15256
20478 24483 16155
18953 24483 22586
32859 24483 3135
23903 24483 26083
21418 24483 39357
17837 24483 19396
18559 24483 48822
21804 24483 21927
15794 24483 39243
4601 24483 54089
32882 24483 5317
12784 24483 22881
47462 24483 3569
22211 24483 19361
17257 24483 14150
22047 24483 43341
18497 24483 18306
4202 24483 33774
34757 24483 28190
1223 24483 56408
2988 24483 35170
28729 24483 21582
24354 24483 20924
28766 24483 29265
12018 24483 29446
5507 24483 32967
20552 24483 11184
29460 24483 24253
4535 24483 42871
29319 24483 33350
26323 24483 21702
13021 24483 43929
12562 24483 8166
4607 24483 29206
8129 24483 8101
19906 24483 21514
19345 24483 18189
16539 24483 9531
5404 24483 14695
29661 24483 25043
40814 24483 16806
7752 24483 37874
5644 24483 21337
1358 24483 70496
38758 24483 10018
12758 24483 50833
8964 24483 46221
15059 24483 8347
34266 24483 23982
684 24483 9965
23558 24483 22594
37879 24483 10615
14830 24483 30497
18022 24483 39427
5697 24483 39990
25067 24483 20081
20555 24483 14999
31757 24483 6945
14679 24483 36883
5920 24483 30868
45 24483 78246
1610 24483 30215
5355 24483 35111
23358 24483 2332
44302 24483 9110
14246 24483 24182
517 24483 43655
16077 24483 25203
30897 24483 27083
26423 24483 3335
31499 24483 9503
37073 24483 20021
33123 24483 25185
15808 24483 32148
24922 24483 29047
23786 24483 9773
49481 24483 2879
12198 24483 34337
45364 24483 7437
14569 24483 47716
49808 24483 4908
4160 24483 39279
19036 24483 44042
21544 24483 28750
27474 24483 21616
27309 24483 4078
24908 24483 1157
12937 24483 6123
24296 24483 24437
15483 24483 2271
32321 24483 7551
17863 24483 1723
5139 24483 27611
3537 24483 18011
9733 24483 36884
2633 24483 31470
20831 24483 26020
14771 24483 1874
14762 24483 56055
19011 24483 45526
7226 24483 13792
23147 24483 21694
11449 24483 25909
26042 24483 25935
34642 24483 8161
16812 24483 51264
22698 24483 5946
9040 24483 36113
14579 24483 44250
1578 24483 5421
15967 24483 16199
7222 24483 61155
46565 24483 5818
4973 24483 3645
13977 24483 11186
6805 24483 48182
13489 24483 55267
34004 24483 21161
3796 24483 67977
6679 24483 4508
2594 24483 4691
21548 24483 38679
593 24483 55932
2543 24483 13311
14931 24483 38678
11962 24483 27813
9196 24483 30075
16745 24483 36584
25196 24483 16451
17253 24483 10590
8374 24483 37208
1883 24483 28606
18574 24483 5501
18668 24483 1098
26593 24483 19459
7549 24483 1979
1748 24483 60877
30687 24483 34071
28215 24483 34759
1495 24483 7095
27830 24483 18979
22454 24483 33126
11687 24483 42242
28542 24483 16450
3250 24483 20519
37520 24483 2410
32293 24483 30668
29402 24483 11751
6605 24483 15238
4806 24483 21906
25587 24483 40479
26108 24483 20044
30563 24483 14444
43638 24483 12938
25209 24483 21156
20522 24483 31582
21476 24483 12911
10981 24483 48899
17087 24483 52107
733 24483 75403
2992 24483 50531
4754 24483 71985
4359 24483 38619
20164 24483 47548
34916 24483 20151
14194 24483 6959
28206 24483 25530
8089 24483 57097
15674 24483 41342
11749 24483 1024
43365 24483 15284
17482 24483 42250
8844 24483 7779
33306 24483 19660
12233 24483 4493
25914 24483 30270
43317 24483 15930
13771 24483 31179
42018 24483 1188
2804 24483 68715
18776 24483 40672
12937 24483 21152
21852 24483 11025
4744 24483 9441
11320 24483 39236
7601 24483 67148
40084 24483 7246
10926 24483 58460
5894 24483 8575
31529 24483 17610
33817 24483 3034
33800 24483 8221
43306 24483 2284
30849 24483 16913
9835 24483 41986
3249 24483 64047
23634 24483 4939
43895 24483 10215
41762 24483 8221
39546 24483 6106
39147 24483 1696
24606 24483 18525
26043 24483 15191
28480 24483 30376
15304 24483 43670
25717 24483 1288
2921 24483 71213
13344 24483 15052
35692 24483 15093
45929 24483 8261
13255 24483 48686
20419 24483 33226
36587 24483 18666
32166 24483 19867
28995 24483 19896
21818 24483 7936
14349 24483 48486
27595 24483 326
33927 24483 10465
18033 24483 49132
27693 24483 3747
10806 24483 3304
20665 24483 18543
5674 24483 49100
1865 24483 49833
19755 24483 31124
23328 24483 16250
48185 24483 2473
7621 24483 43681
33028 24483 25639
25356 24483 36029
19095 24483 10675
15349 24483 28552
20021 24483 39889
2318 24483 60726
12441 24483 1921
47420 18147 69727
47420 22246 71469
47420 21788 69371
47420 17180 70701
47420 16033 70369
47420 12508 67958
47420 13160 69688
44291 20327 55933
44291 21362 25978
44291 20590 60628
44291 20840 55045
44291 23070 14338
44291 21453 30376
44291 21284 37310
44291 22759 30661
44291 21680 40825
44291 23330 27315
44291 20915 50207
44291 21174 23781
9743 22103 11961
9743 21530 11204
9743 13940 11864
6925 24711 0
4565 25283 0
29763 24511 0
695 27378 0
20450 25344 0
411 26030 0
16082 25715 0
7323 26275 0
36712 24315 69534
38241 21258 69534
27711 23096 69534
44046 23154 69534
34729 23042 69534
19473 24236 69534
26009 24074 69534
41747 22085 69534
33027 23503 69534
0 26229 9144
0 26279 18377
0 25031 11985
0 24538 28986
0 25978 29823
0 25575 2347
0 26108 12250
0 26347 2149
0 25298 32393
0 26053 6143
0 26221 28927
0 25180 31516
0 26401 22785
44711 0 71844
37598 24483 68339
28085 24483 44352
40957 24483 78825
38215 24483 59154
34593 24483 39853
24172 24483 74894
47620 24483 41178
42617 24483 61177
52362 24483 78512
50251 24483 66892
26465 24483 51511
27563 24483 44764
53829 24483 23733
29426 24483 76043
13394 24483 60061
25576 24483 47443
47681 24483 59211
46633 24483 41560
35611 24483 41139
4574 24483 78090
49813 24483 22530
30884 24483 47302
51167 24483 9191
7518 24483 76549
22004 24483 77369
47700 24483 15001
24417 24483 63654
28380 24483 67045
47412 24483 75134
53519 24483 65198
22165 24483 66627
49680 24483 58405
44386 24483 62888
27409 24483 48022
53481 24483 55716
35251 24483 31176
47047 24483 16153
49671 24483 50119
47031 24483 43860
42510 24483 79185
35014 24483 46049
43425 24483 31401
23914 24483 77311
35018 24483 71738
44243 24483 67127
40454 24483 42651
36119 24483 39855
5709 24483 72043
50798 24483 34600
40073 24483 39822
51225 24483 14952
51250 24483 34839
53209 24483 30361
11346 24483 74520
32579 24483 70322
21497 24483 50651
33423 24483 61059
45746 24483 47770
17496 24483 70145
50141 24483 75871
51104 24483 62400
44090 24483 55567
24884 24483 63231
52797 24483 55290
36690 24483 50377
38465 24483 76178
38353 24483 49348
21812 24483 72815
41918 24483 50387
32152 24483 56311
20401 24483 60833
35180 24483 49434
47407 24483 38539
36980 24483 64172
45004 24483 75455
48146 24483 71205
19337 24483 60751
41264 24483 76969
44594 24483 22907
25139 24483 45515
53160 24483 68186
38650 24483 74010
22969 24483 57166
53220 24483 49537
51354 24483 55047
32351 24483 38271
49340 24483 62482
43156 24483 64601
36648 24483 77398
39852 24483 59610
27350 24483 75142
31362 24483 74066
53302 24483 62046
51364 24483 10993
33815 24483 46604
40540 24483 32531
23131 24483 73924
30315 24483 60214
39287 24483 58150
50543 24483 27715
53428 24483 61334
36002 24483 40762
33263 24483 40201
50345 24483 73011
50647 24483 49254
15803 24483 64683
54289 24483 45015
27580 24483 66266
49473 24483 19931
47473 24483 47303
53893 24483 45984
48386 24483 49779
47878 24483 17838
22381 24483 68642
51246 24483 35936
53852 24483 12488
36016 24483 78735
54393 24483 69533
28016 24483 48057
29599 24483 58356
22308 24483 63441
48270 24483 30320
11491 24483 71746
8994 24483 78099
47106 24483 71290
17857 24483 73924
33919 24483 38122
21527 24483 52927
43203 24483 42683
34263 24483 65293
43680 24483 60043
53282 24483 23737
38175 24483 61802
23066 24483 64239
9523 24483 74356
30478 24483 44171
53734 24483 34153
24311 24483 60376
30146 24483 69333
18506 24483 58583
46666 24483 12154
31204 24483 57926
42647 24483 50967
52073 24483 64516
51330 24483 47129
51928 24483 42153
45074 24483 35611
18946 24483 61886
27440 24483 56782
50614 24483 67977
6516 24483 76939
21484 24483 66714
44195 24483 30904
53580 24483 30061
34763 24483 50937
42602 24483 18261
54201 24483 74549
38141 24483 30582
30910 24483 66743
53410 24483 50881
27794 24483 52995
45037 24483 76576
48000 24483 50656
37672 24483 45119
17286 24483 64011
49464 24483 71175
42316 24483 72530
20577 24483 65867
43908 24483 50316
46971 24483 36793
38691 24483 57946
34231 24483 39264
25766 24483 70156
44889 24483 22245
23361 24483 52102
41397 24483 54014
40725 24483 41841
48603 24483 20710
42262 24483 76266
32350 24483 66429
17958 24483 78463
53466 24483 11836
9443 24483 70059
48266 24483 40779
51190 24483 44558
40540 24483 49819
53313 24483 35945
48506 24483 45042
37576 24483 65050
44462 24483 45785
30490 24483 52229
29298 24483 72578
30612 24483 48329
29984 24483 65255
15046 24483 70750
35321 24483 54122
43093 24483 60260
32241 24483 47252
41108 24483 23210
52085 24483 43202
29315 24483 45062
52759 24483 21811
42325 24483 32680
47874 24483 76966
50526 24483 42972
48483 24483 34115
41017 24483 47731
54115 24483 63328
16654 24483 57451
54140 24483 14403
33614 24483 67864
7264 24483 77896
32270 24483 62723
44877 24483 61852
38045 24483 63826
11565 24483 67575
16610 24483 72463
15217 24483 66751
28689 24483 63691
8582 24483 74381
28181 24483 58042
34401 24483 63929
39410 24483 43002
1340 24483 78919
53109 24483 3337
49103 24483 34584
6619 24483 72017
40239 24483 66067
51190 24483 47636
38116 24483 77395
25012 24483 77777
51206 24483 74860
43908 24483 21934
13543 24483 68954
9237 14155 66474
9619 18618 66474
8916 16806 66474
47019 1854 73003
45827 2840 73003
44938 500 73003
44803 2417 73003
46362 14551 73003
10244 24015 7034
22794 22012 7034
18684 21299 7034
30276 21517 7034
13823 21858 7034
17157 21059 7034
9931 21628 7034
19943 21836 7034
9743 21689 42809
9743 23688 65669
9743 21342 47040
9743 20331 44759
9743 22022 56646
9743 20919 64056
9743 22092 43063
9743 23418 59591
9743 20607 48225
9743 21203 60995
9743 20919 51757
9743 22085 50826
46151 22053 7034
45609 11157 7034
45484 14597 7034
45212 18571 7034
44291 23685 29433
44291 22755 61847
44291 23283 54559
44291 24380 65398
44291 24134 63323
44291 23810 30423
44291 24116 31932
44291 22712 64655
44291 24037 28824
44291 23009 60595
44291 23361 44550
44291 23538 56912
44291 24052 26634
9743 2524 9208
9743 3300 9480
9743 6355 9753
9743 11156 9949
47080 16572 11793
47080 5354 12484
47080 8855 10388
47080 7780 9986
47080 5403 8711
47080 5242 11683
47080 708 10619
47080 7754 11627
47420 22726 22550
47420 21004 21650
47420 23846 25776
47420 24173 55736
47420 21754 19186
47420 22785 32989
47420 23147 18508
47420 21923 18764
47420 23093 44054
47420 23251 37319
9743 21522 65192
9743 21322 36799
9743 20279 28818
9743 22914 47770
9743 21625 58095
9743 20643 24744
9743 20662 26568
9743 21233 38185
9743 21688 59665
9743 21513 53741
9743 22274 54798
53400 27066 79230
50944 26793 79230
49725 24873 79230
51632 25090 79230
45500 25586 79230
23532 25146 79230
45793 26476 79230
43234 25408 79230
36562 24607 79230
37544 26213 79230
38442 22323 69534
43958 20858 69534
32083 24336 69534
44014 22385 69534
25555 24118 69534
23691 23243 69534
22184 24045 69534
32964 22105 69534
2520 26338 79230
37833 27018 79230
9343 26473 79230
42652 27493 79230
16338 25654 79230
44090 27090 79230
10202 26523 79230
14254 25579 79230
7317 25907 79230
9716 20737 72663
9151 3363 72663
9427 12500 72663
8104 3012 72663
44291 5260 7508
44291 1482 7689
44291 14459 7498
44932 0 11254
45764 20267 63494
47145 20267 63551
46632 20267 30808
46160 20267 64690
44757 20267 64034
45994 20267 64189
47032 20267 61943
47343 20267 63073
46637 20267 43403
47012 20267 30522
9743 22545 20877
9743 21607 27257
9743 22941 25276
9743 23660 36322
9743 22467 34744
9743 24367 59643
9743 23107 22871
9743 22377 27310
9743 21875 19751
9743 23756 34414
9743 24328 50456
9743 22338 15125
46257 0 8430
9743 1155 11126
9743 14584 12761
9743 20501 12954
9743 2430 11103
9743 9052 12915
14194 20267 8849
25445 20267 7111
32224 20267 8033
14891 20267 9584
16793 20267 8016
36101 20267 7419
44291 9886 68926
44291 23293 68405
44291 22603 69176
44291 10327 69463
44695 13280 73003
45724 18087 73003
44387 15127 73003
44292 14583 73003
30488 24483 843
5420 24483 37349
28386 24483 24487
6986 24483 18861
2779 24483 16296
36087 24483 8464
9298 24483 40528
5240 24483 54637
21941 24483 18316
20435 24483 23899
42054 24483 6399
18066 24483 43357
5615 24483 48414
34076 24483 7096
41248 24483 7692
28503 24483 20120
7804 24483 29097
2210 24483 9087
22369 24483 42345
4482 24483 15775
2650 24483 4186
10127 24483 2100
5570 24483 40907
10529 24483 51255
27333 24483 17794
11258 24483 36955
10872 24483 11609
22079 24483 28595
14872 24483 53080
21050 24483 15599
33881 24483 26242
39266 24483 12619
40346 24483 15019
7834 24483 9005
14174 24483 21919
33207 24483 20148
22810 24483 13466
38223 24483 3152
3587 24483 58174
5359 24483 8251
48854 24483 1600
32836 24483 31030
3846 24483 41732
31491 24483 20279
15640 24483 35974
15433 24483 8909
31448 24483 29119
2306 24483 29052
12697 24483 6994
14016 24483 58748
5420 24483 22739
17556 24483 26703
9202 24483 3159
8063 24483 34972
28505 24483 3916
3944 24483 71982
5802 24483 55180
12731 24483 33942
22705 24483 35422
31848 24483 15738
10530 24483 53244
29556 24483 8868
2732 24483 47849
17490 24483 52991
7857 24483 58853
9180 24483 60424
928 24483 47426
18335 24483 17722
750 24483 21922
18353 24483 15864
3571 24483 34776
27262 24483 30787
374 24483 59462
35305 24483 21197
14001 24483 14009
9476 24483 2691
35766 24483 241
40699 24483 9350
21242 24483 9868
39930 24483 7840
22826 24483 39339
26879 24483 24783
14587 24483 5909
4981 24483 19595
5817 24483 15091
23836 24483 18369
22166 24483 38636
37902 24483 9699
28605 24483 36562
508 24483 41019
5634 24483 29267
11854 24483 32826
44843 24483 12417
11703 24483 15396
26833 24483 7510
26142 24483 34408
21388 24483 26584
23049 24483 32058
39311 24483 15081
15873 24483 15564
1690 24483 48069
10306 24483 14071
32316 24483 1071
5809 24483 19685
38894 24483 111
39549 24483 14081
34681 24483 21625
2139 24483 20149
13239 24483 44399
1534 24483 71389
15611 24483 1821
2344 24483 35762
5428 24483 29871
5820 24483 67601
21192 24483 7933
39864 24483 16732
22738 24483 39775
9052 24483 7164
22665 24483 23071
16972 24483 32812
12584 24483 32864
34132 24483 28707
33270 24483 8079
22735 24483 32654
260 24483 11572
43396 24483 14295
14628 24483 57366
17414 24483 19030
33433 24483 15090
1890 24483 37687
35416 24483 9184
1273 24483 23649
12904 24483 20241
25021 24483 11793
4340 24483 11396
6216 24483 17440
12401 24483 52025
14262 24483 41320
2789 24483 46244
2491 24483 44522
31350 24483 4941
20931 24483 46790
21452 24483 15384
25272 24483 3370
18204 24483 4069
16743 24483 27282
44902 24483 11106
10300 24483 54265
19289 24483 6677
379 24483 30582
21796 24483 5523
28348 24483 12790
18365 24483 20124
17022 24483 13349
30520 24483 5106
24674 24483 6220
39353 24483 4964
18470 24483 31233
20551 24483 40414
22586 24483 15966
48275 24483 4877
1929 24483 21872
28849 24483 24269
28464 24483 27690
6722 24483 29654
12608 24483 53204
2929 24483 22560
10988 24483 22781
31965 24483 6405
22384 24483 29667
12229 24483 35330
8229 24483 60418
2980 24483 30614
40281 24483 17829
374 24483 22640
4653 24483 17499
42294 24483 12874
12759 24483 916
46078 24483 4216
36351 24483 21106
21434 24483 43169
12096 24483 40059
27168 24483 31785
41897 24483 16888
36354 24483 19643
8594 24483 5909
5675 24483 7071
21965 24483 24252
11003 24483 36037
39874 24483 622
9969 24483 38979
37493 24483 17920
17231 24483 51546
53 24483 28234
23344 24483 8284
28255 24483 14519
6407 24483 50697
22170 24483 2266
7491 24483 245
22109 24483 6206
40916 24483 5872
21265 24483 46414
27234 24483 33497
8132 24483 43032
40352 24483 11689
11409 24483 33018
8315 24483 6281
13878 24483 8930
26204 24483 28876
25438 24483 30171
46137 24483 8660
14157 24483 29810
2580 24483 72310
20802 24483 32185
7303 24483 54161
24183 24483 19030
20981 24483 14088
9083 24483 64490
26175 24483 37745
6705 24483 11470
29597 24483 18170
34099 24483 25052
34234 24483 2465
47420 22501 57481
47420 21011 29171
47420 21033 62144
47420 21436 56848
47420 21159 50286
47420 22751 55065
47420 21848 64430
47420 23211 65322
47420 22388 61892
47420 20635 55955
47420 20953 27090
8204 23379 7034
8905 13953 13223
9136 978 13223
7810 2978 13223
47420 5432 72219
47420 10550 71035
47420 666 70994
47420 3280 68904
47420 927 71347
47420 142 68501
47420 3673 68592
47420 14152 72076
47420 7508 68795
47080 14788 8654
47080 12867 9719
47080 8040 8055
47080 17581 7929
47080 20862 8928
47080 9686 9166
47080 15198 10258
47080 12390 9511
47080 19024 9080
41728 20267 70553
38541 20267 72167
14441 20267 72269
43167 20267 72488
17801 20267 72064
38967 20267 70498
45420 20267 41790
45036 20267 45869
45348 20267 20995
44695 20267 22027
44789 20267 14098
45385 20267 17924
45550 20267 19831
54408 24793 44058
54408 24501 48504
54408 26255 79189
54408 24759 10198
54408 25348 69524
54408 24976 52201
54408 27108 74375
54408 26673 74322
54408 25404 56752
54408 26378 57922
54408 26028 43356
54408 24951 67012
9743 4953 72404
9743 1825 71039
9743 1550 70670
9743 12098 72187
47420 23629 72303
47420 17302 69053
47420 14282 67790
47420 14557 68924
47420 7058 67421
47420 11719 69366
18075 21293 69534
31798 20732 69534
10504 20613 69534
13261 22512 69534
28828 21105 69534
19380 22543 69534
12193 22958 69534
21612 20626 69534
44291 12721 11714
17428 21259 10162
26079 23191 10162
14634 23913 10162
28857 23748 10162
10908 23422 10162
11338 23721 10162
9743 23785 67999
46971 20267 17121
44890 15313 13563
45175 16080 13563
44534 14895 13563
9743 9806 69995
9743 18317 69721
9743 17306 71979
9743 19682 70288
47420 23331 27706
47420 22480 15008
47420 21542 22236
47420 23485 46386
47420 22014 30989
47420 21940 14778
47420 23810 44857
47420 24483 25010
47420 24048 38241
47420 21052 20329
47420 22678 41417
7499 16010 13223
6917 2536 13223
6829 20179 13223
6907 9050 13223
12379 27611 29158
20031 27611 43544
18910 27611 35431
10457 27611 26352
20622 27611 66993
1574 27611 56727
4539 27611 17570
27162 27611 64423
22574 27611 41132
16843 27611 70208
23041 27611 49531
8597 27611 24462
35894 27611 65209
803 27611 60656
22330 27611 72588
769 27611 69586
33078 27611 76611
40180 27611 72061
7548 27611 36744
14696 27611 33573
10129 27611 43323
12558 27611 35721
6985 27611 16996
45529 27611 76378
7577 27611 11679
11946 27611 68228
23837 27611 42397
30159 27611 45450
34851 27611 78425
48389 27611 78201
16148 27611 24422
7756 27611 39686
50764 27611 74570
3075 27611 44368
16949 27611 62366
2334 27611 41574
2988 27611 17717
26801 27611 46123
1934 27611 61047
26839 27611 57284
985 27611 41224
1039 27611 53037
2441 27611 3835
11036 27611 20436
21473 27611 41705
3162 27611 10674
27818 27611 45059
34266 27611 67993
29818 27611 63437
6542 27611 13334
29302 27611 50939
7777 27611 26628
149 27611 6047
17338 27611 58669
13553 27611 24381
41837 27611 71584
10171 27611 73874
34110 27611 63804
46233 27611 75256
25770 27611 47903
10161 27611 41226
17774 27611 43642
13619 27611 35698
28184 27611 65370
14046 27611 32486
19763 27611 31991
12115 27611 72553
12481 27611 58449
11171 27611 76347
2853 27611 51904
31820 27611 59600
8598 27611 49312
12146 27611 59880
30171 27611 70143
42322 27611 63599
7038 27611 37129
26249 27611 42858
1758 27611 29644
16177 27611 50028
4567 27611 35092
18451 27611 78579
4512 27611 46267
1129 27611 52506
37853 27611 59038
33727 27611 55166
32568 27611 54315
13560 27611 23497
32201 27611 68591
32930 27611 71974
12511 27611 49887
6669 27611 58615
32206 27611 76015
14282 27611 20930
12719 27611 30336
4595 27611 12854
8075 27611 64358
5591 27611 20064
36781 27611 59873
33234 27611 69620
339 27611 18459
13091 27611 57651
27063 27611 70640
18970 27611 54157
36290 27611 76279
14842 27611 30430
7855 27611 28576
33444 27611 49321
22316 27611 50416
19510 27611 78380
8270 27611 55325
21538 27611 71679
2702 27611 61314
13848 27611 25662
12229 27611 65756
95 27611 4021
14806 27611 27802
22029 27611 33846
232 27611 15959
14839 27611 40575
26169 27611 45523
21331 27611 39265
13152 27611 60465
6191 27611 38694
4877 27611 31027
6833 27611 15975
11311 27611 21939
2686 27611 28241
4740 27611 71997
9521 27611 44696
15460 27611 49992
20184 27611 41971
12226 27611 61640
42490 27611 70830
34015 27611 60152
41048 27611 76475
17420 27611 66059
5995 27611 34372
29430 27611 63163
21288 27611 53517
38714 27611 70325
24530 27611 59576
22120 27611 77405
9194 27611 44331
7195 27611 25118
33196 27611 57736
8296 27611 41595
34753 27611 68338
14696 27611 42258
10648 27611 64930
28686 27611 75481
9356 27611 75162
7369 27611 53104
12231 27611 47972
10782 27611 56078
2353 27611 67355
29172 27611 69200
16983 27611 36251
17128 27611 56109
14752 27611 45377
32587 27611 49676
18305 27611 50924
22654 27611 43148
9625 27611 40309
4668 27611 23040
29188 27611 59356
1816 27611 50328
24746 27611 62005
6685 27611 73722
20943 27611 75463
33723 27611 64822
33629 27611 50448
5070 27611 30539
11481 27611 51676
32505 27611 60093
22703 27611 59157
4115 27611 34527
13331 27611 70183
5324 27611 48556
5513 27611 9565
3598 27611 23258
6380 27611 18646
34045 27611 66393
10381 27611 66582
604 27611 67992
34727 27611 76465
8047 27611 14840
28059 27611 76974
24049 27611 39943
43732 27611 73054
7297 27611 20484
18447 27611 39821
4801 27611 25298
42143 27611 73980
23866 27611 78593
29226 27611 67204
6170 27611 17468
29629 27611 45720
39557 27611 61212
1986 27611 9653
20256 27611 55339
3435 27611 61067
25101 27611 60887
12059 27611 50245
10192 27611 77948
28042 27611 77691
21195 27611 64169
22603 27611 52249
10537 27611 77562
13061 27611 44017
797 27611 50107
9212 27611 42658
33362 27611 70604
47060 27611 75588
52416 27611 79131
42074 27611 66260
2972 27611 8187
45067 27611 70840
13628 27611 61551
5614 27611 24188
12284 27611 64313
27112 27611 42170
16431 27611 32279
31309 27611 56185
27200 27611 58036
17694 27611 30249
3364 27611 13033
14948 27611 65964
45369 27611 75379
9729 27611 61839
9392 27611 63645
13350 27611 28112
1960 27611 26567
11062 27611 44136
24785 20267 69948
16284 20267 71493
38445 20267 69852
26092 20267 70921
33353 20267 69681
13832 20267 71474
6910 20267 34647
6778 20267 21686
8071 20267 20138
7416 20267 32770
7208 20267 46353
7258 20267 15372
9132 20267 22822
6826 20267 28450
7718 20267 23101
6755 20267 57144
47080 20008 11656
47080 22121 10069
47080 22943 8134
47080 15787 11022
47080 7237 8682
47080 23770 8831
47080 11688 8245
47080 8442 8377
44291 9792 69978
44291 2965 71608
44291 410 72485
54408 26806 15786
54408 26535 11905
54408 26739 40856
54408 27366 61637
54408 27133 38473
54408 26342 12590
54408 27386 29297
54408 25731 14355
54408 27098 64128
54408 27610 56055
54408 26703 56089
54408 25926 33006
54408 25452 9010
54408 25885 12843
45419 8184 66814
44301 8385 66814
44902 10858 66814
45721 5636 66814
9743 2186 70767
9743 10994 71677
9743 4810 68715
9743 1296 69525
9743 3786 68073
9743 17169 68662
9743 12540 69044
8690 20863 7034
9715 14124 7034
7864 22187 7034
40123 20267 8377
40272 20267 9623
32226 20267 8576
35656 20267 8005
33256 20267 8364
40546 20267 8910
44291 2136 8523
44291 1555 9715
44291 3954 7264
44291 4369 9005
0 25883 20732
0 24710 2464
0 26745 8148
0 24979 29626
0 25365 50005
0 27039 5393
0 25562 16518
0 25321 36506
0 24538 47061
0 24822 50979
0 24940 55111
21556 27525 0
29019 26381 0
40953 27483 0
42026 26718 0
36266 25869 0
48376 27122 0
46093 27386 0
39857 27100 0
9743 24369 68507
8486 0 9180
9477 0 9231
45461 0 67853
6614 10451 13026
6614 21633 9946
6614 20390 9942
6614 24123 11885
6614 10336 10819
6614 21727 11154
6614 24426 10923
23240 20267 71506
43046 20267 71232
43624 20267 70120
29026 20267 72088
38058 20267 72016
24000 24098 72663
10211 21413 72663
25628 22930 72663
17730 22123 72663
26894 24091 72663
13104 22660 72663
37587 23689 72663
13958 23481 72663
44291 15178 11023
44291 14184 72630
44291 13037 70792
44291 6971 71708
9743 23814 56893
9743 23117 42298
9743 22267 29093
9743 23870 14105
9743 22288 25399
9743 23929 46926
9743 20983 15468
9743 21904 20579
9743 23308 23777
47265 6791 66814
45581 16981 66814
46700 15396 66814
45513 12703 13563
46078 18629 13563
44565 18260 13563
21580 27522 79230
12038 26867 79230
3053 25798 79230
16409 26503 79230
1922 24935 79230
20540 25821 79230
18585 27605 79230
47420 24470 66880
47420 21316 67895
46156 20267 32402
29003 21007 72663
31324 21796 72663
40167 20916 72663
28457 21299 72663
29412 22595 72663
35613 22876 72663
36256 22688 72663
9716 0 71779
44679 5674 7034
46244 4143 7034
44829 8843 7034
45482 16186 66814
46752 6852 66814
47381 14227 66814
9367 27611 54126
45968 27611 67000
20305 27611 44798
21253 27611 34325
38219 27611 67143
310 27611 44895
8429 27611 65920
20941 27611 37273
394 27611 57933
22165 27611 71408
14149 27611 41828
11889 27611 35576
32920 27611 69022
16692 27611 24828
3798 27611 8774
28313 27611 69434
31592 27611 76366
6735 27611 25255
38687 27611 77604
2769 27611 15180
13108 27611 48396
16274 27611 49457
22917 27611 40670
22205 27611 39815
25382 27611 67801
23805 27611 55164
4093 27611 64415
7196 27611 55642
33062 27611 68422
40017 27611 78775
40136 27611 78038
6371 27611 23364
2594 27611 56779
17945 27611 61716
3769 27611 51494
6847 27611 47590
37831 27611 61684
14541 27611 64043
6272 27611 70131
31983 27611 54335
4570 27611 70753
26525 27611 49330
15077 27611 27044
229 27611 3378
2523 27611 7074
31797 27611 72991
2845 27611 28719
18835 27611 58486
1555 27611 11257
9146 27611 65663
10624 27611 75219
42868 27611 65804
6172 27611 55506
17720 27611 56888
12254 27611 51867
27306 27611 73048
3947 27611 60699
21347 27611 58846
1245 27611 11590
33035 27611 61315
19035 27611 44362
20462 27611 32235
23957 27611 60702
20339 27611 56976
22141 27611 75532
41420 27611 70664
7994 27611 12113
33455 27611 52662
15018 27611 23589
25139 27611 77137
28852 27611 77000
16377 27611 62403
18471 27611 43453
13084 27611 55841
15626 27611 52730
1900 27611 67050
16942 27611 44087
20746 27611 74550
20198 27611 34491
13569 27611 76720
942 27611 70489
18173 27611 65145
15523 27611 34008
47294 27611 70691
8631 27611 57181
18054 27611 59990
3825 27611 70271
13327 27611 63559
45499 27611 75897
6682 27611 14990
29853 27611 52557
29481 27611 55727
33651 27611 67342
5434 27611 59560
1900 27611 33162
17233 27611 77955
5813 27611 15711
13119 27611 59412
24037 27611 65495
36221 27611 64363
20298 27611 74896
3696 27611 19834
3583 27611 22558
22155 27611 58406
8228 27611 52678
2514 27611 17595
8001 27611 24273
12948 27611 68553
19048 27611 67689
43062 27611 67913
3630 27611 28214
8783 27611 32357
26900 27611 61136
13122 27611 32776
7099 27611 23564
24586 27611 44467
5390 27611 76698
26753 27611 59861
11740 27611 54085
1599 27611 57846
7542 27611 75587
34852 27611 77798
15212 27611 44241
19104 27611 51045
16703 27611 30561
3804 27611 14663
3273 27611 45833
20165 27611 51538
15092 27611 57930
25420 27611 56650
1700 27611 74077
19325 27611 61735
10640 27611 61277
46683 27611 72665
23838 27611 44257
13858 27611 37126
7979 27611 54648
14879 27611 59858
7945 27611 38221
32451 27611 61925
26257 27611 65033
5300 27611 46505
20761 27611 33778
2007 27611 52987
6969 27611 34218
45496 27611 67729
12453 27611 21454
5942 27611 53112
41848 27611 62540
48078 27611 75673
52094 27611 78102
13149 27611 29591
11761 27611 31036
32222 27611 67562
1024 27611 1947
8986 27611 60898
27474 27611 59033
7295 27611 70049
8106 27611 27947
29862 27611 48116
26183 27611 57184
36127 27611 75383
993 27611 62400
11018 27611 51410
13588 27611 30115
11462 27611 47029
14593 27611 25536
7326 27611 26843
35265 27611 73269
17869 27611 77642
15847 27611 30883
14999 27611 32307
12626 27611 65338
38799 27611 76226
3363 27611 52913
13757 27611 74792
36604 27611 71280
15799 27611 32214
43987 27611 75198
13836 27611 66679
13719 27611 51376
11851 27611 43336
18690 27611 36817
18691 27611 40638
850 27611 30407
20152 27611 61064
28558 27611 71506
11528 27611 55230
11349 27611 73334
38764 27611 67486
38482 27611 61142
28379 27611 55087
1876 27611 70052
20878 27611 36047
13410 27611 21025
21846 27611 37896
46613 27611 71187
15224 27611 24951
11358 27611 26120
18130 27611 53873
23930 27611 72010
31395 27611 48423
18395 27611 55009
11809 27611 66755
2747 27611 6291
2294 27611 78007
28689 27611 64911
15004 27611 33139
30584 27611 44881
18287 27611 69943
6938 27611 49294
25088 27611 73128
45604 27611 71792
23819 27611 74011
1737 27611 72154
35133 27611 59288
3120 27611 25418
22108 27611 66713
3940 27611 21255
4199 27611 6145
40337 20522 10162
16359 20429 10162
27818 22123 10162
32322 21829 10162
36961 21313 10162
22145 20904 10162
46641 11031 13563
45961 1178 13563
45628 5588 13563
45118 339 13563
9743 11347 70381
8986 10916 72663
9289 16838 72663
9278 16360 72663
9547 4214 72663
6614 13910 67521
6614 7853 67634
6614 5927 69839
6614 15210 67398
6614 7651 66582
6614 3991 71145
9743 7061 67117
9743 16703 67669
9743 6347 67127
9743 20279 66573
9743 16242 67464
9743 14073 68131
9743 12518 67928
7740 4912 66474
7434 2315 66474
7199 15892 66474
9268 2373 66474
45647 4440 66814
45214 7002 66814
45271 5409 66814
46267 0 69739
6614 24459 51611
6614 24403 22637
6614 23890 56084
6614 22776 47232
6614 21184 66433
6614 23801 51362
6614 21168 62278
6614 21912 57101
6614 24333 16068
6614 23598 27732
6614 23642 45365
6614 23541 25467
6614 22260 61331
32954 20267 9565
24594 20267 9009
41051 20267 10034
25074 20267 9113
39345 20267 9137
8734 20267 65219
7524 20267 64403
8972 20267 45498
8202 20267 61287
8642 20267 37113
8650 20267 35122
7778 20267 60726
44291 14483 71629
44291 16057 72081
44291 18919 70249
44291 20166 71166
6614 11973 8769
6614 2754 7405
6614 6104 8692
6614 59 11825
6614 3365 10436
6614 10871 7919
6614 7096 9484
6614 10449 7161
54408 25328 7581
54408 27228 13485
54408 27128 28332
54408 26032 29317
54408 24865 1561
54408 26917 52143
54408 27140 57013
54408 26748 35260
54408 27169 10215
54408 26541 29350
54408 26952 36304
54408 26803 54806
54408 26190 14010
46660 27611 3568
50025 27611 15960
45309 27611 18468
30818 27611 25522
52343 27611 12740
17196 27611 22948
7907 27611 9548
52850 27611 62940
45045 27611 31414
10654 27611 1536
33383 27611 2417
12922 27611 10147
49313 27611 68714
22477 27611 13154
53269 27611 68051
43894 27611 67
21369 27611 20379
27915 27611 12539
18312 27611 1608
39157 27611 40076
53289 27611 13898
41351 27611 53894
19319 27611 18814
49822 27611 46420
18766 27611 25938
46501 27611 24167
49944 27611 27975
50739 27611 66474
48197 27611 67921
19254 27611 10696
30893 27611 16230
49182 27611 10849
31369 27611 45514
33336 27611 26552
5120 27611 4197
47978 27611 19324
42404 27611 38873
12476 27611 14160
52975 27611 59590
54173 27611 64942
15479 27611 1086
34445 27611 17189
46814 27611 6047
38355 27611 41212
38409 27611 10828
43980 27611 32770
40980 27611 38607
30376 27611 29992
33586 27611 36647
47465 27611 63804
50762 27611 11340
37042 27611 30686
20107 27611 16604
38288 27611 53959
42924 27611 8404
44396 27611 18363
53118 27611 64438
46321 27611 61313
18335 27611 10634
31969 27611 44978
28848 27611 3391
53235 27611 71654
32125 27611 13695
53626 27611 72008
31003 27611 38529
12521 27611 12305
37343 27611 21555
28990 27611 7139
27024 27611 38565
46918 27611 42934
18520 27611 8156
13450 27611 11067
46263 27611 4145
25519 27611 7685
25970 27611 5548
39914 27611 1963
14849 27611 18710
44802 27611 31941
36088 27611 36420
36542 27611 47521
34594 27611 34534
53293 27611 7192
50735 27611 52133
36345 27611 22675
53765 27611 68953
32196 27611 1223
53540 27611 31913
15301 27611 19487
18083 27611 18356
24100 27611 14395
32006 27611 34127
29714 27611 7321
37370 27611 22906
33640 27611 45545
47710 27611 4987
9821 27611 7273
39880 27611 42076
43436 27611 3924
38105 27611 39111
31838 27611 24346
25225 27611 10128
12196 27611 13040
51884 27611 30587
34861 27611 22555
12638 27611 5912
13386 27611 16846
52983 27611 20775
53064 27611 46258
47333 27611 51255
26236 27611 36342
44263 27611 51983
18403 27611 26643
34365 27611 6003
17286 27611 2403
18378 27611 11099
32563 27611 26622
33956 27611 15608
42863 27611 50183
37039 27611 31196
15791 27611 14994
29841 27611 6350
35330 27611 20229
28823 27611 37949
52675 27611 44901
32698 27611 21631
53825 27611 18425
47862 27611 8001
23676 27611 16400
43980 27611 21370
29063 27611 19817
48699 27611 471
33008 27611 39456
11523 27611 15258
50641 27611 56633
10303 27611 534
48146 27611 54746
39320 27611 23238
50131 27611 2939
52728 27611 52587
38423 27611 350
44888 27611 50289
48186 27611 34031
32358 27611 19164
23264 27611 22003
29791 27611 30021
19914 27611 22725
27509 27611 5740
23363 27611 26550
46268 27611 29742
54075 27611 60806
23989 27611 19030
29830 27611 32688
39825 27611 20532
32674 27611 15633
35742 27611 45953
44931 27611 54745
51110 27611 35965
47561 27611 25714
39599 27611 50185
21755 27611 28955
35414 27611 46889
25074 27611 33499
25877 27611 25241
28615 27611 34167
38411 27611 14384
51176 27611 35462
49221 27611 2991
51934 27611 39284
35063 27611 29170
32015 27611 6223
38313 27611 25245
30185 27611 18099
12001 27611 8197
44096 27611 58827
28926 27611 13134
41361 27611 14726
53712 27611 30935
39558 27611 44974
43475 27611 61972
50430 27611 11790
24047 27611 11268
45469 27611 42527
40139 27611 35121
13104 27611 9237
34180 27611 28978
48297 27611 17586
52916 27611 14795
17984 27611 8802
39444 27611 30540
18575 27611 15900
29333 27611 2269
28426 27611 10190
33968 27611 17444
49582 27611 43197
25889 27611 20790
37220 27611 9138
45819 27611 1055
2573 27611 2333
15327 27611 406
33052 27611 3480
50926 27611 46093
42300 27611 3578
41184 27611 19183
54097 27611 26398
28735 27611 25792
14388 27611 12954
47463 27611 43352
48563 27611 46430
36444 27611 32052
45716 27611 20674
11369 27611 1400
407 27611 280
46371 27611 66657
52360 27611 11973
36481 27611 4782
33982 27611 42093
48786 27611 9099
46350 27611 9849
43581 27611 4440
36671 27611 39394
50088 27611 30503
12961 27611 17188
23198 27611 31230
50600 27611 42925
41552 27611 16573
46077 27611 24592
46638 27611 46076
38372 27611 49019
30393 27611 12732
39230 27611 248
10814 27611 2619
23496 27611 23902
51646 27611 44208
9743 22226 10393
45617 12290 7034
46295 12710 7034
46257 10408 7034
46094 16206 7034
54019 26673 79230
44946 26989 79230
46561 25784 79230
40427 25724 79230
28869 25996 79230
16911 24507 79230
53473 25160 79230
50189 25625 79230
1999 24497 79230
46126 26076 79230
8329 12646 7034
7706 20521 7034
8882 11722 7034
44291 13577 69045
44291 14140 68552
44291 22756 38944
44291 21612 54652
44291 22993 55295
44291 23456 34673
44291 22621 62947
44291 23753 44963
44291 23897 50984
44291 21949 49642
44291 22975 59402
44291 21639 59861
44291 21331 55917
44291 22106 58580
0 26820 77126
0 26304 55086
0 27439 9986
0 26114 45136
0 24983 68374
0 25431 72792
0 26940 26795
0 26519 38812
0 27458 4652
0 27383 52558
0 27013 49121
0 26960 47942
0 27450 66476
0 26363 53473
6947 0 7540
7685 19545 72663
6835 9512 72663
7290 15890 72663
6871 2615 72663
25472 22044 72663
40215 23439 72663
41700 23802 72663
39502 22496 72663
29753 22156 72663
17550 20888 72663
18921 20562 72663
35389 20888 72663
44291 18443 7847
44291 12535 8741
44291 12469 9393
44291 19293 8489
9743 4066 7209
9743 16942 7209
9743 15991 9225
9743 6481 7550
6614 15845 67419
6614 8196 69319
6614 4039 69940
6614 6631 67016
6614 11930 68096
6614 15002 67887
6614 4321 70776
54408 26172 61442
54408 27108 76636
54408 26641 77147
54408 24641 77532
54408 25886 77383
54408 26447 66542
54408 25808 43933
54408 24518 65011
54408 25277 40457
54408 25091 68201
54408 25094 67763
10538 21747 7034
21761 22601 7034
42114 20379 7034
27052 21169 7034
17886 20742 7034
17259 21630 7034
10104 20267 7524
19398 20267 7183
15593 20267 7674
24755 20267 8574
24868 20267 7190
13489 20267 7761
9123 23972 72663
46879 0 10186
8531 20267 18176
7969 20267 43124
8639 20267 13606
8858 20267 20296
8287 20267 22703
7234 20267 40645
7793 20267 31679
46237 4435 73003
45615 1604 73003
44377 276 73003
45173 6171 73003
6614 17982 67959
0 27575 8819
0 26335 52546
0 27106 32761
0 26076 75169
0 26238 57144
0 27206 60132
0 25752 64831
0 27283 60987
0 26694 50951
0 27228 20961
0 26378 49920
0 26551 45458
0 26319 58869
32525 21137 69534
13536 21098 69534
21162 21907 69534
36613 20969 69534
17453 20360 69534
16095 21703 69534
20505 21695 69534
7587 0 70714
6614 21892 26009
6614 20644 33110
6614 22662 34800
6614 21685 34370
6614 22788 15368
6614 22228 40355
6614 22717 33769
6614 22499 17573
6614 22065 25056
6614 20607 34019
6614 20429 37675
6614 21459 33901
44291 9027 11224
44291 16417 10629
44291 9338 11541
44291 14272 10818
9743 2838 11508
9743 6455 11009
9743 3730 10771
9743 10839 12238
44291 7389 66895
44291 5484 67758
44291 13603 67121
29346 23400 7034
40164 21680 7034
42253 21249 7034
36029 22757 7034
43660 23364 7034
33754 22987 7034
41694 22179 7034
37622 22671 7034
47420 23402 67044
31389 27611 18715
2199 27611 1966
27982 27611 7098
36739 27611 20469
29590 27611 35981
36993 27611 16621
54069 27611 12911
47709 27611 45584
42941 27611 48781
42130 27611 26197
34528 27611 27042
29283 27611 5454
51620 27611 64611
24228 27611 8847
53951 27611 34607
40758 27611 16823
40937 27611 43367
35896 27611 18280
36148 27611 40915
40915 27611 24896
28503 27611 24563
44674 27611 19421
16868 27611 445
37274 27611 28417
31086 27611 1264
35162 27611 5917
24300 27611 5661
31321 27611 22519
34458 27611 45248
30515 27611 9028
32155 27611 28550
46365 27611 27518
31543 27611 44336
29664 27611 31392
53502 27611 10218
43096 27611 22678
38678 27611 32673
24444 27611 6269
34744 27611 11165
51647 27611 48307
48644 27611 47644
38937 27611 15215
25241 27611 3950
25593 27611 23121
23684 27611 8364
46667 27611 29490
25558 27611 27483
52413 27611 17841
51819 27611 28609
41537 27611 2247
46207 27611 60553
34761 27611 46736
4257 27611 992
33453 27611 3216
17018 27611 22401
47226 27611 38878
37454 27611 38581
47866 27611 4265
42693 27611 1228
44998 27611 10202
34443 27611 43325
48488 27611 39340
41374 27611 7245
50009 27611 72242
48664 27611 45406
11298 27611 9658
45831 27611 326
14917 27611 6847
46212 27611 20629
49585 27611 56613
21650 27611 18366
21845 27611 6223
40334 27611 38187
21898 27611 30349
11458 27611 11112
16711 27611 6460
46058 27611 9455
22438 27611 30926
25861 27611 26583
43221 27611 59748
30383 27611 24073
44604 27611 45324
47547 27611 58983
52849 27611 37729
48356 27611 26131
51336 27611 69917
50952 27611 1968
16801 27611 21750
37245 27611 433
45095 27611 34953
13965 27611 16621
50661 27611 69731
35103 27611 21127
35608 27611 39005
51403 27611 48921
32901 27611 20975
44292 27611 40075
50390 27611 47713
40663 27611 55069
52093 27611 73949
26286 27611 26940
53624 27611 4925
18618 27611 21561
51137 27611 72835
23043 27611 30186
46864 27611 21653
52179 27611 21621
48629 27611 1986
28110 27611 1968
53559 27611 46699
53659 27611 13482
43474 27611 20527
48464 27611 61153
45866 27611 41928
39418 27611 34523
41066 27611 888
28168 27611 29098
47673 27611 42840
51009 27611 64620
43978 27611 33747
31691 27611 9883
47619 27611 26950
54158 27611 21225
53118 27611 52005
38392 27611 7773
17896 27611 5109
37821 27611 23889
31417 27611 181
51545 27611 36039
27223 27611 35942
53576 27611 32784
52845 27611 8976
52275 27611 33224
22617 27611 10899
26668 27611 23379
34712 27611 49562
39885 27611 31889
15479 27611 20965
13713 27611 8213
38114 27611 55443
42507 27611 46415
32228 27611 29107
41710 27611 29546
21967 27611 11664
23947 27611 2624
36705 27611 49135
48172 27611 38419
29736 27611 32014
7438 27611 5349
38017 27611 1900
31127 27611 28274
25753 27611 18836
52015 27611 46872
40777 27611 3302
16232 27611 1998
18695 27611 25357
42528 27611 4449
26485 27611 4157
16180 27611 14289
32076 27611 17664
49260 27611 45227
13573 27611 14477
39165 27611 3663
34611 27611 27757
51845 27611 9684
25120 27611 22520
48100 27611 6982
41336 27611 37542
35149 27611 4353
37857 27611 37700
43072 27611 60794
49482 27611 48964
23274 27611 7140
49748 27611 36775
36707 27611 42189
17133 27611 19380
43316 27611 11219
16077 27611 10819
37764 27611 44240
25322 27611 6
40367 27611 29741
52510 27611 63467
52023 27611 25976
16077 27611 7473
48365 27611 23849
24936 27611 9019
43894 27611 62464
52775 27611 68285
47682 27611 47793
39395 27611 13135
45754 27611 13089
39394 27611 33915
27737 27611 8929
46757 27611 13071
41003 27611 14056
51311 27611 14265
37575 27611 24477
26545 27611 28549
30847 27611 19890
45056 27611 6602
9201 27611 9329
40638 27611 49832
21958 27611 27939
39219 27611 29967
21793 27611 28501
25060 27611 34043
52176 27611 34074
24760 27611 15271
27836 27611 38695
24353 27611 33144
31385 27611 20427
44060 27611 17078
49839 27611 61015
53614 27611 30112
42339 27611 5446
44083 27611 2395
6614 20848 71399
6614 14736 69484
6614 12348 70188
6614 19725 68546
6614 2960 71946
6614 16602 69932
6614 19688 69918
6614 17090 69306
6614 15936 72505
47030 0 68008
9587 0 11779
46006 5528 7034
46190 5061 7034
44707 192 7034
40462 22697 10162
30506 22512 10162
40340 22186 10162
23638 21484 10162
33769 22480 10162
36172 23299 10162
42455 20783 10162
7935 13280 72663
7412 18923 72663
7184 5544 72663
6839 18673 72663
7356 21695 72663
44291 20894 12672
44291 14601 12173
44291 14367 11616
45044 21497 7034
44291 16146 8464
44291 20141 8134
44291 7991 9450
44291 20024 9979
37741 23598 7034
36582 22997 7034
41407 23869 7034
25419 24214 7034
29847 24277 7034
39635 23308 7034
6919 15448 7034
7751 9411 7034
7773 5890 7034
7466 7966 7034
9743 19219 8682
9743 11954 8728
9743 15984 8168
47420 4107 72851
47420 4834 72909
47420 9996 71706
47420 8383 72925
47420 2883 67570
47420 2322 69598
47420 18564 72602
47420 2535 72201
44291 22586 72776
8150 662 66474
6769 750 66474
6679 14597 66474
7902 12161 66474
8437 8774 66474
9511 15350 66474
44291 21923 36918
44291 23604 20640
44291 23158 25684
44291 20535 47721
44291 22132 27465
44291 21850 14292
44291 22731 29509
44291 21093 15910
44291 23474 21990
44291 23874 13778
44291 23251 19563
44291 20560 17977
44291 22577 17367
47420 20725 38895
47420 21538 49777
47420 21352 58146
47420 23447 61857
47420 22502 44843
47420 20715 44759
47420 22178 59756
47420 22751 64303
47420 23452 61019
44291 10202 10276
44291 4958 11846
44291 11326 10297
44291 11899 10719
6614 21992 51269
6614 24386 32653
6614 21646 61289
6614 22844 54223
6614 22427 57236
6614 21019 64310
6614 22891 60850
6614 23636 44467
6614 23177 44314
6614 24361 44637
44291 1146 68514
44291 3973 68273
44291 9559 67516
6614 21445 25481
6614 23124 26822
6614 20320 24445
6614 22350 27411
6614 21439 49417
6614 21503 16299
6614 22995 29891
6614 22016 38628
6614 20328 47407
6614 21113 41990
6614 22384 32115
6614 20828 42467
6614 20458 47877
44291 5490 71397
44291 2952 70271
44291 7737 70695
7699 10144 13223
8742 16772 13223
7833 18151 13223
38264 24483 71958
51691 24483 67596
53862 24483 30882
43754 24483 47596
10798 24483 73058
41997 24483 34201
42763 24483 27960
52196 24483 30827
16702 24483 64009
26979 24483 65624
53493 24483 18979
53487 24483 5473
40871 24483 74201
39392 24483 70683
9153 24483 73957
39619 24483 32218
24893 24483 69135
39900 24483 73940
35313 24483 75373
45705 24483 50222
45399 24483 77362
46370 24483 58113
39254 24483 47578
51812 24483 23375
31746 24483 58264
25520 24483 77691
28436 24483 40523
17789 24483 72536
37394 24483 75764
47010 24483 24409
40621 24483 41284
34660 24483 46748
48245 24483 53624
51931 24483 45314
30521 24483 41906
43325 24483 33139
20192 24483 64270
41272 24483 26596
43436 24483 66987
37479 24483 41936
48628 24483 17123
50174 24483 13301
33790 24483 33391
54278 24483 40996
53354 24483 10104
33006 24483 66277
43172 24483 32277
53810 24483 62762
31666 24483 64455
39255 24483 73483
29155 24483 60533
33867 24483 29926
41362 24483 48142
53764 24483 45061
39877 24483 54079
36056 24483 59000
38144 24483 43272
4451 24483 75763
29376 24483 36846
23988 24483 53273
43104 24483 69075
47764 24483 64944
49767 24483 17935
23725 24483 73663
47657 24483 13522
43435 24483 36689
21841 24483 72016
51176 24483 66864
26015 24483 75523
24848 24483 44345
52932 24483 7809
53051 24483 75982
44483 24483 42030
30949 24483 68377
27501 24483 77946
49627 24483 73639
22010 24483 52466
52597 24483 19559
11548 24483 77096
52164 24483 71017
52180 24483 48606
21998 24483 69904
23026 24483 75665
42927 24483 21387
29500 24483 42129
20802 24483 68740
41925 24483 27810
43168 24483 77269
41323 24483 58004
28199 24483 74972
26161 24483 53216
39320 24483 78385
33779 24483 41506
35290 24483 52811
20950 24483 76700
34071 24483 64836
50137 24483 67395
49646 24483 77830
39666 24483 53312
11763 24483 72228
49037 24483 68694
37754 24483 48914
28906 24483 78817
46517 24483 57487
41139 24483 19712
17674 24483 55485
36435 24483 56671
49700 24483 23237
32729 24483 57975
32630 24483 60232
29899 24483 61864
10340 24483 69552
43225 24483 23343
45244 24483 49886
22485 24483 47065
35578 24483 57234
42988 24483 38515
26152 24483 76042
48568 24483 31511
14981 24483 69494
47856 24483 13041
32675 24483 65085
40741 24483 40097
48679 24483 57015
44209 24483 61996
33024 24483 39826
27502 24483 73102
25833 24483 61601
42335 24483 69313
36092 24483 65350
38627 24483 36408
24243 24483 61791
46812 24483 44843
34383 24483 58471
34171 24483 61404
22539 24483 60232
10868 24483 78821
34965 24483 67920
39538 24483 44689
53224 24483 79067
17329 24483 57899
20581 24483 51544
5714 24483 78573
19878 24483 62290
44562 24483 60681
50959 24483 54673
31256 24483 59135
41554 24483 43407
42600 24483 45814
32223 24483 41389
52772 24483 43726
36199 24483 63776
51732 24483 72771
45963 24483 63298
32342 24483 36070
42902 24483 59456
33754 24483 69584
10119 24483 67106
35232 24483 50289
53072 24483 29879
32271 24483 33523
35952 24483 57890
42438 24483 20681
30240 24483 71939
48469 24483 30728
30250 24483 40863
31779 24483 61961
18957 24483 68872
15192 24483 57952
24244 24483 48401
23235 24483 71350
9688 24483 65698
31297 24483 69272
26674 24483 62129
26382 24483 56796
40175 24483 32867
10371 24483 66747
53002 24483 54390
10664 24483 76113
13230 24483 67649
54296 24483 39978
36958 24483 51246
48180 24483 61943
42412 24483 43880
37376 24483 77978
49906 24483 60973
40327 24483 22957
14035 24483 77298
37307 24483 62813
17001 24483 65066
27779 24483 76378
52323 24483 34597
30964 24483 49890
31731 24483 68417
33958 24483 36611
28490 24483 62632
34527 24483 34081
11604 24483 72908
27599 24483 51208
51331 24483 38526
52753 24483 48422
47665 24483 11998
39799 24483 44189
17233 24483 62186
31304 24483 70488
48084 24483 64465
46263 24483 70348
41567 24483 78598
52724 24483 14318
31324 24483 47549
45660 24483 45996
19874 24483 58197
37090 24483 42285
47961 24483 16193
22967 24483 51609
34124 24483 63074
51042 24483 76794
2453 24483 76697
46499 12831 13563
45882 8122 13563
46944 17912 13563
47080 6601 12943
47080 223 10881
47080 7603 11070
47080 10120 12434
47080 14011 12101
47080 17191 13438
47080 12670 12656
47080 8408 10875
9743 9505 10453
9743 9697 11306
9743 17710 12164
8006 10363 7034
7054 1662 7034
6655 819 7034
8118 1525 7034
45195 8162 73003
45876 16574 73003
45231 19406 73003
46401 21628 73003
6614 658 8311
6614 11343 8476
6614 19527 7324
6614 5113 8859
6614 11988 7091
6614 10538 9644
6614 2498 7854
6614 15242 8248
6614 18177 7943
6614 20596 10950
6614 22753 11286
6614 19430 8952
6614 15501 11386
6614 13427 12846
6614 17399 9885
6614 6294 12184
6614 12801 12867
9743 23489 10574
6614 20064 68968
6614 22530 67444
6614 24311 70644
6614 19422 71883
6614 22656 70749
6614 23630 68255
6614 11386 72142
26962 20267 70657
29972 20267 70576
13574 20267 69860
17305 20267 69989
