ply
format ascii 1.0
element vertex 2768
property float x
property float y
property float z
end_header
21957 17982 30803
25565 58888 60175
29291 58888 59689
31539 12647 43376
28111 51648 33361
23120 54206 31122
20557 54206 27402
28094 54206 36804
22659 54206 32168
20627 54206 37823
22014 54206 39312
24944 54206 38546
19893 54206 33210
19738 54206 27347
26417 20033 37489
18355 58888 57720
30431 58888 57351
18784 10279 44084
35772 1555 14155
30118 14630 24948
23721 56670 3834
28524 56670 3857
37992 56670 4291
18702 58888 55696
10838 58888 55524
21196 56670 63229
24816 56670 63393
28324 56670 63111
28113 37082 32856
21644 56145 39423
25767 56451 39423
25240 14273 33761
32594 56670 55783
28025 15841 38491
35858 223 51768
45161 58888 52069
20821 20432 34757
27054 48075 34093
17185 4836 17146
30405 13806 39905
17918 7494 18383
22731 37164 28939
21565 27667 35206
19107 9922 43534
10439 56670 6908
24514 56670 7311
21786 30799 30902
12614 58888 5000
17908 58888 4921
22761 34988 34341
33575 3218 49690
29070 19473 33606
0 58189 38978
0 57484 20171
0 57962 30174
0 57282 16146
0 58469 39323
0 58313 20171
0 58016 20740
27823 58888 4571
24811 19096 33309
18917 56670 25000
18689 56670 31951
18649 56670 32965
17924 56670 46458
18059 56670 32428
18955 56670 22955
18257 56670 46097
42297 56960 57518
27508 29838 26231
26310 15597 31601
26013 32411 27957
19151 17213 39082
27038 33935 35099
21396 49583 30958
33569 58888 61087
26880 58888 61551
21242 22262 39900
23286 19096 29868
26336 23688 27955
23267 33674 27734
17433 54206 18060
19031 54206 36578
18970 54206 24414
18529 54206 26724
17949 54206 27158
19003 54206 39681
20062 56670 31972
24109 56670 28451
19799 56670 28987
23695 56670 31858
20416 56670 26735
20157 56670 29299
23307 56670 31472
21927 56670 31282
21169 56670 31008
23362 56670 26630
27196 56670 26011
25111 56670 27700
9994 56670 56561
11642 56670 56616
23095 20697 27822
23647 15360 33225
41879 58888 11987
12026 58888 11933
28317 23522 29543
16648 55344 13646
35182 56670 3378
23480 56670 2800
29248 25798 26456
31784 11227 19841
23076 58888 5945
11689 58888 6295
26956 25305 28337
21507 30799 32971
28887 32524 32988
20695 30004 27138
49278 57691 23352
49278 57901 13675
49278 58395 19283
49278 57304 35095
49278 56754 29876
49278 57251 20667
49278 58469 13180
39065 56670 58874
29286 56670 58326
12921 56670 58271
9524 56670 58821
20258 56670 58806
14650 3406 16931
2522 58888 32411
2907 58888 45437
2827 58888 40545
995 58888 46139
2234 58888 49027
1704 58888 44374
2750 58888 29103
3260 58888 32541
662 58888 52442
1461 58888 48420
2802 58888 35329
21646 18111 39213
22916 56670 58798
8279 56670 58538
19187 56670 58798
12291 58888 10649
27974 58888 10899
18173 11803 23161
18670 9331 44277
276 57147 54242
28459 52689 31011
21140 36993 31633
13644 2084 52830
20990 52273 33510
28852 29266 30632
26350 56670 58638
37974 56670 58459
28281 53098 32695
28312 26854 34463
24704 35437 29440
27761 48386 31329
20099 28545 25977
28883 56670 61461
33734 56670 61357
10011 58888 55916
18511 54914 49986
21704 36292 31557
27675 19101 28824
25252 35351 29442
17252 12209 43352
22775 26487 35957
23072 24735 36131
25686 56670 57391
34411 56670 57909
17591 10218 19021
21197 51376 32159
28352 53098 31258
16326 10687 43911
8609 58888 58647
31096 15987 23254
20549 43502 31306
16290 10319 19872
41019 56670 7541
13598 56670 6792
21335 18503 39742
20380 16558 37550
26735 52885 28992
26781 26548 28165
20991 53033 32501
8981 58888 39621
29125 58888 17651
8886 58888 13076
14049 58888 18289
27814 58888 27086
6887 58888 20250
34475 58888 16661
32016 58888 21463
14221 58888 36549
6903 58888 34512
29961 58888 20438
20826 58888 32664
12637 58888 29475
39230 58888 18363
12577 58888 19670
4500 58888 25575
12056 58888 38307
16139 58888 35755
21729 58888 29790
13315 58888 22377
12159 58888 33410
9547 58888 30556
17619 58888 18130
23691 58888 27016
14217 58888 29977
14404 58888 17867
36284 58888 14166
10884 58888 39815
13886 58888 29621
4353 58888 35792
14474 58888 34858
18498 58888 18341
4133 58888 14013
5764 58888 34880
4102 58888 30462
21459 58888 25513
14863 58888 20510
9685 58888 21263
23523 58888 16900
7971 58888 30479
12151 58888 30023
27010 58888 23795
5009 58888 47497
19852 58888 26112
5104 58888 45620
8100 58888 27854
20154 58888 13336
16255 58888 15478
6343 58888 43576
16861 58888 36878
39506 58888 13156
15232 58888 23738
23978 58888 31696
11243 58888 20246
27381 58888 27236
7226 58888 25113
12572 58888 36983
8413 58888 46682
7035 58888 44533
18467 58888 27473
5580 58888 18876
35671 58888 16477
21496 58888 18813
8848 58888 41988
22948 58888 13511
15496 58888 18089
26611 58888 14413
8472 58888 26292
5744 58888 33095
17530 58888 14805
12059 58888 33865
9073 58888 43374
20131 58888 25124
29342 58888 15009
8450 58888 45385
12998 58888 17337
6146 58888 17619
24104 58888 12725
17450 58888 32761
33587 58888 22710
10249 58888 35958
17060 58888 14603
29958 58888 16290
16420 58888 12764
24763 58888 24641
18157 58888 14394
7859 58888 17122
18338 58888 16229
13777 58888 33742
23547 58888 17503
28617 58888 12458
30848 58888 15616
33923 58888 14387
7187 58888 42853
23172 58888 26282
12001 58888 17043
36073 58888 17363
5114 58888 15767
31967 58888 17045
15996 58888 22960
4633 58888 14550
5266 58888 40836
28472 58888 18525
25811 58888 28120
18711 58888 35907
6032 58888 20100
13644 58888 35074
21167 58888 27568
14049 58888 17034
31788 58888 12954
5617 58888 48177
4953 58888 26653
9947 1008 55800
25355 45551 35148
34352 56670 61061
40040 56670 61139
20524 39661 30969
26347 28855 36078
28792 16891 41538
29004 21302 32791
25466 54206 32994
27597 29656 35344
27291 23723 35524
43570 58888 55608
20841 22660 27661
10429 224 53922
19428 24009 38610
4781 58888 52853
20934 44431 32022
27407 42307 28640
32117 55317 13673
24628 30799 36317
23828 30149 27701
21247 30290 34844
20480 42872 33168
27785 45961 31536
28873 21880 37294
26007 19096 34415
17608 58888 37544
29135 58888 19237
35387 58888 21361
10907 58888 24528
27710 58888 19357
24928 58888 22837
22484 58888 14283
34182 58888 15939
4884 58888 44527
38346 58888 17832
40459 58888 15647
12774 58888 28576
9585 58888 22084
13326 58888 39211
29626 58888 19307
5761 58888 47036
33587 58888 21782
24673 58888 28009
8274 58888 31560
18032 58888 20022
3706 58888 18312
7608 58888 18789
19629 58888 22076
3815 58888 17403
17607 58888 12717
5093 58888 35932
5500 58888 17919
10351 58888 28096
33244 58888 17805
6042 58888 28357
4345 58888 17637
17344 58888 22572
12025 58888 16484
20470 58888 18272
11875 58888 17601
15598 58888 14444
19843 58888 30777
13308 58888 21538
13093 58888 37285
18007 58888 19205
11926 58888 41673
15908 58888 33440
20774 58888 22391
8268 58888 43710
34793 58888 20581
4782 58888 37315
20501 58888 21593
21790 58888 28058
12319 58888 31894
5576 58888 30747
22328 58888 33042
15883 58888 12806
12556 58888 22457
29409 58888 27370
25843 58888 17060
6292 58888 46753
17078 58888 30360
9173 58888 16040
35061 58888 15700
39510 58888 15831
7327 58888 27856
4644 58888 40523
8005 58888 13567
17252 58888 34948
6509 58888 14803
4003 58888 31226
15050 58888 33557
28555 58888 25969
11668 58888 21032
31669 58888 15373
19325 58888 28403
4074 58888 26722
6847 58888 23168
13754 58888 16338
17050 58888 21956
9816 58888 34413
21922 58888 24799
5439 58888 38631
5757 58888 35691
10656 58888 30212
38317 58888 14049
8425 58888 21117
30277 58888 19670
31830 58888 13991
10397 58888 27292
24807 58888 26352
4543 58888 18479
7479 58888 14546
12735 58888 24264
18191 58888 24969
4226 58888 41400
9614 58888 41264
14981 58888 24912
23930 58888 14079
16567 58888 32656
14998 58888 39824
15687 58888 14965
9209 58888 15343
18814 58888 16188
7386 58888 19448
5456 58888 54152
10981 57926 0
32831 58522 0
22497 58233 0
17003 58517 0
39643 58888 57488
29579 18135 22626
27862 22106 39953
20234 56670 3802
26138 20801 37014
2105 58023 9480
21415 41017 35101
22964 37776 35040
28264 28508 29484
22383 33830 35329
30183 55276 37126
30183 56065 30942
15784 8119 45922
22567 58888 9236
13060 58888 9039
15219 58888 6101
29387 58888 6130
31672 5837 17822
13537 58888 2447
26081 58888 2363
39666 58888 1903
33107 4129 46923
29600 56670 9706
25622 21853 27713
30291 14602 39711
23962 49402 28732
21688 51796 34528
45204 56670 31190
38326 56670 15292
43000 56670 38098
35054 56670 30190
43021 56670 47107
46552 56670 13316
26702 56670 20012
32924 56670 24452
4644 56670 10225
34050 56670 13684
43931 56670 11835
32854 56670 23143
15346 56670 11790
38151 56670 11889
40632 56670 12713
28050 56670 27056
27842 56670 11316
44530 56670 35664
47392 56670 38473
29416 56670 16120
46058 56670 40512
28763 56670 27560
39926 56670 21612
37735 56670 42245
33347 56670 17494
20599 56670 19828
37203 56670 33789
42712 56670 11327
36444 56670 25844
34019 56670 28191
23022 56670 17728
25946 56670 17761
32428 56670 28991
17790 56670 13435
17657 56670 20281
34958 56670 31750
41932 56670 35139
46186 56670 36774
25751 56670 20125
29328 56670 21615
30519 56670 34855
31058 56670 10012
46642 56670 37283
47228 56670 46731
22191 56670 27424
30451 56670 28945
12989 56670 10171
43322 56670 15670
44093 56670 24814
10835 56670 19441
39812 56670 35248
32684 56670 15962
45770 56670 21196
33322 56670 36627
34966 56670 23983
12681 56670 16086
29174 56670 29235
41709 56670 17570
46881 56670 32624
25266 56670 13599
45144 56670 38807
32324 56670 25809
20090 56670 21271
12546 56670 14803
48661 56670 46827
42081 56670 24927
25508 56670 18787
17995 56670 22446
26180 56670 22378
44992 56670 13733
24485 56670 21760
39788 56670 40261
21820 56670 23649
30632 56670 32372
42058 56670 19068
24608 56670 10629
41891 56670 40048
39833 56670 40839
41170 56670 21795
44023 56670 40238
45011 56670 12168
43448 56670 17024
22836 56670 12221
36065 56670 40499
9456 56670 11382
48399 56670 43835
37187 56670 10171
27746 56670 33396
24475 56670 29153
39661 56670 39790
35854 56670 20339
34472 56670 21195
28677 56670 17774
13693 56670 20978
45587 56670 42756
4694 56670 13923
25502 56670 17847
18987 56670 12766
43437 56670 21495
16759 56670 10686
35285 56670 24486
40038 56670 37488
22572 56670 10000
23438 56670 10857
47398 56670 49098
18337 56670 24708
6639 56670 9941
43545 56670 27154
32895 56670 19524
30146 56670 10089
33723 56670 15318
34014 56670 21451
36059 56670 10877
48769 56670 40728
32803 56670 38180
27684 56670 12780
26477 56670 13129
46192 56670 18423
45225 56670 26581
18899 56670 21052
24394 56670 10169
23718 56670 18550
41099 56670 44227
4289 56670 12844
32039 56670 19434
45022 56670 10622
42688 56670 19046
45490 56670 10265
41733 56670 30102
42424 56670 23881
26362 56670 16201
42029 56670 18235
25464 56670 26810
35397 56670 40118
37156 56670 20014
12000 56670 10880
46519 56670 48191
30832 56670 18974
22614 56670 18767
45499 56670 20152
20588 56670 10855
21908 56670 15424
38980 56670 20821
17281 56670 23409
45847 56670 21905
23236 56670 13556
19142 56670 11372
35587 56670 27201
43715 56670 29991
40252 56670 37866
25011 30799 35085
32424 58888 61539
30648 58888 61545
38961 58888 61029
22362 44124 28830
16345 58888 1921
26159 58888 1451
32033 58888 1529
21582 22718 39321
34532 58888 1309
11688 58888 1592
19408 58888 1645
22619 27404 37556
16631 55902 13130
16631 55023 24420
16631 56603 42514
16631 55202 20476
16631 56565 50101
16631 56361 23527
10398 2074 54112
27189 30261 28471
27280 24050 28523
33473 4507 49517
20325 23226 32923
28469 13667 23369
20440 16199 41265
26448 48958 29401
30183 55314 26150
30183 54668 24853
30183 55120 28874
26605 30799 30013
0 57539 53129
0 57561 45282
0 57047 37052
0 57073 32776
0 57079 49146
0 58058 41263
0 57280 30865
27108 18646 29285
27184 25041 35658
30267 56670 57362
41666 56670 57558
21496 14359 24488
25767 30799 34218
28000 30799 34103
22426 56670 56151
31767 56670 56401
3128 57237 9137
22042 55264 39423
20580 54835 39423
28309 25066 34467
28705 23010 27396
14394 58888 7702
18023 58888 7252
30358 11936 20097
15825 56670 6722
9319 56670 6605
33657 58888 51742
21496 18256 24418
28369 54206 32830
27312 47766 33790
22994 56670 56838
21792 56670 56557
22712 20140 26469
14971 2122 49593
17577 6603 46137
20263 23453 24348
37140 58888 11081
14885 3401 47264
43012 58888 52869
25384 22452 27665
21498 56670 4162
9932 56670 4052
22250 30799 30233
26487 27826 26802
27742 50390 31277
26513 43574 35746
21101 14123 40140
39063 621 56497
25567 34637 35171
26122 30799 32821
27694 50784 32984
18007 10771 19207
23065 19096 32326
25871 50159 35191
10913 58888 6674
28326 26043 36362
27312 30799 32646
26473 58888 11392
25823 58888 57953
26270 58888 57733
25628 19096 31672
41436 58096 58560
28499 52218 32946
18881 8978 21589
20810 22700 36258
17773 7475 45803
22766 41500 36057
21074 25356 35810
26691 35731 33552
31185 58888 12027
16062 56670 6258
16270 56670 6649
25946 51303 35137
23073 30799 31976
27087 43160 35450
21056 21711 34627
32647 55861 31083
32647 56432 51074
32647 55488 44991
32647 55905 27385
32647 55264 40427
32647 55379 36126
32647 55175 48514
43425 56670 54928
24391 56670 54886
27298 57554 0
21936 56746 0
19641 56796 0
27921 57789 0
31984 57520 0
28479 18724 23352
24953 31666 36581
11403 58888 53308
18703 10596 19707
27331 50175 30340
22001 21100 38608
26512 28204 28015
36313 3249 49974
19095 56463 18215
19095 56580 35312
19095 56119 44725
19095 55890 31525
19095 56501 36291
19095 56093 34291
19095 56119 21718
30488 58888 10614
24555 58888 10541
13093 3926 13444
12248 2729 10841
22885 19094 27997
43937 57650 56108
25264 21709 36398
17250 58888 3731
27150 58888 3890
20178 25642 26544
10561 56670 8212
11713 56670 8086
4481 58545 8500
32453 58888 2639
26982 58888 2928
23931 44595 35513
29563 54206 37884
24645 54206 27912
29416 54206 36966
23248 54206 28980
23956 54206 27627
29189 54206 26182
23670 54206 27001
26612 54206 32461
27353 54206 31501
24117 54206 26304
26133 54206 25384
22020 21215 25301
26370 30799 29567
35012 3519 47757
36113 58888 58373
32644 58888 58840
27181 30799 33329
19345 20107 23712
31154 11739 19837
24025 19096 35732
20938 44301 32785
31630 56670 23604
30305 56670 39188
30267 56670 45620
30265 56670 40448
30593 56670 40157
7713 58888 6637
24025 30799 33332
28906 19063 37350
19095 55416 37162
19095 54300 25977
32773 5792 15914
26772 19353 37424
28338 21444 40764
22725 54674 24639
20469 54380 24639
19765 26181 38678
24165 14058 33773
27650 25394 35250
14525 3227 51330
21810 22694 24947
24759 32277 27693
17257 54206 38795
17123 54206 37909
16894 54206 42421
17075 54206 24123
18801 54206 46552
16725 54206 18477
35684 201 10873
10231 0 8116
30432 54206 48684
32129 54206 47431
30979 54206 26014
30266 54206 42687
32085 54206 42817
44152 58888 52050
20574 39296 31376
27864 22380 35574
21894 16781 25089
20744 14626 40747
18409 58888 9884
9555 58888 10140
37127 746 8371
22757 16265 31707
20006 58888 60474
22014 58888 60776
28030 18504 24131
27690 21820 35290
27685 30140 35293
26941 17536 30820
11129 1603 52734
18162 58888 63470
19963 58888 62938
11367 178 56705
28642 32914 34111
16631 55636 23511
16631 56531 34984
16631 55980 34127
16631 55161 28323
16631 55323 15547
16631 54730 16672
16631 56100 37130
21420 28653 28995
19236 14526 24953
21251 32645 35045
30010 9316 21677
16600 58888 2970
16019 58888 2705
3543 58888 10889
27856 17555 26414
27837 47193 32196
23797 46439 35106
4338 58888 52386
30345 56670 7126
37010 56670 6892
29463 23159 24505
20003 15049 21898
24206 23775 27626
24459 58888 11808
18628 14763 21500
21413 56670 55460
10638 56670 55508
15107 3766 50341
41049 58256 59118
28776 30395 33547
29213 25763 25078
28018 23304 28585
21225 25449 24332
21599 30267 28838
28294 24277 34490
38210 56670 2929
16526 56670 2674
19533 56670 2786
20386 20697 33527
25844 56670 62856
38943 56670 63551
30676 56670 63203
21802 20625 35768
15479 3448 49707
21859 49527 30064
30837 9864 19267
30806 18373 40606
21809 49356 30587
35560 58888 9222
23435 58888 9552
36191 4286 14430
27799 23086 35118
33447 7448 17331
0 57576 25960
0 58793 22456
0 58644 45692
0 58141 27006
0 58655 35050
0 58264 22711
0 57339 10743
25378 18368 35309
22316 24432 38073
21678 46565 30864
20360 18106 37024
29166 10959 22162
25800 19096 29972
20980 21531 35968
32179 8377 17611
21285 21550 28410
36643 0 11768
20188 26269 26559
24760 34092 35771
40007 58888 5096
27755 58888 11445
39972 58888 53064
20356 58888 53514
28066 19778 36466
12527 636 54730
19272 21569 24315
22863 48260 34689
23829 51787 28256
8177 57925 5020
36005 1620 49630
49278 58007 52770
49278 58716 17224
49278 58457 38234
49278 58475 28945
49278 57944 49672
49278 57312 51980
49278 58840 45744
12081 1339 12884
43806 58888 8479
47397 58888 35077
46747 58888 45277
45637 58888 13443
45869 58888 32315
46254 58888 43989
45638 58888 31629
46291 58888 35710
47589 58888 39160
46514 58888 29431
45649 58888 44185
34861 58888 62268
19088 58888 61678
35698 58888 62596
28474 26990 36613
27543 20782 24974
20595 23100 30240
29994 18275 39204
39449 57510 206
21356 22794 35329
28103 14884 40364
22085 23693 25412
25280 54206 30383
24453 30799 31176
24990 27959 36453
21477 27645 28734
29009 27736 32719
21499 24503 39463
29011 24424 24617
9425 56670 9061
44586 58888 51897
29161 12456 42167
20509 15723 41147
28016 52851 33635
28908 39824 32250
9839 58035 63942
31212 9688 45663
21351 56670 9570
20102 56670 9054
20359 11076 22654
21135 21706 29347
26623 44285 28793
21744 29211 28696
26887 30247 37500
27007 56670 946
17328 56670 782
17904 56670 505
7147 58888 11920
22633 16651 32582
20340 13668 41436
28058 29170 35905
27316 51147 33818
36933 405 51031
19421 58888 4165
21839 58888 4066
20911 41095 34449
39502 57654 63444
27774 56670 9828
22733 21838 26504
31249 14831 41343
31755 7010 43850
26771 29579 38092
41455 56670 54266
22762 58888 54074
39593 58888 4361
20329 24720 31026
21568 24308 35248
14626 1922 12829
29162 58888 63827
21917 19619 36924
23139 19096 31272
30183 55330 34427
30183 56023 50143
30183 56320 50671
30183 54736 26200
30183 54714 34833
30183 54389 39238
20715 54172 31725
26117 14040 31021
34070 56670 7666
33074 56670 8077
17977 15025 22831
30329 16012 22000
25735 30799 28797
20929 15078 38758
4288 58888 53159
30183 55671 15035
30183 54835 16090
30183 55810 32927
30183 56185 33886
30183 55481 15646
30183 55096 18145
30183 55302 21575
47560 58888 10686
44793 58888 11171
27710 50264 30796
30946 9297 19078
28567 39501 33462
9148 57078 3097
26517 56670 2202
16260 56670 1726
11183 56670 2229
27862 18230 24421
19154 15086 39076
28999 23139 32868
27460 22917 39267
11016 58888 3920
23140 45108 34835
27354 24428 25302
22642 58888 59032
27148 41033 35687
25755 25763 27758
16842 10747 43010
19278 15483 38865
26296 18012 34510
28754 27485 37091
22165 54921 24639
29024 56586 24639
28045 49786 32269
42753 58888 54352
29143 15474 22203
33331 56670 55894
20775 22028 27550
23914 38334 35697
19413 20515 38636
19960 27038 25443
11884 58888 59163
32647 56368 48711
32647 56344 34467
32647 56318 20397
32647 55116 38635
32647 55648 31456
32647 55098 39400
32647 56303 49806
14568 56670 4830
29789 56670 5006
29506 27191 25564
43391 56670 55703
29006 56670 55283
19151 58888 52812
28547 18812 32417
28403 58888 60336
18838 56670 57731
7203 56670 57716
40730 58132 4389
16658 58888 592
11093 58888 1052
22798 30547 37009
32177 7602 16948
21905 50388 30385
8583 56670 55236
21249 39632 34530
40640 58888 5636
16631 54819 29936
16631 55698 43062
16631 55884 41891
16631 55259 35592
16631 54931 34737
16631 55615 40753
20934 53121 33388
37258 774 55967
27463 46240 30532
20258 26232 32584
36715 58888 56755
23633 58888 56215
17718 14501 41520
22153 18893 26639
41362 56670 7856
35826 56670 8115
22147 58888 285
15023 58888 422
12359 58888 904
26143 42121 36166
28105 17992 40367
28310 15108 38792
20540 58888 52883
27511 19031 26919
26010 30799 36197
31446 14199 22647
21200 31965 35015
25550 14717 33564
43174 58888 56060
6612 56746 57141
47288 58888 47517
47755 58888 42817
45749 58888 24536
46452 58888 22833
45652 58888 17101
45855 58888 51100
47884 58888 46781
46909 58888 40658
47185 58888 33203
39991 58023 61323
29193 20110 33292
16270 56670 60757
11267 56670 60820
14614 56670 61469
26105 54045 28379
18856 8979 19965
22749 24883 28052
31492 9512 41758
25129 19096 35076
20522 26452 36749
30175 56670 627
35410 56670 277
28524 56670 214
20737 23844 34079
25491 27850 36353
32601 8916 20648
22022 29925 28532
26524 31448 36171
19747 58888 55378
34408 58888 55668
12834 56670 54526
20717 13147 39952
32965 8183 20017
13447 58888 11402
9219 58888 11505
19768 58888 51980
9751 58888 52579
26369 45394 34696
22731 56670 1425
33740 56670 1547
21143 15598 38552
21435 44484 33788
12096 56670 63820
14517 56670 63771
22558 56670 63425
26748 30240 26469
23879 33731 27549
29269 20057 31230
20212 25642 32229
11847 58888 51956
31257 8661 42316
30529 18697 40116
28058 21954 35904
36078 1002 13269
30385 58888 12092
26707 54206 34050
26476 48534 34622
34520 4213 13044
27697 24846 35289
28806 33756 30656
18028 10023 45369
27217 41369 28413
23112 52851 28505
13707 4590 14405
27601 34625 33452
16729 58888 51812
7999 56670 54299
16388 8103 20150
28691 40718 33758
18986 58888 62223
16861 12147 42979
16417 9455 44989
30861 16372 41557
20790 29099 27576
26122 47639 29220
45191 56670 8909
37942 56670 8354
32647 55572 25137
32647 54337 27190
32647 55106 18370
32647 55099 22498
32647 55880 15083
32647 54805 25247
27340 54206 30712
29692 54206 34857
27498 54206 26996
26939 54206 28224
25144 54206 32184
21660 54206 25715
21093 54206 26220
28061 54206 33413
27350 54206 35306
29091 54206 28060
28727 54206 24715
27061 45700 34085
30515 58888 53646
25446 58888 53735
21585 36824 33514
28256 16749 23739
25114 15317 33438
23874 48358 28932
19915 20510 32001
32797 6690 20308
26113 34683 29153
21250 23822 39886
24606 14845 33765
21636 58888 10916
28905 24404 39509
27230 54206 36671
20299 54206 39035
21330 54206 29064
24571 54206 34356
22088 54206 33950
20484 54206 33254
26030 54206 38334
20376 54206 26676
24380 54206 32801
28117 38789 33910
20393 28299 26906
24881 23926 36461
27846 26581 29007
46070 58888 54121
12659 1573 50129
35763 56670 60191
37906 56670 59845
33281 56670 59642
23651 47823 35077
4874 58888 54653
26553 51358 29183
15921 56670 1203
15827 56670 452
10649 56670 597
30103 12354 39658
14048 58888 52940
30487 8519 19875
22968 29095 26900
18194 16793 23197
22525 18067 29829
19523 23111 39363
29910 19352 23360
44506 58888 8532
39198 58888 55663
20272 27634 32659
19692 22614 24423
12771 214 12682
22001 56670 25360
25722 56670 24706
25509 56670 28665
19378 56670 31970
21944 56670 30710
20607 56670 25288
20238 56670 34586
27518 56670 27277
25846 56670 25681
23963 56670 28025
18938 17421 24451
23599 30799 32927
23299 58888 12085
22247 28199 28398
36391 4093 14083
31805 7925 46674
24333 19798 27345
28512 30799 30850
15809 56670 60050
13471 56670 59733
27860 56670 60307
20711 21130 36427
10940 56670 63635
16165 56670 63902
23834 56670 63854
25158 37582 28769
33057 58888 57348
30619 58888 58073
10657 58888 5220
25785 19608 36621
24696 58888 631
33287 58888 1113
36781 537 55154
30766 14273 40520
29823 19078 25460
14342 58888 60152
18476 58888 59448
25640 33405 36445
29141 29101 26352
29379 12607 24160
14391 2312 15164
18172 56670 5350
19273 56670 5367
14151 2503 48405
16182 8608 18389
26112 27889 36216
29069 24007 26765
32273 56670 24950
31373 56670 43433
32033 56670 22820
31952 56670 30856
32432 56670 18176
32340 56670 48359
23364 17775 29556
20636 20034 27316
36406 58888 56028
28483 44104 33369
21357 28382 35327
21628 58888 8036
18519 58888 8212
23956 34583 28765
20577 32417 30602
22177 17342 31946
13219 2788 10459
42547 58888 51734
26122 51664 28600
21416 56670 60753
11621 56670 60425
24192 56670 60627
28988 55900 24639
21483 54487 24639
29287 26465 37999
39458 56670 62490
26753 56670 61784
24654 56670 62092
25012 54206 29732
31081 8373 21330
25829 58888 10526
29775 12053 23959
20040 10658 22494
13849 731 11520
31180 56670 6381
22608 56670 5932
39029 469 9514
20768 27958 34140
25362 47470 28935
21050 37286 32135
29845 18514 22956
17918 56670 23012
17554 56670 14849
17037 56670 41863
17239 56670 26998
17793 56670 15314
17221 56670 12535
17359 56670 27969
21524 22214 39420
22191 43592 35383
21359 24982 35324
5180 57591 55996
28551 20697 34303
23032 52307 28439
17558 6757 19898
30288 56670 56306
11551 56670 55984
27470 25282 25100
40254 58800 3422
22370 33011 28128
36366 1702 50065
22022 18606 25304
9522 58888 56681
26579 56670 54276
24314 34186 28381
22810 27292 35977
23803 36691 35197
19095 54326 23309
19095 54244 41255
19095 55808 15788
19095 54844 25652
19095 54561 26695
19095 54456 27149
20891 53098 30960
24534 16059 30192
26887 20793 27929
21740 58888 59478
30863 58888 59532
22403 22858 35834
34822 5130 16801
29856 58888 52098
25644 30799 35640
37040 58888 8716
38709 58888 8727
18981 14276 20996
26202 22834 36172
6306 57774 7193
13263 58888 43139
39727 58888 25716
33638 58888 41480
40146 58888 39763
23166 58888 45106
31814 58888 39192
18234 58888 50541
43732 58888 41186
41382 58888 48156
41370 58888 34503
36181 58888 22792
22510 58888 36487
38109 58888 41839
42665 58888 47237
41883 58888 34456
41329 58888 35389
45274 58888 38733
37128 58888 51159
29773 58888 45207
34803 58888 45910
33650 58888 39598
30156 58888 31673
38398 58888 32415
36689 58888 38060
28638 58888 42012
40451 58888 34585
33152 58888 51623
44207 58888 39315
21978 58888 35942
26690 58888 41393
41169 58888 51270
19585 58888 51588
38934 58888 49989
22896 58888 46217
41055 58888 30443
45473 58888 48120
20915 58888 41973
43423 58888 29067
44798 58888 22696
31593 58888 50424
29086 58888 33702
43643 58888 17167
28492 58888 34082
37782 58888 38472
29509 58888 46335
20516 58888 36822
38060 58888 50026
17000 58888 39371
10498 58888 47752
30786 58888 37195
25034 58888 42253
43699 58888 35134
17485 58888 47706
25507 58888 44175
38633 58888 37886
35055 58888 40569
37405 58888 27871
31006 58888 45912
38149 58888 39915
24583 58888 46961
35439 58888 24999
35127 58888 49327
25805 58888 36472
35872 58888 24840
37684 58888 37074
43058 58888 26356
19065 58888 49525
27421 58888 39512
25016 58888 50091
25968 58888 40868
14692 58888 51578
44411 58888 37191
37101 58888 40650
26880 58888 39475
16716 58888 49572
18604 58888 46660
36006 58888 25539
14396 58888 46638
42667 58888 28104
35229 58888 33755
17072 58888 41672
40375 58888 24637
37482 58888 47803
41164 58888 49080
32217 58888 47124
42201 58888 20347
33447 58888 27109
17985 58888 44301
25044 58888 50590
41552 58888 36746
24962 58888 39427
38416 58888 24130
23176 58888 48871
31687 58888 31610
32869 58888 30011
37927 58888 21933
26990 58888 35763
44776 58888 17890
38117 58888 28484
22905 58888 43070
36120 58888 24069
44811 58888 38726
17294 58888 49009
24755 58888 41541
35516 58888 26151
38242 58888 41142
38281 58888 26359
40530 58888 27901
26744 58888 43414
30787 58888 28229
29721 58888 37640
38800 58888 26284
37360 58888 29698
20995 17868 23572
45418 57216 55234
28458 22420 40381
32548 58888 9128
24923 58888 56595
21449 58888 56378
9981 58888 4569
16833 58888 5011
23513 58888 5114
33585 6530 16272
18382 56670 22199
17104 56670 34005
17742 56670 29799
18528 56670 13933
17099 56670 37559
17208 56670 33192
21960 27719 28568
22756 22725 28096
19922 13565 39179
32647 54843 32039
32647 54298 21931
32647 54494 18702
32647 55975 17360
32647 55869 18210
17831 58888 8249
19466 58888 8543
27800 15560 39847
23361 28640 36249
26982 18867 38453
23324 35727 34207
21005 51831 30614
40236 58888 55790
10354 58888 56343
18578 19022 40057
16631 54418 25821
16631 54619 47377
16631 54851 45452
16631 54213 17807
16631 54307 19120
16631 55997 47445
20621 29159 33843
26360 17909 29716
28378 19501 34866
30895 9345 22215
21534 29716 35171
38918 58888 422
28972 12125 22498
34144 56670 8454
21433 56670 8389
24449 43652 36191
21316 28198 25053
23183 53365 28371
29361 15417 21824
31879 6893 20138
26471 30799 35534
6344 58888 10111
7685 56670 54872
6916 56670 55006
32095 54206 31358
32181 54206 16588
31983 54206 28726
32506 54206 36909
32605 54206 15444
31093 54206 16856
26544 30757 36177
31171 54206 39775
31069 54206 48047
31428 54206 33615
31690 54206 47260
30454 54206 26071
36472 56670 55394
29408 22691 26179
6428 58774 7084
31537 10012 18759
20037 19895 31088
49278 58059 11976
49278 57407 25077
49278 57054 17047
49278 56776 22412
49278 58504 13766
49278 57232 23061
49278 57004 13973
9703 1182 8646
23436 31428 27610
16616 5020 16186
31054 6769 45394
22353 49030 29817
31991 58888 62529
24965 58888 62491
21703 45735 33251
13884 56670 9247
5941 56670 9048
34815 1591 13674
20371 20640 30083
10701 0 10529
20913 19148 34391
39066 0 8673
30836 55996 12994
24985 34188 28360
41155 58888 9754
17880 54206 31607
17285 54206 15335
18897 54206 30611
17662 54206 19688
22026 29721 38102
8621 58888 59465
10191 0 54959
35755 58888 54522
37801 58888 55150
17909 10812 22716
25427 30110 27668
21011 30799 31293
25609 54206 35290
42590 58097 57208
13539 4083 50542
28015 37702 31813
29910 16342 21932
31538 6449 18054
24306 14907 30371
26624 21644 37842
23582 43668 36077
20961 30215 27864
21271 36821 32187
23036 54206 34758
14972 5821 48331
21871 38719 29236
35939 1282 10431
19770 56670 42209
5448 56670 22237
45469 56670 51070
1840 56670 47057
16032 56670 51564
25462 56670 34902
1631 56670 48986
43135 56670 49635
4254 56670 42323
5015 56670 32770
3474 56670 26111
16008 56670 52020
5991 56670 53226
38873 56670 52857
10783 56670 39545
47016 56670 52541
21414 56670 39500
12818 56670 31693
13589 56670 34830
18520 56670 41504
5507 56670 49760
8929 56670 45929
24159 56670 54164
139 56670 32110
18788 56670 45427
13024 56670 26954
26504 56670 46454
33476 56670 52969
3864 56670 23757
8307 56670 22303
8224 56670 47502
1403 56670 36290
40586 56670 50349
12084 56670 38239
16157 56670 35879
35719 56670 50021
20315 56670 47010
39145 56670 47535
2219 56670 33223
1650 56670 27451
31994 56670 43637
9123 56670 33973
356 56670 39102
10163 56670 47395
23438 56670 43045
20918 56670 50343
23243 56670 51465
26998 56670 49992
6974 56670 41617
22242 56670 34595
29841 56670 37231
34204 56670 48045
8856 56670 44319
12722 56670 43956
1888 56670 43026
18158 56670 28760
28809 56670 47540
16812 56670 46569
34244 56670 53183
30928 56670 44030
41375 56670 53150
30031 56670 49443
4286 56670 50889
10619 56670 34195
6961 56670 43430
17336 56670 39853
10579 56670 32608
3423 56670 35869
8651 56670 37971
19406 56670 41389
93 56670 50544
26693 56670 37187
19266 56670 49000
12660 56670 45937
7731 56670 37553
38881 56670 53941
13291 56670 37802
4851 56670 14470
25901 56670 48446
17334 56670 43905
1550 56670 45007
36916 56670 49243
37598 56670 53510
41680 56670 52439
1614 56670 51634
20279 56670 53850
45099 56670 51319
7621 56670 22835
5181 56670 22665
3954 56670 37773
4273 56670 38841
20473 56670 48032
7548 56670 46709
27093 56670 52908
29255 56670 52046
755 56670 33925
29686 56670 43721
9400 56670 19615
45532 56670 53285
2224 56670 48435
9764 56670 22507
3697 56670 15968
4251 56670 31817
14598 56670 31170
1652 56670 25149
2499 56670 48770
14446 56670 23235
17442 56670 52271
23763 56670 38509
913 56670 30099
8726 56670 19056
11131 56670 27462
35935 56670 50741
664 56670 54075
36642 56670 49875
23531 56670 45797
35137 56670 46970
16935 56670 49697
16336 56670 52773
9052 56670 20767
2779 56670 43179
15314 56670 41370
4695 56670 49743
22215 56670 54095
2174 56670 12255
5307 56670 28101
9300 56670 32660
9518 56670 51241
9659 56670 31691
10713 56670 30576
13490 56670 32365
35266 56670 49850
4873 56670 50160
11522 56670 50258
20305 56670 35429
16275 56670 53370
2578 56670 14627
4542 56670 18307
11654 56670 37096
330 56670 30561
24737 56670 48940
13078 56670 38847
16836 56670 53054
17099 56670 53993
26517 21954 28083
27136 21864 28440
24155 33444 36544
5078 56670 8420
33196 56670 8823
21091 43193 29765
26756 36938 34785
21564 19096 29493
20220 23356 32099
19884 18047 41557
26612 19313 28092
30848 12728 23684
30018 58888 58200
14623 58888 59116
23903 50311 35125
25378 19096 34026
35585 1260 50600
31840 58888 5443
35471 58888 5611
23247 15011 31178
18277 56670 40735
18014 56670 40052
18741 56670 26605
17597 56670 44530
42203 58022 6439
29101 32137 33025
8259 56670 7280
36382 56670 7518
12889 2422 9901
31103 12513 23243
21345 28728 28512
27073 56670 54478
23075 28647 27081
34359 58888 3854
21106 58888 4535
40199 58888 8553
22633 41880 28075
34367 56670 6536
32495 56670 5911
31525 13153 41814
49146 58888 27472
47212 58888 19086
48558 58888 33382
49267 58888 19702
46871 58888 21526
45953 58888 13886
46640 58888 15553
48657 58888 44548
49146 58888 38651
49085 58888 21385
47813 58888 17127
21945 35033 33242
30904 58888 63779
23077 58888 63721
37185 58888 62927
24735 52175 35994
16126 4143 46846
34481 5236 49182
19863 27906 26011
16637 8511 18022
21756 18884 39026
23034 44024 35857
29333 20766 40462
30082 11460 43736
33010 7978 17666
21087 58888 53771
27573 20127 27511
28317 44104 30089
21439 56670 59479
31366 56670 59611
20650 30947 29772
23143 43435 35903
20102 16391 41840
28493 33756 33271
23979 52214 28152
18036 16310 41335
27482 56670 3451
15373 56670 3087
22313 42204 35776
17040 56032 51104
27326 19224 35512
20612 15139 40971
37306 58888 5039
23781 58888 5659
14881 3772 13259
26229 47584 34792
27759 41970 35199
22834 30799 36143
33479 58888 54116
35875 58888 54039
29664 22695 39579
30880 58888 8247
23544 58888 8825
17984 12458 41068
30183 54916 38208
30183 55252 32239
30183 54759 36836
30183 54530 31623
30183 54622 32892
36863 1271 13266
21723 36380 32874
23149 27051 27854
40215 57080 60741
23038 58888 61983
37655 58888 61771
39363 58888 62719
27837 45352 32174
19827 14756 25732
38853 58888 3347
19877 58888 3615
23857 58888 56911
35375 3044 52757
25712 36585 29001
20441 20697 30587
18548 10814 40540
16207 58888 56615
29585 58888 56831
27532 18353 33727
28464 28671 34236
25843 54206 29289
27831 26988 28842
22422 35630 33134
17976 8566 21685
21029 25801 29505
20746 52679 31420
32258 5894 47446
29088 15553 42042
22149 43163 35417
21452 52851 29966
21826 39699 35202
3110 56670 9666
27195 29179 38773
13223 56670 62280
14302 56670 62596
31100 56670 62551
15289 5720 48675
28856 25984 33311
26039 41971 27835
36924 0 9969
26348 19096 32534
28758 27647 33600
22154 41442 35718
14873 3238 16504
28864 56670 4386
8764 56670 4648
23807 37255 35552
27339 20780 39061
28929 33138 33519
9218 58888 58040
22430 30033 35853
19019 8890 43684
28276 25859 24558
1950 58888 10829
5871 58888 11051
11829 1573 12461
15266 5702 45693
15275 3516 13924
40665 58195 59795
15533 6263 18708
20546 24630 24521
20535 39325 32462
32108 8392 42808
29611 12541 21392
26252 58888 7607
25310 58888 7795
38528 58888 59968
28412 52683 33178
24399 43240 27845
9611 58888 9025
17232 8721 46161
17091 56670 54826
25890 36251 34716
0 57016 38119
0 58365 47807
0 56686 13127
0 56739 34325
0 56709 46931
20810 19564 34742
4007 58888 53658
32146 11510 42873
37009 2496 10062
26381 25522 26986
27534 39997 35226
29341 17693 26295
19095 54607 33462
19095 55174 27094
19095 55431 20417
19095 56261 14571
19095 55721 25123
20339 11103 41437
27085 17921 37908
37520 58888 12391
28242 58888 10172
21928 58888 10182
27644 49402 30583
20565 58888 55969
10316 1425 54115
19095 55258 33429
17874 56394 51466
28611 22465 30125
35218 1975 14671
25283 19096 28094
21187 27460 35616
9083 57899 60794
19018 9587 20238
15475 5325 14630
23846 41110 36395
27941 19096 32022
22345 30899 28067
24060 27261 36408
37440 58740 0
14566 58340 0
19860 57957 0
10904 58476 0
16583 57689 0
8691 56670 57485
20759 56670 58006
33134 3178 48939
24256 51135 35199
9926 536 54780
38191 0 54303
27123 17082 25732
22541 56670 5162
39541 56670 5755
25853 13934 33312
25218 29142 36407
13060 575 10187
29401 19927 26191
11747 1977 55132
30137 56670 60226
15316 56670 60234
317 58888 20341
1824 58888 21077
1574 58888 36103
340 58888 45795
481 58888 15447
524 58888 22639
515 58888 14669
2344 58888 18626
1757 58888 16215
834 58888 28536
1534 58888 32886
117 58888 21774
22269 58888 11613
28034 31338 35086
23813 30799 32101
12233 0 11405
27818 44706 33378
17369 9578 21805
21873 26251 35481
15969 56670 57058
20646 56670 57140
29688 56670 1358
38406 56670 1575
19095 55280 46550
19095 56380 48439
19095 56072 40159
19095 55942 49954
19095 55675 40424
19095 55099 45529
19095 54981 47502
8709 58888 53806
36405 58888 52198
2572 58888 9952
27819 50936 31952
27943 21286 28716
22440 25366 26010
22144 28906 38365
20795 27125 34195
20246 32277 31158
28729 43605 31308
23388 25727 27609
24112 52672 28130
28343 56670 28444
29985 56670 35558
27273 56670 29934
29155 56670 35103
29161 56670 32480
26458 56670 32925
21110 56670 36853
29090 56670 38965
30753 7972 44880
21334 58888 7405
18548 58888 7504
27962 44646 30901
25716 56670 5419
24444 56670 5392
32046 9924 21609
17378 6053 44888
29082 58888 63201
31276 58888 62899
26071 58888 63119
25969 45274 34928
21129 56020 24639
29493 22047 26031
19075 15655 24682
24148 48747 28885
19168 19287 23468
20668 30799 33368
12954 2045 49626
29756 14693 43139
8115 58888 55324
23924 57618 64062
22444 57123 64062
25939 57406 64062
15717 57345 64062
13054 58083 64062
29753 17204 25580
27145 19096 34619
28974 30354 31247
30183 54850 17109
30183 56263 40020
30183 56055 35496
30183 55366 19036
30183 56655 47641
30183 55972 13125
30183 56605 22868
21148 23061 28179
24983 15593 30353
37376 152 51787
14095 3726 51640
25899 30799 32240
26351 14392 32692
22063 24802 28431
26995 19628 36123
35584 57587 0
33073 57355 0
17935 56936 0
37728 57106 0
30557 19097 24188
23380 56670 61649
30912 56670 61884
30183 54291 29105
6874 56670 15976
47878 56670 34933
38445 56670 18042
33368 56670 18745
27982 56670 16924
31462 56670 19728
35506 56670 26040
28516 56670 32713
20879 56670 20672
23829 56670 15904
35409 56670 12556
27625 56670 31347
48960 56670 35485
44794 56670 19156
25548 56670 17357
24190 56670 10930
47475 56670 44661
45285 56670 11710
32269 56670 33978
41373 56670 33187
28259 56670 29243
37483 56670 28434
44149 56670 41257
46116 56670 11870
25457 56670 31734
11975 56670 12532
28695 56670 15058
16404 56670 21350
45473 56670 17706
39664 56670 10747
32356 56670 24454
20866 56670 23506
30040 56670 12741
39765 56670 44489
42694 56670 40863
38022 56670 19461
38263 56670 34317
45969 56670 16346
28553 56670 29947
38946 56670 16476
42630 56670 40302
25784 56670 23742
47714 56670 29778
20643 56670 22658
31180 56670 30199
12220 56670 10507
36621 56670 28552
24734 56670 19420
48570 56670 21144
48891 56670 31122
3465 56670 11412
40701 56670 33895
34100 56670 37647
33078 56670 20389
41833 56670 12199
39274 56670 36190
33109 56670 33902
20016 56670 16416
44369 56670 26008
13922 56670 12818
36542 56670 36770
4342 56670 12120
16291 56670 24486
14041 56670 18338
33036 56670 15093
44314 56670 12218
24618 56670 29877
19187 56670 14996
45203 56670 46304
13026 56670 15818
27250 56670 33609
44590 56670 46262
44563 56670 14827
24862 56670 13450
10494 56670 14388
7736 56670 13126
25339 56670 32596
11866 56670 18112
23116 56670 27638
27617 56670 26569
30085 56670 14686
18450 56670 12682
38856 56670 40344
46987 56670 14901
29932 56670 31621
29788 56670 20697
40656 56670 25642
36950 56670 15406
45283 56670 40002
47836 56670 24466
26708 56670 17232
11484 56670 18343
30609 56670 17815
40945 56670 14166
29326 56670 11637
46525 56670 9902
48683 56670 33608
7914 56670 11038
46971 56670 41420
41196 56670 19947
21413 56670 14727
5773 56670 11731
30923 56670 19760
27666 56670 17753
33472 56670 24235
27174 56670 11469
43326 56670 34119
33322 56670 14534
38735 56670 13474
47874 56670 48198
39343 56670 13781
24074 56670 21969
27709 56670 15914
23191 56670 11788
22389 56670 18252
15825 56670 23651
33876 56670 10749
44644 56670 15742
20457 56670 17971
23229 56670 30022
14455 56670 10686
41078 56670 40816
34856 56670 16016
37598 56670 13220
28081 56670 30428
32113 56670 12914
25794 56670 15204
34019 56670 17571
19513 56670 12120
19580 56670 10721
48443 56670 51907
38931 56670 15017
39391 56670 27749
41764 56670 37918
35997 56670 23438
16259 56670 10347
31329 56670 22197
46413 56670 23048
48436 56670 49797
31763 56670 15305
20081 56670 15693
10863 56670 56491
31596 10912 22388
29749 14844 25587
26086 26221 36926
21753 15356 24852
12513 58888 9889
15839 5272 49094
13649 56670 1530
23510 56670 2065
22305 56670 1882
11704 0 8286
39983 58888 6899
27718 14883 24670
31153 16590 41180
10058 58888 7436
35741 2765 15209
30535 20289 24227
30125 9628 42024
25172 52851 35891
22194 21541 25596
12 58888 18009
1904 58888 12442
455 58888 24696
1300 58888 23047
344 58888 34012
960 58888 39526
1004 58888 22157
385 58888 22141
3102 58888 16095
407 58888 33089
24363 30799 31946
20352 13238 39672
35000 1889 52118
22903 27201 26791
24360 39455 27867
28973 40510 31377
11448 57013 64062
11411 58395 64062
25264 56761 64062
13794 58568 64062
29843 57287 64062
34882 58888 53209
40545 58888 53447
7434 58888 11250
30206 10515 20362
31497 54206 29977
31746 54206 27633
31707 54206 18339
31507 54206 16105
31383 54206 26552
31360 54206 25009
28425 54933 39423
27711 55570 39423
20713 23985 29978
28803 17797 22791
24852 30799 35780
27377 31303 28400
29356 21807 23995
27017 26760 38512
19095 54889 28283
19095 55390 30953
32842 5217 18556
34469 5635 17412
16235 5977 19732
25318 49402 35219
27789 36576 32533
19802 58888 10343
13868 58888 10330
27605 44932 30557
20239 56670 3213
38105 56670 3585
19332 16705 38773
26741 20738 26363
10577 1158 53672
49278 57695 39242
49278 58807 36589
49278 58007 32255
49278 57444 44140
49278 58809 50370
49278 57798 37576
19090 20688 24707
28851 40095 33101
22310 28656 35683
17296 58888 58363
18999 58888 58953
9966 58888 6135
17644 8160 21447
16732 8719 45870
37107 56670 55071
22784 19096 30567
15499 4281 17782
28594 26494 27588
19533 56295 39423
24299 55449 39423
21583 34781 31265
40892 58888 55973
18421 6891 44700
23606 40300 27776
22088 39071 28898
22991 29954 27932
26734 56670 9522
27648 50716 31013
28114 14550 23985
36447 3401 51690
21070 34144 31048
13830 5458 48138
29227 58888 7668
33381 58888 7161
45367 58888 52786
33253 6254 19518
39604 0 56021
28873 13698 22670
28952 11989 23430
23037 30778 27822
22522 30799 29250
28119 56670 31934
26277 56670 35603
27998 56670 34168
28128 56670 39390
26549 56670 39345
22499 56670 38046
27199 56670 32846
26437 56670 38783
29973 56670 27439
27901 56670 38979
4742 56670 50938
6401 56670 16921
38934 56670 51974
13233 56670 31989
2879 56670 38634
5880 56670 18984
20524 56670 41817
11170 56670 31570
25813 56670 53219
33514 56670 54186
4783 56670 46668
32838 56670 54027
21116 56670 32503
8268 56670 35577
1175 56670 13980
19630 56670 32605
35652 56670 41983
13818 56670 42331
10836 56670 25359
9761 56670 45637
24733 56670 49386
16819 56670 28360
23241 56670 53139
19028 56670 29947
25704 56670 37113
8559 56670 48742
18353 56670 48689
41119 56670 49967
10236 56670 51863
7389 56670 45942
27015 56670 35372
28552 56670 45179
4489 56670 30537
23426 56670 37219
18259 56670 35511
5002 56670 30462
1572 56670 43562
8401 56670 33498
20178 56670 51483
12291 56670 52118
32514 56670 41500
7515 56670 34146
19406 56670 27486
23412 56670 43678
23063 56670 53986
659 56670 10727
13714 56670 35308
2358 56670 53201
8881 56670 29180
35562 56670 47068
48221 56670 53570
29281 56670 54080
13759 56670 43812
4294 56670 28172
10453 56670 35688
33595 56670 47947
5714 56670 16489
18702 56670 33997
2722 56670 45699
12671 56670 38132
21180 56670 43430
415 56670 37780
12234 56670 24910
7018 56670 40935
34547 56670 51258
4808 56670 23728
14073 56670 41631
5136 56670 43329
30677 56670 38456
7267 56670 31969
5579 56670 48531
20384 56670 53060
4292 56670 35290
13914 56670 28941
6548 56670 49642
20929 56670 47256
7978 56670 18713
34339 56670 41404
17512 56670 33710
4310 56670 17923
8563 56670 38689
7212 56670 21191
528 56670 27950
10921 56670 52677
15635 56670 41000
12351 56670 22288
5345 56670 21645
31602 56670 48160
43034 56670 52109
17853 56670 39573
27888 56670 37207
20864 56670 41182
9556 56670 49867
25127 56670 47519
6922 56670 54076
5597 56670 24316
17466 56670 37979
5299 56670 41114
5701 56670 27358
30240 56670 46211
34468 56670 47198
31463 56670 53078
20282 56670 30607
29233 56670 40219
7813 56670 41535
23238 56670 34804
7597 56670 35863
8304 56670 27574
32835 56670 48003
39069 56670 48262
13217 56670 45812
677 56670 50844
36945 56670 47087
1934 56670 12979
10629 56670 42642
499 56670 42261
2850 56670 20966
7730 56670 26898
27077 56670 37542
25273 56670 46876
2994 56670 52112
130 56670 35511
8013 56670 33066
13311 56670 45028
2762 56670 23677
38060 56670 53171
1697 56670 24418
1247 56670 34701
23838 56670 43611
8886 56670 32376
3708 56670 19677
4125 58888 51835
20127 27540 25474
11689 56670 8746
11881 2125 9189
11839 58888 61343
27710 19096 34062
25986 43212 36008
16401 10722 20172
27608 54206 32948
19095 56461 31423
19095 55404 24697
23583 29925 36324
22930 32277 27916
46513 58888 16602
46578 58888 21949
49230 58888 48726
46382 58888 17608
49014 58888 26457
48737 58888 31465
49237 58888 51532
48596 58888 46342
47395 58888 25986
46736 58888 14295
49158 58888 23728
21642 27014 24664
21912 16835 38760
20055 21660 26336
32833 58888 6419
34436 58888 6282
21783 24638 38979
12879 1048 54130
25137 54206 28423
17544 54206 39417
17079 54206 35446
17261 54206 34854
16662 54206 24301
17733 54206 40544
17661 54206 30939
27286 49445 34151
21044 44490 31604
28812 23331 33440
20126 25670 25041
10919 58888 54392
21043 58888 54411
31287 56670 16697
30214 56670 30824
30211 56670 51105
30720 56670 37559
30203 56670 41272
17458 12124 41963
19179 58888 53349
15971 58888 53124
29171 11597 42184
28172 25792 39582
20722 20243 23112
31613 56371 51443
3334 56670 54547
23641 30799 34976
25647 19096 30590
24598 56670 8234
15019 56670 7898
26173 52401 35656
22909 52109 35584
21923 42502 35424
32176 56670 31543
32315 56670 33435
31854 56670 35843
31238 56670 38708
30533 56670 50537
31830 56670 32428
32205 4490 46896
32203 12730 21117
21474 27561 39358
22194 30799 29641
44268 58888 32028
34926 58888 32863
41083 58888 39443
37973 58888 32748
40555 58888 26246
42473 58888 40997
33810 58888 36959
40764 58888 49573
34989 58888 31913
41953 58888 45963
39354 58888 31251
8304 58888 48070
21738 58888 48830
14790 58888 50679
7379 58888 48901
37329 58888 44993
28719 58888 31482
10024 58888 45751
43956 58888 24320
25477 58888 45063
39990 58888 20638
27964 58888 44833
43758 58888 32716
16552 58888 47517
43687 58888 32061
30328 58888 38135
27569 58888 41428
30305 58888 28134
23772 58888 48524
39187 58888 19015
41647 58888 22447
36875 58888 26791
28756 58888 46011
33401 58888 37130
42404 58888 38413
32898 58888 28990
37645 58888 47340
6337 58888 49886
24177 58888 33088
41869 58888 50003
12434 58888 46155
32649 58888 50801
17391 58888 39826
31295 58888 29636
36679 58888 49910
19265 58888 46015
23417 58888 37261
21930 58888 35034
37098 58888 36753
19111 58888 42029
33052 58888 45113
26684 58888 45995
38599 58888 47762
44676 58888 16112
25982 58888 34829
16387 58888 51293
32734 58888 36957
45444 58888 25925
22611 58888 47152
16430 58888 41747
28472 58888 44894
29957 58888 42449
32599 58888 26322
21598 58888 40464
32317 58888 49842
26750 58888 42894
39692 58888 46109
30269 58888 44184
39655 58888 35679
40212 58888 35389
33840 58888 27762
42799 58888 48489
30149 58888 49907
40699 58888 45270
39749 58888 30524
32540 58888 43868
35230 58888 33221
25057 58888 45937
40094 58888 41690
31307 58888 27859
19823 58888 46607
34697 58888 36825
41863 58888 46697
35934 58888 32708
14085 58888 43450
20331 58888 44992
39760 58888 44433
31375 58888 47266
43423 58888 24558
44651 58888 31068
39069 58888 24388
24192 58888 37227
43121 58888 18151
20194 58888 40388
15771 58888 43685
45073 58888 20667
27279 58888 47045
34958 58888 23428
35800 58888 22020
11643 58888 49329
44686 58888 24126
35946 58888 37676
23138 19096 28529
24039 58888 54899
32689 10120 44538
29017 22718 24109
42606 58888 12275
26017 28896 27616
1439 58888 41700
1975 58888 47261
1895 58888 50701
2248 58888 30817
680 58888 51324
2016 58888 38411
2901 58888 41256
13734 1415 50282
26198 17623 34173
14485 58888 57983
32131 58888 57327
31809 58888 6190
37798 58888 6908
6493 58888 7999
38508 58888 2201
34420 58888 2315
31054 11967 23327
22502 33756 28530
21682 58525 64062
32161 57854 64062
37212 58863 64062
20271 58201 64062
24803 58575 64062
30963 6900 19618
29228 24377 37899
26817 57978 64062
27622 57919 64062
35250 58840 64062
28785 58402 64062
39162 58709 64062
42738 58888 52388
23691 41538 27683
13176 0 52991
20859 30799 31794
25926 28456 36652
9569 58888 59709
11744 0 54672
30183 55223 35796
30183 55656 38436
27904 19663 35451
16225 56670 62492
16644 56670 62580
13397 56670 61805
21006 51600 32558
27497 42306 35353
27771 52851 29725
21746 53819 34709
30675 54617 14372
13290 326 10576
29268 16749 37967
28976 42271 31423
23713 20389 36635
27386 28757 28569
16293 6642 19990
18161 9039 18792
3448 58888 53494
19051 55721 13269
9381 58888 5201
17415 12290 20654
13844 58888 9092
33626 5806 15283
25437 31528 27546
21334 58888 52359
9319 58845 61411
21740 26556 39053
11704 907 12250
14896 56670 54441
26456 22020 26857
19009 56670 54
21816 56670 434
14066 56670 86
25056 13621 33543
12674 58888 54755
13529 58888 54923
32267 58888 3030
18017 58888 3464
24969 58888 3135
30040 20569 23931
47120 58888 11062
26485 34982 29684
22079 31809 28258
25226 18791 35880
12699 3229 50060
