ply
format ascii 1.0
element vertex 2703
property float x
property float y
property float z
end_header
37894 9571 34900
16723 11486 33424
22604 9076 40735
59323 9017 35129
14093 8958 34940
9296 9497 33570
70158 4800 28658
3266 9494 30006
9321 9146 28332
22469 11647 29039
71793 4245 32094
53478 8708 35195
36792 4374 23902
37924 4367 28047
37888 4303 26702
33997 4358 12948
29030 3719 29630
29617 3719 29630
25115 3861 29290
38586 3834 29354
40197 3809 29414
51414 4051 28831
50245 4021 28904
29447 3875 29255
40090 6974 30044
52160 8789 26783
69251 7286 27637
47042 8538 26750
38075 9004 26834
37389 4357 25815
37898 4460 29742
33241 4328 9513
34778 4381 16370
32892 7338 29717
25666 11408 28626
22319 11235 28401
16969 8134 24382
53815 6613 27265
53004 6613 27483
59696 6613 28910
57871 6613 27943
49676 6613 26878
61975 6613 27761
64327 6613 28791
54292 6613 28095
61096 6613 27866
36586 7338 34424
14216 10756 30959
9110 12958 32006
2765 18450 31626
70565 3913 31406
2982 18782 25082
35995 7338 29844
34071 8188 29817
704 20277 30821
24908 9932 38523
3773 19637 42809
19359 8560 34982
18104 9561 34982
21030 9253 34982
68547 4022 29477
22965 7573 21689
1267 19132 33347
881 19081 38858
15214 6039 28415
13017 6606 28652
8929 10756 31608
37080 11249 28419
30647 11415 28635
37495 11519 28771
36614 11377 28586
40709 11248 28417
21877 10862 38997
11046 6481 31300
10436 6657 31421
66208 6613 30036
66038 6613 33823
25860 11992 32078
24897 12026 31816
67737 7703 27259
19083 10634 22777
30712 7327 32665
2349 18804 38410
2260 18798 39349
3961 19893 28470
30368 11665 30699
21474 8158 36694
32957 5790 5520
60897 6780 34296
6706 19361 32014
61721 7338 34600
70778 885 31022
64900 8261 35254
68735 6281 34270
19949 9643 27040
16845 8248 24937
26654 6613 32286
26995 6613 32745
28028 6613 32242
34878 5184 20671
30353 5081 820
71032 7513 30593
2764 19218 17590
22194 9780 25195
23190 9654 25195
20932 9592 25195
40918 4355 32184
57936 7819 32339
34054 8026 32097
36395 9757 34823
67364 11656 31218
67715 11501 31173
66887 4514 28462
53884 7243 26728
53449 7638 26676
45042 6957 26766
50943 7510 26693
17004 5234 29112
3339 18964 18367
33253 6735 32019
19756 9949 37052
61222 9733 27135
55751 7067 27782
39769 4293 18546
42797 4233 27415
37056 4278 11873
38312 4300 14671
38380 4267 15470
66565 5255 27745
6858 18956 30062
17223 7437 38666
36611 4998 27728
31012 4747 27920
42868 4820 27864
46169 4865 27829
26718 4998 27728
50874 4797 27882
30771 5392 27425
21988 7246 40039
38800 8278 35252
38464 7958 35294
22081 10322 26601
18130 10322 26862
16408 10322 25399
20230 6805 23485
393 19290 38366
42496 8091 35277
61326 6991 27190
21729 11335 33451
52288 7217 32019
22006 10424 28667
16131 10756 31029
24416 6846 37993
33210 4440 61007
22446 7101 34089
7708 10841 31479
4398 10332 31180
56510 6758 33298
20312 8013 35311
73273 4451 31648
67433 5529 27693
63573 8366 26728
36896 5509 52029
12860 12018 32101
44887 8088 29492
54850 3763 29526
61104 3937 29107
32829 3668 29755
53236 3641 29820
46928 3709 29656
53504 3842 29335
61777 3864 29282
41909 3742 29577
7476 19473 33177
60453 8508 35222
61020 8286 35251
4144 19877 36883
4956 19869 33974
38722 4112 24272
37500 4129 20936
36278 4108 16150
37518 4141 21485
48190 5974 34872
54399 5804 34802
45757 5982 34875
63773 5708 34762
54956 5760 34783
47104 5642 34735
27431 5682 34751
8503 11383 30350
42427 9544 34911
21913 10322 25668
21573 10322 26174
22373 10322 25786
30727 5517 169
3449 19721 31623
9901 13646 29917
33060 7338 27547
48447 12054 30364
38346 12004 29982
57889 12041 30265
47553 12056 30376
58729 12090 30635
6721 7815 30015
14636 6836 27677
12043 7012 28530
35332 7165 34037
24441 8249 38309
3366 19849 32022
18614 8181 36897
31320 6615 28765
3270 18939 43469
15482 10322 35426
22224 10322 35308
21052 10322 35331
25198 9405 39601
26161 6957 34725
19433 11721 31000
33530 4278 59336
41837 4188 36300
69430 7139 31793
37996 7338 30044
43402 5666 29818
39287 9221 35045
33278 9643 34870
1274 19674 39118
24441 7748 24084
36843 4276 39537
61949 6832 33595
21561 11857 32441
21941 11922 32268
36057 608 28508
5335 13862 30637
30017 7012 27703
37764 5853 44389
39714 5854 38348
40479 5850 36452
40512 5858 35397
4222 19228 42743
843 19251 33797
58945 9828 34793
59619 7455 32545
23280 10891 38872
29990 9337 26971
61630 6657 33298
34719 5434 57763
42807 5430 38106
37073 5391 52437
41399 5363 42160
39622 11897 32325
63871 11730 32729
64812 11760 32657
57225 11715 32765
37517 7311 33166
68634 6799 31621
21047 10806 38153
34525 11724 32743
43437 11576 33100
42849 11761 32655
33954 11611 33016
31850 11795 32572
62793 11576 33100
60735 7338 32942
51183 7316 35250
48613 7047 35214
35222 5509 18041
37152 5488 26415
37370 5559 25829
37546 5553 26686
19827 10124 40143
16748 10656 34417
42404 11637 29014
61631 11927 29714
58662 11827 29473
57372 11661 29073
60241 11889 29622
64922 11600 28925
49078 7338 29098
24672 7781 26657
34944 5678 6255
32807 5684 816
19389 6391 27121
71941 7119 28286
36540 5220 34033
34828 4989 38944
35966 5146 35733
35202 5010 37427
25298 7509 24426
4959 20227 29920
57697 8936 26805
30368 10531 28555
22006 6162 31007
59238 6613 33202
52004 6613 34201
50478 6613 34250
52480 6613 33982
63976 6613 32073
17011 8049 21875
801 19064 21610
28487 3653 32177
24478 3631 32123
36816 3823 32588
31569 3736 32376
44262 3787 32499
23949 4020 33063
34646 3722 32344
26630 3939 32869
31249 6638 33298
67323 8024 34815
68125 6191 34373
37057 7191 28968
33765 4365 28416
31803 4698 27983
28549 4637 28062
23080 4498 28242
26365 4469 28279
25899 4412 28355
50664 4546 28180
34287 4485 3399
36760 4564 9189
30510 7502 26694
31428 6813 26785
6446 19540 26189
10996 6543 31766
24581 8614 24985
66763 4903 33937
29618 6613 33231
30277 6613 32311
68079 8737 27576
40627 7331 35252
34786 6788 35180
24672 9006 37027
34054 6834 34593
12654 12590 29934
25785 7584 24533
35018 4225 47188
39183 4178 33719
38424 4279 33787
38653 4278 33047
59680 7680 33637
2674 18880 32582
35317 4722 22713
35867 4738 25413
33837 4743 16378
36480 4737 28137
63068 8313 34322
18928 7947 25076
65861 6262 27109
42426 5624 27247
39967 5290 27503
56147 5294 27500
51853 5285 27507
58192 5273 27516
53573 5468 27366
62704 5326 27476
46465 8002 33764
3174 15904 31144
38978 5853 40666
40679 5850 35863
34663 5858 53358
36213 5860 48357
2476 18333 30535
5710 12362 30866
45398 8675 35200
25543 9355 36708
49509 8021 29263
7976 9965 33004
11263 9717 34014
5880 11582 31043
8169 10918 30507
13003 11711 30561
60177 7338 34689
39120 7128 27545
21269 10167 27362
23152 6919 39561
30452 4673 61557
35008 6795 30044
22311 10869 23719
16280 5623 33295
9712 6855 30511
14207 5621 30776
8701 7090 30864
1395 20277 31093
15756 6782 27357
22006 6458 32324
22006 5987 33504
4558 18773 28958
2566 17328 31285
66601 10812 28326
16635 9275 37140
22006 6493 31724
56377 7338 32904
22626 11993 32071
37057 6701 32081
48783 7338 29983
10000 16339 31962
22006 8309 27468
22006 6788 27058
34065 8260 29165
31152 7338 29493
67660 10871 28916
1931 19856 20688
42242 5096 32184
20077 8603 26733
20914 8189 26690
33172 5297 34470
33831 5545 34660
26769 4940 34196
25320 5433 34574
34990 5381 34535
41684 5172 34374
29939 5474 34606
52465 7054 34688
63210 6623 34874
65270 9803 34741
59365 9642 27098
69743 6613 31373
7416 19111 29465
4128 18844 23048
1316 19268 44266
71748 5022 33293
61315 8266 27411
32039 4388 56626
29963 10566 27690
26374 10452 27603
31365 10741 27825
50586 10032 27281
35264 10417 27576
32325 10789 27862
47665 7338 33066
35904 6785 30044
9717 7064 32264
71006 351 31174
22142 7930 40555
43043 9862 34779
35841 4993 27976
34977 5057 22768
35584 5155 24260
1139 19691 21057
31819 8484 26743
6740 11904 31372
63143 8002 26680
58218 8281 26716
51774 7998 26679
21806 10735 39436
63353 6804 33298
5435 18717 32106
9657 14824 29911
4538 19897 32675
3126 19897 39193
26506 7013 33888
19480 8425 36808
16118 8425 36104
15368 8425 35117
4165 19874 24931
3352 18805 32959
56315 4477 28270
40048 4210 28618
37489 4207 28622
62223 4271 28538
62834 4087 28779
48517 4231 28590
50474 4250 28565
798 19158 37785
7415 9779 29017
6629 9703 29187
24459 6729 38630
5770 18862 28614
2907 18825 27896
39154 7997 28780
34739 5308 43419
36494 5409 37302
34950 5306 42441
35206 5358 42193
21021 10824 22989
69533 7055 27676
20254 7173 22218
11378 17027 30524
11582 11594 29932
75287 6105 31754
25894 9783 21961
37853 5282 50949
34632 5319 58328
41109 5783 24272
39997 5831 22757
39018 5808 19141
36755 5818 12960
10254 19073 30972
4190 19888 26002
32352 7850 27920
3726 19876 29769
38334 7338 33827
40617 6925 28053
17493 10575 27522
20139 10773 39061
35126 8795 26784
5421 19867 32127
58609 7338 29422
38201 4116 44432
36395 3907 34263
22006 11404 30135
30368 8027 32603
33747 4083 55102
57936 8223 27779
74558 6613 29903
5211 20277 30210
5090 18951 29924
40665 7827 28952
53469 3946 32885
33911 3937 32863
55542 3857 32668
62615 3927 32838
63787 3666 32207
61929 3970 32942
48677 3900 32772
27748 6749 27074
45266 10159 34590
36019 10507 34323
33198 10456 34362
41582 10310 34474
42630 10078 34652
37438 10410 34397
25126 10465 23152
19244 6941 22841
17293 6109 34305
38741 6972 33595
49574 7634 34351
39981 4588 33843
60631 4698 33987
47357 4739 34040
46836 4391 33585
63796 4639 33909
64352 4623 33889
67151 11082 28826
56868 7338 32472
2377 19768 28011
17693 10032 24671
24255 9828 21556
16517 5039 30416
16078 5115 30810
19535 6847 26910
18515 10322 35959
19319 10322 34990
18174 10322 35850
19199 10322 35768
68377 5917 27766
36133 5774 16903
38049 5772 23725
38090 5791 23071
36754 5795 18188
63661 6179 27011
50578 6226 26992
38763 6270 26973
43890 6609 26833
63634 6608 26834
52578 6444 26901
62405 6457 26896
38354 7338 34758
39120 7687 34291
60897 6723 29598
21291 7252 22028
70387 9536 29640
36256 4177 17967
38116 4206 25240
33537 4203 9051
34691 4188 12743
75346 7214 30757
70966 3746 30312
32953 4555 51041
37358 4553 32919
32646 4546 52434
37056 4614 33189
16545 9724 38751
1542 18964 24839
33466 7338 29112
24832 5863 27142
42435 6072 27055
36102 5879 27135
29423 6249 26982
38387 5918 27119
47115 5858 27144
31327 6226 26992
30368 7932 28483
30368 8672 27802
4276 19897 28020
4586 19888 27649
35748 3166 33656
17020 7765 37990
41622 4964 32184
5042 20119 32102
16368 9519 24556
30796 9099 26873
65514 3567 31542
7714 19497 29609
21157 8163 25333
2899 18770 22833
13647 12996 30082
70041 7191 33053
38962 5801 43280
38554 5811 44090
40334 5819 38710
60716 6613 31568
45901 6613 31414
60974 6613 30709
58887 6613 31807
55489 6613 31130
42122 6613 31610
51196 6613 31644
49986 6613 31472
24176 8688 40739
13872 5788 31936
7768 7343 31129
70445 6613 28026
22866 8132 35271
70515 3913 30509
37555 5844 19010
39135 5836 25093
34670 5842 9833
37752 5842 19878
61951 6785 35180
56360 7175 35231
63065 7230 35238
63507 7277 35244
6976 18339 32091
61315 8089 32020
38134 5857 19704
35556 5856 11874
13443 15877 30817
22006 10513 33880
39120 7373 29507
25742 8635 36634
4177 18871 30233
38757 4920 12224
39521 4878 14213
42297 4871 20440
40723 4958 16343
13791 13851 30295
13144 14391 30273
46493 7681 32602
36393 2714 29391
64530 8699 26772
30368 7678 35030
58175 6946 28468
38991 5422 29818
6503 7739 31534
7960 7356 31632
15002 5527 32162
37589 8732 35192
5880 19657 25876
16573 8926 38214
25234 7209 38168
32550 4163 57269
35778 7635 33991
43338 4874 32184
2416 18815 37457
37180 4148 41344
38378 4141 37690
34685 4121 50605
37501 4106 41948
57936 6882 29191
35778 7917 27243
36994 5844 14558
40460 5008 15770
45021 4995 25891
69821 6613 34066
61351 7974 29358
842 19100 17590
35064 7019 33595
22006 10122 33254
57960 8108 29737
53833 7174 30044
51263 7511 27749
36115 4260 33054
5485 14878 30384
62594 6807 27616
32911 6726 26796
34294 6688 26801
40018 4098 27817
38493 4093 22702
38531 4078 21033
38765 4091 23184
18209 6971 23329
16346 7546 39109
23703 6613 33571
22789 6613 32194
24660 6613 33288
24233 8887 38574
9251 7974 33271
24386 6957 34387
50788 7246 33981
24953 7987 26678
26560 8042 26685
37303 4951 53225
43418 4802 38596
46533 4900 32333
38526 4928 50347
10814 10756 30788
43450 3838 29346
25916 3641 29821
30052 3671 29748
32072 3713 29645
58183 3679 29728
55381 3823 29378
68219 7605 32869
41221 5683 22618
35578 5758 8805
41906 5692 24649
56374 6712 26798
62202 7599 26681
52776 6774 26790
60101 7159 26739
16575 9389 40105
24756 12131 31018
9254 10549 32823
12415 11198 32889
15153 11157 33939
2309 19955 31817
68151 7859 32551
8642 11021 30763
14397 11920 30385
40617 7632 32931
54691 4000 28955
22038 3881 29241
55261 3968 29031
36486 4051 28831
26952 3832 29360
36129 3868 29272
15456 10756 30692
63068 7268 27331
12416 15452 31659
3012 18778 21518
4434 18782 26713
59642 7595 27190
20841 9612 27052
67028 6613 33940
65787 6613 34917
52249 7269 30044
7534 10204 29297
6924 14186 30180
35778 7153 29544
1719 18211 30861
32238 8527 26749
3985 18770 34862
22006 5580 30229
40617 7646 32447
39830 5216 46629
38795 5137 49606
40255 5169 45985
24990 10867 38672
69809 4364 29109
24584 10232 22574
6200 19366 24131
16417 10025 22611
16324 8713 34982
17481 8872 34982
19563 9594 34982
16654 10364 22966
10911 17533 30552
27009 6925 27074
20436 6587 35014
30712 7967 29316
15756 8639 27057
17588 9073 27057
18213 8611 27057
24824 9364 37665
38904 6925 35198
17937 12068 30326
6611 19244 25934
7644 19305 28215
40360 7338 29097
34820 4081 51966
38686 4083 39808
39171 4088 37731
40986 4081 33075
39402 4086 37401
24653 7202 38295
59026 6703 28765
42412 5603 37256
42808 5623 35985
42131 5615 37827
35965 5624 53516
2636 19893 40082
5249 19410 32120
69625 6613 32519
6874 12705 31569
16475 9254 24101
19320 7438 35215
23378 10293 24875
55826 7527 29626
35332 6656 33840
19568 7176 37580
73116 4348 31274
65649 11186 28526
62044 6803 28468
69960 8054 27947
16731 9145 23860
68746 10341 29050
8142 16755 32101
29498 6957 27880
35006 6789 27190
34713 7297 33595
11790 10756 31559
48379 5680 34750
43910 5983 34876
31060 5729 34770
52982 6175 34955
58867 6312 35012
60359 5782 34793
56861 6145 34943
17077 10017 22967
24069 6613 31680
29759 6613 31245
24683 11497 33226
51187 7775 28257
66751 4283 33233
35381 4190 8217
22006 7347 30087
25110 9425 37109
1848 19815 39704
3729 19348 17590
41368 5165 43428
45505 5135 34029
42530 5138 40920
2796 19892 20517
37973 4158 15912
42151 4112 28763
38558 4149 17815
36355 4151 11771
35929 3368 34263
2644 19767 30102
695 19345 28702
22978 9169 36597
35592 7794 26655
34712 7548 26688
25475 10490 27632
27092 10164 27382
46130 5013 28551
44490 5145 25690
43502 5042 22656
8958 15032 29909
49124 7338 33827
418 19114 18543
66604 9663 34529
64892 9590 34892
12332 10357 33922
7896 10361 32623
71120 4593 28994
50788 7214 27380
37728 4194 47457
27794 8165 35267
28454 8579 35212
54357 6819 34439
889 19225 27604
68723 7338 29567
17606 10550 38409
17522 11975 29760
5530 16705 31948
22207 7101 27329
5714 18825 32298
17877 5377 28465
42879 7668 35296
37958 5808 40142
39610 5774 32839
39206 5791 34999
39620 5784 33234
21665 10090 21750
17796 10079 22111
30273 6613 33533
16436 8018 23237
27497 7057 34112
33729 5113 46178
30545 5138 60569
12995 15621 31437
32364 8259 32772
45948 12074 30513
36189 12065 30448
35595 12121 30869
31521 12045 30295
32563 12088 30618
55715 12098 30698
19118 5044 28490
33153 5421 51260
36684 7338 29139
17002 9422 35168
70771 2526 30312
70787 6847 28628
31805 6746 32019
36814 4156 12851
42614 4175 27957
39018 4158 18718
34331 4171 5642
34077 8122 27784
38780 5663 29265
37773 5652 25740
36881 5686 21404
34264 5677 11700
40622 8335 29999
45144 6613 27880
52101 6613 28418
45398 6613 29205
38022 6613 28511
51891 6613 29290
38382 6613 29281
36397 6613 29188
51058 6613 29960
48997 6613 27954
37738 6613 29932
40146 6613 29883
46806 6613 29036
30883 6613 30114
51023 6613 28930
53687 6613 28480
36252 5806 45883
59079 10846 34062
34339 4083 54344
5364 19118 30233
64420 9147 26893
15520 8620 25843
5305 13745 31354
71544 7237 28130
17525 5028 32633
47710 7136 27945
54311 9050 26852
23132 7414 37097
35185 4662 21607
42043 3816 32569
24016 3759 32432
27485 3784 32496
42150 3657 32185
49684 3743 32394
28011 3839 32627
30257 3755 32425
10349 10976 31906
40680 7662 34679
36059 7338 32445
22250 8840 27057
22825 8951 27057
15424 9745 27057
24965 7229 37361
32660 5567 62002
36086 4935 32889
32225 4711 53310
35497 4926 35663
30368 7313 34433
39728 7338 34141
49509 6646 27839
17040 8726 26694
11453 12684 32120
17314 10502 23054
44861 7070 27351
66479 6613 28287
11374 15689 31845
63072 7093 33298
25868 9160 40566
14633 8172 35021
13995 8304 34862
19680 8423 25308
49562 7778 28338
54445 6154 27022
55024 6463 26894
47784 6603 26835
30414 6536 26863
40260 6594 26839
17345 9372 25009
7191 18711 29985
40660 7892 27845
3084 18785 25907
16465 9504 26810
69239 4098 32503
17949 7693 37254
25235 9267 24201
41797 4423 22377
39363 4401 16727
43200 4423 25792
36315 4458 8592
38102 4631 49876
43746 4555 36087
40567 4662 44432
38953 4668 48234
21578 4589 28266
4222 19539 29944
27170 12110 30789
1575 19003 35309
588 19185 22569
42289 5609 24520
39082 5559 15628
37614 5623 12702
37111 5624 11432
70059 4033 29799
35532 8328 35245
16702 8126 26713
32677 6613 28720
33389 6613 29050
37090 6613 27256
39536 6613 27116
40617 7512 33875
45700 9252 26936
9854 10756 31080
67846 6719 27374
28733 11549 28809
33368 4528 12242
34519 4544 17254
35106 4557 19862
31956 4519 6289
46783 9663 27107
51206 8171 33688
20253 9204 40630
37786 5435 11714
38101 5445 12580
44126 5310 25986
50007 7257 28468
31139 8077 35278
50002 4365 28416
53178 4468 28282
46445 4207 28622
28392 4063 28810
44351 4253 28563
53939 7118 33298
8669 9032 33468
7010 8827 32962
24862 6613 31579
29343 6613 31248
39656 7338 29071
16633 8620 40235
21051 5086 34158
17950 7432 22223
38280 5491 13274
33566 5570 2101
25943 9993 24818
5896 8671 32554
8986 8258 33337
33631 6652 28797
34518 5823 6707
42370 5832 29582
41914 5785 26653
36513 5821 12374
24890 6613 30730
22625 6613 30241
24043 7101 34866
34573 7338 28023
36180 2928 34263
50293 6991 27190
2521 19863 17978
16514 12081 30456
46432 6917 29874
57936 7315 30028
62151 11285 33502
52494 11482 33245
51948 11401 33351
61949 11035 33827
56010 11102 33740
62992 11311 33468
39859 5592 43947
37488 5577 50224
43921 5606 33359
64803 8595 35210
4630 16347 31712
25847 8524 21450
45246 6694 33298
53079 7540 29997
1445 19678 37799
32869 4330 53881
33981 4365 48975
36192 4352 40818
34141 4382 48042
40617 8332 32207
38244 5369 32184
6168 19069 35521
19142 10291 22150
34353 12078 31422
42227 12020 31866
39776 12051 31633
33014 12098 31271
43392 12041 31705
14996 8425 26454
34330 5719 50504
67951 6613 33861
31057 5471 60300
33867 5559 50163
3920 19151 18706
73037 4498 30038
53138 7698 27925
21876 11571 28849
21923 11946 29757
33914 4940 1232
34746 4888 3280
6909 19094 33664
46121 7338 33020
18027 11916 29585
31440 6613 29662
33684 6613 28376
30406 6613 27531
32078 6613 26861
35068 6613 28048
33996 6613 27545
60644 6863 28765
1380 19088 34026
31200 4530 58985
16763 8162 39527
22981 10322 35779
20624 10322 36665
9308 16617 29995
66434 11071 33369
50638 6997 32019
3402 10059 30435
4194 18991 31623
21890 10221 27422
59676 7721 32243
24751 6613 28604
27324 6613 28671
14604 10756 30759
2071 8870 31104
36412 5669 9970
45264 6613 30171
47294 6613 30287
38326 6613 30628
36517 6613 30770
53418 6613 30595
33715 6613 31454
44345 6613 30802
45920 6613 30735
6669 19131 27022
3871 20277 30017
30368 8157 27222
30368 7230 27857
33368 8868 26794
8531 19495 31553
22006 10101 30998
35854 6648 26817
40797 7338 27194
44386 6802 26786
35190 5379 5137
73226 4702 32230
36017 5672 53030
4477 19839 37189
17744 10552 39032
57944 8300 33951
20403 5294 34216
35748 3017 28813
25856 9114 25055
46514 7298 28765
36029 4141 28183
24441 7569 38526
38362 5792 16707
22828 10915 38691
1058 19156 34830
41581 8730 35192
4851 19798 37047
3565 19819 41206
24936 9207 35051
24442 9126 35084
34758 4093 8650
38039 4083 19045
71106 2366 31385
9701 10690 29218
72519 6613 31868
41228 7338 34636
62594 7338 32061
15801 10007 25573
62901 9386 34976
45734 7021 28765
35420 4747 27920
28660 5355 27453
22646 5601 27265
24869 5222 27555
32359 5151 27610
16824 10322 36808
22768 10322 36295
23361 10322 36245
37156 4271 49744
43362 4240 33258
38321 4265 46642
39230 4245 43952
26536 6613 27068
67492 4415 28688
37966 4126 16782
17070 10148 37634
31624 4298 59171
36327 4270 41543
41468 4804 42948
41149 4815 43733
35786 4953 56612
44707 4782 35586
65011 3642 29823
15568 5508 29391
5595 18870 34076
6283 18889 32266
23750 9808 25226
22822 9411 27002
15996 7552 35091
5212 19737 24929
5555 15644 30245
66678 11859 30937
36623 11344 33425
42560 11170 33653
49689 10904 33999
51049 10942 33949
35556 11061 33794
40990 11144 33686
34747 5096 58754
55921 7327 33595
1579 19882 44037
6481 19330 24786
60484 7338 28139
54794 8829 35179
28784 9828 34793
10840 15115 30004
51883 7338 34730
46139 6802 27802
48414 9873 27193
36930 8802 35183
30368 11508 31948
18377 10240 27255
4613 19404 41921
25521 8726 36987
22530 11805 32547
71032 7727 32433
22006 6115 27278
25071 8618 38870
67714 7014 31107
40835 4467 19495
42186 4419 23379
43875 4364 28182
64517 10132 34610
32829 4263 7101
35565 4212 45587
32628 4183 56638
34640 4206 49004
37248 4263 38343
34460 4213 49432
17255 8345 26668
55347 6613 34999
50902 6613 35018
38777 7287 27190
13588 10504 34146
36011 2366 34010
65824 11771 29698
19364 8758 38686
33640 5389 60438
25888 10639 38054
73200 6613 29060
5085 18876 25893
5476 18875 27247
15653 8425 26601
18742 8425 25554
35541 4957 35187
1370 19546 28660
3164 19836 30049
54954 9813 27169
30017 6734 34045
24640 10687 39517
6399 19551 35706
61315 7276 34332
35778 8304 29156
60964 4027 33079
54330 3920 32821
35220 4030 33086
47411 3831 32605
63844 3832 32609
71924 8746 31786
61315 7921 27665
23152 8425 36287
19403 8425 35405
22580 8425 35702
22006 8792 33431
22006 6908 33398
22006 7711 33871
16856 11956 32278
34054 8269 34819
33079 4833 47843
31884 4928 53250
25285 9037 39704
20672 6872 24002
499 19435 22103
2608 18846 27070
32285 9382 34978
43222 5102 29818
38026 8648 26765
5506 8246 32019
10195 7098 32624
10800 13660 32108
15591 7314 34923
35902 9851 27185
0 19367 44204
5118 19477 21813
23610 9271 25427
30368 10607 30727
37601 7356 34874
24710 9484 22467
36414 5721 10338
41422 5674 22971
37556 5714 13289
41779 5728 24998
23365 8786 23425
6379 14910 30177
7354 13854 30154
41815 6670 35160
30368 7548 32126
71346 5627 33771
22554 10813 39281
18832 9822 40272
38137 5857 19176
34515 5860 8449
39536 5851 22738
25060 9465 22458
41539 6776 32019
6576 16338 32044
70690 4585 28942
44891 7745 32019
30063 6041 27068
27717 6006 27083
32929 5788 27173
48236 5729 27197
37107 5974 27096
23285 5858 27144
44988 5896 27128
15949 10179 27137
37564 7845 33635
23823 12017 30082
69819 7580 31700
3183 19749 43605
70487 6667 34120
40452 6613 27413
40942 11567 28847
55204 11575 28864
46411 11689 29139
62042 11869 29574
37049 11569 28850
61245 6613 34985
59373 6613 35117
60807 6613 34828
34054 7688 33168
7321 18106 32082
22663 6737 38384
12342 11633 31124
9083 11084 31297
66545 11774 30151
61610 7233 33298
32936 4109 2508
46432 8359 32236
21024 3856 30128
4460 19123 41256
63152 7405 32194
59619 7242 34376
37194 4596 29095
32385 4503 7801
36706 4544 26264
35160 4513 19383
15695 12391 31715
1800 19820 21722
16254 7720 38327
33412 7334 27190
23862 8471 21319
3762 9095 29884
59077 7338 28420
16125 5331 32468
16652 5238 32595
45385 7257 33595
37712 12022 30115
51865 12100 30710
30437 12105 30752
16694 9042 40261
5008 19851 27064
2649 19882 19059
40978 6613 34420
60779 7338 34795
3640 18921 19832
31834 5461 56922
38100 5588 33771
37685 5518 34004
34997 5491 44516
41120 4158 37555
36821 4176 49779
42314 4121 33094
42866 4175 33388
25307 7913 39207
18776 4556 32264
5263 19760 25535
2094 19060 30476
35748 3712 33989
17657 12721 30966
15659 9403 26776
38208 9626 27091
34811 5663 56171
24945 7436 21851
30368 8000 29923
39062 4100 20289
40146 4092 24247
34150 4097 6486
37944 4093 17733
19750 8760 25361
59680 7674 29742
10722 17581 31484
33997 10840 34067
55391 10711 34166
62880 10447 34368
58465 10230 34535
64429 10607 34246
69819 7655 30963
33689 4087 5581
46432 8057 29317
973 18920 43093
22309 7137 26742
28287 6820 26784
2289 19853 39072
2430 19853 38211
33228 5481 51595
36838 5554 38249
33964 5531 49610
16667 4942 30921
18470 4497 30557
72773 6613 30681
25685 7101 27963
6816 14123 31808
15789 11668 28816
46432 8376 29510
19816 9075 36845
16980 9750 36845
18109 8842 36845
62612 3612 32021
53240 3535 31437
63157 3525 31360
39751 3498 31164
58077 3510 31243
60283 3490 31088
45375 3536 31443
17521 9908 23364
68083 6842 30577
35748 4161 29344
36432 10623 34234
48325 10308 34475
55023 10057 34668
38904 10103 34633
52300 10264 34509
40381 10532 34304
29255 3579 31767
30048 3552 31562
27430 3615 32044
33041 3551 31555
30953 3590 31856
43848 3583 31801
31809 3569 31693
37741 3565 31664
1351 18856 19468
64335 7236 32019
66220 3773 29650
52420 4450 33662
61667 4217 33359
35175 4591 33847
24481 4727 34023
59299 4539 33779
33996 4603 33863
63873 4412 33613
8726 13109 31978
56650 6805 30044
22154 9274 34982
70857 9488 31230
2715 20277 30840
43924 10567 27691
49483 10628 27738
59004 10652 27757
59435 10682 27779
60840 10754 27835
52127 9494 27036
58490 6613 34282
64232 6613 33853
47919 6810 32377
23791 11638 32952
33537 4973 291
38575 5000 11558
73870 6613 31064
21199 9737 21540
17241 5326 33223
18462 8771 38782
25908 8119 40270
34319 4148 10747
4251 18770 32596
2567 18768 40859
68581 9131 34034
65314 10348 27606
69981 5351 33764
44928 7608 29472
30368 8728 28456
23132 7689 25158
51187 7657 29704
18692 8224 35310
68611 9233 27983
32128 5506 56446
24457 8075 24784
53858 6968 34874
24911 6957 27805
45564 7338 27360
39067 5842 20447
34035 5855 6402
21052 4247 28977
23603 8662 26767
22979 10528 22180
12151 16860 30738
26396 8880 26795
24281 9380 27057
25275 9925 27057
33103 4100 3148
41764 4096 28465
38360 4093 18910
38608 4088 20118
2715 18838 34511
2172 18862 36681
24085 7101 27949
67122 6996 34843
54357 6927 33864
5985 16576 30023
26745 4519 33754
25792 4482 33704
33839 4361 33546
22096 4666 33944
47024 4138 33257
25788 4150 33272
40229 4353 33537
53079 7004 34450
13079 16209 31175
4814 9975 29868
8524 10194 28998
17277 10084 39232
64885 6613 29648
31575 7338 34242
32778 5811 57327
31939 5815 60122
6634 8789 32850
30368 7902 33574
30368 10313 32567
70228 8622 28346
21759 6738 38524
19489 11197 28219
19464 10110 21923
18692 8716 35238
22006 8036 32431
22006 8378 33299
67747 5772 27660
16679 9672 37298
63068 7829 27518
31579 4397 3546
25130 9920 23255
25250 7024 37659
6406 12562 30610
16631 11795 32773
7684 20273 30457
67574 6225 34532
26068 6957 27596
32558 9743 27140
12768 16067 31365
35726 313 33536
39511 4083 24723
39093 4093 24501
41155 4083 29678
16448 10756 30194
18926 8723 38647
5043 18783 32666
4187 18782 36043
18797 12058 31687
70424 3347 31038
28482 7475 35271
2169 18946 33111
1503 18971 36973
7933 7458 30049
1937 8929 30766
11998 12156 32120
21234 8458 34982
64508 6613 30395
37888 4145 22864
40057 4130 29369
36719 4113 17814
39572 4161 28996
4707 19008 39503
5566 19010 36842
64913 8772 26781
9191 17544 30112
32319 5060 52273
9436 11954 30097
34140 11680 29119
57024 11969 29817
41816 11810 29433
50219 11954 29781
41467 11776 29351
45461 5208 34402
49649 4761 34059
44400 5136 34347
64553 4998 34241
57776 5469 34602
52929 4867 34140
55827 7511 28818
16583 6597 27352
71062 4278 30831
70391 8235 30973
63092 7722 28765
15792 8535 36458
1424 18142 31038
33568 7131 30044
49597 7366 32492
34310 5735 11301
24708 10467 23497
34931 5594 15673
62404 6676 30044
21062 4084 32608
68603 6613 31199
53606 6613 33059
44430 6613 33690
50522 6613 32238
41648 6613 33268
46088 6613 34689
49577 6613 32560
33874 6613 31894
46186 6613 33816
41200 6613 32713
57509 6613 32728
38943 6613 32635
46873 6613 34680
53239 6613 32376
58048 6613 31874
46219 6613 32096
63121 7645 27190
33572 4408 50177
30786 7523 27825
15888 8471 35289
5344 19315 40068
67510 4829 33748
41473 7338 29199
66533 4326 28656
37785 4446 49673
42253 4428 38580
40141 4396 43310
39619 4420 44879
50788 7117 34849
16392 13126 31278
25987 10620 34236
57936 7035 28842
26476 3587 30141
44556 3565 30304
29607 3563 30316
36489 3533 30544
25910 3540 30487
22461 3621 29883
33628 5847 6286
37033 5850 16579
36394 5335 36464
35854 5391 39867
36799 5368 35233
36122 5354 38016
20043 10812 38598
4149 18808 24606
35599 7824 35312
39895 8304 35248
46744 6893 26774
45905 7677 26671
47664 7676 26671
55143 7683 26670
6096 17020 32054
61317 8373 34805
13053 10992 29916
52039 8124 35272
55057 8183 35264
51369 8111 35274
38104 11256 28427
60334 11505 28752
48597 11538 28796
56599 11537 28795
45670 11417 28638
3184 9461 31946
6651 9500 32865
68157 8323 32255
38688 5776 44576
33889 5799 57340
70568 4882 33321
7999 19273 31778
56069 7247 28468
38309 5783 37825
40061 5807 32657
37848 5769 38843
35883 5781 46277
24631 9117 39346
28526 10590 34259
2948 20277 30418
34195 3493 30856
63666 3577 30214
45522 3551 30415
59707 3585 30155
33234 3498 30815
54074 3532 30558
47204 3536 30530
57030 7076 34385
46891 7041 33595
22006 11947 31377
2609 18782 38748
6261 8189 29667
3322 16803 31424
12085 15093 31818
35778 6951 32306
21855 6734 23224
20985 6203 34894
4705 15682 31591
4956 15427 31609
1917 18820 21528
64621 8047 35282
40146 5846 27271
36175 5842 14741
38135 5839 21483
39350 5851 23981
35725 5842 13184
38737 6613 33861
5944 19653 35813
69226 6613 30564
39066 3623 32104
35881 3568 31684
40736 3618 32066
57483 3601 31938
42776 3615 32042
34729 3556 31595
44922 3580 31772
60441 10788 27861
65434 6613 29656
58016 7463 28792
21781 9401 40665
54183 6613 31563
37520 6613 31506
55852 6613 30917
51732 6613 31465
37964 6613 31785
54685 6613 31349
58961 6613 30960
48386 6613 31609
15216 13598 31434
21142 11434 28615
75690 6399 31421
1949 19686 28223
32311 5789 3425
35805 5829 14362
34267 7713 35302
57427 7266 26725
50664 6833 26782
57214 6731 26795
23787 7535 35278
39871 5569 17784
40227 5630 19496
40956 5565 20512
43515 5574 27190
59215 7175 33767
28495 7101 34876
34710 7338 28825
70814 6635 27890
18912 6070 27390
18305 6012 27530
18039 4608 31361
39567 4146 33602
38610 4138 37010
39438 4167 33187
35364 4107 48920
2248 18839 24470
1258 18835 18094
17268 7449 22338
63068 8245 27294
55751 8053 29579
37057 6773 27847
58637 6613 33605
62260 6613 32817
56844 6613 33766
41078 9511 34925
35778 7034 27320
16309 5211 29721
18110 4779 29597
25240 7376 26711
69753 4603 33156
5085 19014 38430
647 19184 44266
39870 4992 29818
23174 9897 40468
18074 9972 25195
38186 7338 28955
20542 8524 21375
2751 8862 30406
37432 5258 10007
35650 8968 35149
66465 5890 34615
40188 4531 44365
45149 7327 33298
51237 7811 33237
72546 7754 29040
2709 18768 40251
32352 7742 29720
7771 17746 29948
3928 8755 30040
7266 8023 29433
1680 19021 27965
45227 7338 29175
22712 6804 38045
4673 19778 38075
20093 9983 34783
1207 19009 23337
4323 18811 25062
221 19244 42242
16709 9775 22967
71476 4618 32947
34872 5712 48539
33023 5719 55098
30565 4563 0
25156 7265 24012
22488 9279 27057
64998 9540 27061
32571 6613 33858
32292 6613 34964
30873 6613 33969
32291 6613 33330
38078 6613 34640
40053 6613 34578
51831 6662 34874
40756 5124 16867
38919 5180 12999
43850 5205 24633
25226 10393 22102
24927 8425 35653
25242 8425 36108
53272 7338 27398
50537 6635 28765
52812 7525 35277
45373 7443 35266
50120 7559 35282
59800 7032 32019
16576 8157 37249
60791 6952 32019
5394 18819 33205
23122 8425 25513
19006 8425 25326
17254 8425 26096
25156 9696 23526
57540 9861 34780
54658 11236 28403
39119 10935 28009
60975 11240 28407
59402 10938 28014
64356 11002 28097
54106 11241 28409
34984 7271 35244
72316 4876 32905
37655 5680 24529
38068 5661 26610
37393 5705 22829
2315 19900 19379
70582 9665 30608
50788 6836 32683
15460 10465 34688
9443 8029 28604
13158 7614 27621
60292 9069 35108
22017 10809 23995
34990 7194 27190
46791 7338 32806
34054 7304 32997
1995 17436 30957
52010 7338 29283
42044 10640 34221
53573 10510 34320
63807 10158 34591
58914 10538 34299
48934 7315 27190
23438 9822 34796
27002 6824 28138
3603 19747 42218
18150 10301 37612
51137 9749 34826
33473 5801 58449
34654 5784 55420
3933 18778 29194
53145 7617 29292
17243 7916 26733
1132 18969 40277
56097 6896 35194
63784 6770 35178
60974 7048 35214
18284 7307 22320
17989 12011 31280
13741 11062 28378
11525 10946 28984
25644 6613 30939
23297 6613 31034
30164 9995 34715
28482 10243 34525
31708 5750 2027
67009 4070 32916
63068 8273 29300
21885 6876 37903
70837 4261 29469
8316 18232 30076
61315 8197 34157
32390 5441 54497
32956 7338 29316
42399 5789 33826
39972 5790 40774
37842 5806 46329
36035 5820 51031
59503 9765 34819
33156 4583 355
39910 4551 16899
21714 7678 21637
57936 7899 29168
31419 4266 1776
8057 15785 29917
52465 6766 27634
58789 8988 35141
1413 19634 25794
14511 6290 33592
6270 8027 32064
9752 7392 32873
15380 5315 31279
22006 9364 33965
52091 10859 27916
20783 12080 30514
3117 18823 19948
41896 7150 29552
37787 5777 14996
35913 5798 10132
20803 9034 40687
62594 7206 33914
19364 8274 40536
75142 4979 30507
41158 4342 21764
33341 4349 1701
16251 7889 39305
5101 19620 23000
24756 11018 33850
54946 9401 34970
8749 12431 30132
29567 6613 33788
26192 6613 33533
34302 7327 32019
17841 12067 31644
19605 12128 31060
31016 4689 3058
25189 11902 29654
27862 11905 29661
19801 7037 35155
37408 4562 32570
32321 4484 54771
34377 4562 45054
33961 4514 47539
22006 7474 27833
35527 4746 23991
34788 4822 21724
35346 4878 25004
36676 4742 29094
20243 8101 21504
44861 7883 33702
39535 4099 26421
25125 8243 39633
33160 4551 61543
12020 11759 32107
24523 8814 40275
37327 4093 43043
33880 8454 35229
74380 7229 29944
17350 9791 24441
3563 18789 39066
2795 19851 26150
37750 6715 33298
26087 8379 35239
39669 7338 27646
69856 4293 32740
37331 4821 52563
40840 12054 31609
52906 12031 31783
54995 12012 31925
41849 12061 31554
35697 12057 31582
30019 7251 35241
29280 7589 35286
1807 17755 31095
34054 6660 29633
25217 6613 29423
28818 6613 28953
17489 7531 37827
39154 7997 27888
17365 7433 38202
5104 15906 30301
34400 5675 49728
39164 5699 32280
37316 5663 38296
38442 5691 34803
25327 9387 40619
65368 6613 27386
34989 5858 9627
40882 5855 27345
32891 5859 3309
17799 6550 27209
61333 8180 33768
18526 6795 27004
27993 7575 35284
35761 5765 15978
36879 5779 19304
35235 5766 14105
34905 5775 12550
55073 6613 29666
54651 6613 29820
44058 6613 29980
35280 6613 29492
51070 6613 29421
48128 6613 28132
40766 6613 27837
44602 6613 27255
55205 6613 29089
52831 6613 28276
57150 6613 29911
40733 6613 29516
53871 6613 29276
42166 6613 28142
19445 12033 31854
36230 1232 28688
65514 8171 26804
71405 4963 28647
62250 7216 28765
35922 0 29014
19240 5431 34088
3813 18788 23861
44024 7965 26675
61908 7844 26659
51247 7822 26656
25742 9088 36379
44933 7546 34323
15663 9669 35114
12411 10842 32081
876 19721 43415
14368 6907 34254
7345 8110 32650
5091 8564 32202
46025 7338 32308
745 19544 40314
65274 10830 34004
33888 4473 13551
17521 7919 22535
36782 2417 28556
32154 5836 59772
33229 5839 56593
39093 5847 38277
39195 5846 37926
20404 9375 36718
20647 9051 21363
19784 7927 40433
22006 9225 30050
34319 7098 33298
63342 5073 27670
60816 5500 27342
64276 4938 27773
36836 5590 27273
49503 5389 27428
64940 5029 27703
19724 9725 40411
15126 14716 30967
37296 5454 27648
35901 5448 21930
11926 12527 29910
23329 8645 21292
19421 10733 23084
36599 7338 27332
26561 6958 26765
5278 12996 31169
40292 4260 29818
71119 8335 28628
29841 12107 31204
7399 12118 30440
29881 11168 33655
28226 11553 33153
42938 8644 35204
23204 10396 37293
72446 8551 30417
16870 11835 31649
31990 7081 34379
24670 8085 23606
59619 6875 28456
15734 6313 27818
9428 18377 30373
5655 10481 31505
13536 11641 32274
56418 7338 34613
41466 11366 33396
60842 11237 33565
58648 11490 33234
60263 11039 33823
57014 11048 33811
20133 7208 39855
46139 6973 32299
60406 6613 34250
58875 6613 34045
30409 5113 62002
19763 9154 40604
69430 6617 29240
73016 6613 32546
69131 6613 33867
49509 7082 28409
14877 11438 29983
12195 6184 30554
10717 6545 30905
29768 12039 30245
25538 12021 30110
24368 7423 21828
7326 15982 29938
7337 13382 30232
20624 10608 37708
24492 9569 36845
25198 9999 36845
22050 10089 36845
26041 11188 28340
29691 10927 27999
46749 7338 27468
31117 3487 30900
51605 3498 30805
54480 3573 30242
48990 3508 30729
42082 3494 30837
25268 7101 34107
31474 5210 5287
61315 7895 28413
60066 11130 28264
46956 10910 27978
57938 11011 28108
52736 10975 28062
18718 11392 30596
29614 6938 27074
47196 11183 33635
54564 11060 33795
49308 10931 33964
34257 11433 33310
39265 11081 33768
39495 11334 33438
67490 5964 27518
13698 12272 32030
33043 7338 27948
37039 5840 47450
25742 10043 36767
36898 5093 32184
49074 6613 27127
51363 6613 27071
58729 6613 27347
53774 6613 28030
48531 6613 27302
51957 6613 27466
56907 6613 28367
60408 6613 29040
24924 6786 27074
25355 10829 38470
18749 10283 34982
60581 7022 30044
22399 10912 23367
68681 3704 30500
22006 10797 28150
5993 18483 32118
62056 8324 35246
56349 8288 35251
29053 8566 35214
23209 7901 35302
3277 16346 30751
51549 8944 26809
21823 10414 34400
39063 6613 35028
38215 6613 34003
35144 6613 34807
33003 6613 33603
30379 6613 34733
12514 11191 32101
5449 19795 26944
6079 19780 28825
13436 6076 29491
7366 7505 30399
15098 5694 29211
14341 12448 31932
66544 6613 31780
35156 7338 34314
63068 8173 27732
37754 5727 47925
41412 5727 38011
42252 5731 35654
36286 5750 51449
17389 8551 24819
9662 15370 29926
9039 14494 32102
7414 14090 31907
32352 8128 34017
22006 10233 28013
40633 7185 33298
22313 6613 29342
25240 6613 28305
23516 6613 28196
3439 18771 24304
37335 5418 28320
33596 5265 14198
36950 5398 26939
25012 7136 38753
33083 5468 10075
24649 9044 25001
40195 7081 27190
22006 9253 31471
44712 11935 32234
63470 11736 32713
63117 11734 32720
61296 11817 32519
62552 11821 32508
15704 11223 33889
16544 12747 30623
30725 8240 33061
42763 4417 32184
19158 9250 36845
18228 9385 36845
20512 8766 36845
16243 9311 39595
19581 5217 33894
18079 5520 33817
41121 5479 41855
3357 18796 28197
3960 20277 30882
60059 6692 32019
33655 5854 55905
6584 11718 30739
16339 11585 28696
23168 6742 38982
31611 5028 34264
22103 5177 34378
27109 4882 34151
32493 5285 34461
39238 5559 34671
49181 5425 34569
55199 5456 34592
30459 4743 885
31211 4945 5529
60695 7917 35300
57844 7854 35308
43685 5399 25742
40889 5414 19082
40700 5429 18757
38883 5459 14617
42077 5597 29818
12903 8636 27361
2386 9342 30235
25632 6768 33888
867 19746 17838
35826 5162 36658
35926 5040 34336
36173 5181 35251
33998 4979 42880
14895 10236 27255
9015 9998 28703
34585 4299 56848
37536 4257 48512
36840 4283 50794
41848 4240 37152
23245 10866 27921
29111 10573 27696
39145 8106 34550
27015 11985 32112
61345 6903 30044
67404 4364 33235
36268 9386 34976
14828 11521 33222
13109 11313 32949
69943 9122 33383
3404 18909 42637
51187 7677 34347
18760 8943 25195
53525 7315 32019
38396 6783 34874
49041 12083 31387
58193 12042 31695
53256 12127 31050
44739 12098 31270
57014 12086 31362
64810 12004 31990
22964 6749 23775
53284 8865 26793
34054 7904 28442
33057 4861 14183
33322 4913 15730
1219 19684 44266
30714 8360 34698
25742 8602 25634
51187 7253 32531
13794 12675 31971
18115 10785 34228
24267 9175 36845
19025 10143 36845
66763 10094 34213
54357 7232 29561
22006 5632 32715
22006 5871 32359
18173 7854 21816
1342 18854 42538
19486 7748 26707
18543 9280 21563
29922 9310 35008
28116 9222 35044
55371 8533 26750
40513 4142 38647
42805 4154 32836
37406 4143 47133
19134 10744 23373
6079 13822 30435
28686 6682 33888
47985 7624 32775
38399 6841 30044
20159 8873 25195
21985 8834 25195
16596 8016 22815
18766 4489 29902
39726 9268 26943
1036 19445 33006
49639 6613 31901
59524 6613 32082
51759 6613 31991
34088 6613 32485
48599 6613 33633
47074 6613 32949
47197 6613 32165
47736 6613 32747
47605 6613 34534
35984 6613 32093
51586 6613 33903
41536 6613 33620
42512 6613 32093
48937 6613 32458
54134 6613 33502
54347 7338 33999
4109 19660 20336
71176 6403 27968
35989 4167 16885
35233 5399 19420
32846 5453 9322
16788 9435 39566
17505 12041 30102
46445 8242 34834
22029 8425 25843
22350 8425 26266
66315 5778 27377
71372 2538 30312
1769 18779 43628
59619 8014 33050
71402 8659 29284
11412 14111 32050
42943 3556 30371
24713 3590 30114
61712 3615 29928
35085 3588 30127
23377 3542 30485
29234 3597 30061
49817 3585 30156
28366 3526 30600
46432 7292 32336
18105 8425 36137
21628 8425 36519
19249 8425 35987
44865 8340 32516
39871 5852 36412
40010 5841 34627
33592 5839 55428
45032 7157 30044
23590 4617 33880
36971 4401 33599
36608 4193 19618
34291 4186 11277
38533 4283 28688
74659 7292 30196
3793 18884 40687
12469 11986 29909
54357 7122 27543
25217 7720 37395
20638 6882 22728
52465 7207 27641
9302 17200 30073
1025 19518 26063
4364 19897 32118
33132 9971 27234
63068 6968 29758
2818 19885 37797
31467 7056 34874
11261 14909 31989
35778 7528 27800
26178 5756 34782
24180 6332 35020
22315 6443 35066
24381 5930 34854
29297 6147 34944
44483 6376 35038
71833 6613 31045
61034 12006 29996
50082 12070 30485
54146 12061 30417
53777 12078 30544
62041 12076 30525
68157 8961 34273
18160 9150 40453
24959 10322 26114
18755 10322 25606
23569 10322 26482
64280 7338 34028
47066 7275 28765
42951 4179 28775
24878 8783 25444
66080 11067 33475
4844 18981 23276
39123 8360 32230
30687 4502 62002
24225 10089 40297
18073 7093 38076
32431 7476 32100
35805 4138 51563
22314 6753 38288
1704 19758 38240
3088 19833 19303
60133 5208 34402
61703 5121 34335
64391 5603 34705
44046 5059 34288
12064 7669 34022
5530 8846 32527
24911 8378 40287
26141 11595 28913
57143 3515 31284
56570 3588 31847
43593 3479 31005
57806 3540 31475
64545 3586 31820
62250 3506 31217
44520 3525 31359
64429 3523 31343
12906 10756 31490
28727 6957 34428
43251 7696 35300
61364 7827 32428
35275 5139 57488
34666 5651 48042
32913 5646 54559
36688 5680 41162
20664 10511 22262
63060 12014 31907
56120 12069 31492
55516 12128 31042
63877 12078 31424
61798 12007 31961
54291 12056 31595
17694 7036 23294
10684 14640 32069
39683 4088 36324
40351 4091 33892
23389 9895 36862
15668 13987 31140
16903 7903 40062
32352 7308 33946
30368 10731 28172
67426 10531 28334
7964 11605 30412
49509 8276 34006
26040 10249 27447
25285 8128 22658
69819 6928 32724
73371 5296 29166
45027 4428 28332
32298 4605 28104
42346 4481 28265
26491 4188 28647
25626 4261 28552
39775 4389 28385
39120 6924 32564
64727 6613 30717
53457 7338 34318
22171 8425 27028
25022 8425 25654
24823 8425 26232
58007 7567 27805
65989 5059 27812
61315 7309 33947
35827 4291 8482
37775 4266 13933
43749 4253 29473
33917 4297 3466
22006 4677 28838
6022 13191 31441
20541 6777 38731
39038 4632 47713
44739 4682 34918
42183 4603 40144
42562 4693 40078
1330 19591 35862
721 19503 38544
41726 6955 30044
27687 8756 26779
30075 8335 26723
13243 13757 30163
16233 5153 31917
49509 8313 32681
2641 19108 31623
27080 9389 26993
19361 10722 38332
15911 12829 30483
20457 4560 33293
67551 11393 32136
49640 6613 30642
56789 6613 30396
41050 6613 30306
51509 6613 30704
60218 6613 30197
34351 6613 30208
36406 6613 31269
34748 6613 30233
32165 6613 30422
2832 19820 33655
2626 19808 34439
35778 8103 32683
41015 6613 27215
31101 7257 28468
21238 9556 34982
22006 5157 31687
47946 8076 29094
4068 19189 32027
46064 7338 29224
6169 19806 31868
36691 8606 26759
40745 6997 34874
29542 6613 29869
28461 6613 29113
29090 6613 29858
10630 6917 29409
6961 7938 29682
11538 6739 29220
49509 6945 32210
48365 6838 30044
34631 4353 4994
37211 4383 11482
44016 4887 24154
43266 4784 23188
34149 4954 1735
35778 7477 32690
40232 4090 37246
42081 4098 32784
40271 4086 36701
41247 4084 33837
4067 19638 19982
7071 19583 28693
7342 13217 31767
53079 8030 29251
65360 5556 34616
38013 4831 51001
59956 7265 33298
26838 11846 32450
16584 11104 31914
55727 10450 27602
55359 10576 27698
59102 10256 27452
63968 10415 27575
66702 4519 33532
71032 6754 29497
63068 8386 32309
37922 4692 11157
43730 4613 25361
41583 4658 19966
44255 4527 27356
18183 10319 34982
55751 8370 27806
18772 9830 24970
32590 4077 59447
32045 5283 6936
35498 5332 21566
32144 5244 8029
36385 5404 24290
31835 11767 29329
54380 11974 29827
57610 11919 29696
33093 11861 29557
38016 11834 29490
7221 19251 34305
7400 19206 33401
24523 8604 21321
46937 11666 32884
36403 11879 32369
45695 11562 33134
51032 11584 33082
43835 11650 32921
37669 11710 32778
11674 11074 29976
24286 12082 30573
55751 7179 32047
3189 19555 31937
65401 3628 29935
43359 8674 35200
39601 4088 38842
41621 4093 33730
5293 8705 29591
30008 11393 28607
24836 8008 25266
55775 8112 34764
8476 10779 32138
13175 11623 32128
11072 11113 32537
41695 6689 26801
40906 7545 26688
1384 18922 21875
36782 3598 33773
2829 8828 31550
29660 11756 29302
56271 9284 26949
70793 8628 33283
30423 9092 26870
32487 4093 3156
29208 10878 34032
12190 8604 27569
7884 8910 28743
63068 7343 29085
24909 8338 24992
63447 7338 28257
68859 6613 28028
56304 9641 27097
43488 10165 27383
31151 10308 27492
41508 10495 27636
37086 10281 27472
31763 9988 27247
36124 4745 35355
33750 4766 45710
36827 4723 32497
35292 4841 37750
70908 3191 31520
75459 6746 31489
69116 9878 33156
18507 12132 31023
37104 4726 9125
36855 4731 8536
37979 7338 27796
2590 19879 43181
25251 9990 24579
40219 7110 33298
61324 8289 28445
17716 10322 26874
73491 6965 32886
49509 7534 29062
40195 5388 44857
40912 5349 43479
43279 5399 37248
42253 5416 39582
68614 7832 27578
18273 11225 33775
65160 3730 32338
32276 4530 0
71887 4436 29477
33008 5854 58566
17487 8257 37242
44068 4698 25370
38145 4664 11923
42655 4597 23007
71932 6613 28815
13969 11801 29949
10024 11163 30156
8135 10776 30008
66573 11554 32471
24358 6988 24402
30368 10628 33064
47710 7254 34491
884 19424 34298
14150 9922 34679
7354 9788 32930
68903 5684 27945
5803 19727 26767
4803 19743 23655
8975 15957 29921
37973 7338 32313
46352 9247 26934
23564 5955 34864
38087 6254 34988
31483 5999 34882
51305 6611 35136
22990 6034 34897
33328 8424 26735
16318 7956 22395
43907 4421 34445
38602 4476 48053
42461 4380 37469
41021 4453 41885
43673 4423 35045
25512 7193 24585
33227 6621 28468
39895 5729 42070
40334 5714 41183
38636 5737 45342
42356 5666 36640
14515 11764 29536
11240 11198 29599
24945 10576 24441
7138 15525 29996
51640 6980 28765
31389 5012 5847
34827 5046 22202
35606 5099 25211
35265 5024 24671
19289 11848 29404
63068 7032 34599
10973 12312 29926
22917 6972 27914
2454 20260 30123
38426 4332 32720
35629 4311 43755
48780 9253 26936
236 19289 21037
17274 5550 28412
