ply
format ascii 1.0
element vertex 2610
property float x
property float y
property float z
end_header
31455 5676 17058
8408 13662 34278
36821 3772 30260
31810 3835 30388
31429 6134 13105
37143 6233 37508
38899 1959 22389
35280 2143 27847
33221 4869 44251
33687 593 39273
31481 5256 22555
26716 6961 6926
50142 9949 36033
32421 6282 55505
35692 5437 49195
33262 6098 54085
42226 2837 43739
43733 3822 38050
34431 5338 48658
60974 9317 31180
6693 6217 32694
41318 3971 21861
27941 7427 3478
59416 5099 37254
41464 4648 21926
67341 7364 34951
26223 4657 30717
40660 5718 29744
42833 8649 37208
31874 4114 28503
43658 4484 30234
31662 5214 21453
33727 6422 18601
44922 1219 45197
18146 6259 30527
32196 5920 19826
28785 6440 56812
21914 6816 30237
26681 8691 37186
42185 2088 43905
46053 6875 37572
2489 17072 33865
61201 8295 37120
8167 7497 29658
5323 7582 34812
21401 10132 35714
65545 4590 32251
28837 7303 8741
38869 3908 46319
8522 8026 36325
43872 7605 30277
31721 4066 25404
11406 7583 35698
25045 8040 500
24631 7584 1619
40713 1732 44194
42306 2401 47381
33893 3563 37470
42543 7053 30234
51096 3666 36386
26826 7898 66946
35125 6401 19928
24810 6998 30232
40514 2257 20754
45134 6367 37515
41430 4588 45383
44335 10212 35554
34275 6398 30283
24883 7462 2716
49383 9345 31035
40937 3426 20618
35633 2686 34851
40944 3054 47275
41761 4224 23746
44955 4640 30264
38110 10399 35079
36253 10398 35080
35459 5868 51748
35863 5669 50462
19268 6426 30386
44062 4142 29181
43691 3255 30580
3199 8659 45444
4249 8308 42919
4619 19906 34194
43982 4321 24207
42350 3493 43856
42001 5725 37732
61847 2960 33411
38781 6162 23770
41408 1728 23865
36937 759 39127
59018 2734 34713
44528 4499 39175
35241 1079 40734
41792 4652 22118
27318 6684 58228
40348 6102 30281
12359 7157 36021
43225 3547 37267
9263 7699 39739
32331 5721 50020
20627 8459 37268
6108 8442 23141
41644 3697 43931
62302 9060 36499
36714 4419 42729
63590 4880 36522
28458 6789 7990
4991 8526 22437
3486 8635 33510
3925 16474 34029
65127 9029 32973
44054 2737 35696
27040 6925 60641
34241 4574 37568
36377 6445 47648
45044 4847 39327
37924 5334 29999
38782 6311 46278
34120 5232 25975
36278 5379 27871
36036 5184 28605
23173 3704 36374
53465 7890 37446
54815 5851 37457
36391 5080 21914
17461 9572 31389
31115 6281 16736
32556 5597 18090
26570 7709 1171
32721 6457 37525
3294 8884 20310
59954 5009 37185
9873 7692 32170
10042 16225 34144
4863 16980 34140
57757 7426 37552
44471 5506 30275
15640 6373 30698
35885 2631 33821
34660 1656 27661
7243 7944 41406
8588 7742 40049
39829 5555 22437
55306 4844 37168
44695 8354 37309
60605 4943 30703
42527 1094 21552
32155 5345 17747
2154 8839 45917
27929 10350 35202
5324 8755 22174
42442 4926 45984
52973 10412 35028
31656 10540 34431
35820 10549 34310
45140 2929 36394
8988 5518 32910
10207 8056 31208
41092 1612 44148
37071 4054 37566
9088 7837 30902
10424 6168 36229
40506 3791 23501
28079 7550 6407
36258 49 39600
43871 1016 44583
42265 4364 46143
39880 5742 29217
2308 9031 20346
6082 7619 32877
41584 5934 42047
41218 5942 41801
63485 2847 34768
39677 4740 43809
40259 4778 43718
40836 3355 37415
43214 10209 32241
13563 9966 33350
52904 7768 37482
35233 2499 28340
42266 5669 37053
44578 2328 20447
33882 3835 38703
7293 8114 28547
7788 7264 36161
7557 7774 27562
7476 7935 26445
50349 4977 37226
44448 4225 37563
17004 3686 33479
44029 5574 37324
8215 17275 34238
41096 5763 38426
4914 7853 29280
28771 6854 11312
9462 7744 31729
46199 3998 44451
35972 6544 18997
35156 6680 17416
32048 5357 48056
5290 19714 34205
57609 2717 33155
38145 4930 22594
30464 6932 12522
32421 7723 37494
51353 2994 35441
21096 4334 30991
20089 9272 36792
37362 4664 44067
63032 7020 30753
67116 7651 34714
28324 7045 61892
27425 6054 56855
38739 9592 31272
21864 4221 31037
7889 15951 33510
49250 7267 30243
41947 1650 46909
65773 4990 35814
39958 1410 21897
39539 6109 24359
41352 5862 28042
27707 7803 64115
61601 8936 31016
42501 2802 47162
46470 2666 34425
53988 10541 34415
44265 3469 43430
32556 3449 30417
44024 4684 22933
18595 10452 33540
31163 6438 10875
43565 5618 30273
16990 10106 32372
46643 4129 30356
66565 6038 35871
33734 4908 44698
22731 4248 31001
37335 5061 46376
34897 877 27578
25732 9996 35951
26200 7168 60879
23489 7895 0
56048 9205 30924
45353 4889 38868
65355 4064 32874
33917 4675 25374
9046 16243 33532
41414 3303 47313
39869 3618 44319
47078 4823 30563
40691 5279 30245
39886 4638 24503
5661 12419 34033
3052 14815 33911
27629 2985 32382
4991 6337 34259
3382 8786 45054
3538 8708 44389
22099 7530 37544
28567 6672 8992
44905 3762 23101
61857 3138 35070
31070 10484 33089
34236 10466 33011
31469 10509 33196
18979 3570 35478
35069 5343 21946
34516 4425 25445
49712 2660 34342
35802 5154 20408
25885 7832 2664
44381 5524 30812
25286 7580 64096
29928 5721 30379
45866 3401 24337
4647 20263 34195
14175 7514 37187
9482 7319 30638
48673 10081 31999
39385 9970 31806
34099 4028 37564
36694 4690 21962
62066 2930 34074
33086 6412 11864
37300 5524 18873
46133 4569 22339
40717 1369 22337
41081 5066 44958
7088 13778 34192
41803 3297 30522
41961 4260 46712
45567 906 44861
19350 3161 33892
19700 3164 33331
45198 4755 37526
60256 7694 30379
35476 4715 44142
38229 3464 45269
29419 6264 55302
41599 1132 45925
32175 6074 13481
31231 7240 57080
38500 3977 27255
22665 10250 32345
13517 4676 35538
41948 3595 21841
36496 6074 44492
4073 8729 21064
7844 7802 36367
19313 5091 30788
45770 1456 46095
3985 8654 46113
63447 3942 35799
54717 7182 37562
38603 5741 28002
34059 3873 28680
35824 4402 42617
15991 6441 30648
20107 5924 37374
35913 10575 33968
42876 10557 34206
37716 10574 33984
34763 7037 30234
32921 5774 51980
44214 3831 37547
52758 10566 34090
41797 3501 37443
32086 2706 35254
15653 4708 31624
30286 5819 51463
28348 6328 55016
44815 2189 43955
24185 7516 64919
36199 6408 20522
45513 7072 37567
39480 6114 43466
41934 5789 38811
67471 6941 35245
66983 4800 34996
32332 4504 40357
41081 3616 46419
29204 3367 30680
39951 4227 44990
35235 6799 15476
35670 6726 16349
17975 3574 34928
15923 3960 34726
33702 5084 46448
27127 7906 65847
62781 3247 34908
10468 9821 33489
27910 5902 37468
41211 1294 21347
58951 7282 30247
6097 17271 34231
28613 9675 31381
35420 5347 19053
33359 6071 13918
3618 22605 33848
45343 9810 36242
30678 6454 10585
29924 4357 30432
42280 9699 31413
33781 6636 17267
8653 17007 33573
38179 3066 36953
9399 7431 29855
38881 4696 37567
40119 3316 37306
23118 3351 35949
40070 4089 22704
40658 1574 44708
41844 3264 45289
35756 6546 48876
35431 6588 49380
36902 5728 50165
33401 4339 29900
11439 6251 31284
46405 9575 36553
6642 8235 43404
21513 3305 35777
32017 5622 50607
23403 2683 33838
38021 2696 32751
39162 4668 43706
40421 3749 39260
20350 9624 36464
41435 5499 45986
37061 5385 39057
33796 5618 50836
34606 5436 49474
34165 2812 36224
41285 1374 46367
61848 9649 31746
36056 6099 45034
32905 5051 42451
11061 12206 34387
41776 4536 45970
33004 4572 42559
41159 5612 36756
25263 7706 67362
34179 5376 18866
33896 5407 18648
32632 7167 11143
42177 2533 24162
15091 9236 36627
6628 18088 34258
12066 9643 35744
34508 4347 41927
59022 5607 30406
32534 7106 9661
68993 5701 34025
39211 3148 20924
28068 6605 57986
26248 7060 6148
37134 4087 45761
56487 3470 31643
3786 8458 23831
62423 3309 35299
26654 10204 32229
32329 5708 30308
37649 5744 49474
34960 4599 30234
28366 7707 64319
64633 9127 32572
6117 9099 33307
46671 4742 37451
37927 5737 40399
45793 2776 23991
53520 4352 36901
31868 4108 37483
29648 10576 33857
38528 10575 33839
2870 18021 33806
52170 4282 36857
37306 4203 26170
34400 4687 42456
39686 3518 30352
28679 6661 10926
22294 7362 30247
48439 8658 37203
35417 4062 27166
27193 7405 6469
36478 6596 16710
59858 8257 30517
34498 2661 34357
32028 4548 26866
5300 8063 27446
54771 6966 30231
5771 7591 34776
38167 5996 18108
46103 9739 36336
60558 10457 34222
10094 13544 33442
35251 2740 27470
37500 3644 37506
28644 7620 3609
8874 7709 39828
7757 7823 40587
32593 5069 22026
32719 5228 24194
59460 2698 33237
56553 9796 36262
25657 2667 33844
41778 5077 21799
30327 5777 49099
30537 5643 48172
34799 3549 30357
34178 4329 42797
60996 10231 32651
31971 7239 57937
49202 5241 30480
46374 7867 37453
43356 1194 44259
41214 3105 43766
37536 5922 50165
24929 2780 34900
49085 4300 36928
57903 8225 30455
2665 17552 33967
13233 5536 31390
62128 10180 33541
46065 2632 33798
62801 815 33415
38634 3486 45062
22210 5824 30362
1820 17983 33888
37487 6393 50345
5758 7623 35630
41366 4531 45883
36226 9846 31608
12938 10953 33356
33524 5337 24603
61945 3057 32965
23251 3405 31776
45266 5033 29001
31901 6727 58148
7661 8072 38912
9962 5234 34698
34151 1180 41276
38882 5623 38583
11819 7229 36534
12871 12350 34368
36735 4220 22042
11943 5292 31956
31902 6455 11068
39497 2760 31942
41468 5101 46009
34731 4872 28640
24861 4711 37108
41891 2796 47331
44814 4206 43882
4137 17719 34108
40155 1329 22385
18521 4669 31152
22477 2774 34322
45403 2786 32756
12180 6710 30961
44837 4494 28920
12860 9877 32153
17573 3972 32130
19620 6013 37361
29020 6850 7421
25946 7447 62670
7826 5653 33522
50546 7572 37534
34413 800 26496
15063 8926 30960
22161 3103 35479
29701 6290 15324
51733 10161 32139
29772 3824 30436
29881 6008 53150
31966 5258 47081
26141 5241 37322
55867 2729 34695
60865 4018 31279
27144 3274 35917
65909 6845 31642
45752 7188 30240
40376 5472 22869
40078 5556 45437
39299 6129 20255
51875 2659 33469
33582 5788 22236
26558 2736 33080
48186 6708 30249
39440 3844 22534
33375 64 28548
5172 10732 33943
52180 6463 30276
32422 4794 41747
42593 4729 45538
57980 3686 36410
29646 6057 53477
9128 7900 30060
41386 5271 44417
4658 7587 32769
61482 8919 36818
31903 5682 47005
45729 1310 22861
28334 7297 8273
42506 2473 45546
30277 6160 51201
13221 7324 32028
12893 4868 35604
7593 7889 30656
48689 6577 37539
45626 885 22821
31955 5429 18197
36115 6818 37565
39941 2154 20967
36862 5540 45273
42018 4329 22856
34317 1484 41052
18883 5244 37048
53663 2739 34732
43464 3794 43636
4529 8141 41345
4174 8197 41460
3394 8233 40661
25453 8773 30661
32862 5937 20284
53956 5510 37382
30674 6545 57791
60963 9855 31822
37555 4406 42720
57141 10193 35601
29737 7329 58526
63083 4578 36449
35239 4052 40551
19570 3222 34713
41307 2833 36349
62659 5080 30971
36238 6617 51778
33839 1215 27098
44191 5861 30257
50977 8176 30440
30378 8946 30753
9393 9677 34227
36529 4098 26892
10220 9708 34869
41356 2950 46957
63465 3449 32803
6677 9008 35104
40470 5513 46050
6889 17596 34265
6092 9172 33854
5494 13468 34054
42153 950 22023
41823 2374 46367
34025 6218 20036
6673 19008 33618
10151 11140 34318
2838 8199 34646
60852 5379 30597
48518 9514 36632
33823 5634 16833
6223 7477 35808
11496 4780 33862
28196 3486 30876
36559 5192 38590
34747 4876 22732
16103 10329 34224
35536 1663 39879
27816 6697 9059
43439 5590 31170
36598 3693 37527
31206 5549 20810
10413 7767 36698
26234 4719 37113
27318 9721 36360
30156 6637 10982
38962 2094 22737
28539 7148 62440
53830 6202 37499
43969 2941 20386
45340 9695 31408
45386 4157 21889
13203 5024 31843
2098 20526 33758
46177 3246 36998
46898 8778 37139
44954 1604 46330
35708 2698 32653
58664 4889 30614
34620 919 39049
24744 3287 35935
16269 5112 36570
37817 5551 21989
5479 14503 33718
26007 6995 60543
11175 9650 35427
47168 2728 33110
28371 7648 5641
8265 8857 31910
8412 15925 33490
34104 1101 39491
9385 8709 31538
43848 879 22687
61637 7675 30563
45471 2798 46857
36208 3810 28452
40720 1655 21386
35871 3362 40211
45285 3534 47217
33788 3780 29518
31565 6825 14192
37694 5321 37979
41195 4210 22978
38677 5787 19173
61566 9948 35630
30912 10454 34842
30296 10480 34731
29749 10452 34854
57913 10386 32691
39244 3561 29373
47194 4497 37093
4706 6292 33921
38817 4669 23986
5542 17705 33595
41262 1071 45142
38735 5292 20913
52946 3355 36027
34054 5231 20039
39727 6792 37562
28099 7660 62365
39560 3494 46799
30789 6240 55474
51554 3999 31143
447 22342 33966
7044 7609 38361
38341 6019 49496
6611 8014 38183
38493 5926 26381
65445 7744 35907
12083 9391 36203
35523 5540 21894
32426 3967 29165
28226 8739 37160
64742 3664 33263
28711 10557 34199
29061 10565 34098
33072 10553 34258
40938 5250 44669
25762 7084 6789
16405 5284 31095
41859 3914 30248
41338 10229 35510
48534 10271 35404
45589 3590 37436
4693 13582 33997
37909 6387 48962
45885 4934 38106
25026 2642 33676
35646 1328 28792
39203 3533 38274
66766 4926 32529
65840 3928 34043
4712 8799 45423
35526 5672 17157
32521 6375 11812
41195 1647 21108
29568 6794 55480
33121 7085 56347
27922 9731 36347
65466 8483 32389
34665 3699 29365
64289 3555 33172
55869 4628 30730
22758 7019 37569
32165 4450 41384
57469 3230 31959
31472 4364 27135
40293 6794 30239
24653 7789 67820
22174 5373 37329
27810 3144 35769
20680 3495 35868
13533 10221 34169
38683 2969 31040
40786 4264 23341
34628 7059 37567
38074 6407 47852
46117 4279 37486
41179 1467 44527
35192 4602 43478
30422 6752 8620
40552 3554 20795
30836 5803 18053
33784 4780 27860
40139 4654 37568
35301 1188 39501
31942 6986 13415
12256 7725 36991
44983 9091 30833
37394 4207 45431
35051 1322 39921
9757 11525 34303
17321 8659 37068
41946 6591 30262
7518 7694 39552
5317 8058 41359
5784 8029 41447
41956 2054 20655
7703 13346 34220
26981 7181 60082
37831 6447 48388
33212 7064 55251
4721 14068 33790
32107 6460 51104
36162 896 40103
28837 2912 32339
31468 4638 25767
34180 0 41152
34298 9989 35963
24937 5764 30364
32511 6709 15764
18248 8521 30648
40111 3691 39102
39611 4109 41103
6334 6448 32449
4771 7575 34904
34955 4179 42310
56774 9489 31150
24511 4178 31012
7936 10635 33652
50969 8245 37341
19123 8989 30843
41859 4312 21034
44130 4753 22475
5406 7912 35559
29494 6680 8802
24457 9292 36809
31283 5548 49452
29945 7511 7121
2266 8937 47346
54258 10327 32541
45840 8973 30768
26097 7340 3479
43412 1634 43809
2761 8343 33330
38180 3893 27726
37935 4085 26739
4137 7991 28856
35233 3293 38560
11788 6054 31322
38275 5539 38705
33733 198 28832
63168 8994 31587
4559 8881 46474
32755 4200 40232
35238 1052 26656
40641 1771 46817
13295 9755 31836
15652 9771 31745
35523 2719 32188
4754 17706 34156
52609 3149 35711
37138 6505 50025
39827 6685 30251
25532 7701 3118
30937 7960 37425
37404 8067 37394
62195 10180 34176
12711 7397 31290
40890 2311 21044
42326 4224 21333
48549 3678 36659
33444 4747 27594
63899 3424 33907
7102 10588 33718
5482 17226 34191
10429 9316 35844
14965 4129 33260
37486 5857 26003
38812 4102 26550
45239 4664 22254
42862 2689 33110
43350 2707 32576
6092 8305 26933
5651 8476 25382
5995 8489 25201
31786 5755 30347
31624 5338 37452
31750 7012 13084
61581 10301 33621
47342 8413 37292
41219 9640 36467
15715 10276 34448
9947 7783 36621
37020 4449 42899
33221 5001 45369
7770 7412 37007
55011 2830 35054
32922 8706 30625
43711 4718 27190
44898 4383 29330
42276 10310 32497
41486 10339 32572
7370 7642 38933
21999 10553 34261
13048 9300 31325
34711 4006 30240
3636 6840 33012
48106 3373 31626
39666 5555 45945
3162 14316 33903
34378 3946 28061
10768 7069 31103
8047 14859 34289
3733 8107 28109
4148 8142 27035
28475 7506 7026
39842 4769 21807
2470 8025 33823
36753 5548 45837
47671 3703 30599
27775 7357 60449
23494 10549 33492
62861 8594 31140
33129 292 41023
14097 4315 33191
41818 4452 21421
6562 7849 31147
34340 10543 33413
41096 10559 33629
39562 8116 37379
36299 4024 27324
45535 3656 20675
31897 6856 14308
38437 3624 29113
49636 9481 36658
31748 4527 26125
5442 7562 35934
41634 5717 30048
48861 2683 34507
25501 2818 32776
47963 9325 31019
46020 3988 37042
29443 6685 56695
29838 6963 56116
38700 4156 41528
39233 3664 38980
36880 2902 31171
26069 8021 37407
6156 8930 32737
4179 7884 35214
11602 10589 33405
33576 5606 30249
39112 4936 22946
39501 4000 44782
28958 6070 15169
31365 5434 19629
30917 5536 19017
32572 4632 42618
14775 12383 33910
45513 4217 23823
5713 7965 37823
35610 396 40566
35204 6791 52181
24614 7722 67480
59498 10466 33014
15711 5593 36822
50560 7003 30232
38570 5618 28919
11133 5780 36113
32141 4195 38810
32368 9600 36520
63649 2894 33049
28198 6276 13766
28022 6622 11826
39848 3892 45181
3676 8428 32881
42251 3416 37060
61650 9760 35934
34352 5288 41838
34423 5219 41384
25866 8737 30641
29801 6724 12945
32945 4054 39518
31508 6551 57486
44370 5173 40193
10136 14049 34365
12730 4601 34604
13935 7387 30633
40206 6089 24018
41436 5913 26359
8076 8517 31711
36022 676 28068
10737 5296 32814
7157 6552 32067
34378 3686 38210
40382 4375 22574
33338 5671 22687
31466 5884 15126
32124 5716 16390
7328 5775 33450
45944 1623 23470
56940 3211 35812
42543 4138 44306
10398 12258 34361
30519 7112 60852
34695 5151 40686
34623 4947 39696
35588 5078 39188
30656 5540 20318
10959 9083 31546
35441 4826 44808
5884 10973 34005
45434 4536 44574
23085 4609 30761
42661 2652 33545
46772 3153 31210
41727 5465 22388
49036 7775 30322
4946 7629 31841
39813 5830 39650
39936 5748 38613
4314 7772 36632
29249 6928 60773
36336 4930 30335
9766 10213 33536
33735 850 39741
9916 16070 33603
37965 5233 37160
22673 4423 36912
53255 8356 30493
35825 4957 21935
19738 5385 37217
17594 4415 31532
28428 3905 30569
35897 6403 47302
34628 5187 20305
10144 7785 28319
36808 4598 43663
36245 377 40658
11114 11642 34385
4319 17515 33694
44075 4425 28482
59368 2904 32583
6066 8576 23882
8743 8071 27917
9733 7553 38797
18805 10432 34437
53774 4801 30653
39622 4179 30234
57997 9379 31062
35029 7889 37446
36873 7876 37450
28967 7869 37452
4737 18694 33619
22369 8697 30620
41848 3172 21372
29182 2672 33337
57408 6806 30238
29304 6147 52100
30792 5735 48417
39807 2561 20838
19798 10502 33501
8403 9630 33648
35226 766 28733
46596 10110 35753
49653 9943 36043
27447 6004 30318
32848 5382 48778
25429 7411 64777
49109 3209 35807
40040 5817 37550
33042 6908 37574
23175 5408 37343
12186 11219 34424
32056 5650 16954
3686 8060 35025
63124 4142 36087
7929 18107 33653
12796 8278 30849
46099 1274 22886
15421 6843 30598
6190 6254 32939
2311 16617 33894
33049 832 41202
5557 7478 35130
43860 3508 47311
35818 10544 33422
38751 5451 37602
11417 7302 30824
39319 4368 25467
39527 4243 26084
46076 9217 30933
33914 672 27642
8853 7862 37097
3390 21241 33646
30080 6108 54138
9012 8055 40167
31213 5304 49704
2307 8907 21457
42013 996 45447
68010 4894 33705
38125 2711 32421
6010 7663 37984
53557 10480 34734
64216 6767 36751
33549 6949 11176
5248 7642 31220
66077 7780 35486
66970 5090 35333
36304 6613 30259
7917 9454 34210
58596 3018 32305
44878 2534 43919
42758 1542 23714
62268 7496 30634
35536 5546 49912
6549 16544 34242
15883 10706 33456
34893 4638 45716
28324 7657 3086
3681 14380 33945
43605 2641 34113
28677 6755 55971
44918 3945 22736
28636 3088 31708
41402 5494 44914
5561 9321 33876
67202 5782 32319
6909 16944 34261
32981 2702 35254
32362 6004 48362
66215 5939 31793
25284 8370 37304
41131 5934 43551
16524 10264 33000
5091 12693 33999
28806 6119 52527
59296 3274 35889
7283 7990 29738
12703 13469 33577
3687 8862 45768
55306 2666 34414
24827 7613 1245
6460 12239 33715
33599 4624 39336
43804 1256 46645
34702 4448 42573
45624 6407 30282
39271 5971 26277
39023 6016 25656
12362 8521 36831
36775 5876 42605
14890 10047 33313
11274 8895 36479
46213 3258 21060
42906 5681 26875
44693 5389 29240
11873 10606 34407
63232 4231 31696
5359 11135 33970
43140 2772 31862
30852 5926 52828
42526 2590 24322
40259 1388 22761
35483 4229 30234
48528 4536 37251
3326 8800 20798
7964 7467 37692
33773 6078 20449
39118 6257 21094
12826 12775 33478
33762 3119 37036
14772 4461 35580
42698 5215 44835
4195 21143 33650
27253 3870 30988
23523 6634 30257
42374 10451 34859
33468 10516 34577
60381 10106 32148
38991 4617 45964
44718 3717 20601
34186 3643 29989
32444 6118 48979
52965 3019 35500
47273 4440 30407
33890 6143 47542
37176 7033 30233
2421 21227 34108
44631 4677 45915
41756 1976 43830
26088 7963 30378
31301 8385 30502
34504 6800 12624
41673 2398 20584
6721 7422 31557
38600 4548 43333
43356 5211 22615
61565 9325 31299
36964 5956 24715
32628 6524 11037
39624 5568 37486
13086 5266 36192
25603 7598 63959
53377 2655 34285
60416 3749 31416
50590 3067 35578
43413 2673 33528
3516 16826 34009
3361 6792 34589
28746 6271 54910
68988 6094 34182
9394 5324 34442
3597 18914 34112
38165 4164 45336
38033 6404 19488
41573 1822 20887
44806 5454 37143
7557 8166 25152
32201 3954 37281
22287 9406 31084
26504 6997 61136
41083 5200 30243
29577 7399 62797
33440 6605 11517
42586 3489 30370
32101 5909 52972
34624 2854 31293
46577 5181 30354
29882 7040 61102
2572 16280 33884
37218 5074 37562
36575 3067 30846
16371 8155 37163
38452 6303 21867
33084 10051 35855
41524 10020 35910
29391 6623 9302
29660 2961 36289
51639 4044 36694
45511 3189 36996
16886 4464 36177
42811 4564 21491
26754 10539 34446
5871 8349 41246
6487 8331 41178
5455 8609 43645
37198 6132 44363
5995 18660 33563
54697 10281 35376
40551 5368 22370
37717 6173 44476
31168 7347 59383
40170 8312 37322
41318 2683 34766
16404 10019 35686
31743 7202 11239
42364 4638 22967
35300 5312 48569
28464 7695 62882
43619 5467 40623
42284 5830 26796
43398 5649 27834
25629 5132 37295
31163 5639 17485
29905 7505 61744
14136 9641 36166
38141 6331 46231
52982 10362 32629
21733 7301 37558
50881 6387 30284
48576 8390 30503
15193 4124 32976
16656 3876 32637
39962 6034 46473
55384 8098 30418
32334 6416 11497
31514 3173 30789
35539 6318 46936
29866 7526 6261
39208 5243 21507
39341 5342 22777
33838 4582 42923
34894 5909 44819
30823 5801 51663
36116 5365 45941
33415 4254 30397
57666 9990 35962
27107 7456 2840
36922 5211 22517
7971 8196 40734
8542 8122 40388
5418 20779 34051
42883 4740 22361
4318 8883 21647
37791 5563 28393
38279 3029 45421
25446 10498 33150
33260 3670 30289
41535 2729 47388
46289 5912 30309
62962 9762 35398
12200 5158 32218
41672 1114 21883
39300 4994 45024
28261 3184 31677
30967 9277 36821
42049 4621 21654
58519 7686 30298
66895 4465 33235
58906 8352 37309
31773 5122 23630
66836 5762 35674
60039 10523 33622
37583 6234 22665
34327 2680 33089
45735 2005 47089
65446 6329 36347
49818 4617 30735
28766 2763 32973
41077 5379 21752
26068 7753 64460
9321 14315 33467
12768 13208 34256
9548 7910 38494
5617 7980 28269
32675 6843 9932
8783 5604 34978
13388 12221 33468
16268 9576 36350
33496 8718 37171
22261 9627 36485
38351 7382 37554
58516 8815 30683
38433 4934 45241
37050 5697 17879
38405 5314 45097
8029 8198 26960
8862 8035 28305
53196 3090 32187
36905 2694 35045
3677 8783 20700
29851 7200 6003
52852 7742 30313
43159 9041 36998
31123 5334 45982
46691 4279 37373
40587 5707 37959
9396 7625 31253
38581 6106 43394
38683 5974 41757
39051 5924 41032
40004 5902 40449
8580 7619 28600
34960 1943 27982
44007 8665 30603
64185 9539 32971
35000 5895 52132
36578 5553 49459
35627 5708 50794
24159 10232 35502
38503 6358 20633
36635 3586 29659
45113 4655 22832
35100 6533 13418
17445 10411 34123
42503 4237 21852
41182 1150 46116
39836 4300 37568
62004 3809 36146
43652 10024 35903
49000 10149 35684
35250 4142 41037
32044 9827 31582
30040 2909 31631
8425 8120 41879
52845 9404 31082
35765 4519 24687
33527 1014 40994
34104 6936 54969
29437 9503 36641
8747 7179 32273
31683 6847 58770
38384 3545 21986
59502 4202 36780
15674 11438 34035
48955 3196 32015
28575 6170 53318
30209 5728 50168
38177 9806 36247
42126 2681 45612
35148 8330 30486
34025 7861 30348
54544 6521 30269
49745 10233 35500
31490 6019 49163
40407 6935 37573
38458 2919 22184
24000 10295 32459
36089 5278 19712
44968 1556 21275
18473 3834 35729
60945 8979 36866
42544 10409 32761
45352 10412 32777
44188 3669 30286
34069 4755 43939
5498 8166 25257
5777 8108 25603
37754 4851 45000
42168 5805 30251
42860 1861 47000
38164 3473 45966
27651 6203 11235
25028 7353 3800
24083 7586 2392
33262 4048 42723
38762 6263 47700
51146 5387 37355
32132 7015 58888
42772 5576 42249
45356 2506 22441
58821 9782 36279
15921 7058 37263
46773 3294 36938
33381 5928 46879
7039 8896 32285
40918 1965 46492
30919 5843 52049
35074 6558 18642
31899 5275 44851
40269 2411 44047
23274 10577 33941
14409 4851 36049
32794 5141 43057
37491 5493 45140
9435 7852 30367
25119 6263 37504
31794 2731 32409
27733 6765 59330
45024 4191 37982
41213 5967 24571
41777 3831 39175
58625 2929 35287
41346 7601 37526
41379 1779 46838
38719 4049 45957
19987 6892 37515
42289 2401 20422
66476 4193 33580
38586 2135 22046
40684 10407 32755
32974 10402 32734
48973 10431 32860
37158 4786 44724
20631 9063 30825
16388 8957 36880
29669 7550 30263
36142 6639 16023
16151 5922 30818
28616 6554 10082
31759 3778 37470
29178 6471 10637
33161 5316 48289
31061 6061 54072
8874 15101 33478
30278 6229 16248
60591 6810 30354
44369 4024 29787
42756 2970 43449
40834 5874 27963
67137 7114 32442
37998 5613 19071
66876 7834 34481
43296 5225 22119
61274 8012 30603
26879 7149 5046
31945 6302 50517
47130 3889 30427
27056 7568 37534
44032 1431 46856
35096 2649 27948
9532 9722 33745
42366 4500 44372
44918 2724 45085
44523 1606 20797
27529 7167 4821
42006 5864 41744
42782 5764 39862
44826 3792 23544
40180 2924 23793
41729 2610 43693
24891 10075 31989
30371 6374 11296
42462 3190 45698
50652 10542 34402
35207 2170 28195
30872 5221 18177
40320 4740 24264
40668 4499 25406
35222 5414 45459
43749 5443 27326
7507 11550 34146
28949 7592 61481
45523 9285 36814
34550 702 40212
45003 2561 24433
63251 7356 30848
31704 5093 22817
8044 7733 35728
27441 3159 32061
43617 3203 24382
34689 4082 27227
30310 8388 37299
40561 4567 30234
26784 6734 9749
45146 2653 33548
44975 3472 21092
8766 7964 38245
45367 4204 45756
44943 1335 21991
18885 3499 32484
66471 7248 32170
46028 9682 31390
35557 628 28829
34246 607 27093
53350 10456 32966
47910 5468 37380
33094 757 26577
46948 9577 36550
2972 17019 33830
64862 4359 32200
45008 4244 22185
28629 5956 11040
11889 7556 31578
54697 10479 33066
57297 9423 31098
29134 3729 30485
35428 10479 33066
41050 10509 33196
14662 11541 33542
31651 4478 41367
45317 2635 45099
42819 6603 30260
27042 7454 61760
30017 6640 13641
33001 6678 51408
51865 8364 37306
39078 1514 22305
41314 3995 46759
10759 4980 34188
33894 5184 41879
45437 2796 20944
45055 2869 36044
54201 9511 31167
30633 7421 59957
31850 6145 18161
37486 9381 36738
9565 8560 36374
24209 3304 31860
25810 8793 37131
26823 6870 59990
36677 157 39372
38959 10213 35551
38713 2088 45201
52700 4319 30922
20310 3336 35517
35655 726 40016
67454 4652 34382
52559 8142 37372
25472 8008 66761
57049 2641 34115
68507 5143 33916
40841 3304 20939
25584 7325 5395
50304 10456 34835
30055 7484 7482
26624 7909 2376
2859 16608 33953
36097 5792 25054
18859 6217 37331
35557 5854 43713
6489 8419 25726
40403 3603 44021
32990 5376 44054
41751 4307 41070
42218 4067 39858
11722 15021 33773
67905 5929 35112
25092 7283 4599
27806 7241 4449
43726 1496 23919
29645 6453 57094
2317 21142 33719
29265 10334 35243
35085 9214 30931
38545 6020 25452
39929 5871 27708
9858 7430 37966
29720 2884 35743
49120 3962 36645
53249 9327 31021
35262 1586 40429
7147 9250 33087
34084 5061 21394
10432 7306 37137
39639 2035 46724
33611 332 40587
28495 7341 59615
35333 2964 40174
35096 3835 29588
44517 3343 20446
34340 6484 12755
37431 5206 20634
35300 4095 25309
25877 5024 30554
38680 2169 44527
33117 5547 44777
15936 7440 30517
28684 4375 30518
4590 8473 25580
4907 8513 25158
36123 1630 26807
55371 10567 34066
28074 4125 30610
68267 6107 34875
16964 10353 33434
50349 10431 32859
41606 2963 36735
34520 1938 40089
43474 2709 35351
33890 4189 40833
35609 7217 30241
41009 4425 45086
30521 3759 30392
25594 9272 36825
46372 10212 32249
62914 5905 37002
25283 3319 35985
6933 8187 43077
41653 2993 24295
38260 4368 42599
10951 8148 36696
54392 5502 30422
18813 3729 32125
21664 3583 31645
32582 7128 37565
56231 4819 37156
53244 9675 36421
57988 3977 31161
60569 9410 31190
37718 4604 22482
45760 3973 30615
31957 5838 52388
33105 5518 49951
42809 4174 46907
4843 7867 38581
42128 3265 47389
40204 2756 31974
26292 3034 35525
45360 3251 23889
5064 7999 40497
3886 8370 43066
31980 4723 37487
48029 2629 33973
2089 22024 34110
11142 14223 33488
14018 10228 33533
44207 1601 24037
53909 10560 33640
33780 5282 48123
8553 7743 31891
28218 6310 54178
29089 6017 51681
36403 6015 16271
30524 6855 12984
35668 1947 27667
40305 4156 21839
37967 7212 30241
41113 4776 22822
62601 3576 33997
24706 7576 66116
40914 2816 31561
39505 5571 30185
36364 3637 38407
27939 7615 61997
57267 6832 37567
4362 8829 47300
32060 4239 39211
4202 8180 27821
5247 8185 28063
33599 1200 39018
33017 4500 25635
11594 7559 32330
3115 8415 42377
2926 8534 43499
53790 2865 35137
53687 3552 36254
63208 5293 36786
31367 5734 16563
8144 7814 31273
56296 4774 30665
29663 6847 30233
37759 3055 30870
51861 2761 32980
17858 5851 37136
46251 3509 47085
44298 10568 34057
48733 10544 34375
20892 5909 30358
29481 5385 17813
42625 5724 29403
9978 9228 35901
31305 6260 12102
22283 8894 37076
39541 6034 42215
40014 6012 41798
35950 1615 39190
44424 2447 47379
27244 6617 56882
32507 6149 37503
67162 6723 32269
32812 6277 18375
31814 6532 16024
34488 1463 39911
46683 9057 30813
17262 5208 36780
18593 10113 35605
54235 9072 36981
36896 2652 34245
8822 14123 33488
57984 4200 36806
42949 1039 46135
34529 4514 30234
38145 6375 47151
49897 2611 35489
37405 4012 27159
24484 8682 37190
28478 4889 30595
8883 8290 31472
49191 2769 34856
33337 7000 56853
44528 2832 20384
22541 6387 37518
31711 3002 36762
18935 7033 30340
6900 13478 34169
35221 6769 15941
30534 6079 13669
35186 4574 30836
35815 2668 33360
40658 5490 21993
39474 4129 46102
29262 6958 30230
63420 7462 36883
33068 6268 49099
7232 7859 36801
29732 10069 35824
56140 10207 35565
40617 5109 37561
27384 9490 31151
60097 2658 33872
11247 9374 31814
39716 3780 39613
38744 4434 42787
16367 3867 33109
52863 10561 33649
66075 7260 35831
4256 7926 37893
33156 4408 26071
30215 6692 58894
6052 8856 35185
39818 6137 44374
41775 5893 41393
27926 6864 60388
41000 5734 45412
37587 4914 22379
38995 3607 30313
44661 9702 31417
32249 6311 17579
32028 6513 16353
29705 8789 37133
31428 8727 37166
6426 8144 25035
8337 7698 28067
40714 5928 45237
25459 9696 31409
41329 3493 46201
11344 7275 36904
13999 8498 30807
10410 7216 36651
32352 7074 30235
6396 8257 40467
4822 8687 44289
66204 4929 32282
35809 505 39263
32390 5419 48755
9568 14340 34345
44928 2878 22441
41131 1287 22532
15574 9974 35735
34366 10329 32546
38649 2896 36622
33982 4969 27174
44985 3372 30490
31777 4822 24434
6292 6206 34775
36794 1251 39343
32821 6016 48048
21135 8229 37346
38403 4804 23276
38528 4586 24280
35297 4409 42465
32073 4047 28910
48844 9875 31646
34003 1107 40856
17000 4739 31350
10661 14172 34348
5845 13998 33706
16627 7341 30476
39882 6143 23254
48353 9257 30966
30547 3109 30944
47629 5184 37370
55339 3697 36418
12932 13745 34119
21471 5574 37379
41987 3120 22127
35930 3820 39396
3296 17879 33771
63317 9780 34878
718 21867 33970
46007 4357 44314
35575 5999 23062
47737 4396 30470
36428 3428 30491
6278 8126 32071
52070 9854 36184
7618 15325 33526
35178 3247 37211
3224 16721 33820
57161 6450 30277
59035 7054 37560
11423 12829 34406
58262 10475 34752
59213 10546 34344
62105 447 34639
13809 4296 33721
37155 3608 29481
27576 2850 35100
33866 6719 16702
29551 10204 32230
11299 9948 33605
41581 5473 21739
33422 712 39493
60001 9587 36492
9861 7126 31921
62669 4769 31140
10703 7692 31122
45106 2979 31177
1676 7913 33761
5109 20206 33627
42098 4690 22588
9359 6583 36264
32305 5368 44855
3129 8484 42725
2915 8608 23442
3862 8393 24498
4524 8010 29287
55144 8514 30540
62294 5374 36989
42247 2428 43536
27354 9122 30858
37871 4826 21870
41125 2497 24127
18585 10229 35243
66161 5907 36023
56432 8544 30549
7106 7608 29406
29554 7486 7671
25234 7308 5046
39200 4396 22641
29576 6119 56631
42311 5707 42175
37223 4549 24361
28569 6933 57168
9567 7869 29922
22200 4755 30707
32188 6111 54560
32002 6154 54887
60731 10164 35406
38256 2093 22231
42914 4619 23081
35707 7757 37485
28606 4336 37257
59258 5638 37390
35459 4590 31076
54268 3005 32335
32864 4887 23596
44399 4594 44520
7689 7433 30661
36552 6481 48026
36319 70 41212
37371 5080 30793
5364 8223 43000
44917 4045 45025
34016 3909 42533
26108 3935 31194
41211 4677 22300
38394 5254 30995
27580 6589 57326
42127 2908 20475
41178 3399 30309
34152 6249 47779
9508 7366 37500
43059 3137 37061
7188 7542 29986
60562 6648 37429
25115 7280 63192
33765 6961 11937
30208 5364 49614
34820 10343 35219
30414 2683 34684
24638 3009 35479
44314 9239 36851
48269 4392 30537
31523 2638 33729
40839 7979 37419
36163 4878 22508
7820 8794 35833
24744 5204 30488
28812 6317 12265
36956 9521 31178
35267 3568 37734
11442 9656 34365
17515 9246 31078
8006 8073 28823
3959 17939 33706
32524 6796 52593
35935 1190 40704
16824 6530 37250
4598 8789 22588
5021 8581 24495
34200 6723 11997
51557 7401 37554
47865 9514 36632
44894 3466 23413
24547 7617 65107
31496 7165 56222
5383 7511 32560
33833 1521 39616
41145 3931 45325
32328 9283 36816
378 21713 33925
5671 14712 34116
42520 2989 45108
58212 9684 36409
26858 5668 30385
33296 5984 20377
41695 3792 20807
9667 11076 33518
36298 5876 43135
22145 2747 33817
19900 10364 35055
35278 3509 30365
34204 6306 54575
51268 4379 36918
33450 5225 47588
4275 13186 33852
29440 8267 37335
33506 8389 37299
52297 8079 30412
35984 5506 49498
33679 6084 53815
33885 4199 26919
24330 7629 37519
25738 8469 37275
9503 9436 32564
3787 8140 39777
3620 8427 42119
62099 569 33126
28457 5030 37254
34194 6435 48854
39749 2911 20812
32959 3549 37451
30078 5233 50052
36072 5615 17741
35098 5845 15990
4374 8773 20755
46442 9058 36989
29400 7198 57873
34508 241 39501
36279 5045 46618
26704 7964 66366
30983 10166 35655
35727 6011 15613
49456 9822 31575
11018 7642 37909
40160 2686 34846
18630 7852 37353
26538 6941 7244
26757 10349 35204
41112 5619 22386
28904 9873 36159
46125 4121 30455
37371 6413 17311
44663 5683 37538
20970 9198 30919
9694 16449 34157
42649 8143 30431
7379 7820 36455
66649 5628 32081
35038 6379 54052
62812 6732 30697
21711 5123 37257
11614 4903 32931
28080 7343 30246
21420 7765 30320
23831 5599 30403
22039 9914 36094
35254 4675 37421
36983 5872 50520
53488 9716 31435
5947 10219 33986
4806 16258 34104
30703 9505 36640
38678 3338 23368
36924 6078 44135
59762 10252 32375
12399 11455 33368
4821 19538 34199
39573 9746 31475
32393 7154 57976
28333 6523 10495
9265 7194 36068
12186 10041 34450
39454 2036 44420
7010 7665 38875
45930 1941 21203
35979 5564 26458
32340 5448 45225
26536 9466 31132
30175 10018 31890
45153 3324 20508
23637 7768 67585
66590 4507 34859
35734 4907 45473
23549 4068 36688
24883 7815 37468
27493 7751 4312
23984 4694 30709
49569 4609 37063
32975 685 28322
32385 4744 26266
29341 7060 61534
38275 5800 40588
39172 5794 39681
46303 1683 23723
36979 6535 18592
36218 6599 18130
6232 11724 34055
47863 3298 36247
13131 6357 36889
1291 20683 33836
34752 3559 37520
46353 4521 45227
43996 1272 23706
4140 8479 25407
4873 8257 27387
3713 8522 24948
5394 7906 30378
52450 9688 36403
6434 7255 31982
6139 17924 34238
16674 7700 30507
32521 6974 58330
29964 7504 60602
5751 8180 24915
3308 8659 22192
9612 12534 34325
22755 3795 31362
29020 7169 62329
20800 4246 36711
36379 3706 29001
42970 10367 32642
29752 6106 13773
63779 3222 33042
5969 7673 32423
34559 2685 34831
3087 8804 22516
65119 3686 33600
57103 10318 32519
44384 10189 32192
8704 14572 34313
41055 5932 41330
41885 5805 39223
12586 5700 31415
29174 6437 56869
44941 2355 22061
15840 3928 34379
33310 937 28100
36068 5606 41508
21144 6589 37540
34987 4419 25035
27291 10065 35830
43053 4203 39780
35945 6665 50624
37219 6463 48121
17211 10242 32752
11618 13216 34371
11356 7629 36581
44135 6260 37505
45631 867 45536
15072 5534 36685
34875 4728 23676
31367 5387 17690
18075 9706 31540
36571 7436 37552
55512 7515 37548
48148 2835 35065
40625 10137 32097
37177 9995 31849
32006 4601 25616
38721 3863 21466
42426 4771 25997
43023 4546 27147
68477 6974 33613
21406 9821 36228
45685 9413 31089
23431 10457 32970
30823 6731 58870
43393 4053 39070
26004 2642 33676
14287 8402 37027
3321 20505 33657
39232 7689 37503
12635 10152 34018
36605 4944 45868
41675 2027 23056
59333 3849 31279
35645 3014 27555
5973 6597 35387
37933 4175 26269
31233 3490 30445
9192 13706 33477
35464 3637 29492
39199 2999 21315
8719 7399 37613
44001 4601 39979
10909 7631 35871
31226 5592 17934
36836 4969 21787
14669 12103 34146
25133 10552 34268
44101 4622 30234
59599 5929 30366
29486 6945 7029
49347 7772 37481
38429 4572 45923
19970 4980 37053
20131 3003 33904
56416 5937 30326
62666 597 33980
40340 6008 25708
57777 2638 33726
35668 5479 26588
31984 4148 39580
21678 8547 30550
26387 8010 865
63037 617 34712
58473 10427 32842
61286 10086 32401
31393 4813 43017
38373 5370 20260
2658 8945 46534
39566 4999 46010
36704 4891 36809
38764 5827 40341
42595 2067 23898
31941 7037 54809
41807 3520 24089
33409 5892 52784
58438 9845 31606
31544 5742 18117
43076 10579 33887
35072 10564 33698
30863 7389 7982
28346 9908 36104
20481 6385 30310
34369 6520 49280
43092 1447 23822
18634 5870 30585
34890 4759 38334
37140 7672 30295
50392 5612 30398
38790 2921 21500
15608 9974 32066
36011 4375 45582
18918 8006 30481
66031 8489 32998
7263 7756 39951
5376 8147 42271
3820 8521 44674
67993 6785 32859
30593 2871 36209
4472 7598 35343
35047 6757 54087
63913 3826 32398
6591 16496 33560
54501 5507 37381
51253 10117 32061
60460 6365 30385
6656 19637 33738
14953 6083 36944
43905 3910 30248
63483 9655 35264
37224 6325 51151
33240 755 40095
2664 8676 44403
35732 9595 31276
63893 4397 31748
31549 4315 40419
37065 3895 39915
42601 5782 40580
33439 2714 35535
31159 5902 18871
20919 3198 32335
36712 5250 29090
28867 6504 13346
36900 557 40795
21893 5188 30521
6696 14460 33621
51493 9643 31339
33625 5 39073
44967 3422 46468
31715 2680 34733
25466 7846 65604
11304 10787 33415
39771 3195 37141
39792 3573 29240
32144 6247 12403
31343 6343 11533
31085 7358 8301
41553 4091 27475
37833 2635 33759
42257 5754 29330
42700 4337 23158
35570 5488 18257
34944 4932 22252
38239 3474 37900
41753 2747 35768
40599 3934 45068
39352 1656 22891
30763 8792 30671
28334 6320 12916
23325 10449 34866
10391 5678 31930
42228 2922 45360
46520 4242 45920
68414 5636 33169
36650 5366 28399
31880 6379 37517
39110 3444 44848
23363 2934 35058
6122 14475 34146
44111 6693 37552
25396 7287 4255
57065 3340 31793
5953 7486 31976
46626 3622 37384
48926 4079 30863
42832 3814 20637
1828 19169 33849
45814 3629 43553
29528 6694 59119
3012 8864 22016
44798 5439 29937
33895 6825 52179
30998 2894 36444
22749 3283 35830
40636 3866 28094
40067 4054 27087
26438 2708 34610
44407 864 44951
52230 6616 37543
34319 91 26630
3388 8325 26065
3494 8213 27228
9713 5377 33178
36735 4275 41980
38605 6223 23009
5703 7819 36643
31794 5179 50043
6155 8046 38412
45994 4457 46125
33042 4817 26722
36953 5629 40764
36282 5679 41773
38791 3512 29666
45662 2901 43827
35065 3773 28774
30926 9765 36301
29436 7272 5353
36175 5478 40606
14133 6120 36883
35113 4719 37831
8638 8005 38706
9673 12545 33476
59765 7476 30300
45647 2878 32257
41322 1085 21826
37758 6305 21977
34530 5870 22894
41799 5823 25159
66104 4446 35019
52618 2751 34781
41061 1971 23737
29515 6534 53931
32092 6269 30297
32292 6683 52087
15691 5361 31148
40695 2291 44155
9089 5623 35169
50557 2649 34211
64524 3488 33710
27809 7099 62425
27173 10532 34506
35500 10473 34763
37373 10436 34922
16700 9932 31941
40949 5542 30249
57699 4609 37063
36438 6607 17766
37350 6475 19341
30620 4124 30391
44384 4942 27495
44715 4839 28056
35106 3474 27409
44121 9884 36145
34679 5064 21264
57868 10202 35579
35626 4465 25447
27300 7863 1955
46030 954 22133
58389 5685 30382
10452 5008 33895
59928 3810 36466
30141 6473 10495
57360 9291 36809
17951 4392 31484
12428 8835 31101
58150 10566 33718
46222 5182 30692
43546 1605 20813
7231 11954 34138
33939 711 40599
27542 6636 11187
36538 1008 39680
45895 3399 37272
4482 8336 42481
48544 2637 33743
61772 3731 31664
26818 7349 61331
56489 7144 37564
53948 4754 37128
62579 3308 32562
33164 417 40646
42132 3654 29504
2136 22074 33689
29381 2625 33916
28424 2638 34077
31227 2629 33978
42730 1899 43695
23556 7762 66890
7016 7036 35913
45684 5073 37498
5769 8074 28658
42517 5362 22652
44787 5338 38665
35664 5599 41916
54598 8290 30474
4316 18322 34145
32278 9306 31004
7200 13498 33615
62270 3069 33108
46318 4135 23184
42958 4504 44360
3033 8419 25567
3087 8627 23926
30311 7395 58967
37102 5229 20359
35786 8426 30514
36233 8386 30502
4457 16305 34072
31674 6124 49655
35768 1584 26772
32302 2641 34108
25608 7650 66856
37135 6264 45554
5973 8472 44864
41625 6214 30292
63846 3100 34767
26226 7417 5554
31913 4609 42195
65123 9318 33753
41864 4493 26060
42745 4009 28469
33114 4955 44803
32483 5515 22435
41888 9909 31699
46654 10076 31990
41372 2841 23689
40417 1529 23088
30730 6859 54615
34353 6083 37523
6066 9730 33825
32548 4951 42392
39932 3598 38710
62582 10095 33492
37021 7121 37565
31190 5798 19448
67829 6415 35165
36751 6300 30294
28697 6403 11497
41915 4006 44056
40052 4475 45980
26074 7715 3596
40631 3463 29850
20438 10533 34276
12113 7054 35658
10397 7288 30795
4634 8651 43916
4014 8843 45638
2501 21739 34125
7941 6165 35630
32687 5780 46503
2164 19480 33997
27835 7742 4461
8444 8000 26372
16036 10336 33628
57409 6217 37500
41876 4729 45531
55927 2625 33918
40443 5683 21743
10671 9646 34313
32118 6756 37558
12287 12483 33412
28273 7711 37497
16933 11055 33900
43438 9604 31287
8959 7909 37648
36806 1224 28397
5469 7715 30043
16565 3767 34265
31131 7049 55411
8749 7719 35714
42577 2946 24088
30508 7317 6384
11052 13345 33411
43892 4500 21847
21956 9452 36681
26890 7162 62870
41975 5221 22922
19817 3906 36197
17965 5290 30858
44149 2686 34853
33669 4490 29374
51339 2768 32951
61379 2907 33340
41569 4654 25349
41148 1992 44025
47497 2807 32802
6164 17416 33567
37672 4027 40737
59359 10447 34875
22380 5479 30444
38928 4157 22186
26938 7743 63681
62834 9098 31521
43311 8389 30503
26418 7312 3678
32005 3224 37103
41375 3734 22184
47384 5313 30408
33647 1496 40644
41479 4522 44575
43135 2619 47410
48875 2641 34112
34813 5359 37554
8515 7472 29633
62373 525 34280
26371 9972 31808
58646 10575 33838
55916 9800 31546
31037 6790 8681
31065 7346 58600
0 22552 33874
6913 9223 34029
35977 5254 28157
34745 5571 24955
34340 5362 25556
40406 4579 45034
40895 5964 25881
42729 5753 28312
52448 5838 37454
34067 1604 28455
3569 8702 21557
5781 8105 38947
42297 5406 24189
4153 6937 35077
37918 6276 45489
11017 7693 37113
42453 3647 29702
7581 15022 34264
36047 3530 37780
65693 4477 35277
13740 10559 33335
29070 7630 4887
5197 8318 40843
46097 1453 21690
35653 6705 15160
24616 3349 31782
29956 2787 32566
33270 6330 55394
28216 7063 58316
34268 5613 17018
18178 9182 36788
11584 11094 33404
11978 8005 36888
29056 6319 14528
53649 8677 30609
34573 5359 45825
31117 5284 46333
37588 5837 37548
8656 7606 39120
27578 6034 37486
32769 5659 49913
38981 2229 23377
3429 19910 34135
18316 6682 37380
11989 9066 31327
10986 5062 35074
9524 7656 39401
40155 1646 21370
31909 6086 49228
10453 7691 36320
34106 908 26944
31947 5912 14820
26635 7093 62144
29159 6045 16067
56883 4145 31032
43681 4583 27612
34626 6626 17840
14225 10210 34499
21992 3933 31264
3819 13723 33935
40950 5909 23529
6773 7805 36247
19514 5399 30604
5814 8584 43681
41347 2753 44587
36270 4761 23318
6152 7983 29950
7868 12788 34214
44899 1291 45695
9705 7570 28892
55900 3933 31196
58971 4220 30987
29583 8810 30680
36658 4100 45734
30010 5217 30462
29757 5945 15547
30561 5747 16841
10608 12169 33433
60475 5555 37288
30047 5787 17130
28095 6011 11173
11409 13906 33478
35935 3931 27605
43695 5391 37554
21475 9855 31618
36283 637 39264
42740 3498 24245
44788 2819 43344
43438 4465 23534
5053 6344 33472
59772 10488 34674
29551 7568 61755
13522 10055 32616
14569 10135 32785
34705 6822 52343
36604 6582 49729
35167 10099 32031
1802 7435 33525
35821 6333 14640
3402 8963 21138
12939 4597 32903
28947 7394 4396
47666 10459 34821
38901 10512 34593
38232 10498 34654
42979 6915 37573
40638 4274 41483
24305 2885 35117
27046 7728 66446
40877 2714 32358
7282 7799 40384
42352 2634 21861
37760 5551 45833
7362 7719 28126
6194 7970 26608
3756 8498 23399
42555 5170 42990
52484 3276 31885
9630 7077 35250
30036 7696 30301
33567 3849 29155
36277 5175 47430
63349 3701 32269
35893 5030 29235
36271 5666 26113
35626 3619 30308
51321 7376 30247
31445 2688 32879
6838 7430 36187
45847 8661 37202
25477 10526 34532
66097 6480 31703
7538 8210 40342
7002 8403 42554
28913 6040 52177
29706 5879 51330
23582 5448 37356
26984 6739 30245
39847 6179 22397
15142 7928 37168
60591 10301 32687
38012 7639 30286
35963 9226 30941
23574 7673 1392
17997 9668 36291
10220 12760 33444
37079 2780 35998
42852 1391 46739
7207 17082 33528
9166 16205 34270
21411 10302 35325
27146 3349 31694
18317 3899 32024
