ply
format ascii 1.0
element vertex 2586
property float x
property float y
property float z
end_header
48024 9281 38159
34970 10107 75420
33698 6739 48202
5776 11710 49965
6368 11749 54769
32376 8393 72829
31333 8467 72031
30037 7812 22999
30727 7757 22670
30094 7712 24545
35178 8239 71784
33558 8281 73121
33132 8361 75009
35215 5873 43340
34589 9276 255
29785 8488 69592
28635 8617 69547
50791 8237 47674
31573 10274 76974
31728 8162 68015
30425 8388 69194
7890 11342 27478
38162 8857 12028
30833 7564 39340
31939 7766 39335
29441 7514 53457
29379 7583 54495
30173 7436 53502
38197 8262 37229
41143 8783 37878
22821 8327 44365
20916 12203 43789
28505 6269 39276
47847 9179 44165
34831 6494 43567
50843 11073 34870
37765 8755 8979
38156 8436 24478
34938 8432 35025
35388 8501 6197
38065 7384 45539
35800 8342 74882
2172 11147 50803
2325 11177 54741
5442 10128 40484
4470 11018 26918
4327 11024 28258
8276 11031 42076
34182 6472 39190
29855 8458 13335
37269 8003 17948
36474 8556 50406
19282 11089 43689
17281 9473 38690
4494 15424 40703
24238 6536 44616
31037 6982 47627
29605 7533 36780
33637 8415 75932
25791 17407 40052
35134 3691 39993
36137 7882 17327
29007 7159 46301
33789 10187 75719
34249 9999 72662
36472 8133 38355
49905 8187 41746
30076 9785 612
34370 9528 15822
33939 9575 14844
32860 8141 12902
33016 8262 10714
28605 14527 40914
26518 14764 43319
25911 5375 37961
3918 11450 53590
4747 11593 55972
9876 10538 39721
8539 8995 39932
12009 9235 39388
45040 9179 38725
2477 11202 54279
2614 11225 52402
2871 11271 54934
30583 8838 6298
30402 8911 5501
35272 9779 12255
33906 9789 11405
35439 10430 80451
34963 10262 77917
31522 10391 45025
3660 11055 31505
2957 11088 32705
2692 11101 31542
36246 7455 57340
28974 7814 24872
31073 7663 23594
18327 10815 43567
25256 5474 38329
42540 5858 40912
15444 11519 44053
30928 10139 45020
3163 17606 40837
6817 11749 37392
7979 16835 41277
28631 8681 12081
29617 8679 10432
23951 13599 43992
30456 8361 74800
28964 8512 63534
29520 8705 64969
37646 6838 41594
32846 6334 43331
37456 4461 39200
33885 8931 766
2511 11496 40764
37362 9908 76371
28501 9410 1630
28555 9358 2288
37565 7544 28040
36446 8292 70510
32367 7203 53640
31247 7503 56558
5350 15743 40650
28309 6121 37453
33293 7595 20718
32556 7665 20902
34337 6739 47853
43739 6328 39159
34147 7140 54472
33776 7142 54704
37755 8998 19987
35474 8140 70058
35109 8288 72619
31664 8334 74451
42064 5394 41580
37762 7889 57487
3604 11381 32305
2188 11136 30695
35670 7987 14700
16414 10678 38794
24299 5639 39194
8828 9624 40538
33603 7308 24853
32312 7533 23489
30026 8195 17013
29505 8364 15331
19444 6468 39446
30521 6467 41202
31945 7804 38720
32525 7940 38197
27710 5204 43155
34682 10042 7707
8686 11886 41442
28249 5180 43216
51582 9675 41645
37859 8827 61677
34280 8905 56274
38015 217 48176
30187 3903 42407
6033 11950 40543
27766 15652 39416
30494 7382 29216
32363 8245 33768
31908 8260 31604
36630 8493 73384
4384 11019 39074
3980 11038 39176
9488 12365 41756
29661 8166 56031
28664 8031 56790
8675 8321 40991
8209 9648 42065
33335 8257 72485
32721 8294 71903
34619 6646 46170
31690 7239 29404
29314 7360 44007
28676 7158 42622
47490 9379 43695
31690 7671 42106
33301 8128 44767
32355 7786 42006
33610 10338 78181
24385 9236 37543
41087 12165 39554
19929 6570 43875
2604 11101 52865
2184 11121 49921
36492 10074 37229
36724 7105 31564
36382 7197 29235
30849 9506 37203
47339 9341 38214
18747 10736 43622
36241 9744 12411
32217 7677 21307
32325 7574 22794
6484 14228 40611
31503 7563 58020
31292 7539 57250
21914 11673 44105
27854 4421 40651
17366 12812 42064
8867 8389 40047
30544 8394 75358
24889 15273 38958
38878 5431 39551
40540 5615 39697
41296 5708 40302
39566 5525 40675
4670 11007 35616
4695 11006 33863
7359 11163 41324
38058 8663 13439
29561 7613 46643
33191 10302 77555
4177 11031 28705
18696 8812 38999
6006 17065 41331
50821 4411 40364
50823 11254 39746
50822 5633 40227
50823 10523 39774
37389 8897 23998
34488 8325 45606
33469 3634 42136
33114 8304 47391
33240 8285 46663
37382 1335 34170
36983 8223 13586
37877 5866 44874
47489 9678 38334
36577 10212 76324
6662 11065 41376
35916 4488 43087
33262 6662 35931
36238 10166 5462
37948 7136 38301
33460 9019 23116
33373 9082 21809
35822 8921 26307
37043 6954 34808
22810 7415 37800
27181 6125 41930
33631 8661 29551
3285 11329 36975
2735 11233 34898
37349 8491 70443
38063 9480 77859
37673 8284 64455
36083 10261 78601
36519 4150 42908
31436 7686 59939
32396 7499 58599
31154 7696 38141
31633 7675 39904
31750 8842 4029
33491 8684 3166
9191 14050 40829
7090 11744 39185
37727 4930 45766
2332 11169 42257
28201 6468 40915
7407 11166 34747
6990 11109 37112
7582 18953 41166
6355 11039 51426
5983 11016 54196
35855 8753 53431
3187 19877 41075
31947 9935 267
35403 10162 6022
27885 14493 41596
36582 6891 34766
13344 12407 42450
36551 9755 70774
5966 16169 41353
30132 7685 46091
37920 7976 35138
30563 6469 40139
29348 6899 43205
39033 5463 40478
37576 5289 39577
41711 5741 39598
36282 8734 3530
18796 6563 41904
38035 7744 29345
23598 7696 37668
35929 6441 40628
36577 6585 39775
33091 5211 43604
30145 5177 43476
32069 5205 42849
36258 5245 44016
29926 5189 41607
22941 6005 37815
31638 10236 76366
50842 12035 35179
44674 6583 39216
3194 11074 48010
3449 11062 44432
48400 9294 43022
25277 11308 37417
31089 7372 54095
31313 7400 54985
17506 11384 38704
38128 10012 37240
22246 15490 42192
6403 11746 34667
5605 11695 33414
665 12056 40902
29767 6288 43245
48366 7008 42350
33567 9352 18019
32662 9220 17512
7627 11654 55877
2184 18386 40918
30776 8565 72528
39631 5012 42256
18599 12508 43333
50825 9588 39369
50826 10669 39034
50826 12557 39243
50826 7807 39122
20141 6351 39882
20916 6218 42653
16016 10385 43267
5405 10975 36820
5473 10979 34843
31278 8966 64141
31091 8820 62380
34735 8071 39820
37211 8454 70926
8719 11122 41469
34057 10335 2775
34255 10219 4691
34747 8375 75350
34072 8579 78636
30686 8301 55190
29045 7938 54148
30477 8141 53206
5282 12450 40591
6765 11749 52785
32226 9588 10476
33235 9791 10021
2703 13588 41163
7565 14837 41585
4689 15896 41302
6382 15110 41472
4238 15464 41268
5914 14689 41437
6563 17498 41444
26166 7662 44882
37394 9505 14235
21340 6139 40442
35648 8495 75544
6644 11059 35821
28504 7897 24358
29799 7940 21374
24296 5842 37605
37143 9055 81155
22853 16794 41560
32450 10664 37208
22497 13273 43925
28313 7985 24743
29710 8220 25077
50841 9728 35362
50841 10592 35422
16919 9482 44120
38154 7946 45055
15094 12590 39640
6528 11753 40256
6761 11079 41986
36356 10076 6802
49599 9678 40427
12148 11180 42717
28852 7178 35506
28373 10671 37192
34844 7772 64364
24230 16264 42826
34473 8222 37214
5739 17658 41365
6249 13240 41495
6894 15732 41507
5530 18185 41336
4778 16441 41300
7621 16445 41560
6902 14659 41528
32942 6442 40089
33277 6505 38458
31659 6567 40343
36167 7700 61462
31710 4103 42853
29366 8401 67534
29626 8424 68346
10180 12478 41083
15107 8438 38954
32686 8446 51482
32732 8387 50225
31640 8119 48963
35798 10437 81202
7278 11742 26136
30045 7679 25163
28102 7748 27498
36349 5973 43345
29363 8839 74146
28075 9129 76180
31569 10007 72607
24283 11116 37546
29807 6142 38974
50796 7195 46457
50796 9969 46418
35599 7840 65038
26085 17408 42038
29668 7629 26654
28181 7708 28007
50459 9723 42210
34089 8549 78155
33908 8443 76399
28829 7716 44991
29694 8322 44999
0 10095 40911
35867 11314 37595
32727 12078 37798
7581 10219 40081
35989 7354 25687
18143 8052 39106
26931 5245 40165
4975 19641 40748
45569 6349 39744
43834 10182 43916
37989 7945 48481
6376 11743 29654
37108 10012 81905
34725 7907 66595
42624 6776 43806
34842 8391 35614
30841 7783 60457
30953 7598 57600
29482 7903 59950
26992 17305 40430
49174 7595 40251
31894 7895 37099
24756 7644 44686
37469 8953 60731
2312 11159 33167
37915 9276 70746
33052 9810 72356
32879 9617 69812
5386 10671 41425
28039 8638 67921
6824 11083 33715
40463 6211 40369
40169 9856 37628
37227 3006 35045
48339 9742 38566
30429 8924 37209
32451 9311 37203
37977 10039 1439
34573 9117 22593
48579 6569 41448
34125 7787 65010
16725 7394 38712
7866 11576 42814
24704 5565 43254
24144 17417 42184
6693 11751 30520
4264 11500 40696
33523 9809 71239
42484 10143 38128
41349 10269 37906
29492 7262 40256
28844 7130 40496
17638 9798 38647
34087 8657 3177
34683 8806 1007
35890 8557 32768
35537 9313 62230
36687 7474 25361
36452 7381 26343
16290 7039 40410
34583 8486 6121
34377 8391 7567
35714 7591 60718
9804 11704 40756
42049 11198 38506
39716 11571 38191
38981 5810 43051
6398 18030 40715
6101 15475 40642
21818 8823 44112
26031 16722 39633
14345 12899 40628
35393 7431 23669
24129 10306 44607
43417 11953 41993
19701 7971 38410
32861 8028 44437
32081 7871 44182
27298 11277 45007
6150 11735 55135
6037 11728 53872
36931 3833 39676
27936 5200 39584
50822 15395 40170
50822 14105 40094
50819 12445 40825
50821 9275 40325
50817 12996 41284
18529 10781 44193
34493 8793 27853
34119 8886 26120
27211 5319 41706
37227 3920 46364
34182 7398 23515
4777 11577 26715
4799 11583 29642
28308 8493 67122
28140 8466 66422
45368 8221 43512
47790 8387 43000
46514 8985 43340
27946 7736 54425
29952 7516 54425
32694 3844 42611
34741 7619 61943
34409 7568 61315
34293 10451 81151
37927 9604 264
4287 11506 43618
4945 11617 43073
27197 5001 40927
34053 6324 41198
7554 11208 30838
24194 12933 44246
2937 11087 44548
3227 11073 44804
26052 13338 43951
36964 5345 44238
36522 5486 44388
28902 13553 39940
8400 11429 41473
17729 10912 39187
10372 12754 40637
30115 6931 45125
29470 6917 43717
28286 6976 42534
4443 11015 49691
4308 11021 51204
5292 9703 41373
35261 9649 37214
29522 5420 37724
19492 7829 43710
43068 10926 38628
28724 8460 44997
28561 7456 47070
23556 7855 44501
40786 11985 39038
36998 9220 535
26131 11964 44592
37498 8175 34780
16269 10714 39471
37296 8877 24921
36693 8353 46672
14773 12837 40324
16670 12692 39587
27822 15101 40389
35579 8735 52757
37665 7284 33317
37034 1123 33566
37849 8954 63776
18812 8389 43628
27660 9310 45001
41152 10738 38097
46083 10155 39040
8843 14534 41291
33369 6696 35183
13379 12789 40339
34994 7018 51995
37276 7860 60859
6537 11752 26540
5953 11716 27081
25386 5446 43754
32415 8917 1624
31452 9048 1467
31663 8921 2982
28587 7562 29709
28916 7496 30307
40587 12270 39549
42080 11838 39302
37802 1997 33569
19517 13176 42682
18900 6550 40161
33791 8581 50912
34566 8624 51229
20051 11409 43752
2933 11086 48696
3699 11410 50355
3194 11324 51915
7510 10538 41506
35481 7785 17926
35109 7694 19202
19926 14244 41670
21028 14771 42062
19286 10585 38448
37033 10396 45040
17807 7859 39172
37891 9354 71691
29258 8597 70309
31039 9483 8892
30770 9608 6255
31209 9708 5879
36651 6810 45949
4825 11001 28891
4629 11009 31736
33758 7998 41771
7560 14216 41410
32926 8437 8158
32595 8570 6648
32146 12994 39152
29094 13024 38766
37534 12414 38875
36085 12536 38887
33384 7079 28974
32982 7144 28634
2664 11226 41893
41059 6285 41170
34389 7720 18367
33898 7619 19721
6529 11046 36264
42958 5806 41006
34782 4474 43077
30698 8366 25635
30944 8368 26351
29406 8141 25461
30417 9724 77899
30700 9836 78889
27827 7828 37217
28246 7265 46210
3202 16298 40808
23470 5760 38431
4475 20290 41191
34193 6947 30901
7948 15921 40733
29138 9195 79137
49474 9891 41110
50840 10791 35750
50838 12794 36265
42281 6416 40890
38055 7607 49085
30055 9652 77744
28739 9455 78115
16680 6975 40133
2292 11398 41122
37506 10264 1090
44639 9417 38617
6884 11748 33263
37981 3837 42359
3970 12814 40688
37265 7919 41988
34779 3601 40254
27871 7991 58490
29009 7854 58278
29159 7811 57855
37541 9542 71353
44225 7400 38768
31633 8134 33262
33451 8429 34113
37740 6223 44548
30745 9764 3779
30674 9802 3016
30857 7333 53035
30513 9116 2224
30230 9042 3859
36527 6830 35625
34759 6846 49330
31137 8214 67761
31715 8089 66845
37040 7046 48832
17944 11604 43458
37894 9030 73841
36812 8639 6234
26014 6880 44872
2727 10383 41179
27564 12008 44509
32622 7359 56703
31946 7409 56293
31386 8984 80232
33082 8652 78361
32852 8861 81234
34448 7226 55708
32992 10300 1076
28603 14520 41568
29870 9524 5202
29784 9446 6173
37472 7339 30747
16136 11511 39496
19059 13118 40126
37166 8426 49751
22976 8946 37775
1634 15180 41000
44785 11550 42356
11108 8737 39543
31816 8454 27567
31540 8499 25975
30240 7144 48685
32936 8877 23904
33055 9042 21519
23333 16253 39656
12340 10343 42748
30895 9085 14656
31649 9197 15040
34935 9145 37205
32609 9973 82074
47777 6638 40191
28693 13520 43027
33128 13183 42544
27728 16002 39765
35166 7756 18201
34470 6932 31306
9074 13665 41321
37352 9809 74562
35990 10136 45035
28507 7448 35328
38531 5339 39147
31074 8427 75937
35006 8105 69680
37567 9245 17227
37479 8562 28733
37600 12564 40653
32446 13238 40894
38758 12322 40821
40530 12089 40741
30531 13355 41310
7679 9639 41977
35229 7094 37332
35467 7640 37244
34618 6645 37404
35525 9346 82110
15443 10874 43194
28124 15156 39613
30555 7424 41444
32071 7832 43589
24860 5606 44451
30348 8687 9059
29679 8719 9734
37426 7221 49518
28860 9524 78843
29794 9631 78088
35137 6366 40978
38107 8732 20736
36719 8515 31864
23915 16304 39429
32917 8702 26759
33252 8654 28571
32074 7213 29144
5318 10978 27623
29193 9669 1295
32874 6427 41795
32437 6506 42308
5866 11002 28946
6349 11032 26073
38285 1580 33571
35767 8207 70636
36375 8309 70950
15854 9308 44072
35181 8604 31885
8340 17199 40935
35429 7474 59203
46486 7028 39385
29710 8832 74682
29334 8989 76410
36171 8382 35466
21437 11532 43996
5509 10980 29480
5755 10994 26663
50821 11515 40429
50820 15504 40571
50819 10274 40762
50820 7883 40544
29234 9092 71531
28793 9006 71384
50845 9707 34361
31545 8585 78561
7979 11490 45145
34759 10042 45030
46183 6251 40873
37791 7903 37122
29387 4418 39365
35760 8347 8826
3498 11373 46511
2550 11207 42912
3744 11414 44459
34880 9292 62263
37549 9991 81576
30574 8589 78546
34302 7852 65955
42765 5676 42664
2409 11115 28890
2996 11087 26292
38158 9435 1327
33651 7393 58899
29156 5170 39139
6896 9719 40492
32632 8724 56338
31953 8602 56351
29655 8191 17709
28652 8201 19287
47299 7389 39492
45574 8021 38900
34123 3539 40642
28426 6470 42029
32520 6836 47926
24741 14188 43711
34857 10327 37220
41432 7797 38013
40798 7911 37832
49828 10036 41187
5570 13186 40586
24619 12964 37946
7011 11109 32046
7673 11274 41921
42079 6394 40217
35669 7035 51833
35831 7009 51037
37935 8521 57688
4245 12069 41296
37054 7568 24678
40845 7436 37966
38060 7107 37386
32984 10045 76203
32961 9907 74107
30885 9493 73216
27441 6319 42206
40315 5508 40253
19019 12800 39481
7832 11388 54062
10346 8652 42341
10931 8466 42402
3754 11046 53429
3565 11055 55068
3567 11056 50649
38215 9464 7467
40507 6219 41715
33797 9409 17462
38336 2019 33825
34302 10118 75856
33609 9965 73671
17052 13015 41406
28437 8159 22272
29426 8284 23188
28030 8103 21973
36783 10282 2827
36365 10420 1151
38062 9045 37226
31048 8647 22026
30214 8406 23531
36595 10173 537
4185 17947 40772
27954 14985 43002
36219 8108 39074
9025 12568 41253
5691 10995 46815
36764 8122 67007
41287 6309 40149
26595 9556 44961
14666 10055 44018
35321 5236 43283
37159 2584 34743
22407 9573 44268
32243 8414 29523
32769 8456 30722
31055 7138 32136
50833 11304 37463
50833 4241 37378
50832 13757 37722
50834 10279 37299
44592 6142 41793
43591 6022 41882
37206 7972 39917
35456 8866 81327
38190 9296 4538
37595 9929 78498
27862 14736 40122
45308 10092 43608
6889 11101 49345
6855 11099 52831
36660 9190 20962
35751 9243 21133
25270 17504 40089
37987 7581 42259
34375 6620 45878
30434 7342 52424
30734 7147 49802
25805 10784 44857
3488 11360 30424
2848 11248 27945
7206 11147 51004
18041 12303 39126
32201 6742 45780
26764 7914 37216
7465 11615 40551
32619 10014 76679
31097 9650 75057
37817 8902 6867
35140 9583 15345
35382 9693 13682
36385 7222 28824
44422 6648 43269
33959 8547 50119
46884 11378 41480
48799 10974 41624
5102 15007 40563
3579 14768 40683
4070 15312 40653
3596 17882 40741
2798 14837 40748
3172 16884 40756
4390 17329 40666
50845 7619 34472
23907 5697 42657
27524 6470 40410
10821 11849 42305
5630 11697 34882
47920 10024 38350
28554 7706 30320
28385 7584 32366
3740 11591 40680
33333 6107 38917
35011 8561 78411
31109 7357 28522
32750 7368 25403
6128 11025 54896
44105 9890 43881
31365 6980 34140
31201 7059 33152
34460 8921 25754
34554 8862 26754
15612 8040 43105
5806 10832 40524
40576 5796 42681
38864 6469 40548
37451 1425 48272
31178 7451 26865
12320 12621 41840
5633 11699 40830
41115 5943 42683
13661 8325 42876
37249 8590 53106
6151 11733 47525
5627 11700 45921
39081 9723 44911
32616 9182 63724
31823 8920 61886
36754 9477 0
37739 8289 63987
37271 7124 32695
35198 6470 40022
20594 9206 43827
5069 11645 52639
5105 11653 55019
47783 9672 43947
29933 9363 73723
27887 8974 73192
6529 11054 55028
35170 9447 17551
34863 9418 17882
40415 9431 37695
17043 11349 44126
41058 8683 44476
37146 5343 36845
24396 12008 37640
30415 8394 57501
33740 8531 32386
34992 8561 32668
29196 7181 41493
30391 7610 44861
28242 8077 60537
28092 7905 57489
35574 6808 48250
36190 8520 77840
42697 5277 39758
8009 11485 36813
6402 11037 33590
5595 10987 38127
32882 5265 38969
35413 8504 77521
45436 11433 42308
41334 12095 42779
3824 11046 39542
35347 9935 72454
31103 8440 71208
30720 8439 70508
10310 11112 41268
28962 8405 66909
37765 6100 43656
50792 10688 47389
20169 14651 40874
27897 5433 42541
34362 9720 12731
9220 11694 39929
28702 8986 7467
29775 8990 5478
9944 12781 40943
28863 6256 39147
36293 8854 1571
38371 11839 38203
30687 12336 37805
39269 7973 37479
43145 8505 38337
33849 13124 42426
29102 13515 41864
15841 12243 39135
37949 4165 42861
34860 4346 39230
30098 8431 59047
30905 8672 60585
21960 9097 38016
32014 6834 46959
32968 10061 81892
35939 7165 53320
27167 5360 40547
7566 11679 49545
3764 19442 40757
7004 14600 40401
5762 18821 40582
3418 20391 40803
5680 19248 40597
6946 16777 40447
28163 8124 21326
6014 11723 41365
33776 8084 12233
7049 11745 41886
32031 7807 19554
31203 7954 18697
50834 5375 37117
50834 3803 37319
50836 11724 36652
12836 11826 39435
50806 9545 44002
50805 11664 44327
50805 9823 44307
50807 15573 43716
29005 7418 36801
41359 5754 41997
37780 5326 42084
42396 5874 42203
37741 5295 43733
1474 10067 40808
15156 7908 38939
7398 18848 40835
49346 7815 42169
6151 17516 40698
26647 14118 38603
36771 9748 11670
35516 9877 71430
51163 8488 40993
29494 8190 64531
29930 8080 63576
1929 12554 40824
28951 13109 43922
29536 13066 43890
30281 8518 77365
49561 9255 40388
5911 11714 30569
5789 11707 32020
3408 11066 38420
3732 11051 37069
3610 11056 37488
32056 8146 48048
31945 8063 46911
29844 8689 72754
29107 8742 72243
4888 10997 34644
4850 10998 34246
35037 6468 41463
31358 6468 41703
4850 10995 50718
30820 5195 42203
33791 5225 42879
30796 5179 44147
29044 5179 41518
36477 8610 75606
22317 10763 37921
18624 7289 38462
36424 8043 15290
38597 5597 44115
1865 14613 41031
5440 11691 55687
23927 7959 37611
33784 5434 37856
35244 6552 44289
35879 8855 55116
28816 8623 65634
29997 8837 65669
14902 9733 43122
15135 13017 41123
25802 12459 37787
30706 7597 43780
28625 8995 9963
28933 8889 12326
31560 5210 41600
30931 5202 41609
35702 5262 41881
36397 5251 43565
22602 13702 43753
20023 9049 38377
19687 6424 42334
37658 7783 42447
28576 9307 2988
28487 9238 4167
30031 9509 75661
28763 9132 73291
32105 6858 34802
51302 8778 41777
35645 8219 10881
28151 11238 37191
16554 7002 42893
10639 10031 41293
29609 10178 75252
31715 9539 71760
30416 9293 71417
35638 6703 35717
32479 7901 17287
31985 7852 18930
43477 5992 42927
35080 10179 5626
24027 9762 44590
35752 8124 12491
38085 869 48620
5870 11004 37798
34170 6485 38445
43102 6627 43647
24254 7473 44616
3955 16893 41193
36836 9982 74967
37070 9157 21033
31477 9339 12305
30988 9411 9886
6324 10197 41499
5542 10986 47741
35081 10230 76516
35073 10203 76075
671 11502 40966
50651 9390 42211
30431 7427 28595
29257 7591 28010
28818 13969 42469
40938 5075 41544
38051 11220 37704
37607 11725 37961
33076 11753 37638
33623 8106 38611
37931 8564 65843
33133 7878 16504
33470 7947 14826
41607 6344 41895
35650 9158 59800
36889 8610 74733
26966 5259 38808
30184 7385 40298
28984 7282 38390
2320 11118 34189
7959 14453 41382
23971 8244 44576
45916 6258 40140
14116 9738 43020
16617 11688 43270
8857 15322 40869
37159 8072 43787
33145 9741 71025
31974 9467 69958
37060 8576 51679
36614 8501 49490
32312 7002 32106
32977 6996 31032
33013 7978 15134
32283 8022 15720
29017 8392 61538
30353 8612 61214
39284 5370 39522
40216 6142 42152
30368 7416 41848
35814 8140 39015
40972 6059 38506
38920 5629 38247
25718 8235 37369
2222 17252 41024
27462 15615 42927
4997 19295 41257
28829 8804 72677
30289 8515 70901
16647 11690 39397
8904 8761 42115
35986 9131 22686
37619 7628 27075
5982 13320 40581
37261 8029 38647
2315 14936 41102
4829 18032 41275
2529 16932 41084
4559 18713 41237
33931 8376 35337
28764 8688 14931
28063 8551 15090
9993 10061 41446
35419 7516 22304
29354 7132 35246
50829 5954 38308
50831 8760 37944
50831 12036 37919
28167 10302 45013
6151 11732 43515
27021 9851 37218
45283 6765 43107
37742 5841 37218
18715 7884 43628
33357 6470 42353
33486 6468 41467
33811 8387 47170
23832 5820 44406
10147 9704 41443
29190 5723 39058
42989 9513 44101
5424 16684 40667
33596 7694 18605
32612 7691 20381
28729 14216 41083
45423 6686 39362
30420 6470 42456
12863 8058 42658
38021 9579 8714
32409 8651 26069
33295 8805 26188
7897 11437 51445
36159 10419 1480
28589 7225 44923
5989 11015 48132
37544 9879 7125
35520 8818 28048
10228 9879 40685
50829 14179 38367
50824 13234 39596
50823 15822 39735
10042 11773 39824
11428 10992 39477
34716 6615 45618
19232 6499 39896
37400 6136 44839
26363 5286 41633
22101 5993 39479
16345 9957 38803
32617 6801 47521
36324 10060 73818
3872 11043 43760
4234 11025 45578
33708 10425 1178
33552 10282 3053
32768 8201 35657
31617 8059 34609
7084 11121 35796
7124 11126 35363
30584 6989 35381
31654 9074 945
33738 9181 61112
27503 5214 40382
2372 11180 48600
2145 11141 47896
2535 11207 46423
4206 11499 53839
3820 11432 51872
40479 5659 38734
34969 8493 34087
33874 8507 32993
33496 13124 43003
30685 13349 43128
48507 10929 41989
7361 11740 37274
45390 6218 41534
6145 10385 40327
37104 9708 71014
34159 7182 27051
31970 7278 28270
21781 16061 40864
947 14199 40951
7187 11132 30046
454 10920 40895
2828 11260 50349
2963 11284 51447
8381 11902 41918
33570 6683 47299
28551 8944 74279
7939 11718 40559
24516 17848 41650
37183 3614 40189
8905 9512 39874
35978 8291 10172
30413 8593 60739
29132 8363 60753
36004 9728 69612
35676 8654 31082
7877 11344 31372
32991 7356 44969
34527 7731 45034
29044 6765 44857
12151 9588 39365
35652 8005 67598
30712 9833 82154
29185 7286 43183
36536 8784 78360
35780 5633 38935
35502 6471 39383
37370 5615 45046
35390 6563 37855
16609 12910 41604
37218 6788 37925
4581 11010 40162
36270 9202 21204
29245 8709 15917
28174 5191 41552
49902 9574 42371
38228 202 33819
30714 7258 30863
29222 7301 33248
36678 7120 50873
42675 5750 41551
50815 12730 41783
50815 6298 41773
50814 7643 42167
50814 5503 42157
33265 6981 51646
36980 10065 76624
31768 8555 37211
30445 8088 37217
28100 7634 53014
36843 9500 15642
17172 10693 44131
20607 8422 38320
46638 7573 43100
3059 11082 40239
34738 10439 1344
29491 7697 56575
30688 7527 55942
31531 9235 14120
32550 9326 15561
34897 8837 54806
35462 6532 38414
4178 16348 40742
50794 7393 47012
50794 8667 46917
24088 10689 37578
699 9551 40852
4329 11510 39387
4884 11604 39349
36854 1551 48615
27845 8333 63885
28254 8147 61695
38089 7513 42826
35973 6846 48076
31053 8793 19665
31661 12165 44453
32586 11746 44580
2614 18239 40887
36516 11144 44682
31996 10955 45002
33243 10955 44944
29292 4092 39835
13405 7477 41150
11851 7774 41977
35376 9603 67026
34913 9532 66110
35653 9953 72877
31274 6647 39716
31326 6684 39019
7322 11157 39698
25266 9445 37420
34981 7955 14848
37621 9023 76901
36842 8127 14857
5309 17405 41314
32677 8553 78120
38686 11212 44541
34366 10335 78174
34338 10258 76913
1087 15248 40933
50337 10356 40857
38096 8313 59104
37788 9211 78528
30478 11100 37225
32699 11260 37384
30233 12110 37639
48895 6966 40660
35942 6494 42461
1292 10782 41036
7764 11611 54989
5819 10094 41475
4870 11603 40539
36399 9373 64281
47757 9844 44423
32702 8810 80114
32768 8747 79242
4797 11591 42208
34182 8977 24675
39333 8502 44827
36221 6812 35203
31220 7095 32533
25106 8943 44745
14373 12003 39286
37057 8368 11339
32227 5386 37847
35300 9303 19999
38059 8321 19617
36183 7713 20245
28902 7549 34871
29345 7603 35275
4528 11550 48972
3854 11436 49234
33364 8446 49153
33366 8622 52450
37653 1930 48073
36564 9513 66796
27208 5453 44507
50799 5381 45876
50800 12149 45656
50800 13451 45435
36522 8429 9127
37055 7913 18946
49838 10231 41545
6296 10863 40299
37141 1841 48173
36819 9332 18411
31527 9511 82124
32031 8638 76060
31493 8740 76655
32351 8581 75774
36383 9632 68510
6843 11097 53348
35098 9446 64654
33931 9275 62529
37594 6932 38624
39028 6633 44576
39753 6806 44455
37418 9177 794
30721 7943 48786
30032 7935 50936
28857 7615 33576
28425 7530 33748
30688 9182 12591
31807 9445 11568
7042 12986 40583
2825 11092 45064
2479 11108 45257
37262 9207 63602
28866 12871 38428
52076 9529 41440
34616 8677 29929
35261 8626 31468
34587 9059 58605
33350 7563 61397
30994 7887 62419
6233 11735 32559
6011 11720 29952
32807 6904 32800
29820 8076 54093
5917 11717 39598
33350 10101 74273
18219 11249 39092
34824 7128 28310
35590 7136 28617
22912 6371 44425
24013 6997 44587
35677 10351 78545
7328 11740 43365
28468 8103 44993
2275 11157 38503
2605 11213 38187
34884 10019 73032
30083 8646 62512
30745 8812 63243
37342 3851 42644
32203 6467 41026
35739 6467 41120
39298 10925 44577
41614 10915 44068
46991 10341 43172
27488 5833 39960
34093 8692 2629
28268 4561 42268
29611 12286 37687
34034 11331 37469
32860 6676 45886
36987 8551 8132
28368 7166 38453
29245 7280 39213
44660 10662 43523
43445 10662 43792
42105 10922 43955
32981 8082 13588
30843 8226 15147
6857 11747 51490
31975 8659 24633
32104 8724 23934
6742 11750 29956
7700 11295 48207
50364 8166 40856
27944 13961 40152
35848 9624 67711
3897 12230 41260
31008 10351 78202
38034 8129 22516
12963 10571 39236
28576 7855 27708
37177 9737 72063
37195 8866 3287
7337 11162 45723
36515 12574 41290
38321 12335 41198
43185 11686 40918
34155 8031 13250
26306 10527 44921
33726 6463 38582
13727 12241 42656
35614 8793 53787
50802 10263 44957
50803 8589 44827
50804 5855 44509
26230 5872 44739
31591 4176 39327
6344 10756 41727
28305 9147 5833
4779 12299 40623
35081 7903 66350
5291 10976 41735
35186 7281 25998
34737 7259 26099
50807 11655 43767
50806 13070 44022
50803 14082 44742
37825 5625 44389
18122 6667 41515
29412 9146 3819
37277 8112 16145
28241 7546 51621
29293 7304 49400
30322 7181 49518
33758 9351 18356
33720 9305 19060
30246 7946 31809
30124 7889 32572
30966 8150 30224
23558 15468 39171
50832 14667 37569
50834 11733 37146
50832 10174 37761
41154 5098 41906
36326 10234 4251
42039 12144 39970
9794 10006 39735
34989 6755 34517
48245 9567 44051
30976 9069 15127
27244 9821 45004
3749 17018 40785
15978 9166 39527
37454 7566 54785
29297 5700 43191
50822 8652 40192
50820 2426 40676
50820 3685 40643
50826 6819 39267
33291 7388 58407
32601 7578 60292
29862 7681 46885
6754 11750 40973
35588 8583 4946
42969 6845 38600
30934 8171 29633
30136 8010 29972
30673 7966 33097
38307 9576 4241
39229 5997 37990
33148 5590 44576
36488 7645 59832
29810 9792 80462
28744 9630 80661
7706 14646 40662
35247 8599 4557
35639 8791 1547
30434 7506 55141
29243 7696 56122
28118 7831 26719
29302 8019 27182
33700 10590 37216
37307 12739 42044
40896 12371 42216
35779 12900 41983
39367 12645 42472
28904 9315 80509
30002 9063 78807
33487 7199 55620
32711 7322 56253
35783 10105 7081
36222 10044 7498
29866 6778 40099
30376 6854 37939
33995 8304 73316
36345 9709 12851
24647 10943 44691
34480 9186 21411
35693 9218 21615
28811 9317 5625
29125 9335 6164
26417 8647 44929
30293 6468 40669
41949 12155 41967
30982 13342 41615
41095 12138 41632
34035 13099 41957
42800 11862 41434
33906 8636 79560
34243 8382 75419
31994 8325 45011
30169 8018 44998
30081 13435 40451
31949 13281 40469
35297 13005 39880
33367 9509 66747
31479 9084 65424
30804 7913 47983
37815 3610 41685
14812 12551 42301
16909 10542 39346
37094 8498 72527
37549 9794 75770
37246 6676 42178
30685 8926 4756
6454 11039 28556
5758 10996 31564
37472 8265 65773
28910 8059 25324
30658 8185 28530
28229 7119 37458
29409 6979 37637
34632 8215 10495
23551 17356 41801
32093 12351 44222
31538 7951 36045
6837 11092 46519
6152 9856 40486
45260 11252 39554
37671 5305 45480
23416 5769 43798
8836 10309 41493
30092 9060 68782
28872 8784 67886
5157 10983 39838
50831 5297 37863
50827 3515 38921
35876 6686 36450
35507 8225 44473
7845 11353 41493
29741 8359 22878
28824 8280 21438
49223 8325 39821
17446 10694 43453
45294 11456 41050
6665 11754 41467
28132 13766 42129
28078 16206 41825
34632 6790 48509
29639 8258 16717
30250 8198 16580
3423 17025 41141
34115 10113 81955
36825 12165 43867
34829 12271 43982
37887 8976 64854
28362 8996 9238
30412 9238 10987
34259 9606 14506
37831 8792 71196
30348 7704 36523
33831 6775 33495
31655 9927 45020
22704 6956 37803
31849 6687 44219
33440 6505 44121
30671 9917 80175
30645 9866 79477
35775 8358 36285
37328 6468 41582
34653 6471 42656
31380 8735 60209
31954 8787 59355
36695 8555 7390
50842 7384 35319
22149 5972 43072
7690 11655 39943
37649 7867 43797
37987 9772 5748
39571 9598 37500
28500 9219 6296
9057 9915 41497
32434 7753 62812
36536 7505 24487
3693 14633 41203
30794 8671 8487
31133 8807 5756
31616 8723 6135
50801 12383 45191
50799 12620 45895
50798 13765 45978
33226 12802 43683
30934 12653 44075
36714 3609 42057
3302 11337 43073
3808 11424 42910
26503 5297 44311
36413 7987 65585
35781 7994 67135
37007 7829 61656
29176 11142 37190
5279 11669 36386
4645 11562 36210
39597 6293 39770
28531 8164 62432
28661 8256 64105
30870 10304 37195
8249 16147 40790
2944 16732 41100
32011 9308 67431
30831 9198 68895
31151 9270 69127
25278 12268 44458
22033 13229 43822
47685 7138 42700
43544 9570 38373
33750 8977 81552
37697 12665 42957
38340 12394 43386
37190 7674 45041
33100 5996 44756
35571 5238 38324
36078 5269 40347
30872 5181 38103
34190 5227 38698
33759 5223 38822
5165 12570 41375
30284 10333 77848
28078 8867 10416
28837 8941 11318
35904 8558 49605
32998 10174 3297
31739 10050 1950
7384 12679 40869
27738 12841 38193
35173 9510 65632
35456 9560 66286
30623 10216 75960
30144 7256 50513
30925 7164 50413
5864 18017 40709
38272 3761 41806
32218 7866 64258
32512 7811 63905
12676 12278 42477
38766 12475 39232
33972 13099 39688
36709 8891 79760
30342 9158 69585
27891 6773 37354
25672 14807 43373
37716 8520 55219
44280 9236 43828
19143 13786 40953
8244 10389 42070
17689 6769 39147
14090 7373 41594
28509 9322 4773
7610 10243 41965
37042 8047 43228
4030 11453 30870
4543 11540 30922
35851 9473 17266
28719 8288 60753
28987 8276 59786
29377 9039 77268
35387 6696 46556
36598 10212 78514
36545 5856 38930
35993 9641 14384
36032 9560 15649
46924 6964 39583
47606 10163 39324
36912 8798 55402
7982 11530 30501
44305 8811 38590
43853 8134 38507
46467 8429 39088
7792 11641 26493
37786 8954 63011
15194 8722 43159
15666 9475 43221
36560 8510 73806
16727 11103 43361
24521 5589 41462
34405 10109 74477
38243 8548 19340
43182 11100 43588
29564 13477 41865
38822 12713 42505
26378 11877 37534
36260 6805 46763
5202 11669 53982
37081 9311 64126
30220 8775 17582
35270 8277 45200
31169 8486 25070
34745 10011 73944
33536 9917 8835
32302 9819 7073
31440 8612 58032
32205 8929 60938
13010 12458 39760
3989 11456 44828
4804 11597 47924
11611 7797 40764
19239 13542 41931
36367 9004 24308
22105 7481 44240
24997 15269 43236
41719 5689 41759
5420 11418 40998
30424 10118 74341
31770 7713 61003
31959 13124 43515
37720 0 33631
49513 7585 41071
1367 12731 41013
36826 8790 3759
35557 6675 36129
33393 6445 43045
31244 6505 37409
28806 5804 37502
32161 6783 37372
38973 6467 41104
37972 5407 39015
32237 9172 64641
16268 11620 44090
30514 8851 17215
37583 158 34012
6563 11054 45799
21471 10854 38135
34956 6875 49679
34670 6884 49988
31409 8934 79512
31534 8819 77983
20871 6222 41010
37609 6223 37512
31765 9056 81373
48642 6812 41994
34794 5450 43308
50232 9246 39967
18277 6644 40539
34869 9465 65053
39844 7031 37822
40784 6813 38093
36817 8096 15327
31728 8274 73475
5000 20319 41239
37759 7681 54207
30764 13378 41018
33399 13161 39890
29485 13484 41281
28169 7024 43110
28644 6870 41426
31434 7835 45013
33954 8709 45025
34143 6625 36159
37355 5844 37218
27842 7600 44977
50839 11419 36001
50841 12813 35553
35858 10365 79965
34914 8564 49812
30878 9867 485
9273 11334 39834
11266 11744 42411
32200 10153 75037
17353 6836 42814
38103 8298 20944
32360 5401 43291
14104 11517 39164
33748 6654 35448
36388 8220 12283
37707 7884 44484
2502 11197 40074
36783 6746 44608
50794 5737 46932
29618 5168 38284
30983 5197 39653
36412 5280 40986
29275 5176 39873
29293 9554 3303
29159 9503 3719
7424 15943 41352
4308 16356 41235
22223 8689 37950
31944 8764 4883
32368 8756 4187
32952 8653 4685
35991 12847 40551
40196 12425 40042
33445 13005 41098
44966 6168 41501
25768 5377 40609
7885 8965 42008
28368 14588 42672
30115 8111 64398
47778 9277 42389
6460 11750 35577
23620 5737 41891
19293 11477 38485
34873 8545 5281
34514 8508 5734
15898 8078 44074
46277 10668 43122
47731 10758 42631
2984 14937 41163
4348 17583 41239
2974 14514 41170
3453 17464 41159
3639 19106 41145
2539 17809 41069
7103 9773 41519
39940 12093 43400
16349 12516 39249
12066 11541 42607
26392 8234 37267
33102 9876 73235
33362 10119 76345
37031 9626 45041
34208 5526 37779
36410 8198 37372
18132 8806 44175
22516 14064 38805
21965 14487 39466
37395 8174 47141
37707 8989 20450
33019 6473 39448
32147 6508 40423
1532 17729 40950
35781 8987 57133
50809 5847 43444
50810 4882 42969
50808 8548 43494
50811 3026 42776
40567 5268 41836
15804 7114 40727
32419 6130 43329
36029 9150 60110
6569 11752 49416
32325 9972 4689
33122 10112 4615
32407 10064 3493
30716 9041 66825
30986 9056 66342
42312 9193 44232
37695 8556 27392
6810 11748 48024
17480 11562 44145
33649 9130 60337
33903 9105 59766
33343 10375 80409
31056 9786 77223
50809 9128 43249
50811 2643 42839
50809 5431 43418
50808 13602 43468
50807 4916 43881
33288 10432 45030
22746 8653 37817
32676 8416 8966
33333 8494 6471
31775 7623 22988
18142 8473 38587
17079 8515 38717
31303 6853 36332
27815 9486 81003
27979 9252 77848
12354 7676 40362
37158 7787 21290
29924 13365 39505
34551 12694 38953
36249 8963 57315
36539 9018 58551
35698 6963 50595
5991 11016 52019
5566 10989 51353
36167 8176 69244
31182 6841 45551
6627 8913 41719
30020 9792 1500
34271 8671 79089
6498 11753 55501
35504 8680 78828
36751 4249 39293
1122 12109 41000
20553 13555 43000
46147 6312 41617
7662 11036 40069
17541 7782 43408
28485 9471 78979
30054 9859 80846
3890 11045 27865
24003 15865 42977
5305 9661 40624
6576 11752 45101
31661 4744 43160
33317 8817 55840
31931 8493 54648
49755 10597 40662
31963 8098 47496
32462 6757 35808
2530 12820 40788
40363 5852 43796
28321 8396 18170
29547 8558 19101
21047 8060 43920
18500 11541 39037
27794 15336 42788
7856 11405 52940
32025 9290 14630
33251 9474 15145
6070 19724 41268
30805 9298 70477
32788 9787 72709
27121 12766 44198
37927 7942 56460
29956 9212 10169
29945 9167 10839
28696 9272 75539
27868 9204 76577
4811 10998 48548
4645 11006 45816
31779 9715 7283
32796 9782 8950
29236 7668 48665
30816 8003 49572
30516 8002 50561
30072 8999 67915
28087 8464 65204
36977 9268 63215
37547 779 48174
2923 11262 29813
2227 11140 27214
37949 6469 40426
4120 11032 40758
31077 9760 76765
30361 9640 76775
24942 17173 39756
37883 8404 16125
6042 12385 40555
33018 3555 41705
30361 9155 80923
31871 8749 77536
9636 10550 42301
33037 7910 40241
33537 8014 40015
37287 6723 39580
36693 8945 80687
44702 9578 43750
8586 11439 42069
29615 8344 67107
29377 8471 68634
7205 11492 41480
35699 6874 32995
38171 8138 28823
22586 7844 44309
32014 7009 49843
31354 7163 51164
34749 8344 74842
37575 7680 25813
37702 7728 55407
35994 12017 38111
37116 8797 26788
34525 8792 80972
25022 12712 37859
32539 4771 43174
32166 8487 28072
37740 9305 68731
39148 4116 40935
34057 9675 68848
29801 8075 19235
30656 8080 17668
30873 8024 18171
23292 15022 39109
5248 11667 40736
7978 11508 39538
29287 8418 20561
29356 8501 19460
28342 8345 19034
35448 10111 74590
38299 8902 14075
35461 8427 35388
30439 6233 37446
31907 6348 37436
33697 5926 37509
35323 10417 81291
4895 11600 31041
29552 6770 40788
29395 6840 39930
37160 7366 53868
28546 9108 76741
28235 9133 76523
4288 11502 37767
4667 11566 37977
37583 7434 51671
31902 6470 39954
34189 6469 40070
45939 7345 39184
5342 18291 40710
29194 11426 44897
29414 12307 44514
34913 11923 44381
17688 13046 41108
17058 12760 39870
18607 12739 39699
3209 11072 54949
3743 11047 53966
29976 5312 44390
33050 9669 37199
17653 9029 43478
16591 8910 43340
30379 7803 59943
30118 7772 58943
36767 6760 37319
30039 10249 76448
37807 9949 4122
36620 6938 34088
29444 7645 34902
37571 12677 39450
26679 7696 44982
30132 7208 32889
29916 7327 31386
4595 11547 27309
34348 8418 75023
25359 8527 44777
36024 7125 29573
35322 6972 51065
37723 8425 29302
6183 14620 40619
37751 6877 40892
29447 9227 72951
50813 13901 42291
50813 8388 42328
50812 14797 42622
50813 11246 42308
37201 8198 46200
5479 11689 39048
5369 11681 37279
14343 9728 39047
32318 8492 74284
31849 8601 75108
9123 12375 40674
30134 9010 13730
23897 5824 37767
32151 9264 66353
50845 10286 34452
36692 9460 66064
48760 8617 42810
34100 9019 23936
29802 7436 38341
29391 8140 37218
32430 8839 37207
37108 8684 28658
7733 11307 46851
50845 8123 34482
7505 16954 40743
32688 5205 38341
32520 5213 39184
36497 5250 38428
36914 5272 39833
35181 8695 79174
33540 8117 43876
37229 147 33566
36356 7292 27593
38341 9293 8149
4224 11025 49135
4974 10991 44974
21276 12193 38371
33093 8126 37034
29420 7071 36124
3880 13407 40706
16847 6936 41362
28632 9067 8876
5258 10978 40553
30905 6801 44409
38025 8559 14666
10869 9010 42502
11604 9388 42625
34341 6401 42307
28681 6433 37407
33841 6611 44858
30682 6023 44754
13826 7438 39680
36173 8368 9350
45243 10778 39048
11054 9792 41153
27878 14548 42157
29556 8844 14706
29970 8828 16084
37557 9365 81441
21283 6479 38044
36966 9837 9914
31512 9543 107
28126 7550 50200
29914 7952 51640
28453 7648 50917
24744 17822 40585
31706 8005 65559
30795 8300 68496
36864 10125 5277
12792 10411 42822
33868 10086 6665
34403 9993 8371
30448 8746 7969
29092 8858 8692
28622 5179 40012
34635 6887 32134
19421 9754 38436
29188 7360 50271
28721 7424 50383
36083 8168 44066
36362 8087 43095
30015 9283 72325
30342 9233 70713
24304 6626 37558
28638 12572 44388
33561 7444 59781
19516 6722 38277
42422 12023 39872
37484 9971 6052
3230 11315 29197
3871 11423 26419
13377 12567 39922
35386 7160 54102
35528 7343 57040
50835 6809 36896
50837 9712 36470
31171 6467 41020
23115 15488 42914
37959 8302 29580
43382 5969 41303
1403 11200 40835
7678 11666 32917
33780 8759 54156
33608 8925 56992
35946 7578 45019
29180 6150 44766
23044 6941 44428
30940 7868 37219
35333 8281 37210
34855 7818 37215
37905 7425 32963
43311 7973 43934
43828 7433 43698
31824 8457 76474
32174 8390 75406
29964 6471 42610
31497 8567 57134
32847 8861 57932
35920 8830 27648
18001 10834 44169
22547 14719 43104
4633 11565 44506
4685 11574 43985
35186 5546 38943
6652 11056 27824
33394 8008 68647
33487 7901 67111
36176 7620 21762
32683 10348 78275
35283 10370 79540
33036 7698 63023
33383 7724 64069
37315 9410 67436
6128 11731 45042
37793 5758 43327
32519 9712 9309
33586 9779 11169
30215 9861 81325
21888 14645 42764
34610 8207 44691
9496 12679 41415
35216 8494 75912
28409 8587 13871
29043 8474 14472
46068 11182 42599
37227 9378 17135
33125 9905 7913
33505 10028 6981
34895 8601 77753
35381 9931 9799
35664 9838 11464
34012 7521 60786
35197 7487 59547
19045 9270 44217
32143 3595 40286
41027 5722 41533
20280 7104 43930
31065 8260 14235
31483 8153 15134
34788 8874 55463
34468 8797 54399
36486 8446 72931
39484 4345 41065
44829 6976 43345
37219 5784 38933
33443 8494 76543
39891 4842 40846
32215 8976 20109
34649 8362 46181
5530 19849 40755
6011 11011 29800
18373 9210 39062
7174 9771 40145
31490 6783 37108
33035 6609 37196
31451 8589 57615
32517 8777 57548
33158 8274 10274
33022 8159 12319
31087 8584 9288
32195 8438 9510
31002 8436 11674
7620 11270 52563
6889 8641 40521
35913 9397 18435
8884 8292 41346
13764 10159 42976
3815 11047 36103
28121 7603 29902
34934 8175 38245
35664 4424 39205
30561 6990 46881
34297 8539 49752
6364 14295 41403
40105 5605 42002
44484 6115 42714
28924 9656 81574
32921 7080 37328
37373 7843 37216
33917 7405 37278
28249 5875 39422
37233 5275 42508
34376 5243 42043
34778 5241 42636
31938 5217 41478
50814 13034 42177
50815 14266 41855
50815 15208 41840
50812 4647 42555
30664 8176 66381
37228 10075 78257
50816 3568 41546
50817 7064 41352
50817 8028 41487
50815 10980 41856
31156 7040 33542
28097 14692 39291
11987 12165 42400
20866 14359 40185
21182 15135 40433
42181 5375 39878
4895 10992 54681
4974 10989 51650
29085 6469 41733
5143 17752 40612
6968 18487 40478
4614 19029 40680
4205 19990 40732
35414 10442 1505
35883 8375 35895
29902 8552 11847
35158 8100 42639
47620 9676 43117
37816 8578 68047
38694 6472 43076
33837 6471 42839
37598 6470 42554
34893 9850 71286
35509 7757 18405
41953 5765 39926
20139 7922 43778
36626 8103 43660
17360 6831 42013
29654 7510 28620
30330 7575 26354
33208 10199 78005
32358 10141 79347
33320 8456 32960
33260 8540 30845
34251 5277 44245
33849 5511 44485
36107 10143 75163
30113 9131 80063
29888 9117 79403
1734 9760 41094
31603 8379 53766
5749 19988 41257
8596 15904 41216
20438 15077 41201
21644 15460 41845
21928 15816 41701
4282 10667 41322
45673 9301 38845
48053 9228 39350
33193 4969 43240
36174 7247 54116
23187 5796 39492
29531 5184 40456
35782 5268 40586
32025 5210 39583
31766 5210 39936
30058 5182 39400
35120 9825 11439
36293 6602 43403
35810 6566 43935
33051 10070 73741
49553 8486 41424
37590 4619 46008
33262 9333 64265
36902 8315 35708
34327 10333 79282
34597 10361 79639
30075 8347 74550
7706 11274 33543
3327 11338 39018
2181 11139 37219
7570 11698 32018
37776 9142 2361
36815 7707 21806
36119 8556 6127
6037 13838 40465
3579 16364 40713
2562 15298 40776
3128 18231 40786
5298 13611 40521
2190 14728 40795
27157 6359 40312
31450 7120 50635
9404 8666 39854
32411 8334 10689
30879 8518 10666
7442 11719 45323
36274 9447 82217
32580 10280 77143
37349 10217 2967
36722 7407 55455
38224 9287 10158
31135 8730 20919
31489 8815 20571
37221 7476 55200
36504 8913 1026
36439 8408 47380
14337 7468 42810
29863 7989 20473
29862 8014 20093
5356 10975 51702
6556 11050 40805
1982 13121 41066
5261 11666 35447
4340 11508 33595
7234 10717 40136
24950 16179 39350
52272 9114 40979
34920 9685 68574
10272 8047 41807
5878 11717 52301
33916 9219 61643
8754 11129 40595
32983 8566 52713
9889 8117 40196
32707 9091 712
3459 10725 40683
36714 7012 33094
37475 3109 47168
37796 9473 11970
29937 10287 37196
15201 11909 43002
36007 7399 56986
35074 9107 59112
35275 9049 58034
50802 5825 45146
50801 7735 45336
50801 10688 45167
32206 8494 77120
32802 8213 72548
19907 6397 38732
36211 7033 31545
35917 9994 73916
6546 9058 40300
37787 8621 25738
36761 7098 50317
6004 11725 49226
31899 8638 6917
37549 9892 77509
17979 13120 41440
40253 7104 44412
40618 7056 44321
31613 8518 55986
33246 8883 57114
32873 7107 52978
32124 7161 52509
34452 6677 46782
37211 8638 53647
37856 8052 21933
16388 10228 44096
6984 11103 28250
35058 8053 13312
34886 8003 14030
7940 12632 41450
37810 9253 15461
46379 6347 42306
34425 7436 23031
38125 9001 8584
37604 5803 37641
14854 10771 43118
39516 11594 44147
38161 7705 35671
28502 7883 54850
29200 8041 55354
25725 5392 39036
4600 11010 37083
4929 10995 35134
32915 8261 35164
23405 17461 41286
32228 8886 45012
36141 9133 45040
22277 11855 38087
33920 8326 45987
37897 9104 45057
27675 12316 37873
12493 8976 42770
9399 9160 42260
29275 9417 76218
36897 9162 61330
7629 11251 38537
7076 11744 46315
6691 12927 41439
15042 9534 38963
28750 7100 36837
33864 8240 72338
34162 8209 71704
27392 5696 42109
29048 9609 403
19099 12013 38603
30269 8515 11767
49357 10786 41594
28570 7699 51482
28293 7523 49147
5188 10979 55253
31006 8665 74531
4932 11100 41376
31487 8226 51439
33025 8547 52228
22768 14853 39138
4572 11010 43484
4761 11001 44035
2843 11093 33472
28106 16131 41452
34397 9654 13802
37908 8122 32928
28144 12007 44625
30029 10174 75232
30687 6471 39196
21239 6155 41535
38050 7183 39594
33355 9284 18496
32443 9157 17873
38014 9090 16572
29053 8286 17282
29370 8179 18376
5440 10611 40467
