ply
format ascii 1.0
element vertex 2619
property float x
property float y
property float z
end_header
10958 16385 34945
37875 2795 46584
16750 7252 38484
28266 3595 32956
6622 10465 27564
30907 3384 32570
28987 10329 31851
35550 3461 31261
55634 11721 36269
6976 10365 28192
23238 11966 35076
50958 8454 39182
56400 5252 31971
36945 8168 39220
8332 8380 37439
30476 7421 55346
33585 6031 25638
57170 11708 34585
25967 9266 38971
32393 8441 39184
32396 7969 39246
5412 21073 35350
15279 12040 35667
33694 270 26841
39251 7009 42823
42863 3760 30991
10548 6689 36647
57728 3449 35969
4565 10250 28704
4692 11231 35903
33630 3961 42476
44833 5644 30911
55683 8004 39188
51047 11912 35563
46962 11873 35862
50420 11943 35331
53907 11869 35889
38406 11870 35887
31564 11853 36009
60969 9455 37855
33871 6207 46512
33080 7109 21402
16493 11541 33502
42584 3335 35333
57662 1041 34436
33972 3128 43674
57708 8476 39013
44986 2649 45745
32777 2734 41970
37548 6615 39114
6991 16080 35028
5328 21545 35068
5633 7381 35400
44644 10431 38298
58731 4924 37859
45688 4905 48337
36239 5684 26614
33745 308 43021
54094 8614 31067
16280 6325 37894
46481 3686 34972
2435 24370 35234
25048 9828 897
24366 9114 39012
17392 4687 35045
45058 2970 24520
7040 9770 31964
32473 1018 27342
61293 6431 31890
49968 8088 39231
19376 9774 31685
33196 7979 59102
43979 3543 31296
39833 2692 22890
49851 8359 31034
39771 6980 46045
41767 5371 47106
27571 3732 37503
27291 6392 31250
1765 9582 35486
38225 5619 43822
5745 9349 37961
40479 3280 21857
56338 7449 31090
41590 2351 25437
13931 6041 36939
17671 11556 36765
39596 7026 43656
39356 5373 27969
61136 8231 31794
6117 10393 42109
30065 9409 31317
13565 12124 34782
6254 11503 35122
7171 9373 39184
28789 7860 12740
60894 6429 38435
27216 7533 58992
32358 6745 50229
32389 5467 31383
7231 10171 29560
9552 10294 32800
12435 9462 38036
59365 4172 36643
4883 10822 36521
64163 6252 32851
60524 8027 31608
29606 8017 9454
41334 1810 24651
32266 7052 16801
27361 6040 31396
64747 8014 33967
34437 6100 43716
54065 11435 33087
49611 11702 33732
47795 11647 33599
53972 11776 33911
44053 11767 33888
52850 11479 33192
42134 11603 33493
42004 2152 25352
31476 7464 17778
31399 7967 55548
45818 5447 24474
55357 9880 31561
4242 9705 30852
41017 2767 21919
38952 3540 45177
4452 9831 40438
22213 6775 31275
12611 10509 37573
39368 6779 22788
57896 2831 35249
18481 5779 32315
43498 3360 34138
63641 8706 33753
46680 10821 37964
30421 8861 62857
40970 5485 22566
17366 7158 38541
32681 5994 27003
57592 3479 34166
44298 3988 47016
15494 11842 34575
6511 11359 36039
7630 10577 33165
28476 8261 8023
32913 1301 42123
33657 2081 26284
33735 1063 41894
24832 11029 69531
44361 9687 31432
13109 7765 38042
4939 9865 37014
33769 6526 42768
42239 6682 39595
33479 5922 26764
35451 7755 52147
44436 5601 46849
44327 4204 25421
3685 11116 46678
30102 7366 15960
59494 10769 33037
26345 7351 31024
25198 7469 31009
25496 9345 31291
6111 7240 35399
5102 20315 35082
31410 3590 39124
60582 4476 33252
31740 6231 26696
7911 8399 32858
39728 7014 24823
57780 6015 38685
39930 4211 45032
31441 8403 58605
33575 5887 46190
45922 2524 22659
32061 7380 51310
29267 3601 38784
38755 6546 48112
58487 593 34741
10156 14956 35485
57009 8940 31276
58922 7187 38916
4104 9981 41168
36761 6202 22127
35575 6575 19394
26876 8850 66632
22034 11640 36623
33662 246 41429
58780 11299 33820
5322 11051 36335
25931 12143 35070
35640 9847 31499
36512 5171 30753
29902 8006 13057
23139 5299 38198
62726 9147 33182
38936 5013 30843
32131 6430 46534
32459 5955 42505
25033 4302 32949
45738 5275 48046
39607 6878 39289
59186 8869 38719
33251 2170 28780
43915 6601 30910
45320 5511 47866
24362 11467 572
24397 11904 34602
12689 5785 35601
35612 6663 23589
35989 7218 47308
62274 10299 34935
32298 6875 18577
7117 10285 28813
40992 5210 24501
36219 4995 38682
41978 3560 31088
7215 9160 37443
21991 9886 38626
8044 9935 37423
35542 7664 54687
39925 4942 47138
10782 9526 37632
8269 6742 34918
19213 4466 35973
42602 2088 22184
36984 4345 24359
40896 5514 28080
44062 5554 25296
56533 11299 37108
57764 3952 36319
62285 4251 35820
39343 3445 31311
65948 5789 35949
54944 11401 33049
46767 2399 47882
45320 5146 45204
21615 10538 32084
27178 3665 34921
42384 5641 29189
33494 2057 41160
46685 2921 47826
36205 7520 49782
45800 3769 44698
44953 2694 25849
43096 5144 25639
46044 5180 31006
6833 9843 38723
20998 11493 35324
33042 2115 28239
33195 747 41894
26903 8907 2889
32155 8983 39088
54674 4224 33039
31360 10414 31917
30905 10581 32045
36181 10419 31921
41391 6773 30787
4725 9787 38933
30395 5565 26471
14681 13377 34956
5044 9760 38677
54143 11086 37619
31072 8701 6876
36698 7160 39179
14541 6376 32706
42327 3335 37964
3879 10840 45025
1249 9801 34606
27980 4506 31027
45907 3859 32034
26977 3879 32761
46903 4395 21868
14703 12083 35656
30289 8937 6037
45070 5641 46411
17080 5164 33436
45025 3264 47509
27875 8345 62300
14905 11077 32969
34192 5430 30763
9238 9742 32609
29312 8156 8330
22515 5483 31943
30029 8335 59004
23048 10633 38101
36649 6453 20401
8483 15543 35443
64199 5211 33469
44846 2887 47875
12049 13905 35526
18469 9250 38707
44367 4923 24596
33106 6603 20593
8346 11166 36547
33499 7414 50336
33218 2418 42264
12241 12672 34838
33172 123 42792
43981 6160 45845
33153 3614 31016
34109 5492 30071
4176 10403 27742
33132 2695 28297
2971 10380 42811
48023 3763 34393
50181 4184 37095
53980 4217 37173
35763 11445 37118
52945 11690 36525
31177 11498 36990
54168 11690 36526
40857 11587 36774
46319 11417 37186
53465 11654 36613
29171 8397 10031
5076 9516 37116
50689 3777 35945
48909 3741 35672
45350 5426 46459
39009 4223 24906
41942 4850 23914
27453 4988 38619
5461 14420 35283
46183 6864 31088
46644 7244 31038
8111 18254 35425
40762 6800 30790
4481 21211 35313
35598 9846 38730
26800 5378 38429
30444 6771 17915
5405 9651 30269
22710 5640 38424
26131 8960 3254
19857 11942 34891
32011 8253 39209
42996 6605 39017
33337 5408 43281
33117 4099 43492
12232 14224 35518
10302 6400 35939
37488 4197 23406
27500 3683 36589
37775 5340 41423
47045 5061 22656
5460 12572 35252
15341 5173 35487
39711 5145 40506
38616 5555 43433
55099 5705 31565
32477 8474 59998
37452 8287 39204
43294 5121 24245
4934 10242 26775
38644 5997 46128
35798 5956 26632
37430 3336 38577
29387 6609 39068
50443 9726 31449
28358 8355 7163
44423 5693 46421
32326 8221 13339
34407 7705 18268
42368 5032 30753
24368 4502 37459
39674 4939 31004
31156 7652 53785
32301 7813 16281
44107 9446 31333
21422 6052 38604
47261 4487 38416
46484 5332 45548
34577 6541 46548
41670 6738 41850
39405 2494 24101
35024 6653 18900
35327 6062 23926
11511 12485 34850
4937 9387 32840
6965 9653 37362
43049 5401 30748
31763 7023 17598
40180 6031 39476
40279 5311 39476
7194 9970 30778
10379 6677 33653
45433 4330 39191
33879 5526 40157
45848 3879 45890
60918 4283 33752
32730 4497 26740
33206 5238 26863
37821 7336 49390
30224 9051 39059
52341 8740 31084
40850 1822 45714
33425 6977 16753
32822 7193 15130
37405 6186 47863
51827 4815 37961
50322 4691 37798
12854 5865 34135
8713 13244 34968
28458 7987 58472
36723 7539 17848
18988 11698 33787
55248 11991 35149
37583 5495 46737
36947 4619 46823
34217 5643 46661
38984 5694 46740
8847 20276 35216
41014 5178 39476
34927 7942 15570
50437 5430 38469
63906 6853 32655
35738 5269 30609
39283 5017 46113
15174 12109 34756
39100 6835 22286
33451 5864 43916
9256 16087 34956
40022 4326 22466
9756 9106 37990
12433 11392 34790
33269 6127 45049
35424 5736 43433
32022 7435 51682
30330 8349 6687
27875 8310 60890
25748 9264 1327
10134 15415 35480
31932 4562 43431
35090 7107 23257
23197 14331 69948
29231 9115 65300
55359 6347 38931
45918 4959 21880
33632 4506 27739
32953 2957 28094
4776 21341 35089
33308 7031 16327
34178 6710 18758
31526 5049 39404
36636 6115 22861
44266 4516 21550
3732 11086 22698
25468 9181 1694
55365 4154 33252
59453 8626 31451
35236 6718 51811
42567 6604 40368
45755 5429 22251
43747 4294 39305
40340 3755 22273
3916 18590 35172
33209 2735 27684
46860 5830 46429
34001 7085 15643
29971 7816 55892
33729 5583 29630
5821 10165 26883
3695 22273 35283
38759 7137 47804
32105 5895 39603
36004 4127 39387
58763 5932 31669
42632 3335 31931
6901 9800 41573
32528 6887 22188
3971 10092 41817
42395 3335 36300
6396 22652 35063
44852 3805 21433
63805 8216 33257
3432 10699 25882
33028 2251 42660
38000 4921 31278
40456 6902 44309
34937 3978 39358
32635 5152 42338
36545 6650 29719
51330 4820 32261
32422 5915 23972
33618 10716 38080
46155 4370 31141
38566 6618 21587
34087 5895 43751
32515 4405 30819
6511 9547 33384
24631 10673 69432
37241 7451 50003
48588 3789 34191
34391 7620 51225
33628 7758 52648
31871 7303 51027
17505 9713 31769
60316 10905 33881
16945 5475 37214
34054 6444 21338
46210 10636 38141
40849 2852 44524
32903 1217 28032
38173 4330 30804
32205 6990 52659
36384 8247 31019
29430 7307 11354
54566 10530 38223
2807 10699 25260
28151 5330 31595
33678 7265 49219
22947 14499 92
36420 4276 45872
34092 6510 42113
6944 15084 35038
36901 8456 31046
41513 10666 38119
44832 2080 23413
44825 2520 45362
4401 10174 42704
11015 8611 37898
34305 8058 55387
14193 6247 32933
56566 5050 38095
37093 7324 47886
30632 8819 7675
35996 7700 18101
45571 5146 39258
20289 9853 31665
30800 7025 52235
27759 9052 65430
46898 4389 22219
28957 8604 4580
42272 6018 23548
3919 10805 25414
45873 4195 46260
31382 6512 18399
45014 3256 45712
64430 4906 36132
25887 9349 68707
13829 11106 37124
29390 8654 61592
57114 9129 38867
40334 6264 30781
59644 10493 32738
6685 18934 35389
44432 4289 26064
27878 8897 67690
8069 11549 34470
32843 3335 36955
38063 3335 36500
38255 3335 35479
33691 3335 36549
33475 3335 36052
38752 3335 36070
7677 11292 35387
3660 10337 42297
33297 9160 39014
30735 7310 15692
44382 10610 38161
45808 3336 23786
32830 5995 23554
0 9489 35350
9326 14313 34947
44878 2624 23616
44934 2289 24570
59733 10306 37689
42985 5314 48094
44535 4489 44783
41263 3703 22092
37977 6115 23431
59545 3828 35096
46585 5778 23038
37972 5654 39476
43594 1416 46105
32729 8117 55813
33175 8002 54722
56283 6012 38751
56560 11552 33737
26655 3987 37528
3907 11256 34630
11092 8069 32423
13682 13248 34863
42123 8015 30988
4429 11148 34200
33480 1998 42545
33078 7730 52766
31753 8064 55951
19961 4485 36434
42253 4380 48566
35835 7110 46179
59016 6231 31569
36489 9187 31225
8306 11630 34988
19936 6535 38623
29477 7848 13559
15245 9005 31799
29220 8315 63231
40248 5200 29246
48161 11917 34700
44109 11933 34825
38320 11914 34677
46014 11947 34927
42866 11965 35068
39028 5830 25109
5034 9555 39041
43259 6102 46854
36991 5586 43098
11656 15589 35486
35885 7691 51658
8322 9138 38073
24331 13744 197
9464 6725 33979
36660 7032 44556
21208 9591 38726
34987 6743 43209
30863 5569 26542
38410 5204 40577
37079 5768 44642
15028 8365 38441
5490 21786 35352
33466 1675 27342
28754 7884 58216
39851 6934 28568
44905 2115 46333
23560 4387 37209
41262 6650 46172
2365 10887 24463
42129 5432 44847
36790 3766 47149
37898 7174 45601
29157 8135 11585
54764 3804 36139
22069 7792 39116
11830 13608 34885
3253 10925 46839
44998 4729 23314
46066 3687 35256
50127 3710 35435
46540 5315 24612
41402 5783 27587
2809 10543 43870
39104 9704 31440
37199 7441 20590
26477 9276 67887
9235 9599 33288
57581 3016 34929
372 9569 34760
13403 7100 32419
26564 8883 3516
29036 8292 31025
45168 4754 46106
7503 9314 38967
39020 7112 24907
31198 7660 11766
35280 6268 22158
40483 6742 46257
9197 19687 35088
37696 6698 30325
30991 6979 19164
20149 7968 31238
34667 4581 39460
34207 5665 28381
32819 6167 25222
37256 7234 46704
40177 5428 24748
32105 6601 48256
13342 10054 37913
28611 7869 12352
28975 7741 13298
31187 8162 57004
30536 8349 58727
33917 7359 20481
34180 3409 38805
46466 2192 47070
27384 8573 7256
31640 6211 26298
42037 6724 31048
9496 7343 37074
33218 6259 29071
22022 9251 31339
4792 9772 31399
32221 5236 26180
29731 7095 39171
27425 7049 39165
36102 5857 44920
27789 10456 38280
31096 10091 38560
32118 336 26869
32219 395 41894
33442 2100 43039
40115 3335 36376
35444 3335 38520
41228 3335 37026
40550 3335 36954
39894 3335 37616
39569 3335 37477
36262 3335 38061
55609 5435 38433
52309 3809 36184
32511 7068 49024
40889 9261 38972
45907 5874 45635
31092 7998 61130
41413 2423 48055
40966 4709 38730
41171 5221 22981
6546 13833 35074
60675 3969 34947
29666 8485 39178
38816 6610 38605
35406 8686 39152
14184 12157 35644
44765 4719 45040
22427 6732 38949
34296 5440 39791
30450 6020 39137
43167 1424 23891
42081 4933 45901
49554 9049 31168
5655 10603 26797
31426 3356 35407
56169 4169 36956
4842 10112 27637
30289 8343 63457
60275 4180 36422
9127 14677 35462
37561 4635 46709
41316 5903 24035
7801 7783 37012
36139 3913 30896
27606 6899 31084
31271 6888 31085
32700 6456 39211
58298 4670 32657
41997 5751 47407
17819 7811 38736
9027 17950 35440
39457 6882 40852
4786 10355 44079
18446 11904 35627
35834 6324 31434
4730 16652 35148
10470 12261 34882
31062 5590 43789
32639 8345 9887
9235 11169 33604
45059 5744 46871
41951 5050 22485
40574 2266 25064
4497 10512 43019
63043 4430 34319
46488 4654 21823
54145 4996 32092
45777 5933 23593
17795 6116 32179
39462 5429 42544
7099 16472 35395
27682 8290 61344
50043 10969 32458
36232 5766 43578
44872 4054 47611
40961 5015 46023
37107 5479 46127
38622 5636 46073
9276 11400 35481
46944 4944 22167
31676 6332 25121
11190 7115 37299
20542 10904 32446
44347 4652 23795
40831 4985 30753
51783 5213 31926
30498 7675 58044
4885 7747 34327
24679 3960 33772
30974 7388 52414
6912 9381 31116
30771 8176 7839
44758 3150 44844
33949 607 41461
7377 13542 35385
16695 9501 31745
43648 3372 35306
35918 7095 53136
37372 9691 38794
1335 10896 35365
46058 10054 38588
27432 9565 38847
37892 3589 24756
42877 1514 45748
43120 3168 26042
28808 3996 31024
3297 10541 26690
8865 10993 33409
25869 9130 1666
46697 2793 44990
5866 10241 43735
37366 7230 23521
38558 7044 26654
29750 7597 13782
32588 2055 27506
58147 2620 35097
32242 8313 12567
4306 10255 43173
35186 5912 25322
11571 11375 33661
57402 828 35108
46973 4088 33367
39468 6835 23350
32655 2380 26361
32679 766 28955
26841 3744 34473
3592 10997 34191
36233 7620 51000
14965 5420 34014
57213 4608 37565
56919 10985 32741
6375 8241 33202
36651 3358 31582
57335 8070 31141
39784 5883 23399
32244 6170 26265
54026 5695 38673
12343 14223 34899
25031 11469 33169
13041 15057 35317
4402 19303 35130
14072 5907 33416
25038 3755 35719
28857 8457 64313
36765 5419 46731
34243 5995 46623
39694 5111 46817
32715 6222 24830
36558 6605 30874
32351 5737 29818
32138 6668 21065
65223 7994 34525
29507 9106 65959
28449 9262 3460
35928 7009 25182
34523 6295 23487
38974 5658 26027
6662 10482 33181
32846 1025 41512
38207 5951 46073
14292 5723 36565
32516 6877 51791
41363 4182 39395
3941 10544 44812
40628 10299 38400
39446 10615 38158
42199 3995 25621
9117 9762 38321
31692 7471 56936
30777 7775 59186
26916 7457 39218
26310 7514 39226
39238 5010 24064
39501 5349 24086
36018 5720 23990
34245 4883 23901
37475 4896 24004
36439 10801 37990
29924 11062 37650
27838 11059 37654
35692 6578 40642
58109 11221 33310
38098 4731 23389
42747 6600 30814
39115 11844 34146
44852 11864 34298
36058 11918 34713
30245 11920 34724
34083 11896 34541
26604 11950 34956
28104 4458 39216
45154 2270 23117
32691 2305 42205
5933 9629 40148
66305 6149 34396
35735 6517 39971
45345 3682 38436
46841 2985 22285
27352 10149 900
19082 10498 38076
39730 2727 24669
6426 9551 32918
22309 11787 33958
5270 9577 39373
5915 16699 35075
42376 5526 47803
31979 7700 58943
7072 9700 41065
65477 7577 36076
60937 4594 33175
22127 11478 37017
18794 6799 38581
57452 1536 34959
28176 8092 10375
3232 8275 35784
26490 10790 69253
7732 9846 41318
7636 9103 32992
26116 9696 69034
34613 6690 52150
20136 11655 36566
31652 7373 39207
13333 9273 32061
29538 9007 64207
46203 5035 25560
42283 8208 39215
11062 11222 35569
31480 6986 20533
29743 7790 14165
35129 5791 43830
29124 8801 3719
51272 3835 36251
66301 7287 35019
28396 5090 31060
65149 5324 36166
7242 9100 33315
12488 6964 32739
44771 4349 24153
3808 10508 33671
33597 5794 23654
34920 6058 24232
57681 11667 35648
28667 4474 39258
45046 3354 23365
41431 4898 44509
17353 11330 34674
32384 6081 29310
41601 5801 42387
47502 8750 39143
40002 4385 47647
5440 22694 35070
6949 11736 35072
35630 7786 17131
43904 3733 43994
43156 5643 30104
23438 14635 70103
41445 2138 22347
45956 9470 31343
44350 4690 45348
14076 11668 34080
46044 4090 38929
2897 10564 26123
39545 6595 24295
23691 5514 31818
7682 9932 39201
41208 6823 41372
25431 10464 669
40162 2344 45993
45561 10315 38388
24282 4117 36751
31487 8258 57493
33478 7668 52086
33272 5514 39358
31077 8404 62921
5966 10298 41535
41273 5914 46224
39330 5365 30753
37272 4820 30753
41318 6805 28633
43531 1662 45281
38383 5159 29951
37692 5355 28640
36421 6918 51973
36011 5955 24443
32346 944 29033
6896 7185 35906
40058 5779 24121
38929 5355 24068
39018 4717 24045
43134 4265 39338
18922 11773 34748
4342 10022 28583
42459 5885 45936
53560 6329 31276
54064 6293 31291
11922 13137 35548
39356 7072 25144
33108 6272 46214
55734 11068 32707
8831 8041 32841
37094 7090 25209
62586 9927 35676
24411 11514 33283
3350 10057 29259
36201 3581 39171
5781 14043 35298
38470 8461 31047
57982 7716 39088
38232 5818 45319
38474 4871 46226
3421 10244 28332
29080 9145 4567
43965 5192 31269
32663 5782 38640
40455 2805 24948
47035 5644 45762
36803 7262 22835
46284 3965 33663
35028 6030 43467
33823 4917 42195
45033 3769 46950
10409 16937 35461
45085 4217 45263
50183 8135 31004
17991 6743 38452
32369 6753 47198
46166 3893 44170
50827 5490 31712
50342 5470 31729
10191 9126 32313
51937 10473 31962
42245 6365 28074
1882 10506 34975
29185 8710 8024
30393 3415 37738
32373 6188 23600
37963 7050 26282
28723 7981 58805
32944 6645 52247
27018 3920 32404
8560 11363 36262
28433 11550 36863
31783 11559 36842
38961 11613 36712
29282 11735 36416
37000 11730 36430
42953 11695 36513
33308 11774 36324
3754 10335 26931
43308 7335 39202
9045 9030 37414
64029 4562 34906
34231 6301 47537
18141 8738 38764
60159 5090 32431
32778 10456 38279
61421 5128 32669
32798 6259 45750
27993 8762 63393
44320 3245 21478
21698 7716 39088
43683 5991 22994
65924 5579 34491
35987 9089 39044
4204 10122 33416
49918 9913 38696
5628 9428 38643
49459 11130 37562
36592 11405 37203
40860 11211 37456
29130 11371 37248
46333 2942 25230
37321 7073 44559
33794 6130 45606
51092 10204 38473
56554 8641 39056
41487 5117 39774
172 9861 35772
57572 465 35657
35780 7143 46606
10130 14611 35486
8301 9999 30397
44744 5605 38872
32310 8167 13758
44628 4694 30924
39241 7048 22990
40220 5467 27744
33106 4497 42315
39894 5368 28103
44965 3765 48030
40357 5647 43119
32208 5969 30055
31719 5980 28996
37279 6012 39468
43434 6045 45782
34570 5369 39476
12727 12041 35617
16360 5956 37630
30984 7533 57034
33120 2553 41783
30300 7165 52070
28709 8058 60188
29316 7986 59178
16118 6163 32498
53401 8097 39229
65041 7129 33504
45422 4934 25760
39269 5679 44094
31207 6122 43497
27503 8941 2204
36546 4379 46771
23880 12143 69656
33734 3499 31176
27967 9030 1710
21097 10659 32190
33804 7359 13955
37023 5864 24744
46689 3967 25430
21586 5015 32446
5228 14734 35272
4954 16398 35280
32742 4347 29819
31155 7185 16557
54723 4749 32355
8155 9730 40662
32073 7112 52071
26849 5699 38675
38295 4658 45760
33446 6374 41789
25655 6055 38839
42056 6049 27759
37889 5558 26901
42317 5426 22883
23849 9009 39041
7750 18508 35417
40416 5084 30753
5327 7899 33848
42218 3492 44520
5514 10176 43307
4435 14673 35202
4456 16038 35177
27522 9737 69073
37033 4946 38744
15336 6689 32278
33040 5958 43222
38058 7120 44775
9244 11151 36648
40110 6960 27485
7612 10189 29248
44517 4197 30989
29754 7530 39228
56050 9283 31354
47001 4770 44665
8136 19774 35408
46608 1742 23206
21514 10869 37852
32146 6640 23618
53316 3845 36274
42366 5733 41270
6119 10322 26339
52770 5910 31450
9587 9284 37721
3992 10938 24650
41847 6675 42386
53005 8321 31029
61699 7595 38346
45019 10422 31923
41348 5530 45126
33556 8023 54755
31184 8601 60299
31240 7559 53148
41224 4731 23787
57862 11633 34431
42283 6135 30758
42034 1995 46903
22060 8500 39063
43247 1738 24975
36856 7786 39262
38311 7755 39258
31785 7780 39261
31421 9597 38833
45678 5859 22937
36078 6591 46755
21873 6334 38749
45614 5981 46131
5395 10794 44641
43977 5408 38999
24641 11737 487
49403 4205 33086
36060 7296 47966
32871 5861 28015
62741 7307 38000
9534 9684 38262
27564 7608 58919
43718 10166 31727
61610 10618 35355
34161 7171 54997
21781 6734 31320
59653 11261 34268
28624 8551 65031
33415 7005 53636
22697 4087 33885
4271 23365 35316
23968 4206 36900
33390 6035 44335
3871 10029 33452
20683 11838 36124
31778 7892 9931
43444 4328 21483
32671 58 43576
11534 7575 32548
62103 4526 36612
34643 8595 39164
28090 8646 65608
2217 10255 36355
48366 3695 34906
47476 3679 35026
31368 5252 43858
38638 10428 31928
27347 10656 32102
4826 10565 43263
30583 7425 14618
33587 7500 56998
63393 4689 36357
36835 7227 46822
32001 523 28906
60755 4068 35966
43516 5555 30806
19428 10604 32219
32199 7101 53771
45019 2477 46442
31947 6088 43095
42522 5265 25499
29157 7778 57593
27021 9173 3356
12632 8572 32104
40157 2406 24300
55346 9609 38787
64524 7596 36876
44551 7663 30983
52588 7700 30978
28038 8917 5810
23264 7343 31115
17633 9189 31563
22974 14948 0
2561 8477 35678
38600 2944 22974
45635 2589 44407
28257 8650 7669
33220 481 27342
43539 1948 25279
43594 4745 48509
38536 4278 23510
44202 2680 24089
24096 13033 69862
38138 3393 45391
5705 9371 31935
36676 6869 42686
29777 3457 37697
23707 12881 347
57859 4580 32732
31485 6653 22310
59511 5150 37963
23052 8952 31188
5464 15376 35118
18217 5461 37537
16029 11537 34705
15011 11449 35698
44894 5941 45849
38758 10246 38441
31858 6831 19600
5955 13198 35121
27348 8679 63519
6928 11481 35792
51810 3804 34078
12796 11216 33342
17552 4687 35397
41425 4885 22489
42802 8707 31079
45418 5485 44855
28178 8257 9872
26297 8945 66133
2991 21985 35182
3250 10707 24822
14090 11493 36572
9268 11651 34935
34529 6368 30042
61892 10457 35626
26017 10878 881
28707 8084 9670
6116 8134 36881
30644 7090 51115
58973 4068 36444
4602 23723 35092
31682 8266 8360
30636 6248 18174
32988 3876 40640
36091 6713 18713
46554 4018 44257
15324 11667 33939
42226 8582 31063
23016 15129 70064
40476 6894 25736
5723 10541 43041
33743 6403 22037
36050 7217 22898
37551 5749 44659
44387 6286 23758
20496 11615 36666
7651 9169 37838
38704 5680 30753
34012 3335 34698
42080 3335 33463
40679 3335 33463
39495 3335 33189
41180 3335 32187
36928 3335 34043
38747 3335 33253
44126 2301 21930
48663 8092 39230
33192 6815 46435
42328 10118 31689
42907 6647 31235
55030 7609 31005
24041 13496 69942
41008 5837 23334
32769 3114 41599
29063 8058 9534
33925 8773 31088
33762 6677 17943
34981 4506 46619
54299 3677 35182
18656 9254 31512
20836 10892 37807
45329 6557 30994
42022 5358 45467
29166 9625 38822
10840 10197 32629
33082 4355 26682
33006 2601 26402
24926 7835 39256
26708 6027 38827
40464 3012 25578
2887 10434 43174
16784 4867 35629
31437 7714 11191
33359 7149 15291
42714 5887 47232
35060 5680 26297
23264 11914 35547
37057 6102 22847
33628 10178 38493
19299 4689 33596
32856 6467 26489
56261 11421 36868
32430 1365 29033
36283 6462 31162
30042 8647 61137
5644 10053 37095
42045 6060 24209
12883 6020 33742
33472 6717 45061
27609 8559 7574
10371 9748 32491
23106 4731 37601
45715 3971 23353
17733 4980 33589
33478 6865 23668
60881 6066 31942
55362 11852 35640
13076 6123 36759
33092 1988 43789
44922 5468 31331
30839 7636 53988
45137 2299 25577
58235 5515 38360
31079 6340 46320
7231 20595 35390
44580 4225 23360
65853 6152 33992
31727 7382 56131
31482 7456 56664
26317 9397 1453
33608 6345 28885
32709 1729 26259
43183 4330 26048
32957 7255 55603
34285 7997 54458
43414 6439 30538
37542 11378 37238
29523 11387 37227
41257 11289 37354
35065 11306 37332
41744 5107 30611
44991 2744 45123
4895 10432 25645
6815 10375 41983
41507 2186 23059
44663 5590 47811
36220 6215 47961
33351 7090 54349
4665 9618 31072
36716 8446 39184
26779 10125 69471
46983 4476 25290
61527 8359 31967
30355 7604 59237
49885 11925 35462
47228 11843 36091
37553 11846 36062
39613 11877 35830
36540 11850 36034
57165 5785 31612
58923 11463 35575
43047 6529 30452
41618 2616 47695
61362 9639 32675
51740 3734 34614
47841 3690 34947
29075 7260 59209
32907 6075 39844
60544 10819 36362
32353 3335 38315
37299 3335 36038
33234 3335 36633
35625 3335 35426
33831 3335 35456
35541 3335 35979
39027 3335 35546
24442 7560 31030
61605 4314 36288
52151 7422 31015
4435 8429 36570
55097 10768 37988
31216 11966 35154
37797 11910 35579
43623 11920 35501
39415 11941 35345
35682 6460 30673
46881 2062 47213
43479 2302 25617
46611 5415 47006
35769 7760 54092
37380 5558 27096
37994 5372 28367
36674 10010 38622
43389 4075 44047
41303 2267 44820
35806 7761 53093
40202 6956 43953
7958 9813 31779
26530 9053 66503
18237 7337 31513
33263 8681 31076
16731 11898 35576
44065 2013 44779
32602 5530 39410
15631 7730 38444
33199 5989 26449
45790 1556 45852
25609 4109 33316
35354 7102 46559
4063 19558 35147
22426 3955 35562
39519 7048 44390
32725 6588 25126
57054 9407 31473
37110 7128 51655
45067 5380 24011
6735 9873 28295
31641 5282 30832
2434 10787 45220
26854 8789 4198
41402 4741 31320
30888 6014 23781
8379 6767 35695
33793 7525 13232
18725 5559 32440
41228 6691 39364
35202 6463 49690
44925 4466 24992
64011 8622 34214
48690 3970 36577
50997 8893 31104
8655 10895 36914
38039 10740 38062
41428 5620 22635
38404 3722 39255
58332 6044 31580
47324 3796 36091
47634 5050 31903
58399 11596 34906
6841 20282 35028
36478 5934 24395
44378 5071 46168
59786 7092 38787
33262 8006 11102
55937 9326 38864
35559 3465 38984
7667 9668 32644
33672 6630 39174
42001 4312 25516
9415 15320 34948
64126 5084 36620
33024 7384 39209
6922 9477 30528
40534 5829 46759
61786 10538 34846
26000 9063 67113
56766 10707 32360
21799 11572 33443
44995 3840 22102
52372 10262 38428
45782 1740 24785
33147 6843 51991
30881 7644 58031
38148 6580 38710
28214 7989 11227
35536 6162 22945
13634 14147 35441
34481 6610 42562
45598 4330 46488
57502 10192 31985
19012 11925 35466
34893 5401 43871
6991 14536 35375
57273 150 35568
32030 4077 43469
24227 11466 37059
40875 6760 38790
18942 7939 31363
9700 13747 35484
34150 6590 23879
31189 7455 17559
43544 6101 24004
33764 6762 51628
32248 7309 55768
38428 4161 24806
30897 7205 51461
36971 6840 23909
47607 6192 31333
65597 5320 35686
9475 19247 35064
32311 6102 43707
27435 3643 35606
5004 19170 35319
50747 9983 31586
9467 13053 34935
33206 1540 26547
17391 11206 32930
23070 6605 38937
26715 10567 924
31670 8277 61831
5425 9862 39125
33589 5447 26706
33464 5962 31410
44878 2823 44237
32895 518 41100
32079 7164 20132
32490 8092 14412
33276 7885 16363
62275 10033 33938
28151 8380 63034
37316 3311 24531
14976 12372 35638
33164 7713 30977
34017 7333 31027
9367 6496 34908
47861 7960 39247
43005 2817 25894
14341 9392 38272
19047 4423 34820
26943 8747 65590
12566 6091 36475
37178 5054 31106
44866 2500 23142
57563 6743 31243
28263 9264 68681
28258 8310 7738
17260 6886 31814
36007 4416 23428
14255 13457 34904
42882 5004 45934
30431 7627 15800
18985 4884 36964
31898 6430 23897
33961 7847 57697
62448 9203 37244
15817 9837 31974
43216 3487 31234
34123 5252 31363
33921 6393 46206
40982 5200 23312
41358 5587 23348
40313 4987 23300
40488 5315 23334
40069 5613 23374
34665 7825 39265
8724 19558 35411
30148 7712 12048
26425 11156 605
20423 4687 37102
35771 5780 44069
8794 11249 33750
24500 10738 725
17238 10304 38146
45185 4708 24035
36158 6213 22229
35194 5649 39476
29085 9166 31217
1658 9672 34670
46204 2725 47667
6874 11310 35083
7705 6967 34392
27058 8890 67219
33581 6268 23475
15391 11532 34715
15707 11715 36218
5187 13897 35161
23005 3860 35026
63958 6646 37543
32000 6845 50897
44229 3052 45377
52241 6165 38884
41065 5765 45646
56818 3777 34687
9795 15938 34945
36403 4451 30782
4915 10201 41157
15321 5480 33665
19673 11663 35618
3471 10364 27712
35146 6862 25899
37683 5966 46375
28786 3524 33466
50521 7098 39171
32715 13 41438
4413 8211 33850
10746 11575 35554
41625 4798 46260
35462 8251 39209
21076 7743 31174
45118 4835 24785
11641 11650 35916
23367 11042 32577
31737 6844 50526
39142 6733 46887
39514 5190 29333
39504 5098 30054
37662 6834 41410
32843 1539 42792
45750 5374 30980
34411 6223 23155
34604 7879 13651
33006 4359 28154
18542 10751 32370
45650 4664 21698
35573 6875 31072
11927 6745 33046
7066 22152 35081
40456 3312 44453
32298 5814 43916
27933 3744 38508
30838 8771 39141
33978 6165 24043
37568 4910 31384
45630 2295 44632
32305 6609 48626
6540 21106 35377
43291 6412 39952
22322 11839 36119
28503 3578 32530
39382 3830 45069
43508 3360 38157
6928 9157 37186
32531 5211 43788
36049 5118 30753
34996 7890 16539
44346 3461 33682
41047 4131 47964
26294 3760 35812
41624 5517 46370
21169 5816 31806
2177 10104 35174
49914 5231 31912
6019 9793 41220
34615 7222 21895
28610 8901 6329
34618 6787 26011
42673 6045 23983
4199 19989 35283
48315 3986 33614
7937 12644 35005
32991 6517 21649
32024 1713 28336
40853 4656 23363
46039 2486 21954
25649 11365 496
40599 5138 39476
36507 3410 24401
46021 4470 47915
56395 11710 34131
40764 8030 30990
32191 6213 27722
14178 9898 32166
6346 18253 35374
41804 5284 29882
12969 11631 36112
32732 4154 28412
41125 3175 25315
29822 8264 63034
32045 1134 41100
39891 3664 22376
6687 7364 36217
45182 3639 35732
32661 3335 34109
35087 3335 33945
37929 3335 31683
35504 3335 33866
33010 3335 32324
37114 3335 31940
32309 3335 32596
33708 3335 33816
8997 9515 39399
35116 6542 29120
20358 4650 33217
61833 10145 36667
15493 6345 32505
62966 9357 36298
38976 3675 47581
21492 11847 36058
27527 4623 31232
41269 4817 45070
11196 17263 35077
11355 15171 34922
34152 7404 14052
40909 3099 44906
28426 3647 31632
32298 1664 41894
34333 7245 48597
32500 9234 31245
31903 5250 43282
30474 7632 12557
38648 5976 46718
27369 4420 38956
31825 10354 38358
30379 10543 38213
24590 12852 69856
43423 6600 39343
27223 9078 66016
40500 8354 39196
49343 6555 31183
45920 4902 44430
38554 6815 21252
45189 5379 23454
3570 9909 30083
25054 6015 31411
54998 10316 31865
24821 8860 31111
46214 5565 46019
20358 8965 31323
37377 7221 31041
46877 1998 24334
36074 6433 49720
31560 7761 59388
43517 1456 24299
62488 8526 32449
4657 7645 35236
23496 13124 69821
46287 4000 37875
33317 9406 31316
37877 4270 47234
56779 6591 31260
30698 8001 9032
58805 5202 32161
34568 6525 20218
40274 5650 26936
39596 6711 30870
23088 8213 31090
41995 1900 22527
40357 6141 46780
44957 2182 45956
29531 3468 33362
36301 7573 19740
9716 10871 37029
7007 15495 35385
45767 2532 24884
35832 4580 46717
32733 1124 27728
7510 12820 35389
36973 4056 47129
40601 3675 25317
55246 11830 34359
18566 11894 34530
32557 1773 42792
6091 9557 30443
31061 8748 61916
27264 9384 2062
6759 7713 36708
36850 5559 27347
13953 7317 32221
30908 7618 12341
33662 6671 19434
5352 10839 45092
20604 11156 37456
34715 7962 54397
29516 7931 59738
40754 1742 46466
59829 4883 37667
25930 11119 69305
36556 7589 39236
29254 7796 39263
33163 7703 39251
4831 9596 37813
7483 15377 35405
32374 147 43269
60109 4729 32822
32189 6430 39089
33373 7533 12817
596 9259 34646
45308 4874 44336
46548 4885 22480
11145 15590 35487
39165 6824 40220
40421 9144 31207
32595 6076 26341
32824 6768 23572
32897 1758 41100
34531 7630 56450
5315 10220 36970
46708 2161 22470
28722 8922 63891
43594 4216 48684
49126 3851 33940
55572 8371 39146
57339 11247 33154
42759 11827 36196
25350 11584 36781
34677 11630 36670
32315 11575 36805
27865 11681 36548
29480 11609 36723
19263 5175 37436
55242 10521 38185
42595 8886 39126
6850 9623 32862
33284 6655 19894
47124 5447 47323
43966 10834 32281
40128 8864 31100
61684 10527 34428
29455 6870 52080
34539 11246 37411
41919 11133 37558
48541 4870 38032
52774 4690 37797
4965 9450 32055
57684 3848 34322
43304 7293 31032
48865 6168 31343
30079 7411 15462
30339 7214 52741
29056 3496 36159
35877 3335 33107
32599 3335 33618
37074 3335 32278
36753 3335 32649
36237 3335 32824
35258 3335 32155
30422 5680 43657
58545 11165 36843
45948 10580 32044
45956 2117 44841
36892 6970 26499
8587 9725 40269
27488 8680 4659
14858 7889 38354
38361 7160 45429
30754 6445 39000
22066 4224 36540
18685 11573 33488
45821 2057 46266
33036 2770 43665
13185 11903 34782
35777 10964 37778
38767 10799 37993
40750 10786 38010
34839 11025 37698
33643 7002 18092
41554 6771 30135
41567 3335 35390
38914 3335 37192
41672 3335 35858
41673 3335 36320
38185 3335 38465
40815 3335 36161
52443 4984 38127
31258 7076 17634
33692 2867 43664
44432 1845 47719
31563 8535 10506
64444 5837 37052
44976 3596 24439
47132 4894 39028
19323 4360 35305
37321 7014 43817
34882 5952 46480
38062 6695 30695
26158 4295 37375
43124 2344 48215
13978 8366 38291
5567 7836 36407
35990 6385 20834
64309 7396 33077
20752 4712 33008
23929 5305 38270
41254 3972 25905
27656 9238 3351
31787 8151 13584
9526 8403 37657
38851 6769 30416
32245 6590 21817
32967 6516 43934
59511 5628 31900
33569 5382 26188
31613 5984 41376
43314 5411 39261
43011 3858 44043
45337 3785 25442
5107 18683 35097
4759 19855 35103
10882 16136 35476
33913 6621 26680
61561 9913 33054
23562 7769 39184
45489 7929 30977
30111 3419 34946
5286 10488 27483
33141 1570 42268
56555 10461 32110
24091 11924 35474
34364 6508 20495
33272 6885 17672
9972 9633 38045
33312 7662 57910
45498 3711 34783
50833 3782 34245
28482 5729 38699
4199 10646 24644
45337 5371 47249
117 10202 35703
39666 10232 31777
3615 19571 35239
41468 6005 43183
3865 20447 35147
28442 9008 5471
62946 8159 37664
36122 7485 20662
42258 2719 22205
42284 11259 32835
52436 11209 32770
37890 11410 33032
167 10483 34920
30021 8388 31037
8600 16021 34971
33158 4195 41621
41660 3789 21567
3177 11192 47191
21572 9140 31305
46183 4798 48314
44647 4813 25222
33827 5633 41078
44198 2620 46367
38111 6231 22504
33789 1163 27342
37015 11937 34854
52997 11894 34526
43233 11902 34590
51819 11880 34419
47496 11920 34727
29107 11953 34972
46540 5509 47618
31031 3377 37271
31807 5626 43249
41637 3453 48093
39014 5589 43676
43775 2025 47987
51835 4405 37426
36226 6880 43244
45799 10021 31615
32893 8087 14628
35568 7485 20486
7204 10246 42677
4265 21917 35308
20834 5489 32117
31839 3342 34106
3245 8114 35156
5619 9450 31443
32106 5922 28396
35109 5666 26642
24185 9605 31425
38131 4218 46714
29380 7624 14031
7474 7331 33778
35342 8038 30991
45154 3247 47116
6601 12299 35328
32543 3976 39345
39762 7017 44061
42770 5850 45402
24513 3827 34306
45084 4573 22319
59939 5860 38381
35668 11286 32871
34063 11407 33027
35167 11304 32894
48403 11256 32831
47169 5858 39046
2476 8912 34032
46848 2611 22527
7744 9521 40189
46365 2185 23108
28461 10283 31817
35967 4716 39476
30553 7374 54932
36015 6758 42153
32029 6040 41098
30683 8314 63004
35204 6440 30259
12236 5883 34655
27257 8467 62786
11271 8445 32316
389 9401 35641
25856 9736 1031
37210 6705 40342
36653 6967 43818
40759 5666 27326
57983 4212 36923
23727 11321 32935
32116 802 43586
3275 10545 33808
32929 4810 39943
13563 10530 32585
25572 5140 31982
28598 6648 31144
35262 6015 26640
8842 9739 32241
30562 8882 6346
46942 4098 25720
57557 1977 34907
29985 7788 58725
39799 7011 26220
42802 5928 30753
52264 4604 32544
7697 16333 34998
40434 4865 22739
40483 5125 29779
10165 11476 35527
45766 7303 39198
22134 4145 33861
44969 5280 22742
7738 14024 35408
48953 4860 32208
36778 7195 23681
31318 8275 12426
30149 8603 9381
18036 5769 37826
46408 1831 22863
55104 5714 38670
62676 9548 33788
37064 7018 26069
46077 3446 44178
32523 3565 26589
23690 14246 243
37807 3225 22956
43447 8800 31092
12386 9930 37867
32734 1543 42285
35431 11916 35536
45329 11955 35237
26385 11957 35224
25959 11852 36020
25910 11903 35629
36883 11916 35536
27369 8863 31100
35363 5347 39476
50283 10748 38056
49050 10222 38459
28362 8581 31063
32815 8246 13301
36387 7323 22099
27945 3615 36648
45865 3845 33695
42426 6022 46637
19790 7440 38885
36984 6624 50293
35021 7874 55628
60848 10877 34385
6598 21312 35041
33825 8185 12437
58521 4091 33669
57722 0 34436
39293 6927 46031
40215 2734 47426
32952 980 28357
61081 4052 34686
56644 10235 38285
6497 9224 37440
5731 11478 35161
28908 9552 31376
40431 5547 42614
32069 7861 59852
18671 8352 38856
38390 6360 47896
44166 2193 46350
33796 7092 48021
6262 10055 30177
5407 24108 35095
44348 3461 38179
30786 3389 37036
33881 5395 39134
34294 5870 26427
35852 6956 25686
20639 10645 38030
44830 2509 47539
58753 10047 38146
33700 8135 55812
29488 4312 30928
39694 6460 39409
16354 5444 33253
30372 3947 30953
24484 10489 31988
15683 6133 37605
33410 6422 46210
39880 6708 38733
12677 5841 35937
37880 5932 24058
54983 8013 31003
8947 9935 32714
27669 8499 6381
33241 5786 41857
15227 10987 37407
32847 11258 32833
28368 11105 32634
36210 10906 32376
35715 10949 32431
31342 11254 32828
42066 1560 46856
9984 16566 34951
61104 6891 31751
40557 2626 45328
39348 5880 30753
39755 6040 24872
3671 10885 24901
20982 8623 31230
4023 10515 43157
63891 8736 35925
47517 6889 31085
42388 5086 39178
48491 9699 31437
19837 6582 31600
55105 4765 37876
30064 7309 58875
34026 9168 31217
31749 7073 18438
9330 9656 37389
43442 5390 44664
37636 7312 19561
60523 5991 31904
57630 10714 32474
44182 2407 23103
30051 8661 8901
9847 16678 35463
24192 10998 37721
16199 5840 32789
29045 9187 3982
27364 9394 68108
27761 8333 39198
32391 703 28239
6114 10236 29080
55231 6791 31123
15024 8447 31777
6487 17576 35376
61385 4075 34833
30855 7197 16815
14942 10381 37885
49006 4395 37413
50959 8222 31016
60555 6310 38450
41179 6580 23451
63687 8934 35635
29393 7822 56528
32164 8524 10226
28043 8867 64008
38557 10163 31724
37138 4345 46993
41600 4792 47767
61686 10273 33710
44274 3653 46014
39092 4370 46713
37678 7360 20897
7459 17046 35411
42755 5445 22192
11275 11062 33280
47193 4433 32748
38505 6820 29532
39655 6089 45557
33950 4598 26729
2872 11015 47177
35152 4195 23856
45518 5434 25335
45100 2817 24926
63639 8981 34596
24263 12587 352
56972 6251 31410
63053 9539 34748
33746 5232 39466
54016 4913 38073
40422 1930 46986
34606 6377 40076
22714 4928 32421
62926 4545 36235
8997 7179 33464
50827 4301 37290
34126 6533 27849
44442 3238 25295
46660 5123 45292
33585 3437 26580
32793 3027 26506
45465 4126 21516
50497 7730 39254
5630 8303 33373
41202 3880 44232
17956 11385 33147
39664 7200 39184
44307 5766 45134
7066 8371 37208
33477 3714 43549
32677 5367 43294
30432 7571 54017
5454 10346 25968
6201 20514 35373
61764 9124 32513
33459 7144 48624
25461 3696 34902
41885 5096 39476
7167 21050 35383
28000 8942 39105
47990 3972 36581
41916 5770 22807
8154 9138 32336
9793 18438 35417
19106 9622 38590
37627 4268 24580
36204 6495 19978
42903 4161 30897
32721 8421 10741
40120 6517 24171
40609 3335 32487
36892 3335 33669
40849 3335 34667
64292 8612 35293
5036 10012 42064
60968 8707 31921
32726 5038 30660
10309 14159 35496
31494 6080 23879
39793 5102 23408
37180 6868 19179
38206 10815 32257
19337 11732 33862
62406 5689 32485
34431 7101 47571
37856 5658 26115
34297 5950 44440
33233 8183 56215
51561 3987 33610
54054 3977 33634
33054 8214 13626
31549 6832 21457
35103 6516 20037
55040 6040 31410
58191 6974 31261
39684 6573 46874
31345 8109 8589
39996 6764 39336
38797 4579 39470
21665 4605 32973
54359 4368 32850
35873 5589 43689
40529 4760 45964
45541 3300 26011
33226 5250 27850
10182 9586 33095
5707 17807 35342
32731 6439 47346
29305 8575 4876
39830 4792 31334
57094 11202 37184
30576 6944 18365
32675 9767 31466
33241 6397 27796
39724 4940 45661
42886 3464 48660
33837 5165 43275
32860 1517 28955
57900 5272 32024
35784 7043 24667
27960 9514 38868
4558 14136 35213
22025 11877 34402
41662 4863 25692
40577 6285 23319
16652 10045 31975
9143 15637 35461
53679 10203 31755
31637 3349 37176
44983 3811 24858
6419 7925 36794
25226 12730 380
15420 10008 32085
8337 9203 38600
64591 8315 35867
31712 11282 32865
25375 10800 32237
45287 11012 32514
19914 11238 35757
30761 7855 11335
59100 10065 32167
39191 5125 40217
39052 5171 40535
62205 7636 32059
28698 9176 65861
33426 8104 55467
41367 2113 45905
33841 615 29033
39822 4613 24207
21888 7385 31175
31260 8084 13712
5873 9834 33038
44663 5638 22392
61394 5755 38034
30664 5453 43741
6975 9237 32133
34032 8587 39165
37862 6940 42529
32959 6192 43475
30426 7234 17018
35563 6569 50695
34261 7179 48211
33945 5905 26445
33657 11836 34086
31167 11908 34636
29557 11832 34058
41832 11867 34326
51657 11838 34100
33104 3019 41439
44418 5624 23908
3469 10779 25446
34021 6278 39979
36049 7784 30967
28494 8058 59873
35145 7409 15098
36566 5494 42093
9310 17079 34963
64680 8234 34289
40979 6124 39475
8981 9153 31921
46513 10029 38607
39832 5268 41427
5528 10123 29652
44560 8212 39214
31057 6247 38997
32154 6004 29617
7415 19682 35402
26133 10510 31990
27645 10430 31929
50934 6318 38948
52810 5966 38802
4600 11313 34550
3660 7994 34887
39661 5100 46172
31694 5755 39640
22652 8172 39128
338 10549 35552
37875 6683 39356
61090 5776 32112
37248 11421 33053
31157 11666 33645
46230 11491 33222
45307 11470 33170
33896 11652 33610
36674 11573 33419
46136 11756 33862
48483 11643 33588
50204 11766 33886
51915 11586 33451
54492 11562 33394
11360 14269 35511
51358 8836 31096
26451 8767 5153
32046 11583 33443
37573 11642 33587
36152 11553 33372
39196 11615 33521
46998 11438 33093
48614 11473 33179
43083 11544 33351
19898 11389 34691
34756 5889 44279
25758 9021 39072
30137 8197 12109
41120 2123 46168
14428 6455 37557
4994 8159 33687
33450 7548 57323
45249 9370 31301
46831 4235 37786
26191 10366 69173
58483 578 35632
62561 9922 34479
35453 5686 23464
36367 5826 23463
32881 7458 57199
29557 10100 38553
45948 3593 46042
46795 3170 44804
45052 2236 22017
41767 3439 21592
35071 6220 46143
34672 4635 23538
25179 4759 37887
37660 7220 23776
44824 4295 25656
35837 5887 25107
16133 7861 38533
42853 6450 29335
32605 2278 43789
50977 9528 31367
40507 2305 47680
29948 7423 31015
5546 16721 35095
41272 6414 46876
34281 4547 30778
40605 6498 45094
61820 8469 38108
43293 5444 45932
37959 5355 46105
35737 4675 46202
35452 5530 46177
42805 5530 45944
35995 5880 46146
57644 4080 36636
5415 9495 37151
7820 12404 35405
32153 2793 26460
31623 8085 13956
32348 7892 15771
14307 13058 34845
44509 5140 22561
26998 4073 38485
37474 5196 40063
58800 4563 35022
46105 8489 39178
33063 8347 11468
41368 2735 25128
44448 6079 23478
32889 4535 27500
16293 5121 36247
27841 9417 68207
43844 11047 37670
45340 11022 37702
48742 10983 37753
60187 7006 31535
2974 8503 35997
53901 5798 31496
39031 2538 46444
5847 9915 28345
41696 3082 22146
14149 10594 32580
44954 3118 22287
36631 5722 26087
35856 6102 23275
19042 10934 32529
50500 7308 31030
58527 6599 31369
41408 8105 31000
5046 14444 35255
31688 6570 46730
40183 3773 21867
38320 11513 36953
48251 11639 36649
45543 11491 37006
43338 11524 36927
51354 11565 36829
38668 11454 37096
47791 11606 36728
6730 17778 35029
27772 5603 31627
37228 6761 46001
36145 6680 28950
47229 7438 39216
36089 5299 30068
42480 5500 40371
17526 11866 34317
33152 5663 40611
37349 4655 46444
7710 10088 40139
33678 7689 12518
57873 3568 34874
13392 11263 36880
32502 6490 44487
44233 3107 47270
34147 4767 46560
35903 6412 46039
38764 6853 23373
27717 8765 66488
43658 8288 39204
60501 10481 33156
19941 6124 38439
17427 4790 36018
18918 7761 38840
8433 9578 33460
27807 3611 34168
45070 3003 23291
30502 7060 19021
31684 7285 55162
18195 5500 32648
6214 14848 35080
32674 6980 52959
41578 5560 39476
54741 11138 32680
9406 7766 32852
45061 3905 25728
38581 9556 38850
41412 5540 41668
25893 9045 2628
22308 10913 37805
44789 6081 23967
57751 2600 34841
12150 9209 32193
30418 6616 31157
6517 9765 31912
46646 5610 24869
42322 3565 39145
17694 5050 36790
32994 2 26583
28735 8196 61709
11142 13298 34891
44485 5358 31287
3919 10872 46814
26447 3671 35135
44227 5785 24987
43362 4113 30934
34069 5450 27750
43432 1465 23216
33976 8147 13574
28954 8686 4081
6628 9361 31382
28616 8143 10979
44726 4287 22142
44372 1425 23996
59578 7678 31339
32164 6173 46172
33455 4971 30765
43536 6048 39731
32373 6083 46449
38042 5770 44957
41733 6005 27282
45112 3369 44080
55071 4032 33527
40915 4679 46345
38725 4318 24107
35782 6148 39419
10958 17182 35411
22467 4006 35966
25419 9730 818
34562 7272 14969
4110 9864 40365
9546 7364 33127
2905 10618 44493
46867 1870 23933
47876 8806 39136
59969 4036 36166
38497 6348 22405
41937 1964 23504
34445 7561 50758
44396 5325 47314
32772 7048 48657
27215 8782 5895
45200 3175 23658
36830 7443 49102
38776 10777 32207
52347 5467 38498
11591 11405 35592
41589 4785 23532
30060 8708 5077
37487 7365 21464
24693 6002 31440
40463 9330 38944
41102 3025 47842
45680 8405 31040
43453 1856 44992
36604 5430 41566
40932 5504 24943
15659 5075 34940
21584 8191 31142
21855 5504 31982
38279 5878 30753
35944 6727 28240
31490 6683 39099
29151 7637 55869
15183 5211 34720
31751 6228 43676
7229 20023 35020
53466 6757 39126
47435 6832 39136
43903 3397 37422
10420 11342 33723
2892 24557 35152
57538 2339 34978
30786 8429 59136
27567 9271 67079
44259 3446 36016
45320 5769 24292
33631 8073 14990
33217 7366 19906
62941 8736 37220
