ply
format ascii 1.0
element vertex 2565
property float x
property float y
property float z
end_header
20261 636 39653
30031 831 44350
14712 7211 36575
15306 7035 36882
14744 7201 36059
14024 7416 35263
8101 10659 47181
8652 10591 49507
8466 10655 47339
5302 10601 49163
3614 10581 49832
3915 10571 50188
2609 5592 36378
3076 5242 36413
6420 4024 36805
4594 5085 36634
5130 5318 36744
3372 6833 36635
16171 6807 35334
19866 6807 34860
16788 6807 34019
18725 6807 34201
16345 6807 34733
16479 6807 36096
20114 6807 34224
40920 2008 24379
33534 1229 46864
31441 1247 46979
2653 10270 42124
2633 10487 41705
2524 10055 39476
29282 3407 46111
25836 3372 46189
33087 3318 46309
23028 5814 38579
22087 6138 38404
24656 6392 38266
23648 6707 38096
31269 6269 38333
31194 3974 69105
9133 10966 36746
5319 10947 37368
6228 10941 37570
6689 10825 41540
7872 10972 36530
6118 10923 38189
7114 10858 40404
8005 10895 39149
4420 10928 38020
8833 10759 43768
7347 10842 40940
53764 11 31847
39497 669 27684
28770 2734 10609
27839 3234 13947
30945 675 43365
32385 3114 48433
17612 3914 38073
32517 1613 50560
28003 1627 50726
25819 4252 44223
21144 6807 36256
19995 6807 36092
18684 6807 37388
19473 6807 38010
22352 6807 37332
19893 6807 36567
1296 10684 35882
1780 5345 36022
2194 4330 36142
38396 1564 49988
31792 1551 49829
33921 1212 46758
23838 2179 25497
38308 3816 64814
34868 3793 64276
34803 3817 64821
35231 3762 63552
32452 3748 63230
34603 3755 63415
29608 3655 61089
39659 3922 67251
32221 3767 63674
37657 3918 67161
37488 3896 66648
4112 9640 43578
3386 9640 44414
4300 9640 47713
3273 9640 47673
3050 9640 39313
5792 9640 43043
4223 9640 46440
3262 9640 45661
3232 9640 38940
6046 9640 39487
2872 9640 42285
2883 9640 46789
6828 9640 40345
5570 9640 39115
4957 9640 44626
8237 9640 40700
8132 9640 41507
6034 9640 41870
6138 9640 43438
26310 3235 19436
27943 2751 13575
36339 863 26463
185 16993 35559
391 7056 35619
30995 3738 8011
33267 3900 4253
34575 3917 3875
30624 3700 8893
33056 3776 7137
32054 3923 3726
31540 3968 2696
37004 3924 3698
34539 3773 7196
30211 3838 5691
31930 3950 3101
31182 3937 3414
32137 3837 5723
36247 3838 5697
33831 3800 6588
34759 3983 2343
34229 3944 3235
24699 53 39434
34718 3180 20909
35012 912 26150
20961 4617 39924
7334 9640 50944
39342 4074 0
29705 3114 23286
25145 3114 23306
42155 2632 25498
4275 10541 19792
34224 792 44101
30027 919 44905
36715 1390 47907
40679 735 27271
41482 3704 45448
56187 0 36091
24711 5307 31939
30053 2214 13297
31767 2348 11708
32886 2427 10768
39620 2672 7856
38611 2723 7242
37784 2497 9934
39167 2615 8530
35781 2394 11148
35522 2458 10397
38483 2381 11317
35340 2289 12397
38085 2287 12437
39669 2390 11206
35840 2582 8921
39181 2721 7270
38215 2699 7528
35402 2322 12021
34875 2364 11522
28975 3209 61144
29097 3089 61578
40534 869 44589
31706 3182 50138
27657 3183 50156
26476 3284 24630
41405 3435 24966
27318 3174 24384
17624 287 36315
8758 10531 21983
40539 4165 44418
2337 9429 34831
1437 4710 35092
31408 1091 25022
34446 1045 25310
28919 1055 25251
25961 1989 20616
33027 4727 43164
49609 6317 32707
50836 6572 32846
33652 5158 40130
23044 5079 40695
22030 4967 41489
40051 5219 39702
38215 5187 39924
24019 5097 40569
30292 5109 40484
22665 5141 40256
2374 8741 36411
35088 3999 26224
3004 10128 21665
2979 10328 22172
9318 10506 45286
37992 1374 23229
5136 9024 34175
6890 8984 34153
39953 3081 4202
44559 2579 31796
45743 5121 31796
44533 4276 31796
45558 3515 39218
44864 1549 39218
44382 5001 39218
1703 14547 35094
22495 5298 39140
39677 3284 46384
40554 2651 23832
44741 3223 31796
44939 2894 31796
16526 4801 37898
16246 5962 37866
45131 9 31856
33873 3114 47046
6535 10717 25814
3925 10866 30884
7284 10684 24667
2765 10788 28221
3912 10772 27688
4562 10689 24855
4092 10612 22229
6715 10690 24896
3368 10893 31788
6280 10647 23409
7637 10697 25135
3773 10884 31505
5808 10763 27378
2718 10930 33069
2565 10920 32722
12628 1384 35909
15333 790 33855
11715 1584 33820
11183 1702 36013
13368 1222 34252
199 5564 35451
28109 963 25828
31294 968 25799
29317 958 25865
22566 5116 30582
31841 4938 29317
27327 5024 29929
34308 4848 28681
32059 4843 28644
35428 4830 28552
33540 4866 28809
43158 1067 44734
39308 3468 45974
41137 919 44907
34357 3126 22167
41471 3863 25922
27143 38 31678
29914 23 31770
35549 4672 43285
20315 6807 34899
31091 3888 66484
32786 4034 69876
31263 3959 68149
31438 3881 66317
32237 3959 68141
33338 3890 66512
31297 3849 65566
33322 3974 68461
33783 4017 69448
38842 4077 70834
33572 3944 67776
33523 3862 65875
31382 3925 67336
34223 3952 67952
35799 3924 67312
26160 2949 51059
25318 4675 43277
23599 4016 44750
32424 4039 44699
23376 4184 44376
63142 0 34705
54416 0 34250
51796 0 34036
14653 6085 37685
13722 6444 37579
13769 4635 37584
15060 6722 37731
12953 6825 37491
39973 4040 44697
10599 4253 33790
46709 6319 32708
51355 5701 32373
53509 5611 38689
47454 6114 38417
34046 1461 48747
35620 1456 48688
8108 9640 32905
6848 9640 30422
5157 9640 27026
3884 9640 30344
2713 9640 32408
2950 9640 25070
3478 9640 31879
3729 9640 28515
4212 9640 23416
2767 9640 30310
5692 9640 33176
3973 9640 24803
5085 9640 27494
6843 9640 32423
4672 9640 24682
3160 9640 27812
8617 9640 34262
3931 9640 27950
5799 9640 34214
26875 534 42476
43126 67 39522
38436 432 41827
26401 534 42476
33696 391 41568
41849 433 41837
40629 231 40556
35089 517 42364
42343 169 40169
29029 394 41586
36172 536 42487
31579 500 42257
42309 597 42873
43867 236 40591
41657 537 42493
39922 210 40428
35836 503 42277
46120 2841 31796
46361 1583 31796
46473 791 31796
19421 4164 39541
21884 3988 42531
37781 4601 43445
22434 137 39964
30243 3460 14453
37640 3750 7722
36652 3741 7933
33933 3629 10534
27897 3395 15950
32301 3694 9010
29741 3631 10485
30467 3443 14828
35296 3697 8955
29793 3513 13212
32263 3556 12218
36880 3761 7475
32311 3585 11528
31468 3542 12537
30487 3664 9734
33362 3714 8567
30399 3494 13628
26902 1220 24209
26586 1269 23895
35825 1189 24401
46485 8505 34587
27359 4706 27804
39953 3314 5657
42743 2497 25909
9406 10519 37054
9462 10396 36440
9339 10665 38767
9320 10704 40817
48682 6376 38275
49117 6366 38280
22793 2053 43812
32361 616 28022
30078 655 27774
26302 662 27734
40151 1076 25115
26730 3154 46674
31417 3209 46549
54714 4702 31796
18083 186 38090
2565 10226 30697
2717 9676 27569
2457 10368 32923
29732 1038 25357
37930 4016 71014
19877 1214 31440
65371 2458 36095
49879 7322 37762
47481 7172 37843
61087 2889 38303
58055 1274 38818
60067 1973 38476
59014 1574 38655
62442 3202 38073
59985 1346 38490
21347 3496 30855
6064 10775 43229
4254 10793 42623
4050 10855 40502
5843 10642 47766
8093 10735 44593
3455 10906 38760
3044 10619 48562
4505 10855 40523
2567 10944 37498
6337 10701 45753
6041 10824 41561
3099 10808 42124
5677 10800 42384
4608 10672 46752
6484 10746 44235
32587 0 32623
66547 0 34306
62923 0 33590
14219 7358 36816
13784 7487 37338
35674 965 45198
63062 0 34032
18114 6005 38387
39026 1483 49019
3644 3881 35203
39587 3129 48923
35715 3195 50462
34345 3195 50454
44090 1402 43445
1016 17660 35647
8210 9640 29043
7921 9640 27837
9049 9640 31608
5781 9640 24458
6393 9640 26239
8306 9640 28586
17649 6114 32925
39528 1073 45881
46147 6263 32678
51961 6043 32559
27526 1272 23880
29699 3162 24357
39270 5297 39144
35995 5321 38978
46016 5299 39134
3694 9640 47634
7070 9640 42672
3498 9640 41904
4305 9640 45368
5451 9640 44031
8137 9640 42197
4039 9640 42413
5453 9640 45790
4172 9640 41607
5856 9640 40397
3860 9640 37853
6038 9640 45251
6517 9640 43328
7369 9640 39535
6175 9640 45640
4696 10922 32773
8167 10761 27302
4354 10942 33469
8996 10857 30556
4570 10957 33972
3214 10966 34268
7012 10956 33942
8182 10980 34752
8552 10822 29391
5565 10918 32647
5425 10929 33026
42756 8080 34698
36862 3114 23183
6441 10370 19780
142 11373 35547
39371 3654 0
38168 755 43867
9904 9699 40075
47515 8452 35572
61750 3424 35086
58568 4271 33935
64392 2721 36011
63739 2894 35836
60904 3650 33504
62471 3233 33927
64935 2577 35841
55986 4959 32472
59477 4029 33863
26998 1513 21644
30182 1524 21507
34229 731 27298
35835 694 27532
29556 686 27580
28558 818 44268
29566 3137 49107
30648 3139 49181
30564 899 26232
20824 3719 39854
27251 1599 50393
26891 1563 49971
65527 902 37549
63371 437 37915
59700 557 38539
64136 881 37785
63044 1140 37970
42319 718 43637
30499 1547 49781
9438 10016 44484
25134 239 30399
36345 2984 4132
31978 2736 7088
29669 2697 7556
32369 3109 2659
37704 2876 5422
34788 2913 4984
31363 2817 6133
34135 2851 5713
34111 2982 4162
35523 2761 6799
38078 2854 5691
31302 3162 2018
33625 2719 7288
36631 3040 3480
34481 2995 4002
29808 2546 9353
32571 2995 4012
34479 3034 3527
21984 360 41372
26047 248 40665
25170 248 40664
31122 131 39929
35421 159 40105
41732 59 39471
21835 265 40771
23726 336 41220
32195 3114 48001
965 14091 35229
716 16338 35301
1632 11561 35035
585 13475 35339
564 14193 35345
33051 1427 22661
31874 1440 22515
18738 5674 38655
35587 3341 24757
35305 613 28039
25594 553 28423
36523 3116 46757
35210 1444 48547
28594 1473 22121
8745 10151 21898
9124 9877 24432
36496 1491 21900
34839 1478 22059
9928 9677 30627
46116 0 32996
42535 4731 43155
39953 2684 13973
39953 2373 14608
22772 3883 43781
24373 5271 39334
32045 5286 39223
18545 3535 32021
8582 9755 50205
17951 1269 38257
44215 778 41047
44215 1014 41581
44215 337 40287
17056 3076 37958
17134 5060 37967
49081 8063 37360
38703 2647 62864
35046 2469 60758
39902 2775 64388
37037 2372 59588
30502 2431 60296
37399 2307 58817
36014 2678 63230
35663 2692 63400
32618 2404 59987
34189 2596 62256
39860 2832 65062
32584 2554 61759
33766 2411 60054
33755 2515 61291
38679 2714 63658
37696 2336 59160
53734 4455 31796
42848 2869 25993
33421 3195 50464
32686 3191 50369
48253 8099 33673
46924 7714 33465
34563 2476 60828
36961 2500 61119
31471 2507 61203
35271 2572 61972
37855 2463 60676
32646 2486 60951
35522 2539 61584
37201 2737 63931
29913 2454 60584
37531 2574 61994
39776 2413 60078
38006 2314 58905
38125 1241 24071
25837 4578 43496
8243 2540 34192
28887 1808 52883
33650 2108 56446
33498 2066 55951
27615 1945 54511
30433 2128 56685
30733 2198 57522
30289 2184 57353
29990 2121 56608
29295 2046 55731
28134 2196 57514
32600 2102 56380
29451 1831 53161
50629 7744 34881
25839 1649 20981
37436 1272 23879
24863 1037 45651
17661 1189 32920
52899 6715 35615
42516 8017 36518
28566 719 27370
23079 730 27300
24785 1366 23640
53931 5726 38627
51473 5705 38638
41087 7539 37131
21924 5203 39813
34532 844 44441
28442 3536 45822
67686 378 35781
5110 10814 29093
3285 10575 20972
5740 10804 28764
5588 10836 29846
8569 10714 25699
2871 10706 25417
5565 10659 23823
2611 10961 34107
5470 10629 22788
2802 10888 31633
3359 10874 31158
2713 10901 32061
3739 10906 32232
3042 10694 25010
6774 10806 28827
7490 10730 26252
38651 1045 25310
30667 3876 4823
32678 3914 3943
33711 3981 2395
32805 4026 1349
31918 3893 4428
32430 3711 8628
36227 3866 5040
32155 3973 2578
33644 4011 1706
35778 3906 4119
38112 3839 5649
35391 3871 4945
34210 3989 2201
41605 168 30854
35590 89 31353
37383 448 29087
38194 460 29007
37885 124 31133
42749 319 29903
40926 94 31322
41764 510 28695
31829 185 30747
26434 220 30525
24477 99 31289
41942 341 29763
36831 67 31489
29603 153 30947
40384 322 29884
39637 538 28514
42622 30 31725
41111 185 30748
43353 685 43429
8434 7192 37093
4862 8038 36885
9472 8075 37154
10306 4344 37202
9658 4685 37165
7033 8153 37012
4737 8854 36878
8185 6625 37079
8669 4505 37107
5562 8398 36926
52221 7067 37534
23397 2572 44760
32765 1303 47332
39953 3787 67763
38686 1994 15918
39064 1823 17954
35725 1856 17546
37001 1835 17815
35238 1626 20298
34960 1589 20727
34250 1689 19549
38489 1846 17685
31911 1779 18474
30839 1710 19294
35833 1899 17039
30781 1609 20484
34300 1748 18847
34754 1620 20375
36149 1957 16357
35543 1974 16141
35099 1985 16018
33109 1679 19673
36679 1651 20004
42061 3624 25434
57360 0 33373
2363 9444 36193
705 15386 35304
1532 13242 35064
971 10058 35227
31382 7 39142
34495 1564 21038
31003 1570 20968
29854 3120 48712
44028 8342 35804
21463 976 41025
21463 2089 41215
34870 1123 46194
36788 1123 46192
66737 1435 36455
39953 3107 55132
39953 3123 58353
39953 3109 56843
4330 9640 50847
38871 3511 25136
27259 1163 24567
31922 1176 24486
39953 2159 50984
39953 1974 54140
38870 22 39238
27667 26 39261
34094 6121 32601
37780 6068 32572
47794 5827 32442
46194 5720 32384
45140 5753 32402
29829 6074 32576
23484 5666 32354
44102 6208 32648
28194 5960 32514
11180 3849 33724
44215 2135 30925
44215 2227 30031
44215 2855 30121
44215 1384 31010
7847 10551 20148
32398 2503 9860
28099 2235 13056
30540 2418 10871
31630 2559 9201
28444 2332 11900
37713 2755 6860
26765 60 39480
35330 1795 52734
39202 2129 56707
37311 1856 53459
37846 1702 51621
37374 1966 54763
29793 1714 51778
39761 1785 52614
34683 1945 54517
32722 1914 54148
34126 1718 51809
39527 2185 57364
38624 2095 56291
39322 1756 52280
38031 1769 52416
37073 1668 51212
31340 1871 53630
39105 1849 53386
38775 3129 24284
38355 5253 39459
8171 8611 37063
7868 8888 36913
52977 6667 36304
26901 4539 43583
30829 4313 44087
27853 4324 44062
24644 2100 23943
30366 1363 23302
31373 1329 23517
63135 2093 33059
59511 2188 32443
57070 1666 32029
59508 3743 32443
57799 3045 32153
61157 2919 32723
58383 685 32252
57550 1745 32110
58658 3053 32298
39112 5178 39994
33295 5079 40698
28346 4960 41539
25955 3114 47990
32159 3114 47613
29502 981 45297
27075 972 45239
27577 1026 45585
24263 1427 46305
3909 18304 35424
2968 15707 35196
2050 17966 35394
1638 18063 35403
2606 15954 35217
29694 5260 39407
50422 7820 35604
38052 3114 22734
63358 1502 33097
64195 12 33239
64721 852 33329
61727 644 32820
36141 4754 43001
28863 4775 42848
27543 1367 23277
30783 1362 23306
25806 2534 21080
41126 7554 34372
36397 3830 25852
27272 3673 25498
28338 3824 25835
57024 0 33764
54070 0 33523
39953 2527 61082
39953 2550 59262
51811 7269 37213
30812 6807 35534
24997 6807 33923
28477 6807 33743
25046 6807 37370
34884 6807 33589
33912 6807 34570
36687 6807 33741
23852 6807 35400
26199 6807 34571
30726 6807 33693
33452 6807 33634
28223 6807 34031
23993 6807 34415
23316 6807 36315
30247 6807 33400
44215 4074 27942
44215 3732 28210
44215 4601 29312
44215 3132 28632
45512 0 33836
40048 1729 22551
43638 634 27909
29538 406 29353
31339 423 29240
29049 496 28783
22496 447 29089
21891 278 30157
30393 454 29049
44736 7633 37594
29661 4560 27477
25794 4351 27012
26066 4547 27450
6854 2945 34483
11678 8113 33749
12849 7765 34425
54867 883 31796
51002 690 31796
50523 701 31796
55521 4508 31796
53073 2522 31796
53796 2344 31796
51277 2328 31796
39953 3572 10597
39953 3439 7157
39953 3474 9665
48929 8231 36026
34587 5311 31967
40473 7278 33737
1316 16565 35271
45236 8477 34372
25497 3114 23831
28862 3114 24056
27708 1423 22717
25554 1439 22520
16138 6807 35845
17834 6807 34110
18634 6807 35261
16469 6807 37045
28988 881 44667
23490 860 44532
25695 817 44264
37279 3114 47765
30085 3114 47335
35552 3181 20906
30394 1498 49188
32285 1501 49224
28451 314 29932
3973 9330 34272
19126 2819 39553
25768 3114 22626
545 7588 35663
465 9733 35640
41680 4610 43426
43842 831 27132
53337 0 34713
54523 0 34873
28404 0 33020
12153 7074 33614
12076 5181 33622
12885 5344 33530
12063 3796 33624
14136 7268 33388
26514 2973 18702
27729 6807 36962
35281 6807 37011
31014 6807 37734
39322 6807 33309
30407 6807 37019
35301 6807 34303
29418 6807 38023
33171 6807 36642
35189 6807 35658
34369 6807 36591
30334 6807 37807
37335 6807 37017
30947 6807 37270
36047 6807 34735
40625 1087 25049
37771 3808 45214
24978 4019 44744
34659 4003 44781
28447 5249 39489
36441 3066 67862
36239 1744 52116
32569 1714 51775
33495 1641 50893
38913 1958 54665
35590 1954 54613
32375 1901 53984
33358 1929 54321
30738 1772 52458
38754 2135 56771
33860 1878 53709
39103 2028 55502
34553 1684 51419
39923 2149 56935
36788 1939 54453
41940 2534 45662
34753 1422 48285
23678 5131 30692
48075 8367 36845
43583 1514 26763
43847 0 34618
32308 3114 22586
33336 3114 22577
31772 3124 22197
29573 3374 24833
24570 3314 24697
28317 3398 24884
44299 0 32779
42436 0 32072
62024 0 33017
57015 0 32597
45799 0 32213
35520 0 32093
31309 0 32054
38479 0 32382
36723 0 32026
47535 0 32581
9845 9756 38593
43236 2377 44655
25415 3101 48852
26607 228 40540
22205 301 41000
33848 106 39766
33856 201 40370
33328 226 40527
29230 298 40982
35009 150 40047
40125 53 39431
33564 1132 24765
38579 3170 49874
34324 4315 26933
41080 1556 46440
26648 5051 40893
26251 5001 41249
25325 4994 41296
34131 5135 40297
26801 5151 40181
37393 5210 39767
39928 2112 21185
39953 3602 2017
37326 889 26296
22661 1366 27399
30489 802 26850
28670 4943 29355
26682 5015 29862
23205 5040 30041
27376 4934 29287
38249 4786 28238
22194 4950 29405
25007 5030 29971
34626 4888 28964
22503 6807 36933
19595 6807 37534
21192 6807 35249
22402 6807 36433
55171 4915 31796
31892 60 39486
28799 3626 45621
4770 10558 50644
54968 0 35010
64830 0 35896
21683 3053 42270
49693 8032 35580
32350 4061 26364
39017 830 44344
43710 4491 27323
8613 12246 35421
21789 3782 28607
21094 4693 31018
10757 8114 37242
10916 6465 37260
32155 1524 21515
30474 1016 45520
26155 1023 45565
33377 1530 49570
36279 3114 48564
51022 7597 35298
31471 6807 34979
32800 6807 33172
29212 6807 35778
24214 6807 33601
23389 6807 35603
37752 6807 33303
25300 6807 33018
28664 6807 34669
23840 6807 36856
25591 6807 36833
27276 6807 33839
25815 6807 34312
66775 710 37287
22917 679 43391
25382 605 42920
23089 584 42791
11112 2486 37282
12183 5951 37404
56100 0 35715
42239 0 34282
38033 3177 50017
31013 3166 49794
5832 9640 51111
39953 2216 51594
38065 965 45198
4521 9640 20552
28723 3953 26123
37918 3339 53795
36530 3742 63103
33622 3461 56586
39354 3297 52796
31235 3667 61372
38366 3422 55696
39843 3326 53475
35347 3422 55688
36075 3454 56435
34907 3601 59834
31650 3617 60209
38687 3644 60837
35631 3617 60198
38427 3352 54078
36136 3663 61268
31807 3588 59542
36477 3539 58394
38109 3554 58758
39711 3349 54021
32654 3581 59376
32217 3507 57665
33659 3519 57949
38161 3448 56299
38219 3309 53086
33061 3529 58159
37963 3748 63245
30669 3631 60522
36944 3417 55581
31661 3555 58763
36106 3404 55267
51993 0 33112
49919 7973 36583
42514 1449 45277
34343 3646 25437
4239 10322 51234
55765 2461 31807
31572 1860 17516
27561 1678 19684
39953 3123 6276
39953 3335 13320
40101 1627 48254
38240 5475 38763
30732 6057 38448
53800 5400 38804
36754 5596 38698
49617 5477 38762
25846 5421 38792
33586 5519 38739
44505 5463 38770
42653 5556 38719
39925 6765 38064
3268 10183 50570
31699 4630 27633
44215 4655 41697
44215 2041 42690
44215 3650 41378
31598 1405 22922
33540 3527 0
26476 3114 23981
29955 3474 56895
32675 3424 55763
29137 3243 51563
28466 3556 58785
30180 3359 54229
33354 3295 52777
31268 3493 57345
27371 3380 54711
28451 3339 53805
35814 3295 52777
32903 3259 51916
30826 3302 52916
35001 3262 51989
33558 3249 51700
37950 3204 50643
27978 3377 54653
38384 3205 50668
30107 3302 52913
30905 3427 55816
6601 9640 49184
6889 9640 46756
6525 9640 48503
9874 9640 41178
5837 9640 50183
8704 9640 45726
4609 9640 49709
6154 9640 47615
7297 9640 48496
35806 3174 1883
38736 3253 943
39674 3111 2630
36333 3191 1683
33847 3231 1199
36703 3116 2567
38408 2997 3990
38701 3170 1917
35913 3291 491
43277 4664 43304
7663 9099 34215
23680 5285 31786
30448 3573 4586
31497 3859 822
31539 2406 11014
33345 2511 9758
29294 2465 10308
28467 2250 12859
30538 2454 10432
38926 3114 48432
24586 5144 30784
35919 2290 58629
30054 2379 59672
32177 2313 58884
33084 2213 57699
32762 2328 59069
30828 2284 58543
25214 1274 23863
31877 1245 24051
31771 4863 42228
30128 4867 42203
26902 4798 42691
34976 4774 42858
37474 4754 43001
39123 5001 41249
34295 4831 42459
29439 4892 42026
28692 4919 41832
41186 4995 41289
23713 4836 42418
33643 5026 41069
39718 4944 41652
37907 4907 41919
24824 4870 28832
33587 4793 28288
33670 1399 22985
34442 3591 11403
29407 3368 16561
31039 59 39472
35232 3534 25187
27998 3572 25272
30030 3432 24960
36184 3038 67511
54244 5051 31796
49499 2878 31796
52606 4932 31796
48147 4228 31796
47429 2075 31796
50224 2539 31796
51209 3544 31796
42050 934 26015
5391 17640 35649
3489 12709 36081
6537 13496 36012
5588 16375 35760
5875 16050 35788
6201 14503 35924
6151 16680 35733
5198 12575 36093
4764 11985 36145
4612 13954 35972
33141 3503 71014
36020 1321 47443
5000 14147 35059
4415 13797 35028
6379 16376 35254
5399 11489 34825
5530 12384 34904
7078 11646 34839
8224 13047 34962
5280 14482 35088
3490 12296 34896
6448 13000 34958
4849 12618 34925
39960 1116 46153
38609 4452 27237
47119 0 34576
54251 0 35277
27862 1698 19447
32476 1906 16972
18644 2788 39311
5267 3409 35506
9850 2073 37010
4333 3681 35994
8821 2373 36180
8174 2561 35239
65971 2008 33849
32479 1580 50171
25201 2066 48327
43933 2538 43730
33950 4038 69951
32688 3900 66773
31973 3839 65368
35446 3990 68837
34774 3900 66778
36081 3946 67822
30874 3943 67738
30850 3719 62557
34190 3990 68843
35133 4039 69967
31705 4024 69627
33633 3918 67163
1380 7417 35906
661 11757 35697
1073 6322 35817
1352 5864 35898
30863 0 32595
66246 1776 33551
39953 2767 18529
39953 2671 20554
39953 2229 14139
52576 0 33689
24064 0 32171
36098 3147 49340
27807 3148 49359
17002 4036 33062
16025 896 33173
15285 1139 33257
16185 3635 33155
14836 3334 33309
15946 1899 33182
15928 4775 33184
35446 4158 44434
30682 3174 21065
36723 3166 21227
34427 3158 21430
29206 725 43679
26767 704 43548
23578 729 43702
39224 0 34288
51839 7256 35975
506 12461 35362
455 10730 35377
23730 4783 28215
29450 4773 28147
35851 862 26468
27728 3989 26203
2684 10365 28254
17882 6661 32894
26355 2733 51741
26328 1797 51643
13927 4202 33412
22151 1274 28123
54382 5720 37389
54551 5588 38441
34345 6807 38006
29278 6807 36812
31366 6807 35619
34634 6807 34842
37251 6807 33845
34992 6807 37633
37784 6807 37756
36645 6807 36810
30916 6807 36408
35735 6807 36283
26868 6807 37056
27457 3839 45146
28121 3746 45352
28767 776 27014
24928 1752 23322
30750 6758 32947
26809 6290 32693
22584 6014 32543
33376 6760 32947
18663 2356 39412
18672 3174 31504
21463 3548 29934
5653 9640 20536
36339 57 39458
27478 1369 47746
29227 1354 47651
3305 9379 34272
55949 4968 39015
23744 3104 25660
5035 3476 36515
6848 2948 36068
9529 2166 36710
9230 2253 34430
6944 2919 35346
21435 4714 30792
0 15009 35505
37749 2148 14092
28260 2000 15833
27948 2133 14265
34760 2150 14067
31005 1928 16707
34333 2066 15066
29466 2054 15208
31066 2104 14603
28043 1752 18789
26966 1785 18390
30833 1874 17351
34953 2046 15307
54921 5300 37681
43666 4818 28466
40134 4915 29155
41199 5019 29894
36795 4909 29112
33759 5039 30037
33698 5200 31176
38849 4866 28810
38774 5267 31657
31875 5128 30665
35312 5260 31602
41009 5239 31456
33622 5271 31680
30997 5209 31246
34219 5205 31212
41931 5210 31248
27878 5205 31218
57377 0 34976
31524 0 32931
42190 0 33751
20631 1910 31242
40260 4430 43827
42968 5855 32457
35493 6510 32812
31974 6112 32596
43147 5500 32264
34930 5875 32468
49281 5355 32186
45102 6096 32587
27994 5557 32296
43166 6268 32681
35870 5763 32407
24457 5656 32349
22227 4376 42997
25995 435 41845
10630 9007 34638
43872 4986 41352
30778 4894 42011
40393 5131 40328
40719 5166 40079
38082 5057 40854
38749 4782 42801
33528 4775 42855
31926 4952 41599
41365 4828 42479
36038 5030 41040
40144 4984 41369
27368 4820 42526
28218 4836 42422
42033 7890 36481
5030 10844 40905
6324 10668 46896
3894 10816 41838
5238 10743 44332
2916 10783 42952
4134 10655 47316
5972 10763 43663
5588 10699 45826
4193 10839 41047
3738 10673 46702
4404 10612 48786
4512 10735 44584
5590 10688 46211
24044 2824 25121
2090 8745 36112
2027 8338 36094
2244 7890 36157
10783 8862 36486
17822 6575 38167
27907 2847 57311
28628 3219 59898
51336 7295 37777
48696 7040 37915
37139 905 44815
32742 868 44583
36836 0 33253
41765 682 27606
19051 6385 38270
9574 10141 27440
17196 381 34171
16823 463 34346
17294 360 35772
15497 754 35612
13350 1226 37465
51647 5337 32155
48280 5334 32133
53952 5291 31829
33271 1069 45855
23866 2525 45565
6065 10845 40856
5742 10937 37707
6700 10944 37469
6756 10878 39743
7757 10851 40655
5499 10958 36991
8803 10776 43219
4305 10980 36246
7190 10905 38813
30196 3274 24610
7827 9640 37823
9132 9640 39853
8335 9640 39933
7658 9640 36815
8879 9640 36875
2372 8870 34655
37563 3114 23593
32916 3114 23818
58302 817 38776
58365 1692 38765
60653 3116 38377
56827 4424 39027
57982 1680 38830
57694 1418 38879
59628 3519 38551
60757 3482 38359
53760 6176 35752
17867 4662 32813
48768 6873 33009
40528 3014 47230
9268 10819 33836
27977 4613 27596
28556 4408 27139
23050 4493 27328
29836 1641 50897
33742 1614 50572
4265 5048 34436
3916 5814 34406
4717 3950 34485
2545 9057 34264
2770 7696 34379
3797 7032 34291
3653 4144 34632
20635 3673 31240
21344 5187 39928
46218 8486 33883
39364 1187 46602
2588 10088 40800
2634 10022 41730
2868 10506 46560
36002 3151 21582
32839 2240 12976
39715 2473 10218
34288 2269 12642
29975 2258 12777
39286 2218 13255
37626 2582 8927
37138 2590 8815
36928 2323 12001
34408 2488 10045
34311 2207 13386
37027 2368 11467
33208 2317 12078
8722 12011 35786
7964 13662 35509
27466 4796 28309
54235 5834 33350
47508 8452 34238
35514 0 32593
41378 4536 27425
40570 615 28032
26764 365 29610
24937 312 29947
27187 451 29065
28865 400 29391
24282 294 30056
32931 419 29270
26856 2911 17476
39930 2788 49843
39614 3114 23496
39953 3770 1543
28410 2876 59116
26937 3094 53829
2367 6915 34768
34381 4115 26484
25271 4238 26759
35928 4242 26767
32645 3366 54390
36377 3301 52898
30951 3378 54664
30427 3548 58600
36627 3259 51934
36377 3245 51631
29402 3589 59591
34274 3380 54711
28145 3503 57560
35468 3256 51857
32410 3314 53205
29772 3551 58684
28088 3284 52501
31882 3404 55266
34683 3344 53885
33543 3222 51061
33861 3408 55368
33700 3353 54106
32406 3391 54967
29832 3396 55082
30997 3349 54023
2335 5173 34831
2328 7620 34833
39527 6813 37238
35523 5028 29959
32593 5205 31217
35090 4941 29342
29177 5126 30657
41025 4891 28985
34745 5183 31060
38032 5226 31364
22830 5267 31654
31822 5071 30264
32089 5184 31065
43790 4897 29027
33038 5260 31613
30580 5259 31602
34864 5117 30586
36296 3364 71014
34965 3367 71014
33337 6039 38457
39032 6018 38469
39456 6073 38439
35248 6507 38204
20722 5348 38832
22665 5525 38736
47645 5739 38620
27019 5516 38741
33008 5747 38615
55734 3324 39212
31217 3128 48890
34123 3129 48916
39972 0 33196
42893 0 33346
9657 9972 28960
25297 2680 48562
30639 3114 23855
33862 3529 12837
39544 3618 10781
36375 3449 14697
37126 3314 17800
34135 3254 19202
39421 3467 14278
38241 3356 16829
39424 3689 9131
31804 3352 16935
31176 3218 20047
38277 3339 17207
37483 3674 9491
34449 3279 18626
32688 3362 16717
36640 3664 9724
30316 3324 17592
31959 3288 18427
36063 3596 11285
35502 3320 17674
36921 3435 15025
38399 3712 8618
31305 3327 17522
37005 3343 17156
33440 3297 18215
30949 3414 15507
37738 3727 8263
36302 3302 18097
37306 3291 18351
39192 3753 7658
33175 3504 13413
32454 3312 17854
32728 3253 19236
39096 3538 12645
39418 3709 8648
39319 4509 43648
45731 239 39218
46234 231 39218
29315 2665 8653
29983 3020 6257
30016 0 33196
25476 5247 39500
30441 4765 28092
29056 4740 27910
39746 6921 36461
41855 3267 45719
22265 909 27964
47453 5305 39079
29834 5311 39046
17973 574 32741
65066 0 35136
43372 0 33637
56534 0 34528
41817 7184 33177
27909 1083 25071
35295 1071 25146
36821 3270 18831
32616 3480 13968
34102 3272 18791
39810 3682 9310
38378 3664 9713
39906 3596 11307
28927 3251 19282
36301 3397 15901
35904 3310 17908
37222 3519 13066
37481 3691 9088
35548 3381 16239
34137 3360 16746
36688 3523 12985
33483 3342 17169
34199 3476 14062
32444 3378 16347
39696 3299 18155
34782 3354 16901
34298 3189 20688
38461 3320 17671
26825 3227 19824
32005 3230 19753
32447 3289 18400
29950 3212 20179
38335 3527 12888
38365 3440 14892
39264 3366 16623
37854 3184 20816
38169 3569 11922
18383 139 32319
44173 1045 27745
51311 6409 38257
34259 3114 48295
26140 3163 49701
60052 3877 35154
62496 3226 36682
57677 4509 33757
56225 4895 33918
56929 4708 33730
57608 4527 35871
60266 3819 35915
56922 4710 34995
61187 3574 35603
57322 4603 34611
57569 4538 36279
63207 3037 36477
7252 9640 23435
9410 9640 27865
6929 9640 20894
7228 9640 22081
8557 9640 23083
5796 9640 23394
8183 9640 26438
8528 9640 27613
7778 9640 25641
7350 9640 24308
21463 4191 29551
66275 1781 34202
66274 1781 34839
44473 8410 35925
27440 3251 46459
48897 3605 39218
48097 3996 39218
48191 5210 39218
48661 2021 39218
52279 4238 39218
50562 2897 39218
47535 2882 39218
38217 3114 47398
43890 690 27558
19583 2116 39547
37606 3064 67826
34808 2851 65293
31779 2565 61893
34725 2701 63518
39772 3174 69129
38352 2799 64690
36910 2855 65355
37241 3054 67704
33546 2780 64455
36240 2897 65838
32609 2708 63592
2852 16779 35724
1797 15539 35833
3507 19060 35524
3468 17647 35648
2573 14363 35936
3818 17078 35698
4286 19135 35517
29583 3258 63325
30665 3027 67205
5091 12188 36127
4732 16140 35780
7801 11915 36151
3710 11203 36214
6864 13053 36051
6759 12534 36097
7145 15279 35856
6789 14953 35885
8189 12147 36131
14921 5576 33299
16802 6549 33085
32887 3114 47782
25116 3114 47760
50000 5288 31802
9390 9772 26218
38650 508 28707
35204 167 30860
38025 53 31579
36767 181 30770
40048 151 30960
31504 338 29780
32099 111 31216
39052 297 30040
36535 419 29269
40375 36 31688
42815 524 28605
42295 304 29995
35782 253 30314
33419 283 30125
37485 60 31530
43455 159 30909
41362 288 30096
36324 93 31325
28993 186 30741
62210 0 35858
35424 0 33406
62779 0 35877
34322 4045 71014
32579 615 42982
35394 619 43008
31752 650 43206
44215 2002 31404
44215 628 29987
44215 4047 31470
44215 2227 29231
18680 55 35242
66872 0 33953
65972 2007 35108
49005 8211 36888
42330 3095 45402
46807 1949 39218
20641 6752 32943
22174 3672 28091
27862 2381 13867
46224 8519 36490
34230 3114 47596
55730 1856 31801
24745 2839 47285
21463 3402 41129
5222 8638 36906
7630 5346 37047
9642 6595 37164
9988 6318 37184
7398 6711 37033
9087 8278 37131
5984 7312 36951
10059 6702 37188
66746 309 37302
50100 2690 39218
50713 4238 39218
49138 4579 39218
47283 3757 39218
50603 4918 39218
23036 2903 26834
17155 1236 33045
15056 2056 33283
17326 5904 33025
13659 1833 33442
15656 3839 33215
16628 4744 33105
13830 2930 33423
14200 3903 33381
35575 1399 48031
43135 8178 36263
31925 4303 26904
11207 2746 33721
13297 4381 33484
14413 6918 33357
11624 4209 33674
38857 3012 67201
34534 2803 64715
36623 2980 66825
39593 3047 67624
38487 2879 65621
14826 1363 37704
15792 1674 37814
16626 1079 37909
17251 407 37980
14938 2732 37717
15782 3323 37813
25175 664 27719
38357 637 27888
37929 5264 39378
47187 1491 31796
51333 5112 31796
47630 3842 31796
49761 4223 31796
50267 4426 31796
48229 2857 31796
48142 1570 31796
53190 6260 32676
50520 5298 31876
37041 5326 32072
9601 9528 36742
34333 3114 24033
19111 868 39555
52631 3585 39218
29516 3116 22379
40241 6908 33028
38227 1508 21698
35421 3631 45610
43926 4414 43743
38387 3151 46681
51673 0 32681
46022 0 32518
52563 0 32303
27329 0 32031
44872 0 32156
61105 0 32734
47019 0 32619
54775 0 31967
49542 0 32897
62056 1109 38138
60826 955 38347
63341 1586 37920
59253 457 38615
30098 3784 65171
42140 7920 35795
39266 946 25935
29900 959 25855
48409 8315 35947
32083 562 28364
31321 582 28240
28241 3979 26181
44215 3292 27951
44215 1870 28339
44215 4873 30028
38462 3120 48700
39455 1416 48222
38435 1415 48205
48735 669 39218
55618 25 39218
53279 38 39218
52211 2157 39218
55339 4741 39218
52873 1657 39218
51129 97 39218
49557 681 39218
36584 3567 59038
34231 3629 60483
34006 3662 61256
33571 3589 59548
32940 3632 60544
39245 3602 59859
38797 3449 56313
34129 3535 58306
39260 3330 53568
39428 3561 58907
37825 3513 57793
37701 3467 56734
37561 3362 54302
29247 3629 60480
33867 3717 62506
39228 3374 54583
39714 3702 62159
38507 3515 57878
36002 3553 58715
37577 3395 55060
36489 3339 53808
37400 3736 62946
35961 3114 22939
36925 1165 24553
34772 4084 15
31460 3928 26067
30318 3754 25678
38212 3839 25870
33309 5284 39236
18738 42 34005
44215 1494 41988
44215 2615 40673
65097 0 36875
38915 3691 0
62117 0 36879
4536 10555 20289
55705 694 39217
26300 4756 42988
9531 10097 43857
9295 10760 38243
53780 2490 39218
54650 1817 39218
55583 2712 39218
48428 280 39218
50367 895 39218
52713 938 39218
53538 3266 39218
31567 2025 55464
32630 1979 54921
31644 2057 55849
36142 2087 56206
27586 1996 55116
27267 1728 51929
31848 2106 56431
29643 1998 55142
38180 2196 57510
28157 2142 56856
25468 2079 48994
39953 3326 67068
12701 1368 34901
16102 621 33831
11634 1603 36540
12609 1389 34446
10672 1833 36317
37853 3207 69521
34470 2988 66919
31468 3123 68523
36978 3124 68543
33102 3159 68965
31071 2750 64094
30207 2679 63241
37193 3174 69149
32672 3144 68777
34002 2905 65936
30028 2779 64436
33529 2892 65774
38658 3281 70402
13780 7488 33953
11648 8122 34640
18876 5034 39584
6309 17274 35367
8970 9162 36765
2657 19118 35495
2931 18567 35447
994 19125 35496
4134 17150 35322
2193 16586 35273
27225 3133 21996
42664 26 39263
20049 4451 31410
37206 1563 21046
41092 7541 35063
15364 6026 37766
16564 3917 37902
14068 1639 37618
14282 1268 37642
15823 5129 37818
27240 41 39359
3414 10142 20220
41642 3664 25477
7453 8445 33978
6815 8318 34015
9015 8259 33887
9444 5112 33862
9107 5291 33881
7889 7704 33952
7235 7434 33990
6974 7033 34006
5527 6661 34090
41255 4304 44107
39173 4223 26726
62506 0 37053
971 5122 35227
197 17847 35451
5788 9640 30883
8545 9640 32281
3100 9640 28916
7725 9640 31588
3866 9640 29795
3144 9640 31396
4153 9640 32601
8187 9640 33890
5777 9640 29795
3718 9640 23652
3543 9640 25926
7044 9640 28659
9600 9640 33673
4197 9640 30004
7600 9640 34250
4423 9640 31656
8456 9640 31748
44215 3260 42935
44215 4585 40726
44215 3220 42226
27852 3301 18122
66366 463 37441
22100 5198 31168
26099 0 32676
50294 0 35264
32339 3174 21038
39580 1455 22329
25534 1892 21840
36589 3957 2947
38921 3871 4946
36656 4068 369
36709 4021 1467
38827 3967 2709
36178 4049 809
38429 4019 1515
36703 3992 2125
8469 10672 24252
6880 10580 21148
7109 10656 23736
7334 10633 22924
26193 1505 21731
2833 9752 45821
2999 10072 49240
36450 742 27224
9612 10068 41623
9430 10465 42241
9407 10516 35717
38403 1117 24857
9609 9640 31886
7438 9640 29259
7675 9640 29559
5287 9640 24740
6324 9640 25815
29638 3706 45442
23758 3751 45343
39467 1301 47322
58186 0 33599
20295 1033 39662
57073 0 38792
53091 0 37753
52206 0 37652
45686 0 35501
42456 0 35552
39414 0 34965
54528 0 37484
54648 0 36999
44966 0 35976
49235 0 36950
51096 0 35756
61339 0 37570
52546 0 36580
51767 0 36158
58131 0 36638
45480 0 35901
47051 0 36877
52110 0 36816
56555 0 37839
44730 0 34995
41504 0 36022
33587 0 33760
53738 0 37441
41061 0 34416
32360 0 33440
22633 4215 43574
26482 414 41715
28412 404 41650
24765 496 42231
32044 268 40793
38264 6804 38043
25478 5836 38568
28291 6680 38110
25841 6115 38416
42404 3102 25659
8790 10680 46471
6730 10623 48421
6149 10602 49121
6474 10576 50022
7038 10655 47332
43771 7438 37699
34927 3223 24493
17916 3688 38233
25198 4372 43955
34070 4363 43977
49110 7774 33497
9990 9617 35307
23890 1118 25407
25933 1522 49476
37345 1504 49263
50590 7684 33448
29732 2884 7156
28984 2982 9840
5824 9893 19780
45479 0 34653
37074 0 33762
40528 3309 46329
42740 466 42042
42862 216 40464
43048 390 41565
35692 580 42762
44149 483 42150
41634 374 41462
36867 535 42480
29477 518 42372
38241 228 40542
43523 482 42146
38614 331 41188
37784 609 42950
33850 583 42780
41621 262 40752
36231 379 41493
45784 8505 35641
2584 4191 35618
34431 1901 17021
33644 1677 19689
31642 1674 19711
29128 1684 19608
39592 2134 14248
33299 1895 17092
36341 1918 16819
39787 1952 16422
31994 1710 19302
28931 1624 20316
32814 1737 18977
33448 1634 20190
37061 1978 16110
36562 1598 20629
37684 1697 19454
36651 1685 19588
31613 1814 18047
35606 1756 18736
52735 881 31796
47273 60 31796
55578 2944 31796
51966 2354 31796
53909 3301 31796
52926 3370 31796
52607 1307 31796
21706 2709 28715
26718 2344 53046
56891 4718 32105
28828 1259 47056
35388 1238 46920
20208 1638 39639
64024 1698 33210
9055 9331 34272
48977 0 33651
59237 0 34158
37311 7 39141
46797 0 34914
58364 0 36250
1699 18536 35570
4073 15909 35801
4946 18842 35543
2142 18781 35548
4392 9711 51234
23063 3902 44222
32711 4079 104
35163 4003 1888
39487 3900 4243
39430 4008 1758
39907 4004 1838
39437 3973 2582
2788 9741 44909
39219 3876 66195
36121 3811 64692
33043 3721 62601
34274 3767 63685
39927 3863 65904
35531 3879 66276
39344 3906 66884
36367 3850 65600
39346 3854 65719
32839 3779 63949
34412 3851 65618
34206 3950 26117
17351 6807 37320
22264 1684 43048
24838 3027 23523
36530 3726 8293
29235 3614 10856
30799 3607 11042
30545 3592 11395
31424 3561 12100
30057 3415 15450
38426 3776 7140
38359 3796 6677
32683 3626 10610
26772 3312 17860
31955 3682 9301
26782 3289 18404
33408 3594 11325
49440 7474 37680
46928 7208 37824
60592 0 35941
63230 0 36238
7793 10621 22537
6363 10619 22453
4200 10578 21054
7974 10570 20777
8090 5450 33941
9237 3151 33874
10084 2694 33824
9961 5119 33832
10040 6536 33827
10032 6996 33828
10074 3164 33825
34359 5273 39319
479 17286 35644
1421 13029 35918
2340 7135 36184
31662 2713 63650
35308 3248 70019
31818 2774 64378
31790 3020 67318
31065 2894 65812
31895 2879 65628
31492 3226 69751
29719 2680 63262
30550 2932 66257
33990 3255 70103
32593 3272 70300
33252 3109 68359
31363 2676 63211
31373 3187 69287
39953 3422 62309
39953 3458 59803
39953 3202 59291
39953 2755 53478
39953 2863 59835
59441 4039 38438
35170 3154 49493
67590 1 36357
36709 3562 45764
25627 3094 21592
28099 3114 47002
39953 2949 66130
45569 7390 37725
33809 3114 23894
66762 1416 33911
21463 710 30493
21463 3109 30340
64305 2744 34226
64001 2824 34981
63172 3045 35876
58254 4355 33706
60320 3805 34289
64751 2626 33828
62472 3232 34490
6767 9640 45776
8079 9640 46134
7435 9640 47362
5581 9640 48225
8077 9640 46995
5751 9640 47522
6804 9640 46225
8729 9640 42629
43351 3557 44529
38332 4529 43606
36960 3058 3262
38069 3194 1641
36924 3199 1582
34946 3213 1412
35540 3247 1011
38934 2923 4867
20859 6618 38143
37247 0 37182
23151 0 37637
28189 0 34579
22649 0 33612
48250 0 37562
34906 0 37079
29261 0 37702
31606 0 36032
37456 0 36037
28513 0 36345
33401 0 37145
31855 0 38376
30595 0 36583
42009 0 39086
33194 0 35750
32418 0 38246
56163 0 39091
24663 0 34347
23319 0 32973
21392 0 36456
23045 0 34789
39761 0 36574
29280 0 34757
26699 0 36820
42785 0 36790
30569 0 34182
33239 0 37988
27405 0 38159
22433 0 37689
19141 0 38961
30927 0 38865
47178 0 38328
21061 0 33576
30080 0 37535
26507 0 35595
27973 0 38849
19313 0 33052
37682 0 36760
27873 0 34973
20082 0 34447
48565 0 38272
35533 0 39098
37168 0 37997
35621 0 36399
40962 810 44216
8908 10159 48025
1047 16322 35764
33366 909 26173
21707 1654 28713
51345 7477 34106
55721 0 33239
37883 3148 49352
25755 3114 23406
35156 3114 23391
54045 5982 37165
54327 5762 32872
40827 824 26706
26418 882 26344
27538 808 26809
54428 4691 39218
57673 910 32131
59494 1391 32440
60607 3391 32629
61745 2092 32823
56371 4513 31910
56727 327 31970
56449 2240 31923
57097 2974 32033
63835 2500 33178
60678 727 32642
65662 1513 33488
63630 472 33143
63132 1100 33059
39953 2719 9640
39953 2644 8559
7374 10926 32918
3682 10953 33833
7453 10873 31117
6238 10840 30001
5149 10968 34351
8363 10953 33842
5180 10951 33773
9268 10808 28909
7530 10946 33612
27756 3114 48013
39411 3114 47960
3775 10546 19969
2868 6327 34515
3288 5403 34550
7427 3304 34130
5265 6230 34147
3323 7446 34319
4753 6655 34182
2418 10246 33724
2379 10740 34512
48565 0 37144
36245 0 34348
58151 0 37639
36027 0 34970
63722 0 37838
51102 0 37894
54481 0 38252
47661 0 36948
55841 0 36304
21997 0 32502
34540 0 33820
40970 0 35260
41424 0 34968
53953 0 37015
65516 0 37532
48087 0 35832
50249 0 36790
5970 3204 34680
15177 825 35336
15219 815 36092
16884 449 36110
14423 990 36809
12424 1429 36617
23927 3362 25341
2773 9640 36908
8995 9640 37259
9393 9640 38999
6295 9640 38346
34582 1478 48950
37773 1495 49160
43481 0 34213
39025 0 33799
27733 2399 56684
6174 13331 34987
7712 11587 34834
2799 11811 34854
5593 17054 35314
3378 10993 34782
4854 11759 34849
6815 12549 34918
7140 14067 35052
4978 13451 34998
48706 0 34081
43271 4632 27638
28159 2477 58214
25191 130 39922
37100 1045 45703
11514 5957 33686
46535 4016 31796
45045 907 31796
21161 123 31136
36072 4079 91
22173 4883 42089
26331 4907 41917
34522 5087 40639
6693 9640 22045
4476 9640 21304
9397 9640 27328
7130 9640 25288
3943 9640 20860
6170 9640 22387
6979 9640 24655
53890 6094 32948
53277 6479 37462
321 4886 35416
28737 3138 21899
23913 830 26668
35408 834 26648
29751 4016 26263
39999 3114 47250
58104 4394 37809
55915 4977 36850
56188 4905 35096
57705 4501 38021
60808 3675 35771
55678 5040 34023
60140 3853 35547
58989 4159 37424
56003 4954 38204
59615 3993 36729
58953 4169 36859
25443 1121 46183
31967 1124 46199
221 8043 35569
35032 3038 3502
37209 2909 5031
34125 2778 6591
39044 2858 5645
30931 2988 4091
32923 3248 995
33430 2913 4983
31866 2665 7938
29237 2546 9347
35698 2995 3995
31884 2955 4474
32361 0 37657
20812 0 34131
28295 0 37334
22055 0 37835
40876 0 37236
28496 0 38093
25260 0 34167
20997 0 38972
27896 0 33838
29754 0 37935
36227 0 38608
34843 0 35766
28917 0 38982
20685 0 32931
32394 0 35893
28894 0 37167
44054 0 37515
41520 0 36608
38117 0 38046
23434 0 34455
21941 0 36500
46316 0 37507
48568 0 38983
33459 0 38996
25766 0 36876
24095 0 35626
26666 0 34875
18963 0 36317
34267 0 37736
46738 0 39030
20962 0 36290
23788 0 36983
44418 0 37708
22213 0 33146
20172 0 38811
34428 0 35084
29513 0 35625
49930 0 38373
21010 0 32647
49875 7215 33194
42216 6939 33045
30828 5326 38943
39953 2629 17658
39953 1816 19586
32506 773 43982
35336 769 43957
32907 762 43911
63965 0 35343
26743 2187 17881
26397 2980 19123
11105 6081 37281
10989 3777 37268
51893 5299 39135
40045 1269 23894
9681 9836 42860
30885 6301 32699
25077 5963 32515
31477 6769 32952
24072 5808 32431
36938 6778 32957
27883 2029 15487
30525 2131 14287
39370 2183 13666
29600 1910 16910
27032 1856 17567
28077 1802 18209
30625 2074 14970
26402 1724 19134
34004 2121 14403
27523 1999 15850
30127 1853 17602
29373 2179 13712
2877 8750 36768
3557 7924 36784
5863 6017 36937
3460 4362 36376
6145 3435 36697
3678 4720 36450
30296 2268 58351
34411 2286 58570
34117 2256 58216
35105 2235 57957
20543 6046 38453
18852 5294 31845
45447 4736 39218
44739 4444 39218
65388 2444 36789
21463 4627 40378
21463 2674 40924
19430 5800 32427
47042 8205 37283
29564 1464 22226
21463 3381 41659
27868 1533 49610
