ply
format ascii 1.0
element vertex 2165
property float x
property float y
property float z
end_header
2505 47113 13754
1606 91800 14243
3076 93924 11283
3076 90568 10827
3076 91716 10956
2000 34244 15713
1806 33947 14923
2549 83535 7568
2429 13224 12417
2635 51969 10349
2635 49691 10374
2635 77442 10393
2635 60677 10462
2635 37491 10300
2635 74290 10411
2843 72085 11318
1467 29415 13507
1467 29909 10457
1467 33732 13994
1467 56344 11955
1467 55465 12194
1467 41051 12984
1467 38001 10417
1467 53103 11500
1467 35517 13920
1467 35671 11861
1467 34547 10641
1467 40946 10847
1467 31743 12030
1467 37526 10668
1467 53617 10597
1467 42756 12287
1467 62466 10753
1467 48022 12786
1467 33002 12810
1467 51274 11081
1467 50104 12140
1467 51998 11659
1467 43867 11111
1467 29874 12854
1467 43190 11210
1467 31767 13129
1467 44889 12493
1467 70071 11032
1467 35253 12480
1467 33898 11423
1467 32296 10814
1467 61993 10869
1467 41772 10387
1467 33707 12389
1467 54424 12474
1467 48342 12026
1467 47432 11882
1467 57415 11419
1467 30521 10471
1467 56313 10527
1467 43358 13215
1467 52229 11000
1467 39373 10874
1467 29606 14365
1467 75017 10410
1467 36053 13863
1467 41931 12332
1467 30336 12159
1467 32695 13818
1467 32843 12158
1467 31306 12480
1467 32189 12730
1467 40460 12917
1467 29277 12690
1467 55499 11156
1467 65665 10658
1467 49037 12309
1467 37460 11835
1467 50511 11620
1467 38887 12082
1467 57925 11058
1721 82550 14997
1099 30776 10280
969 28759 10280
736 45977 14277
875 44778 14395
874 56832 14393
706 28823 14251
807 63604 14338
831 54258 14357
818 45438 14346
892 52483 14409
1249 75508 14656
1124 62783 14586
1345 78331 14710
1270 76047 14668
1224 66539 14642
1084 65011 14563
1182 54948 14618
2076 19289 15172
2843 74484 11865
220 37057 11529
246 34911 11479
342 65874 11296
319 30115 11339
319 49058 11340
232 33881 11505
2076 25202 17220
1467 82980 14673
2034 30542 14778
1467 85153 13155
1467 84514 12679
1467 86546 12829
179 30822 14778
0 28579 14385
0 31749 13232
0 28195 13176
2076 32515 20176
3076 88194 9775
3076 88455 10249
2843 75934 13595
2843 76302 13193
3076 83940 11511
3076 86675 13022
2450 39426 14778
2549 66384 14778
2521 31777 14778
2635 36639 14778
2295 38426 14778
2525 33314 14778
2364 41385 14778
2318 12487 11576
2843 71905 12218
3076 88316 11206
3076 93728 11984
3076 89173 11366
3076 91587 11372
1535 81799 14818
83 11848 23195
59 10453 24118
472 15215 20971
471 14590 21384
340 12754 22597
2635 77778 12221
2076 9106 6944
2635 80660 13011
1208 81014 11359
2122 91825 14263
2419 31797 18470
2635 74500 14649
2635 46780 14091
2635 65636 14732
2635 60721 14576
2635 49434 14102
2635 42204 14498
2635 51181 14626
2635 67479 14641
2635 46226 14454
2635 52959 14307
1467 93509 15207
2635 61539 11132
2635 48571 10800
2635 40829 10535
2635 60246 10936
2635 70242 13182
2505 50439 11472
2076 12828 22233
2076 11299 22056
2076 13629 17549
2076 12659 20613
2076 13301 18280
2076 16628 19351
2076 15644 18658
2076 15288 19825
2076 13316 22017
2076 11838 18996
2076 10152 23769
2076 14131 20131
2076 14102 17260
2076 11101 20329
2076 14277 17730
2076 10433 23412
1757 92393 14723
2076 17474 16463
2843 73975 11346
30 79986 12221
4 40230 12484
32 71930 12193
6 66737 12469
4 41456 12485
5 62684 12471
759 70334 14296
789 34068 14321
769 58383 14306
694 42571 14241
697 56393 14243
793 55453 14325
2738 67731 14039
2076 20226 13352
2076 21909 13588
2076 15907 14621
2076 20972 14420
2076 22409 14458
2076 24818 14595
2076 23724 14119
2244 18869 12093
663 67892 10856
612 44795 10918
482 36445 11083
674 58445 10843
683 45217 10831
599 41877 10936
664 40710 10854
460 37177 11110
1551 9450 24780
1898 14088 21716
1687 13219 22290
215 9840 24523
1257 14167 21663
1467 85572 12040
1467 84528 11281
1467 88486 12602
1467 91197 11999
1467 89716 12173
1467 87004 11528
1467 82571 10465
1467 88256 11790
1467 94181 13962
1467 94639 14409
2635 79036 14039
1164 51588 10450
1125 40461 10472
1215 55265 10421
1111 64224 10479
1329 45518 10357
1104 48203 10483
1361 36437 10340
228 33893 10372
760 77838 10761
811 76125 10718
942 53232 10607
906 60933 10638
863 69669 10673
2419 31765 19952
2843 71176 13213
2315 21086 12581
1508 84836 14352
2505 57840 12669
2505 57788 13204
684 31048 14778
157 31770 14778
2076 25836 12425
2076 27306 12472
2076 28032 11883
2076 27953 13453
2076 29981 7025
2076 31822 9479
2076 31520 10220
2076 33331 8886
2076 33739 8354
2076 31595 4334
2076 32752 6665
2076 32296 8208
2076 32889 5470
2076 30477 8132
2076 33215 9370
2076 33516 3738
2076 31534 7753
2076 30995 8820
2076 30457 9294
2076 10051 10652
2076 11219 13599
2076 4341 3759
2076 6605 6901
2076 3351 3917
2076 6777 5979
2076 8939 8462
2076 2263 2552
2076 5400 4818
2076 11388 9530
2076 7414 6554
2076 12285 13394
2076 12061 12190
2076 9280 9664
2076 10416 8057
2076 6253 6339
2076 7076 7001
2076 9649 8381
1720 75329 14778
2000 69375 14778
1566 50487 14778
1859 77044 14778
1499 48254 14778
1890 78150 14778
1790 53911 14778
1525 44394 14778
1869 79475 14778
2318 71840 14778
1967 68252 14778
1891 52976 14778
1880 61346 14778
2076 26916 19718
2635 56458 10500
2515 12526 11126
2400 12747 9121
2635 30388 14475
2635 30396 13975
2635 28876 11676
2635 40979 14187
2635 31044 11670
2635 29808 10672
2635 37537 12473
2635 32676 12398
2635 34332 14423
2635 40915 13348
2635 32889 13024
2635 43976 13396
2635 33863 11507
2635 40394 13509
2635 30346 12729
2635 33598 13435
2635 30601 13087
2635 33225 12544
2635 29360 11229
2635 31030 12123
2635 28251 10998
2635 39278 13995
1135 33649 14592
2635 72834 13412
0 26562 18494
0 28318 20975
0 27813 19826
0 23948 20567
0 32603 22041
0 34641 21251
0 34036 19534
0 28640 16361
0 22723 19689
0 34007 20071
0 30966 17635
0 30229 15839
0 33392 20903
0 31914 21184
0 34390 17743
0 32127 17556
0 26397 19199
0 29773 18542
0 33324 20403
0 30882 20706
0 35658 21385
0 31988 22387
0 23322 19630
0 28147 19267
0 33314 17522
0 29376 16650
0 31662 19370
0 35854 22273
0 30450 16963
0 33225 16709
0 23427 18332
0 24988 18353
0 33757 22289
0 31736 21969
0 20526 19047
0 28486 16827
0 35037 20269
0 26874 19698
0 19664 19598
0 26901 21376
0 29920 19889
0 24557 19318
0 28515 20557
0 28904 18838
0 32621 19527
2843 79637 13097
2720 78029 11570
2076 14007 18581
2076 13531 19332
2076 12796 17069
2076 11641 22642
2076 17128 19364
2076 14421 18755
2076 12352 17490
2076 12222 19781
2076 14933 20795
2076 11571 23261
140 59917 13317
168 65725 13412
95 61560 13168
142 55243 13326
135 74833 13301
145 51364 13334
3076 84500 14088
2076 4709 3388
1467 92996 14348
1896 33893 7334
1825 33893 4393
45 79037 12060
42 31934 12082
45 34185 12065
43 31488 12074
32 46641 12196
36 52223 12153
15 28491 12368
774 33893 3249
1124 33893 2365
1813 33893 232
726 33893 116
1392 33893 8692
2635 32302 12750
2635 38319 13726
2635 33307 14036
2635 35697 13596
2635 37856 12851
2635 30961 14453
2635 42135 13819
2635 31673 11482
2635 30995 13739
2635 36735 14127
2635 28549 10474
2635 28382 13775
2635 37630 14177
2635 35795 12272
251 28156 11046
0 18125 18927
0 21249 12806
0 11856 10287
0 11054 11173
0 13657 11696
0 18737 14996
0 8141 7408
0 11428 7821
0 12608 13404
0 17219 15842
0 17332 16475
0 5680 4698
0 4467 4462
0 6690 5916
0 17653 13344
0 15020 11610
0 22820 13026
0 15791 16144
0 21626 13405
0 14902 9836
0 19098 16169
0 15618 15661
0 25558 15410
0 21828 16971
0 16322 16663
0 23468 16439
0 13485 10435
0 18280 11764
0 13045 7406
0 21789 11553
0 15450 11356
0 5886 5287
0 13572 7114
0 4673 3554
0 20303 13825
0 15750 9745
0 18448 15737
0 21433 12282
0 15244 14548
0 21196 17579
0 21263 11845
0 22507 16004
0 17849 11583
0 18604 18751
0 15089 15681
0 20105 16279
0 7237 5074
0 9127 4894
0 11698 7329
0 20096 17600
0 14872 15213
0 16739 17868
0 14014 14315
0 11890 9669
0 17820 14595
0 13976 15357
0 11945 6763
0 12423 9729
0 18371 10553
0 20500 11440
0 19808 15277
0 9993 9451
0 25268 13325
0 18991 10411
0 25559 14476
0 5053 3331
0 18939 11822
0 26144 14423
0 19559 12487
0 7208 7465
0 24240 15306
0 10437 7540
0 25132 14819
0 21165 15257
0 7076 4316
0 11838 6253
0 9904 6863
2400 12811 9925
2985 90337 13478
2259 96018 15063
2864 83172 9114
1865 96728 13769
2698 78029 13522
2505 50820 12508
2076 21113 12959
1669 65082 14778
1816 69815 14778
2158 62223 14778
2046 67293 14778
1996 73664 14778
2111 80653 14778
1554 42284 14778
1492 67914 14778
1689 66913 14778
1571 80392 14778
1852 65831 14778
2897 81577 12810
2843 68962 13564
2843 68273 11960
2076 30723 17786
2076 34580 22104
2243 30823 10280
2546 28156 12056
2076 21746 11601
2076 27433 10537
1467 83270 12950
1467 83282 13387
1467 83938 13885
1467 82421 11481
1467 83179 11698
1467 82935 14078
293 70556 13670
317 50997 13715
335 53434 13748
348 62621 13773
392 41855 13858
371 55551 13818
310 54223 13701
354 63699 13785
1467 92221 10379
1467 86887 9052
1467 83703 7845
1467 93119 10795
2076 23368 12236
2635 59604 11036
2635 47699 10663
2635 59096 10923
3076 84253 14485
1423 43062 10305
1187 73313 10437
1454 67564 10287
1411 47145 10312
1355 61341 10343
0 32708 13811
0 33562 14587
2076 24385 6975
2076 26818 9618
2076 25842 8967
2076 29341 7575
2076 25766 8004
2076 23803 6862
2076 22994 8174
2076 30312 5283
2076 24057 8693
2076 22378 7675
2076 31887 3155
2076 25126 5598
2076 28287 5601
2076 27995 8411
2076 25725 5237
2076 24828 6672
2076 30607 5728
2076 23849 7958
2076 28201 4360
2076 25264 6688
2635 70163 11341
957 33893 9239
818 33893 7543
711 33893 5489
379 33893 6209
2076 26364 17744
2076 27788 17955
1340 79324 14707
1064 37189 14553
1125 53886 14587
1275 72678 14670
2843 79960 13950
378 38492 11226
396 70497 11193
318 31964 11341
2505 49294 12028
2076 9561 6663
28 59074 12241
43 49220 12070
32 57702 12200
31 33022 12211
43 39240 12075
22 49786 12294
1150 28156 14336
2610 88688 13108
2988 96742 12854
2076 16355 15537
1467 89603 13034
2343 56274 14778
3076 91236 13231
3076 94214 13371
3076 96300 13160
2843 70583 11115
1467 90948 13167
2965 87524 13108
2076 17463 12216
2076 15273 11313
2076 15381 12438
2076 16057 13275
2076 14222 13506
2076 16273 11507
2076 16519 13434
2076 15007 10832
2076 15848 14006
2076 13790 10049
2006 28156 14040
2076 26009 11815
2843 78688 11228
2736 69267 14039
1976 91034 13696
2429 13118 13453
1449 43660 14768
1441 37885 14763
1284 55536 14676
1467 94980 11832
1467 92999 11379
1467 89707 11187
2076 19042 15531
2076 15613 10263
2076 25126 18321
2076 24448 18210
1467 94064 11310
1467 83951 10227
131 71844 13288
165 63458 13401
157 48668 13378
143 46457 13329
156 68624 13372
180 33167 13451
106 62179 13203
2076 22188 15702
2076 24058 16948
2076 31380 16802
2076 20645 15835
2076 21521 16283
2076 24688 15836
2076 27383 16064
2076 24208 16065
2076 30604 16589
2076 27628 15284
2076 19231 16438
2076 29928 16010
2076 22687 16187
2076 26286 16716
2076 24517 16722
2635 73014 14315
2635 55505 10281
2635 67877 10399
2635 75749 10492
2635 49110 10347
2208 25229 11840
21 35142 12753
2 49057 12553
24 33398 12782
2 55036 12554
13 48426 12673
2 45254 12549
41 29214 12958
1906 36545 21845
1429 36097 20652
1945 36983 23014
1706 35847 19986
2505 55018 11430
2635 79369 14609
2635 75587 14068
2076 28471 17942
2076 21149 16981
2429 13407 14329
1301 31510 1426
1567 31983 1132
1650 28124 3527
1678 27735 3768
1633 30913 1796
1362 29210 2853
1337 33005 498
2505 57772 11456
0 31677 12641
0 30083 13567
0 29097 13750
0 31041 12723
2635 51025 10951
0 31419 11083
0 28992 10579
2076 33767 21821
2076 32800 22054
2076 22028 20056
2076 30286 20938
2076 27594 20428
2076 24981 20500
2076 31273 21304
2076 32451 21767
2076 21570 19870
2076 30737 22011
2635 80120 10451
2076 22334 9211
2076 16403 9498
2076 19296 8678
2076 20607 9230
2076 23601 9374
2076 18137 8695
964 7273 19500
1289 7416 19884
1378 6891 18481
1894 5624 15095
1782 3690 9930
1215 8417 22557
1866 8092 21688
1062 8232 22062
1876 3986 10720
1933 2270 6134
1117 9227 24721
1068 9026 24184
1957 1773 4808
2505 48565 13788
2044 18626 19638
1646 27014 21447
1446 21334 20222
1049 21154 20183
1161 23834 20761
1285 21938 20352
1680 33165 22773
1814 25622 21146
2032 27833 21623
1494 17644 19426
1837 22896 20559
2462 13208 9625
2505 59944 11347
3076 86747 8723
3076 84998 8586
3076 85525 8323
3076 90084 10035
2076 26214 19828
2843 76172 12562
2505 51236 13310
1772 45252 14778
2196 50223 14778
1819 46216 14778
1885 36420 14778
2305 61461 14778
2177 60229 14778
1915 41521 14778
2372 86877 8598
1964 89506 9438
1866 85608 8192
1875 92446 10378
2231 88245 9035
1544 88245 9035
2635 67525 11215
1467 81686 13120
1467 81776 14091
1467 82885 12155
0 22881 7317
0 31319 4491
0 30643 4535
0 29924 4819
0 27369 5855
0 27083 7734
0 25304 5589
0 28105 4986
0 29238 4260
0 24364 6166
0 26104 4893
0 32069 1429
0 27660 9793
0 26148 6898
0 28288 9330
0 29347 3418
0 23921 8124
0 25703 7212
0 26702 9732
488 81014 13934
2635 41514 12334
2635 45381 12415
2635 37325 11728
2635 46355 12926
2635 45868 13417
2635 40168 11838
2635 45336 13266
2635 46210 13684
2635 33185 11214
2635 33921 10577
2635 40488 11202
2635 43547 12484
586 28156 12254
2076 28291 18351
3076 93408 12862
3076 95636 12788
3076 95407 13577
1176 31501 14778
1432 30942 14778
252 33137 14778
2267 53817 10280
1964 43629 10280
2203 58307 10280
2273 72823 10280
1560 79783 10280
2043 73436 10280
1901 62707 10280
1822 54278 10280
2178 80240 10280
2405 64572 10280
2005 59907 10280
2261 66168 10280
1656 76786 10280
2360 67010 10280
2040 56453 10280
1969 68341 10280
2635 77326 10968
2843 79206 13194
2062 45342 10280
1700 72219 10280
1769 75553 10280
2305 79152 10280
1807 55290 10280
1878 73931 10280
2100 77410 10280
2230 61444 10280
2110 64967 10280
2238 52735 10280
2375 73812 10280
2011 32333 914
1839 23093 6648
822 32541 786
1622 30034 2342
218 33740 43
1117 29841 2461
178 32935 542
2635 57516 10674
2635 67454 10736
2635 72993 10841
2076 13992 9123
1467 60883 12018
1467 41877 13741
1467 48936 13104
1467 63195 11813
1467 70614 11248
1467 45822 13410
3076 92662 13872
3076 95490 14854
29 32562 12831
2 50504 12553
11 61574 12646
6 43064 12589
4 37203 12569
2390 13333 15797
2524 47008 12317
3076 96230 11739
805 3703 9963
962 4743 12743
367 723 2002
1869 735 2034
1226 1979 5358
125 869 2392
1167 2504 6762
1250 1771 4802
1047 1595 4331
226 6672 17895
1718 441 1250
225 7651 20509
766 3915 10531
2909 82403 9903
3076 85785 12480
3076 85871 13463
3076 84339 12103
596 28498 10280
2076 24607 12854
2076 35112 19076
2076 35026 20827
2076 32454 18885
2076 33494 19249
2076 34417 17882
2076 35603 20123
2076 33667 17893
2076 34285 17248
2076 33250 16678
2505 47916 12729
1115 34209 14581
1132 32163 14591
1322 74314 10361
1391 78141 10323
1263 69639 10394
1279 60246 10385
2843 69589 13286
2327 89161 13110
2843 73470 11135
2103 81014 13393
1467 83933 14890
2213 88245 13108
3076 85048 8147
3076 91999 10348
3076 87911 9309
3076 87462 9048
145 64425 11722
177 60771 11615
127 54617 11782
149 30916 11710
133 43762 11760
101 38659 11871
2076 12114 8823
2635 44100 10394
0 16328 5924
2381 23252 12557
0 27912 10779
0 17897 7229
0 27921 11530
0 22862 9043
0 12361 4939
0 16532 6914
0 19213 7954
0 21118 8018
0 24221 9267
0 4930 1983
0 21529 8229
0 15596 6882
0 19626 7713
0 20947 8591
0 10487 4214
2505 54434 13097
2505 53886 12963
2505 54567 12546
2505 51056 13720
2635 74886 14218
2635 73378 14041
2505 58224 13735
0 32488 3749
0 32619 5098
0 30086 7706
0 29414 8941
0 30500 7506
0 31218 5556
0 33230 5726
0 30187 7109
0 30995 10102
0 29422 9922
0 33872 1917
0 32744 8188
0 33348 6930
0 30985 6323
0 33208 7553
2375 13602 10536
2076 20744 11884
2843 70692 13771
2107 91484 10071
3030 93014 10560
2348 95800 11451
1867 93273 10643
2229 84973 14212
2076 21034 7787
3076 82104 12266
3076 83523 14080
3076 82128 14537
3076 83027 13748
2076 17307 18660
2076 19851 17629
2076 19997 18567
2076 21791 18984
2076 28430 19095
2076 15966 17350
2076 18124 18499
2076 20626 19099
2076 21044 18062
2076 19921 18123
2843 69530 11158
2076 6133 10979
2076 6631 11474
2076 8794 11464
2076 5658 10231
2076 9540 19907
2076 8016 14434
2076 3183 5449
2076 3593 9031
2076 7054 17828
2076 7579 9468
2076 4149 10052
2076 8100 16324
2076 5746 11936
2076 6185 8190
2076 8848 23169
2076 10409 21802
2076 7701 12276
2076 9356 23223
2076 7593 9927
2076 7867 18229
2076 9173 13009
2076 8373 13964
2076 7676 15705
2076 7948 19618
2076 3611 4940
2076 9404 15326
2076 2266 3199
2076 7989 17216
2076 3899 7408
2076 4996 6891
2076 169 491
2076 7856 11027
2076 9003 16277
2076 11151 15357
2076 8692 20356
2076 4006 9228
2076 5226 13748
2076 9129 14666
2076 6121 9910
2076 7439 14811
2076 5185 7572
2505 60547 12199
2505 60964 13428
2515 13548 14855
270 4759 12788
31 2184 5908
160 1466 3988
892 2894 7801
732 5239 14067
143 7096 19031
331 0 69
652 1721 4669
381 4338 11661
36 223 666
198 1310 3570
2843 78775 11910
2162 91897 10203
1882 95692 11416
2576 89258 9359
2413 94791 11128
2076 21391 8675
2076 16670 8996
2076 19219 9367
2076 20788 8296
2076 21492 8087
2076 25976 10121
2340 83462 8688
0 10658 19595
0 10981 14294
0 7718 17717
0 9428 23383
0 14671 20921
0 7524 11380
0 9583 16349
0 6521 9076
0 12961 19789
0 13955 18850
0 7629 11865
0 12034 18251
0 3744 4874
0 4590 9675
0 6664 16607
0 6126 11812
0 15076 20582
0 10279 21383
0 5636 7240
0 9943 20344
0 3944 7550
0 11102 22297
0 9439 23946
0 10822 18439
0 11876 15152
0 5064 10032
0 9222 13706
0 14079 19907
0 5201 11362
0 8677 13091
0 6687 12482
0 5938 15740
0 6646 11691
0 8118 9213
0 7198 9324
0 13514 17351
0 8938 14148
0 10635 16892
0 11357 16519
0 8015 15635
0 9438 14177
0 10183 15390
0 8759 16630
0 12329 22110
0 8056 16611
0 8795 10607
0 6046 13336
0 9829 13985
0 12618 18560
0 13738 21028
0 16028 19758
0 10537 16179
0 11992 14500
0 8555 15632
0 9659 11245
0 11068 15811
0 4116 6087
0 10951 12097
0 6683 10457
0 4458 9203
0 9111 18859
0 8760 23408
0 6036 14621
0 9466 10618
0 7358 13284
0 3520 7881
1467 42056 11763
1467 41737 10874
1467 65184 11394
1467 40181 10689
1467 76253 10308
1467 35865 12773
1467 59338 12055
1467 36230 11967
1467 31970 11610
1467 58589 10470
1467 31814 10801
1467 28580 12095
1467 36021 11183
1467 44867 13240
1467 52323 12645
1467 39877 12542
1467 75640 10655
1467 48799 11432
1467 28529 10585
1467 43635 12710
1467 34902 11256
1467 28163 10940
1467 35007 12056
1467 50322 12795
1467 44699 11043
1467 41369 11158
1467 29302 11587
1467 41374 12035
1467 39303 13586
1467 39307 11316
1467 30977 13927
1467 66526 10603
1467 32908 10522
2076 35562 22385
2076 25099 13323
2076 23682 13679
174 31402 10280
2025 81848 10175
656 43518 10865
604 56835 10931
564 48202 10980
666 52058 10853
0 25626 9635
0 22557 9540
0 11393 4947
0 6756 2529
0 14384 5363
0 25373 11033
0 23738 9766
0 24911 9757
0 18517 8193
0 3889 1499
0 26364 10355
2843 77118 11932
2843 77254 13068
1395 81014 10812
406 52591 11178
413 35559 11169
426 60876 11153
576 77456 10965
569 79656 10972
205 59706 11557
272 56369 11430
234 73488 11503
307 71700 11362
185 52334 11596
194 80579 11579
372 78501 11239
2076 22302 12166
3076 84025 10017
3076 82568 10356
2505 49762 13174
2843 76139 10807
2429 13084 10318
907 34139 15434
390 33972 14990
42 70889 12974
40 48080 12949
42 41630 12980
13 77776 12675
30 79404 12842
12 74998 12659
38 47580 12931
2076 27173 14907
2843 74235 13645
2138 81014 11400
3076 93637 14684
2268 30118 18164
1467 95742 14531
1467 96356 13039
2505 54802 13383
0 29039 11670
0 29050 11034
0 29557 10342
2076 18898 11619
2635 64546 11500
2635 64860 12483
2635 66179 11585
2635 61639 13047
2635 65081 11851
1467 81280 14009
2076 32989 20783
2239 33848 14778
2410 54844 14778
2522 45714 14778
2096 29308 14778
2432 59442 14778
2604 50431 14778
1881 11133 23668
1013 13018 22423
1105 10778 23903
521 10159 24312
253 60355 11466
250 56856 11471
238 63770 11493
301 74814 11374
238 48130 11495
228 78162 11514
1797 96742 12605
3076 86092 11457
3076 88629 12472
3076 91078 11914
3076 89885 11518
3076 92585 12155
3076 92218 12802
444 36493 21708
557 34912 17495
895 35973 20320
165 35726 19662
843 35259 18418
1635 33464 10280
2505 55383 13549
354 8925 23913
1251 5291 14208
1393 7752 20782
854 8050 21575
1881 6948 18633
1728 2749 7414
1259 7083 18992
1187 5669 15215
1633 6034 16190
886 7586 20337
2031 5379 14440
1460 8918 23895
3076 94513 14741
2635 80675 10912
0 8645 9578
0 4631 7863
0 12447 19247
0 9455 12311
0 9826 18801
0 4738 6799
0 13128 16624
0 8068 19351
0 12481 14085
0 8918 19605
0 2389 5029
0 13385 20597
0 5369 13739
0 16796 19054
0 11750 13133
0 10049 19830
0 3721 5628
0 5996 15132
0 11087 19165
0 11416 18584
0 11662 20046
0 5614 14280
0 12329 17749
0 4058 8978
0 8134 13052
0 15378 18144
0 3635 4281
0 11644 13776
0 8650 11299
0 7351 8582
0 3181 4474
0 13584 16421
0 6451 7254
0 4896 9114
0 7902 14185
0 10227 21998
0 12256 20739
0 5864 12604
0 5972 7607
0 9915 14698
0 3341 8567
0 11678 15919
0 2731 5556
0 12536 16649
0 10427 13299
0 8299 14656
0 10315 18291
0 13019 17363
0 10162 17504
243 13398 22172
236 12208 22958
645 12394 22835
697 13856 21869
953 14636 21354
50 39940 13014
55 66044 13031
98 49354 13178
91 30554 13154
0 32271 10946
0 29287 12323
2076 28507 7679
2076 29408 7129
2076 28802 5820
2076 26477 6743
2076 32197 2486
2076 24757 7675
2076 28104 10047
2076 31370 1659
2076 25206 7530
2076 32641 1483
2076 29095 5424
2076 27203 9040
2076 27106 4213
2076 28155 6434
2076 26456 8942
2076 24635 5863
2076 30410 3454
2076 28876 3533
2076 25115 17770
2843 71713 10736
118 33893 5820
539 33893 6919
532 33893 9067
866 33893 8319
560 33893 9800
2076 24854 11520
2076 26276 10625
122 39829 11800
102 50363 11866
132 57192 11766
110 51472 11842
156 58164 11686
2076 19937 12820
794 33893 10654
355 27023 4210
1715 21483 7647
983 27684 3799
951 24231 5942
1524 22364 7100
1208 26511 4527
45 21611 7568
230 30486 2061
2843 78452 12342
2635 63843 11689
2635 62435 11999
2635 62912 11410
2095 13602 12170
2076 26936 11061
2633 24644 12111
2076 15598 15417
502 63099 11057
659 77008 10860
569 60140 10974
419 74367 11161
0 33518 11849
0 33826 12464
114 36773 13230
51 43835 13018
142 38890 13323
62 54530 13056
221 81014 11913
1103 26064 4804
0 22798 6831
1340 24812 5582
933 21524 7621
1519 23785 6219
844 27255 4066
2076 16762 10324
2076 22406 10864
2076 20297 11035
2076 23046 11060
2076 17680 9823
2076 19286 11373
2076 26751 10249
2076 21111 10485
3076 93371 11097
3076 86686 9934
3076 85649 9692
1467 94201 11959
1467 95941 11927
1917 83237 15033
1467 91567 13207
1467 94061 12872
2843 77460 11644
2076 32475 16730
2076 16983 13455
2076 15810 11736
2076 18232 12663
2076 14042 11196
2076 18511 12305
2076 18075 13137
2076 14510 12762
2843 76857 13976
2635 39797 14452
2635 45095 14344
2635 62582 14382
2635 40316 14767
2635 59979 14755
2635 52654 14705
2635 54891 14395
2635 76100 14747
1877 83980 7672
2718 84217 7748
2088 90778 9845
1782 86822 13292
2635 40415 10772
2635 42498 10859
2843 78122 12772
1052 43495 14544
1010 73834 14509
841 69429 14366
950 76602 14458
1027 53272 14524
3076 85252 12044
3076 85973 11950
610 33893 2185
790 33893 1014
769 33893 559
861 33893 1592
1104 33893 6610
1467 82155 10041
1467 90152 10867
1467 85582 10600
2504 96742 13442
2076 22421 17653
199 33893 14316
2076 24269 20549
2076 30326 21643
2076 25040 20954
2076 29416 20400
2076 28575 21151
2076 27082 21107
2076 24601 20878
2076 26386 20438
2076 28281 20645
2076 33218 21853
0 25289 16821
0 22337 17648
0 32164 15195
0 27074 15449
0 24239 16907
0 29638 15229
0 28118 16053
1497 40817 10280
1825 35621 10280
1772 44233 10280
1489 48200 10280
1905 44719 10280
1649 36118 10280
1525 57714 10280
1520 70698 10280
2843 72161 12601
2076 24344 13952
2076 16214 15106
2076 20066 14301
2076 22707 13935
2076 16696 14882
2505 52272 12064
0 28683 9575
0 30462 9045
0 33253 6261
0 30653 5835
0 30652 8165
0 29604 8120
0 33831 7782
0 31810 6884
0 30500 10015
0 33570 5354
2635 62605 10639
992 2789 981
1291 590 179
404 16165 5854
469 8813 3175
283 2161 752
18 989 324
178 13905 5029
782 6130 2198
978 5753 2059
807 10657 3847
257 17608 6379
2635 39034 10696
2284 83011 9348
2076 16418 8000
2076 11206 5105
2076 7516 3536
2076 14612 8722
2076 15917 8527
2076 10119 4166
2076 18493 7156
2076 14220 5453
2076 8336 4933
2076 12446 6967
2076 13444 8267
2076 9393 6222
2076 9973 6229
2076 18902 7889
2076 6285 2828
2076 16636 7245
2076 8613 3182
2076 13944 7618
2076 11854 4356
2076 9423 3437
2076 10632 5962
2646 20313 12288
245 52124 13577
202 45725 13495
296 39097 13675
183 67030 13458
330 41029 13740
2505 58845 13781
2505 61152 13021
1467 58611 14108
1467 56777 14169
1467 60407 13935
1467 65697 12922
1467 68014 13882
1467 71821 12321
1467 43905 14053
1467 74686 11360
1467 45661 13930
1467 73156 11727
1467 55995 13350
1467 80849 12897
1467 63481 14346
1467 68170 12087
1467 47435 14232
1467 59694 12725
1467 41331 14431
1467 70453 12653
1467 70598 14609
1467 75845 12141
1467 78977 12096
1467 61951 12278
1467 80371 14116
1467 65212 13698
1467 42799 14186
1467 53333 14429
1467 80422 10743
1467 57714 12735
1467 69410 14739
1467 72455 13908
1467 76794 12832
1467 70218 14025
1467 61309 14560
1467 68694 14777
1467 48433 13535
1467 51000 13159
1467 40133 14492
1467 78159 12339
1467 65676 11877
1467 52837 13903
1467 64148 12848
1467 80093 12275
1467 61236 13382
1467 70476 13647
1467 67447 14554
1467 76742 14032
1467 72301 11327
1467 80146 11322
2505 47396 13077
2505 48441 12557
0 16223 7552
0 18011 8609
0 9585 4949
0 25507 12846
0 15163 6756
0 17976 9294
0 16144 8314
0 15327 7270
0 24440 11872
0 23307 10499
0 12639 6561
0 16872 7710
0 20146 9568
0 14269 6713
0 13299 6440
0 19539 8932
2843 68768 11102
272 36513 13629
276 40264 13636
336 31596 13751
228 34286 13544
191 61177 13475
2407 12914 15425
2076 19861 12133
2044 31984 14778
2002 81657 14784
1467 94172 14765
3076 87640 10808
3076 92591 11279
2076 20373 17168
2076 14752 10089
1816 52382 10280
1704 49562 10280
1800 46519 10280
1741 59162 10280
1625 60897 10280
709 28156 13947
2635 29244 10338
2635 38002 11694
2635 45150 11982
2635 44736 13482
2635 34685 10720
2635 45885 12379
2635 39620 11773
2635 36876 11516
2635 31816 10499
584 71042 14104
669 61717 14209
445 78647 13929
564 76075 14078
619 62666 14147
2076 22737 15586
2076 30568 15279
2076 28837 16742
2076 25894 16431
2076 29476 16373
2076 26996 15347
2076 28925 17214
2076 30984 16134
2076 19513 16057
2076 28163 15612
2076 30599 17318
2076 20057 16590
2422 13171 15058
2505 56697 13218
2582 23717 12485
241 81014 13048
2076 21755 15043
2822 69764 12088
2753 71497 14029
1467 81269 14709
2076 25337 19449
2635 46089 10795
2076 12331 15213
2336 81014 12733
695 32500 22630
1720 34292 23016
168 30160 22125
390 26076 21244
1250 35627 23304
1789 34986 23166
2012 36914 23581
268 31454 22404
599 24469 20898
48 22872 20553
1804 35680 23315
705 28268 21717
163 30851 22274
2915 81634 11805
2621 96573 12258
133 77095 11761
133 66171 11764
92 55061 11901
54 70209 12028
102 72332 11869
2076 27007 13565
2076 28120 11051
2505 60249 13026
2505 59716 13217
2505 60584 11442
1050 19755 7161
1026 20396 7395
1636 14461 5233
2016 1322 446
865 16503 5975
731 14677 5311
1710 19193 6957
1552 6041 2166
1068 19214 6964
1382 15382 5568
2075 1861 642
620 20234 7336
1371 18456 6688
735 50703 10783
793 49150 10733
752 71831 10768
809 32234 10719
738 40133 10780
739 57558 10779
809 47760 10718
2365 58546 14778
1986 44204 14778
1624 37382 14778
2081 37095 14778
2034 38772 14778
1814 39528 14778
2275 54351 14778
1467 87961 13052
1467 85815 11083
1467 87471 11885
1467 90385 12618
1467 87820 11462
2341 53163 10280
2579 62112 10280
2431 42224 10280
2335 46948 10280
2599 45792 10280
1946 33893 5664
1909 33893 9009
2076 31601 20574
1467 81552 11631
2076 9784 22038
2076 10983 16802
2076 11249 16320
2076 5729 8078
2076 7093 17059
2076 10334 16214
2076 5091 9239
2076 9763 14828
2076 9193 24239
2076 10007 13199
2076 7934 14994
2076 8271 19288
2076 7534 18808
2076 6098 13224
2076 5633 11247
2076 4038 5384
2076 7374 10310
2076 8539 18595
2076 2549 4739
2076 7889 20126
2076 6844 13044
2076 8101 21032
2076 10504 15240
2076 5930 15425
2076 5535 9749
2076 8911 16795
2076 10241 19965
2076 9466 18822
2076 1438 1961
2076 4764 10250
2076 11543 18527
2076 6469 16468
2076 11593 14851
2076 10918 19663
2076 4620 6357
2076 7764 12755
2076 10086 16669
4 59837 12489
33 72714 12190
34 74170 12179
32 76802 12199
6 71377 12465
2843 70473 12873
1072 28156 12972
0 10838 5061
0 21302 10221
0 6478 2917
0 19124 9718
0 8183 4153
0 26206 13163
0 24911 11704
0 20790 10903
0 23197 11626
0 8627 4086
0 4412 2134
2356 85523 13711
0 27377 18654
0 29447 20322
0 23905 17893
0 31381 15753
0 28650 18126
0 26628 20527
0 30632 21173
0 30260 18626
0 28386 18614
0 28711 21507
0 27797 17935
0 34330 22971
0 24731 17411
0 30583 19524
0 31477 17826
0 27713 18943
0 34267 18824
0 30982 21678
0 21770 19272
0 35800 20240
0 35381 20576
0 32719 18517
0 22464 18579
0 25814 19282
0 24811 20829
0 33493 19488
0 27956 16922
0 32957 15938
0 23853 19619
0 31931 16107
0 25518 20458
0 27094 20131
2635 37955 10361
637 67461 14170
508 73494 14008
565 68501 14079
521 79659 14024
624 75328 14154
628 47540 14158
634 50992 14165
2482 31220 19120
947 32727 10280
997 32207 10280
2076 15779 16177
2076 8760 5472
2076 11992 6032
2076 20090 7850
2076 9357 5776
2076 14211 8102
2076 3399 2052
2076 11955 5411
2076 11103 6877
2076 7924 4172
2076 12949 5730
2076 15852 6744
2076 13335 7125
2076 13210 5315
2076 15278 7520
2076 7534 2954
2076 12049 7816
2076 16188 7398
2076 7106 3274
2076 13240 6233
2560 61204 11913
419 26583 21354
626 33955 22943
426 21710 20303
739 29072 21890
196 20858 20119
784 35584 23295
561 32986 22735
1660 28156 12189
3076 85336 11511
3076 89364 12922
1193 52457 10434
1149 68262 10458
1319 42332 10363
1182 50058 10440
1383 31746 10327
1611 34672 16855
555 51803 14067
535 29794 14042
579 38220 14098
483 33843 13977
508 58029 14008
1895 95015 15409
80 55739 11940
162 76491 11667
88 75748 11914
90 69509 11909
2505 59472 12526
2505 58701 12928
2635 65851 14031
2635 55863 14066
2635 52004 13982
38 34536 16492
607 35670 19515
1568 37125 23392
458 35851 19996
1467 79008 13826
1467 66903 13728
1467 53086 13212
1467 77609 10819
1467 70108 13074
1467 50989 14092
1467 57128 12676
1467 48504 14219
1467 74445 14643
1467 49581 14136
1467 68434 12675
1467 79670 10784
1467 72936 14296
1467 51400 14702
1467 75073 11811
1467 67179 13273
1467 38688 14699
1467 63767 13161
1467 64683 12575
1467 77498 11764
1467 50241 14274
1467 65244 14405
1467 62230 14462
1467 78144 10967
1467 52643 13218
1467 42199 14201
1467 64416 14397
1467 74819 12857
1467 66146 12037
1467 46735 13808
1467 74088 11896
1467 76500 12250
1467 63050 12424
1467 69691 13891
1467 63697 12067
1467 67943 13061
1467 49139 13788
1467 58146 14248
1467 76348 13413
1467 80153 13252
1467 61186 12652
1467 80899 14298
3076 91671 13529
1467 82859 11158
1467 83546 11252
1467 84679 9461
1467 90893 10506
1467 87322 10230
1467 90216 10174
1958 81014 12355
0 29148 5313
0 30563 2656
0 30097 5852
0 30774 4986
0 25475 8651
0 28595 5876
0 28890 7246
0 26441 6528
0 26519 4533
0 31317 3678
0 32738 1314
0 28488 8856
0 24636 6958
0 23389 8480
0 22877 7777
0 24774 7799
0 32425 2489
0 26451 8737
0 31681 3340
0 30841 3335
1467 94912 12934
2482 30870 19739
2635 58566 10801
2635 63805 11234
2034 679 212
2044 3393 1200
1050 11204 4046
967 14181 5130
1795 17141 6209
1493 9431 3400
262 18908 6853
1615 21002 7616
1380 13955 5048
666 18581 6734
2424 12487 14585
3076 96078 13768
3076 96068 14701
2179 81634 12312
2822 81634 10563
2635 67286 13906
2635 63308 13144
2635 67261 13389
2635 62162 13582
2635 66484 12778
0 27643 15026
0 25204 16110
0 30331 15050
0 21621 17928
2505 56225 13597
2505 56014 12128
2429 13043 11820
1467 89686 9552
1467 88731 9452
901 61194 14417
1043 68338 14537
1023 40324 14520
1018 71202 14516
2076 24792 10513
1698 85421 13750
2591 50056 13927
1719 30831 22270
1607 23537 20697
652 18479 19606
1303 25854 21196
994 26709 21381
1136 27876 21632
1745 21698 20300
2076 27737 19982
1601 81634 10704
2076 18029 11912
2635 61545 14148
2635 64818 14033
2635 71732 14426
2635 69910 14448
2843 74041 10759
2234 12932 15864
41 55837 12956
30 67788 12838
35 80621 12893
23 69065 12764
43 42129 12988
2629 74919 10280
2631 41220 10280
2505 48507 11846
2505 47582 11528
2076 21957 18395
2076 15393 16633
2076 25618 18732
2076 21589 17952
2076 19237 18717
2076 14541 16357
2076 20473 17794
2076 23160 19358
2076 22949 18656
2076 10242 7215
848 68626 10687
709 80874 10805
1026 66319 10536
942 56209 10607
831 75118 10701
876 64822 10663
1364 36849 14721
1361 46843 14719
1337 46338 14705
1140 42559 14595
2633 55537 11147
2076 33133 19000
2076 32910 19914
2076 33759 16804
1467 57996 12367
1467 36183 14465
1467 72973 10969
1467 32558 14457
1467 42529 13700
1467 41215 13680
0 18090 17281
0 10989 8733
0 17037 17406
0 24778 14345
0 11408 10687
0 26791 14896
0 20931 15785
0 18474 12311
0 14402 11385
0 15291 12553
0 16383 11436
0 10078 5531
0 12772 9257
0 9857 10277
0 3594 3831
0 19303 11580
0 19601 13049
0 17132 15359
0 14847 7920
0 14517 14506
0 4298 3160
0 22020 14070
0 18019 15491
0 22528 17042
0 13699 13251
0 14488 13875
0 15972 10835
0 19287 16603
0 7341 6006
0 3011 1769
0 22744 14174
0 11061 5845
0 23372 13512
0 18101 16382
0 16743 9084
0 15698 17191
0 14286 13104
0 8253 8735
0 20623 16577
0 24478 13698
0 11400 6417
0 13163 9936
0 24481 15938
0 20829 17921
0 18837 14235
0 16961 14253
0 20016 11927
0 9711 5928
0 8539 5237
0 15449 9149
0 18914 13447
0 9198 6230
0 19334 13755
0 19232 17162
0 22808 14697
1467 83070 9332
1467 89417 10085
1467 94955 11310
1467 88252 10322
1467 85357 10071
2635 81012 14345
2635 80669 12513
2076 17074 15317
2076 11353 11710
2076 8530 9769
2076 9974 10171
2076 4486 4516
2076 11569 12539
2076 9268 8076
2076 11376 10400
2076 8069 8498
2076 10708 9523
2076 1242 1279
2076 9084 10230
2076 10840 11592
2076 10714 8695
3076 88686 13004
0 30055 14678
0 33649 13340
0 32782 14435
0 19539 7119
854 46976 10682
905 36991 10638
918 39265 10627
826 31263 10705
861 45815 10675
761 59725 10760
2505 54713 13897
1334 98 0
774 1082 358
1699 3661 1297
1139 1429 484
457 1788 616
837 4886 1744
2076 11247 8065
2635 65937 12219
2635 66079 12984
2635 64448 12952
2635 75054 12826
2667 84389 14814
617 30489 14144
415 49123 13892
2635 64707 10894
1668 33083 14778
297 65285 13676
359 67966 13795
308 77352 13697
305 58353 13691
293 61695 13668
3076 84567 13567
3076 81979 12714
3076 82457 13061
1344 29423 14778
1328 28845 14778
2076 23326 17728
2076 33610 4699
2076 30171 7606
2076 28751 10055
2076 31706 5023
2076 29466 10032
2076 31082 5887
2076 32821 2557
2076 32823 8574
2076 33266 5831
2076 33695 1527
2076 30415 8781
