ply
format ascii 1.0
element vertex 2236
property float x
property float y
property float z
end_header
2891 8208 27869
2300 35115 8356
2300 35261 7050
2300 17684 20516
1719 28628 8418
3270 30250 26792
3272 56622 25506
3366 63884 7755
2131 71910 29084
3342 48555 27649
3396 61485 27693
3291 37432 27805
3375 58573 8139
1445 51396 5650
2617 42577 3994
2759 59967 4225
958 90293 6496
3146 45716 8052
2518 79552 27769
3411 39994 7646
2633 93072 2608
2300 12295 1768
2300 20923 6698
2633 88400 6062
3395 78188 6349
1079 85733 28051
504 6 25746
2633 93181 1934
0 5779 28176
0 3017 28570
0 10691 27232
1479 14375 0
2120 31952 0
2129 12006 0
1689 16137 0
1599 32073 0
896 31116 0
1488 25054 0
1363 15695 0
1295 29226 0
846 26698 0
2300 13640 5
1857 45361 28894
1703 40299 28823
2170 12 28846
1085 34953 7817
1090 36322 7197
3294 45127 26165
3072 1724 5601
205 6212 17748
93 8756 19072
1440 7724 18535
3388 57091 27554
3180 31356 27898
3105 46450 29559
3096 47028 29554
1221 83908 26218
613 79015 28193
1034 38310 27093
1315 87793 24511
1315 85132 24398
2300 22184 9975
2300 12820 10336
2300 15453 10008
2300 23318 9736
2300 18957 10441
2300 18178 9206
2300 11718 10734
2600 20625 27191
2300 13277 7250
1328 66 29185
2529 74455 29848
2074 42523 4474
2148 63382 4821
2706 8751 30177
1213 77699 27882
1315 79875 25136
1315 85870 25045
2300 7891 309
2633 86337 6162
1315 82357 25405
1315 81815 25583
2300 11457 31633
3012 50247 8632
1430 80147 6322
968 33125 29058
1543 54689 26415
1477 47582 26318
2300 25884 27909
1451 48994 7057
2517 59212 8239
2620 66617 8175
3338 62249 25952
3238 32708 26068
3341 56574 26211
3256 36921 26092
3122 31568 29653
2830 69509 25409
2817 71752 27724
2300 20342 251
2535 10829 24512
3287 61386 26504
3415 47616 5365
3385 39474 5336
3455 60025 5288
3454 57857 5410
2600 9281 1979
1328 84975 7877
1576 39743 25929
1586 50763 26223
1430 87839 4798
3319 51017 28934
1829 67953 7275
1786 60844 7369
1430 88782 4947
1430 91133 5005
1864 86658 26867
1041 41394 27294
2518 81187 25793
2518 75482 23682
1430 86918 6443
2300 11449 15912
3540 73783 6484
3477 58650 6825
3490 61910 6804
2300 10110 588
1751 49190 7601
1787 56947 7466
1303 28624 4230
1315 81461 28159
1811 71083 5453
1671 65921 5579
2300 684 13473
3429 33644 6208
3470 55808 6002
3406 39128 5856
3442 49305 5766
3506 66238 5850
3405 38000 6068
3397 35403 6130
1315 72094 28495
2300 9371 20502
2939 36785 8798
3225 47413 8600
3251 59965 8458
570 82214 30203
3269 37572 4109
3264 31306 4221
3341 49157 4437
3355 53594 4450
3340 49859 4415
1793 625 14388
0 9392 27536
0 28014 25161
0 27069 25283
0 6204 15187
0 8002 18499
0 7442 17022
0 4677 16332
0 7063 14916
0 3585 16351
0 8128 12895
0 4210 14367
1054 88435 8479
1500 6 12243
1151 6 8902
2165 6 12061
1246 48717 6448
1360 55956 6552
2300 1572 21430
2300 6858 22578
2300 4991 24088
2300 3954 21538
2300 5917 23611
2300 2337 21468
2300 32 22263
2300 8768 22755
2300 1140 22808
2300 6517 22973
1315 77525 28986
0 11282 29254
0 20588 27377
624 2042 31922
2300 28530 497
3164 51023 25513
3417 66026 27017
3399 60553 27287
3426 68590 26913
2025 77374 5224
612 74430 28990
2468 780 6187
2500 11598 23895
1506 69756 6159
1527 72732 6213
2518 76670 26136
2888 2537 6583
1315 79747 26086
0 30813 8444
0 21507 10526
0 17415 10479
0 13668 9867
0 24053 8014
0 20753 8406
0 33247 8894
0 24746 8784
0 34461 10874
0 29596 8761
0 26072 7524
0 24840 8101
0 33391 6570
0 21390 9063
0 29217 10525
0 34800 3131
0 22134 7392
0 18504 9736
0 18255 10201
0 16605 9461
0 16982 8848
0 34855 8963
0 30617 5722
0 20352 9925
0 12138 10497
0 34333 6181
0 19839 8801
0 30157 6403
0 31843 9655
0 25323 9676
0 34450 4624
3366 59756 26413
3280 41391 26192
3343 53374 26478
715 91063 8581
2300 7958 31308
2300 1239 1034
2600 19898 30499
0 3197 12489
0 16142 28008
0 6090 30065
0 5387 30198
3243 52615 6369
1100 38916 6572
2300 20159 31338
3280 71014 27798
3214 47041 25284
0 8277 29373
1213 79532 27344
3254 2912 5658
2300 14313 1446
3156 39411 28626
0 29933 24868
0 856 27974
0 11460 26870
3391 40576 7260
3460 57237 7095
3358 30736 7216
2518 80855 27030
2683 89488 6027
2518 83528 27304
2974 61782 8470
2917 54277 8586
3139 69262 8354
1213 86052 26135
1430 90145 5957
2300 4022 3639
2300 9971 5417
2300 9955 4859
2300 7907 4926
2300 14989 5472
2300 10880 4435
2370 2261 7745
2300 8630 25613
2300 8942 27074
2300 20092 25349
2300 19793 26797
1315 77303 26701
1430 87639 3800
2300 10893 28292
3493 67264 6633
2300 32419 2679
0 21361 1662
0 18524 1650
1430 80225 8467
3224 39318 26298
2600 24274 24904
2755 2501 5707
3255 44815 25741
3269 49191 25717
3214 38484 25536
2518 78269 29187
2617 20690 5092
1082 81609 27260
1073 31556 5831
1230 41609 27933
1446 58482 27835
2518 81492 27310
1315 82328 26172
650 80206 28356
952 29382 25740
2300 11746 22791
2300 3380 20230
2300 10720 21767
2300 10757 22836
2300 6047 21482
1896 62888 28502
2087 69077 28580
1562 60621 5659
981 36204 27709
0 8812 26345
0 12936 24868
0 6615 26191
0 2836 26428
0 12220 25645
0 5104 25767
0 1461 25207
0 5165 27252
0 24284 24564
0 3739 27546
0 18120 24751
0 14958 26246
0 518 25537
0 31550 24601
0 15970 25670
1068 30438 7847
1373 56327 6040
2743 8486 27330
772 85981 26386
1728 60553 28316
926 92758 6868
0 6520 30933
0 2388 32074
0 26306 31662
0 9418 31006
0 17129 29768
0 30844 31613
0 28657 32336
0 17360 32102
0 31145 25423
0 33737 26142
0 27587 31228
0 33537 26838
0 29940 30586
0 4587 32386
0 29301 27846
0 22204 31358
0 27840 32078
0 34142 27111
0 32519 28780
0 21064 29096
0 34218 24840
0 13165 30181
0 28397 29135
0 15562 30259
0 20762 32356
0 17780 29131
0 14173 31216
0 32907 25877
0 34398 31933
0 16855 32018
0 24689 30762
0 21905 28901
0 12241 30673
0 10878 31900
0 33155 31644
0 19149 31350
0 32059 28060
0 30721 29188
2300 10276 16519
3110 28018 25840
3111 37099 29674
2183 74012 24787
2590 20192 29005
1209 50794 27440
2683 85260 6734
1086 35134 8675
2002 28587 4397
2300 2732 14580
1430 90511 4140
2300 26783 2978
3384 55093 6653
0 3759 999
2300 33317 30618
3488 78511 5776
3469 63481 7312
3495 70661 7303
3536 78069 7035
3189 42913 25754
1111 84801 27268
1584 74314 6076
3393 2900 8569
2633 81470 8734
801 84323 28465
2102 50631 25552
3438 73179 4677
3312 48085 4217
2300 31915 995
2470 65623 25571
2503 68727 25616
1315 78731 27224
3140 29753 6115
2300 2695 28201
1219 89231 6953
2300 31694 31924
2300 27058 31766
2300 16988 31715
2300 11383 32334
2300 28069 32125
2300 27691 31223
2300 29153 31452
2300 22463 32199
2300 28508 31479
2300 12908 15464
1097 38252 6578
2265 4773 16999
1754 2094 15606
2274 2239 15681
1315 72938 27651
0 6054 12738
2300 33863 25126
2300 34421 26054
1315 80564 24249
2300 24593 30269
2300 19660 21985
2600 23988 26869
2518 76213 28237
3247 36622 7018
180 7689 0
1408 8535 0
50 10062 0
338 18653 0
951 4210 0
730 10965 0
878 20911 0
637 14123 0
196 16034 0
634 78079 31318
0 33783 2063
0 27566 2150
2617 21794 7249
2607 55283 29357
2563 57008 29288
3306 31094 8631
1315 81133 27394
1776 94305 2880
2617 21284 4469
1430 84558 5894
0 19220 2249
1270 0 28067
2518 85855 22858
2300 22915 6590
2844 1200 8141
3402 39946 4854
1750 90645 6739
2301 10485 23865
2300 8632 15575
0 13402 31967
0 34700 29518
0 20301 31249
0 10905 31294
0 22927 31925
0 15107 31390
0 18289 29753
0 23770 32406
0 32204 31386
0 25110 29368
0 25476 31786
0 30302 26185
0 16645 30791
0 28431 26741
0 28639 27351
0 32525 25231
0 31704 25448
0 15984 31680
0 29635 28459
0 29428 25817
0 34635 25998
0 20880 28070
0 33228 28786
0 7114 32270
0 16455 29891
0 19708 32028
0 12511 32249
0 5557 32313
0 34738 27857
0 23825 31739
0 27350 28172
0 26131 26705
0 9780 31965
0 27355 29856
3293 44913 28428
3398 64642 27975
2300 15687 3190
2454 57766 4413
2342 45953 4280
2659 8659 26832
2300 9707 24428
1426 51328 6924
1499 59796 6823
1239 40509 28004
1109 37800 27751
260 29078 21103
548 26092 19566
340 12670 12655
218 25294 19155
292 10663 11621
403 21278 17087
581 18194 15500
54 29814 21482
1238 54773 27132
2300 8314 13973
2300 6955 13680
2300 11438 13836
2300 13057 13747
2300 5545 12669
2300 8934 14542
2300 10008 11628
3217 37814 27299
1765 54241 7497
1757 52694 7523
2018 50521 4699
2120 71326 5022
2300 11288 28676
3257 45692 7331
1868 86 13142
3267 50148 28948
3251 51659 29125
3294 56050 28887
1351 31532 8812
1752 34490 8812
1769 32460 8812
1315 82945 26258
2300 8670 30483
2300 8742 28909
1587 49039 5288
1320 43638 26516
1827 70144 26294
1604 69426 6779
2982 8302 29260
3260 38178 6931
963 31879 24962
3355 29756 4616
931 88363 7381
3042 16678 17470
2518 80874 25034
2300 10303 23291
2300 16748 25031
3008 40994 8732
3198 50851 8571
2300 26540 2027
727 85383 6773
2300 10280 26634
2300 9675 1477
2300 14449 17670
2518 81046 28101
1177 92153 5238
3393 46258 7556
3344 33405 7631
3433 59466 7601
3334 31058 7657
1315 84519 23071
0 3214 13953
3067 27952 28129
2300 33392 1470
3104 10827 24934
3155 33648 28814
2300 29776 23457
1315 78641 25210
2019 67267 7562
2183 76936 7558
2300 17803 30206
2300 19282 26674
2300 14845 28240
2300 25230 28207
2300 20907 28690
2300 21169 27594
2300 15308 26475
2300 16416 26350
2300 17941 27111
2300 26030 29010
2300 21974 27531
2300 13924 24443
2300 14335 30574
2300 15108 24973
2300 19503 27624
2300 14324 28645
2300 18524 28587
2300 18933 26007
2300 22102 30267
2300 18899 29292
2300 24299 28967
2300 27679 29060
2300 19759 28970
2300 12759 29235
2300 16960 29521
2300 1489 26662
2300 8838 23659
2300 2457 25168
2300 3930 25348
2300 838 26854
1343 35259 2442
3351 63878 4690
1754 28403 6293
0 14680 2370
0 5530 2448
969 88926 6019
3354 66616 25945
3301 47540 26149
3333 59032 26029
1315 84929 24931
2300 25064 24370
2300 7330 20547
776 89215 8264
1522 46036 5332
1573 54301 5456
3310 61147 25697
3227 43957 25486
3181 31936 25435
2729 78985 8209
2300 31701 404
2300 23039 88
3281 76485 28881
3329 47968 26636
3406 67544 26553
3414 70130 26515
1321 71190 27659
2300 24145 670
3175 31245 26456
2300 22535 24566
2300 28368 25929
2300 26613 25235
2300 24144 24095
2300 19465 24978
2300 30760 25645
2300 24854 26378
2300 29426 25104
2300 31709 26601
2300 30381 28666
2300 24048 25274
2300 21110 25073
2300 17655 24849
2300 26015 24644
964 32239 28156
947 28168 28875
1798 66492 28265
1682 61208 28232
2423 67722 7992
2337 41627 8428
2535 10222 24350
2300 1652 19396
2300 13716 31401
979 35976 28167
1798 52140 5021
1961 68361 5159
2496 51159 25225
2578 53688 25223
2137 57814 28894
2015 53356 28877
3156 64301 27444
1315 78555 28159
2633 83494 4824
2133 40020 25278
2160 38805 25227
0 13815 727
0 31211 641
2300 3802 28059
2300 19522 907
2300 3561 12337
579 6 9629
974 6 5020
133 6 8772
908 6 2839
1214 44232 6083
2300 11165 30508
2300 6704 774
1418 62048 6145
2300 20806 3889
1130 86499 8020
958 30810 28021
2518 74427 25431
3638 89541 5812
1484 59161 5804
1587 71924 5963
1712 39059 4478
3228 50200 6600
2300 16104 31255
1620 58177 7143
1571 55937 7105
1315 75981 24526
2300 9004 24694
2300 7439 25730
1258 49734 27678
242 34546 823
2598 3263 4511
3396 67211 6096
0 15966 1997
0 4112 1920
2300 5527 19728
1389 63599 6181
2988 52962 4067
2966 46568 3974
3155 34052 3876
2476 2432 8216
0 19792 678
0 8645 10990
2300 34978 28531
2300 35235 31997
3078 8302 28428
2617 20623 4355
2615 20585 25502
2585 63164 25427
2635 62154 25369
2574 49628 25135
2685 82841 27165
1719 55594 28436
1691 50595 28537
2633 89566 7043
2633 84416 8138
2300 16155 4215
1476 78139 6779
1947 86617 7959
1725 84608 8567
1303 61974 27246
727 89443 6074
1430 89103 3248
2100 57096 7881
2330 73923 7775
0 20869 26310
0 32333 24721
3312 36413 26412
2644 1738 5929
2300 27568 23137
3362 55190 7213
1315 78721 25966
3255 35387 26190
3249 28513 26637
3365 60671 26323
2633 86391 3941
2633 93900 4078
2633 84543 5680
3185 47839 4917
3128 41688 4336
2300 3750 30681
2300 16747 15015
2300 21134 17418
2300 19065 16354
3276 44731 8618
3352 55625 8258
3465 78129 7841
1430 79429 7754
0 242 12760
1144 90518 8057
706 86841 9922
2300 1998 27549
2354 9384 23832
3224 2670 7562
1315 84367 26745
2300 7958 19502
2948 9183 25034
964 32212 26054
972 34025 25957
2300 12898 18455
2300 3114 3262
2300 10959 5693
2300 4626 3642
2300 6960 4228
2300 14019 5381
2300 9823 17220
2518 73158 30048
2644 3539 6186
1035 33002 6270
2300 29633 1642
3295 44186 8455
2300 34536 7939
2989 1017 5996
2098 90935 2015
3068 1434 7727
2644 1795 7482
3493 60677 6264
3458 51558 6226
437 35226 2175
2518 79119 24396
1047 34147 6207
1648 47578 28553
1650 46504 28588
1083 40426 6259
1249 47060 6545
2300 24714 31266
2300 26422 31615
2300 24539 32258
2300 19804 31832
2300 1800 12260
1349 62559 27246
2203 53401 25521
2300 3025 29194
2300 9482 29131
2300 2805 29668
2300 8026 28477
2300 4086 28489
2300 4442 28866
2300 11160 27671
2300 10763 29402
2300 32312 30374
0 4412 29473
0 14682 27865
77 6 24534
388 6 21496
2535 10610 30330
3197 39961 25344
3353 47914 27292
2300 10178 3077
2300 20596 990
747 1062 14903
966 32798 26880
1430 84230 2886
1430 88378 3641
2701 22229 6836
0 16797 1865
0 26367 1774
2132 80837 3954
0 32934 2365
0 25798 2452
1626 59542 26408
1711 68077 26513
1365 59428 6404
1315 73354 25763
3091 33751 29709
3520 57861 6388
1208 44449 26835
2151 338 13892
3424 67304 27087
3357 51740 27067
3395 61063 26981
0 990 13551
1009 77758 30621
0 6069 23246
0 1999 23498
0 10900 21750
0 2238 24715
0 1279 23574
0 1700 19732
0 8721 24340
0 16302 22416
0 3094 20113
0 27391 23638
0 3182 21875
0 13559 22444
0 20227 23692
0 17505 22909
0 20694 24376
0 5152 24136
0 5028 22368
0 4232 24771
0 9319 24491
0 24988 22920
0 27596 24204
0 6413 24090
0 2459 22058
0 11582 22444
0 21972 24055
0 9272 21858
0 21824 22860
0 15058 21533
0 9331 22594
0 5737 20434
2996 57701 25210
3089 48696 25083
3177 49725 25098
2300 28019 23412
2300 6852 2947
2504 21698 6711
2300 27800 8593
2300 21097 8770
2300 32264 4912
2300 32467 3918
2300 32944 6223
2300 28103 8041
2300 18670 8803
2300 19192 8292
2300 28191 6095
2300 22879 7989
2300 30074 8116
2300 25532 7672
2300 33749 5153
2300 32879 4488
2300 26732 7902
716 77239 29473
1965 6 24392
1800 6 22528
1582 6 24029
2300 13356 30967
2301 70495 4808
2242 55518 4561
3274 29703 7369
2300 14181 8064
2300 12606 8974
2300 9010 8059
2300 8334 6861
2300 7189 5416
2300 11607 10043
2300 7287 8231
2300 12532 8391
2300 5491 7192
2300 9567 9490
2300 1417 3463
2300 6453 7695
2300 9942 9931
2300 7822 6603
2300 14857 8469
2300 8170 9229
2300 3858 5752
2300 8487 8812
2300 2609 4233
2300 11015 9538
2300 15075 9063
1100 38959 6005
2518 79826 25972
2633 93628 2314
2093 64893 28693
2093 61401 28771
3063 78651 4431
2282 35271 25496
1537 35271 26869
643 35271 24705
1370 92362 6088
1790 67174 26353
1449 70669 26856
1315 75841 23548
3392 61884 8069
2572 74420 28899
2741 44338 24928
2951 47648 25055
0 21688 25879
2518 75158 24336
1315 76570 28024
1315 76416 28777
1103 42888 27086
3059 71541 27101
1581 68229 5856
1343 86558 27932
0 9095 1439
0 4958 1516
0 1893 14548
1333 37694 28301
1407 43187 28273
3341 53787 28215
3360 58336 28205
3418 70331 28026
2664 79588 4911
2300 10168 24965
2300 16142 3705
2468 23894 26014
66 35271 24686
1787 35271 31072
527 35271 28828
1315 77974 28557
1315 74950 30037
1315 76889 29371
2300 29634 28869
2300 23072 3621
2518 73005 26635
2027 75073 5219
2518 78932 27421
833 89675 6824
2300 19229 4695
973 12542 32418
2096 12758 32418
1854 24976 32418
1713 15513 32418
1500 11264 32418
1854 4069 32418
1301 10039 32418
500 6655 32418
2074 8608 32418
2300 5196 1992
2300 18855 20914
1430 81176 5866
1430 85550 6986
1430 91256 6183
1413 87406 7598
830 86786 28927
0 1228 6771
0 3231 10598
0 99 4052
0 6904 10514
0 6833 11118
0 6808 9147
0 4492 8288
0 875 3352
0 6292 10512
0 5834 9799
2469 28934 8798
1705 52516 26083
2300 15034 31077
1693 73452 5749
2201 2861 19386
1605 4558 19386
2027 4994 19386
1430 94443 3801
1315 76308 25801
2300 10105 2029
2669 64130 25390
2300 11274 14841
991 81744 30350
1701 35271 6296
1398 35271 7263
664 82641 29360
2370 2652 6775
2300 6199 14622
889 87311 9055
3132 28215 29473
3189 40108 29321
3201 37744 29155
2518 86023 26761
0 2487 195
1666 36929 25242
1296 56447 27467
2760 44008 8709
2532 46644 8496
1071 31047 4497
3212 42880 27865
2300 13490 4057
2300 25639 28571
2300 25439 27327
1456 86040 27100
1896 83265 27909
2422 21513 6150
886 86234 28105
1430 92981 4853
1590 45481 5196
1077 32769 7506
2585 9381 26144
3069 3430 4815
0 2222 13961
3433 66725 7840
3409 56018 7748
3446 64625 7634
3499 73944 7384
2200 30248 29796
2300 11413 24645
1929 84418 22864
2573 9231 30337
2770 42988 29699
3159 64649 29312
2300 25392 5469
3022 775 7177
2300 11196 2863
2300 20225 6160
2300 34584 5823
0 3398 29497
0 15174 27300
0 9182 28404
1430 80279 4713
1430 79974 5719
612 76455 29482
2847 10527 27426
2726 8302 25075
1570 53114 7186
1083 34390 4318
2300 7942 2553
3301 57863 8369
1526 36493 29493
3297 68920 29175
3349 70395 28819
3212 47762 29343
3284 60155 29077
3149 32463 28838
0 2130 29145
2300 1749 23898
2300 1512 20417
2300 5563 22634
2300 261 20723
2300 1126 23688
2300 4813 23267
2300 3385 23712
1732 70868 28573
2834 35893 8812
1214 29127 8812
2370 4184 7807
2300 22492 21388
2300 24963 20653
2300 32602 24060
2300 20104 20516
2300 15267 19593
2300 26267 21516
2300 21993 21007
2300 17089 18349
2300 25476 21055
2300 15324 19064
2300 24721 20053
2300 28666 22200
2300 18952 18693
3345 55118 8512
2300 18119 404
3089 3237 7648
2300 13534 19705
2515 72098 4642
2524 62744 4453
3281 57946 4167
3354 76505 4393
3242 58967 4180
3196 66616 4273
2821 80704 27710
1439 67544 6451
2370 1122 8733
2633 85937 3005
2300 32889 1908
2617 20983 3518
2633 91583 3180
1542 64295 26727
1277 60025 27229
1534 54026 7084
1810 73409 7104
2300 12754 2213
3110 36620 4583
2612 72661 4578
2519 47106 4151
1534 41497 5191
1761 58035 5216
2235 87905 25007
2633 84569 4558
0 16960 27584
0 3792 29908
0 10358 28993
2300 34975 3178
2300 34373 2630
2300 10841 932
1160 77042 31322
609 78541 28828
2300 8493 26474
2300 7378 26622
2300 6420 27192
2300 5686 29641
2300 8028 25991
2300 7853 29876
2300 7513 28188
3235 64254 25294
2300 28570 2722
3174 53336 29325
2008 60073 7698
1315 73602 29340
1688 75243 23785
1439 39081 7730
1075 32152 3934
1315 72062 27534
2300 21979 8769
2300 13197 18920
2300 10439 18653
2300 11734 18449
2986 9073 27474
2887 52184 4020
2978 65652 4232
3006 75782 4377
1430 92268 2886
1305 53604 6513
0 3685 12801
2300 22831 26882
2181 34918 8812
2300 9487 15148
2622 38602 3816
1096 33790 3816
1430 81086 4879
0 7527 1578
0 12365 1557
732 77906 28442
2300 9577 18816
2300 7148 17522
2300 7662 17447
2300 6432 17465
943 23639 18303
758 22434 17682
264 26728 19893
972 12974 12811
1511 11792 12203
832 20455 16663
37 22720 17830
1238 21129 17010
956 30209 26435
2472 21389 25870
2633 92864 5333
2300 1462 10030
2300 6703 10837
2300 1183 7392
2300 118 2905
2300 3557 6886
2300 5820 10207
2300 4929 10476
2300 2054 4825
2300 439 7623
2300 2752 6155
2300 1162 5747
2300 3771 8423
2300 4502 8793
2300 1838 5566
1642 34043 24799
1550 35091 24799
2204 54775 25552
2252 64141 25726
1019 90151 5210
3425 69327 4660
3334 57025 4207
1207 81455 29557
0 28708 1451
0 19329 1482
2518 76987 23934
2435 23842 28642
2974 65828 29291
3219 37763 25623
3286 52343 25773
3242 40756 25767
2376 72329 29412
2600 24940 23832
0 1937 13110
2300 10371 25961
1320 2209 24
3449 52667 5277
2300 4282 32256
2514 20079 4849
2300 6351 20991
2300 12910 21631
2300 11927 22032
2770 69846 4407
933 77045 30629
2247 75660 30126
2464 74359 30505
1852 76797 29795
1227 47648 6203
608 83698 27187
0 7294 928
612 81624 27841
2300 6278 25985
1430 85342 4680
2682 76272 26675
2300 19670 2775
2473 67642 4590
2347 43635 4231
2900 10717 25767
1132 29665 21405
1175 26279 19662
2283 14162 13423
497 33774 23521
954 34112 23695
453 30217 21690
2200 22917 17931
1727 78770 5399
2697 48907 4057
2689 44973 3988
2703 39996 3883
0 27813 21470
0 29941 22772
0 13375 19503
0 12345 17937
0 15345 15782
0 21783 21005
0 17315 18430
0 12142 12699
0 9866 15193
0 12955 18590
0 19820 17159
0 10502 12725
0 21771 19033
0 10495 18237
0 23795 21245
0 10008 11991
0 30928 23011
0 17002 15912
0 14012 19601
0 28146 20693
0 19700 17837
0 21040 17782
0 18043 17476
0 15754 14448
0 18962 18407
0 10336 19133
0 16834 19081
0 16233 16542
0 15635 18333
0 14077 18422
0 9445 16385
0 26719 21281
2633 83910 3955
3509 68658 6934
3492 64151 6935
3509 68066 6887
3370 33857 7207
3467 55170 5953
3416 42042 5812
3411 40268 5880
3499 63892 5944
3397 36594 5853
3423 43891 5832
1702 22572 32418
1438 23220 32418
1534 13084 32418
2044 4827 32418
2248 20592 32418
1145 7780 32418
1892 26440 32418
1450 18548 32418
178 672 837
2300 23177 19495
2300 15779 16453
2300 19791 17471
2300 19335 17242
2300 16203 15502
2300 19117 17894
2300 18968 19713
2300 17910 18669
2300 21917 18978
2300 24453 22076
1567 76835 6058
1430 88248 4305
2300 29363 3026
2518 75252 25629
2518 78439 23853
1474 55183 28016
1691 68914 28015
3206 32425 27793
2633 83384 5624
3141 32329 7865
2600 20666 29618
3354 69464 28763
1835 2674 32205
2300 3477 31906
2300 9033 31763
2300 13023 3766
2987 30159 27442
0 14611 397
2644 1041 3926
2364 37690 3816
2227 36208 3816
1056 44664 27337
2967 10367 29627
2120 48198 29110
2091 53870 28939
2300 32876 9660
2300 33668 10432
2300 32888 10452
2300 24569 9281
3420 74349 8164
3322 46982 26573
2300 5676 12003
3007 51627 8619
3373 55211 4562
3325 46002 4380
2300 13885 17205
2300 22239 1317
737 84763 6925
1315 72213 29080
3559 70664 5891
1315 82310 23933
2300 17432 2147
737 91009 5010
774 83487 26205
0 17965 579
3014 9317 25692
2518 74436 26633
3262 8302 27171
1430 92837 3055
2420 27903 27496
2600 20192 24229
1279 42417 5795
1398 52512 5815
605 199 1575
2600 25389 24800
0 11439 30344
1312 35271 9200
286 35271 7785
1604 35068 24187
991 31512 22356
2183 30319 21742
924 30731 21954
2039 28250 20677
1321 21622 17264
2228 28733 20925
1796 21994 17456
3328 36377 27116
2300 6472 11935
3310 40829 27591
3306 39401 27433
170 18981 32418
830 31276 32418
966 24105 32418
1126 30674 32418
1070 20091 32418
604 21877 32418
991 27618 32418
1015 31774 32418
286 10728 32418
1328 86491 6863
2801 49005 8641
1121 146 1732
947 28265 26590
2127 72313 5036
1942 46642 7916
1884 43866 7902
2029 55352 7834
1315 87147 24025
2633 82498 3932
1311 79901 28342
2869 8302 26064
0 27776 530
2718 9803 26961
2561 23143 7147
2079 59139 25779
2049 57730 25779
1315 80807 23615
3211 30187 29364
2518 79752 25132
2113 35271 5974
1918 35271 7780
1487 35271 3211
994 92683 6273
2300 9245 5868
2890 9078 29076
3041 28163 25011
1315 72999 28777
2617 22489 9139
0 22692 26958
0 14884 28699
3344 10729 24305
2681 9127 24305
2219 75891 7622
2001 61960 7649
820 86532 7387
1807 7086 19386
795 8285 19386
2225 6 25057
2300 3714 1271
1877 36631 24867
3405 67438 28637
0 21424 22100
0 28157 23142
0 29720 23373
0 9397 20609
0 25689 22943
1430 80666 7773
1264 55665 27389
1561 64280 27909
1624 65253 27998
623 2798 15972
1284 3320 16243
1668 6578 17938
2718 38189 8812
0 17912 27741
0 21845 26904
0 7007 109
2300 15719 17251
0 26248 22893
0 9757 19698
0 11486 20718
0 16404 21474
0 26769 22744
0 19359 21659
743 79919 27413
2300 17560 21122
2300 17593 7686
2763 2425 5103
2300 5495 856
2300 7790 15490
2300 8455 16722
2300 12230 3455
1315 80752 25299
2300 20577 2172
919 79676 29302
1257 35165 1902
1609 6 20532
986 6 22190
515 28010 10886
383 16138 10886
536 22129 10886
572 35116 10886
1666 34373 10886
2087 34024 10886
312 32847 10886
1859 31817 10886
1374 25535 10886
1582 45059 26068
1230 79936 29670
1081 33802 5602
2532 89614 2612
870 123 29452
2727 51771 29515
2665 68530 29103
2300 35088 27227
2300 34732 29801
2300 27654 20996
2300 25422 19723
2300 31337 22459
2633 85704 4420
2633 94377 4597
1684 20369 10886
593 10719 10886
1538 19412 10886
332 11762 10886
1134 21464 10886
1118 12725 10886
2230 28774 10886
2008 30050 10886
2097 19212 10886
3477 82794 26581
3252 43428 28848
612 81346 27172
3052 37885 24997
2300 9852 19937
1315 85116 23764
2149 29486 8812
2221 30458 8812
2389 39078 8764
3310 36779 8148
3289 35123 8284
3396 61034 8020
1969 54030 4832
1383 64413 27381
2300 13998 15423
2300 1877 6350
2300 902 6846
2300 5929 11019
2300 3809 9595
2300 1312 4623
2300 120 7035
2366 79270 29074
1891 78118 29409
1793 32439 29796
1478 31790 29796
2633 87044 2798
1028 85566 26674
1302 75726 29891
1430 83280 4983
2252 39952 29424
2293 44240 29363
1430 91836 5779
3318 54545 28575
3216 33030 28801
3304 47414 28417
2300 19136 7615
2300 4509 1888
3535 74223 29248
0 7116 2514
2300 22562 5823
0 11179 4399
0 11515 2929
0 16068 7606
0 24225 2746
0 2529 4190
0 26569 3209
0 15064 3344
0 12808 5912
0 26884 3623
0 11169 5546
0 8987 5924
0 9322 6849
0 10040 9342
0 21805 5871
0 7518 6790
0 15719 8752
0 6416 4767
0 7901 7981
0 12198 8742
0 13153 4919
0 10418 7455
0 5015 3917
0 9603 6053
0 11221 7982
0 21414 3468
0 18999 2893
0 13510 6621
0 13436 8891
0 18549 6893
0 14398 6080
0 23940 5238
0 29451 4315
0 20018 3656
0 21282 5754
0 19630 2907
0 25731 4116
0 16921 2621
0 30123 3793
0 19184 7245
0 15563 3471
0 10257 2988
0 7730 4491
0 13184 7467
3139 959 4447
3528 73327 6883
1353 1946 31860
3441 47338 6533
3407 38857 6648
3387 31851 6341
3382 32621 6794
2252 20593 10886
1389 12051 10886
1632 22481 10886
1524 24309 10886
1696 18673 10886
1155 19759 10886
1744 26247 10886
1217 14595 10886
103 9813 10886
2212 27007 10886
2697 48948 29559
2854 70547 29178
0 6063 160
1705 28578 29796
2300 22095 25281
2300 25662 24110
2300 24373 25738
2300 33094 26180
2300 32810 27578
2300 26286 27045
2300 32678 28095
2300 15049 23520
2300 28903 24173
2300 33530 27351
2300 29304 27609
3288 36942 26746
3329 46031 26868
1316 35271 9912
398 35271 6075
1430 91378 4319
2026 38510 8760
2533 84840 26400
2300 6149 3386
1699 80978 9126
2300 4195 2985
3147 15639 17601
880 79237 29938
1352 28418 6658
1950 43949 29031
1944 41579 29082
3274 37992 28256
3270 34735 28064
3267 36131 28244
3234 29925 28385
1257 51959 6156
2044 33915 333
3291 66981 25411
3312 65700 25599
3276 62236 25409
3451 50252 5857
2300 33562 9359
2300 30073 9884
2300 25694 9911
2300 28566 9482
2300 20307 9099
729 80015 29928
3287 36038 27703
3303 38790 27460
3341 47037 27318
2648 85477 7406
754 795 30824
2300 8483 13415
2300 2792 13623
2300 4396 14414
2300 3952 13970
2300 3577 13294
2735 11615 1846
1064 38704 27550
1837 41620 25627
603 80743 28288
2647 37397 29796
3054 1438 7018
2300 9710 66
2300 12440 14996
3384 45637 6303
1201 92360 7029
2633 92176 1964
2300 206 26472
2300 8090 24177
2300 3642 26206
2943 8913 2627
2370 1598 4206
3437 47756 6840
3473 56766 6686
3526 71411 6757
3299 43599 5425
2300 6061 2589
3456 41670 6601
1252 53697 27146
2300 1857 1627
2509 2564 8901
3440 74228 4335
1430 87318 2635
3264 29410 27235
3312 41642 26966
3412 65369 26861
183 6893 19386
622 5400 19386
2300 14600 31633
2303 87438 2538
2858 89956 5826
2724 79384 6516
3409 53602 7651
3350 34712 7610
3382 48177 7767
1767 85396 27287
1767 81188 28514
99 152 13409
0 6915 13615
0 8784 16835
0 5555 15055
0 8795 15143
0 7538 14221
0 5577 16894
0 7817 18019
0 6919 17793
1574 86487 22688
1430 85125 3080
1096 37908 5400
1089 35890 5695
2233 72752 30433
2370 3769 5245
1667 18709 0
1605 30330 0
1925 11467 0
1849 12760 0
2215 25362 0
1799 17122 0
2262 14709 0
454 11723 32418
756 17810 32418
2 15689 32418
108 6146 32418
1881 30026 32418
673 34189 32418
977 20668 32418
1905 33488 32418
386 24783 32418
1021 22458 32418
1388 32262 32418
2632 20358 28092
1222 46744 6115
0 9810 21428
0 6884 23508
0 3067 23143
0 8226 23893
0 24102 23355
0 12229 24665
0 962 24353
0 583 24756
0 12561 22015
0 15758 22146
0 8300 21352
0 10719 22602
0 4307 20464
0 25024 24012
0 3872 23958
0 17222 21915
0 13005 22293
0 7675 20841
0 2894 21181
0 12136 21139
0 22961 23865
0 23669 24360
0 4978 21621
0 8515 23161
0 10681 1204
0 32530 1255
1300 41449 26486
1329 38434 26325
0 12770 29720
1315 83611 27783
1213 80927 28453
3311 42938 8292
3268 30577 8356
1315 73506 27003
3337 62133 28664
3367 71221 28694
3284 53014 28880
3331 61494 28708
2300 16789 2262
2300 21554 2401
2300 15882 5626
2300 22382 5110
2300 23729 4718
2300 26840 3758
2300 8998 3815
1509 37407 25817
1430 87190 5243
2300 14152 22007
2300 15201 22220
2300 15880 22415
2300 13125 22423
2300 24569 23385
1166 47841 27499
2518 87669 25853
1689 88059 7522
1315 81226 25508
1988 37453 29319
2742 79342 4428
1077 32818 8295
949 28979 26342
1315 82039 28048
1315 72944 29400
1315 84166 27563
3094 29060 29454
1234 51324 6434
3320 29198 4876
3337 37365 4764
3378 46833 4899
2344 47211 25255
2617 20402 3589
2300 4377 26542
3402 36747 6496
3448 48241 6327
3394 35834 6780
3446 48806 6544
3427 43784 6559
1437 69126 6396
0 19251 28120
0 9309 30285
287 4764 16995
1638 7207 18266
2300 20125 27182
3229 31145 28564
3257 41368 28693
1082 81648 28917
3381 32371 4933
1213 75196 28874
2212 71760 25757
3364 62840 8304
3310 49162 8445
3328 56464 8456
3401 70935 8185
1816 65032 7320
0 1607 5000
0 1193 10114
0 2490 8361
0 4314 9085
0 1610 8554
0 440 5293
0 2382 6029
0 8157 9981
0 3754 10345
0 5197 9619
0 4177 7128
0 2519 9148
1315 75048 27330
612 84821 26898
976 34918 29332
2636 8926 1573
3417 45709 4784
1152 39922 26809
1429 60487 26866
1315 85872 23234
3301 72553 8303
2847 45568 8720
1430 81430 4355
1540 68812 5988
2300 23165 22506
2300 15523 23318
2300 19087 22648
2300 14795 22737
2300 17434 22885
2300 18690 23473
2300 14234 23037
304 19035 10886
1541 28829 10886
543 23637 10886
289 23024 10886
281 17770 10886
630 16689 10886
373 29682 10886
80 10681 10886
2300 7557 16317
2535 9799 29452
2300 24127 3536
2633 88244 4907
3238 44638 28911
2291 6 5586
1665 6 6241
1839 6 4529
978 35630 27704
963 32025 29697
1422 37474 8796
0 4059 31142
2240 80485 23519
2300 7782 32088
2518 80247 26504
3305 45297 8401
1942 66300 26113
221 33091 44
2300 1628 28701
1072 31437 29796
2518 78407 26085
2644 4002 4381
2492 16038 18219
966 32947 28575
2300 11718 25564
1062 79695 30965
2300 6419 4999
1315 77552 24589
199 35271 29940
618 35271 31287
813 35271 31885
3466 73972 4906
3517 77300 5332
3476 75745 4944
1315 74048 25717
1429 93248 7620
0 33550 200
2733 63897 8310
2629 40276 8686
0 2372 1491
0 23688 1383
0 11773 1750
0 2965 1695
2300 34435 1248
3129 85773 7165
879 75797 28447
1430 88364 5480
2300 24103 1307
3270 40983 26912
2948 61073 25257
2518 85473 23279
3212 40543 3956
3183 51706 4091
3319 67276 4281
1430 84315 7748
612 82670 27348
0 32997 5793
0 23766 9129
0 33355 4924
0 31713 5846
0 31726 6886
0 26779 7996
0 26998 5746
0 22454 7977
0 33087 3548
0 32374 5736
0 18736 8830
0 28354 7769
0 30816 9259
0 19213 10165
0 26243 8172
0 25255 9142
0 28792 7000
0 23803 10042
0 26998 7504
0 26028 6230
0 32276 10035
0 28773 6423
0 28074 8260
3037 41077 29364
3326 33458 4791
3394 52316 4879
3449 70358 4836
3437 66109 4857
3348 40932 4769
2625 62856 29203
2583 54320 29362
2300 22117 8065
1474 57278 5767
959 30946 25516
2300 10181 28063
0 13230 27673
2767 71883 25749
2261 81131 9127
2300 4549 30621
1315 80029 24265
1079 33267 6977
2892 77632 8149
2897 76032 8183
3333 39513 8004
3427 63166 7783
3387 54898 7934
3437 59411 5098
3471 67009 5198
3501 72461 5326
3077 29141 28200
2128 59700 4767
2137 41254 4380
2300 11603 29694
2300 15563 27557
2300 13597 28658
2300 17684 28585
2300 23636 30464
2300 12652 24480
2300 12646 26610
2300 17210 25396
2300 24880 29594
2300 15579 25716
2300 21258 29429
2300 17543 26688
2300 26640 30316
2300 31059 30460
2300 14919 27571
2300 16489 29715
2300 17070 30474
2300 12446 27783
1831 28044 28960
1430 84721 5265
2300 13238 548
1066 29720 5239
3026 1577 8564
2518 84901 25657
2300 26779 662
2906 2522 7102
2041 35271 30581
3240 36450 25416
2445 50780 29340
0 4505 2485
0 6307 2298
0 23520 525
3508 68158 5728
3505 69770 5579
2644 2039 6703
2300 12007 16291
2300 17457 10129
2300 16566 10400
2300 16992 10745
2300 14670 10095
2300 16545 9143
2300 21040 10448
3018 780 8683
2300 11130 17848
1062 28822 5012
1073 31584 4962
3444 50788 5693
1750 42413 25761
1768 49815 25925
0 3322 1260
1430 92776 2462
699 3876 19386
1357 2334 19386
1126 128 19386
769 2388 19386
2263 82752 2472
1224 43203 6635
3400 62254 27630
3419 65603 27413
3360 52945 27666
3387 59804 27812
3333 50646 28122
3260 32884 28109
3324 48177 28089
3407 65202 27856
2300 2727 12721
2374 43044 8433
940 86493 8985
2100 1101 31182
2300 23565 5349
2300 19663 6255
2300 24082 4200
2300 16429 5814
2300 21843 4430
2300 17144 6779
2300 17876 6233
1040 34745 6278
1655 93109 5991
3042 36037 29706
1991 58874 28716
1782 39687 28945
1336 54910 6506
1489 51000 28182
1352 44795 28102
2633 80815 6553
2633 80096 5397
2633 82454 6559
2633 81276 7626
2300 21090 22117
2633 90407 3091
1071 31143 8420
2380 65679 4635
2369 69149 4715
2518 82384 24927
3256 47892 8232
2300 26185 30642
2518 78866 25297
2518 83922 25393
2497 23843 30044
1294 29741 24799
2600 24610 27489
2702 71997 8133
3536 73190 6060
3508 65712 6089
3540 74324 6070
2120 40240 8249
2207 44724 8249
2480 45971 8469
767 83235 27725
0 8930 5308
0 13747 2666
0 1395 3569
0 11590 8771
0 9533 9049
0 29824 3037
0 14333 3027
0 21623 5210
0 14371 3949
0 4817 4652
0 25151 2861
0 19933 4224
0 5649 6093
0 30836 3120
0 10094 8606
0 3987 5691
0 22268 3007
0 27018 2720
0 12462 9284
0 14364 8418
0 3818 3442
0 15469 6332
0 27764 4559
0 11162 7061
0 16603 7975
0 14987 4922
0 6808 7537
0 18991 5531
0 8971 2731
0 7113 3139
0 22331 3800
0 9253 3811
0 19691 6661
1802 6 25970
1069 30691 4043
1676 31628 3816
2516 29137 3816
2713 30670 3816
3085 29807 5247
2300 32108 23108
2858 34067 24813
2805 45961 3926
3268 67493 27905
1096 41015 6224
2300 29502 4829
2300 32186 7608
2300 29781 6207
2300 31602 4575
2300 33718 7438
2300 20585 7863
2300 30502 7733
2300 25781 6951
2300 29296 8298
2300 33475 2985
2261 55958 29067
2535 9037 27804
2535 8932 28367
2518 75669 28935
2300 10564 20254
528 84405 29575
1345 57021 6510
2265 52756 8141
2213 51960 8102
2179 54624 8009
0 11314 1156
3012 8302 30426
1675 72306 6867
2300 24032 18781
2300 11249 12087
2300 17250 15466
2300 27266 1149
0 843 26802
0 14370 24882
0 10790 26350
0 9499 26825
0 21912 25036
0 4975 24969
0 1652 25806
0 25632 25267
0 12834 25581
0 3474 25316
0 19906 25242
0 11409 24785
0 22492 24807
1867 30245 3816
2476 33972 3816
2605 35241 3816
1155 83466 29368
2300 18514 2906
2457 31878 24799
2653 30296 24799
2094 32809 24799
0 10143 929
826 5642 0
344 3772 0
45 17110 0
714 21585 0
2021 5960 0
1951 4690 0
659 12940 0
15 15175 0
480 7211 0
1061 9050 0
2633 86192 7368
1024 39278 27244
2686 8215 29951
2331 70568 7841
2003 47903 7966
2300 11841 6561
2300 16050 2667
2300 9811 2540
3320 71083 25542
3286 62913 25469
1315 77275 25819
3330 67953 28908
3169 42290 29550
2633 79917 7764
2633 82343 5854
2633 80596 8229
2633 81681 6657
1315 82861 27751
255 75669 31743
1854 43094 4746
1891 54653 4950
2905 61707 4166
0 5452 29454
0 13992 27923
0 9092 28950
3273 36345 28902
2518 81890 26552
0 27282 14
0 23017 21130
0 19653 20860
0 15101 15074
0 12207 17085
0 9981 18763
0 19067 20706
0 9896 12655
0 13096 14857
0 18935 16345
0 21010 19856
0 19984 18679
0 32860 23756
0 14300 15470
0 15674 17558
0 31506 23137
0 17478 20448
0 22767 20019
658 6 4055
693 6 8384
3470 62865 5389
3422 50114 5310
3351 31381 5212
3439 54985 5318
3416 44904 5573
991 1267 349
2300 15780 1861
