ply
format ascii 1.0
element vertex 2372
property float x
property float y
property float z
end_header
7908 89021 21001
3308 39940 19475
773 38927 20658
3899 40074 19318
873 40002 19402
8210 13469 11405
8034 13422 12168
7805 13449 11726
4880 2617 21201
3325 2573 21142
4638 1805 20141
5093 1812 20152
2113 2298 20784
5603 3467 22309
7726 31886 10575
7133 6087 23731
7133 4912 16209
7133 5239 13396
7133 5267 22084
7133 6671 18814
7133 4751 20388
7133 6667 5645
7133 5650 16378
7133 6336 11304
7133 5807 22524
7133 6091 19166
7133 5841 16803
0 33696 20577
0 33254 5751
0 33510 11942
0 34337 7061
0 33153 14398
0 33695 11174
0 33769 4595
0 33737 19663
0 33235 11478
7133 59073 17543
7133 59322 18332
7133 68409 19536
7133 65064 18683
7133 55471 17472
7133 43188 14535
7133 57292 18445
7133 72689 20211
7133 58357 17426
7133 60566 18246
7133 54306 17323
7133 50746 15903
7133 47343 16673
7133 59985 17700
7133 51123 17488
7133 42408 16106
1463 11053 26525
3777 11047 26524
508 10887 26503
4892 10894 26504
819 13007 26782
0 9255 5245
0 8811 2605
0 8312 9041
0 7733 7994
0 8534 10698
0 7199 4359
0 7924 14711
0 6895 2153
0 7367 18358
0 8739 8006
0 8197 11452
0 7008 17771
0 7613 3867
0 7250 19859
0 7225 16124
0 7076 9049
6614 24902 4251
7133 12146 15905
3214 40827 8824
24 41013 9352
1087 41058 9481
1501 41296 10154
846 41340 10279
7726 42676 16223
7726 42422 14298
0 26617 16353
0 27457 19846
0 25614 21940
0 26201 17391
0 27355 17740
0 26630 17746
0 27302 15769
0 27718 21536
4579 26705 3958
4796 27222 3776
7133 22850 11601
5357 21051 2508
0 17108 5252
0 18921 6672
0 18766 8682
0 16911 26107
0 17856 14517
0 19208 2153
0 18596 3674
0 18172 10397
0 17072 24259
0 18809 5314
0 17108 12757
0 17750 13992
0 17326 6538
0 18340 11947
0 18952 7506
0 17406 12104
0 18451 12856
0 16982 15705
0 17880 5919
0 36982 13501
0 36351 21627
0 37771 18434
0 37013 21486
0 37161 5762
0 36852 14819
0 37500 20916
0 36721 16564
0 37706 13588
7585 13791 10931
7314 13391 17282
7726 53829 13444
7726 54231 13715
7726 54624 13010
1844 18299 25793
5540 17201 26248
859 19371 25349
5176 17490 26129
1171 17208 26245
7726 45632 12245
7726 44644 12511
7726 45049 13854
0 23726 8953
0 23789 15239
2274 23341 4166
1142 32818 3045
3820 34166 3297
1767 33623 3196
814 34081 3281
1409 34570 3372
574 18331 1054
1026 19832 1676
808 19126 1383
7871 90052 14985
7133 20555 15639
7133 21249 19997
7133 22164 22162
7133 20907 17578
7133 21860 16355
7133 22392 20399
7133 20618 7713
7133 21330 16594
7133 20452 17393
7133 20595 23735
7133 21941 22944
7133 20767 19939
7133 21660 13614
7133 25867 9688
0 24882 15461
0 24897 17335
7726 83466 16247
3254 27701 3607
3621 1696 6943
4223 1646 7063
5434 843 9003
5602 1378 7711
6042 1432 7581
5522 37270 4709
6339 37116 4578
2376 37758 5127
6381 37760 5129
7133 12427 12668
7726 49258 12232
7726 51438 18451
7726 49803 11991
7726 50344 12209
7726 51829 12188
0 30011 16218
7726 63882 17481
7726 63979 18534
7726 62474 17482
7726 62220 19218
0 25280 20021
0 25315 17018
7191 13093 8694
3683 23933 22255
2069 27882 3544
7726 69903 15464
7726 69196 16320
7726 70286 16884
7726 69212 17048
7133 33945 21980
7133 37580 19883
7133 31301 21017
7133 32837 21244
7133 39831 18707
7133 38021 19281
7133 35168 19397
7133 33524 18120
7133 30008 17898
7133 35325 20058
7133 30118 20183
7133 34250 18946
7133 38722 19115
0 21366 4619
7133 31473 8015
7133 34769 5366
7133 31986 3516
7133 31691 4183
7133 35626 9708
7133 33577 5868
7133 34609 7951
7133 31704 6305
7133 33113 7228
7133 36692 9808
7133 31290 7258
7133 32328 8864
7133 38474 9173
7133 37490 10202
0 3110 6406
0 2756 8749
0 2094 14511
0 1867 9622
0 2773 7987
0 2449 7372
0 2794 11223
7726 37362 15821
7726 36836 15830
7726 37241 13451
7726 37989 13567
7810 93223 16145
0 41397 14343
4819 4619 3396
4355 5213 2941
6891 5345 2840
6509 4148 3758
3758 4488 3497
6315 3938 22915
3041 4037 22991
3120 5221 23899
4547 4138 23068
7726 90145 21954
5774 25397 22189
7777 93337 19860
7480 82997 13238
7726 42617 12134
7051 36319 22698
7004 37206 22090
6670 37456 21919
2885 37804 21680
4654 36925 22283
7133 11637 7967
7133 9958 5866
7133 10786 16242
7133 10400 2912
7133 11701 7517
7133 10830 12033
7133 10730 14301
7133 10485 19755
7133 10716 16700
7133 11948 8860
7133 11537 10285
7133 10186 10116
4127 4147 3759
5636 5384 2810
5366 4227 3696
8165 13152 16441
8346 13111 17112
7763 13063 17873
0 8707 4207
0 6764 22744
0 7299 5716
0 7741 13887
0 7842 15839
0 9043 4775
0 7090 3401
0 6772 11230
0 7292 20490
0 8782 1553
0 7752 9555
0 7282 11391
0 8023 12067
7133 56133 13695
7133 47350 12374
7133 69331 14219
7133 48199 12552
7133 70284 14238
7133 54232 13393
7133 53681 13591
7133 43668 13629
7133 49706 13466
7133 55752 13377
7133 61731 14426
7133 42982 12835
7133 49520 12395
7133 61569 13743
7133 53219 13729
7133 42523 13581
7133 42623 11364
7133 44213 13166
7133 48767 12061
291 4359 23239
1167 6123 24591
4875 4464 23318
9 4932 23679
3322 21171 2600
7243 13752 11548
7247 13927 8781
7726 66608 16698
7726 67022 15692
7726 67284 14474
7133 39928 8333
7133 4111 4008
7133 4038 15657
7133 5076 5179
7133 5711 4080
7133 4846 8222
7133 3982 19706
7133 3933 10418
7133 5678 6687
7133 4902 14852
7133 4235 18044
2775 22233 23419
6079 21285 24146
6910 21536 23954
5447 22580 23153
5258 21280 24150
7133 15005 23034
7133 14038 21784
7133 15117 26422
7133 15487 21921
7133 14482 18506
7133 14590 23992
7133 15391 18862
7133 13502 25288
7133 13677 26596
7133 16699 25703
7133 14615 19050
7133 14690 14566
7133 14291 11675
7133 23441 13457
7133 25731 7363
7133 25536 5442
4012 9740 26295
4861 9574 26226
6325 9522 26205
5672 9294 26110
7116 81587 16447
7116 80016 15983
7116 79140 15667
7116 77460 15946
7116 80954 20425
7116 81350 17503
7116 81094 16368
7116 81349 21856
7116 80558 16051
7116 79316 17820
7116 79827 14433
0 16338 24402
0 15544 23103
0 15496 26105
0 14653 25191
0 14106 6398
0 14551 10480
0 14466 16785
0 13510 13449
0 14398 13225
0 13801 17240
0 14651 9513
0 15677 25653
0 13927 4972
0 13569 8143
0 14153 21882
0 13571 11260
0 16239 23006
0 13547 21915
0 14093 20382
0 14925 13748
7726 92080 19918
7726 91452 19801
4388 23767 4251
2945 8721 961
773 7816 1336
1899 9765 529
1083 9146 785
518 8796 930
7726 88056 16658
7726 87867 18151
7726 88017 18705
4175 31338 23914
2570 31276 23919
2284 32566 23819
654 33123 23776
3484 32111 23854
0 22527 19109
0 22580 19738
0 5290 21464
0 6072 18298
0 6310 23714
0 6414 13215
0 5500 22626
0 6407 8052
0 5193 17142
0 5899 12532
0 6437 20564
0 5521 16288
0 5827 16836
0 6119 22911
0 5536 20075
0 6499 7247
0 6299 21508
2575 2656 21251
458 2711 21322
4510 3713 22628
2188 3219 21984
1186 3912 22888
7133 30301 9999
6733 23814 4251
0 29046 4997
0 29906 13027
6116 16064 26487
2920 15527 26557
5301 15544 26555
4337 16801 26390
7133 31068 14480
7726 87378 14670
1732 34728 23322
2764 34428 23428
809 35515 23045
292 35488 23054
7726 94640 18121
7575 12653 16912
7393 81439 13277
8031 89690 15839
7726 42127 15050
7691 31249 11100
7726 39996 18182
7726 38132 16323
7726 38225 11989
7726 38514 15765
7726 38908 17517
7133 11857 2851
7133 11600 1195
7133 10882 1903
7133 12788 1835
7133 12562 3784
7518 86384 13410
7585 90048 13595
3574 33180 3113
1129 32277 2944
5550 32990 3077
4877 32740 3031
7726 34359 17522
7726 51469 14311
7726 49993 13840
7726 50736 14102
7726 49737 13219
7133 3264 8360
7133 2539 12978
7133 2566 7645
7133 2367 11955
7133 2297 11130
849 41810 12953
3286 41716 11737
3299 41764 12355
2460 41811 12962
7133 29098 18942
7133 29251 19452
7133 27800 20858
6659 10882 332
5039 10572 373
4731 11835 206
1226 10124 432
5492 12174 162
7726 32638 16744
4918 437 10066
5392 276 11286
6873 259 11418
6484 222 11694
3613 376 10528
6202 114 12508
6354 23494 4249
6691 352 16127
4867 103 14234
6932 162 14680
6090 347 16096
2467 118 14350
0 27830 8631
0 27749 9340
0 28363 10203
0 27775 7827
7726 90352 14225
0 24175 7906
0 24160 12772
7600 71087 14215
7266 71822 14298
7380 58827 12838
7600 69609 14049
7726 40198 16408
7726 39264 12578
7726 38897 12255
7726 40305 16967
7726 39689 13307
7133 13866 4371
7133 15817 1933
7133 13802 71
7133 15175 2639
7133 15376 805
7133 15264 3281
3453 724 9289
5018 612 9561
4265 627 9524
4444 819 9057
3796 1045 8514
0 437 15803
7133 10776 5947
7133 10894 8446
7133 10427 18228
7133 10319 8586
7133 11020 9308
7133 10267 7977
7133 9988 13202
7133 10317 17050
7133 10866 6998
7133 6102 7810
7133 4958 15684
7133 6559 8654
7133 4731 22654
7133 6464 20212
7133 5642 14910
7133 6621 13692
7133 5502 11881
7133 4764 21695
0 24586 20509
0 24949 12752
7160 33991 10049
7133 876 16776
7133 1373 15534
0 27780 20349
0 26935 20024
0 26571 8892
0 26899 18958
0 26499 12722
0 27016 20878
0 26679 6595
0 27919 22835
0 26722 14377
7726 79532 15701
7726 79900 19213
7726 81059 20035
7726 80327 14835
7726 79703 17968
7726 80412 15353
7726 81334 19532
7726 81586 15745
7726 78421 15757
7726 80732 17660
7726 81213 13789
7133 23626 9619
6227 40243 19076
6786 40379 18793
7726 30236 9799
5200 23594 22529
0 16598 1047
0 15162 3081
0 14422 2043
0 15821 15922
0 15985 14246
0 14465 2552
0 16546 21955
0 15297 6404
0 15211 8169
0 15726 9548
0 15246 10678
0 15067 4697
0 14345 4438
0 15512 11926
0 15414 7262
0 14977 8766
7545 12396 18249
7726 88098 19716
7726 87306 18693
4344 7894 1303
6202 6789 1761
2722 6784 1763
5860 8605 1009
4400 6788 1762
2717 7744 1366
0 20099 8012
0 20067 19679
0 18803 17810
0 19201 16630
0 18584 19644
0 19855 5924
0 18174 24171
0 18635 14885
0 19902 23739
0 19384 22788
0 19239 8910
0 18379 21975
0 19508 11617
0 19999 12667
0 18100 21122
0 19530 10210
7802 89887 19874
0 23271 15636
0 23399 14955
7133 44648 11324
7133 63350 13444
7726 34328 14589
7726 34030 12830
7726 34779 15274
7726 34942 12800
7726 34524 12229
7658 12993 12591
7133 35351 3769
7133 37265 5563
7133 75244 20289
4063 2457 5843
1201 3122 4976
4702 1849 6635
3394 2236 6131
404 2378 5945
7133 28675 3554
7133 10944 22600
7133 12846 26339
7133 12355 22947
7133 12411 26036
7133 9290 16077
7133 9104 17484
7133 7025 24781
7133 8741 11556
7133 7974 16501
7133 8182 22913
7133 9684 25019
7133 9595 9972
7133 8946 20827
7133 8756 22966
7133 8614 24188
7133 9888 22886
7133 8774 22258
7133 9771 3701
7133 8447 13679
7133 9688 10658
7133 20289 5222
7133 18552 16911
7133 17380 24795
7133 18100 21217
7133 19023 11051
7133 18737 24351
7133 19776 13655
7133 19419 21215
7133 18741 22119
7133 19865 24902
7133 19380 12731
7133 19552 16628
7133 19190 24087
7133 17919 19183
7133 18192 25682
7133 19592 18880
7133 17861 23231
996 41602 11021
3655 41430 10535
3952 41599 11015
7726 64180 16953
7726 64893 15581
7726 63397 14298
4557 27534 23193
6097 27907 23371
6139 27342 23101
5075 27296 23079
3435 27361 23110
7133 28576 8425
0 29426 5572
0 31279 12199
0 30915 7639
0 30677 12333
0 29831 3647
0 30200 6023
0 30765 14021
0 31530 9473
0 29357 3704
0 31016 13595
0 30460 3166
7133 38774 19671
7133 34877 22181
7535 11439 19525
2789 36120 4098
3122 36945 4493
1216 35285 3699
0 35820 12326
0 36495 15273
0 35898 10004
0 36623 4793
0 35227 7870
0 35473 10243
0 36318 16236
0 36603 9191
0 35754 14791
7726 75426 18525
0 24495 15867
0 25257 5407
0 24377 14327
0 24555 19529
7133 36245 21913
7133 39306 19530
0 28791 21454
0 29959 17636
0 29678 19765
0 29388 16674
0 28503 20634
0 29424 18007
0 28971 19181
0 28562 11035
0 28443 13746
0 28668 9623
0 29729 15221
0 30189 20343
226 32386 2965
4469 34065 3278
2694 33990 3264
7726 83856 22165
7116 87732 16755
7116 88208 16992
7116 83213 13644
7133 34382 3546
7133 36684 6036
7133 33923 3586
7133 38474 8114
6060 6463 24852
6231 5541 24145
7095 4782 23562
3461 5914 24432
2599 6484 24869
7555 12281 6938
7133 25653 6471
7726 88045 21591
7726 44011 16453
7726 43580 12805
7726 43633 17970
7726 44303 14440
0 15989 6980
0 14030 2934
0 16479 9903
0 15419 12764
0 16314 4495
0 15524 10113
0 14307 891
0 14792 5077
0 15832 5971
0 15412 3885
0 14626 6178
0 14644 1638
0 16687 13406
0 16749 2733
7650 84282 22682
7555 87590 22481
7726 93765 18073
7726 37500 10613
7726 35842 12317
7726 36003 10759
7726 35588 15964
7726 37061 12184
0 23096 19501
0 23105 16580
0 22938 22241
0 24374 11230
0 24919 11623
0 24372 4581
0 24813 10875
0 24461 5618
2964 1784 20105
480 1223 18749
92 1039 18307
2481 1391 19155
7726 41564 15866
7726 55441 18567
7726 54469 18801
7726 54983 15941
7737 89079 14550
816 17137 559
2120 17729 804
1621 17422 678
6983 18294 1039
6896 17872 864
7101 18850 1269
7387 95946 16793
7133 27563 8225
7133 24149 18324
0 41615 13000
784 24871 4251
3669 25384 4251
0 31059 22953
0 31137 21523
0 32160 23722
0 32653 19212
0 32984 22853
0 31810 22204
0 31259 23625
0 32163 9589
0 31887 16362
0 32093 5193
0 31922 10271
0 32678 16148
840 27761 3586
184 28486 3330
7133 25068 19969
0 11051 12773
0 12202 8642
0 10203 7615
0 11011 5379
0 11648 3223
0 12533 3498
0 11465 2114
0 10042 1619
0 11837 6759
0 10716 16219
0 10031 22176
0 11075 8387
0 11649 3753
0 12662 5543
0 10394 8406
0 10899 1070
0 11691 9827
0 12685 1230
7116 90306 16932
7116 94430 14212
7116 93209 14957
7116 95882 21013
7116 90300 16436
7116 93529 18963
7116 95419 21390
7116 90901 16589
7116 88097 14233
7116 94781 20225
7116 85793 13404
7116 93878 18645
7116 91031 15033
7116 90717 13973
7116 92051 18168
7116 94579 20762
7116 85000 13862
7116 86731 13836
7116 94637 14732
7116 91493 15965
7116 89615 15098
3365 30361 23878
5295 29389 23697
7726 94106 21719
5911 39885 19539
3459 39116 20437
6868 38791 20817
5391 38784 20825
1702 2517 5764
906 2347 5986
2565 2111 6294
6592 1884 6589
7133 47676 14009
7133 65491 13826
7133 64507 14308
7133 50781 12654
7133 45481 11832
7133 62952 13687
7133 43446 12554
7133 52818 12713
7133 64401 13729
7133 42061 12253
7133 56285 13212
7133 43883 12067
7133 45350 13648
7133 50464 13801
7133 53747 12852
7902 93397 21361
0 40126 7774
0 39893 10235
0 40542 10965
0 39798 12785
444 21344 2733
0 22307 6275
0 22546 5102
0 22766 14051
0 22650 9934
0 22727 8840
7760 84044 21167
6592 262 15438
1014 19 13598
2850 0 13453
3732 207 15021
7133 28683 4692
85 41411 16551
1423 41773 14608
3681 41850 14197
893 41881 14032
3028 41683 15093
256 26092 4105
1453 25987 4127
5726 32079 23857
6929 33398 23755
4442 32923 23792
7133 27427 7750
7133 327 15132
7726 58801 17022
7726 57788 13039
7726 59351 15951
7133 23348 17613
7133 23744 10992
3176 22525 3639
90 22216 3402
7133 68878 17648
7133 74129 15535
7133 71776 18555
7133 74438 17164
7133 46807 14909
7133 57438 16037
7133 59933 16653
7133 75579 15143
7133 74717 19437
7133 67581 14930
7133 62600 15944
7133 67334 16034
7133 69553 17553
7133 56784 14847
7133 72328 18345
7133 71566 16657
7133 58262 16292
7133 57498 15193
7133 52970 15983
7133 70872 17770
7133 73777 16974
7133 55985 16497
7133 72664 14764
7133 64631 14868
7133 62690 16695
7133 75132 16023
7133 70538 16574
7133 74237 19592
7133 50664 14908
7133 63517 17398
7133 55062 15890
7133 49947 15358
7133 53858 16272
7133 73796 15861
7133 62902 15143
7133 72976 17879
7133 73887 20244
7133 72400 15199
0 23158 5297
0 23105 7926
0 23349 4818
7133 22344 11767
7133 22406 14265
7726 89611 16984
340 31423 2915
2673 30438 2991
4745 31881 2880
8556 13243 12710
7726 33281 11221
7726 32150 11404
4230 38422 21247
5025 39020 20549
2976 38705 20918
6849 39827 19607
7063 39161 20385
7726 87640 13556
7726 91595 13678
6687 36632 4343
2369 35088 3604
5746 34646 3393
3810 41776 12516
1795 24099 22172
6466 32370 23834
4983 32246 23844
5755 31608 23893
1897 38538 5795
1308 38785 6007
68 38221 5524
2975 38822 6038
1473 37887 5237
2908 40988 17519
389 40775 17965
2784 40791 17932
3325 41341 16783
2689 24815 22027
7133 23428 6469
7133 26490 21127
7133 25795 21889
7726 83832 13715
7375 43764 18529
7467 47803 18795
7443 42971 18477
7287 61774 19714
7726 47495 13650
7726 48808 14484
7726 47487 11709
7133 30857 15457
0 11874 7828
0 12945 1689
0 13039 283
0 10282 17026
0 10261 4113
0 10567 11609
0 10932 1736
0 10964 14406
0 10091 15530
0 10001 23823
0 3294 14752
0 3697 21109
0 2702 15563
0 3444 15779
0 2758 19792
0 3654 17033
0 3557 12171
0 2559 15006
7133 12351 8222
7133 622 10860
7133 771 9828
864 34302 23473
1843 34252 23490
5575 33907 23612
2588 33629 23710
2346 35138 23178
7726 38202 14696
7726 37874 17649
7726 38120 16843
6214 41602 11022
4678 23079 22817
7608 36119 18026
2808 16466 400
1669 16687 429
648 16582 416
157 14062 84
2321 15741 305
7726 53643 12945
7726 53656 17225
7726 52620 13478
7726 54204 14263
7133 23891 19029
7133 29942 3488
7133 30134 5033
7133 31020 5593
7133 29568 4572
7316 95946 19884
7133 29686 8028
7726 82590 19635
7726 82984 17695
686 22057 23554
5380 20634 24646
2397 20300 24902
1182 20483 24762
7726 91861 15191
7726 82563 20254
1952 6816 25084
4153 7851 25512
346 8057 25598
523 41676 11231
7726 94878 16669
7133 12085 16884
7726 52265 14315
7726 52034 15962
7726 53378 19128
7726 52317 18230
3414 7177 1601
4896 7496 1469
7704 95946 18070
7133 76223 16417
7133 75804 19462
0 25518 12264
0 26174 10609
0 26092 7184
0 25578 13021
0 26096 4538
5994 40406 8119
4103 40637 8456
3653 40152 7748
7133 13315 1701
7133 12869 3327
7133 13478 2381
7562 71644 20363
7492 74880 20576
7303 69513 20223
7708 46783 18728
7411 63472 19826
7133 25009 6254
5799 37786 5151
4769 37213 4661
5611 38213 5517
7946 93055 20960
7733 13113 17075
7133 8931 7171
7133 7764 15233
7133 8572 1610
7133 8730 6211
7133 7247 17223
7133 6869 3951
7133 7275 7204
7133 6868 12685
7133 7463 18059
7133 8850 7660
7133 8874 918
7133 8792 2076
7133 8351 8428
7528 78943 14073
0 1870 15752
0 1982 18555
0 2472 13738
0 3602 4676
0 2141 7756
7726 73533 20283
7133 2831 19352
7133 3143 11422
7133 3724 13473
7133 3144 13129
7133 2233 20361
7133 3804 6639
7133 3357 12490
0 36672 9869
0 35960 8540
0 35652 16377
0 36015 18253
0 36772 7167
0 34718 3753
0 35175 8411
0 36297 8017
7726 37629 11758
7726 36340 11670
7726 35539 11862
7726 35814 15446
7133 11835 14349
1751 25312 4251
5148 25095 4251
4521 41827 14318
2548 41751 14729
241 41885 14008
7726 48753 12954
7726 46706 12903
7726 47329 12318
7726 48137 12401
2292 19487 25301
6294 20073 25059
5391 19591 25258
7086 19058 25479
4438 19882 25137
850 13218 24
489 11797 211
2738 11921 195
428 11058 309
1395 11073 307
8556 13484 10170
7726 36802 14411
7726 38003 12454
7726 36422 17034
7726 36302 15291
7726 82901 21938
3713 27774 3581
7260 12649 7715
7726 55351 14696
7726 56340 18722
7726 54755 16670
2553 12471 26711
5314 11152 26538
7050 13239 26812
2081 13081 26792
7133 24509 20763
7726 47001 18016
7726 46211 15978
7726 47835 17332
7726 47171 15349
7133 28501 17413
7133 11721 19624
7133 60797 13186
7133 67284 13859
0 30074 18490
0 29112 16214
0 30298 23026
0 28946 18597
0 30139 19485
0 28665 5639
0 28428 13154
0 29186 20998
7726 80288 20566
7726 78869 18196
7726 77647 15374
7726 81283 21127
7726 80683 18404
7726 81019 16949
7726 78538 17133
7726 77751 14871
7133 26912 18500
7131 24385 22057
7262 78218 14304
3720 21360 24089
3053 20820 24502
1598 20224 24961
0 11707 25570
0 13147 9576
0 12344 20977
0 12499 19758
0 11589 18990
0 13093 21758
0 11892 15630
0 11068 25990
0 10494 22499
0 12064 24587
0 13233 2174
0 12832 11410
0 11631 18393
0 13086 21078
0 12876 7522
0 12669 22503
0 12486 23846
0 13097 13036
7133 22196 13056
7133 22660 15475
7726 91051 14699
7726 95484 21234
7726 88098 21055
7681 41852 13496
4013 41826 13151
1259 41868 13694
7132 91420 13665
7726 72135 18777
7726 70600 19488
7726 71054 17141
0 32311 8388
0 31999 19644
0 32157 18309
0 31997 18961
0 33147 20100
0 32065 21247
0 31805 14680
0 32233 22731
1291 29923 23796
3791 28173 23470
969 28430 23518
388 30084 23826
7726 46558 13999
7726 47402 18734
7726 46324 17892
7133 28198 9574
7133 1637 15040
7133 1193 11762
7133 929 17634
6184 2459 20993
1158 1799 20133
7726 85676 17111
0 21328 8417
0 21830 11836
0 21504 9163
7133 16320 5148
7133 15939 18158
7133 15733 8124
7133 14439 9322
7133 16572 21934
7133 15003 7932
7133 16811 4781
7133 16859 13293
7133 16450 6802
7133 15352 8814
7133 16488 13743
7133 14930 6884
7133 16875 21145
7133 15182 14272
391 23944 22247
7133 13496 15790
7133 13454 22140
7569 40667 18191
2555 22182 3376
4769 22853 3890
7133 23692 4766
3955 23921 4251
4332 41575 15668
6361 41539 15862
632 41411 16548
7133 23716 12117
7133 14685 3689
7133 14084 3623
7726 89278 19328
7239 35545 17988
7303 29608 17598
0 5624 4334
0 5114 8820
0 5177 6244
0 4890 4875
0 3926 7819
0 4372 12312
0 6214 4922
0 4407 14446
0 4677 5474
0 4164 6448
1839 23317 22697
2329 24596 4251
5176 11584 239
3896 10454 388
1832 10516 380
2587 10714 354
7726 89875 17693
7726 33600 14050
7726 34586 11044
7726 33327 13355
7592 38819 10592
1775 25712 22321
159 27466 23160
4243 26506 22701
2209 26511 22703
7588 11783 18887
1671 7772 25480
4017 7455 25349
1516 7099 25201
3608 6795 25075
7726 60125 18087
7726 60375 13816
7726 60808 15442
7726 60193 18943
7726 94058 14299
0 28281 4443
0 27899 5256
7133 20241 3533
7133 29979 21315
7726 85302 16842
7726 86612 17437
7726 87945 15522
7726 86874 18093
7133 24431 10562
0 4187 19894
0 5563 5515
0 4009 18650
0 4346 16235
0 5673 9453
0 4844 14205
0 5945 7078
7726 61587 15665
7726 62390 15039
7133 23267 21612
7726 59792 14325
7726 59458 13923
7726 58191 14382
7726 59642 17890
3343 27962 23397
6105 26436 22667
5879 37419 21944
6553 36625 22488
7726 77972 18335
7726 77037 15908
7726 80436 21963
7726 76745 21103
7726 79024 19254
7726 80791 21429
7726 78725 19864
7726 76122 19078
5150 40963 17572
6135 40880 17746
6659 40757 18001
7306 52968 19135
7580 44580 18583
7463 55501 19301
7133 13926 21057
7133 15915 25187
7133 15126 19533
7133 13956 24397
7133 14506 10593
7133 15239 25750
7133 13910 23028
7133 16219 23704
7133 13702 26101
7133 14706 15519
7133 14648 12842
0 41037 15243
57 32748 23805
4693 30966 23943
1866 31440 23906
7658 12809 7190
0 1414 15200
0 1433 13987
0 1269 17104
0 1132 12461
7133 30327 16745
7726 32114 12373
7655 84791 13329
7133 26714 17243
7133 36231 4951
7133 40416 9405
7395 77045 14679
4175 41383 10401
6789 40912 9067
3214 41516 10778
2392 41375 10378
7726 33113 10790
0 1664 16581
0 1766 10616
6681 31471 2911
4760 30610 2978
6233 31487 2910
6535 29709 3048
0 40874 10012
0 41251 12622
7263 40221 10749
4763 41391 16654
1548 41413 16538
3820 41587 15608
7726 43753 11952
7726 43407 14557
7726 44331 16792
7726 44406 15455
7726 43817 16966
7590 12868 13201
797 28675 3263
6103 24269 22104
0 23977 5336
2413 15695 26535
2996 13420 26835
211 16189 26470
4797 13507 26823
6433 13719 26795
7726 71589 16621
7726 71972 19597
7726 71381 16064
7133 27651 4167
7726 88529 14294
983 40425 18696
2095 40587 18358
7114 41862 13617
7487 41698 11509
4374 41874 13773
6035 41789 12680
0 3689 20227
0 2294 20247
0 2526 18352
0 3908 10895
0 3637 19148
0 2488 17186
1012 668 17409
5197 1533 19497
3985 1386 19142
715 1429 19246
0 22534 8013
0 22901 13040
0 21788 4411
7726 95335 17571
7726 95292 16253
7726 72230 17056
7726 73541 14568
7726 73467 17121
7133 20775 11748
7133 21236 14279
7133 20947 21344
7133 22149 17991
7133 21635 18092
7133 20895 18737
7133 20618 4376
7133 21912 23580
7133 21905 14672
7133 21039 11260
7133 20884 13071
7726 78988 20847
7726 76172 16895
7726 75919 17948
7726 77480 19455
7726 78550 19278
7726 78080 18782
7726 76384 15962
0 17925 22193
0 17615 25892
0 18923 18632
0 18809 22919
0 19794 25072
0 19514 14130
0 17453 23777
0 19967 11671
0 20009 3529
0 19634 19118
0 19822 4915
7133 31356 9542
7133 38896 10530
7133 34730 6687
7133 35443 6608
7133 34958 8473
7133 32812 6551
7133 31616 6903
7133 37647 9410
7133 34253 6828
7133 36059 7742
7133 36697 8430
7133 31414 5140
1924 32572 2999
6312 32519 2989
4899 40586 18360
7963 93710 15944
0 37015 17437
0 38053 17929
0 37166 10189
0 37582 15573
0 37926 19401
0 37275 18969
7133 22961 5756
2228 27245 23054
770 25723 22326
0 29121 7211
7116 78681 20718
7116 77148 20354
7116 79303 19594
7116 76672 20220
7116 77883 20851
7116 79949 20883
7658 12986 14733
0 20354 9336
0 20802 19894
0 20930 7041
0 21311 14421
0 20586 19402
0 20510 14030
0 20790 18359
0 20279 17482
0 21234 17367
0 20962 21508
0 21216 11850
0 20890 6240
7133 28453 5210
7133 27713 21950
5866 19494 25298
3462 18712 25623
6578 17298 26208
2899 29246 3084
2701 29780 3042
2154 29743 3045
5405 29249 3083
7133 11464 20408
7133 12239 24424
7133 10518 26145
7133 12707 25027
7810 85391 15651
7133 69271 15594
7133 53680 14711
7133 66953 18020
7133 74739 16319
7133 64912 17222
7133 75256 17489
7133 61583 15513
7133 71870 15005
7133 63978 14612
7133 60033 14577
7133 74288 16126
7133 67876 18019
7133 47182 14447
7133 65451 17545
7133 70891 15653
7133 60794 14641
7133 68637 16758
7133 72343 19678
7133 68442 18579
7133 48567 14239
7133 64638 16649
7133 67870 16446
7133 73201 16054
7133 72034 17478
7133 61519 16023
7133 47492 15092
7133 63416 15387
4640 20247 1892
0 23756 15908
5931 14966 203
6582 16285 377
5490 13744 42
4011 13424 0
1488 14075 86
1362 13543 15
5330 27497 3679
7726 93995 18677
0 6638 5934
0 4141 21567
0 5409 23728
0 6263 19628
0 6088 13842
0 6421 14492
7386 78222 21670
6695 35319 23114
6976 35732 22968
5362 35896 22910
3683 35439 23071
7133 43083 17309
7133 43905 18013
7133 58829 19001
7133 44504 17306
7133 45761 17945
7133 58356 18674
7133 57950 19398
7133 52937 18683
7133 55305 18328
7133 56534 18942
7133 71820 20326
7133 13054 19735
1470 30749 23950
6649 28554 23541
7084 28831 23593
5192 23276 4132
7997 84555 20534
4553 35976 22882
5839 35286 23126
1951 10037 26391
3937 10254 26419
4396 9975 26383
2082 14217 26730
2557 14027 26755
399 15602 26547
940 15712 26533
544 14357 26711
1528 15672 26538
7726 41244 16630
7133 64140 19107
7133 43950 16599
7133 60481 18815
7133 42096 15584
7133 61131 18521
7133 44670 15033
7133 49007 16917
7133 42162 14669
7133 56221 16913
7133 45474 16441
7133 51822 16891
7133 42977 15158
7133 66650 19166
7133 61768 18154
7133 53580 17834
7726 87475 21128
3293 36068 4073
2024 35538 3820
4384 36164 4119
7726 64314 19722
7726 63369 19358
7726 62925 17625
7116 95468 14969
7116 91777 15245
7116 95578 16061
7116 94240 16193
7116 95134 16629
7116 94063 14607
7116 92854 18642
7116 94858 15912
7116 93264 13843
7116 89080 15272
7116 95923 14245
7116 93898 17919
7116 93369 17230
7116 91770 18726
7726 90595 16635
449 25398 22189
7133 27978 3683
0 15539 18882
0 15143 20400
0 15328 14839
0 15119 25828
0 14198 23822
0 14157 19044
0 13754 15172
0 14739 21675
0 14619 12404
0 14060 8346
0 14062 22585
0 15682 17617
0 14177 26483
4399 21227 24191
3199 22861 22937
4648 21634 23879
7321 76078 20962
7133 29708 10241
1540 20431 2033
7133 28656 19859
7133 30235 22794
7133 29070 20125
0 39943 14366
0 39580 10906
0 40334 15885
0 40156 11353
2031 15102 221
1675 15674 296
5769 16519 407
3185 16012 341
7133 2897 17663
7133 3217 20480
7133 3489 7624
7133 3189 10039
7133 2527 16301
7133 3753 17372
7133 2304 19747
7133 23339 8016
6790 40083 7649
6873 40630 8446
5799 39676 7054
7133 16793 4187
7133 16017 12529
7133 16335 10903
7133 16444 3847
7133 16388 5755
7133 15737 14830
7133 16681 18674
7133 15221 10805
7133 15341 11527
7133 14534 8134
7133 15946 18982
7133 15150 9297
7133 15735 7245
7133 14864 5479
7133 14927 6183
7643 77670 21488
6686 874 8926
6443 1636 7089
4774 1483 7458
643 1791 6713
6727 1123 8327
7726 86940 21012
0 41022 13446
7133 26401 5298
7133 26370 6125
7344 62859 13291
7495 72673 14393
7288 56725 12602
7306 63997 13419
7726 43098 13138
8232 13106 13687
8355 13045 14753
1448 21661 2976
6079 21837 3111
7542 34931 10155
7532 36224 10300
4671 17485 703
6162 17076 534
6996 17029 515
0 20239 1895
7726 66250 17661
7726 65206 17333
7726 65501 15782
7726 94543 19705
7133 22338 4527
7133 22172 5869
7133 22066 6883
7133 22435 7820
7726 92106 16607
7726 85900 14477
0 34517 10166
0 34939 12100
0 35551 21093
0 34166 14920
0 35498 16907
0 34457 11765
0 35020 16491
0 34592 12545
0 34116 22509
0 34922 21926
0 34846 7582
7133 2823 10514
7133 1939 13134
7133 1871 17113
7810 84647 14412
7133 23597 15219
4314 21199 2622
7726 57575 17682
7726 57892 18833
7726 58581 18772
7726 58178 17355
7726 92991 16976
8399 13431 7938
7133 25080 8834
5024 26204 4082
7726 55847 16304
7726 56668 15216
7726 56872 13741
7726 55394 13104
7133 27220 22730
7133 27301 21622
8556 13422 9089
7726 64590 17499
7726 62864 13574
7726 64740 18256
7726 64456 13922
0 8955 23737
0 7401 22202
0 9840 25094
0 8366 19596
0 9717 2932
0 9044 9990
0 9531 21174
0 7894 23496
0 9855 5270
0 9853 11727
0 9340 18194
0 9912 10331
0 9117 9163
0 8228 20168
0 9305 19268
0 7773 23010
0 8749 11148
7726 89127 18044
7133 25148 4353
7658 13063 12084
7133 22311 9792
7133 22538 3983
7726 82865 15826
7726 81803 17513
7726 82801 16947
7116 81726 14368
7116 81425 15710
7116 78073 15555
7116 78513 14755
7116 79384 18715
7116 77740 15081
7116 81654 21408
7116 78085 16177
7726 74511 16538
7726 75050 14888
7726 74477 17920
7726 75298 15280
7726 94841 21252
1561 25164 22101
5611 23391 22661
35 24935 22027
6335 11470 26580
3633 12866 26763
1561 13024 26784
4433 11781 26621
3875 12019 26652
7133 30301 7551
7133 30809 4432
7133 29897 8527
7726 91572 21074
7133 5001 10932
7133 4873 13833
7133 5029 3413
7133 4671 6427
7133 4748 5908
7133 5792 4758
7133 4619 7573
7133 4654 11928
7133 23637 12760
7726 60441 14480
7726 60564 17058
7243 31842 12762
1539 334 15991
3567 382 16355
2156 331 15965
456 59 13899
1119 295 15694
1225 163 14687
6813 7642 25426
6518 7967 25561
4462 8659 25847
1999 9152 26052
0 30514 18992
0 30890 9672
0 30230 13963
0 30973 18275
0 31449 4259
0 30412 8222
0 30329 4305
0 30733 15931
0 31366 13078
0 30746 19800
7133 30892 11402
6954 25477 22220
4214 25318 22159
2490 263 11389
859 393 10400
918 210 11786
4120 34 13126
997 296 11138
7726 50417 16874
7726 48842 17784
7726 48891 15920
7726 50256 18303
8404 12839 18410
7710 13250 11139
7133 34136 23406
1834 36165 22804
483 38205 21405
2596 36490 22581
311 37739 21725
7864 84091 20476
7192 12706 16011
0 21407 22577
0 20444 20273
0 20560 12543
0 20607 10966
0 22556 20811
0 21066 23587
0 22335 21353
0 20341 23126
0 21980 18780
0 21404 10481
7726 88603 18586
0 33015 3493
0 33748 9754
0 34083 3786
0 34438 4998
0 33296 15767
0 32426 7710
0 33302 13322
0 33655 7245
7983 89087 15349
7660 48430 11671
7233 42168 10968
7116 77596 17535
7116 76311 17330
7116 76794 15559
7116 78576 19360
7137 83667 22720
7233 86215 22565
7777 90463 20041
1221 18796 25587
1580 17666 26056
1659 17114 26285
2965 18740 25611
2994 13976 72
4898 15493 272
2519 14057 83
2071 13658 31
2865 14445 134
7133 13590 5483
7133 13888 6837
106 12524 116
4668 13076 43
2146 11127 300
7133 35736 5756
7133 35106 4683
426 5419 2783
1731 6468 1978
3476 6558 1909
1006 5276 2893
4737 6112 2251
4868 6541 1922
4049 5701 24267
2905 5937 24448
4974 5394 24032
3700 6358 24772
6209 4408 23275
7726 91018 19259
7726 91144 16735
7133 22446 17072
7726 85487 14236
7726 88995 14034
7726 87206 14246
1068 40277 7932
4230 39330 6550
1830 39751 7163
2953 39708 7100
7116 86332 18812
7116 83431 21040
7116 86028 20596
7116 83585 21796
7116 94095 20958
7116 84390 21658
7116 82690 19104
7116 84464 19886
7116 83033 20410
7116 85977 17611
7116 86615 18402
7116 88989 20089
7116 84590 20535
7116 91394 22146
7116 87730 21798
7116 89832 20320
7116 83414 14885
7116 82235 17562
7116 89263 20681
7116 92452 20892
7116 82102 15407
7116 86037 19672
7116 85430 16660
7116 83267 16056
0 37846 12671
0 37625 9502
0 38530 7255
0 38044 7018
0 38082 11106
0 38894 8027
0 38196 17504
7767 84822 16758
7726 57108 15096
7116 90590 21325
7116 93750 22024
7116 88557 19240
7116 87536 20822
7116 84656 18482
7116 84850 16550
7116 83168 22715
7116 90566 19415
7116 88919 22369
7116 85172 19738
7116 88286 17672
7116 85310 18915
7116 87940 20506
7116 85747 22285
7116 86435 21500
7116 83656 18120
7116 86792 20859
7116 82759 17950
7116 92714 21870
7116 82725 14068
7116 89158 18315
7116 84939 15442
0 22997 17870
7133 21772 9184
6488 3304 4739
2805 3099 5006
288 3916 3941
1320 3593 4363
6204 3709 4212
3755 3725 4190
7478 65621 19967
7573 59323 19553
7472 62661 19772
7640 60521 19631
7726 87205 16021
7726 85874 18240
7726 85933 17759
7726 73923 19137
3372 23863 4251
7726 84664 17473
7726 72325 15599
7133 23822 5209
0 27347 4184
0 27097 7540
0 27811 18871
7133 26879 6592
7323 13883 9472
7337 78767 21850
0 34432 16998
0 34545 18377
0 35076 20155
0 34993 15716
0 35831 22831
0 34386 22059
0 34963 21377
0 34931 17786
0 34348 10930
7726 32478 14793
7133 26916 8052
2233 39389 6635
1206 39209 6373
483 40157 7756
765 39497 6793
7116 90907 18615
7116 92536 19626
7116 87502 16137
7133 23010 12960
7726 49291 18543
7726 49590 17880
7726 49588 14489
7726 45080 15427
7726 45235 13354
7133 20011 2393
7133 16906 16429
7133 16969 8276
7133 18159 16437
7133 18331 1950
7133 17021 6103
7133 18947 4575
7133 17463 9541
7133 19210 5262
7133 18244 12281
7133 17076 19485
7133 18604 2781
7133 18458 13163
7777 94352 21066
7133 11531 14804
7133 11752 12780
7133 24529 6103
8258 12889 17520
0 23799 21048
0 23666 22296
7133 23239 20154
7726 56252 13342
7726 56397 14421
7133 18455 21532
7133 19847 10659
7133 19409 19989
7133 17676 24302
7133 18642 16273
7133 19428 14831
7133 19465 8212
7133 19121 20786
7133 19407 9037
7133 18263 18843
7726 42121 11093
6196 20590 2155
1385 30117 3016
5119 31572 2903
3863 31258 2928
7133 41318 10517
1191 23459 22626
7495 34988 17952
7508 37868 18141
7133 10897 19330
7133 11565 13307
0 7969 20765
0 8481 22593
0 8966 25130
0 9253 22248
0 9747 22657
0 9667 9553
0 7023 24660
0 9732 16516
0 8862 17472
0 8357 13063
0 8688 14333
0 8912 16285
0 8013 17875
0 9400 23453
0 22143 13730
7064 3663 4271
4851 3897 3967
7726 83837 19014
7133 7598 5095
7133 7013 14142
7133 7290 4170
7133 7557 11566
7133 6973 2985
7133 8453 2620
7133 8446 5455
7133 7367 6365
7133 6901 20756
7133 8214 4473
7133 7761 3106
7133 7142 1754
0 27699 11744
0 27814 16921
0 27545 7075
2469 668 17409
2979 508 17022
6249 832 17806
4974 584 17210
7133 23410 20813
7133 17499 12512
7133 18216 4149
7133 17181 15213
7133 16954 9641
7133 18880 5571
7133 19197 7643
7133 18141 1486
7133 18402 8131
7133 19210 2003
7133 17856 5759
7133 18324 11083
7133 18851 3917
7133 17820 8646
7133 18877 6981
7133 16999 7346
7133 18235 11818
1391 124 12444
304 237 11586
2994 146 12278
7726 75786 15386
7346 32481 17787
7726 92320 18203
2025 26597 3997
6098 26752 3942
0 25971 5769
0 26346 8169
7133 21446 8306
0 10517 24569
0 11514 24773
0 13073 4086
0 12010 11174
0 11385 22059
0 11442 15172
0 12153 11645
0 12813 25115
0 13202 14712
0 12905 12007
0 11652 16462
0 11065 23313
0 12666 10502
0 11520 20167
0 10962 21163
7133 30427 23882
7133 30196 23423
7133 11061 936
7133 13050 1110
7133 11869 5065
7133 12054 2229
7133 27069 17669
7726 52746 17059
7726 52557 16152
7726 53049 17396
7133 21830 11371
7869 84965 21410
7726 40013 12758
7726 40576 11664
7726 40709 13586
7726 38779 11291
3601 41007 9335
2337 41075 9527
1080 41209 9908
5771 25695 4187
6164 26059 4112
1956 39396 20110
1159 39457 20038
7726 41100 18284
5346 35473 3789
6306 34694 3416
921 237 15250
1206 396 16460
2718 273 15520
3580 24946 22027
0 17837 15443
0 17789 17160
0 18904 2944
0 17972 9099
0 17570 20741
0 18200 1278
0 17674 19779
0 20030 2430
0 17479 20253
0 17139 1547
0 17885 12094
0 18710 5827
0 18141 2181
0 18221 3126
0 19050 4214
7133 26367 8413
0 860 9097
7726 62258 14520
7726 61800 18108
7726 61408 14184
7585 13505 6938
7726 66912 19911
7726 85183 21946
2519 1288 7929
2990 984 8663
2194 497 9837
157 1024 8566
2250 28254 23485
4303 28515 23534
1649 29136 23649
2596 29450 23708
222 29157 3094
6888 21780 3068
4221 22259 3435
5171 40279 19002
1371 40262 19037
0 39472 17205
0 39297 13118
0 39227 10449
0 39375 11964
189 9762 530
1966 9062 820
2178 7902 1300
5209 9135 790
1777 8200 1177
6533 26478 4025
7133 25054 21180
7810 83839 15337
0 884 11682
0 1391 9137
7726 67412 16553
7726 66574 15210
7726 67541 16988
7726 41468 12181
7658 13469 15460
7726 70630 18074
7726 70500 14807
7726 70554 18957
7133 9514 24144
7133 8510 25741
7133 9447 14585
7133 9828 16900
7133 9822 7799
7133 9652 4247
7133 8728 20124
7133 9726 5294
7133 7670 22598
7133 6966 24243
7133 8080 21633
7133 9355 6873
7133 9724 9348
7133 9249 23322
7133 9578 12962
7133 25551 19063
7133 62738 19241
7133 67746 20067
7133 53614 18874
7133 42156 17790
7133 43273 18160
7133 46389 18625
7133 49093 17879
7133 48526 18809
7133 43622 17544
7133 59928 18878
7726 68514 15571
7726 67831 15943
7726 68815 18508
7726 68690 16880
7133 13887 10920
7133 13514 19964
3955 15189 26602
947 16805 26389
3837 16524 26426
2247 16274 26459
7726 90308 18627
7726 67781 18134
7726 69763 19174
0 38163 8686
0 38352 12941
0 37565 5356
0 37725 10752
0 38073 14307
7133 12666 8933
7726 32944 15639
5616 3908 22882
4007 3117 21852
1254 2569 21138
3336 3072 21794
330 3713 22628
2441 20712 2249
3913 5537 2692
819 6609 1870
18 5159 2982
292 6045 2303
7540 60975 13080
7460 45043 11290
7274 48045 11628
7667 45698 11364
1149 38389 5667
4737 39010 6199
4439 38636 5879
7133 25182 21927
6900 41683 11309
904 41769 12421
2920 41693 11443
7726 92183 20949
1449 18959 1314
2927 19837 1678
1723 19549 1558
1149 18284 1034
7726 87360 20647
3205 277 11280
5739 443 10016
0 25174 14191
7726 41403 13168
3953 29162 3092
7543 88136 22448
7521 93294 22134
7133 31057 18347
7133 32195 22262
7133 34773 18190
7133 32891 19347
7133 36348 20280
7133 34531 20777
7133 30876 17833
7133 33441 19136
7133 30777 20819
7133 31474 20062
7133 31246 22806
2985 692 17467
4016 1152 18578
6529 1579 19608
5950 1399 19175
5534 1037 18301
0 38845 16950
0 38592 20115
0 39141 15429
0 39191 7383
4203 37055 22194
1451 37568 21842
126 36719 22424
7133 1078 9452
7726 95123 15668
7726 95900 20931
7726 81763 22656
7726 81900 18513
7726 82693 13737
7726 82273 14717
