ply
format ascii 1.0
element vertex 2754
property float x
property float y
property float z
end_header
24265 9027 36474
24149 5470 41089
22939 8785 36613
32284 9353 33516
35144 6597 35805
34565 7558 34685
15984 37483 26747
27318 39674 30002
25503 63678 22832
16401 37483 22114
34132 30198 30458
33494 33784 31289
33337 23467 31495
33053 26820 31865
33221 25886 31647
5860 184 37123
11292 4444 35172
8375 556 39613
7642 407 38974
8109 1987 36233
9180 1115 39476
27333 2557 5933
27414 3315 6930
27829 5973 10444
26482 2134 5272
27456 7353 12192
30605 71 3128
38633 0 21765
30150 0 12830
37307 0 20620
35614 0 18987
45512 0 26335
37923 0 20453
44354 0 23708
34466 0 15387
43628 0 23226
39935 0 21424
46740 0 26167
33489 59327 35549
37903 54910 37580
36200 56064 37600
43600 47669 42449
35123 57580 36462
43014 48965 41143
41192 50650 40506
42203 50150 40225
31065 63370 32072
33977 59293 35111
32667 61859 32675
42037 50749 39518
40351 52086 39253
39473 52833 39041
14906 47309 13428
40660 55995 31534
16418 32841 20258
15660 14701 22088
15797 15086 21757
16392 13278 20320
28576 39624 29193
24842 68954 22861
24089 41123 29548
15731 0 45334
21448 39937 28658
23543 37483 13789
35370 28724 24335
35392 18381 24505
35319 24576 23952
35401 26770 24575
9530 0 38078
8056 0 36862
10691 0 39489
25940 47851 27772
6254 47309 42250
23934 67812 21293
21086 60929 14703
31491 30981 33354
31903 26814 33038
32440 17034 32626
31653 35144 33230
31664 20171 33222
41516 4319 19488
43391 2484 17831
39213 5692 18560
45342 144 14646
43402 1887 15838
41661 3337 16527
31812 37483 32057
19805 37483 32561
18715 47309 17796
16762 37483 31375
27509 60022 24179
25402 54284 27860
15893 47309 9403
22589 47309 11561
15616 47309 3039
12749 47309 6505
30040 47309 20248
27252 47309 17640
22459 47309 13921
31481 47309 21614
33614 47309 21085
34337 47309 23302
15645 47309 2060
21666 47309 12152
16520 47309 3828
32371 47309 20091
19104 47309 5952
18537 47309 10712
16155 47309 5696
28743 47309 19258
27723 64393 25943
10256 5012 18901
11120 5646 18952
5937 1432 17255
15050 9539 22596
11223 5885 19510
12058 6872 20823
26860 67328 27322
29932 37483 18246
22513 40376 29581
23327 43725 26949
23645 68958 27960
17728 37483 25443
21983 37483 29375
28150 35845 13771
17524 3700 41658
18381 3715 41992
18214 4750 40478
17512 1472 44767
19621 5452 40080
18001 3358 42334
20953 35249 36442
24101 35249 16323
24614 35249 16407
30935 35249 33834
28679 53336 6380
27722 62302 15701
29654 55868 9346
32960 48136 1972
31054 56070 9937
31798 49573 3196
28950 49408 2257
30028 49376 2511
28812 57217 10561
29264 59485 13105
30366 51457 4825
28528 51189 4046
27812 64388 17953
15909 37058 20020
17579 47309 43421
20531 47309 46502
4629 47309 33070
20752 47309 45849
28417 47309 50676
14389 47309 40014
16160 47309 44927
21593 47309 46707
11798 47309 39456
23124 37483 37115
22830 49603 25917
11629 47309 8037
22840 35249 13869
28534 21402 15725
29362 19377 16067
28654 23671 15774
29329 20651 16054
28545 41123 26626
34704 34111 21613
34981 15433 22282
35148 20878 22687
34894 29000 22072
34561 35249 32217
35674 36989 22632
28455 47309 28901
25395 8976 14033
25598 7748 12462
12077 58411 20668
6695 52877 18693
2786 48872 17315
5283 52274 21563
13452 59826 21181
314 47522 21161
2626 48605 16850
5607 51727 18172
13574 60291 22578
516 47461 20163
14810 61468 22656
8578 55720 23001
13899 35249 20930
17049 15049 31267
18042 32719 32560
17274 19502 31560
17655 21079 32057
16862 12429 31024
13018 36995 22386
26438 37715 30265
29637 35249 36477
38982 0 29730
42867 0 29717
31822 0 19279
22505 0 12758
42577 0 31951
44948 0 34815
40492 0 30120
32863 0 23207
39566 0 25912
40321 0 31457
24586 0 15065
43902 0 32287
42280 0 29116
41737 0 32547
25291 0 15550
3916 1203 25968
8381 4438 27899
9338 5173 27903
12404 7544 27751
10334 5913 28151
5342 2069 28238
13197 47309 18979
34800 47309 40888
24539 47309 34483
19449 47309 24918
36884 47309 44804
33569 47309 41883
34046 47309 46814
17511 47309 23897
26438 47309 36283
31031 47309 42500
17519 47309 22546
26569 47309 33824
16118 47309 23605
32149 47309 37399
20604 47309 29642
37019 47309 45628
28248 47309 37403
37606 47309 46056
38590 47309 44151
16381 37483 18572
6921 0 38716
20212 37483 24345
31865 35249 26344
30294 35249 24868
33661 35249 26968
30611 12594 16662
30797 23329 16805
30966 24379 16935
30969 26319 16937
31254 16527 17155
37566 8048 27255
39996 6045 28596
23888 45999 27445
24306 35249 25488
28977 35249 29468
17564 35249 20698
22699 35249 23149
16045 24352 29532
15901 18791 29187
16412 12328 30419
15872 17068 29115
24335 43692 22997
33613 9495 18857
39963 4438 16413
40954 3634 16000
22503 0 43251
17322 0 36734
30016 0 47029
10352 0 27701
22137 0 41626
21251 0 40171
29161 0 47435
6678 0 23728
18913 0 35787
20488 0 38224
7712 0 24819
19090 0 38924
24084 37483 18780
20656 39448 27440
17304 29513 19093
17350 28888 19032
17076 21416 19390
17553 28521 18768
18984 35249 28481
21375 35249 31332
30331 38503 25815
7078 47309 31649
22863 47309 45193
11337 47309 36332
8110 47309 34790
9766 47309 34562
474 47309 27229
5389 47309 31271
16257 47309 39036
10646 47309 36566
3177 47309 26295
6071 47309 31193
5020 47309 29709
30339 47309 1032
31938 47309 2044
43781 47309 10662
33642 47309 1656
14032 37483 25937
35253 35249 22749
44975 1467 32471
39763 5331 32020
44957 1206 33392
36766 8322 29169
41265 3903 33214
19989 36583 16259
31877 35249 35376
34115 0 4539
15238 36825 22631
26737 47467 27408
24463 22117 15232
23708 16686 15331
24670 17242 15204
24433 13900 15236
25109 22849 15146
36475 8089 30662
39525 5238 32910
25579 37483 35275
29361 47309 29796
29150 47309 28364
28492 35249 29264
19555 35249 22382
26426 35249 27167
25514 35617 13347
10895 6277 21883
12759 7808 22859
19654 66122 23130
13918 60158 20762
29318 41123 24326
14975 37483 23779
21405 37483 29471
23827 29888 15315
23556 19018 15351
22662 14530 15469
24352 30711 15246
35101 47309 27577
36386 47309 31319
35013 47309 29655
44431 47309 38144
35014 47309 28766
42295 47309 37433
45959 47309 36196
35184 47309 26233
35751 47309 28241
43800 47309 32083
43491 47309 38292
34122 47309 27789
44336 47309 36299
41264 47309 35942
37034 47309 26634
32896 47309 26190
35683 47309 28886
38819 47309 29030
32355 47309 25394
44208 47309 33324
35841 36058 32416
19215 37483 27813
18492 37483 27884
15264 22392 23784
15389 21085 22831
15344 22500 23173
15316 11413 23383
15400 28253 22747
13279 7502 30690
11106 5668 31633
6913 1676 34971
11991 6525 30875
7103 2798 31643
27250 6795 39253
26538 8243 37462
27831 7867 37781
11936 0 43187
10582 0 41189
22062 56638 9859
20235 53437 6928
20966 54323 7679
21526 50055 2970
18428 47611 1190
21025 55570 8996
19939 48223 1438
21653 56026 9314
21639 51833 4839
22190 62139 15699
17597 49599 3536
21955 54128 7206
23271 62172 15445
37086 37483 22878
29325 37483 33183
19199 35322 36541
32167 25929 32836
32169 15604 32834
32359 32884 32689
16280 18172 20590
16336 26353 20456
15821 16334 21698
15933 13958 21428
43938 53493 21419
42796 54818 22438
50052 47580 20661
50327 47629 21887
42364 54218 18436
47686 49685 20230
46542 51184 21935
46021 51392 20818
48262 49435 21382
38341 59064 22740
30818 66322 23599
47174 50216 20429
43866 52836 18533
40213 56761 20546
36919 35249 24406
24137 39258 30269
28185 41123 27328
27848 35378 12893
34294 35249 20677
21175 36636 13320
21562 1709 5049
22422 4269 8268
21282 121 3019
21780 2283 5767
21212 1354 4632
24368 7740 12530
20402 0 43211
18488 0 40319
8273 0 29151
8821 0 27389
19402 0 41293
14548 0 35706
12101 0 32377
11313 0 33012
7095 0 26017
15130 14646 24795
15385 15403 22862
15404 23579 22717
15227 16486 24061
15311 25526 23427
25073 41123 28005
25898 10099 15205
26165 14327 15241
26239 25795 15250
25919 28139 15208
35596 35571 25334
36456 52955 9173
35574 53948 9847
37603 51982 8677
37206 48785 4638
36600 49542 5191
34959 55529 11377
32614 56509 11191
32552 55897 10425
36283 47521 2600
33707 52339 6853
37417 47807 3595
31825 58113 12647
36039 53404 9468
17372 4244 40837
18522 518 46518
16673 2850 42494
14483 632 44685
16928 1151 44973
20436 24943 16383
21356 33620 16002
20746 33818 16254
21079 27511 16116
21548 28563 15922
27783 32764 35238
27795 21422 35237
26815 33590 35366
27832 22746 35232
13728 37483 30123
30450 35249 19630
32542 35249 21731
41563 0 11843
36590 0 8064
42676 0 12892
29969 37483 34919
530 47309 28106
4432 47309 31824
509 47309 25086
3240 47309 28959
1874 47309 25493
21966 47309 44891
18179 47309 42717
7814 47309 32872
26391 37483 13747
23959 35249 19659
32578 35249 27985
34813 35249 27826
36613 36733 31127
27151 66384 27030
26027 35249 22599
22981 35249 19307
27362 35249 25186
19898 35249 18801
13047 37483 26625
29103 41123 25562
34696 60488 18044
36741 57950 16387
14993 35710 25337
37631 7689 21472
36551 8459 21460
15553 37085 19564
29787 47309 26275
37158 35249 29765
35460 4554 38885
38581 1387 41641
31126 8937 35081
35960 1481 43500
31758 8604 35138
35925 1925 42804
30866 37337 15347
4255 51567 22634
13384 58515 32455
6563 50267 37658
14405 58985 33253
12995 57456 33967
6827 50876 36861
17580 63043 30377
7481 51197 37331
8647 54467 32602
10221 54297 35679
9801 54665 34192
9210 53875 34798
7071 51724 35532
12220 56818 33938
33596 0 21763
21387 0 11813
45546 0 30327
39022 0 26135
44598 0 29432
47056 0 32026
43346 0 31592
31731 0 20623
39762 0 26833
42878 0 34471
30365 0 21370
38068 0 26037
19571 0 10493
36818 0 23416
15506 47309 20172
26505 47309 30770
20922 47309 24834
25910 50125 22912
19431 57370 39333
22421 37483 19332
41946 54594 18408
6392 3133 25687
12300 7514 27244
12056 7489 25651
17985 36154 18066
16049 57288 13214
23492 37483 34666
17971 35638 32636
8938 2783 35625
11312 4798 34449
11921 5572 33601
12971 0 13889
28493 0 30988
13697 0 18790
22925 0 26584
32599 0 32716
16816 0 21637
7472 0 15399
16555 0 16647
37143 0 37475
9677 0 13648
8591 0 12466
17264 0 20289
29648 0 31017
12236 0 14874
15824 0 17286
12053 0 13019
24628 0 28238
27763 41123 26573
20333 35842 13668
23446 37355 37896
21018 35249 29348
17057 35249 26783
25227 1887 45895
23635 6606 39542
24486 3195 44093
23128 66679 26647
30455 35591 36929
17749 35249 31482
15210 0 22293
28959 0 35446
17632 0 25839
31349 0 35119
33820 0 39696
22595 0 29112
32285 0 36694
19537 0 25354
31079 0 33751
37894 0 43032
32549 0 34824
35485 0 42946
26997 0 35392
27509 0 31560
13303 0 20664
18471 0 25394
33473 0 38348
16459 9049 18547
12629 4249 13364
14058 6406 16072
14926 9359 28407
14125 8534 29255
24685 41123 22357
12824 59818 27200
19908 35249 31976
17555 36423 33222
22766 58423 25579
24162 64617 32874
23275 59684 37905
21626 4686 8915
23753 9348 14703
17861 62748 31347
22581 68472 27713
33843 6080 13049
32633 8350 15814
30928 9422 16249
27375 55287 26746
17975 37483 23191
25591 41123 22449
35330 36537 28064
20715 37570 23150
24739 25535 35497
24978 23361 35528
24129 12733 35416
25120 17341 35547
33177 36330 17248
37026 7911 20761
40460 5249 20077
25247 36229 14871
15271 36360 19756
26460 41123 28153
6601 3260 24686
5218 1898 21708
13496 8582 24906
4166 1014 20963
5280 1833 20598
2931 225 22537
23930 37483 36527
38666 5958 32556
31377 35249 18466
27114 38044 20608
22715 4967 41554
24094 2665 44733
21246 4153 42421
22657 5324 41082
23132 3160 43961
20293 903 46525
35527 36496 19166
22864 54381 26042
31593 64346 30092
28333 36071 14489
22409 36782 13760
26261 66693 20000
20548 37483 33973
43903 47309 8593
47871 47309 13812
17597 6478 37671
16906 5293 39067
17886 7403 36387
12893 35256 25631
27201 56565 26981
25402 50192 47789
25009 51362 46583
25959 49258 48754
24758 53430 44448
23600 56678 41098
27062 49709 48288
23913 54196 43659
23480 49545 48457
25237 64742 32778
25456 52101 45820
26537 51927 46000
25476 54998 42831
26915 47322 50751
27545 51360 46584
26311 40952 30299
43626 0 28298
31142 0 16094
18968 0 5389
29889 0 16779
37439 0 21707
25157 0 12371
20494 0 10206
39141 0 23058
38614 0 23857
40755 0 24928
25194 0 10003
20659 0 4934
21326 0 8828
26420 0 13921
25983 37483 18971
48732 47309 20902
41695 47309 18061
31026 47309 6939
26278 47309 4060
47644 47309 21909
44656 47309 20754
40271 47309 15482
39769 47309 15876
36669 47309 13612
45274 47309 21439
43894 47309 18444
46211 47309 19803
33582 35970 34962
18633 36514 14491
33331 37483 30899
5647 0 14399
7172 0 22116
13895 0 27431
11439 0 23712
9006 0 22106
30799 0 39789
11639 0 22174
12880 0 23794
9187 0 18951
5949 0 15140
17220 0 26484
8735 0 23671
8142 0 20833
11125 0 25426
7045 0 16855
14487 0 25387
35271 37483 32442
33985 37483 31992
18884 64254 20554
33843 37483 22814
28007 37483 17499
27941 0 23302
27521 0 22521
19481 0 16514
13824 0 6125
20687 0 15986
16579 0 9547
29175 0 23313
34053 0 27770
23059 0 17082
24207 0 18500
18165 0 10780
20381 0 14912
26534 0 19970
35967 0 28833
15185 0 9378
30884 35249 16068
24129 50533 47438
24560 66537 30926
26887 54797 43038
25164 54611 43231
22496 50889 47071
24299 48289 49753
24051 52160 45759
26216 60628 37022
24528 62450 35142
23868 55767 42038
25041 52311 45604
26903 52591 45314
23618 47986 50066
33957 36380 16231
15484 37440 33412
20949 35249 25840
16826 35249 21260
25824 35249 30555
1554 47309 17489
202 47309 21903
1765 47309 16533
10984 47309 29256
18967 47309 36178
6341 47309 23945
15261 47309 31575
28210 47309 43720
13399 47309 29445
11392 47309 29712
9767 47309 29176
4255 47309 21765
3448 47309 18118
7773 47309 24034
14096 47309 30305
13233 47309 30215
24020 47151 23171
19348 35249 16696
29822 18777 34434
30008 33122 34357
29931 23981 34389
30103 32493 34318
15081 11965 25525
15385 34100 27833
15267 28387 26937
15128 20014 25879
27033 69508 26419
15913 28000 21477
16258 33186 20645
15562 17907 22325
15407 31503 22700
36209 3798 11152
34681 5927 13443
39570 1633 10209
37029 2268 9294
38651 1604 9457
25994 41123 28383
23989 52242 5018
24038 55983 8878
26079 65294 18484
22540 48073 716
23099 49976 2679
24798 63946 17093
24433 55402 8278
25113 61899 14981
28546 47744 377
25641 65575 18774
26570 58795 11778
25471 62317 15413
22849 18817 35248
24761 31049 35500
23756 25297 35367
24150 27863 35419
24228 26086 35429
22551 0 7047
30970 0 16572
21188 0 5361
23196 0 10943
19169 0 6514
32997 0 19974
16607 0 7419
18122 0 5250
21112 0 7944
40165 0 24459
34652 0 20237
10295 6041 26586
25748 61431 27823
35576 35959 22526
23345 66360 23725
23096 41123 29048
12941 37483 27205
41225 47309 6182
16902 36558 34072
34922 27615 28553
34745 26915 28980
34606 31451 29317
34738 33871 28999
21341 35249 37116
14091 47309 14000
13480 47309 15617
9215 47309 6019
11460 47309 11455
11777 47309 10578
15851 47309 19191
20648 47309 23885
10775 47309 9037
8857 47309 12645
18437 47309 19706
17286 47309 18166
15777 31794 28886
15477 13666 28163
15633 17452 28539
15811 20809 28968
31986 37483 33991
6276 47309 41662
9945 47309 43629
17451 33250 31791
16442 14869 30476
16750 30618 30877
16852 35071 31010
16880 18815 31047
35073 35249 18097
26799 66255 23320
23380 28349 35318
23802 22284 35373
23317 24109 35310
24879 32154 35515
21384 40305 22099
31849 35249 21184
26338 68425 21870
20240 38361 26054
6633 51068 14563
4139 49431 15506
13551 59406 19786
17603 63847 21934
4696 48936 13521
13239 58193 17825
13060 59007 19816
2991 48735 16057
9426 54755 17333
13553 58651 18226
11631 56027 16141
12528 56998 16590
30192 59832 13751
29198 62558 16426
18971 56658 10776
15528 53460 8955
14601 53184 9161
14118 51846 7846
12915 47810 3731
23883 68567 22129
10904 47616 4662
20534 62246 16532
18661 55334 9378
15019 50252 5426
10096 47509 5000
17625 58384 13610
14107 49500 5056
20296 40420 24429
16359 5778 37860
17828 7963 35432
14914 2119 42703
16742 55857 39583
18205 60226 35223
15866 48505 47836
17443 54070 42117
13784 51562 42993
19712 60038 36317
11894 48073 46058
14244 54301 39995
14285 51739 43071
14086 49741 45335
11782 50336 43296
21643 64707 31869
13908 49010 46105
14833 54456 40150
34663 26302 21513
34360 29999 20781
34883 34481 22047
23873 35249 36613
27690 45244 24627
25155 37483 17774
31563 37483 24122
27258 4757 8787
27490 277 2986
27600 6757 11436
28749 2885 6547
28835 4249 8334
25080 35691 37090
35460 25107 25676
35492 32411 25426
35349 32714 26519
15258 11871 26868
15364 22159 27668
15278 16492 27015
15205 16356 26463
19792 35490 35109
17767 34912 18490
17249 25099 19164
16727 16274 19844
17080 32944 19385
43766 47309 12192
44730 47309 13063
36243 47309 5972
41510 47309 12073
46542 47309 16474
45902 47309 17031
46579 47309 17638
13914 6840 17184
10683 2383 11944
13308 6554 17367
9575 3743 16271
8340 350 10687
22725 35249 22344
27226 35249 26596
29921 35249 27714
29421 35249 28981
35330 35249 22130
39719 4155 35199
41081 1214 39660
40818 3415 35333
43898 769 36930
36909 6234 34455
37455 5914 34421
16378 19847 30337
15949 15449 29302
15948 22544 29300
16200 16718 29908
26484 37483 31829
20563 9094 15307
18786 7575 13924
13229 35249 26016
7397 47309 22687
25021 47309 40343
9516 47309 27338
15241 47309 30473
16913 47309 34983
15498 47309 32342
12511 47309 27282
19825 47309 37202
33797 47309 48019
3134 47309 23613
24985 47309 41181
2407 47309 22007
12338 47309 27771
35972 35249 26430
24364 47950 22989
29193 0 12559
46852 0 27185
41853 0 24455
45910 0 24405
46486 0 25445
40693 0 23906
30247 0 13949
43584 0 22464
46745 0 24752
42077 0 25213
37666 0 19764
26118 37483 18016
25769 37483 17093
5188 51899 20422
10054 56595 20980
11454 57714 20215
10719 57676 22811
11626 58214 21569
10701 57112 20628
20121 66851 24295
15704 62337 22783
13121 59770 22192
3802 50845 21390
13839 60307 21649
6348 52782 19607
16454 63267 23690
17362 64197 24013
35643 7387 17031
40732 2939 14236
38928 2912 11828
38572 3715 13067
43210 411 12106
35773 7059 16506
17075 16059 19391
16996 18180 19494
16914 14382 19601
17346 13723 19038
18931 18762 17443
19171 21599 17259
19607 11876 16924
19433 14217 17058
18628 16098 17676
21091 66920 22233
29197 9418 35263
30979 6744 38259
26346 65484 23058
32342 37483 21255
33595 37483 21938
15075 20086 25218
15169 29705 24505
15135 22379 24761
15109 24100 24959
28191 36478 13455
13849 35405 30889
17348 14090 31657
17846 31429 32305
17853 19647 32315
17397 15569 31720
33333 36673 33647
7462 2761 32635
8490 3559 32427
11875 6103 32022
7778 2702 33598
28687 14827 34904
27938 33508 35215
27996 15346 35191
28459 20596 34999
25211 35706 14601
26693 37483 35627
18227 37483 27417
21885 37483 19625
19982 0 44218
5480 0 30728
5842 0 32603
14149 0 37641
10530 0 33955
20793 0 44461
6994 0 30388
14755 0 38094
29191 25203 15996
29270 26989 16029
28984 29132 15911
30366 30973 16483
28778 30086 15826
40981 0 17378
40203 0 15496
35656 0 12422
45701 0 19633
44211 0 19597
34203 0 10683
29483 37483 15899
27042 55756 23553
21050 50874 46719
21788 49529 48354
20437 50054 47431
21226 58838 38260
23180 63090 34241
21277 58028 39139
21081 52537 44952
22641 61738 35541
23183 60836 36650
20459 54332 42867
21115 48830 48920
19666 50680 46556
22863 63694 33511
18708 47796 49380
37806 36873 23319
24286 65130 32359
30628 47309 5285
43923 47309 16150
27961 47309 1144
30020 47309 3366
38231 47309 11101
29334 47309 2021
32229 47309 6037
27926 47309 3758
33653 47309 6636
26450 47309 1270
17956 35545 18044
23079 55021 7885
24850 68693 21991
48221 49232 30277
39713 57611 28625
33927 63085 28397
36261 60963 28148
47088 50294 30271
44970 52792 28216
42104 55381 28593
50464 47397 29218
42463 54549 30567
43222 54030 29804
43530 53405 31145
48866 48963 28939
43099 53564 32122
36683 60686 27674
29734 47309 27767
28930 0 7938
40110 0 18243
43090 0 21236
38638 0 15848
22709 0 4333
36472 0 15508
25969 0 3670
26305 0 5880
23812 0 5121
34782 0 13868
25361 41123 28802
7361 47309 18384
9749 47309 19359
24507 47309 35752
8853 47309 22186
17799 47309 30579
26301 47309 38794
22929 47309 35531
16816 47309 29850
7180 47309 15149
22209 47309 32319
4476 47309 15095
4897 47309 13230
27504 47309 41018
14100 47309 27644
5923 47309 13880
10385 47309 18968
15356 47309 28608
17729 47309 28287
15563 35249 33267
35135 3571 9958
35538 2813 9037
33258 6264 12900
21415 68199 25303
36134 35249 21995
42926 52857 16520
41991 52815 14815
35936 60638 20468
39701 54958 15272
37459 58063 17794
28704 67819 22763
47261 47774 13539
48075 48036 15489
42872 52353 15386
43088 51769 14555
45345 50754 16370
44793 49632 13097
40166 54223 14558
5962 51743 33573
4642 47766 39493
7772 51988 36203
6016 51210 34766
11280 57072 31787
8160 51373 38145
10921 54947 35550
15840 60843 31903
19667 65306 29323
8095 52792 35103
13548 59296 31126
10594 55287 34282
11445 56582 33084
23716 49288 23354
29987 47309 31046
23835 51389 27414
22008 39271 29218
24424 29900 15237
23549 27719 15352
23278 30542 15388
23387 21658 15373
28044 40250 29583
35203 23774 23065
35162 32550 22755
35369 13447 24331
35279 21815 23647
15188 37483 20957
19451 35249 34801
37575 35249 23470
24887 56448 27843
23647 35249 29462
27905 35249 33191
17970 3489 8553
17325 2402 7302
21457 6794 11725
15976 112 4662
24395 14448 15241
23873 14341 15309
23543 17319 15353
24573 47309 21672
22971 63389 26374
23824 0 27698
12574 0 17760
10967 0 17926
13857 0 15707
12922 0 16122
8426 0 10086
5698 0 13792
22273 0 22996
21574 0 23443
14926 0 19347
15914 0 19615
31612 0 32306
9200 0 9289
27569 0 28078
23300 0 25674
22767 0 25785
31165 36820 36635
6766 0 21180
15947 0 28471
6012 0 18337
5248 0 18305
11938 0 22759
25206 0 34180
8981 0 20496
17987 0 27852
15765 0 28985
34499 0 43022
29033 0 37928
15219 0 27601
10095 0 23532
8155 0 18696
11314 0 22581
20753 0 29644
23093 66868 24105
22300 21066 35081
22362 10218 35107
22454 25831 35145
22304 29232 35083
40683 0 8426
36308 37483 26640
18255 64715 22742
35753 36053 28240
25462 14477 15148
26667 10566 15307
27030 15534 15354
25717 24573 15182
28128 69183 24965
45508 52325 22624
32887 35384 35495
21752 37483 31575
27063 57520 40229
14893 35249 20468
27588 66321 26376
22399 37258 37005
27666 45900 26155
35456 11996 24993
35200 26494 23047
35322 18857 23971
35214 19825 23149
40768 49667 8326
30000 65248 20295
36310 57594 15436
41073 48110 6361
39991 48740 6199
44427 48410 10153
34039 59274 15615
38638 52130 9791
39787 53705 13238
37905 54652 12738
36727 57096 15126
37146 55281 12897
32094 62092 17784
29203 9805 34720
30098 8823 35721
33802 4010 40908
16084 37055 30599
26376 66607 27616
27222 50371 23733
21318 37483 19787
23476 37483 17591
32752 26531 32256
32580 25803 32481
33489 13444 31296
32681 22986 32349
31565 37483 15801
26597 69508 24350
33286 24710 19130
33675 33141 19638
33938 22630 19982
34035 25791 20106
25323 38973 20295
8332 4249 29394
3561 530 29926
8294 4320 28396
7460 3682 28365
3192 577 26661
34114 37483 18097
22965 53545 24328
9763 48439 6564
5670 47568 9389
13623 56332 14222
11821 54330 13103
9243 48189 6719
10780 50553 8633
14156 57542 15454
7666 50129 11128
8337 49294 9239
17377 60274 16220
13951 57068 14968
8547 48068 7240
17152 61275 17905
35459 33718 25683
35325 31038 26700
29962 38682 27339
27794 63820 25220
18656 16770 33038
19368 17264 33584
18618 16199 33008
18792 11868 33142
19690 20191 33831
30887 62679 33148
19574 37483 26286
34456 25514 29678
34650 16530 29210
34886 13334 28641
30050 39294 27061
24278 64211 23022
30367 37483 27508
15745 62639 26855
33701 35661 16564
30202 15276 16415
29919 34932 16298
28846 27382 15854
30163 20197 16399
23238 47309 19906
27773 54217 25754
27202 41471 26979
24035 64552 27530
16708 37483 19364
31489 48201 49044
31406 54756 42065
28871 58673 38560
32298 53728 42924
30029 50461 47022
29431 60022 36970
27374 59989 37555
29143 52050 45561
27684 56487 41213
28108 58931 38489
31007 47565 49852
27676 62852 34417
27913 53550 44289
29519 56805 40382
26613 57547 10491
25243 50261 2974
27063 48945 1616
26056 51772 4532
24320 49564 2255
25858 63187 16310
23509 56163 9063
24591 47602 230
26868 55758 8645
28443 47379 0
24701 58653 11632
18115 1879 6244
19258 5415 10711
19308 694 4095
18706 2550 6938
19091 1924 5904
19467 2344 6333
17465 3843 9256
23843 48785 27419
16569 58326 14186
21639 47309 20094
26242 14422 35441
27401 12374 35289
25470 14784 35543
25336 27702 35561
27350 13038 35295
24548 52246 27753
24353 37483 30611
13588 0 41717
5751 0 33791
11872 0 39109
16130 0 43648
20176 0 45394
27723 67895 25943
37809 47309 41813
45016 47309 40661
42498 47309 41570
39826 47309 39876
32167 47309 35539
40496 47309 38629
34779 47309 38937
41105 47309 38665
37096 47309 40278
43016 47309 39991
25461 69508 22861
31034 15532 33705
31560 15107 33301
32098 13258 32888
31994 14441 32968
39488 47309 5970
47160 47309 12835
22236 41123 29088
16919 0 40787
2989 0 26974
21892 0 45415
15725 0 40393
6034 0 30544
35154 35249 30302
31932 47309 31963
9690 5629 24624
2795 285 24163
5283 2188 24077
4532 1223 20246
2768 379 25294
8946 4881 22880
22291 35249 25479
25567 35249 28943
30720 35249 32972
14310 47309 8646
39633 47309 28033
29854 47309 21942
44193 47309 39239
28809 47309 22093
40656 47309 31954
47939 47309 35421
42357 47309 36745
29485 47309 20912
22719 47309 15299
42253 47309 34387
17594 47309 11862
36483 47309 27636
22637 47309 15789
39313 47309 28866
42957 47309 36488
19432 47309 13885
32251 47309 26963
39371 47309 31898
26031 35249 32005
26534 35249 32260
29469 35249 33923
43011 1768 14723
37469 6354 17223
13887 5968 15368
11891 3393 12511
33516 47309 31774
22766 43593 25622
17505 36869 17405
13870 37483 23997
26642 35249 14370
20252 59130 13005
38578 94 6946
37876 2667 10593
36598 2766 9772
37698 335 6661
38306 818 7913
27585 5117 41394
26521 2667 44722
27692 3058 44060
26759 5386 41152
25423 9328 36198
27510 4826 41782
32589 36370 32636
25018 41123 20813
15273 21593 26979
15273 14249 26979
15375 29906 27753
15178 14038 26258
27580 49672 26390
5436 0 35365
6936 0 36105
7041 0 35454
38095 48429 4728
31408 60759 15557
32936 58762 14060
29385 65338 19845
32067 58801 13606
38661 49731 6606
35037 52743 8102
32333 58255 13109
37419 50007 6218
35796 54273 10363
33732 51798 6223
28094 67241 21366
25908 35249 36572
22903 43498 24504
32634 8737 34249
33888 6847 36362
25077 69508 25647
26227 60971 27695
15037 35249 22290
29436 23027 34594
30197 28087 34279
29371 25067 34621
28641 33120 34923
28426 34542 35012
30931 8992 15552
33471 1684 6396
32765 3266 8314
32010 227 3756
16299 59464 16116
6501 48089 9317
17202 59928 15890
12735 55190 13444
6084 48674 10587
11513 52838 11234
9518 48787 7318
11686 52216 10153
17116 60964 17487
7723 48516 8718
20642 65603 20731
15708 57801 14280
27364 37483 16609
27179 41237 23690
22964 35249 35631
16627 28465 30717
17094 26799 31325
17442 31415 31779
17866 35184 32332
17204 22303 31469
33038 37483 16563
34373 21032 20813
34241 9879 20494
34682 21313 21559
34261 19998 20542
36988 37483 27562
17369 15636 19008
17811 23733 18432
17606 11455 18699
17703 17273 18572
12883 47309 8463
29836 37771 27557
25984 44866 22932
25408 37273 14155
37766 37447 23017
21409 66262 20926
36151 37132 18681
28215 35249 27903
29916 35249 29283
31829 35249 28712
24932 58410 27855
23660 44524 27282
23708 69310 27329
24230 40143 20398
29695 0 8180
21828 0 4815
32795 0 11617
21220 0 4412
32181 0 12658
24220 0 6488
25397 0 5757
32708 0 10350
30459 0 10397
18641 37483 35333
34868 47309 5441
47669 47309 17054
48552 47309 17284
43005 47309 13914
44025 47309 14652
47126 47309 15140
23744 69508 25688
22350 9720 35250
20764 4733 41558
41791 0 12863
42681 0 13455
38640 0 9370
41136 0 12502
16548 37483 22987
28218 65519 31305
29634 61020 35848
36577 50450 44432
30205 60542 36087
31908 58128 37981
36903 52199 42160
36478 51356 43411
31241 58171 38314
30547 62192 33924
33832 53919 41884
32044 59116 36725
28737 63653 33229
35413 52397 42785
26684 68830 28246
19943 13729 34025
19973 12463 34048
18734 11302 33098
18517 14517 32931
10353 4465 16825
9607 4105 17410
15874 9586 20761
32968 52588 43962
24702 35249 34570
22672 35249 32277
23007 44361 26437
22532 47309 12150
29080 47309 18358
20433 47309 10178
17240 47309 7786
34526 47309 21829
45559 47309 32219
17460 47309 4153
21298 47309 10144
15868 47309 8289
20575 47309 8491
23903 47309 11399
27665 47309 14036
19012 47309 11945
41103 47309 28569
20578 47309 9488
28344 47309 18949
17918 47309 13476
35876 47309 31781
30712 47309 26188
26588 45143 27494
27890 37483 34224
26859 69172 23370
35446 11626 25781
35193 30425 27698
35213 27569 27545
35252 22951 27250
27325 57717 23860
13607 35999 28737
34261 37483 27651
5507 52780 27609
9358 56513 24336
16663 63593 25278
1707 49097 24510
2596 49959 24809
0 47442 23506
6405 53650 27402
13869 60885 24419
11572 58659 25184
13688 60710 26520
12837 59885 25052
7596 54805 27372
465 47894 22495
10760 57871 26838
25393 31565 35553
25995 27485 35474
25750 30085 35506
42823 0 15378
31396 0 4607
33211 0 5415
39803 0 13309
33838 0 7801
30944 0 3591
30958 28697 16928
32320 21601 17974
31256 34228 17158
32503 31397 18114
41040 47309 7927
31186 47309 812
37826 47309 4426
37765 47309 5626
19723 37483 36442
15511 35249 31562
19127 61689 16680
20527 64208 18872
16473 37483 30859
42040 53027 35356
36731 58621 33007
35298 61125 30323
47145 48662 35522
35943 60505 30482
37654 58168 32344
36357 60063 30680
38435 57828 31692
47336 48048 36458
43049 51007 37776
44706 51044 34830
32724 63984 28879
46881 47319 38748
39233 55969 34145
23028 47309 22801
14974 8885 20576
14302 8321 20291
8524 2859 15824
28060 47309 33622
33730 47309 43016
33472 47309 41008
33213 47309 39877
21819 47309 27193
23323 47309 29995
20957 47309 28677
23581 47309 33632
27477 47309 37218
14977 47309 21793
19993 47309 28040
30746 47309 36511
22612 47309 29798
27092 47309 32665
33375 47309 39379
30652 47309 41976
27246 47309 38121
32150 47309 38039
21000 36840 37300
37890 7773 23183
45191 2077 22337
38216 7473 22696
48050 6 23565
47396 477 23250
23221 49936 26808
19287 35705 35348
11904 58451 29217
12147 58993 27965
12150 58398 30348
2439 49462 29727
11601 58036 29742
7622 54739 28036
3221 49451 32691
37 47321 29296
5321 51720 31481
1674 48588 30358
13032 59424 29548
3978 50701 30533
24354 35249 14059
10229 2634 37625
9758 3139 35938
14316 6757 34210
13631 5715 35524
11442 4205 35873
21505 35249 36413
34821 11369 28797
34149 16242 30420
34311 13430 30028
22248 47309 39320
12630 47309 34595
30069 47309 49675
25399 47309 44403
14534 47309 34285
12932 47309 33356
1552 47309 23331
24023 47309 42487
24094 47309 46000
26462 47309 43777
23432 47309 43022
26919 47309 42772
27135 47309 44885
9781 47309 30304
19298 36771 14390
33466 12049 19365
33320 20672 19174
33523 16409 19440
32695 24058 18361
14096 58249 34146
21367 66887 28813
30526 1136 46188
27540 740 47095
26089 3625 43533
28116 1903 45507
32627 37483 27550
29743 37483 20602
32888 37483 23851
26229 37483 30793
30299 67080 25736
37571 5046 14583
42476 1334 13105
39421 3172 13022
42349 1731 13782
38956 3614 13352
13942 47309 9320
23753 47309 19383
20814 47309 16289
22897 47320 24527
26249 29888 15252
27640 32610 15435
27031 28031 15355
26801 29340 15324
26070 31971 15228
34683 36317 30880
22901 66942 26180
29184 35915 13236
28794 35249 34928
30746 35823 35055
25811 54577 22886
31819 14078 17589
31041 20578 16992
31238 13748 17144
30668 29881 16706
21494 6322 11062
24208 9742 15157
23287 8960 14260
26327 69508 27102
32753 35249 20652
32268 35249 24066
34055 35249 25795
29322 47309 11310
38420 47309 17316
23725 47309 6361
25625 47309 5502
29817 47309 9447
16491 47309 1740
40188 47309 20499
22764 47309 1186
31200 47309 11075
19419 47309 3095
34101 47309 14152
35401 47309 14228
24790 47309 5471
20943 47309 2452
28385 47309 7096
21240 13900 34642
22216 16068 35046
22517 27227 35171
22495 19480 35162
22123 18556 35008
23512 35249 16643
25380 35249 18248
29189 35249 22424
23151 41123 27960
29633 37483 32739
26167 50975 22981
22875 67540 26083
25366 0 22904
41251 0 35408
38436 0 34901
42390 0 35060
37446 0 34475
29227 0 28650
18487 0 17723
44218 0 36347
31585 0 27151
40173 0 33100
28475 0 24914
34362 0 32207
32759 0 29083
40812 0 40158
42641 0 35604
37501 0 32277
29248 0 24686
19064 65363 28161
15345 37483 17665
25742 58019 22867
38749 58867 23476
17874 37483 18934
27753 63728 25831
28203 25405 15587
28353 20117 15650
28211 11313 15590
28837 18714 15850
25033 37483 19208
5147 52431 27775
8136 55329 26464
14424 61423 24935
14019 61030 25601
2129 49507 22749
4612 51913 27749
4000 51320 26913
8265 55453 25015
840 48257 26018
12245 59310 26888
5811 53075 24264
23159 69418 23992
14800 57427 36049
15208 58178 35362
9109 49698 41636
14419 56238 37403
17249 60336 34254
8953 47711 44380
11927 53253 39267
10057 50408 41548
12951 53676 39673
15612 58012 36007
14931 58918 34005
5321 47568 40957
12010 51157 42408
19847 37483 19252
6477 49614 11834
4917 47375 9916
5646 49742 13538
14852 59720 18181
9542 53241 14010
6771 51621 15466
16354 62125 20544
12042 56386 16168
10406 54775 15680
12954 57765 17435
14468 60559 20577
11165 55801 16480
38040 2144 40826
38281 1079 42373
33465 6548 37171
32749 6478 37834
34136 5375 38565
40270 1044 40903
39340 1926 40183
30417 65682 29347
43379 47309 7533
21531 12210 15929
22533 24830 15514
22389 18903 15574
21535 21831 15928
15180 5512 13304
17187 8532 16678
33056 0 7645
32358 0 7630
43396 0 15706
32857 0 6359
36869 0 8916
37128 0 10917
46613 922 28983
42105 4703 25845
42509 4341 26364
40770 5735 25782
46792 856 28281
42198 4441 27727
37703 36874 28149
27736 69465 24798
31050 36695 14902
23157 47309 21218
34714 0 4922
41503 0 10688
27158 52854 27023
34828 47309 31641
33979 58945 15075
41038 52222 12325
39391 52346 10860
32428 62693 18995
30756 64707 20261
31188 62746 17832
39588 51371 9635
44886 47752 9650
29890 64906 19686
28038 67654 21842
39854 52896 12123
32560 60545 15992
28582 67017 21458
22870 66558 24627
23333 50581 26955
24180 39920 30281
4424 50859 31562
9985 56486 29888
4836 51871 29068
4379 50966 30974
4049 51257 28582
18049 64664 27385
12600 59528 27525
1057 47518 32318
5733 51770 32823
1757 48121 32529
4570 47309 14158
19047 47309 31272
6937 47309 18890
13593 47309 24151
14855 47309 25180
21406 47309 35264
5340 47309 15686
28847 47309 41969
5655 47309 17428
9285 47309 22607
13219 47309 22043
10837 47309 20669
3569 47309 14626
2645 47309 16239
18385 47309 29703
4410 47309 12034
9737 47309 20509
15241 47309 24444
7400 47309 14366
11485 47309 7076
18154 29065 18040
19085 24561 17325
18323 27075 17910
18517 29522 17761
24106 35249 17511
22581 35249 16130
22476 35249 17467
16137 35249 29935
24258 58251 27659
28412 21594 35018
28072 30723 35159
29410 12553 34605
20607 35249 33626
24489 49187 27737
15675 37483 32243
24983 66244 27860
35210 17251 27572
35255 14668 27228
35219 20806 27503
35453 12329 25722
31743 37483 35821
17405 35249 27695
29732 39205 22954
42420 53842 33016
39145 56828 32527
41394 54286 33877
36752 59888 30357
39252 57389 31184
48331 47486 35893
40321 54555 35180
41481 54907 32446
31732 64718 29083
43297 51340 36659
44963 48161 40335
47922 48325 34871
13803 36824 19915
15147 34085 24669
15109 16215 24957
15134 25299 24767
15176 27362 24451
34480 8682 32429
36159 5917 36103
38550 3644 37807
32788 18836 18483
32556 13975 18181
33223 15670 19049
33516 12924 19430
31853 37483 34933
14020 4732 12926
16376 6953 14732
17316 7808 15400
24836 40148 30397
26051 65668 31822
34068 10889 30543
33816 20124 30871
33423 21985 31383
33788 31087 30907
22884 57649 39974
18156 49824 47066
20682 60093 36773
18534 52845 43940
21950 60325 36866
21641 62519 34439
18405 48158 48912
20445 51855 45510
24086 67632 29632
21561 57119 40186
20761 50563 46975
21898 47830 50198
18921 54777 41980
27794 66151 25386
33787 29433 19783
33164 25465 18972
33440 21745 19331
32985 33599 18739
36505 35953 31387
20809 47309 19666
26919 6415 10901
25868 7378 12015
26492 8648 13751
46829 49925 32708
30281 66975 26494
48946 48406 30859
41121 56031 29668
44990 51995 31319
31604 65749 26442
48506 48339 32771
48201 49638 28732
40217 57422 27497
40567 56361 30420
36232 60804 28887
44816 51817 32676
26286 53191 27668
15026 36166 28149
42580 3049 17773
45358 1016 17626
36151 8266 19846
44874 1376 17671
41606 4038 18757
35950 47309 33495
37756 36145 22945
19770 30953 33892
18565 31166 32968
18636 21997 33022
18087 23274 32601
19108 25700 33385
15710 25142 28724
16223 32275 29964
15598 18113 28455
15586 14867 28426
27218 37483 13001
19520 37483 30967
35993 35249 20681
45692 47309 22302
33947 47309 10360
39288 47309 14076
45656 47309 20807
41433 47309 14959
48787 47309 22333
37804 47309 14214
49285 47309 24370
35631 47309 11861
33027 47309 10829
26766 7834 37964
27577 9320 35925
27132 8918 36504
27637 23966 35258
25854 33625 35492
27311 25351 35301
26208 31302 35446
44898 47309 25998
30892 47309 14444
42515 47309 24794
29020 47309 12498
48710 47309 29400
43169 47309 25916
39673 47309 25717
30096 47309 14650
30022 47309 13407
43251 47309 28152
31863 47309 17793
48928 47309 31316
37382 47309 21450
37046 47309 22740
39205 47309 24475
30953 47309 13882
33691 47309 16356
47629 47309 29411
15715 5559 12973
10738 728 8931
10189 968 9743
17673 6529 13046
13035 947 7526
23021 37483 35945
13989 50255 44667
19995 61912 34248
17740 55907 40099
14303 47483 48152
15708 56145 38642
14091 52733 41774
22552 66648 30081
14478 48150 47458
22169 66763 29723
18142 58862 36811
16180 55550 39624
16321 52957 42795
13240 47782 47181
24659 59364 22910
12310 5977 33251
26473 37483 37373
37238 47309 33866
22914 41637 24461
27777 66107 30859
34434 50060 46134
39720 48719 44680
32022 55805 40682
36362 47886 47611
36593 48123 47195
33533 51933 44423
32493 58083 37696
37232 48601 46257
34207 52466 43399
32761 53457 43052
32128 56508 39783
28271 64876 32041
6192 47309 36652
2571 47309 32000
9610 47309 39578
9562 47309 40254
4946 47309 37647
2659 47309 34797
36129 37483 30648
19978 37483 35559
9832 2399 13086
11287 4577 15807
10392 2504 12578
11969 4707 15194
10721 3563 14395
26757 59666 23296
33030 36990 17439
30156 40304 24026
15249 47309 15371
10577 47309 6545
6570 47309 11252
13177 47309 13994
6052 47309 10569
13736 47309 15138
14437 47309 18452
17645 47309 20491
9678 47309 42041
7658 47309 40714
11619 47309 44327
17536 47309 49016
24420 47309 49384
10889 47309 39018
13376 47309 41445
14872 47309 41514
20384 47309 48333
27359 47309 49978
12012 47309 38821
19447 47309 44968
11983 47309 40432
13140 47309 40225
27449 64218 26616
32710 37483 23177
32249 35249 22217
30285 35249 20151
37786 37483 24294
35744 47309 17086
20911 47309 5114
29010 47309 10294
30449 47309 9192
23555 47309 4932
24678 47309 4633
43643 47309 21774
17750 47309 2804
42046 47309 21664
41998 47309 20792
21559 47309 369
27863 47309 9589
23479 35487 37900
23437 51642 27059
37850 59762 24753
49383 48584 24005
30868 66529 25447
47913 50010 23919
43301 54479 23984
41558 56169 24959
40781 56922 25294
49467 48503 26092
44617 53204 26220
44455 53361 26703
36716 60862 24252
48367 49569 22413
33729 35971 17182
15072 20532 25448
15107 30085 25716
15224 30654 26606
28069 69085 26335
17986 37483 24230
25334 64226 27860
32676 14080 32355
32786 20146 32212
32590 10056 32467
33341 18954 31490
33532 12509 31240
33354 37483 28135
20241 47309 20713
30848 2708 43951
29005 7358 38219
29305 6656 39076
33565 2800 42699
31200 5701 39625
31055 6204 38982
26682 67513 29704
30096 39033 23805
16509 3100 8615
18011 6275 12429
21486 8805 14523
33756 37483 20613
21560 25614 34775
21198 21544 34625
20763 26690 34445
20598 21807 34376
20723 35216 34428
39165 6959 24829
38352 7574 24726
40478 5883 24148
30608 3539 7801
30471 2412 6171
29774 7353 12784
21580 37483 37092
36476 35743 28166
22900 65463 24516
32282 0 45408
17141 0 31856
30369 0 40886
34993 0 45514
28516 0 38931
26508 0 37899
11416 0 26898
29527 0 40345
17508 0 30946
31696 0 43066
20766 0 34715
15344 0 29469
29991 0 42286
30872 0 41540
24939 43443 27857
32531 0 24800
35727 0 27859
33784 0 26957
19012 0 12532
14271 0 11938
16788 0 10463
35237 0 29173
30537 0 25034
23359 0 17629
34645 0 27584
12185 0 7229
24320 0 19139
12044 0 10012
43795 0 35609
31046 0 25556
22811 0 16289
22518 37081 35500
16195 37186 33999
6649 2555 19325
6988 2429 18083
10408 5428 19937
13030 7542 20736
7105 3053 19906
6686 1606 16035
19830 37483 16204
35591 9700 25918
35412 9694 27343
14907 37483 18390
20080 8029 36670
20636 8532 36200
19724 2800 43828
23147 62315 26679
23142 52474 24021
24586 35249 14566
20051 35337 34483
31891 12442 33048
30940 16266 33777
14988 37148 28165
22556 35249 20791
19457 35249 17182
21648 35249 18587
34819 35760 33748
39245 4788 34475
44966 61 37039
39746 3727 36070
38348 5545 34040
42027 1908 36955
18273 47309 18110
18427 49858 3590
20709 57170 10790
19832 54577 8254
18239 51083 4949
19836 53983 7618
20066 55365 9033
23395 60416 13537
18566 48119 1696
23868 64975 18280
22447 59598 12917
23252 58356 11375
21294 53142 6329
19884 36340 34569
20745 39682 23098
20438 22639 16382
20784 31093 16239
21202 24852 16066
12749 2202 9786
16701 5017 11332
15613 3329 9422
13537 2381 9473
13356 490 6536
37003 35841 22457
27794 59932 25219
24357 47309 8766
46592 47309 26568
21895 47309 7054
46483 47309 27767
44019 47309 29226
48525 47309 30950
42791 47309 27665
48887 47309 30623
26259 47309 12237
44659 47309 25015
40621 47309 23182
49582 47309 29627
41735 47309 23921
48297 47309 32048
46931 47309 30872
33925 47309 16827
45625 47309 29806
44186 1716 33537
43491 1845 34778
42719 3786 30099
46157 506 32859
44513 1709 32770
11121 0 31909
5047 0 23129
4965 0 26054
8029 0 30263
17414 0 38707
6726 0 24539
17720 0 40307
35721 37483 21973
5928 47309 38213
14460 47309 43917
14346 47309 44886
4947 47309 36875
25453 37454 36881
29724 66633 28609
28139 68484 27535
24195 58134 23069
25216 68014 22832
12532 47309 34043
28517 47309 46896
15881 47309 37499
25838 47309 43921
29058 47309 46634
18917 47309 37436
25162 47309 45893
20948 47309 40632
33146 47309 49257
31324 47309 48705
11598 47309 33146
10277 47309 32380
30602 47309 49189
23125 47309 40595
22917 41123 22319
25164 35840 36448
24538 38375 20315
13001 37483 22608
14607 8908 29158
11621 6532 29959
18691 24406 17627
19269 31328 17184
18081 30780 18096
27240 62280 35144
31645 52743 44150
27884 55613 42093
26630 66188 31133
31168 55901 40905
26970 63517 33895
27605 61721 35643
31904 50120 46883
28214 59310 38055
27852 63661 33505
32401 51264 45528
28734 58175 39129
28731 61938 35110
21005 47309 20989
26626 46132 27472
13497 0 39793
15018 0 40595
21011 0 45162
19110 0 46677
10530 0 37113
3669 47309 38033
45314 2071 23200
46929 914 24026
45365 2108 23948
43476 3520 23566
44561 2697 23680
21638 37483 17030
22845 59002 24719
19311 13329 17152
18883 13989 17480
19467 17871 17032
19321 12815 17144
21513 18799 15937
22497 10732 15529
22567 30734 15500
22504 29785 15526
22172 0 20807
39311 0 39130
32946 0 30266
39374 0 34208
38721 0 33225
26026 0 23393
10979 0 10796
21920 0 20126
39429 0 33368
35718 0 35496
24331 0 21882
20571 0 20435
35386 0 33685
38051 0 32576
32923 35249 16196
27805 37483 12968
17929 61683 32968
12894 52859 40809
8321 50609 39519
8162 47793 43469
7444 48293 42021
11523 53572 38398
17846 61373 33337
11346 52939 39145
16284 60436 33142
7632 47530 43323
25602 37786 30397
32142 35249 14929
16553 35249 19030
35810 35464 32457
23645 35249 28881
21784 35249 26492
24624 35249 29742
36877 60705 26763
34098 47309 9148
40915 47309 12232
39591 47309 11231
33539 47309 7902
48043 47309 19784
33283 47309 7119
30514 47309 4637
27150 47309 1579
40259 47309 12288
35546 47309 8881
23019 37483 18708
14193 60326 30119
37471 0 12935
43080 0 16092
40942 0 14595
29777 0 6620
43408 0 19054
42685 0 16654
27347 0 3924
18467 37483 15276
18701 37483 17773
28716 37483 18936
19973 47309 24287
16184 47309 20599
15119 47309 19776
27738 50968 24806
17059 0 34970
17708 0 36316
19369 0 39450
16315 0 34274
28345 0 45406
14910 0 31872
29383 0 46965
20347 0 37172
21056 0 39616
7594 0 39344
28132 56412 9519
29025 47868 631
31898 47651 1170
31967 54373 8369
27454 59077 12184
31531 51422 5099
27347 64939 18417
32380 51953 5894
29338 52969 6165
29128 61661 15393
27339 16850 15395
26799 25019 15324
27559 65286 24266
12868 36297 28226
47463 49113 17113
34958 62202 22619
48032 48865 18248
44973 51814 18588
43358 53440 19042
42670 54527 20810
43431 53106 17984
48851 48338 19203
42398 54500 19688
27310 35249 30439
20348 35249 15028
23627 50549 23444
19953 37291 36866
41693 47949 43947
38553 51949 41251
42820 49392 40714
35051 59230 34130
31409 64044 30745
29701 64967 31107
43050 50192 39317
42019 51396 38592
36013 57226 36091
38323 53360 39422
40648 52795 37920
44899 47407 41533
30331 40205 25194
9840 179 41965
12794 1982 41300
12670 761 43189
10477 957 41189
12139 113 43836
10715 705 41780
28909 35249 15722
20514 27920 34342
20733 18143 34432
20292 28576 34249
32614 37483 24367
36350 37483 27847
27794 64439 25163
19050 34958 33340
18285 29494 32753
18163 24651 32659
18054 14956 32576
14400 36645 28124
30424 47309 33949
40688 47309 42910
42060 47309 42193
30928 47309 34046
36491 47309 38974
41633 47309 39186
32083 47309 34839
43253 47309 43209
39778 47309 38644
28858 47309 31655
24668 41123 28635
29791 66188 29234
18469 47309 48169
8860 47309 41191
12888 47309 44227
5556 47309 38981
11058 47309 43273
40210 53710 13670
30832 36615 15919
22766 62317 25156
42394 52886 15657
40268 54956 16249
40212 54628 15474
39441 54874 14647
32064 64456 21644
36416 58472 16831
44196 50884 14648
34138 61699 19545
45802 49635 14853
43355 50733 12878
42225 52149 13844
18843 37483 25135
14231 36262 25455
26938 41123 21380
23717 66620 27338
22648 35671 12901
24074 17855 35409
23070 10334 35277
24838 19160 35510
23932 37483 34156
34931 22186 28531
34925 31497 28547
35115 22915 28086
34731 28568 29014
30779 3881 42341
32516 3709 41862
32082 3412 42457
33333 1720 44303
30518 3123 43507
29834 6492 39085
14781 48921 3978
13504 52943 9506
15119 50706 5909
15650 50832 5753
19793 59619 13830
18687 57227 11618
16779 52816 7464
17102 54561 9357
19808 59263 13397
15449 49358 4113
20366 63045 17580
12249 48899 5414
21242 35249 28567
17080 35249 26192
44089 3204 25593
39361 6850 25453
42229 4510 26810
47320 388 28895
43502 3325 28864
41345 5199 26705
40048 6267 26006
37277 52803 41226
27111 63081 23622
13554 36942 30177
14969 4549 38791
12268 3121 39041
14305 2583 41481
14257 1444 43295
12751 1709 41711
11088 1774 40328
29194 7348 12537
30337 7992 13910
29822 9676 16049
32393 34967 18030
31972 16939 17706
30888 34768 16875
28343 35249 14787
25620 35642 38093
29424 40093 28271
28992 35249 16575
14065 35249 28128
31092 0 45231
23946 0 37758
33067 0 42735
32755 0 43954
26723 0 42258
25020 0 37143
25849 0 37931
6963 0 23186
15727 0 30790
22384 3668 7491
22842 2984 6539
24133 6052 10363
24208 3413 6918
36332 37444 25455
34758 10823 21745
35011 10284 22353
34152 27073 20280
34321 10480 20688
15912 29568 21480
15718 22050 21947
15540 16739 22377
15926 24337 21447
25825 68227 27802
38583 3904 37213
35835 7012 34204
40418 1304 40332
32724 36634 17952
45373 52472 23631
43132 54643 27145
40939 56769 24254
41826 55909 26719
46640 51243 25316
46130 51738 22773
50437 47562 24063
46312 51560 23902
49795 48185 28506
39344 58315 25459
37160 60431 26121
22557 36353 35806
18013 37406 14937
35030 0 40270
22871 0 30390
35191 0 36802
38813 0 42575
31718 0 36152
33634 0 35803
30222 0 33690
35351 0 39188
26459 0 31956
16940 0 23977
10329 0 18317
36460 0 38338
29904 0 36951
27312 0 32989
29988 0 38155
37613 35349 28315
20694 47309 19089
30638 58611 12554
27532 67020 20779
31487 3681 8365
33763 1279 5952
31281 2067 6025
31907 1348 5280
22175 3739 43080
23977 4015 42960
21515 5369 40874
21728 84 47781
22602 820 46938
20616 3504 43183
42835 4103 24462
35760 36898 32522
21739 35249 32693
35386 21620 24459
35408 25776 24624
35379 19610 24402
35379 23939 24402
