ply
format ascii 1.0
element vertex 2755
property float x
property float y
property float z
end_header
34939 16703 52970
11672 46787 36356
22421 6171 41781
19250 11529 48701
38441 54588 35263
38944 15093 51303
39505 4343 25467
24575 5776 16615
23363 56469 18842
50888 15905 39367
21253 16510 53658
37718 51689 38240
31234 52884 17388
37964 54858 21859
26520 6464 43554
24172 44713 10322
13463 46297 39721
7947 18911 12706
42852 7707 35183
2475 17157 25624
47277 14825 43293
30564 51122 15386
17949 3451 27173
19281 6241 37216
49397 37522 15660
11298 45731 23471
36109 2595 36501
11801 7703 30488
50345 41340 24080
14441 10567 43214
16547 25046 53947
29695 50976 16478
1338 30220 20306
29071 10456 48127
12536 8623 24639
17746 56203 28123
39071 55781 34076
45039 45901 21864
34315 19792 54695
7918 38184 42127
3711 35474 19988
15111 33829 5889
35924 7369 14346
41817 7340 23587
17833 53899 27462
27610 33056 2111
28623 14464 52211
13783 16312 49825
13741 47425 21908
9175 37599 13675
6432 27736 11885
21326 5923 17532
49297 40790 20224
15782 40418 8772
20852 49303 15221
10491 30476 8111
30204 6639 43245
14982 51188 29434
13790 27950 4157
42815 23206 52344
5490 40900 24825
32300 9608 48176
31542 14504 4569
2677 29209 40721
17871 55333 27181
55906 28924 33128
15236 7269 24074
13124 16929 49931
9092 43054 36310
37078 44774 47565
35314 7308 14139
32866 51423 16292
23285 9123 45503
23981 49752 41998
30880 8642 12476
10777 31907 50595
40299 37123 6905
20162 4239 21165
28615 57156 40504
29117 39468 52524
29883 51492 17089
29688 49527 13483
8032 41782 18870
51054 37794 19178
20835 54246 37748
21137 9159 13185
38847 46282 14672
32526 13162 6559
9179 42483 17938
17681 52322 26683
54636 20024 37639
9412 14330 13841
51726 23764 13597
27835 57574 18101
40976 22889 4239
30147 8302 45061
43718 8747 39240
5892 14389 38055
10021 18401 46968
4978 15005 26063
27089 5670 17563
1575 32193 30937
37221 6979 39743
17405 57643 25279
48213 41841 17355
14282 21971 5449
25184 56781 18086
31392 51869 40222
43474 48807 28640
13779 8944 17508
43615 44132 16250
39486 858 32769
20258 20460 55305
6640 32518 13181
50037 14520 19873
51204 39103 36476
16904 48551 19184
28217 7524 43783
19532 5892 36490
8107 22519 47018
46477 20023 49777
13389 9604 38835
26262 17395 54137
54045 16529 33116
29805 6120 17483
30251 48462 45489
48016 45764 30460
40447 41643 47464
34745 7740 42844
18140 43359 10645
38237 54616 22286
51891 33028 13889
24368 23925 56149
37398 7943 41796
44471 11355 14343
35411 30880 55407
47054 30370 49242
18759 3343 22641
383 22438 24949
38572 13647 8737
25917 15714 54067
726 28846 29564
47285 44629 37608
26080 6665 14125
21472 55555 37097
19754 11608 47507
12535 47088 20627
2141 33537 25236
23338 0 38671
56283 25815 21698
28430 18775 2606
44582 36701 9514
44224 14871 46626
56673 26278 26641
54020 30800 18687
20836 27429 56493
31675 34988 3117
38833 695 25566
7718 18405 13360
43964 33910 51707
33692 49722 14558
17906 55605 24464
40635 45894 13975
33805 27861 56121
26344 57717 18307
41966 49625 36394
18002 42627 48646
19444 4940 34482
22057 47811 43580
31874 41461 6033
28112 43277 8495
22944 4310 38038
22287 54176 20063
15033 47922 37269
15315 5846 27774
54653 35561 22625
40110 3892 30085
4510 14195 25902
13684 43542 13552
18147 38894 6300
13900 21251 4809
2738 35314 29273
22094 7461 13769
56176 28529 26663
16316 8179 18733
17251 35545 52823
52447 17741 40561
11912 18764 48923
38381 11933 10502
39174 18043 52336
10989 12574 16415
56012 28366 32510
17413 42876 48093
36005 1910 21171
43859 48760 23369
18739 5735 24659
31298 34156 2661
33609 6985 16236
48866 38779 43819
4808 20473 15379
7840 12035 37283
5011 14824 30224
51007 39924 20702
19966 28653 55214
15828 5773 31935
11998 48507 28627
29584 40360 52988
22062 20102 2973
45906 47283 24273
37899 38140 52744
29679 36642 55193
32017 9363 10427
25895 34949 54898
15149 18940 5948
39454 54065 29296
29080 2301 17500
18753 37166 5993
36306 10738 48356
29419 28012 56594
7830 33881 47026
8773 20047 46593
37850 35973 52797
38442 39854 50093
31191 16782 2985
23892 49779 14966
42705 48562 20459
36799 54410 21885
17893 55134 23992
4607 17527 17439
27893 26445 0
20815 23709 56282
50326 28740 10332
37774 46157 12348
7562 13127 22194
40422 8750 40911
6797 14899 17032
9268 10712 26578
55157 30037 36258
18226 1521 26053
49279 38579 14771
42709 50631 30529
1284 32418 34881
29112 2865 18140
23400 38229 4119
16235 50100 23439
54038 37301 23683
31427 1430 39212
16257 27162 53778
19260 49149 17731
3271 17159 28973
55364 35511 27155
10015 28481 8101
34902 42366 8707
41676 11117 13473
7493 34126 11444
49673 41949 20588
43374 40090 11261
5699 34748 43691
41151 50428 21803
43837 38287 10149
21176 22562 55693
44154 21177 51477
17369 10231 44231
54172 17476 22337
38103 48168 41979
33306 52259 39290
26818 57110 39510
25537 2988 17639
508 28911 35138
50117 33547 44620
8137 31945 46719
30639 51546 40616
16308 36126 52474
26931 44719 48126
51620 14232 27843
17236 57150 31992
13332 8011 32324
45022 35024 7560
7893 42989 28910
16849 51070 24931
38327 7626 40348
12066 47766 25691
16667 46089 14407
25454 49963 14259
13491 49726 26736
24744 3003 39877
4681 16485 22310
31518 5875 18458
19610 49235 41940
24581 14018 6248
46416 44225 37428
43791 15580 10155
43437 11689 14695
25277 5227 18689
24807 28942 56310
42211 21916 4044
45900 8109 31528
49337 43980 26962
50958 42603 28243
7252 41891 25508
18222 57371 25694
18834 3501 33429
9084 10012 33451
43456 10759 14268
32953 36348 3320
6091 36497 17398
10535 45788 29612
51663 28121 45337
16537 10575 44096
35399 30217 56541
41559 24733 4169
33947 46582 11178
45338 22121 7151
32670 39818 5466
51838 35759 18237
37986 940 33923
44031 20803 52021
26087 770 40119
31998 56956 39707
47638 9556 24535
797 20575 25994
42216 14908 9564
23392 26461 1370
54303 35633 36359
45718 41375 43135
918 24649 24872
16279 20393 53683
22896 53030 38269
11089 38904 45389
32819 37902 4336
3736 15014 30234
28533 15045 4966
39845 7566 19413
8520 26708 48640
14752 7528 23927
30996 46192 11427
44406 8974 22543
17280 2240 31761
26924 909 17382
42072 41297 9979
47533 9110 27789
40479 7281 37029
38899 48485 17093
13487 45145 17876
47676 38061 12761
20791 48646 41874
17057 54214 31184
21785 7696 44111
15943 6361 22026
17789 52196 25823
11244 42701 41044
37991 40962 8624
39252 0 27279
15286 44282 14601
29701 28920 57447
20929 4164 36418
21982 1464 20208
33906 40415 51248
22055 50669 17851
40987 28135 2919
11500 7882 29704
8206 38408 14044
34169 34825 54472
40155 15425 7832
55248 28157 18945
44411 48060 22735
56266 27190 27477
10344 45626 28844
11034 39747 46095
24045 6296 40649
46733 41440 16601
15866 51049 23820
34092 13257 51669
32374 27969 355
50166 42129 28123
3417 20732 38288
7642 32383 47394
37580 0 34785
27151 1896 17842
5845 41850 30893
3067 36432 35299
24708 2041 38907
51900 15562 22715
30892 6076 42803
12654 27908 4878
31900 55135 39262
12640 33487 50334
17699 30888 2706
11197 9170 29544
21011 50686 18539
21582 7008 17164
49828 14029 38815
16636 5424 26176
44709 32812 6242
37496 20760 2381
12591 12006 44513
18137 52850 32605
23185 41547 7705
3642 24890 14772
38917 324 31559
30061 26110 56651
46452 41896 43401
1520 22489 34171
4593 21931 15508
30335 9640 10906
48030 30805 48633
29075 56834 17376
6243 18317 41966
34257 10164 11002
6477 14754 37154
40538 7534 20410
26578 12904 51735
33946 55750 39237
43281 48756 31748
24739 6930 13893
38284 38514 52337
28897 48575 13312
16110 48012 40707
32445 54050 18782
5874 16613 16326
35546 7805 43100
13188 15697 47630
38704 53916 33024
17461 4975 33416
42677 48125 38441
8696 12303 36810
36227 43085 48218
23643 43662 8212
6245 12130 30309
50960 29230 45126
35777 34871 2835
25618 3747 18550
45388 44867 17738
55540 28757 22741
17417 36857 51530
23176 37006 3465
9099 27773 8876
47782 10958 37749
39297 55588 27379
39029 51368 37312
4015 29601 43507
17927 8443 15782
29906 29967 56466
28536 14097 5045
41484 48046 17809
49161 39190 16980
41369 48313 20334
12371 29941 5274
20703 7066 42747
20496 41550 7309
7810 24513 48574
15323 45364 14287
39389 52305 35082
54876 34526 28161
11444 32579 49711
53291 29123 14349
34512 45095 9834
32290 11795 8350
31839 48384 45312
10012 29597 7145
35318 54976 20454
31347 6374 14755
39553 0 25483
40216 5045 32180
53123 18507 17623
12118 21233 51571
54337 23624 18659
28118 29968 1218
10334 14580 45388
35740 25090 56585
26121 6084 40832
36968 46477 12281
42558 8453 20538
7112 37177 41895
32200 24947 231
47817 19735 10612
16586 51223 35413
48067 34785 11612
10938 9399 27023
49227 12452 19642
39306 42803 9718
33420 50729 42183
25340 55659 18520
47076 25557 49656
25555 14477 53220
35193 12290 8686
36708 51998 19949
40259 57494 28267
42027 7055 25011
21884 30786 1306
20581 17135 53866
27555 9447 11140
14205 43123 12600
15886 43568 46360
8400 10470 32849
19865 41856 9124
53337 36778 23990
54703 19661 22048
40080 54448 26732
8197 10792 33669
44559 7416 33083
46986 45471 30670
54083 16069 28377
17124 6206 26238
47782 40524 16880
10663 23383 50951
39257 5812 21167
923 21096 34184
21672 44395 9607
544 31693 26191
36913 54531 37133
34532 51369 18460
47918 43992 20824
16732 40892 9869
4448 20859 15192
6655 34785 43297
46981 45918 34775
26420 51008 15249
53713 38428 32706
10086 31733 8962
12610 44761 16331
16982 6781 22574
16190 9102 43355
39801 12190 9494
42781 7211 27300
12916 34447 50131
36484 53874 20242
44913 44387 40157
8676 39998 40999
5551 26644 11428
56274 22809 26659
32893 47596 44592
29944 19087 55985
36291 6288 19820
8467 38699 42330
18699 52564 21879
49791 21921 10822
27011 33565 1341
5203 17721 39199
24430 27353 57244
5593 39802 25868
3689 30489 15019
23551 2668 38370
36067 18471 3986
53197 24231 41372
50708 39656 39608
18093 50632 36489
41571 11900 10978
27363 18301 2980
43168 50297 29865
38444 3995 24739
5552 28895 44293
37039 53475 22148
22811 4996 18802
2261 32488 34860
38909 48346 40334
55492 18778 26899
752 28421 30825
37019 48610 43052
16947 53208 27269
47480 44773 21580
39249 1808 28516
33193 41717 51614
16947 40363 8771
18576 69 32732
55302 20888 31660
38136 13943 50949
34652 48849 43928
38089 5210 23980
22486 26087 618
24006 35762 3654
6747 41515 26928
39414 6074 35937
5476 39631 37509
20739 53538 21385
14950 47871 18348
20092 53037 22156
28827 56973 39644
34634 27429 56884
28000 45788 9606
37564 18838 3723
44921 14095 12838
37962 9080 13039
51590 16450 40459
28133 34147 1510
7476 37175 43535
30169 32704 56682
12 24497 24933
13727 36586 49897
4900 36050 39800
32677 51586 40019
40225 13437 8691
12112 14202 45092
41299 42326 11957
11523 41795 44533
3070 18206 33594
5246 14620 26717
32356 34005 2726
44161 17441 7504
48205 10730 23488
41782 8128 37881
1757 28045 21155
13584 10743 43573
42141 50742 32774
54732 22869 17568
9531 13063 40077
26591 55138 40459
28993 44111 48786
45174 42260 42570
8080 42106 21365
36388 47074 45302
51717 13219 32218
16151 51935 26229
22476 13842 5755
31162 56117 40322
22896 46011 47292
40461 30402 4037
26279 7365 13907
10337 46897 29216
23680 9322 10324
50400 33519 45796
24167 9198 46209
20872 47511 44861
6404 13324 32755
9671 10260 29530
25663 49201 44482
36608 12372 48759
32670 34142 1822
35917 4825 20980
24290 44614 8903
30307 43096 50820
45155 21604 5971
41203 24504 2994
35114 27696 55838
38496 53701 22692
40291 55534 29541
43274 47533 21974
25898 3279 39294
17974 1785 27199
38137 47826 43373
18760 1732 33214
26818 46286 47795
32579 57403 39720
17884 16898 51605
26662 19406 1554
24691 47844 13451
41704 36847 50425
36197 48733 14516
22802 8627 44589
25340 5783 16182
22023 47677 14180
10646 12834 41446
20868 335 20222
39993 25348 54267
17056 3438 30821
6576 38028 16299
23973 47796 45688
47836 9495 31870
10782 33877 7986
36332 17404 3617
25477 45594 47028
54818 33901 33107
10572 44004 18379
51993 13452 31704
9217 17438 46881
54669 32723 22056
36155 41971 7519
38498 13412 50227
31776 46184 47712
38587 49701 17383
43244 8130 23019
51774 17397 18696
9482 25461 8316
4506 15586 26542
18042 45527 13909
15711 9189 40815
1447 23685 34833
55062 33309 36856
10836 14280 14065
17124 2528 31096
38759 6101 23662
30807 30214 57060
2299 30756 19543
38312 19389 54345
51141 34699 13897
13088 42920 13392
56934 25335 33462
7052 13929 21386
41598 6237 24599
4066 15422 33274
35849 46363 44913
31457 5810 42173
12245 10817 15755
8993 41799 41216
51127 17691 14749
4430 38270 30871
34892 49892 16773
16072 48646 37404
9762 30990 7701
17194 47525 40690
6120 23566 11074
41461 20401 5355
41066 6514 25331
52522 14167 32576
20974 3499 37227
31948 20560 2201
53051 39038 23786
10522 11393 19743
38063 2661 33828
21744 5680 38005
40555 48930 20293
16294 18314 52742
1267 19230 30335
45448 42152 13998
35611 1184 36927
27880 730 17324
24989 6776 43603
44651 45567 40281
42802 10092 43233
37027 0 36606
16636 45457 44727
48718 12464 39377
34319 54762 39120
22774 22205 1085
23203 47973 14037
40417 9774 14975
42519 18250 50601
40705 52684 27230
52952 35132 40588
33941 12775 50023
5991 13879 26210
28405 45648 10716
17351 56630 25450
37207 2815 35220
25663 2656 40165
43174 16475 50158
5660 38657 39485
30348 20877 56694
51649 38078 18267
30420 10427 48203
15171 20669 53233
8552 44925 26549
33279 51904 17312
53854 24593 42238
49606 15389 16697
42500 50871 27742
51960 17300 19314
30935 50425 41815
49491 32105 11098
48034 16339 12059
48288 29021 49563
51740 23949 45476
39892 22661 53794
16822 55786 28215
36129 3204 21267
40074 37460 5840
37612 18327 3508
12333 31288 50814
15276 6076 32778
45588 16074 47916
54656 28459 19123
26309 38931 53781
37103 2041 22370
36505 17974 3317
19536 53833 36405
18971 2121 24087
47429 12815 15770
16003 16054 7289
8109 21757 48179
36038 6676 15908
54672 18970 28670
3325 27063 16828
19046 52503 23562
10249 37407 47055
13507 10149 17683
22499 14381 51336
49836 26508 10697
31624 48583 13407
21837 10720 48719
38501 49969 19632
23387 44751 48681
38701 40253 50873
20933 40782 51475
13583 43357 42978
33020 3941 19123
43868 47492 37868
42222 20378 4654
40072 6221 37460
33059 19550 2517
1112 23845 24511
17819 34063 4751
32370 29864 1459
40107 46400 14193
6750 16404 42585
40724 5529 27338
1370 34062 25317
15888 14187 9693
29955 21809 56052
14774 7204 26128
18666 50088 39343
8484 14262 17490
25342 56286 17603
605 24190 35698
8287 43831 22954
17624 10575 11370
52732 16106 32788
46589 12635 17029
17387 46757 15954
2820 29870 16310
6438 36209 16228
55130 29355 18057
36264 32558 3079
6102 34495 44411
46694 12727 42970
44675 47049 37303
23203 34828 3406
13439 9048 19872
52487 22987 42259
53988 19729 36054
8886 9787 30754
19294 5901 23029
21030 50071 41738
15342 8019 17732
25396 14680 52172
23811 55614 39641
24690 42351 6854
43402 46106 19220
21753 54982 20456
12377 40633 45039
25606 8121 13356
6929 38600 42084
40273 47931 18269
18532 2040 25038
17632 55427 30266
17368 42194 48743
2388 19797 20211
19397 24553 55992
17978 5024 30589
15599 8040 20055
37621 43191 48840
8991 20744 48208
49952 11321 32024
17972 55942 33982
11851 26368 51101
4735 15685 33329
10768 34991 9977
33779 1451 19551
6864 31676 10961
25059 9748 10998
20004 1003 35370
47628 11875 37669
19934 37583 5785
47574 44457 24378
27495 91 18245
36510 35300 3285
47207 10354 24707
25827 24517 56446
19999 56392 35557
16300 38022 50277
34506 3443 19678
0 29359 25894
57051 26647 32137
16800 48100 16653
22388 23419 1887
29401 8075 44748
20819 8000 42614
17894 28537 2184
56708 25554 31568
9737 35814 46426
53475 31968 41705
5635 18998 16092
16511 39846 8087
47857 11487 39057
7145 13020 33678
25836 23046 57110
13445 9753 41724
43401 17301 50294
32822 6906 43417
46221 46207 30693
26148 53145 40608
2301 34522 29015
26634 3547 18322
49891 40997 36320
17029 1143 30492
37014 6753 18866
19740 44781 45969
39853 55839 25708
21969 19606 2204
53833 31702 18901
28042 53578 40617
27410 7525 14281
22424 32573 1702
24126 49780 15532
19026 50105 40274
16859 5462 25150
37714 48404 16625
45241 8707 30963
55446 25983 18864
53358 15013 27270
1161 30431 25971
48817 43706 28849
20146 54991 35734
756 24280 30867
29035 6229 41319
41067 42172 47944
2166 20336 33750
6512 16982 16921
39349 26127 55487
41808 37106 51399
19917 47605 15222
45851 27253 5814
20127 56786 20721
20469 7858 44048
41389 6474 31868
34257 11451 7962
27092 3609 17577
3003 16393 25512
5846 21343 43626
13465 7931 20746
47465 34168 48017
31531 4655 17659
42097 19246 51349
11860 10561 38722
33052 10344 48885
44753 8632 24783
22585 9703 47718
27025 52624 17273
40077 16449 5797
17750 8590 16405
17914 51261 20584
13886 37458 49069
31330 7174 42838
39684 54896 32574
13849 10800 41914
33239 583 19287
32712 15415 5144
18556 40181 50315
56968 24215 31679
41397 17097 50491
571 24888 29123
20467 49936 16275
4796 18479 39235
29153 2439 40494
5765 24440 11279
39214 2243 29954
9757 42153 17956
21433 13510 51456
34813 53277 18942
42067 51185 26847
43966 47811 33306
24252 39224 5730
48868 13489 19502
30929 38092 3593
481 27700 24166
1936 33289 26253
9028 38046 45562
2491 19349 24669
37238 12098 48180
20878 1710 36357
45882 47034 34451
6304 13174 21979
40781 14549 48817
33391 45406 11123
34028 10729 8776
14164 8005 35308
17006 673 30087
10841 10960 40560
54161 27239 41751
46303 44554 21481
755 26651 25709
26140 49637 15124
23816 7056 15993
22158 54233 19074
43482 43649 44371
50781 22168 44700
42096 17208 50130
36082 48324 15456
48053 13206 16087
10969 45895 32408
5494 13013 26668
16095 8246 41562
55066 24856 19021
53533 29437 42746
1486 34746 29912
20871 2753 37322
37019 2298 20923
45958 8058 30516
48172 43099 35764
7969 42721 32446
49606 11115 30633
54038 25771 42128
17501 36918 52344
40565 43989 46377
76 28556 24903
38505 52992 35239
24041 52196 39779
25555 1351 39162
53970 30992 41299
30003 22422 57077
14011 7215 22116
20903 50150 39958
45427 9728 18792
50014 22314 10247
60 23017 30754
19080 54588 23670
35873 50633 41122
47570 27455 50316
25370 16181 53214
27450 7772 45112
20086 19687 53900
44302 49039 25954
15753 18579 52580
18552 33943 4385
4925 37148 20972
5436 36040 16001
46405 35979 47310
53425 17556 22331
46325 46169 22354
40200 36639 5456
43759 47009 21672
50172 23484 45876
20774 49549 40693
35245 6736 42373
23877 38505 5318
35285 13640 7423
11008 41782 43988
48398 13102 38601
43821 13970 10330
33399 1055 39436
19537 51292 38544
22973 51405 39575
8583 33147 48129
3791 22215 14950
4395 31574 16358
25263 53019 18278
30486 53356 17330
16377 17660 51277
25856 47965 12000
13753 7922 37801
25906 22173 56842
19665 40551 6876
17754 43242 11552
22989 51792 18255
48679 44969 30511
32372 35819 2602
4095 22872 16100
50237 43107 32510
17617 52804 24220
30451 11352 7395
25882 19086 54919
53522 36821 32587
38557 4907 35279
33218 15508 53641
28591 12626 6309
20183 4533 22206
51432 18286 14708
2062 26704 19889
14043 49024 26925
26596 50303 15339
51330 42016 31532
15829 28161 53505
52159 37649 18784
42410 47088 17335
42401 27879 4512
4686 39687 33622
49417 35398 44273
4913 19508 15434
11776 21833 50302
20294 40385 6494
37173 14658 51977
34595 996 20058
42006 20970 5267
55051 32212 36175
4994 14767 21512
20972 5146 38593
35402 7799 44553
44611 16780 9650
51813 39555 32807
5663 40161 30039
43679 24494 53151
47843 37877 12142
19940 473 21086
35690 28742 56358
38350 53043 33720
43786 29653 53033
36426 51297 19687
29019 55009 40607
12254 29781 51219
8082 43191 36695
21102 30253 55412
6243 39029 18116
31278 50580 42942
38321 1475 35099
42968 47450 18645
36568 28546 2220
15199 51171 31497
54210 18481 36912
38211 24137 54773
27023 1108 18283
14571 13370 47829
39317 57169 28976
48875 13507 16868
20369 6658 18948
11569 9195 32703
9441 11790 37064
42045 13154 9904
15183 9698 14526
39436 44982 44500
56106 21632 23444
51926 21734 14590
27897 38075 4582
42051 50414 23718
16197 46710 15268
21565 6775 16021
50285 39316 19991
8317 41024 19500
9001 38343 12935
37939 32145 2529
53266 38002 26790
48476 24061 49307
10990 11409 16251
12173 45944 36442
13501 13457 10953
43441 13818 46071
48354 43878 32446
121 30506 30087
51960 21243 13184
45262 9952 37167
46986 9900 31110
40559 48487 17503
28839 15203 53880
43731 49413 27206
36657 26068 1125
50938 13982 24208
2614 31315 20411
52822 31970 40938
41119 35276 5189
31051 54459 40347
39754 3834 31987
18655 1381 24707
32440 44559 49234
10641 8680 32464
1987 24969 39677
25889 46270 46383
48987 11998 23923
47607 10330 27647
33719 39835 52819
3755 30722 17067
32002 28593 1262
13662 50028 29108
15971 44467 43866
26656 41770 51143
48922 27849 9832
12012 9041 24235
52087 39554 27477
55551 25213 22254
797 27996 21178
10934 45535 20421
41476 5761 27305
36393 13076 7032
10720 8579 25618
50772 18479 15348
14594 11935 13399
34955 4873 38781
14915 11782 46312
39162 9825 44018
18598 5338 22219
9850 12398 18542
36940 38119 5701
15101 37210 6765
28845 5290 39567
56897 23110 28343
33103 32868 2179
20083 0 35982
51766 29035 13559
35669 24359 56258
40866 6770 34411
24167 20048 56070
23874 21999 56665
35250 19133 55213
9061 36151 46932
6097 26445 12180
3333 28068 40449
52371 32044 14126
6445 14459 21708
29965 2761 39557
12127 39513 12272
22070 25664 1609
10142 44858 37629
39731 51425 33443
15005 43358 12594
39121 7552 16804
8749 43578 32651
13296 8563 38835
22208 5801 38845
34756 2821 19197
55882 31102 28695
19371 8015 42541
30639 33628 55489
28823 8489 45394
12816 44505 15651
33481 49709 43378
42885 9585 39953
55436 34809 31400
9770 45671 33844
37125 11300 48725
10758 8366 29242
16624 52103 24987
14563 48640 34590
15241 30754 53909
34219 13154 50307
49922 42068 25116
34981 37834 5253
34212 6155 41955
4658 20577 16505
15067 27585 54157
18173 38712 50718
30953 53409 18312
51533 28989 45881
18032 6037 22263
11209 45380 19563
9821 45002 27151
52894 14261 28691
1232 22954 24826
13034 7957 28687
19779 52354 36138
4207 27955 15067
33929 5929 39496
10970 20179 8190
16324 6601 37721
24200 53046 39474
51993 16708 40043
54329 20854 36491
32683 47582 46038
41674 46683 40153
50248 42147 34661
10559 40212 14755
42992 46409 38897
24334 1533 38758
6390 33975 43558
16014 9484 16193
10418 28519 51021
46977 9831 27597
23644 334 19361
15705 6865 32662
51491 13800 22760
3453 20902 40399
49589 28917 9324
32734 5901 18766
5098 15219 33533
49318 20506 11256
37537 35535 3728
31100 9092 10196
28960 43797 50264
13424 18033 50292
45262 46868 23082
8160 11789 25177
17753 6401 38845
27937 35691 2268
20994 41761 49525
42909 11259 44972
41667 7290 19375
26008 48085 12687
17017 39239 50944
44617 40325 46917
41367 6101 34884
9047 21463 48156
31897 32999 2288
56944 28431 31599
45472 48245 29082
19278 40108 7893
44995 9606 21508
41042 16368 6360
38215 55819 22251
14957 11234 12541
17914 2633 27491
46420 11582 41628
16549 25781 54170
21803 3414 37222
44825 18531 7318
46544 10794 21328
55132 25926 37060
9981 43933 19027
34899 46593 46453
17493 54737 32826
17634 28297 3255
17851 26685 3048
41182 19746 4418
55882 29903 32916
38527 2913 24917
42655 44458 42768
40215 55106 30116
1577 32043 26296
6771 37813 42659
21889 4674 20107
32447 50514 41730
38551 7768 17501
13028 45914 38124
24925 12391 7816
56461 32235 27266
33941 57612 39350
34544 48213 13122
16732 51497 34899
39361 42932 10350
12876 46380 21208
42091 48544 21484
17692 11612 47999
46608 28158 7047
50508 31324 46585
11895 40720 44425
17331 14065 50282
48252 43740 24349
14872 45555 41230
14530 11255 14539
25282 6961 42357
30723 36547 55137
10875 15875 10606
42152 7680 22654
15227 6834 28546
18586 5058 24955
20212 6032 21204
44740 14050 46803
37423 2611 36418
46055 8403 24802
9793 27689 7005
42491 6005 28192
21760 5241 19338
38669 57459 32563
39026 52545 33055
34647 54954 19406
42843 6984 35178
40187 5290 33798
13348 33078 6813
28630 7852 46073
24500 13394 5882
8771 11351 32857
17306 39017 50031
47354 32380 49529
26917 4761 39460
16474 7552 20486
21135 3595 21128
26923 21653 637
49561 38763 40765
35548 52090 39426
45293 46920 21777
37910 52492 23288
13009 11162 15677
49543 37013 15348
32935 2256 39647
42059 40390 10566
49502 40488 40690
39542 52937 29603
1176 31031 29312
34379 15467 52257
43413 12557 46216
36694 53051 36262
41239 9639 13978
19614 5525 38442
4196 15339 24655
12677 9284 39822
29750 5612 16278
22399 42716 50350
37025 49368 42048
48690 34173 10367
22149 47122 45861
16272 6444 29881
44412 8089 27177
38009 5666 35209
36162 17901 4354
29660 24300 57425
21825 13539 50338
37934 988 23727
38954 32458 53769
31066 4281 17651
13012 14004 12167
34756 5771 19197
49304 11984 32227
38469 50333 37707
16864 57489 27902
44542 7444 24478
10470 32351 8845
10818 10529 36568
21883 17259 53235
17407 41537 9493
39192 788 27574
40366 51690 33889
23738 11723 8855
23172 44542 47602
34791 15016 52302
28083 57568 17185
18520 7220 41610
52196 31265 13443
27519 7406 12559
49452 17194 44781
45836 38405 12087
13363 9419 16989
38767 46350 44797
22624 50921 17682
46681 17692 47161
12381 20093 49962
33200 3861 18196
40069 49709 21131
43694 29735 52015
37643 51641 21465
55197 21589 23622
39404 18899 53678
36130 50893 18887
18579 54161 34134
20689 1534 37484
30763 20097 56040
41682 44509 43304
3315 36159 21142
47246 24101 50443
30991 4757 39302
24258 42964 7476
45238 24641 6504
7544 14605 18620
14672 7410 33666
2609 26100 16104
14291 8091 22162
26706 51697 41837
2735 18146 30335
34714 50462 15870
29328 52530 18034
2977 26822 15500
50203 42390 35381
19612 12855 7693
25962 31442 56418
13628 41548 12938
36007 36104 4587
35383 54164 37709
24000 49079 44202
47033 44867 23880
53347 37029 33158
41881 14109 49086
13709 8734 39565
29005 49618 44257
17985 341 24489
37093 30829 1845
50228 13354 23588
22784 8610 13387
44569 7145 27582
50713 33906 45223
27385 57150 17216
53488 24029 42725
7885 10724 26315
21140 34722 55116
16121 41723 9685
44278 42706 13408
23309 6398 41185
39001 23198 55259
43129 38566 8470
39872 2535 26287
25133 5055 40535
25593 50334 14656
24091 3559 39669
21061 163 21265
43627 48236 32802
23052 26888 547
21301 8155 43164
31075 53836 17577
16363 51652 33758
36547 5571 36707
18594 6764 37948
38366 51884 21292
8991 15310 15023
2243 28949 19525
45297 47188 29106
35278 4106 37252
41273 30955 4636
43720 7491 27207
29067 54207 17205
18209 47874 16091
37749 2787 34660
31152 41683 7315
25748 2085 40183
56130 20944 31492
38237 5985 23379
15346 47890 40073
8979 32291 8916
7176 17696 12988
30058 5249 41346
35872 3466 37946
35652 7747 15586
47676 43886 35049
51830 37389 40417
28303 5633 40195
3677 34407 19977
27588 35901 3391
17089 7211 17667
42460 42101 12453
27569 52532 18060
45222 17380 8854
11106 31146 51095
36204 25881 1919
25596 13187 50857
44195 42916 44588
9066 11788 21917
14918 20489 5587
31461 28332 260
46793 21464 48957
47496 43410 21611
42586 43408 43849
22337 14704 5029
51363 39301 35517
32286 38741 5309
21479 10948 9142
51745 16695 19850
1284 26801 35105
39841 49405 39697
47370 20410 47913
30627 38898 52936
42817 7025 22418
31549 1541 40113
31761 7678 43693
24773 367 39848
56203 32806 31899
27037 13954 4930
36740 56586 36312
37779 45031 11112
40260 55075 28300
17876 2434 30297
21092 8689 45442
39940 51874 26333
50323 13149 24859
3090 24368 15458
16782 50145 35432
26491 4656 17458
25393 45800 9913
52538 37281 36024
15809 47568 18874
39925 31648 53672
34203 48776 14382
36155 5351 21388
39691 49740 37188
27006 8036 46276
1773 27963 39026
13237 7327 23443
27154 5330 39497
44737 27076 52392
19943 49854 41329
2078 19627 30264
46425 13789 42887
4730 35177 39376
35888 4689 37899
27653 6285 17017
3775 16059 35172
31297 17912 2267
29041 51793 16598
42070 50972 25773
7890 25601 47522
19520 54079 22901
17770 44478 11371
48268 45145 24789
3750 33352 16652
56457 31627 26651
27918 45013 8853
33263 17911 54110
19848 1773 35148
55098 35834 31877
23544 36177 2972
5766 31592 44625
16676 52102 28388
30405 45103 47840
8557 12755 38285
10251 9202 28668
1998 29600 20754
37954 21137 2487
14358 47592 21112
44629 24742 52222
48825 33924 11708
37103 35092 4419
22263 2067 20194
23199 11874 8794
26033 44824 47899
50385 20747 46108
22873 33644 1912
48750 12117 35215
21203 9146 44750
24810 5518 39308
31993 56058 39684
17481 53186 28352
12366 36705 49615
4380 36515 39477
49107 18641 11257
46743 35937 48385
32089 49442 44052
39636 2278 25267
7496 23616 47998
38684 11695 10974
41481 16833 6279
29865 43191 49553
16286 5651 32560
30358 9058 46774
26809 54033 17278
42764 11450 43527
23802 57521 39636
17394 18550 52547
16492 34736 52186
15044 30736 52760
28184 54701 40643
42117 9365 17561
16973 57025 30412
44824 39102 47864
14167 13209 12090
19208 19997 3660
22103 47620 12643
31660 52546 17181
41182 27312 2958
42589 9651 42734
18012 639 30723
17791 41802 47996
27270 5039 18250
30774 33414 56302
26742 20889 1899
24609 1101 17977
42747 10179 16562
25682 9590 46782
4380 39831 30668
22035 17326 3304
16928 9495 44562
53047 17516 35625
10572 26195 51269
39371 3279 24589
18941 47061 43102
57090 29813 28288
22289 53267 38739
52568 28788 14790
43288 13679 11374
34379 55719 38010
10128 45343 30257
15876 12230 46008
37334 48045 41993
36179 46233 13025
19156 42144 49162
1899 19256 24352
47806 31696 49355
55857 24424 36429
15492 36332 7202
8599 19972 47801
25820 40470 51677
55362 32791 26775
16736 48455 38660
18504 900 34165
42120 26803 4429
54902 32717 37868
53875 36574 27587
48720 31818 9329
35270 22252 56278
18137 45120 11880
30348 49956 15407
47316 9052 31367
16984 2389 30448
34820 45236 11399
33875 51402 18159
11617 38746 10564
9403 37240 12993
30958 49191 43205
1045 32241 34032
20335 48269 43633
51809 13592 24151
37273 53006 36894
24491 15592 53801
38381 51248 38292
4095 37519 25505
40143 4294 28314
36599 50657 39618
43964 19282 7492
38937 55103 31937
47242 38738 12342
13832 17421 49761
52734 37993 24109
3820 20601 15964
38916 11060 45931
48686 37787 43358
38905 5766 34000
56868 23295 26946
7555 41070 21506
49388 19911 11192
38700 2040 25387
32744 16370 3466
28113 56113 40646
49945 31610 45666
50860 12331 32667
14771 42171 12598
3233 33018 40284
14529 8329 20928
25121 48263 13818
30227 10452 9833
26948 51371 40875
39278 11302 10510
23357 44016 48778
32373 21860 1740
23372 44361 10147
26572 41637 51785
53245 16700 31811
51490 40043 37071
40342 34231 5346
11253 15285 10793
17954 2770 24050
22285 8437 45816
11161 36007 8922
30266 47388 45331
29990 54807 17264
22889 48096 12873
41242 12006 12241
16443 33239 53812
22990 49788 41594
22860 5448 19867
7873 17589 12197
24801 45828 11297
51324 37038 39593
25339 31106 56959
45154 9132 38241
31742 47342 11383
45956 46570 29055
26939 46828 47250
46862 43543 37877
755 24709 26030
35982 6533 41861
22505 13317 51479
31277 6551 16041
23779 1446 39486
52586 39288 31025
52842 37723 22461
24098 49193 42681
36781 38431 6206
45977 36784 47183
15244 48901 22463
3282 32219 40470
13888 49481 34047
29675 47687 12821
16669 12538 10976
40810 8437 18177
13084 6956 30474
38990 5180 26638
28945 41046 52545
32225 6336 17435
35611 57501 19541
42163 45955 17299
13222 48827 34339
29872 12194 50110
13410 11377 44159
40984 9387 41662
17354 5711 28358
28305 4477 39611
19599 48427 41360
45310 24394 5457
44625 33368 7558
51752 39962 31137
41687 7530 37682
40770 19973 4094
34506 41942 51011
43824 45142 39948
43940 7974 36897
4711 15572 25054
54958 25020 17106
10283 25931 7441
22118 30141 2030
14344 18986 5675
48948 10293 27622
20565 32478 54641
8375 26401 47999
28180 23713 1130
55332 30866 23219
29924 47999 11853
6506 42461 25809
12699 37324 49500
42709 50305 25258
8389 11457 26567
4472 39894 26514
11074 8901 35574
11705 8207 23948
12852 48294 22967
46417 45903 31593
17370 23202 3585
38064 3543 23839
33671 53427 19366
39149 50146 18621
36359 4866 20404
40204 52313 24804
15777 50644 27621
33950 1331 39206
26599 13470 51575
39629 51161 34297
5783 12598 28863
41417 5444 28167
14607 15646 48751
35038 3304 38540
41595 49801 33484
14301 31116 5551
16901 3203 28928
23321 49701 16022
50940 36541 15244
41759 6839 32225
30489 11818 49769
54251 32392 37110
13559 19222 6055
33164 55382 39672
15276 6890 27019
41162 40119 49651
30597 47244 12461
49343 10697 31097
5330 18672 16978
24905 8305 11572
34709 9846 46352
54247 21099 37082
34516 48409 43050
15690 50126 21603
35890 52899 38550
10608 18879 8483
51843 39397 24540
29232 13320 52377
41392 48016 18518
13923 19211 6994
23847 630 38492
34578 4502 19539
40204 53512 30201
16636 40342 9457
49082 11603 27571
21988 10594 10742
17053 46636 43524
20011 54612 36924
21571 34603 54262
33171 939 38551
39632 3711 31313
18119 53626 34333
5672 24165 44366
37034 5651 19309
27076 8355 46758
16335 35568 51659
23387 5594 17376
14831 7006 36767
44426 12099 13180
17130 6493 38417
23605 44872 9313
26860 10083 8873
50952 20638 44790
15332 11326 12950
55229 20489 36387
23094 25390 1367
46260 9131 22178
21072 49264 41246
15776 26473 54582
25541 50818 41852
9945 20111 9710
18702 55275 33382
27713 724 39562
47147 39313 43656
7151 32974 11183
42256 6353 24807
17996 5432 27314
47091 9923 30575
3273 23797 40474
20354 11855 9819
14100 8341 20216
39859 9442 44746
26031 52411 39974
30640 14612 53224
7350 40955 18790
21055 6151 20089
6108 26694 10706
14389 38815 48379
12585 13875 12718
22102 8103 14487
14284 6326 29718
24954 1888 39930
15651 6686 29968
21562 10268 9825
18229 55802 34505
31799 45152 47466
1942 34457 34654
25683 52838 39576
11505 8843 31625
47398 8990 28734
27684 50867 16339
45488 11604 40610
21081 24481 55996
29074 52926 17121
26233 2269 39658
36923 14308 50494
38820 52205 24466
15948 7581 36966
54083 19144 23127
53709 21729 41418
42028 38695 50258
30880 5280 41251
37065 7704 43566
22089 9789 46151
21656 4123 38235
56970 23734 27486
29575 45594 47247
25028 31800 55796
7839 20246 47136
10703 12191 40425
50208 19548 44220
19680 31459 55616
8612 10070 26664
48092 21533 48701
7468 12126 29198
38378 7566 42491
46167 25523 7052
9345 9914 34099
35214 43046 9403
30606 28769 57414
47108 45388 27625
10048 9602 22694
17607 24867 3163
46934 42266 16009
33813 7629 43010
34427 53038 39375
6148 37329 18183
11189 25518 51780
29902 24992 56618
24881 37784 54413
22258 11868 50184
15918 48993 21383
20964 51869 19098
42655 26689 4024
46942 27226 49678
13786 30824 4668
22839 37360 4760
30614 18670 55787
29133 50547 43224
10225 18710 8932
37823 56900 21665
1949 20815 20158
34288 33985 54836
17423 11500 10212
15180 6618 30810
19074 13407 49165
34441 27883 55979
18457 26452 1845
38631 8114 16715
49106 33992 10691
48328 21623 9973
1131 30212 20956
36279 1377 21490
31827 22598 608
38399 43586 9985
27330 49736 13730
2392 25999 40749
37409 54059 36608
28735 393 17289
15881 13090 47091
3481 18704 21567
43823 6734 27907
40779 7474 17866
11702 18762 49990
11933 7704 31583
31971 5149 39583
29320 6321 43412
3099 29646 40546
16696 45419 14813
4705 26682 44830
19065 42760 47714
48251 40800 15934
33345 6803 14444
3500 35519 38592
34202 7369 13575
47197 19475 48816
51176 13858 36850
49373 38173 43803
9521 15519 45391
32798 43650 48740
40176 9256 13729
20726 47464 43322
11684 14847 45740
44302 41147 13246
40055 5759 28142
41675 41752 10154
8039 42363 38486
51341 13287 30861
25478 55424 39268
54969 19697 28707
39017 5421 25867
13902 8741 37284
32049 55296 39934
23779 46816 45347
52390 15397 35336
14693 6470 24397
31431 31796 1885
35026 6706 40604
33947 55020 18491
16856 52118 26321
39990 24324 55065
34018 51852 39411
22248 27545 1698
19507 379 23127
1116 24255 20239
25053 10065 10553
33825 35264 55360
46664 29110 6594
47594 13545 17066
29425 3873 17274
43634 11993 45333
16607 47040 17082
39138 8665 14030
49870 42410 26961
41439 37605 50166
19162 2509 34091
34820 44608 10757
19497 1801 23103
4910 30182 43057
51763 18021 42120
48257 17168 44547
40781 51202 27548
39098 2708 31145
36069 33536 2323
41724 7947 20767
39545 0 30021
16177 11393 11154
18041 1204 26805
944 22784 36059
17738 2227 33129
36012 52113 37681
34172 52537 18163
18106 3864 31355
12658 39045 48233
30839 43084 8457
16921 32855 53457
42917 7316 36758
35382 6135 19617
49683 43989 30808
24275 41058 7044
38251 57041 23930
5269 38964 20479
42629 39764 9101
53797 17350 36460
33983 55822 18510
53647 17921 35732
51941 25375 45549
17219 25416 2238
19135 14307 7784
32319 33310 1486
18660 16391 5098
31858 6642 43657
35141 50921 16674
45345 9392 23047
45764 14303 13479
9229 14488 41964
42557 49611 28040
17943 47986 17239
36481 12827 50561
25730 33443 56402
29130 50110 43705
15001 49887 26077
14816 9356 15407
39451 35953 5823
36899 54560 36486
49767 19878 44733
40114 57151 29383
410 23389 34154
21109 5249 37104
9595 44711 26693
53665 18461 18984
27101 32087 920
46250 47399 31022
33404 8121 13849
28846 44641 49529
10154 24348 7300
30574 2296 18345
16473 14811 50478
48483 36619 12021
39304 51421 35853
21625 44664 11060
31398 24305 1168
37590 5996 36802
51633 36648 41559
33009 5450 38874
40409 12599 48430
4239 30488 15083
10629 16683 46116
16765 47454 41085
8387 44297 33684
32659 49074 14893
27522 54282 18115
42056 33755 5171
47694 10721 24932
2751 20809 19685
22756 5243 37904
16759 45425 43232
37555 9913 12754
31608 5050 39157
39790 6126 33804
38930 50791 21607
53426 33699 19461
22059 51713 39039
32381 50229 16157
45889 13122 13399
10643 11609 18961
48850 30988 9125
45222 11019 18243
38302 50558 20396
18963 9177 12479
50240 32630 46381
43777 6681 29062
36929 42561 48424
51912 38054 20327
3656 15742 33660
17359 772 26387
38640 54011 34903
25999 36333 55257
39484 28338 54346
6987 31226 12129
49305 24524 10244
33549 11125 48287
49293 11343 35111
2786 37478 29322
16804 15884 51426
52693 22723 14730
12523 17035 48201
2875 34589 20004
24155 52132 18539
43082 32304 51654
30766 31572 56128
1738 31184 19943
20662 32725 55583
18147 42679 10742
39445 46453 44239
12581 48290 28566
4164 35301 20406
17741 52978 29170
40248 27982 54453
29670 31480 57020
39772 4923 32802
50194 34711 45442
55073 20251 21966
44634 45607 17897
26489 12462 50324
42631 7086 29189
9895 11007 18912
10793 10144 22221
27204 6431 41655
16489 47830 39419
37621 50754 37902
1338 28128 19489
15058 7147 37602
27520 7102 13118
43119 21742 51843
16629 11225 45117
35433 11357 47997
10062 22324 8532
7643 42561 37079
8544 14904 14267
14698 17480 7591
48057 42787 21603
5940 40900 28856
14133 48628 24516
27728 34312 2613
53758 19080 35913
10221 44201 36406
11269 9140 27452
36947 51432 39330
20675 41062 8069
6801 12797 28944
8268 11452 32342
31899 10835 9601
44772 33577 6563
17552 54531 24814
17268 6385 34887
3338 38372 29275
39251 56 29502
39791 6620 36226
38966 9442 45316
39153 4752 24155
19771 47089 14657
10296 9839 36835
48408 10551 27002
30073 53993 40246
29083 55071 39700
55925 22413 21989
39776 50611 22558
24279 15734 4888
18594 53540 22648
54898 36382 31397
46292 45978 25808
46686 15030 11881
34189 19841 55742
39720 4219 29331
26949 448 18305
49546 26198 10350
38669 2800 32445
19290 8629 15157
36239 55529 20561
31846 47514 44918
44312 8100 31192
30268 42060 51729
39121 2014 30635
41839 10462 44698
36876 3353 35651
28151 2222 18180
29274 19214 55090
22572 45536 47701
38924 53714 23502
41981 46419 15903
37998 4594 22105
25392 4054 40071
31859 51886 41338
23535 4384 18392
13233 8182 33243
39827 43274 46166
29036 14298 53256
50796 13264 28720
48209 11154 20604
27096 45680 10804
24003 8351 11703
27491 45040 10162
39687 57646 31331
38323 45629 45957
14528 25183 53958
45437 10166 17850
37323 8299 14266
28100 18529 1867
15073 39954 48143
11327 43060 15598
25243 55003 17625
34069 50088 42680
32441 38524 4085
45514 29120 6854
24083 3673 18146
53930 26997 40950
25296 136 40009
39382 1806 24693
56518 25118 22458
39796 238 31748
39117 3928 30702
51601 31133 14187
20007 6859 39521
37000 50753 19355
50920 12990 35092
49864 12788 23121
21723 42118 49428
1735 18018 29132
27385 47307 45608
5865 22707 44187
36326 22172 1572
20511 35758 53351
6767 12865 29597
11651 37176 9244
2646 19956 35166
17061 8241 42431
44114 46870 19375
32500 5327 17628
26402 50105 14464
16274 5461 29129
44737 44038 17560
24326 899 38744
936 31167 34939
35352 6454 18052
19137 20764 3575
37453 1451 34865
32011 9207 46101
43821 31925 51298
15387 16910 6322
14159 50296 28497
31446 37305 3207
27839 8345 12769
40390 44281 45568
35727 6032 17169
39547 50529 19693
16390 21227 53023
32681 18889 3018
43097 43120 43722
9383 34047 47849
42226 48278 36211
12092 9454 19171
4960 28155 43426
5562 19122 43320
14141 50000 32809
34298 5676 38707
11728 39383 45700
48627 41041 17320
42890 7386 26080
35149 43384 8443
46561 43782 18636
38737 54385 23070
41746 51233 29598
33879 2870 18545
56603 31837 28184
22842 29931 847
16783 50855 24335
56135 23915 26665
10491 9755 26364
43762 8111 35657
35711 19311 3498
2039 19884 26345
44629 44819 18811
43673 48155 24815
5158 13310 30041
43172 33620 52301
4620 14959 22276
9458 40483 14701
16360 5454 27592
35565 2855 20743
56534 26113 22505
9522 17483 45668
50048 42820 34622
43896 8230 20242
19364 52791 36859
13834 20524 6385
12646 47531 32223
21783 17885 53771
18795 7220 16730
38007 45496 12953
38047 42751 10342
40703 37958 6487
18953 5530 34451
46087 11116 38530
30805 23422 57006
14161 33222 6343
9270 9629 25624
35675 47910 13245
12959 8668 35036
54095 24907 17471
39224 4251 27967
8058 11653 30011
54869 17337 27701
51480 39467 20506
41487 47644 38669
35281 54741 19286
52137 39110 37144
21623 55799 19415
13590 34739 6307
52500 15414 31150
20082 47670 44252
28423 34646 2453
9490 44355 21810
47911 11614 35936
39702 12242 47056
25785 48033 45809
50415 19682 13829
42412 40758 11156
42001 13664 48097
34251 53097 19668
48839 36134 44451
17191 4916 31233
2659 20698 38973
41137 51698 31788
16199 14486 7725
40974 43887 11870
21828 51152 17028
47947 45595 32310
20868 38399 52019
8353 40452 41954
23222 50652 17222
27055 50464 41898
87 24618 29112
19078 57502 35839
53341 35682 19143
40420 45573 13416
9124 44433 25303
27382 26646 942
9331 41259 17979
14280 43673 14754
37691 52964 21910
21210 56631 19728
52282 26334 14035
13112 28973 5744
47796 13064 39686
5313 22187 43150
12540 35940 50208
51299 19827 13273
17724 52105 35390
32798 47951 12276
41426 30128 3395
10008 36550 46203
8814 43995 30315
17195 51895 27227
56586 31492 31577
39196 7872 15561
26282 5926 42523
14117 47348 18514
46566 46279 33500
6293 19375 42843
44026 48877 33664
46677 43696 17836
31188 29329 1204
26097 17839 55394
47485 17002 10806
40154 1929 29705
42017 16583 50977
23899 9828 47058
51557 24903 45255
39552 21471 54700
40142 7954 18614
45256 46731 21206
13254 19854 50514
36585 40152 6250
12790 7090 29730
37262 49405 40659
45511 47947 32062
25574 8102 44565
48570 45280 28898
56239 26531 21707
46962 35970 47468
18470 5369 32695
38579 6981 41076
40222 30911 54686
22726 17420 4199
4631 31238 43849
41184 6354 27581
35678 11709 8110
54297 34740 37792
31058 17852 3344
56402 30867 31528
32639 91 38768
31082 4340 18452
12066 42848 16280
56151 20928 32802
36985 2627 22211
27697 18167 2039
31138 35037 2057
5091 38683 33533
40183 21282 54295
18790 4677 22546
43463 23759 52047
31473 13429 5546
32309 10441 49164
15271 9213 17412
34362 49106 42276
50253 40604 19331
43937 49579 30118
20542 46865 45435
1420 29475 34889
46841 41654 17103
20094 5391 20240
32998 17066 53613
20644 5798 21686
21984 7256 41670
4922 15196 25386
22318 37047 3676
54390 33692 19255
21344 53814 19605
2636 35738 33591
3596 23403 16849
41141 40939 48998
30678 55837 18266
27030 56482 17294
20854 46050 45081
7205 28220 47941
40227 21820 54400
50591 42419 26907
46380 34729 49497
41825 11659 44718
37427 5321 37914
6917 21755 12077
51072 25577 46732
14138 27549 4363
1328 24698 19299
13710 7961 24406
7333 31720 47310
43312 8291 20706
47670 41978 17930
51007 40356 34900
4470 38525 24691
47106 43442 20740
29313 49138 43426
12118 23254 50882
17882 54 29490
3504 36424 25569
37318 56731 22252
46272 19494 49674
45547 38870 45932
45026 11328 40688
22906 32536 2547
54631 17137 31647
47684 38782 43555
24299 46575 12155
6287 39609 20800
52365 16322 19160
14806 11849 12376
38244 36261 52485
34945 25854 55960
17137 53510 26358
27238 24598 1012
25617 47607 44901
2814 35345 30671
40950 51805 29493
6588 40614 34298
15653 28942 54394
55453 27269 21882
43867 22495 52612
47782 39561 42550
30435 54274 18234
23971 36229 3932
25965 6287 14910
8851 37714 14224
14648 19055 6611
52065 14214 26842
13492 46018 38653
45414 19974 6993
19473 35236 54334
39110 51140 22622
32347 46584 45839
27603 14950 4102
20442 7849 15941
14942 45223 41812
12712 26764 4750
7421 43431 32678
35169 21623 55247
51181 33590 14827
871 21844 34949
37962 29978 2458
37208 7033 42173
47805 43766 20055
54884 36612 28174
27821 48603 12487
18191 10183 13202
16143 28928 54650
14042 48405 20737
39041 6489 22226
42525 7797 38749
27003 48266 44344
12544 12413 43206
54396 34424 23591
46900 24588 6667
20541 39486 52283
26446 13677 52629
18191 22798 2330
5760 16076 39444
27939 5760 41398
22276 54957 38756
41778 10049 42228
43689 9075 40311
7288 26000 48178
9449 32673 8632
2687 31813 20642
26808 55138 39576
22491 9779 11626
5198 16007 20457
14910 46421 18069
32469 6151 42597
27294 26703 44
4601 33314 17025
53296 27651 41413
9085 10609 36241
20589 54086 21507
10674 9175 22427
27851 47836 11659
25361 2395 18615
44800 10043 40807
38489 26821 54831
47378 42171 16558
39894 5691 30038
33196 49176 42674
8794 22858 47857
53201 38992 24317
31888 5896 15897
20902 55820 21237
55419 21164 36291
21680 50262 41838
7820 43200 22674
26195 36174 54643
27170 22540 466
35615 49185 16259
1922 31105 35130
41537 13440 48600
54361 20853 17994
7403 11013 29721
12796 47959 30004
15104 12609 47384
4875 38589 25078
28642 10375 8453
47452 17512 10266
23038 55118 39239
17488 2724 25287
33537 10089 10867
17979 47651 41205
53261 16936 37280
9531 43935 23247
34446 12604 50741
9869 10439 32872
40756 6811 38358
32558 50763 42229
19017 3550 35549
52900 15740 35871
6590 18682 42787
4080 16122 30165
36220 38092 4684
39096 2169 26980
38701 49024 41336
44250 20387 51628
13850 38560 49566
41295 6761 24725
44745 24627 6128
44797 7301 30714
48069 15214 44496
39921 45010 13932
19129 50140 17510
12814 13732 11028
26275 52659 17111
56265 30228 22354
46488 14205 13849
44897 8357 36273
14000 13034 47013
15402 9189 15152
31982 3343 18717
2207 24150 19894
20750 27475 55516
15679 51495 25709
17985 6545 39491
33569 53582 39504
40300 13985 48529
40351 19804 5065
31376 7459 45259
57130 25367 31970
7300 43036 33656
40539 46053 14956
47678 37319 11520
7666 20782 11576
16476 49976 37800
49568 42703 36481
33712 11685 50319
42129 43735 12597
37536 48565 41179
27764 41332 5699
12555 46660 38367
52967 28559 41957
16144 5739 34096
15455 49573 23691
20501 30278 56194
8896 11439 38145
54182 18129 31605
19338 21737 55450
46554 31150 7067
45550 19295 48903
13255 11399 42292
32158 44308 9351
47722 14275 43895
25037 5487 17031
38537 42176 10054
42369 47232 40448
39255 625 24451
17666 44779 44763
27135 20 39486
17584 13960 48944
20571 11138 10639
27729 37042 2933
9135 21436 8354
55967 23477 31470
53473 29956 40812
31627 32706 1223
12927 28137 5795
14135 10052 16540
34557 2001 19578
981 30367 29152
11271 9256 26127
22120 7479 43469
7694 14684 16882
19219 46467 14247
22764 3233 38120
3330 20118 20040
26730 17010 3852
1936 27320 20425
48871 32087 10996
30301 7045 15294
47503 11848 20414
27431 28135 1040
27631 12182 6518
38877 44613 11278
25690 57151 17526
16701 52562 31293
6672 23733 10814
23444 8802 46742
9884 42174 42001
50562 16759 40539
53452 20708 40701
20830 28143 55510
3840 38287 34151
16007 36816 51947
32308 51448 41104
56903 29669 31594
41321 36385 6586
20596 21925 55882
26921 25517 887
40470 9707 13288
54924 24147 37063
4296 17376 21551
46864 33170 49701
25976 50261 43337
15799 7502 21764
5492 29446 44154
7520 13389 18418
42114 7302 33940
28475 546 39594
28696 52111 17607
12862 11942 13193
47878 14587 15749
15761 6175 35296
45050 30379 6823
6857 18658 12689
44373 47791 31682
12575 16073 10342
25056 49779 43390
32748 5863 16260
48817 13861 39261
17570 54788 26415
40475 9154 15040
33771 5076 39907
43981 48934 29892
24228 2195 39419
20927 43348 8761
33530 248 39368
43391 7598 26537
17942 53445 26581
24547 50099 43186
6387 35060 42631
43927 33009 51120
29099 4315 17948
51568 36427 39746
862 24394 20961
40474 51216 26028
14596 47080 38328
38758 28420 54643
45570 7754 28406
22943 6124 39762
4971 14449 24757
31629 57253 40219
11428 38145 10190
17996 56110 23797
37124 19560 3831
38721 15977 51090
18773 6997 39244
20304 27454 56325
8365 44651 25914
5001 36208 17013
17123 56977 31479
8514 41782 38303
46138 9865 34688
38717 1508 32229
45239 10599 41294
45973 8221 25665
27083 44199 8133
29971 925 40436
44487 8295 32844
28348 2528 39625
53037 38214 28189
18831 4915 35706
21885 6110 19562
43132 20344 51217
17298 11010 12622
41586 35984 5819
32458 34907 3181
37465 10877 47733
17207 45138 12493
54726 18317 23067
11001 46219 36261
37345 50397 38690
12179 9020 36785
15110 6590 22651
34663 6662 17562
37994 4329 35652
34188 16412 54019
16880 20453 52924
