ply
format ascii 1.0
element vertex 2603
property float x
property float y
property float z
end_header
10250 24516 6433
16909 0 9213
13385 0 1740
9152 33288 7750
8440 11559 4278
9904 11559 7665
9645 11559 6890
8712 11559 4080
8533 22160 7289
8047 22433 9768
6611 17859 8254
9650 34204 8787
3495 11673 8854
10079 6766 9433
10107 12828 7939
3558 4286 14706
3991 8674 14603
4512 9724 14882
3558 5188 14620
8218 28946 7002
1282 10907 7704
615 2829 7942
1021 7405 7633
737 4215 7854
14731 6028 13444
14869 2071 13772
14627 6351 13545
14712 6977 13347
8425 3568 252
9077 2331 157
9159 3605 255
8996 1064 60
8842 4456 321
8429 46875 8498
8414 96970 5814
9691 15019 8503
7176 18396 9247
1927 12156 8142
8372 12172 3254
9552 29244 9423
9675 22848 8554
9878 21738 9386
6455 3418 16293
6635 6750 16083
6678 8165 15982
6793 9255 15932
8649 63008 8636
7476 32296 9316
9751 30628 9511
9565 18655 9683
6160 12475 12133
3876 11673 6016
5522 11673 9964
4343 11673 7625
13496 11721 2588
13827 5255 2215
13735 10046 2603
13097 11575 2285
8063 31258 9783
9881 12023 13008
9938 11673 4979
13259 11673 12314
10597 11673 5986
6752 17234 9233
14361 12156 10511
8553 11439 9803
7969 25673 7101
8110 9249 9684
14992 5128 13203
15111 983 13581
15129 2671 13335
14383 9550 13463
15169 3905 13119
11382 12883 7960
7987 11673 8237
7784 11673 7943
7189 11673 6717
9134 11673 10006
9672 9075 8040
7192 12255 5205
9404 22435 9658
1207 11588 6392
1177 12131 6623
1088 8605 6016
1044 11081 6771
9015 19939 9775
10056 23096 7158
10645 12762 11177
6017 24648 7724
8249 64470 9604
1856 9061 4430
1875 5978 4001
2017 5768 3778
1733 1153 3565
1372 1438 4099
8320 32094 9980
11944 6808 1644
11611 7825 1562
11835 5153 1446
11812 6523 1552
8594 28570 7007
10221 96970 10490
1631 11590 9151
3234 11670 4579
7941 35962 8077
5371 7095 1641
5605 6659 1484
4849 9909 2149
5313 5367 1521
13982 8590 2687
14717 161 2506
14617 2218 2629
14955 698 2801
14800 417 2616
7850 95550 9170
941 2525 5110
1197 2106 4535
1367 6763 4991
967 1324 4853
8608 8971 16560
8396 10213 16465
8345 4968 16868
8402 9418 16526
8529 8201 16620
3085 11559 9091
5279 12041 3985
11126 12195 3947
9110 95550 7253
4733 2916 1605
5253 1771 1241
4453 3088 1763
4796 5430 1790
10183 29113 7971
7362 31212 9778
944 10202 6952
934 9749 6787
670 7295 7250
577 5013 6709
8853 17288 6644
7446 11120 8741
8419 25055 11899
6410 12268 5725
7130 96970 6488
7312 7187 9248
7166 19245 8390
12993 11673 8168
12586 11673 7110
8249 19078 10187
8306 22802 7001
2030 4008 13698
1833 2543 13619
1862 682 13904
2334 5658 13900
2059 755 14164
12635 11203 14750
7908 24443 6930
5788 11893 13728
15530 6528 12956
15501 7663 12848
14920 11980 13083
15309 8729 12972
7382 6188 9722
8197 14878 7216
999 7537 9399
629 2038 9758
870 5342 9655
794 4363 9660
9107 6988 7083
16588 7456 7318
16353 10867 7509
16601 7032 7194
16706 5726 7215
16531 7463 6960
8685 11673 14851
16092 9031 9802
16165 9107 9234
7341 20173 8835
7862 18435 7262
5568 24883 8381
12126 0 1100
7254 12923 8202
15796 8534 12128
16037 8004 11743
16359 3707 11840
16401 2360 11986
11181 24200 9923
8439 48384 8487
5135 12293 9219
8544 41116 8477
8021 27442 7573
9408 23275 10773
3388 11673 9745
13085 12385 9880
4568 12031 12662
14750 5021 14161
14310 9278 14138
14695 5725 14140
14753 3712 14300
7205 5888 9318
9387 16152 7548
8280 13118 9767
5160 12144 12823
10368 12157 4943
7200 12156 2350
8499 29947 9463
14645 11167 12875
9192 11559 14126
8056 11559 10853
8345 11559 11242
9977 18175 9549
7989 4909 8949
297 3946 8422
382 5041 8735
154 2074 8788
258 3431 8383
535 7043 8233
6937 6121 16211
7013 3818 16402
7126 10264 15918
2677 12156 8487
11228 12527 9240
3536 11673 9232
7538 8719 8985
7794 0 87
3710 0 1811
2778 8908 14007
2837 7345 14235
2338 2708 14241
3152 10125 14250
1097 8550 9515
1111 6937 10394
1272 9801 10009
9293 25876 10991
13063 11673 6012
7510 26487 8453
8169 0 0
6351 11673 3150
8524 32327 6839
8304 19500 9575
14517 3953 13948
13973 10349 13797
13926 9686 13916
14409 5168 13924
12544 5817 1418
12861 4540 1469
12284 11160 1746
13159 4136 15113
12898 7944 14942
12681 8832 15015
8324 26965 9412
4929 12208 9738
14685 9841 13686
15683 911 13480
15207 1509 14057
15525 1901 13568
15339 1968 13815
5313 12084 11423
3773 11664 13323
3815 12156 12278
7330 95550 8975
8349 88942 7444
8583 96119 5290
8268 36247 7887
1817 5449 12468
1767 10061 11587
1658 3652 12461
10080 12156 1186
8547 11673 3380
9081 32907 10160
10071 19988 9475
8862 31490 7256
6103 25838 8692
7590 30452 7803
12884 11673 11972
11625 23892 8773
7911 28470 9489
8907 8719 8874
9131 28719 7502
6197 12091 12174
11291 11559 13442
11553 11559 13570
10594 11559 11681
10988 11559 12920
16318 6276 7491
16703 1471 7623
16719 659 7338
16635 715 6833
13267 11673 8558
16843 5260 9380
16699 6611 9624
16891 4576 9415
16381 10639 9651
16483 9014 9810
7721 12156 16131
9778 7698 8835
5069 11660 2816
8949 36254 7872
8190 19524 7201
5486 96957 9928
10605 96733 5849
10149 96970 8043
16393 6183 8770
16533 4357 9201
16486 4968 9141
16209 8576 8974
14832 11603 7497
9787 18030 7442
11737 11673 11654
8972 11673 4464
10982 11673 10800
8456 14957 7576
2496 6463 3887
2433 3072 3529
2901 10977 3920
8573 13299 10307
9360 6396 10139
9599 14193 7712
8639 29570 9716
8119 94919 7431
5704 12831 7902
15560 10357 5852
15655 9587 5945
16058 4036 5805
10364 12156 15544
5287 11673 4455
13637 11673 10204
9339 11673 15270
9358 5638 7330
13242 11559 4374
13027 12156 3059
1446 11100 10309
5314 3243 891
5622 11617 1456
5437 8415 1275
5527 11129 1463
8096 33025 7127
13932 12058 6544
9783 9178 8313
4800 3548 15603
5118 2171 15884
5326 3256 15896
4710 1275 15753
4938 4028 15632
9940 26234 8812
13849 11896 5884
2386 11411 5026
7258 26332 7280
15649 12156 8620
8184 51259 8649
10213 11673 12953
1375 7706 11029
1392 7410 11155
1543 10172 10932
8966 34622 8726
9501 18703 7541
2436 12156 5629
15841 12156 6398
9017 19460 9550
9402 22055 9115
9834 29329 8779
8163 32794 9727
15369 12156 11890
3017 11652 3280
3015 4965 2556
2927 6247 2784
3503 10875 2710
3252 8608 2715
10283 12777 11367
7249 29683 7994
12247 12156 3458
8793 38819 8661
6751 96970 6241
7424 31595 9959
11277 25748 8366
8778 67477 9755
3259 880 2430
3258 1913 2543
3416 9456 3205
7484 58852 9213
10109 21248 9273
2212 12156 7237
9619 76741 8643
10392 96970 9948
6986 23110 7376
8511 33034 9741
13440 11559 6266
7498 25555 7364
6706 12718 5788
8799 13055 6305
12500 11673 3923
809 5432 8527
875 6287 8114
651 3380 8680
7872 17433 9999
6805 24905 11109
7653 11241 16328
6948 5317 16677
7148 7942 16505
7062 3936 16803
3429 12117 10493
11446 9076 1600
10778 273 672
11034 5531 1180
11164 6383 1291
6613 24645 10488
11310 4933 1221
11336 4228 1173
10901 1047 774
15047 6778 4317
14962 7714 4323
15008 6216 4189
8836 13433 7636
7572 55143 8767
9461 12636 6517
11004 11690 13967
8977 8638 7876
5000 11559 13245
8297 25016 5388
3788 10889 14239
3441 10498 13935
2962 8345 13690
3337 7509 14156
9814 24959 7226
2242 11673 7682
1211 10645 11078
909 6958 11066
1172 11691 10702
995 6446 11459
7612 24675 11216
7147 8768 788
6876 2770 364
7287 6018 551
7825 11524 895
7579 9402 768
13652 12156 13671
14069 5336 14246
13858 5056 14487
14288 3481 14228
14264 1042 14518
16600 4600 10888
16645 5238 10591
16110 10099 11028
16292 8223 10935
14261 12003 7208
7929 92243 7518
14544 12156 5848
9861 20666 7371
15277 8331 4923
15847 3776 5271
9617 21808 8459
14507 11671 5324
13223 11688 9026
8917 28164 7646
7705 12699 11982
12585 12256 5392
8523 12244 4882
9320 13541 9867
13418 11673 10380
1914 561 3239
1880 2208 3501
1837 6736 4152
2023 10256 4355
1687 1861 3720
10162 26463 9515
16534 6626 6641
16151 9101 6078
16870 2256 6588
16762 2843 6402
8556 46388 8453
15672 11155 6559
15106 6 3513
14824 3956 3641
14533 7566 3712
15226 1658 3893
1024 12156 8397
9517 29621 9207
8722 26200 7270
8567 29400 10228
4613 12469 10238
11691 5812 15799
12105 5788 15590
12266 2516 15790
11804 2214 16052
9466 81762 7781
16096 8154 10203
15870 9776 10569
16165 7743 11445
16916 861 10844
16457 5488 11106
16573 3163 11328
16801 836 11204
4343 8092 15405
4216 5522 15557
3472 3308 15227
3308 1206 15307
4110 7378 15303
9192 28837 9722
6227 23517 9753
7222 12140 2879
7265 22910 7449
8460 6806 6959
9826 31044 8521
5237 11673 3633
8248 13142 6560
8889 32080 7239
5486 24960 9013
7688 17163 7403
9532 11974 2839
5410 96081 9381
9190 27803 7422
3216 12156 8901
2978 12156 12252
11994 11694 13450
8425 17645 7024
9573 14625 9667
830 3920 7124
1134 7400 6916
766 2374 6768
7934 25231 6947
15434 12156 6590
16076 10102 7970
16113 10012 8274
16759 1374 7954
494 6510 8816
427 5640 9095
882 11566 9162
9994 13543 8192
10128 11673 3280
9823 6521 9741
5033 11559 8256
3852 11559 5523
8608 82037 8596
5220 12255 7179
15095 11673 9812
10694 1940 361
11003 7730 930
10860 10802 1131
11225 9661 1158
14188 11673 11214
6060 95561 9169
10415 24225 8634
7441 8762 8567
15543 12156 7572
13058 12060 8357
6028 11673 13409
11390 12338 4691
8238 48754 8791
3586 761 15551
3770 2417 15528
4282 8995 15275
4094 3000 15708
3084 600 15202
7269 17788 7092
14991 12156 5454
14685 1211 3150
13480 10518 2957
14222 1311 2698
11511 11673 7749
9814 11673 3406
10615 11673 4930
4009 12353 7508
6668 11673 2600
7567 25876 6387
841 0 5357
10774 1401 16466
11485 8213 15685
11577 1410 16205
2941 11673 10274
16046 8341 6903
16268 6005 7061
16377 3617 6689
9801 11673 2016
10328 5106 939
10464 4318 900
10403 4675 918
9915 6061 947
7488 5618 7683
9874 22997 10066
4296 11673 4116
9109 95657 5699
11294 12156 1725
8055 11673 13646
7943 96131 5351
15990 12156 9870
9184 12156 2146
10200 902 17039
10442 7006 16525
10155 1505 16999
10377 2363 16897
10101 3231 16873
5948 12156 15429
1747 4508 12489
1733 2910 12733
1726 6948 12034
1736 2334 12836
4430 4070 1869
4381 6618 2146
4146 4741 2139
3956 9491 2729
8520 22628 7203
9475 14599 8114
11227 9257 1544
10737 10729 1502
10566 7011 1147
11178 8357 1455
5290 12348 8400
14548 11559 7045
9039 22791 7694
9588 33390 8599
7939 29781 9275
7123 25876 6662
9470 13876 8894
7133 11937 4262
8598 11143 1269
15643 11579 8342
7288 11673 2180
16812 577 9337
16806 278 9519
16171 7391 10107
16261 6016 10199
9667 25411 10022
3734 6373 2593
3973 232 1836
3797 5291 2445
2787 11978 8933
15405 10063 5468
15832 5050 5457
15569 7208 5306
15767 4628 5258
9968 30532 8936
10145 6028 9250
7413 25216 11727
4467 12492 9441
7667 2876 16579
7204 2027 16571
6928 1202 16592
7742 6947 16274
7257 832 16673
7613 6437 9969
5959 24572 9024
7899 93263 7450
8614 46055 8788
7844 24366 5951
12226 12669 8468
13869 11673 9439
9085 15689 7045
2611 10244 13682
1772 1935 13614
1944 433 14049
2213 4251 13919
7036 23651 8398
1387 3173 5221
1543 33 4383
1443 1531 4829
1382 3607 5302
9202 26373 6835
5347 12061 5641
8327 8899 7462
2501 1575 3264
2977 4680 3124
3029 1479 2725
3027 9539 3602
3073 4418 2999
5814 11559 12006
3880 11559 7986
5461 96645 7372
9318 5683 824
9381 4125 713
9333 3187 632
9545 9885 1187
12509 11780 11103
14790 918 14567
14310 3636 14752
15163 111 14281
14434 6065 14364
9303 8100 16218
9306 5560 16415
9542 9179 16096
9054 12855 10107
7872 23068 7651
5136 12560 10551
7322 12156 14991
8606 96672 5216
4464 886 1566
4377 290 1560
4838 3792 1627
4799 4415 1701
7482 7627 8995
12934 11673 6756
16005 3291 4623
16204 972 4622
15981 1513 4275
15522 7686 4418
15687 7666 4739
4778 11673 4338
5451 96970 9420
8077 21061 9718
9331 8356 8187
6914 24465 9251
2857 11673 10561
6366 25300 6240
8397 33374 10033
5343 10444 15284
4611 4486 15425
4719 4153 15509
12687 11673 13057
7954 61019 9563
16238 7816 7796
16275 7181 7660
16447 5458 8037
14408 11883 7444
9430 19319 9796
7386 16840 9387
9949 76310 8676
8962 0 17036
8281 31525 6850
8126 94375 7658
7794 16702 10275
1321 7498 6314
927 4096 6676
1385 9221 6546
7236 7426 8673
7605 14997 8899
10277 12232 3702
10008 29073 9561
6675 12279 11642
15829 12156 10987
10064 31873 9762
5004 12156 14025
4034 11559 8268
3657 11559 7224
1589 7022 4600
1505 9829 5239
1481 5766 4599
16849 0 10843
5813 11559 12357
6912 11559 14286
12704 12133 7808
6377 25886 7638
7398 96370 11785
7844 29397 7732
15418 12156 10961
8537 13222 7489
10811 12058 13881
8603 45150 8776
5566 11673 4906
7375 11673 9010
9214 11673 13238
9443 11673 14621
8180 11860 2725
7847 31250 10163
9817 11559 13615
8370 11559 10148
6860 11559 6385
10064 11559 12582
2662 2362 14040
3236 5353 14289
3279 6454 14213
1385 11356 9501
7677 21594 8126
2188 7694 13435
1857 5257 13296
2550 11981 13371
1476 2647 13113
5729 23779 9163
9588 95710 5749
7299 95865 5709
2537 10857 12824
2382 10452 12664
2061 3835 13087
1972 3341 13030
8166 61871 9461
10329 12409 12834
7639 20273 9503
6826 23290 10069
5788 11559 10960
4279 11559 6376
3551 11559 5820
9048 83916 7672
1867 2823 4275
2142 4483 4113
2280 7886 4370
2091 2842 3969
7630 15323 9134
8317 7133 7162
6026 1500 919
6524 1241 736
6208 2241 920
6220 4072 1064
8987 16119 6920
7332 14593 8069
8956 21126 6995
4952 12420 6020
9875 31459 8036
9399 26631 10012
9961 13778 8715
10221 932 16630
9676 2086 16627
9655 2648 16587
9919 5018 16360
7816 11673 10454
7161 11673 8756
7459 11673 9550
15905 1042 13157
15777 3046 13071
15226 11287 12752
14633 11484 13542
13957 5938 2936
14426 3421 3131
14152 2676 2776
14057 33 2393
12296 7288 15364
12247 5423 15549
12787 2366 15538
12734 4179 15408
468 6161 7968
582 7306 7810
777 9797 7808
815 10588 7951
7921 27536 8985
9649 11673 12081
7698 11673 8394
9567 11673 11655
6162 96750 6277
7615 23354 10807
7478 11885 14351
9417 15821 7148
990 8713 10880
951 5082 11662
1189 9654 11258
686 1261 11798
1265 10231 11349
5628 12256 6473
3196 11600 4188
6832 16460 8416
4492 8918 1799
4893 6051 1348
4573 5053 1425
4716 8492 1649
15742 0 13299
11592 24880 7832
7503 11559 5740
8890 11559 8745
11247 11559 13855
8533 14064 9916
11736 11673 13187
5879 12636 11119
10184 20429 9443
5847 12156 2741
8879 25565 11533
4049 12221 11113
11295 12860 7448
3260 11673 6593
10349 24702 9323
7141 20565 9550
8741 65343 9677
7165 15186 9055
7450 9644 16018
6999 8538 16032
7176 9465 15988
7807 95585 5971
5982 11746 4850
2420 11344 12360
8140 12599 10957
6970 31354 9258
7452 10494 8776
9435 13482 8052
7035 95653 6153
2348 5233 13301
2717 6972 13580
1854 1865 13060
2489 2890 13800
8603 71299 8606
1306 8275 10676
861 191 11317
1293 7816 10750
748 547 10881
3429 11780 11286
3532 11749 11581
8941 96970 10210
7869 96970 6823
7080 28395 8733
7962 13305 9448
8793 30089 7826
10288 26132 7282
11539 24094 9108
2321 12156 11528
14169 12107 8099
8911 96502 12010
9739 10963 899
9338 2885 207
9342 10908 832
10221 10486 939
8652 41827 8442
9893 5948 16695
9627 2401 17013
10120 2687 16912
9030 11559 9454
4271 11559 13151
14380 11559 7527
10493 12281 3959
12667 9443 2261
12996 3108 1898
12694 7350 2082
12949 6816 2216
7273 32248 8764
7687 18201 6799
2217 11576 5686
9756 95550 7278
15876 5470 12490
16288 2587 12168
16458 861 12127
16109 827 12817
15593 7237 12745
5078 11507 14777
9968 20373 8679
15891 6745 11286
16041 3661 11563
8935 3415 16590
8542 4811 16483
9218 1900 16706
8636 3123 16612
9016 1633 16727
8276 6693 16338
8241 9272 16140
8582 7978 16239
8232 6219 16374
6589 96467 11335
2846 988 14936
2862 3800 14646
2887 5313 14508
3038 4278 14770
7699 26049 7497
10573 95592 6621
9480 24895 5654
2825 11839 7618
5190 3763 16229
5111 2869 16266
4683 2796 16054
4677 1708 16145
5141 4131 16172
7632 21160 9918
7281 7859 696
6744 4658 532
6938 4434 484
7440 11699 969
10914 23363 7795
9286 24160 10276
2871 11559 6614
7452 12815 7462
8935 67412 9522
1111 9361 8226
823 5616 8897
694 3928 9179
9366 69446 9471
9129 20715 7378
7202 13518 8880
10286 20876 8147
8311 23986 11605
7296 95851 11505
16934 688 6397
16659 3381 6220
16549 2926 5769
16571 985 5352
15919 10511 5716
1162 8948 7497
1272 10011 7327
501 1220 7876
9439 20471 9702
6459 26067 8278
12015 7655 1306
12813 956 1136
11913 8455 1323
11980 4803 1043
12735 2947 1268
11313 11673 3265
7314 11673 12024
8567 11673 13837
6669 11673 10229
11596 12396 7528
9332 13122 6593
11777 12485 11494
8646 90530 8637
7725 15592 7279
3685 11673 10874
7176 25543 6041
12824 12071 12420
11287 95577 7944
9959 17889 10183
8972 7297 539
9175 9212 686
9204 11683 876
7544 20893 9299
9339 9241 7659
6357 11673 13298
7311 20460 9788
11085 23480 9484
9229 70437 9595
1720 11366 6433
13539 11559 9379
13245 11559 9404
5572 12301 10357
9827 5344 8144
6770 18621 9119
4513 12355 6259
10159 17341 8981
12732 11559 5827
11771 96970 7824
8444 23640 11420
9200 33591 7975
8851 12549 4581
5446 12673 6966
12395 11559 4896
13602 11559 7564
7929 11673 6634
10574 11673 13000
1894 11403 11325
11736 24927 8275
8507 12156 16313
9015 95550 8485
16701 7345 8833
16601 8654 8911
17122 1866 8590
16552 9290 9174
16739 6850 8971
12518 11673 9664
12214 11673 8760
10006 22005 8574
4912 10651 2181
5642 9708 1728
5122 10215 2036
7340 13883 8883
11416 12129 5509
5418 5338 15763
4994 1855 15848
5210 2696 15885
6116 25418 6738
17091 2260 9289
16441 10214 9481
16825 5701 9274
9935 20408 8300
494 937 9454
650 2807 9513
562 1937 9384
694 2768 9811
9407 33101 9401
7411 17335 9602
9721 18566 6985
11713 5501 16248
11388 2270 16615
11395 8849 16081
11620 35 16720
11446 1240 16679
6915 11673 5850
5555 11673 3258
6166 11673 2845
7544 7761 16582
7059 971 17033
7559 347 17161
7417 1845 17022
7775 1378 17115
2939 4752 14619
2824 5603 14412
3011 2847 14898
9057 18077 7024
7685 11845 13123
8438 11559 5230
11762 11559 11909
11389 11559 11467
10735 11559 10502
10555 11673 3577
13253 12107 5529
2227 12156 8821
5792 2143 1047
6758 8079 1212
5952 1030 905
6540 7473 1235
7217 6599 7797
8163 11989 900
8359 9520 710
8668 10825 810
8608 11307 847
11673 96300 7132
7888 9620 9545
4026 11559 12426
6086 12810 10360
10845 96970 11045
7705 19898 9387
1176 4232 11280
1209 5005 11188
1621 9373 11371
12794 11746 10577
15492 0 13622
7734 18035 7229
12647 11967 4362
6413 12637 8212
8853 95550 9071
7250 95550 10212
9988 7205 9278
8927 96970 6489
14985 8520 4459
15102 5023 4163
15251 4221 4263
14970 8809 4476
10606 11673 11257
6819 11673 3294
8972 11673 8154
5564 12255 12690
13648 11673 11567
5207 12012 15526
4761 6881 15741
5252 11133 15625
6532 12101 12336
8527 30666 10070
8083 7709 7515
7791 95550 7417
1306 6714 12125
1318 7104 12085
1066 143 12767
1132 2545 12490
1149 6506 11855
9604 16715 10209
13985 11673 11934
6698 12156 2936
9534 30849 9206
7967 5190 7692
8433 10988 9787
9353 34682 8020
7452 9344 8449
5141 12367 11760
13658 12156 5119
15447 9420 11814
16010 2821 11805
15518 9004 11747
9148 21238 9681
8137 26756 9993
14380 0 14741
7896 18311 10038
10560 96970 8894
7535 12156 1221
10391 24994 8174
6517 2014 383
6145 1076 428
6670 10389 1010
6094 2745 580
7425 15690 8536
8896 10448 9776
9080 12027 4076
8555 43597 8732
15475 8983 12681
16014 1425 12903
15775 6441 12522
15936 4008 12620
16209 2045 12415
10023 26480 7544
8507 7453 9991
9951 15794 7614
7614 13113 7958
10125 7067 8887
4614 12474 7055
8372 37671 8759
4648 11564 14437
8640 11673 13462
8617 18248 10233
9268 23534 7199
2652 11673 10298
11234 11559 5164
6894 18054 9743
7840 7603 586
7837 2715 207
7049 3498 393
7909 7046 532
9070 8964 9721
12314 11673 3511
11877 12240 10497
13501 6288 2567
12770 10142 2402
12965 8857 2422
8035 95550 10025
8428 35196 9503
16591 5363 6502
16354 8118 6458
15977 11582 6159
16337 7093 6153
8503 8719 7982
2679 12156 6880
14106 12156 10920
5943 5060 1234
5566 2285 1132
6116 6830 1321
6510 8946 1364
10879 12637 8655
9198 22158 7932
9981 24647 9878
14193 8295 14362
14063 9947 14312
14965 3699 14090
6821 7063 16118
5780 2185 16174
6598 5876 16141
16829 508 8177
16647 2875 8503
16856 163 8349
16701 2176 8574
3334 11985 11049
8975 11673 13577
4589 12106 7285
14717 11607 10270
8937 14440 7272
10830 96970 7981
6996 1526 16578
7492 1232 16679
7447 5001 16379
6347 96970 6680
7250 26846 8683
9903 12537 10910
15434 11246 11417
12878 9174 2389
13364 10126 2832
13892 1346 2381
13614 3908 2423
12847 12156 13505
7851 35630 8183
2279 7038 3583
2347 9848 3857
2085 3547 3393
2247 3863 3213
2400 11825 4043
8197 11673 14310
3063 12156 4385
567 6588 9677
239 1557 10077
170 198 10308
41 304 9438
231 550 10522
5549 7233 16109
5806 7383 16180
6466 10356 16154
5862 8528 16106
5480 12201 10899
11336 11673 4626
10449 12545 10467
10006 96970 11054
12888 11559 7134
13817 11559 8344
9126 13325 10182
10382 18194 7561
13983 9745 3376
14191 8193 3415
13939 9195 3272
9045 84593 7581
7427 96818 5432
10709 95735 10845
8653 53098 8631
17046 2711 7875
16931 2417 7006
16832 5160 7728
16734 5994 7520
16443 10405 7854
10000 12372 11560
10277 32774 8549
8690 18248 10656
10096 17941 7887
6351 11673 10020
4371 11673 4503
4867 11673 6350
8609 86163 8595
7711 28325 9175
6254 12410 12496
8072 8719 8235
7210 2408 16945
7262 71 17135
7933 7022 16701
8711 85911 7745
7573 8994 8069
5953 11559 7726
6884 11559 10545
7362 11559 10873
9902 23842 7512
1052 8596 8305
467 986 8187
744 4578 8512
827 5660 8308
1758 11577 7149
7732 22081 8456
6323 13036 9100
7952 96970 5601
8616 30880 7516
11602 12125 13710
9797 10134 8379
11855 11231 15695
12590 9118 15502
12229 12121 15427
12059 10519 15652
5843 11673 4594
7882 33510 8117
13634 12156 12764
9931 14011 8514
10248 25705 8358
8836 12156 2138
8252 25821 10155
9654 28258 9708
16913 1657 10655
16523 5905 10801
16190 9005 11055
16296 9948 10491
12895 12292 11178
9738 12520 6160
3573 11673 8517
12802 1773 1646
11748 10807 1889
12291 9123 2020
7577 11813 2817
510 0 10815
8281 14695 9551
10304 96970 6321
7466 19408 9433
10355 12775 8318
4342 5873 2103
4249 9542 2521
4278 6960 2254
3449 11673 11920
2675 12156 5032
8566 29633 7085
6406 12248 13233
4117 2634 1960
4045 3411 2086
3968 1671 1976
4169 1043 1771
17205 0 7800
9814 15930 7411
14337 11673 11648
9045 35017 7795
8990 10655 1195
8294 6903 906
8468 5505 799
8042 2691 582
10957 6223 16435
11424 10205 15962
10783 5760 16529
10980 4750 16547
8572 19316 10039
7815 26566 10066
7400 14796 7845
14416 4993 2730
14213 2066 2207
14840 972 2716
14174 2502 2216
7712 21989 7578
7932 17041 7279
10967 453 330
11789 770 621
11308 6378 919
11527 6653 1012
9792 15535 8761
9706 7563 1032
9663 8921 1131
10306 10860 1384
9493 8271 16577
9460 7676 16629
9666 10795 16353
9797 6715 16650
5540 4995 941
6382 11876 1224
5750 10744 1337
5499 2919 786
7342 7453 8360
4708 12156 14525
7090 12351 4120
9633 25871 7400
9127 85340 7747
6010 25601 7428
2786 0 14532
4389 12426 10073
5433 2643 16442
5662 11741 15781
8532 12260 3534
10225 17994 8207
15325 12156 7034
8496 12777 6876
9154 96970 11774
9413 26003 10758
9432 12156 15933
14242 10991 3208
14811 4595 3081
14246 8229 2912
14142 10583 3063
14628 7243 3186
9520 28027 8965
7677 53679 8989
3333 12121 7058
9148 10613 7543
7313 16576 7340
8717 34897 8958
4275 4513 15205
4014 5223 14947
4160 6050 14975
4132 3973 15152
8022 32193 6914
8490 12889 5818
5351 4705 997
5006 9001 1545
5070 11389 1717
5198 5983 1186
7327 23202 8351
9694 9884 8083
9265 7808 7709
9812 6503 7391
12220 2151 1383
12190 1503 1311
12772 1193 1581
12349 1073 1355
6364 95550 8285
10781 12279 5725
8505 17495 10619
1385 4638 12631
1621 9403 12288
1539 7448 12458
1651 7750 12626
10687 12624 9637
6252 11673 2402
15041 5477 3461
14878 7547 3508
15440 100 3306
15164 5149 3588
14965 6078 3436
4436 11673 11792
7717 12642 5025
10237 24436 10853
13006 858 16003
13074 233 16022
12579 60 16289
12268 5011 16020
12158 12637 9770
14242 12156 4279
4108 12035 8839
7593 12970 9520
3798 11673 10060
9640 75717 8866
6804 8983 16369
6710 3143 16809
7431 9329 16442
6794 7670 16470
6640 928 16970
9567 20177 7704
16261 6753 7362
16556 2508 7193
16558 1882 6907
2961 11777 7002
7989 51667 8915
5106 11673 11657
4550 11673 9501
5951 23583 9206
1037 11712 10121
867 9235 10268
1070 11577 10397
594 5608 10329
780 7884 10383
8526 27 378
8430 2281 551
9113 2376 557
9028 5313 784
10718 12666 9108
15933 0 4298
8348 23062 6641
9769 4484 400
9674 1508 153
10390 451 184
10471 4156 486
10278 3437 399
10797 11130 1605
5893 11559 10434
6570 11559 12172
7624 11559 14398
15020 7747 12822
15017 7028 12920
15200 4313 13023
15040 8625 12679
9968 17259 10072
15354 1665 3394
14974 5131 3325
15284 835 3189
14785 8785 3542
8966 28063 7230
10279 29240 8613
4137 698 1271
4830 3697 1176
4703 369 954
5202 6 668
4918 1483 941
9527 27023 7710
8582 12341 13399
9013 11559 10598
7083 23719 9120
7222 12717 5491
7504 15339 8492
7957 12439 5686
1096 1288 12631
1112 4322 12149
1042 5294 11850
1049 2779 12287
6567 12005 14136
9012 14546 9507
8156 1796 17112
8333 2905 17027
8931 1747 17116
9231 5836 16801
8498 791 17189
7791 11667 1894
8827 11407 15819
6656 11673 14446
14017 11673 9682
9810 24338 6078
13098 11559 10345
11766 11559 8170
7320 11252 1412
6282 10050 1527
5774 10204 1705
6645 9297 1348
12841 11880 12732
8577 24459 11351
2479 4946 13517
1848 588 13219
2196 2331 13469
2344 2641 13633
15420 11559 10477
11823 12777 8932
7122 95550 8208
11479 24881 9745
13693 11673 10905
12550 11673 13856
11766 12363 5095
6933 13245 9307
9260 82244 7994
9556 12421 4208
1342 11266 8079
7007 24833 9466
7620 11673 3466
11958 12680 7348
10727 96696 11290
12831 9155 14875
12783 10636 14770
13217 5877 14907
13474 6887 14623
9117 12637 12295
6318 25380 10817
612 8056 8507
738 9675 8273
733 9611 9040
7898 25455 10179
9576 95550 9403
4569 2537 16018
4940 15 16425
5082 5514 16023
4757 2057 16156
9917 25921 9454
11209 9538 15667
10745 7733 15964
10705 2565 16395
11011 6114 16009
5986 12497 7767
2882 11673 7990
5578 11673 8897
6280 11673 11034
7086 11673 13111
9742 12608 12265
9638 19535 8797
8416 30392 7831
10199 12147 13819
10479 11673 2673
11689 11673 5682
5108 12156 13566
6633 3565 16758
6737 10891 16199
6100 4591 16501
5680 1481 16616
6486 1311 16892
7105 5954 8098
11282 24611 9135
6887 12284 13297
7618 23440 9729
74 766 7809
613 5804 6872
372 4080 7556
360 2698 6947
7726 60369 9505
16043 10144 9533
16228 8156 9313
13832 0 1811
5819 24281 8733
7038 12071 4522
3748 11673 4585
7880 18908 7657
12489 11559 7638
5510 11673 12195
7833 12859 5817
9130 15905 7464
9564 32431 7133
8503 12374 5374
9293 33856 7599
7598 59410 9403
9598 12156 1458
10451 23026 7921
13807 11895 11333
5243 11673 13689
11240 12527 8061
12384 12072 6329
2185 8404 12660
2641 9608 13131
2273 7197 12940
2514 7838 13187
6501 13082 9319
14252 11673 8668
6983 20904 8138
8811 43800 8705
6444 6141 16488
6308 3546 16653
6119 4135 16544
6715 18645 8635
8117 95550 9408
9137 382 16823
8868 727 16796
8402 1721 16720
8955 22888 6885
9667 9743 793
9789 7828 663
9286 4641 336
9646 9142 743
7298 19001 7598
8773 43401 8746
8921 36784 8855
919 4633 6915
809 3280 6940
632 1450 7161
9930 12156 15416
9491 23306 6434
12026 12272 9893
9530 6132 10012
7743 14326 7591
15382 3048 13614
15633 245 13635
15269 1160 14017
14716 10135 13604
5925 24180 9656
15533 2287 4402
15328 7243 4840
15715 2892 4863
10549 23312 7261
10078 23418 10664
7479 10139 8920
15633 9563 11340
15667 8819 11413
15895 5499 11542
9079 8189 7763
8657 60383 8621
7320 12231 13641
10535 11673 7085
12819 11673 12429
15846 1116 12409
15571 5301 12240
15625 4453 12278
16102 1206 11893
6104 25762 9376
10272 13103 7165
8155 8414 9271
7999 11559 7181
8555 11559 9049
15973 5857 11256
16313 2803 10948
16319 2206 11075
8983 7891 7618
14308 11949 10199
7306 96078 11669
7484 15949 9146
8223 34403 8270
12323 11559 9159
8577 18906 9830
2860 6937 3488
2445 70 3156
2964 3891 3052
2770 5278 3397
9819 11438 8576
7096 23881 9349
13530 10680 2514
13389 7779 2136
13637 7501 2290
8609 39926 8783
6269 25050 10896
8289 12459 11517
9970 16170 9731
7852 15287 9420
9980 15522 7757
4586 11673 12323
9456 83136 7875
15995 9314 11575
16266 5510 11688
16764 1835 11071
16978 302 10793
8602 62160 8618
15310 6640 3984
15111 11796 4385
15766 2983 4134
15301 7709 4111
6959 16657 7811
13010 12051 9459
10949 12902 10103
5810 95641 9292
4366 11673 4892
4546 11673 7029
4167 11673 6635
7880 34002 9474
2737 11559 7178
10720 238 232
11419 3479 721
11496 9810 1258
10994 3537 588
11610 9045 1233
7604 24711 10150
11968 96444 9258
4299 11673 12068
4859 8498 15206
4400 1131 15607
1645 8223 11660
1378 1971 12194
1497 2939 12266
1665 6051 12066
8695 18880 6845
12432 11559 4227
8846 33484 9983
10190 18980 9280
7886 8719 9138
13087 3850 15193
12956 5773 15105
12873 2653 15462
13115 11795 4840
1868 11665 8359
5526 709 16210
5769 3281 16082
5948 5405 15968
7642 32144 10136
3021 11216 13346
15016 11078 12334
10000 95550 6968
10267 18139 8501
4540 11559 10686
15877 11353 7718
8388 30426 9403
8422 23263 7249
7627 95550 10339
3444 2312 1927
3656 6206 2143
3582 1723 1770
3675 9050 2399
3477 3193 1986
8805 21118 10260
12166 6481 15946
11798 7549 16041
11949 1400 16494
11670 9858 15907
12424 3580 16064
792 2138 10622
991 208 11712
727 1664 10540
1128 6373 10599
7834 8823 9499
9559 26230 9557
15620 12156 11735
17092 2261 8384
17249 216 8946
16920 4497 8480
16806 5986 9086
7883 93597 7638
8629 80205 8586
7977 96970 9201
13805 3686 15179
13233 10702 14928
13595 6585 15056
13206 11807 14842
13731 5182 15090
6025 23823 10036
13784 2417 15314
14040 183 15341
13689 1419 15479
426 4120 9999
162 511 10104
776 9986 9321
444 4741 9812
105 301 9845
10565 12006 3161
9297 11673 5864
11037 11673 9455
10312 12132 3399
11081 11559 10102
9646 11559 6025
8453 11559 3086
5106 11673 6877
6191 11673 9472
9893 26587 9669
10893 10355 1106
10800 5311 668
10849 9113 991
11036 8826 1029
8141 8347 7943
5456 11673 2943
7183 13398 8067
5727 12708 6733
11500 12085 11870
10635 1274 16940
11388 11628 15859
10899 3903 16642
10962 5150 16521
11244 12096 15868
7557 14010 9360
10430 13239 8188
9748 96970 5490
13658 11270 13891
4931 11996 13098
8543 12887 11419
10129 96970 10124
3698 8398 14416
4195 7798 14834
3529 2181 14884
3467 4023 15155
3787 9890 14830
3734 6813 15084
3374 6290 14873
13159 11673 5642
14084 11673 7972
10439 8388 1216
11071 10771 1615
10705 3231 886
6187 24741 7083
10368 5356 561
10292 5923 595
9687 2736 251
6773 11673 9164
6573 11673 8662
5619 11673 6341
8796 40406 8557
9945 12156 1615
7542 32506 7924
10774 11559 5321
12955 11559 9775
8402 9297 7446
7058 5846 8629
2334 1971 3520
9544 35111 8584
10042 11673 8463
7368 23299 6650
14320 6376 3347
14711 2391 3304
14651 4001 3419
10456 24881 8429
8181 23371 6215
16168 9238 8505
16104 10008 8847
16144 9442 8965
7817 25580 5830
5633 23950 8587
9782 77815 8600
2812 11949 7953
7699 17684 10414
7535 29475 8961
7828 22906 10207
9333 8711 8842
8830 35570 8906
7801 26784 9783
8602 72814 8614
8863 34340 9552
10113 25124 11586
7420 7738 8696
6289 11673 14439
8896 96970 7531
13019 12156 13029
10662 23123 9042
9652 11282 8001
1160 2905 4743
1313 5110 4817
1191 5803 5174
1063 3128 4971
9633 33258 9707
8716 16370 9971
16746 683 9706
16619 1283 10218
16651 728 10281
16667 1113 9998
7036 17765 8324
6171 11673 5146
10380 11673 13518
9072 11673 11407
9401 17206 6794
7008 6373 8144
6962 11673 3621
7656 21166 9324
12239 8896 1527
12313 7591 1452
12069 12124 1720
12630 11648 1965
6134 12281 11198
8508 0 17069
4745 12157 12373
7972 51975 8590
12168 12529 10712
12723 11460 2709
10204 11673 2905
9475 11673 2966
8520 33054 10180
11973 11559 9685
8191 11559 2372
8926 11559 3298
4374 12023 10289
4363 12156 3876
9895 7438 8039
9600 96141 11806
8496 6810 10209
10951 12156 15098
6325 12156 15205
8661 47426 8644
7427 12184 3413
12907 10940 14651
12963 8342 14856
13411 8536 14513
11248 0 747
7576 96970 9025
1372 3394 4409
1582 6228 4477
8457 19313 7188
9851 96970 6484
5551 11673 14189
947 5633 5714
532 2419 6193
1045 6050 5512
666 2101 5701
748 2653 5582
9308 10324 7637
9359 11673 5170
13238 11673 12594
10403 11673 7352
3342 7600 3078
3530 6699 2791
3239 2703 2647
7572 6993 7408
11817 12629 10591
3741 12274 7406
13698 11673 9904
14382 11673 10943
3197 11673 11042
9532 9443 9394
6148 12156 14558
991 872 5682
1122 2940 5792
1462 6898 5731
999 2324 6016
7558 96970 9647
779 5505 11028
815 5188 11216
465 1003 11183
1042 10453 10610
742 3426 11432
9192 31084 7032
9927 12046 14185
4687 11673 13315
10173 32566 7886
16121 5185 6271
16136 5761 6459
16421 2543 6552
16032 7357 6528
9147 5306 9749
3236 8052 2670
2989 8181 2931
3229 9722 2859
15715 8268 12332
15786 11319 11676
15826 7211 12292
15981 8273 11808
8656 91482 8625
8304 11559 9334
6694 23041 8257
9215 24905 11651
5180 12530 10841
6201 24950 6597
6429 12905 10250
7281 26120 10276
9523 15233 9272
8640 10774 7425
7724 55490 8812
9660 24305 11235
1621 12156 11297
1537 11258 11811
1721 10928 12227
1829 11267 12382
8751 23951 6888
10829 12467 10499
8067 2358 557
8562 8296 1012
8036 3021 607
8369 19567 10096
1695 3968 13242
2148 8294 13300
2389 11783 13175
2089 10498 12931
2042 10804 12826
10613 18416 8281
15058 10109 12433
16024 591 12148
15705 1747 12579
8381 24899 10436
10995 11673 4698
7776 59819 9470
9354 96970 11185
6021 95657 7257
10691 5875 16132
10712 7408 16001
10686 7058 16038
9189 13187 10510
7806 96970 7137
7493 28647 8222
16413 716 6083
7603 12614 10711
8977 23612 11381
5342 25220 8053
11300 96970 8949
10827 96970 8809
6157 24816 10274
14926 11007 4026
15207 7220 3918
8099 96481 5258
8687 2823 17033
9148 5018 16864
9129 3194 17004
6690 96970 9421
8699 8719 7681
13629 11559 8943
7581 19605 8587
8237 2756 190
8309 8463 629
8425 4977 361
7068 32836 9072
10581 23049 8299
5778 11559 9186
5081 11559 7182
8989 4785 8600
4694 12190 8604
623 3198 11125
496 465 11410
612 297 11809
671 4836 10861
8578 18716 10492
9713 7704 16184
9887 9251 16036
9309 8405 16194
7629 58230 9331
1925 11196 11636
9569 5057 8820
9656 6833 9917
1600 0 3810
7968 15758 9640
8236 11723 16349
8616 7815 16649
9688 15375 9040
8084 96644 11968
8210 11673 3649
11924 7882 15502
12135 6847 15484
12128 8347 15358
11894 10740 15271
10410 0 496
2607 0 2567
3952 8119 15119
3390 4757 15030
4210 10940 15038
3017 1575 14480
3130 4375 14290
2935 2403 14308
2932 3770 14158
9537 79495 8114
9602 32158 7621
12093 0 16460
7466 132 65
6898 286 167
7462 6477 559
9317 30295 9028
1453 2088 4908
1517 4344 5164
14171 11559 5648
7136 32246 9619
1500 6105 11734
1561 1664 12605
1537 4704 12044
3780 11874 5270
15235 5291 12847
14924 6088 13172
14638 8982 13186
9105 12636 6409
9882 75721 8624
3047 8998 14266
2609 9212 13805
2608 5436 14214
3042 8636 14300
7708 22616 7570
7541 11559 4183
8651 11559 6843
8410 11559 5769
9239 11559 6943
8212 12714 6696
8653 13006 7285
6023 95578 9490
7885 6693 7180
9604 71605 9223
9659 12156 16154
12265 12241 4966
8045 22424 7466
9900 32439 8299
9653 11559 13924
7416 11559 8577
8983 11559 12478
6904 11559 7391
8550 31633 10005
8843 32987 9739
2150 10912 5032
1944 10375 5346
1862 7177 4963
1890 6838 4854
10929 25836 9664
7963 96970 6319
8435 26441 6826
10128 12071 4489
8612 82946 8592
5292 11559 13082
4899 11559 12439
9228 33984 8878
9291 14110 9210
5635 5558 15854
6436 10848 15687
5807 9498 15592
8741 7678 9791
13288 7098 1998
13624 1350 1696
13442 3856 1802
12931 7253 1754
14393 11573 6046
11539 4081 16001
11173 2320 16263
11563 556 16278
11486 8666 15648
11003 95550 8024
11926 12056 13248
9763 10931 8252
3404 11559 10378
7742 31779 9719
15101 0 3231
6563 11673 2940
4521 11673 11186
8816 44160 8695
9473 72345 9132
14231 2908 14348
14683 658 14141
14496 115 14386
9131 16794 6800
13849 11673 6410
8787 87012 7793
14350 4446 14623
14922 2277 14287
14310 6761 14412
14481 1236 14842
14254 7070 14434
6838 96970 8391
7711 13566 9698
6813 17583 7734
6887 11559 4888
6864 25445 6070
2861 12156 11512
8789 35797 9481
1450 12156 10751
4283 5443 1615
3986 7133 1991
4059 11128 2318
7448 32039 7229
12218 11673 5541
15117 12156 10191
9498 8237 8469
8528 31190 7343
13242 6531 15317
13358 4702 15407
13642 3126 15350
13717 97 15584
8286 17711 10190
4488 12501 7843
1721 5123 4894
1793 6147 4928
1977 6095 4556
784 1783 6546
695 1142 6659
1357 8776 6522
1455 10573 6667
2615 11673 9567
7746 56898 9084
10279 12806 8898
8698 13634 9530
9672 22588 9508
7808 14274 9673
8128 23003 9675
12719 12156 14290
9717 32826 9835
8203 49879 8856
9932 30015 8727
3335 12156 3356
7032 7005 8605
8565 96970 11300
12787 11559 7550
15382 11666 8452
10985 96970 7226
6138 12132 13494
8925 11849 2767
9007 22738 10130
7734 10993 1270
7082 7834 1128
14524 12156 8943
9767 6854 7513
9610 21020 9384
3658 12032 11791
7716 20526 9599
7109 12354 5667
16297 7493 8566
16234 8314 8671
7295 12156 15654
15081 11641 11075
14375 9926 3225
14153 10029 3014
14612 4696 2894
14000 11294 2998
4395 11987 6792
9011 32042 9958
5008 9961 15602
5268 11728 15582
4735 8835 15559
4738 10229 15441
8290 12358 13340
7456 6748 9717
9584 30165 7852
7998 15035 7752
12060 9931 15702
12985 2828 15843
12570 8176 15593
12325 6740 15842
12001 12012 15553
9624 12739 7032
2806 4321 2695
2651 1559 2549
2496 3387 2904
2541 4003 2925
2728 9433 3328
7947 31217 7529
4221 11688 7295
16856 4008 9913
16547 6820 10481
16828 3292 10441
16593 6883 10160
16956 3241 9659
2437 9798 4404
2386 5745 3944
2547 4443 3552
2441 5031 3775
13826 12201 9500
16499 9974 8842
16469 10371 8623
16492 10067 8245
16619 8414 8518
6885 23739 6276
15816 8283 5097
15468 10363 4766
15332 11249 4650
16177 5477 5330
12081 5186 15654
11795 2673 16017
8518 25294 5328
7634 23589 6039
8836 32931 7471
10016 95829 5773
11696 11673 8773
12608 12179 8363
8373 29232 9815
3499 8498 2474
4006 1251 1418
3417 1181 1838
9733 15659 9086
8295 63845 9785
10255 6233 1015
10445 2053 720
9928 1906 626
8604 36176 9473
7071 96970 6206
9495 35802 8442
5321 12120 6021
2672 11829 3667
2097 12016 4485
2191 7277 3735
2062 8894 4124
2408 9060 3671
12028 96733 8519
6174 24689 9978
7449 2613 663
8004 7590 962
7997 10585 1197
7388 1216 564
6192 96223 6302
3699 12156 4607
9473 12563 12511
6238 12518 7368
8251 16760 7220
11530 11673 3584
10999 95550 9409
12205 11559 10919
6322 2895 518
6414 4670 631
6309 5436 726
5779 2697 678
6442 8963 969
2482 12156 5267
16024 9670 5828
16802 1268 6132
16426 5886 6124
16447 4986 5966
6722 12669 11671
9715 31786 10099
3748 818 15173
4278 6571 15011
3990 4754 14975
4460 3741 15412
9677 28174 7591
8406 16768 10042
2729 11673 5554
9327 20111 7535
16449 2503 10596
10488 11559 11030
8411 11559 6547
7026 11559 3030
10417 11633 1960
12818 12167 5234
4017 9265 2171
4277 10580 2107
4406 8035 1771
4158 11580 2289
7747 34256 9100
5651 11559 12919
4918 11559 10939
8965 24313 5819
7562 13132 9146
8111 4941 8026
9421 30209 8667
16864 2752 10478
17064 1577 9796
9392 81030 7960
3252 8368 13979
3186 9201 13821
2582 3758 13808
9691 22199 7841
7092 96970 11308
5680 3425 768
5608 5904 993
5851 6486 961
9269 20725 6984
7445 11673 11697
9669 5795 9776
6860 12656 5431
8546 761 434
8448 1803 514
7796 32248 9694
7133 19629 8281
6471 12429 10742
6639 95723 10913
8323 12065 13021
9163 11673 8820
11311 11673 13068
10817 11673 12081
10222 18436 7383
5945 11559 6749
1069 7472 9866
1155 9311 9506
1217 10434 9351
9576 73974 9147
8619 41647 8778
5144 12684 9281
5517 11673 10874
8560 39177 8460
8790 41364 8517
3227 0 15317
6167 11765 13921
8023 24327 11337
10090 96970 8496
9926 23260 10478
10395 3551 16399
9798 4317 16434
9902 3267 16499
2312 12156 9238
8603 15810 6954
10181 30827 8743
13892 1982 1951
13919 1357 1911
13980 1681 1986
13439 146 1446
13122 8637 2024
15891 6937 5016
16327 2682 5152
15656 10203 5108
15606 8839 4779
15572 9909 4893
1121 12156 7964
1969 12156 7542
11581 6246 16231
11586 5233 16311
10955 798 16874
7200 11583 15486
11654 25443 9335
15610 10817 6104
15853 6828 5868
15790 10001 6431
10323 31256 8998
11679 24900 9086
13622 11673 8015
5973 12156 2351
7947 8719 7917
2581 12156 9522
8232 18138 10199
16415 11072 9047
16504 9908 8532
16784 6271 8367
7237 25930 10553
15943 7327 10994
16225 1361 11568
6943 12737 7802
16160 11975 6835
16305 11809 7667
16444 9308 7317
9141 33279 7226
6809 96711 11493
10329 96091 11459
2329 11582 8553
7979 23767 10139
5816 12314 4621
7565 96970 10569
10243 12442 6096
13778 8950 14144
14123 10636 13615
14574 2705 14027
8847 25880 7055
4263 12156 4447
9544 34538 8382
8252 8719 7833
13185 9108 15114
13932 2813 15169
13556 5844 15155
9105 28042 9944
9883 23347 7911
6627 12546 10268
11921 9980 1906
12246 10660 2130
9448 23199 9664
9783 7337 16604
9890 8285 16513
9542 11501 16318
9934 9146 16439
9313 24814 10329
7201 28873 9465
5479 11559 5368
4975 11559 3614
8062 11559 12080
13067 12156 2456
16180 3130 4940
16115 2436 4694
16304 1145 4847
15359 10656 4602
642 188 6586
907 2610 6369
932 1352 5982
6894 24014 8905
8178 11673 5958
9968 11673 9324
15771 2562 4917
15623 4728 4993
8771 33562 7270
6881 11559 9858
7904 11559 13065
6076 11559 8026
5538 11559 6678
817 8121 6729
1032 10008 6538
1096 10585 6489
807 6464 6353
5616 11175 15342
12707 11559 9042
11956 11559 7501
9714 17035 10217
13622 1672 2216
12950 954 1659
13150 4613 2153
11214 25689 7698
4486 12123 8016
9324 12232 12329
11388 25671 8873
7817 11673 14611
7196 11673 14457
7252 31540 8712
10146 32017 7602
7235 20690 7553
10123 25096 9639
8816 85526 7575
8407 95550 8896
9562 26764 8743
15863 10881 6992
117 1603 8067
0 78 7973
108 1483 8388
348 4611 8659
34 516 9084
14869 1061 3325
15372 2051 4146
2259 0 14369
5275 11559 7616
6284 11559 10338
9167 16958 10004
5384 12362 8096
10078 29412 7899
1883 12156 9859
11128 95551 9149
11048 12498 12069
12142 11883 3938
802 5133 6036
1300 9676 5633
741 4780 6136
812 4125 5757
906 5140 5717
7703 15903 7209
7788 95550 8536
6621 11559 11833
6447 11559 12449
6894 198 563
7574 2363 624
7779 919 478
7165 780 566
16579 8843 7944
17183 601 7708
17003 2521 7510
17065 878 7099
16540 8790 7672
13032 11559 5078
7594 28254 9693
14713 11646 11789
5793 11576 2149
11934 12483 5893
9819 9750 8642
8624 15488 9775
752 8790 7464
644 7453 7492
837 9767 7412
11704 12706 7023
8201 21192 7037
1157 9972 8633
1013 8089 8894
585 2517 9151
8091 34513 7842
10960 11559 7956
12590 11559 11841
10389 11559 7617
7079 15542 9026
12207 2492 958
12079 1103 774
12903 1950 1266
11975 2248 820
11868 7350 1206
2342 32 2691
2637 8812 3350
2259 1662 2953
14517 11449 12756
9997 0 16751
11501 12156 3206
6560 96111 5988
8938 86596 7656
1087 11867 10361
838 10104 9667
9612 31037 7267
5199 11673 4804
7522 11673 9993
10092 17573 9256
13962 11559 7055
10055 19916 7767
7225 23304 8749
8051 12685 5124
6770 633 617
7324 8447 1137
6850 6728 1079
7055 4305 858
14626 12156 7916
9559 11559 4351
10817 11559 6547
10856 11663 2201
9061 10396 16053
8746 10112 16075
7826 10451 7737
15555 8216 11803
8857 32363 10367
8235 16289 7336
8997 25871 11060
