ply
format ascii 1.0
element vertex 2807
property float x
property float y
property float z
end_header
9582 30308 38497
47383 29966 37107
47030 30028 32009
46923 30046 17057
20344 17509 30759
19763 16766 22323
20005 17075 8589
19737 16733 11163
19718 16709 7585
11531 45584 3844
20670 14703 35049
20453 14034 13512
20600 14486 18499
8755 52579 38007
8473 53090 15437
8980 52171 32377
8639 52789 41248
9220 51734 38116
9376 51452 30609
8628 52809 25677
55175 29589 28919
28392 25285 13136
28566 24857 20573
15608 38656 39479
28107 25974 30952
28092 26006 33625
21646 6650 13057
21807 6539 23679
21544 6722 31708
23042 5682 30012
22468 6081 27602
23625 17801 37184
23720 17876 32959
22703 17074 19959
22334 16782 30864
20239 12210 34013
20282 11839 28582
28283 31333 38772
22308 8610 21285
21617 9317 33589
22251 8669 29314
21861 9068 27768
21468 28004 37502
20911 27828 28802
55199 29372 26828
30125 32206 7270
31967 32436 9326
30306 32228 14771
31692 32401 8633
30897 32302 15734
16218 41154 18910
17055 40081 10391
17294 39776 14372
17273 39803 37764
17007 40144 29179
16794 40415 13369
15757 24514 22095
46257 1898 34247
46802 1888 29026
46174 1900 37187
46703 1890 17497
49719 1830 9059
46433 1895 26049
48252 1859 8370
48445 1855 20596
46654 1891 28131
46616 1891 12883
49071 31730 22113
48167 31888 21126
48383 31850 23195
47347 32032 32436
47526 32001 37073
52302 1703 24989
11868 29778 17202
11412 29923 34102
26528 21562 38525
13883 27271 25163
14304 27228 23919
16490 29165 35626
16859 29178 19974
48479 31834 7087
46555 32171 17868
46605 32162 34076
46558 32171 16668
48653 31803 10175
20032 29683 31090
19431 29537 32121
54815 28607 22917
39127 24143 7839
36466 23396 11052
40302 24472 34790
40065 24406 26696
38385 23934 10679
38847 24064 18858
40429 24508 25921
36539 23416 11804
39807 24334 29118
27533 27188 27325
27949 26308 34346
27598 27051 35621
52595 27628 16761
49469 29562 17174
49716 29506 32565
49137 29637 37875
49545 29545 32057
8867 52204 3054
45643 1236 38775
52389 27355 31633
52780 473 11920
37307 32421 6348
17478 27184 16287
17342 27170 22863
20972 15162 35346
21637 16012 30473
20810 14954 12607
21319 15604 36274
44101 32484 7567
44556 32427 22024
44371 32450 18813
43954 32502 27857
44677 32412 19337
15448 21070 22820
27892 20029 10626
39124 2477 33731
39340 2449 27593
37346 2701 32116
37540 2675 29152
37749 2649 27632
37256 2712 22708
38202 2593 33122
37293 2707 12776
28581 24820 21343
28545 24908 16384
54673 28504 31627
29747 4534 27766
29150 4762 29739
29193 4745 38061
30005 4435 30490
30010 4433 35021
15533 29110 6628
1932 69090 35454
29254 4619 6561
15239 27151 9861
15658 27137 25013
19421 16329 28102
19483 16409 19725
19470 16392 36799
19204 16052 20696
19708 16697 37579
707 69749 7863
22216 8704 34327
22739 8170 14108
21999 8925 32578
22677 8235 18151
37345 25493 38376
18325 11118 8894
18108 13018 17960
18220 12032 20285
18095 13125 13892
11864 43727 4485
29787 20695 26250
27967 20295 34213
28169 20381 27812
28606 20567 28865
27966 20294 12956
28842 20668 25680
27575 20127 12857
27422 20062 30396
27896 20264 18943
27 68521 2857
17461 39575 32197
17354 39702 21470
18053 38877 32576
18210 38693 37562
17674 39324 14573
18372 38501 28303
29603 19643 13927
11523 44158 4546
21794 28112 7031
22593 28425 7250
54925 28706 26352
36659 25292 6684
23558 30063 38775
35682 1485 38706
36024 2062 6308
6840 51848 41293
7069 51433 38706
7240 51122 25459
7572 50521 40919
6497 52471 27378
6608 52267 17544
7404 50825 26396
7385 50859 29673
47190 32060 18088
48485 31833 9412
47767 31959 19129
47074 32080 27749
4079 62772 43548
13300 27367 34285
12830 27448 14252
24876 27790 30215
24519 28370 24099
20554 29843 17190
20553 29843 6963
47809 29891 25312
48092 29841 14434
48658 29742 12738
47549 29937 18806
42926 25113 22954
42440 24996 19449
42147 24926 20732
41089 24672 32749
43876 25341 35255
41470 24763 24121
40863 24617 37679
45694 25777 37802
40691 24576 30574
42695 25057 30619
52113 27185 34946
26765 21768 8229
26600 21698 33282
26998 21868 15233
28593 22548 11548
27261 21980 20421
27959 22277 12182
29031 22735 12891
28474 22497 12243
18892 9875 19129
19112 9472 16309
18905 9852 14490
18510 10577 15186
38007 24350 38766
8648 52593 42110
21812 9117 20722
21273 9668 11172
21595 9339 19669
21758 9173 8364
21072 30008 31874
21079 30011 15524
44251 2018 12313
43652 2057 13361
44983 1970 8735
41388 2205 32604
43259 2083 10452
42184 2154 16106
41697 2186 9255
42795 2114 21844
41206 2218 36192
49725 27527 6308
38916 32788 32686
40552 32747 34238
38732 32792 36945
39915 32763 34456
39799 32766 20616
52498 27474 13846
9863 30432 22169
16937 40233 34046
16919 40255 39327
15523 42044 26688
17283 39790 39229
16160 41228 36524
16796 40414 35377
32210 23805 38547
3204 65114 944
424 69638 26422
29143 22782 31518
30173 23221 21874
29221 22815 19110
28425 22476 23999
29653 22999 21783
29634 22991 29374
26928 21838 36902
11910 27661 23635
11740 27703 26707
38271 25745 6683
38919 697 10543
37482 878 30179
36782 965 23687
37345 895 25519
38765 715 22406
38507 748 11576
37058 931 9242
37947 819 25806
27661 26917 10504
27855 26506 11989
27717 26798 12739
9164 28692 27811
20931 32682 11908
20878 32731 24559
48276 30545 6308
21311 6893 12270
20652 7565 25812
20412 7810 24731
20904 7308 26448
6276 52942 2906
24276 32139 25912
24090 32352 15468
784 69752 3750
18165 13488 28415
18727 15219 34234
18134 13391 19636
18312 13939 37509
18238 13713 31131
494 66969 42617
95 68245 8074
266 67697 38656
267 67694 19639
368 67370 44192
524 66868 25700
233 67804 8567
74 68312 12632
36188 24986 38638
23494 33038 31399
23496 33036 33211
24513 29130 38594
47944 26268 37299
48330 26351 25086
47493 26172 23182
50990 26920 36347
49182 26533 25860
46295 25915 31617
48967 26487 23327
49313 26561 31329
48965 26486 34997
9310 30272 8299
29112 23322 16685
28740 24400 8881
55071 29887 33759
52011 28824 21287
14022 40650 28785
15608 38619 36698
13920 40781 32728
14593 39919 37368
15143 39214 34414
14385 40185 26797
13795 40941 27281
41101 30692 7264
43320 30527 9302
42164 30613 16672
43146 30540 14646
42741 30570 26067
28115 19737 35229
14542 10737 22359
3524 58698 36974
4304 56969 39977
4034 57569 29433
4558 56409 41597
4117 57385 33976
4520 56494 36814
3739 58223 39167
4208 57186 30787
28524 29870 31318
27895 29760 15770
28314 29833 24899
28065 29790 37167
31253 2190 27817
29582 2662 26443
30675 2353 24280
30750 2332 19100
29678 2635 38104
31156 2217 28489
30253 2472 24223
22506 31050 29057
22334 31248 24625
6687 52126 26611
6977 51600 32839
6872 51791 16217
6904 51731 30786
6735 52040 35979
7501 50649 32229
7515 50624 35232
6727 52054 39224
3201 65082 44171
27614 20883 15809
38800 1084 6344
24935 31306 33245
25222 30937 36796
23238 30166 23923
23111 30330 33726
26920 23391 19974
26982 23209 16505
14896 27762 38775
27295 27629 22277
27497 27258 14041
27283 27652 19706
21578 15936 37512
21166 15409 17634
20983 15176 28337
21000 15197 24040
25552 30123 37661
36170 32754 19319
37324 32782 13109
36710 32767 22476
36090 32752 10202
19461 34785 38999
7392 50847 15876
6893 51752 8988
6887 51764 3997
7067 51437 17030
6946 51657 8301
7379 50871 10368
54978 28819 38389
15843 29161 20444
16100 29152 33222
27629 20819 30933
27490 21442 22996
42194 2153 21596
44757 1985 9268
42028 2164 13275
44132 2025 13285
43915 2040 7985
44857 1978 13978
45520 1935 7558
43325 2079 14377
9051 28808 12249
29451 22137 25578
29355 22477 16704
10144 2997 22957
28503 25012 29004
28224 25697 23228
25592 26513 24816
25299 27053 9775
17555 36299 22251
17984 35793 35311
17997 35778 8387
17492 36373 16432
18051 35714 28880
17953 35830 6590
30090 30870 38775
23079 30674 13811
23037 30662 19979
24429 31052 7640
22310 30458 31934
23694 30846 14357
41929 30684 38439
21232 6973 23477
20181 8047 30178
21310 6894 32097
16184 17635 22365
20832 7857 6363
28713 2980 30746
28670 2996 11322
26802 3709 7526
28862 2923 22922
29354 2735 28692
27500 3443 17103
13578 42826 4412
43252 2084 36811
42592 2127 37657
42258 2149 35681
44973 1970 22724
45573 1931 32189
45437 1940 22874
44978 1970 19086
45242 1953 34097
16496 20155 22368
8849 29333 17258
8964 29896 9302
45093 170 35244
42373 348 33118
44201 229 38041
41859 382 34599
41281 420 37341
42321 352 28088
45363 153 36824
41330 417 24066
7576 50512 9406
7614 50444 23589
7996 49751 20002
7513 50626 20270
7918 49893 8092
7630 50415 25717
7739 50218 12536
11448 47569 41343
156 69361 4534
19339 34314 29314
19933 33669 33762
18228 35521 22509
18687 35023 21118
19947 33653 37037
18392 35344 36167
2944 60174 1660
18190 12294 37432
18241 11854 25655
18324 11124 26814
26646 28785 20058
26594 28871 10881
42825 1449 38775
17177 36744 18091
17370 36518 27996
18020 35751 21571
17443 36431 9651
17821 35986 28363
17866 35932 34524
16809 27305 6486
11375 48067 27723
11288 48208 32636
11527 47815 10928
10875 48894 24594
11495 47869 31485
11182 48386 21318
10698 49187 20748
12287 29658 32019
32096 3829 37526
32804 3629 36277
31030 4130 35092
32118 3823 36669
33367 3469 31981
32330 3762 36185
47151 27517 6331
9914 28312 18961
10032 28265 8286
44855 32362 38384
11632 43963 7188
11288 44484 11256
11642 43948 13304
11193 44626 13112
11535 44108 6541
10728 45333 6697
11335 44413 16728
26184 25286 20141
26020 25632 14739
9592 30397 28796
1889 62838 11669
1722 63306 10081
1723 63302 13548
1515 63885 4601
1933 62715 26309
1718 63316 9008
1683 63415 13986
22916 33636 26184
22785 33771 34837
22916 33636 25093
11247 27847 32756
10734 28009 34864
33561 1683 38502
6776 53869 42801
36891 23515 9298
37258 23618 10615
40468 24519 14078
36532 23414 7879
39784 24327 16175
38019 23832 11241
40294 24470 27837
40364 24490 32516
21328 35190 30383
21152 35381 12420
20687 35886 7891
20947 35603 15197
20424 36171 12928
21571 34925 13992
30366 23294 30371
31510 23683 37261
31119 23550 34299
31937 23828 22326
32254 23936 30209
33701 24428 36941
30257 23257 24124
32692 24085 35537
32521 24027 29670
30466 32248 34386
32631 32518 29316
31373 32361 25510
31556 32384 35966
41271 26292 6395
27693 20531 28268
27641 20765 26399
21769 28102 34778
22235 28285 34651
34517 3239 8749
33775 3385 20476
33468 3447 29579
33787 3384 11529
34487 3245 10764
34680 3207 20047
26510 24497 26392
26371 24838 24326
26831 23647 30802
26753 23875 35854
31088 4106 38259
20328 11435 23181
20302 11662 32492
20198 12569 32702
508 66925 13265
613 66584 15110
916 65619 13123
1041 65219 12745
907 65646 5297
1017 65299 4764
450 67108 16120
34777 22878 26618
35225 23030 14026
35489 23119 9669
34187 22677 8264
35453 23107 24327
34699 22851 18034
33802 22546 8859
35269 23045 12565
18634 37744 5671
46230 32218 25217
45457 32314 32519
45519 32307 36649
44633 32417 35217
44050 32490 37007
25712 26282 33877
25884 25920 26629
9107 30085 6798
20754 32844 19451
20545 33037 11627
25251 5249 38775
23540 5335 6974
23142 5613 16941
22390 6134 9157
23420 5419 14620
22851 5815 10871
52135 28775 22071
41698 32682 21401
42559 32618 14422
42370 32632 16415
42054 32656 9862
42790 32601 12335
26908 23425 21326
26954 23293 9257
40416 30721 7878
39336 30747 11024
39416 30745 17556
40803 30711 33866
40815 30711 31993
12457 27529 18774
11950 27652 12543
38481 30769 13563
38261 30774 32372
38239 30775 14443
39190 30751 20008
39494 30743 31340
9253 28607 12968
32225 30423 30627
30627 30224 11804
31533 30337 35037
30396 30195 8695
31477 30330 22336
49591 31615 26106
50235 31469 20658
49375 31664 21711
49961 31531 21123
49850 31556 28752
35715 1168 21639
35788 1154 24710
35700 1171 26864
35003 1310 31899
36023 1107 28304
36124 1087 30606
36111 1090 23183
49260 26550 24341
48864 26465 37044
46344 25926 24284
48471 26381 23049
46700 26002 15446
51259 26977 37114
47471 26167 18569
46902 26045 21955
49822 26670 37394
21070 15287 8418
21539 15887 11291
21583 15942 12295
21400 15709 8045
15268 27150 26414
15250 27151 15729
26490 29039 27360
26628 28815 33826
26181 29543 23480
13312 29424 8725
13466 29398 15066
39374 32776 35642
40945 32737 25099
39328 32777 36139
40588 32746 29901
39671 32769 33821
13613 8899 23101
21448 30156 34832
52608 27655 35409
9003 29969 23856
2480 67272 44558
13124 29456 37551
13344 29419 7270
25021 31197 31457
26909 31626 7985
26421 31515 12795
24697 31124 11392
25119 31219 24341
27261 22300 21799
27148 22696 10100
20724 16375 6308
27668 3379 8890
29323 2747 20355
26898 3673 11368
37435 25544 35186
35186 24913 33181
35999 25141 37140
37544 25575 36027
38488 25840 29340
36063 25159 18960
35187 24913 19258
37975 25696 37829
36335 25235 29713
39083 26007 32882
9867 30432 36482
28675 19387 18050
14477 41302 40381
11333 27820 7756
11418 27792 16847
32540 32507 23068
32299 32477 17843
32364 32485 34270
31099 32327 31561
31504 32378 31062
27195 22533 35817
27129 22765 18641
54675 28505 8788
15536 27141 13173
15919 27128 26040
37212 2718 38047
37236 2714 21637
40577 2294 34881
37282 2709 20219
38933 2501 35891
38611 2541 35562
40055 2359 33805
28200 19646 18145
55178 29570 10071
19472 27463 23210
18671 27325 11460
16190 29155 30352
16570 29168 23276
6216 53021 30043
6113 53226 18434
5692 54068 17537
5508 54436 15025
6002 53449 18933
6114 53225 14321
6261 52932 34148
6255 52943 33182
10620 47895 41632
1586 69484 23716
25717 29523 37675
18674 15054 29964
18832 15541 10414
18668 15036 21027
18461 14397 10769
11238 27849 7285
11485 27771 11972
11185 27866 15336
13750 44486 29672
15148 42541 37040
14865 42934 39442
14259 43778 30122
14659 43221 38872
15257 42389 39043
1979 65188 44758
26620 24227 13029
26637 24186 15719
43059 30546 8946
42199 30610 22443
41812 30639 14802
43476 30515 31190
9137 30132 15520
42778 32602 28779
43671 32535 11804
42308 32637 24550
43017 32584 30906
41570 32692 36480
40821 2263 14637
38961 2497 10558
40750 2272 21730
40235 2337 11756
40238 2336 23567
40477 2305 32101
38865 2509 10010
38344 2575 11591
45875 30217 18258
45782 30229 29798
44548 30383 9509
45922 30211 14813
5375 59555 2573
4924 60671 10085
4284 62254 2864
5350 59617 18791
5353 59611 27510
5272 59811 14538
5245 59878 23193
4656 61335 3248
18202 29227 6600
26860 5690 13725
26200 6026 17699
25825 6217 7342
26677 5784 28609
17518 39508 7408
17541 39481 8884
19199 37525 31839
18612 38218 13445
18364 38510 19010
52684 1440 11396
51620 28872 24667
3666 58820 43555
21235 6992 38314
52491 28503 20304
35502 32171 6308
48223 29818 11696
48722 29731 35712
48263 29811 22561
47617 29925 11435
52485 28815 31614
52618 28778 24867
51829 28999 16738
52552 28796 27021
52783 28732 30873
17886 29265 12252
7941 50800 2819
21215 9742 17369
21081 9989 33172
21021 10099 23756
23286 33255 19825
23361 33178 14494
16733 39324 39893
1059 69737 41263
25732 29278 36286
26061 29353 28451
25293 29178 9407
26580 29470 25746
489 69673 15620
23991 32467 10762
23975 32485 21269
24287 32126 12246
12878 27440 9357
13812 27279 17268
10932 30092 14546
10686 30188 9479
0 68656 14975
51873 0 31268
52668 28133 25972
14538 27204 34793
13866 27273 31410
42338 26825 28275
44888 27437 20635
43184 27028 24862
45281 27531 25934
43319 27060 34059
41846 26706 31982
43652 27140 30940
45463 27575 31045
43760 27166 18753
28560 22582 36507
27273 27670 34112
27307 27608 33619
45427 32318 10923
44152 32477 10302
44644 32416 27341
43807 32520 24062
43956 32501 15705
20469 14084 37314
20147 13090 9090
20301 13565 17364
20155 13114 25804
23980 30383 37989
3132 59662 21381
3449 58876 8175
3455 58863 10452
3398 59003 18337
2911 60208 3041
3480 58801 20369
3237 59402 6381
2582 61023 4868
50789 31343 21973
50067 31507 34584
50923 31313 29968
51109 31270 33135
49785 31571 34074
12 68595 7045
7825 54345 10317
7560 54875 8457
7918 54158 30537
8171 53653 35041
7013 55968 7321
8016 53964 10055
8245 53505 30610
22015 18930 31584
21422 18463 21333
20702 17894 30056
22629 19415 33702
22422 19252 36986
25301 4433 38292
9142 30137 17065
257 69504 32340
23097 7920 12103
24602 6875 22273
24357 7044 20477
23503 7638 7470
38997 31124 38738
20240 29744 20198
20456 29812 8398
41424 30668 29552
41805 30640 32262
41595 30655 30473
41813 30639 19365
43234 30533 35613
6426 52625 42064
18725 29393 22964
11647 5626 23096
21283 32356 33847
21689 31937 35802
18279 29317 20068
18425 29342 10449
51775 28869 9608
28489 29864 36332
28047 29786 37896
28020 29782 30734
27845 29751 21161
28617 29887 20273
25017 31196 17300
24824 31152 15538
26078 31437 17777
25556 31319 13239
12758 6135 22347
54484 30359 11613
45312 32152 6467
18803 29407 10822
14224 29276 9319
14459 29252 26638
50132 29411 27179
49183 29627 31347
49426 29572 28052
49979 29446 29710
22866 30636 28730
22443 31123 12229
8154 49473 15710
8189 49416 25309
8217 49369 13454
8659 48639 21939
8275 49273 28217
8723 48530 30559
8285 49257 10804
9255 47652 28105
13862 29330 25882
13997 29306 12684
9053 52037 8172
9150 51862 7583
9770 50737 4444
8773 52543 13970
9850 50591 21457
9217 51740 12512
9508 51213 31954
26831 4940 6308
22236 6242 7430
23460 5392 12350
23582 5307 17710
23982 30926 24020
24561 31089 14784
23264 30726 27152
22560 30529 35574
23328 30743 30214
51001 1782 38362
46599 27820 13949
47571 28028 24986
49173 28371 6954
48852 28302 10212
45780 27645 14576
48309 28186 14881
48339 28192 18751
47655 28046 22093
45746 27638 12883
49678 28479 9952
46058 27704 25938
20757 10583 20648
20375 11285 33419
20675 10735 7330
5648 58938 37107
6174 57773 33267
6261 57581 33845
5903 58373 21399
5598 59049 32054
5658 58917 10658
6252 57603 38677
47262 26151 38389
9352 28553 28694
54805 30185 6874
31427 4018 18931
30575 4258 18286
30651 4237 19487
30262 4347 10202
31573 3977 23021
30458 4292 28512
18960 37487 39288
26737 5753 32755
25782 6239 31092
25198 6536 22932
25411 6428 28110
26500 5873 29784
22872 29475 6308
14305 27228 17386
14491 27209 12348
49927 1813 6782
25261 30887 22993
25075 31126 18207
32930 2329 38775
44022 27229 11284
40904 26480 16573
40007 26265 15318
41264 26567 17873
40016 26267 8932
41045 26514 11348
40410 26362 9679
40193 26310 24970
40909 32084 38775
31074 23457 6603
43489 275 12890
44337 220 21677
45520 142 27247
41860 382 10219
45163 166 12069
44053 238 25795
45663 133 6948
50705 48 38376
8848 29385 19433
22709 30570 36774
23430 30772 31578
24571 31091 23733
23371 30756 24110
24609 31102 15940
24709 6800 12904
23933 7339 7208
23658 7531 19608
24597 6878 32050
19057 14576 38767
29816 20506 22071
51902 3 10429
21336 28027 6627
29787 19977 24370
19026 34654 20347
19461 34181 37039
18599 35118 17702
18520 35204 37286
18455 35275 12194
19780 33835 37698
19940 33661 34897
1298 67159 0
53592 28505 18128
51694 29037 6876
52853 28712 9314
52485 28815 12797
20290 8231 6438
42473 32624 28131
42755 32603 36682
43480 32549 34414
41066 32729 37817
42793 32601 29932
12198 5640 22015
9089 30082 36443
52902 905 10507
32613 2865 6308
23206 17471 10029
23639 17813 24963
23504 17706 7328
24233 18281 28655
22978 17291 17947
52388 28617 26198
29141 23232 19282
29412 22276 29706
6374 54791 2122
29144 23220 25099
29190 23059 28049
41112 25356 38775
100 68226 19686
416 67219 30672
450 67108 33291
127 68142 36741
450 67109 28007
192 67935 12022
329 67494 31471
169 68004 26524
27288 27348 37077
29595 19634 27597
4596 56326 24530
4298 56985 2791
3832 58017 6639
4432 56688 3121
4640 56229 17206
3663 58392 2412
4707 56080 13833
4737 56014 27594
29701 21080 10443
29787 20696 32090
11996 28288 38775
2798 60488 32807
2257 61826 40752
2833 60402 27861
2837 60392 40769
2727 60664 34616
2458 61329 43339
2419 61426 36372
2396 61482 9094
14201 43859 32261
13737 44505 37507
14154 43924 37772
13447 44908 21974
14523 43409 35294
14466 43490 27961
14135 43950 36801
25867 30013 21840
25940 29907 30150
52652 27760 34743
20595 27731 11458
19664 27505 8342
884 68431 45292
20392 33177 31766
20585 33000 27108
20463 33112 35449
21784 28108 17287
22090 28228 30517
1920 69107 38267
23142 30290 30882
23090 30357 15636
23645 17819 6856
53966 28408 7623
28303 19574 31017
9333 47523 14878
9691 46929 36421
8962 48136 15640
9586 47103 19767
9775 46790 15416
8341 49164 6526
9865 46641 7245
25620 26461 18452
25569 26555 16932
884 69755 39888
47454 32014 29245
48830 31772 15048
47618 31985 27856
48090 31902 29907
31896 3840 6665
12863 43622 40848
8848 29377 30772
40399 30721 14509
40839 30710 28642
40732 30713 23980
40169 30727 19830
40465 30719 19108
23203 30226 7517
31676 3947 24605
32941 3590 14608
32838 3619 17515
31467 4006 28523
33276 3495 9726
41582 26643 36844
45274 27529 19834
41638 26657 30794
42205 26793 31677
44195 27270 32492
44112 27250 22553
41879 26714 33934
44238 27281 17493
42478 26858 31345
41686 26668 37462
28159 19690 21598
21482 35022 27115
20401 36196 8045
21612 34881 21867
19642 37021 8979
20597 35984 16117
18 69023 38014
31933 30386 15356
31199 30295 8792
32415 30447 22847
32097 30407 8430
32484 30455 31314
38959 692 23130
40150 542 29559
40489 499 35267
40449 504 26829
40869 451 31276
38673 728 24412
39544 618 32126
40796 460 18018
54576 30320 32101
9019 48042 39634
9223 47705 30396
8140 49497 18203
8110 49547 26748
9221 47708 39268
8735 48512 20258
38481 30888 38556
5 68912 34574
24170 30979 7159
23887 30900 11815
22732 30577 18064
23052 30666 9029
52802 1276 9782
28368 5061 29280
29416 4660 20793
28897 4858 22973
28525 5000 35377
29870 4485 31091
27298 30508 38775
44495 25489 19420
44230 25426 10455
45619 25759 28068
41171 24692 9942
44718 25543 24969
46023 25856 21184
43633 25282 21727
44144 25405 20724
44062 25385 14308
46052 25863 21849
22889 30610 26804
22548 31002 23077
27039 28102 16836
27001 28173 34881
36339 30880 6493
29267 22835 20626
29738 23036 16056
30199 23233 14096
29639 22994 23913
29433 22906 25442
29092 22760 24526
29448 22912 22407
18738 12929 6308
13788 29342 20141
11509 29892 34521
11952 29752 28221
29006 23628 35086
28733 24419 29366
15698 39352 39996
23885 29305 36516
24231 28804 31854
6241 57626 10723
6134 57864 17284
6498 57058 25900
5577 59096 6726
6324 57441 15551
6352 57381 17127
6404 57264 14702
6379 57320 27066
5139 60140 25143
5273 59806 26611
5089 60265 24190
5400 59493 32982
5031 60408 21376
5261 59839 28928
4653 61343 14513
5073 60303 5902
24445 28491 21661
24466 28456 31610
9410 51391 25906
9847 50597 35939
9067 52013 11237
9539 51155 32743
9700 50863 10765
9224 51727 4809
20799 10507 19482
20443 11160 7165
21082 9986 8595
2796 66441 873
19495 27466 37772
19250 27424 32204
29095 19355 20507
3779 63632 11487
3494 64428 6686
4181 62512 33965
3827 63503 3035
3906 63281 15416
4043 62899 26748
3589 64167 15563
13387 10784 22518
20551 7667 15688
19692 8546 14469
19916 8317 25758
20808 7405 12239
47797 30579 38775
29487 32099 10670
27394 31732 17756
27485 31748 27661
28331 31896 17513
29050 32023 8876
23984 32279 38031
42421 26341 38764
24799 6739 7271
26659 5793 30391
24899 6689 29291
33969 22603 35203
32751 22189 29768
33633 22489 28271
34564 22805 34457
31230 21672 35339
34083 22642 36756
33369 22399 27146
34465 22771 31388
11563 44067 31542
11596 44017 18394
11184 44642 29350
11460 44221 12012
11224 44581 19780
10951 44996 11526
11864 29780 7276
11583 29868 14675
34935 32696 20508
34689 32678 27309
35241 32719 23359
33737 32607 27589
35363 32728 8221
40417 508 36394
39780 588 18130
40513 496 19174
38704 724 27514
39940 568 18557
39350 642 18932
38233 783 33569
25988 4069 36502
24900 4623 25856
25731 4200 29599
25119 4512 35629
25834 4148 28913
20258 10959 38683
51869 28856 23907
5632 54189 28118
5104 55244 10350
5312 54828 41275
4999 55454 24367
5109 55232 12008
5045 55361 31518
5992 53469 41719
5401 54650 40190
24747 29034 37544
24692 29018 38026
24248 28894 27707
24452 28951 34457
23387 28653 17782
1587 63693 43869
15171 39179 23639
15772 38410 34374
15281 39039 8674
14470 40078 8620
15450 38822 27183
15171 39179 13761
48573 1853 33433
51517 1795 30454
50276 1819 20255
48831 1848 34056
50893 1807 22905
50414 1817 15544
48664 1851 26200
51387 1798 16230
50454 1816 27853
49285 1839 32026
51061 1804 20047
44221 32469 32616
45565 32301 21075
44763 32401 35714
45377 32324 35875
46000 32247 33565
1124 64974 22668
1870 62893 38211
1073 65118 26871
1816 63043 28816
1250 64625 32525
1429 64122 36747
1216 64719 42368
1270 64571 26428
1092 65068 7378
49358 26571 18076
48246 26333 12321
51370 27001 6869
51620 27054 8799
48137 26309 10736
50466 26808 22144
51314 26989 22138
50043 26717 25761
51349 26996 16822
48659 26421 8495
12717 29554 23504
12783 29537 22193
8846 29467 28637
17946 29271 19236
20636 29869 24128
20964 29973 16559
8163 53670 10544
7483 55028 7865
7911 54173 6578
7990 54015 28605
8126 53744 17701
7399 55197 17632
15988 29156 7961
15395 29176 7827
29662 21257 23516
29611 21483 19676
36848 24016 6318
21965 31654 37152
21388 32248 31755
50950 26911 27887
51886 27111 26598
50860 26892 9227
51325 26991 17293
50285 26769 16110
49376 26574 9978
49338 26566 13899
51438 27016 31629
51403 27008 29430
51709 27073 18695
48776 26446 15230
29347 22506 22059
29346 22508 23071
29225 22937 9568
35948 2954 7275
33949 3352 12087
34961 3151 20659
34594 3224 22346
26951 3778 6528
557 69697 33226
17057 40080 27531
16366 40964 20269
16101 41303 13966
16585 40683 15431
17000 40152 32899
16928 40244 27990
44136 30434 8735
45941 30209 9625
45818 30224 23619
45209 30300 9094
46064 30194 10156
18301 27268 25699
17951 27232 8641
53780 30337 38653
51716 1791 12037
48577 1853 28255
50058 1824 26516
46853 1887 34632
50951 1806 30109
51065 1804 12705
47347 1877 32730
50730 1811 34109
51255 1800 13363
18136 12769 12416
18307 11269 12077
18108 13013 8993
18127 12849 25538
18132 12803 26228
27534 21243 30687
27511 21346 33217
27508 27237 16816
26931 28302 10697
4608 61454 36156
4299 62219 35520
4918 60687 26164
5297 59748 39517
4557 61579 26072
4211 62436 27733
5074 60301 38147
4241 62362 4629
9359 28549 16238
4646 56214 2837
4809 55852 22865
4864 55731 12924
4197 57209 8893
4625 56261 28972
4570 56383 7842
4795 55884 18786
4793 55890 25969
11777 47431 31349
12785 45903 36397
11562 47757 30144
11855 47314 20505
11887 47264 32401
12161 46850 37666
11748 47474 25625
21784 30288 12644
21685 30249 10702
23897 20224 19299
23278 19878 13629
25036 20862 38133
23227 19849 14831
23280 19879 24990
25149 20925 35719
23797 20168 16049
50240 28176 38752
47993 1864 11952
47080 1882 22828
46786 1888 23251
47723 1869 25276
47237 1879 9213
46762 1888 20340
48118 1862 18839
46715 1889 10173
55016 28821 19812
19470 8814 35631
19272 9177 21050
18998 9680 29369
19235 9245 26619
25404 31284 32085
27010 31649 17288
25865 31389 26281
26695 31577 16182
26130 31449 30833
27914 19993 21029
2286 61755 15431
2678 60783 28925
2605 60964 42678
2391 61494 33584
3261 59343 42844
2387 61504 31696
2303 61712 8090
21216 18299 34489
21022 18147 20392
21534 18551 23257
20638 17844 33401
21633 18630 33009
21141 18241 14856
38406 24772 6308
14410 27224 38261
46865 809 6308
26256 20241 38775
24497 31871 31664
24431 31955 25088
24778 31508 30278
26988 23191 31302
48155 26320 38259
40946 2247 22986
40254 2335 12632
38556 2548 13219
39343 2449 11256
40825 2263 21170
38657 2536 12195
18170 29298 37059
18322 29324 34346
25934 29916 20156
26061 29732 15258
25509 30531 12497
21695 34804 15438
22222 34320 34013
41543 30659 36851
40962 30702 9719
42451 30591 33845
40951 30703 14485
42003 30625 27286
20487 29822 35689
20776 29913 36566
39470 30744 25348
38977 30756 31608
38640 30765 15384
40136 30728 35863
38810 30760 37032
34491 22780 12492
34291 22712 11446
32533 22114 11789
33011 22277 20092
34837 22898 17032
35175 23013 19317
33775 22537 17107
32828 22215 13197
34768 22875 27689
20514 11030 35932
21092 9968 24806
10086 46307 11759
10810 45208 38103
10808 45212 36176
11427 44272 38065
10317 45957 26520
9930 46543 10320
51712 3 37837
45967 116 21697
46332 109 14867
48519 66 34173
48642 63 30560
48108 74 25512
49186 53 37871
46999 95 14885
47994 76 20593
49627 44 37244
46224 110 28635
56 69147 42989
2065 68809 11022
32688 24084 10919
33500 24360 26767
33420 24333 14387
31432 23656 12951
34432 24677 35187
31811 23785 12451
31824 23790 10364
34328 24641 30624
32685 24083 22470
6786 56421 16845
7028 55938 27243
6801 56391 8392
6836 56321 20318
7413 55167 31687
6942 56109 29332
7193 55607 36877
7594 54807 40653
27512 5388 33242
27532 5379 22700
27616 5348 31804
29089 4785 9660
28120 5155 9749
28520 5002 14121
35480 32736 7141
35025 32703 34129
35118 32709 17118
34119 32635 24943
34522 32665 35172
23303 17771 6469
15357 29178 23558
35681 32641 6552
52062 28804 13165
50172 29402 13286
51230 29162 36164
50501 29327 27486
50110 29416 20020
11648 29847 18817
9263 30244 20730
644 69728 745
15153 18677 22634
33111 30525 29990
33774 30574 32804
33845 30580 36301
34543 30632 32016
33773 30574 24314
14537 43392 5110
14488 43459 15709
14848 42957 6049
14890 42899 7055
13847 44351 8364
14260 43775 6632
52882 870 38357
37332 30753 31496
36841 30741 27926
35722 30713 10092
37684 30761 33748
43280 30534 6840
5805 57033 43310
12211 28876 6308
42283 354 25116
41880 381 15485
42561 336 29281
42483 341 32457
41445 409 12113
43275 289 21726
41249 422 30700
39400 32776 18782
38339 32802 19670
38799 32790 11783
39179 32781 8082
39546 32772 9705
28778 24289 23376
28676 24585 10460
9657 48454 3280
12636 27485 14675
11927 27657 11437
15935 26961 23099
26378 3872 9007
26944 3656 24383
26842 3695 28597
29025 2860 36039
26801 3709 28080
25566 26560 32541
25149 27331 17001
639 67826 45201
9166 47799 4987
9300 47577 5906
9686 46938 31578
9248 47663 7433
9729 46867 20687
9695 46923 18563
29044 23519 18613
29014 23606 9018
29035 23544 15048
12451 29618 37412
12863 29518 36204
43639 30496 28227
43998 30451 34589
43929 30460 24366
43865 30468 17666
43596 30502 21259
44872 30342 32338
43714 30487 16949
43761 30481 29324
45914 30212 35756
18577 38259 17818
19350 37347 27688
19264 37449 8689
18853 37934 29348
18948 37822 26624
18132 38784 16194
26835 30504 38775
19478 27464 20217
9773 29051 6308
20041 8188 14650
19694 8544 30939
19742 8494 28772
19914 8319 9344
12295 27569 38226
20449 27696 27022
20021 27592 12274
6966 56061 8965
7091 55811 13799
7270 55454 20504
7097 55799 23739
6779 56435 6493
7018 55958 35257
29202 22972 9007
24337 28652 9011
24088 29011 11461
18495 14505 27033
18226 13674 23717
18455 14380 29764
18686 15090 32513
38577 1920 6308
55169 29639 18061
12545 46268 31289
12325 46600 20152
12095 46950 38503
12487 46354 34747
12664 46087 28607
12264 46694 25433
11838 47340 15691
16912 27149 36038
16406 27132 28589
51829 28862 20098
19377 15482 6319
6364 52726 36855
6124 53204 4297
6364 52723 21143
5676 54100 12599
5991 53472 19867
5600 54252 3352
14900 29207 23719
14713 29226 34460
55106 29801 23573
4937 55577 17318
5000 55450 41177
5721 54010 39127
5759 53934 34422
5252 54948 29806
6031 53391 39364
11217 48329 25246
10198 50014 10746
10803 49014 23366
10391 49695 8629
11462 47922 9249
10939 48789 13753
10992 48700 28390
22336 16784 18922
22658 17038 22039
23592 17775 35101
22382 16821 14615
22172 16654 18135
24951 28507 37628
30943 21564 20164
29980 21153 16487
28525 20532 16960
30798 21502 35004
30143 21222 26006
27987 20303 8677
49622 31608 17384
49228 31697 15246
50124 31494 9861
50326 31448 14913
49679 31595 19160
33338 1640 23792
34308 1448 16681
33956 1518 24601
33039 1700 28320
34021 1504 15775
34374 1435 13552
33474 1613 13897
51521 28863 26114
16237 23430 23160
27867 26480 25960
55156 29103 27532
19749 29614 12600
19965 29667 8456
9313 30274 30850
51889 2 29848
19824 27544 25261
20092 27609 32442
45171 165 14477
44096 236 11793
45087 171 32474
43007 307 16215
43472 276 20081
41050 435 7435
43412 280 20711
45408 149 12755
3069 65602 43992
34105 30599 16664
34402 30621 18008
33888 30583 14119
35572 30709 25376
35007 30666 29781
20464 27700 36510
19790 27536 21369
54091 28390 36969
54619 28483 32353
18456 27288 28669
18447 27287 19226
51642 27931 6308
35589 1193 15534
35459 1219 16350
33350 1638 15613
34706 1369 19044
34483 1413 12737
33888 1531 8995
35512 1209 9549
27904 3289 36884
26754 3728 29916
26395 3864 18520
27287 3525 19502
27612 3401 33415
27684 3373 23109
3731 63769 22552
3574 64206 12130
4151 62596 22666
3533 64322 17633
3593 64156 3860
4057 62858 7378
3834 63483 26547
3813 63541 19558
20278 33293 12088
19406 34241 9550
19658 33968 8467
19777 33839 20096
19610 34020 24988
20115 33471 7104
54836 28623 37649
1994 68969 30412
22742 19504 25128
22863 19600 25955
22028 18941 18189
22642 19425 17189
20982 18116 9984
21392 18439 15896
19310 9107 32325
18403 10775 37170
19084 9522 35756
19384 8973 25650
14313 29267 38129
14379 29260 36361
24063 20317 7923
25262 20988 9782
23506 20005 7968
24730 20690 14329
24974 20827 15054
26187 21505 18509
31176 2930 6308
252 69500 9609
24820 27880 19402
25079 27459 13230
21043 9945 38441
23416 28661 26006
22916 28521 37781
23289 28625 22590
23772 28761 30576
35079 24844 6675
17142 27157 30560
17187 27159 15432
12875 42218 19001
13198 41768 25534
12878 42211 22615
13128 41864 19890
13139 41850 21495
13083 41928 12133
13400 41487 22680
35575 30709 10662
34720 30645 18556
35280 30687 34405
35065 30671 23609
35087 30672 10107
22032 34495 9408
22348 34204 11767
49241 51 22163
51337 10 18543
49008 55 20640
50748 22 30195
50282 31 25844
50626 24 15350
49602 44 10546
48770 60 10895
51500 7 8970
50184 33 27812
49156 53 9330
51670 31143 36417
50134 31492 30752
51522 31177 27087
50769 31347 24000
51782 31117 11410
35842 1143 17246
35539 1203 37737
35023 1306 36232
36618 989 16869
35471 1217 25541
34617 1386 35721
34640 1382 31160
28446 20782 38684
4418 61923 23867
4543 61613 37323
4978 60539 29524
5180 60039 38925
4908 60712 31589
43068 32147 38755
9667 28408 36627
20559 17514 38604
2717 66749 31141
2338 67960 23693
2383 67816 21309
2278 68151 17336
2565 67234 26923
2261 68208 10487
2483 67497 40389
2503 67432 19773
55036 29936 31718
15046 27158 15100
15847 27131 31907
8971 28941 26009
26097 31339 38530
12181 29684 25979
40673 26425 20431
43988 27221 9328
41077 26522 19156
43707 27153 7496
40915 26483 17591
42314 26819 14785
43851 27188 12447
43527 27110 17284
41336 26584 20141
40670 26424 25818
40590 26405 13591
26542 28954 31231
26483 29050 24604
49960 27576 38775
16650 27140 30548
1681 64546 421
2026 68898 7130
19497 37179 25209
20098 36526 16899
19658 37004 11459
20083 36543 19251
20949 35601 37419
19630 37034 28319
20397 34214 6229
10353 49758 14685
9970 50392 29765
10117 50149 34845
10360 49748 31143
10410 49664 33377
9983 50369 12301
5587 55165 2026
26505 26073 37171
35157 24905 10591
36603 25311 33019
36355 25241 34547
36787 25362 21693
37523 25569 27128
35422 24979 36562
38510 25846 37281
39492 26122 35502
37105 25452 37061
29164 32043 20773
29305 32067 29606
28502 31926 29273
28910 31998 21202
24598 28243 10477
24673 28120 18258
47712 26660 6328
23005 7983 22561
23390 7715 17627
24344 7054 34456
23868 7385 28445
1914 62770 36035
1854 62938 37106
1376 64274 15858
1093 65065 31841
1543 63807 36400
1194 64779 27967
1088 65078 20923
1997 62540 37366
52244 1725 31061
2008 68942 17647
16826 27146 17157
17036 27153 30989
35462 23120 6810
37626 30760 18722
37954 30768 28458
36677 30737 12491
20222 12364 21345
20166 12850 23960
15707 38493 31895
14616 39890 17192
14370 40206 6997
14280 40320 9840
14521 40012 11919
14512 40023 10636
55188 29296 16278
19424 29535 11711
19121 29462 20042
21430 29207 6308
27218 19965 20687
27170 19938 18652
25286 18883 31818
26632 19636 26160
26688 19668 26765
14108 29288 8498
14807 29216 14920
14788 43041 29106
15107 42598 29534
14627 43266 24644
15235 42421 25379
14459 43500 8704
14898 42887 11110
22055 8869 12726
22254 8665 15612
21440 9498 13671
2514 67397 25331
2436 67647 39487
2678 66870 33548
2347 67932 28225
2813 66443 37254
2156 68544 13410
2799 66489 39820
2125 68641 9253
24873 30173 37870
22704 19474 13572
22204 19080 13094
22957 19674 28423
22180 19061 19242
1057 65165 34295
729 66216 29272
405 67253 6488
634 66520 2011
1026 65270 24115
623 66554 16735
687 66353 20420
578 66701 4746
16411 40906 37444
15636 41898 39573
16302 41046 23255
15526 42039 36763
15426 42168 21416
24818 29054 18532
24694 29019 23425
23895 28795 16326
24073 28845 24694
24708 29023 26922
27336 22034 15948
27311 22122 18821
39482 24743 6320
10880 30112 36609
11152 30005 17495
31033 30274 24070
32146 30413 36899
31570 30341 22758
32466 30453 33257
45072 1964 30327
44016 2034 21025
44979 1970 28147
43582 2062 28285
43946 2038 36382
45148 1959 36730
45803 1916 19780
42585 2127 36513
45768 1919 27542
52596 251 18719
26003 25667 20712
25955 25768 8424
50846 31326 38237
2372 61540 5881
2693 60748 15443
3086 59776 2513
2693 60747 9878
2511 61198 8471
3086 59775 12388
24451 29345 7288
20487 14138 30875
20410 13900 34384
20247 13400 27204
18819 15502 14652
18780 15383 20438
18827 15527 32540
18847 15588 24439
18515 14564 7364
51893 31088 17045
52125 31023 28177
52618 30885 26892
52053 31043 22558
52235 30992 30142
19420 27856 6334
17268 38035 5412
19260 29471 38369
23542 32984 37612
23557 32966 13565
46861 30057 24054
46135 30185 32437
47291 29982 32710
46356 30146 29729
8948 29866 18715
26381 24815 9083
26586 24312 11363
28164 25842 11627
28323 25454 23606
12651 42529 12057
13248 41699 6855
13519 41321 26589
13411 41472 19188
13565 41257 16585
12126 43259 9503
27864 20075 23834
27029 21881 31898
29018 22729 15921
26593 21695 25441
27982 22287 14047
26708 21744 14294
28440 22483 17974
28764 22621 6978
26992 29564 25285
26069 29354 12807
25403 29203 8049
27350 29645 31462
27609 29704 24856
33641 32599 20379
33052 32555 29715
32820 32538 22289
33179 32565 7865
33862 32616 7455
53445 30654 27157
54291 30417 13291
52573 30898 29708
53332 30685 27596
54722 30250 36152
32372 23957 6754
24695 4728 7162
23988 5087 25694
25181 4480 12639
24032 5065 19675
24096 5033 22356
24114 5024 17590
27551 31735 6715
18098 27247 36505
17580 27194 20035
38188 25755 22767
37086 25446 17264
39663 26170 17510
38631 25880 11768
39592 26150 19031
39019 25989 8683
38591 25869 22334
38881 25950 25945
38856 25943 31188
26991 31470 38609
36650 23447 32931
37969 23817 28878
39916 24364 35744
37562 23703 25860
37285 23626 24915
36153 23308 35885
37927 23806 27918
37949 23812 27088
700 69749 42703
23673 5248 26612
24179 4990 7762
24106 5028 31947
24836 4656 8917
23926 5119 11542
53559 30622 13978
51947 31073 26299
52421 30940 22340
51869 31095 12603
53314 30690 14812
3585 64177 30614
3166 65349 37582
3299 64977 43335
3812 63544 36239
3184 65297 20260
3191 65278 29454
3153 65384 25930
3753 63709 32865
40682 32744 7633
38510 32798 8333
38288 32803 31740
40735 32742 8753
38517 32797 33335
1434 69588 4217
55053 29913 21601
48392 31034 6308
9826 30431 11248
52783 479 29812
24508 18448 31695
25075 18765 14196
25124 18793 12359
26625 19632 9179
24744 18580 19808
24602 18501 13501
31266 21684 22359
32384 22064 35542
32989 22270 37514
31716 21837 16101
32152 21985 15564
33181 22335 28432
31809 21869 34530
20737 32860 31412
21059 32564 36929
28272 21828 8643
24030 28833 14156
24315 28913 23742
24465 28955 24873
29648 19697 17624
25240 27163 18292
25175 27283 31103
1526 69537 23022
13032 9335 22972
3617 58493 29694
3508 58734 38283
3802 58083 22285
3817 58051 29177
4188 57230 35700
3565 58609 8625
3843 57992 17307
3689 58335 19436
47832 31785 6486
3507 60653 1068
19118 15942 30018
19092 15908 24797
19072 15883 34543
54363 30397 31132
53918 30521 33440
53991 30501 26398
53823 30548 36166
53914 30522 31734
28680 31950 6820
8268 51601 42352
35732 30713 15026
37372 30754 30435
35726 30713 24082
52660 28197 22008
18280 38610 20663
17761 39222 24647
17499 39530 11710
17527 39497 28536
17886 39075 38881
18232 38666 33711
52582 28375 26900
1134 69718 10778
1266 69682 30699
32351 1879 20972
32040 1967 16743
32831 1743 34000
31493 2120 21540
31698 2064 13000
31773 2042 26969
28811 19356 27754
27407 21784 34411
27134 22747 31814
1441 69584 42431
29810 20560 35639
20045 36584 29430
20517 36071 25188
20471 36120 35463
7860 53869 2588
28032 31844 27014
27936 31827 26293
27317 31719 16935
28763 31972 13525
28149 31864 12087
26657 29488 36972
26966 29558 32227
25351 29191 20483
26588 29472 33286
52243 1726 20505
52362 27331 17645
35358 3072 25863
36072 2930 36077
36943 2757 27749
34352 3272 33486
35735 2997 32376
36683 2809 23188
37013 2743 33548
35825 23985 6308
52877 710 11434
21700 16092 7358
21567 15922 13717
21949 16409 7005
21847 16280 18432
29885 32169 23085
28230 31879 30586
28360 31902 35084
29732 32142 17824
29490 32100 34497
30945 22303 6308
37613 860 17067
37024 935 12150
36985 940 28146
36815 960 27253
36989 940 25923
39206 660 14932
31885 32361 38461
19740 28140 38775
4457 61816 43364
29825 20428 11158
17953 27232 9754
17879 27225 22848
17952 27232 24960
25194 29918 6308
27699 20180 14510
29668 21020 37049
27303 20012 34171
29932 21133 37887
28474 20511 33964
30592 21414 38162
20510 17721 20841
19686 16668 13467
19822 16841 14881
20264 17407 32611
3586 60855 44033
21297 30097 34309
25687 26337 16546
38106 25732 20478
37869 25666 9392
39581 26147 22035
37608 25593 11053
36906 25395 12552
37712 25622 7921
38635 25881 17399
15604 17191 21966
16199 29155 35209
16600 29169 15259
3513 64377 37677
3361 64803 23691
3503 64407 42487
3877 63362 32420
3544 64288 25061
3094 65546 42972
54751 30228 25852
6538 56970 28968
5972 58221 4173
5960 58249 4836
5935 58304 11232
5944 58281 5319
6044 58062 12712
5978 58209 15638
41122 32725 30903
42540 32620 20222
41771 32677 12925
16676 22110 22487
30931 4158 11828
30302 4335 21254
31473 4005 14513
31462 4008 20216
31108 4108 26952
32169 3808 18403
29392 4268 6341
23366 33173 11279
23171 33373 22060
23090 33457 16731
25311 31263 36482
26420 31515 28225
25720 31356 37399
26179 31460 35538
25218 31242 34705
19375 16122 38514
25013 20848 10983
25201 20954 12300
25916 21354 9982
26109 21462 11798
24792 20725 20448
25685 21224 23244
18784 10075 15723
18655 10311 13066
18499 10598 16476
19057 9573 17563
18356 10861 13927
21242 27933 20937
21710 28081 9354
20160 12907 26240
20185 12686 21874
20259 12040 17471
21982 31636 12902
21653 31975 7725
15571 18268 23159
2194 61985 33401
1678 63428 20116
1470 64011 6314
1547 63797 8488
2080 62309 7603
1809 63065 21873
1270 64570 7926
2175 62041 22666
1024 69746 1348
14940 17141 22682
23688 29586 9649
23613 29683 22060
48484 66 28838
47213 91 19334
49762 41 35939
48572 65 25964
47126 93 25755
47307 89 28964
46853 98 18767
46711 101 13294
47185 92 37437
47804 80 37061
16754 28642 6312
14985 39805 40023
43807 30482 6826
1564 69504 32968
20068 33522 16979
19944 33657 24376
19543 34093 15393
20297 33273 20566
18868 34826 16395
2955 65987 17436
2853 66312 26448
2663 66923 17897
3042 65711 38967
2898 66171 35647
3057 65664 34124
3057 65662 11518
2733 66700 28147
26734 28643 24548
26721 28663 21174
26831 28484 13664
14413 27217 15858
36683 32766 35949
37969 32798 28624
37984 32799 30763
38202 32804 10887
17339 29209 31173
17419 29217 21455
25657 4238 15145
24816 4666 27870
23908 5128 37026
26356 3882 28129
26305 3908 28615
9733 30429 26669
15752 29164 28608
16077 29153 32422
25410 30674 16561
25795 30117 26769
25331 30787 33372
34720 30645 33155
34748 30647 35356
33159 30529 36902
33641 30565 36941
18993 10011 6492
32232 30424 11426
31924 30385 22514
32760 30490 13311
32929 30511 14138
32208 30421 26198
21803 31821 24210
21812 31812 14242
16282 37800 18482
17416 36463 31122
17298 36603 36334
16150 37956 18909
16884 37090 35280
29190 2824 6713
389 69610 29452
22233 28284 14828
1 68829 3345
24718 31586 10221
15888 38264 19485
17162 36763 31917
16203 37893 36644
55191 29320 9431
10378 30309 15652
10646 30204 10734
22940 6938 6308
1896 69141 33891
12733 45982 23543
12548 46261 11250
13092 45436 17126
12914 45708 19211
12507 46324 5776
13153 45345 26351
12722 45999 20360
992 69754 35074
20392 15122 38755
14707 39774 21596
13858 40861 19700
14857 39581 38197
15073 39306 27067
14017 40658 31690
13835 40890 13485
34633 3215 29120
36888 2768 29515
36841 2777 28987
34707 3201 34482
36616 2822 12613
36877 2770 37362
36521 2841 17249
30029 30134 32011
29927 30116 22123
29349 30015 25978
30176 30160 25937
28851 29927 15446
31385 23641 25024
32982 24184 33096
31737 23760 19641
31350 23629 15172
31740 23761 26041
31895 23814 37729
33584 24388 35055
30857 23461 32855
33256 24277 27725
27242 5495 13734
25648 6307 16226
27053 5592 23362
25030 6622 9046
37895 30767 25019
38135 30773 17922
37973 30769 21743
37768 30764 10537
11409 3929 22035
42511 25013 37516
42767 25074 26110
41185 24695 15068
41086 24671 32280
42392 24985 29452
43633 25283 26086
45229 25666 36827
41502 24771 16600
41355 24736 12396
32783 32535 31057
33904 32619 16012
32836 32539 35696
33695 32603 23554
13028 27414 15118
13808 27280 28827
16517 29166 34792
11033 30052 21763
11087 30031 13576
13471 43853 4268
25358 30749 13037
25834 30060 36452
21804 34704 8951
22336 34215 10950
16972 27165 38304
52132 27192 27623
12540 42684 32041
11893 43582 27371
13316 41604 32789
13240 41709 30853
13250 41695 38846
11790 43726 7508
11868 43619 38961
28276 19593 14119
29626 21419 29707
29537 21818 28959
24710 18561 25189
26078 19327 12944
25387 18940 11876
25153 18809 18370
25217 18845 10106
25388 18940 25516
37324 32782 9708
35702 32742 23963
36213 32755 11225
35502 32737 21608
35562 32739 13975
22062 6362 29505
21706 6609 22440
22053 6368 37154
21437 6795 21764
21703 6610 27024
23684 17848 11019
23342 17578 10847
23486 17691 10354
23786 17929 21045
24099 18174 7765
51295 29147 10217
49102 29645 9098
50834 29252 23020
50946 29227 26520
50458 29337 18629
9513 28469 13668
10178 28208 30964
9622 30148 6406
17709 29247 29040
27143 23317 8468
12385 6288 23160
30947 32308 10320
30477 32250 22814
30868 32299 25310
30889 32301 17025
31752 32409 13641
52 69132 21991
12314 42998 18733
12480 42767 26432
12378 42909 22097
12945 42119 37479
12469 42782 36987
12592 42612 29462
12805 42315 29084
19414 29533 28698
12745 27462 17391
13050 27410 28349
42031 26181 6309
48350 27053 38775
9952 46510 26282
10270 46028 21216
11640 43949 38664
10573 45568 31432
10443 45766 19587
24275 30348 6308
8461 49003 3612
21804 34704 36377
21865 34648 26794
13352 45044 39607
12923 45695 23903
12390 46502 10751
13065 45479 5432
55184 29520 19977
17006 39885 39746
21128 7102 6767
10302 49843 15351
10335 49789 23317
10839 48954 25441
10102 50174 40375
10362 49744 36769
9981 50375 38045
10611 49331 27250
52607 28319 37399
37564 32788 28430
37222 32780 19591
37717 32792 15416
52841 1187 19482
5523 59216 9255
6479 57100 37482
6410 57251 34075
6199 57720 34310
6051 58047 35195
5708 58808 22967
23494 7644 26000
22934 8033 36965
23846 7399 26448
24509 6939 36982
23686 7510 35933
13772 28395 6308
22530 34033 28217
22570 33992 21854
26294 25026 25156
26433 24687 36182
48705 62 8880
49772 41 7633
48680 62 17110
49308 50 22926
50979 17 7978
50422 28 30556
51281 10 13801
49593 45 21562
22850 6268 38739
26912 19793 19082
26505 19566 28585
25661 19093 37673
26781 19720 29808
8895 52324 36802
8414 53196 35094
8343 53326 11536
8567 52920 14361
8597 52865 12093
8468 53099 16642
20229 11175 6464
10523 28075 33118
10867 27967 24515
46402 290 38620
20892 27822 26637
23499 29830 26832
23579 29727 16900
27707 20470 18089
8712 49950 2989
23866 29332 9111
24397 28564 32745
24293 28715 24312
53305 28586 36774
51625 29056 28142
38401 32647 6492
27084 29585 19839
26310 29409 13630
27153 29601 17195
27094 29587 16002
23161 30611 37982
1938 69081 6059
9648 28416 11850
10411 28116 16601
30852 2303 14229
32039 1967 25783
31754 2048 17592
32289 1897 25159
30649 2359 12449
32160 1933 20202
3344 59816 43798
34574 24725 16062
32185 23913 12973
31110 23547 12205
33135 24236 16676
34451 24683 30108
33537 24372 13288
34811 24806 9925
33887 24491 24422
12348 43225 4435
30549 21395 29735
29918 21127 14452
29534 20963 16863
30963 21572 31126
28993 20732 9837
32971 23226 38775
23726 29535 12358
2786 66528 11433
3069 65625 7494
3044 65703 25514
2633 67017 11875
2964 65961 24990
2799 66487 19941
3001 65843 38444
2447 67612 14367
46713 721 38775
18258 11705 19625
18353 10870 24026
18161 12554 35182
18116 12949 37539
46930 27891 36022
49144 28365 33717
47268 27963 33031
51306 28827 28558
51328 28832 8737
50801 28719 22723
50229 28597 13689
50425 28639 22366
49334 28405 27307
53903 28418 21277
52313 28863 11294
52255 28880 17022
53183 28620 24062
12156 5153 22144
52602 1527 9066
38395 23937 33790
36637 23444 26282
36797 23488 29508
37502 23686 20892
37134 23583 30423
36113 23297 20675
36545 23418 28553
35631 23161 37306
37580 23708 33457
46167 27728 18031
46390 27775 15677
48797 28290 19581
48040 28128 8500
49788 28502 10474
49394 28418 12054
46863 27877 18007
45565 27599 34211
46679 27837 8758
46928 27891 10133
48090 28139 6980
11778 27693 17981
12382 27547 32340
9010 28876 29404
5567 58955 43185
20332 13660 14809
20581 14429 25762
18753 28532 38775
44867 25579 8190
45326 25689 7928
45885 25823 36254
45613 25758 20142
42267 24955 10539
45921 25832 11782
42717 25063 14340
44497 25490 11902
30022 30133 16240
29794 30093 28437
29540 30049 23418
27836 29750 7370
29781 30091 15033
27673 5326 7386
28100 5163 7059
28982 4825 8515
28018 5194 19296
30160 2498 34721
31865 2016 32059
29837 2590 36571
29828 2592 14435
31737 2053 34545
15708 19922 21996
50715 28701 13570
49427 28425 30451
51256 28816 12669
47633 28041 37410
46448 27788 34049
50093 28568 37596
51361 28839 25537
47614 28037 29646
51364 28839 18846
21542 28027 29692
21232 27929 13417
24724 20687 33390
23928 20242 22055
23465 19982 18832
23427 19961 30101
23404 19948 37791
24410 20511 23083
24841 20752 37487
