ply
format ascii 1.0
element vertex 2750
property float x
property float y
property float z
end_header
38057 17907 54577
38057 24264 57608
38057 17013 53846
38057 19813 57319
38057 22143 61267
38057 22407 53842
36993 11551 7285
36993 17391 4325
36993 14161 5750
36993 16229 6394
36993 3805 10046
36993 15797 5486
9581 52835 45452
9581 54267 42567
9581 55776 27064
9581 54952 43351
9581 55497 33678
9581 53245 46748
2567 61968 25882
734 62427 29366
0 26606 6863
3344 27459 9393
31395 27056 9703
28277 26892 63526
33300 26652 63625
25680 26486 63694
30261 29222 6881
14375 29176 6991
0 27708 2698
21719 24593 64103
24175 24811 64075
0 22082 6452
0 21643 8252
0 20403 4584
0 17314 7209
0 20507 8055
36993 18742 2905
36993 20353 2790
36993 22037 1565
36993 6123 10093
36993 7935 9457
36993 19277 4219
37199 22207 51839
26635 19330 51839
23803 19208 51839
17317 16645 51839
28668 20949 51839
30577 17272 51839
31285 16994 51839
19666 17017 51839
36936 23495 51839
31912 18966 51839
36783 21467 51839
24637 14431 51839
799 20103 63175
799 332 56888
799 12868 60064
799 16087 62070
799 5777 59338
799 12311 60595
799 12349 62074
799 13410 58824
799 10241 63344
799 8982 63252
799 126 63053
799 22129 63555
799 1409 54877
1642 26752 9880
5521 25680 10324
18254 25717 10309
21671 27868 1687
16136 27907 1717
2322 29324 6479
19933 29399 5913
35241 17643 10500
27601 19369 10500
10894 24201 10500
28660 23061 10500
32933 18610 10500
30485 20617 10500
35625 15629 10500
36356 22356 10500
34399 24160 10500
33808 17041 10500
21202 20611 10500
21465 22704 10500
0 14153 11109
0 16795 16996
0 18999 15421
0 19642 22097
0 17529 14583
0 14260 32951
0 19069 22058
0 19896 15618
0 16043 17194
0 21920 14244
0 17312 15475
0 15474 14667
0 14610 34095
0 14326 20527
0 14800 31716
0 15116 39453
0 16423 25927
0 15951 28253
0 17902 36120
16359 17374 51839
17175 20630 51839
12526 15264 51839
27598 22846 51839
23229 22516 51839
9984 14621 51839
15099 21305 51839
15755 20723 51839
10940 15465 51839
11131 21670 51839
15900 23694 51839
11342 17942 51839
22285 23289 51839
9581 47422 13563
9581 47384 42408
9581 48929 24194
9581 48083 39654
9581 47971 15934
9581 47701 36099
9581 51197 17850
9581 49541 27070
9581 51288 13878
35511 25975 564
36377 25742 468
799 28794 59419
4646 61368 37947
5933 61341 38014
22053 0 35025
2035 0 50263
19458 0 36028
20576 0 41473
4099 0 47899
25439 0 34627
8379 0 39612
27090 0 21762
14687 0 49732
22755 0 22529
25292 0 22372
18074 0 28273
18330 0 44943
9197 0 49864
16913 0 43989
25013 0 41320
11499 0 45330
26042 0 43095
10972 0 41666
15736 0 38471
11577 0 37957
12782 0 44373
12901 0 48190
27479 0 50506
9649 0 48750
26836 0 45700
26377 0 40685
22321 0 20658
21942 0 25448
19356 0 32059
27051 0 32135
25502 0 46884
17913 0 38090
16163 0 45966
25587 0 15173
23443 0 26553
20037 0 23987
26045 0 25082
13943 0 44250
17868 0 43345
26413 0 29897
9091 0 46618
12530 0 46614
25264 0 17583
9750 0 45524
10293 0 48211
21963 0 32883
555 16432 64138
0 25238 4794
9581 60919 38922
38057 11736 58468
38057 14171 63988
38057 18353 62168
38057 18417 60587
38057 10916 56019
38057 5667 62040
38057 17871 60093
38057 11807 60397
38057 17946 59378
38057 19348 63258
38057 11446 57202
38057 9165 62884
0 12389 2529
0 12660 6790
0 12840 8666
0 8895 3197
0 16469 7332
0 15564 6661
0 16680 1724
0 20358 3476
0 11169 2567
0 13058 8154
2894 32542 10500
4666 29866 10500
4329 31589 10500
4962 30832 10500
5555 30490 10500
3662 56038 46224
7146 54087 47722
2922 23910 10500
3307 22654 10500
1659 23694 10500
1055 28651 10500
555 14552 10500
4545 15293 10500
5011 14347 10500
627 21910 10500
2152 16231 10500
9581 45762 45161
9581 44305 39514
9581 44815 37495
9581 46835 31337
9581 44480 43099
9581 46993 25615
9581 44650 38998
9581 45327 36767
9581 46053 21800
33691 26930 52467
28109 26634 52345
21777 26690 52368
0 49116 41758
0 49718 37790
0 49588 48145
0 50562 30377
0 52325 23111
0 51456 35412
0 52087 47662
0 51805 20218
15531 28375 8473
2415 28256 8628
9581 40502 35138
9581 40800 50062
9581 38879 45894
9581 38216 45636
9581 38523 36357
9581 39836 41363
9581 40963 36091
9581 41719 18847
9581 40156 40516
9581 41442 27343
9581 40892 39046
9581 41549 33615
9581 41783 46612
9581 39867 25775
2100 0 51880
19287 0 52174
35095 0 61073
28860 0 53329
31980 0 60777
19715 0 54039
15795 0 51794
20823 0 57635
26197 0 56861
17853 0 52415
33226 0 55288
24501 0 52758
33573 0 60450
29553 0 60112
21607 0 54836
37432 0 54952
13532 0 55548
27299 0 59433
34815 0 51850
27476 0 60266
9581 54251 34354
9581 52970 37433
9581 53343 16874
9581 56261 18241
9581 55753 17783
7676 51149 49559
8361 49959 50052
7486 49199 50367
7856 47620 51021
5877 48526 50645
26637 25429 63993
29515 25057 64042
33231 24907 64062
0 57004 27643
0 59141 21553
0 56857 24015
0 56997 20152
4832 43147 10652
2147 42703 10594
254 45224 10925
14306 27613 9275
29989 27537 9333
799 24365 52452
0 595 63042
0 10538 62722
0 2770 62271
0 17792 62057
0 3426 54367
0 6359 55360
0 4552 58055
0 3815 63371
0 3139 57203
0 13930 61281
0 2642 60833
0 14983 59450
0 8299 60211
2377 14105 33746
587 14105 36141
6660 14105 12065
1178 14105 34375
1990 14105 40208
4291 14105 26148
2235 14105 21593
1127 14105 46190
2617 14105 30278
2464 14105 25834
199 14105 45430
1717 14105 42584
8719 14105 12968
5413 14105 22751
723 14105 30123
1853 14105 12385
8368 14105 11291
7957 14105 16198
799 27169 55826
6322 30277 59510
19199 30371 58800
9581 17075 17933
9581 15656 31431
9581 15124 36750
9581 16599 33567
9581 15762 16835
9581 14545 48920
9581 14295 11960
9581 15536 30410
9581 17693 32463
9581 20132 16234
9581 15666 24909
9581 20401 22185
9581 20268 12079
9581 22709 10884
9581 21840 18198
9581 15116 33918
9581 19467 14636
2071 61707 25209
4537 61301 24231
38057 28879 58354
14812 25288 64012
10134 25117 64034
44266 12078 44079
44266 5468 18435
44266 11523 11370
44266 13654 50015
44266 11086 31925
44266 9486 35465
44266 7005 15834
44266 9177 30746
44266 13687 49216
44266 11101 15519
44266 13610 16094
44266 6041 12765
44266 12731 30715
44266 13185 35374
44266 11838 34444
44266 7522 23761
44266 13766 41890
44266 10448 10941
44266 3312 11680
44266 10464 36806
44266 8417 19305
44266 6600 21890
44266 13390 33184
44266 8351 33845
44266 8255 31104
44266 12023 38613
9561 57655 17916
5559 59058 19744
2773 59443 20246
7822 42473 10563
7120 43206 10660
1895 45271 10932
8879 57893 44113
5869 58412 43438
38057 26315 61106
14449 30369 58815
1865 30324 59155
15249 30323 59167
1991 31198 51839
4216 31601 51839
5373 29717 51839
5640 32921 51839
13104 29642 54899
25633 29436 54630
799 3071 55679
799 1945 55065
799 14440 61963
799 11255 58019
799 12022 59568
799 1945 63348
799 772 56392
799 928 55691
799 1459 62248
799 9825 59880
799 3381 56547
799 172 60655
799 4931 59269
24468 30452 58183
23453 30353 58938
37859 30452 58181
30714 27382 9453
42786 364 51630
41131 2148 51630
44164 4761 51630
44192 8497 51630
2884 30318 10500
3735 30008 10500
6779 20659 10500
4803 28361 10500
964 29472 61301
4551 29367 61438
21021 29051 61849
4298 52908 48626
8627 26378 10035
15063 25858 10250
34102 25716 10309
36054 2370 51630
30122 870 51630
35193 5094 51630
37098 11840 51630
34299 3426 51630
36686 4327 51630
36993 25341 7606
11652 28329 8533
9414 28726 8016
9581 53044 35419
9581 53517 21966
9581 53264 17841
9581 53455 29564
9581 52689 26725
9581 53073 34497
9581 54786 30062
2802 47118 11175
5328 45153 10916
9581 25752 47339
9581 26452 39758
9581 25384 36872
9581 25399 45818
9581 24829 50868
9581 25072 27953
9581 26946 33927
9581 29306 48526
9581 26412 49617
9581 61994 32220
36993 19920 5554
36993 20191 7348
36993 22189 9812
36993 20561 7924
20217 0 20469
3478 0 46406
12253 30077 60042
3882 29863 60558
34884 28600 2586
16009 28504 2462
0 48774 26730
0 48742 14440
0 49196 29857
0 50861 23809
0 48331 42826
0 50798 14356
0 49155 31826
0 49860 18210
726 28547 51839
1423 32930 51839
3876 31086 51839
5244 34058 51839
1518 14105 50208
3035 14105 48895
35965 0 50708
37913 0 34400
33639 0 44557
40500 0 39178
41828 0 17020
41842 0 40835
37625 0 27499
42004 0 28822
41283 0 37006
42020 0 18370
43832 0 24934
44135 0 51222
42916 0 51139
39417 0 49883
42654 0 27976
32459 0 44857
42047 0 50645
43152 0 37136
37181 0 36656
30585 0 45966
33145 0 46299
41442 0 18774
35375 0 40471
37456 0 33711
44169 0 38806
35688 0 47571
32148 0 47518
0 33609 49194
0 32706 38545
0 34100 36311
0 33378 22102
0 30557 48876
0 31220 51552
0 32696 44237
0 31978 45020
0 31084 45515
42125 11170 10113
44147 7633 10113
41465 10818 10113
43102 3925 10113
40356 9522 10113
10842 29413 4963
26979 29326 4305
799 26071 56606
532 21966 64138
28090 28346 8511
36583 28066 8876
27835 30294 56592
12762 30303 56665
9581 52139 22078
9581 49947 36239
9581 49522 39948
9581 51323 40759
9581 50231 29901
9581 50545 37676
9581 51085 26093
16655 30164 59832
23303 30022 60174
16847 1413 0
660 20262 0
22701 9098 0
7420 1445 0
10646 6426 0
15296 2939 0
10255 15760 0
4035 4876 0
19956 7768 0
31882 256 0
11749 4181 0
9348 16647 0
13317 15169 0
28242 245 0
15857 11623 0
9956 321 0
11035 13424 0
5565 4171 0
16997 5862 0
14168 13361 0
4916 8068 0
10650 10008 0
14459 12245 0
3688 847 0
12051 13982 0
3307 6915 0
28390 2500 0
8959 12257 0
18708 6798 0
17126 2903 0
4697 11676 0
12145 3526 0
2384 15043 0
13811 11961 0
31507 1121 0
11179 14495 0
9575 14710 0
14749 2032 0
17637 7853 0
243 30248 51839
0 30188 41714
0 29580 13297
0 31304 19399
0 31452 14224
0 30336 22775
0 31578 31444
0 31129 24858
0 33808 16887
7671 56669 45708
9581 51806 17560
9581 50873 29111
9581 50319 48514
9581 51299 48823
9581 49329 40984
9581 49399 38484
9581 51815 23739
5368 54346 47522
9051 55904 46327
799 24948 53370
36342 0 20707
40563 0 14311
37552 0 15149
36029 0 24144
32232 0 33645
39991 0 18724
43145 0 12876
36854 0 11824
38151 0 22210
33420 0 32987
38360 0 21551
38858 0 14301
32764 0 35600
42546 0 10651
9581 60758 26831
9581 60105 22417
1919 7732 51630
5352 5636 51630
20457 7502 51630
3078 11305 51630
21239 10572 51630
9319 12436 51630
18954 8540 51630
22933 14086 51630
10685 14074 51630
18230 8516 51630
23354 12097 51630
5353 3211 51630
12334 6376 51630
17558 10728 51630
31596 12288 51630
18736 11371 51630
12629 11650 51630
17139 8957 51630
22556 8748 51630
11907 4423 51630
6557 8758 51630
11003 0 21891
4239 0 39425
1329 0 25734
3108 0 45572
3072 0 31408
11838 0 30362
9269 0 22961
9558 0 33505
12205 0 16630
16952 0 23067
3281 0 5314
5147 0 11894
4484 0 8152
3417 0 20875
9551 0 21430
16785 0 25116
4372 0 26298
21428 0 16572
5499 0 40461
4534 0 15416
7480 0 22282
7286 0 26918
21960 0 15357
2634 0 16036
13024 0 28322
9976 0 23872
6149 0 39165
20407 0 18294
4923 0 13163
21572 0 11280
4039 0 25307
13437 0 23288
5331 0 19658
16000 0 24478
9458 0 32044
6193 0 32068
193 0 2923
24350 0 12801
2057 0 11938
11171 0 25676
8097 0 23470
5915 0 41385
19371 0 18121
1766 0 8973
12727 0 4955
4620 0 13789
11977 0 19856
14554 0 28693
10783 0 13341
17750 0 23976
25234 0 11674
685 0 15546
1551 0 48891
12272 0 13417
6623 0 17142
22039 0 9260
5674 0 34950
6386 0 29139
23207 0 9700
4172 51072 12749
4723 51894 13089
25611 25066 10406
27123 24445 10488
0 49772 34712
0 51844 37414
0 51275 27694
0 51633 43747
0 50435 41433
0 50250 47800
0 50435 40269
35054 29393 5959
33809 29431 5670
35852 28930 62007
18216 29493 61273
14095 29591 61145
14860 0 34667
25548 0 21901
18433 0 33807
20787 0 23139
24558 0 35656
13610 0 42600
14339 0 30435
22214 0 41764
8577 0 40411
25560 0 18402
21766 0 50934
19964 0 40813
22479 0 42553
21311 0 33829
15578 0 33659
24843 0 39683
11295 0 50719
24707 0 23501
20218 0 24594
26412 0 35990
21931 0 43732
13809 0 31537
23470 0 31734
27072 0 37045
17867 0 49903
22728 0 37471
13348 0 50748
13228 0 46825
8570 0 45567
14357 0 33192
10005 0 43369
19609 0 48345
16581 0 43397
12267 0 39761
21503 0 35418
27695 0 38870
5152 0 51391
13021 0 38110
7705 0 51254
18585 0 27995
16008 0 31090
15194 0 38233
4308 0 49072
19386 0 27915
23661 0 37818
13930 0 36673
13321 0 34540
18191 0 35641
36993 29269 5456
9581 56661 38226
9581 56961 29372
9581 58329 20602
7394 60842 39219
8258 60961 38931
27038 29457 5471
13660 29446 5554
0 44043 14273
0 47307 11242
0 42289 21889
0 42583 27467
0 42714 42442
0 44519 25937
0 42546 43864
0 42940 25106
0 42042 37768
0 42602 19898
38057 27627 59435
10547 26378 63739
12308 26745 63587
5680 27133 63426
6083 38225 51839
6145 37657 51839
0 22869 12689
0 14487 17089
0 15406 17670
0 14715 42769
0 19738 14983
0 21441 15365
0 18727 17049
0 15749 25967
0 14297 50262
0 15354 27874
0 16996 18477
0 19382 23965
0 15539 29719
37672 0 56767
22232 0 56172
33812 0 58393
30183 0 61120
23558 0 52657
31421 0 52419
19074 0 56461
32019 0 57882
36278 0 54405
17928 0 54839
32145 0 58911
25917 0 57983
10420 0 51640
30769 0 59689
15411 0 54145
21122 0 58125
18817 0 57241
13423 0 52114
21660 0 53222
26024 0 54999
30283 0 59474
6253 35156 51839
323 37514 51839
4694 35084 51839
4282 57016 17083
7058 57016 17084
0 26294 1100
0 41878 46260
0 40797 37704
0 38397 31021
0 41005 20799
0 39732 29716
0 39246 28788
0 41911 45258
0 41380 29496
0 37772 45909
0 41939 50917
0 39485 46630
0 39777 43792
0 35880 49109
0 35636 47472
4543 62493 29874
8849 62348 28772
41273 8702 10113
40825 9827 10113
39011 12893 10113
41422 12017 10113
43258 13306 10113
21602 30159 56134
24685 30055 55882
38057 192 61969
38057 543 55532
38057 2647 52037
38057 7633 54417
38057 920 60747
38057 5350 55038
38057 33 54667
38057 4110 54681
38057 2132 56612
38057 4053 57963
38057 9850 53276
38057 8890 52062
38057 2350 60849
3052 46067 11036
9447 42338 10546
8975 44744 10862
6414 35654 10500
514 41585 10500
36993 24692 4733
16810 30401 57403
19623 30442 57721
799 28215 53662
9581 34675 19009
9581 36301 15482
9581 39017 22938
9581 34602 38036
9581 37013 10795
9581 34624 33388
9581 39501 21655
9581 35723 27623
9581 37388 24021
9581 37489 24561
9581 36009 36588
9581 35740 16073
6215 60048 21204
1053 60887 23230
7129 60058 21229
726 972 64138
3190 62627 31454
448 62519 32270
3792 62497 32440
9581 47799 26702
9581 47903 16867
9581 50511 19134
9581 48482 26934
9581 48183 27658
9581 48008 35602
9581 49003 18292
9581 47797 30145
9948 22623 10500
9829 19106 10500
23227 14869 10500
15623 16706 10500
22460 17607 10500
27824 16271 10500
10446 23856 10500
18210 20277 10500
16279 17545 10500
16408 20763 10500
11708 20613 10500
19600 20540 10500
25418 15169 10500
44266 8963 20869
44266 4200 12911
44266 13816 40198
44266 1920 15215
44266 13342 20001
44266 2503 14900
44266 10553 15413
44266 11667 25873
44266 4128 21132
44266 10911 11373
44266 9803 30436
44266 9011 28973
44266 11872 18592
44266 8823 19682
44266 4823 12199
44266 8973 31675
44266 5678 17381
44266 10451 28162
44266 9562 32520
44266 9623 22473
44266 12384 36815
44266 11031 29432
44266 10262 38360
44266 2238 13804
7092 14105 35534
3750 14105 41183
24190 14105 22353
28626 14105 11143
12535 14105 24635
8443 14105 17649
10952 14105 27934
8469 14105 26514
18872 14105 12108
14606 14105 18374
5619 14105 34163
24433 14105 19825
18148 14105 23492
22281 14105 12712
26046 14105 15405
17952 14105 25601
17789 14105 11161
21930 14105 23654
4519 14105 32367
10970 14105 31179
20612 14105 21171
10632 14105 35783
18117 14105 17647
21168 14105 27919
15335 14105 16925
20834 14105 12536
25105 14105 11697
8832 14105 13915
11704 14105 28127
13698 14105 15424
13649 14105 36409
20812 14105 24086
19440 14105 11427
10449 14105 26935
18566 14105 18374
8601 14105 36468
18735 14105 20240
25456 14105 15082
5810 14105 36183
11788 14105 24981
19642 14105 12660
13020 14105 28241
9438 14105 26294
7773 14105 40956
18121 14105 24739
9807 14105 27448
21011 14105 17863
25493 14105 20592
9581 43607 44134
9581 46728 21046
9581 46664 48411
9581 44662 49915
9581 44610 42130
9581 47316 49754
9581 44799 51216
9581 44456 48461
9581 45026 42896
580 44794 51471
3972 42673 51750
2241 44783 51472
44266 8168 45222
44266 4713 44153
44266 3002 36954
44266 6511 47301
44266 1432 20521
44266 425 50064
44266 7346 46941
44266 11419 47173
44266 9830 48597
44266 7477 43305
44266 6633 39747
44266 9264 46890
44266 10470 42718
44266 3042 34563
44266 5560 34728
44266 3828 30360
44266 5218 47860
44266 3126 49336
44266 45 30493
44266 4134 41963
44266 6223 35082
44266 12309 50259
44266 5971 30696
44266 212 18185
44266 8622 44530
44266 1282 33164
38057 11128 64036
38057 5978 63398
38057 16636 58654
38057 9164 59482
38057 20373 62394
38057 11374 54384
38057 10955 57892
38057 8493 62926
38057 17332 58273
38057 12348 59722
38057 15018 58587
38057 14977 62935
38057 7990 62448
36993 25855 7984
0 11954 54342
0 15486 59160
0 12899 54977
0 17621 57419
0 8263 54597
0 20219 61838
0 18171 57704
9581 31411 37138
9581 33487 14902
9581 27164 15180
9581 29370 38344
9581 29334 30323
9581 27273 13119
9581 31587 32320
9581 31561 27578
9581 29322 37565
9581 30972 21770
9581 33395 13320
9581 29633 18874
9581 27554 22544
9581 34220 10961
9581 26927 23038
9581 25837 20516
9581 28327 22397
9581 28041 24235
39042 2137 10113
41110 853 10113
41809 2176 10113
40217 6061 10113
24389 24691 10456
2605 57405 17590
1972 58067 18453
32953 14413 0
20571 20605 0
15416 16871 0
31442 22165 0
7716 19785 0
16565 18332 0
31627 18995 0
27763 20245 0
14743 15891 0
29966 13558 0
34705 4760 0
28866 19844 0
26226 21589 0
32581 3602 0
26556 18737 0
14978 20552 0
33760 23821 0
35484 22026 0
17336 20216 0
29548 7339 0
6638 20359 0
32289 9115 0
12708 17033 0
5259 21148 0
6891 21063 0
30831 7630 0
12145 17484 0
10761 19666 0
35574 23802 0
36869 3318 0
16116 23788 0
27804 13165 0
6607 21965 0
31463 15649 0
33103 12933 0
28531 18987 0
28648 13956 0
14720 17230 0
29374 16049 0
24181 23091 0
0 31850 13207
0 30140 32459
0 31926 29362
0 31667 10755
0 32695 23744
0 32256 17328
0 31783 34491
35961 0 1695
31182 0 6737
31143 0 7316
34095 0 6563
32993 0 8196
9581 62538 31316
7506 28099 10500
7396 31171 10500
2513 32945 10500
7397 32985 10500
4582 20785 10500
6269 20892 10500
4109 24848 10500
3293 21591 10500
626 3958 64138
552 16635 51839
3085 28252 2133
1842 51310 49492
6678 47931 50892
0 5215 9643
0 9223 18194
0 2269 26807
0 4253 36045
0 2162 5990
0 9273 19225
0 1991 5453
0 11909 16216
0 5078 31142
0 422 13810
0 5288 35423
0 3073 40320
0 10523 19733
0 4907 17968
0 7130 20810
0 504 47424
0 7324 9190
0 378 38332
0 4347 16129
0 13372 12540
0 6117 25862
0 1483 25984
0 8488 12728
0 226 22438
0 1506 10679
0 5043 33851
0 6619 30196
0 6409 20509
0 8551 22543
0 1741 34635
0 5926 18693
0 2743 25282
0 11805 8939
35549 20251 64138
33182 12425 64138
29235 16141 64138
33012 10515 64138
24319 16658 64138
11393 23082 64138
26563 11162 64138
19112 22631 64138
19837 16730 64138
20077 13414 64138
29513 22265 64138
29519 13082 64138
24554 17239 64138
26923 18593 64138
11906 24219 64138
25442 15519 64138
13715 21413 64138
13528 17411 64138
16512 24045 64138
27499 14895 64138
13938 22897 64138
32515 7331 64138
33106 14443 64138
15470 21935 64138
33794 19323 64138
37969 4718 64138
36983 9241 64138
34086 23576 64138
26343 20573 64138
37635 21565 64138
20224 11915 64138
17534 20346 64138
29282 6295 64138
21929 23516 64138
26074 12176 64138
36132 12676 64138
37014 12593 64138
35857 23495 64138
762 21914 51839
9410 58493 19009
0 20713 17398
0 18349 25794
0 18876 29257
0 21993 20242
0 21346 32053
0 21186 38580
0 21955 33137
0 21390 30988
0 23757 44350
0 20736 20838
0 23977 18151
0 21607 19324
0 20276 26822
0 22026 38405
0 22521 28278
0 19369 22952
0 18044 13303
0 23323 43512
659 0 50808
12795 0 31980
9581 37973 47768
9581 39691 33428
9581 35805 47695
9581 40484 23258
9581 40749 25256
9581 39118 39816
9581 37743 39774
9581 36197 46630
9581 40237 38310
9581 38808 48517
9581 39005 29228
14258 28499 62473
978 28653 62355
42284 14105 37979
42069 14105 33735
39897 14105 23037
42416 14105 22891
41993 14105 20410
42762 14105 16087
40196 14105 22568
39257 14105 11296
43720 14105 22459
40346 14105 14648
39550 14105 22136
42181 14105 10238
42649 14105 32662
5835 14105 38916
17171 14105 14246
32485 14105 12747
18197 14105 12624
7609 14105 28797
25392 14105 14236
30487 14105 10875
13233 14105 25935
12455 14105 30877
11561 14105 10862
9299 14105 40726
3775 14105 43587
2257 14105 46264
24333 14105 20389
17429 14105 14979
21578 14105 18963
21348 14105 14075
7836 14105 33730
23495 14105 23885
18619 14105 18995
12988 14105 26480
31682 14105 14015
17549 14105 30967
14894 14105 34296
7037 14105 32261
7270 14105 42264
20685 14105 19803
17114 14105 12340
3690 14105 37633
23962 14105 24206
18255 14105 15569
11966 14105 26516
15200 14105 18127
11401 14105 27486
9818 14105 34947
19429 14105 21243
7199 14105 24401
20288 14105 26735
29323 14105 16091
2451 14105 41197
10525 14105 13280
1959 14105 43570
15872 14105 23615
3025 51646 49353
3887 50448 49849
7956 49475 50252
34066 28498 8312
32412 28115 8811
0 60609 36602
2674 62060 35755
8935 62144 35120
21658 25305 51968
12321 25768 52029
11407 25105 51942
59 14105 23736
2403 14105 15102
611 14105 16858
7559 14105 16617
3545 14105 19638
3005 14105 17289
6135 14105 15483
1162 14105 29565
5178 14105 14506
1841 14105 11063
5558 14105 20584
866 14105 14688
8963 14105 12061
880 14105 12313
2938 14105 35857
933 14105 12859
422 27153 9628
1642 27873 9076
38057 22822 59828
38057 23913 56930
38057 22559 52802
38057 22977 55223
444 50708 12598
2778 50008 12308
807 49776 12212
4042 40811 51839
8390 41912 51839
8218 35856 51839
23160 26086 610
36200 26854 928
16240 0 60989
22519 0 59969
7058 0 62172
4643 0 58660
9211 0 63745
5494 0 55881
3747 0 57942
1846 0 59213
2023 0 53691
1879 0 62317
29148 0 61238
948 0 59524
15479 0 57196
10126 0 63544
8516 0 59010
16191 0 58030
10495 0 62659
19118 0 60678
7789 0 64041
0 53028 39828
0 53833 23287
0 52905 37946
0 52537 34528
0 54125 25798
0 55221 23196
799 13392 52646
799 14278 54046
799 3258 52461
799 19883 59648
799 14902 58609
799 20448 61670
799 15727 58726
38057 24503 58510
36993 12712 2584
36993 651 288
36993 1964 373
36993 141 4857
36993 1632 2174
36993 9701 4856
36993 10507 4942
36993 272 7021
36993 5942 3522
36993 8898 1146
36993 7141 2287
0 57003 45076
0 59831 23585
0 58059 43216
1793 25610 432
9731 25444 410
29332 25594 430
8192 43594 51629
4203 46683 51222
2302 49753 12202
4624 47816 11400
799 28459 60251
24531 0 1968
22071 0 1769
26306 0 4427
20310 0 54
26705 0 6311
20410 0 5220
18479 0 1750
10043 0 794
6423 0 880
14485 0 5358
15852 0 1517
33514 0 432
26847 0 10091
16781 0 6150
7839 0 2491
26925 0 4605
9581 58027 24185
9581 57573 32061
9581 58356 21568
9581 59487 23626
9581 56789 40130
0 27234 24552
0 29276 10822
0 27712 28918
0 29602 34379
0 26160 10649
0 29583 48140
0 25340 12747
0 29035 21541
2522 53147 48443
5037 52533 48914
7566 14105 43918
14487 14105 35847
36993 21124 6441
36993 18166 9141
36993 20312 4925
36993 23498 7958
6619 27475 51839
6896 24959 51839
12460 19559 10500
11585 18987 10500
11219 14543 10500
16742 19783 10500
11407 17068 10500
12726 20582 10500
18415 14941 10500
19854 17582 10500
0 34443 51796
0 33804 20715
0 34263 45749
0 30682 47634
0 34205 47482
0 33797 43615
0 32653 39724
0 32025 37251
34032 17332 51839
16082 15915 51839
19041 14730 51839
28391 18084 51839
14135 15039 51839
23295 15537 51839
21310 16851 51839
20191 17730 51839
21002 14657 51839
30320 17837 51839
28583 17167 51839
0 15659 39480
0 14514 15696
0 17566 44539
0 17186 47895
0 16262 28712
0 15759 22663
0 16321 34502
0 18359 45903
0 16124 43918
0 17226 47061
0 15124 15340
0 14116 27898
0 18187 38484
0 14580 51506
0 16727 37381
0 14657 46842
0 17435 42168
0 21313 44614
12518 10463 64138
16377 14088 64138
8464 18578 64138
13151 15105 64138
7318 4906 64138
4792 8095 64138
8052 8308 64138
3042 15452 64138
23421 7215 64138
10283 7563 64138
2758 22430 64138
34459 2179 64138
16402 4936 64138
20802 7296 64138
1336 23800 64138
7720 9250 64138
23416 5901 64138
7253 7871 64138
2716 21309 64138
4812 13512 64138
5406 13276 64138
12660 9368 64138
9907 9639 64138
21407 4096 64138
1565 11731 64138
6572 3272 64138
7727 14816 64138
8331 12673 64138
28009 4754 64138
5968 20384 64138
31724 4001 64138
14138 4339 64138
11489 2326 64138
2427 9807 64138
2176 1753 64138
5936 6367 64138
10297 13415 64138
15435 565 64138
31929 980 64138
29079 14105 41861
32462 14105 44603
15680 14105 51397
26676 14105 35616
21326 14105 29615
5469 14105 48370
34046 14105 39460
23281 14105 37996
13006 14105 42463
14543 14105 51150
25480 14105 26284
36366 14105 43694
32494 14105 34782
19506 14105 36983
24173 14105 44303
10801 14105 43441
25342 14105 37315
31326 14105 34305
14939 14105 37179
20810 14105 42716
34939 14105 25370
28144 14105 30135
28482 14105 31404
35217 14105 31298
31040 14105 24063
21297 14105 48488
15741 14105 49321
13978 14105 37105
28822 14105 42854
32484 14105 29752
17862 14105 45463
22681 14105 45455
11067 14105 45196
17757 14105 33972
30029 14105 30454
26028 14105 37175
33387 14105 46507
28998 14105 34536
19394 14105 45397
15652 14105 43975
16721 14105 49640
29855 14105 39837
17584 14105 38197
34505 14105 37809
25780 14105 33986
8289 14105 49937
34945 14105 19752
33933 14105 29547
10921 14105 48211
31847 14105 25319
33619 14105 15349
23208 14105 35931
26021 14105 23466
24999 14105 35943
8161 14105 47152
15211 14105 37999
26941 14105 36122
30440 14105 28998
14013 14105 44651
20948 14105 30343
9869 14105 42480
16401 14105 45061
22395 14105 40095
35265 14105 43381
34675 14105 22506
22529 14105 44578
36993 28256 6937
0 2443 25831
0 454 19764
0 9846 12473
0 3798 10558
0 501 17962
0 2907 37931
0 10506 12324
0 101 27501
0 6350 12064
0 3651 36932
0 3851 4397
0 2676 21528
0 7522 29380
0 3725 20785
0 155 5193
0 8667 9795
0 7712 10337
0 7361 27066
0 1700 17419
0 445 37641
0 9481 21345
0 57 44280
0 2266 39998
0 488 39840
0 12514 11752
0 7061 30516
0 2013 26252
39434 14105 24134
0 26477 34776
0 26462 44657
0 26643 42774
0 24652 47978
0 25196 45297
0 25492 32639
0 26168 27355
0 25607 23020
0 25328 43497
0 24819 42048
28537 29833 55346
36993 27744 6483
2292 54109 14635
4386 53766 14372
0 59991 28774
0 60029 21853
5493 61467 24630
1628 61959 25819
32711 0 21341
32859 0 10422
28212 0 22014
28089 0 14229
31330 0 14386
31229 0 22795
30924 0 28331
30157 0 10205
31185 0 17843
29654 0 31034
32440 0 17569
32733 0 14308
28062 0 29730
30640 0 22284
28422 0 40664
27232 0 14524
36437 0 12301
31200 0 30255
9581 43317 19907
9581 44385 20792
9581 44981 17116
9581 42494 18732
9581 42971 42334
9581 43536 23478
9581 46955 11874
9581 42549 31226
9581 43477 27407
34124 0 72
15006 0 2856
23921 0 145
32729 0 1835
8047 0 1607
24163 0 1376
15843 0 5741
23897 0 8449
25969 0 7973
26364 0 9211
23446 0 6163
9663 0 2725
11358 0 3269
30396 0 194
31020 0 2765
9581 54661 45084
9581 55916 41833
9581 55470 38333
9581 55515 30914
9581 55874 28912
9581 28324 48800
9581 27419 34744
9581 24364 45964
9581 26227 42934
9581 26547 31730
9581 25238 33876
9581 25597 39054
9581 24911 37813
9581 24597 46748
0 58227 30702
0 56994 25140
0 57716 33589
6775 29496 51839
7453 31635 51839
32358 27533 1430
26205 27424 1346
0 40519 29354
0 40606 46879
0 40857 28005
0 38864 44841
0 39630 44357
0 41816 47637
0 41732 30146
0 40884 40124
0 38973 39164
0 40883 41441
0 40293 24741
0 37329 42431
0 41973 33859
0 40936 49942
24645 30400 57398
21416 30310 56714
0 15830 54372
0 7413 52930
0 11183 52880
0 16220 59079
0 17507 56322
0 13018 57797
0 19632 58640
0 26823 2064
33634 24420 275
31266 24990 350
0 59577 40636
0 57818 36663
0 58861 36999
8935 28864 53885
36857 29035 54108
799 28890 57441
34553 0 21410
30368 0 36222
27783 0 14788
30324 0 28360
31798 0 19504
30151 0 15207
29471 0 34937
29932 0 11194
28890 0 24927
29945 0 15888
30151 0 14256
34040 0 16199
28610 0 48750
28281 0 47111
32900 0 16284
28263 0 19068
29685 0 42375
32919 0 22671
0 47009 39125
0 47190 21851
0 46046 47062
0 46761 32860
0 46454 34788
0 44816 41369
0 47083 50578
0 46170 22219
0 46095 22950
0 43246 46986
4336 60536 39956
7607 30467 58071
35686 30464 58090
35874 30350 58961
34944 27981 53107
33722 28266 53326
6817 28581 53568
4028 58330 43545
5615 59140 42489
0 20938 21345
0 18536 21836
0 21336 18244
0 22897 15171
0 22193 29080
0 23832 38055
0 23076 40218
0 23425 23094
0 22597 33222
0 21660 29804
0 22538 18504
0 23871 42918
0 19520 16178
0 20865 14851
0 20259 24495
0 21675 40257
39319 12879 51630
41198 7481 51630
39061 2896 51630
38854 6568 51630
799 24304 54023
799 21216 56709
799 21481 60262
799 16174 53703
4098 61946 36553
1001 61390 37895
4233 61511 37603
9581 57595 39059
9581 59883 29697
9581 21153 26138
9581 20731 48275
9581 18417 38968
9581 22935 42593
9581 21853 37341
9581 22419 21014
9581 19120 49652
9581 22374 31088
9581 20988 38304
9581 23425 25181
9581 23444 19537
9581 19281 41020
9581 23070 38925
9581 16945 44724
9581 20391 50811
9581 23869 24028
9581 18308 47205
9581 21574 34537
9581 16942 45253
0 19378 41943
0 15327 16271
0 14918 35961
0 23122 49027
0 19231 44986
0 15329 23792
0 17330 31513
0 16854 43038
0 14316 23178
0 18561 49821
0 15472 41265
0 19003 40067
0 19280 35100
0 21076 47325
0 16177 19609
0 14802 28394
0 18579 31273
24873 28931 7584
32101 28930 7586
43750 14105 25317
42934 14105 12021
40696 14105 13599
42753 14105 23953
41855 14105 23331
39775 14105 20470
38594 14105 18647
43070 14105 29020
43322 14105 25684
40340 14105 21656
41490 14105 32060
43031 14105 28474
33913 14105 39985
19619 14105 51052
29662 14105 46653
31973 14105 45098
23736 14105 48472
35642 14105 17315
22053 14105 39378
19052 14105 47621
35283 14105 19057
35384 14105 44443
34630 14105 38434
36778 14105 47412
33588 14105 31681
26218 14105 31048
37141 14105 24660
26154 14105 36087
36931 14105 20004
18846 14105 49667
26859 14105 33139
29720 14105 23457
33024 14105 35121
22235 14105 30096
30702 14105 37295
22042 14105 33373
32743 14105 35941
32988 14105 33499
28817 14105 43418
26679 14105 44952
27629 14105 49544
36811 14105 17221
33093 14105 49610
29900 14105 31547
14993 14105 48927
24119 14105 35074
29789 14105 42921
27863 14105 46516
14316 14105 43160
37881 14105 47819
24770 14105 30181
36114 14105 14676
36581 14105 48805
26719 14105 40734
18096 14105 46769
14327 14105 45354
31575 14105 51170
18797 14105 46956
25835 14105 48005
15862 14105 40915
24245 14105 32482
19177 14105 40899
36950 14105 37066
33735 14105 16662
15931 14105 35928
5963 14105 49350
34637 14105 35714
36566 14105 51488
35363 14105 41292
26085 14105 32843
31396 14105 21106
0 4202 41341
0 4912 50776
0 7108 32320
0 9478 43671
0 2301 49849
0 9137 33454
0 13050 35596
0 11808 31860
0 13716 47893
0 3131 42577
0 10830 48886
0 9598 23736
0 13805 33400
0 10117 34879
0 11232 48122
0 10857 22379
0 8404 34979
0 2532 44762
0 13270 22424
0 9442 32275
0 6723 34659
0 13863 46374
0 13806 49213
0 13790 12205
0 2970 49552
430 24770 321
36993 26646 4379
3479 23676 64138
31582 10519 64138
29024 6887 64138
28644 13986 64138
24505 9812 64138
4917 22618 64138
34717 22651 64138
33349 20578 64138
26047 16790 64138
32011 6897 64138
32953 18162 64138
31686 17712 64138
22180 12814 64138
22325 18631 64138
28424 23032 64138
17979 21082 64138
33258 21964 64138
6398 23858 64138
32044 4458 64138
35923 5689 64138
15029 17124 64138
28608 19947 64138
3381 23109 64138
33289 17207 64138
37340 8465 64138
5621 21268 64138
10070 20892 64138
8395 20987 64138
14644 18907 64138
35447 2368 64138
19779 21708 64138
21194 14664 64138
32184 10939 64138
17770 18568 64138
32471 28684 53650
33041 29069 54152
22912 28837 53849
0 27267 45211
0 27473 47421
0 24968 38061
0 24572 50541
0 24783 21507
0 25525 31568
0 25629 28390
0 25293 49735
0 25127 42719
28279 28073 1900
800 28690 2704
9014 28243 2121
22214 29433 5116
35472 29400 4865
5841 25886 528
18445 26465 767
0 56341 35906
0 55508 32503
0 55549 34374
0 55111 31884
0 54166 39772
0 55215 39276
38100 10522 51630
41314 13754 51630
42175 13642 51630
13447 29980 60277
33366 26468 9998
32214 26291 10071
0 27660 2002
26837 27511 1413
21756 27041 1052
0 20027 5993
0 18269 6543
0 23194 4154
4009 45638 51360
6826 44653 51489
43782 3655 51630
42568 7257 51630
39832 1108 51630
39216 752 51630
799 2312 52365
799 6421 52550
799 6212 54040
799 8813 55833
799 9820 52578
799 16178 56340
799 7351 51811
4078 29200 61655
3379 29522 61235
3314 55683 15843
3995 55562 15750
8027 53385 14080
0 4061 47697
0 7788 44255
0 8463 30690
0 10840 21589
0 2377 45663
0 10401 43560
0 8456 31412
0 12736 20430
0 13236 19494
0 12189 21447
0 13305 16909
0 10349 46927
0 12482 42651
0 6260 47950
0 10969 25006
0 7774 43239
0 6573 36227
0 4552 45769
0 4533 48976
0 5921 38176
0 11141 50985
0 3867 41972
0 9896 35953
0 7947 46354
12313 25339 10370
13700 24998 10415
9581 61571 36458
24315 28994 7432
16804 29003 7409
9581 59216 33259
9581 58871 42580
6250 62659 31210
1024 62560 31958
29733 29413 4960
38057 26825 59313
29909 28142 1989
25289 28349 2259
42815 1340 10113
37670 7099 10113
38821 6465 10113
41258 2218 10113
39073 3373 10113
18807 29379 6063
21747 29353 6263
2609 38505 51839
822 39554 51839
2654 36084 51839
36993 28201 4436
8225 49812 12227
3298 52298 13256
14189 25877 63934
31968 25102 64036
2837 58630 43152
37496 156 51630
35796 3302 51630
31972 1045 51630
12508 29632 54885
10875 29413 54600
16076 29226 54356
15456 29222 6880
0 60087 37979
0 35918 44031
0 34637 46399
0 38716 28217
0 38776 26208
0 38003 18275
0 35346 37163
0 37011 25930
0 35007 16152
0 35014 24812
0 38475 13692
0 34887 23259
0 39789 11286
0 35188 36458
9581 34201 30505
9581 33977 33663
9581 31015 41563
9581 33417 29391
9581 32910 39386
9581 31237 45425
9581 31887 48283
9581 34260 26893
9581 33622 36968
4553 59934 20929
1292 60043 21193
9581 42271 12459
9581 43535 32987
9581 44124 32606
9581 43536 15199
9581 42859 22403
9581 42049 20309
9581 45298 16628
9581 44394 19333
4204 38222 10500
420 36378 10500
12246 26281 691
7482 26028 586
44266 2755 23009
44266 9592 40679
44266 4280 49937
44266 5002 46701
44266 3400 36286
44266 1416 48563
44266 4150 39342
44266 1748 31100
44266 301 37911
44266 2947 51062
44266 8836 50761
44266 1993 24388
44266 2366 26919
44266 564 34608
44266 4158 34574
44266 4397 33235
44266 7911 34732
44266 2552 43882
44266 7971 46142
44266 386 15327
44266 8108 36447
44266 1672 19923
5025 40261 10500
9207 37759 10500
8610 39240 10500
9376 35916 10500
6635 42126 51822
799 26120 62557
4752 62028 26339
5194 62236 27917
29663 23731 51839
13302 20666 51839
22809 19081 51839
12361 22807 51839
26437 24304 51839
22192 18855 51839
16715 20234 51839
10890 23237 51839
14820 18341 51839
23981 23066 51839
16732 24104 51839
13132 16329 51839
25610 21447 51839
7109 27471 1382
2565 27765 1608
36978 29704 60942
32907 30182 59789
27386 28007 62851
22475 28125 62760
26732 28242 62670
2983 55220 15488
33389 8708 51630
30888 8282 51630
30999 10603 51630
23624 4403 51630
14027 2332 51630
29341 4978 51630
20872 5428 51630
12026 2290 51630
9179 1022 51630
21313 6140 51630
21337 4641 51630
35037 10728 51630
32590 9120 51630
32633 6653 51630
21115 3320 51630
21055 902 51630
8886 40161 10500
7833 38735 10500
3727 41473 10500
13593 28862 3015
11865 28996 3340
16407 28959 3251
5739 62493 29867
3368 62542 30241
31844 24593 51874
37264 24360 51844
2127 28113 53208
13510 27831 52992
7252 27917 53058
7681 25567 10340
27645 25570 10340
0 45091 31382
0 43856 44836
0 46646 31055
0 45213 47162
0 45903 43462
0 45964 32511
0 46694 27118
0 46142 33319
0 46280 28697
8601 0 30832
532 0 9299
10736 0 29406
7685 0 15755
9850 0 20029
3299 0 13499
3963 0 11343
4957 0 38737
17417 0 11316
9152 0 5583
10352 0 7992
17585 0 14314
15518 0 7883
1036 0 20057
9084 0 17314
1863 0 13890
3307 0 15338
15301 0 24382
14370 0 18367
15088 0 20820
6646 0 2675
6554 0 35790
7969 0 33092
7371 0 37486
8107 0 36489
8817 0 22621
8806 0 33017
11504 0 30968
3904 0 40142
14299 0 21959
16769 0 20577
14047 0 17742
17419 0 21947
6861 0 15308
14923 0 16814
766 0 46060
6625 0 14446
3632 0 44496
16397 0 23554
187 0 4278
7579 0 9612
16323 0 15900
3681 0 4586
2282 0 40369
10704 0 19903
3661 0 34621
1574 0 47581
1280 0 7849
3736 0 19015
8299 0 14432
1689 0 15643
6254 0 31132
6339 0 6991
16954 0 18545
21029 0 15083
16527 0 19470
23914 0 11383
0 12653 51810
9581 33329 22644
9581 30432 48356
9581 32337 49815
9581 33222 47164
3162 29869 55433
13360 30124 56050
28265 4987 51630
22738 4702 51630
26133 8307 51630
26710 5578 51630
21606 6653 51630
31939 8207 51630
26312 778 51630
31899 11172 51630
23835 6553 51630
20507 5015 51630
27344 863 51630
25544 7676 51630
9331 511 51630
23405 1082 51630
26150 6627 51630
35645 12107 51630
24612 7469 51630
37004 29368 61436
25881 29641 61080
9581 60749 32224
9581 60481 24417
5781 25804 52034
6982 25822 52036
19396 25862 52041
9581 36987 33791
9581 35702 18362
9581 40121 14125
9581 37960 14005
9581 34713 48846
9581 38030 24973
9581 37520 30568
9581 36774 35524
9581 37261 26852
9581 35699 40751
9581 36319 31813
9581 36251 33857
31403 30100 55991
38057 24446 52088
13561 29131 3666
27337 29061 3496
9286 29082 3547
6278 28997 3342
0 52562 17487
0 52540 37560
0 53800 20502
0 54285 17981
0 56268 18583
0 53144 31069
0 23433 14986
0 22202 48796
0 24042 23580
0 19731 34742
0 24192 31995
0 20717 34108
0 19020 51398
0 21828 22768
0 23966 16865
0 24208 51056
0 19424 30981
0 19819 44540
0 22733 25962
0 22819 34338
0 22926 20778
0 16652 44707
0 19348 33276
0 8058 60689
0 16499 62550
0 18337 64079
0 9263 62870
0 16727 61280
0 10385 61826
0 427 54799
0 9484 59126
0 3836 62250
0 13665 59166
0 2121 56004
0 333 63932
0 20209 62852
0 4628 60691
21042 26293 52203
13924 26450 52268
25599 30446 57749
11242 30477 57985
9035 30467 57906
36993 5543 4753
36993 2821 690
36993 10624 1405
36993 11551 1544
36993 7683 196
36993 883 1576
36993 4246 2054
36993 1783 7398
36993 12404 4119
22430 26547 52309
37849 26106 52126
8117 0 61955
7861 0 56678
1206 0 55507
17010 0 62714
13204 0 59114
2078 0 54770
5509 0 62029
7399 0 55411
26252 0 60557
24379 0 62657
3320 0 56401
4187 0 62725
13419 0 61647
26999 0 62448
9471 0 56749
8792 0 58024
2302 0 56220
2547 0 60772
5311 0 60405
13995 7867 0
13147 10123 0
22007 4377 0
29737 4541 0
8139 15182 0
404 3852 0
16482 8713 0
29754 473 0
12119 451 0
2500 4786 0
3035 17454 0
5668 12410 0
13389 141 0
8064 8066 0
6453 4950 0
1324 11887 0
29792 2407 0
8532 10381 0
22882 3858 0
22033 2469 0
15482 6714 0
3035 2652 0
14086 2837 0
22927 2087 0
21180 8087 0
3253 18378 0
4182 10027 0
7062 5882 0
6924 6858 0
1611 20238 0
24693 7887 0
9718 15924 0
22407 7242 0
9836 9711 0
19939 10242 0
1137 18482 0
9585 13257 0
0 56171 38469
0 54034 45357
0 55199 46581
0 54863 34681
11485 27925 62913
6170 27733 63061
33600 28629 62374
16758 27031 63469
23247 27353 63335
0 62545 30841
9581 21355 35492
9581 17125 43314
9581 18644 40494
9581 18271 39742
9581 23550 20893
9581 20107 43619
9581 20164 44983
9581 23059 23708
9581 22085 20185
9581 20027 46797
9581 16079 51501
9581 16827 42179
9581 24075 38225
9581 24046 15010
9581 21736 35985
9581 21409 42910
9581 23798 41109
9581 16693 49023
0 5720 2017
0 8062 5316
0 10770 8016
0 11652 505
0 13392 4838
0 15527 1084
0 13772 7689
0 21370 2395
0 13972 4418
0 7966 4118
0 15780 7406
0 13969 3151
0 29119 12557
0 29179 18902
0 27996 35400
0 28244 21486
0 28205 36265
0 26874 27389
0 26465 13878
0 29556 47376
0 29647 32832
9581 20831 14359
9581 14264 41274
9581 21224 18212
9581 20394 21321
9581 14105 18768
9581 15343 13812
9581 20903 18957
9581 16982 19517
9581 18192 31829
9581 16612 12936
9581 17764 11578
9581 14118 38856
9581 14867 16383
9581 15452 19287
9581 15602 39521
0 50116 20420
0 48320 43488
0 47865 41947
0 50094 28590
0 50120 23383
0 47769 15791
0 49501 12401
0 48061 23823
8995 25296 51839
8152 25768 51839
12213 16023 64138
14130 6980 64138
15326 2917 64138
6613 11842 64138
16415 2408 64138
31147 1753 64138
32701 2497 64138
2791 13089 64138
16334 11504 64138
1681 14312 64138
6163 393 64138
9781 13920 64138
15834 9206 64138
2536 17116 64138
14898 6215 64138
8119 18139 64138
8102 16431 64138
14139 9533 64138
5013 20912 64138
1708 12997 64138
11225 15076 64138
27239 6444 64138
26844 5692 64138
7329 4150 64138
21065 4743 64138
5278 4601 64138
9104 16199 64138
3690 17715 64138
4084 10323 64138
856 7056 64138
26857 365 64138
33423 1916 64138
9785 10859 64138
32589 16486 10500
34384 18630 10500
16219 22794 10500
13528 23594 10500
31238 22477 10500
35693 16246 10500
36827 19246 10500
30834 23321 10500
25999 22132 10500
29739 23573 10500
24531 23959 10500
2690 16871 10500
834 16364 10500
2138 21696 10500
0 25041 1843
0 47201 12190
0 44555 30644
0 42078 34867
0 43783 25779
0 42734 30412
0 43205 32414
0 42761 14162
0 42364 29434
0 42337 44426
31724 18347 0
27616 23826 0
35207 18295 0
34728 3122 0
23946 22386 0
16021 19470 0
15575 22562 0
34595 13251 0
33951 19411 0
19683 14440 0
15843 16431 0
23298 11761 0
30443 19673 0
14376 19527 0
10053 22718 0
34196 20533 0
6887 23408 0
32846 18048 0
30340 18491 0
13416 16114 0
30081 6298 0
34744 17290 0
26392 6998 0
8428 21689 0
10421 17871 0
25292 19422 0
24607 9659 0
12684 18548 0
21225 24206 0
29190 22604 0
17192 23815 0
33469 9107 0
26108 29185 3795
8486 53684 14309
8221 55336 15577
4413 56294 16312
0 60972 34057
31362 27714 63076
28479 27550 63201
30778 26490 63692
36452 26016 63889
35439 26801 63564
26010 26300 10067
22483 26698 9902
9581 31047 39290
9581 31121 13759
9581 32606 26134
9581 32981 12037
9581 28953 33558
9581 32610 22818
9581 28587 19817
9581 31590 33745
9581 28418 18854
9581 27527 34044
9581 29689 39640
9581 33423 17048
9581 34002 12256
9581 28396 33673
9581 32929 17785
31913 25208 51955
0 20817 54141
0 23949 55946
0 15722 52938
0 23314 56824
0 20263 56215
0 20512 53691
799 25559 59198
8890 17685 10500
9324 20228 10500
3797 29126 10500
6938 21731 10500
25365 24344 29
5408 27268 51839
0 17891 54952
0 24112 58359
0 20103 58117
0 22172 59621
0 19168 55868
0 19534 54153
12334 5155 51630
6322 13678 51630
9007 8733 51630
1155 13403 51630
32579 13207 51630
22502 13164 51630
22707 11015 51630
14056 11861 51630
6021 4649 51630
24048 13150 51630
2125 8512 51630
1101 9547 51630
2041 1757 51630
7370 9153 51630
19468 12570 51630
10667 9179 51630
8680 3441 51630
18908 7021 51630
24570 12507 51630
42411 0 21525
31641 0 49373
35884 0 34918
43173 0 25996
30860 0 47053
40662 0 44767
42908 0 22757
33724 0 47694
41277 0 34860
38887 0 44456
34150 0 51411
42077 0 49421
32901 0 50525
41893 0 44041
43263 0 48912
38385 0 36150
44106 0 44442
40441 0 45252
43270 0 29856
35767 0 39900
44077 0 17556
42741 0 50257
40542 0 47997
43520 0 36242
41461 0 28439
38149 14105 42712
38845 14105 46792
40963 14105 39260
41040 14105 44382
37590 14105 21387
39059 14105 27857
39949 14105 30289
38762 14105 22001
38485 14105 38947
38668 14105 41299
0 23237 26310
0 22426 32168
0 17249 43845
0 22877 37687
0 22334 23191
0 20263 30892
0 20057 32222
0 22285 44822
0 21572 44060
0 23316 48438
0 21410 45889
0 19413 50793
476 0 58674
25062 24905 339
36102 24371 269
28867 27418 52675
26982 27518 52751
23724 27688 52882
0 34606 42470
0 41021 15432
0 36013 16308
0 35656 45286
0 35831 26008
0 37025 20712
0 41024 12146
0 36397 22557
0 35689 22725
0 37549 31023
0 35888 31334
0 36611 13379
0 35549 39732
7541 62014 36109
9129 62261 34233
29562 27844 53002
21450 28569 53558
20223 29342 4420
1472 29296 4072
1209 29407 4915
30563 0 7549
28108 0 9042
32695 0 6415
35556 0 5061
38724 14105 43373
40614 14105 46883
39764 14105 34448
40471 14105 40240
40278 14105 38408
39718 14105 37928
40839 14105 43153
41165 14105 35604
39603 14105 49352
39232 14105 45399
40504 14105 36576
799 24194 58375
799 20481 58909
799 22423 55635
799 22701 60037
799 23377 62586
16044 26120 52131
32575 0 38862
36199 0 21933
39942 0 15053
37481 0 11925
39312 0 16604
31238 0 39443
37767 0 11267
32968 0 34895
36409 0 16168
37291 0 14247
36882 0 26795
37962 0 23561
39850 0 19272
