ply
format ascii 1.0
element vertex 2873
property float x
property float y
property float z
end_header
1077 28964 49175
1077 29806 32621
1077 29775 31996
1184 56649 28059
1184 56526 53935
1184 57062 42135
1184 46262 18445
1184 52552 8572
1184 53437 3217
1184 57809 50575
1184 40610 15307
1184 47352 26387
1184 51565 8398
1184 53120 32710
1184 54202 21727
1184 57682 32738
1184 53772 45800
1184 49057 30362
1184 57122 3377
1184 44128 25845
1184 52725 41311
1184 52321 39916
1184 58161 55381
1184 47202 19255
1184 39731 17000
1184 35392 672
1184 44181 21883
1184 50543 29886
1184 45573 12724
1184 48210 4697
1184 38508 6872
1184 50625 32029
1184 49109 17547
1184 48607 16621
1184 53263 21817
1184 38363 14742
1184 56221 688
1184 42800 17379
1184 46958 16430
1184 42266 18615
1184 54760 18933
1184 52130 10135
16772 9445 34453
18596 4436 33995
14236 16414 26480
12273 21808 27094
15489 12971 27398
14746 15012 30881
17029 8740 29442
16981 8874 30241
47788 19642 26116
47788 29903 26431
47788 29566 8903
47788 28666 27175
47788 28067 35435
47788 14539 45206
47788 18162 49028
47788 11842 41920
47788 28123 58365
47788 19617 51077
47788 17786 42309
47788 23632 46562
47788 25242 58814
47788 14099 36553
47788 13208 51274
47788 11318 38431
47788 17041 41436
47788 30580 48461
47788 22648 48811
47788 26205 11642
47788 10180 47211
47788 27718 38786
47788 4231 53441
47788 19983 34321
47788 27980 28664
47788 14541 48583
47788 8594 56396
47788 15470 33172
47788 28732 45942
47788 14527 41280
47788 21774 22309
47788 27589 48744
47788 10554 44257
47788 20151 40754
47788 8662 43021
47788 27809 12185
47788 24835 30656
47788 28247 13837
47788 17880 27251
47788 20411 56640
47788 21889 57082
47788 12276 38803
47788 30134 27722
47788 14414 33695
43674 33654 6564
43699 33653 35929
7679 27653 31790
4507 2691 55317
26369 2691 27210
20794 2691 32804
26024 2691 26401
16805 2691 35647
26609 2691 23274
5472 2691 53263
2655 32173 4954
614 60002 44246
53 286 37325
53 222 23533
9188 2417 2154
49209 32390 29845
47487 33459 26019
2744 1802 34308
2744 1514 57835
1077 29823 29328
1077 29878 14532
41484 33714 25734
41386 33716 32314
918 1345 26406
1335 1345 38023
1182 1345 31039
2182 1345 46229
3232 31854 45289
44705 28953 26101
39597 28953 1257
23699 28953 5151
26338 28953 11409
39423 28953 8029
43352 28953 16655
31738 28953 21189
44129 28953 12076
15660 28953 16332
39208 28953 1864
41895 28953 53023
33369 28953 31459
36134 28953 35680
31764 28953 31291
44716 28953 44787
23605 28953 23781
43135 28953 9465
34039 28953 14421
22139 28953 8897
31137 28953 37680
29454 28953 26847
35405 28953 3727
34302 28953 13666
44806 28953 36739
42477 28953 25880
41531 28953 33679
15091 28953 12724
37147 28953 30141
15568 28953 12117
27161 28953 1211
37460 28953 46995
35421 28953 9267
23872 28953 2204
40645 28953 38825
29747 28953 15072
37258 28953 27488
45862 28953 58360
44571 28953 15445
37655 28953 41747
16199 28953 15154
43038 28953 37260
16975 28953 18789
40797 28953 33714
31248 28953 19798
14961 28953 3914
31388 28953 33285
21946 28953 8212
22105 28953 22688
22639 28953 14765
30760 28953 29651
14205 28953 16909
22383 28953 11657
43385 28953 52568
32309 28953 31814
45654 28953 8564
39966 28953 24720
42449 28953 50113
26813 28953 26370
14374 28953 6833
6368 28953 4624
17200 28953 18300
21401 28953 20153
36152 28953 23004
30828 28953 9730
18867 28953 11004
15447 32714 58756
43158 33674 39134
42950 33680 14172
2799 51804 57941
2799 38515 49488
2799 40079 49127
2799 52183 20003
2799 40243 46082
2799 50492 30636
2799 36480 55942
2799 49286 32987
2799 55343 52824
2799 52436 41665
2799 53090 38761
2799 51436 25459
2799 41711 55589
2799 56200 58402
2799 55857 28583
2799 39431 57532
2799 54553 36039
2799 45699 37589
2799 50902 27847
2799 52539 23288
2799 52169 32932
2799 56193 8573
2799 38053 58124
2799 56296 31577
2799 57967 40122
2799 53913 58793
2799 35248 54725
2799 56503 24571
2799 58241 6533
2799 51500 33682
2799 54905 11458
2799 57716 9161
2799 48563 59427
2799 41807 39880
2799 34422 54126
2799 57275 15470
2799 46559 56241
2799 53767 29760
2799 48951 42189
3438 31843 21029
40469 33726 56415
39810 33730 46628
48460 33321 57309
9038 32347 2438
7886 32276 11022
8404 32308 41662
8304 32301 38353
9300 32363 1237
47788 12520 15021
47788 1750 36172
47788 5114 29863
47788 2134 51552
47788 14356 9393
47788 10353 29524
47788 6162 46322
47788 5196 39453
47788 116 14383
47788 14182 2649
47788 9870 30469
47788 9309 4561
47788 1781 3060
47788 3136 1448
47788 4963 34069
47788 19482 3849
47788 3982 1250
47788 2327 21272
47788 519 46574
47788 10678 32159
47788 3440 565
47788 18575 7498
47788 1573 39791
47788 596 58331
47788 10930 13091
47788 4875 3452
47788 4790 18163
47788 20610 14105
47788 10851 2375
47788 24915 1526
47788 3672 39651
47788 5621 48007
47788 1078 17353
47788 2535 54189
47788 7441 39802
47788 11792 33969
47788 12196 28264
47788 2328 36881
47788 7162 26882
47788 7936 26511
47788 3056 32935
47788 15126 29932
47788 4863 43973
47788 11324 1259
47788 14810 25214
30413 29428 59725
17049 29404 59725
2568 32302 52221
3712 31894 52405
32306 33580 39546
32534 33588 47612
32346 33582 41846
1184 44760 38506
1184 41108 46644
1184 36083 19074
1184 35100 12227
1184 36738 34013
1184 36212 36463
1184 44760 50872
1184 47375 45202
1184 35401 53288
1184 35958 51510
1184 33920 7471
1184 50420 52808
1184 49867 48368
1184 50432 43807
1184 50077 50198
1184 41717 57089
1184 35570 11500
1184 35511 47795
1184 39422 41103
1184 36012 22910
1184 40351 24364
1184 37311 19098
1184 32676 25505
1184 49399 50802
1184 43752 48404
1184 41613 33207
1184 52026 50614
1184 32400 49037
1184 38534 53354
1184 31537 37698
1184 38483 57688
1184 34141 27656
1184 39301 51689
1184 54016 54203
1184 33598 9519
1184 41111 42725
1184 53459 53482
1184 32517 17466
1184 45933 54716
1184 38032 45119
1184 37383 28698
30481 886 432
45228 968 432
4274 62552 57177
24295 33228 22705
24032 33214 46108
22215 33118 1343
22874 33153 699
12076 1345 58921
2437 58853 26662
23790 2500 58122
19601 32341 58756
38482 33078 58756
35560 32148 58756
32223 30617 58756
31425 31375 58756
4247 32437 25753
49216 31690 18006
47781 23363 419
600 62736 14143
27134 33366 2229
28090 33410 9802
29049 33453 1352
2744 2203 11372
2744 2065 31580
44818 2691 51832
38167 2691 50901
24030 2691 37201
45251 2691 44184
38425 2691 15377
34206 2691 50004
32717 2691 48454
35826 2691 18204
43379 2691 56425
43461 2691 49106
41711 2691 7702
20474 2691 45923
39017 2691 41824
30661 2691 38758
40338 2691 22707
44819 2691 27039
41536 2691 44636
30382 2691 51552
18956 2691 45369
43314 2691 53866
29959 2691 45098
45530 2691 16010
41373 2691 33454
31730 2691 28181
41936 2691 53542
33612 2691 28172
30038 2691 53319
20387 2691 38464
44649 2691 28698
8576 2691 52241
5618 2691 54594
32626 2691 42496
7949 2691 54713
36987 2691 33321
22492 2691 38634
40079 2691 48378
35637 2691 37870
28131 2691 51815
24599 2691 32642
16498 2691 41696
40388 2691 40148
31519 2691 49090
45245 2691 41920
17310 2691 56250
17187 2691 43994
43495 2691 50973
44661 2691 21934
13552 2691 54115
13633 2691 57348
11954 2691 46488
40011 2691 48895
43634 2691 48030
33842 2691 32330
43913 2691 45289
42045 2691 35534
36472 2691 21459
29504 2691 28476
29260 2691 52545
42386 2691 57616
3930 31529 419
3957 63083 12269
29783 33414 419
40364 30819 419
45209 32671 419
39695 31065 419
6349 30716 419
46066 5933 9576
46066 5742 868
46066 24745 3585
46066 13849 8409
46066 2623 2549
46066 28278 3010
46066 22326 6159
46066 27351 32192
46066 15359 26821
46066 9817 5786
46066 20723 33624
46066 6760 4579
46066 23816 29550
46066 18400 10419
46066 14739 24552
46066 27448 646
46066 18010 12367
46066 28325 48753
46066 22246 446
46066 18970 15820
46066 21092 38499
46066 3536 823
46066 7810 9915
46066 10704 14019
46066 28880 30127
46066 25570 25275
46066 20917 25940
46066 14128 22654
46066 28134 12936
46066 6272 1107
46066 12664 19876
46066 11750 10538
46066 28443 3511
46066 20477 27344
46066 28431 35037
46066 22817 33828
46066 27864 14240
46066 21532 28738
46066 16407 1076
2464 37639 55868
2464 50896 53013
2464 44373 46522
2464 50983 45684
2464 48055 39925
2464 45074 33529
2464 37955 47799
2464 50898 42229
2464 34587 43293
2464 33597 16350
2464 50124 46583
2464 54034 55025
2464 36065 41439
2464 45895 50182
2464 39783 28674
2464 46063 56531
2464 36534 24474
2464 43960 30505
2464 41628 45399
2464 50840 57786
2464 34034 6941
2464 33578 20790
2464 43767 56206
2464 55911 55369
2464 36161 17665
2464 38608 45939
2464 32860 7087
2464 35080 49691
2464 41146 30022
2464 36314 34964
2464 35138 40408
2464 34274 9533
2464 35996 11367
2464 34815 33779
2464 35009 16842
3385 31842 56271
2744 27389 32472
34310 33644 3019
34662 33655 17982
48463 33319 35472
1813 30675 38088
1987 30675 59113
46066 14268 39451
46066 6895 40840
46066 14993 50441
46066 6098 50837
46066 14823 56623
46066 4526 26495
46066 4675 42695
46066 2279 57438
46066 7880 24136
46066 4528 11637
46066 19520 42364
46066 16106 43338
46066 11854 45485
46066 6015 57883
46066 2382 26690
46066 2565 41556
46066 1540 23646
46066 6935 48284
46066 5080 39274
46066 12755 30315
46066 2057 21439
46066 6712 41986
46066 1912 12894
46066 17836 49291
46066 4757 16969
46066 21492 54782
46066 1836 41792
46066 24347 52816
46066 15793 54134
46066 5093 45829
46066 9641 48779
46066 5901 48413
46066 11976 36536
46066 2822 27901
46066 1037 23685
46066 13228 45712
46066 3221 22414
46066 9278 59407
46066 1722 50112
46066 2146 37815
46066 13476 56466
46066 2661 31113
46066 4702 50376
16689 9588 26331
45941 32031 58756
39617 29407 419
3605 47469 59271
12943 17811 38386
17824 2691 27519
30312 2691 17489
18945 2691 27431
30778 2691 14967
20148 2691 25644
6158 2691 29751
29207 2691 14263
15939 2691 22329
41971 2691 5000
32010 2691 11428
3609 55678 13
3267 31850 21484
3953 32026 4854
1165 63241 34887
8835 32334 47847
10929 32464 15751
9924 32402 27854
10751 32453 36775
2887 31343 23460
2887 30978 9697
1189 30675 39777
1776 30675 2722
1937 30675 7749
43508 30675 36167
44278 30675 7970
16419 30675 58994
37596 30675 49969
10236 30675 54141
21059 30675 57438
13046 30675 51825
34870 30675 30294
30320 30675 41713
32890 30675 48735
38645 30675 36043
43960 30675 19768
39747 30675 31684
18890 30675 58252
44503 30675 58164
23142 30675 35292
25808 30675 43149
25357 30675 39613
17210 30675 55069
22699 30675 47019
21911 30675 57375
43437 30675 49888
30843 30675 39800
37925 30675 59618
37352 30675 52835
44850 30675 6076
20822 30675 52457
45456 30675 25297
47664 30675 33611
28590 30675 47735
31506 30675 41999
42934 30675 15021
44716 30675 26029
22925 30675 40157
37913 30675 14868
31785 30675 32543
6186 30675 57365
19224 30675 47444
17799 30675 43809
41992 30675 33789
33812 30675 38996
45742 30675 26401
46409 30675 6668
21463 30675 37172
46421 30675 13190
42451 30675 12469
45289 30675 38485
40893 30675 43658
47716 30675 34248
41383 30675 31074
8360 30675 58436
7691 30675 57490
35273 30675 25192
16984 30675 48083
20927 30675 40059
37476 30675 17908
36675 30675 49635
33197 30675 33446
40569 30675 49803
45725 30675 32500
17610 30675 46211
36751 30675 34736
22089 30675 51612
1184 50102 52245
1184 38030 51955
1184 47990 58786
1184 31657 21064
1184 42900 44699
1184 38765 30950
1184 38183 57066
1184 53558 55227
1184 45138 47956
1184 36652 44559
1184 32074 23566
1184 52143 56792
1184 30796 41557
1184 31599 19233
1184 39958 42497
1184 45981 51702
1184 32400 47034
1184 42050 49377
1184 43118 43419
1184 36847 32562
1184 55408 59323
1184 34153 50817
1184 33606 38146
1184 42634 40122
1184 36309 31460
1184 38214 24736
1184 39469 20815
1184 45943 58171
1184 39756 58204
1184 36615 23302
1184 42809 47243
1184 54428 58993
1184 42752 29571
1184 40418 24873
1184 35969 16609
1184 43914 58533
1184 32611 49655
1184 50318 54104
1184 43488 57879
4294 60833 41492
4294 60542 40052
4294 62168 11204
4294 61842 28609
4288 36599 800
14294 2691 3325
9412 2691 12893
10374 2691 13303
16991 2691 10410
15718 2691 18278
12524 2691 24506
8932 2691 7809
11111 2691 10167
29293 2691 2692
5450 2691 28614
15121 2691 8508
4344 2691 17262
3742 2691 11431
6147 2691 2249
20183 2691 12830
7578 2691 13192
9713 2691 25756
4877 2691 14655
16434 2691 7720
4701 2691 10551
9592 2691 18971
5240 2691 23882
5532 2691 29278
25101 2691 3322
19133 2691 11980
22612 2691 5641
7234 2691 3693
36138 2691 6436
3628 2691 16383
25885 2691 10072
48750 30911 734
27040 447 59736
24235 334 59736
41260 33718 2137
1910 58935 59725
14159 9578 31936
22592 33138 48628
22529 33135 38334
22697 33144 42196
22291 33122 38904
2799 37135 35246
2799 37537 40202
2799 39146 14826
2799 38863 38671
2799 43973 12737
2799 40263 4502
2799 35888 4456
2799 50763 3463
2799 48692 15448
2799 43747 26955
2799 46369 25284
2799 52815 3362
2799 49695 15438
2799 32996 20500
2799 38339 26612
2799 38804 17418
2799 30883 57229
2799 43239 21131
2799 31244 18746
2799 35858 8970
2799 40586 39252
2799 35781 20309
2799 43185 30563
2799 49973 17818
2799 31455 39517
2799 37512 3514
2799 32823 51282
2799 33406 20186
2799 52721 7279
2799 31281 36686
2799 39664 34454
2799 30962 11200
2799 36816 15693
2799 54064 2589
2799 41048 11715
2799 41780 31689
2799 50151 5441
2799 32594 3658
2799 47952 11915
2799 32372 22320
2799 31922 19427
2799 34550 36667
2799 35940 18453
4290 45283 58464
15465 28953 24772
26045 28953 57640
6213 28953 47079
28216 28953 45985
30697 28953 50000
8383 28953 27324
4954 28953 17573
22122 28953 42396
1235 28953 11802
1302 28953 9935
23055 28953 38004
34467 28953 49734
28198 28953 51930
15539 28953 49211
17254 28953 50676
39097 28953 54036
15759 28953 20355
2612 28953 45340
13208 28953 46117
18105 28953 40512
7261 28953 13155
10344 28953 16392
8670 28953 58220
8645 28953 30361
31200 28953 49926
1825 28953 22626
2537 28953 13080
29913 28953 38883
25808 28953 49668
23626 28953 50439
16881 28953 43837
13281 28953 32080
19868 28953 37654
5572 28953 44223
6557 28953 25446
7383 28953 14625
7633 28953 21878
10999 28953 17777
28544 28953 58235
6209 28953 22089
20562 28953 45414
28373 28953 54291
8546 28953 44600
13833 28953 22737
16445 28953 51469
4219 28953 34475
30029 28953 47391
3973 28953 59625
25647 28953 54731
19774 28953 44332
26730 28953 38156
29002 28953 44338
12182 28953 45593
25963 28953 40364
24498 28953 50989
6621 28953 37959
3743 28953 9787
10871 28953 16058
7003 28953 10832
40823 28953 53108
12590 28953 17696
10018 28953 14520
14009 28953 35739
9816 28953 52681
11007 28953 33530
17673 28953 51977
28452 33426 20356
28887 33445 14793
27557 33385 52792
4282 62498 22690
2930 63270 51994
2128 63270 56900
3082 63270 11516
5499 10488 32897
4959 11921 32897
7093 16638 32897
4713 7192 32897
11047 12076 32897
10862 13813 32897
13998 3536 32897
9573 18956 32897
8517 22719 32897
24065 33216 31143
23574 33190 12553
22199 33118 11634
22661 33142 5243
3998 46248 59076
15814 1480 58122
12605 2332 58122
13479 32619 32739
11746 32515 9543
11971 32528 24468
12304 32548 36612
13389 32614 55932
4294 53989 45530
4294 39731 47139
4294 37793 53178
4294 37627 56106
4294 50739 53534
4294 57128 41742
4294 53702 33842
4294 50900 30183
4294 57120 45770
4294 58398 42216
4294 40130 46036
4294 59870 40224
4294 52314 42617
4294 42725 54422
4294 46842 45119
4294 44495 48787
4294 52198 30552
4294 45590 57526
4294 57361 57854
4294 53725 51552
4294 51060 34388
4294 56599 20663
4294 54882 42851
4294 60330 5427
4294 47721 52619
4294 35138 54814
4294 42128 52146
4294 51900 24841
4294 51667 57173
4294 57440 31812
4294 58989 32111
4294 59285 43176
4294 47078 38191
4294 56247 27914
4294 52413 27096
4294 61104 14550
4294 47802 29983
4294 52179 32651
18057 2691 24123
19025 2691 20423
24925 2691 22740
24291 2691 21340
11065 2691 26413
37618 2691 7752
23457 2691 23262
9076 2691 28071
19821 2691 20629
30706 2691 16253
33889 33632 56058
34688 33655 49588
33671 33626 47159
34298 922 59736
38565 446 59736
1988 30675 22507
1407 30675 46382
2077 59355 49861
2464 33001 24160
2464 35835 40595
2464 33888 10845
2464 42941 25498
2464 35479 40980
2464 35771 53822
2464 34821 22374
2464 43742 37223
2464 36355 57667
2464 34820 32757
2464 42204 38837
2464 40134 49730
2464 39823 36167
2464 34541 48381
2464 44453 55628
2464 44197 52211
2464 46930 39239
2464 33915 14965
2464 40003 17821
2464 41450 37704
2464 34616 53670
2464 38992 57026
2464 38471 31376
2464 39702 47384
2464 36951 43755
2464 42432 40082
2464 37463 30772
2464 34064 42449
2464 41946 37842
2464 32723 54201
2464 35392 44260
2464 33669 17584
2464 45195 39808
2464 38124 56842
2464 38553 14743
28755 33439 39434
28762 33440 25814
31207 33541 55117
31355 33547 38780
31212 33541 57469
29319 33465 56887
1510 59503 12549
13022 32592 15429
14355 32672 24255
13106 32597 12609
14428 32676 11065
15033 32713 30860
47211 33444 15123
43377 1834 58122
35988 2332 58122
3537 32273 33247
2960 32273 29564
6398 32273 43825
3905 32273 30328
4445 32273 28316
4085 32273 47742
4740 32273 51980
3683 32273 21119
682 58336 20335
3666 31875 13492
2441 56004 59725
44002 2176 2154
2894 37373 59178
2074 38946 419
4294 48857 18194
4294 41161 3291
4294 54385 13961
4294 40363 4193
4294 35936 39672
4294 40731 18585
4294 49685 22295
4294 33444 27249
4294 43223 19592
4294 33351 18210
4294 53134 5398
4294 34720 35397
4294 42057 14887
4294 42510 35944
4294 59286 6036
4294 43478 37151
4294 39595 10890
4294 41146 39950
4294 38206 33415
4294 41823 39490
4294 43405 21662
4294 43107 37648
4294 47037 14158
4294 36849 38165
4294 33621 25392
4294 33744 45640
4294 35742 47856
4294 50885 18315
4294 36317 28666
4294 35075 39139
4294 42623 26106
4294 51697 3977
4294 59089 2493
4294 45325 30089
4294 44053 7194
4294 34878 13639
4294 40720 8678
4294 37650 8281
4294 37097 45594
4294 37791 31314
4294 40600 15465
44023 33640 49343
44352 33626 4879
46433 33502 42099
43840 33647 25896
43516 33661 38076
4294 60940 971
4294 53280 8403
4294 32870 51738
4294 47887 27581
4294 54297 6163
4294 55981 3956
4294 37588 27218
4294 45473 33396
4294 32990 3538
4294 41649 8145
4294 42510 5717
4294 35261 7927
4294 35943 24612
4294 40686 21246
4294 34166 1318
4294 49842 20539
4294 44206 30455
4294 49601 8927
4294 50670 4688
4294 36912 20311
4294 54828 10859
4294 41224 36535
4294 40250 13573
4294 51923 20303
4294 44474 29017
4294 40161 12060
4294 47753 21232
4294 55579 10557
4294 49398 23018
4294 53654 3462
4294 51022 17109
4294 47391 22343
4294 33150 26867
4294 42011 16194
4294 34610 34641
4294 51045 8461
4294 33439 43924
4294 41196 8962
4294 35117 47976
4294 33989 17566
4294 49437 1316
3543 63256 41791
46628 0 16060
47743 0 24937
21749 33094 8114
22315 33124 50386
23485 33185 44366
23105 33165 37583
1184 57103 32104
1184 46342 29868
1184 52681 3929
1184 45386 15886
1184 56904 44121
1184 42864 21463
1184 47851 24924
1184 54371 49334
1184 50765 39863
1184 39317 8652
1184 45085 21621
1184 48432 30054
1184 53887 50054
1184 50790 18788
1184 42407 22342
1184 48979 31260
1184 55379 22511
1184 36579 5976
1184 48246 12874
1184 45161 31159
1184 49729 13750
1184 44217 14808
1184 51212 37930
1184 38353 12706
1184 44814 1692
1184 39352 11865
1184 46417 8386
1184 54036 41342
1184 52338 20770
1184 46986 13251
1184 47334 9126
1184 53932 46504
1184 55907 26951
1184 54251 23524
1184 35269 7285
1184 39876 2136
1184 45449 23730
1184 39236 2196
1184 51988 39431
1184 55023 44957
30079 30604 4380
17301 30604 8514
14208 30604 26282
13789 30604 2254
32103 30604 6205
27633 30604 7260
12490 30604 10594
14144 30604 36622
14563 30604 25918
20676 30604 18417
39495 30604 6192
12984 30604 37976
9672 30604 5525
9300 30604 14702
5842 30604 35105
31709 30604 9973
4752 30604 10966
32177 30604 7381
10657 30604 14638
8946 30604 12192
7062 30604 4014
11484 30604 43310
3479 30604 25543
34399 30604 4934
30299 30604 6783
4433 30604 5445
13713 30604 37826
4897 30604 44344
36807 30604 8389
19298 30604 31933
3935 30604 26692
9054 30604 1063
16059 30604 9430
10125 30604 2934
29037 30604 12185
25200 30604 24564
3047 30604 52555
13089 30604 25077
8681 30604 4836
12676 30604 1794
12204 30604 5376
20861 30604 29058
3584 30604 55124
6134 30604 38335
7751 30604 47754
24127 30604 14729
10666 30604 22695
15289 30604 10101
14296 30604 33898
10449 30604 24157
33226 30604 15173
7738 30604 44524
32872 30604 9219
17751 30604 25072
31976 30604 5441
3018 53192 55
40954 33723 45185
40907 33723 33875
47564 33470 20957
44895 33597 5900
4172 32264 42995
42480 33694 15923
5332 30991 419
14802 32699 11710
12323 32549 10066
14981 32709 11252
14605 32687 20506
14427 32676 5343
18722 32927 22235
19278 32957 38640
20177 33007 10628
20485 33024 19840
19175 32952 24041
2799 59568 54216
2799 59557 34179
46220 33517 23435
46014 33530 50281
39797 33730 56899
40011 33728 31230
1765 60058 46974
2725 60058 50945
2165 60058 22812
2798 60058 15484
42001 33705 4207
42162 33702 49116
2215 59248 12764
13429 11615 32647
49149 32569 1599
7551 2691 47243
11512 2691 36409
13431 2691 35752
15531 2691 34189
2907 2691 41029
8231 2691 38963
3144 2691 46799
8509 2691 36197
11229 2691 33183
2887 31602 58701
2887 31191 31624
1077 29263 54875
1077 29116 16874
20340 758 432
772 58336 58726
0 58336 13203
23395 2691 25535
2887 31257 52633
2887 31287 40422
2887 30830 47755
49232 32245 15115
47467 3674 59725
27900 33401 17693
27265 33372 9607
27822 33397 32114
584 60076 2770
9643 32384 18006
10230 32421 4080
9848 32397 24833
9629 32384 20201
8076 32287 5680
10151 32416 15523
34931 33662 56472
33427 33619 26989
34046 33637 42226
2589 30675 22375
2737 30675 5872
31359 33547 8098
31123 33537 24160
30937 33530 25724
45722 30880 58756
2545 60058 53544
2054 60058 59489
2447 60058 21487
2477 60058 38494
4294 38017 51038
4294 47109 43359
4294 37105 56167
4294 57091 22433
4294 54237 32017
4294 44070 38625
4294 49802 28489
4294 54337 41557
4294 58970 25133
4294 45727 38483
4294 49281 56977
4294 57181 38636
4294 47335 46948
4294 59891 28409
4294 57367 23354
4294 51458 49779
4294 47756 50525
4294 56013 38605
4294 59193 41248
4294 57838 24516
4294 51469 32139
4294 54222 36382
4294 59183 54244
4294 46365 46999
4294 53189 56360
4294 57226 12269
4294 53611 43013
4294 54009 57837
4294 59627 39444
4294 53421 39122
4294 50235 37639
4294 49976 33535
4294 53885 23676
4294 46253 56796
2744 8196 32686
4112 58265 58951
22733 30242 59725
35048 30652 59725
45740 33548 14480
46878 30675 10336
23253 30675 43780
14197 30675 56572
27241 30675 41225
39577 30675 15131
25995 30675 33353
28392 30675 41958
28274 30675 45249
16482 30675 47298
14214 30675 47776
17725 30675 56872
29927 30675 47594
9873 30675 58073
17077 30675 45088
41047 30675 57574
43116 30675 36857
46175 30675 29863
13586 30675 47299
26835 30675 33972
21586 30675 54134
33397 30675 53468
15192 30675 47477
45451 30675 41580
47263 30675 49499
37477 30675 28198
31530 30675 39272
33255 30675 55776
38952 30675 20706
38959 30675 24326
26905 30675 55882
13268 30675 53704
26235 30675 40980
46400 30675 20654
40296 30675 50661
31291 30675 32635
41526 30675 42689
39911 30675 18874
14803 30675 52214
28971 30675 52020
3862 30675 59539
42434 30675 34245
25198 30675 32349
28126 30675 39656
39721 30675 49005
41537 30675 23582
46410 30675 27770
45633 30675 53475
34565 30675 58816
38450 30675 18952
37732 30675 41628
17319 30675 55958
35261 30675 57998
27818 30675 35627
43194 30675 26465
39658 30675 35944
15113 30675 58815
20624 30675 49229
32523 30675 52826
6078 30675 56690
9206 30675 56093
35733 30675 56448
47509 30675 11467
46263 30675 12413
27405 30675 32032
2453 58733 53119
45688 2459 14333
3038 31898 41401
38412 33725 11343
38474 33725 1626
44107 1345 1223
35459 1345 1102
923 1345 15690
1517 1345 13151
923 1345 7308
1676 1345 24475
2355 63270 25675
1601 63270 36402
2557 32327 49799
543 62528 28918
10777 818 59736
30346 295 59736
35311 1345 58214
8921 1345 59350
7642 4711 32897
11712 7735 32897
14387 8263 32897
11757 8736 32897
5388 3338 32897
8441 18596 32897
5628 16922 32897
5718 16052 32897
10034 3911 32897
28911 28953 53711
10100 28953 19994
8918 28953 12960
13263 28953 42293
8018 28953 10216
12310 28953 21245
5295 28953 15836
23903 28953 31916
15874 28953 42347
11563 28953 48466
24787 28953 38960
5893 28953 33191
16697 28953 45112
14359 28953 58232
31445 28953 53547
17516 28953 37909
5802 28953 54316
6549 28953 24017
23531 28953 39444
22815 28953 33873
2998 28953 28486
3450 28953 10671
3693 28953 32579
35286 28953 58678
12749 28953 21565
9392 28953 47538
15436 28953 39562
35388 28953 46892
9854 28953 56027
14969 28953 37369
21673 28953 47639
3104 28953 34590
10828 28953 51785
7995 28953 41317
8665 28953 52796
12297 28953 40948
5323 28953 58061
4708 28953 26416
15526 28953 26556
11071 28953 38467
15766 28953 28029
25605 28953 47205
14599 28953 24042
30588 28953 41592
3407 28953 39187
5841 28953 34265
1103 28953 56114
42892 28953 57924
11393 28953 16618
2665 28953 48188
16940 28953 24435
21060 28953 36700
14359 28953 48618
5528 28953 11560
2366 28953 21204
29229 28953 59273
11016 28953 26423
22171 28953 47591
6236 28953 39512
33000 28953 43021
14378 28953 53838
0 58660 45433
0 59011 48086
0 58512 8518
527 60998 38935
527 61357 54545
527 61246 27011
35388 33674 58195
35594 33678 44015
35661 33680 52069
7614 32273 56211
3505 32273 23951
3852 32273 17745
6006 32273 40308
3163 32273 14692
5344 32273 52236
4388 32273 51328
3544 32273 44015
45209 1345 1724
37200 1345 1965
25192 33272 27643
24708 33248 34071
24704 33248 10115
48201 33438 6869
35893 33685 42309
35826 33683 25752
20771 33040 56115
20405 33020 57836
20117 33004 40592
21210 33065 26356
21203 33064 32332
1394 45936 419
31366 0 8959
15081 0 15905
22142 0 25175
26628 0 5953
32414 0 30329
25358 0 30863
39434 0 30002
44714 0 35368
16394 0 4626
31979 0 5181
26981 0 8618
44555 0 7632
42791 0 5873
4281 0 2754
34474 0 19143
34192 0 5004
39010 0 5066
25372 0 31709
43985 0 43221
38711 0 7318
40342 0 47481
36389 0 16144
45425 0 2538
27727 0 4514
25664 0 8811
39080 0 45443
20127 0 13005
39462 0 36972
38920 0 2537
20028 0 16696
44160 0 19912
19467 0 21558
41344 0 36023
12789 0 16923
44934 0 39266
14119 0 13366
43816 0 26619
11366 0 11138
44119 0 1466
21868 0 11292
24267 0 11731
34786 0 16440
32054 0 10802
41690 0 52716
31344 0 38564
40096 0 42218
32115 0 1907
25081 0 25815
25686 0 12340
30581 0 25670
41224 0 23888
45656 0 23456
38341 0 48642
22666 0 7143
21419 0 15600
44355 0 41563
2822 0 1196
22773 0 22814
29882 0 39104
10999 0 4021
42541 0 39612
38432 0 35538
12398 0 11212
25467 0 19947
23391 0 1384
38364 0 18468
49219 31714 28729
10729 1386 58122
47731 33496 20185
48828 30990 11875
49266 32007 8784
49251 32126 4088
40669 33724 25225
40749 33724 20468
26875 33330 419
45331 28953 55005
40084 28953 40334
41507 28953 31746
37658 28953 12055
25887 28953 26638
32019 28953 4022
8821 28953 4396
41260 28953 29291
42001 28953 51301
18339 28953 6224
43188 28953 6617
21300 28953 12052
36689 28953 7845
33180 28953 8318
39872 28953 45220
15868 28953 4609
19999 28953 2834
9193 28953 10703
43492 28953 14482
28342 28953 31551
42665 28953 47348
43957 28953 43660
43052 28953 13156
33810 28953 28068
39634 28953 28557
38030 28953 25717
28219 28953 9787
38455 28953 29786
41066 28953 19809
33285 28953 16499
27687 28953 3052
25568 28953 22161
41589 28953 7306
45620 28953 55450
39148 28953 45885
31459 28953 26267
39394 28953 47352
14081 28953 886
21517 28953 7527
25707 28953 17459
41305 28953 21828
19883 28953 19800
38250 28953 12344
43117 28953 1546
44950 28953 12980
37369 28953 36063
25521 28953 3087
8104 28953 1600
34941 28953 41012
18269 28953 14562
16404 28953 10293
4185 28953 3854
44237 28953 31926
44864 28953 39815
21297 28953 9582
24063 28953 13992
18880 28953 1532
43802 28953 6914
37321 28953 34040
17557 28953 19201
37465 28953 43374
4255 38092 604
45688 1333 26164
45688 315 56084
49223 32301 32268
49019 32824 18719
377 58336 4381
4058 62997 15859
1527 1345 21413
1310 1345 16477
2514 1345 19878
4294 60557 53227
4294 61042 47687
4294 60896 39210
4294 60867 56159
4294 61037 43951
527 61632 23371
527 60905 9594
527 62242 49072
32040 33571 32818
31495 33552 15842
32405 33584 8964
1077 30075 12909
1077 30448 43007
1077 29458 13285
20169 33007 33940
18873 32935 57985
19971 32996 55865
20842 33044 24519
45688 605 43172
45688 463 54759
2714 32098 15717
33138 33609 38372
32733 33595 25374
32605 33591 36575
13959 10133 31835
2464 54945 40624
2464 58441 31895
2464 34135 1024
2464 49681 23976
2464 46090 29768
2464 40949 18500
2464 55616 40350
2464 45544 27794
2464 52791 32913
2464 53802 35724
2464 38302 8275
2464 50584 6341
2464 58601 32515
2464 55814 31849
2464 44806 21508
2464 52861 28045
2464 50197 25384
2464 44307 10998
2464 57842 6359
2464 42391 11988
2464 51689 19158
2464 49157 19935
2464 38781 1693
2464 53678 42534
2464 53681 4269
2464 41372 8847
2464 57123 40575
2464 49392 5245
2464 56029 7859
2464 51776 30834
2464 39960 1162
2464 53300 11165
2464 50745 35845
2464 57579 9756
2464 36317 4461
2464 57058 37788
2464 53362 17371
2464 46630 4977
2464 54855 1497
2464 38343 5997
2464 52496 16639
2464 53175 29033
2464 40862 15071
2464 49609 32150
2464 53145 19278
2464 58535 23062
2464 56077 30326
2464 54104 22178
2464 43791 18396
2464 50508 11561
2464 35288 2061
2464 55203 46465
2464 57489 8173
2464 45874 6892
2464 55873 42859
2464 50529 36551
2464 50256 27296
2464 49226 14838
2464 45110 3896
2464 50122 21240
2464 45464 17563
2464 41378 15978
2464 45244 4793
2464 41113 12690
2464 56665 958
2464 55566 30365
2464 48221 3275
2464 51643 13427
2464 52280 12719
2464 54792 3933
2464 33188 968
2464 51688 40375
13516 18393 28133
12561 21016 29295
13477 18500 27054
15194 13782 31836
16109 11268 33885
14792 14886 29557
13006 19794 30166
15121 13984 29707
38906 33727 49406
39546 33729 38891
1601 59503 55350
2744 1892 10777
2744 2577 4223
29 58336 50191
40370 2381 2154
31622 1785 2154
33805 33630 4772
33863 33632 6405
3855 63158 52824
21497 29996 59725
47196 30523 59725
46089 5208 59725
44497 33619 39858
44457 33621 53519
45688 735 6922
45688 17 4514
3023 25347 31175
4298 20063 31175
4901 22350 31175
1858 59461 2757
12704 15588 32884
13166 14320 37897
11027 20197 38051
15325 8388 37811
11463 18994 35285
17139 3402 30424
16857 4178 32077
17194 3251 35462
47293 33437 37074
45276 33577 41787
44635 33611 9976
6353 32273 19001
3139 32273 2023
4942 32273 16133
7771 32273 36808
7254 32273 6478
7836 32273 16134
7191 32273 34857
20774 1345 1160
13311 1345 1463
3214 31857 10861
2633 45320 59725
48777 33100 16468
29692 33480 24774
29843 33486 3846
29697 33480 45150
2329 59099 23558
46066 7250 26367
46066 4449 36807
46066 19146 53150
46066 6341 49476
46066 25644 56891
46066 5741 31600
46066 12896 28310
46066 2963 49792
46066 8566 38620
46066 22289 55825
46066 7000 46050
46066 13214 35476
46066 3562 15680
46066 27191 56524
46066 8872 35493
46066 11163 36991
46066 20424 57942
46066 11010 40359
46066 8402 40088
46066 7910 26279
46066 8835 33942
46066 14412 59405
46066 19501 40943
46066 23480 55075
46066 10479 33692
46066 335 58910
46066 7712 50655
46066 15316 54717
46066 6357 14437
46066 16856 43382
46066 12564 55485
46066 2119 58095
46066 8819 21888
46066 13186 42928
46066 17290 56620
46066 11252 42463
46066 688 31866
46066 18831 45188
46066 6948 34625
12167 19661 38386
11201 22414 38386
30634 31777 58756
31515 32156 58756
23317 31671 58756
45688 1887 49640
45688 2013 54260
18988 32941 17168
19560 32973 18645
19251 32956 15751
19426 32966 28492
30523 33513 18829
29900 33488 13688
29747 33482 42610
30510 33513 3848
42410 33696 52885
17432 3089 38386
14424 14728 38386
7810 1864 2154
21023 2691 12164
27020 2691 3227
19867 2691 4125
19017 2691 18553
10851 2691 4511
12304 2691 14720
18851 2691 2728
18518 2691 7552
24301 2691 13393
11946 2691 22757
10994 2691 18444
10868 2691 24106
3374 2691 4874
4684 2691 20990
6639 2691 17282
3149 2691 14745
13381 2691 15578
21613 2691 11117
3772 2691 28312
3650 2691 25867
22518 2691 6538
5121 2691 18203
35103 2691 7757
9013 2691 19149
7210 2691 26357
12017 2691 2762
3480 2691 27067
11606 2691 10183
37571 2691 6364
13575 2691 11645
22306 29833 419
23997 30579 419
46488 4526 419
47096 3140 419
36309 33694 21323
35833 33683 17660
43310 33669 45719
47585 23996 59725
46830 24096 419
2786 39661 59095
39341 33729 55947
39376 33729 42726
4142 51894 372
47831 33498 53440
18386 32908 26553
17167 32837 45262
17127 32834 29918
17214 32840 35290
17938 32882 38530
45688 51 30087
45688 429 39689
36862 33705 6406
37071 33708 27154
622 62791 52183
8000 28752 38350
527 62222 22502
527 62009 2458
527 62056 7376
530 62430 6510
15640 8462 38386
12474 16221 32253
11058 20112 31704
8724 26524 33077
9691 23866 30749
10286 22228 33980
13374 13748 29416
13978 12087 28406
10528 21567 31259
26946 32462 58756
22495 30675 27694
26418 30675 26664
20259 30675 32690
36282 30675 13669
16800 30675 13257
21002 30675 9693
31552 30675 9205
13073 30675 39963
5327 30675 6780
26422 30675 17887
9684 30675 21719
20531 30675 31156
43932 30675 666
21205 30675 14865
31930 30675 17014
4927 30675 30861
37485 30675 8187
24979 30675 25182
27768 30675 13196
36539 30675 528
6651 30675 38007
3438 30675 53202
25138 30675 15690
30393 30675 11340
8463 30675 11605
40003 30675 8472
3214 30675 40541
10128 30675 17136
13028 30675 3598
29338 30675 16539
26739 30675 2932
19930 30675 28195
13289 30675 28516
28206 30675 21765
12249 30675 2828
15435 30675 22960
4415 30675 56035
24640 30675 18214
17498 30675 14808
34985 30675 3322
3479 30675 4198
21059 30675 12313
11917 30675 12084
12783 30675 30644
29690 30675 17312
6565 30675 39595
6730 30675 937
41033 30675 5936
3980 30675 37674
4314 30675 51541
9354 30675 1934
21749 30675 1674
25894 30675 20101
15567 30675 33672
11838 30675 14221
30511 30675 7481
17113 30675 33142
18304 30675 28536
10559 30675 15975
5300 30675 9628
18044 30675 34521
15998 30675 3021
24105 30675 25545
4234 32944 552
41848 33708 58075
41960 33706 55606
45688 1556 27801
45688 1597 26926
47788 18087 52513
47788 29690 43472
47788 26608 20747
47788 27046 32982
47788 25831 46856
47788 23848 57486
47788 30110 29002
47788 25323 12257
47788 12937 38298
47788 5358 56309
47788 10185 46480
47788 10724 45293
47788 15754 56483
47788 18787 57216
47788 18966 25242
47788 8552 47830
47788 14201 46630
47788 28959 14466
47788 18969 26898
47788 29842 14280
47788 27728 47341
47788 29995 16671
47788 17749 43492
47788 13607 42483
47788 14687 51587
47788 17507 41280
47788 28691 12977
47788 17933 42951
47788 25924 12612
47788 29739 39743
47788 24417 15652
47788 23911 39876
47788 30325 42618
47788 29149 21558
47788 23767 27250
47788 23310 32220
47788 28177 50164
47788 15808 42823
47788 11540 49880
47788 17500 49516
47788 22486 28347
47788 16402 45745
47788 28955 18275
47788 23037 22340
12499 32560 45814
12968 32588 36447
12601 32566 49146
12075 32534 56216
12494 32560 50173
46330 0 36691
46205 0 35572
46318 0 59448
46066 15097 30286
46066 26177 35144
46066 27656 48351
46066 21469 13891
46066 22012 2397
46066 25635 18677
46066 24984 32962
46066 28931 26739
46066 20629 18210
46066 22089 904
46066 13296 8162
46066 14830 20511
46066 20769 15757
46066 24714 8433
46066 4928 7431
46066 26731 40763
46066 23456 15910
46066 27933 55104
46066 10201 4642
46066 28225 19005
46066 23529 23094
46066 27980 21711
46066 27201 15934
46066 12147 15015
46066 25893 49288
46066 17143 31606
46066 26737 18125
46066 15862 17391
46066 25008 17078
46066 19011 31734
46066 13025 14947
46066 18673 8798
46066 17482 26562
46066 27281 8251
46066 18606 24779
46066 11933 23932
46066 17652 10065
46066 25876 41025
46066 6852 12736
46066 21096 17950
17711 32868 2423
16008 32770 29916
17403 32851 824
15629 32748 1296
16594 32804 17110
3999 32061 54070
45034 1345 59519
4194 1345 59680
3700 31889 16144
32155 33575 17863
32120 33574 21349
4254 62657 35956
2744 1823 46041
2744 1660 33342
21759 775 59736
46814 33473 50864
46600 33490 50266
9941 23178 32376
10051 22877 33350
11951 17658 29961
10197 22477 28997
10244 22346 31757
8337 27586 37362
12389 16454 28030
538 60283 34512
6612 0 4388
17498 0 20549
20678 0 19723
43180 0 494
29479 0 5421
41844 0 48299
32271 0 6960
6063 0 7783
24628 0 5491
19693 0 19057
36517 0 22814
35586 0 23985
24552 0 3119
25309 0 7335
21922 0 23039
38881 0 24791
38013 0 43891
33539 0 35685
42045 0 23766
26533 0 33196
37104 0 10988
3345 0 3797
28112 0 18691
42207 0 46160
33707 0 1655
9024 0 8049
41804 0 26217
29732 0 6289
20204 0 3342
33921 0 13028
42739 0 15435
33305 0 33703
37609 0 28634
28818 0 11113
40977 0 43811
14439 0 18717
16621 0 21596
17305 0 15082
14909 0 19645
39702 0 18998
16134 0 828
20596 0 14022
14580 0 1927
21508 0 5627
4273 0 4997
24612 0 18106
32884 0 4349
34545 0 44212
29479 0 23606
43599 0 40450
18189 0 22069
34687 0 12341
32245 0 41050
31400 0 4668
28289 0 23478
29555 0 9873
42131 0 4299
23947 0 10863
36546 0 36780
34434 0 14785
42299 0 24557
9251 0 12250
19834 0 24394
42341 0 32136
34161 2691 20463
19866 2691 57653
11795 2691 56951
38865 2691 34977
25025 2691 40144
37111 2691 35903
9961 2691 53076
42592 2691 44782
44738 2691 39605
39138 2691 17617
19951 2691 46373
24308 2691 53557
27899 2691 53110
29062 2691 42516
19035 2691 43524
40925 2691 32297
35245 2691 28258
12857 2691 57884
32712 2691 20876
28811 2691 24612
40509 2691 50133
35381 2691 25694
32312 2691 46091
27925 2691 45554
43032 2691 25931
38970 2691 31495
16345 2691 47588
28270 2691 48049
23415 2691 35128
40357 2691 45921
34582 2691 34763
21908 2691 57791
28625 2691 25949
31701 2691 36733
12024 2691 55322
21134 2691 47252
41844 2691 58023
26354 2691 39886
26816 2691 34132
28988 2691 39887
35847 2691 53441
37705 2691 43330
24919 2691 56239
34523 2691 20984
37561 2691 30438
41596 2691 12130
25224 2691 43189
32968 2691 20073
26126 2691 47660
42993 2691 41188
41288 2691 24189
27807 2691 36819
45614 2691 39745
16381 2691 56016
30670 2691 47157
45250 2691 34317
53 1257 36613
53 1168 45751
16231 32783 31022
16537 32800 4743
15420 32735 20776
17064 32831 16886
15998 32769 41090
11644 29458 59725
9073 30282 59725
18238 2691 29766
29923 2691 18465
3210 19390 32897
4883 23263 32897
4492 17480 32897
60 60058 39038
1576 60058 25608
1040 60058 15085
250 60058 48431
2744 26672 32751
2744 27707 31797
46118 0 14077
46747 0 50435
46276 0 20805
45742 33548 53961
3535 51405 59281
34313 33236 419
32619 30604 49530
24597 30604 29337
21063 30604 37888
42728 30604 28470
31387 30604 23670
11506 30604 52456
33119 30604 22591
27593 30604 57937
42658 30604 55621
43911 30604 24906
43921 30604 14085
26221 30604 57461
38410 30604 28053
38785 30604 35459
40037 30604 42492
19792 30604 38867
23134 30604 45183
20861 30604 40982
14255 30604 43113
44060 30604 9746
29166 30604 49949
39650 30604 33888
43920 30604 18849
33784 30604 29979
39887 30604 53487
35569 30604 32600
35302 30604 18024
19506 30604 52078
31410 30604 53371
20847 30604 46012
35714 30604 14460
40010 30604 29811
30636 30604 33940
36260 30604 43001
17908 30604 58511
28387 30604 34905
38563 30604 11327
42788 30604 37762
37355 30604 38863
28704 30604 28773
23362 30604 50479
16256 30604 55571
38087 30604 40645
37332 30604 42114
22156 30604 53233
11627 30604 54500
40734 30604 15976
38564 30604 43047
41507 30604 32834
41476 30604 10467
32170 30604 45801
15763 30604 50838
33513 30604 19859
21000 30604 38809
29035 30604 43698
27994 30604 26730
10823 30604 49605
27108 30604 30457
8684 21998 31175
13323 6457 31175
10000 12407 31175
7466 11163 31175
8975 13821 31175
7965 2845 31175
7854 22498 31175
7890 14016 31175
7271 5369 31175
8004 28754 30533
3400 14507 31175
5399 20351 31175
3046 11071 31175
6848 29553 419
3990 30398 419
18442 32355 419
48344 33380 21920
38032 33721 16023
38158 33722 13083
47788 3334 17972
47788 18293 20519
47788 15500 29011
47788 241 54378
47788 12658 28631
47788 14498 23231
47788 14048 31842
47788 9802 18235
47788 16308 14230
47788 8847 31393
47788 1654 44403
47788 1340 52937
47788 21637 4576
47788 7230 15700
47788 11977 32743
47788 12250 22249
47788 19384 7921
47788 496 9565
47788 5138 5509
47788 16213 21359
47788 2681 8077
47788 7330 12251
47788 6773 21093
47788 7497 19926
47788 24004 10397
47788 2803 53787
47788 2452 9682
47788 13061 16560
47788 27061 1650
47788 76 8906
47788 1590 31218
47788 4034 48805
47788 7098 20493
47788 20477 10029
47788 21878 10322
47788 6153 36475
47788 5867 21721
47788 322 11653
47788 15401 16287
47788 21691 3711
47788 6274 41403
47788 13721 3791
47788 18756 19760
5584 28522 32298
554 60163 12175
33696 1126 432
9501 450 432
3343 63270 39226
2947 63270 39822
2659 63270 24260
2034 63270 22429
3028 63270 7599
16993 3806 30659
10779 20876 34989
14961 9388 29431
16062 6361 36369
16601 4882 36408
15024 9215 33072
16170 6065 31902
12613 15839 34643
4274 32546 44745
10711 30604 47393
18379 30604 33062
23894 30604 15438
26512 30604 10336
8791 30604 45844
4080 30604 30779
14671 30604 9469
10158 30604 31748
6256 30604 3476
40555 30604 4616
37268 30604 4863
11966 30604 4188
20357 30604 23746
23391 30604 22119
13990 30604 4707
18320 30604 32584
7351 30604 12439
21201 30604 17847
6148 30604 38837
9903 30604 10223
12447 30604 7071
21388 30604 10667
12153 30604 31565
8566 30604 23989
7412 30604 26521
3007 30604 56385
6001 30604 5231
14416 30604 40677
9124 30604 5554
23943 30604 5923
32702 30604 13212
17903 30604 11154
7310 30604 30578
33446 30604 12388
23333 30604 27641
16081 30604 37929
12874 30604 44637
17101 30604 4811
5133 30604 38474
31581 30604 1882
30135 30604 15997
6168 30604 23985
15521 30604 29038
8169 30604 45476
10317 30604 11310
12828 30604 4408
9702 30604 25745
3462 30604 9832
23592 30604 20329
33754 30604 583
24506 30604 4073
29824 30604 2717
10688 30604 35267
18659 3269 33967
45605 33557 36128
45775 33546 19242
25510 33288 2997
24419 33234 11585
25895 33307 10489
18420 32910 12324
17855 32877 23025
17604 32862 18195
16466 32796 40864
18445 32911 15252
1310 62459 0
53 251 21329
53 360 53900
37101 33708 17436
673 62880 2443
22791 30675 9980
11185 30675 25643
21424 30675 18973
5035 30675 48813
11828 30675 22791
9311 30675 38717
12043 30675 25291
15200 30675 17159
16583 30675 8556
18629 30675 2665
12157 30675 38700
31166 30675 21570
32824 30675 3906
20163 30675 21544
31854 30675 8539
10539 30675 45528
16703 30675 32395
6526 30675 47048
9206 30675 22387
16354 30675 39932
6666 30675 4943
20031 30675 9451
31341 30675 2612
9104 30675 24745
16056 30675 30769
8640 30675 18805
10053 30675 28789
13097 30675 8179
15156 30675 39891
18152 30675 23682
16633 30675 36338
3073 30675 24772
19460 30675 32877
26766 30675 6518
16234 30675 5661
12507 30675 32214
4919 30675 18126
30368 30675 21987
21326 30675 21438
27409 30675 18176
18879 30675 33475
38311 30675 6514
33541 30675 12974
4569 30675 9763
12229 30675 27456
22655 30675 22838
6705 30675 19412
34368 30675 4353
11662 30675 10913
25483 30675 2828
25814 30675 28972
13426 30675 11161
5583 30675 41290
11056 30675 30357
8033 30675 52814
6753 30675 20544
19344 30675 434
9437 30675 13462
37005 1345 59100
45379 1345 58889
2799 49747 13558
2799 35754 7332
2799 38168 36143
2799 46980 13708
2799 31974 4126
2799 34978 5813
2799 40853 37417
2799 30716 26652
2799 40366 3483
2799 43006 13130
2799 36787 22076
2799 37158 17750
2799 33841 24234
2799 46401 26042
2799 50188 12772
2799 39402 30769
2799 38675 29378
2799 37262 6500
2799 34055 2592
2799 56271 1588
2799 31920 24023
2799 41304 35434
2799 39418 8291
2799 43333 16350
2799 45319 22638
2799 34990 46017
2799 46771 25569
2799 49226 8413
2799 37969 10459
2799 41249 8091
2799 37803 17945
2799 47503 2097
2799 35154 4077
2799 34493 12712
2799 34346 12153
2799 43259 17916
2799 38391 924
2799 35214 16289
2799 38514 33502
2799 55062 9707
2799 49967 897
48997 31171 29097
2397 58957 51271
527 60846 36967
527 60491 11149
48760 30922 48023
0 58874 12151
0 59378 29231
0 59608 15392
0 59857 5894
0 59625 19937
24936 183 432
37573 844 432
1178 30675 35749
38640 33726 33504
38961 33727 10122
5957 2691 34742
8313 2691 42801
3751 2691 54350
4118 2691 47143
6822 2691 36499
4341 2691 49864
5048 2691 35087
3735 2691 44629
11336 2691 42489
22785 29306 419
40804 29795 419
29368 30604 31864
31386 30604 50985
21042 30604 51315
26324 30604 38924
31131 30604 57739
29954 30604 47101
38426 30604 17609
39429 30604 41753
41640 30604 57889
40555 30604 8074
34093 30604 20069
35287 30604 15239
38230 30604 10795
42284 30604 18016
42038 30604 21385
42058 30604 48543
24499 30604 33163
42749 30604 46798
24958 30604 41072
31388 30604 56841
43286 30604 30424
42130 30604 18865
34085 30604 46008
37212 30604 55314
34186 30604 33991
43143 30604 21777
31014 30604 21085
21445 30604 46083
37176 30604 51482
42345 30604 9697
13873 30604 52870
25189 30604 47760
36863 30604 30915
28287 30604 30306
42654 30604 47533
22891 30604 42848
38099 30604 47907
32465 30604 36496
32897 30604 20199
16199 30604 48810
39449 30604 11323
40813 30604 18178
42413 30604 57152
19996 30604 36920
33112 30604 34600
25149 30604 53646
18579 30604 44181
40537 30604 28902
12239 30604 57951
41209 30604 28952
37714 30604 37651
2647 40719 58952
30942 0 54151
1317 0 36539
37599 0 51139
29147 0 49729
6856 0 49204
23411 0 48099
8536 0 29373
15736 0 36228
20060 0 37327
14400 0 42876
18697 0 39726
19693 0 51798
15509 0 28260
5341 0 40013
1711 0 39433
2870 0 42130
14894 0 55900
25140 0 40664
16781 0 30311
12158 0 59234
7859 0 13360
18172 0 36556
34804 0 58120
19641 0 53854
6084 0 25670
34556 0 58705
6362 0 56542
9704 0 19155
14977 0 24535
18967 0 59575
24943 0 34932
17303 0 54648
25414 0 50333
838 0 23896
11549 0 55629
32078 0 52507
17375 0 27318
13389 0 57596
13639 0 32271
22910 0 48252
13476 0 26686
16384 0 25923
12331 0 40503
7417 0 50697
37001 0 56936
4819 0 7851
21624 0 42762
10561 0 43048
42898 0 59233
4434 0 18195
3827 0 43459
17438 0 58131
6183 0 26372
9288 0 24151
21094 0 52460
31240 0 41269
11931 0 54605
2040 0 14800
30098 0 43645
6981 0 20360
6182 0 45975
32503 0 47185
12163 0 18736
20133 0 43937
1468 0 51312
29436 0 41942
22579 1345 745
34117 1345 524
48923 32953 53737
2519 43568 567
26620 33342 29952
25556 33290 57047
25630 33293 40038
1940 59427 54273
0 59317 53555
0 59053 29746
47649 33483 24827
9447 9430 31175
7772 20195 31175
9681 11385 31175
9444 11967 31175
12457 12584 31175
8125 5419 31175
10369 4246 31175
7091 11987 31175
10027 26776 26331
9723 25110 26331
1130 60058 10099
89 60058 53588
2413 60058 794
814 60058 30449
15955 7900 26331
47681 13233 59725
47890 33488 36227
13819 17558 32377
9964 28152 34795
11816 23063 35439
15720 12337 36164
14076 16853 34951
15318 13441 37589
16260 10854 37992
11993 22575 37102
2799 59849 47371
2799 58560 56644
2799 59064 50528
6089 32273 21149
4395 32273 4414
6709 32273 31983
5402 32273 1089
6622 32273 42199
7210 32273 24928
6008 32273 16943
3629 62474 16
47591 0 34400
46827 0 23167
1720 31373 59725
1494 37793 59725
1489 46128 59725
53 625 8695
615 60001 10218
2799 44628 53462
2799 41992 39175
2799 53500 59197
2799 51987 46733
2799 51004 52524
2799 33164 59246
2799 47629 49974
2799 59564 11830
2799 53147 21538
2799 49036 39974
2799 57059 30787
2799 41302 53495
2799 50751 37689
2799 54128 47334
2799 44948 52835
2799 54425 28488
2799 45784 41534
2799 58456 51564
2799 52685 46783
2799 53464 53273
2799 44129 48476
2799 58395 53757
2799 46999 40942
2799 57749 48246
2799 59368 12872
2799 55185 54880
2799 42253 43595
2799 57306 16298
2799 59172 19364
2799 38369 51285
2799 57334 11233
2799 53728 50267
2799 53370 18085
2799 46946 31772
2799 51501 21160
2799 54853 43478
549 60195 1142
2887 31687 16545
2887 31708 35738
1651 47435 419
43608 33657 56075
39051 2691 10318
35877 2691 13918
34011 2691 14735
15519 2691 37227
23880 2691 29912
28558 2691 20639
44761 33605 38050
327 1345 18677
1112 1345 52551
2082 1345 45443
809 1345 35795
10281 27280 33514
12418 21409 30895
11296 24491 30691
13081 19587 35167
15141 13929 36694
16295 10756 35604
36529 33698 26153
35762 33682 21034
35815 33683 13372
15888 0 57857
3138 0 9314
2419 0 9653
4706 0 45583
8246 0 57796
11434 0 20827
20176 0 26647
31531 0 46618
30018 0 58972
12258 0 52581
5296 0 22761
18252 0 56982
29318 0 39113
20799 0 41755
225 0 55751
8768 0 45551
23312 0 49308
26308 0 43426
11148 0 26804
15011 0 37450
4309 0 42204
14212 0 49234
29280 0 59497
14355 0 26971
33514 0 44457
8000 0 12701
19128 0 56912
17707 0 33683
25280 0 59453
505 0 40772
22774 0 58089
12547 0 20819
2115 0 14163
31805 0 47649
27980 0 42005
39420 0 56846
7019 0 28926
351 0 59084
10466 0 25381
9512 0 31744
18068 0 48314
16638 0 41180
14427 0 51823
10368 0 41530
36339 0 50713
16831 0 37064
13244 0 24070
14949 0 57928
34275 0 55695
5589 0 38927
22391 0 56698
7876 0 11528
20689 0 50874
7659 0 22512
21000 0 33482
419 0 5450
3923 0 25456
31845 0 58468
2367 0 32764
37729 0 53701
13832 0 29482
1653 0 28105
26537 33338 36669
26248 33324 26785
26680 33345 50443
25770 33300 55579
10916 32463 58123
10958 32466 27528
9751 32391 37233
10932 32464 56872
8798 32332 46173
9189 32356 55776
37948 33720 53423
37569 33714 58251
46094 31506 419
36841 31800 419
21578 31260 419
9914 26088 26331
13873 12682 26331
4529 15112 32897
