ply
format ascii 1.0
element vertex 2620
property float x
property float y
property float z
end_header
7079 17084 31010
795 0 35440
31933 17530 6588
1248 75216 13114
1320 68686 12813
1537 68411 11915
6748 75986 38704
32089 35859 4007
19138 35859 4013
17685 35859 4137
2105 4265 3601
43774 27531 4687
43582 35628 4878
44246 34019 4214
44385 25946 4076
43621 34461 4840
45577 2940 37868
44428 16768 25347
44428 16759 30915
4500 57377 7060
45544 38568 3802
4047 62178 34903
5117 57900 5461
21432 17530 33604
42449 38686 2507
6329 40061 7769
6486 46856 7454
6743 39020 6938
29409 35859 17281
12363 35859 27565
3606 9322 4677
4289 5736 34415
4738 63246 7180
6119 35134 7677
4668 74121 26560
4706 75797 26832
4663 71124 26530
4791 68824 37953
5046 70995 38397
8454 75986 39050
19257 35859 38382
20801 17530 6475
2475 4059 3092
8919 75701 1964
31278 38847 37531
3817 71007 5060
3309 73353 6182
4124 69361 4384
47113 4731 3763
3567 75986 16725
4054 75986 14638
3360 4404 33443
46232 38847 9452
47038 38847 20217
46932 38847 9302
46718 38847 18484
3110 65362 35418
22447 38420 6020
19293 38420 6116
31073 38420 3284
8970 67801 39345
5154 17068 9706
5154 17121 12690
17262 35859 2338
48735 1863 2004
20185 35859 34404
15184 35859 34649
16721 35859 34599
28159 35859 34358
27811 35859 36648
42622 35859 35876
40034 35859 36061
18494 35859 36791
32823 35859 36488
41977 35859 35827
31011 35859 37124
6976 16711 16259
6976 16723 21910
16487 35859 24867
33833 35859 14253
4546 69495 15192
4499 68558 15524
4693 71437 14164
18023 38420 25963
41271 38420 8997
26169 38420 19950
9564 38420 32393
11771 38420 29663
4543 22476 7071
4521 24258 7047
4577 19877 7104
5038 67448 4100
5355 67448 10470
2210 66803 34948
47333 36464 33636
47333 38514 21357
47333 37251 21993
47333 36196 31317
47333 38400 31519
47333 36929 29607
47333 36103 34085
47333 38503 19076
47333 38201 17929
5254 70269 2141
4975 70470 2627
5049 75986 32004
13288 38466 37944
4658 52406 34167
8603 70214 2599
1384 67810 12548
1687 68416 11292
1343 69622 12720
14640 37141 38367
44726 35859 11985
27766 35859 31783
42676 35859 30405
37121 35859 19385
35259 35859 17391
47223 35859 17545
16927 35859 28143
42201 35859 24835
22913 35859 30158
46802 35859 8994
28695 35859 26100
44590 35859 33756
26206 35859 25722
26326 35859 25194
23199 35859 25994
45628 35859 29394
19064 35859 31548
27787 35859 25633
40272 35859 33039
38314 35859 18629
21442 35859 28026
45764 35859 22475
34027 35859 19825
37236 35859 22954
43318 35859 22614
36129 35859 25306
12939 35859 29928
30784 35859 18619
44447 35859 27525
27744 35859 24121
13966 35859 29777
33781 35859 20399
31961 35859 22328
22424 35859 33489
37822 35859 19856
33103 35859 30892
34766 35859 22969
41028 35859 24938
22576 35859 24804
32744 35859 24857
36458 35859 17191
32667 35859 18445
36456 35859 15162
30018 35859 25249
45483 35859 11372
28858 35859 28400
45449 35859 24459
43275 35859 18177
28597 35859 24923
37840 35859 27033
32557 35859 16381
21346 35859 33156
13753 35859 32483
40736 35859 11701
29914 35859 21683
46241 35859 25586
29865 35859 28264
40260 35859 33903
39908 35859 11612
40616 35859 10717
42868 35859 10483
19396 35859 26350
33636 35859 29894
40071 35859 18636
27199 35859 32680
12631 35859 30956
42722 35859 19914
29384 35859 19907
33043 35859 27421
36408 35859 33519
45715 35859 15679
33352 35859 25875
38394 35859 12333
42899 35859 20657
37879 35859 32299
43209 35859 12699
36857 35859 22617
29376 35859 23300
40891 35859 13383
45953 35859 8789
30701 35859 25929
41180 35859 23957
40195 35859 17114
47292 35859 12470
40696 35859 12662
35115 35859 27337
18275 35859 33103
42569 35859 13360
25857 35859 26703
47228 35859 6732
28596 35859 23900
41312 35859 14344
42165 35859 30196
36885 35859 16560
14010 35859 33347
27898 35859 30054
31888 35859 23048
31288 35859 31350
43231 35859 28927
28194 35859 29291
37475 35859 29808
25667 35859 25190
24233 35859 28913
35361 35859 25017
42263 35859 16104
40465 35859 15101
34531 35859 20295
41508 35859 12492
33127 35859 28451
7616 71323 49
4563 35263 7090
4818 67448 35869
4179 38496 33923
1606 2554 4134
43648 37157 1468
5525 17530 18599
6194 17530 30521
5172 17530 32950
5949 17530 31085
5363 17530 16509
30819 16677 33779
27583 38736 37512
16891 35859 38736
2534 69004 4559
11559 38420 34952
26617 38420 34605
43286 38420 3470
8221 73239 371
15937 35859 8392
4401 46794 5895
4303 42800 6091
4404 45638 5889
5828 20526 31938
3790 19279 32565
44883 4825 3578
31574 35859 1746
45447 16559 36685
11475 38847 36684
3640 67448 13555
45941 38570 29734
45941 38496 33358
1895 3564 34276
45258 25350 36974
45167 32232 37066
45091 35731 37141
35000 38420 3914
4620 7380 33358
1303 75986 23535
11448 35859 35639
4432 40186 7027
4022 47429 6822
4228 42874 6925
44018 17306 34098
6044 38420 11146
43369 20428 5092
21819 35859 34037
45810 2620 38170
44521 22238 34465
45622 27426 35567
45274 27907 35218
45234 21462 35179
4232 74188 18475
4153 74394 20164
4150 69387 20215
4186 71311 19467
5824 14785 7024
4523 30648 34204
5282 75986 2127
11726 35859 5112
23479 35859 5531
38670 35859 5437
44215 13299 36574
5609 57291 7614
4584 48577 7102
5202 56026 7410
44096 18356 6634
8446 75516 2873
35747 38847 1355
6329 59241 6065
5911 49206 5857
6221 52947 6011
44675 18392 6200
17049 35859 35285
29779 35859 35425
18657 35859 35280
4827 67223 6578
6269 35365 32416
6087 33383 32214
6961 48867 6380
6097 37071 5949
5419 35240 5611
13578 35859 28073
6628 72395 258
18773 38420 11815
15815 38420 20567
27875 38420 11641
12558 38420 22892
38242 38420 9512
20388 38420 12981
7377 38420 14434
21875 38420 11466
6104 38420 13209
7239 38420 15683
26887 38420 15413
20117 38420 16850
12688 38420 21371
7956 38420 14691
9923 38420 16876
10131 38420 22369
18527 38420 16801
14733 38420 19623
31697 38420 9000
22221 38420 10053
27905 38420 15378
8572 38420 12067
16435 38420 21392
25721 38420 15688
8198 38420 21873
25967 38420 16098
9927 38420 25309
7721 38420 22062
19464 38420 15569
6698 38420 16480
8304 38420 14108
20621 38420 9557
21250 38420 9457
34373 38420 10153
10387 38420 14238
13731 38420 19465
39580 38420 8418
17142 38420 13975
10509 38420 12902
18314 38420 17659
23399 38420 11453
29695 38420 9885
13154 38420 15352
17549 38420 18185
8053 38420 16930
10163 38420 18122
39102 38420 8680
22241 38420 16081
20160 38420 11439
15620 38420 19658
7302 38420 18703
26379 38420 13005
32268 38420 8082
39012 38420 7827
11349 38420 16831
26185 38420 9545
6604 38420 26117
14123 38420 13146
9618 38420 17267
6647 38420 23317
8689 38420 21262
9593 38420 20848
22154 38420 17226
6155 67448 4412
6572 31688 6685
4367 53536 5962
4525 32773 7052
5021 28531 7549
5643 36032 7389
35406 16677 33744
38597 16677 6607
21480 35859 8120
5955 16677 8767
3883 54948 33407
4221 57185 32722
35232 38847 38377
2670 7853 33576
23144 38847 1628
28982 38847 38580
10963 16677 7224
5849 60223 5825
2067 0 35935
38068 35859 2673
4848 16416 4960
2072 75986 19822
34588 38420 34436
41956 38420 34581
30858 38420 36732
18475 38847 1435
15961 35859 24938
22173 35859 21216
6084 21971 32497
46102 9309 36046
5286 33616 7452
5122 37299 7371
7039 74742 59
46264 13294 36208
44485 24772 34430
44896 34159 34840
45674 35099 35618
45597 33521 35541
3881 21163 6409
45568 14455 4462
5723 61238 7671
5501 59568 33853
47041 35859 4764
5670 11831 5782
45311 4167 37453
6452 35809 6853
5977 40040 7030
6276 15889 6389
1563 73943 11805
1625 72922 11543
1844 70848 10637
1761 70420 5695
24950 38420 36959
29426 16677 7387
22592 16677 7348
23232 35859 1958
44743 19764 37102
4874 11674 33887
4983 7846 33787
6323 40075 6062
16885 38834 2633
7391 71094 35758
7687 70162 36410
6947 70779 34779
12289 38805 2654
4529 36307 32381
3772 37441 33219
4707 38062 32185
20595 35859 7975
47070 1839 3806
6337 42201 6069
7419 75545 0
28522 38420 37382
28669 35859 7890
12116 38847 36202
6182 56690 32527
3499 3211 3613
4644 38092 25311
4644 37836 12954
4644 36988 11099
4644 38322 21629
4644 38370 27013
4644 38294 24255
1179 67448 13917
1595 67448 15645
43529 14710 35888
1478 67448 23278
44972 8176 35931
3782 46511 33208
4919 36233 31950
4181 36683 32766
47300 37404 5585
3178 5441 33118
2985 67448 22800
45681 2520 3197
674 69708 17322
624 75238 18380
573 73960 19492
3889 63500 35274
47333 36971 6259
47333 37472 6203
47333 37835 15410
47333 36421 10994
47333 37120 11709
47333 36354 23659
47333 37769 7563
47333 36748 12721
47333 36836 13796
16427 38420 9132
43367 17530 7424
22302 17530 7255
30902 38420 14441
19107 38420 25291
21090 38420 23854
30821 38420 16415
10063 38420 31313
9094 38420 32503
47774 3166 2038
31849 16677 6950
4858 33621 4970
5195 31952 5307
3864 72599 4956
3506 75481 5745
3867 75784 4949
45167 25931 4150
7232 74657 5494
7585 71855 4717
7542 75563 4812
3114 10488 5640
3087 68022 6764
2157 75036 9473
2170 68612 9434
3585 39274 32888
11262 35859 25965
25546 35859 17975
47517 2770 39727
6474 37277 6497
35364 35859 13144
30152 35859 16276
5537 75664 1647
5119 74110 2376
8128 35859 27933
13644 35859 24935
15966 17530 33502
1755 2117 36705
5933 22773 32929
5234 38847 29138
3635 64260 5733
5488 16677 25192
5439 16677 21462
6286 16677 24426
5815 16677 29904
5374 16677 11892
44743 10805 35264
43148 35859 4147
39804 35859 4890
36616 35859 5052
35643 35859 4943
21640 35859 4847
28227 35859 4230
8275 17453 7789
43762 17530 28121
22869 35859 8323
5639 38847 23340
5114 38847 14479
4295 54697 33777
9123 35859 9112
6306 49253 7814
6562 44324 7300
10929 17530 7072
44498 9545 35908
10521 38016 3502
43688 17254 10218
43688 17249 10830
28777 16677 33894
26144 38420 2858
7477 35859 8362
6071 39307 33222
6783 55992 6763
27705 35859 37529
27011 35859 37478
7814 38420 9187
45996 7061 2588
3606 67448 10522
33493 38847 1760
3620 10849 5178
4037 15949 33705
2416 74537 4515
40707 35859 10122
30846 35859 16129
3164 6255 5692
43928 20968 6529
42459 17530 34213
45392 24995 5483
47595 2868 3280
24310 35859 8265
46135 10295 36079
5294 73217 29591
5225 74950 29302
5602 69848 30867
13756 16677 6572
47373 4511 38669
18162 35859 38433
3969 75986 7874
8416 69370 552
3572 12450 6100
41309 38420 6124
45674 38215 37745
9728 35987 36058
4378 75986 31781
4662 65597 33782
906 1095 3433
4027 64030 6825
37295 35859 7035
3405 66003 5165
5212 71324 29248
5472 67619 30330
4965 74385 28225
49116 1292 39061
26928 38420 34136
22897 38420 34151
29985 38420 34215
47188 6349 37132
5957 17410 32208
47686 780 40045
3071 67448 22323
2247 67448 29609
7153 70665 40883
25192 35859 7931
4140 15182 33890
45028 8079 37387
1465 2715 3163
6153 55727 32375
2453 72392 32291
2186 74473 31514
2725 73643 33085
45964 36546 37485
31976 38420 2860
928 72970 25665
737 70677 24324
972 74698 25973
3734 69074 35808
38777 38420 5423
36281 38420 5404
43526 38420 5228
8944 73948 39450
44856 13180 3605
45056 31330 4039
45206 27178 4189
3667 65147 5195
43649 17530 31757
4644 37859 28172
4644 37479 24576
4644 35917 24593
4644 36743 16950
4644 36130 26106
5310 10133 5423
43574 35018 6180
43736 26842 6342
4854 39274 33097
10374 17530 33421
14968 17530 33713
31215 17530 34330
47157 38847 27242
47264 38847 30383
47278 38847 17917
47133 38847 7209
45238 38847 37487
45676 4816 2785
3344 64507 35227
35449 38420 29414
32412 38420 26569
35379 38420 16486
32883 38420 31079
21920 38420 33419
43976 38420 16067
26381 38420 21691
43407 38420 16804
43730 38420 26496
23203 38420 30680
31254 38420 26863
33212 38420 25363
25933 38420 33855
41114 38420 18413
44177 38420 27118
41045 38420 24222
39654 38420 17255
23038 38420 26161
39356 38420 17637
29824 38420 25747
21460 38420 31977
38501 38420 24382
42883 38420 32407
35244 38420 33343
44014 38420 18537
20808 38420 31695
41941 38420 32183
35345 38420 27765
23586 38420 30089
38452 38420 33331
39385 38420 19999
33819 38420 25374
28235 38420 22403
32918 38420 21861
28011 38420 27137
25389 38420 25704
41781 38420 30573
36549 38420 22478
31070 38420 30443
32109 38420 28886
24927 38420 27336
35957 38420 14728
41892 38420 12510
28124 38420 20045
34110 38420 30489
35606 38420 33722
36470 38420 14124
25751 38420 26406
36074 38420 27079
36027 38420 13401
32528 38420 19361
38630 38420 13666
24904 38420 24151
44809 38420 10689
39318 38420 21244
39063 38420 25159
39384 38420 13637
32726 38420 32662
45418 38420 25740
38175 38420 28877
23172 38420 28188
31737 38420 30280
34622 38420 15895
18593 38420 27459
44013 38420 9104
21541 38420 28601
40715 38420 20428
19088 38420 32614
42343 38420 24761
28991 38420 24354
28930 38420 22595
38250 38420 30454
32430 38420 30321
43523 38420 12218
41444 38420 12842
41078 38420 29416
31254 38420 30926
11801 38420 33658
30852 38420 21220
40287 38420 25889
36514 38420 32388
43682 38420 30010
31718 38420 25239
25220 38420 33824
16275 38420 32341
42785 38420 12540
19944 38420 30152
45036 38420 18536
45360 38420 12837
25464 38420 31735
28742 38420 33402
28544 38420 27582
45384 38420 31044
25324 38420 24598
38340 38420 14111
15371 38420 30454
36331 38420 33691
25250 38420 26780
26530 38420 33853
33599 38420 32434
43744 38420 28290
4474 60944 34905
4522 71111 15360
4403 72829 16196
4361 70261 16492
45728 4957 36616
19353 17530 7290
4235 40615 6763
4723 39053 7250
4686 37426 7214
0 74231 3562
5385 62257 33981
4288 67448 35055
7712 67448 36832
3793 67448 30625
6430 71281 40519
8730 37111 4609
1955 67448 14422
24435 38420 37446
5569 64017 6942
2844 75986 20386
44829 35968 38330
9559 38045 4057
1973 67448 10819
39645 16677 6760
14053 17530 6950
8257 70979 37666
7792 75238 36642
7674 72006 36381
46257 38847 4856
5961 52379 33344
4057 25803 33788
4361 27828 34125
5535 33525 31603
4472 72727 37285
4308 70013 36922
3643 67695 35457
28366 38420 5979
15048 38420 6091
29708 38420 6066
17813 35859 3642
18544 35859 3519
15921 35859 3687
6637 16942 6495
4161 67448 19075
7857 68711 4116
7445 68329 5024
8120 73509 3536
8103 70963 3573
33724 35859 1512
4495 39137 31928
16950 38847 38465
6029 63616 5916
2204 71717 37244
45952 11303 4192
41772 16677 33825
42660 35859 5948
34994 35859 6489
35384 35859 6125
11326 36789 37115
47183 37234 4923
38699 17530 6494
6790 67448 38071
22737 16713 33381
25084 17026 33381
16806 16933 33381
26040 17530 34000
16794 17530 34099
32029 17530 34233
19734 17530 33715
3940 4407 34082
3637 62584 6630
6510 17530 27135
5376 17530 18004
6034 17530 29571
945 69196 25787
931 70918 25683
1195 67541 27543
1206 70930 27610
2013 67448 27271
7677 67448 40022
31897 35859 38478
9493 38420 8287
595 67448 20383
1198 67448 18297
12109 38420 26492
4116 65912 6870
590 69751 19107
595 70512 18992
604 68826 18831
19419 17185 34372
12712 16997 34372
14235 16929 34372
40103 16796 34372
22085 17411 34372
33278 17259 34372
4827 37866 7354
5047 38718 7575
44018 13736 35252
10291 35859 28398
44213 16677 14510
43947 16677 20175
4079 75320 36420
3932 74820 36094
3396 72221 34912
1952 69184 35234
22260 38420 4282
4988 32725 7515
3129 67256 4828
29952 38539 2507
4179 63493 5040
4790 58397 5298
33741 35859 3122
15025 35859 2904
8624 74876 813
12084 38420 8734
6823 38847 6205
2608 4813 3448
5567 75986 37421
5164 22776 31323
34753 16677 7699
5389 75986 32963
43870 12697 4590
5360 54925 31559
44913 16913 5962
4183 64966 33077
1258 69518 36002
3421 10002 5101
4759 35859 9955
18199 35859 37582
21025 35859 37561
12076 38420 7560
32987 38420 6272
19395 38420 7144
4218 74614 18785
4201 73495 19135
4194 72208 19290
2428 6301 4487
28700 38420 6841
7127 35859 9706
6083 31004 6195
46361 10639 4390
15928 38847 38119
16025 35859 26115
26986 35859 19276
43926 35859 8265
8794 35859 31107
7116 67904 35151
6920 69301 34719
4531 62316 32400
31384 37421 1338
38191 36489 1338
37313 36424 1338
41542 36758 1338
37990 35888 1338
34520 36590 1338
27392 36060 1338
46220 36241 3049
44533 32468 3928
44498 34862 3963
43651 30256 4809
44762 15294 34707
33644 38626 37512
38893 38647 37512
690 67906 23889
632 70707 22671
679 69345 23667
4998 37663 31473
45938 14303 35883
322 73271 4978
20905 17530 7480
5929 51638 7773
4023 34517 6652
4462 40438 5772
3900 32255 32466
4659 31405 31779
4527 33786 31899
4772 35592 31677
4914 25207 31549
4425 73590 24858
4677 69269 26624
4474 71789 25205
4653 68037 26460
2558 637 34946
42317 35859 35483
22778 35859 35639
31387 35859 35449
21557 35859 36302
16585 35859 36362
2783 67690 7652
2188 71625 9382
2114 73300 9598
18491 17530 6205
21757 16677 6264
45584 18178 4682
2583 65875 35214
8741 75378 38543
8709 73348 964
43614 23672 34996
43924 24725 34686
5644 58853 33694
17568 37831 1397
20661 38847 38552
4958 12615 5070
4458 12816 34262
4994 71616 12555
5165 73512 11845
5304 74822 11270
8024 70292 37154
8071 74302 37258
7673 73150 36379
5768 69828 1244
4959 75343 2653
7001 50299 6420
6887 48071 6649
6858 45377 6707
6876 72058 40785
43984 35859 38664
30380 17210 6198
38258 16876 6198
27759 17495 6198
6365 69912 40465
30698 38847 37645
28925 38420 7274
754 71789 16453
1029 69157 14532
939 70372 15157
8533 75083 40271
2400 3087 33820
44258 28635 6617
18258 35859 25772
17912 35859 25364
16832 35859 26791
15576 35859 27385
20091 35859 24253
30811 38420 35934
23638 38420 35816
5553 17530 33821
43380 17420 35739
6657 59781 6377
1472 68489 35765
2552 75986 9112
7759 75986 37873
4488 11031 31934
10674 38847 35545
45129 11223 5745
44239 15960 6556
45071 5785 37430
4707 39154 34249
4399 48550 33971
4399 45382 33971
32212 16677 33502
12770 35859 3996
24860 35859 3939
15240 35859 3963
23278 38420 35199
41357 38420 35323
5151 43474 34240
5462 37008 33896
5505 41466 33848
5962 33186 33342
5323 39752 34050
5884 75986 3575
4308 16164 5453
44428 17036 18165
44428 16955 11153
47502 2541 1296
8501 75949 651
6186 72694 40291
6432 39482 32356
6649 46902 32552
6408 48517 6104
6421 54619 6111
5764 53837 5784
46979 2528 39338
4773 14455 31676
5028 75986 31117
3596 63254 33414
3395 29080 32921
45685 3696 38044
2267 69479 5948
40401 35859 9655
38431 35859 10599
46342 35859 6333
29636 35859 15129
2977 62796 34176
6340 69269 33091
5881 69182 31756
5730 68049 31318
2332 67366 34813
27805 16677 7217
6751 75986 35672
44515 37889 1757
45396 6257 36322
5658 51729 31672
6576 57956 6188
5967 25078 7338
6431 24506 6874
4827 35878 8808
41109 35859 3638
20864 35859 3380
46119 1993 3315
36130 38420 6622
18589 16677 6363
5482 25423 31544
6006 23595 32125
5276 29107 31317
5509 60331 33844
1591 74595 29212
1374 73617 28310
4072 75986 28965
43243 26283 5218
43894 16677 8091
4045 24192 32333
8927 72841 1803
27193 38690 2507
801 1195 2620
18935 38420 4543
14854 38420 4794
3353 933 3857
2687 73552 5469
4427 8297 34290
47331 37645 34174
4616 64877 34833
26398 38847 37735
27490 38420 6935
4383 18615 6910
45574 5120 4523
5154 16760 31732
42405 35859 5484
34476 35859 5149
28915 35859 4687
38109 35859 4484
31670 35859 5024
16528 35859 4867
29452 35859 4826
45755 33748 36477
45652 33219 36580
3515 27920 32813
3421 30180 32898
5773 17530 10624
6383 17530 16470
5571 17530 13044
10332 35859 6228
11114 35859 5678
14934 35859 6027
43460 15941 35820
5040 38847 19969
5462 38847 24275
4840 38847 18235
44154 11158 4307
32102 38420 14597
7984 38420 29911
4861 66719 34562
43976 16677 25561
17744 35859 22972
10734 35859 26711
43400 38167 1418
3301 75986 25445
2990 75986 26301
3983 6689 32960
5391 37385 31428
29064 35859 1827
6229 17723 6972
44428 16974 15438
44428 17404 14879
43465 21739 35824
44337 20701 36697
44123 25597 36482
44933 29626 37292
44281 26916 36641
4222 74591 22210
4299 71802 23841
4258 75287 22956
6999 38847 7364
44813 35859 1972
29555 35859 7282
13354 35859 7913
2371 74240 4092
33232 38420 6893
46465 1159 3128
19049 35859 7285
31907 35859 6785
19680 35859 7305
12806 35859 7169
7222 35859 7655
12946 38420 5292
31825 38420 4989
2050 71717 35781
2702 7132 34774
2468 3114 2581
33453 38420 36090
46032 38847 25998
45943 38847 6266
46495 38847 33145
6165 34579 32385
45255 38420 8915
13613 38420 31513
37472 38420 21916
42362 38420 19463
35828 38420 19150
43482 38420 21522
44525 38420 20657
34266 38420 22826
41449 38420 17753
37923 38420 12362
29487 38420 26309
45387 38420 28529
29368 38420 26795
34787 38420 21600
15136 38420 32416
45314 38420 24367
44139 38420 7205
39124 38420 30352
44237 38420 24276
20773 38420 26411
31350 38420 32678
28885 38420 28859
44708 38420 26464
30765 38420 18539
43083 38420 18876
20166 38420 32389
24139 38420 24050
22216 38420 27747
19807 38420 27837
43702 38420 14060
29449 38420 21415
31542 38420 20917
34778 38420 27518
42708 38420 26611
37715 38420 26837
12341 38420 32224
43058 38420 19385
43437 38420 25824
27058 38420 28554
25292 38420 28821
33316 38420 27008
12869 38420 33412
37673 38420 16145
45562 38420 20148
32068 38420 16620
39791 38420 29082
37692 38420 26202
12574 38420 32821
31260 38420 22408
44767 38420 25436
26456 38420 33195
41429 38420 19272
35898 38420 17952
26491 38420 30497
36390 38420 14929
25950 38420 28915
41756 38420 21722
19901 38420 26908
23456 38420 32655
17755 38420 28127
38957 38420 32514
35130 38420 33843
22784 38420 29469
40905 38420 22153
40384 38420 10327
43984 38420 8347
30140 38420 27401
28900 38420 30935
38884 38420 26980
45913 38420 15695
14084 38420 31498
39879 38420 25586
30283 38420 23455
43962 38420 31581
25631 38420 27709
43483 38420 23669
28385 38420 26184
45479 38420 19264
40334 38420 18486
19644 38420 32907
32840 38420 24704
44192 38420 30398
28834 38420 25009
18866 38420 29415
38854 38420 18829
37398 38420 20625
21313 38420 30643
27152 38420 22752
30627 38420 27219
36870 38420 25482
30499 38420 20409
40526 38420 28821
34323 38420 29738
32346 38420 24593
44320 38420 14207
32998 38420 2782
4993 38847 30614
45659 30366 5217
8129 38847 5327
5184 69749 38638
5414 70305 39040
5249 16677 8370
715 67448 18147
3660 67448 19658
3674 67448 8385
4012 67448 8760
36643 35859 37746
17657 38420 36755
3147 2730 35447
3858 6680 6386
44226 16677 29746
44298 16677 28624
17413 38420 9198
7569 38420 10346
4920 18819 7448
4907 19935 7435
4651 21600 7177
7762 73076 102
6009 48014 31974
6222 47466 32166
4418 58926 32504
5927 75986 38318
45705 3720 3915
4162 73409 20946
4261 68030 23025
4146 68673 20605
7142 73592 40880
4017 28902 5665
4448 30637 5235
3594 26828 6089
45938 10247 3841
45266 29514 4249
47670 1703 3205
5373 71304 29916
5551 69309 30655
5595 70755 30840
37704 38847 2410
5177 13567 5290
36231 35859 6265
18180 35859 6363
37775 35859 5745
42011 35859 5917
44761 35029 6115
45008 26781 5867
45140 33823 5736
45265 8991 5610
45931 35859 36429
2110 75986 17988
783 75986 18293
2768 74094 7695
2883 70203 7359
2592 74903 8208
6216 34126 7498
4728 75986 36505
12926 17530 6332
6036 31506 32158
6238 29324 32381
43688 16933 19831
1337 2083 3865
26517 35859 35372
39759 35859 35219
36487 35859 34606
39543 17489 7768
10463 17509 7768
21615 17273 7768
5549 47630 7584
5814 38482 33037
5676 41459 31673
5296 60710 7458
6269 38572 30080
4586 44384 32318
4299 49081 32636
5178 44689 31663
5145 43167 31699
4608 55523 32294
1102 2818 34993
2033 75942 31048
1588 71956 29199
1429 75641 28539
2460 75986 25199
2429 75986 24685
16849 17530 6528
20143 38538 37512
16223 37615 38721
15300 35859 7627
2888 67448 24389
3990 27700 33713
4374 29820 34139
3852 21837 33561
46284 38847 31912
46048 38847 25241
46722 38847 24130
39026 38420 4269
8495 67448 38678
29800 38847 1906
24596 17403 6198
37193 17160 6198
35624 17347 6198
46082 3974 2379
4295 68334 6880
2704 73514 4258
45825 25710 4807
45424 20588 4407
44991 20434 3974
2405 75986 14745
3405 75986 14042
4237 11730 4807
30788 38420 34758
16003 38420 34636
3205 5443 35393
47333 36457 7967
47333 35995 14461
47333 35970 19780
47333 36183 22020
47333 37084 18763
47333 37274 15740
47333 36188 18669
7654 72873 4564
7433 71420 5051
7589 72324 4707
7334 75564 5270
6192 59089 33089
873 71929 4831
41698 38420 36498
30634 35859 37745
6226 28115 32665
6164 45113 7890
20877 38420 7571
27299 35859 37930
30132 35859 37992
44838 35859 6504
30389 17423 33381
32484 17190 33381
24322 17440 33381
5525 71672 10355
5289 67675 11333
5585 74631 10104
4124 37016 6450
4269 42333 6159
7185 69076 12
14063 35859 33935
38112 38847 38643
4213 60490 6918
5813 38820 22831
1865 75069 10552
1972 72967 10107
30249 38420 6987
46068 12917 4705
7120 38420 9814
5760 35537 33566
5160 44298 34231
5022 34940 34383
5282 37700 34095
2539 67448 31903
27576 17530 33606
10024 38420 8304
22686 38420 3710
2935 898 3049
3753 57250 33241
36613 36280 38904
20376 37799 38904
21036 37265 38904
26412 37316 38904
22446 37642 38904
27553 37608 38904
35067 36404 38904
29567 36520 38904
5529 12748 32520
1236 75986 21625
4747 38107 34001
6756 16677 18896
6399 16677 11960
6622 16677 15407
46405 5522 38765
6804 73189 34441
6545 75848 33686
6475 74491 33484
13864 38269 2105
45648 25253 36584
46030 21203 36202
46055 32984 36177
16300 38420 23705
27613 38420 16799
12496 38420 24322
24475 36602 1338
24873 37663 1338
20459 37761 1338
25039 38549 1338
26635 37504 1338
22625 36907 1338
27991 37870 1338
5279 51516 7450
5004 49698 7312
4479 49797 7050
6764 56887 6721
4824 9822 32606
38275 35859 3183
47333 38723 16121
47333 37035 31715
47333 38580 17492
47333 38279 12307
47333 38014 27350
47333 37009 24228
47333 38084 17476
47333 38242 28126
46070 25545 36162
45962 30974 36271
46043 21728 36189
4233 54169 32709
5501 53524 33852
4250 70847 18112
4237 71985 18385
4208 70884 18983
15331 37393 1732
22582 38420 4690
13232 38420 4535
640 75770 22846
656 74001 23165
603 73936 22054
6284 75986 6077
25190 35859 18928
7850 35859 28812
5274 61229 32733
28258 38420 7064
28936 16677 7257
6602 16677 33058
47892 2159 37836
5307 70428 29642
4820 70056 27624
5250 68274 29408
4460 11340 4573
23548 35859 1555
23917 38420 18253
20640 38420 3288
44028 30718 36387
43928 35827 36288
43516 26656 35875
3353 13284 33308
10796 35859 6479
30612 38420 37218
45965 14767 4903
2173 75986 27698
2083 75986 28926
4811 5953 5239
1953 75986 11090
5157 39219 31589
18762 35859 23667
13534 17530 6617
14975 35859 9419
24802 35859 15319
8159 35859 25688
18120 35859 9053
35457 35859 8709
10806 35859 20121
24397 35859 11874
27065 35859 12497
10186 35859 24555
10138 35859 21626
29290 35859 12095
10812 35859 18627
12773 35859 15864
8776 35859 15770
17995 35859 14738
8572 35859 13852
42487 35859 7349
8973 35859 20433
5065 35859 11214
14241 35859 19486
28118 35859 9544
9244 35859 16148
9642 35859 9997
16730 35859 18705
25510 35859 14899
11764 35859 15814
12093 35859 21934
15628 35859 11420
13769 35859 10454
37323 35859 8498
17696 35859 11679
20703 35859 9011
10233 35859 19173
8108 35859 26155
24167 35859 9270
18867 35859 14512
8549 35859 20911
21632 35859 18675
16442 35859 21737
16823 35859 14264
10258 35859 26016
11938 35859 9769
20566 35859 10811
7278 35859 22169
19358 35859 11925
7379 35859 11288
18402 35859 21168
30568 35859 12307
15726 35859 15848
19217 35859 15740
18044 35859 9973
5613 35859 26354
30619 35859 10593
6788 35859 18024
29586 35859 8374
12449 35859 16435
37080 35859 8980
10883 35859 11214
10385 35859 17783
6100 35859 17988
8564 35859 14694
29065 35859 11059
33598 35859 12731
18057 35859 18292
15320 35859 14893
10228 35859 14490
14154 35859 9999
27908 35859 11009
31595 35859 11752
6736 35859 10951
13823 35859 11242
5068 35859 18059
24702 35859 13873
13400 37294 37984
6013 16677 20822
5726 16677 23118
5554 16677 20923
5955 16677 25230
3024 70792 4417
1807 68948 30109
2016 69891 30975
1320 68265 28091
26203 38847 2429
44357 15787 36717
6380 75986 2904
2971 71251 7102
2668 71656 7985
44197 12066 36556
8654 69879 38392
41535 38420 4070
45427 13071 4091
2695 75986 29041
3514 70399 4662
1003 75986 19412
45823 28443 5053
4944 13940 31603
4560 6471 34170
29748 35859 37281
5848 15348 7085
22174 38420 6659
20240 38420 6808
18188 38420 6584
3788 30720 5895
3720 37747 5962
3948 27008 5735
3772 22115 5911
6611 16677 34205
23728 16677 34268
10198 16677 34263
14856 16677 34025
2409 6646 4937
3781 15497 6309
6411 52253 32846
7861 67468 145
8669 17530 7316
8234 67448 2414
6158 15637 32643
6348 23228 32555
35673 38491 37512
23172 17530 7025
14384 38847 38103
13715 38847 37835
44252 27646 34358
43507 31341 35103
43258 35403 35352
4374 67448 14668
4827 59348 34598
4399 45575 7010
5646 42863 7632
4825 44345 7222
4919 67448 32334
12636 37792 2527
5813 38845 27260
5622 63121 33664
26432 38420 17984
23067 38420 20230
30955 35859 1361
46040 14881 36228
46825 2504 4051
5297 64020 5550
45308 6479 37667
6517 20367 6775
43268 15520 5193
31137 17530 6199
4462 70786 15779
4318 70702 16789
4399 69818 16225
27904 38420 36511
35293 38420 36602
8354 38420 28013
10018 38420 26902
30566 17530 6925
6966 72598 40822
2297 75865 31836
3097 75382 34163
38499 17051 33381
36937 16895 33381
44405 17530 9341
43761 17530 15400
43667 22978 4794
43812 21935 4649
43993 24579 4468
43297 30591 5164
32318 38420 4422
45104 38420 4476
46049 38847 3810
44173 17530 16910
15202 38420 9592
19956 38420 35570
4020 68631 36291
3874 70289 35966
4601 70299 37570
18513 16677 33989
7684 16677 34052
11973 16677 33468
11859 16677 34336
5548 37422 7584
5504 35433 7562
29491 17475 34372
35367 17094 34372
994 2005 36309
4782 75986 8878
30052 38420 14620
6976 17279 22061
6976 17318 24337
6281 17727 32615
652 67455 23085
609 69312 22185
32207 37466 1338
41800 35951 1338
32072 36255 1338
30368 35870 1338
29660 37173 1338
26239 36576 1338
5707 74287 39552
5837 73802 39777
770 74537 3630
4360 22106 32049
6041 38661 32003
6219 48934 32163
5687 47832 31683
24484 35859 19329
46684 38847 36423
13746 38420 7677
17362 38420 7482
45213 9406 3248
45866 11180 35810
5084 71200 12178
4899 74410 12950
4911 68846 12901
21306 38420 35098
47288 0 39404
46953 279 1507
5884 63279 6666
33039 38420 3259
21333 38847 2368
5386 34627 7914
6496 34696 6984
3978 18981 6505
47004 4600 2236
8023 72855 40710
17526 38847 38265
1884 68685 35308
25486 38420 5582
32245 38420 5604
4715 35990 30080
4992 67448 6191
613 73514 22257
529 73388 20491
553 71925 20989
5942 12165 6055
5974 19387 6087
5506 24714 5618
44557 15694 6319
33517 35859 26464
38518 35859 30731
43292 35859 9519
31784 35859 27835
28200 35859 31419
41819 35859 15184
28238 35859 19130
45691 35859 15014
41357 35859 13751
45131 35859 20778
29021 35859 30205
28337 35859 22663
30011 35859 20800
41556 35859 25163
43340 35859 12007
38410 35859 16663
22188 35859 25518
22522 35859 26640
44914 35859 26477
42065 35859 20335
39348 35859 22745
46554 35859 23812
17507 35859 30994
28768 35859 19164
43631 35859 23439
39588 35859 20372
37820 35859 28434
26389 35859 20762
15196 35859 33088
34019 35859 15662
36105 35859 28361
39462 35859 25133
30413 35859 28106
44495 35859 22410
15075 35859 31649
44116 35859 17515
22159 35859 28589
43037 35859 29430
24678 35859 23857
23062 35859 32289
31846 35859 32251
41318 35859 16306
26450 35859 30266
40104 35859 22585
32080 35859 29498
42394 35859 29372
46598 35859 25139
44816 35859 29965
25318 35859 23170
35407 35859 31148
37984 35859 15400
46902 35859 7142
43599 35859 32900
41499 35859 30785
28821 35859 21692
46269 35859 11917
31100 35859 28993
24094 35859 30586
28070 35859 22149
37141 35859 19978
28986 35859 25480
42805 35859 11274
15331 35859 28331
32343 35859 26708
42262 35859 25799
15871 35859 27979
35529 35859 21468
42670 35859 21998
41780 35859 23547
42774 35859 27821
26737 35859 28997
28971 35859 33728
44622 35859 11244
41947 35859 21101
45169 35859 30791
13334 35859 31013
10111 35859 31515
39734 35859 16668
37320 35859 21023
31182 35859 33806
46030 35859 33761
25163 35859 21241
47102 35859 17088
47126 35859 11400
22115 35859 31842
34246 35859 23107
46164 35859 27056
28546 35859 29915
33613 35859 32667
43062 35859 9048
41162 35859 22459
33025 35859 24276
33229 35859 20597
23849 35859 24948
34866 35859 16266
18648 35859 30290
34525 35859 33183
16745 35859 31759
4286 67448 25428
10310 17227 6198
32572 16688 6198
1955 6066 34516
43826 18133 36185
6514 73088 7304
6417 69279 7588
6199 70697 8221
5162 19305 7689
15621 36802 38598
44807 30847 6069
45150 22832 5725
44857 24220 6017
44201 34408 6674
44836 28227 6039
4611 60986 32291
5561 55838 5682
2687 1800 35862
34297 38847 2272
8693 35859 7019
30695 35859 6846
24403 35859 7108
11608 35859 7605
24331 38420 22181
14605 38420 28837
8731 38420 33078
17655 38420 26597
12762 38420 30873
10643 36933 3434
27798 38420 34434
32430 35859 38424
33808 35859 13456
533 68298 20317
569 69350 19562
548 72365 20010
570 70375 19547
35136 38420 2672
37822 38420 34914
3810 49794 33439
4129 34754 33727
6157 37102 6835
1478 67448 26761
40262 35859 3483
3870 13592 33827
5237 38847 21209
4647 38847 15061
18618 35859 24289
13558 35859 27329
19179 35859 24347
25632 35859 19892
44577 17733 6299
9328 36795 35794
4083 54353 6853
4385 64765 7004
6340 75986 710
5229 35859 7985
24745 35859 38791
43865 38420 35987
45925 16296 36218
45337 36867 38013
12975 38420 35789
31407 38420 35863
4229 5167 5440
4407 69532 3759
4356 71573 3871
4706 69858 3101
38859 35859 38053
45611 18557 36531
2967 75986 33193
4309 75986 32602
34595 38420 2700
6741 75986 402
5488 33467 33331
5019 33384 33756
5643 25914 33192
5737 28524 33107
5560 22968 33267
5983 28846 32606
40810 17530 6605
4829 56907 7225
11788 38420 29158
11146 38420 29943
22763 38420 21629
11709 38420 28668
28170 38420 17734
28559 38420 2525
20498 38420 5393
42147 38420 5215
42717 17530 33391
2649 70754 6138
5892 39784 6005
19411 38420 24081
21253 38420 22778
16931 38420 25999
9167 38420 30744
20203 38420 23307
47620 3401 3255
4644 36606 22332
4644 37340 22146
4644 37127 26902
4644 36066 23368
4644 36553 17494
8119 35859 5917
17582 35859 6154
13734 35859 5707
5628 33480 5740
5048 31435 5160
5125 38710 5237
7668 38774 5424
44099 17698 34617
4633 42083 5429
4440 41760 5817
4065 35392 6567
3937 67747 4873
5880 57903 32471
6602 41077 32634
5794 46500 33529
6512 44307 32734
6401 39407 32857
5398 69662 10877
5594 72607 10065
5652 75765 9827
8276 70652 40531
19527 35859 36703
14654 38420 29392
28260 38420 19269
30568 38420 17400
22620 38420 23374
12088 38420 31271
8719 73868 2396
5813 38443 13931
4294 69405 17166
3345 7094 32967
47855 3674 2462
24944 35859 35817
12451 35859 36306
21093 35859 36513
21260 35859 35778
44508 35859 4909
40609 16677 7072
15613 16801 7768
38398 17288 7768
35812 17171 7768
7375 36144 5667
42649 35859 34200
7208 35859 32787
39781 35859 11070
26661 35859 20041
8881 68289 38789
43557 17260 9034
10521 16677 6510
3433 2107 34910
36334 35859 36097
39313 35859 36349
40037 35859 36925
43197 35859 36044
26002 35859 36490
5979 75129 40019
22260 35859 20271
20587 35859 21270
4222 6311 6000
2149 2879 4676
6971 38821 8534
4874 40182 5339
5578 46739 5690
4938 36709 5372
7695 75986 2984
30760 38847 1378
5662 75986 4205
40564 38420 36469
25078 38420 35737
48325 2279 1916
46821 1426 37552
5992 52729 7805
19420 16677 7568
4925 25398 5037
18206 38420 35620
5480 14924 33339
43602 12800 5345
45805 3718 2656
33104 17530 6241
20609 38847 1381
6293 38847 7876
5045 38847 8303
39336 38784 38904
30777 37650 38904
42367 38408 38904
38487 38398 38904
41820 36887 38904
4151 16830 5635
2980 75986 10392
4412 24232 5270
36136 35859 1352
19232 37004 1338
21992 37708 1338
21299 36831 1338
29801 38461 1338
4346 4356 4907
9159 38420 26627
13121 38420 24600
2988 8995 34222
14133 38420 9510
2120 484 36375
43700 10451 4799
26039 35859 2756
5353 28035 7881
4072 8869 32310
152 0 35907
5105 54199 31745
47147 37388 35450
22811 35859 2611
44493 35825 34437
2009 2740 36474
44867 28425 3850
17076 16677 7419
13304 16677 7419
5479 11136 33339
5343 15693 33462
5884 25567 31990
5285 32920 31327
5498 27215 7807
44767 38837 38360
33545 35859 5443
10538 35859 4997
13206 35859 5010
6371 74861 40470
2727 66817 5979
32002 35859 13690
36592 35859 11434
44970 35859 7122
22916 35859 19333
4445 73090 24999
4323 75454 24145
4391 68635 24619
5913 60243 33025
3769 7132 6297
44733 22822 37092
44200 23162 36559
44451 29473 36811
44810 27916 37170
44496 21920 36855
3935 12551 6462
3407 67448 9237
44139 10201 4322
4146 67092 34011
45696 10284 5179
4542 59027 5645
3765 18583 33372
4164 75580 20970
4264 72592 23097
2983 69091 36640
6256 38784 6369
4059 66454 4932
4013 7886 34664
48471 1544 38416
290 414 2446
4189 39391 33781
3922 44196 33540
4258 49578 6182
4588 50620 5520
44667 38420 35140
27176 38420 35047
8145 71583 316
45931 35614 4914
45311 22113 4294
7879 35859 19002
8129 35859 13070
15079 35859 22110
16109 35859 21380
27853 35859 11897
9778 35859 18169
16087 35859 18568
11108 35859 14448
21194 35859 11171
7736 35859 15051
25406 35859 8432
32204 35859 12261
27818 35859 14158
20013 35859 15928
8634 35859 21938
8920 35859 19633
10596 35859 24925
28930 35859 15411
5642 35859 27212
5387 35859 12847
30414 35859 8250
14933 35859 16648
19538 35859 20663
24118 35859 8761
34099 35859 9584
24121 35859 17774
9066 35859 9982
26320 35859 9860
24869 35859 16194
6758 35859 24371
18282 35859 15598
14479 35859 12589
12988 35859 12911
6321 35859 14531
30070 35859 13494
21552 35859 13510
20535 35859 17068
19534 35859 12794
16836 35859 20423
29952 35859 11886
11114 35859 25459
6814 35859 20931
5589 35859 24831
14905 35859 21294
21146 35859 10345
20983 35859 12678
36551 35859 10820
13516 35859 11950
27264 35859 15618
9611 35859 19624
17656 35859 17246
5034 35859 26158
17326 35859 14206
30246 35859 14623
23978 35859 16949
28809 35859 8968
5402 35859 24239
16712 35859 12802
13647 35859 19298
6485 35859 19598
20204 35859 18061
43618 31833 35977
43411 24728 35770
43649 34137 36008
43817 30263 36177
5033 67448 29055
46391 1918 2070
45132 14790 35076
6344 32394 32558
41557 17530 34271
7934 69798 3946
7915 72689 3989
18560 38420 34061
20693 38420 34220
9913 38420 33901
5605 28816 5717
6441 37360 33040
45620 29193 35565
45600 21302 35544
45789 24883 35733
44333 17530 22385
44322 17530 31187
47030 36963 4447
4644 38730 16612
4580 34100 5103
4304 39698 5378
4777 38842 4905
9874 38420 29554
11645 38420 5602
26699 38420 5577
810 70616 16063
762 68514 16398
6497 67448 40284
3374 71503 6037
46737 8236 4139
1395 75986 27200
6630 52911 32582
4251 18021 6778
11621 38420 10188
8097 38420 10548
6552 67448 5565
5557 19581 31651
46713 7767 3654
45074 16831 4160
19391 35859 1902
47531 994 930
3578 20241 6105
4144 69635 6191
3209 75986 14535
1824 75986 14595
44126 25210 34484
18126 38180 1372
4018 59449 32947
4440 67665 34574
42907 16677 7130
4912 67448 34156
44309 8442 36497
45047 11866 34991
14269 35859 8578
3940 67603 34091
1035 73170 26414
752 69975 24431
800 72868 24768
17887 38420 3502
28680 38847 1390
45324 17634 35268
5193 72563 38653
28656 35859 17003
21543 35859 21322
11654 38339 37268
4409 16854 32006
3160 71897 6173
8313 38420 27037
3021 69630 36598
13161 16829 6198
29946 16878 6198
17242 16677 6349
5154 17178 20690
5154 17370 27454
37270 17121 7768
40946 16901 7768
40229 16918 7768
3628 75986 11844
3129 75986 12351
20222 38420 36868
6452 72464 7485
6384 67914 7684
6148 68861 8368
27922 38420 8105
38 1173 35954
28969 35859 34794
30911 35859 34357
14792 35859 34999
1708 69843 5440
14680 35859 37970
43139 16950 5577
5737 13596 6880
43935 23453 4526
43190 31376 5270
43534 29013 4927
44306 19550 4155
24492 16818 34372
17559 17130 34372
27775 17011 34372
7328 38420 8865
17419 36443 38880
5136 16753 33650
6929 44567 6564
6939 47524 6545
6961 52569 6500
43488 17867 35214
3740 32377 6267
3795 31673 6324
5495 60633 32760
14677 38420 26077
26322 38420 18452
5532 48785 33819
6025 44441 33273
5943 45625 33363
5446 49926 33914
5351 11293 6705
16251 38420 6797
11393 38420 7169
10173 38420 6739
4906 75986 9725
4412 75986 9293
43688 16679 13437
43688 16774 15004
45941 38544 22861
37694 16677 34037
4599 74335 26081
4508 75518 25439
4784 75507 27372
4783 68747 27363
19965 38847 1749
47199 0 3016
3180 70172 34404
2464 70075 32326
2712 69008 33044
2899 71885 33589
14569 17409 7768
25846 17168 7768
25124 17530 7632
29132 17530 7673
44004 19267 34638
44134 30105 6739
43492 32664 6097
44135 33338 6739
6533 16677 14641
6746 16677 20238
6308 16677 17021
5826 16677 16673
43803 11804 35917
5832 38548 28243
33494 38420 13328
5720 67576 31288
6027 73055 32181
5730 74220 31318
45271 37059 2185
13594 17530 7209
15144 36818 38501
3601 18690 32735
3652 17998 32690
44939 36505 1966
4029 36339 32348
4623 32334 31812
3631 35054 32709
3815 34291 32541
12023 38420 28055
8576 17178 32964
1051 75285 14377
965 73682 14974
1201 68177 13328
5755 19190 31884
2434 887 2547
4754 48368 32133
5205 47445 31633
4300 47689 32635
3710 1427 3831
1877 70420 30399
1822 67899 30170
6268 58001 32840
4131 38789 5550
4537 31177 5145
45750 38847 2996
4076 15131 5593
3037 67077 36292
44038 16677 11820
5931 53753 31984
45587 38847 36464
12691 38420 35297
3371 22245 32943
7279 67448 40540
25702 35859 38611
2647 75986 13044
4802 68055 13404
4344 67772 16607
5249 17048 5362
36664 38420 37188
24189 38420 18853
3409 24001 33071
3899 36265 33613
3674 33948 33365
3695 64372 33305
4442 41492 34010
4719 48158 34260
4504 49570 34067
5960 67448 34752
45787 12269 36951
45608 7726 2853
43491 23576 6097
43288 26203 5892
7562 38420 27942
5734 27674 33109
5716 31505 33126
4998 29606 33774
5402 20468 33410
44248 9401 5005
18571 35859 1799
38121 16677 7742
33554 16677 7570
46396 8938 3823
5244 10062 32994
43688 17306 21527
43688 17515 30480
3343 71116 34795
3410 75378 34944
4241 58349 6342
8002 74184 40724
44428 16760 30396
44428 16876 17021
44428 16920 20753
2964 67448 20926
43818 16677 33906
23681 38420 3735
5154 16715 30157
4483 7492 6245
43801 35859 2184
43457 17530 32308
6399 71235 423
2993 67448 11799
9571 38420 27680
47320 238 37853
7570 68475 33
31116 38420 15234
6047 40843 6159
32308 38420 7400
32494 38847 2450
3212 75986 23903
2108 75986 23252
24308 16678 33381
6192 73364 8240
6271 75813 8012
6094 74122 8525
44154 16228 36513
46676 8334 36620
45360 3696 3556
3671 67448 28974
3207 8143 33092
17979 35859 2580
4938 40981 5912
5449 39688 31467
20071 38420 21893
12439 38420 26826
4067 57708 6846
6348 17530 12511
6387 17530 10967
5512 17530 11711
24536 38420 11342
20091 38420 12445
32873 38420 12460
9402 38420 19152
13099 38420 23208
13041 38420 19770
42840 38420 7293
6477 38420 15632
17411 38420 13001
22236 38420 13770
18571 38420 20112
44733 38420 6259
10541 38420 19729
10102 38420 11589
9736 38420 24100
6830 38420 25566
13382 38420 13950
14117 38420 13901
13963 38420 15332
27827 38420 10113
30162 38420 14092
6156 38420 21198
33482 38420 11582
7266 38420 12642
11458 38420 22916
7837 38420 16316
21149 38420 14035
30812 38420 9164
30934 38420 11796
15081 38420 12612
10738 38420 18516
21913 38420 17703
7044 38420 21205
6445 38420 14434
16967 38420 15067
17339 38420 20149
15772 38420 16401
25044 38420 11672
36659 38420 8479
16923 38420 19384
37126 38420 8192
19695 38420 20104
6885 38420 19539
11084 38420 15200
27444 38420 9299
16851 38420 12907
28887 38420 13871
6942 38420 17966
30545 38420 13489
34597 38420 8965
21932 38420 9495
18280 38420 11449
16580 38420 18022
17316 38420 16554
8069 38420 17592
34897 38420 9798
19053 38420 22335
4469 52459 5759
890 68370 25404
1010 68597 26241
6646 16677 31241
37049 35859 3728
6023 75986 2274
3359 69215 36223
41174 17530 33573
5764 73243 9483
6479 74725 7405
5940 75602 8975
47633 1028 37578
39163 17530 6922
1147 70169 13703
1160 69526 13611
965 72833 14975
6430 36768 32884
8984 71312 39245
6538 16677 32550
8114 72638 293
45213 10894 37573
8906 74558 39602
31674 17530 33697
4104 57356 33805
4415 69248 5942
26331 38420 16481
13161 38420 23868
45507 13764 36930
6021 55858 7820
6976 17426 9615
6976 17058 13871
5442 39089 7618
4145 71192 20589
4197 71445 21680
4144 75212 20557
3865 20559 5816
5534 57740 33816
5755 64940 6104
2067 6347 34121
6871 67448 2155
9919 38373 36307
41736 37585 38904
39786 37548 38904
33361 37031 38904
34359 38205 38904
22079 38339 38904
42280 37260 38904
4964 68759 2646
5286 69710 2086
47457 1231 39816
3459 37943 33127
3439 31201 33104
4211 33406 33959
1459 72721 3637
43553 27929 6158
43117 30124 5723
43487 21994 6092
30436 38420 15769
19484 38420 22859
45523 12510 5353
22333 35859 2174
6037 67448 3035
4709 36840 7165
4351 35708 6879
45441 8540 3020
45891 4087 36916
43059 38541 2507
2679 1714 34326
2799 70181 33297
3041 69679 33999
2624 67849 32787
21724 38847 37824
49393 13 1075
4672 48583 5351
4185 48679 6328
6201 29812 32575
5963 60071 7680
5053 75986 5699
7278 67448 1184
17902 38420 4981
45941 38485 8811
6033 23909 7272
5713 24190 7592
5684 39267 5742
6102 69172 40193
31208 17530 7097
7700 75103 80
11004 36403 3238
17348 38420 36277
18406 38420 36303
1285 71668 5458
5989 18248 32690
5803 16189 5916
2447 68188 34685
4112 29939 6639
4157 30551 6685
45231 6336 4765
5611 55382 31840
6227 43119 7922
5298 67448 8696
41852 38847 38080
38294 38847 38076
16752 35859 23084
4540 17219 7067
20257 16677 6319
5047 65323 34004
722 73061 3745
29656 17530 7674
42811 38847 2239
39853 38847 2201
21455 35859 2696
5772 21174 5884
5702 23712 5815
5658 52448 31687
19080 36452 38904
30989 36853 38904
33912 36043 38904
20283 36341 38904
18555 35960 38904
21126 37896 38904
7883 38847 32954
6498 54068 7413
8126 75557 40642
1072 71099 36207
45600 20830 5275
45599 17039 5277
3735 6171 3849
4492 54646 5714
6063 67448 6722
44068 16960 7555
2776 75986 16655
4700 15943 34044
4808 9078 33946
9631 35859 6586
4895 20034 33867
5360 66031 6269
47940 375 2936
5661 38847 19258
4843 38847 10975
40096 35859 38130
599 75611 18910
635 71533 18178
12721 37166 37737
6713 71447 34177
6580 72155 33790
4778 40736 5292
5201 38072 5503
4644 38361 27546
4644 38250 16383
4644 36812 13133
2812 4045 35749
7692 38420 9875
4086 51768 32872
14556 38420 24316
4349 17630 5445
