ply
format ascii 1.0
element vertex 2704
property float x
property float y
property float z
end_header
34726 27946 49447
2032 50788 10186
11419 42798 10812
8221 41078 10958
4955 44860 42310
5122 43600 42213
32138 22851 48075
32031 21971 48005
4657 66566 9921
28432 18387 24295
29363 18120 20228
27996 18512 9698
28347 18412 31162
28596 18340 22751
30356 17835 8449
29470 18089 12717
29644 18039 16941
3124 60443 43053
4867 59780 43056
5001 61227 43049
5303 59401 43057
3317 58657 43061
1468 57891 43064
13699 36211 32084
13673 36358 22712
13716 36117 38587
13968 34714 33990
13734 36013 26546
42057 635 18077
30377 26764 16737
30531 26821 39901
29228 26342 42602
30371 26762 35623
29710 26519 44266
30225 26708 20761
29049 26276 29944
30410 26776 33220
30053 26645 32364
11269 29207 39759
9611 31174 33291
11131 29372 24473
10013 30697 31862
9236 31619 38272
9925 30801 39410
11022 29501 28548
11223 29263 14529
34987 28835 12810
35372 29014 18346
34610 28660 29662
34247 28492 39726
34726 28714 46432
34608 28660 32922
33592 28189 43202
35406 29030 16207
35092 28884 36754
44941 24461 56
41661 26455 483
41819 23029 502
24380 1559 27473
24690 12264 27046
41710 31472 29279
41906 31532 42260
41783 31494 42842
42088 31588 12237
41415 31381 47435
29821 17568 24751
22426 15362 27448
41458 31394 17854
42262 31642 3666
41151 31300 29762
41222 31322 9017
41078 31278 39558
2895 66626 42593
50729 24504 40206
50758 24782 26768
50775 24939 25637
50857 25722 6925
50686 24086 11552
50752 24725 4791
50695 24179 28047
50734 24550 27632
50718 24399 29706
50896 26102 4837
50692 24147 42759
438 63438 10764
13341 53464 22295
13481 50583 37966
13340 53478 20587
13455 51127 17189
13426 51716 22020
13444 51328 33632
13298 54345 19056
13355 53184 13967
13449 51238 14626
13418 51888 31851
13390 52451 12493
13462 50961 13661
13397 52323 14568
23315 693 47488
18455 693 45013
27699 693 44095
15302 693 45529
13173 693 43811
28729 693 43858
20095 25495 25235
20641 25380 21525
20173 25478 13693
21123 25279 14761
19922 25531 35121
45506 29266 21
45394 30289 15
19757 693 7379
20466 693 6953
39482 30687 34205
39611 30736 6501
40331 31009 18304
40386 31030 11291
39495 30691 18655
40649 31129 3992
7077 41213 42002
6397 39978 41891
18314 22994 14809
16641 24147 20296
18400 22935 15557
17431 23602 26680
16106 24515 26963
16644 24144 33252
16851 24002 31659
16192 24456 19684
38533 29578 1542
17989 23218 34495
17063 23856 36834
17258 23721 32651
16302 24380 39102
18457 22896 32747
19048 22489 18086
18501 22866 30646
18359 22963 35112
24704 7972 26659
36802 420 42484
41439 18044 42333
40675 17934 45599
41266 18019 28876
41799 18096 30841
40574 17920 44406
41218 18012 36892
41684 18079 22868
38952 25519 1260
39721 24073 965
3409 54351 42982
11493 56063 43070
1708 53576 42940
6054 54019 42957
44547 20281 196
42918 28004 233
40594 31108 14934
40240 30974 25902
40434 31048 37615
40353 31017 27119
39617 30738 49263
40478 31064 20514
38665 20443 51468
13365 49722 41871
34074 19765 49214
34060 20511 49209
13367 37311 41087
4563 67574 21466
4141 67547 11903
4655 67579 17269
3980 67537 32789
4955 67598 22694
7562 67760 11284
4035 67541 24658
5896 67656 20322
5553 67635 17132
8373 66418 42992
688 57063 42802
50821 25384 16817
50718 24398 7887
50715 24365 7054
50716 24380 15307
50748 24685 19891
50743 24635 21665
50783 25013 28226
50706 24282 38862
50710 24321 10905
50713 24349 38369
50718 24394 24747
30674 20905 5793
38858 693 24979
27596 693 25686
27764 17897 25273
28058 17850 30232
27361 693 27276
11831 63912 38524
11826 63925 28284
11776 64044 35181
11858 63845 37907
11686 64258 25021
11954 63615 34047
12040 63412 41221
11762 64077 32010
11252 65297 20095
30247 19288 6050
28328 19900 7134
38107 30153 30128
37985 30106 9806
38507 30309 24197
38430 30279 27247
38288 30224 7092
38509 30310 22806
3532 67177 42326
45156 31919 39741
44977 31920 27645
44250 31922 46092
45012 31920 19478
45121 31919 35996
45013 31920 14276
38646 18150 51024
43272 693 24646
11791 64007 21783
11774 64049 17487
11969 63581 18223
12463 62400 31329
11819 63941 23208
12265 62874 33644
11885 63782 18737
15728 29891 26604
15606 30125 17057
16053 29273 27811
16286 28826 18878
16070 29239 24294
15926 29515 31359
45476 31887 36716
45351 31914 40341
46162 31742 2118
46132 31748 10256
45517 31879 31031
45361 31912 17122
36397 27407 50550
43933 19802 313
3602 47910 42547
5653 47353 42506
4785 49978 42709
168 55805 10976
46187 21237 8
46839 22642 10
24857 19785 43338
35603 26400 50153
36591 19478 50541
14610 25758 19518
13903 26348 23263
14467 25878 21694
15009 25424 13481
13691 26524 20241
13889 26360 33600
4638 63143 9900
3332 62851 9900
26413 693 42822
21966 693 42722
13559 693 41842
31924 693 43589
12481 693 41526
26298 693 43658
21667 15030 27423
33825 28297 38702
34803 28750 30607
33689 28234 43706
34037 28395 44617
35198 28933 47947
33143 27981 46586
35054 28866 14586
32689 17457 17393
32887 17429 14140
32646 17463 21785
32497 17484 41736
32519 17480 39694
32331 17507 37850
32005 17552 35068
31333 17646 45376
5608 693 33992
6334 693 36881
19544 693 35077
9245 693 35907
5138 693 35906
29099 693 36600
16905 693 36980
39840 693 37159
30033 693 36158
22647 693 36439
8950 693 36584
21583 693 35374
14266 29874 41404
22313 783 25491
13426 46228 13464
13428 46363 24349
13456 48229 18207
13455 48163 15480
13449 47760 20156
13443 47378 17670
13465 48779 20890
13431 46567 15260
13438 47026 29117
14881 31718 40321
41348 22812 52335
40855 27299 52320
11937 37991 11218
5925 693 31713
12260 693 32172
23563 693 31953
27710 693 31954
13729 693 32458
7007 693 29817
33884 693 32413
20512 693 32288
5658 693 30050
32809 693 32305
4937 693 31203
3397 693 32805
14193 693 30418
27356 18812 8659
7698 46007 42394
6838 45737 42374
50336 23269 11447
50577 23821 14989
50252 23075 13186
50518 23686 38650
50467 23568 16143
50450 23529 24923
50296 23176 7211
50688 25225 740
16833 28158 22310
16769 28236 39496
17086 27850 35494
17402 27465 36765
17156 27764 37732
11594 237 9511
3072 63636 43043
12296 54521 10004
7258 56698 43070
5276 57412 43067
7184 59225 43057
11026 61028 43050
7744 56807 43070
9950 59434 43057
25713 16972 26903
27091 17647 22861
14496 32091 40882
29782 25203 46649
17401 27467 40118
16408 28677 30944
16419 28663 34011
16797 28202 31762
16659 28371 36109
30373 26071 6209
46431 19527 36402
46603 19631 8318
46293 19443 6016
47048 19902 17779
47649 20267 1546
46166 19366 40015
46134 19346 19674
47657 20271 9926
47140 19957 13579
33553 16969 26011
19081 26084 27728
19322 25923 36492
18761 26298 36740
19516 25792 29177
18337 26581 40214
2900 64151 9900
12979 42917 41680
49686 22196 52057
10894 35767 41621
38157 693 24477
14209 693 21926
6301 693 23466
22911 693 23266
36470 693 24541
15817 693 24600
9170 693 21972
19792 693 22829
27063 693 23768
16198 693 23436
14801 693 23074
19119 693 24037
29799 693 23785
29248 693 23089
7116 34720 34470
8118 33187 29811
7571 34024 37735
8581 32480 28901
8784 32169 31252
7992 33381 34634
6837 35147 35531
7892 33534 30978
8424 32718 36455
7751 33749 36482
15501 30325 37744
15448 30426 38808
15282 30742 33494
15963 29443 33248
23035 25058 36150
25293 25239 34490
23844 25123 37330
23714 25112 34491
25223 25233 20141
24790 25199 23293
24389 25166 31081
8277 33109 40649
22670 693 8944
15286 693 8635
13799 693 8527
12696 32061 41467
41136 18001 24415
40877 17963 23613
41855 18104 7897
40350 17887 22315
40348 17887 2843
41647 18074 8410
40700 17938 16552
19115 26061 24483
19398 25872 24079
19572 25755 21705
18756 26301 32130
19023 26123 27228
13499 38311 27429
13415 39364 19440
13584 37238 34653
13426 39226 32751
13467 38712 29123
13458 38827 31801
13501 38274 35010
13443 39007 27025
5533 65675 43043
31063 17368 25642
22024 6217 27243
12628 28368 41026
9316 43670 42209
14724 32187 37425
14617 32495 26822
14399 33122 30137
14108 33960 14020
14154 33825 33719
14124 33915 36198
15022 31332 39324
30563 18316 6254
26852 693 45322
28708 693 45699
22501 693 45804
27070 25667 42431
27636 25804 38874
27706 25821 37319
26564 25544 28357
27131 25682 33999
26265 25472 43288
42223 29412 315
5388 40774 41946
32199 17525 14649
32221 17522 11064
32190 17527 10403
31365 17642 14102
31536 17618 24075
30966 17698 14969
31372 17641 28548
32616 17467 12182
49455 21834 4993
49400 21781 34491
48737 21157 4232
49418 21798 20438
48879 21291 10322
49800 22158 33568
49211 21604 23676
49039 21441 16871
49601 21971 27703
6796 67712 38333
5978 67662 27299
5393 67625 31889
7417 67751 40227
6929 67720 19827
7364 67747 31359
5797 67650 29449
5840 67653 36369
16416 27618 11583
5177 38330 27180
5051 38605 18292
5074 38552 33977
5590 37433 20078
5542 37538 21733
4885 38962 14773
5223 38231 16921
2860 44350 35755
2888 44272 31273
3034 43869 30000
3402 42861 19906
2865 44332 32462
3190 43444 21969
3275 43210 33020
3569 42403 23045
3099 43693 33986
28121 19862 45693
22866 20450 23668
22550 20585 24524
22416 20642 26323
22175 20745 17719
22769 20492 14198
23666 20110 12634
46598 31019 281
36404 21873 2467
35536 25830 2824
10238 693 25733
23155 3481 25117
2745 44664 22983
3286 43179 13199
2540 45225 29795
2417 45566 21921
3489 42622 13774
2945 44116 22910
2337 45785 18678
3224 43350 18478
2420 45557 15505
32963 24303 48586
31029 25472 47406
2028 66136 31006
1824 65964 34197
3492 67378 31017
1954 66073 41806
2520 66553 40976
3534 67415 15810
3480 67367 40957
2978 66942 39811
2704 66710 31286
14957 27594 11449
14438 32378 12107
39701 27087 902
6423 36626 41224
20042 693 25698
528 53181 13076
392 54091 24682
384 54144 15496
435 53793 26029
238 55115 29292
416 53930 26948
424 53874 13392
845 51071 11464
638 52452 17081
206 55329 17530
248 55040 12505
15528 28926 41254
21867 3069 26457
33916 27508 3964
12286 37126 41676
43588 18469 44213
42772 18285 46369
43069 18352 39101
43155 18371 29302
44080 18580 51461
42837 18300 40504
43576 18467 21006
42272 18173 50987
31574 27281 38955
31181 27106 38546
32943 27890 10809
32890 27866 38606
32757 27807 20458
32938 27888 21937
32842 27845 11932
31157 27095 45090
12985 40158 11513
1083 49997 21411
949 50451 40517
1982 46958 11766
1380 48995 26846
2001 46895 17552
1525 48503 19551
1805 47556 18023
1179 49675 25895
1201 49600 34259
1290 49299 11953
994 50299 30450
35049 23622 3132
35454 27019 2857
18671 26358 25117
18089 26747 23800
18679 26353 23507
18605 26402 24251
18043 26779 12479
18425 26522 15151
12949 58404 34480
12913 58732 29084
12632 61241 26448
12620 61346 27927
12546 61999 22055
12774 59971 22634
12654 61032 35403
13197 56189 41841
12687 60748 33900
12656 61028 20016
12621 61342 41470
12729 60366 40661
12641 61161 19011
12638 61189 21213
12881 59012 37133
47749 23749 0
50268 28648 47585
50376 28364 41484
50593 27792 45595
50171 28904 18496
50493 28054 35548
50093 29111 21253
50125 29027 42256
50034 29267 45823
13064 51638 10556
31562 22216 5227
30969 22669 5594
29030 17694 26804
8685 32811 40950
8024 67508 40118
10280 66124 33410
8891 66976 32011
8917 66960 40906
9626 66525 37919
10546 65961 23863
8823 67018 40074
10806 65801 41694
10973 65699 20976
13459 48474 27199
13476 49579 27930
13487 50230 37400
13489 50353 20034
13478 49614 36722
13476 49573 20715
13444 47393 33929
13484 50031 14615
13484 50096 26728
13459 48378 38254
682 52160 15722
693 52084 13099
192 55417 25595
639 52439 13847
218 55245 37797
275 54860 30011
692 52094 20582
414 53933 24108
455 53671 15905
224 55204 18122
728 51854 18270
644 52414 11516
1262 51332 42411
9098 31782 20240
9421 31398 20475
9563 31231 29328
10778 29790 16237
10361 30284 19955
10195 30481 16549
9329 31506 13408
9332 31504 31014
44014 18565 33306
42492 18222 47194
42489 18222 49446
43059 18350 40940
43999 18562 28945
43852 18529 14647
42803 18292 36407
26928 229 6297
4246 40628 17807
4058 41120 13706
4619 39645 12384
4315 40447 14837
3636 42228 30106
3582 42369 40341
4404 40212 16685
25727 23636 44503
20859 21878 42133
35703 693 40609
34678 693 40441
16916 693 39389
13895 693 39836
9102 693 40673
10084 693 39739
26568 693 39633
24650 19799 9839
27616 18657 25142
27285 18710 27576
29092 18421 29962
6355 693 24532
10776 693 22133
4959 693 24556
12606 693 23085
7268 693 20784
3967 693 21426
4996 693 24029
10846 693 22857
21242 693 24486
13379 693 24011
25750 693 23276
19048 693 22728
47904 20421 51422
47357 20089 47605
46752 19722 40568
47539 20199 25644
46636 19651 48625
47780 20346 13671
47196 19991 27301
47053 19905 45124
46783 19740 38360
10067 48685 42609
23093 693 25077
13119 56888 15834
12929 58586 16657
13125 56836 23050
12939 58494 12627
12863 59172 23317
13090 57148 36142
13168 56450 20590
13097 57086 31514
12886 58971 24795
12776 59956 20164
13160 56523 16417
12976 58157 28804
12864 59170 26107
12684 60776 13005
50425 27766 731
34012 23043 49192
12651 48244 42444
8326 32870 15032
6214 36101 38206
6299 35970 19793
7182 34620 17628
6754 35274 21416
6694 35366 28134
7788 33693 20361
8681 32327 12809
7049 34823 30255
44344 18670 47960
45470 19093 48598
45831 19229 12055
45214 18997 25362
45795 19215 18446
45848 19236 28281
45890 19251 47177
45921 19263 27501
11291 29475 12241
12754 693 9264
26203 693 9802
20704 693 9643
25801 17015 25076
23594 25103 29114
25304 25240 19252
24918 25209 36401
23306 25080 40032
24274 25157 23074
24658 25188 39635
8898 45293 10606
7994 44735 10647
4572 45514 10583
34482 17375 26357
33307 17393 45504
34667 17372 22969
33550 17389 40520
35227 17363 27536
34286 17378 30282
34750 17371 20237
34155 17380 45543
34747 17371 45941
26799 18939 43881
28480 17782 22681
22340 2456 27678
20144 21873 15325
19895 22012 19539
19451 22259 31935
20659 21586 14380
19949 21982 28875
20962 21418 14940
19962 21975 26807
27666 693 26261
21451 24422 10397
34050 20715 3739
33903 19248 3830
50137 28995 19713
50430 28221 34297
50404 28290 49657
50847 27118 46173
50316 28521 28943
50555 27892 30977
50128 29020 31835
50650 27640 50971
50208 28807 27470
50503 23687 51878
43980 21610 242
15535 24986 29631
14747 25644 27226
15517 25001 25387
14804 25596 37482
15508 25008 26452
15977 24617 33066
15164 25295 32863
15817 24750 21218
23550 11996 27972
25090 24370 8913
13211 34023 11498
36264 693 18329
41050 693 18338
25342 693 16385
34584 693 19389
25429 693 17209
26555 693 16636
27095 693 17032
19750 693 17098
21908 693 17355
29425 693 18818
26007 17116 29843
30333 17485 26438
32957 17065 26671
23042 10055 27979
560 52967 31678
905 50666 21980
605 52663 36181
727 51860 37323
802 51358 39346
916 50600 14706
582 52826 37849
839 51106 15179
273 54882 39458
632 52492 38218
898 50719 15809
39362 27097 51909
39400 26582 51910
48297 20743 32619
48359 20801 40996
49145 21541 38921
49614 21983 45247
48442 20880 29991
48348 20790 11912
48204 20655 18110
48185 20638 33504
49136 21533 42942
49481 21858 48271
27512 25633 8508
24704 7061 26335
4514 477 35862
9411 38237 11196
9210 39166 11141
21224 693 28760
17085 693 28870
37245 693 28835
337 56944 10508
28652 17755 28051
10835 43057 10789
10418 43377 10762
32865 17080 24891
34400 28563 6124
33142 27980 36388
33831 28299 24707
33278 28043 18157
34677 28692 17322
34714 28709 11245
2895 65030 43043
16664 693 10941
10138 693 12618
21732 693 12793
15785 693 11392
12626 693 11275
19729 693 11607
11211 693 12396
33629 17388 33917
33493 17390 32837
34679 17372 15308
33770 17386 34797
34996 17367 9899
33865 17384 31263
33517 17390 8606
33537 17390 19635
41987 18753 52145
14463 693 41016
34433 693 41906
26008 693 41546
12179 693 40757
30273 693 42314
21628 693 41892
26748 693 27875
36123 693 26565
40919 693 25808
42379 693 26301
30586 693 26906
41141 693 27633
47516 21424 79
22784 13540 25238
6667 52140 42846
11735 52346 42860
11941 52930 42893
10356 51688 42822
48408 22968 0
46712 31625 26117
45583 31865 50476
46728 31622 22001
46762 31615 14865
46380 31696 19769
46240 31725 23895
46862 31593 43028
8661 34368 11404
40916 31228 19102
41758 31487 4936
40915 31228 17821
41571 31429 12860
40758 332 37953
12082 63195 42050
24173 16086 27758
24182 13056 27745
7314 34418 27551
7502 34130 14136
6486 35685 24145
8313 32889 17868
7505 34125 23944
8458 32667 14077
7760 33736 15825
8424 32718 13507
6789 35220 28838
7283 34464 25136
13458 51052 22917
13293 54467 18182
13406 52123 27546
13269 54924 13484
13443 51355 35119
13481 50583 30808
13430 51622 26919
13416 51919 31046
13481 50583 32141
13376 52717 13612
13356 53159 19861
3971 41639 11743
3161 43523 23218
2875 44309 34548
3403 42858 36429
3361 42975 23661
3194 43434 28074
3123 43628 37215
38972 28811 1155
39960 20728 956
2623 58878 43060
5492 62158 43045
3269 62052 43045
4635 58794 43060
27944 17917 31513
11117 30231 11854
5644 37316 27854
6053 36428 34383
5697 37201 24324
5931 36694 36927
5024 38662 38842
5689 37218 31366
985 58129 42959
40350 17887 43357
41525 18057 3423
40457 17903 29030
40487 17907 24685
40342 17886 12843
40347 17887 25989
40640 17929 15894
41899 18111 4223
25870 25261 9339
49896 22259 18352
49928 22331 43777
50036 22580 16833
49888 22242 39874
49932 22342 8058
50567 23797 46883
50329 23252 35707
50376 23359 39572
41488 611 36772
18014 444 6637
42259 31641 37595
41932 31540 35239
41771 31491 48012
41938 31542 22151
41106 31286 45541
34291 17587 27770
23969 9443 27836
40320 27374 755
40877 24764 679
8089 61324 9895
4008 58202 9880
4846 58395 9881
4922 59663 9887
12743 41152 41751
24476 12156 25793
33830 17506 29481
39436 30669 35502
39671 30758 26321
39465 30680 27110
39453 30676 4489
39520 30701 7089
50719 25705 52267
5099 67607 30249
4924 67596 13803
3785 67525 33603
4717 67583 14637
4877 67593 25949
4549 67573 16600
4033 67541 27320
5034 67603 20349
5263 67617 21914
45829 19228 26641
45545 19122 31125
45471 19094 40022
45757 19201 21425
45055 18937 31580
46064 19317 14477
44608 18769 42144
37430 29878 23635
37492 29904 33609
36426 29458 41466
37678 29982 19054
37271 29812 36276
37754 30014 25022
37483 29900 14203
36841 29632 33614
36863 29641 34566
2607 64876 9900
44072 30049 77
48873 30310 38121
49234 29995 37472
49328 29912 50111
49776 29521 35356
49119 30095 46255
49969 29353 20128
50004 29322 15852
49649 29632 22379
49875 29435 6145
5271 38377 40926
24665 9131 27080
38413 30272 17582
38443 30284 13593
38632 30357 14582
38747 30402 12303
37855 30055 47982
38916 30468 5648
21361 15805 24842
9091 60784 43051
8839 58254 43063
1762 56045 43073
10123 56411 43073
8614 58847 43060
47534 20196 5305
46149 19355 28762
47883 20409 3864
46352 19478 24561
46322 19460 10544
47459 20151 11123
46523 19583 35678
4508 630 17724
5979 60100 9889
9748 61854 9897
3443 60722 9892
4142 58776 9883
13355 41244 16364
13374 39965 14762
13350 41595 20266
13343 42108 12729
13368 40345 28142
13362 40763 17144
13369 40201 27424
24024 485 47578
36089 17400 16660
36282 17419 21054
38131 17603 4903
38039 17594 5545
36063 17398 28531
38050 17595 4100
36399 17431 34178
37309 17522 7672
36097 17400 8164
37134 17504 4439
112 58018 24302
137 56986 40418
84 59093 39665
159 56155 36547
144 56744 27135
77 59390 31177
114 57935 31276
168 55835 27985
80 59267 40604
167 55875 29612
114 57900 36877
158 56214 15508
97 58588 34933
5170 67509 10799
50885 25993 45367
50867 25822 34524
50931 26435 40634
50948 26597 16942
50816 25336 47360
50936 26480 44817
50927 26395 15668
50810 25277 32527
50758 24779 48437
43687 31903 47238
43112 31801 36676
43521 31873 23528
42769 31741 48930
43755 31915 30455
16790 25712 41667
25919 24251 8426
12062 59385 10025
42343 31540 51850
719 52371 11012
22089 25077 34666
21530 25194 32292
22080 25079 29731
21841 25129 31098
22327 25027 13462
21971 25102 23231
12896 57687 42281
13340 42306 24730
13344 42034 27346
13347 41847 22655
13365 40546 38741
13347 41848 32793
13348 41762 23823
30935 22031 47323
31362 20809 47578
21256 25251 20056
20561 25397 12245
20038 25506 22730
20313 25449 35731
20062 25501 32202
50291 28587 13017
50344 28449 9227
50820 27192 25373
50537 27939 2118
50962 26815 24643
50625 27706 23192
50410 28275 19348
50159 28937 8196
40588 25716 728
41346 18361 1197
21317 21220 26638
20871 21468 25748
20314 21779 33969
22033 20821 18709
21513 21111 31704
21940 20873 41517
20187 21849 32277
9773 63 42636
37203 27657 50951
13607 36965 14884
13544 37754 16244
13609 36948 31353
13481 38543 14188
13458 38824 15121
13407 39463 13505
13601 37045 27897
33805 28287 26453
34516 28617 6799
34114 28431 17371
33856 28311 21413
34780 28739 11894
33315 28060 12804
33970 28364 11277
33158 27987 28310
33946 28353 23825
23958 19985 26309
22646 20544 41949
24611 19707 21166
24533 19741 42341
24544 19736 27782
22585 20570 38596
22668 20535 39897
23746 20076 25691
24227 19871 25825
13428 46360 39756
13450 47781 36526
13467 48922 22702
13480 49777 21985
13436 46917 40184
13487 50238 14138
13467 48925 35955
13451 47964 31250
1971 48950 42333
5238 38199 15996
5317 38027 13254
5687 37224 12394
4934 38859 25606
4979 38760 35650
5058 38590 36124
15758 693 10289
36314 693 11999
34884 693 11392
31642 693 10383
29348 693 9955
38054 693 12549
23346 16809 24906
40452 17941 1944
22628 16457 27001
24897 17569 28704
21798 16051 28101
22691 16488 28805
26966 18582 30565
7558 39001 11141
31925 693 45249
31497 693 44994
24418 24747 9510
34008 17382 8818
34179 17379 15504
33331 17393 41307
33566 17389 18659
33294 17393 13212
6830 49385 42664
9398 49528 42677
6979 50566 42756
2807 48688 42607
4273 67523 10939
2218 66297 12221
1993 66106 15425
1735 65888 24689
1391 65596 12758
1140 65383 12353
1012 65275 25202
916 65193 23947
40193 17865 5101
40046 17846 7124
39934 17831 38625
39676 17798 33074
39131 17726 45989
39997 17840 16674
39059 30427 2048
37218 29790 5915
37370 29853 7468
35753 29177 17417
35945 29257 33858
36068 29309 30214
36573 29520 26599
36347 29425 9033
35491 29067 8355
12438 45136 10689
9875 64585 9900
8912 63240 9900
22205 24679 42481
13346 43261 21670
13341 43084 16338
13357 43685 23980
13378 44422 23949
13374 44276 24646
13397 45118 18844
13350 43414 24880
48805 29969 52450
14003 26265 34353
14993 25438 15173
14491 25858 12568
14681 25699 17433
13976 26287 14002
13604 26598 35343
14389 25942 23260
1632 50475 42546
22936 15685 29008
23441 2215 25126
6221 67510 42275
44165 31923 10753
44424 31922 27677
45319 31918 1376
44822 31920 3454
45033 31919 10972
43841 31924 24898
28159 18570 28865
29350 18379 30959
28203 24764 7283
49351 21735 2319
49262 21651 4323
48767 21185 17512
49723 22086 32461
49182 21576 8827
49463 21841 35954
49568 21940 29805
13046 55094 42431
17797 26983 17246
17422 27441 15154
17781 27002 19516
17514 27328 16350
17869 26895 37391
47187 30757 52731
13318 53952 40774
13342 53448 41611
13312 54071 30548
13253 55286 31504
13227 55821 34353
13265 55025 30957
13248 55394 35939
13279 54733 25109
13337 53555 27393
13254 55252 25598
13446 51301 40257
13248 55390 22672
12123 63213 31814
12023 63453 13904
12181 63075 23944
12266 62873 15500
11664 64313 20636
12484 62352 38043
11649 64344 14309
42496 31693 19989
43488 31868 4892
42799 31746 22143
42394 31675 40814
42648 31720 30931
42758 31739 2503
38430 17634 22018
39171 17731 21116
38603 17657 13636
39637 17793 7879
39534 17779 20013
39339 17753 13541
38815 17685 38702
19361 323 47262
1846 65138 42904
34473 25610 49488
33616 25658 48978
14638 29956 11613
47168 31450 24044
46949 31574 35725
47826 31077 13888
47458 31286 13544
47396 31321 28412
22366 12044 27714
47495 26253 52943
9213 38432 41759
7930 37976 41739
47898 31036 28243
48048 30951 21302
47163 31453 50016
48119 30911 9279
47999 30979 33456
48102 30921 37953
31429 693 19252
14172 693 18637
18200 693 18169
21771 693 20008
10938 693 19742
9636 693 19439
18642 693 20066
5786 693 17239
16470 693 18695
38748 693 20183
25970 693 20320
41921 31107 753
31536 18029 22432
33449 17722 24915
18395 23051 41059
42483 31691 5437
42351 31667 10944
42716 31732 36063
42543 31701 35524
42927 31769 29915
42414 31679 32492
38246 17615 29341
37630 17554 32991
38256 17616 16079
38291 17619 11281
36265 17418 48017
37852 17576 31193
36031 17395 46641
37268 17518 41504
37425 17533 23507
37010 17492 32952
41053 26485 52349
41446 24783 52407
12679 28020 12083
29049 18210 24499
28237 18443 35967
28908 18251 8740
29216 18162 16726
28513 18364 25440
30150 17894 9122
27941 18528 40696
42171 18262 1408
35176 26031 49911
33145 26587 48706
37844 693 40692
27820 693 40532
15076 693 40209
9938 693 40374
26812 693 40407
11219 693 38071
14051 693 38804
22481 693 40157
4173 40817 31587
4105 40997 29323
3908 41514 34236
4673 39507 37561
4632 39614 21266
4014 41233 38309
4735 39344 38583
4658 39547 27978
952 65070 10856
5772 58554 9882
10463 60530 9891
7617 57152 9875
8977 56225 9870
46105 31754 7237
45450 31893 8932
45698 31840 5055
45915 31794 16097
45784 31822 30549
46549 31660 1167
31581 693 8863
19443 693 7969
24052 693 7872
43598 19017 678
5315 64438 9900
13334 52688 11056
5224 42127 42092
9248 41270 41999
31551 693 31450
34599 693 29606
17670 693 29854
17819 693 29318
33075 693 31234
39982 693 32269
31014 693 29464
25576 693 30519
39049 693 29932
40019 693 29408
27923 693 30252
27274 693 29383
29788 693 30340
41425 693 31525
13870 35264 24002
14064 34176 21729
14009 34490 27744
13784 35732 17339
13747 35944 18690
14059 34212 30637
13334 42685 25223
13342 42189 36035
13348 41725 38734
13334 42695 39482
13365 40559 34904
13334 42741 40310
13338 42440 21383
9020 35768 41625
11414 35226 41603
7965 66829 10046
16622 24159 13765
16439 24286 21387
17046 23868 29811
16247 24418 31924
17588 23495 20366
16393 24317 30030
17029 23879 12768
17515 23545 24240
30 61178 20157
3 62224 21780
18 61679 36237
44 60675 30198
7 62107 19175
113 57965 13329
17 61727 13096
69 59692 22924
0 62374 34011
127 57402 14163
64 59866 21507
17 61728 27602
53 60317 12721
80 59253 18259
62 59978 28341
33523 17710 27254
13394 50624 41869
37122 29749 32017
37355 29847 43307
37721 30000 44317
37693 29989 36604
36541 29507 36361
37081 29732 18628
37456 29889 21929
33058 17912 4735
13314 46804 11299
32188 17924 23079
13384 39734 19805
13494 38360 36984
13376 39844 36558
13394 39623 32104
13476 38601 38139
34220 17588 48508
24043 25139 18937
23908 25128 20587
23755 25116 21702
22789 25038 23979
22964 25052 25455
23208 25072 18067
35551 29092 20992
35822 29206 15761
36392 29444 12927
36532 29503 7637
36535 29504 12415
36557 29513 20367
37092 29737 16901
36653 29553 11840
2783 44957 41551
8744 67067 14660
8560 67180 23856
9434 66643 18322
9162 66810 21971
8367 67298 34901
7635 67747 41298
8719 67082 19300
9346 66696 11143
7855 67612 17166
9671 66497 15984
32744 17835 25116
25610 20943 44460
20782 23283 10400
11139 693 25603
6540 36147 11851
25279 23411 44288
23991 16129 24022
12662 50431 42633
1499 48592 12357
960 50412 22697
1630 48145 14471
1188 49643 31313
1332 49157 28023
1254 49420 23685
1179 49673 22918
1041 50139 30953
1260 49398 19084
1745 47761 22946
762 64734 15643
416 63684 16539
797 64841 31364
767 64749 15096
714 64590 26941
294 63315 12737
852 65007 28413
24051 22525 9151
37569 18109 50625
32813 27708 5416
44844 18858 8258
44883 18872 7562
45891 19252 4391
45542 19120 10254
45936 19268 1732
44860 18864 13433
44503 18729 40474
44594 18764 2040
13561 37549 23545
13562 37525 18386
13519 38070 12824
13503 38269 24886
13563 37512 28467
16021 25034 41157
30243 22910 6032
13000 57949 26460
13163 56493 11037
12683 60785 17220
12800 59737 20949
12793 59806 18361
12839 59393 20142
13067 57354 30079
12823 59536 15655
13029 57683 28233
13217 56007 39311
13060 57415 18792
12782 59899 13155
12814 59615 13650
12876 59058 17413
7926 655 40971
10646 291 43422
8357 693 25395
24854 20824 44082
1594 49543 10761
31064 27054 18870
31295 27157 21393
30945 27001 17221
30813 26942 10197
30839 26954 19787
31753 27360 17078
32063 27498 7359
9729 40106 41876
11361 41830 42037
13104 27128 23516
12656 27636 30527
11981 28401 32858
13473 26711 23733
13125 27105 17991
12711 27574 22889
13152 27075 30386
12474 27841 39496
50883 25972 21984
50959 26704 44302
50940 26524 39172
50865 25804 24642
50775 24937 49207
50932 26439 10878
50916 26288 15037
50886 26001 18940
50828 25443 27978
50938 26502 23251
50847 25629 38852
15660 693 26845
7726 693 25876
17163 693 27992
12423 693 26923
12996 693 27058
11266 693 26822
6698 693 26657
30149 17895 26840
30001 17937 18059
30533 17784 36123
28584 18343 43032
30094 17910 30232
30101 17908 44196
29612 18048 32819
30088 17912 40080
4190 51095 42786
5207 51208 42793
11031 51075 42788
30891 18435 47043
19512 693 13177
29481 693 13787
38931 693 14407
24127 693 14184
39696 693 15607
17095 693 13425
30959 693 15217
35762 693 13847
8478 52737 10063
9621 53514 10018
10338 52661 10066
10598 53402 10024
3942 65559 9900
12759 56872 10302
43436 27516 52768
44582 23638 52832
10779 65466 10354
13394 45042 27236
13376 44417 33796
13390 44858 37871
13373 44250 33176
13421 45999 23273
13412 45679 18385
13386 44716 25375
30019 18272 26515
26467 17341 26193
27265 17732 23482
29617 18337 22418
12637 27658 12704
12081 28287 18745
11435 29019 27691
12121 28242 16347
12266 28077 17185
11948 28438 22832
11772 28638 30773
45198 24683 52910
7916 67544 42008
14698 32264 30866
14249 33556 23300
14262 33517 18312
14912 31647 38095
14145 33855 38947
537 53858 10819
12956 35415 11438
21926 693 46265
27130 19277 44763
13364 40621 20749
13354 41350 18835
13374 39955 20616
13369 40188 26182
13362 40783 18113
13337 42510 13358
858 51186 41764
27060 18825 35018
26831 18902 23358
27431 18700 21137
27742 18595 23551
27513 18672 14606
27272 18753 24091
26814 18908 29597
27355 18725 37542
6194 36352 12176
32046 26099 4911
7919 54324 9971
4341 53087 10039
3760 54161 9972
5420 54063 9982
5424 37794 30144
5320 38021 33700
6023 36494 28575
5686 37226 23418
6130 36261 18389
5132 38427 35258
37353 29335 2297
15260 25216 36102
14483 25864 30772
14686 25695 36200
15583 24946 21617
15121 25331 32367
13394 45046 23367
13418 45876 25806
13407 45472 21707
13412 45657 36549
13409 45563 38840
13353 43536 35373
13376 44399 30451
13397 45109 26515
12953 57409 10729
44155 18598 32000
44203 18617 38834
44353 18673 2570
44911 18883 22862
44385 18685 20332
44844 18858 30459
44784 18835 31021
44629 18777 35361
50676 24046 24041
50636 23955 35273
50622 23924 33906
50471 23578 29125
50602 23878 23395
50449 23527 10736
50454 23539 17736
50662 24014 40062
9409 33452 11396
363 56349 10478
38164 19223 51238
35576 23489 50119
46758 27060 52943
10764 29807 29798
10939 29599 18310
10711 29868 34587
10918 29624 31566
10556 30054 25045
10894 29652 37517
11089 29420 39099
11019 33211 41532
23202 10420 25102
8520 38883 41789
21981 693 46825
49919 24991 52887
27607 22119 7524
18113 419 46966
40071 22856 52060
36920 693 25608
14727 32180 23218
14566 32643 21646
15069 31194 24738
14395 33135 20502
15042 31274 29566
14974 31469 32743
15064 31211 20988
28189 25960 39454
28507 26076 14937
28083 25921 36074
28111 25931 42683
29564 26465 14576
28085 25921 35023
28066 25914 13206
28122 25935 21331
24667 15015 26055
39437 21610 1153
5575 38436 11616
34428 693 37861
24364 693 37881
38510 693 40527
27751 693 37314
23496 693 38974
29669 693 37871
40223 693 37588
30642 17534 22045
37450 27849 1867
37997 24009 1685
12416 55562 10017
10934 31623 41469
38461 23670 1498
38993 20620 1344
24704 14239 26134
29823 18304 31218
26017 25412 23363
25885 25380 20015
25369 25255 33144
26601 25553 21934
25433 25271 37447
26282 25476 11724
25625 25317 22792
6108 41664 10896
6236 41113 10947
3256 44727 41950
26145 25131 44094
43262 21933 52599
41919 23504 52457
42280 19928 52460
42277 23017 52494
27132 25682 9838
26218 25461 19144
25655 25324 29038
25619 25316 12191
25789 25357 9961
48627 27195 52943
25221 20488 44167
42698 26173 52617
23246 16760 25509
22265 16280 25765
39055 17716 9219
38743 17675 27314
38958 17703 20468
38943 17701 4411
38710 17671 36003
38838 17688 24635
43296 28555 52770
21867 6012 26423
39429 18775 51632
29031 18430 25812
32590 17471 24193
31848 17574 36097
32960 17419 27810
32620 17466 36337
32528 17479 44267
32674 17459 28256
32351 17504 29535
26692 22472 7969
6847 56493 9871
10769 61194 9894
10418 56410 9870
11356 58548 9881
11661 56628 9871
26270 17540 22481
38181 24744 51355
3969 693 19053
21731 693 19086
8023 693 16808
6364 693 20088
6584 693 17588
7158 693 16903
11331 693 17161
41020 693 20299
22443 693 19514
34636 540 44163
4694 39453 34230
4297 40492 38185
4210 40721 34213
4313 40451 36366
4608 39676 29498
3912 41503 40294
15172 30953 37642
15434 30452 40064
15702 29941 28980
15409 30501 36629
15426 30469 29879
49475 29590 766
2165 46341 14607
1291 49294 36749
1931 47131 27181
1380 48994 35494
2189 46260 27519
1160 49737 39339
2202 46214 33387
1660 48044 39005
1779 47644 38047
1890 47268 38431
2220 46150 34578
31960 17234 30889
38496 30304 31173
39102 30540 31130
39118 30546 34628
38543 30323 28650
39379 30648 14446
38921 30470 18643
164 55945 38616
147 56629 24665
156 56307 23303
169 55734 20198
127 57410 38574
155 56341 28570
20 61573 40436
169 55755 23930
57 60153 40966
143 56789 25414
175 55554 19705
119 57725 37719
109 58086 41137
23575 15925 24982
42305 693 28980
29240 693 31346
36557 693 29307
42949 693 30520
36171 693 31026
32371 693 30126
34539 693 30705
12779 693 29448
13709 693 29562
43559 693 30543
6738 66744 9937
12603 693 25744
8906 36416 11295
18040 693 13099
34863 693 13514
28159 693 13115
29836 693 14755
28581 693 13955
12866 31513 11500
9551 66572 32197
10241 66148 29520
9983 66306 26779
8951 66940 39152
10692 65871 39332
10769 65824 22406
10416 66041 31381
11103 65619 35860
10554 65956 40723
50836 27148 16919
50690 27534 24417
50845 27125 32349
50446 28178 22763
50923 26920 11294
50407 28282 15579
50841 27134 41084
50870 27058 27897
50484 28079 4596
50540 27930 18375
50104 29082 2274
12481 57991 42786
21867 11625 26323
10734 65845 11165
8412 67270 19775
9061 66872 12849
9198 66788 19357
9478 66616 19981
9474 66619 18970
7872 67602 24116
8017 67512 29593
22120 11820 25757
44010 31923 41434
43850 31924 21791
44146 31923 37400
44343 31922 20922
43975 31923 7759
44204 31922 24312
12413 36105 41629
12656 61031 17781
12682 60796 39654
13104 57011 38741
12673 60876 38419
12829 59478 29099
12783 59889 31561
12964 58273 30861
12711 60536 32562
12925 58618 32311
12821 59547 34108
12533 62126 27959
13027 57709 36325
12843 59355 35575
7135 35326 11837
1244 55338 43006
22575 5820 27827
26004 693 39159
25330 693 38508
29712 693 38767
27343 693 38387
22910 693 37677
22258 693 38221
17498 693 37315
24320 693 39242
37687 693 40019
19052 25009 11085
29581 693 33518
17465 693 33638
31753 693 35626
42285 693 34608
8788 693 33468
37928 693 36061
21306 693 34174
35709 693 35899
39376 693 33852
25124 693 33773
31247 693 11377
28286 693 10631
34825 693 9948
34171 693 10663
31530 17294 27978
30959 18121 23058
15921 693 12155
8614 693 12181
9319 693 11996
14421 693 10719
18892 693 12484
14614 693 11508
47546 31236 10278
47008 31541 20127
47321 31363 32280
47016 31536 17986
47704 31146 8348
23518 6715 25151
23465 12089 25133
37271 17518 5026
35842 17375 18056
36117 17403 22955
37254 17516 14660
35788 17370 34533
22498 4410 27802
45954 24175 52919
46105 25663 52912
12216 43425 10764
5726 42961 10780
16890 28089 21427
16646 28387 15530
17676 27131 36009
17676 27131 33387
17014 27938 13812
26883 25069 44665
19211 693 24627
43536 22779 276
43111 25345 276
6363 48971 10311
4449 47138 10455
6173 50460 10195
3205 48286 10367
40836 693 21716
32025 693 21149
43263 693 23492
34997 693 20377
41466 693 20750
43392 693 21932
33513 693 21608
39780 693 20545
17925 693 21273
31791 693 20577
2840 66826 12636
2685 66693 21400
1787 65932 17263
2465 66507 22145
1853 65988 16444
2402 66453 17581
2228 66306 22576
1568 65746 20747
1190 65426 32617
12244 62686 10800
24744 693 6445
47100 19933 48360
47733 20317 25136
46989 19866 33504
48019 20491 43868
47305 20058 36916
47356 20088 50744
47661 20274 30213
13632 36002 12179
9376 66454 42708
8779 64077 43043
7643 62933 43043
13340 43054 36213
13346 43262 36699
13362 43845 28250
13348 43361 20116
13337 42928 29490
13359 43755 19217
15795 29764 16293
16115 29153 16270
16263 28872 28903
311 63366 28637
390 63607 33454
108 62751 26851
182 62975 35416
399 63634 31912
223 63099 36487
710 64579 36852
3149 46282 42322
4012 49658 10259
4375 48382 10358
8343 49861 10240
17091 27591 40840
42833 31752 47117
43749 31913 20341
43718 31908 9637
43693 31904 10170
43454 31862 38183
49914 22300 44797
50390 23390 37429
50273 23123 31612
50432 23488 43200
50550 23758 51216
50220 23002 26794
50306 23198 44651
49907 22284 31677
27694 24821 7626
30097 574 7191
23403 15840 25831
31118 18096 26617
12329 40084 41824
1055 64197 10238
8133 51183 10150
3921 51573 10130
10168 51372 10138
11548 55318 9916
23537 14015 25157
13397 693 41365
18296 693 42033
12733 693 42441
20194 693 43126
21391 693 43432
30184 26175 46463
28880 18259 37339
28817 18276 35315
29656 18036 21932
28853 18266 33943
29623 18045 30478
30243 17868 43476
29822 17988 39501
30299 17852 25154
23544 7693 27974
8517 32578 15846
7317 34413 39819
8514 32582 26050
7571 34025 40121
6798 35207 36203
7659 33890 35003
8454 32674 24700
8636 32395 37402
8176 33099 23240
8102 33212 24714
19118 26059 17856
18196 26676 31403
18816 26261 25978
18922 26190 21789
17961 26833 18502
12649 270 44671
26077 19157 27930
27034 18834 9349
25676 19292 24388
25397 19386 29725
27076 18820 12305
25811 19246 14113
26687 18951 13199
28338 20871 45809
6894 600 13906
34413 17375 33399
35265 17363 43525
34787 17370 46940
34625 17373 41200
34206 17379 38053
34803 17370 39326
34460 17375 44497
34616 17373 42642
33648 17388 42679
11708 47087 42476
11379 47907 42544
46433 31684 48722
45952 31786 40434
46316 31709 39072
46939 31577 32815
46629 31643 11657
11294 46270 10534
7531 47738 10408
10472 49385 10277
5722 37877 41200
35054 26596 3099
1765 47693 36192
1759 47712 27274
2199 46222 23804
2118 46499 26543
1939 47103 36163
2063 46683 39027
1555 48399 40799
2024 46817 18855
1968 47006 37247
23383 25086 16209
22719 25033 14945
24501 25175 12895
23583 25102 17046
24361 25164 17980
48318 28701 0
5673 693 28153
15066 693 27580
9578 693 27837
8116 693 26827
7036 693 28044
31389 30 45960
21867 8339 26791
5903 36999 40829
12548 53844 10133
22772 9242 25242
37713 18636 50950
48973 30223 1633
49451 29805 4621
48584 30563 18732
48540 30601 7276
48845 30334 35589
48592 30556 20142
48533 30607 14222
48904 30283 22804
48778 30393 15910
26268 25473 41896
27150 25686 24385
27191 25696 35829
26282 25476 34143
27199 25698 33080
27781 25839 32627
25926 25390 40703
10406 31219 11716
24692 693 40954
15673 693 40819
22624 693 40971
36678 693 41069
32582 693 43157
23678 693 42258
7196 510 13490
47382 27514 0
3929 42631 11238
48365 20806 21473
48853 21266 51385
48533 20965 44718
48512 20945 15014
48311 20755 46277
48262 20709 10701
48566 20996 29023
48438 20875 31052
48099 20557 2569
7942 40122 11047
48122 30909 12076
47724 31135 39067
48024 30965 36823
48167 30884 32304
47691 31154 25165
48162 30886 16899
13381 48360 41669
46038 28894 52943
24231 14255 27678
618 64298 29764
514 63983 14995
434 63739 19528
208 63054 13300
820 64911 30309
3357 67263 24748
2582 66606 23841
3368 67273 40064
1892 66021 39794
3208 67137 33865
3073 67022 41044
2731 66732 32043
3425 67322 29326
19438 22266 23901
20915 21444 21071
19325 22329 15779
21013 21389 17550
20381 21741 19587
19346 22318 13079
20812 21501 13027
20188 21849 18829
9096 0 11546
3762 41897 16869
3828 41723 29819
4769 39252 13036
4013 41239 20345
4260 40587 12821
3827 41726 15212
3691 42082 23577
48037 20885 531
43020 18341 14076
42324 18184 7031
43122 18364 19827
42423 18207 12451
42198 18156 34879
42723 18274 20704
42914 18317 25717
21340 25234 38624
20747 25358 31317
20138 25486 38569
20720 25364 32727
21121 25280 27394
22320 25029 26723
21064 25292 28476
26667 18957 20103
25537 19339 21486
25661 19297 26351
26928 18869 11455
26450 19031 24097
25977 19190 25987
25483 20405 8647
478 63874 27986
258 63208 30063
38 62538 38917
486 63898 40806
69 62635 24611
59 62602 17800
42057 18133 25405
41149 18003 43125
42141 18145 15136
41943 18117 33009
41290 18023 41007
41149 18003 41722
41439 18044 31591
29158 693 6988
35928 28777 3059
14053 34242 27138
14092 34025 20946
4359 67561 38397
5734 67646 28140
6587 67699 41014
6634 67702 40171
6248 67678 32848
4491 67569 35713
4890 67594 38761
5073 67605 37901
5174 67612 37344
40044 17846 11510
39938 17832 50183
39532 17779 28195
39503 17775 29281
39598 17787 41417
39269 17744 43490
40049 30902 50449
40603 31112 13843
40698 31148 42938
40102 30922 45599
40475 31063 35205
40768 31174 10225
29616 17601 28923
13184 29741 41391
16346 27628 41373
31819 17579 8127
31897 17568 8959
30785 17723 11682
31920 17564 9928
31199 17665 30946
44 60645 21737
75 59402 26007
95 58647 13883
33 61086 32126
23 61501 17860
85 59069 21578
130 57289 17852
22 61506 15653
118 57767 20377
69 59649 12167
84 59099 12734
9 62013 15791
85 59046 15834
53 60304 15723
35 60995 32839
20083 693 8059
23334 693 8522
21198 693 7829
20687 693 28730
14368 693 28646
19411 693 28700
41969 22170 494
42916 20429 402
11081 43368 42177
11203 45251 42329
26825 17517 31021
32992 27912 22812
32767 27812 34870
31974 27459 36443
32050 27493 37051
32777 27816 46893
32673 27770 43822
32981 27907 44562
31022 27035 43171
36457 28260 50542
10477 30147 13784
9007 31889 17161
9509 31295 16370
10076 30622 25506
8951 31956 19095
8907 32008 24045
10544 30066 19272
9654 31121 13431
10371 30272 22064
22955 3518 27950
12714 53015 10232
36975 17488 36549
37755 17566 37125
35876 17379 45138
37161 17507 27977
36853 17476 35533
37264 17517 35171
36334 17425 38544
37849 17575 29003
38053 17596 44987
4417 40453 41079
22977 693 16041
14829 693 13680
36514 693 16098
13038 693 14977
9857 693 15843
8047 693 13428
36006 693 15796
6858 693 16259
15571 693 14491
19464 693 16045
32077 25414 4896
32758 20427 4500
8952 40796 41955
14572 31292 11912
39902 693 25130
22042 5038 25865
25040 16642 24174
7837 45638 10578
5822 45995 10548
164 58339 42097
18032 23189 32826
18623 22782 40116
18483 22878 40586
18914 22581 18736
16573 24194 39982
18583 22809 36007
18861 22618 32425
18495 22870 26315
6912 64915 9900
7626 66037 9900
7611 55085 43019
2920 51360 42801
5628 55859 43071
35021 27934 3266
12893 693 16738
40293 693 19215
35616 693 17816
37232 693 19152
13690 693 16543
28526 693 17693
30704 693 16862
24105 693 17720
27695 693 18293
23796 10860 25241
22205 13322 25640
25870 693 46056
27898 693 47064
21702 21942 42749
10543 63084 43043
43386 18481 1378
4977 46269 10524
9849 46280 10531
11446 47012 10473
32281 693 24807
26752 18929 25867
26545 18999 32764
27537 18664 28297
26535 19002 40199
26275 19090 37512
27466 18688 17205
26536 19002 38531
27244 18763 29965
28808 26187 32491
28016 25896 16117
28106 25929 31205
28748 26165 28522
28041 25905 41750
29704 26517 7871
28073 25917 34036
45263 23576 52909
39207 29049 51896
39666 24855 51977
12608 60241 10686
40867 20643 747
40510 693 16301
6631 693 14818
7312 693 15510
10534 693 14887
7874 693 15589
21292 693 16310
18514 693 14018
29206 693 16075
20422 693 15022
12202 36500 11299
11186 35157 11342
34435 28221 4025
24364 9289 25637
42815 28400 52706
44567 21205 52772
2588 691 29671
10886 32275 11447
40367 693 33450
33636 693 34172
37943 693 35337
15843 693 33888
15051 693 33915
13819 693 33882
23073 693 34605
23994 693 33399
17119 25877 11263
24554 21417 8940
37070 20708 2180
36332 19393 2518
19667 23011 42029
12062 28309 35492
12502 27810 31394
12595 27706 27612
12837 27431 28553
36656 693 22683
24191 693 20359
22697 693 20579
27881 693 21323
32815 693 23028
21901 693 21447
40689 693 23913
42678 693 24110
34351 693 20405
31659 693 23250
14603 26026 40887
3620 52083 10099
22657 20540 33308
22860 20453 31392
22581 20572 12195
22441 20632 27027
24028 19955 13400
6938 35295 40909
26114 18165 25339
25762 17993 23818
29839 26455 45690
48559 24538 52943
3842 65801 43043
42646 27634 52653
13569 28361 11530
11269 65257 25293
11733 64148 39597
12179 63078 34566
11883 63786 33273
11519 64656 38877
11333 65104 39434
11419 64896 29259
11681 64272 34143
28784 20443 6881
15669 28196 11565
2377 45673 12013
2401 45607 28595
2828 44436 24554
2373 45686 22999
2326 45813 26512
2635 44967 20294
2314 45846 31722
14834 344 45901
11586 39015 41781
32573 17863 23843
21863 15526 28513
20811 693 44321
23966 693 44763
15908 693 44142
11848 693 43719
30641 22523 47144
28718 24339 46019
28630 17758 24326
25262 17371 30254
32503 17874 25966
12750 30588 41406
21951 8944 27143
48995 21870 501
5860 64498 43043
18459 25649 41659
48741 30425 21362
49171 30049 15728
49172 30049 6478
48749 30418 33612
48821 30355 19732
48509 30628 10252
48547 30595 24249
542 53091 29391
691 52095 40086
689 52108 36094
239 55105 41429
750 51699 33961
780 51498 32364
725 51871 34645
922 50562 27674
916 50598 26609
918 50591 35910
24534 20789 9044
23642 3734 27942
16345 25180 11492
29962 21886 46736
27603 18659 22403
10779 41285 10956
9848 39942 11085
49280 29955 51018
49633 29646 49329
49331 29910 33474
49800 29500 46901
49682 29603 21377
49591 29682 50657
49253 29977 34233
49239 29990 46966
12238 28108 26377
11389 29070 13886
12145 28214 22156
11383 29078 35003
12891 27370 15336
23584 24704 9873
30473 41 7313
31802 17986 29403
38960 30485 36209
38526 30316 42391
38912 30466 21467
39329 30628 12219
38960 30485 44084
38888 30457 32642
14120 33716 12365
15022 31331 28778
14698 32262 19484
14682 32309 25011
14717 32208 18707
14825 31896 17629
49508 27368 52943
18426 693 35988
6567 693 35451
18134 693 36400
12591 693 35850
13147 693 36409
20606 693 37119
15949 693 37036
5379 693 36603
31747 17259 29901
20131 21880 33320
21079 21353 24422
22116 20775 40712
20561 21641 30045
20081 21908 36014
20189 21848 34847
21432 21156 35895
711 64390 42052
41563 693 25624
23943 693 28006
34932 693 27978
37446 693 26047
42701 693 25500
42637 693 27406
39581 693 25689
42342 19063 52307
13687 36277 36134
13732 36028 30156
13743 35966 31068
13870 35261 33504
13696 36228 24789
13781 35757 35571
40203 25841 52128
42742 18279 16530
42287 18176 35966
42978 18332 22622
42326 18185 8940
43552 18461 4012
43322 18409 3038
36071 26057 2582
33535 23269 4027
4375 42919 10875
30599 26847 18055
31371 27191 14353
31115 27076 31333
32425 27659 14689
31699 27336 25740
31018 27034 33426
31645 27312 15510
8732 33374 41292
13294 54440 19911
13349 53310 35707
13309 54133 28649
13394 52368 34318
13225 55859 20852
13436 51511 36554
13321 53872 25045
13312 54057 35780
13294 54418 28101
13301 54296 31385
13306 54195 41671
6136 288 14949
22440 20632 39139
24487 19760 30934
24581 19720 19786
24982 19549 35447
24034 19953 28466
23093 20354 32432
23117 20344 39606
24932 19571 18837
45926 27092 24
13430 46499 16762
13433 46689 37122
13425 46163 18658
13471 49212 13447
13458 48370 19276
13447 47638 15584
13472 49272 16671
13438 46999 32161
43391 75 21884
30889 21403 47289
13436 32360 11477
13529 26784 12375
25249 23610 8668
3341 512 20356
13451 27300 40986
46460 26475 52936
2929 693 29291
18581 693 33019
12718 693 31875
6118 693 32302
36353 693 33238
12893 693 32669
6910 693 31964
5495 693 33193
22732 693 32924
41196 693 33157
26725 19348 8428
29938 26603 43480
28767 26172 43505
28861 26207 33662
29281 26361 28642
30045 26642 27170
44361 31922 49707
45176 31919 49956
44850 31920 43348
44816 31920 30129
45058 25350 38
