ply
format ascii 1.0
element vertex 2829
property float x
property float y
property float z
end_header
42905 32608 3150
23674 28122 2682
28806 28158 2618
17408 45175 38486
22746 28538 54996
17995 41812 34405
51786 23466 9609
12959 16394 6882
12852 17880 4214
25089 11356 6475
18295 43393 24950
42972 24366 48809
42972 30952 51272
17851 18670 50377
43607 17330 7037
1077 48655 45426
1184 48441 36310
43537 10885 6694
18467 42902 17335
43255 25111 11127
45379 13595 53811
38841 23576 42187
34968 24234 38953
43170 23026 44889
41783 23487 42625
5386 50501 6754
15878 20195 45616
43556 18960 50803
4848 57131 50718
38945 27696 3435
43028 31337 54022
16773 36319 2020
13030 13377 52455
15164 23875 45616
12936 24211 45616
43607 17527 51992
15307 48528 41992
56405 19860 16246
17363 37009 53539
16803 44779 27762
3358 46684 16597
2934 46874 21422
56974 17462 17649
56921 14431 17012
33220 23016 12231
35831 22894 11630
33887 24053 17324
30766 23505 14630
29418 23493 14572
22637 36237 8016
22294 30366 670
29022 29457 1260
14160 4664 51400
21541 35701 12599
15620 6707 52067
37374 18943 9159
36304 16435 9159
39519 11984 9159
40735 18567 9159
30443 16737 9159
35211 15643 9159
37323 15643 9159
40587 15189 9159
42079 15208 9159
50942 4924 7005
56546 21186 23647
33852 24371 27141
37374 24466 32726
33791 24369 35083
36360 24438 31895
25702 33074 0
24673 33259 2
42819 24416 20910
44065 24413 20796
39148 24385 19644
31858 32419 57172
35265 32685 57169
16785 46108 44692
25395 26551 44133
25501 26309 40253
25817 25590 39959
14298 40392 50301
11038 39808 50373
7334 42076 50134
28443 10050 31183
24689 10050 43268
31083 10050 11415
24399 10050 44486
25409 10050 29357
26326 10050 37416
34410 10050 17574
32710 10050 14144
28611 10050 20035
24695 10050 16609
24617 10050 38296
35575 10050 15323
34414 10050 12289
40226 10050 10652
29932 10050 31722
25574 10050 19789
25856 10050 30312
26764 10050 34731
26403 10050 26888
27736 10050 35228
33247 10050 10641
31421 10050 29719
23651 10050 16409
28637 10050 29938
24258 10050 14318
31045 10050 18773
34313 10050 23615
30970 10050 17578
32804 10050 20301
32164 10050 27260
23286 31357 30697
12680 20276 10683
12788 18778 7816
14335 35168 48123
38662 30992 379
26002 31939 53
24251 10050 25759
23983 10050 22709
18875 10050 25556
19122 10050 23672
21778 10050 16600
18910 10050 27270
17589 10050 28495
21274 10050 22200
21970 10050 28343
22826 10050 28137
22551 10050 17672
5483 46131 42373
11165 32967 51336
42782 30599 11031
495 49810 16583
443 49915 20324
14692 7422 52109
12450 55304 23252
40210 34258 10084
2494 49755 6420
10270 32317 13132
10673 31130 12345
8911 36319 26218
9374 34956 28313
9291 35198 22517
9042 35933 18143
10883 30511 9093
8697 36949 17058
10722 30984 28051
10117 32765 23251
9629 34204 20745
9400 34879 15461
10530 31551 14919
7738 39772 20537
10954 30303 10009
10305 32214 19951
18328 21658 3515
19098 21817 3515
18853 21303 3515
16142 19447 3515
25705 23452 3515
15394 18665 3515
11469 33114 10432
53861 22924 10468
16357 36942 53534
6774 54013 50081
31093 19927 3515
35437 18195 3515
27744 17405 3515
35685 23636 3515
39198 20469 3515
27732 15453 3515
27256 19495 3515
34366 22344 3515
35594 21741 3515
34216 23131 3515
40766 14712 3515
42678 20125 3515
38075 19845 3515
38286 21659 3515
30863 15737 3515
36634 19248 3515
41960 24251 3515
40969 21718 3515
28424 20533 3515
19008 14550 3515
40572 15633 3515
22346 14998 3515
54647 22781 42564
12934 16750 9254
16200 46161 35673
12599 20782 51813
49074 5487 51001
11257 51378 50746
11585 52520 50746
43607 35228 6104
42575 21408 46785
42972 31548 52965
24190 29296 23391
24781 27951 23008
23063 31865 24727
43159 27693 7542
21969 34938 13515
16713 3072 6300
29564 25156 45670
18779 25183 45673
26759 25388 45688
11775 35671 54633
12060 26362 46474
11764 27418 33087
12020 26503 31594
11924 26849 36087
15809 48398 47881
17918 43590 47620
18196 42957 46876
48899 24365 22498
38863 23364 43227
40356 22927 45372
32322 23263 43721
29718 23439 42857
36926 22937 45325
2671 47426 7076
43380 24874 4664
25241 31333 262
22345 31402 238
15416 9875 8349
22349 31843 10955
35003 30941 11052
43799 10050 32116
12949 54585 18082
30488 33667 10392
38044 33490 10467
35568 34672 47418
33112 35349 47969
25930 21148 3515
23567 20390 3515
34941 25539 3515
27466 22791 3515
32256 23803 3515
32335 24506 3515
22269 37063 51059
35380 36552 49649
13842 2256 49768
17322 5923 7417
53533 23138 44450
53117 23418 41504
12805 54802 44279
9816 57632 36717
9068 58077 35046
10008 57518 34256
47983 6664 48801
13030 12059 11314
18870 28634 2123
53698 23333 38950
22612 30547 6469
48730 22849 5501
32957 21989 10776
32633 22472 11103
11987 30118 46049
23751 30797 46100
21336 28983 45962
31135 30613 46086
24424 29571 46007
43607 34362 7082
43182 16955 53330
38301 37032 54090
36732 37102 53825
28895 37177 5398
29389 37205 5082
9796 53116 50554
57395 14867 32719
57369 15783 34075
43607 34474 55023
10518 57215 41290
11311 56743 39989
11051 56898 36190
14038 52432 12994
13776 53029 15612
49648 24365 22229
51540 24278 27860
12889 54633 40742
32348 10410 3515
15337 14812 3515
27357 11944 3515
17205 12225 3515
15254 11794 3515
16537 12715 3515
20885 10558 3515
57325 15703 21837
57139 15377 19616
41039 34472 47256
29279 35443 48045
17255 6801 5093
43553 12863 50773
12436 21768 7155
12409 21933 47240
12223 23056 48018
54901 10050 15524
54457 10050 17784
42558 19269 47041
18329 42922 16553
48445 4451 9583
12324 55482 37476
21005 36097 34123
54060 10050 8879
53834 10050 9737
12172 34449 6836
36452 28836 1854
34016 28587 2119
52309 19462 4485
39355 32958 10690
40539 33143 10612
25625 33798 46829
34883 33215 46584
10191 57409 9704
9933 57563 8072
2269 54456 6420
57195 19192 27720
15820 10050 28619
21633 10050 40284
18806 10050 29601
21820 10050 33613
24800 10050 35849
25036 10050 40530
18384 10050 30934
19132 10050 30760
23423 10050 34814
22991 10050 37050
19809 10050 38481
4858 54570 6478
20948 11728 6420
17031 44644 35014
17820 21111 11550
14845 16912 11550
21934 28221 2509
11935 28861 54863
43607 31688 10146
48163 6366 50020
43091 33705 4883
15237 49086 18817
17392 45744 40654
17121 46749 32288
18821 39797 16375
43537 19697 6607
8080 50979 6754
20274 15743 6754
57094 19271 23576
15774 10050 42957
20051 10050 43547
16030 10050 42347
14468 10050 31228
14556 10050 45654
20066 10050 44368
18462 10050 49743
18306 10050 41053
20311 10050 46200
16529 10050 44373
18198 10050 47573
14664 10050 34222
17 52461 23184
179 53364 13765
26015 23083 9246
26015 15953 10812
26015 13720 11092
26015 24400 12848
26015 16269 9837
26015 21856 18997
26015 23069 12716
26015 20909 17072
26015 15838 14981
26015 11566 7383
26015 19185 15782
26015 19448 8496
26015 15177 10524
20254 38267 49505
17866 43708 49377
54950 21968 44664
54892 13374 6468
23627 21873 41805
24276 22755 16752
42972 32302 50722
27207 35721 48418
30504 35836 48580
23019 30133 21169
18461 41332 16119
15670 6685 49004
48561 6942 48261
42729 10050 36127
51347 8331 48755
17249 24822 6754
46729 18747 53867
44538 10050 31287
44271 10050 13386
26015 15130 26154
26015 14626 22121
26015 13853 17234
26015 16669 28351
26015 13163 20128
26015 14840 18060
26015 11542 13958
26015 18449 20323
26015 16498 18786
26015 10520 27591
26015 15562 24318
26015 23439 26870
26015 10060 14029
26015 11881 21778
45521 21393 4425
30723 15723 9159
22468 12462 9159
35970 11677 9159
24055 15620 9159
33898 11475 9159
20495 15043 9159
23926 13165 9159
26256 13422 9159
27330 13083 9159
30315 14425 9159
43537 20225 50282
43537 18087 50050
21167 34815 9631
42972 27164 4961
23090 22793 50746
12645 55027 28305
47751 5676 7442
18120 28882 50412
13501 36980 50412
14435 37853 50412
16706 28568 50412
18404 33516 50318
22464 24429 50391
15558 11358 50746
14407 1454 49310
32070 29934 56216
14004 17563 45616
13167 19621 45616
11165 27822 50817
13284 14283 24497
13284 14936 26976
13284 14024 23277
13284 14868 16526
13284 15758 11256
13284 13743 18421
17043 15258 7068
8520 44648 6950
11165 34153 6887
54020 23357 23071
8350 44070 50620
4833 46172 36134
41757 16789 46872
31737 13020 46872
25383 11309 46872
39741 11844 46872
40877 14325 46872
40637 10396 46872
40762 19762 46872
41980 13529 46872
42212 15172 46872
41930 20448 46872
19504 32830 31
9809 50923 6975
40702 34776 407
36608 35592 801
36855 26230 53651
19636 24267 53651
26655 23950 53651
15709 23108 53651
14632 23299 53651
24341 24930 53651
10108 55391 6420
13547 26814 53651
23191 13315 21520
23191 10515 39374
23191 17980 16742
23191 13977 26755
23191 11338 40749
23191 11926 10909
23191 13275 16762
23191 15070 11093
23191 19825 12159
23191 11598 38931
23191 11283 33455
23191 15158 14850
23191 10291 34009
23191 17057 14246
23191 15195 16030
23191 10887 30248
23191 13635 15169
14440 6084 8127
14609 9654 48830
22578 23564 6705
43651 10050 46139
16575 45244 13463
24109 16299 50746
3768 46500 22581
4159 46325 14957
26375 20745 47779
8357 40690 6525
15102 517 7801
11165 29342 10719
17433 44696 10282
18278 42769 9722
16152 47616 11206
43607 16429 52078
25769 25801 11446
22058 26534 11390
22164 25825 11444
49301 10050 50246
42469 24501 29538
42460 24501 30819
43325 28710 52446
46423 24446 26204
47246 24413 25167
47359 24434 26909
4454 58062 10229
3273 57641 15483
57402 13393 32365
57409 14945 31999
23778 25106 11499
25228 25917 11438
37315 24859 11518
11578 28087 22346
11684 27708 23172
11706 27629 25659
11918 26869 20224
49096 461 48312
43202 18613 7490
12198 33369 10330
9914 33365 27629
9850 33553 25110
10774 30831 26407
8352 37965 19399
8215 38368 26293
8641 37113 26152
10143 32691 14341
6926 42160 23870
8211 38380 24013
10832 30663 20598
7474 40551 24601
5719 45715 28130
10921 30400 18906
8924 36279 16004
43015 20516 8213
30878 34696 369
24435 34679 361
16672 29932 1134
39017 17580 48007
33420 16793 48007
39852 13307 48007
40050 18101 48007
36346 16017 48007
37346 17084 48007
36207 18917 48007
31872 16272 48007
38788 13150 48007
34994 13883 48007
28589 18449 48007
11165 27706 53519
43172 19302 48321
44765 23202 11555
11165 35114 53150
35539 34818 9629
36864 34906 9557
43607 30160 9511
52563 10050 5711
51988 10050 24311
52427 10050 15241
52258 10050 14614
19004 40285 46980
19511 39960 8979
16205 47493 9364
14310 51809 9473
28943 27679 53700
37929 17430 48007
40054 19148 48007
40035 17524 48007
37361 14488 48007
40416 19726 48007
34197 18960 48007
36926 18020 48007
37857 15015 48007
41265 16447 48007
33801 15650 48007
14215 7572 5989
13710 36673 53166
21188 23416 6795
49204 1986 7704
17744 20682 6754
23061 21262 46902
55652 22196 36850
44941 23828 41212
49296 23530 48772
12914 31195 56079
9834 34350 50020
22594 32981 28741
53130 16221 4469
25044 27350 19145
29206 23263 11372
13812 25114 53651
16445 25551 53651
18597 26576 53651
25571 26465 53651
22818 31811 45224
13284 15930 19492
13284 14092 18810
13284 15682 26591
13284 12381 23614
13284 13047 20907
13284 12616 27607
13739 52408 38529
24650 28249 24971
24566 28440 25499
19204 28696 11226
19728 29214 11186
15531 28616 11232
33496 30484 11089
8369 57495 50490
22648 32810 9831
23466 30948 10154
24421 28771 11204
22897 32243 11113
54337 17979 51437
47642 13816 3146
51450 22935 6435
52901 10931 5140
14215 7298 50003
19888 30960 50689
39736 29187 45978
37121 28118 45896
17617 27658 45861
34307 26691 45788
19088 27819 45874
31651 28128 45897
38056 27803 45872
34551 27206 45827
50132 7112 48017
31618 21794 10703
46942 23716 45875
57043 13150 18471
22583 33016 43880
41415 24491 33247
18988 33662 57079
6428 43628 40373
6485 43463 43247
6623 43056 46413
6161 44415 37340
8420 37761 48764
6863 42348 42774
10272 32310 48463
6896 42249 49591
6368 43805 39524
5985 44935 49054
8285 38162 44112
8134 38605 41671
8359 37945 47047
6238 44190 34964
9624 34218 48745
8145 38575 48258
15592 35887 48992
25142 14625 6527
27155 34357 47163
13352 53997 47835
39739 30940 46114
6230 58478 27818
6118 58490 16866
6258 58476 14950
48796 24365 23590
43632 19304 51616
15969 36982 52513
43517 34454 4356
13284 14138 43769
13284 10900 35742
13284 11840 41050
13284 10430 38263
13284 12707 41063
13284 11416 44128
19105 39093 40591
18098 29439 55803
34989 31695 46195
55521 20440 11200
11246 54769 50746
37577 10050 7181
28818 10050 7259
40232 10050 6125
42068 10050 8567
23530 10050 8570
32723 10050 8148
11969 36289 4697
116 53014 32008
266 53854 40687
45806 23158 9864
43051 30694 46326
14667 23093 50746
3664 49332 50746
14614 51119 21997
21167 36728 44725
9792 33724 38357
8069 38797 38318
10140 32698 31263
9694 34011 40485
8975 36127 33861
10139 32701 29316
10601 31341 44830
8716 36892 39902
8483 37580 37662
8101 38701 29176
9962 33225 45724
8144 38575 30874
9698 34001 30371
9279 35234 29392
14782 27163 50351
1389 56178 16523
1515 56291 18273
45910 10050 12958
45911 10050 20864
47007 10050 38865
46336 10050 34491
45971 10050 15256
46003 10050 16057
46282 10050 40333
16323 10060 7371
37277 36687 55058
21480 36740 54994
7986 45909 6878
7967 39096 19171
9287 35211 8483
8902 36343 10792
9610 34260 12459
6901 42236 19389
7901 39290 14637
7112 41616 12570
6298 44012 16940
6726 42750 22973
5986 44929 12976
6618 43068 12693
6277 44075 25697
5934 45084 15815
9278 35239 10750
7669 39975 10463
43607 35433 4082
961 55447 39187
1292 56049 29970
20030 10050 42292
16567 10050 45677
19201 10050 48354
13494 10050 32748
19063 10050 42128
15307 10050 45334
19667 10050 43206
17794 10050 42791
17339 10050 46285
17547 10050 43906
21550 10050 49490
21242 10050 44728
39362 36895 50594
35395 36798 50328
26015 19234 30131
26015 13012 35547
26015 23377 29603
26015 13695 38205
26015 11215 34726
26015 15832 34862
26015 21510 30272
26015 13621 39091
26015 13793 29587
26015 11969 46591
26015 20609 29334
26015 14857 33324
26015 18051 33655
26015 21723 32511
57410 16025 25229
57389 14785 24120
14014 14192 50499
10911 33972 50746
18907 39763 18304
50134 5887 50334
45965 24169 16930
17804 42383 45136
16744 36585 54818
57243 18677 34702
25108 27204 37195
40359 24106 45668
13669 31475 50001
38672 16003 53651
40078 21305 53651
25466 18556 53651
20547 14988 53651
15690 16175 53651
32848 11917 53651
40784 21569 53651
32808 13325 53651
22152 15032 53651
41460 23236 53651
19976 14421 53651
15791 15046 53651
39692 12977 53651
40536 16385 53651
35864 23296 53651
35885 16505 53651
34660 16475 53651
21325 15532 53651
34255 14405 53651
38156 11124 53651
31560 18013 53651
41500 17798 53651
25554 26189 14557
25776 25683 17422
25983 25211 16546
11165 33773 53018
44525 17701 3775
16055 22491 11550
6131 58488 20334
6477 58454 26390
6398 58462 21804
19697 30431 636
43537 16298 50050
19208 26568 45778
16269 25970 45733
49016 1872 49290
6196 44310 43236
5585 46112 41017
5861 45297 35399
6460 43537 36908
5614 46026 31690
7346 40927 41008
7278 41127 39137
6371 43798 33484
8804 36632 46560
6971 42029 41448
8460 37646 46521
7006 41926 37025
5716 45724 46100
5994 44907 39800
56393 16986 12917
56020 15031 10421
6271 58474 49661
8819 58222 37287
7811 58322 46119
14553 50307 42186
47366 8427 50152
43607 13816 5943
9883 48143 6754
19541 10050 11473
17024 10050 7875
19977 10050 8339
19166 10050 9183
14226 10050 18247
24213 10050 9590
15400 10050 10583
17268 10050 12886
14861 10050 15804
13815 10050 8187
18017 10050 12321
11703 36150 5894
19004 40181 15636
55453 18610 48995
16089 47756 49638
19639 39228 15845
12245 55593 44667
56231 18335 45228
19161 36698 6987
18681 35391 48050
34080 33285 2
27942 33729 7
13905 18687 50523
56318 20961 19042
56604 20028 19210
11874 24911 52856
54846 23084 28426
46643 19631 3587
11165 31250 7378
4715 46179 29618
48122 18046 54020
27657 36743 2177
32700 36333 1676
55923 11751 45501
43607 34945 50187
11669 25702 10047
21652 37131 53714
26316 37037 54073
42972 30396 7470
22649 32171 13726
22184 33869 25616
750 55060 40566
1001 55520 46949
53572 23544 29548
43607 30943 54560
798 55147 38369
43146 18473 8500
11275 27224 52067
43537 12700 48549
17072 27141 45822
40841 24994 45658
22980 26987 45810
29323 28773 45946
30224 25844 45723
40981 30574 46083
24263 28650 45937
37256 28859 45953
41913 26555 45777
8969 54959 50746
55104 20128 8615
33900 24353 18796
43296 24196 18025
41931 23219 13227
43170 23382 14029
13282 33564 10293
6826 52057 6754
42596 16648 10074
16898 18685 53651
15455 20156 53651
20224 21316 53651
23388 22718 53651
26214 22465 53651
29046 23348 53651
32529 25008 53651
55214 21189 10591
50491 17737 3346
57377 13590 23519
56517 10050 30193
23042 30303 28245
17050 31688 56791
20532 38159 11732
3253 51201 6420
54826 10050 47392
11165 31928 55130
48924 6871 47775
20738 38477 13163
43491 29148 46507
17677 42589 37508
17321 34269 50132
12404 45437 50138
51539 24276 31524
12374 26236 11413
16186 34979 9353
25211 28126 54490
56454 10313 36405
56228 17065 45354
11165 32285 49887
11806 56215 34426
40356 36988 6313
25931 36994 6296
20508 18534 6754
42920 32624 140
17980 41725 26733
56595 21112 31980
36454 24441 23249
34496 24388 20248
1568 56339 33878
1695 56453 38130
12041 39617 50412
18477 30415 6834
18636 31439 7062
57454 15570 29618
311 50176 23056
556 49690 23242
37607 24375 37899
42745 24489 33334
53720 16529 5006
49184 655 47842
39817 14454 46872
30944 12578 46872
41640 19203 46872
35196 15128 46872
33414 10158 46872
39814 16566 46872
37778 16565 46872
28643 23227 13264
36065 23469 14452
28770 23057 12431
34394 23498 14598
32739 24177 17933
29011 22903 11675
55638 20747 44533
53886 14603 51965
11165 28441 4505
43607 31284 47555
12379 55404 8520
21051 10763 53651
21242 12234 53651
14002 12322 53651
28820 10485 53651
14825 13843 53651
29379 10365 53651
21561 11426 53651
8914 53217 50031
7100 58392 35428
7518 58351 28590
6814 58421 33329
55929 10050 32677
15773 31617 10976
13194 36552 52668
24633 23592 11422
11454 34557 9237
17585 36231 6468
37942 24481 24346
22638 14665 6637
14072 50916 10803
57459 17355 29330
11742 25419 4696
11847 25014 4039
19592 34582 6420
21419 28844 6420
16843 39775 6420
28828 37243 3876
34991 37231 3830
12512 24107 42398
12362 25009 35634
12406 24752 39653
12697 22977 46496
27433 21196 47013
24527 20908 47502
15027 50179 8290
15395 49338 7997
20106 39334 12565
55820 22249 32764
52196 23733 41473
17438 10050 10728
1621 56387 35071
45836 23595 44118
51849 15063 3728
15524 49442 39503
16130 3662 5277
14215 7273 5194
12935 54618 25754
235 50556 41658
258 50395 32688
15562 28423 6854
13030 14915 47950
13030 13088 47430
38141 36006 1278
34190 35892 1139
4449 54995 50746
20354 15566 11550
18198 10071 11550
17664 17236 11550
15272 13178 11550
18546 12821 11550
11075 29887 33985
11836 27163 43183
12094 26239 48332
11078 29874 48249
13037 20773 8840
13034 20827 21845
13170 18321 25080
13117 19312 19604
43607 33442 55471
9061 58081 41220
10690 57112 30164
1088 48632 23390
466 49870 10060
25999 36031 1308
29264 36329 1672
21988 22538 50041
43392 31375 46627
57139 19160 24279
50369 10549 53016
43607 15003 4509
17428 7618 50115
46646 17944 54020
23526 11032 53651
16750 13485 53651
19821 13662 53651
16011 13475 53651
20644 11937 53651
33990 10935 53651
18025 13508 53651
27546 27923 3033
8595 52738 6675
23210 21278 50746
17249 11987 6420
14215 7812 8028
8128 39506 50061
15377 48012 12715
23832 35151 56578
26124 34161 57055
2721 57378 20014
1699 56456 7965
47922 23564 9314
12578 54986 10223
49088 21028 4042
17652 33145 50192
22362 32704 12822
17556 34220 7114
19984 29100 7182
43545 10050 20798
15090 33339 453
9929 57565 49164
11178 56822 45045
10571 57183 40357
46700 11228 53504
32803 16025 9159
33829 19376 9159
38563 17343 9159
32737 17049 9159
42111 10868 9159
40914 19694 9159
38814 15547 9159
28493 17281 9159
41543 14467 9159
21244 21312 6818
16064 46311 20771
56143 10856 41883
25476 21774 50313
36526 36406 49390
37821 36089 48940
13030 11160 5128
13030 11183 9395
21971 33168 26695
56896 19981 33289
16515 5162 51977
29764 21451 10410
23059 22402 11056
44048 14390 52691
23666 21926 18061
24013 22398 12805
23322 21458 25056
19145 10050 46299
57105 15130 37957
12639 55036 25584
31321 23994 34685
30205 23815 28459
24876 22962 40641
25880 23123 18134
25728 23099 42185
26876 23282 26330
24384 22884 23926
25959 23136 21855
25020 22986 38779
28223 23498 38009
28549 23550 39009
26776 23266 39081
29270 23666 40643
25104 27214 34542
56904 11992 19128
17895 27430 3515
29214 27009 3515
22012 26043 3515
34701 27367 3515
49915 4038 48068
13021 15545 48712
40627 30166 800
30505 30567 540
15356 48321 34566
16780 16350 6772
43607 13960 52836
52220 23700 14987
50969 24193 15569
17996 32166 164
30433 23851 25813
28838 23596 18181
25681 23091 15252
29173 23650 21825
27248 23342 18861
25471 23058 14072
28538 23548 21388
29333 23676 19469
48888 24365 15324
48566 7363 50827
22181 36697 7117
13685 31351 904
19272 24436 45616
13740 29856 55704
53613 18656 5079
13272 16439 24054
13182 18106 9849
13062 20319 10126
13177 18200 19752
13152 18656 12640
11602 56504 11500
18868 41425 35011
8797 56107 6420
837 55219 24189
929 55389 21996
15899 10071 6576
15702 36675 2835
52258 23661 42894
13284 11857 48629
13284 13433 42277
13284 13052 40451
13284 14463 45237
13284 11415 39664
31855 30926 11053
43537 11935 49303
17050 28457 45922
12481 28217 45904
14032 28494 45925
17538 28556 45930
12491 29847 46028
2442 47201 37332
2442 47202 31795
42974 21997 3696
21555 13325 50746
26015 23166 44359
26015 24179 32908
26015 19183 49679
26015 21998 35583
26015 15551 43085
26015 16608 47882
26015 22123 45694
26015 15790 47157
26015 24890 32962
26015 16353 43299
26015 19667 39943
26015 13283 47034
26015 23859 47116
26015 21448 42630
15684 4975 8062
18411 20070 45616
20056 12099 45616
18790 10219 45616
17370 17070 45616
50887 10050 25994
50391 10050 29051
50101 10050 19527
51065 10050 10105
50527 10050 16961
14355 7850 5031
15182 48257 29913
11377 30064 1745
16725 10328 11550
15548 11036 11550
20019 12328 11550
20158 17404 11550
55345 15931 7617
15017 20910 50746
36016 34348 56965
18443 35995 8240
52755 23798 34322
52570 23883 33622
18320 42903 21057
24364 10050 15287
27389 10050 14727
23439 10050 35624
35404 10050 10329
23892 10050 26531
35363 10050 14866
33736 10050 24459
38862 10050 15799
30959 10050 21241
26330 10050 28228
30068 10050 21685
34187 10050 16897
23382 10050 15922
38276 10050 14792
23593 10050 18448
28133 10050 10778
23530 10050 38549
29045 10050 23109
27440 10050 13822
31039 10050 20402
23795 10050 29127
31231 10050 16867
27125 10050 39336
33380 10050 17841
28192 10050 16296
31305 10050 10608
36731 10050 16018
56476 14520 43687
19715 37638 39741
42193 31896 68
14612 28564 7163
18316 36104 50746
21897 28919 50746
24145 26145 50746
11899 53428 50746
52959 13337 52797
2881 47263 50095
26015 20687 7752
26015 22253 23409
26015 21003 13291
26015 18877 14043
26015 17695 8357
26015 24657 17929
26015 22122 7971
26015 25082 23388
26015 13128 8658
26015 19106 17636
26015 24763 14876
26015 21424 9195
12816 24261 7063
35788 33187 57165
26704 33830 57158
4776 46175 21824
20067 39345 14446
43130 28487 4767
43607 34504 48718
9161 37901 50509
18866 39629 23982
13030 12773 10271
13030 13597 7260
18618 42283 28344
57042 18494 19186
13576 1003 50890
560 54713 8086
465 54540 10681
51154 17118 53702
11565 56556 10993
13446 53145 23691
40522 21138 10054
45305 24401 20843
21502 10050 14119
17376 10050 14157
16918 10050 16126
16811 10050 19363
15914 10050 20183
22146 10050 9078
23777 10050 7997
22869 10050 8597
14654 10050 11871
13530 10050 15449
16161 10050 11222
16987 46448 26069
55933 21351 16156
15079 48803 45440
10509 57220 10798
11335 56729 13843
53245 20073 51771
5540 58450 14899
4415 58048 26097
4694 58148 27940
22078 34110 39145
24394 28832 38713
23447 30990 40224
22046 33042 22861
51764 12429 3735
8199 56222 50746
52294 10050 37353
51074 10050 15923
52146 10050 43874
51434 10050 50962
11672 31214 1352
38649 24482 23525
23448 30588 42712
17558 25458 50412
21504 35838 42919
13537 22751 11550
15489 23762 11550
3111 46794 34012
4401 46216 48267
52524 23087 48877
50079 18280 53893
15115 27477 7155
48840 1031 48554
8785 54227 6542
49238 23057 6241
5335 49468 7004
19579 39885 30319
22379 33386 21476
17551 36981 5904
43666 18219 5133
16951 3848 6307
13030 13213 50773
13030 14931 53559
14937 36333 49922
42432 33005 46496
50476 5262 6568
51763 24061 37392
14114 52258 8655
56690 20986 28807
14837 33392 50412
14018 37079 50412
17543 28766 50412
12524 41063 50412
16420 45724 6883
13760 52341 7099
16228 24474 7030
22672 34294 10055
30148 34720 9708
15283 8049 52146
20804 37758 19908
3865 46456 44180
20104 38608 23493
43587 30129 53418
16732 27894 3141
21749 30116 56334
22202 29945 56223
3174 46766 35526
3591 46579 42613
22600 31923 12060
42945 10050 17318
42605 10050 33875
37738 10050 50856
36491 10050 48259
34001 10050 48611
34747 10050 49526
31857 10050 50466
38153 10050 52428
34994 20883 9621
13044 30218 55778
51690 24223 30928
21056 37299 29248
20794 37040 15609
50372 10050 16080
50334 10050 11144
50799 10050 14643
49898 10050 5364
3982 57894 39672
4418 58049 42747
4925 58231 49297
36393 24439 35010
33927 24373 33465
34755 24395 34845
12450 36040 54315
14307 12911 50746
18029 34189 50236
13284 15706 7479
13284 11146 21874
13284 10395 23041
13284 13558 9603
13284 10142 25443
13284 10400 21433
33426 15728 10294
41119 18329 10294
28827 19426 10294
32075 19529 10294
32463 17459 10294
38574 13726 10294
35006 20627 10294
35424 18771 10294
40506 17902 10294
49234 23780 9518
17596 15757 50159
17109 44153 19845
48417 23173 50017
14432 50678 25750
4817 46173 13803
12334 32100 1061
11054 29960 25798
11234 29317 19000
11174 29533 22436
11441 28575 14704
39652 24501 28429
42042 24501 25958
32634 36634 49874
36904 36571 49701
2295 56994 41578
8001 49307 6818
19411 38783 10350
8116 58292 39008
7981 58305 37965
8678 58236 42507
16662 23768 3515
31966 26160 3515
15820 22470 3515
13097 22754 3515
18234 22923 3515
9537 39621 6420
51643 23188 7814
16172 36452 7168
49105 10050 51363
49781 10050 27217
49893 10050 37435
50458 10050 45819
50178 10050 48798
12464 55284 46749
20441 11522 9527
20441 12086 9558
38881 35944 8432
46050 23699 43642
198 50818 41141
49107 23374 7667
48878 9955 47929
11165 29317 5309
13284 13269 35856
13284 15214 45807
13284 14937 34227
13284 14610 41679
13284 12696 31867
20623 21653 50412
17623 19583 45616
48583 24350 44546
20616 31267 285
29230 37175 51736
43285 28709 49195
20784 37440 34511
48213 9485 9520
11768 56269 33052
22500 20972 50373
56086 20788 15836
25917 21977 10767
27692 21282 10295
36010 29502 55936
27582 29572 55981
11784 27347 9426
11560 28151 17419
11045 29994 22765
11252 29252 20050
11759 27436 13367
6327 44034 7346
43490 33394 56633
21920 34471 17108
24471 28656 15271
56992 14852 17863
56961 16053 17486
15895 48201 48653
15289 2661 5336
11539 28227 24992
11965 26700 12775
11830 27186 24951
11744 27491 18092
49276 19781 53522
41028 24501 30756
48064 7369 9210
40370 22580 45838
31996 21538 46666
24824 27852 16885
10973 49433 50017
56035 17101 10520
55913 17679 9704
19200 40792 34923
56251 10360 18039
48877 8841 47058
54586 22132 10817
44912 24501 28881
50211 3903 8390
21501 35556 22232
43246 30218 4132
32910 21705 46583
11949 46897 50483
14989 50265 21022
11165 31504 2242
14887 29351 55560
2220 47416 44520
1749 47874 41409
21136 10953 50614
32343 10050 48884
30259 10050 50266
28954 10050 49729
21682 10050 48243
42651 10050 48993
51490 10050 9456
52587 10050 27520
52227 10050 29040
14784 28437 54724
17967 43682 18388
12779 54397 24268
19249 14655 45616
20350 20179 45616
19424 16225 45616
17973 14545 45616
12834 54142 47041
12296 22615 7405
12138 23572 8536
44213 23452 14158
43606 12775 53043
20441 11864 47889
11165 28699 9820
27354 17150 48007
25688 13497 48007
24065 10779 48007
28216 16403 48007
23188 10099 48007
21419 10568 48007
24177 11856 48007
21690 16064 48007
37338 10073 48007
27446 13988 48007
23538 30784 41324
24391 28839 42861
23259 31419 41584
55139 22749 38150
11860 55999 39808
17931 10050 51860
21337 10050 52674
24203 10050 49098
24431 10050 49585
33844 10050 52379
23823 10050 53149
21995 10050 49932
47337 24391 23596
49847 24377 26917
46032 24412 22910
2436 47207 13157
1809 47815 25471
12745 19368 53380
12747 19344 52560
41530 27666 3489
17960 42840 42932
24108 14107 3515
23340 19213 3515
38392 20865 3515
33733 16445 3515
36700 21501 3515
38279 17378 3515
37549 16629 3515
22429 17739 3515
23412 16185 3515
30566 21768 3515
36926 18226 3515
31270 15451 3515
41511 23172 3515
24482 15269 3515
23751 19582 3515
41005 14237 3515
33015 18108 3515
31844 12440 3515
38360 14640 3515
36176 16075 3515
16271 45804 44338
11165 32412 1671
14195 49532 6420
11447 52132 6420
17532 36773 54459
43238 22565 3875
23302 20976 6420
1443 48171 44561
1582 48036 36866
42972 23469 5702
42972 23470 6526
16628 45264 50278
14504 50620 50077
10283 45181 6754
17182 5064 50685
25992 25191 37825
25528 26249 38243
26818 14673 53651
29012 14873 53651
36990 18267 53651
41920 25899 53651
38338 25263 53651
39360 22549 53651
40274 23901 53651
25089 17527 53651
23850 15898 53651
37179 20201 53651
34170 16596 53651
28688 15875 53651
39986 10890 53651
24107 16526 53651
38764 15354 53651
42560 24094 53651
32489 14451 53651
32633 22913 53651
40940 11253 53651
22718 15198 53651
36681 17036 53651
30355 21119 53651
12985 53449 47043
18279 37040 5773
422 52410 6983
12034 24204 5166
17371 9038 52204
20424 14948 6889
57084 11523 30449
19868 37661 40467
14657 10055 5468
28093 14412 9159
25911 10182 9159
23381 14547 9159
25882 16275 9159
29144 13955 9159
21651 17979 9159
25659 12157 9159
26515 17400 9159
43969 10050 39447
44006 10050 28369
12862 17746 47058
12702 19968 47405
49639 6365 47751
13269 53947 17666
43154 28660 7970
27554 18094 46872
24746 11244 46872
35508 18587 46872
37356 19502 46872
32169 18476 46872
41979 21160 46872
27185 20770 46872
31775 19558 46872
23715 18245 46872
23768 29195 13496
45157 10050 47118
45630 10050 45975
18063 28838 55216
49138 14898 3146
18058 10315 50029
43211 18161 47923
42970 25623 53473
54609 21950 47064
43607 35805 52636
16167 45967 13661
11165 34077 8236
119 53039 39994
4 52391 48362
53 51830 18932
161 51070 27084
17061 44118 44292
56627 12698 42674
55900 16757 47556
16231 47435 47013
16249 47393 45940
14876 50523 47696
43706 24111 39560
37126 23826 40956
38774 24314 38563
41279 24229 38979
22626 31195 12705
55420 14523 7806
13447 12661 45616
33721 37194 5212
21815 37247 4608
31367 24238 45648
35518 24057 45675
45445 24478 26916
35241 10050 7464
39757 10050 6728
39599 10050 7499
25531 10050 8863
38479 10050 7660
53947 23347 21823
15684 23785 50308
56709 11987 40365
14810 49708 18695
55404 10050 17249
11165 29004 51540
55450 22153 39744
25922 21482 46735
21373 22262 46206
25165 10821 6673
13245 16939 23611
13262 16631 12068
13197 17816 17928
13280 16292 16911
4643 48578 50652
12712 22895 18009
12954 21425 12310
12554 23854 24189
13024 20996 15861
43436 11046 53157
19027 27227 6754
15959 30706 6754
12530 40420 6754
26015 18294 22416
26015 13718 19652
26015 10796 22727
26015 11292 16860
26015 22278 27404
26015 17520 27374
26015 21022 23334
26015 19029 21498
26015 19646 25881
26015 17467 25426
26015 19360 26777
26015 24474 28537
26015 11688 11213
26015 15173 15087
17271 43782 29238
43607 19064 8480
56600 14978 14308
20752 12593 6420
18235 43157 24049
13643 18675 11550
12469 35463 7063
11165 33816 54388
12343 55456 41903
51130 24365 30160
3204 48285 6420
20350 38924 20195
12663 20392 6987
25469 15457 50320
16474 10104 3515
31727 11026 3515
19727 13575 3515
13400 12408 3515
19578 10070 3515
13849 12100 3515
20441 14780 9590
25157 27094 47270
24517 28552 47642
24755 28009 46648
23852 30067 48270
32311 34500 47279
24070 34799 47522
9260 44564 50160
6946 58407 40938
7448 58358 33973
6473 58454 40379
249 53759 44404
0 52369 36342
11547 56581 17795
43607 29784 3313
16304 41379 50746
23352 27711 50746
12141 48864 50746
50957 14473 53737
16630 46902 34042
33248 28012 54290
19075 40806 47154
45380 10050 8499
45131 10050 25329
21139 32192 6420
21516 29528 6420
16790 40521 6420
19522 37160 5345
26260 29109 55603
42972 23544 5116
16346 48053 17487
18782 31338 340
41781 33082 57166
37469 33279 57164
12205 25840 45636
12083 26280 29867
12250 25680 47273
12132 26102 41635
11554 28173 36809
43537 13908 7147
13064 53753 25441
55332 20957 46233
14165 27767 53787
19339 39191 32550
5340 46140 13210
45391 10050 24218
45326 10050 42544
23719 29616 36508
43235 10050 21491
42560 10050 44914
40801 34311 56983
40997 35300 56506
43156 10050 42533
43079 10050 45049
16621 7037 52087
39122 28443 54894
3860 46458 7562
3243 46735 20707
42972 22645 8353
13194 54251 23652
49809 24365 35056
20134 39027 45165
16433 10050 9847
13867 10050 4382
14321 10050 7270
24981 27495 8038
23377 31151 11034
24249 29163 8574
25471 26377 8224
23309 31158 37552
12293 55526 29416
50928 24365 34682
25449 20619 47994
18489 14645 50159
14503 42429 6839
14999 10050 6318
38023 22503 11267
21828 21312 50107
43201 10468 9256
7696 45236 50746
22006 34168 31430
49139 17902 54020
56723 15686 15131
13425 17903 7153
51738 19342 53065
30972 28311 54753
7650 58338 13017
8540 58249 7847
8738 58230 15461
20537 36787 25974
4495 53659 7060
998 55512 35200
1270 56008 34258
17842 43764 8063
30904 32989 10677
35256 32745 10780
31484 22844 45628
38268 22634 45795
16455 46505 36259
31436 37012 50918
43607 36299 52289
11592 39941 6765
54015 17142 51814
16433 2206 51759
18075 19941 50412
25592 26102 15746
25760 25718 23043
25931 25330 14252
25754 36893 54621
13030 10199 9112
13030 10765 6904
17438 8539 51253
56786 10973 35173
48239 20063 3727
18523 10050 22759
14532 10050 26826
23556 10050 14071
25979 10050 22022
23904 10050 28081
17495 10050 22817
25577 10050 16516
25895 10050 26448
25270 10050 20712
17813 42955 12595
28755 35818 1049
23677 35655 850
56186 21843 28060
15599 36241 2074
54493 13274 5911
20441 16520 10687
17454 32750 6835
49320 5866 6453
72 51699 18347
47943 9078 47683
16980 17857 49980
15311 25799 45720
20990 36987 19615
23860 22984 45836
23804 23638 45738
15083 31489 6754
15980 32054 6754
14110 38139 6754
2005 56733 23591
1511 56287 12380
37115 32126 10924
35544 31643 10976
16705 15425 50480
26209 14460 10294
38477 10172 10294
30305 14104 10294
24711 10146 10294
25343 12798 10294
23482 14840 10294
38332 12266 10294
28548 13424 10294
35445 11215 10294
42972 26954 51124
10273 46907 50412
14497 10050 48047
15324 10050 51098
15763 10050 48980
47749 24365 39253
48659 24365 38110
13194 17882 41659
13264 16592 40991
13249 16873 47678
13078 20025 48483
4481 57020 6465
7950 39147 8582
9066 35860 14613
9262 35285 13192
8088 38740 12378
6134 44494 10565
9864 33513 8259
5827 45399 18808
5953 45027 7535
6040 44772 20334
5807 45457 13238
6754 42670 16159
6163 44409 21510
5625 45995 26633
6794 42550 14207
10873 30541 7403
1093 53174 50696
45568 18043 3261
2234 47402 39169
48857 2380 49914
1845 47781 8283
17283 5598 5269
31557 25097 3515
17993 24770 3515
18162 22199 3515
23852 23136 3515
21810 22739 3515
33763 26047 3515
13305 20844 7115
32032 13617 10294
28000 10083 10294
26681 15870 10294
25981 13095 10294
24837 19562 10294
30183 17100 10294
32422 14820 10294
33124 11339 10294
25158 11106 10294
13734 32607 10750
8523 38344 7105
44465 24501 29329
56939 12046 37841
41285 22868 11313
39675 23820 11456
51553 10063 52398
18609 42368 40195
31413 18213 46872
26202 19517 46872
26365 15006 46872
29776 15991 46872
36065 18893 46872
38530 19306 46872
31892 18988 46872
23886 13330 46872
35125 19671 46872
28192 20840 46872
229 50605 16094
159 51090 17278
25424 12729 50363
27995 37280 52931
39170 37206 52093
22956 37099 6008
40683 36618 7336
15061 35965 8015
17861 13175 6420
16856 8994 48868
28009 35816 48552
17290 35804 48745
10126 52683 6591
13205 33949 50172
40133 36039 55848
19337 40570 42545
16766 13500 6481
13742 1622 49300
43706 10050 26319
12928 21581 35712
12969 21331 32764
12837 22134 33475
13000 21142 36296
12964 21362 40802
44785 10050 13962
16687 2989 50089
13180 33993 47199
40343 36035 8303
39497 36140 8154
31694 36364 55451
29002 36591 55174
40505 24389 37337
13477 53710 13720
13934 52670 14900
43607 11971 51652
42972 23480 7866
55244 18090 7360
1347 48264 9203
1316 48292 26222
20609 37284 53134
29725 37169 53568
4667 46182 46218
22424 33256 23443
4524 46191 26917
38175 36910 2612
40869 37051 3149
57331 12332 24969
53142 10050 50222
53433 10050 35808
57073 16550 38340
57137 17015 37578
49098 17027 3146
15844 38256 7136
18271 32549 10849
12997 54528 7743
13284 11083 28907
13284 15501 46689
13284 13014 37629
13284 11995 32167
13284 16057 36761
50548 24260 43951
12672 54459 10075
54003 18806 51551
54911 23057 26935
43584 13137 6046
45188 23351 45067
24490 18419 50746
24680 15768 50746
10369 57303 19539
9745 57675 27555
11086 56877 27231
14194 50953 45685
23332 33079 0
20279 33218 2
14777 18213 6420
10367 57304 24612
10056 57489 21270
9405 57876 18361
12123 35770 49771
12839 30633 50746
15412 10065 49485
23984 22358 38494
24296 22783 32219
24138 22568 27537
16050 28235 54576
50130 24365 42355
17932 44071 24040
53137 23570 19579
12892 44647 6979
15708 46771 20529
19656 31921 10946
42180 29687 56056
40928 30287 56445
12317 25292 11372
12290 25459 17542
12306 25359 14693
12303 25374 10013
12293 25437 24538
42976 27154 52399
23400 19572 6420
15162 45130 6420
16991 41493 6420
21027 33945 6420
11668 36071 6935
17652 34015 10214
42173 17458 10294
41339 17768 10294
27804 20070 10294
42041 19418 10294
38685 15788 10294
38237 19720 10294
40334 14732 10294
12742 19408 48647
12817 18360 48363
143 53165 24212
235 53678 25845
21524 12155 50746
41998 33691 6
35427 32998 0
52130 23879 38766
19943 39342 42225
24744 27186 7051
22106 32925 10704
29072 33324 10536
19977 37691 16727
20722 35541 23576
17189 46445 32852
25132 26447 50059
24655 26976 50276
7740 39764 35491
8616 37187 29694
8863 36459 41382
7568 40273 31270
9918 33354 41782
8141 38586 31908
10366 32034 30880
6516 43371 31560
10010 33082 34962
7110 41618 31090
9711 33963 31184
8690 36970 30985
9585 34333 41633
51769 24131 22313
43055 15964 47713
13572 14780 7099
20151 37811 48045
18153 16543 50394
43607 14100 49448
43607 15406 50274
43607 29293 47818
20441 11523 45963
20441 11949 46968
318 54142 27305
33 52552 26093
20951 10050 5543
25263 10050 6726
20949 10050 3641
30249 10050 4630
21140 10050 4911
21418 10050 8249
14149 4563 6848
22687 31185 56853
47169 24365 41716
21879 33623 42549
38701 29942 945
42972 30548 50940
19634 38643 50189
13729 51746 50326
48941 1423 8049
14215 9273 51151
11514 28314 47949
11103 29787 46572
11307 29057 48391
40025 35420 718
41055 35137 581
26006 33298 57163
21262 33167 57165
29582 31939 10944
32911 32388 10896
54145 10050 10981
53747 10050 16061
213 50712 29093
33 51970 41540
6195 45409 7039
42207 23738 11443
30157 27580 3515
21523 27006 3515
21217 27493 3515
15791 27497 3515
57000 13653 39208
56047 10050 18583
20391 29085 6805
44368 18607 53113
20718 33286 50746
19579 36548 50746
18275 40054 50746
2949 57525 9916
4149 57953 9264
4310 58011 17478
32203 32617 46332
20191 33854 46853
33416 35968 48768
40153 35738 48441
13147 18748 40601
13214 17517 45261
13217 17458 45902
13212 17552 43067
49247 12127 53856
14960 48663 34680
13307 52940 16368
44401 10050 49427
44146 10050 31759
57318 17062 35406
56932 17203 40027
46060 10050 9906
47966 10050 39354
46133 10050 43003
48052 10050 52612
46611 10050 20815
46600 10050 49375
48402 10050 50415
24019 29687 17829
22087 34090 17799
7424 52776 6754
11631 25848 48502
32002 24103 28492
33502 24343 36028
32734 24220 27742
31223 23978 21520
32178 24131 19323
29569 23713 19940
29672 28848 1841
20502 28372 2348
43607 26129 47158
47801 7340 48403
18807 24711 50412
42800 35837 1169
54990 11911 7385
43180 10296 47882
55789 13873 48128
26009 23144 36500
28079 23475 30737
27873 23442 31776
25969 23137 32767
25340 23037 24093
27265 23345 37867
26957 23295 35682
26381 23203 34132
27392 23365 33951
25999 23142 35076
24657 22927 20855
27834 23436 35677
42818 29286 55684
44135 24475 32729
19213 38828 31927
14448 24973 50746
41665 36457 55338
8608 58243 17642
5999 58501 7700
45171 24453 32582
44780 24442 34097
13310 36269 54249
4963 58244 28395
5308 58367 19734
3433 57698 24373
54408 10892 6934
13155 18589 19101
13144 18799 17625
13200 17771 28151
13114 19345 23039
16526 37158 7135
14107 43005 6983
7030 53826 7023
13939 30475 11090
11516 30128 11116
29632 29951 11130
16880 30800 11065
49315 10050 32982
49782 10050 35652
49285 10050 25557
50124 10050 42347
49294 10050 12691
17140 36752 50477
43607 34620 5266
22584 33736 46803
30523 32932 46465
18799 29628 55962
13252 52899 39811
13646 26447 45769
15192 22939 6420
80 52821 22769
164 53285 14856
49121 6084 50618
43401 24051 11016
17159 11627 50746
43607 15228 52990
54644 23136 32902
31488 35705 8772
28245 35849 8567
11165 30930 3705
13937 0 5832
41961 24370 19063
37276 24378 19363
36097 24365 18870
13050 24807 50415
15778 47590 22367
42002 22807 11509
51627 24230 33135
54125 23208 38043
13888 10050 50518
18044 10050 49182
16767 47369 24689
55645 17212 48790
11282 27198 9185
19274 34225 56962
13030 13185 45760
20604 14793 48007
33881 11826 48007
23311 16505 48007
21657 12737 48007
34299 13274 48007
30777 15569 48007
34965 11723 48007
22502 13550 48007
40014 11116 48007
20921 16242 48007
17692 13683 50491
23749 22039 27907
23202 21294 29495
23286 21408 36534
22937 31277 13423
13192 17921 35071
13046 20612 30927
13050 20520 41298
13150 18686 34996
36018 37246 4621
37698 37191 5244
23451 29601 21474
201 50789 17872
133 51269 7706
13592 12505 11550
52228 23850 18479
1014 48780 33169
948 48911 48952
42972 32850 4190
20441 16108 9454
11165 33291 49939
43607 33166 8688
16605 47181 38781
55750 10050 40009
55137 10050 18225
122 51345 31917
14032 36645 51726
17546 44840 33700
11624 30824 55731
14197 5707 51978
19992 37356 17278
52687 10050 49753
51750 10050 27685
51260 10050 28246
52503 15059 53060
22300 33553 28031
22649 31701 50216
21738 20936 53651
25795 21140 53651
18122 18211 53651
37352 25859 53651
18573 21013 53651
36136 25242 53651
54828 12436 50745
11165 35993 3934
17591 35929 1457
43607 12399 7182
14035 0 7178
45138 15900 3473
47651 22444 51817
25306 26753 31311
22881 32281 33303
24071 29568 33074
56784 19984 35874
53722 21055 50662
47646 8389 50586
56065 21995 29596
11165 31309 53730
57449 13237 27276
41097 21244 10234
20443 21028 9867
3875 57856 32440
5686 58503 34384
5249 58346 30998
46957 24067 13628
22096 22488 7169
14465 34559 949
8348 41641 6420
56172 10050 22892
17503 43857 36476
42390 23914 16642
40616 23276 13508
41978 23503 14623
12304 22567 49016
12096 23829 50382
3930 57875 28790
5181 58322 40767
5152 58311 32767
19233 39718 32126
48881 16824 54020
38410 22295 10983
20595 36352 17589
42175 32113 57173
4218 47198 6619
13622 42708 50488
18349 42846 28525
18924 41298 8426
34126 30807 56723
35507 30897 56754
43607 30846 2788
2630 57295 11267
41267 32167 46246
21800 32426 46274
21262 35712 40214
12697 20020 5825
12972 16203 10698
18398 28415 2363
21463 30470 603
1477 55076 6774
2550 47096 27947
2402 47240 18797
46385 10050 8998
48401 10050 8100
48904 10050 43272
48634 10050 27610
47310 10050 23116
48909 10050 39164
47798 10050 33061
9473 42443 50070
44667 10050 8749
22503 10050 30319
25112 10050 46970
22869 10050 43340
20668 10050 37993
23378 10050 37429
25497 10050 38361
22933 10050 34502
16624 10050 30036
20674 10050 33629
23883 10050 46055
18748 10050 33471
25659 10050 35202
43001 26949 3714
17068 44219 21472
32560 22315 46049
20025 24544 11542
43607 29613 10294
12647 23285 10476
12600 23572 9917
12437 24557 19742
12522 24049 9683
57372 15193 23262
57356 13011 22410
17977 44179 25209
11528 36235 52921
22785 10050 53067
24518 10050 50836
14417 10050 52743
32338 10050 51279
28840 10050 53331
15552 10050 52408
16775 46191 20892
42972 32282 5813
13082 43863 7005
22133 34008 27892
16463 45858 43215
23777 27691 11302
21892 27036 11352
23953 26375 11402
37007 26065 11426
30816 25811 11446
41937 29210 11186
41505 26174 11418
35398 29823 11140
20306 26767 11373
49771 7961 47118
47343 19408 53652
18832 30658 50159
2689 57348 40273
2108 56825 48741
14205 33000 56518
45012 15770 53631
43607 35349 50849
41352 37270 52827
37905 37238 52455
39482 37164 5549
10573 35739 6420
3859 55217 6420
26015 17188 49723
26015 19373 45009
26015 24922 31553
26015 22111 48475
26015 24853 29714
26015 19423 40957
26015 19975 45653
26015 23411 49261
26015 15708 44655
26015 20505 42641
26015 17261 41028
42715 20793 9459
21348 35872 34721
15127 50133 16751
20667 36932 33769
467 54544 21654
787 55128 12282
20441 16240 10139
5498 51526 50412
22153 33406 29385
38943 24501 30039
40459 24501 25025
56455 19637 41095
51283 23600 47384
11764 56274 22607
13955 51861 38303
19776 18413 50412
24914 21809 6420
24301 19342 6420
55809 22278 24951
21121 35998 45599
23775 37245 52533
29820 37166 51633
43607 31890 47888
15235 49784 25617
345 50109 29315
560 49683 40089
37918 35337 56488
39234 35547 56387
14790 36288 54877
12634 23361 24003
12869 21938 24337
12738 22732 17028
12502 24168 25382
16458 47040 22749
5815 47828 6420
25665 25936 48972
24155 29377 45238
21926 34456 47675
42972 33455 6155
37003 24414 20825
23191 13597 46152
23191 20723 31559
23191 16080 37571
23191 19638 25905
23191 16615 27362
23191 20441 20408
23191 19109 33555
23191 17881 35432
23191 13615 35458
23191 14689 46642
23191 18825 38598
23191 20171 40478
23191 20094 24418
23191 17206 32494
23191 21268 16069
23191 12303 42923
23191 16095 33905
23191 15500 44892
43607 30997 9445
19529 40390 36975
16130 36338 49675
23191 15118 41317
23191 20186 30809
23191 20295 17466
23191 20207 37404
23191 18032 41607
23191 17360 41586
23191 19779 45633
23191 18658 35475
23191 20767 37422
23191 14043 37456
23191 20581 35775
23191 18505 39680
23191 17471 29651
23191 15797 29138
23191 19602 27500
23191 17064 33734
139 53141 31365
290 53985 40176
13072 20128 44232
13032 20861 39313
13045 20633 46977
13030 20888 33294
13163 18459 37914
48946 23041 50976
16576 47167 15921
49851 1986 49375
55214 10050 31952
13057 31906 46229
3007 57419 7270
48928 24391 30752
45946 24429 33096
46225 24393 35300
12997 33081 46672
19191 38956 47054
15924 10071 51510
54291 12512 5696
9815 54064 50746
15630 22336 50743
26726 37109 3368
20767 36964 2816
42972 25561 49936
42972 24721 50466
43607 24995 47397
15230 31958 46230
33976 10050 28986
40027 10050 38686
40941 10050 37918
41071 10050 15290
32256 10050 37619
39960 10050 46113
30307 10050 42031
25373 10050 45969
42129 10050 22387
41230 10050 30658
40640 10050 31768
27480 10050 39855
41367 10050 19726
38047 10050 25988
36627 10050 33201
41093 10050 34465
32268 10050 39248
41077 10050 44563
35038 10050 45612
38270 10050 18860
41540 10050 29262
41754 10050 45484
41998 10050 23627
41218 10050 28144
29895 10050 34383
34871 10050 43121
33382 10050 42756
35702 10050 42317
38616 10050 33095
41619 10050 31095
37032 24437 35442
50997 23554 47980
53243 23059 9673
11550 26162 46962
23146 10442 50146
909 55351 19156
695 54960 27057
3074 46811 29832
49658 1986 8684
55994 21967 22568
23906 12532 6420
26015 19904 32508
26015 10254 30983
26015 17210 31915
26015 10967 43992
26015 15403 39566
26015 13418 36859
26015 22297 29590
26015 14487 28960
26015 19048 28986
26015 20015 29216
26015 16526 34201
22104 32921 21979
15759 8987 4965
49742 24365 15244
55535 22600 22919
25822 13425 7192
37596 22434 45954
36512 22147 46182
15106 18105 50746
21214 32088 46238
20475 31293 46152
15229 34239 56535
48634 24365 19697
47284 10050 19064
48308 10050 37004
47580 10050 21902
47261 10050 25649
48376 10050 20660
47609 10050 9424
32213 34335 195
7438 49964 50412
45020 12150 53516
12420 24659 37447
12638 23340 43118
12403 24770 48086
5255 58348 46772
3996 57899 48005
34583 29226 1439
25275 28732 1964
49014 10793 3832
54240 10050 20296
5077 52894 6665
544 49714 32468
22885 31820 27006
11822 28391 2651
43163 19383 52056
19541 28124 54480
48991 22590 52000
52555 16930 4136
50693 24365 18802
18291 22759 11550
19641 23720 11550
55776 12053 47237
33965 27950 54179
51655 21428 4972
17682 26926 53651
21345 26817 53651
27625 26689 53651
34149 27453 53651
13284 10198 18367
13284 15011 10453
13284 15491 8611
13284 14870 11282
13284 12823 11076
24930 26925 11361
28008 28496 11241
22540 27160 11343
16515 27937 11283
25805 28299 11256
25995 26606 11385
31862 26190 11417
40342 26526 11391
51137 24368 28619
46035 24385 36304
15215 31774 521
42332 31114 56829
43567 19242 6241
56422 20119 39843
7032 47800 50559
14495 49997 11220
42843 19952 9068
20954 23137 53651
24840 25041 53651
34801 26425 53651
14818 21000 53651
13610 21520 53651
18412 40764 15939
18612 40858 10656
54717 10050 23203
4179 46316 21302
3494 46622 26198
19620 40434 28951
48721 6369 9343
42911 23651 49305
23191 10138 25803
23191 16965 16510
23191 15802 17678
23191 14650 15791
23191 17861 11038
23191 17021 15623
23191 16242 16890
23191 17504 12936
23191 15995 25493
23191 12299 32939
23191 12228 20545
23191 12107 30132
23191 19994 12998
23191 15832 11150
23191 13644 29913
23191 16745 19427
23191 11542 32442
47490 24365 40532
22283 31906 35265
52127 23244 8726
21428 34870 45347
30508 22192 11020
39237 21403 10392
42789 35278 9185
53191 10050 35303
52910 10050 51401
24053 37009 6256
20780 36727 7035
31721 10050 5275
24562 10050 7109
33774 10050 3582
29339 10050 6211
24004 10050 5180
15570 10050 5177
25884 20787 9457
53121 23378 14853
11165 32865 48273
22661 31843 34785
55035 10050 35867
43607 22352 10276
20441 14005 45859
20441 15082 46686
11165 30660 51896
11165 33546 4368
766 49271 17701
14347 15853 6420
55930 19305 45389
43019 23235 48698
12303 22571 50865
29991 23651 41818
26765 23086 44594
38412 23241 43831
27823 23287 43604
33986 24090 39662
30995 23062 44710
13819 16562 50327
16185 48055 18113
12645 23296 37583
12650 23267 29853
12523 24042 31704
12908 21704 36852
12483 24283 34337
38630 10050 44275
31579 10050 46744
39425 10050 43176
36341 10050 30277
31938 10050 42865
41612 10050 29757
42332 10050 19065
40544 10050 25133
36002 10050 24160
30781 10050 41191
37665 10050 35433
38335 10050 20365
33986 10050 33892
33172 10050 32183
31886 10050 38914
37108 10050 40574
42277 10050 26980
35584 10050 44167
41742 10050 39168
40578 10050 35483
41908 10050 35601
38105 10050 20809
42405 10050 21618
32558 10050 37046
39186 10050 21436
35421 10050 46729
32584 10050 43243
33732 10050 26904
38335 10050 46381
33014 10050 46576
24469 28660 32711
24055 29604 34060
