ply
format ascii 1.0
element vertex 2572
property float x
property float y
property float z
end_header
31656 26679 43382
60040 25462 25023
59990 25840 23286
60038 25481 16313
60031 25533 4014
59980 25922 11856
33861 25112 36851
4423 289 155
29312 32615 8237
29320 32676 9375
29364 33015 12585
29283 32399 11097
32737 25420 245
9525 57654 34905
10036 58451 27626
9433 57510 11351
9864 58182 37931
9255 57231 13914
9425 57497 27586
9704 57933 41944
9696 57920 42875
10403 59024 41681
8918 57835 43685
5436 1460 721
10426 47926 448
16775 43715 4526
37391 24996 12464
37529 25101 23175
27167 52117 833
29822 32791 1275
60410 10627 4
57605 29544 20096
58134 29139 3673
57622 29531 17872
57877 29335 6752
58194 29092 18683
27439 56143 15281
27689 55000 32206
27468 56010 9283
27503 55847 13727
27552 55626 41096
27609 55364 38890
27492 55898 31423
27482 55945 18767
27630 55269 34765
27606 55376 33331
27622 55302 18400
15749 43799 13181
4 684 17643
52831 29610 958
31464 26583 24599
31462 26597 32808
53698 29969 4524
53272 29793 16039
53618 29936 3670
52830 29609 26848
53320 29812 19124
52738 29571 36356
28478 30237 32655
28517 30221 42038
28766 30118 27190
59681 23489 42164
59616 23333 31643
59445 22918 26117
59516 23092 13248
59579 23243 30063
25060 60863 961
43842 26758 38700
43837 26745 22170
37695 25098 13
45382 28407 8683
45482 28449 16425
45838 28596 12664
45354 28396 30899
33768 25182 43553
9030 52770 43990
1336 1131 37543
26687 56081 44104
8750 55766 12744
8623 55365 8219
8968 56451 25005
9075 56786 32348
8914 56279 26349
9134 56973 30666
9090 56835 24692
9167 57076 5552
9139 56986 25837
9070 56770 36002
8957 56414 29171
8646 55440 4090
40548 27159 43454
1051 1382 37015
58590 22731 43976
27392 36514 3366
27033 36663 27849
27038 36661 4382
28296 41005 44752
39751 25034 44072
61199 14170 732
40775 26851 2432
40556 26760 8638
40553 26759 33324
40725 26830 13713
44368 27583 14846
44336 27541 5307
44422 27652 31693
44057 27177 1551
51498 28555 43751
11317 59496 1373
32506 26565 1321
29144 34414 30613
29202 34274 18916
29207 34263 12281
29179 34331 32578
9645 355 43456
3825 340 43468
6444 1386 43772
28019 43923 44796
29849 32205 43655
9404 55640 432
56910 30517 1098
14026 43281 1103
53348 985 1010
11593 61107 1037
15511 43403 12697
28286 35838 24218
28396 35694 15503
28673 35334 33430
28456 35617 33022
28593 35438 37282
33592 24758 1340
62758 14970 897
56015 30091 20749
55493 30160 33873
56414 30039 23262
55302 30185 42693
55936 30102 40635
55990 30094 15820
46303 1124 866
15510 43393 38883
28281 30471 6837
28458 30702 22882
28407 30636 16103
28330 30535 31782
28539 30807 41696
26191 47963 43432
7696 1391 431
9783 47718 32268
9721 47835 25908
9969 47357 30909
9415 48428 7346
9700 47876 27065
9310 48632 16837
9728 47824 15766
8951 49326 2145
9470 48322 19050
9815 47655 24597
9231 48785 14118
52991 7287 43772
49129 44 44322
28308 39253 24652
28268 39158 27547
27774 37963 2856
28319 39281 33960
28150 38872 25841
12 835 31083
54941 7399 211
59635 28246 44623
27724 44258 24164
27309 44800 6582
27570 44459 13874
27358 44735 9654
27717 44266 16675
27708 44279 29555
35044 25245 1195
57098 30262 44638
16609 43861 28796
29291 32454 23397
29287 32428 13875
29289 32443 41023
29281 32381 30865
29351 32915 33551
28339 39328 29978
28294 39221 3121
28089 38724 23062
28274 39172 5710
28348 39350 17754
27904 52779 1461
59963 24519 9379
59931 24275 33557
59898 24022 34020
59953 24442 11696
59921 24201 9863
59963 24514 18150
51926 28969 43455
16890 43523 8564
62030 14515 1457
16440 42551 10922
30922 27628 24146
30907 27648 29662
30870 27696 33015
51147 28097 5376
51306 28305 11542
51158 28111 4333
51247 28228 2147
51194 28159 10864
28367 42546 2
16110 43961 21220
26997 44235 1153
23050 61387 28290
22372 61821 17369
22322 61854 40285
22696 61614 15207
23055 61384 28992
22649 61644 13545
22327 61851 22906
22681 61624 16512
24028 60760 10336
23253 61257 7851
28790 43378 44416
60870 13059 935
15739 43792 14178
30334 28148 10515
30641 27913 4677
30356 28131 6286
79 1054 391
58926 28455 43358
36784 25452 9093
36930 25340 5917
62086 17321 1455
50978 28710 43558
13595 44183 1223
21294 722 1462
29669 29140 38211
29622 29252 26161
37169 25347 43486
34992 108 44464
10804 60464 44216
34060 25317 10530
25225 47175 43945
12775 61176 38269
13817 61715 28431
14706 62175 38902
13574 61589 32187
13716 61663 38902
14438 62036 27190
13976 61797 34047
13738 61674 35082
14536 62087 19600
14182 61904 31743
14011 61815 29529
16892 43516 29967
62379 17986 43502
57401 8355 1328
29141 41515 1125
48437 28519 19036
48318 28568 5089
48425 28524 20253
48613 28446 2852
28153 35955 19546
28243 35886 6564
28199 35920 16842
48910 28291 43397
15597 43623 7293
11847 60437 1462
28674 29658 44667
1054 79 18621
28269 30117 25
8 654 10202
19129 1429 44290
31111 27794 50
36957 24620 43522
52324 7273 44096
26935 48520 6272
26402 47688 40563
26674 48113 27090
26655 48083 31633
27058 48711 15896
26743 48220 19555
26902 48469 6993
25966 47008 41112
26572 47954 32199
26100 47216 33194
26884 48440 8711
26303 47535 24969
29301 32533 37751
29315 32641 35965
29261 32228 14801
61223 13572 43635
27852 418 43427
28588 30192 5685
28404 30268 17950
28757 30122 2378
50381 26533 14938
13196 1444 861
16569 42601 33618
13383 61194 44759
28282 176 1200
57251 7054 43810
31410 28153 543
59979 25924 21958
60035 25502 2234
59988 25854 14447
60030 25539 14836
59960 26073 8904
26969 36653 44810
46947 28823 19189
46966 28826 15195
46319 28740 38902
28040 42304 43458
28459 30245 10127
28456 30246 11389
7832 50923 43837
32695 26029 12604
32612 26063 20757
32539 26093 15226
16950 43216 38250
26052 59093 44772
8571 55202 24303
8726 55690 33093
8669 55510 17878
8986 56507 38005
8505 54996 25170
8840 56047 38303
8420 54727 19032
8496 54968 42130
8753 55774 27469
8847 56071 40835
8707 55630 31588
60947 11810 44795
61836 20171 44506
15963 42562 43210
47513 29503 802
45826 28591 18687
45876 28612 17073
45895 28620 30169
45572 28486 31637
11048 47216 702
47128 28825 9511
47145 28822 37355
47338 28797 14334
47600 28763 4351
25817 46778 43351
41462 462 44757
19629 10 812
15959 16 44214
8768 55821 930
30863 27704 14931
30891 27668 27618
30905 27650 36446
19913 62271 84
38217 24776 43723
50714 27353 19854
50464 26750 2786
50578 27024 5026
50811 27588 3160
50847 27673 13308
50770 27488 2085
39463 25858 31844
39168 25473 39301
39196 25510 10127
39398 25773 25384
31646 26238 11869
39023 25231 43
468 54 26808
9664 58669 1315
1377 1064 24655
29036 34674 14871
29180 34328 15796
29231 34205 33169
29115 34483 1940
47038 1439 44253
14761 43707 13727
15072 43608 22625
14806 43693 11212
14153 43901 2623
14590 43761 15685
15046 43616 14173
28666 53432 627
13546 43726 44682
31439 26689 17068
31384 26821 5459
31386 26817 14381
24204 60647 43782
27551 1159 1317
36050 15 851
50993 25792 928
47539 28771 3131
47818 28734 5410
47270 28806 11394
47356 28795 26530
26313 45885 15904
26152 46008 12679
25591 46438 23522
26166 45998 8222
25650 46393 20511
26458 45773 9637
25703 46598 1071
9511 57631 22222
10341 58927 37324
9278 57268 26334
9895 58230 35769
10331 58911 36770
10186 58684 41155
9242 57211 12353
10344 58932 39443
9784 58057 39085
38986 25473 23654
38955 25478 29774
28703 41688 43380
54062 30064 31047
55028 30192 2381
54139 30074 22535
54263 30091 23644
54203 30083 5235
54562 30130 10636
3184 1384 43767
37301 24927 7751
37244 25002 38705
27039 46111 350
29377 29595 30515
29330 29656 12629
53614 30576 44502
16923 43054 42240
9538 48191 43915
36224 1406 994
26852 45506 9
9981 57092 44321
29143 31900 42137
29090 31772 30305
28919 31358 8780
28999 31552 27249
9398 57228 1447
60565 20588 1320
56686 29926 11681
57585 29554 2024
56754 29898 9735
56539 29987 4201
57150 29734 6851
56486 30009 12515
39922 26328 18776
40053 26429 2040
39789 26226 14836
39744 26192 27174
44252 27431 23742
44137 27281 26533
44174 27330 37356
44028 27138 10034
39305 25653 22566
39448 25838 26900
39161 25464 10724
39200 25515 17355
57428 29619 26498
57060 29771 36022
56963 29811 40709
57334 29657 13140
56975 29806 41217
33866 24860 20
8357 53796 6118
8364 53942 13869
8339 53396 11193
8341 53456 10225
8394 54590 26855
8387 54444 17341
8378 54240 25925
8360 53848 4167
8351 53657 2022
8312 52829 3265
8369 54045 15213
911 1438 32937
16903 43486 25618
51479 29284 1242
50146 26999 23949
50207 26852 20883
10707 60010 44656
61940 13721 43359
29445 29506 22098
29565 29350 17824
16785 43701 12127
29087 29155 44615
38351 25475 15099
38423 25484 7284
28962 31462 2812
29228 32106 4407
29120 31844 27886
29223 32094 8417
28184 30385 15547
16278 42520 25139
29638 29214 29389
29740 28969 27793
29746 28953 30980
39774 985 43403
28197 34984 1153
44178 27335 20343
44339 27545 34407
44015 27122 36872
44079 27205 41192
21 905 21778
127 1136 16284
43952 27023 13481
59482 25442 44550
27714 52795 30
50594 27064 8026
50730 27391 25914
50841 27659 23437
50771 27491 31142
50857 27698 8717
50793 27544 26900
21613 62592 1271
41903 1454 662
19020 62959 43414
27805 54467 11401
27857 54232 14504
27793 54522 21809
27918 53950 10857
27627 55280 2499
27902 54026 35483
27785 54559 3721
27538 55689 7374
27754 54702 25457
27767 54641 5614
27928 53904 5852
28233 39072 41266
27743 37889 40663
27773 37963 34769
28270 39163 39063
28039 38603 39918
28085 38715 33512
28185 38957 32182
27943 38373 22701
38825 24965 44591
21455 62131 13761
20664 62382 3780
21272 62189 11712
20559 62415 27985
21078 62251 19951
20282 62504 25056
21663 62064 12587
20759 62352 25212
21682 62058 6737
22104 61924 1819
20709 62368 4665
20289 62269 43390
55766 30124 19517
55443 30166 9326
55693 30133 12037
55923 30103 2483
55276 30188 30089
55388 30174 18846
19904 62624 30150
20223 62523 33817
20175 62537 4556
21146 62229 3307
20959 62289 10827
22065 61936 3512
21032 62265 16430
21177 62219 1932
19975 62602 40831
21288 62184 7066
59088 10130 593
59678 24225 47
46087 28699 41304
45572 28486 35144
45842 28598 19495
46072 28693 39385
28452 40042 24619
28516 40527 38311
28438 39933 21702
28467 40159 27948
28378 39479 21474
28537 40687 40289
52127 7234 615
39735 26980 363
26231 45948 10727
26340 45864 14450
26064 46075 19655
25720 46340 22363
26062 46077 8924
25770 46301 6417
52282 29243 9043
51982 29013 3882
51930 28972 17102
52137 29131 17588
52142 29135 2838
52261 29226 10426
61513 14645 44627
54651 6199 1082
15521 43457 1830
35616 1411 478
50995 25638 44033
33540 25479 33774
33571 25439 2862
26751 45085 1405
27225 48867 14
27235 44896 39827
26895 45339 19620
26959 45255 27383
27219 44916 25066
27225 44909 23061
27275 44843 33688
26965 45247 35715
33156 25781 29090
33146 25789 24247
33006 25897 4646
27293 45356 1382
37617 25168 36051
26713 57617 33398
26443 58140 30689
26600 57836 23475
26361 58297 32662
26268 58478 7112
26322 58374 21816
26657 57725 30173
26660 57722 28618
26666 57707 37788
26931 57196 40079
26359 58302 10427
55919 30104 10446
55434 30168 8112
55181 30201 11144
55463 30164 2806
26534 48875 229
50302 26623 34644
50365 26469 25189
50346 26517 41120
42787 27077 36218
42748 27082 31907
42837 27070 13269
43019 27046 31414
45586 27765 44371
26988 46266 43945
7894 1031 43422
16275 43970 40664
28056 55397 1305
26617 45651 25072
26390 45826 27281
26145 46014 22696
26022 46106 38014
26368 45842 30533
23877 60120 44465
59714 24885 43420
30193 28232 17093
29902 28352 41968
26691 59035 43793
53849 7470 768
10914 80 43756
8800 49443 1452
8689 48274 615
54321 7522 44200
7655 52551 1072
60828 12942 43864
16003 43936 35898
29683 34982 612
43961 27046 17821
38421 25484 825
37738 1449 44187
1984 1454 800
15207 43951 44714
41878 26677 1303
29681 29110 10710
58931 29424 43933
15607 42853 32219
54236 30087 25404
53958 30051 39738
54798 30161 6302
54581 30133 7859
41482 27075 38077
42053 27151 28929
42049 27150 8957
42035 27148 42892
28921 31978 44771
15504 43091 10914
55283 30632 44659
28843 29671 77
58934 27477 238
7972 1351 44466
29285 745 1461
30735 27841 38436
30755 27825 31131
30695 27871 22875
11366 42 44317
8572 51277 15
50774 28329 1310
16848 43610 3822
44620 950 44777
15928 42578 35806
28536 34823 44686
54577 6849 1461
61819 20245 43676
25612 47635 43723
56182 7230 1450
57396 29632 784
37778 24353 43888
51078 28007 29686
51137 28084 33096
51228 28203 21774
51002 27908 12138
13730 62465 43898
28443 50782 43853
40347 26654 6030
39830 26257 35005
40399 26694 22944
26514 36099 44183
16938 43136 36047
1447 621 17631
11981 44359 44148
14008 61689 44800
10415 23 44269
119 1125 1305
47574 28766 33105
47918 28721 26159
47862 28728 38595
47140 28823 41850
27101 51011 423
29078 39267 803
17 871 23927
31834 26891 1048
27795 52102 1451
33062 25854 29682
33032 25877 18020
25629 46508 22845
16784 42787 4917
17551 62231 43562
29104 31806 20497
28991 31534 3742
29155 31928 10851
27107 48863 43555
29899 28354 1383
33571 25438 21947
33527 25496 8434
35941 25825 38463
35916 25828 23263
29466 32839 44798
24976 329 1338
26783 57481 36342
26506 58018 38252
26983 57096 43319
26304 58409 18488
27160 56754 34462
26377 58267 15458
26309 58399 32138
26504 58023 41569
26365 58291 20453
26671 57699 26250
27082 54660 43794
26351 58317 43429
11309 45850 9780
11516 45623 4312
11118 46060 14414
10577 46653 19702
11182 45989 13747
10575 46656 25445
10853 46350 2063
11321 45836 6677
10497 46741 7474
10462 46779 14052
34 947 36611
13841 44241 23
28749 33459 1155
8076 49808 43835
28615 53783 43757
62156 19459 339
87 386 43129
15728 43399 883
8791 49736 37227
8566 50765 38221
8788 49748 15881
8400 51524 35771
8564 50771 30472
8818 49610 15359
8777 49801 18856
8451 51287 32725
8373 51647 42281
8715 50082 36835
8664 50317 40345
4828 962 43394
60011 24880 37271
59965 24531 30122
60062 25270 20568
60047 25154 29158
59980 24643 27419
60038 25085 39682
1810 21 43918
15505 43088 42505
16520 43903 23612
9013 51643 44460
28955 29985 14418
28924 30008 12076
985 50 9554
36513 25627 11276
36234 25742 33184
28540 41395 33691
28585 41055 38471
28447 42100 29900
28548 41333 26327
28502 41682 40162
28534 41439 23587
28583 41067 22513
26500 29992 43945
22637 1447 622
37201 25057 20618
37092 25199 40877
57549 29569 43955
15812 1262 1230
61288 18129 44455
58459 7887 322
57485 29018 44620
58170 29111 28356
58542 28825 20200
58509 28850 27554
58378 28951 25452
57758 29427 37189
50148 25167 43876
62013 19095 1375
15584 43596 21371
26677 48191 1458
18068 62652 43360
35760 25849 36695
36041 25812 25773
9894 58229 771
33707 349 109
36461 85 44421
11317 59965 11298
10613 59324 26083
11335 59982 20373
11199 59856 13447
12414 60965 2051
11379 60021 6810
10586 59299 36120
11522 60151 4527
11153 59815 5833
11210 59867 18395
27871 51778 1069
39 502 11375
60126 11484 860
8541 48829 1150
11439 45706 34737
11299 45861 18989
11346 45809 31837
10227 47036 40279
11160 46013 35082
11333 45823 29093
11608 45522 33284
10304 46952 41751
11583 45548 13451
10264 46996 40943
11017 46170 26662
11639 45488 21861
60343 26318 1328
49510 28133 45
10065 82 43753
24112 61202 44677
80 1057 2112
34877 25780 12866
34802 25749 38413
34895 25788 32478
15794 42651 41575
31858 682 44808
58799 8049 43825
16002 44026 44333
52608 3870 1453
31249 27146 10961
31296 27032 29897
31289 27049 40215
50381 26530 33546
32241 25426 725
59634 21697 202
29070 51 987
29208 32540 1451
37733 799 1453
8648 50390 4085
8595 50633 10496
8316 51904 20496
8322 51878 33286
8288 52034 22069
8461 51243 2627
8702 50143 10467
8337 51811 11492
8321 51882 2490
8577 50713 16162
8472 51192 10818
8622 50508 13771
28323 55481 797
42458 27120 44013
44352 27561 26008
44516 27774 10264
44457 27698 28220
44394 27617 15840
34474 25310 44761
19171 62670 27270
17931 62728 36236
19466 62656 7941
18078 62721 35067
18881 62682 42593
19688 62646 40149
17919 62728 41311
19805 62640 2936
18101 62720 39981
18406 62705 37259
18538 62699 24222
26162 59251 139
15272 43544 11351
15364 43515 33566
15404 43502 28887
14914 43658 20077
15491 43475 13711
14535 43779 17366
15395 43505 7734
56131 6541 43975
16607 42629 25898
39005 26330 1056
24950 1252 44594
26096 155 291
27030 47316 44065
53070 2891 44696
50292 26647 40135
51978 1549 43878
55324 30182 41156
56049 30087 18174
55700 30133 34985
55493 30160 37356
56094 30081 38980
56020 30090 31696
24099 1037 73
34260 25471 41293
34275 25483 34849
34179 25408 42056
34669 21 564
27438 49902 25259
27422 49851 24177
27084 48789 35742
27413 49822 37464
27250 49310 16193
27378 49713 27899
27307 49491 25752
27152 49003 19065
27603 50421 33109
27300 49468 28849
60044 25135 21594
60047 25152 41500
59992 24739 29540
60005 24836 38225
202 226 4276
757 1459 26633
25915 58015 1236
29311 33706 12660
29367 33279 20535
29339 33496 18906
29363 33310 8292
29276 33971 7607
37941 184 253
42503 987 44761
26736 47016 1073
44855 28043 5331
44869 28054 11383
44608 27854 3808
19019 1415 976
10256 58794 17435
10288 58844 10117
10455 59105 15256
9844 58151 7791
9521 57647 4300
10078 58516 7152
10354 58946 30199
10292 58851 3337
9928 58282 2806
10083 58525 5158
60835 11904 1396
26914 36712 41150
27438 36495 32518
27386 36517 14500
16538 42587 41993
27576 50337 36873
27213 49195 20228
27496 50083 42583
27555 50270 30933
27119 48899 13062
27184 49102 22032
27720 50789 38822
27104 48853 4879
27689 50691 37754
59003 28267 36715
59338 27831 22479
59080 28167 33040
58846 28472 39447
58800 28532 34174
14378 61887 13
31898 26223 15315
31867 26228 26248
32204 26183 6081
3144 899 22
57917 29366 44808
23125 61339 33630
24421 60509 27305
23698 60971 19173
23754 60936 28579
23276 61242 42808
22457 61766 41830
23934 60821 14536
23740 60945 17809
23607 61030 26594
23541 61072 39805
40389 27206 182
49545 27771 44811
28524 315 43487
19011 62676 20525
18726 62691 36181
18481 62702 41219
19200 62669 36718
19687 62646 23158
18470 62702 33007
18820 62686 35066
19072 62674 22937
18962 62680 38402
27424 57762 44294
16442 62573 5324
15429 62351 28514
14826 62219 4840
15401 62345 15102
14895 62234 31368
15043 62266 22082
15686 62407 17197
16494 62584 6219
15548 62376 7542
30153 28249 14491
30107 28268 27446
39289 505 39
45849 207 43573
29389 29579 31861
29331 29654 16589
29301 29693 11629
36697 24519 44052
12639 61450 73
51969 1939 564
14265 43865 15133
15342 43521 39476
14937 43651 40709
14417 43816 22325
14616 43753 31195
14719 43720 28863
28003 38920 44794
43439 26878 24658
43663 26785 41095
43787 26734 27672
41734 27350 1417
1188 167 16556
11635 60255 17203
10761 59457 30506
11077 59746 29960
11354 59999 2252
10753 59451 37588
10690 59394 8162
11983 60572 9061
11091 59759 26941
10969 59648 14782
10927 59610 22040
37319 23856 1073
55136 30206 42210
54551 30129 24274
55111 30202 24660
54953 30182 8712
54023 30059 38966
27360 56428 43355
28557 53137 43703
56706 7801 40
38280 25465 40025
43169 26990 16635
43108 27015 27465
43573 26823 10997
29496 28082 132
59937 26245 26051
60015 25656 36111
59921 26371 9356
60002 25752 38862
59926 26329 18087
42866 26842 1424
42555 27107 17654
42155 27160 18752
4974 4 694
50667 27238 43238
50628 27146 25014
50487 26806 26968
50470 26765 31789
16526 42581 37063
8696 53462 1370
44250 25872 848
40405 26253 92
27720 50362 17
16400 42537 31300
43922 26950 34958
29425 47 484
18644 62694 13897
18109 62719 4782
17310 62756 11392
17658 62740 8844
18840 62685 3885
18037 62723 29055
17684 62739 27163
17896 62729 3142
59695 22243 43367
25455 59405 28264
25196 59690 31804
25149 59740 40799
24828 60093 38997
25230 59651 22038
24497 60456 36051
24573 60374 23097
24830 60092 11467
24546 60401 17779
27110 45275 43368
58487 28867 24381
58007 29236 29572
58579 28797 10744
28574 30346 44740
28543 40737 1370
218 1252 6286
27534 37599 1545
27131 37075 15442
26994 36897 18537
27157 37109 2311
26882 36750 7841
27227 37200 14689
27614 55339 830
13157 62097 44424
44433 27667 43536
18917 62573 44800
25673 46550 42527
25679 46561 5834
26025 47101 1740
26364 47629 7114
26045 47132 16161
25840 46811 22480
26287 47509 23410
26730 48200 9591
26075 47179 24230
26362 47626 5164
26159 47308 26829
870 1444 2434
58908 28391 27192
58837 28484 25108
58785 28551 32603
58983 28294 19026
58856 28459 5786
27420 38317 43523
32303 2 44114
1443 590 20040
37574 24483 44641
22291 61865 952
9919 58267 43994
27177 52282 43964
13484 43403 848
29140 29843 13764
28977 29968 40706
61981 14318 43354
9441 276 1298
8362 53894 6841
8364 53945 20051
8342 53461 12363
8366 53978 27874
8351 53655 21812
8381 54305 8287
8377 54216 27223
8391 54533 1617
8362 53908 22982
8359 53826 8892
47043 28453 43460
24060 887 43372
58863 9306 1401
16135 62917 1337
34301 25502 43248
34260 25470 15698
26420 56709 472
41634 1294 43625
13450 61614 1452
9061 53387 44156
44500 28256 112
37334 24931 5293
37971 25362 39247
38054 25397 21079
29101 40238 345
34769 25735 7471
34490 25620 21784
34584 25658 25090
8334 53289 43854
29753 95 43720
11167 46005 5676
10842 46363 7214
10264 46996 20338
10285 46973 13529
10054 47228 7116
10517 46719 11016
10021 47263 24336
10626 46599 17130
11007 46181 3894
31739 1218 44622
26488 36286 265
32380 1254 44593
7611 51756 43999
10405 46316 43444
59439 27659 11479
59528 27446 12775
59728 26962 11544
59559 27370 9530
59470 27586 10096
52456 234 43550
26231 37093 44040
26970 36864 30594
27505 37562 2256
27324 37327 5130
27208 37175 20501
26984 36883 14242
26957 1190 1292
40426 25847 43849
46766 28799 13308
46791 28802 1570
46256 28732 5614
46308 28739 6971
26985 36683 29223
27279 36561 5122
1359 1101 19060
26218 48630 43788
9760 56773 422
25921 58894 43419
26426 48020 44794
16685 43800 22210
32071 1436 540
13803 62346 278
26923 57213 7186
26953 57155 18807
27008 57047 15899
26558 57918 6616
27121 56830 23778
27256 56567 33212
27153 56765 28963
27294 56494 35807
27354 56378 29962
26876 57302 9711
26753 57541 12307
35972 25821 44075
44479 28247 43468
6435 1365 367
14307 62706 43768
28576 40985 36398
28541 40716 2556
28569 40929 28803
28438 39937 2213
28505 40442 1940
28562 40882 5040
28413 39748 4932
15553 42954 11472
15219 43864 65
59588 27300 34329
59602 27268 34939
59714 26997 20717
59753 26901 28899
28609 52623 44293
45695 1456 776
27554 55613 43783
40473 1439 43914
9508 48249 1400
58765 8799 44806
53535 29901 28808
53279 29796 42935
53818 30019 38321
53223 29772 34049
53569 29916 14058
27270 36013 193
994 1406 16968
8568 48481 44107
8426 51402 19714
8388 51575 28940
8600 50610 15355
8787 49755 3411
8432 51375 17204
8592 50647 4811
8353 51737 34835
10772 59874 43422
12895 44632 33022
12240 45051 34151
12763 44717 35727
12149 45110 14401
12849 44660 23659
13075 44516 43217
12068 45162 22742
12007 45201 35608
11964 45229 33064
11855 45298 25772
12165 45100 21997
14962 44401 44148
46344 28744 35226
46780 28801 17401
46280 28735 39992
11088 671 1455
16800 42806 20285
16898 43500 13539
31480 26457 34793
31494 26352 22419
35359 25862 2812
34996 25814 16089
35140 25833 8892
32947 25924 18812
32639 26052 39912
32690 26031 36971
143 304 34947
9187 48870 1681
9824 47638 36197
9846 47596 34910
9285 48680 12141
9597 48076 12111
9801 47683 20141
9950 47393 3247
9976 47344 10213
9746 47788 17187
32708 26024 34351
32135 26192 14270
32221 26181 7045
32031 26206 8955
44075 229 201
9558 1210 43537
52388 29324 20870
52538 29439 25870
52261 29226 23038
52454 29374 34228
51989 29018 39284
8784 51475 1365
52201 1157 44670
60017 25592 0
12650 313 44677
11249 46924 44340
31383 26824 7166
31359 26881 4875
31454 26651 1835
33484 25529 29972
33291 25678 27373
15515 43059 7032
1393 435 11581
34644 26195 179
60960 19523 176
31926 25892 43432
33673 25307 25561
27347 45927 847
26963 50748 43912
11314 59962 28502
12189 60759 26539
12454 61000 32076
10957 59637 36851
10788 59483 38940
11937 60530 28130
12420 60971 39585
11849 60450 18980
12368 60922 5877
11170 46003 38842
11625 45503 23914
11512 45626 26547
10634 46590 32463
11582 45550 14578
11132 46044 21051
11737 45380 34448
10320 46935 36716
10295 46963 37495
11290 45870 42458
11141 46034 24180
29282 273 43519
8296 52486 31965
8329 53177 38649
8347 53567 38065
8291 52381 23080
8328 53169 25474
8317 52927 22352
8352 53681 35097
8289 52330 5632
8344 53523 37435
8320 52996 27114
8299 52543 16347
44056 686 5
30701 27866 869
33894 25156 21629
28571 35467 17247
28492 35569 12559
28791 35179 20235
28665 35345 26384
21266 1275 43602
12978 1456 44042
2366 881 1442
58177 29106 16519
57894 29322 9631
57758 29427 24799
57632 29523 31145
41940 27327 25
35068 25879 44807
51804 28876 10274
51976 29008 12828
51876 28931 28245
52008 29033 27045
36472 576 44794
30354 28133 30467
30581 27958 15329
41650 26458 44448
10009 56 463
61347 16973 44165
37882 25325 13718
37782 25284 21631
39044 25466 5366
60620 25993 44422
21720 62046 17113
21403 62147 40238
21277 62187 34062
22120 61919 11552
20839 62326 39262
21955 61971 39364
20726 62363 35217
21825 62013 42813
22277 61869 21074
16786 43699 39009
59272 9826 111
15576 43448 4053
15542 43458 34955
15925 43336 18461
27342 38126 1292
52240 29210 30292
51926 28969 34406
52492 29403 35717
52419 29347 40084
52274 29237 24968
59861 23923 9036
59788 23749 4592
59712 23564 21866
59731 23609 12641
59639 23388 7644
35074 25824 33873
35260 25849 25022
35431 25871 13385
61326 15047 44170
60050 25963 43361
18208 62715 13457
17801 62734 21558
17373 62752 6537
17982 62725 14698
18499 62701 2850
19118 62671 11344
17643 62741 22139
18148 62717 21118
17452 62750 18543
17432 62751 33388
16898 62671 13632
17193 62736 40641
16733 62636 42594
16456 62576 18575
15723 62415 40336
16652 62619 25250
15134 62286 39643
16709 62631 40332
16839 62659 17993
16960 62686 37655
12646 61575 43486
32151 434 68
26326 45786 44805
10240 59630 1278
33859 1438 43905
20183 61874 362
15897 43897 10447
53609 30585 326
8375 54183 43537
8814 55966 10198
9052 56712 6743
8668 55507 10396
8634 55402 7424
9008 56576 12812
9016 56602 29930
9106 56884 38671
8993 56530 18277
61460 11100 43666
28536 51701 448
10526 46511 17
14018 61066 1012
21537 62792 44395
27305 56177 1447
8365 51681 778
40976 26934 18506
41094 26983 31735
41199 27026 29725
40769 26848 41000
59067 28010 44800
503 1421 4336
39630 26075 17866
39606 26044 15461
39511 25920 28532
39364 25729 16871
22744 61582 11626
22762 61571 21448
22631 61655 36502
22662 61636 24918
22981 61431 5092
22334 61846 22164
22681 61624 12425
23772 60925 5542
22369 61824 10434
22610 61669 35854
59555 28425 43587
15749 43393 20175
15632 43430 27311
57473 29475 43366
29826 28739 37954
29836 28663 29515
27032 55910 159
27365 36526 39352
27326 36541 31133
44066 1442 883
10404 59024 2400
10358 58954 33792
10316 58887 18136
10082 58523 16290
10237 58765 28443
9795 58074 4595
9486 57591 8781
10565 59276 35559
13986 272 1294
426 71 1813
13861 61098 44534
5863 401 44732
45258 28353 12056
45098 28230 13230
45059 28200 38561
43742 26815 43359
29371 33249 5089
29340 33484 17336
29345 33446 6327
29378 33197 1803
61923 12052 43774
29837 28651 21240
29829 28717 42689
59367 9351 1
12367 60921 43717
9210 55213 43681
47315 28800 34158
47652 28756 16841
47371 28793 30126
47844 28730 40136
9186 50680 44508
7628 53057 44303
29875 28367 5991
29861 28470 6941
28189 35928 43533
24100 5 44129
594 1444 29652
10033 57542 43542
26277 46555 44609
24961 59948 31094
25237 59645 37195
25306 59569 29302
24523 60427 37815
25144 59746 25921
24853 60066 10461
24833 60088 40089
25899 58917 35948
24894 60020 29802
24771 60156 24345
25149 59740 36138
29308 32936 43357
15906 43901 26663
24802 46166 516
1355 355 40297
39157 26147 44312
41341 27057 25080
41390 27063 11702
41291 27050 19517
41474 27074 2359
1070 1375 21338
8770 55829 43695
1411 981 32420
29716 31536 44365
21 555 24314
28960 34857 19154
29194 34293 42615
29056 34626 26767
29208 34260 41367
28963 34852 12183
61061 10493 1102
27896 52327 21498
27875 51861 31031
27867 51694 38325
27924 52932 34694
27932 53089 35737
27887 52116 22875
27848 51293 29684
27860 51537 10095
27883 52034 37734
27912 52668 32668
53405 30265 43465
20357 144 43654
42407 27127 15676
42648 27095 5447
9332 49837 257
61538 16450 322
34158 2 705
43139 27002 5583
43294 26938 8388
43183 26984 3349
6881 1221 1269
25796 59856 1198
29170 29820 29051
29150 29835 39647
27442 57160 44661
2880 413 43429
28217 43073 7196
28182 43156 30202
28302 42866 32415
28207 43095 21763
28205 43102 19160
28256 42978 1833
27835 43993 4630
28066 43435 1673
62559 13817 44377
8937 54199 268
49238 27302 43611
48394 27769 44255
27840 43982 10215
27902 43832 22800
27994 43610 30463
27905 43824 38205
28103 43346 28751
27894 43851 17594
27743 44215 33980
43004 27783 44111
28300 42872 16383
28106 43339 26034
28206 43099 5947
28162 43204 14519
28198 43118 12722
28293 42888 23990
28404 35573 1453
50977 27876 39828
50985 27886 26183
51556 28631 42388
50879 27748 21050
29338 33500 41330
29306 33747 19734
29336 33514 40517
29267 34044 6406
29310 33715 28093
16377 1082 1371
59889 23991 11091
59848 23891 30522
59583 23252 7132
59848 23892 7203
59765 23692 2192
59758 23674 23144
8235 52250 1456
31131 27355 23042
30919 27632 3020
30959 27580 16705
36870 25386 10472
36610 25586 12831
25447 59310 43360
15684 42746 17525
47606 29129 44717
9340 48400 44804
1265 1225 15204
1704 462 57
41014 26950 9042
40753 26842 7561
40660 26803 5301
40757 26844 18011
28659 33120 44228
61289 18149 1108
28524 41513 31056
28527 41496 21940
28473 41903 32217
28419 42313 34299
37262 25860 1122
55693 30050 11
34805 25750 3189
34709 25711 18881
34710 25711 16802
48418 28375 1444
30042 32765 537
10664 1414 44330
21599 62085 1287
60253 9929 1378
59591 23679 20
8812 54820 1373
21679 62059 18949
21147 62229 40997
21012 62271 38073
21532 62105 29329
20800 62339 28656
21954 61971 20200
22179 61900 14890
34542 25922 43405
15967 43323 22051
16204 43248 12200
15997 43314 20918
37881 25325 1056
55952 30473 1361
9285 57413 43361
35206 25842 34723
35314 25856 30452
13938 43208 44133
22303 344 1350
10433 47774 43677
28460 30704 14821
28530 30796 15567
28769 31107 28523
28849 31212 11415
28836 31195 7129
27050 30031 162
130 321 28766
14833 62221 969
32006 26209 36056
32333 26166 33759
9014 49365 43361
42164 27740 291
49231 28045 24516
49467 27864 26846
49041 28191 34390
49316 27980 31526
27058 38181 44087
25975 59270 1395
16129 43963 9915
15557 43539 24342
1367 373 33852
8322 53046 1425
60667 12637 693
16322 42523 11996
27761 54671 10635
27928 53905 2046
27785 54560 16186
27727 54822 21070
27645 55197 9039
27738 54772 17581
27732 54800 19754
27750 54721 6721
27767 54640 27753
27909 53990 19434
59397 26063 44545
30896 994 1407
27565 45367 44559
9140 48960 19255
9536 48194 30015
9320 48613 39588
9479 48305 25358
9176 48891 22387
9830 47625 38533
9036 49161 41344
9344 48567 33658
9084 49069 22846
9570 48129 31011
9050 49134 30741
8326 53118 36580
8306 52701 35561
8303 52621 15040
8281 52147 10346
8284 52227 7040
8292 52394 10824
8288 52309 12314
8297 52501 28905
53703 29594 90
41110 26210 44168
10645 46843 1439
12236 60803 31428
12198 60767 17278
12095 60674 30316
11074 59744 39730
12412 60963 17881
12028 60613 39190
11932 60525 24499
12462 61008 4275
11288 59939 41030
53286 2427 44482
60413 25283 89
396 84 32964
55476 7447 44713
31136 436 1395
37136 25142 8756
28084 35171 277
28802 40741 44762
51611 28702 33373
51644 28745 25200
51317 28319 8767
51472 28520 5510
49620 27712 20984
49565 27784 39566
49662 27657 23260
49789 27492 25213
28373 30591 23840
28489 30743 38540
28755 31090 42569
28317 30518 18780
40987 26938 26086
41237 27042 42114
40706 26822 35086
40848 26881 21254
16689 42686 10390
15951 42566 6979
27428 52501 44632
55855 30764 43748
16712 43776 41444
32707 392 44728
595 1444 24794
28669 30158 24021
28466 30242 30739
28671 30157 37628
27345 1155 143
67 435 30327
52771 29992 44708
16356 43955 14278
16119 43961 31518
24292 60591 7485
24487 60466 2894
23412 61155 24918
24483 60469 24643
24442 60495 35425
22759 61574 42223
24054 60744 35751
23955 60806 16294
24270 60605 32075
24459 60484 8083
58307 29782 342
22211 1201 179
27393 44145 43435
40190 344 44701
58423 8153 44714
33379 10 43997
34628 10 43994
44734 28841 540
29252 34151 16371
29271 34008 13599
53638 29914 44811
60049 22736 43522
20736 62847 1289
14221 797 44805
27905 43865 2
27869 51732 3075
27954 53571 31374
27941 53289 32179
27940 53270 25973
27960 53696 26728
27906 52534 13509
27949 53466 17149
27943 53344 22532
27944 53364 36803
27923 52910 16470
13274 61632 23
62780 17075 587
58951 28034 23
57962 28456 1068
62585 18681 752
9462 49937 44292
35530 25879 6440
35544 25877 29073
10616 924 26
26494 46778 43633
49917 27325 18984
49831 27437 36881
50095 27093 27833
49995 27223 41046
2501 94 371
34843 25766 43972
20624 63163 730
52458 6321 44777
28424 35659 28368
28507 35549 19161
28575 35462 34536
28277 35850 10915
53753 29992 1821
53071 29709 20243
53168 29749 13367
52742 29573 9216
52680 29547 39029
39577 26006 7677
39481 25881 5811
59765 23059 47
51794 727 43351
15782 61690 648
39855 25744 43460
26194 45976 34118
26258 45926 20487
25848 46241 36747
26696 45590 10050
51020 1428 44294
26990 57905 1355
48963 28250 14721
49319 27977 13232
48974 28242 1648
49427 27894 6284
39886 26401 43362
18169 62187 228
26342 1400 1008
27702 50732 29427
27835 51149 15679
27587 50369 18252
27804 51050 35720
27351 49629 12976
27538 50216 17668
27541 50224 11485
27375 49705 16589
27282 49412 3559
16117 42524 32239
37836 25307 42065
38089 25411 16649
16917 43024 29175
28932 30002 30788
29122 29857 5417
28940 29996 7659
39631 1284 261
16531 43898 24650
15202 62301 6060
15829 62439 8955
16219 62524 2307
15937 62462 2720
15407 62346 28012
15526 62371 21237
14931 62242 7399
14891 62232 25996
15444 62354 19836
14962 62249 34495
40768 26073 852
13904 61760 7948
13018 61302 25000
12896 61239 19489
12773 61175 20568
13043 61314 27540
13209 61400 8549
14369 62000 5106
14236 61931 11144
12784 61181 37612
13646 61626 17716
56465 30348 44738
28598 34419 1261
37123 25159 25061
37189 25074 9301
16747 43747 37038
50747 27417 1462
8087 229 44613
37342 1431 43878
59859 21963 1442
21528 1190 170
28748 32979 43681
35860 25836 10890
35683 25859 28339
35558 25875 38817
49877 27377 22581
49842 27423 33456
50048 27154 7667
50106 27079 9925
34655 24893 43873
27316 44790 32073
27068 45114 18318
27261 44860 41182
27048 45139 42733
27124 45041 29789
26876 45363 38141
56929 30449 43642
54921 6173 44289
29179 30434 43547
49 478 12868
32266 25418 44058
59892 26566 25180
59894 26561 17208
59583 27312 41239
59630 27200 40753
59586 27305 38660
1235 811 44804
14338 62587 1223
27777 604 16
1185 165 30220
5551 50 985
26775 47963 21
53217 4069 241
737 0 13453
42900 26589 177
28091 37198 43845
9204 57386 16
59554 27384 2140
59569 27347 13312
59583 27313 7898
36418 25881 28
55214 29468 44155
47639 86 43742
59500 23051 9752
59677 23479 41324
59677 23480 32347
961 40 26010
14881 62471 44771
9320 56343 44714
47472 1176 44655
38695 25512 14243
39019 25469 2593
49784 27499 2062
26307 56874 44284
50658 26780 44792
14004 439 43418
28465 40142 23546
28506 40453 42110
28440 39951 28816
28546 40753 41434
28409 39714 25805
28512 40500 42763
44709 27932 17803
44591 27841 8071
44948 28115 3454
36845 25405 33281
36650 25555 42360
35761 26495 44432
28823 31177 22636
28802 31151 25345
28727 31053 12510
30123 28261 2648
7108 144 44511
28922 34949 29138
28899 35005 20727
28928 34936 22993
28415 32026 812
7971 749 2
50729 27390 36325
50725 27379 37240
50791 27538 41518
50428 26661 30934
25381 46235 43417
28558 35484 14079
28748 35236 30006
28499 35561 16647
28333 35777 4680
52652 7071 191
31322 26971 42999
31266 27106 25861
28691 41212 16
37535 25106 29850
37666 25206 38228
60600 24439 1077
48083 28665 14631
48166 28631 33397
15619 44180 887
51527 27524 1056
1262 232 5823
59991 24727 3679
60019 24944 1767
59943 24363 24854
59977 24626 15562
29470 28728 1375
9472 47141 1217
27885 52074 29291
27925 52952 43129
27860 51534 40471
27949 53453 39037
27903 52463 36112
27880 51966 18861
27876 51895 16157
27901 52422 41437
27848 51285 16919
8671 50285 33410
8471 51196 35232
8826 49575 29441
8782 49777 41908
8803 49680 16936
8749 49926 24339
8638 50433 24502
8632 50461 28483
16481 43922 29562
56043 6518 925
19875 512 44778
43729 813 1452
35561 379 1371
60349 9434 567
33690 25433 44802
25541 59311 18328
24664 60272 2197
25280 59596 8856
25252 59627 16495
25364 59505 13144
25550 59301 2944
25752 59079 5433
25585 59262 11572
25749 59083 29253
49840 26047 43750
7691 54009 43818
26533 56734 1185
53492 29884 32834
53140 29738 38499
31147 27335 26731
31119 27371 34214
31038 27477 13658
45815 28587 1452
37824 25301 7751
38049 25395 2667
42015 27146 6164
41388 27063 3698
41764 27113 10682
41531 27082 27117
27078 29808 44369
62748 16655 1106
1450 818 27531
51176 1323 43664
14479 62057 6677
13302 61449 14462
12687 61131 30376
13197 61394 28765
12719 61147 26883
12659 61116 22174
13702 61655 2398
13071 61329 5047
12660 61116 29038
784 5 41060
8039 50771 210
37040 25256 15042
36941 25332 27414
626 12 9080
39089 185 43601
5221 616 43366
26231 45258 1210
24845 476 51
1851 1021 44747
6573 1012 44751
12468 45515 210
43662 785 44807
13328 61461 35694
14726 62185 29343
14354 61992 17310
14283 61955 30280
13768 61689 39670
13033 61309 38693
14055 61837 25348
13863 61737 37375
14740 62192 23708
14032 61826 40685
13862 44881 728
39209 25527 1083
28299 44421 43664
6662 882 43371
27911 52637 6093
27943 53325 2956
27885 52084 9225
27940 53268 3819
27927 52980 19372
27960 53692 6818
27932 53100 20356
27930 53057 29445
27899 52396 10689
49521 27822 19024
49433 27890 34175
49404 27912 38069
49550 27800 8277
36637 26204 44518
56243 29335 44207
12065 44369 1011
26404 57786 43379
61008 13364 500
62354 19286 44096
36218 25749 8463
36242 25739 20014
36576 25601 7298
36566 25605 23171
36360 25690 21312
28505 51202 1033
27599 50406 26098
27766 50932 18308
27688 50686 13465
27577 50339 29019
27509 50123 4686
27347 49616 14368
27787 50999 26493
27466 49989 5736
27628 50498 24075
27500 50096 3881
56644 30596 325
26881 55335 842
25688 1300 1178
32466 26124 7916
32817 25979 5757
1306 289 22190
27895 38257 39348
28151 38874 32865
27891 38248 16923
27868 38193 37137
27912 38297 31333
17954 499 1421
47875 29239 1255
28466 40147 3003
28577 40995 11577
28530 40634 22891
28419 39794 9229
28483 40278 18661
28468 40168 14154
27415 44066 95
61915 16151 56
29772 28892 15786
29776 28881 3732
26486 47818 39440
26746 48225 32714
26813 48330 17709
25916 46931 37387
26927 48506 29416
26356 47616 41351
26557 47930 20899
26463 47784 19781
26776 44985 44740
45065 1304 287
15667 43713 30960
15723 42713 7442
8306 52693 43403
15781 43822 43051
357 102 4760
59105 28135 767
33795 25147 14646
33755 25199 29202
33762 25190 12137
17492 1034 44742
46986 28218 1133
10105 182 1208
34821 25757 14102
34730 25719 40040
13239 44411 14794
13327 44355 23074
13321 44359 16117
13030 44546 10954
12921 44615 3722
13033 44543 7320
13239 44412 16775
12531 44866 2920
13722 44101 23329
13563 44204 8581
13464 44266 11563
13641 44154 43854
27594 37678 36262
27480 37530 33965
27721 37843 18329
27540 37607 32080
36391 367 1366
48889 29122 743
59926 26330 40555
59935 26259 16241
59907 26476 37082
59907 26471 41913
59942 26205 34950
28300 55580 44160
62700 17665 44242
48435 28043 43506
28572 33858 589
28274 54324 145
27801 36225 10326
28113 35986 7933
27527 36435 16556
27831 36202 11813
25364 45692 44089
27770 54627 38119
27718 54865 32915
27498 55870 27834
27539 55681 11873
27561 55584 29869
27451 56087 17867
27544 55661 24611
27445 56112 21766
36190 25761 30246
1178 1300 27487
29749 32278 44631
16226 43971 43784
61630 14717 43456
9046 58102 1067
38549 25501 12592
12762 44717 17620
12128 45123 5861
13066 44521 4332
13461 44270 28552
13406 44305 29923
13731 44096 36637
12859 44655 12277
13384 44318 22449
13426 44291 30657
12713 44749 14628
56254 29757 1392
31485 26425 18785
28465 1459 44103
50277 27956 43804
51035 765 44810
58291 29931 44141
6293 213 214
38249 25461 18621
35984 26297 43531
52756 29579 43728
48697 28411 32525
48546 28474 36208
48712 28405 38314
54999 6946 7
16290 42521 30772
10878 22 914
28252 35879 26569
28256 35876 11773
28150 35957 22839
28245 35885 20761
16915 43016 22377
21551 767 43356
1453 796 18567
50416 26634 1321
45453 28437 20750
45772 28569 6937
45682 28532 9887
24240 60299 59
30678 27040 43610
43895 26887 43977
34688 1162 43500
18251 62014 43873
15100 995 1407
740 1460 14135
23275 61772 44655
39770 26211 28876
39838 26263 13238
39722 26174 8401
44586 26687 860
29865 28439 9019
29845 28596 13721
11677 1265 43588
28455 42039 7609
28374 42658 8089
28529 41478 9579
28387 42554 12975
28444 42121 9109
28473 41906 13998
28406 42413 6286
28482 41836 18349
0 742 29218
9736 56642 44351
214 211 18749
59088 28156 15760
58698 28665 14514
58898 28404 9093
59075 28173 10897
59004 28266 6619
641 10 8545
59378 22574 44792
16694 42689 28694
54693 6970 43367
25296 59580 17267
26135 58659 38173
25829 58994 12092
25899 58917 28208
25204 59681 3384
24981 59926 7016
26062 58739 3996
25075 59822 14422
25646 59196 27088
26092 58706 29151
60454 23956 1192
370 1366 8719
35378 596 44797
1345 340 38301
11465 46743 618
28813 30566 148
52351 29782 113
42071 27153 9691
41977 27141 23588
41783 27115 35086
28130 30343 38286
40320 26633 27423
40390 26687 12092
39977 26370 30880
12893 43872 44431
7264 134 43669
16802 42808 887
16839 62660 9915
16889 62670 21327
15719 62414 35076
16464 62578 19522
16698 62629 16187
16722 62634 11859
16568 62600 15266
16115 62501 38982
16705 62630 31200
14934 62242 42483
36439 25165 43504
41518 687 43357
27379 37397 39426
27373 37390 32744
27109 37046 37993
27461 37504 15621
27597 37683 23516
16863 42906 21017
27879 41176 43839
42927 1407 44344
35012 25816 30908
35174 25837 4623
16069 673 7
58013 29231 916
10961 45583 152
14445 43808 1178
1195 172 25508
28539 52449 373
37383 24989 28671
37398 25000 11508
23518 60452 1226
27662 44340 22952
27256 44868 5712
26963 45250 6154
27247 44880 19666
27409 44668 17697
27570 44458 11614
41563 27086 1021
30449 28060 40611
37628 24379 1180
59661 22550 1458
35020 630 43364
20002 1166 43503
48635 28437 28980
48509 28489 17435
48609 28447 22233
48421 28525 27776
53397 5866 44183
946 34 20587
1310 1166 23518
25603 46485 21826
52973 4217 1394
34264 25473 4799
34254 25466 3864
29436 35356 43712
31851 26230 40925
32329 26167 11762
32016 26208 29266
47543 1460 44093
8915 52051 43694
8263 54033 44801
15612 42846 13610
27857 45265 826
9240 55261 44466
54895 30174 15467
55018 30190 39906
54689 30147 30652
54652 30142 27183
54695 30148 33602
54807 30162 39384
22352 61566 44775
49340 27962 4695
48915 28288 5860
49174 28089 7357
15942 43331 30722
16046 43298 29014
36 951 27935
37908 25112 44782
55027 7650 44102
56895 29840 17217
56980 29804 15269
56477 30012 21405
37786 67 44377
46617 29494 44259
27825 31036 923
33045 25866 43308
33372 25615 34714
33444 25560 38195
15492 43244 18006
44850 28040 27411
44900 28078 31437
45031 28178 40534
31976 27069 44428
59677 21505 44512
60087 22550 106
25814 46771 14883
26273 47487 22607
25826 46790 13785
26116 47241 21388
26260 47466 10267
25849 46825 29725
26033 47113 22110
28401 42448 19986
28378 42626 39197
28455 42041 26005
28379 42618 2347
28490 41776 8394
28377 42633 22114
28370 42687 37523
31379 27478 43410
21463 1191 44643
60026 27720 276
27264 56553 9177
26816 57418 17542
27234 56610 24544
26546 57941 5673
26692 57659 15902
27371 56346 15972
26781 57486 2923
26516 57997 3335
27204 56669 35008
26982 57097 26993
32273 939 1430
32572 26094 1
122 330 15159
50217 26827 3610
50198 26875 25688
60317 20860 43529
27732 36278 23164
27536 36429 27161
27752 36263 15019
29007 42709 1094
27080 49550 1419
60209 27644 43889
22391 1346 1120
8487 54939 28601
8631 55391 19835
8431 54763 14261
8571 55202 23109
8645 55434 35025
8726 55690 26159
8613 55335 13381
8450 54822 26001
8636 55406 22381
10020 47441 43362
13946 43966 8112
15271 43545 41458
14187 43890 31850
29012 31583 43037
28948 31429 15831
29137 31885 31322
29104 31805 29355
9295 48661 21463
9662 47951 39421
9208 48829 40942
8852 49518 38097
9862 47563 42090
9090 49056 39653
9508 48249 38570
29470 29473 10166
28659 32569 44430
38501 770 43356
335 1342 25478
27731 44245 38449
28071 43425 33333
27764 44165 32157
27777 44133 42553
27826 44016 11905
27925 43776 19819
27980 43643 43262
56771 29891 37210
56955 29815 26870
57367 29644 23965
57454 29608 21720
57517 29582 34761
38969 25476 21986
39002 25471 16521
22257 61747 43367
46300 28738 22348
46404 28752 21005
46423 28754 24450
48396 29200 43691
62353 14775 85
55578 30149 43980
7019 605 1446
22482 7 800
1177 160 42439
26044 58202 44733
58780 28557 37356
58760 28584 42562
59048 28209 30954
59379 27777 19542
59384 27771 16454
27207 52732 543
42437 27123 31514
42668 27093 30033
42868 27066 10987
16521 62065 1252
11938 45245 8637
12092 45146 24607
12179 45091 27037
12885 44638 25891
12348 44983 38581
11891 45276 10224
12666 44779 24508
13799 44051 41216
13149 44468 35951
12021 45193 29087
13255 44401 32384
43448 26874 30059
43582 26819 31241
43159 26994 43313
43580 26820 23919
16911 43009 7837
