ply
format ascii 1.0
element vertex 2791
property float x
property float y
property float z
end_header
2289 42339 33435
18374 4556 40514
51448 20883 28120
21374 6866 43376
27124 20351 11893
20820 27914 2720
590 35625 27647
38750 7877 45347
45378 9921 43332
18879 19456 38978
6115 45047 18103
36416 2760 42343
20901 31598 47722
27889 23972 40762
3310 56580 34362
23738 18182 8918
6058 64072 27677
18795 20942 13729
47160 7741 40991
9101 6441 21787
24110 27191 1489
46046 243 24137
43238 310 26026
43919 295 25948
47325 212 23289
48766 178 22113
26964 20238 11371
40053 19297 44128
32226 28360 8731
41720 23016 33329
19093 28569 21511
20129 22864 34974
17915 10072 43340
14649 17842 9897
24179 21699 32052
6909 35595 15124
17293 7649 41883
37523 23554 23710
50172 3544 31141
19745 9178 43791
922 57446 29379
18259 17224 44528
9220 44061 23536
28329 17477 8453
54480 16127 20563
6591 14877 35121
16534 19813 41077
16573 33631 27061
33364 4323 44096
13820 21179 12888
6423 10570 22442
12829 6017 15364
8084 53210 34602
29506 7215 45392
27630 22278 19255
25267 1492 35798
20442 1492 36321
24591 1492 36283
26425 1492 35870
33674 1492 36817
20564 1492 37883
28959 1492 35568
20304 1492 34966
15109 29205 5974
32555 521 24402
1903 57095 19873
21518 17099 10441
14963 27824 40476
21482 32146 5975
34607 1492 36233
23847 1492 34883
22240 1492 36704
18598 1492 34044
21371 1492 34868
32926 1492 35837
34171 1492 37607
29118 31796 7380
18977 30084 42479
54398 16850 31300
15754 29339 14659
2271 24781 29228
41718 6323 43614
30773 20762 41508
36742 21219 50865
26578 2027 10578
39176 5393 44034
11267 27216 10817
18132 20351 46917
235 40507 24489
34678 24253 42841
23403 1492 25559
45874 1492 26695
26153 22311 28850
6380 26731 38440
28283 13747 5454
10539 21556 41006
31274 20416 42513
23109 2273 40979
35426 18954 7189
6411 22647 38231
35432 21949 39656
47704 8884 11319
11637 39329 33161
21580 20310 13326
9180 19905 12175
7420 17666 14532
32583 26126 9580
780 37820 30048
43381 22384 35678
14075 37302 26192
9694 51562 32273
3811 19234 31089
13591 37873 28506
20937 21604 3924
5274 25365 14990
34618 28296 7545
28837 32242 45425
8674 6102 27274
34095 14706 47351
11380 25563 11821
25248 416 22488
33009 22748 16877
35235 23046 34595
26569 11909 46443
18724 6585 42069
30739 21966 14635
48434 2194 21713
36577 20569 43493
17746 16914 42482
42451 8347 44290
29280 20841 11691
930 33527 23614
7091 14692 35877
42064 12164 6727
32785 29287 51853
47114 14722 9357
21593 26898 40591
52634 19514 31298
13766 2101 23395
35618 21071 51090
44813 8539 9279
6354 30304 38049
41061 33 11007
36887 14266 5141
48015 11198 41721
5619 35010 15446
7199 43939 33983
25835 20359 12315
353 47744 22910
3729 41848 34645
10028 36929 36843
21021 24962 26117
26364 1492 39522
54529 15547 20298
44813 22737 20172
17295 30780 45374
25673 17754 7715
14702 29816 7704
23044 19687 39567
20197 29749 10166
19775 16958 41717
25060 13203 46322
5693 17041 34738
14951 17730 9542
29603 18856 42086
52304 20211 29230
24957 28563 41920
23128 20703 15658
50082 9373 13638
21369 20159 47977
10292 50959 23976
13577 29199 42103
26456 19412 3464
49791 18680 38315
28783 32952 5824
21834 21404 25030
53790 15113 34290
29799 11212 5574
1574 39604 19895
21120 31522 4306
1216 35148 21414
34259 1492 26093
6497 23920 13829
23029 17197 42262
8228 12861 36592
34025 23459 23691
31947 19551 10054
22780 15372 45344
2198 30555 32617
1483 46606 20173
27361 10297 6156
23034 24744 40021
26102 9963 6500
999 40399 21218
9227 57560 30182
8250 30822 38708
22537 31994 48443
26174 22367 25414
30416 3078 9203
10344 51040 24459
20125 5842 42307
5385 16668 33786
43382 1633 15269
233 39573 26772
25714 11968 6082
12443 37206 17391
17652 5479 40750
33307 23187 544
5263 39158 35899
41854 23438 26671
27273 4565 8658
27006 29580 652
20362 25529 21345
21051 20366 16526
22183 1492 33458
39057 1492 34485
38515 1492 34704
18698 1492 33369
4250 63210 31819
3346 37094 17318
24522 21839 31281
4856 21959 35781
19709 19726 47205
6160 21702 14683
48731 16983 40965
32347 2978 43155
35403 28603 50296
29102 1492 39796
11952 9638 39108
44652 5061 11227
9617 32370 13891
46904 22261 20096
18787 24654 48666
53924 12116 19081
1995 62482 24329
38821 20445 46404
30634 18779 3163
38131 5801 7867
1222 53607 31595
24375 20574 38307
49647 12104 40370
18722 30032 26476
13586 29214 44824
7376 42254 34895
12274 10450 39979
13902 33224 36737
49835 20099 35834
53013 12130 35470
49511 2680 28225
28318 22589 21123
31728 32548 48158
34423 30634 3496
29556 10460 46555
22111 21390 22676
18308 21819 47567
43052 21913 37825
28563 25539 41439
19203 21517 37821
2870 41160 18186
50816 14881 13010
41962 3511 41480
15107 4602 37863
46475 2565 36084
22696 13377 6648
25400 17274 9219
14012 37130 29946
55118 13501 29423
93 46280 24394
31814 17934 45833
23838 29243 50689
21493 21941 28892
21167 24265 24752
33570 31419 47890
34330 30669 49058
27466 17966 9945
2877 21921 29169
27514 472 23753
47756 2599 34117
23358 32629 47257
49840 11359 39932
6539 11958 19807
17888 1492 30506
16521 1492 31360
39420 1492 32467
19898 1492 31860
44269 1492 32370
9940 40117 17481
7319 9072 30367
28349 23710 1109
24260 22247 49711
12804 5257 16483
35356 15704 5231
9389 14523 38961
12902 27564 40663
13437 22958 11105
53705 8283 22580
18657 22687 38844
13825 27014 12414
16434 246 27157
14057 185 30671
22854 383 27904
13565 180 28576
24910 430 26850
38266 25445 6198
33781 1492 40431
356 50563 23143
28026 22608 21819
2314 25360 30081
2225 35930 18852
13555 27224 5716
2655 63686 26490
34785 20495 43082
25946 12769 46450
13599 20836 44624
4744 17812 33027
50026 4754 34518
12962 17206 10429
20747 29126 41753
8110 45192 19230
48712 15832 41454
4666 19189 33847
34799 4432 44159
31783 20619 42175
18804 3236 12717
2679 23080 22968
53371 9763 33055
37052 18885 45404
7198 60217 19099
33054 11666 5255
14590 18039 42836
23968 20549 14324
0 48095 26290
23595 11579 45757
18817 27937 18883
24322 32694 3985
15485 7279 40446
20656 19096 5209
31952 1492 41420
27235 1492 26018
27830 1492 26673
19376 1492 26722
19520 1492 27524
32129 1492 27027
26650 1492 27375
13240 33992 15609
11805 22067 41834
9405 53668 19480
16960 27760 11896
18702 21695 38647
2755 43271 18564
39364 19597 43924
20971 1677 38854
20903 29819 10051
27973 31182 44162
25929 32628 45657
42680 10865 7286
32331 20823 10445
2145 24866 28481
9897 55026 29819
55328 15034 24339
15779 17441 11777
17948 23089 13393
20812 24552 22268
32933 27116 9049
13534 18969 42150
28333 32410 50631
10893 15767 11623
40670 23233 20278
2715 62769 30623
16355 29454 10575
21618 29251 2583
4344 62405 19507
18066 30888 22918
41918 19806 9556
35054 6029 45048
29800 22939 11293
53110 16769 34989
11634 28529 39714
37476 428 24367
22116 21211 13269
3878 64313 23985
3986 20260 32713
45809 20697 13361
3731 41358 34739
37388 23390 20710
45597 20628 39334
28615 1492 10916
10878 24182 42791
51458 5809 19309
12753 21753 40242
19425 2397 39125
12274 3236 21989
27382 27543 51913
53709 19142 25555
15453 27784 4944
16605 18984 13499
14860 20570 6934
9283 34132 14424
4035 36994 35683
33648 24804 9719
36421 24069 51429
22481 82 42072
3846 17876 22917
48429 21901 31426
45102 23053 26256
43498 225 36059
33185 512 27948
42629 250 35309
45599 195 35587
39631 316 34369
17394 28345 36432
24260 23731 2098
39012 16113 5855
31142 25851 10126
30011 1007 25577
30654 1492 11687
9824 30764 13404
30268 17819 4557
7794 62021 25238
18415 30977 46429
4201 31925 16178
35043 23299 9641
5293 60849 18384
15617 23571 40605
3143 44775 33864
36477 23027 17588
30757 9433 5967
11327 23870 44146
37101 23802 51060
1953 31509 32238
23435 19081 41788
18270 25531 15120
32842 28880 44195
1514 47447 32142
2413 23053 27256
37643 24114 1777
9773 42431 23082
10562 26506 42826
15962 18054 12750
180 49608 24074
26305 8409 45373
3100 22994 20595
20828 8283 43796
18795 28594 19882
12579 22353 7703
3448 54417 34508
6174 46078 34249
8915 8180 18946
29469 416 33085
23830 18796 9855
24703 32640 3448
45424 2216 15845
40177 16502 46089
29469 26855 52244
13997 18634 42863
29678 31091 691
2190 26592 30507
7102 55385 17315
50213 4646 33936
26281 18426 10998
4198 51175 34764
10078 6711 18848
20938 1910 39336
27666 29698 9337
34776 25188 43200
35209 28714 1928
7059 8693 24501
4146 16611 28920
34967 30148 48154
16874 18096 10918
29736 31687 7307
54020 10666 20354
32928 20900 10426
45542 22943 24460
51367 12427 38296
13717 7522 13177
19644 31548 46057
34452 19344 7701
13287 2828 20499
52115 11916 37051
49017 21838 30216
14610 21887 13289
31350 31715 1482
5536 22152 36989
8677 58010 32087
20108 15707 8036
11377 3631 23346
1534 33552 31543
31052 14875 47163
46669 22637 29291
39395 23568 26944
3828 62108 32880
16649 18815 45441
21042 22812 13230
18751 26507 16906
5745 13885 32343
31552 677 27514
18398 28221 40876
2786 56184 33916
1404 29385 28000
25905 29607 980
3244 34781 35001
31190 21928 38188
32605 29680 44595
28509 17547 45585
30838 31103 51539
37116 1492 14632
41552 1492 14389
36678 19490 44229
11822 3188 23927
47115 22649 26570
9477 42348 32799
4101 43944 34409
22190 30099 2588
26336 22788 50462
25654 21841 12447
27529 17209 7484
17374 14606 43854
2886 52897 18227
42292 1597 14397
23573 21555 20273
10232 15518 12215
47919 4931 14403
14332 1690 25165
52037 14536 14679
8690 59058 21753
17145 19506 38648
30072 22440 11255
1724 38237 19635
34524 29105 50878
41533 21977 13964
30474 5102 44430
29543 25413 41647
10339 42023 27230
6390 50798 34985
51091 9499 14946
20575 5451 10125
15063 12250 42670
53150 15963 16975
33280 1492 34509
29517 1492 34183
37784 1492 34908
5315 19087 17150
10935 6821 17142
9008 5533 26338
1840 34038 32482
30742 22748 19099
26317 21912 33935
14472 26963 40103
26902 33294 3916
26033 18585 41140
12332 28806 42554
38020 23167 33793
27383 6040 7834
45871 4872 12344
38101 22451 37691
6355 63489 29679
20407 23335 33671
39872 4990 8795
25903 22214 22252
26032 24649 1334
34652 1492 14285
42112 1492 14970
9238 43002 31563
27707 30134 43333
27717 32850 49914
6845 16100 16112
31478 4013 8518
25702 32829 3162
24974 9590 6829
37180 27226 3410
10266 41297 32658
11860 28124 7693
51338 10598 14737
16265 30333 43426
17922 1492 35179
45841 198 17316
43122 218 15226
44110 224 17031
44266 195 14973
45526 197 16841
41775 252 16083
29833 17653 4984
16088 7529 41037
22086 17486 11121
53934 8315 24003
34401 18029 48531
35475 2189 10463
12060 27472 40045
4362 36282 16368
14405 4149 36538
4626 63878 21751
4745 59541 17851
49552 13239 11650
7029 10226 20872
50251 21504 28378
37386 22303 13922
26551 29170 709
11123 15028 11596
11181 40135 19739
8590 48507 33535
37709 8457 6546
14205 25087 5431
46502 7045 41075
23777 17369 10216
3900 19859 32115
34232 19939 43915
30065 23049 24133
39464 1492 39076
37501 1492 39553
39013 23286 32405
52047 20124 30912
35881 25571 43886
12542 9433 12834
50508 21336 29096
9948 49121 21862
31337 22855 19291
601 55966 28381
24403 6551 8222
1443 57367 20975
30898 21612 51014
13159 38488 24844
18739 29706 10285
29101 33330 4248
1642 31177 21249
25804 32001 50322
19179 29127 28081
11639 35760 15631
19983 1492 17805
20627 1492 16905
18598 1492 16607
27101 1492 16577
28032 1492 17603
18857 1492 17205
32202 1492 17352
34113 1492 17559
22619 19110 11089
6395 47547 17888
27174 5614 8103
1414 59502 22219
21860 17122 45144
37186 8163 45821
12857 15131 41935
27435 22770 50721
27857 22647 23604
21711 16300 7777
24723 19736 41007
10155 49030 28274
25012 17658 5601
48121 22278 23523
6531 58873 34422
3010 22597 21602
17052 8042 10388
5954 28485 14404
30287 15174 47023
21744 10683 7353
1634 27369 25584
26536 21247 37571
35691 23509 28863
30755 24624 51938
17566 32053 27515
50548 7424 15589
37015 23032 34728
32649 22797 17515
19785 17594 6825
24768 18519 47791
9500 46489 30441
1182 36954 31311
590 41884 30042
36015 22549 37398
36611 22950 8979
31514 1492 40828
91 42937 24842
53861 9585 31271
11483 7373 15769
26470 4155 9051
28825 32104 1429
3511 31281 17055
11523 28372 12597
33424 21377 10252
30890 23150 23530
1350 60401 23812
51986 13071 14789
18994 18312 6326
8179 7345 22683
33615 24305 351
32564 3840 8584
9436 24665 40252
2892 24223 31839
21402 24338 2842
40966 16522 6535
26004 20817 13650
32588 1492 11211
4991 38284 16354
15535 2965 36146
19498 20259 13716
9226 54735 19357
11434 40705 28624
53331 7253 29218
44215 5280 41635
33955 22973 34749
38824 14747 46861
50108 9956 39036
43271 282 20819
40521 345 21688
47854 177 19282
36458 450 24488
39929 362 22390
36300 20330 1785
23814 21717 30754
47335 21230 16224
17556 24900 38558
4105 59349 17968
16280 4160 13827
38230 22732 50146
52187 11052 15906
9035 43199 20412
6911 59951 33686
10335 49959 26000
27179 33146 46727
21237 1492 14734
19488 1492 17077
32267 1492 16801
31685 1492 16105
32615 1492 16379
39759 1492 17699
24934 18438 11453
2434 29704 32965
22043 30891 3074
31616 987 24873
29433 22468 18482
6285 44824 34181
26606 23916 11930
18584 18431 39192
35790 26676 44462
5040 56493 17230
40676 23418 29774
2050 25103 27626
32128 1003 27210
9781 45959 27517
4093 24241 17181
23085 18004 43419
48925 5895 14663
8657 8245 32985
14263 29123 45780
40344 19284 8312
48355 2881 33737
45284 20097 11854
12520 30592 13564
54610 10030 24918
3766 39881 35019
42393 20456 41588
34649 28277 44832
48702 21667 20201
17121 18819 41021
47956 8486 40583
4063 41153 17363
28521 31970 51052
37922 1718 40778
4207 59082 34478
46883 2077 34007
45833 11001 43352
44480 7972 9337
47930 22424 26798
25057 2902 42175
14675 198 30648
17385 255 30343
20838 334 29173
20831 311 32104
26505 458 28000
15132 182 33606
29390 12279 46930
55237 15289 28763
20652 18334 12670
42904 23112 21050
35355 20279 1622
379 52072 28933
15679 24522 39296
19083 27400 33364
23088 368 30534
23633 382 30340
15120 190 32611
16860 224 32753
22681 29437 10185
47736 17262 41689
23601 16674 7464
22947 1492 13711
37224 1492 13616
25378 22975 50289
30451 31320 914
49043 21465 32559
30466 22572 41233
2395 24752 22446
19267 24396 36186
46730 7817 41357
17188 27336 4106
32353 23294 29170
21686 16856 9094
40185 15519 46394
14 44212 26744
10780 5003 31889
16060 21191 38708
32171 17544 45904
33035 22921 17984
21540 22908 26346
27493 28258 42196
11026 22846 41021
17551 20889 40121
9061 45949 31673
46048 2097 16930
343 54180 25137
46364 17006 9450
13365 24166 11384
48163 20008 38179
8468 43419 19083
47470 2916 35431
30147 0 8146
14441 35600 33163
3723 18139 29162
8367 10096 34521
34127 21206 1121
30291 9830 5905
7884 28018 13253
3794 24812 17582
3673 31355 35540
23919 21196 12862
15245 23387 46905
38219 4463 43691
33318 22358 14670
305 49257 29012
55031 12601 23039
9671 11825 14436
50751 6050 35009
4770 48365 17813
53761 13948 17971
48993 2498 29855
38147 22323 44410
9194 26023 12441
40293 1492 37598
29384 1492 38101
14360 18025 10332
16 43927 25862
6986 31560 14204
11315 40209 20504
52910 6595 22793
16189 11800 9252
16304 9485 10069
29419 25327 10786
48132 21293 34933
17312 30828 7442
36866 26975 6766
29763 18584 3530
8597 45402 32438
30538 27478 0
20134 18032 10467
28624 22761 29494
12475 20839 41374
38936 20738 4336
19342 28823 24439
10515 22352 11445
20985 31940 45539
25905 7517 7416
28368 7731 6872
16541 18865 38936
47851 11425 10406
19867 26761 21351
11596 4858 33265
14492 18556 8830
3168 20373 28850
43565 22580 17672
39120 22539 37112
17473 1492 28879
44831 1492 29302
28445 1492 29834
22405 1492 28974
29463 1492 28769
30236 1492 28991
37183 22139 50911
18176 3450 12969
14660 35537 19799
6691 18767 37376
24797 21332 2842
32214 8478 6242
50018 21707 26206
34604 19661 9254
28896 18616 44623
17814 27066 40198
29883 19182 44167
36948 11741 5414
5779 58306 17517
4129 28951 16360
30580 1492 34763
40631 1492 36432
24216 1492 34113
17581 30563 19172
3746 60112 33950
16644 18363 39203
14444 20586 13126
30602 17545 47112
54763 10656 24717
16173 22972 47157
42245 1492 17008
40353 1492 16805
19357 24933 12778
3180 48653 18370
26611 30868 51278
8489 15812 38403
5615 64291 24558
11932 5075 18001
33412 24769 42563
6009 27183 38105
13134 28001 12638
1694 57285 20348
28583 21757 37012
20000 27536 26734
40728 19714 8993
45964 21697 36116
4268 17294 30789
3698 17611 27401
5814 49402 34782
4701 18005 19299
24865 19961 48886
11695 7724 15078
7121 26053 39013
35340 18113 6754
49956 14486 40395
12984 4713 35378
24528 377 20441
19733 240 16365
19092 225 16138
26027 415 21323
20766 292 18972
16634 16947 10392
15661 1492 22835
17359 1492 24048
30593 1492 24312
34266 1492 24489
25351 1492 24305
31162 1492 23775
17357 1492 25023
1623 48553 19909
32637 5961 7337
27268 20067 10787
33489 284 13319
31405 246 11263
32393 365 16871
32769 419 19476
32544 261 12139
33401 240 11232
44484 13141 44663
40235 255 37483
35054 411 32453
38617 285 36915
33889 475 29553
38434 258 38633
1556 60240 22332
36785 11228 46873
37709 242 39697
36067 301 37463
34311 366 34981
38367 241 39488
34472 327 36901
37536 258 39009
9376 37432 15557
25558 32661 6618
874 58388 24561
50984 12328 13580
16499 25318 4425
43581 3107 12414
35917 22056 13034
39400 20961 10685
10041 11972 13854
37536 13022 47083
21624 21536 24486
8602 6488 23519
22255 24472 12562
49816 8509 38561
7547 30712 13847
43277 18051 8327
5435 26964 37570
35631 29232 47138
40588 18179 44995
19924 14437 44755
23571 2028 40850
18094 25999 15156
13334 21048 41638
19881 24423 34527
35202 23453 30295
12027 3252 29618
15872 27107 4621
14252 36022 32814
45122 6584 41856
5594 29656 37595
29944 22992 29158
19898 26683 31037
5890 44598 34323
7168 37115 36917
17476 32222 25334
33851 25014 297
2739 45949 33545
13017 38202 31331
21203 23902 39475
30546 21719 41249
7032 63024 23865
21505 21238 29930
23016 23353 12777
11417 9516 13899
2168 61193 21167
31708 22152 37566
13922 15733 42309
18080 23897 13938
14715 1515 27128
37500 1492 11979
20651 20660 17952
50137 21331 21762
25712 21655 17561
20471 20029 38853
719 46239 21729
20681 23347 19849
35781 18009 4978
31218 23130 22552
52293 5124 25535
10082 47861 24866
69 46752 24605
50882 20936 30530
16845 32789 30659
1861 40914 32923
3149 22570 20797
39455 260 14613
38274 301 16113
38327 286 15303
33996 465 22255
37588 365 19248
35181 424 20844
15715 34822 29011
22544 21729 39219
3311 23008 32523
10693 31140 38878
22400 21469 29411
24097 26313 11641
29804 23006 28308
45360 9208 9312
14565 198 22615
16521 240 22351
21664 357 24513
26045 455 25131
19034 296 23117
24196 415 25228
30783 1492 39301
29259 16618 6082
39009 24184 4738
5564 18937 16745
996 44199 21062
7576 60480 19944
39475 18412 45141
26375 25909 933
7617 22298 13025
26120 22128 31929
4895 28711 36954
41526 19464 43465
44486 2115 14985
685 47407 21793
30660 1492 21306
28764 1492 22289
43984 1492 22383
35875 1492 21195
34999 1492 21124
23435 1492 21889
28446 32070 45144
1138 59187 23466
21187 15049 7379
3505 22138 19759
38560 25352 4611
7342 7824 26265
8268 37042 37036
12049 16902 41642
4294 31370 16063
48414 2273 31160
8131 43505 18740
3610 55536 17722
1105 58278 29759
14724 18961 44215
36057 23169 18699
23905 22969 12700
37578 22842 16483
21127 22311 21194
31900 25651 42396
31550 23196 29455
11449 28151 42583
43488 1565 36772
1929 37913 19273
26554 1857 41569
6403 23468 14004
5043 15276 20887
7326 52715 34959
2515 61548 20629
5070 32790 15463
31937 15902 5403
8886 46106 32242
23172 3973 42355
10382 8395 36181
49519 21163 33223
29390 28491 9626
7380 52606 17391
31843 29970 7951
20429 26456 27087
17337 29332 35651
7803 41302 17070
34617 30122 49637
21673 24947 12483
36115 21241 1322
16554 26645 38623
31982 23258 23101
17217 3648 38750
1776 30231 21250
8042 22785 12704
13992 22912 13039
9291 40131 17024
48331 21021 16736
49397 21834 28737
1861 26765 23691
1121 31146 24790
51500 7443 35101
33706 1492 28086
34780 1492 27506
34766 1492 28279
45507 1492 27040
36186 1492 28370
29004 1492 27881
51320 6179 34067
31890 198 43235
31417 183 43987
31782 290 39003
31238 290 39061
33707 290 38797
34187 297 38343
38079 1492 15090
32288 1492 14841
34450 1492 15275
9576 49027 20372
1994 30374 31986
18989 31057 8415
28144 15097 46731
40078 11254 6178
38906 20401 42894
39318 11238 46362
40020 7898 45057
22259 18519 42251
30239 18266 48553
41403 17131 45404
4160 37102 16611
30646 1492 41635
21674 21176 31193
42579 18179 8109
27906 23554 11696
35353 22032 9671
21792 11452 45244
29274 2885 9438
7778 23515 39519
1317 46846 31846
13252 24548 40894
21731 25898 2442
20677 21807 38885
740 34960 23938
19682 27396 21980
35033 22602 15236
50016 3770 32394
4190 34364 16321
3993 20086 19772
49059 2306 24843
1455 30709 29934
42017 21204 12129
6234 11459 21623
38518 20209 43243
49457 14424 11439
34701 2745 9689
48347 2681 19213
12579 39190 24120
21090 21237 32197
47085 4088 37990
2014 58502 20063
10185 48432 25696
31774 17494 5731
2490 23526 28916
32602 16364 46851
2597 59851 32872
12314 38431 19037
29669 1492 11847
17950 22790 4570
8365 55255 34185
48587 6492 13722
36659 18512 3906
12489 32856 14572
30457 203 42999
28424 229 41527
29385 327 37186
28194 272 39501
30533 216 42457
30695 286 39207
28309 17952 7185
21871 20216 37352
12980 31756 14250
41401 7502 8014
11260 18404 41321
43584 23267 26700
23340 12498 6528
20526 25589 22547
35277 7128 6825
36068 22392 38062
5428 25630 37580
21414 23216 24569
7664 7510 25264
20802 19706 38197
2174 24600 24231
44048 2125 14560
26496 20255 2909
10335 9523 37068
20638 7040 9205
53442 12331 34665
46688 19026 41023
34125 1492 23026
39838 1492 22782
40456 1492 23245
26111 27049 41378
38652 180 9960
32068 506 23407
34816 286 13618
36392 271 13547
35983 248 12231
39383 180 10276
20455 18969 39211
36921 22127 39066
5718 11648 24235
24643 24732 40302
27281 20764 2472
34697 19905 1783
7620 61979 23218
2705 22339 28571
33777 17658 46868
10115 53411 22410
43260 13086 7074
20603 22101 18534
42166 15009 45791
50761 20095 18092
32231 467 30786
30100 24127 658
42043 18973 8586
30144 27458 52349
19695 27000 20927
14839 1837 31682
2324 53937 33508
29656 19759 9219
18376 3093 39215
1048 32986 29186
7391 9561 31540
2636 40064 34011
7909 11459 35010
12686 20271 10526
9355 55585 20128
36483 28360 47340
20393 26326 23913
5678 59060 34609
54294 11275 20919
6554 51942 17225
45607 21609 36765
8631 6056 25695
44173 12091 7740
24584 9025 7097
1206 56452 21314
11907 24918 6950
51734 4685 23289
45204 21036 38777
1187 59437 28858
0 46196 25643
10719 27085 8978
43711 20059 10795
11943 3698 31243
9863 5372 30112
32814 9063 46360
24020 29239 10167
6943 21336 38509
3532 20424 31004
36051 27940 2277
36941 18654 7010
50306 20019 35322
18599 26561 35788
15015 21344 45915
31273 21341 12124
15288 29619 45996
8010 55936 34395
4121 53691 17473
2959 20201 25798
33199 31240 46597
13967 23273 6181
10711 4443 29895
37323 22679 8577
15934 11065 9603
29627 29469 9043
38000 1492 18538
45376 1492 19205
28381 1492 18478
35630 19156 8389
53309 11262 34353
15988 140 35931
18226 30093 9858
2911 37709 17836
8672 53393 34086
31069 22946 20514
1738 33937 20155
6393 35072 37222
26097 9855 45837
18900 5130 11166
52750 8975 33912
3191 27001 18354
10488 4213 27917
26795 19243 43007
11963 6450 36279
23890 31927 2908
49452 20694 17601
37285 427 28581
46733 184 34917
47979 178 32550
42953 292 31072
40546 340 31054
47259 208 30727
43632 3880 11514
35420 471 27956
41515 321 31159
46791 210 31663
44706 237 33360
41375 22651 16664
39134 21144 46687
21792 22622 3256
30246 19484 10551
2332 50482 18865
1137 31337 28322
16675 27109 40141
30127 22608 33665
26976 29817 42988
26840 22929 1728
4430 25449 36167
9819 46195 24651
19210 23685 15658
11159 21984 11194
46755 6540 40559
48298 1855 27410
30784 23171 26644
960 37250 21718
22454 17048 42516
25287 1492 38792
24717 1492 38329
20354 26654 25566
14329 15448 9888
17002 29242 36302
15884 24136 13180
33314 22114 845
8225 18677 13199
12193 3840 20115
41761 7900 44378
7174 59810 18805
10938 41272 28958
2630 31217 33778
49034 21002 34565
786 53905 30283
28638 218 10326
31219 416 19116
31093 182 8267
29501 336 15670
31169 392 18025
38898 17142 46099
16635 33352 23074
10967 4370 30557
22463 356 21883
24212 402 23154
18024 256 20555
25182 427 23832
14777 187 20143
44987 11056 8462
12834 8297 13385
4710 21243 35137
886 42847 30961
7655 59965 32721
3909 26728 16985
23535 5226 43216
38644 5635 8077
261 42580 23631
6281 21864 37902
1900 41719 32979
9274 43710 27788
46773 6812 11653
12970 25990 46418
7243 12696 17476
29537 17341 45932
37160 22796 36195
16180 2147 17322
44476 19331 10197
6702 10038 22387
36640 4181 43825
11312 39101 18057
28228 16672 6309
24312 17242 7664
10502 11655 13487
27172 24745 51349
14657 24753 39448
13536 16674 10243
36374 25230 1050
5393 12194 26137
810 40065 21772
1542 61348 27636
17597 255 21475
23773 386 22341
15329 185 18554
21519 333 21366
15007 197 20862
42378 10315 7335
25386 16728 6996
9601 5146 28001
32401 31736 50084
20528 20721 34849
42398 6950 43675
51641 20077 32378
24144 26231 1564
8208 13463 36909
35351 8389 46076
5740 12027 22792
6950 17962 15017
26917 17311 6213
19605 26623 19729
29976 4890 8099
24039 20794 15145
33251 8061 6367
8835 43763 21900
3059 63753 28906
36939 22742 43557
5118 27422 15154
30042 16406 5846
422 37219 27209
6740 11900 33035
9981 37513 15757
10324 19934 40913
5284 13332 29646
19092 23278 48402
16083 30109 6536
48153 22367 25886
33246 2915 43106
41645 23459 25812
11739 32943 38025
9638 47743 31161
28155 16275 46194
45915 22745 30195
4814 13998 24892
961 32233 27258
4910 17127 19468
17425 18149 41226
16525 5036 39528
8977 30269 38986
13334 26662 5751
6000 24269 14313
38786 22902 35356
45662 10733 8978
840 32959 25722
32143 21444 51156
6216 17929 16140
15312 35308 22675
17457 21878 5110
24741 17324 46048
9436 50673 19571
36565 28162 3659
47796 1848 30532
1876 47283 19651
41925 23415 28071
23096 27606 11227
19682 1678 14503
3702 19151 21925
2068 28799 20953
11394 3399 27413
39692 5096 43712
52481 15249 15458
8223 46512 33333
12227 21351 9204
41914 7767 8107
39861 11384 46278
41060 23279 31326
3281 25117 18702
18292 26749 36241
35052 28812 6752
19980 17771 12247
9954 53063 21245
42393 23343 28716
11393 24390 40804
49020 3107 19406
38422 21817 49803
26754 30174 9168
14972 21159 10965
13355 15537 10199
53962 17791 31316
30593 23208 853
24981 21218 36261
36543 21319 41380
2211 25527 22755
18874 29495 23429
15997 20021 41279
30177 19372 8429
15800 33492 33474
32115 17651 45295
43783 1492 17351
39311 1492 17184
38427 1492 16647
15503 27628 12016
39867 23072 33829
18398 1734 36762
9813 56260 26838
17935 26213 12506
32932 21589 40182
47305 1492 29349
30515 1492 28078
29877 1492 28063
23523 1492 27902
268 53226 27349
43070 7518 43636
22304 6225 8980
6199 14668 18197
1863 45670 19606
22847 21503 30629
15977 28900 11129
16204 23559 13339
13417 23160 12792
37968 22625 15430
19326 30902 47546
5886 63525 30661
38547 23588 25485
29162 22797 21919
14302 20499 45006
51603 20567 22417
33990 29916 50762
43213 22976 32295
43935 23176 23902
14530 27092 47153
3652 23104 18744
17095 32275 31293
18660 20329 38547
25913 21979 32951
51229 19327 35192
5404 12905 22847
1770 26340 26349
26092 9211 45645
30390 412 33338
28804 261 40147
28627 301 38207
28642 206 42636
14092 29380 42216
20746 11336 7493
1983 25745 24208
938 34479 22866
17132 24153 39178
16124 30436 44485
11527 22879 10688
7633 7845 23579
30837 26400 42350
9548 48141 20658
41359 342 28867
42990 308 28537
47912 196 30597
46546 237 26285
44774 275 26397
18160 16664 42888
40483 230 38685
35973 371 33988
34244 447 30901
38420 300 36217
39270 300 35589
5214 53732 17167
18607 31220 6671
25976 20209 3063
14047 19211 12308
49734 20114 16420
60 48697 27283
38791 22071 7144
14414 23841 46663
28083 22739 26240
18073 23982 48246
5676 52411 17171
28524 22306 34005
30390 1721 41976
19579 16531 43567
44260 21371 13801
24724 21632 18711
28470 29608 52031
15074 1523 22661
13519 29422 43176
15019 18684 8128
525 54603 28724
33407 31557 3764
6991 8684 27252
11649 40497 27643
29663 23024 26112
20282 20157 47617
12370 37974 18251
13905 29485 44477
18684 21709 13820
54457 9523 25049
4710 39841 35512
31902 14180 5063
2301 25818 21929
9762 6329 32316
31595 23169 41617
28720 26621 271
11513 26550 11361
16506 32870 20108
1756 40727 19589
8995 59201 26557
4769 49418 17658
40039 18823 7765
9519 5114 25208
17970 24495 48341
19964 4608 41468
1274 31004 23226
9366 43860 26800
28949 22820 22993
4742 14700 29021
26666 16803 45608
15668 26363 4667
48024 16775 41700
12184 23891 12057
45872 252 26020
45042 266 24862
47226 212 22259
48075 195 22541
38178 416 25213
51530 19544 34136
26839 28150 10356
7146 61745 20610
39266 2188 41034
10271 53636 26072
20998 30387 42854
25904 27063 51459
29797 21296 12791
4062 26970 35707
9984 48274 29459
51041 9137 37268
47758 5423 13726
3750 27108 17221
37774 23517 29540
29099 6680 45107
18721 29145 31622
15057 6271 39495
14850 3142 35512
51972 7244 18448
10187 28296 39680
41979 1492 33503
41651 1492 32974
24186 1492 33356
42928 3170 11846
5415 18264 34959
19611 21882 13616
22821 2839 10950
13837 26044 39874
5271 21541 36321
5350 41850 35254
51628 20875 25807
7080 61467 32212
32389 27530 52276
28463 20151 49827
39545 22081 38767
37968 2218 10935
46986 7975 11136
9663 29770 13138
16060 8106 10993
14112 23437 11273
20819 24874 23034
45053 23051 25269
46499 22484 31272
39908 17354 45750
18766 28388 32944
34256 19594 43047
38468 17547 6388
80 47100 27839
33781 24090 9902
29272 30697 44057
27760 22118 34400
4991 24008 15677
53278 6671 25529
4771 34424 36511
23937 25754 1694
15385 33487 34510
13272 25735 40564
44563 233 34134
44635 218 35136
38044 379 31591
32478 532 27350
39541 327 33636
54864 17041 24088
35105 16 43856
16749 4631 39392
31731 4517 44199
52134 7950 34443
19336 27731 40700
21134 23994 28645
30956 24015 41603
37835 217 11483
34152 423 20170
35890 311 15277
35231 355 17239
22403 24313 39776
4434 24407 16501
3905 55507 34756
7576 7541 26566
34029 16193 5387
8898 31623 13719
21634 1811 39582
50994 4023 29194
20818 25464 25285
27907 4020 43468
13984 24313 39491
33569 8602 6160
23735 31094 2357
10050 54697 23739
10912 23824 40829
1569 38304 32405
54436 9735 28486
5419 50227 34885
23193 29459 1976
10161 54400 25578
4429 21315 17792
8321 44044 32602
23914 202 11003
28427 360 16942
25820 242 12231
29653 472 22012
25454 223 11420
8305 22619 39850
25481 28861 10204
14724 28624 46633
31625 17725 7619
49669 13190 40584
13480 14511 10170
48012 22133 30957
12099 39912 26236
5598 33612 15222
52467 18394 34442
4354 57986 17537
11598 12016 40186
44473 22868 31517
34287 18609 45497
20238 24831 32749
53553 7139 26241
42228 2861 11846
13006 16590 41952
13297 23366 45814
31643 32569 48763
22425 31339 8422
3781 26418 35100
30331 17854 8568
11105 40716 21305
32071 20211 9284
18936 29211 29648
37816 12046 5504
30803 15041 5259
31276 9198 46367
3491 64052 28829
2873 33770 34449
8944 36556 37175
34626 495 26087
10507 20816 11366
24628 27524 41325
13697 1981 26753
6231 16396 16974
36128 26127 51200
23933 21727 21349
23702 252 13655
25620 383 19764
26391 377 18793
29232 491 23199
20209 178 12085
29063 5057 44279
45490 8059 9950
27222 450 22448
18686 241 17862
19920 252 17049
17906 195 15301
2105 27155 21855
49383 18614 13493
33034 1492 30437
36738 1492 31297
25681 1492 30146
37595 1492 30455
43571 1492 31186
42495 1492 31133
44698 21521 14582
39036 22645 36638
55264 16019 25455
11722 17484 10866
17730 9089 42839
36321 3446 43209
38655 19218 7822
32648 28811 52042
37347 21951 1588
11972 23467 40585
8543 52006 34178
30238 9142 46234
29342 23471 995
1904 30134 31533
35101 21728 40289
31556 20925 41648
714 57684 25570
13359 35159 16589
14297 23055 39237
49098 9955 12205
23452 3360 10331
34813 21666 42519
278 46301 23275
5872 64231 25417
29749 21945 11364
24663 15071 6357
24844 32482 6856
5283 19821 35532
33953 20019 9679
21608 18261 12325
30350 334 15418
30381 355 16364
29471 195 9093
28562 240 11352
184 40357 26542
11449 11586 12539
38206 24880 2838
9093 37513 36814
52011 19586 32933
48833 7168 38880
29225 26690 10366
35457 20943 10151
960 34273 29514
20860 2907 40631
5421 12179 26664
23686 32673 4770
38713 9675 46034
7385 38994 16031
3968 64431 27789
3054 61122 19435
11072 34634 37508
24048 13767 6311
50288 10595 39064
37197 26332 50028
26200 22468 2063
39649 1492 15629
29565 1492 15064
25981 26972 896
9445 57624 27400
26018 22930 12260
31105 19126 44515
19916 27529 27939
967 33890 23041
30832 1492 26067
6675 27167 38605
26850 18573 8305
46121 22309 33149
33593 1492 21051
31140 1492 21124
41213 1492 22260
38104 1492 20812
46788 1492 21764
22549 19026 47653
46736 16432 42898
52664 8950 18252
34593 20675 9748
29761 24949 41538
15580 18660 7705
41777 3157 41173
19228 13886 7731
22876 28077 41351
28354 19153 43742
22020 2625 40894
52148 5107 28197
23303 17341 6470
32181 19090 44766
5581 57123 35050
28647 22581 20476
5387 40211 16643
2649 58990 19128
33087 435 32067
33452 448 31259
36355 195 42605
33339 416 32922
32888 478 30017
36301 267 39054
22039 25130 49920
18990 27120 18252
22740 20293 14472
23666 21132 35271
33807 19514 2038
13992 2244 31350
15510 16363 42510
9994 41917 31779
30365 1492 25663
6441 15592 17061
47938 2283 32576
2146 62684 28416
44753 5740 10756
33892 27354 429
806 49683 30825
18346 17649 12455
5856 27919 14442
20598 19085 12451
6886 27984 38647
32490 287 39063
32400 261 40278
31526 1492 35396
39911 1492 36485
27478 1492 34808
28115 5237 8153
4575 14668 27229
42709 6895 8874
32082 21141 41099
41214 23087 19315
41602 13149 46012
52219 20204 29708
16620 32086 18650
29164 13827 5320
32381 23340 27916
104 41573 25929
6400 13645 33850
19528 23926 13091
10362 52006 27285
26318 17507 7308
10022 36601 15380
10107 50662 22150
29308 8477 6490
16641 25387 39524
29365 11504 5563
16108 33612 31899
33823 31209 48562
20745 27720 11494
25680 185 9459
24228 188 10184
25061 205 10670
26279 274 13633
26102 195 9721
27339 300 14480
12897 10031 12113
54743 17569 25283
36102 23416 827
25838 30085 43013
22492 21934 49079
44593 107 38382
35554 18454 7430
29827 29739 52142
45151 235 19792
40301 345 21174
34706 488 24826
46201 201 18264
37290 418 22793
11346 40259 31584
24852 22041 28888
18988 19961 13714
22393 19618 4373
29719 18237 9519
22377 283 35931
26227 382 33190
20304 228 37493
22158 202 40413
23048 251 38300
15647 15497 9436
37709 26663 3835
1022 35609 21980
44838 8563 43088
7399 44759 33668
28228 21108 39255
2710 22250 23931
2342 23819 24139
16682 29800 16078
8303 6987 29231
1729 49807 32641
22767 4563 42615
24328 21517 33866
9483 5941 30650
18924 251 34058
20195 284 33264
22856 317 34215
21784 280 35611
19404 264 33702
18863 230 35610
16036 28066 38236
11846 39863 21789
15867 33812 32421
7380 15567 36769
16841 28246 37302
45316 13806 44263
19947 6783 42777
7183 23178 39048
17451 21929 13702
22480 28490 41543
50039 3370 30610
22330 13917 6770
25610 21976 19921
8910 22220 12175
8145 41028 35302
14027 24197 11477
39013 1492 29097
21034 1492 29586
32057 1492 29523
20680 1492 28565
15074 1492 28819
18371 26696 12271
39032 16082 46521
54470 11125 30481
16765 32937 21834
78 43897 24641
31443 1492 25329
46281 1492 25647
49239 8652 39360
6652 9461 27650
18823 11040 8279
10336 22949 40796
10117 51334 30421
19950 20291 38721
14484 34057 16971
33537 20441 42381
30560 19331 49693
4307 19926 33402
43854 1492 32600
36850 1492 33653
23005 1492 33190
20690 1492 33150
40405 205 12131
41084 263 16081
41828 237 15165
36574 400 20460
54425 17696 29441
26315 1771 10946
5584 62468 19695
30302 29094 52291
32684 22687 10494
41933 1782 13604
36050 23537 28090
5906 57180 17289
5686 36350 36696
11527 22758 11219
33314 28522 44214
9400 53668 32860
28501 17298 6363
46825 21668 35215
55101 11908 27099
18496 27540 34944
9807 12693 38613
32057 23391 51779
8157 59452 20242
37067 23495 29880
15076 29849 45178
49026 2705 31435
24716 30913 50554
50215 21032 20306
26389 20782 40179
9782 17216 12202
39868 19603 8586
21200 3730 10979
34474 25605 51994
9958 46977 27594
3020 29549 34174
19222 27385 19498
17813 30270 5163
53893 8011 25158
11593 15289 11208
39284 23573 26132
37929 22776 8105
5010 15975 32152
30389 25606 52115
33632 23409 29284
3183 23632 19892
41509 302 19500
41229 271 16692
36655 427 22538
44807 210 16778
40539 324 19903
20721 3521 11330
4820 21023 17127
48993 17866 40053
18018 29039 10930
38403 7990 6896
22549 24927 2319
21507 22699 27770
36689 25944 44618
28514 20071 42207
33958 26525 43440
50639 20771 32078
48447 15633 10625
49015 20078 15346
11909 40082 23693
24374 19285 48325
10099 18956 11681
44012 23103 22580
16360 31715 17471
37373 27022 46508
30903 1492 25236
17267 32056 21326
9557 44662 26446
49705 21461 21336
32144 1492 19004
38685 1492 18594
43788 1492 19796
40739 1492 19276
31669 27322 9408
3798 20144 20371
10537 25618 43224
49611 2867 22412
22391 14820 6939
19186 28724 29572
44462 4042 11966
11472 13724 11682
27423 12016 5751
37253 21970 12843
5478 13843 21016
7885 60715 31173
1561 32122 21194
10269 53429 27906
44695 1565 35374
24875 10066 45661
5759 19601 36275
7230 48223 34381
116 47607 28106
35466 18831 44264
5320 34421 15503
2511 27740 19943
23820 1492 38555
27687 1492 38649
11540 28197 43768
9626 20412 40513
15152 33374 35112
16848 29730 42123
28180 20476 11332
16299 1728 33962
1003 32016 24870
16815 17397 40302
22170 28743 2264
34491 23452 22864
42775 20971 40468
40757 3575 10230
30146 22301 35639
2242 63048 27432
19141 23481 36968
37549 22422 37897
13495 4027 35038
2255 37895 33628
31043 1492 37709
34983 1492 37696
43191 1816 37813
30314 17444 46609
16140 6790 11750
16818 2911 14806
12932 22646 12493
13722 20738 12699
28709 12086 46815
3665 64375 27053
1885 62501 26121
20218 9450 8310
30707 1492 30377
38034 1492 30132
21555 1492 30565
22787 1492 30361
35257 1492 31476
45601 1492 29666
5192 61909 33274
25691 23682 50635
7545 13841 16279
45146 20162 40499
8137 40786 16902
4412 42432 17461
24591 17094 43450
21686 8628 44269
16395 17291 11785
21590 352 28863
3002 57852 18466
21259 22454 22226
39239 3641 9590
4846 60706 34040
11392 24083 41192
9133 19347 12288
27345 20224 41229
12965 20536 43618
7413 47388 18197
13565 37913 23977
4351 26677 16188
37853 19242 6199
1944 28889 31012
14901 25081 11997
7225 11407 33600
16308 33831 29499
18775 16837 41946
7086 24827 39072
31092 32466 2489
53640 11290 33482
22989 17634 8514
28369 32501 6688
16551 8936 42198
29736 31420 44804
2243 40303 18817
3256 53396 17940
37476 18768 46817
46375 13365 8865
24855 18109 11099
21865 20286 48195
25352 32057 44833
7572 18185 14098
46099 14978 8642
19665 2913 12405
8897 23693 40147
10696 4480 22403
9645 45307 24730
52612 5891 29025
27987 12988 46845
1637 61793 26985
10687 17792 40933
20567 25744 29090
410 43052 29458
31696 23145 21952
10050 42288 24094
15834 34747 27657
16554 27340 12142
19642 28350 26257
47536 19649 12922
36432 28470 47950
6525 12017 32599
51375 4135 24608
17671 25138 14090
9965 13187 39047
7624 33637 14480
17460 29697 34964
14449 6755 39322
3765 44172 18083
1118 32686 22979
3883 30465 35768
20327 16554 43817
25499 31020 43733
54705 12210 30593
574 38601 23030
44162 22643 18680
44711 22636 19180
2406 29227 19643
35156 6179 7247
5701 12638 21689
16471 2365 16346
4191 27973 36051
29484 8063 45745
38223 23313 20085
15285 3213 16146
9872 47457 22877
13680 2043 24830
23132 3146 41796
53713 18017 31750
35849 17691 46195
18366 82 13340
5396 54037 35188
19752 1492 24618
26136 1492 24292
15350 1492 23981
21727 1492 22887
18899 1492 23188
18202 1492 23615
14810 2165 33010
4051 18931 20564
22678 1492 25753
26181 1492 26399
26872 1492 26640
21770 1492 27076
29977 1492 27099
25151 1492 25758
14120 26502 40084
23635 17741 5723
14534 11320 10309
54786 10557 27058
40781 7258 44489
16198 25674 12971
21590 2473 40535
23350 21754 27417
46335 4503 39268
17277 31725 31956
2305 28539 32118
36084 20341 9002
52103 12629 37289
26638 33047 3167
4778 32479 36719
28700 22589 40734
20580 26098 40132
24667 19606 3748
1000 56492 21990
33298 18705 7015
34010 22695 10105
48838 22168 26011
54916 15417 21702
12603 29886 13277
9551 27570 39730
41521 18016 7567
1130 51882 20772
19319 26218 12357
17378 15075 8637
42699 22717 34495
32737 4599 44272
27582 19752 2979
42527 21728 38701
31680 23234 10717
20055 23052 48679
9836 18412 11908
11272 27788 44096
13397 18363 10428
28639 1492 13390
29887 1492 13560
19631 22883 3904
498 46159 29912
31128 12885 47202
11890 38374 18001
18711 17249 44706
54412 11318 21405
54683 10641 23760
18848 22669 4270
44296 2952 13192
2613 63006 22575
54363 15148 19632
19017 27197 33925
28115 21619 15117
20941 21053 19360
19863 22265 36050
30831 17444 5873
5675 16724 17883
33003 17577 5509
5233 12664 26576
31397 18218 48662
18418 4876 11608
34358 20606 1397
53408 7238 28590
32889 2015 10133
16677 29929 5625
12670 27593 11588
6164 62761 20502
29815 1763 41985
7013 18919 37860
12410 3241 21502
12809 7724 38471
34970 23124 18498
21661 16844 43437
20171 25684 31766
7524 61615 30725
30436 21358 39730
11308 23110 42197
47310 21651 17665
47298 7135 40443
15477 13525 9264
55046 16874 25696
14289 28711 6097
26733 22149 32836
1418 60996 25025
9472 7082 32878
4787 19614 17979
4819 16146 20728
20883 16218 44269
20190 1826 38662
38424 25541 5496
35870 366 18003
27437 31650 44514
21165 16825 8896
7735 9005 31685
20131 22448 38922
46074 10706 9299
14227 32766 36768
18712 7627 9787
1 47359 25556
6250 10002 26254
10376 51501 24712
31361 25977 129
11065 23667 42783
13699 30656 14025
52486 17257 16559
46272 2760 36773
21465 17141 7251
6303 63207 21583
54787 14092 21009
24554 22011 27698
52057 19948 20684
42014 22229 15164
9780 54591 31060
6261 17759 36217
5613 17332 17609
20073 21586 16526
18851 177 39346
25434 350 34358
22738 282 36251
25635 375 33072
36971 17500 46243
6632 11045 31475
35706 5683 7573
17312 31714 20549
19718 20729 47676
17145 30389 17550
17171 17866 7447
16308 14473 43449
15010 29317 10580
7157 42109 17300
17306 1492 20861
21066 1492 18867
29767 1492 19414
23201 1492 21216
28040 1492 19460
24516 1492 20262
19606 1492 20877
23163 1492 20068
50487 21106 21311
14690 9013 41021
12853 28412 12742
51906 7080 33861
24827 28260 10638
5689 44804 17999
23975 2252 41271
39397 2105 11498
49048 19302 38360
43822 18794 9227
31494 31122 51364
28490 22370 18805
10029 9016 16155
16452 3236 14786
15643 4950 38786
17889 31208 29515
2735 24235 31286
19172 30743 9033
46520 17807 10096
1300 29911 27677
27317 24580 1031
32766 1492 20881
40441 1492 20447
23603 1492 20572
31764 1492 20860
24090 1492 21037
17958 1492 21377
25012 17203 43233
42324 291 19751
11512 22423 41196
16754 22866 12226
40809 23479 28190
6122 32260 37645
50778 11708 13498
54668 10648 28822
19945 21096 36428
749 51921 30528
19101 18304 11760
51170 4507 30991
26225 19691 10416
3655 18133 23841
41639 19297 8774
19176 28882 41412
37331 16844 46529
13888 32894 15410
24968 32969 46812
41052 5272 9083
37594 22934 35317
26880 24417 11714
3573 18424 28561
44679 22464 34100
4154 48902 34431
288 39684 28011
42766 23186 30616
11652 24892 11630
36646 5979 7505
32558 9422 5886
8134 34095 14502
1714 53074 32640
32230 6019 45061
43446 13991 7089
25342 5638 8452
18582 11418 44088
15785 21479 11299
44849 3791 39837
29364 22813 30711
15360 28717 38406
30234 32089 6680
31826 1492 12292
30318 1492 12471
36759 23994 8632
195 51967 27423
22253 16998 44813
37955 7158 45240
37894 23269 19567
32584 19018 9425
4032 60015 18207
38172 25355 45865
23920 25687 40487
29446 22936 23832
48377 186 30286
37951 421 26915
42037 329 28531
47482 206 30272
14782 36059 22695
10798 6229 34257
24848 20893 37572
46356 10623 42830
22240 342 31533
28147 19657 49443
23146 23401 2542
2050 61435 30554
21219 29386 10372
36552 10415 5727
46318 1865 18241
54474 17962 24540
29590 15787 46691
28533 28485 9830
48253 18921 12623
39264 10179 6312
27957 21962 35501
20772 26563 2729
2566 23059 23626
2611 22168 24995
49421 6555 37602
18105 29385 4287
17205 28021 40638
14519 30122 14208
19211 31417 6489
37251 19973 8615
49372 20635 35079
7460 54003 34929
8939 50656 18735
15715 24475 47468
43375 22506 35159
29891 21855 14780
53047 19754 24715
52368 12333 15642
33933 28987 44884
22417 18213 40332
49353 7886 13558
35350 196 9510
32438 203 9447
32476 406 18817
18162 29290 41668
319 46201 29268
55187 14777 23011
32203 22733 34828
22545 21373 31421
15457 30154 7710
20977 23510 3220
25778 23339 40132
17104 19534 46087
11313 8003 37062
24401 384 31240
18603 236 34781
23285 345 32667
18253 211 36270
23402 330 33970
24664 383 31644
23296 32630 46664
16819 20251 40813
26778 18143 41899
24787 258 38944
28083 388 33858
22944 195 41317
25553 290 37697
27908 346 35844
27053 305 37553
21288 5808 42736
35833 21314 41450
50686 16042 39251
16310 26048 13256
11982 7183 37112
14107 5022 37203
4091 24112 35135
16558 28778 47583
54179 10067 30623
4626 33661 15886
27604 486 27318
49481 7232 38096
16044 1620 19291
54234 9300 23334
32095 26886 52306
46075 20033 12322
3563 54916 17746
36737 22465 14611
31980 24430 10359
39158 2360 11053
13338 179 25256
22581 378 24812
18505 286 23631
21236 350 24838
3324 40991 34538
11734 40025 30532
35038 29738 5518
36763 23384 1116
12837 38904 27591
27746 15911 46302
52888 19970 26186
54531 17947 27020
27453 21891 50413
19319 12915 44641
29543 18731 10192
18647 26147 36097
43040 18258 43985
5950 11025 27774
51873 9183 35883
44632 18946 42526
15114 15493 9652
21601 25660 12262
41307 14497 6197
23391 1492 12530
27959 1492 12493
2334 31032 19234
11234 37183 36166
14441 24304 5533
42233 5342 42838
40505 22659 16295
29581 33214 48029
38806 23524 29087
39970 21541 12103
21168 5290 42404
764 33736 27164
2550 35748 34043
13197 38467 26350
55324 13817 24415
2420 26317 21009
16685 27469 14387
20398 19921 36974
23900 19844 12634
8519 10178 17457
54791 11084 28587
32779 12640 47242
7430 20866 38906
40654 13191 46349
34131 12135 5147
18793 16876 8573
10318 53168 25640
36226 23565 51503
14600 15979 9939
14775 34026 17384
23081 305 17185
20161 188 12684
26041 401 20444
21694 235 14237
26038 345 17237
19545 21462 15208
16102 32029 35029
17303 22575 39828
16820 23531 39876
14277 21709 45659
13650 7462 39076
35621 20814 42971
25285 133 9137
5925 23316 14571
34553 1492 25292
45182 1492 25188
45217 1492 25967
30043 1492 25101
1491 40240 32293
853 48326 30910
30496 32305 50510
26039 30092 9324
43619 20897 40172
25188 20517 13225
36337 18232 45783
22657 16909 8072
29762 27009 10112
41279 23442 23986
33060 1643 41805
53565 10871 18978
2178 32917 33088
31719 13193 47280
23255 18744 10039
25217 20454 39932
20929 28675 10906
38045 15688 5519
17690 10423 8995
52800 7529 32077
43911 2620 38994
30098 23080 25856
32254 22977 33068
21828 26374 40411
18858 16462 8982
1491 39305 32265
47177 2026 19130
4507 64602 25667
10272 4778 22854
49774 21254 20280
17059 29375 16293
29577 455 31207
26883 291 38170
28758 373 34855
26886 352 35125
26447 330 36034
37448 22751 50855
39778 11994 5956
2074 24773 25261
568 56272 24600
7807 39898 35943
8914 17189 12982
5110 43242 17539
47141 22626 25138
36539 21099 10530
24544 21861 2713
29407 20699 2051
12197 21668 41132
12879 2492 23849
5609 12334 29545
42034 9812 7353
24951 33002 5289
26583 15417 6036
9562 6529 20145
21123 20791 33470
48125 12981 42062
235 48110 28772
23626 17749 41333
13073 35982 16992
54380 12067 20423
24709 17692 46770
32917 26892 43213
29573 22712 32062
13502 18996 10872
14919 35655 21519
44407 15704 44615
1905 25816 25239
12281 26525 12020
25865 3093 9880
9644 56842 24712
500 51822 22719
25886 1492 31008
32455 1492 31962
24786 1492 32279
23178 1492 32111
24921 17027 8078
26973 25172 51416
44824 23013 29080
10348 4256 25247
46731 11291 42768
8039 43002 18258
15575 9696 10395
10690 41546 23848
43658 1492 24338
24573 1492 22494
47304 1492 23652
40280 1492 23799
30368 20751 11011
1892 53627 32912
8374 59686 31001
2691 48569 18706
9539 54983 31934
45573 22101 17399
43791 12465 7455
34904 19704 8167
15744 229 27751
14103 190 29418
18225 279 29352
24450 419 27358
20150 323 28441
24176 412 27786
4449 51650 34870
43842 9773 8223
41624 15041 6365
45717 21970 16917
35837 16036 5369
15081 5041 14074
11527 40595 23676
14472 28123 40681
3853 24154 17755
19286 21106 4699
47267 16977 10129
47486 20759 37282
48741 12271 11051
7696 47290 33944
16859 23739 39059
33931 22279 38305
42790 18746 43695
19887 24899 18394
21628 18901 41113
32822 25369 200
17348 30817 33622
3143 47924 33861
33111 1492 13291
17817 30430 32543
5329 63647 21461
23560 21812 25900
47951 6887 39591
19995 1727 14067
4335 35125 16264
25703 22188 22693
45218 4690 11962
45206 22985 28277
34203 18617 8359
27272 20016 41715
10753 27106 42639
35702 29066 49075
35224 24984 43308
52453 19908 21947
7100 31542 38211
36146 17586 6121
10078 51190 21699
54552 14598 20136
8285 8272 32201
4796 18571 18604
21340 3252 11249
1544 60599 22812
815 57243 28858
21695 21655 48716
