ply
format ascii 1.0
element vertex 2702
property float x
property float y
property float z
end_header
49811 35571 37468
13449 35307 35292
32727 37147 18095
33011 56845 37628
1788 62846 33529
175 75587 17231
276 75609 13585
137 75579 25417
1778 75934 30232
868 75737 18834
9704 43904 8515
8159 48719 29792
5197 58418 30409
5741 56636 30055
4380 61092 30473
9209 45283 29864
11950 36306 29791
31239 52768 35625
34010 4936 3707
45924 35549 15781
24531 35772 15781
27682 35614 15781
46238 36334 15781
19751 52203 1436
37060 6599 35292
29437 57016 1210
21038 37195 7489
20467 37195 7373
30474 37195 7542
31551 37195 7197
11215 37195 6561
30077 56112 39064
8694 47648 1436
11836 38261 6069
1606 73318 30828
4864 59507 25224
2072 68649 24082
2820 66200 25054
1759 69673 24420
5652 56927 24804
12506 35442 19983
11855 42537 20575
25798 17525 6069
12246 31309 4772
15023 35333 33211
5388 50039 36601
34989 55399 37628
17235 31138 6069
42678 2531 6069
27415 56828 35938
15328 25975 4594
33477 20425 35303
14598 5519 35303
17906 7478 35303
27530 16166 35303
15931 6111 35303
20448 9227 35303
23404 12160 35303
13652 4144 35303
39139 25449 35303
45042 36708 7746
29609 13734 32930
8034 46847 35442
27470 18033 34669
47859 35266 26151
49997 37232 17682
4013 64730 4617
48602 36626 31437
36087 5447 12464
36067 5468 15670
37038 4497 13832
36103 5432 17329
36583 4952 14411
37041 4494 15155
5090 47725 37628
23506 55949 37628
8369 51526 3411
31182 57108 1120
44317 3080 32992
51510 36461 13378
32838 55470 37628
32690 56738 3622
11878 1460 3655
25577 13955 3655
42802 28349 3655
21949 10920 3655
29364 16062 3655
28388 15973 3655
29490 16797 3655
27723 15773 3655
32374 53722 0
48496 35582 3655
21057 55175 37628
4423 48315 36345
32957 49346 927
1872 62317 5505
30441 54071 0
22589 56051 35501
11205 48055 36475
13546 32436 25471
14113 32588 27625
13911 32534 32116
38602 1367 6069
42961 1790 6069
30898 10692 32930
29299 10548 6069
10518 46999 8464
47821 36555 20868
33134 5053 6057
10529 43378 31189
10241 47021 31189
11386 43111 31189
8867 51985 31189
8746 48420 34889
51365 36685 17650
2808 66528 13474
30315 57064 38123
35275 8548 6069
47619 34341 14409
47039 33844 21326
47202 33984 11226
46472 33358 28915
47311 34077 17197
46636 33499 10698
47221 33999 8249
27214 11462 3707
24241 51993 2159
12158 36170 35292
24412 53301 39064
14332 33708 13231
14047 34772 19771
14019 34877 25317
14073 34674 9117
35494 53454 3622
43780 3055 3707
37994 27156 2932
42280 30941 1817
48584 36508 3310
44444 32852 2875
46569 34729 2589
49088 36953 2520
30258 20325 1727
35908 47225 1361
37285 36341 10582
2745 72585 27782
1782 72376 22396
1773 72374 35583
2731 72581 16589
1773 72374 31098
35090 4923 35292
18686 10040 3512
48368 35445 31541
49472 35951 26611
41870 37195 28102
26659 37195 27799
39516 37195 27886
23891 37195 27633
19212 37195 27083
29000 37195 27297
4023 64683 34525
9418 49446 37628
5402 47392 33708
25547 12381 4311
7306 51511 19736
9222 45240 19927
11157 38904 20303
2864 66055 19944
5493 57447 20018
26975 55318 1436
57 74980 11372
101 74777 20619
109 74738 8816
271 73988 13998
234 74162 10236
64 74944 22761
29722 52674 37957
12656 40034 8515
2850 56980 5511
33999 4176 35183
44857 32430 3655
36623 24397 3655
31697 19504 3655
33757 21873 3655
41509 28260 3655
38165 25285 3655
33568 21144 3655
42835 30653 3655
13429 5101 3655
46093 31105 3655
32077 54969 37628
6140 56076 5359
34022 36503 20868
7379 48635 1452
51262 36927 35303
34616 35906 7746
10685 36336 7746
36717 35975 7746
18246 35700 7746
22162 35637 7746
36188 7702 20958
39904 25192 35401
39670 0 4704
5891 62045 15528
12846 37018 10582
2468 64576 6069
10865 51544 3622
1377 69418 6069
10488 35711 31563
47596 35603 5862
11270 41314 3707
31364 54795 35442
20463 18527 5829
8276 46694 37543
16865 51978 1436
27714 15258 6069
9571 50455 15253
5227 64786 14715
4666 66638 15008
3065 71918 15198
7656 50975 35248
31345 37195 21160
46411 37195 21881
41624 37195 21494
26870 37195 21241
25681 37195 21885
20767 37195 21157
10233 42310 13430
39462 0 34802
15323 51593 3622
35921 7578 17970
35222 6880 6885
35462 7120 14237
4940 60530 4468
2380 72804 34147
24057 36667 13256
35357 2908 5764
4303 67834 30350
4714 66480 30399
5032 65431 29072
2621 73385 30858
10978 45817 29104
8226 43724 3707
6754 45165 6069
25174 20665 34651
46035 36384 7746
38402 24606 1489
16790 5751 1489
17521 8004 1489
35513 22047 1489
17058 7001 1489
20231 8217 1489
18081 8377 1489
27887 15367 1489
22698 12112 1489
26497 15398 3707
41704 4094 6069
16098 50026 1471
38223 1997 35292
27615 55811 3622
30487 12639 32930
5044 59990 3869
43169 36201 10582
38433 5561 20489
37932 6062 15239
36893 7101 31769
38014 5980 18403
38154 5840 19993
37609 6385 19742
9529 40104 3707
15536 53906 3622
22020 51721 1436
7148 52100 6069
28766 10736 35292
11896 53037 36051
18926 51509 38352
5879 56988 34600
27488 56336 1436
29953 19892 3596
21682 12589 3594
37626 6888 3707
1109 68652 4554
24794 21117 3977
36420 56099 37116
38811 785 35292
47663 33577 35303
23568 53047 39064
23040 19637 32930
2565 67147 15310
39885 6486 4696
16142 29333 6069
21458 24664 32930
44752 37969 37647
43253 39047 38016
19142 50858 1656
1635 63954 5387
11178 37511 32930
33615 11812 5835
3905 65277 34705
50644 37182 30171
19900 24770 6069
6632 60153 19021
9098 52017 18770
11216 45030 19393
8573 53748 19046
8889 52707 18934
49360 36977 11874
35897 52995 2092
50078 37242 25524
13102 34170 32930
38360 36668 28676
35884 5502 35292
35663 55551 1436
26688 12318 35292
46570 34086 1489
49732 36586 1489
51048 35501 1489
46817 32022 1489
48487 33306 1489
41393 29295 1489
37462 24397 1489
32067 20869 1489
45647 31882 1489
50853 37098 10313
15929 31853 35292
8423 47855 14498
2870 66036 13811
4601 60370 13724
9697 43685 14404
2498 70289 32930
23238 15756 3707
19413 35485 23349
50498 36728 660
26500 17052 37204
10291 2738 35880
33081 22864 36795
31271 21266 36732
37973 27185 36807
13140 5253 37226
17570 35380 6041
19439 51788 1436
32986 35434 28500
48307 34931 21433
46856 33687 35120
48246 34879 8074
48328 34948 15112
47607 34330 21257
46935 33755 27522
47740 34444 22904
26124 15139 35292
50260 37247 19600
2891 70109 6069
25737 18490 32930
40878 4940 3707
13305 38138 9042
13396 37839 9785
12477 40871 10375
11365 44540 9727
9837 49580 9504
5910 62534 9174
4867 49100 34581
29665 13433 6069
51134 35717 35303
7242 58139 8755
13554 37318 9399
6034 62126 8796
13977 35922 10023
11212 45043 9428
13270 35673 29779
29495 8249 5747
25578 36484 13256
14325 27626 4829
10607 37768 3707
28586 53204 35442
47346 36054 25851
45925 36029 25851
29781 52679 36572
8381 43925 35292
14618 36061 33500
1754 73214 36074
24134 18117 35292
18152 8973 35303
48509 33280 35303
34297 23348 35303
44837 31885 35303
38367 25860 35303
46851 32360 35303
25620 14706 35303
41799 28410 35303
43110 30426 35303
47174 31819 4607
35231 53467 37628
25644 54008 35442
27401 55410 0
4534 48861 2585
28708 35450 28527
34899 53277 1436
24712 13561 3730
36649 35425 10762
6750 51968 3707
29048 35363 22302
47145 35363 22361
41103 35363 22082
36641 35363 22051
10792 2365 13909
8932 43040 35292
37516 5981 6069
1354 71001 9654
2385 67624 10794
4046 62186 9996
7140 52057 10829
3984 62387 9494
5213 58366 9519
16764 28832 32930
12395 39612 35292
37406 1244 33226
32800 11489 6069
35561 53491 1436
25031 35363 12880
39550 35363 12312
33516 35363 12376
35744 35363 11621
27794 35363 12068
9945 36065 5966
32000 5857 34957
5572 49224 1436
17259 23003 4407
10954 287 35303
13560 4886 35303
13230 2057 35303
13871 2636 35303
14450 3338 35303
17071 7302 35303
30323 17706 35303
2648 68373 3707
43500 3797 34976
31623 7207 32930
35892 53455 37628
26034 52990 37628
4014 59094 35292
34601 57173 38524
45414 1012 5350
48596 35487 20945
7405 49323 6069
39822 3684 35292
34582 7380 6069
15047 31016 32930
37995 4857 16046
37797 4658 21022
12449 32254 32355
28521 13954 6069
35364 54207 39064
48181 35768 13256
9872 52211 35833
6429 53181 35292
35701 52850 1001
32221 49850 37544
29834 55339 1436
13029 32298 24607
13821 32510 12022
12895 32262 23836
14770 52090 1436
10796 2251 30971
11001 2047 5553
10870 2178 22845
6159 55607 32994
50955 37425 36288
46242 32856 14554
46312 32775 16874
46871 32121 4098
10244 41894 24435
9297 44992 24255
4417 60971 23507
6743 53356 23392
9086 45683 24120
51202 37308 3127
9417 51118 1436
35299 37195 26368
18202 37195 26384
40640 37195 27656
27434 37195 26663
32172 37195 27266
31482 37195 27119
49015 36130 23429
16466 35501 31477
557 72664 15695
28579 16825 34047
36227 25488 35369
9958 37437 6069
35818 55403 35442
25184 53474 35442
15279 54241 36025
24834 15408 35353
40013 0 5652
42899 533 3707
17937 53661 38172
30511 14817 34147
28533 16328 6069
25781 17990 3707
17450 54392 1436
26938 17844 32930
11484 33572 32930
4240 61550 15209
1640 70063 14194
831 72713 14589
4945 59242 14660
8152 48743 14910
8333 42158 3707
17058 37195 21928
14553 37195 22093
40716 37195 22792
34454 37195 22818
29404 37195 22929
23832 55051 1436
27094 53552 1503
12297 37148 31582
12530 32207 16082
44703 35388 16007
10316 47625 13433
35652 2667 33798
38402 5263 9573
37796 4658 29626
38013 4875 26730
13795 31275 32930
15755 25303 4715
13760 50022 1436
21390 51422 1942
1638 72565 33736
36460 9281 33891
24968 19809 35292
51347 35406 22619
51424 35492 31611
28654 18888 35444
8052 49448 23174
5824 46122 4887
16430 35524 15801
35589 21424 37376
8224 46627 36190
30010 9977 32930
31618 9172 32930
25415 17170 3707
29468 36368 7746
23675 51895 2962
12017 33612 29578
12084 33363 23346
11797 34432 11869
11776 34511 31145
11840 34272 16537
6607 54537 33732
14041 35124 32930
22039 35456 25990
12216 34413 35292
36631 53953 35710
36307 53402 36077
30180 20302 36390
35881 25337 35745
27884 18275 36104
34177 23832 36398
38724 27848 35590
34883 24456 36623
20981 12179 35572
38620 5050 3707
35481 52815 2738
24336 18340 32930
12940 30032 4612
45159 0 4237
20438 53002 37628
48757 36628 25851
40649 5781 3804
20419 36820 25851
36003 9678 4898
13695 35475 23334
6754 58698 20689
4491 63874 20689
4808 65232 20689
6308 58931 20689
17457 31183 33132
31209 53091 0
2185 66492 35292
5233 59370 5859
1874 75955 22437
919 75748 14304
1162 75801 15793
1858 75951 15957
11234 34840 32930
2867 71892 34391
15957 33613 4993
10244 36216 32930
22806 37195 27844
35437 37195 28212
36494 37195 28144
34017 37195 28094
21471 35363 32121
21535 35363 32663
16733 35363 32295
19332 35363 32101
24910 37085 28566
25180 12788 33799
9141 45951 8400
3361 66397 28959
8977 47170 28959
2125 71404 28959
3898 67845 28959
5436 61930 28959
2922 73817 31808
12119 53128 37403
12516 49196 35442
35181 36148 20868
38941 37119 21021
30564 48167 37565
7504 53622 28959
9283 46115 28959
4369 62473 28959
2320 69408 28959
27134 56144 35442
16312 50798 37628
38035 6803 6069
45830 38166 38491
34280 47664 38491
40126 42658 38491
42408 42148 38491
36232 46057 38491
28621 16781 34971
12325 2282 35303
11059 51303 37628
11544 32643 33419
35044 55266 1436
23236 56225 36199
24504 56065 1436
44289 40217 37468
34626 47187 37468
49435 36570 37468
40698 43398 37468
47211 31811 19262
30904 35363 17520
18704 35363 18020
28661 35363 17515
11918 35363 17512
19389 35363 16662
36999 35363 17768
8350 49098 1436
22620 35401 23219
32712 10886 35292
17395 54887 2650
43357 41819 38441
3097 73005 5826
48544 35193 22903
48129 35193 32510
47979 35193 18749
50020 35193 14373
48541 35193 19976
50385 35193 5894
48192 35193 11249
48287 35193 12271
4801 64872 25573
8648 50976 25573
3112 70168 25573
2443 73180 25573
34193 11287 5304
16482 53716 35442
36204 7702 13342
665 72289 28950
19605 51246 187
11660 52845 35465
47763 32231 17061
48599 32948 27207
47683 32163 23883
47564 32061 10515
47446 31959 31129
48166 32576 26247
47723 32196 30076
5006 65516 10238
10418 47663 10613
3975 68918 9472
12229 41688 10685
4710 66493 9868
4591 66886 10425
32332 35363 16999
39163 35363 16575
40693 35363 17437
41877 35363 17034
35016 35363 17179
21963 35363 16330
51789 35558 1975
37895 7978 3819
13214 35700 13548
502 72921 10276
14425 32672 11483
12754 32224 31195
14402 32666 12326
13015 32294 32891
6102 46281 1436
40786 3595 3707
35795 7452 14963
35631 7289 11556
35071 6728 7909
16649 23908 4252
30193 13044 32930
26093 56666 37345
7685 50854 6041
9665 45578 6069
13362 38279 4370
17457 37060 15841
48535 37132 33012
41982 2951 32930
42206 35363 26415
25751 35363 26813
12394 35363 26558
19592 35363 27543
33530 35363 26879
28253 35363 26548
47897 36220 38491
39542 43381 38491
17628 27610 32930
22269 16622 32930
17894 26800 35292
3418 68019 33171
22571 51681 38671
21058 55795 36879
51677 36262 35367
2915 66822 15552
12223 37671 15552
12430 38207 15552
12926 38366 15552
19776 51028 35720
2392 73616 19200
10268 47724 31107
1405 65907 33107
50083 33977 3491
1425 65561 33816
18503 53502 3622
22999 21619 3707
25955 11935 5176
12278 35432 15351
4453 51612 32930
22653 23788 35059
21398 53580 37628
6867 59378 29064
4316 67792 29750
4630 66757 29880
3161 71602 30316
2647 73297 30322
8568 53766 29800
28310 35457 25987
6567 60364 23386
10431 35705 33128
8590 48253 3622
50858 37095 33424
25614 52641 37628
2399 59235 4969
51148 34868 1763
44241 28824 2570
40348 25417 2358
45038 29522 2685
30688 16965 3191
38494 23795 3258
43130 383 32930
50310 37243 12638
12899 38149 13321
6510 56667 13321
9068 49264 13321
12793 36213 13321
1920 67863 35292
9738 36315 35026
2950 72298 19318
3932 69061 20002
8605 53644 20236
5639 63428 20330
3124 71724 19187
13891 28370 4628
33837 56849 37628
16718 8340 1664
18655 10042 1656
12060 40829 33520
23764 55138 39064
12146 41958 23384
36365 56186 234
43552 2396 6069
51585 36924 1923
15125 26668 32930
2561 69698 6069
40178 0 34202
33167 9766 3707
22943 53763 1436
5232 52360 32930
48166 35878 12284
48739 36416 12460
48799 36472 8657
48465 36159 8144
27851 16881 3707
36027 21840 3631
9177 45442 3707
30422 14795 33038
5696 60705 8315
3955 64407 8315
1552 72556 8315
2467 71753 8315
35271 9998 35292
2129 72173 6069
8175 55063 23921
10487 47436 24387
6271 61342 23942
6928 59176 23572
13915 36128 24378
10807 52595 36117
10035 48928 20131
7642 56822 19451
7919 55908 19525
2796 72807 19973
7462 57415 19500
10665 46847 24991
7017 58884 24140
4686 66573 23989
2750 72958 24522
6860 59399 25110
35320 52817 36360
10409 37029 6069
41394 35482 25945
19571 37085 13153
24766 35524 33305
51576 36313 33362
38762 37182 23180
12702 3913 20407
12610 4003 29671
12657 3957 18704
5513 49425 35292
1975 73458 23391
33909 47148 573
39832 42377 573
36660 45123 573
30171 50080 573
50556 35193 16542
49344 35193 32619
50857 35193 10228
48119 35193 35095
49773 35193 29248
49095 35193 28037
50756 35193 28394
19829 37183 31621
18966 53438 35442
3419 54460 34530
20969 36836 18286
40031 36221 18286
22403 36869 18286
19223 37058 25915
9902 45564 33707
16559 37036 18264
16498 32064 35292
800 72214 8714
30218 15116 5229
50176 37246 23161
3860 65520 4264
3496 54814 6050
168 74464 32490
49893 37212 10945
49928 37502 35441
23904 19297 6069
14205 51709 1436
43905 35525 28656
5908 45874 5499
23596 52540 37628
28580 52581 1267
9889 0 3407
19142 25342 35292
25494 20211 3852
11740 1357 7642
11883 1502 28895
12782 2407 25560
11976 1595 34855
11848 1466 22106
11798 1415 10817
27599 15787 6069
6174 55307 18566
2955 57569 35292
35620 9947 3849
20422 35516 10615
27437 35528 25866
23840 16444 35292
5644 63413 13942
8785 53049 14406
8930 52573 13673
13711 36800 14306
12206 41765 14700
24298 52445 3622
36311 7683 6414
37162 6833 21042
36858 7136 16192
36345 7649 12478
36367 7627 22423
37597 6397 12471
28152 52811 39064
39236 5235 6069
33927 36796 23429
24410 52023 35884
13372 3015 22487
32810 12236 3707
36408 2695 32930
36123 56469 36436
17140 31683 5312
13439 34804 32930
8558 39080 33079
7289 42077 35085
37069 2398 32930
14447 35422 21046
7587 50687 25290
10586 36743 10602
2398 75946 11743
28191 56900 2235
14230 53893 36639
12396 4043 13476
12259 51397 35442
41822 5013 5496
42421 27277 37257
28962 15501 36547
42344 27210 35993
51014 34796 35662
51569 35282 36050
22124 9517 37138
22896 10192 37004
6431 49723 3707
31016 8733 35292
12469 35028 7849
13598 35331 17677
13051 35184 12308
13430 35286 10332
15509 31391 3707
27522 54104 37628
51209 36853 27432
32070 37047 10624
26783 54971 39064
32438 12922 34860
15003 50483 3622
4936 59273 18781
8359 48065 19519
6977 52590 19034
9440 44527 19478
7493 50899 18989
12476 31384 35292
44234 36086 5862
4910 46620 1787
405 73368 21017
4450 62647 3969
32921 54083 37628
23270 54426 3622
36840 37118 10738
34372 3753 33526
23285 20327 32930
38803 45144 37759
30008 51464 38155
24851 19235 6069
23794 53702 35442
37083 35466 13141
2170 60476 33290
9866 49644 1436
2913 73859 25846
12526 32210 10688
9553 48945 13321
3263 66268 13321
6655 57217 13321
37536 43155 1145
42343 39700 1461
14011 37195 11841
27056 37195 12915
22472 37195 12680
26337 37195 12788
28820 37195 12159
24128 37195 12520
8838 45746 32930
38443 5403 24764
21604 18330 32930
40417 37172 16011
6000 46880 1436
51654 36071 3655
38946 44521 37468
48746 35782 37468
42046 41804 37468
31206 50031 37468
46283 38070 37468
331 73713 31291
9497 42883 32930
14310 33791 16717
14390 33491 22665
14352 33632 20877
8412 51545 36477
48538 38150 37800
43181 41999 37913
19401 36154 10582
12174 35909 10582
23676 36180 10582
27418 52919 3622
31686 53326 1436
14495 32787 20846
41013 4112 32930
29617 12701 35292
36463 54542 1436
21402 24167 6069
31744 35506 20915
5864 56766 25538
27473 13613 3707
13146 50896 35442
10713 47833 1721
11493 38078 23233
47411 37195 17212
25799 37195 17444
20164 37195 17630
39971 37195 16990
45232 37195 17580
47577 36527 13256
13807 37137 28477
25164 13508 6069
26710 13410 35292
35881 4194 32930
24808 52092 38322
47477 36011 37840
35559 44575 37911
18109 54246 38433
38612 42839 573
44501 38553 573
28989 49802 573
29116 51583 573
5415 58675 34509
28569 36692 13256
44170 41288 912
2683 71880 35292
28741 56726 39064
29469 12471 3707
28620 55806 3622
46881 36919 23429
37053 37195 11373
46773 37195 11839
48238 37195 11053
38157 37195 11220
33660 37195 10998
27146 56803 1279
23185 21986 35292
10731 43086 6069
37099 37195 6139
43127 37195 7186
31030 37195 6393
29986 37195 6169
27462 56767 37679
6424 44390 33582
6358 49618 37628
47822 32110 37361
34598 10252 6069
14099 51598 3622
48521 36417 10582
26847 12239 3707
41143 41135 38491
28405 50786 38491
27882 51616 38491
38841 43078 38491
22166 20981 6069
39988 28964 36508
48717 36672 35588
17365 8986 35595
8081 787 35502
30145 20272 35616
42312 31016 36920
2015 75382 4812
2562 58612 3852
9632 44245 15428
11746 35967 20868
35886 35996 20868
21967 36217 20868
21029 36524 20868
23374 14884 4791
32874 12510 5489
29003 13666 3707
14127 34471 28370
14440 33305 18263
14201 34194 32575
14539 32933 15157
11050 39957 25573
6111 56334 25573
9853 44849 25573
19115 52020 37628
34231 3874 4679
11669 1383 18477
11330 1720 34852
11657 1396 9577
25191 55552 37628
44554 37174 26113
22031 16517 34612
3070 73132 26509
33334 55320 0
5109 49080 6069
3072 73120 18186
13343 38311 5461
35692 37195 12911
31069 37195 12377
16925 37195 11341
32109 37195 12752
36658 7337 9284
36907 7088 24207
37599 6395 14993
36779 7215 12997
37046 6947 8232
39468 4936 32930
32704 19567 3655
30564 17211 3655
24428 12851 3655
9750 1762 3655
13873 3943 3655
48109 32639 3655
49686 37152 19012
14107 35911 23429
18452 35690 23429
29514 35872 23429
9509 128 35355
12403 31575 6069
13697 37696 5115
8831 48203 4884
35202 8615 32930
31826 9375 6069
45826 35363 28257
36405 35363 27325
44433 35363 27169
40846 35363 27072
18175 35363 28156
33317 35363 27628
10743 43641 4700
39967 5497 6069
10425 35823 12364
10425 36954 32355
37951 3721 35292
48930 34529 29210
48694 34805 35107
1109 68652 5789
3117 72914 21031
24056 19271 3707
6704 50101 37628
9748 45111 32930
5172 58540 20392
7388 51897 35189
28646 55705 1436
33127 55056 3622
47 75027 26515
436 73226 7540
58 74972 16486
120 74688 10048
186 74379 21138
41937 200 6069
25370 15007 6069
32676 54845 37628
8708 45872 3707
2876 74030 22422
2607 71042 23051
7507 54321 23051
6379 59788 23051
9837 47919 23051
26278 11582 4881
5595 46795 33474
4378 65857 8315
3770 66746 8315
3120 68038 8315
5094 64064 8315
19746 36209 25851
21933 36055 25851
16535 36375 25851
38144 35719 25851
5264 55361 6069
5073 59676 8315
10690 44041 8315
5860 57301 8315
8830 47985 8315
14554 29463 35292
12353 34919 3707
25738 52244 36037
20166 35472 13151
35393 7051 24581
35233 6891 21887
35556 7212 29035
6454 51248 32930
6096 47698 3622
47289 34058 16533
47043 33847 10702
46424 33316 15359
48155 34801 6299
46786 33627 12071
46468 33354 14397
46327 33234 5597
3063 72752 8508
35036 10523 5075
2575 65098 6069
12774 35809 6069
12602 32476 6069
5793 54578 6069
33473 11946 33946
21662 52803 35442
28628 37050 25901
4107 58408 32930
6407 54775 25418
413 73333 32959
560 72653 21238
418 73309 16087
31972 36110 15781
47747 36276 15781
45319 36567 15781
34067 35716 15781
4689 58882 6069
49437 33938 18539
49158 34263 10269
49161 34260 14235
47805 35539 21253
48134 35848 27402
47966 35691 15610
48198 35909 28179
45162 40575 1297
36957 46471 715
10757 43610 34342
38289 961 6069
34135 52827 923
31172 37001 28676
35872 7370 3707
38017 37195 7397
21247 37195 6972
33760 37195 7312
26281 37195 7731
9221 48193 35442
17119 50267 36400
30810 37195 21166
42440 37195 22377
45498 37195 22691
37978 37195 21718
14152 37195 21147
30097 37195 22114
4009 55644 3707
19686 36709 25851
2263 71824 15552
5926 60733 15552
12346 40587 15552
6985 56846 15552
5422 53960 6069
28706 56236 35442
4232 63648 5480
48918 34544 23332
49169 34251 32070
49067 34370 26717
48816 34663 28040
19121 36382 23429
23614 35686 23429
13688 36177 23429
20355 35873 23429
913 71332 3987
28117 52643 1448
36783 8840 3757
39146 35401 31591
12460 40282 20689
2510 72133 20689
7070 56147 20689
12122 41099 20689
2161 70245 20689
2882 70473 3715
11505 39176 20689
11038 42720 20689
8697 47859 20689
8471 50361 20689
6818 45746 32930
20008 27365 5752
21083 21788 32930
36801 3005 32930
16515 32694 34863
11556 37079 18198
30502 54011 37628
28648 37180 6042
33574 57166 1746
12991 31760 3707
7221 52628 23051
8533 48204 23051
12570 38753 23051
10721 41947 23051
5994 62256 13888
5857 62710 14035
11949 42611 13833
6184 61629 13837
19336 22686 35292
51412 35478 21237
51264 35311 24385
9846 40887 3707
32755 54091 1436
34777 10758 35072
17201 51628 37628
24759 18661 3707
33648 52832 36122
4447 48212 35533
29129 35570 18286
12625 35828 18286
17590 36573 18286
27417 11270 6069
32912 52829 3409
23914 55392 3622
10717 46677 15042
7537 57168 14394
6011 62202 14641
2550 73617 14600
2708 73099 14395
35701 56161 1436
29643 54486 1436
20532 24817 3707
20342 51558 3622
47449 32484 35303
8997 47098 6069
31049 55906 0
41786 0 33599
122 74676 27357
11542 39944 32930
31036 55745 37628
9284 50535 35442
50798 37125 12140
30228 7526 4737
9833 51356 35442
8260 48703 3622
2131 73517 29871
4083 60761 32930
42003 876 35292
39790 1609 35292
20441 11516 1569
2571 70603 35292
12530 40615 30931
32249 18331 1982
20814 8325 2832
21761 9153 2833
39397 24585 1810
41851 26733 1965
46334 30655 1829
34480 20283 2316
42360 35624 33320
30635 36242 33320
26854 36196 33320
11815 32115 33277
36670 54082 3148
25573 13408 32930
47574 37195 17832
46286 37195 16250
29084 37195 17158
23644 37195 17890
39112 37195 16766
30803 37195 17868
13712 49446 1436
16440 53210 37628
44795 35460 28545
36506 55876 37555
12713 32213 17130
12731 32218 25020
13158 32332 11485
12603 35471 10602
9284 51219 18516
23078 15481 35268
18867 22272 3707
12025 35548 28676
22535 36035 28676
15047 36621 28676
31834 35820 28676
38080 35802 28676
29386 15833 1680
35051 7987 35292
14673 49439 2915
21878 36616 25851
42297 37046 5891
14473 32748 24076
13642 52543 35442
2763 74550 19253
2516 75696 25163
2968 73605 10582
2644 75101 19573
4349 63111 34909
13861 49459 3622
5606 53260 3707
6723 54177 4696
1719 63328 3949
18794 55259 35893
41954 36327 10582
34853 35569 5862
33524 35953 5862
16763 36257 5862
13481 36570 5862
23132 23172 34383
8315 50840 20689
10122 44648 20689
12302 36385 20689
12352 37278 20689
4843 49176 4812
30138 7965 32930
3609 69090 25573
2390 69290 25573
6435 58236 25573
8885 51442 25573
5385 60648 25573
33964 4103 5142
38967 5972 32930
1293 70500 35292
5999 56543 8315
10778 43396 8315
8668 48600 8315
4419 61736 8315
37324 1307 4149
38316 5770 35292
36724 55431 36725
4529 60639 3707
7872 46440 3037
12354 34998 27722
12345 34995 18690
11885 34872 24365
27104 11963 32930
221 74221 5471
20451 55661 1814
16277 50318 35442
24582 17436 35292
27665 52489 2165
11381 2486 35303
37133 36376 5862
8029 51370 1659
20949 51324 225
13228 31716 32930
49417 35418 27654
6632 54140 18389
38445 26628 35303
27872 17417 35303
42227 29071 35303
39077 26693 35303
37510 24839 35303
39594 26084 35303
14967 6242 35303
35449 22592 35303
33149 21859 35303
16689 36030 18286
35024 35904 18286
26909 36339 18286
9046 37845 5449
2844 72086 33930
13020 38578 31141
5492 52743 3707
2883 72283 23255
2353 69371 23051
7804 53530 23051
4275 65003 23051
15217 34973 3945
25063 52136 2678
7052 52343 8852
3184 65008 9057
4252 61512 8857
10529 40960 10179
11076 39168 9393
48573 32926 9207
48243 32643 16510
49476 33699 21909
48639 32982 14664
49194 33458 13340
48236 32636 7650
48892 33199 15586
33391 36840 20868
12016 38980 32930
5155 59681 5173
2158 70862 18295
9451 48721 18295
4255 64631 18295
4150 67382 18295
12903 36923 35292
33299 6435 6069
22486 9788 2347
18902 6651 2297
32688 18715 2237
16341 4410 2190
31107 17331 1734
11695 346 2644
3062 73168 23027
7916 55468 13396
36788 54676 2856
21876 23251 6069
6785 49966 32930
46 75464 31486
3545 53922 3944
8795 38409 34044
7148 50543 35292
11878 2624 35303
44074 28816 1569
38273 3056 35292
9726 50205 37628
17494 54575 37628
11653 3368 22704
11708 3423 23235
12055 3772 26876
11399 3112 33872
11366 3078 25486
28929 37195 32942
42966 37195 33028
21127 37195 32770
43955 37195 32250
37161 4253 6069
16612 50328 3622
11969 36779 31159
42274 39750 38284
4005 52147 34175
50311 37360 1489
4156 68188 18544
31169 53020 1436
20990 55368 1436
24173 54162 37628
28994 13605 35292
24324 55947 39064
25897 11998 33940
28056 35439 33209
14330 35054 6069
503 72915 30504
5164 59016 32952
7506 46550 32930
30553 55142 35442
7252 57610 8372
17475 25955 6069
10820 39210 3707
22682 15721 35095
21860 12940 35488
1446 66146 5969
1295 66741 5272
1524 73288 9489
19212 53025 39064
22545 55694 1436
16365 52729 3622
24178 53067 3622
37925 4916 32930
48624 32969 28874
47395 31915 32074
47540 32040 9250
48858 33170 29523
48670 33008 28065
48254 32652 34924
10649 40995 35292
22159 54562 37628
33693 10222 35292
4790 46801 3019
28798 16247 32930
41084 1789 3707
29818 54733 0
16549 50086 37029
2935 73754 32524
38461 834 32930
26559 52741 35442
20005 55001 3622
32550 22191 1553
4568 60476 29058
3067 65392 30200
5320 58014 29369
4354 61177 29621
1112 71791 29604
50078 37242 26894
14270 33940 9909
14112 34527 22808
14435 33323 6099
13926 35222 31365
21560 21135 32930
27057 10741 35080
19301 52482 37628
42123 2190 35292
25320 53863 3622
4160 51553 5575
10884 45561 8334
37257 45028 573
49159 35526 573
35713 46768 573
48637 37599 573
44709 40019 573
21511 35527 13240
46607 30941 36918
45358 29847 37021
49036 33066 36496
37738 23180 36397
40070 25220 36182
22029 51562 37281
20629 52012 39064
43542 3767 34426
3386 62609 6069
3018 73372 31368
22451 53089 0
34132 52864 1520
44593 35363 10978
17446 35363 12492
11946 35363 12384
34505 35363 11177
15375 35363 11972
20253 35363 12041
47703 37195 6206
37300 37195 6592
40086 37195 7010
23119 37195 6300
45431 37195 7409
36136 36664 15781
14327 36189 15781
19349 36653 15781
23085 36238 15781
34224 20145 37304
36802 35363 12490
48680 35363 11658
44751 35363 12249
23432 35363 12933
32375 35363 12640
19062 35363 12645
14933 35496 5745
29725 11561 35292
18870 52698 35442
13434 35300 6069
3681 66487 34525
20193 24703 32930
25185 53247 37628
16560 27629 6069
7269 46121 2650
10779 43309 10843
4842 61242 10843
7668 51858 10843
10644 41241 10843
31024 14300 4523
47840 35283 34221
7432 52028 4671
35029 44956 1044
30270 48376 899
51071 36967 25603
5492 57751 20531
3422 64370 20446
36087 55042 1436
36071 7702 11345
35263 35363 7027
49363 35363 6769
47325 35363 6964
39920 35363 7432
40979 40681 864
29840 48685 894
13295 35681 18981
46486 36424 20868
3590 65360 35292
11789 582 35408
20414 51226 1161
33960 37170 16007
2966 73611 20334
13020 36701 13321
11549 38795 13321
8595 50203 13321
5655 58955 13321
29383 56283 0
12338 32413 9722
12049 33493 17590
12010 33637 11904
12268 32677 10651
27349 35546 28676
42690 843 32930
6157 60090 15552
2853 69514 15552
5218 63843 15552
39346 363 3707
37759 4621 15280
37531 4393 13678
1904 65827 6069
51646 36079 27194
32564 56807 1436
20634 51255 38443
46633 38700 573
40141 43846 573
47664 38595 573
33522 11898 4694
14537 35363 32272
23893 35363 33085
9402 46324 32933
32644 8073 3707
27339 50482 1486
31308 47630 1435
482 73012 16922
11308 37832 35292
20765 20707 3707
13111 35535 23427
7730 42887 6069
7603 49328 3707
10425 36906 22225
4856 58560 32930
27832 52510 36287
7112 52581 32986
12655 3958 10694
12816 3798 19457
31270 10611 6069
8723 52723 25535
3560 69758 25533
7844 47527 3622
11241 44855 25289
14861 35625 4437
26323 14872 32930
13751 49101 37007
11290 48369 37628
31434 55562 39064
15278 30277 35292
21355 24972 35292
4131 68405 30680
11172 45176 30194
13474 37583 30459
11885 42822 29881
13915 36128 30318
5743 57041 18394
15604 37085 33247
12046 33509 35292
41475 5273 33227
13026 3591 15410
13111 3505 14791
12815 3800 12160
46504 38068 1596
47737 36790 1596
48822 36700 1596
43722 39602 1596
40154 43068 1596
3554 60408 32930
23499 52493 1436
19235 26020 32930
50930 37058 7545
25200 36665 18286
42454 37007 18286
28955 36817 18286
15510 32361 3707
43011 1054 6069
6995 42838 5041
597 72481 16793
30448 56532 35442
35314 37195 31932
10602 37195 33090
17897 37195 31689
19327 37195 32284
7056 52331 25212
8364 48048 24877
4854 59539 24205
3331 64526 24013
6729 43560 33483
4834 54000 6069
7876 50835 37628
16386 26495 6069
31688 13174 32930
36567 4200 6069
31250 53960 1436
32942 55623 0
49296 36930 33283
21081 37081 10678
20429 51930 0
45249 33346 1502
44912 38292 38491
36129 44757 38491
35632 45880 38491
32078 48197 38491
42556 40131 38491
12012 42404 20053
12655 40282 20130
8450 54154 19300
4051 68668 18707
29461 51249 37468
30065 50364 37468
30606 48790 37468
27590 52129 37468
41196 41346 37468
22105 24239 32951
12755 30372 33733
49749 37173 24163
20032 51184 38363
2094 69182 15552
12871 37866 15552
12354 39159 15552
7352 53968 15552
35601 9880 33000
35717 36593 25851
11040 2008 6457
11177 1873 14182
7909 49346 35442
43546 36591 25851
12028 42351 24933
5352 64374 23988
5494 63907 24793
3969 68937 25074
23344 54449 37628
5054 54076 3707
41970 37071 10663
19247 10601 1934
46146 34355 1688
29052 19259 2452
23079 13985 2216
36099 5436 20262
35166 6368 16084
35379 6156 30868
35236 6297 25094
35147 6388 10149
36015 5520 21651
35230 6305 31538
41430 1893 32930
21452 37162 23211
10537 34647 33229
51596 36257 26063
215 74249 25863
5599 46782 5495
22542 13435 37374
40211 35994 5862
4160 64002 33853
11271 40100 28959
8776 49161 28959
13339 37450 28959
10978 44917 28959
19972 21084 3707
12414 35414 9942
25946 53073 1436
9279 45277 32930
38056 4918 32045
38156 5018 31418
25084 36529 5862
36782 35363 6616
24103 35363 7163
34155 35363 7249
24489 35363 7732
19648 35363 7731
4649 50007 33077
19548 27618 35292
28323 56525 1436
30314 56064 1436
6094 61929 9402
3706 69803 9194
9451 50852 10657
4356 67659 9298
8024 55562 10189
45544 33711 37406
34991 52973 39064
41090 4360 35292
37739 7373 3707
17999 23073 6069
18919 54729 1436
3981 63966 3707
35389 54392 1436
11165 42378 3746
12399 32959 6069
50748 37144 29326
26870 37195 32422
12284 37195 32422
21773 37195 31737
32399 37066 20937
27327 54762 0
29082 36958 28676
32746 8728 6069
2857 74117 28388
12710 48686 36576
37173 37195 26344
47390 37195 27060
40480 37195 26189
26552 37195 26742
46666 37195 26970
11095 39145 30910
7073 51242 32930
48990 33283 22463
48909 33213 20582
49180 33446 8194
49138 33410 18480
47884 32335 9876
49205 33467 25793
38443 5518 14281
26830 52383 937
5499 50290 3707
30468 9205 3707
10938 43209 5480
8540 53774 13577
2742 63262 35292
32807 11037 32930
29961 51232 1596
47174 38596 1596
44764 40538 1596
37505 44847 1596
25319 53796 37886
35368 56719 37628
22225 22466 6069
18953 22909 32930
31449 36825 5862
26682 54056 0
23683 36470 15781
29548 36339 15781
22290 36155 15781
25337 36160 15781
31256 36467 13256
35979 2399 33258
28458 55220 0
38232 1233 35292
46680 37195 31825
25534 37195 32530
25870 37195 32937
37029 37195 33044
32865 35488 5917
23282 14995 33403
19583 27690 3719
15605 27873 6069
49862 35437 35303
11230 48561 3622
11771 34529 24794
11956 33840 31292
11969 33790 32817
10425 37158 6701
1058 75778 30646
1112 75790 21851
1292 75829 27606
578 75674 23664
22641 17372 6069
883 71824 33398
26470 12402 32930
37441 26706 37277
11743 41388 5916
36075 45277 37468
41769 40518 37468
35022 45505 37468
33450 46755 37468
49017 33003 2727
34966 20707 2888
39885 25012 2827
46154 30498 2894
42063 26918 3442
21475 55888 38265
34688 37135 28480
40172 44091 37503
42627 37041 28643
32236 54381 37628
3032 65831 10843
8486 49333 10843
10242 44213 10843
5361 59358 10843
15557 34343 34380
7348 46613 35442
13880 35858 25213
36336 6081 6069
10425 36847 26656
21673 37054 15831
21684 18762 35292
2371 75961 21330
11338 38591 23229
7986 55347 10843
2379 71077 10843
3339 66606 10843
3905 65035 10843
5794 62100 10843
12713 30477 33114
28538 18717 3532
14474 35393 18068
22597 53543 35442
27687 17930 3563
719 72259 29717
8311 39553 33612
51612 36212 5397
40138 4113 35292
14251 29953 3707
51580 35668 11653
51466 35539 20332
37714 37043 18253
14474 32751 22319
5814 62535 15411
41927 36976 13256
13005 36794 3707
10998 49167 37628
28269 53201 3622
20534 21576 35292
26524 13329 3463
8846 48390 31189
3197 66914 31189
3179 69059 31189
4231 64328 31189
45969 30537 35368
40488 36996 31437
21969 36815 31437
25870 36184 31437
13542 36839 31437
23197 15234 3807
9517 39282 6069
48901 35410 18094
37813 2905 3707
50644 37182 31560
28401 10029 35292
8280 48324 24374
6452 54310 24259
6696 53510 24183
7793 49917 24105
36712 55464 38616
6184 52619 6069
24805 54179 39064
39964 36484 7746
25211 13156 37468
20989 9080 37468
33229 20421 37468
14762 4181 37468
17971 7333 37468
42798 28118 37468
20327 8628 37468
18768 6855 37468
10127 844 37468
26318 15552 37666
5620 63046 18377
18052 35370 12985
19098 53337 1436
43272 844 35292
35723 53673 0
2798 59899 32930
28699 53587 37628
33742 48782 37839
12458 4043 15435
44011 2753 6069
40505 29194 37463
33095 19186 1588
12931 2557 10737
12943 2569 17380
12453 2075 16725
12270 1891 11095
13143 2770 28681
46127 37032 7746
2784 74452 9999
2576 75417 14506
2744 74639 9478
2693 74877 11270
2473 75893 17993
10279 38663 6069
2265 73294 36085
18379 53826 39064
25251 56552 36978
28274 11205 32930
27169 10700 33068
36267 5403 32930
3306 63411 3707
15167 26241 33287
8204 40580 6069
7458 50381 1436
9283 42099 35292
46645 32386 28763
46690 32333 31211
46238 32861 33944
24666 21001 6069
4387 61068 19809
3858 62802 19691
7792 49923 20116
3336 56554 35292
5280 48726 35292
21397 25063 3707
51390 35454 16367
51625 35719 28659
24971 35363 23058
48822 35363 22424
20695 35363 22640
31119 35363 22648
32562 35363 23038
33747 35363 22282
7613 46971 1436
45902 36881 25851
2417 59136 33926
42380 40281 1596
36690 45022 1596
44440 38488 1596
42091 40838 1596
46981 31994 18802
47085 31872 5529
47107 31846 23268
46966 32011 17410
24685 52125 37565
23632 53526 1436
30740 37195 22927
15563 37195 22795
13617 37195 21678
24506 37195 22524
26041 51490 38462
3454 64124 30508
6458 54289 30006
5017 59006 30827
6737 53377 29911
11337 38314 30819
21987 52253 37628
33570 6002 32930
33061 19173 37344
31462 6357 5226
33571 57112 35505
32855 36595 23429
32178 37195 12036
42471 37195 11977
11527 41479 35292
34478 3662 34586
13299 2927 20131
12996 2622 19800
12247 1868 12374
12046 1666 6874
21156 54734 1436
49068 36804 21852
20732 20161 32930
29301 14466 3707
48225 36441 5862
28372 35445 10731
20255 24614 35292
31558 36069 31437
30183 35985 31437
20153 35547 31437
33950 52829 38364
327 73731 34597
22960 52844 35442
915 72333 34546
37411 6583 23002
36428 7566 32760
38012 5981 26082
37549 6445 24877
37358 6636 26153
51504 36470 29612
10505 41395 25438
2965 56430 34049
11484 39754 18295
6522 55726 18295
12579 37645 18295
7271 52965 18295
21526 17375 3752
49276 36541 17726
27017 14148 3707
46413 35363 27755
21832 35363 27945
38456 35363 27015
31983 35363 27283
26604 35363 27474
33214 6290 35292
25875 55971 1436
2667 74995 28824
29225 53826 1436
3265 58340 3707
23873 35363 21311
25107 35363 22039
11246 35363 21364
25837 35363 22051
39171 35363 21639
17175 37195 16574
27731 37195 16922
13503 37195 16568
21100 37195 16477
14813 37195 17419
22358 37195 16571
32180 10908 3707
7526 41478 5626
26340 52691 1596
26427 51599 1596
32308 48705 1596
1070 75751 6511
8714 0 3018
31621 36514 20868
42870 3770 3707
36693 36534 13256
50894 36456 38097
13586 35328 28647
13535 35314 24656
13048 35183 19834
13095 35196 14600
31219 10621 3707
15152 30206 3707
12315 51911 3622
10054 52221 3569
43612 35482 15864
48848 36517 21008
49152 36803 28209
11017 2727 20639
11355 3068 16954
11613 3327 9656
11061 2772 28300
12390 35475 5933
11654 1399 32581
11578 1474 30698
16564 27152 3707
40752 36882 33320
46430 36039 33320
47823 36973 33320
47278 35579 10582
24490 36071 10582
25037 36058 10582
17181 36179 10582
43966 3466 5506
8862 47121 3622
20717 35380 21111
28099 54634 39064
34741 54376 1436
35071 45003 1569
9832 38496 35292
19897 27525 4401
11435 3148 15978
11930 3647 4265
11473 3186 13905
10890 2599 8840
13592 37706 35192
20285 26902 5922
7687 52352 31189
9236 46732 31189
5888 59854 31189
2985 71201 31189
1840 70642 31189
3069 63976 6069
13137 35207 26214
12343 34995 21446
40694 36658 5862
21721 10086 37468
32288 19339 37468
34818 21913 37468
35809 22446 37468
31547 18797 37468
18839 7730 37468
27692 56376 0
26969 35936 28676
14355 36040 28676
2311 75518 34283
27567 36729 31437
24220 36578 31437
20565 36871 31437
34880 10664 4237
11815 34785 30310
6740 45841 36130
4896 49008 33460
27190 56807 3125
35348 5110 6069
17227 31546 33808
26636 18966 35067
11296 38844 15451
11217 41515 18295
9413 47400 18295
10043 45429 18295
10687 41631 18295
38798 4627 35292
36320 56202 1345
8487 54032 30736
5961 62364 30567
9169 51783 30642
9922 49299 29647
8732 53223 30823
17500 54534 35442
51329 36727 11234
29008 12923 35292
14693 35886 25851
13234 35819 25851
19104 35976 25851
12882 36722 25851
41116 35363 16966
28466 35363 16185
48094 35363 17935
45768 35363 16453
31809 35363 16572
11948 1566 25997
12048 1667 21670
12715 2338 33365
11864 1482 27285
12750 2375 34217
18551 27602 3707
14435 30042 32930
48740 36880 18240
26609 37181 26125
14610 35363 7523
30703 35363 6221
26880 35363 6705
20937 35363 6231
44551 35363 6193
11581 36624 13256
17186 35860 13256
31692 36192 13256
15201 36075 13256
24038 22040 5674
12511 37192 6057
12713 39512 28959
11804 40163 28959
12241 36818 28959
9265 49598 28959
10304 46842 28959
50382 37128 3655
20345 54483 3622
50320 34744 37468
18070 54157 816
5542 56067 32930
15496 54309 1853
20759 19815 6069
3733 69190 20649
19194 53483 0
46161 33014 6116
8612 38842 4303
38065 23737 1489
19532 7956 1489
18925 8793 1489
22050 10703 1489
21528 9875 1489
44390 29434 1489
15726 5952 1489
8724 218 1489
34960 36456 10582
25028 52130 1121
2480 73467 20572
38781 25835 1489
41001 28756 1489
47500 35275 1489
35884 23359 1489
29611 17914 1489
48758 36037 1489
45796 33459 1489
48159 34351 1489
45413 32816 1489
26331 16857 2613
35290 24768 2963
37270 26517 3274
13577 5594 1994
32058 21914 3377
32164 22008 2764
18486 9928 2530
8193 43915 6069
24447 56123 37628
40732 5706 5984
35125 6410 11197
36581 4954 29682
36073 5462 25052
35261 6273 12427
34973 6562 11845
35590 5945 18292
35629 5906 32740
31948 55495 3622
26624 35363 32070
17489 35363 31885
39798 35363 32127
37373 35363 32642
12837 53394 3207
621 72370 15004
9796 47399 2743
38912 36760 23429
22144 36493 7746
19092 36230 7746
32858 35438 7746
16332 35363 6074
11729 35363 7167
23448 35363 7086
46383 35363 6126
8800 51934 18295
5759 61129 18295
4646 64177 18295
32552 56947 0
3572 69938 13466
32033 5826 4550
4427 62754 4907
42376 35363 32838
44043 35363 32474
34326 35363 32410
22315 35363 31654
35654 3532 6069
7222 51300 3707
29142 55875 39064
27170 35549 33320
16516 36318 33320
25471 36393 33320
33480 35996 33320
36233 37167 7746
20144 55593 368
36058 56535 2952
16169 28032 35292
27665 35363 21715
41054 35363 21186
21452 35363 22465
12501 35363 22841
46252 35363 21148
24454 35363 21479
10858 35363 27462
13748 35363 26397
16671 35363 27858
13251 35363 27752
39206 35363 26543
30691 8146 32930
14764 53193 35442
48481 36174 22224
47867 35597 30920
48280 35985 31307
48606 36291 24954
28545 54258 39064
29190 35419 13065
39764 36392 31437
46923 35559 31437
38741 35689 31437
18835 29070 34406
25137 55922 35442
28010 15380 35292
33444 19422 35787
19106 6876 35718
31605 17813 35896
30304 16675 36077
14545 2886 36807
20322 7941 35709
1857 72618 3888
9867 36037 4782
36745 4790 11887
36434 5101 11635
36977 4558 17949
37179 4356 21733
36438 5097 16615
47862 35263 3886
8968 49038 25573
7503 51925 25573
12329 35836 25573
26425 36997 33320
39805 36510 33320
35180 36248 33320
31285 36653 33320
41887 4965 4524
12009 33640 10585
12290 32593 27083
12110 33267 6652
11499 36942 20868
15946 36733 20868
37666 35637 20868
16113 36183 20868
18051 24069 6069
27155 15005 6069
23075 17112 3707
37285 4321 15613
14416 36424 4457
11291 44657 18547
44060 38471 38396
31816 57139 124
35270 54296 3622
24257 13971 5964
11364 38226 19228
9946 42867 19387
4574 60458 18941
6402 54471 19282
10189 42072 19391
7985 43245 3707
18266 23639 3707
31076 56157 3622
34852 3341 4486
5466 58311 23051
4753 61550 23051
12497 36563 23051
12460 37966 23051
20084 22976 6069
36352 6613 32930
22933 56171 37181
22073 17639 35292
15468 29152 3707
0 75402 7191
32482 6772 3707
51311 36747 31708
7629 51451 34355
3533 61332 32930
25302 20513 4596
899 72186 6390
1343 72281 5764
1654 72349 13212
2261 72480 6688
2138 72453 5389
5473 63373 13321
8096 53080 13321
4358 66697 13321
2369 69328 13321
23802 20470 35292
20378 36810 23429
12144 41826 15325
2639 66794 9520
6523 54075 9862
1086 71878 9167
5614 57054 10439
11457 37922 10828
51799 36226 36279
4457 57521 32930
36202 2726 3707
18159 50595 37365
36454 6718 6069
12032 31703 34967
15541 33047 3707
34090 53492 35442
13186 51586 37628
4540 56606 35292
19286 53997 37628
21728 23061 35292
46250 32846 27760
46306 32782 4854
46535 32514 9899
51661 35991 12773
35610 7268 30030
35364 7022 22767
21476 22207 6069
12899 51617 35442
50327 35193 23561
51128 35193 15909
50143 35193 21993
20881 19821 3707
6197 61389 23275
10069 43251 32930
26687 52375 3509
12035 52884 1436
24843 56497 36424
16384 25033 3707
2512 59466 32954
39512 2079 3707
7998 45605 6069
41017 35887 13256
17773 36319 13256
4594 61997 34498
26289 19363 5791
40071 36394 25851
25693 52238 37278
23764 15896 32930
4457 52288 6069
49477 33891 14945
49304 34093 9601
49110 34320 8921
12491 4043 30342
13105 38611 25343
30877 11387 3707
11804 36785 14331
7945 49422 13977
4911 59352 13673
7226 51776 14290
4402 61021 13647
6828 48146 37628
41935 37085 23330
43189 36122 23429
36049 7702 9684
28525 56931 38103
11203 2914 33232
11916 3632 17409
12196 3915 7188
5770 46281 34480
28637 52793 3622
13137 34097 35292
7089 52223 9592
11434 37998 9117
10564 40846 9314
6047 55635 9517
11268 38541 8789
30679 20743 37169
10578 2992 37053
9324 1885 36767
25276 15971 36563
20451 11711 36806
16893 8567 36392
17514 9117 37253
1183 67788 33512
2089 68593 15116
5733 56663 14382
2005 68869 14496
7271 51628 14795
13372 3168 25155
9515 39257 35292
19782 19435 34776
7185 56244 31189
9545 47136 31189
3507 69444 31189
12828 36794 31189
22735 54412 1436
49179 35193 6113
48049 35193 26954
49230 35193 10461
48418 35193 26317
50154 35193 10766
48632 35193 25745
49102 35193 23170
27646 56849 38523
8395 42219 35292
6624 53747 29027
1348 71021 29830
10037 42570 29321
3634 63536 29462
29761 36871 13256
22521 36687 13256
29876 7870 33477
9723 45860 35152
34463 53320 0
5697 46989 6052
12191 37195 16190
32621 37195 16622
43269 37195 16056
19485 37195 16776
31384 37195 16516
35616 53743 35442
8023 52658 10843
6941 55665 10843
2225 69906 10843
1720 73020 10843
7015 57049 10843
5897 58746 10843
2451 72521 29878
2154 72457 34811
2728 72581 25767
2881 72614 33416
14329 31843 32930
24622 35430 10755
7986 46761 32930
51676 35811 8837
35323 57000 38902
2072 75998 27279
1250 75820 19228
2205 76026 10082
51072 36740 1489
22947 51764 36623
50386 37238 28544
33983 8342 3707
30014 19152 37468
35012 22760 37468
43993 30861 37468
29312 18562 37468
31207 19532 37468
28862 17975 37468
46586 31670 37468
32547 22065 37468
24139 14034 37468
49501 33806 17310
27530 50345 38248
26914 50787 38250
33394 23094 2779
16660 8317 3076
31104 21071 3344
14345 6273 2307
7810 501 2431
15453 7251 3102
14988 6840 2402
18792 36018 5862
22877 36403 5862
10674 36147 5862
17852 22126 5076
34697 20519 35558
16745 4811 35592
27284 14032 36318
41710 26656 35723
15357 3596 35981
8614 46786 6069
10792 2475 7129
17909 54690 3622
31083 36473 28676
12820 3795 6336
12750 3864 4123
12817 3798 11530
3174 65089 30916
2800 72597 3365
1681 72354 17219
1049 72218 14011
9290 38195 35292
25579 35504 28619
28392 52595 644
32564 56551 37628
14466 29441 3707
28596 53885 35442
4720 60455 8383
33324 11239 35292
17217 23103 35117
20416 19476 3707
14517 27311 5609
28048 54000 37628
41956 2865 6069
26633 16121 32930
28937 12895 6069
31809 52789 36694
10217 39069 32930
42319 0 4499
19988 19160 4112
12206 51259 37628
51670 35927 28037
30516 56235 37628
8775 44136 3707
18406 25092 32930
22910 56167 2056
11578 43836 24811
4194 68194 23589
10992 45770 24454
13630 37066 25120
11125 45331 23524
31859 56329 1436
8821 50870 37628
50812 37287 37468
45364 2332 33071
26974 13820 1598
25079 35363 11743
33919 35363 11239
10664 35363 12176
14595 35363 11083
14151 35363 11653
17873 52935 37628
48205 34843 12773
48340 34959 16497
47923 34602 24770
46548 33423 31946
48004 34671 13369
16466 24195 33633
9789 50448 3622
23462 20423 3707
20656 26462 34743
49588 34517 3655
49442 36324 3655
23738 13468 3655
39934 28584 3655
23318 12838 3655
37840 24695 3655
48097 34504 3655
18090 9196 3655
2418 75935 32696
6113 53741 32930
21515 24120 32930
9104 44054 32930
6733 45837 1571
3627 64149 35292
34736 36693 20868
48675 33706 37468
41670 29126 37468
23575 13760 37468
43756 30055 37468
47563 33400 37468
44883 30536 37468
38568 26117 37468
10112 2200 37468
9183 47309 34079
33878 8264 6069
6491 45524 35292
10925 40145 18356
36705 4997 35292
19577 35363 17694
22098 35363 17100
24839 35363 17677
27541 35363 17561
22150 35363 17787
