ply
format ascii 1.0
element vertex 2792
property float x
property float y
property float z
end_header
28647 56973 51343
14197 59250 50291
19707 58382 51132
17940 58660 51026
33169 56261 51857
39225 55307 51837
27964 57081 49946
3684 60906 49714
28201 57044 51915
18692 58542 48538
26560 57302 50011
5912 60555 49210
29046 37456 47218
35240 43542 49326
10032 41696 44049
19269 34398 44834
11343 36040 43495
30983 41001 48114
24579 51068 48291
44131 39484 50509
44675 39444 50612
14227 52411 46426
20945 44237 46585
16289 44941 45760
13556 37538 44151
42464 42147 50562
15929 50850 46540
34197 41906 48883
18705 43496 46033
16879 43954 45735
23726 47545 47614
23078 49134 47714
32876 35708 47728
28677 37911 47210
18886 32392 44469
15636 36406 44401
34319 44450 49274
17426 35171 44579
37946 37369 48975
8936 54657 45698
17767 46686 46305
17046 51236 46817
24482 45800 47513
16206 35729 44417
18742 39148 45414
11695 50083 45587
33449 40814 48577
19459 39691 45634
27930 49887 48787
16535 45693 45917
35328 42413 49181
17362 39505 45191
37949 38849 49189
18429 53921 47479
41936 40060 50156
35335 37501 48475
17907 37916 45070
28696 36565 47021
15301 54129 46887
23513 37930 46187
13607 39412 44431
43504 38963 50310
16998 38612 44990
13119 33367 43463
28248 39122 47300
44402 42053 50933
17856 41715 45607
19188 45358 46397
9447 50543 45207
34225 46933 49613
14331 45756 45488
8859 60090 8583
20793 58211 8260
3277 60970 9941
4257 60815 9279
46544 1688 20195
46544 1423 22520
46544 1975 28006
46544 1749 26866
10332 39291 37063
11384 34110 37918
7454 52975 44109
8866 46312 39648
7619 52244 42676
10858 36469 41808
11498 33460 39716
10130 40352 35567
7339 53523 44407
9930 41200 38082
11975 31260 37266
9298 44336 37108
11629 32789 40327
11510 33599 35875
7385 53358 43257
10078 40461 38309
9924 40926 43901
9343 44061 38140
8561 47797 39709
48538 21362 14903
49943 34937 36927
50078 36236 10419
47583 12131 13319
49333 29045 19256
50112 36562 28100
48211 18203 22579
49781 33369 16560
47944 15626 23319
49727 32848 7627
48900 24860 17922
48002 16185 20058
48384 19872 27827
47459 10939 10048
49827 33811 19406
50308 38459 43789
47888 15081 14081
50095 36401 14136
49925 34759 31472
50304 38422 48475
49558 31215 22342
48250 18578 15201
47258 8998 13941
49860 34132 32010
49347 29172 7989
49269 28427 15557
48230 18387 23315
47912 15309 15609
50162 37048 31705
49419 29876 11036
47853 14747 12418
49235 28098 37842
47743 13682 9547
49282 28552 37344
48869 24554 29356
48005 16213 17764
49189 27651 21790
48559 21562 27689
49404 29722 37508
49501 30661 23628
50059 36057 46157
47707 13336 12845
49062 26421 9343
49951 35013 23899
50251 37912 15826
49107 26853 30407
49031 26128 20017
49008 25897 23656
49604 31655 27471
49957 35069 15251
49798 33535 28876
48852 24391 20583
48857 24441 14621
49081 26608 24037
47972 15891 12209
48344 19487 26703
49013 25951 10635
49103 26820 28684
47736 13614 17206
47765 13890 20156
49510 30756 30585
48185 17953 20483
50219 37599 42686
49763 33195 33740
47487 11209 18747
49178 27544 33884
48775 23647 29604
48789 23789 19712
49488 30538 26689
49518 30823 9401
50191 37332 41767
48618 22131 13366
49429 29968 29509
48278 18845 18723
48229 18375 14094
47987 16036 18824
48533 21316 10388
48105 17180 16933
50004 35521 10257
50365 39006 17189
31419 0 11782
32687 0 16596
14898 0 18145
27180 0 19090
18732 0 26525
30548 0 19889
25141 0 24976
22529 0 17759
16272 0 33757
14789 0 37874
27077 0 12189
46120 0 8144
16426 0 21736
32758 0 13771
44547 0 9310
19579 0 17925
15988 0 19612
12840 0 29322
22247 0 26137
16957 0 26632
23832 0 13905
16260 0 16843
15783 0 33171
24830 0 19103
24306 0 20781
33586 0 21297
13862 0 36171
27930 0 24896
14753 0 17511
15271 0 32969
17945 0 33192
15712 0 22673
23608 0 17028
18674 0 16853
23857 0 19532
26232 0 18265
21721 0 16070
15401 0 35033
39395 0 15126
34946 0 15021
22014 0 21093
20932 0 16058
17705 0 16564
27401 0 25907
23864 0 22308
15330 0 17155
2644 61069 41583
688 61378 39619
4906 60713 43392
1305 61280 42689
7681 24122 42819
11001 7994 43524
2129 51081 45706
7879 23159 43304
10950 8243 34595
8633 19495 42766
4470 39711 41314
11811 4064 17955
8293 21147 34776
11108 7479 28113
6716 28801 39385
11543 5360 37480
9178 16850 43733
3092 46406 45695
4653 38827 39771
3015 46777 42118
3211 45823 42642
9606 14766 29337
9550 15046 43133
10000 12856 31745
9845 13614 32815
6673 29015 46265
8014 22501 43894
12093 2697 29636
11892 3673 30756
7641 24316 30988
10541 10231 42142
7209 26413 35755
8610 19609 38016
10355 11136 39814
9217 16660 35639
4728 38459 40419
10256 11616 39660
5616 34146 37762
6786 28466 41931
11835 3947 29746
9931 13186 23810
9286 16321 38099
354 59702 49595
8721 19068 24887
7284 26046 30559
6797 28414 36682
7375 25606 35957
11515 5500 34803
3574 44065 46210
9703 14299 29151
996 56582 47078
11000 8005 38047
8195 21623 35152
12071 2803 21162
6889 27966 31125
12110 2609 26430
7268 26127 44973
6027 32154 34028
10408 10875 40325
5977 32393 39642
11353 6289 18602
7531 24851 43200
9410 15722 35232
11041 7804 22618
10100 12370 29807
9447 15544 41990
9018 17626 43821
11575 5213 40999
8970 17860 24633
6776 28517 30707
11943 3417 37199
10402 10908 29193
9260 16453 28190
9109 17185 27094
10769 9124 26958
11713 4542 34568
10225 11761 41921
11291 6587 25271
5837 33073 35426
6607 29334 37158
10598 9957 31443
10536 10250 37810
5675 33863 43452
6542 29652 43057
6299 30829 34633
7520 24900 39625
49871 34242 6457
49429 29969 5134
49062 26425 4679
49706 32647 4604
50495 40264 4406
48546 21434 6602
49146 27233 5244
49218 27929 5014
51586 50803 887
50331 38686 2523
50099 36438 4290
48172 17826 6100
8517 49703 49890
17381 30752 48923
35301 2609 48433
10996 28257 47295
10308 37444 48481
15284 26560 47903
14327 18084 46491
16729 10584 45889
24044 6929 46817
11925 29746 47694
9940 20610 45983
16742 22173 47560
24802 2373 46311
38953 7728 49896
35572 6058 48983
28332 10643 48204
12038 19815 46286
11365 25488 46969
14366 3314 44373
15973 34416 49171
17482 4353 45141
24883 11417 47630
23769 11189 47376
14906 3325 44481
32565 7270 48560
10700 24626 46713
32615 4845 48220
29059 2728 47209
15104 12884 45897
39931 6574 49924
20962 8222 46390
34744 3134 48397
36176 10242 49706
45592 3212 50565
15837 2602 44562
27686 2310 46876
695 58446 49594
26159 19222 49008
19818 20102 47874
24145 4993 46558
13568 7408 44804
14349 12042 45626
9940 27578 46987
24111 14456 47914
7383 31250 47007
8911 23862 46247
17530 26297 48311
12653 36809 48856
11151 35758 48405
4428 53360 49604
30563 17306 49607
6455 46063 48956
21118 14459 47320
31152 6990 48239
22561 28656 49651
11823 28656 47516
2664 49551 48705
37840 3208 49024
12503 41969 49569
20223 3708 45593
13230 8450 44886
29104 6695 47789
10106 35716 48192
35395 3191 48535
27479 18428 49156
15687 16944 46598
10415 40627 48960
22851 8373 46788
27042 19779 49263
14259 8267 45064
9416 41646 48909
23516 13199 47615
19527 11127 46524
22965 27536 49570
22929 17621 48135
9168 44987 49340
26178 20623 49213
29963 11577 48663
25104 12960 47896
27599 24854 50105
26659 6426 47264
3793 53219 49458
13105 35593 48770
30006 4494 47651
7524 41841 48561
22776 18404 48217
42176 3762 49965
20664 29687 49422
29693 10937 48517
17005 28055 48460
26427 25437 49956
17023 9484 45789
8561 33781 47606
11833 32268 48039
22855 15693 47843
17196 36782 49755
11158 30765 47688
25187 20835 49047
18873 23114 48120
24520 33367 37770
14137 31010 36018
23984 33245 37935
19871 32315 31274
28459 34263 36162
25619 33617 37527
16120 31464 29670
25165 33515 35190
12788 30706 31706
35278 35815 30101
21783 32750 29830
41746 37282 32044
13501 30864 39956
44372 37880 29484
16976 31653 40133
36962 36197 30370
18771 32065 31380
39733 36825 31584
43417 37663 29949
45866 38219 29808
31134 34873 30680
22267 32855 38072
18777 32066 32584
25038 33485 38250
49610 31720 5490
48659 22530 4745
50063 36089 5438
51472 49703 371
51299 48035 1511
50349 38855 6813
49354 29242 5290
50911 44283 1771
48420 20217 6882
48097 17097 5643
50499 40310 2900
50631 41584 2136
49777 33331 4949
12215 1421 17705
12215 903 19427
12215 978 20425
7289 54030 39271
7046 55430 35136
6529 57865 36885
6512 58185 32326
6811 56635 34077
8936 46145 36309
10152 40386 32840
7420 53580 35651
11298 34967 29505
11433 34275 30119
7534 52852 38907
7205 54839 31604
8318 49218 35224
10057 40801 33778
8453 48862 29428
8966 46259 31274
9918 41465 34107
6059 59789 44013
9991 41191 32465
7214 54909 29430
9091 45582 32602
9055 45719 33268
19771 58372 8611
6980 60386 10391
5388 60637 11210
30422 56694 8042
10294 59864 10416
14858 59146 11035
32255 56405 7523
15514 279 44426
21827 1094 45681
17632 610 44847
23044 1057 45923
11635 32719 41045
9520 42930 43314
11426 33788 40168
6950 55391 44933
11493 33528 38821
7993 50501 41106
9104 45041 41749
11926 31672 33842
11687 32564 39235
9978 40992 37563
7731 51662 43321
11800 32441 30927
9570 42919 38843
9360 43735 42881
11864 31939 34628
10161 39962 40122
11796 31907 41563
10899 36648 34637
11533 33638 33001
32815 54609 50438
11868 58809 46879
48740 49814 52913
49116 41765 51829
29980 53365 49695
27799 55995 49640
20718 56512 48307
32308 50056 49682
29547 54043 49707
49443 44566 52297
22674 57759 48875
41181 46493 50932
36657 47495 50177
48691 53243 53397
46245 45392 51780
39736 52967 51578
33489 47452 49541
33650 50906 50071
28913 52748 49394
50757 45040 52627
40789 43961 50490
49273 46881 52597
25880 52906 48814
36076 48156 50157
44525 43017 51096
35144 54196 50841
45733 44683 51576
41954 53620 52112
45734 43984 51476
44150 53124 52477
18097 55297 47611
12372 30609 22344
23658 33170 17467
41367 37188 11591
24747 33416 16993
17995 31883 15895
16623 31577 26203
16648 31579 19304
13060 30767 24047
12323 30595 15801
32868 35259 13259
18856 32077 14321
29308 34451 14260
12611 30666 25446
15362 31285 16233
20351 32419 17971
13404 30844 22957
22932 33007 22345
22480 32904 21289
31895 35039 15583
21911 32774 18715
28486 34264 13271
26767 33876 19143
26122 33731 20753
25056 33486 15293
24816 33434 20919
33508 7409 9871
20158 11168 11983
20432 25504 9864
34748 16226 8354
15414 35950 9357
24076 5704 11991
14080 6900 13806
15053 15927 12313
15433 10909 12959
18493 30925 9469
3525 54377 9067
15447 3461 14030
44046 3955 8273
22325 7053 12145
31457 6517 10407
27562 3306 11644
30948 5278 10687
18420 4498 13289
17465 16371 11769
27994 16016 9727
15916 20275 11515
40737 7237 8458
42276 2459 8841
31348 4284 10749
24029 9745 11419
15564 6201 13611
13070 38035 9523
12151 18700 12489
18018 17377 11514
32943 9043 9748
28462 20844 8939
21504 15369 11111
14523 39221 9064
6314 47349 9525
15428 16312 12183
13950 3148 14372
1887 58979 8730
30767 3668 10954
15631 2125 14186
27259 26530 8359
21494 29856 9026
28551 23612 8523
19870 18260 11019
25364 17338 10060
27068 5740 11391
26886 12638 10434
10913 34009 10532
41167 3058 8975
34984 5261 9887
32279 10655 9648
22368 31945 8552
32754 10283 9607
43804 5408 8112
18098 11138 12397
9270 34126 10841
6003 46935 9646
25524 20278 9605
30788 21376 8400
25644 24484 8975
8927 46657 9105
18147 27351 10052
38383 8924 8683
14976 27855 10610
35507 15899 8251
20649 8354 12291
16163 18804 11678
16732 28842 10119
10733 46368 8787
18646 29329 9668
23362 19408 10160
22276 8275 11979
21294 29147 9168
15326 17924 11971
22145 16439 10829
5112 36874 11272
28006 20550 9072
14996 11959 12895
13081 32544 10312
4469 40681 10852
26383 25505 8681
10745 37611 10046
26881 19016 9517
29346 14823 9630
19918 17436 11128
11078 24459 11874
39483 9912 8322
28705 17279 9404
12922 6094 14152
9043 37562 10392
7830 31361 11526
15726 4024 13893
15949 12748 12592
22237 27227 9257
21774 11310 11642
34924 13621 8695
12129 17080 12728
8827 18665 13156
39855 3306 9200
29084 9681 10423
34311 2007 10475
42591 938 8830
45011 3585 8134
30935 18294 8815
34069 12823 8980
26663 2353 11959
18747 6352 12956
36802 8940 8995
36992 4198 9639
24292 17851 10199
23562 13645 10949
3770 51965 9366
16415 6852 13349
18785 2103 13561
12711 14483 12986
15991 40212 8629
9002 26522 11990
23952 20775 9846
7402 36105 10928
24841 7605 11565
39991 8064 8487
18358 10674 12412
25877 14633 10347
7937 25200 12392
21708 19020 10544
26987 19592 9413
35802 12650 8660
8350 50159 8715
6080 45212 9879
28100 10945 10437
9888 16416 13269
17124 26103 10436
19690 35869 8519
31537 8855 10054
10844 39708 9725
15441 5611 13721
29417 23191 8411
4753 51180 9284
6885 30185 11883
9963 23166 12282
34820 5969 9817
36062 14863 8289
33902 14294 8800
8983 35943 10637
23262 14664 10862
20456 20834 10532
5413 46877 9772
9927 20991 12602
11096 33249 10605
25155 28544 8487
9634 48678 8673
25858 19651 9628
18551 36467 8659
30703 16533 9114
19632 12181 11942
9860 31421 11114
27581 16986 9670
37748 3070 9652
11515 25070 11699
30105 14763 9488
13715 4860 14173
5075 46175 9940
10751 42827 9294
9977 29971 11299
32653 2728 10715
10543 23652 12097
14177 43325 8540
18215 12731 12144
28145 19517 9193
9380 46984 8968
12637 37015 9756
24847 18983 9926
10090 17478 13076
34755 11108 9090
35379 2565 10196
19408 24616 10196
14279 35680 9622
16738 36428 9025
24792 8392 11462
8293 29401 11716
1519 57738 8982
20942 34753 8431
8439 33587 11084
31930 17193 8775
13470 20508 11968
37944 5498 9264
20852 10545 11934
21677 26682 9447
8653 43444 9622
28528 12076 10188
12567 21594 11991
21104 58162 50231
3777 60891 48085
27048 57225 51734
35300 55925 51389
15061 59113 49068
22178 57992 49046
8276 60182 46939
26119 57372 51579
31200 56571 52174
41661 54923 52670
1858 61193 48804
48239 18470 53103
49741 32980 54758
50653 41791 54494
49495 30606 54992
48128 17397 52181
49170 27464 54298
48215 18237 51595
50383 39187 56380
50247 37867 53914
49820 33749 54063
47949 15674 52744
50145 36888 53235
40998 55028 3352
43057 54704 2192
26563 57302 5534
32437 56376 4288
10986 59755 7745
49123 53748 813
23562 57774 6548
40275 55142 2617
46949 54090 1981
21018 58175 5854
34164 56104 4109
25154 57524 4781
13928 260 14528
22477 945 12828
24941 1234 12338
37602 54741 51408
24356 56828 49076
37624 52000 51018
26929 56930 49602
24350 51948 48372
30172 49460 49171
25967 51085 48569
23951 57347 49070
33473 56043 50775
42120 47285 51233
41682 47826 51224
29149 51322 49236
23643 54596 48613
48116 45835 52216
40948 47175 50984
30881 54297 50008
34849 49302 50078
25116 52276 48571
50090 45360 52540
40124 46481 50720
18641 57925 48098
25509 53984 48895
50681 44256 52499
23517 55093 48659
29989 56078 50088
46273 51177 52619
47128 50053 52627
51332 50318 53501
16515 4968 45038
26661 17294 48830
25418 8663 47340
28985 19374 49591
29383 13097 48766
39204 5212 49583
19742 15239 47158
28417 18910 49411
39846 3793 49507
21980 15255 47605
29014 3898 47368
17473 29244 48724
22452 30372 49876
27773 5838 47401
23760 21406 48845
28702 13463 48684
16620 7312 45396
29296 9587 48244
17424 22511 47745
31471 18995 50031
12203 26314 47255
20585 13261 47041
34629 12452 49716
41971 6145 50268
27190 4644 47113
17861 35523 49706
25042 10484 47527
23635 8949 47027
13128 22473 46885
31122 12706 49056
1607 55934 49414
22669 2586 45918
17910 8343 45801
29709 3264 47415
3836 44455 48204
22544 5103 46256
24374 23433 49259
29480 19565 49717
12245 15482 45703
30503 5256 47860
11084 19461 46045
24374 25203 49514
27087 5685 47243
38918 11571 50442
12845 5311 44357
16185 19624 47083
30097 9082 48330
3445 51442 49132
43565 3684 50230
14413 41763 49919
12627 14150 45587
40486 9160 50407
17253 5100 45203
5758 49171 49265
18216 34601 49643
35039 10300 49488
20505 25432 48778
17622 20270 47461
26610 15978 48630
23028 9148 46935
15731 35369 49260
8729 47266 49581
15820 10272 45664
27853 4043 47158
19794 10180 46440
33221 6078 48519
34025 3269 48274
28888 5237 47536
17683 2159 44865
17929 16718 47011
19379 12183 46646
35397 12218 49835
7907 44483 49017
2286 57492 49773
26032 17865 48787
11528 37447 48724
25548 19663 48950
35291 11629 49730
7375 43716 48801
29742 7652 48054
21278 9360 46617
33310 8098 48827
31112 6270 48127
26739 18202 48976
46240 331 50534
41771 1204 49646
41329 1648 49558
22936 1924 45901
51634 51273 1132
51368 48704 2865
51415 49152 3560
49065 26452 53094
49969 35189 52019
49967 35170 53068
50783 43046 54979
49879 34311 53638
49300 28720 52381
51364 48658 58195
49384 29533 51726
49656 32162 53855
51511 50085 57428
47497 11300 50874
12028 31000 21384
11118 35497 22455
11512 33370 18540
11016 35739 17563
11024 35855 20459
12012 30886 17673
10526 38041 15721
9383 43860 20328
11990 31097 19682
10158 39889 16845
11498 33339 16558
10036 40535 17853
7637 52150 15854
12026 31381 28510
9388 43705 17791
8862 46260 17626
9488 43370 20806
9171 44816 18885
11093 35308 16518
9029 45517 18945
51210 47172 54619
51659 51510 55443
51496 49936 54138
21954 32783 17694
24414 33340 15291
20018 32344 18902
34986 35741 14809
16789 31612 21851
17535 31782 23154
30052 34619 12051
15941 31422 26549
18896 32088 18161
18670 32036 17003
17255 31714 14686
41847 37295 9202
15859 31401 21449
21902 32772 19324
31348 34915 15980
17261 31718 19624
21871 32767 23094
24048 33260 20696
37722 36359 10453
20768 32514 19080
21607 32702 15376
14976 31202 24177
13648 30899 22375
26238 33756 18204
23455 57791 52183
14750 59163 51200
50917 53465 57910
29947 56769 53597
48866 53788 55826
16587 58873 51426
28588 56983 53110
45575 54307 54041
43604 54617 56474
17425 58741 52714
12863 59460 51005
51233 53415 55194
40391 55123 53745
21623 58080 6633
31679 56496 3549
19023 58489 6295
48428 53857 219
22129 58000 5370
22655 57917 6625
28158 57050 4812
39120 55324 4907
44225 54519 1122
45744 54280 4049
29093 56903 4040
41279 49040 56308
28796 49415 53880
7827 58161 50971
25115 41456 52002
26303 47255 53074
38685 43549 55001
34024 45669 54380
41240 30951 53695
39061 32581 53496
35037 29280 52221
45885 5462 50947
41430 39444 54956
13673 47437 50589
38118 41380 54576
23556 52633 53302
39327 31508 53395
38248 14332 50707
33575 52985 55344
48373 39585 56356
40576 48857 56141
17185 40472 50284
8703 51289 50156
40207 47610 55889
5901 59910 50840
34929 54261 55797
25165 37661 51465
46283 6074 51115
9196 56849 51054
35533 35488 53214
45462 30860 54521
30978 50891 54526
33422 45638 54256
36453 45493 54838
45714 28331 54207
25391 36049 51278
20122 49929 52230
46638 40554 56151
12702 51666 51005
28658 48009 53650
40178 22369 52248
17020 44826 50878
45812 6531 51087
27663 40459 52365
39113 30360 53187
42664 22826 52808
45742 40292 55935
46892 42661 56505
23775 39398 51439
15326 52738 51681
4898 56912 50209
36900 23094 51701
13442 53913 51476
24615 42151 52003
15630 56854 52334
48852 28701 54884
30740 30789 51584
36500 26664 52135
43773 43724 56038
37011 43249 54625
33673 34297 52672
24093 34839 50846
29865 42330 53072
29327 56614 55022
14718 56246 52065
9394 52226 50428
28706 37086 52087
45005 9720 51386
14281 48281 50831
18473 41944 50752
40574 53746 56845
27581 41357 52478
39950 55148 56923
32346 48410 54441
26727 42311 52446
49038 43598 57066
22551 51692 52966
9769 55201 50931
22743 35025 50604
19475 57876 53246
12803 46628 50299
45031 11707 51677
13891 52657 51384
31722 42143 53414
44279 42952 56027
48335 32754 55365
15840 44818 50643
49041 32389 55453
34123 53986 55597
38452 35428 53785
44863 10917 51530
14195 58385 52269
41052 25460 52867
23158 34160 50562
32724 23181 50883
26139 45036 52721
41137 41784 55235
25612 57243 54374
46503 29353 54511
19844 52377 52527
39634 13506 50863
12089 47184 50238
39715 24658 52485
42399 51381 56867
35669 23735 51548
47083 51217 57775
30322 55652 55082
25412 33597 50929
44222 40703 55692
21095 46096 51871
31973 38275 52907
32810 21189 50613
16443 58390 52717
34848 50201 55196
37558 40887 54394
35287 26656 51893
46373 13162 52153
21824 42738 51532
36786 25587 52037
21304 42410 51382
22103 56404 53556
33526 55720 55729
42697 19663 52359
14816 53863 51742
32678 50283 54777
9988 59759 51631
23170 36619 50919
15143 49893 51235
32915 24866 51164
22329 45229 51992
39052 21948 51963
21015 43520 51484
46044 29741 54476
40643 31905 53713
51524 50204 3754
51551 50465 4683
51592 50868 2263
51416 49164 5165
15101 908 14294
17440 78 13828
35824 594 10175
14388 788 14436
39858 24738 6113
35515 31977 5933
46285 17873 5824
29637 25278 8067
47463 42036 2110
41424 20633 6393
36850 54325 2450
44078 13986 6822
19863 53443 5954
49206 30504 3424
20465 35892 8362
13966 45539 8264
47282 38906 2597
36703 48679 3292
33326 55439 2989
37286 25714 6483
49174 36256 2602
45068 19780 5791
2799 60460 8335
37245 43632 3910
36959 53282 2578
48455 21397 4885
39619 47797 2839
40301 23602 6188
27119 51876 4737
22941 34101 8127
36385 49657 3214
43018 20919 6034
38617 33282 5129
38637 49155 2839
18260 57419 5700
34461 35673 5611
22061 53733 5475
40658 51479 2103
41024 53053 1803
39775 18828 6980
41970 17019 6804
48192 44878 1555
24981 51760 5179
11653 50995 7939
32181 33768 6338
43399 16224 6635
35208 19075 7853
50703 52164 7
24317 48826 5733
36254 48002 3478
24495 44272 6354
32823 33586 6237
31955 44497 4838
23473 57692 4624
17666 53431 6392
21059 44334 7028
39786 51182 2319
42284 34760 4187
45301 47843 1703
35248 25814 6874
15510 46250 7855
47299 18869 5479
44608 21989 5564
48088 39422 2362
45089 25049 5028
17080 40353 8392
47029 35261 3172
32346 45824 4569
37217 55373 2226
45117 41513 2652
36740 36588 5026
41510 21696 6222
5927 58510 7994
41709 32159 4676
7296 59306 7607
12344 52979 7515
45625 43001 2336
43321 51533 1565
32752 55927 3034
38626 37441 4528
39119 34474 4857
25565 53888 4756
24326 55754 4734
23010 48586 6027
28584 30414 7537
50693 42740 1366
38259 25720 6289
43457 46260 2298
49818 40242 1900
1390 60035 8677
34696 18870 7984
23255 47026 6204
41350 44079 3031
20567 37853 8059
13081 56805 6818
43052 31239 4542
44087 50301 1589
25468 34521 7565
23717 49026 5824
49576 51601 312
38424 35344 4870
29488 51208 4362
43877 33051 4117
47428 52025 678
8681 53387 8185
46319 28051 4351
47150 54024 445
36939 24958 6660
46989 47228 1455
30618 54911 3604
36451 53765 2610
42858 43421 2826
24116 33081 8040
38916 23938 6414
13819 58767 6388
32258 52995 3554
50500 47932 657
46924 8385 7063
47587 39346 2472
51359 51309 0
47203 37861 2762
33134 23890 7571
40266 30394 5217
41615 53484 1624
30651 40414 5686
21055 36768 8118
44977 48261 1707
40845 21491 6384
47029 49615 1104
46436 36982 3042
33793 31569 6335
18656 52327 6354
25829 51587 5035
46158 53219 758
51576 50705 57041
51403 49041 54516
30448 34713 38823
45359 38096 44396
36942 36182 48498
38111 36449 45725
49776 39101 41260
18751 32055 41786
46874 38439 46035
40623 37019 47594
45132 38046 41799
48672 38853 35425
42036 37340 45517
18840 32075 42747
47854 38664 41229
43864 37761 36583
35028 35754 37261
25293 33541 41252
20764 32512 41398
31191 34881 40566
49632 39064 48347
17762 31829 43330
49294 38987 49032
14313 31047 42675
28056 34166 44844
49568 39058 33890
49295 38993 37893
48393 38784 46449
41498 37219 44340
45306 38081 49868
38671 36581 36509
27452 34033 37814
27360 34008 44510
44270 37854 35131
49552 39049 41861
40397 36972 38554
37716 36363 38641
24703 33405 44014
37187 36240 45256
47431 38568 40650
37491 36314 35941
43174 37606 32624
31130 34864 46119
43429 37658 43549
34911 35722 46240
27064 786 46722
36902 589 48678
12578 1022 43842
879 61348 15354
1921 61183 13322
4182 60827 13088
1019 61326 14107
611 61390 11179
48865 38891 11950
27145 33966 25589
36062 35991 26051
26276 33767 22337
40252 36937 16805
49957 39136 7294
30544 34736 22825
25304 33548 25642
43298 37631 20977
18181 31931 26910
45492 38133 26278
42215 37389 27246
45845 38211 22134
47407 38566 23448
23291 33092 27557
46401 38330 10433
36346 36052 19675
49624 39063 11194
37846 36395 23063
34646 35668 23673
23348 33103 24980
23586 33159 28197
32869 35267 28199
47896 38678 24748
45883 38221 25340
27236 33989 28892
38356 36507 17651
47087 38491 18302
38518 36547 22822
39277 36720 23481
44248 37845 16713
31756 35012 23127
44261 37851 23034
47898 38677 23176
46526 38365 22069
32347 35144 20114
49357 39008 22946
26753 33875 21629
38936 36640 19973
37274 36265 23592
21258 32629 26251
40784 37062 23615
12215 604 25095
12215 445 30443
12215 1694 41399
728 61371 20614
3666 60908 16872
525 61403 24369
1511 61248 19782
817 57446 28207
5847 33027 13431
2234 50573 18662
6123 31687 14977
2331 50100 12446
1599 53655 16774
3191 45926 23413
1850 52438 10041
793 57569 23485
502 58978 23408
406 59447 14068
3307 45359 16940
3079 46469 16629
6205 31289 18729
7363 25661 16774
2056 51434 26348
6880 28008 15801
8337 20936 18474
5706 33709 19313
4670 38739 16323
3396 44930 12264
4854 37847 14683
5443 34988 15249
2483 49360 11951
3877 42591 12893
7437 25302 14474
6871 28056 20130
880 57147 10817
7103 26928 15229
4775 38230 16642
4739 38404 20247
8090 22135 12899
1137 55898 17988
1562 53830 25673
6384 30419 17142
3970 42141 20514
6334 30660 14858
77 61048 16014
2975 46972 14698
1124 55961 16106
3085 46440 11373
1341 54908 15962
1082 56167 20522
8230 21456 13046
1476 54250 25383
7098 26952 13914
6296 30844 13311
1020 56468 21789
4561 39270 12105
3143 46159 17458
1492 54174 13467
4464 39740 11511
6752 28633 18512
1212 55531 22596
4725 38473 15509
3546 44200 21326
2567 48956 11135
2777 47936 12672
2266 50413 15767
11305 6523 15084
3872 60876 46886
2181 61142 23741
4116 60838 24183
4076 60844 27427
4969 60703 24071
854 61351 28115
24840 57573 7690
13223 59403 9081
20680 58229 7271
19695 58384 7425
21837 58046 8089
46544 221 25017
46544 594 11044
46544 200 43687
46544 173 29282
49469 39030 15191
47774 38648 20250
49168 38962 15919
49856 39122 22787
44883 37988 14923
41066 37120 13121
36193 36022 27595
45098 38036 12493
21776 32746 24282
49895 39132 24968
39091 36675 18808
29490 34498 24253
38001 36427 18016
46571 38379 27872
25158 33517 29222
47175 38512 20938
48769 38874 21636
25261 33536 21974
40479 36987 13719
42509 37452 21071
42942 37550 18731
43472 37672 23380
36703 36132 18107
43820 37749 18828
45904 38222 18758
44771 37963 16352
30252 34673 29056
42855 37532 22956
45374 38107 28175
36942 36191 25669
42162 37375 24487
23853 33217 23480
45919 38228 23825
45522 38141 28663
47651 38624 27232
46779 38421 19480
45085 38040 25038
34250 35580 26327
26974 43666 10937
44049 37855 8379
34195 45287 9268
17806 41543 13064
15439 47504 12678
15614 35785 14330
13557 54667 12020
8383 49008 13864
24761 49804 10493
13023 32452 15325
18191 35302 13888
21088 50516 11121
17230 42819 12996
35461 40760 9668
28366 48132 10017
42577 37798 8681
11717 33640 15414
37648 40014 9341
10358 51201 13155
40780 43303 8245
12186 49000 13109
14253 39927 14005
16037 54316 11578
26920 47635 10376
11043 39998 14633
9925 48786 13589
38105 44849 8554
28596 39844 11165
33034 45978 9399
12421 52974 12489
17645 45247 12564
40048 38145 9133
31074 38655 10844
21852 51632 10808
32088 41581 10221
38421 36542 9688
22863 47764 11164
14234 37768 14319
34921 41550 9662
10583 52081 12984
10075 51660 13146
9618 44478 14271
7358 59849 12506
38676 44536 8486
25001 48902 10575
28770 47723 9996
37189 41406 9232
19390 53747 10993
11531 53310 12618
8942 52548 13243
15489 41371 13551
21574 43208 12077
25100 49425 10480
41867 42906 8085
28303 36086 11765
25850 39883 11704
9661 51022 13319
7542 56739 12918
27565 38261 11598
25001 36620 12344
39510 36770 40673
46349 38320 44786
35737 35912 41622
42538 37458 38877
40614 37019 42660
26213 33750 40340
25025 33479 43457
48720 38865 32984
41489 37216 46591
41172 37150 34947
50388 39241 38871
33619 35431 42313
47016 38479 32238
30888 34812 41069
35642 35891 40149
47197 38510 49858
46867 38442 38392
45971 38239 36387
46109 38266 44169
25630 33617 42070
47004 38467 48853
46021 38248 41515
49446 39022 47123
40039 36886 46981
39501 36763 48021
46840 38435 39298
30425 34709 36850
41441 37212 32882
41306 37181 34423
48981 38919 42436
31915 35045 40282
48184 38743 33349
47781 38650 35997
34213 35564 45020
44528 37906 46028
44322 37861 43002
44277 37847 49334
30358 34689 45039
37372 36288 34260
46544 15 28036
46544 860 27580
46544 1775 10384
46705 3652 46129
47143 7880 25583
48242 18505 32862
48682 22753 39624
47441 10766 41886
46809 4656 43373
48961 25443 41887
49320 28912 47156
47163 8082 18416
49639 31995 45050
47261 9021 49168
47321 9602 46315
49599 31608 48990
49212 27874 50270
47067 7149 22720
46601 2652 33107
48542 21404 33403
47637 12658 49844
47049 6970 15875
49298 28701 46470
50012 35598 49663
47343 9812 39487
48456 20563 33005
48366 19698 40448
47404 10403 31413
48583 21790 44760
49085 26640 51322
47125 7708 21972
47432 10680 47224
48041 16560 30593
48643 22373 36497
46807 4637 22259
46937 5890 23577
48931 25158 39065
46631 2940 39873
50174 37169 50558
46891 5450 18832
48055 16694 27607
48855 24420 38765
47479 11128 28560
48001 16174 41630
48104 17168 35283
48681 22747 39064
47478 11118 29133
46921 5740 26894
48274 18807 41227
49318 28893 48608
48290 18961 47697
47694 13209 31140
48366 19701 49547
46782 4396 39496
47557 11888 28193
46991 6414 21746
49970 35194 50839
47632 12611 48678
46927 5799 17300
47395 10320 20375
47405 10413 24241
47492 11259 19637
47045 6933 17931
48264 18711 46221
48161 17717 31209
49272 28456 42042
47249 8908 17326
48311 19170 35527
47444 10793 34793
46954 6055 25954
47534 11663 34214
48586 21829 49875
47461 10958 34040
47112 7590 17799
47008 6579 31624
47123 7689 36938
48753 23442 45498
46828 4839 17556
46827 4837 47540
46707 3670 36222
7376 53898 33629
9307 44561 31942
6046 60025 40719
7314 54286 31976
9858 41917 31064
6338 58746 37909
6644 57497 33160
10166 40281 33462
9276 44470 36583
6007 60373 37707
6996 55888 31066
9094 45608 31774
6294 58798 40988
11101 35822 31514
9958 41432 30966
11418 34310 30836
6639 56974 43742
6448 58196 38128
6544 57941 34043
10783 37347 31953
8612 48049 30088
8163 49828 38021
10711 37743 31197
42221 54835 55984
37961 55506 53798
25920 57403 52857
35315 55923 53682
50282 53565 57146
17435 58740 51762
11258 59713 51472
21038 58172 51692
20761 58216 53511
18495 58573 51614
50525 53527 55703
5206 36138 24510
3627 43802 28861
9522 15181 21388
7118 26853 25438
7878 23164 24143
1857 52402 39838
1801 52668 28961
2367 49922 34490
8265 21282 25469
434 59314 41083
8693 19206 24220
3656 43667 32058
851 57283 31900
2178 50843 33499
0 61418 45184
9714 14249 21727
1899 52199 44018
6025 32163 28708
4758 38313 30359
3874 42606 26417
3884 42560 27342
4642 38878 24883
1674 53291 27632
5978 32390 26712
7646 24289 23901
9525 15167 19241
1799 52684 32175
4590 39130 30106
465 59162 43428
738 57838 43310
3936 42305 31340
2610 48746 40564
5458 34915 28696
252 60191 46267
4016 41918 38036
3309 45351 38626
6934 27747 25851
3054 46588 31737
846 57309 38601
3206 45853 25661
2956 47065 39362
4594 39113 28213
1571 53792 32197
8059 22286 22659
4461 39756 24708
5108 36615 27789
3470 44567 29342
6600 29368 30074
1614 53583 42136
7356 25701 25886
71 61074 43253
5030 36992 35281
5449 34957 27104
5558 34429 25195
1207 55555 43607
2719 48214 39551
10329 11262 18802
3036 46672 34222
43117 1181 49913
37484 1548 48793
21366 2092 45589
44759 1435 50240
1527 61245 32276
5087 60684 36862
3791 60889 38656
2439 61102 34398
10141 40333 23732
12038 31186 25941
10636 37766 20948
11182 34897 16919
10733 37244 19921
10341 39340 23470
10465 38736 23432
10496 38267 17350
10565 38026 19102
11881 31895 24766
8422 48275 15027
7819 51188 14410
7990 50507 17367
11716 32663 24071
8795 46666 19099
9358 43773 16306
6224 58906 13075
11959 31652 27485
46544 462 46245
46544 939 49486
46544 1573 28481
46544 1789 31142
46544 515 42640
5041 36940 41740
11543 5367 20802
10306 11374 31348
5848 33021 43034
9334 16091 24659
10655 9673 25017
3636 43764 43479
8650 19416 34311
12126 2534 21799
3124 46252 41459
8285 21187 35722
4966 37306 37992
9233 16584 28999
4570 39226 41790
1495 54159 47140
5771 33395 42412
9371 15914 40869
9526 15163 39696
10323 11291 22052
5122 36543 40386
10430 10769 34462
12137 2480 30842
10405 10894 41698
4243 40814 42043
11995 3172 24528
4746 38373 43459
11889 3685 35921
6641 29168 36654
10247 11659 35897
10995 8028 37403
10232 11733 24148
10200 11882 26103
9638 14614 43911
1594 53681 47335
8880 18296 41824
5075 36773 36307
9473 15419 38399
9681 14401 24029
8033 22412 42706
11076 7629 21719
11871 3770 34203
4815 38040 42809
5413 35134 43783
7030 27281 38994
5656 33956 35171
10907 8455 33454
12179 2280 25438
4867 37780 45871
11028 7866 40438
5339 35493 41234
11543 5366 38866
3008 46812 47824
10324 11286 44022
7073 27071 44725
8134 21919 29396
5553 34452 41425
7724 23913 45762
10632 9792 36335
6909 27867 30138
9152 16978 37679
6931 27761 45038
5973 32412 38156
6761 28587 45052
8944 17986 27261
10072 12511 38949
7887 23121 37887
5827 33123 39586
1570 53796 46234
7275 26091 31244
2179 50837 45212
26776 36072 7080
46493 7595 7262
39042 38416 4304
44423 43042 2569
42081 47245 2429
22459 37133 7787
18847 53322 6173
36455 37386 4968
19098 45163 7298
9299 50481 8479
48831 38731 2314
39877 38498 4127
32737 38821 5500
29422 46771 5014
8706 51160 8500
19974 55490 5637
37690 31480 5573
40132 49030 2560
36156 18570 7737
36625 51116 2957
10468 49683 8363
9030 57056 7587
44671 29094 4529
30790 53404 3787
34584 48623 3720
32135 27718 7219
4024 60673 8060
42336 36968 3859
43673 29876 4614
24000 40836 6947
17824 46842 7310
36707 52437 2750
47326 14297 6132
29358 50619 4473
32829 22646 7810
6885 53624 8508
37640 21183 7066
28834 43469 5607
45584 4364 7908
14665 42918 8503
41118 35209 4354
41445 16216 7024
29431 37200 6391
36587 17054 7870
28895 54562 3997
34874 19823 7810
12208 47210 8373
48896 35051 2831
32135 47413 4382
50076 43675 1354
22988 53369 5343
27172 46607 5485
15499 48649 7512
41736 41699 3297
41628 49359 2215
20063 41457 7640
43103 35881 3863
46312 2986 7962
39533 40134 3960
16806 44818 7804
39370 13186 7873
33442 34183 6028
20838 50644 6163
29178 29065 7613
42089 31223 4735
38145 38876 4417
32759 49214 3999
43698 7384 7849
5748 57385 8192
40721 48532 2514
28288 37044 6641
18835 42324 7759
16364 49329 7242
45139 28621 4504
38901 14959 7710
26809 29838 7972
48246 32567 3318
36408 54931 2450
33954 49553 3713
21613 37565 7892
44839 39718 2965
13261 45061 8473
50648 47211 730
19329 48437 6780
23211 40945 7088
38973 44557 3433
40424 32546 4876
26728 33805 7417
24254 47546 5930
47211 50826 894
31021 37440 6040
28706 34525 6919
36742 30138 5955
34941 26414 6849
10450 54830 7624
34596 47353 3902
33595 48034 4003
24969 35848 7473
44198 6363 7895
13216 48896 7930
28902 36252 6632
46038 51638 1010
11329 56698 7180
7287 54999 8229
21075 42400 7303
31674 30154 6960
40577 28731 5395
36558 47562 3482
26117 35332 7319
12558 54572 7243
30574 28132 7470
14836 53991 6874
16929 46971 7469
32730 39734 5370
22518 56208 5028
23713 37759 7447
36944 40975 4354
44280 19581 5975
47328 26326 4399
41364 1715 9073
23106 1577 12703
24500 1652 12426
12215 732 29429
12215 160 39253
12215 531 39858
40890 0 33773
40893 0 46891
33424 0 43027
33391 0 28956
34580 0 23666
45862 0 13031
38447 0 48774
38556 0 45656
39522 0 41539
39101 0 47987
25388 0 44161
33189 0 28259
37289 0 39908
38158 0 46557
44887 0 15961
46141 0 47136
46430 0 41568
34347 0 36080
39444 0 37552
25238 0 39575
30631 0 33207
29835 0 40194
39936 0 22500
41856 0 39822
44955 0 33030
36955 0 43050
44667 0 48312
37841 0 25923
42961 0 37734
41571 0 41970
45327 0 33732
40539 0 26619
21816 0 34223
45844 0 17130
31259 0 31543
29051 0 31831
34824 0 26870
27622 0 40420
42964 0 16106
42501 0 27785
44277 0 14876
34581 0 42625
41874 0 22735
42198 0 25452
23001 0 45853
33258 0 26564
24731 0 36048
32588 0 24838
45060 0 34631
31974 0 28919
30081 0 34571
43260 0 13749
37424 0 25295
30779 0 26169
34064 0 47884
31667 0 36771
38093 0 19254
42477 0 32967
37827 0 31421
45259 0 13286
44823 0 18495
38108 0 30169
41326 0 24297
28760 0 32521
38115 0 28724
32333 0 39751
36400 0 39150
12215 1089 23893
12215 894 16348
12215 1523 15334
37219 52071 7690
41515 46044 7704
38849 46935 8106
38295 53860 7219
45042 51759 6180
43133 43021 7818
14502 58745 11245
32966 52284 8504
45084 48957 6575
34802 54938 7758
10670 59085 11958
48673 53037 5274
50462 51904 5081
38828 48033 7952
44147 44084 7463
48380 41490 6994
26227 51278 9990
50506 43666 6259
6764 60157 12580
16083 56132 11307
50171 42605 6479
30649 51508 9077
16399 55562 11326
39663 50173 7478
47937 53059 5417
47958 49265 5959
34744 53171 8024
14295 57750 11429
30755 54412 8638
39627 45241 8195
8280 49250 20419
9614 42851 22657
7373 53709 21075
6993 55400 17859
6678 57387 26551
6662 57065 18860
8365 48799 19761
10230 40140 28353
8763 46995 22490
6757 56500 16873
6191 59862 28440
6127 59836 21869
11715 32915 28831
11153 35582 27337
7417 53542 21936
10050 41062 29252
6167 59853 25976
10299 39841 29104
7593 52453 17524
6336 58606 17992
9193 44916 22794
7932 51179 24923
6160 59619 20882
9157 45250 25874
6419 58555 24668
1498 54145 30704
8531 19992 21500
3685 43523 30713
8663 19353 19578
3365 45079 34017
662 58203 41321
2938 47151 34563
3186 45945 38721
278 60067 46797
3102 46350 28925
7408 25446 24574
2841 47625 35181
7119 26848 27719
1417 54535 29296
596 58519 47845
2720 48211 29234
3394 44937 26704
457 59198 44027
5935 32597 24027
9093 17263 22257
2815 47748 31659
367 59638 35118
977 56674 46082
465 59162 37280
3056 46578 35237
6149 31560 24560
2328 50112 28963
776 57652 42356
6478 29961 31134
3677 43559 38956
1951 51943 32608
7676 24144 27345
973 56696 38854
1790 52728 41497
2488 49336 38008
2546 49054 36518
3657 43659 30112
7138 26757 21228
2424 49649 28551
580 58602 39169
5242 35962 31183
10008 12816 21166
7046 27205 28740
3611 43884 36882
1098 56090 38038
7715 23953 20769
7816 23464 27362
5075 36776 27305
6340 30633 31063
125 60812 38792
297 59973 44025
7344 25755 22518
5344 35470 29992
1628 53516 34349
1441 54423 36535
2415 49695 41802
4069 41661 36225
32184 43870 48766
10270 44087 44441
31881 43343 48630
16328 38238 44803
31252 45046 48750
15908 33315 44010
12335 40383 44318
9118 48066 44785
38597 41410 49687
25675 42001 47203
11043 51985 45732
28324 41563 47666
27624 45707 48124
29163 46574 48555
11371 38022 43786
9025 56387 45965
18277 47096 46466
17872 32019 44214
20225 39966 45826
10652 47616 45025
25032 40295 46829
10496 55384 46113
18191 35676 44804
27764 46530 48270
43706 41012 50645
10216 44924 44551
9076 51414 45259
15788 42267 45276
28902 45021 48279
21919 44886 46872
46759 40938 51241
21657 49906 47542
20497 34819 45139
17106 42232 45533
34255 35624 47990
32825 42259 48661
38132 43449 49888
13150 36517 43923
12642 38101 44050
33845 43724 49075
10636 57359 46425
39758 41204 49888
31987 46784 49146
26054 43679 47520
11938 34144 43341
12508 50406 45796
19910 47485 46846
20642 35501 45266
18567 48966 46793
22814 35734 45731
34637 43115 49145
16819 47476 46231
9633 45199 44474
10921 42413 44329
11988 35847 43596
31139 39649 47950
50 61453 36755
27144 33964 35722
16946 31651 31645
22351 32874 38716
16155 31468 37331
20032 32350 33679
12869 30722 36533
46129 38279 30427
35444 35851 32374
38232 36485 31004
33562 35424 31764
18340 31963 39763
14636 31123 37892
14749 31146 41537
12270 30587 34985
49524 39050 29600
24875 33452 29803
17808 31847 30593
37755 36376 31185
18450 31988 39242
19642 32262 32906
13798 30934 35643
23654 33173 34305
3311 60965 33291
5511 60618 34910
5777 60576 40341
4567 60767 40795
47717 13431 47550
47759 13836 33914
47273 9145 48580
48721 23128 36947
47625 12543 33470
46754 4127 37925
46608 2715 17151
49848 34012 50642
46734 3935 14072
47288 9282 25276
47641 12695 37215
48232 18403 37438
46753 4112 26688
48184 17936 40146
48447 20479 45041
49410 29786 47560
48608 22034 38914
48462 20632 47390
47006 6561 23522
46569 2343 10482
47219 8618 18703
47142 7870 15421
48792 23814 41400
47022 6715 19988
47809 14316 32126
47182 8263 42532
46705 3656 20116
48786 23752 34035
46870 5248 15401
46611 2741 9663
47468 11029 27155
48201 18107 41893
48000 16166 34031
46623 2862 30294
47634 12624 23598
49073 26531 48334
47974 15913 27347
47821 14434 31278
48105 17174 41093
47941 15597 49274
46579 2437 44805
49336 29070 43853
49899 34505 47579
48251 18589 50438
47782 14061 41299
46727 3864 23088
48148 17597 28543
47317 9564 45628
47174 8185 50676
47568 11994 19833
47115 7611 19668
49327 28981 44681
47725 13502 33474
48128 17405 40213
47218 8614 22116
47109 7552 32583
48207 18165 47194
48893 24788 42857
46612 2757 21648
47838 14598 27292
48508 21068 36452
47820 14428 23891
46774 4322 11296
48491 20905 49932
47300 9401 32317
49359 29292 42927
48230 18382 40703
46831 4869 18932
27438 50479 9864
49822 40637 6830
31547 51402 8914
20829 54997 10527
46055 44463 7029
45032 51140 6271
21905 52926 10612
44165 47544 6960
20656 53820 10731
47438 44782 6708
42296 51848 6713
14054 59200 11269
20706 56602 10319
47306 49658 6032
33109 49303 8906
44504 53269 6069
42636 52694 6524
34955 55879 7592
35265 46893 8824
40863 46849 7718
16908 57218 10987
44273 45306 7262
36047 46684 8699
28565 52164 9397
20089 58285 10201
28759 50981 9529
28824 53009 9224
38257 55112 7046
9192 45016 24647
9105 45659 28877
8979 46015 23838
9631 43033 27838
8747 47126 23456
6562 57901 25503
10130 40510 26133
5980 60366 18293
8877 46536 24318
7218 54824 27982
9390 43979 23289
7258 54562 26692
7477 53276 22465
6689 57018 20464
7864 51733 29131
11073 35997 27876
8251 49811 28510
6342 59132 28543
10098 40573 24265
11413 34398 29038
9918 41705 29208
8773 47159 26539
7724 52078 22643
8587 47891 23120
232 60291 9513
1081 56170 12979
3632 43784 19488
5441 34996 14578
3171 46020 13560
4042 41790 19515
3682 43537 11942
1478 54243 17358
6955 27647 14302
3685 43525 16573
4687 38652 17417
6394 30371 16119
5806 33221 22351
4262 40719 20744
3293 45431 15456
961 56755 10009
3884 42556 16509
7493 25032 18686
6113 31734 17451
1999 51712 19469
966 56728 12207
9869 13494 17582
3532 44270 14379
3460 44618 19022
10690 9509 14173
6671 29023 15937
4787 38167 18814
3008 46814 25702
1611 53597 18510
297 59973 10738
324 59845 12943
296 59983 28300
8733 19012 15019
3150 46122 10879
3999 41999 17463
1177 55703 23071
1726 53035 18372
9011 17661 14203
101 60930 10881
1131 55928 21104
4614 39012 18718
2475 49399 13367
1562 53830 12956
3219 45788 18273
10482 10519 14124
1770 52825 23872
2624 48676 21975
4933 37465 13438
79 61037 9946
554 58730 18912
9776 13948 16871
2031 51555 13839
3596 43955 17903
561 58695 20979
18629 40632 50594
43404 24973 53264
46419 30667 54683
17021 53545 52134
46705 33640 55169
40236 24658 52589
34063 27709 51801
41443 15672 51535
45923 12704 51998
22674 39713 51266
28577 27292 50651
16873 57067 52612
46272 3385 50725
43499 41830 55711
45486 15396 52299
38965 22780 52066
25503 49344 53215
46773 44843 56795
17269 50665 51769
33663 41662 53731
45765 33530 54966
28759 48632 53760
47103 34397 55357
42698 44297 55907
38359 25729 52370
42130 41237 55353
36002 17998 50788
46697 37464 55718
46608 50040 57511
34265 55934 55906
45841 11647 51829
20247 48331 52025
24783 57011 54176
36030 27150 52112
42556 20448 52444
43616 22104 52893
46860 23576 53750
42393 33864 54344
34500 23188 51237
40382 16348 51421
21102 47044 52009
32197 55838 55481
10848 49453 50318
47086 47810 57285
35379 18631 50755
35395 16466 50447
36507 37335 53673
46208 31307 54734
45733 13655 52097
26242 41269 52199
15061 58006 52387
40060 12271 50770
37635 35457 53627
41237 47873 56131
46539 27313 54224
45950 51602 57605
27297 28993 50641
45227 13747 52010
31309 43883 53583
39499 15635 51143
19784 41639 50969
42344 28691 53589
42473 50469 56751
44273 32909 54580
35980 50726 55497
1769 59850 50010
49891 36568 56223
31267 48917 54300
40558 31042 53572
28242 45455 53199
49610 48600 57900
13615 58868 52223
29246 38625 52416
25450 44378 52490
12993 50730 50928
4423 56521 50058
47585 44195 56863
29008 30278 51166
44956 42722 56129
26169 49823 53417
36728 38453 53878
10053 48787 50064
3051 59111 50159
11329 52410 50839
2265 59458 50052
34449 47340 54705
19534 53602 52642
19427 56457 53032
29285 46803 53601
34432 53053 55525
42919 41067 55485
27057 41073 52333
23764 48187 52703
10150 57821 51384
32174 50858 54759
42290 14575 51545
25497 31081 50584
41618 40329 55120
33316 43043 53861
33729 54373 55575
45067 17000 52446
49902 35698 56100
40138 49920 56208
40735 23877 52576
16569 52540 51900
31025 45877 53814
41160 12129 50968
37770 28873 52706
28109 29921 50936
12048 59408 51990
26568 42967 52509
41311 42635 55392
23655 35456 50848
40165 19757 51869
20522 36872 50429
32536 46910 54263
30773 35701 52298
25205 43804 52358
16285 50243 51512
14408 43929 50230
15296 0 43610
26674 0 31128
28856 0 40450
41630 0 27034
26394 0 40419
28378 0 42697
40029 0 44034
28879 0 44684
45563 0 45506
18476 0 42241
42383 0 36896
45720 0 20612
13061 0 43061
44690 0 31884
41251 0 34227
39377 0 28270
44376 0 15901
40504 0 40746
44744 0 26108
17442 0 41443
45694 0 22535
35458 0 21570
31280 0 45802
33849 0 44663
41686 0 32312
41034 0 27634
45294 0 18296
38588 0 29289
23932 0 44615
29880 0 43121
35718 0 36555
32944 0 29503
26932 0 41859
42693 0 28431
44589 0 19489
22698 0 39465
38781 0 36975
17887 0 38990
43313 0 47959
21542 0 41438
41226 0 30954
37927 0 20277
34847 0 47939
26486 0 43346
46246 0 11144
46316 0 12462
26221 0 45681
44011 0 20174
27792 0 44137
38484 0 21812
42186 0 36336
24702 0 45878
30665 0 29828
29899 0 38904
44572 0 12970
40862 0 26231
37986 0 39156
40664 0 48769
28770 0 26791
38216 0 22519
38932 0 38463
41433 0 45885
42110 0 16639
21607 0 38953
5271 60656 15279
5675 60592 17177
2596 61077 27335
4049 60848 26596
4026 60852 28400
10923 59765 11340
28072 57064 7715
7201 60352 11742
16138 58944 9850
18015 58648 9200
21977 58024 9654
44939 54407 5540
22751 0 24235
41148 0 12719
29320 0 18312
29785 0 21688
14445 0 26533
23262 0 24067
21262 0 29469
34170 0 19452
29925 0 17309
19257 0 19274
19715 0 19584
12660 0 41791
16825 0 35516
18019 0 19889
17512 0 27778
20652 0 34395
30184 0 13364
34719 0 14024
12767 0 34245
28419 0 13658
25587 0 19769
29795 0 14866
25635 0 22318
18540 0 20703
19004 0 29739
15172 0 38574
15692 0 23801
40420 0 10865
39254 0 10768
13904 0 28871
32235 0 11902
14955 0 19950
28002 0 21704
17666 0 23349
17600 0 28790
19381 0 35786
15963 0 37937
31374 0 22804
17437 0 26438
16832 0 23082
27691 0 23838
49682 32416 16518
50197 37390 10392
49254 28273 21163
49361 29309 13228
49291 28634 26604
49373 29427 29804
47768 13926 21450
48597 21930 16577
49282 28545 7517
50183 37256 18012
50161 37039 19680
50374 39100 37553
49976 35256 25151
47367 10043 11419
50186 37284 29409
49005 25876 12280
48718 23102 17583
49454 30206 17570
48400 20022 22720
48355 19590 22200
50147 36904 47088
49033 26146 34949
49981 35303 45888
48348 19528 20666
49723 32809 20846
47496 11293 11381
49478 30438 21114
48484 20841 29427
49524 30890 12901
47806 14288 21089
48220 18289 21258
49790 33457 11624
49568 31315 31661
47502 11351 17690
47850 14716 15651
49812 33669 29902
49541 31052 18809
48023 16385 13716
49731 32882 35209
49374 29439 27977
49922 34733 45862
47815 14372 13109
49945 34957 10743
48723 23147 22264
48988 25708 26962
48133 17444 15117
50358 38941 49080
49420 29877 39247
48844 24321 19027
47395 10320 14663
50072 36180 19794
47488 11213 15570
47643 12712 13596
47909 15285 14982
49899 34505 24188
47567 11983 10585
50174 37169 27323
49674 32331 15443
49529 30934 35034
49153 27298 11971
50020 35676 41082
49568 31314 42097
49697 32556 27961
47980 15969 16908
49785 33409 9063
48443 20440 9735
50141 36847 44116
48934 25184 20343
48688 22806 14116
47738 13634 11857
49927 34784 16026
49235 28092 28232
47963 15806 13119
47921 15398 8844
49778 33336 36668
1872 61191 41751
3142 60991 43319
354 61430 29998
2358 61115 37186
3254 60973 39429
13897 32792 15103
10757 54753 12564
31552 39707 10597
13442 50982 12574
22699 39064 12450
14438 49385 12606
36183 37493 9996
9071 54990 12864
11141 36771 15078
18140 37358 13602
18605 49937 11698
11246 38651 14786
28238 34794 11964
26377 47986 10434
12614 39828 14344
11310 45645 13766
19350 52639 11161
19443 51621 11289
11138 51218 12998
38826 43328 8629
14561 51290 12307
25220 46134 10931
21303 40541 12514
21136 38660 12819
33205 43220 9763
17919 52103 11522
37546 38960 9513
21239 34450 13405
16862 53060 11595
8063 50343 13735
13227 34183 15036
23454 42867 11752
39094 40013 9054
16473 38011 13839
14709 55740 11637
32790 36723 10781
17366 51215 11760
18450 34494 13953
14456 34783 14704
19859 51926 11162
37979 37021 9707
17391 36321 13899
27672 39871 11345
31667 38946 10684
9299 55566 12737
30526 35192 11451
36521 38248 9819
25604 49864 10317
15836 42556 13311
6930 57251 12964
14331 47089 12958
28952 48472 9852
20460 46955 11758
14830 37068 14302
12043 40822 14315
