ply
format ascii 1.0
element vertex 2760
property float x
property float y
property float z
end_header
68233 21238 11320
43303 13282 30803
81667 17250 12093
11217 9866 31528
13714 10007 32916
23848 12034 1368
4429 41194 29743
9744 37439 25841
70531 20868 8773
28069 22607 24813
4875 29579 8508
43485 16803 5063
43365 18915 6989
43549 15682 3669
43445 17499 6133
7389 27280 36459
42183 11624 2242
19528 10337 10542
15195 10091 10499
20961 10419 9957
4074 31671 9442
42224 27916 2355
6475 24467 31437
41043 27946 2929
17715 17718 37059
34706 22789 23652
8408 18195 2017
22735 19175 3939
14416 28549 21622
62959 20358 31184
62448 21292 23006
18393 20796 33232
7130 21212 7477
19314 16790 34387
5125 34755 34723
15602 21646 20847
32223 16389 3384
8152 27288 30704
79003 20460 27860
25145 21882 29660
9777 30443 1054
4315 41155 31620
28779 613 2924
22071 602 3056
18626 596 3107
32268 17801 3370
14840 26348 24076
64154 20545 30183
39588 22619 38332
28080 16328 34761
28376 22810 20981
20096 27247 3736
2509 40761 15954
6504 30387 18444
9807 21962 5428
11237 30811 3568
43338 12719 13428
4536 29726 10620
9304 18035 1776
1843 35837 20294
33822 28808 35280
72803 210 6175
5641 25171 15890
11819 33392 29164
21689 29040 37651
12847 21500 4068
18551 13214 23767
20382 13318 24465
26232 13651 27239
54816 10578 30322
60660 15475 32322
6867 20717 15012
43176 17872 3067
41288 16565 3151
31743 14776 3564
36356 15223 3366
39987 17106 3206
36597 17498 3350
41994 21937 11715
67258 21313 25078
6298 23228 12274
2874 34269 26555
9071 32019 2199
4968 30277 31320
73933 21101 11899
9510 21429 30025
43293 13988 20921
17413 21356 20309
26060 22616 22092
9749 37154 27603
14519 23532 7997
19818 24934 3769
6533 39311 38058
80513 20353 12370
18354 25705 949
9943 19131 9774
32874 14028 4539
16030 13071 7163
6313 22913 14385
4390 30296 28147
9470 29187 36268
3318 38735 17276
10335 18508 6548
23248 22590 3664
5246 34389 24517
11779 33607 9676
26154 29247 34992
20318 20328 3798
24652 18683 3858
23777 15015 3719
13247 32025 17968
67639 17927 4836
8676 23646 13879
6558 27763 34434
8782 11864 8415
15012 23912 37325
7343 27928 1904
29672 22230 9150
7676 41027 36133
32469 11072 15829
26974 10760 17580
42450 11639 15888
28710 10859 18065
38996 11443 16158
43219 11683 15725
34781 11204 16098
42910 11665 15297
8857 12389 3389
58584 20950 17075
36960 12415 37975
37744 14009 38060
78493 20659 12411
67787 11122 14255
60532 11122 8100
64226 11122 8787
65370 11122 18530
77912 11122 6064
68772 11122 7260
63669 11122 18441
74496 11122 4728
64346 11122 19151
63361 11122 8544
69070 11122 14973
80350 11122 5201
71306 11122 6168
68638 11122 12903
58302 11122 15547
62145 11122 21505
62134 11122 19240
71124 11122 11730
75807 11122 9024
69375 11122 6259
57666 11122 16999
62794 11122 5696
54989 11122 20533
58945 11122 23957
69902 11122 15923
64855 11122 6744
57135 11122 10455
55534 11122 13560
54739 11122 12760
55312 11122 11285
56269 11122 17486
62550 11122 8803
58464 11122 26175
64834 11122 19788
62397 11122 17809
71974 11122 12499
74356 11122 9376
63567 11122 13276
60102 11122 6431
61738 11122 18741
58977 20597 8702
26279 22688 19414
25297 22056 28379
1415 37619 13448
5568 40863 26903
1411 36889 18472
16440 28273 34615
9531 20768 10419
22616 15881 3952
10333 16814 25026
11993 31299 6273
12893 9961 17900
25363 10669 18703
15572 10113 17936
10944 9850 17954
33798 19132 527
12480 9937 33526
33242 22916 20727
38151 21786 3273
3441 32321 13281
65402 366 31653
12805 18499 34378
15923 16068 17236
80206 20442 21118
43359 12039 5429
41522 23967 38454
16372 12765 1793
80467 210 31219
4525 37362 10601
14074 19616 4731
43380 18655 29920
43337 19409 33072
4646 41444 6531
10596 15380 22997
7003 39500 6823
56392 19241 32250
10209 8675 4093
5956 36367 6551
80985 20127 30802
66914 20650 7361
77785 10537 5918
78560 10537 5882
16966 23899 1091
64283 19639 32187
6116 32515 26963
43321 12944 29395
13872 10316 2116
59165 562 30322
22794 29112 37329
4414 32921 32002
7567 33057 684
27666 16362 3734
54176 11122 21696
14818 26115 13370
7559 41610 2381
28303 16485 921
7941 26909 37379
27385 10784 27516
21935 10474 25882
36035 11275 27579
40454 11526 26345
26072 10709 25541
22892 10529 27001
21421 10445 26063
34563 11191 28028
24787 10636 26912
8014 23480 37083
15271 17437 8265
10949 13742 25065
32510 25582 38059
9118 38497 17297
35337 21857 4916
7692 17794 29233
5118 34264 21084
15122 15947 6619
33802 14080 6216
26813 13683 9039
2293 41575 25455
43335 12670 27428
2751 36924 7641
19875 19840 34419
37472 26865 35399
10869 22944 37135
1011 40998 14708
42878 5522 959
16719 21187 21991
4850 35074 22283
9933 9793 6401
8676 38937 16885
38635 22107 6346
79803 19404 4891
14605 21835 7316
1700 36732 24270
66255 21234 11398
41661 29692 2488
8238 14562 16732
42950 7952 2168
21308 13105 1476
58195 20895 17718
7006 35423 33609
22588 25753 809
34260 21593 34907
32623 10494 36540
20929 9831 35790
57596 636 6431
55919 636 5993
23558 12514 37109
13495 30181 27361
30649 26910 3339
12241 163 4224
54466 19870 9263
81480 17597 4847
25387 17960 3828
9957 20806 32525
38983 20935 3239
30213 29495 1835
22939 13464 31817
33397 14057 33522
17282 13440 1699
70580 12986 32365
63256 11254 32396
58518 12844 32368
59196 11531 32391
67747 15373 32324
72682 15826 32316
67688 11494 32391
67397 14884 32332
64532 13334 32359
69987 14703 32335
67046 11511 32391
10813 0 34790
5186 29232 7466
5389 40810 28913
26396 16376 37449
6257 40677 14683
9577 22981 1377
7738 27079 12878
28141 26589 3438
40654 11712 3656
11383 35034 12457
27622 21694 32084
6566 23075 29788
20984 14415 3830
18508 15266 3916
31166 13931 31648
21122 13360 28725
74427 20731 28466
15386 23219 15145
23955 22107 11799
13714 10618 36372
4935 37784 2888
8306 32609 34930
28097 22773 21740
38226 17412 311
8861 22638 19652
15959 14965 15311
8839 22313 1449
80656 10183 30745
9027 4725 4324
14073 28414 1929
63729 21464 21174
31052 28870 35175
753 40523 28364
43190 4629 36289
5824 35294 7856
2754 40399 14949
24296 18175 3669
41331 20535 2996
62195 210 5573
1635 41182 26658
32104 21953 6463
17738 18933 34568
15750 28035 881
9663 30850 37267
1819 36270 15027
7883 16354 14308
25402 21722 30927
36549 12458 522
58000 10962 8291
19650 11108 36783
13012 27436 973
4918 28161 26567
992 38798 12969
21609 23725 3714
5957 37941 5593
30492 25001 35113
64010 21275 12528
9781 20549 7696
34348 28150 35293
17259 21076 28103
30990 15748 3437
64406 12594 4743
70219 17313 4826
78425 13067 4752
67637 15663 4797
61888 11310 4721
70842 15234 4789
71451 18154 4840
71685 14162 4771
67156 13435 4758
67268 11549 4724
72385 16144 4805
70194 13932 4766
7338 37854 3493
17302 10211 13832
12722 9951 11964
11058 9856 13684
17640 10230 14462
12535 9940 14552
17659 10231 12638
9534 22577 6247
32974 13046 37727
27711 22260 37740
34437 24015 38103
35035 22692 38098
16966 21263 18579
152 39820 20603
25930 23770 37719
22098 20889 4011
61711 21161 24197
10422 19301 33725
16033 14349 19260
35840 26512 3145
9548 21307 8327
20430 16927 3828
5201 36069 9336
9082 9839 9367
1454 41251 22943
18367 168 2819
58523 20932 20773
23608 26715 37749
6093 33565 29412
4857 29114 9466
7221 40117 15741
5819 42015 34215
8615 14264 4223
10163 17302 18215
9310 9757 24230
22666 10516 24498
23893 10585 24403
21725 10462 24931
26596 10739 24803
33432 11127 23774
20266 10379 25875
56166 20529 21439
21273 24460 34758
6818 21449 10464
38565 11418 2934
12356 31574 30480
63355 210 6446
31148 18177 3409
56021 10962 6511
8027 25928 14067
21259 21905 24942
34851 17176 3425
37821 16930 3299
18569 13340 4131
39839 14668 3218
29681 14860 3652
32629 16918 3521
30021 26187 37969
10199 20570 4710
8865 26601 33157
32293 18365 625
7276 29650 29306
2089 39059 31106
7506 18222 12134
10307 31916 2261
15920 10133 29844
15784 10125 29087
43285 13998 11980
33957 21076 35205
4313 29287 16932
4867 27622 16695
42842 19804 37147
12738 30994 29876
55580 10962 29526
30038 15347 37621
7597 27302 23898
17509 10223 4974
19699 10347 3120
65203 20998 9672
20360 10385 2340
10870 9846 8608
34926 22761 3218
23500 19359 3688
6330 41859 34760
9170 38407 22172
38278 21943 33817
10105 36144 8803
30161 16084 37653
2678 40143 18185
58715 371 6794
6817 21302 11347
39798 22506 16663
8042 42244 37223
26108 22431 25303
42509 24799 35685
38140 15140 35308
5373 37585 36109
9468 26530 37375
23667 21905 28344
43422 17912 25648
8499 30989 34682
81456 4843 5584
37237 14275 34566
32961 20919 37956
42011 26165 2912
15929 10133 2776
15005 10081 2441
4473 32347 6798
57165 20724 17609
510 40122 26101
36881 13955 38001
43219 14600 3580
26177 21636 34915
54359 2824 5463
19739 24025 990
27512 18575 34935
4028 30149 16596
3005 34291 27656
5690 25053 23318
39834 18217 3076
4652 35401 19954
13101 26240 5106
20516 10515 1666
42838 3963 968
6035 35672 31604
37226 11342 6498
25905 10700 6571
10620 9832 9853
33034 11104 6930
25652 10685 5241
23811 10581 4193
32660 11083 7907
27275 10777 4583
14129 10031 9825
27398 10784 8743
36678 11311 8868
22439 10503 8768
37666 11367 6881
25715 10689 9426
37230 11343 7178
26427 14658 1098
6592 30514 24358
21304 9852 35029
17010 9608 34955
17990 20240 1266
8716 37433 6206
28576 23296 3455
39245 42 36487
13457 19733 1480
75128 19821 32084
17969 17400 1428
80189 10564 6794
68740 20812 28805
7294 34372 37928
40331 22192 7903
10870 15688 6558
28688 22527 12231
4242 37680 26745
17328 13708 36797
40376 11298 2449
55134 574 31653
42816 3918 36247
34154 15382 35019
35089 16065 35060
37723 14574 35169
30627 15786 34869
32088 15168 34930
30159 15470 34848
12489 2 3619
6326 39328 673
8895 10930 18787
61386 21183 13694
10715 14970 13286
20946 11408 1587
7828 26282 20649
81166 8993 30957
66340 21033 27330
4770 29500 29187
3536 38121 19421
13884 19444 34258
8302 37821 34385
32195 21962 35147
12669 161 35135
22525 178 35081
5339 41357 5079
12975 25387 34124
81250 2846 30322
13005 9807 35035
8153 26496 29195
17317 14835 1613
11593 16259 4168
15715 19612 21622
41723 28541 35580
25036 24315 777
5880 32836 12964
42961 18257 1609
6675 35807 977
23435 605 3380
19914 601 3769
7251 19070 16812
7724 37582 37818
8384 16848 3458
9805 21003 6664
26172 29311 36891
34690 23359 373
7226 19567 11253
15021 22035 34498
6980 22052 31216
8015 24107 1324
21146 13362 30509
7829 39377 11758
34510 22744 24639
16630 13105 7918
42805 21265 23738
6094 23463 19592
24525 10395 36222
3281 32293 16130
21552 13385 23647
32218 13990 28711
19500 13268 22884
25814 13627 25891
14405 28672 18147
13621 23754 37273
20955 18919 34462
7897 16439 11504
13333 15778 1762
41907 11608 35289
75556 21152 21475
6165 33734 8429
27306 27012 35013
7681 31000 5841
67603 21467 13754
8210 20214 2054
37802 22048 32645
6612 33808 31689
27830 28756 37970
42380 11769 143
3905 37242 19035
81694 15681 5251
81694 15706 6758
7279 31391 31674
13012 28958 6988
3391 40544 10171
78456 20516 9325
40690 205 36316
10358 18208 36759
26879 28758 540
19077 25089 37528
13564 15110 36683
15174 17993 34213
11381 13936 36481
54199 17198 22560
4861 35291 23914
40987 12763 226
8699 28051 33653
14754 26207 12795
28292 27414 3423
19295 21239 29835
19444 10333 4399
20344 10384 3281
34399 24803 3218
7708 39707 14604
7187 31314 37266
38368 199 36694
42793 20335 1076
14158 28301 11834
8700 12120 24541
42828 11661 37775
11373 22179 4116
42041 205 36854
9415 32277 37074
39777 11487 35089
8913 36801 36491
30631 13900 9379
17740 13168 14867
38182 14329 5515
14597 22603 7731
7980 16162 28240
22958 22316 20585
81713 14576 31704
10418 16687 27288
42674 5592 1924
25724 13051 37270
8224 28406 6143
10559 15845 26111
10191 23613 34332
8017 15649 21091
60819 20944 11026
19600 27555 815
24721 25356 34898
21694 19122 37326
36624 22701 23919
9177 25786 4798
58575 20700 10427
20736 28981 1145
3584 38124 21313
7205 19441 24810
10299 17774 8663
5790 26799 7694
38065 24800 185
25277 10231 3537
10457 15955 20210
27167 20722 3744
14249 23659 7030
6383 24017 30162
13398 21818 37131
81684 16265 24677
36990 29650 35410
329 40623 14064
35625 22732 14224
24809 17469 3656
7856 34484 719
17640 16886 34544
30324 15194 844
21598 23111 37515
19692 14590 4080
22184 13421 7288
17635 27060 897
30121 14095 894
27536 11280 1166
34654 22890 18830
17068 19510 37133
31339 11008 33325
25427 10672 35523
20618 10399 33096
21964 10476 34759
21443 10446 35134
33189 11113 32786
18859 10300 31991
15170 10090 31399
18065 10254 31311
30283 10948 32418
39969 11498 32354
23211 10547 31297
29063 22851 17601
10753 34312 31627
32328 20987 34954
20783 16163 4030
17510 27541 3830
20268 13312 29384
17204 13138 29410
65694 20512 30455
42777 9523 1328
34961 29192 38245
40657 14470 35172
27947 13748 30231
24589 13557 29335
19325 13258 27431
31195 22534 27201
39410 29677 37628
7884 37546 35701
13414 20363 37034
18360 20891 32299
355 40710 16651
36849 18889 358
19018 20904 32737
2184 37049 9701
7338 34574 4608
60555 10727 6794
17499 25269 998
15287 28528 2129
8824 11412 27282
7035 29494 26182
12769 32267 26604
12570 20531 34390
34616 22875 17267
16169 21012 24660
6185 34936 7074
81103 5601 5463
4707 41154 10669
5647 40287 5049
22197 23432 928
31222 22901 17077
31502 13184 37637
6874 20573 17690
40812 44 1792
54743 20170 24130
81200 7406 31653
4885 41734 32891
69292 19419 4874
66113 21600 20118
54268 19498 26476
10084 18558 9472
7699 21149 34353
34425 20364 3262
8678 14944 36288
54194 1739 6630
8072 32573 34451
5876 24282 21702
43583 15080 22383
43503 16481 22437
43387 18522 22068
43415 18029 20680
43502 16502 12585
43595 14870 12897
43431 17759 17164
43543 15780 19168
14593 18399 34189
20898 18791 3792
9410 31773 1545
39729 22527 18455
36353 11293 2679
37108 11336 5128
32688 11085 1084
15659 20192 22724
6539 25710 5486
27024 29354 36499
9129 37696 28840
24808 13570 8229
31018 13922 6930
25521 21203 33999
7748 26559 17442
10779 16423 32386
15298 25285 34541
18633 21549 23203
15725 19616 17907
25202 16580 34638
14308 21092 32530
11125 161 4094
55139 15181 32327
8989 22551 13030
19234 26771 37616
65914 636 30798
68905 636 30389
8179 35136 2959
81078 4145 6241
43111 15957 844
59383 21004 14504
24655 22146 11486
42249 11207 37497
36451 21100 38138
6290 37338 37302
21406 13376 9805
6399 31574 35755
81679 16579 7198
63975 21477 15903
42072 18845 64
32851 28486 35240
40685 22360 24920
13807 28770 28244
15954 20065 34251
7464 40645 2709
24533 13079 1280
81686 16158 10920
81699 15408 10412
8640 23929 25841
15189 23478 12419
21707 19693 1125
79388 20347 29381
6650 32790 1822
33218 23967 436
40281 21988 4293
10798 15064 28818
15325 10099 4231
16200 10149 4491
6271 31378 14639
5638 34209 35368
18310 14874 34551
16864 14282 34490
3715 39927 28687
36775 16962 38066
22784 13455 12172
26181 13648 11436
39365 14396 5099
7994 39589 2366
30202 10944 21976
35371 11237 23428
42078 11618 21323
43219 11683 21699
36036 11275 23231
26515 10734 22664
35363 11237 22706
25484 10676 22523
17704 10234 22847
23282 15899 1229
8671 12273 15938
15365 22687 25013
39702 15154 263
39766 13604 289
8092 25510 22390
4644 32022 31910
68160 21608 16441
7665 29779 6969
32838 27188 3251
10486 36237 27037
26001 23493 34927
5969 25162 9417
71177 21501 21564
9789 11451 36191
1839 37686 10269
15625 20847 11871
25788 21482 5896
15018 22093 28957
54184 16304 30921
54224 18573 27498
54156 14730 31065
54188 16513 29621
54160 14923 28709
17422 28719 1741
24684 20305 3633
9832 19441 10592
5036 39883 32218
54331 19622 28936
17580 21032 29577
3059 32896 22299
8269 24995 14738
4658 40569 31916
34006 29604 37345
11765 28182 35791
6445 23211 28879
8827 24320 30112
21022 22292 3751
15398 21706 12533
12241 33946 23045
34509 17426 35190
7413 35772 37937
40146 630 2176
74282 20967 10684
16209 13081 8349
57118 20291 6353
17494 15659 4171
9334 31586 36717
43347 12315 6692
5469 25574 18679
7477 18586 28258
5558 26299 10521
9660 26565 34342
6885 20577 16432
77731 20889 18012
41405 11580 7321
39794 11488 4690
5874 40820 24957
43364 12021 19208
7049 40077 274
13828 29746 12725
43275 14511 20619
61302 21292 20208
31823 22730 13408
15412 18346 9894
9194 23880 6584
28538 22693 23960
15153 16487 31404
19882 10807 1690
5304 32200 4691
14816 18107 1532
9515 20333 24178
72250 21335 23552
54394 4004 31653
3685 41518 15591
27712 14160 34901
26008 13912 34834
595 38986 22186
54636 1966 30567
2427 41045 23034
6715 31443 9291
8333 38958 36610
28347 17432 37599
8911 22444 19050
4364 36671 14128
10907 9431 3237
25179 19744 34645
11372 35502 16465
4782 28317 13350
28440 13776 34220
22179 10488 20834
19827 10354 20816
15211 10092 22173
58759 20945 21815
8947 4109 33744
43542 15802 6118
35326 15807 3271
36967 16695 3200
10428 16274 23962
9210 30930 2238
28839 23730 3440
60211 21172 17245
55579 565 30322
15447 17169 29147
58800 271 5463
27416 21262 793
9197 20354 36883
20483 16754 1338
43189 14715 463
11714 32738 30967
10082 20935 33448
4993 28707 29154
6670 42137 3279
54820 19553 32165
6732 24715 32931
14557 26843 26327
61325 21281 16431
57862 10537 30872
65453 10537 30936
12653 32711 12648
81154 7939 5463
14560 24404 1137
3657 31214 16607
12193 28805 34054
26727 14255 3613
25870 15799 3631
27453 16891 3562
14479 22449 37214
81455 4613 6794
11880 15015 34308
17302 15000 36875
5538 39872 5391
64277 17255 4824
55906 20470 22724
43111 20670 26656
12185 23799 37235
29609 14780 34979
26417 14488 34855
58357 20923 18958
10718 14615 19664
18856 21016 31588
81680 16488 28973
81689 15983 25949
81649 18276 27691
16875 19949 34290
12503 32412 28020
34516 14121 5140
43350 12368 10865
35977 11271 13311
14383 10045 11963
36011 11273 11846
35681 11255 12756
39835 11491 11211
21504 10450 11618
31557 11020 11603
40912 11552 12407
41387 11579 10975
8814 11807 31277
11856 14587 4175
9918 9332 34152
10009 0 4028
64574 10767 5463
15694 18996 14653
20339 16423 3836
3062 39591 15411
17534 13157 27101
22061 13414 27907
23503 13496 29203
9992 22191 34210
81739 13100 28746
81639 18828 19052
29070 29441 37959
41559 29688 36318
31824 22920 20705
29090 19179 785
40925 21036 3156
59063 18974 32261
64395 18542 32268
58616 15565 32320
59926 16004 32313
11625 34485 26712
7008 21329 30149
60251 14463 32340
63860 16260 32308
15021 13345 4916
37025 21999 32926
41565 11589 5595
8209 25018 17373
35301 11233 36540
39380 11465 33877
19522 18481 4078
6996 20183 15321
22930 15017 37191
11920 26125 37392
9266 21984 9914
10024 9798 20931
19050 10310 19806
17980 10250 19564
24283 22461 21357
40333 11359 35080
8689 25829 6857
19549 18168 34400
75522 20520 29751
11843 34806 18829
30554 24872 37951
6268 29328 3977
8795 26153 32476
6858 21321 28183
8009 41264 1919
39340 22568 20472
41160 11566 2145
8180 14926 24680
14729 23200 1206
35207 193 1634
6095 27492 32828
58163 20782 12820
15775 17269 36938
8405 27039 6805
5187 41148 23713
3068 34544 28727
33751 22906 20714
20845 20831 34318
43117 20732 20381
13450 30951 25295
13361 28629 7896
34486 11187 10126
21138 10429 10660
9645 9776 11508
5772 32716 15281
43249 20304 16116
38320 11405 574
54727 9373 31537
34511 22171 7466
8387 13815 16644
61080 210 6291
5944 27133 31925
19161 13616 36894
54174 1194 5570
54103 11687 15000
54204 17472 14530
54145 14059 10612
54150 14370 14351
54129 13133 21245
54178 15976 21637
54187 16472 20571
54168 15387 21391
54111 12107 17628
54119 12600 13734
54184 16318 12568
6073 32202 35368
54189 16605 6951
54208 17684 9803
81665 17347 30491
31491 22388 28624
12684 11975 2070
24657 27812 650
6312 34549 36581
8544 12931 18247
31856 11037 36824
33077 11107 35450
16205 16971 34255
19750 20021 1198
24005 10204 2294
9522 36126 5938
42131 28762 36363
36747 25860 3117
7717 17278 26389
41337 382 37387
3552 32196 12504
17565 17753 34315
24677 22865 3606
5763 40138 1182
17045 20683 5223
4140 30569 26371
10123 18130 10703
15486 20750 12704
31160 27415 435
8512 34404 35888
5761 32557 16965
24152 10600 36841
20943 10418 35332
9443 28219 2649
60459 20999 24989
14180 27163 3959
34747 197 2809
8931 11111 5968
25993 16799 34673
12129 587 34829
10739 587 34215
8418 25668 8871
42877 19091 37755
248 39913 23024
58090 636 31625
71593 636 31651
20118 21486 10172
31305 24296 3341
8993 10485 8054
29982 20669 3428
19991 18959 34654
6809 29462 19940
79491 18426 32270
75729 19017 32260
36565 29662 2202
26035 16752 3617
6919 20531 23839
36300 23742 3156
4620 41406 32304
6525 36349 33144
32286 23898 482
6283 24887 7625
7705 19132 32280
9844 25806 4136
36020 14206 30389
37317 14280 13313
32364 13999 23497
33392 14057 13340
41099 14495 28178
41375 14510 4736
18353 13203 19633
43295 14619 17040
29007 13808 21643
33966 14090 17613
23100 13473 19572
43175 14613 11846
35181 14159 14874
39248 14390 12026
39922 14428 14103
39050 14378 20372
38581 14352 17753
42227 14559 26028
30413 13888 21141
42350 14566 12246
37625 14297 22084
42778 14590 17990
39284 14392 14899
36698 14245 10018
32832 14025 19948
38439 14344 24534
38626 14354 10729
28387 13773 14402
41041 14491 24752
39983 14431 26703
34469 14118 23621
27155 13703 17864
41050 14492 8023
43268 14618 13397
43363 14623 31422
38115 14325 10788
19422 13264 19220
36802 14251 19048
25287 13597 16561
26236 13651 16494
25693 13620 22989
32154 13987 17551
41698 14529 30147
37917 14314 31307
31085 13926 24801
24116 13530 18344
70689 21553 16435
6362 41761 37707
78616 11122 21489
77213 11122 17028
81234 11122 10291
69101 11122 19072
80341 11122 22712
79927 11122 9851
67482 11122 19905
77228 11122 11406
80155 11122 30360
69272 11122 21152
57826 11122 31841
81333 11122 13983
71789 11122 27303
76698 11122 17764
64474 11122 22869
65959 11122 26201
65372 11122 22409
78456 11122 27825
78138 11122 11271
70477 11122 16497
81488 11122 30390
74380 11122 24505
77102 11122 15202
79579 11122 19275
80105 11122 8666
76166 11122 12523
62469 11122 31280
76319 11122 10383
81259 11122 7319
70678 11122 29933
76503 11122 24196
65152 11122 31517
58287 11122 31208
71331 11122 23549
71211 11122 25327
78473 11122 8561
80048 11122 7979
72073 11122 18361
80871 11122 26249
29919 21643 37822
32689 27845 35227
74095 20445 30563
42901 8266 36690
34803 18458 35211
11219 19825 36913
29963 20880 34853
21426 21901 13115
42441 8561 1638
8874 38776 19294
8422 17500 36048
18754 13604 34355
61601 10733 31653
10149 15288 1951
29660 22473 27254
9492 33071 37326
5041 27298 23975
8995 22370 14430
6346 22547 20048
13895 15174 4092
6850 31476 8468
9202 25380 33444
27640 22787 18593
40586 11533 33057
10030 9798 4081
36600 29383 168
6654 30727 26375
15266 19627 9611
35539 13488 37907
37053 14851 38035
13048 9970 22985
32679 11084 23537
19644 10344 21909
39653 11480 20339
28205 10830 23502
22636 10514 22609
40711 11540 20445
33236 11116 21712
20884 21927 15079
11779 31243 32974
3309 38211 33203
16636 25431 37465
7282 28961 27345
20274 12282 1584
78389 636 6287
64564 636 5926
81694 15664 28957
81641 18717 21209
81712 14644 29067
81670 17052 29703
4605 28875 13361
61751 21285 21931
14050 22384 5712
4355 31457 8311
8787 12080 31883
29043 21827 31832
3695 35109 31836
14718 27244 22482
8417 37662 4879
8581 25087 8761
43331 12488 1290
60757 636 31288
67555 636 31640
15035 18252 7452
21479 10448 29988
39100 11449 31069
36251 11287 30680
81610 19449 23625
7432 29634 8218
13847 26496 3978
35571 29641 1828
54843 16104 32311
14974 280 34161
8399 15869 34020
23132 14471 1297
9907 37064 11539
41889 11607 1193
26994 21597 32401
36159 14214 32718
21694 13393 26897
80987 20270 20259
5467 36626 2534
6371 33135 8355
30135 25015 542
9671 33322 36834
65211 20954 27729
38307 29678 1504
34177 19343 3281
4969 41730 34478
13617 21511 1349
7645 17861 9983
5767 36647 2094
5068 40926 29375
6863 20941 12619
8795 38181 28372
23153 15783 34743
43464 17167 10612
10597 23574 1303
35249 21942 5549
13697 26476 31397
15873 15997 24154
20563 21641 11253
7245 39399 35273
21326 19873 37344
19474 28881 36255
6927 23545 32709
31077 22797 14660
54233 19105 7308
54159 14903 6675
63208 21464 17516
640 40879 20368
15134 20510 1365
2792 41626 12649
40692 22373 24306
80130 20377 10603
25890 21969 29466
32729 21770 517
17451 16041 36946
7340 18930 12443
7701 38536 2812
23796 20320 3667
11188 19351 4152
2755 41401 7851
22863 9940 3471
30457 10372 2631
26655 10156 3219
7331 35194 34111
9880 18046 36727
60652 17597 4831
56368 19001 4855
57760 14470 4776
62777 18509 4847
59644 16482 4811
17540 18548 34315
8844 37276 1729
42987 20928 12404
8966 30522 37499
8989 10410 27717
42766 21342 20253
22440 24463 869
37721 26182 176
56902 20587 24848
12435 16518 34344
15814 10127 24595
9382 9761 24872
30475 10959 24829
12732 9952 25117
18424 10275 24609
11538 9884 26006
31548 22155 7996
3288 32064 19298
9639 20159 27076
38790 22206 30831
10517 22682 1369
79215 20341 7420
80370 20340 26739
42859 15872 38424
81222 13572 4760
11799 9899 32655
71367 20659 7561
24843 28735 3541
72170 10720 6794
29633 28575 38025
17844 21485 34598
28709 28281 35080
25207 21431 32627
19038 24316 998
10254 34308 33655
7932 16060 22043
8150 26010 11082
2663 40244 17325
8853 11232 13615
22371 22072 13770
15544 16807 28574
41021 18894 38354
18510 13212 5215
8650 38986 19861
20085 13301 33521
66758 210 30741
42195 26264 38482
32533 22053 31459
18240 20964 7046
37193 17140 375
18498 27222 34682
3504 38325 17000
42743 20660 379
38277 20191 3271
9873 37299 12830
8798 38239 1339
71235 20525 30339
43366 11873 4059
15564 21319 14983
26047 25716 684
31252 23734 3348
7131 31806 6916
32011 11046 16574
25509 10677 16628
42120 11620 17120
24028 10593 16556
26177 10715 16548
26623 10740 16962
38559 11418 17948
28715 10859 15934
81709 11122 16493
5485 37096 7188
17683 28728 3466
36316 25895 38236
76740 19693 32145
9865 29325 1133
34426 25590 38141
81677 16227 32103
34533 28895 35308
54168 15383 17478
54119 12600 27963
54201 17301 15693
54096 11257 17758
54126 12999 9209
54224 18571 14642
54135 13483 10707
54154 14575 22146
54099 11456 7483
54180 16065 11786
54167 15354 13578
11232 32289 5079
9804 21330 32254
35967 22206 7574
40632 29610 35550
8615 38376 37344
1872 37384 10771
18767 13227 12700
34568 14124 6354
22193 13421 12035
17564 20855 31798
35531 11588 37861
4996 41105 11816
42521 8330 36170
9021 24051 31077
42532 23321 944
10443 18647 5426
70842 21471 14659
79513 20399 9065
18578 13188 1636
32833 21240 3314
30635 22709 25012
17758 13169 31174
18807 26718 34688
30464 23050 589
9715 20454 8630
12847 32501 13699
4984 35904 34967
5857 24489 14936
40630 22411 22251
25435 21338 5232
5259 36294 2943
43073 20821 15794
27563 441 35065
18465 11090 36707
43361 12094 23168
43135 12760 38400
25121 22573 18408
18765 26678 3792
22763 28929 34860
41755 21913 7291
77078 636 5508
78909 636 5499
19773 28903 2339
10047 17822 19950
7150 29016 36457
20225 15240 37051
81606 19429 9382
25782 13688 1176
74739 20437 6597
6330 22673 21887
68763 21629 17464
32511 23665 3301
30522 22862 3384
63176 10537 31330
36606 20954 35137
71705 20753 8198
34209 14104 3584
29204 20710 35021
30830 16747 3598
23901 433 2342
39044 25085 3037
24534 17855 34815
25220 18165 34844
15253 22628 26536
12290 33666 13866
39618 11693 34375
33334 14054 3884
13629 30786 23678
9321 6532 3551
24232 22886 34854
41624 28859 38519
8574 25342 8307
35017 22430 28684
76645 210 30678
76018 21037 13911
23936 28880 34904
10081 34677 4833
26127 13901 3639
29143 16212 3504
12611 27791 33684
6643 21444 20341
36170 23893 289
73206 21375 15541
42380 15598 3004
6957 29508 13446
40239 24608 38400
8439 24181 18412
31930 11079 874
23676 15886 34763
11756 28175 3279
9849 19741 29475
2309 40964 20244
18927 13236 6827
5356 26181 15123
6400 34172 7099
42988 7240 36491
12532 32659 27039
66458 593 31653
15800 14728 10944
15839 24068 3928
24801 24056 37683
5255 26416 22358
5027 41176 13891
21322 19310 1162
54356 4060 30495
33546 196 2841
8739 11881 17379
35594 620 36682
38387 626 36383
41651 630 36720
43025 17105 37966
43295 13992 18461
32607 28369 38130
2782 38427 32248
25100 22068 10356
43310 12895 2689
60844 210 30413
17730 19622 4152
38544 22247 3084
26568 18062 3777
19083 17919 3869
12625 29821 31874
3304 33186 11595
39989 11339 3404
42760 11657 29777
37501 11358 30008
31574 11022 29871
21187 10432 28864
23806 10580 29126
31161 21549 34104
19624 23344 34684
14749 16203 33162
80168 20455 18136
16412 25689 34587
2894 33203 17664
70765 20336 5732
7642 22405 34946
5364 41077 33314
4442 38478 8996
6551 30772 13333
16014 14486 21487
8918 10858 26111
15907 15887 23147
23513 13496 33106
5406 40441 36942
8370 1212 4261
20313 23278 34710
20841 13344 26444
19642 13276 25487
17437 21318 15388
63097 11122 16866
62036 11122 15138
62200 11122 12413
73200 11122 10829
72866 11122 8780
64523 11122 13881
58689 11122 16754
55321 11122 15550
66237 11122 14834
61640 11122 17878
71279 11122 7269
55634 11122 27929
59270 11122 16233
59031 11122 9443
62820 11122 23439
60154 11122 24721
65833 11122 9403
54953 11122 26344
59634 11122 21463
56914 11122 13515
74498 11122 8201
65763 11122 11167
55018 11122 17676
64803 11122 6109
59795 11122 23227
70014 11122 5381
70151 11122 9213
58423 11122 25389
60582 11122 4844
70273 11122 14290
63103 11122 21445
60745 11122 14217
75985 17623 4831
15032 18317 4018
7151 30713 8089
69194 21271 25430
42797 11659 35080
43253 14577 9815
25961 10520 3487
69794 455 31653
8460 15180 33688
37817 20289 38196
55030 7596 30600
57149 210 6578
15532 15808 9006
2203 40350 6045
43352 19146 9774
43510 16362 3730
43479 16900 3509
22281 16993 1228
12851 22245 4060
15709 14842 9895
6164 30342 34761
11054 15323 5188
23120 178 3151
14242 28733 14061
41613 26384 38488
81738 13190 22899
81718 14309 12435
81751 12447 11218
81704 15133 21877
81768 11444 9668
81700 15369 18372
81728 13757 21492
81722 14096 8929
81714 14518 22101
81750 12499 13960
81689 15966 18657
55713 636 6741
76200 636 6725
9066 225 4056
27590 10795 25448
31198 11000 27902
40525 11530 28106
41252 11571 28578
32981 11101 26524
39009 11444 24451
20018 10365 26950
18617 10286 27345
41739 26876 38500
40134 28609 2958
43301 13679 25130
4833 30128 30581
29029 22366 27980
40198 21927 3462
76606 15252 32326
55470 20331 10248
22789 12052 1436
58203 15626 4796
58605 17563 4830
61489 17654 4832
55489 13659 4761
54639 20121 16355
5800 41231 4504
8878 23442 10290
38457 18467 3126
80402 15072 4786
80625 13617 4761
6243 24361 29717
18712 18591 4111
54169 15428 24898
27294 29362 37916
12916 24378 37295
18658 10288 28460
22458 10504 27642
10575 9829 27602
5247 29886 31944
23199 22359 19098
25315 181 35522
41383 10992 2346
33025 10517 2609
36728 10728 2198
62377 21405 19288
13893 9857 4858
7306 39115 3211
40276 22794 3013
14139 9871 4111
37105 11111 35793
69816 21328 24765
68059 20968 9278
54205 17519 11160
54232 19070 14717
8340 14010 19822
13661 30349 25378
29488 24948 35075
31489 22871 22438
1515 36687 17578
9397 22258 30760
35188 22262 8153
72997 210 30965
31172 26666 455
13206 24940 1137
34504 25221 344
10374 19119 5278
9462 29375 2158
28500 22837 35015
30832 22003 7163
9877 25298 1190
38528 22618 22378
75338 20980 11771
9864 157 34795
61783 10537 31044
55383 10537 30987
921 41018 21031
14371 28791 20473
21758 22089 15804
16429 10200 36522
54751 9706 30380
8916 10972 30634
36559 19131 3193
74424 21315 19257
37108 27356 38297
20699 21512 9624
3679 38038 15957
74458 14631 4779
71490 17299 4824
64749 14797 4782
72371 14113 4769
61795 11845 4730
75332 14255 4772
71603 11709 4728
70841 15766 4799
79292 12485 4741
69484 13608 4761
72910 15375 4791
9047 30033 35549
7210 19474 25516
35181 14159 7664
16242 13083 17977
26226 13650 12691
23123 13474 14291
41140 14551 35417
15593 20694 14660
5044 35141 13016
8144 18264 3964
12703 10817 36322
23902 20151 1001
38272 25829 35419
9830 6837 34713
11840 14375 36538
12752 15175 36645
88 39912 18833
15505 20456 25776
14911 14564 36717
35163 22683 25438
43319 13188 12145
6844 29545 22712
72576 17511 32286
75405 14196 32344
74818 11786 32386
76244 12133 32380
73492 11802 32386
64394 11859 32385
69029 16372 32306
65538 16471 32304
72235 13533 32356
71545 18201 32274
66395 16813 32298
8731 24151 28733
43318 11688 33354
42606 22567 1038
43371 11766 34579
76234 20808 10558
6764 23393 31689
8772 1266 3892
15588 594 34472
33330 616 36689
5970 23926 17735
14462 25714 9687
28193 22786 16828
33291 19801 37937
8413 38729 10957
21001 20786 1104
7570 17896 25554
58686 20822 24840
14749 13656 34244
26919 20255 37628
31569 376 3126
74851 18590 32268
6817 39822 34829
56030 20517 17744
4148 30199 13645
23704 25366 34859
19049 22252 37373
2853 37709 6614
62120 21375 19902
18958 13237 11792
21706 13394 10243
14563 21024 6781
38505 25039 35420
40426 20056 137
29090 185 2245
29816 29025 432
30084 21623 3414
27740 13736 33147
17054 13129 31538
67102 17344 4826
11044 36048 20905
32629 10495 1863
23331 9967 2728
23917 10000 2836
39109 20138 3236
15642 20706 22164
33527 22340 9029
32051 19938 35121
22897 13461 34080
12283 9926 5981
34920 19437 454
36201 16082 463
13501 27582 31124
40035 12622 38186
69719 10537 5649
56732 10537 6154
34891 29632 2667
36041 22615 38144
11318 28120 34486
9195 31163 37470
11028 15715 4829
67754 19287 4860
30031 19378 723
31269 17130 724
20479 13324 12031
23269 13482 11447
23028 13469 10523
4585 35787 15889
14307 16378 4153
12218 9762 4561
19723 28318 37707
19670 28059 3744
18786 21631 20893
9715 19762 26580
11077 34447 29967
13869 23985 34474
26125 22325 26522
14935 23525 10250
15822 17409 34481
10575 36457 13768
11697 9893 4518
41687 27591 38508
3322 32442 14308
64207 21447 22197
42613 21307 7675
6835 40218 25883
33732 22776 3264
31896 28803 3271
70833 10836 5463
17804 14291 3952
42836 21179 26384
3684 40085 3733
3195 41573 22636
10872 23908 4117
1474 37506 25165
39490 29627 41
42918 2003 1746
10876 35912 25533
56896 20219 5709
40789 22211 29710
16159 27974 3877
7861 31595 4966
28897 24031 37854
19835 10355 12840
27319 10780 14293
14368 10045 12657
22860 10527 12920
16798 10182 14736
10644 9833 13337
8472 24752 11467
54735 3371 5599
28525 13781 4761
4162 41450 21532
4477 28723 20458
15763 11966 1882
4918 27385 20131
80701 9535 30485
42708 18848 35393
40128 18091 35281
30682 16470 34873
4677 35422 17069
10455 36304 11559
30256 28711 3334
7239 29614 9484
10152 19889 5850
67337 210 6400
35093 21670 3743
15565 20344 24923
24803 22890 37636
5354 29734 6296
9719 9781 21743
26751 10748 20625
36200 11284 19744
54338 3801 5537
8442 13577 13403
22496 10506 36277
3317 32117 16832
21996 27028 37711
21472 19762 34718
7817 29080 7101
10877 15194 30720
18231 14657 36905
75406 16291 4808
75483 17283 4824
18648 20565 37267
6566 22195 26152
80275 20333 27507
77221 20431 29907
3967 37347 15812
12317 32667 10069
2651 34844 26401
17365 13147 6519
13380 16093 36744
24962 20591 37549
43042 11673 1080
80804 14349 4774
76663 18100 4839
7462 20928 5620
31603 22029 37919
30541 22232 37873
36256 24772 270
31274 22619 26309
80077 12608 32372
67437 20883 28384
19056 17380 34602
7052 25877 34837
31148 17347 37746
68749 10537 31119
77822 10537 31352
4323 29608 24415
31818 22555 11322
28099 22429 11565
23821 13514 31322
26489 19982 34910
75465 20376 6287
54173 15676 27038
54216 18168 25963
54178 15992 26250
54148 14256 31728
28077 29398 37365
39153 22999 160
77987 20817 15389
15647 15730 10016
37499 29028 3054
62057 21181 12821
9893 20337 31358
15597 21385 22279
20572 10397 19816
14763 10067 20736
27567 10794 19407
32788 11090 19733
7668 26999 23213
3384 37914 5320
1348 41254 19341
39439 20810 35413
13813 10013 18963
30158 10941 18810
24134 10599 19074
9895 9791 18385
17582 20807 6073
26894 611 35044
40263 627 36872
27126 610 35750
43522 16147 22823
43469 17078 14079
43528 16035 14260
43512 16330 8278
43593 14898 10364
43552 15615 17543
43459 17251 24267
43542 15806 24544
43388 18514 16467
37553 25852 35392
13285 23007 34403
4605 31213 30946
39953 21798 35282
37308 12999 456
9017 10669 35786
58041 10537 6046
70312 10537 5474
18235 20245 4128
20865 18852 37272
79267 20628 18451
8521 38628 27445
4037 30140 22132
9610 20364 27611
43360 12117 23895
10093 18236 27576
42106 21486 35522
33263 14007 37772
76155 210 30441
15150 24335 13546
4448 29452 12824
62802 18213 32274
59706 18846 32263
56334 12652 32371
58037 15476 32322
26155 12771 1193
36939 11067 1363
79647 210 31436
78686 210 6420
62276 15121 32328
68113 18449 32270
11151 14395 32540
11087 12833 15488
9068 10073 35689
31064 22341 28918
81256 20087 14638
8984 10598 32067
70527 21436 23198
7684 17947 8848
80186 20076 31713
11815 9313 34654
17740 9649 35378
7215 28265 20674
23353 21903 10409
33001 14429 3373
27784 20017 37662
7279 18900 20187
2916 41596 15224
21870 13403 5236
17530 22402 3881
6044 23739 16302
33489 11130 943
68929 21052 9895
54694 8889 5577
21348 18258 37265
9071 38281 25476
14924 27236 947
71200 21290 12377
8105 41557 36712
69824 636 30983
74747 636 30401
42296 26957 35586
15809 17826 3993
18957 20781 3844
36800 28870 38310
7792 17848 30858
54905 5809 6232
6049 24555 28225
9116 2933 4343
22413 27616 3644
72931 21424 16384
13047 25510 1102
40953 11554 1668
13840 163 34937
42769 17206 38436
951 40489 9295
40864 28363 0
72489 20064 5218
7245 24037 34422
10781 14623 24978
10759 15356 9164
14927 26355 16557
6815 33533 6426
77970 20264 5820
7505 18066 23737
37551 11361 13726
29042 10878 12140
13432 9991 11569
35478 11243 11220
40720 11541 14114
33769 11146 11421
30634 10968 12025
33025 14866 686
34278 15571 593
81622 1561 6794
30957 17457 35055
18974 21635 22375
1139 41137 17875
17310 13144 7642
7022 28820 19772
34441 503 36893
5530 25966 25973
26611 29334 35315
43261 14194 7419
12923 26237 34461
80789 19379 4889
8738 11964 11124
29848 22703 13746
22735 25175 3656
72985 21288 13527
6150 31466 16908
42453 17849 35498
16475 21037 25898
8087 25992 12259
14455 17142 36866
38791 19392 38235
39616 20153 38297
28218 22343 10692
4685 35379 21000
2605 41590 10736
37915 16525 35312
33347 16578 35138
4668 29089 11482
76144 21111 19857
9386 22518 7314
3702 41520 22333
22921 13445 1361
7053 32071 31546
30958 22677 12935
22180 10154 3759
22738 22091 34789
67890 21395 24278
15508 16570 9381
4927 37339 8654
60258 210 5840
15089 25313 22988
5788 32466 21257
7689 19687 32908
4163 37079 23888
9980 9795 32561
10970 13484 23442
34809 25163 35280
40527 11735 1924
11125 9860 34646
23147 22108 25596
38927 26801 3024
81661 1911 31374
11451 13242 4558
10922 16189 5093
79908 10962 31320
2108 41545 21711
39942 11887 38168
42944 6914 1055
64873 21559 19931
39607 25296 101
66877 21630 19337
4382 39386 8121
19517 14333 34591
14257 13498 34383
10720 28076 1497
7595 28258 9835
33425 21616 37996
67606 210 30434
55212 638 6497
56264 20277 30454
15171 18380 8238
3679 32608 10060
19220 28865 775
28109 263 2040
35055 22655 12565
5109 34219 19458
4809 35804 25535
8921 36562 1424
24109 20217 34822
20329 13182 36943
24238 25481 760
68973 21438 13494
59382 19980 31942
8354 14904 31559
72041 21482 16303
8062 34560 3338
36293 16110 38020
15769 18598 16620
6183 35438 36639
11210 13920 32257
8579 12787 14004
7975 26821 28240
36183 20216 3196
5447 41895 4064
18350 25542 37529
20169 305 2609
42899 21155 16773
15784 18556 20775
75529 21185 20118
15329 24196 19422
4969 30764 31818
43353 12273 24577
16871 28565 826
27645 28749 3434
80046 20463 14984
32574 16330 672
7067 31470 7503
8733 3005 4753
35847 19842 35265
25571 21103 34533
38041 22686 18325
75863 11122 20085
77724 11122 17315
77016 11122 11881
78542 11122 19423
56985 11122 31863
79634 11122 28428
60023 11122 29984
71016 11122 20311
71747 11122 23185
71858 11122 31734
73088 11122 25671
77840 11122 16206
59036 11122 28309
75533 11122 17440
66705 11122 30130
78134 11122 29878
80657 11122 13970
74124 11122 18248
75861 11122 22661
77119 11122 14247
79890 11122 20900
73602 11122 28247
65285 11122 28605
66790 11122 31454
74100 11122 20590
70500 11122 27914
69645 11122 32188
76050 11122 17313
58853 11122 29964
67257 11122 31823
72338 11122 28085
78508 11122 26340
68087 11122 28732
78951 11122 8834
65955 11122 30130
75279 11122 26256
65359 11122 30231
6435 26559 33297
62870 20867 9238
55101 8605 30673
6249 24593 8299
9763 19445 12716
36863 22548 11784
20327 17055 37153
39255 22143 31665
19630 13276 28136
41861 14538 34954
34933 21542 406
29365 21207 34828
10098 17755 23434
8269 41033 36840
70950 210 31191
21721 13394 20382
37006 14262 25083
20289 13313 19794
42341 14565 15449
32078 13983 25929
16988 13126 19474
36807 14251 20902
31739 13963 21919
34812 14138 27205
42359 14566 5199
21502 13382 19888
41674 14527 26650
32982 14034 23911
39292 14392 31192
34956 14146 18061
26065 13641 18926
26997 13694 16422
32324 13996 18603
29433 13832 22894
42334 14565 16729
21332 13372 19291
37239 14276 29371
36295 14222 28836
37152 14271 24212
29956 13862 22724
34347 14111 16189
35809 14194 21782
36438 14230 15246
19399 13263 20171
39553 14407 25706
41497 14517 23662
25437 13605 17602
42389 14568 25098
31770 13965 23027
32654 14015 9847
31048 13924 10795
23939 13520 21409
39518 14405 26972
33440 14060 23651
42093 14551 10318
38531 14349 15999
17085 13131 18750
33108 14041 20955
32504 14007 13385
41360 14510 25887
29743 13850 17668
55222 20363 19825
15632 19982 23932
39250 29679 36218
9949 27380 1034
23751 20746 34587
34042 13793 654
81063 20196 12019
15518 22721 37270
5252 38116 31517
9882 28452 37106
10424 17920 6787
33515 14064 8949
37225 14275 6356
31581 13954 10059
31802 29539 37731
9039 10093 23081
8488 13584 29388
5618 39125 36862
42028 11615 7549
10892 9847 35140
9560 36312 31742
15839 23610 1145
14338 28440 3121
16895 27559 34625
20802 21973 16758
78309 20713 13244
43257 13972 3977
21202 21189 32052
54211 17846 21535
4161 41673 5533
11499 163 34091
27607 23386 37779
5406 39551 5763
68744 20734 7840
10776 36231 24199
80956 5892 31331
10360 17625 30248
37511 25203 204
16079 20265 4221
31263 10704 1771
28969 29438 744
20979 24368 3731
76683 20915 24147
16077 21606 3944
7457 21891 4716
7600 17542 20239
8018 15803 12227
3215 41612 30553
36461 29650 37442
81592 19521 26739
26772 17685 962
40061 17202 35400
6804 26411 34383
39607 11478 8384
28116 10825 8490
32285 11062 2274
28560 10850 7872
29337 10894 6303
37425 11354 9027
22860 10527 9685
16483 10165 7784
23823 10581 9020
32301 11063 5913
31878 11039 8169
31025 10990 5318
20423 10388 6247
35212 11228 6576
18725 10292 7124
21745 22140 17669
15476 18415 10528
34424 20024 38007
14323 13706 36623
3927 38672 3997
79280 20375 8119
6685 40083 4443
40813 13495 38253
10691 9836 32515
37384 21040 3306
25366 10351 34948
11468 27471 4059
81198 17762 32282
80382 13730 32352
79796 18825 32263
43385 18563 28316
43317 19764 22773
9960 20547 6247
8235 14631 13262
5751 24674 18040
34000 192 1858
1012 40084 9721
14810 17779 6258
7938 27625 8539
28494 23352 667
3304 36361 31867
10786 17519 4349
13806 28995 10650
7727 39833 35982
3510 41549 17514
54442 5134 31653
23646 11528 1405
9050 10333 2889
33597 10604 35539
70247 21531 15412
15604 27726 37575
22240 20981 33974
57893 20791 22925
61703 21319 20745
9753 23875 34319
7995 20825 35626
73364 20596 29698
15957 20619 5676
28455 27563 525
36639 22600 12499
12361 9931 3985
27375 15535 37472
35201 22104 35263
38030 11228 2762
9882 8087 35162
54202 16874 32096
43382 18609 33438
8384 24651 14149
22775 20578 1037
8172 25908 27295
54232 16106 32199
12264 33997 21827
7858 40255 37665
79230 20478 26900
4809 33312 5154
8652 2760 34075
31314 16674 37734
33848 16948 37894
6772 22980 7293
27457 23315 34981
22386 427 3784
12242 33147 11040
27100 13700 27159
24290 13540 24554
17254 13141 21014
16599 14684 1661
8282 26519 30229
7763 39212 9972
0 40414 15871
8979 10975 4014
42412 22412 2934
5842 24315 19191
10512 21746 1441
15707 19957 20421
32325 25847 3286
4005 38845 10377
5141 34706 13794
17855 20889 3884
27895 22540 12906
81668 17195 20992
11169 23304 34366
43015 5911 37434
12204 28240 4086
38899 18604 35370
43369 18836 24525
24016 22276 13822
54662 2333 5829
19345 10327 28188
29437 10900 28455
43132 20533 29259
5715 25175 13569
24886 22345 24985
56103 20506 14615
75277 20524 7324
39838 11491 30645
41723 11598 29558
34958 11214 29248
10241 35484 30959
12112 20592 37003
81179 20004 31413
60386 20791 9712
40871 16128 3057
8557 2224 33961
6814 38044 299
11379 18181 1682
30029 12861 943
3999 41584 33140
4780 27881 21768
19642 16034 37067
67882 20278 31592
39557 26328 92
66225 21495 22692
7297 36016 4123
7844 24457 1693
9622 7839 4223
19044 25961 34689
55890 10962 30764
21316 601 2884
55423 20273 8038
9486 36929 8440
4969 41257 21277
25996 10118 36211
25371 10083 35906
17258 21008 9244
6093 40033 811
29834 22896 18691
16430 19843 34528
27239 16609 34726
54324 19588 7644
21596 23952 925
8040 15470 19508
9079 36312 3539
60959 20909 10521
17227 23721 37388
10697 14787 17342
68987 21615 20197
11362 13181 2052
21365 22289 37465
6564 21797 16928
23760 180 35096
10528 15840 24583
25306 17906 1027
7613 28100 28313
9765 12650 36291
9082 9896 4036
36304 22323 29727
13189 30956 27523
5075 41229 18212
10826 14158 16529
9188 37859 27602
61187 20650 29008
42947 1508 36812
55087 20062 31713
2951 39666 21869
5367 35862 8899
43320 12867 5579
8611 32809 35595
5128 36812 29908
36451 14231 33642
7547 34719 4167
5117 37219 30335
76662 20890 24694
3584 41555 6293
17979 16666 1469
5464 25615 18183
14208 9449 3500
21954 9889 3104
31807 18165 35094
8712 13239 4636
17262 10209 34855
12882 9960 32638
81732 13517 13957
81771 11291 7654
81657 17838 17808
81757 12058 9784
81719 14226 11718
81743 12885 19467
81748 12591 13242
81770 11313 25869
81680 16512 11898
81747 12656 15029
81691 15886 21272
9630 35407 4399
78977 210 31553
4883 28400 27119
35830 11263 34696
74194 10537 6436
76460 10537 5887
66028 21429 23575
78254 10962 7271
13890 22538 33158
29738 19094 34839
4288 36394 17364
75542 21192 17710
7557 19082 7539
30092 187 36205
10425 26492 1090
345 40272 13153
3202 34685 29651
23164 10544 15808
17727 10235 15247
15528 10110 16051
8184 15353 8706
1594 40814 7149
81662 17526 21928
37752 14866 392
41313 21957 5121
4442 28787 19637
70210 10809 30322
39333 14394 4089
27171 13704 6784
41393 18140 116
8631 32609 2912
64976 20617 29845
43294 13652 9225
35039 21399 35250
15990 14240 14683
20698 16994 34447
66252 19202 32257
63014 210 31409
12093 9847 34282
15225 24562 15797
8489 33424 2923
14879 25011 26744
8160 38926 27905
5651 37217 6664
5694 32304 3801
3312 39115 23656
54200 17231 10101
18507 21923 34628
37960 29172 38365
7841 39626 15270
6912 20658 13657
11424 290 4572
15807 14884 27257
10502 26854 4101
7133 19885 26273
36719 22241 35323
17046 18926 4183
6920 37752 34376
15895 13475 11044
41990 24825 38489
23069 22338 20000
23033 22282 22265
54810 20160 9581
8918 10781 20086
39976 25772 77
36565 22011 5773
14230 21607 32565
66865 20339 5721
41998 25105 35555
36726 15372 446
35721 15005 514
15577 10113 6934
14227 10036 7679
81171 8929 31540
43355 12089 32645
15959 15620 19100
12329 25588 4046
25808 13626 27643
37232 14275 32311
17244 13140 23342
8671 24487 37199
8943 32937 2194
1335 38107 26000
23302 10552 32583
29374 10897 35252
25570 10680 32456
24992 10648 31908
30481 10959 35578
26077 10709 33373
28898 10869 33183
34898 11210 33474
24287 10608 35395
32323 11064 31895
26706 10745 33050
69459 20906 8918
32910 18543 35140
24187 22020 27792
81196 2468 31071
366 39553 16022
9855 18807 15275
19641 25953 37586
19161 14498 4103
38687 22238 8048
15567 21134 23733
5724 32772 15841
3594 39130 12262
26887 29348 2540
1122 37573 18127
11104 13469 9567
65509 210 6073
21454 21899 25447
9926 34020 3015
25508 22217 27098
18772 15086 1518
10283 17402 27830
14672 25489 27748
68895 20459 6351
73933 210 5978
4258 38517 9697
27570 10794 1702
2760 41020 25815
11704 9893 15464
17191 10205 15227
11086 9858 16187
12547 9941 16890
7943 26407 25804
19905 20917 5231
10739 15978 30901
9321 21002 22766
42841 17585 33
23869 29179 2912
38483 21827 35057
32785 18227 37863
61831 20624 29372
43461 17227 28329
8459 20227 36848
30810 21265 3588
4448 28908 16625
14126 24627 7219
68376 21510 22731
15547 20040 12929
14308 25506 8667
6174 28219 4866
23727 21570 7470
9004 29956 980
54310 3398 30771
14269 28997 16068
6439 30174 3192
6614 21891 13147
54151 14397 8181
28943 12573 37458
14852 26609 15855
65423 21252 25380
11745 21885 34373
18415 22235 1135
6666 34419 6163
79940 20499 19281
22799 17749 34538
31424 17133 35070
10730 35827 11227
9382 33576 37298
3808 37695 22296
36002 22707 24475
7046 20208 25904
38432 21359 3262
79061 20270 6257
23028 20259 34782
20010 20933 33186
19455 21718 15902
40360 29624 5
3040 41606 11561
