ply
format ascii 1.0
element vertex 2836
property float x
property float y
property float z
end_header
27715 53352 6166
1768 50770 18580
48187 56657 17032
18315 56794 42221
11886 56794 41980
18458 56794 40212
16631 56794 38078
23268 56794 41930
15626 56794 35663
17024 56794 44192
13426 56794 43293
5926 56794 44686
16382 56794 43754
2151 61866 29221
1023 67718 42248
724 52491 27922
503 52491 11616
2576 36184 44468
2993 63551 17699
3428 44728 1732
48187 56653 9262
3439 64941 23215
1265 53352 31491
3434 59942 11560
45187 54675 45607
22750 55254 45607
21832 55909 45607
13891 55765 45607
2018 1885 4386
2145 28327 4552
44927 48656 42284
5115 22456 3885
4157 65609 3091
16475 53352 12498
36256 53352 5467
2042 3791 4416
2072 13783 4456
47283 44037 41517
4270 63929 42926
6919 18799 7540
2664 57598 10768
38215 54212 46423
15430 54212 46320
2897 50260 41381
2008 55156 34215
3441 70014 25964
3441 70620 20201
33538 19660 15955
35196 19660 14420
17670 50770 2200
47910 50770 32338
3609 11965 1750
46350 50770 2301
1655 59216 41541
24863 50770 41622
4894 28592 42063
44899 44797 42352
44948 27966 42232
47976 45060 42211
1956 56938 1893
42373 18859 38359
861 54988 45301
5057 10515 43597
36810 50770 14385
7952 50770 6364
29772 50770 24728
36764 50770 33055
10538 50770 7579
23598 50770 17013
20006 50770 8962
13344 50770 12974
41599 50770 24811
34389 50770 27339
23472 50770 15583
45653 50770 32780
29099 50770 12188
44280 50770 23796
43247 50770 34241
34367 50770 23215
35461 50770 31861
36493 50770 26335
23692 50770 16418
37979 50770 14121
37598 50770 19963
43880 50770 20875
40108 50770 13108
15486 50770 14909
42730 50770 22218
17569 50770 6945
16412 50770 9349
30979 50770 14762
35529 50770 21340
37216 50770 21637
29034 50770 10394
34806 50770 16909
26328 50770 8659
32770 50770 16391
25604 50770 13895
19047 50770 15853
43671 50770 32115
13276 50770 6217
27213 50770 23460
29757 50770 10541
21255 50770 10645
23469 50770 12665
18192 50770 11545
25302 50770 9007
19853 50770 10536
39537 50770 8404
39519 50770 25356
32602 50770 15242
43099 50770 8401
27342 50770 12665
15362 50770 8749
29061 50770 5439
36211 50770 21516
34060 50770 25452
25958 50770 15403
22499 50770 19103
30420 50770 11362
37561 50770 32482
36267 50770 15852
15717 50770 6074
35877 50770 19240
5636 50770 6643
21143 50770 17050
42588 50770 27375
41097 50770 26121
17500 50770 15857
31994 50770 13687
38788 50770 6433
43709 50770 17845
28308 50770 8770
40134 50770 23054
32887 50770 25816
44193 50770 6899
43921 50770 32713
24393 50770 19768
31692 50770 9541
37958 50770 22120
42555 50770 11278
13480 19116 34538
8149 19137 39420
4300 53135 1395
21203 19472 27465
1753 26831 42882
8395 50770 41363
39309 56794 37020
45343 56794 42332
40937 56794 42264
34917 56794 41300
30182 56794 42762
39993 56794 37071
33590 56794 39801
36288 56794 37410
37487 56794 43513
35069 56794 37878
44858 50770 4912
2934 57651 28380
187 52491 38449
159 52491 18971
46890 18936 41361
46569 4501 41318
2343 73144 15777
26037 18799 24096
9124 56794 5611
4182 29722 4994
5146 31965 42738
5122 19495 4625
28902 19660 26996
28320 19660 26747
14950 55086 861
13774 55569 861
28942 55312 861
8043 55141 861
42619 55335 45607
37112 55024 45607
43189 54766 45607
43649 55483 45607
1880 4222 42346
40275 56794 9753
5162 56304 7134
46137 43543 1765
3377 57695 22927
34542 18878 13600
48037 12540 2775
5103 46624 43486
5032 31922 43658
2551 67250 33994
47679 52491 36498
35733 52491 17426
32337 52491 17224
43860 52491 22718
27308 52491 30277
32782 52491 37592
28844 52491 28156
25504 52491 38876
47884 52491 31559
42773 52491 13661
40479 52491 41589
42380 52491 24161
46781 52491 41685
43706 52491 42892
24690 52491 37769
5688 52491 42466
34800 52491 28418
13749 52491 38204
31448 52491 42890
45995 52491 6491
14907 52491 38817
39446 52491 29202
33979 52491 25321
41736 52491 29059
47305 52491 20270
48869 52491 30320
15516 52491 39360
22200 52491 34063
25165 52491 40137
47863 52491 33040
16248 52491 32095
21225 52491 40455
17553 52491 40436
32527 52491 38617
47804 52491 35116
27454 52491 31394
40310 52491 9548
48349 52491 17242
48679 52491 6595
20473 52491 29069
22643 52491 33032
17954 52491 30453
46834 52491 35867
22899 52491 25850
29304 52491 25002
41481 52491 36079
6914 52491 42851
24410 52491 33060
30910 52491 43200
29258 52491 38623
45433 52491 12543
42539 52491 42929
41464 52491 23331
39551 52491 14202
44069 52491 20634
28839 52491 44521
35241 52491 29129
43487 52491 23701
24930 52491 41428
36218 52491 19195
17244 52491 41202
24690 52491 36070
26337 52491 43466
44864 52491 8699
38113 52491 12057
29803 52491 20591
39383 52491 16584
44301 52491 38775
26266 52491 32475
35881 52491 43322
22036 52491 35471
30159 52491 41907
35358 52491 17732
48992 52491 28308
46523 52491 36859
21598 52491 34625
33725 52491 29331
22355 52491 35062
40684 52491 15790
44393 52491 12082
41772 52491 11376
21213 52491 41233
7378 52491 41505
40489 52491 27569
40889 52491 19677
47773 52491 13455
27656 52491 22275
41138 52491 8858
41355 52491 20933
42290 52491 23338
21089 52491 34963
39940 52491 24072
33518 52491 29764
25168 52491 42438
43388 52491 31484
48560 52491 33610
44404 52491 21883
36652 52491 21864
33455 52491 42767
32940 52491 17454
19873 52491 37805
31807 52491 39718
30794 52491 33324
45388 52491 38882
4067 56528 4067
3061 13913 5119
21403 56794 36550
22080 56794 35475
25275 56794 36617
26595 56794 41083
24777 56794 29337
26609 56794 28178
25712 56794 43735
20715 56794 35445
20611 56794 34482
19432 56794 34960
22325 56794 39253
1858 53599 23693
2697 3706 4985
48042 39625 4098
1758 58306 11375
47433 50770 45584
5583 50770 45549
3441 70444 12596
3441 70284 11260
45784 40217 5007
3318 58746 1976
48079 50770 6594
36998 56794 9720
31188 56794 2075
39943 56794 4476
45638 56794 3300
35977 56794 9503
34765 56794 7252
31761 56794 3892
34326 56794 3881
37262 56794 11266
36973 56794 6500
36142 56794 5362
36237 56794 4780
2190 73144 22728
2073 49672 43991
2015 39500 43916
47141 31461 1875
45292 32763 44275
32323 50770 44935
39064 50770 45182
2028 45604 43932
20081 19660 28421
41057 19478 7633
44961 23416 43850
44879 17060 43653
444 56125 44662
19743 19617 19287
46112 48032 44700
1007 72546 2815
0 54160 20284
0 56341 40394
0 54895 36148
0 52532 12973
0 52712 9210
0 53646 28537
0 53281 29642
0 55848 42452
0 53794 22700
4992 37730 42236
2210 57439 22464
3189 37665 41310
3128 32015 41318
47360 52491 17264
33346 52491 37750
39004 52491 38921
34898 52491 35530
37699 52491 35302
43186 52491 36178
34627 52491 24389
47936 52491 19950
39679 52491 12541
22717 52491 26831
34714 52491 23833
41257 52491 39697
43440 52491 17912
36053 52491 31080
46127 52491 43472
11123 52491 42809
29041 52491 35961
34676 52491 36410
36799 52491 23926
41046 52491 41461
48582 52491 18684
21886 52491 39615
21024 52491 42090
35635 52491 37503
45381 52491 11513
46180 52491 40014
21298 52491 34145
32672 52491 21685
37932 52491 32488
24128 52491 32044
26708 52491 41510
19729 52491 34229
22531 52491 43997
26154 52491 32933
29591 52491 40155
39182 52491 32429
41333 52491 16887
48601 52491 34194
14431 52491 38008
24710 52491 43308
37481 52491 13224
22295 52491 30381
12161 52491 36803
18515 52491 43073
40721 52491 11104
31297 52491 42224
31113 52491 30986
42060 52491 12112
36952 52491 22654
18700 52491 31216
47127 52491 41342
25998 52491 25815
21742 52491 41539
25418 52491 43714
40733 52491 23864
37467 52491 31552
45457 52491 30188
34845 52491 15490
36877 52491 25035
36504 52491 28495
13167 52491 38992
43730 52491 24221
31461 52491 26053
29696 52491 27576
20444 52491 37765
45903 52491 19900
32631 52491 23139
37415 52491 30045
48354 52491 26764
38887 52491 19699
32207 52491 42645
44902 52491 33479
19215 52491 40247
13511 52491 35424
19297 52491 37158
44698 52491 30099
37883 52491 26634
42834 52491 28758
23898 52491 27940
35538 52491 23253
48734 52491 2088
29761 52491 34839
45211 52491 20051
40265 52491 37831
16959 52491 33207
37166 52491 34675
15930 52491 41808
44634 52491 17785
44176 52491 11586
35532 52491 33674
48920 52491 3783
27490 52491 43573
34348 52491 25098
37575 52491 24637
19967 52491 30496
40799 52491 35168
20437 52491 32636
27429 52491 40874
46854 52491 8369
24318 52491 35289
46961 22489 41384
1043 53352 29013
1280 53352 40905
47453 37311 4836
2549 69701 13129
4482 28076 4809
46086 14138 44696
3986 22914 1824
3925 17537 1800
9024 19063 36970
2842 41127 44586
2954 48632 44633
2561 1111 41534
20718 53352 12989
18854 53352 12508
12158 53352 17736
11583 53352 16432
3111 53352 21030
17362 53352 14737
9504 53352 16352
21845 53352 13032
7202 53352 17616
33510 53352 7899
9681 53352 18785
33619 56794 8257
48440 50770 15058
45466 55933 1140
31098 51227 45607
8833 52104 45607
6128 51840 45607
26995 50863 45607
5136 55933 7586
2938 20724 1815
29162 56794 23750
46419 28306 44740
45709 251 4976
2399 55755 34014
32301 52491 5710
11999 52491 17261
18620 52491 15248
5799 52491 7800
19656 52491 22783
18313 52491 25921
22252 52491 7870
9324 52491 34861
30993 52491 6660
39917 52491 3400
30153 52491 14492
9013 52491 24206
14434 52491 32395
9324 52491 18981
12591 52491 12337
14339 52491 17887
35456 52491 5399
9521 52491 38116
38656 52491 5648
41712 52491 3186
38206 52491 6256
4844 52491 28656
28716 52491 2046
7473 52491 10880
22711 52491 23715
22027 52491 13959
27592 52491 19530
8278 52491 7634
7546 52491 36593
32259 52491 2016
40976 52491 5986
18767 52491 17802
8636 52491 6045
14007 52491 7714
29404 52491 13669
11003 52491 19869
11241 52491 6537
14758 52491 11177
28605 52491 7702
20917 52491 25465
4772 52491 39248
17570 52491 5730
37978 52491 1883
28328 52491 10579
20095 52491 25864
18775 52491 20498
11830 52491 8635
28937 52491 6688
9484 52491 22837
14188 52491 3414
19105 52491 20211
35256 52491 10736
22895 52491 18125
5781 52491 26373
32611 52491 2668
10687 52491 33357
12861 52491 13441
10736 52491 14833
22484 52491 10879
7815 52491 34904
14285 52491 31625
6267 52491 14442
29941 52491 18401
8574 52491 18693
12352 52491 12715
15434 52491 31941
28596 52491 15244
6246 52491 5746
22225 52491 16685
18630 52491 4352
19756 52491 24609
23002 52491 18989
28180 52491 8953
5840 52491 28295
10239 52491 15495
25586 52491 11484
16647 52491 4401
15273 52491 5435
15652 52491 3503
22494 52491 7306
10304 52491 26026
12964 52491 34219
7984 52491 23229
22610 52491 11916
11655 52491 7377
8344 52491 16035
4430 52491 12301
15255 52491 14561
1739 42594 3516
36263 19660 33756
44821 53352 1182
48684 55933 13533
3441 72228 4688
44947 16903 4233
46139 22386 1765
25721 50770 42592
14624 50770 42718
3441 70734 4073
30729 19660 29221
19307 56794 9127
5162 56040 17949
44811 46136 42563
4254 67741 42804
4300 53908 18094
4300 53985 3641
4302 55342 10672
4300 54913 2310
4302 54770 30512
4300 53492 1866
35017 19537 14814
37636 19509 12415
44785 5913 3744
3595 22594 5152
20505 19540 19985
44839 46849 43554
2287 69701 31262
45510 4058 41608
17925 53352 4169
29194 53352 4189
10321 53352 7069
39622 53352 2213
5734 53352 5204
17367 53352 6131
18765 53352 4858
11063 53352 5354
16361 53352 4211
26118 53352 5106
20250 53352 5168
13764 53352 5242
17754 53352 7306
45798 18485 44596
27288 56364 23609
4300 52611 1372
10426 19660 36708
26872 50770 1769
2159 53352 14312
44890 3485 2789
2590 67766 28380
1676 71038 3779
33849 50770 42402
17195 53352 24320
4009 17222 5065
17614 56794 31992
47520 30549 44368
47655 46172 44264
44770 1865 43210
4027 53352 16854
19868 53352 11222
1981 10818 42119
5178 38047 43015
28631 53352 20915
33594 53352 15419
18817 53352 28992
15072 53352 33228
12663 53352 35013
37685 53352 11674
9676 53352 39275
25706 56638 44747
19382 50770 5124
49908 53567 41985
49908 54072 39312
49908 54146 2660
44834 35128 2926
862 66168 43183
45550 14255 1995
48063 38282 42421
48043 33210 42374
4863 55933 24930
2773 71697 3442
2007 35403 4371
44794 46886 3812
46003 33733 41371
45921 24932 41405
34817 50770 4977
34206 19660 14432
26611 19660 20973
1128 60382 4321
5030 31764 4097
5055 43493 4036
3482 26400 5167
45022 187 4363
36587 56776 12603
1785 21513 42630
19214 56794 13176
21093 56794 14337
18564 56794 12999
21267 56794 15676
24697 56794 10624
23200 56794 6139
25842 56794 4228
20287 56794 15382
24846 56794 16266
20710 56794 10106
21042 56794 13494
861 55015 43183
14024 53352 9035
49241 54212 32601
49051 54212 33584
36959 57224 34445
4954 47490 43844
21494 50770 41249
20157 50770 29327
15123 50770 39575
10273 50770 21633
11627 50770 37712
14453 50770 37182
40894 50770 37291
18277 50770 39265
22858 50770 28036
29472 50770 38991
2485 50770 12308
13050 50770 33679
39786 50770 40693
36612 50770 40916
37508 50770 35006
21483 50770 22591
43911 50770 40248
7928 50770 35446
14089 50770 19917
11464 50770 14888
21740 50770 31176
3582 50770 31091
4572 50770 22305
2783 50770 6663
17651 50770 21086
20474 50770 28772
6500 50770 16563
6752 50770 8415
22057 50770 41211
25270 50770 35390
25761 50770 34737
39062 50770 35622
3678 50770 13186
19172 50770 36959
38935 50770 40475
33749 50770 38578
15246 50770 33746
16498 50770 40574
5674 50770 25418
8658 50770 25852
28781 50770 38692
27285 50770 41004
2843 50770 25487
23487 50770 39321
19523 50770 21872
13945 50770 30298
8257 50770 33863
8398 50770 31637
29151 50770 33608
14783 50770 36391
10381 50770 12687
3080 50770 28539
3544 50770 32316
10704 50770 38555
12137 50770 40133
24263 50770 26376
4452 50770 33865
18176 50770 40984
13177 50770 32570
7278 50770 35903
3796 50770 13687
20103 50770 19563
10988 50770 23238
35186 50770 39630
32210 50770 29946
13757 50770 38570
7122 50770 31755
12789 50770 39831
8761 50770 13824
4353 50770 19528
34216 50770 33668
5209 50770 40040
16985 50770 18228
18794 50770 28187
13272 50770 16470
2604 50770 18228
18991 50770 19284
5711 50770 19504
7808 50770 31298
11899 50770 14009
11943 50770 40904
7322 50770 11071
12836 50770 35965
41923 50770 39036
2437 27097 2077
861 53102 15013
862 52739 20436
13787 55933 44982
21923 55933 44949
2103 51463 861
49048 53161 11691
3208 30184 41307
3387 59263 41494
23658 53352 1880
2383 0 43013
47046 2574 5049
45138 49158 41954
2018 14626 42070
2065 27596 42008
3060 21601 44664
30361 56392 44747
36400 50770 2352
20399 18892 18203
21388 50770 4214
3225 70430 3442
3061 62406 35557
3063 33534 44664
860 54678 1280
5118 40625 3860
48661 55933 9483
5162 55975 12281
2327 67487 1802
5168 47504 3424
1771 18049 42745
40179 56794 30837
2700 58964 41296
26934 56794 43780
29777 56794 35872
27579 56794 43226
30139 56794 39628
29389 56794 31489
27346 56794 37539
27885 56794 29121
27242 56794 35797
29337 56794 33576
30369 56794 40472
30795 56794 39974
1765 25149 3714
1740 59518 34701
2297 60865 34045
46121 31400 41350
46072 21117 41357
44962 1 42272
0 54291 4508
0 56707 31035
0 53951 15449
0 55501 19687
0 55698 30753
0 56722 10827
0 52937 4357
0 55845 6288
0 56670 6015
0 54359 7528
4302 53448 43286
4302 53397 35316
46547 20380 44736
16828 50770 1957
9926 55933 1154
15924 55933 986
45562 11060 4899
2589 73144 13479
5137 18585 43323
47739 31456 2298
2345 50770 31186
3253 43557 44689
3106 44272 44670
48813 55933 5797
46594 25553 5147
2185 55404 1821
4129 7611 5016
45403 1 2905
5704 53352 27624
7391 53352 28046
12382 53352 25390
21834 53352 19695
34905 53352 10626
10126 53352 27609
3336 53352 32272
27096 53352 16253
30407 53352 12795
28805 53352 14291
4927 50770 1458
7082 50770 1369
17527 50770 1271
14512 19660 32104
48164 41697 3619
48159 27355 3661
48638 55933 42911
48493 55933 29527
642 55165 1677
3900 44792 1789
5161 20768 3533
2470 54560 10771
43311 56794 6608
4200 18560 1914
45902 56159 1721
4103 45811 41415
13519 53352 34322
11863 53352 37939
29035 53352 19696
13938 53352 34800
22393 53352 25635
8287 53352 38760
32997 53352 16015
47593 1593 4729
47514 9329 4789
48173 40761 3549
48178 50739 3511
43428 56794 17553
46958 56794 14028
39525 56794 14527
44971 56794 8349
46174 56794 20745
43216 56794 14634
42579 56794 11796
47661 56794 8108
46457 56794 14196
43132 56794 15214
47658 56794 8668
39334 56794 17923
40107 56794 16197
40215 56794 22830
31577 56794 19614
42251 56794 19676
39815 56794 16950
32441 56794 18556
40529 56794 21240
42543 56794 17830
43675 56794 19682
3011 61240 29068
44837 26070 3967
47183 24911 44576
1846 55253 11174
5162 56459 33133
1769 70111 44518
41446 54212 45664
19312 54212 46105
2426 63141 24074
5162 46988 3376
4228 56976 42604
47814 37956 41980
18733 19660 29396
28214 53352 10926
5161 15856 42848
23840 19660 24408
11941 19660 34672
4754 35854 41881
44792 3402 42673
4122 53460 2951
3369 73144 17896
19279 51951 45607
48634 52486 45607
23052 51915 45607
16283 52326 45607
2273 56562 41315
15143 53352 18167
4773 53352 25421
4061 53352 25888
20336 53352 17208
10892 53352 22689
6459 53352 25163
8272 53352 24474
12479 53352 21806
22080 53352 14762
47999 50770 42757
21322 19660 19186
3038 66900 43025
10741 53352 18811
10423 52623 0
32377 53378 0
36048 52698 0
35230 53622 0
4177 69028 43551
2525 64140 17699
5162 56597 11035
2784 15993 5020
49908 52904 8328
49908 52941 1723
49908 53403 441
49908 53760 7657
36830 56364 12967
10468 53352 3517
47898 24774 2505
15755 56794 15641
14942 56794 22373
21346 56794 20706
12195 56794 22722
10372 56794 18030
19097 56794 21152
11798 56794 18251
13508 56794 17252
24623 56794 22752
19335 56794 22522
11664 56794 20136
46095 13589 41354
20055 53352 22675
2074 59023 43025
44938 37372 4210
3453 64126 41534
4146 29920 44558
3441 69040 41554
4769 24098 41902
4922 14252 42099
3441 72898 11787
3441 71433 26187
3441 71854 21639
3441 72524 14209
3441 72808 27333
3441 71840 26791
32724 19660 16763
1754 38530 43115
2517 56537 1777
47996 17125 43791
3159 66505 41400
2445 1977 44369
2270 56120 44681
2151 53826 28409
1535 53352 18553
3955 54267 4307
2489 29240 2038
18139 50770 2140
2447 24807 4831
5121 2615 3062
37711 53352 1611
12932 50770 1739
3011 66315 17280
23076 50770 3680
29230 19416 26303
2720 6144 1905
3283 73144 20872
3406 56720 34613
20443 18799 27395
48177 47460 42945
1698 53352 41405
46606 11600 5145
34713 53352 4168
3274 11401 5147
3423 12436 5167
3441 70861 19344
3441 71223 21290
3441 70416 20924
2488 43705 2038
46450 26027 5161
3009 58376 29241
44782 34619 3716
42742 53352 5088
23029 53352 17237
22574 53352 19311
5349 53352 32000
14591 53352 24045
4338 53352 29274
6066 53352 28052
3866 53352 30892
25511 53352 15894
7400 53352 29649
2781 59999 22400
46367 22166 41318
28443 52491 1220
18145 52491 947
2151 57083 17120
45224 37035 41841
40948 56794 29913
26031 54676 45607
13768 55088 45607
12962 54491 45607
5948 54885 45607
3006 54881 29241
5474 56794 23553
36105 56794 43663
44460 56794 41820
38018 56794 39917
42304 56794 42167
31651 56794 44050
32726 56794 42710
42931 56794 41486
37467 56794 39599
35965 56794 41946
40847 56794 43737
30986 56794 43524
37830 56794 38288
20744 53352 17552
6491 50770 1729
8818 52491 427
13319 52491 585
30709 50770 45354
11866 50770 45227
46498 1 3036
29275 50770 44037
48078 19742 2875
2122 67634 41335
3705 49769 44684
3597 3751 44698
40027 56794 7629
44635 56794 4732
37945 56794 5651
35460 56794 6898
28516 56794 1991
32128 56794 4510
35626 56794 2938
45385 56794 3835
41114 56794 3808
36220 56794 1805
1630 53107 45607
3609 14016 41294
3383 60426 11326
35822 52034 861
25945 52197 861
25282 51967 861
21861 51900 861
2639 62867 41288
47638 40908 44277
47671 1973 44252
45383 27722 2123
3186 30025 1764
19464 50770 42169
1999 62722 22605
1929 50645 42232
47113 50770 5503
3347 54391 44519
22020 53352 22954
27626 53352 19317
18841 53352 27080
3283 53352 36180
17401 53352 27738
8658 53352 35854
15061 53352 26654
22429 53352 23760
18083 53352 27410
20189 53352 25539
8718 53352 34947
3834 59697 41857
28802 53675 46468
27235 53906 46468
45179 54112 46468
24392 54208 46468
49666 53607 46468
2315 50770 37726
5485 52898 861
23571 52934 861
19578 52491 45615
42610 52491 45729
6328 50770 3975
40078 50770 4477
2210 69701 37226
32028 52491 476
24220 52491 126
44781 50318 42754
42963 18799 6529
31784 18799 16230
48160 35995 42821
38033 56794 11514
39663 56794 30282
47790 56794 23431
32552 56794 24199
35223 56794 28764
33417 56794 27318
38114 56794 24516
32490 56794 26360
37538 56794 26525
34162 56794 24278
46172 56794 24909
5044 3219 2836
5038 4223 2824
24085 52491 1376
6111 52491 2974
3325 39795 44699
884 58983 3554
45913 41632 44643
6597 53352 31343
2756 69701 38692
861 54996 32424
861 55192 28053
861 54809 35018
861 55358 24831
861 56552 13756
861 56763 18027
862 53880 39686
22709 56794 5432
48187 56317 41214
49048 50777 31762
49048 51682 7490
49048 52278 864
49048 50782 30604
19925 19068 28635
22799 18874 26003
15018 18832 33129
15151 18799 13723
8266 18799 7692
2368 63401 34018
4905 1057 2542
5136 6138 3177
4184 73135 3594
33995 18799 15742
30967 18799 18488
47393 15145 44465
3712 0 42206
49048 54506 2224
49048 54226 35222
49048 54929 9358
49048 55197 6750
2703 53352 2725
11252 50770 3260
4472 36461 4817
17295 18980 29395
7420 56794 7036
5640 56794 9804
8252 56794 13096
12404 56794 11881
12694 56794 10838
8757 56794 12171
13329 56794 13183
8778 56794 6402
13651 56794 13998
5195 56794 2748
5373 56794 3915
10977 56794 11343
2567 12123 4923
25318 50770 42408
47864 28078 44007
47953 30509 43892
2728 55602 17699
19919 53352 15391
12689 53352 33059
3434 60731 11676
5104 14413 42506
5049 27062 42376
47293 33250 4947
2159 20740 44104
31391 52491 45948
49698 52491 46074
44845 44187 3986
44825 11586 3939
47712 10720 41846
24218 56794 24053
14738 56794 31706
6545 56794 23599
15350 56794 24899
19463 56794 27544
17994 56794 27033
16772 56794 29819
14876 56794 24077
20759 56794 24931
8367 56794 23427
9909 56794 25051
1854 8526 2847
1795 5351 2990
24283 53352 22464
46599 50503 41322
46486 23074 41307
2754 70847 5080
2151 73144 21948
14708 56794 35627
862 50792 13485
862 51154 14421
862 51963 39229
11052 56794 38915
44964 10832 2611
1985 66474 41389
3427 73144 34145
39762 56794 10474
0 53987 29130
0 52774 26648
0 55294 37044
0 53277 14775
0 54006 38315
0 53172 30429
0 54688 43449
0 52866 17334
0 55767 44032
45018 18581 2528
1797 67466 11953
16121 53352 29487
47910 55933 939
49208 54212 14030
49137 54212 15134
4955 50770 3900
1796 2044 43433
3497 71078 2096
35213 52829 861
47039 53170 861
39930 56763 1721
860 51111 2859
46115 19872 44700
18597 55933 45582
24994 55933 45606
2042 45212 42039
2224 50770 2689
45744 2529 41478
3441 70170 34609
3441 69765 40588
20348 54830 45607
20592 54214 45607
37878 57224 12464
20436 53660 0
11918 53197 0
27260 53592 0
15508 53423 0
2151 64975 17045
1355 50770 20590
46514 56508 1721
10806 18799 35621
4602 6205 2182
3773 29206 44675
3764 31148 44676
3415 62345 35053
1740 62754 11776
6733 52719 46468
29602 52941 46468
24123 52794 46468
38235 52523 46468
2384 69701 19124
5022 11851 4114
46821 50770 22053
44773 39512 43234
44747 15050 43037
4760 15655 44103
47895 50770 4974
45053 23888 43987
862 52483 17920
862 51823 17196
862 52160 21141
2719 48472 41455
2818 35590 41414
968 64929 3973
15594 52754 45607
16299 53078 45607
8828 53352 14660
3777 69143 44213
2118 16047 2384
2079 1640 2434
2174 59359 10862
2907 28831 41377
46964 11929 5083
11235 53352 10252
45517 15911 2020
3018 50770 40408
1778 42377 42690
47027 50770 35403
21638 56794 21491
16650 56794 18250
15403 56794 20646
12589 56794 21573
17461 56794 19002
11238 56794 21021
9256 56794 19737
7675 56794 21220
2308 39402 4724
20154 50770 5148
6589 56794 5956
8636 56794 11205
10678 56794 17193
7941 56794 16327
8349 56794 20008
6338 56794 12772
10908 56794 12977
9356 56794 18971
10425 56794 9294
7214 56794 19277
40352 52437 45607
26878 52097 45607
45154 51137 45607
2532 73144 18415
44359 56794 34115
40716 56794 34409
47458 56794 25752
39450 56794 34019
41028 56794 33782
46938 56794 38108
47727 56794 36652
45301 56794 37973
39869 56794 34292
42536 56794 30892
43304 56794 37234
44904 56794 39247
49869 54212 42438
8102 50770 43782
47860 39302 4429
1779 16490 43306
3440 68432 34860
21680 50770 44847
42530 18799 40156
47587 28082 2151
46284 22854 5139
1253 50770 38835
1244 50770 24616
3857 1286 44664
15385 56794 32952
3686 50770 10664
6445 50770 15652
30221 50770 38894
10646 50770 29167
27714 50770 27697
33428 50770 36814
34302 50770 36723
7063 50770 34425
15510 50770 40566
23369 50770 28501
11514 50770 38378
4457 50770 12416
13594 50770 21237
11649 50770 34574
20257 50770 31265
32965 50770 33064
7769 50770 20136
13536 50770 17303
40771 50770 40595
4794 50770 32968
1208 50770 7016
8944 50770 32328
18020 50770 25516
44872 50770 41229
5379 50770 8414
14431 50770 25539
19593 50770 29197
16117 50770 19662
20396 50770 40683
3165 50770 22220
12826 50770 18601
15380 50770 24076
10594 50770 27529
6196 50770 17387
12691 50770 27014
18621 50770 23357
4730 50770 23986
21863 50770 35422
8962 50770 39074
29836 50770 32515
42878 50770 39134
23074 50770 36473
9177 50770 40719
37944 50770 37022
11014 50770 25231
4105 50770 17407
10038 50770 40009
6336 50770 34834
18948 50770 32583
31905 50770 38551
18274 50770 22591
4727 50770 31705
4263 50770 30415
20085 50770 20942
11374 50770 27021
7092 50770 29204
45202 50770 40777
13866 50770 22406
14974 50770 34547
10967 50770 37539
24032 50770 34637
2974 50770 11535
30973 50770 38075
29012 50770 37873
18406 50770 38721
5055 50770 18553
12108 50770 22336
6750 50770 13359
21994 50770 32050
28918 50770 26883
37527 50770 37469
16441 50770 23109
15638 50770 21663
8669 50770 26464
17115 50770 32790
33728 50770 30836
49048 52608 11791
49048 52618 17048
21765 54077 46468
24486 53515 46468
46500 53070 46468
15447 56803 11764
30960 53352 14185
2992 24775 41342
16132 57224 12638
32328 53162 861
25448 53041 861
47172 10423 41471
47014 31253 44646
2751 70113 44694
38198 50770 2796
3225 68993 34291
2693 68808 12463
5643 52248 861
30607 51865 861
15365 52298 861
9553 51445 861
45834 30052 41441
35959 50770 2500
3780 36547 41316
886 66629 43364
2293 33829 44251
34444 18973 32750
46589 12772 1738
46744 124 1758
4175 59715 3227
47836 2068 4460
44940 25470 43799
2862 18239 5052
3441 71143 42086
1676 70856 41651
14831 56794 11393
33289 53645 0
18097 53963 0
5809 52803 0
34878 53878 0
22597 56475 1721
4442 1082 44392
1879 73144 32151
4302 54739 34640
4302 55801 18621
4302 55761 9298
4302 55490 23885
1307 61392 2329
4302 53527 24990
4302 53697 44766
2020 73144 34198
7425 19660 39877
4451 14946 2066
550 55672 44662
48187 56596 5568
1859 59666 11156
4829 4888 4456
47973 27706 2621
3841 53352 41900
24542 53352 23365
13891 53352 33289
18215 53352 29109
34519 50770 44406
3349 47260 5157
3284 39855 5149
44797 14590 43415
16732 52491 1046
26437 52491 1213
1285 53908 44142
47453 3138 4836
28041 19660 26302
27787 19660 25951
1909 53352 31164
5110 23660 2998
46263 5762 1748
39310 50770 43273
37341 56364 12689
1790 28275 3001
47362 50770 17477
4493 44422 44353
2076 50770 34409
45543 34965 41583
48039 43618 43687
2734 1 4799
21752 52491 44481
11134 52491 44415
11739 52491 44344
8979 52491 45077
12301 52491 45543
3227 70770 44568
19704 18799 18808
24036 18799 22925
1412 60471 44269
34734 56794 16887
36457 56794 20934
35466 56794 17000
33481 56794 18192
38679 56794 16421
32228 56794 19514
37093 56794 14949
34531 56794 20785
32594 56794 22114
991 51812 45607
48103 12710 43534
49048 55288 27690
49048 55593 16072
49048 55405 19357
49048 55791 25520
48432 50770 29557
2340 67232 43025
1737 10612 3397
26586 56794 23996
13897 52491 1824
21534 52491 1609
26631 52491 1844
4455 8666 44382
45615 4777 41531
45704 16062 41495
620 53526 45344
4930 28913 43881
48088 37100 43571
44821 41339 42541
46216 11852 1754
46450 46731 1724
47173 18340 44580
1676 70104 41167
1676 71834 40306
1676 69784 8320
1676 69885 12292
1676 71795 28174
1676 70521 20341
1676 69858 37270
2490 64518 12466
2657 53352 42417
9707 54806 861
36062 55592 861
36583 55794 861
1757 16137 3658
47708 33136 4627
4579 1 2873
47060 46584 1841
10297 53352 28590
46022 49847 5105
8948 50770 44679
9511 52879 46468
33929 52546 46468
7287 53035 46468
4883 33678 2514
4871 20026 2498
1828 31668 43517
2656 21077 1932
1712 69701 32584
48161 26786 43228
49048 55799 39934
49048 55925 13907
49048 55837 41604
3920 65941 2530
1676 64127 41708
3170 70217 4968
45716 46372 44561
23938 50770 2898
2403 67567 44699
1839 42826 4018
868 66718 42768
45190 30511 2302
6328 56794 24534
49048 52834 40339
1699 66428 4882
2775 73144 22333
2775 66961 1806
2638 37750 1940
13622 19660 13250
24157 19660 22967
13148 56216 44747
3961 15350 41356
3968 26050 41359
2526 63312 16839
49048 52206 34791
49048 51235 40963
49048 51703 42372
49048 51524 44958
45115 22349 4484
45455 9397 44400
45399 23709 44358
26225 52491 44979
5954 52491 45012
16234 52491 44278
41443 52491 45361
25352 52491 45406
31624 56794 6630
4613 37104 41730
1953 60769 22650
1992 69701 41489
48182 38301 3487
4168 16956 41442
45154 9193 44119
45085 18209 44028
1085 54655 2625
49048 55163 14749
49048 54444 5712
49048 54573 10751
17311 50770 2699
45382 14382 4761
9684 56794 40562
13161 53003 45607
33099 53166 45607
14911 19528 13170
47293 13097 1938
2545 68050 12473
49048 53074 4263
1890 30329 4144
49682 54212 18981
49648 54212 18374
45161 34210 2341
45033 10191 43961
3011 58307 17028
45510 42026 44442
45334 49926 44307
45712 46629 1908
1154 73144 3540
4471 26561 2082
2554 18493 44451
22141 53352 6819
3332 69701 37462
5055 19070 43602
3187 22020 1763
1412 50770 44044
3441 71180 8595
4994 30632 2716
1939 770 43783
48136 2900 43417
2251 27380 4680
2579 534 4932
1918 7751 43733
46633 50770 7198
49048 52115 24945
49048 52062 44322
49048 51502 41882
49048 51354 32643
1865 21133 42383
1757 58156 11859
2590 18860 41511
2430 17790 41634
2454 73144 41413
45075 29905 42036
48045 33949 2795
48045 30741 2794
1385 69845 4643
2559 62488 5106
23472 54721 861
24815 54295 861
39478 54877 861
46168 54538 861
29719 19584 26752
27614 53352 1673
3789 62567 4524
3441 73129 15270
3441 70902 34705
3441 71318 36991
3441 71749 28414
3441 72297 35346
3441 72892 32712
47432 14040 44436
47550 8093 44344
36287 52672 45607
22628 52740 45607
7296 19660 7725
21900 19660 20265
24853 54212 45965
12015 54212 45957
2182 53730 5062
1605 71767 2073
9947 53352 13284
11852 53352 12421
28743 53352 7769
7994 53352 11287
29619 53352 6072
35926 53352 4693
19373 53352 9385
18217 53352 9199
10743 53352 11232
26499 53352 8443
1778 68883 11326
29561 50770 4055
1676 57412 43003
3288 67437 41454
2385 69701 7268
1809 69590 23601
48101 34078 42513
15583 53352 9056
2515 64485 29241
38635 53352 10306
19927 53352 27060
7700 53352 38988
14736 19083 14701
7737 19269 8291
862 52828 43766
862 53223 42947
2933 73144 37521
2179 61810 43025
5097 48623 2964
1676 63550 41938
2435 39828 2078
2301 53352 37050
47762 11043 4556
48165 1965 42859
48148 15957 42729
47551 33364 41707
1676 71874 23239
1676 72105 19720
1676 71495 23450
1676 73072 40505
1676 70795 12812
1676 72549 24010
12944 50770 41463
44735 56794 26111
32473 56794 28550
30696 56794 26397
36496 56794 27507
37314 56794 31668
35534 56794 26924
41736 56794 28768
38900 56794 24620
38970 56794 23796
7694 19120 6550
9044 19473 7788
25220 50770 4643
4453 55933 42404
2409 54122 16839
16651 53352 7602
14206 53352 6746
8348 53352 4890
14331 53352 7589
12803 53352 5093
37958 53352 3214
3455 53352 6823
41628 53352 2253
27638 53352 5137
15656 53352 6666
5354 53352 7734
10638 53352 6358
5164 53352 8757
4018 52645 861
3441 62535 42806
45182 7491 41897
4009 0 44163
45318 37169 4712
30544 52786 861
1987 67327 23854
3199 65966 11021
1775 42764 3106
11629 54212 46407
36540 54212 46371
45432 19747 41668
33607 56794 23752
10543 53352 24170
13340 53352 22355
4269 43191 41484
4294 29400 41494
34892 56794 15945
9291 53352 30344
19349 56794 40506
17829 56794 36034
21961 56794 42782
12874 56794 41177
21476 56794 44398
12263 56794 42649
25315 56794 44194
13525 56794 39168
15135 56794 40945
11722 56794 42862
20285 56794 40543
1930 41838 42227
1804 41115 43458
4198 54575 3484
4213 47884 4981
4448 14722 41603
4515 1820 41655
48141 12276 42675
3459 1448 41274
3203 71929 44578
5131 8322 3757
3086 73144 4241
4472 25186 41622
3935 67678 41990
27975 53352 7391
28313 53352 7707
11228 53352 11636
3504 53352 15275
16454 53352 11675
7241 53352 12721
20675 53352 8856
6767 53352 12882
6193 53352 12330
5299 19641 41957
12549 18799 35051
27769 55933 45106
24612 55933 44927
9651 18799 37923
9974 18799 36900
37009 50770 1905
862 51621 5743
862 52324 19568
862 52021 9563
862 51441 4180
43640 19394 6916
9990 53352 21276
12256 53352 20661
26021 53352 12831
21175 53352 15612
9262 53352 24064
7161 53352 25343
35796 53352 7783
7420 53352 23346
861 56215 44216
48033 50770 19726
44799 33655 3037
4843 39817 2460
4233 66421 42643
3367 27313 41286
3289 29039 41297
4722 22967 4596
40661 53352 4299
4586 53352 20387
10986 53352 17254
4446 53352 19969
8307 53352 18451
7106 53352 19606
31771 53352 7390
22579 53352 12579
34868 53352 7064
17211 53352 15387
10930 53352 18407
1376 55904 41755
5155 42072 43189
28428 54212 471
17164 54212 725
48232 50770 9978
44785 6590 3141
44768 12342 3272
1672 62923 2022
40248 56794 10635
44470 56794 14844
42005 56794 16533
38816 56794 13552
47638 56794 15680
46463 56794 15769
44601 56794 15844
47872 56794 12769
43850 56794 12015
44944 56794 13223
40194 56794 13199
46383 56794 5367
47523 34224 2103
2725 53352 29384
7316 50770 8341
5444 53352 21537
10744 19481 35395
24749 51503 861
43816 52197 861
36004 50850 861
48785 51639 861
35318 51495 861
5135 19165 42650
2569 53352 43460
5737 18799 6128
1785 16698 3025
3228 5491 1758
1938 68013 12181
48694 50770 39639
44792 24474 3798
2729 59097 28380
860 55351 2180
3150 55296 4976
4225 47771 44525
2619 64023 43025
4147 63901 43623
3211 16632 41307
2015 8016 2518
2064 21325 2455
42877 18973 40473
2324 16642 41715
1550 64432 44375
45645 19300 1936
15719 56364 11772
4904 33442 4359
4080 67528 2850
31351 18799 29403
2348 61259 41305
590 56794 19306
3025 64302 34116
10288 50770 44643
44794 38858 3070
36063 53352 8832
4224 53352 27724
46743 21299 44710
46678 35464 44719
1669 70449 4860
48018 21367 42312
3441 71871 7364
3441 71792 10637
49701 52491 976
39144 53352 1153
46111 39228 5117
3245 58180 35387
28642 53352 17484
24539 53352 20176
25402 53352 19838
16919 53352 27999
28051 53352 16741
27012 53352 17918
13219 53352 31752
27413 53352 18521
14786 53352 28202
23084 53352 21853
31576 53352 15194
23820 53352 20390
0 54992 16002
0 55564 22562
0 56488 4620
0 56752 36108
0 54808 17922
0 55057 5816
0 55591 28478
0 54882 24853
0 55573 27484
15251 50770 41960
40065 18799 36415
2463 72568 1784
34055 18799 32179
15117 50770 42768
18472 50770 4138
5064 13303 42410
4950 46837 42135
44772 4166 3239
46817 43652 1768
4254 60441 43190
861 56179 8277
861 53893 5755
861 54606 26195
861 55714 5380
861 54139 13802
861 53482 26068
861 53630 8694
3195 57020 4958
1988 60122 5004
45774 18807 1882
48355 50770 28745
48167 30035 3285
2220 59024 35625
1885 33282 4131
3625 63537 41667
44987 31371 4318
12066 50770 43453
1018 61230 2790
4097 20381 44578
16997 56794 12777
25524 56794 12855
25507 56794 8983
21819 56794 17808
20462 56794 14185
25339 56794 18504
23666 56794 8913
25147 56794 10011
20221 56794 9589
24415 18799 23511
1238 57460 4465
3441 70219 10480
3875 61039 4412
860 55254 1220
47654 7733 41786
2602 73144 34798
1319 63462 2313
4801 26183 44050
4856 26947 43978
48875 50770 18964
32436 52491 46225
11088 52491 46186
3441 70154 32747
925 68548 3872
46323 235 41324
6732 56041 1721
3406 65527 11855
2151 60632 28592
45391 21560 41700
25264 56794 42121
22981 56794 32747
26551 56794 25492
24986 56794 39202
23373 56794 34357
23260 56794 38069
22151 56794 33586
21121 56794 33350
18057 56794 35377
25507 56794 41384
19218 56794 32655
21629 53352 3207
47904 29891 2513
26268 52648 45607
35559 52928 45607
4998 26204 4174
3422 59167 23087
398 56794 43616
107 56794 39519
3660 50666 1756
48140 56794 30385
47402 56794 30891
47253 56794 43350
45072 56794 39731
42926 56794 30501
45261 56794 36432
44476 56794 38828
45986 56794 32035
42336 56794 34391
41379 56794 35435
43000 56794 32063
47299 56794 28063
43300 19562 39210
26123 19650 23453
15347 56794 8838
21617 56794 2653
12474 56794 7582
16820 56794 8313
19697 56794 7806
10719 56794 3700
17408 56794 6100
17647 56794 6939
8024 56794 2859
18773 56794 1968
2644 60780 41289
6474 54212 289
5255 54212 672
49908 52999 22278
49908 53574 12594
49908 52795 6474
49908 53162 24711
47053 49675 44629
34421 53352 956
9103 53352 877
30791 56794 23284
44857 19761 43598
2165 73144 31316
45473 275 41637
2670 67046 10768
11239 53352 3251
29794 50770 27259
4683 19219 5353
861 53207 4790
7988 53352 37278
48187 56141 36256
47717 52491 10
19754 52491 272
3730 53352 43982
18920 55933 1496
5490 56794 31258
12823 56794 32007
5214 56794 28060
6558 56794 35191
8901 56794 40378
8723 56794 36438
8815 56794 37048
13711 56794 34095
6666 56794 26569
7303 56794 39369
8046 56794 31927
2073 35330 2443
8754 19660 8752
23888 19660 21449
32642 53352 8836
861 53323 19034
40742 18799 37421
3379 61118 35153
8608 53352 1287
3536 53352 1418
3441 56685 42943
3441 56953 42410
45347 53352 45410
26168 53352 44459
25168 53352 29744
19580 53352 34640
31979 53352 35216
42910 53352 22177
18637 53352 32448
46325 53352 33062
44434 53352 35547
19551 53352 42946
37116 53352 39840
34492 53352 17622
35667 53352 17033
44882 53352 37129
48504 53352 16173
36099 53352 41280
43311 53352 28621
24351 53352 44564
25630 53352 34580
15085 53352 36835
18807 53352 40576
34212 53352 29624
11352 53352 43846
25829 53352 33172
42815 53352 12525
39221 53352 34213
27058 53352 41056
23588 53352 31097
40215 53352 28912
45528 53352 23197
29203 53352 25447
36543 53352 22166
14437 53352 37527
10150 53352 40955
45114 53352 16713
45271 53352 6003
48753 53352 27098
47079 53352 8525
26616 53352 28757
40708 53352 28489
26267 53352 26953
20842 53352 33913
37613 53352 40444
27701 53352 29396
33992 53352 28916
23551 53352 43576
32367 53352 32897
38921 53352 20133
30787 53352 34598
31007 53352 44345
45233 53352 29847
31372 53352 24292
29666 53352 38105
18839 53352 38299
22811 53352 32679
11486 53352 41737
31861 53352 27269
47725 53352 18126
17806 53352 33027
26124 53352 28620
34118 53352 22588
24265 53352 34060
47907 53352 26447
40222 53352 14863
47060 53352 3551
32925 53352 42853
33282 53352 35883
43977 53352 14325
31706 53352 30652
16697 53352 38611
30995 53352 31741
47071 53352 39242
45858 53352 44966
44224 53352 36129
21348 53352 33921
46902 53352 12975
35706 53352 15734
29198 53352 40911
38836 53352 29875
39455 53352 17977
44729 53352 18619
23979 53352 38064
42506 53352 39658
25047 53352 26814
17497 53352 44724
45778 53352 27468
37810 53352 23591
26382 53352 37775
35944 53352 28863
48106 53352 43906
19080 53352 41121
33101 53352 23008
46958 53352 31964
31457 53352 32420
40316 53352 30888
38602 53352 26459
7043 53352 45084
47776 53352 44508
30412 53352 21441
45334 53352 36706
35473 53352 40834
38856 50770 43804
4731 7781 44142
2231 36730 44198
2187 7166 44140
1676 71874 20780
1676 70459 6803
1676 72465 30126
1676 72319 9153
1676 70857 5154
18536 56794 15593
41597 18906 7139
3350 69701 21422
47757 23567 44147
46632 34436 5142
11311 53352 9825
47847 3080 42022
2224 22516 41802
20690 53352 1981
48045 1634 4089
40258 19387 38075
3011 69568 29153
861 56544 9541
861 55064 39645
861 56227 23603
861 56751 30222
861 55964 39207
861 55531 31532
49908 53834 24611
49908 53641 29616
49908 53705 18309
49908 53569 21732
6540 19378 7195
1083 71307 42119
11629 56572 44747
25512 53352 1764
32038 56794 29262
24936 56794 23646
21141 56330 1721
31309 53352 5087
879 50770 23151
1255 50770 39511
2719 64049 22392
25184 55933 1659
44398 52491 3877
19681 52491 10591
14607 52491 10156
33805 52491 14371
25555 52491 4148
16135 52491 24206
40499 52491 3974
15434 52491 28526
13211 52491 25278
17865 52491 22035
10423 52491 23373
5274 52491 18768
26998 52491 14102
31560 52491 7332
11100 52491 20378
10852 52491 31090
16793 52491 23548
21870 52491 3461
4912 52491 26979
5859 52491 4333
19125 52491 29067
23889 52491 18192
9063 52491 5300
6849 52491 39621
9502 52491 13576
8565 52491 29027
26262 52491 22127
11118 52491 4885
35194 52491 9291
5082 52491 18201
10378 52491 12387
4717 52491 13724
34944 52491 1747
13538 52491 22952
34471 52491 7525
9315 52491 23529
12754 52491 8094
4699 52491 31665
37189 52491 9047
23453 52491 5407
29406 52491 5936
6022 52491 5171
16588 52491 12097
14189 52491 29859
21432 52491 23399
32277 52491 11421
32115 52491 2557
9444 52491 12779
31567 52491 10541
12704 52491 4677
19963 52491 21969
14401 52491 23636
12101 52491 32587
5607 52491 10682
29502 52491 2540
22849 52491 3506
5012 52491 34988
9186 52491 38759
46250 52491 3392
6623 52491 30958
18069 52491 29181
34605 52491 2411
21017 52491 5997
19271 52491 13602
6196 52491 6379
19416 52491 25838
21630 52491 25453
15116 52491 22214
12611 52491 28240
24179 52491 13093
6675 52491 17836
7830 52491 33205
22629 52491 10245
17917 52491 14426
7100 52491 12318
8114 52491 19949
5185 52491 37749
16059 52491 20269
7619 52491 20504
17199 52491 4481
15449 52491 29830
18302 52491 18823
26974 52491 17680
4636 52491 32272
6597 52491 13880
20963 52491 20424
17351 18799 30516
49048 50796 18479
49048 50989 11600
49048 52068 9563
33326 50770 41902
861 53525 10253
861 54882 4682
861 54903 6896
861 53925 24975
861 54358 18290
2462 53352 8191
48159 19204 3227
47442 10972 2040
8137 53352 30624
40534 19660 9202
32362 19660 15887
5151 43739 42769
27915 52559 0
20867 52894 0
23600 52531 0
38626 53294 0
48187 56093 44477
1753 12522 3278
3886 2883 5113
16586 50770 43309
2151 63085 16904
3441 65679 42455
3441 60490 41739
4091 6026 1868
3432 59542 23304
45623 20444 44523
3011 64094 28660
1845 36941 2867
46832 44337 1769
19336 50770 3216
47639 34568 4693
896 53394 3647
645 56794 36717
152 56794 35081
1626 50770 1197
24269 50770 1139
46759 40844 5125
2852 68900 24045
2154 69701 13666
34765 50770 3814
46927 33620 41369
47114 47595 41447
1003 62811 43701
29225 19660 27758
3253 54967 44558
1777 45552 43289
23536 50770 43775
34854 53352 26535
48977 53352 8023
20987 53352 32802
43037 53352 8349
47240 53352 23000
48076 53352 11272
19610 53352 40023
37593 53352 20914
36394 53352 26626
28666 53352 39731
40164 53352 39563
32887 53352 21197
45096 53352 22000
39137 53352 35654
48741 53352 45537
48865 53352 29747
29828 53352 29816
45625 53352 28584
31839 53352 40537
45212 53352 38094
42487 53352 45554
47414 53352 33730
47332 53352 22314
38170 53352 13935
37040 53352 30226
47737 53352 4547
8601 53352 43006
43667 53352 42726
38210 53352 44218
32981 53352 39197
37459 53352 13772
17164 53352 36909
47536 53352 17264
20086 53352 29886
44507 53352 42645
43089 53352 42794
12906 53352 38113
47636 53352 42113
42562 53352 22942
45966 53352 17635
42930 53352 28296
48802 53352 38130
23719 53352 39231
25210 53352 42372
39741 53352 44851
45377 53352 15448
36746 53352 23555
36058 53352 18591
22476 53352 31486
25508 53352 32107
44611 53352 10942
17569 53352 43216
32867 53352 41085
48615 53352 42442
27796 53352 33674
22329 53352 42237
24507 53352 28639
41628 53352 11210
14806 53352 35440
43633 53352 33378
35512 53352 39160
32983 53352 19947
18722 53352 36538
48979 53352 17503
47873 53352 25613
28406 53352 45185
42664 53352 26820
36403 53352 24484
36947 53352 14038
44785 53352 31543
48267 53352 38389
48091 53352 29593
21521 53352 41708
20519 53352 35510
46596 53352 30516
9237 53352 44112
38936 53352 25752
35374 53352 32401
28410 53352 22407
39166 53352 38521
45731 53352 35316
21425 53352 35040
45979 53352 42694
12220 53352 42363
48427 53352 12836
38851 53352 16263
40104 53352 40081
23156 53352 42927
48694 53352 23421
34511 53352 39891
42675 53352 7406
11476 53352 44259
41837 53352 42386
42073 53352 36371
41424 53352 12647
47008 53352 9996
32091 53352 34061
43330 19150 5552
33388 50770 12463
44573 50770 16333
37411 50770 22099
23740 50770 6719
44405 50770 20507
37570 50770 21010
25008 50770 17826
42001 50770 31360
14583 50770 8627
20294 50770 17351
41435 50770 7220
38916 50770 11768
23416 50770 14940
33094 50770 20076
39266 50770 15347
14726 50770 11625
34347 50770 18191
33330 50770 27242
37424 50770 7759
38284 50770 5946
11285 50770 11316
37638 50770 31671
21792 50770 14815
31434 50770 17991
28872 50770 11687
31466 50770 11827
31421 50770 20932
37842 50770 11641
35055 50770 18643
41401 50770 13290
36831 50770 7262
44449 50770 30628
31339 50770 13219
33405 50770 11627
40093 50770 12114
27377 50770 7002
27618 50770 17065
19692 50770 14074
45242 50770 25787
28646 50770 9498
45781 50770 31704
31494 50770 17563
40818 50770 34598
40652 50770 20124
21014 50770 8721
42653 50770 8426
41317 50770 31461
35357 50770 6229
23794 50770 9261
29504 50770 6979
7404 50770 5770
43446 50770 22660
36762 50770 8821
43231 50770 23230
42534 50770 26731
12426 50770 5593
36107 50770 6154
28908 50770 19318
34628 50770 25394
38660 50770 28732
25142 50770 16531
32118 50770 7219
12877 50770 10025
38578 50770 16331
37165 50770 15276
44463 50770 33127
46355 50770 6008
30432 50770 23667
43374 50770 20709
30508 50770 15846
39138 50770 21009
33902 50770 23830
44477 50770 23172
36655 50770 14873
24442 50770 18167
35952 50770 15497
43507 50770 32588
44949 50770 19728
23466 50770 19628
15366 53352 20871
8340 53352 25101
3988 70060 2627
40628 19660 38034
40143 55933 45574
42030 55933 45459
44861 39829 2860
48139 14580 43394
36026 18799 13795
25588 18799 22410
5162 56133 31511
4302 55906 44609
4302 55868 8260
4302 55523 21685
4302 55448 35189
3219 73144 10480
3249 56489 12147
42643 54990 861
8589 54350 861
45103 54914 861
33950 54371 861
41846 56794 23220
41510 50770 44177
48747 55933 12823
20066 56794 23503
48187 56202 11480
4064 26168 44591
3891 7427 1787
4188 66376 43523
3110 54047 34182
44768 37464 42852
17032 50770 3765
17221 50770 16851
438 52491 15083
250 52491 5204
45940 38111 5071
3891 12442 41331
47875 45538 43993
35833 56794 35981
470 56794 16195
49897 52491 20129
49612 52491 23890
39611 50770 5151
28470 56794 23089
8274 56135 1721
1676 71092 4327
27779 56794 8908
28042 56794 10943
34137 56794 11964
29451 56794 10225
32633 56794 12347
30085 56794 14180
30604 56794 11585
30712 56794 15643
31255 56794 7419
32678 56794 10664
27564 56794 20458
27164 56794 17770
27054 56794 20481
30066 56794 17850
27970 56794 6891
28851 56794 15466
28029 56794 17752
34419 56794 13451
29225 56794 14728
30163 56794 11328
30203 56794 16195
31289 56794 16128
3053 57879 43025
9449 56794 2520
5673 56794 2138
7959 56794 1853
16706 56794 4673
21673 56794 3192
16124 56794 8805
10626 56794 5166
11189 56794 2266
23030 56794 2537
14074 56794 3665
1676 68346 42530
1676 68403 41875
21915 53352 2356
5015 50770 2497
5162 56222 30937
32706 19118 16930
45572 40818 44490
45558 45559 44479
17477 52491 598
28362 52491 634
49709 52491 35901
49087 52491 23148
1938 53352 25777
1730 59900 34931
4935 24 2581
45879 27731 1839
4180 70803 43542
5101 55933 41414
1145 64063 43959
47319 25814 1949
13761 50770 1544
35865 50770 1365
46681 27745 44718
2669 52127 45607
22125 50770 2957
10286 53352 19040
45140 51514 861
36624 51008 861
33100 51686 861
45753 51520 861
2151 61726 28519
45156 61 2348
48140 13200 3081
48136 12213 3051
3123 55671 35510
3436 59619 43025
2123 69701 5048
2281 63848 41314
4100 60013 2896
26572 50770 43090
1776 53352 28447
1676 73066 40956
1676 70122 11629
1676 72219 34062
1676 70349 15568
1676 70200 39376
1676 70562 27837
1676 70077 36800
29969 53352 2553
46525 50770 18223
4642 55933 23074
4622 55933 27756
1840 634 4022
28034 50985 45607
25373 50826 45607
14642 51194 45607
36851 51018 45607
44997 50733 43914
7687 56794 39763
7787 56794 38534
7616 56794 32367
5698 56794 38361
5804 56794 33645
10984 56794 30254
8991 56794 31595
10573 56794 35493
6582 56794 36993
11151 56794 38404
9416 56794 34947
1440 53352 12979
4399 35849 4873
18460 56794 31196
45563 34214 4900
46863 19528 1774
5136 6020 43330
5084 17590 3967
17756 55933 862
2515 44274 41568
2258 26936 41766
914 59156 3097
14453 53352 26120
32863 56794 32844
30064 56794 27882
27511 56794 30468
27225 56794 41074
30327 56794 38760
30400 56794 34856
28115 56794 34775
34228 56794 32957
26717 56794 34400
26713 56794 33071
29498 56794 30461
47438 28104 41620
1124 68826 2567
12412 53352 3393
3011 60523 28381
47832 20735 2420
49660 52491 38060
49530 52491 40347
3262 62069 4930
2602 36901 44487
37483 56364 33597
47128 30949 5015
3750 35546 5131
862 50902 26577
862 51222 34272
862 51558 22913
862 52324 42771
11178 19520 9745
48428 55933 41142
45107 49934 4474
23557 53352 24476
47437 39947 2037
44751 36111 43068
44763 21192 43159
27226 57224 23033
4360 14316 1998
46664 20245 41331
16292 56794 24376
21529 56794 27306
17350 56794 26185
12008 56794 26819
21723 56794 27997
6980 56794 24276
14968 56794 30376
18732 56794 24478
18247 56794 30408
11815 56794 28204
4571 39215 44293
27022 54212 113
44591 54212 39
2889 4253 44606
2892 3657 44607
4102 68170 42267
3625 25673 1752
45489 34114 41624
1190 50770 9290
4805 55933 3580
4300 54159 15597
4300 53693 16142
4300 54828 8634
4302 55012 19096
4302 54950 15052
4302 54695 17130
41653 50770 2803
48025 5804 4139
1725 61803 23198
40968 56286 44747
21491 52491 45957
11673 52491 46214
47610 4465 41752
1972 73144 28294
2961 41866 5094
2647 50371 4964
48151 35628 43304
3043 58772 22513
464 52491 24996
324 52491 36067
3003 61193 22486
3011 56271 17097
45389 28731 2118
48479 50770 20630
31066 53352 9210
4762 25276 4544
5019 33646 42301
44766 27059 42872
44753 33757 42970
37922 50770 1629
43446 50770 1051
22120 56794 23281
10220 53352 2768
47977 36630 4255
32293 54212 727
29014 54212 501
