ply
format ascii 1.0
element vertex 2394
property float x
property float y
property float z
end_header
47248 19904 2458
47519 6884 2458
47483 8451 2458
45776 319 45579
39139 993 45579
44255 669 45579
41609 1744 45579
27861 264 45579
11806 89 45579
36282 504 45579
10909 37826 44426
4413 58114 0
3369 67398 0
3621 66549 0
3608 62852 0
3716 64946 0
2597 69228 0
46555 14728 45579
46469 13247 45579
46365 11524 45579
46645 9498 45579
45441 18598 45579
46085 20736 45579
45757 25154 45579
24457 0 44942
33432 0 45075
13045 0 44417
23582 0 44417
25688 0 44252
12989 0 45520
16869 0 43630
37322 0 45455
1779 68211 2647
4795 56944 2647
4843 58830 2647
3655 61432 2647
2110 74140 2647
8629 50836 189
6215 60039 189
5587 60514 189
5131 64140 189
3828 67920 189
28675 38016 15992
29167 38016 10158
24125 38016 6946
27547 38016 8442
39033 38015 20320
41435 38015 32030
40263 38015 32646
36775 38015 6521
41571 38015 10677
17942 38017 6610
33117 38016 25990
33594 38015 6066
34176 38015 20164
36640 38015 2518
42989 38015 28992
40072 38015 34135
38724 38015 1751
32354 38016 16645
42157 38015 25616
40594 38015 691
40504 38015 15126
38702 38015 37147
38900 38015 11910
14776 38017 3767
31671 38016 24448
25369 38016 6787
33698 38015 25420
18966 38017 8753
42092 38015 18390
38444 38015 7895
23991 38016 9272
41740 38015 8389
20629 38017 5115
42259 38015 32896
17273 38017 2409
31972 38016 13267
36081 38015 18005
42356 38015 8392
15938 38017 3254
33795 38015 4257
39919 38015 27393
43327 38015 34408
33153 38016 11782
42793 38015 10574
41515 38015 27454
36269 38015 16103
32073 38016 21424
28645 38016 22807
37566 38015 12166
26262 38016 13806
35503 38015 2885
38826 38015 26069
37012 38015 13373
37175 38015 4139
39020 38015 14476
41492 38015 9318
28018 38016 7189
32570 38016 22150
40277 38015 22525
41532 38015 5697
37805 38015 3884
26503 38016 1557
35124 38015 27144
37746 38015 15935
29891 38016 20405
27657 38016 19583
34080 38015 19167
35202 38015 11973
36848 38015 11024
35807 38015 6768
42629 38015 11526
23811 38016 12897
23252 38016 16069
42450 38015 28243
41569 38015 41049
38478 38015 19451
31378 38016 3073
32771 38016 1475
20781 38017 9666
38248 38015 16274
43894 38015 17084
23392 38016 11661
41436 38015 25086
32268 38016 24603
36741 38015 9107
35604 38015 13870
34612 38015 8031
36305 38015 1110
32897 38016 20154
22648 38016 13519
30599 38016 26719
42848 38015 19577
38712 38015 29115
37900 38015 18851
38464 38015 24856
38943 38015 17490
42319 38015 4639
37245 38015 4786
31862 38016 25400
18375 38017 4262
33215 38015 8012
30355 38016 4260
16265 38017 4795
43081 38015 42227
32103 38016 1258
38985 38015 15081
37801 38015 36884
31833 38016 7533
23934 38016 5780
28178 38016 16910
27578 38016 6083
38735 38015 10126
30868 38016 8786
19071 38017 6548
27875 38016 11909
29717 38016 19624
40644 38015 10887
18075 38017 8131
26419 38016 12122
32414 38016 2194
43392 38015 27419
35666 38015 15229
25384 38016 11510
32161 37510 189
42035 37205 189
25562 37011 189
44280 35703 189
31185 37586 189
45437 5308 45445
45437 9801 44818
45437 20942 45385
45437 3856 44618
45437 16199 44310
45437 21553 45031
45437 12161 44409
13663 35500 45692
39642 35367 1049
42283 35367 1623
43397 35367 1980
33999 35367 663
36486 35367 880
46193 25162 5407
46193 25602 29359
46193 25607 3231
13663 37962 19272
45437 30479 36551
45437 29652 41780
45437 29748 31798
45437 28776 26049
45437 29428 33339
45437 29220 41410
45437 29610 29500
45437 28892 42319
653 71848 45581
2206 66056 45341
831 71188 44923
2260 65853 44402
359 72947 44936
1435 68932 44878
656 71840 43631
11517 40189 844
9921 46146 1025
9942 46068 389
6830 57681 511
6591 58571 542
9515 47661 1279
11145 41577 845
9919 46153 1602
47706 25779 552
47706 16713 275
47706 6684 1209
47706 5440 850
47706 8319 265
47706 13644 484
47706 12390 783
47706 29617 673
7774 48497 2647
7744 53437 2647
7634 52438 2647
7190 56817 2647
5627 61600 2647
8691 50203 2647
4787 63202 2647
37411 36347 45579
43743 37485 45579
41536 36088 45579
38307 37799 45579
39354 36121 45579
47180 13710 2458
4613 66582 2645
47706 30291 30086
47706 30996 4152
47706 29264 41078
47706 30711 29590
47706 30867 43228
47706 30138 32794
47706 30287 35000
6179 58116 189
4443 64581 189
7657 49191 189
7682 52788 189
7575 50221 189
4508 65822 189
11238 2269 1455
14989 2269 447
11797 2269 894
32274 2269 553
15566 2269 888
37266 2269 440
5649 55337 2458
5176 58133 2458
3091 69902 2458
2055 70907 2458
2125 70243 2458
3731 66160 2458
46950 25648 34828
46950 25691 29309
46950 25655 39729
40460 35556 1705
22409 35556 970
30352 35556 684
41692 35556 1927
24883 35556 320
27874 35556 953
43115 35556 1408
16034 37093 43121
32821 36207 43121
26016 35653 43121
22248 35477 43121
17007 36931 43121
19337 35414 43121
43924 37901 4712
46950 21473 5276
46950 21851 5840
46950 21346 7476
45698 25666 43310
47468 27645 43310
19017 2022 43310
18467 659 43310
30660 2169 43310
29038 1867 43310
23773 882 43310
21613 1192 43310
21900 673 43310
46686 35722 43310
45437 15505 979
45437 33859 440
45437 28321 1865
45437 23099 1399
45437 21166 377
45437 25643 2108
45437 20500 567
10739 43093 21556
10812 42815 13938
10714 43186 34465
10501 43981 13324
10447 44182 12492
10315 44674 3547
10341 44578 2936
17565 2269 44665
32123 2269 43614
28226 2269 43760
10846 2269 44711
12375 2269 44406
33845 2269 43341
35679 2269 43779
1856 67360 43153
9881 1660 24593
9881 1344 4351
9881 1783 19834
9881 1922 17343
9881 976 1170
9881 558 8873
9881 1720 3726
9881 1328 25092
9881 2239 31999
12150 266 33902
12150 1729 10947
12150 247 26592
12150 437 23469
12150 527 13329
12150 328 11337
12150 837 18439
12150 1038 7158
12150 397 8392
45993 20474 43310
46070 23563 43310
18687 36369 2458
25693 36469 2458
30340 35800 2458
28396 36673 2458
22133 35986 2458
16822 37189 2458
40277 36756 2458
40854 37384 2458
38735 36740 2458
44919 36157 2458
31263 37825 2458
46420 36581 2458
38939 37686 2458
9557 48450 44711
42388 37828 2474
10817 42311 2458
0 74286 44813
4641 56969 45425
434 72669 43867
3946 59561 45260
910 70891 44413
512 72375 44386
46548 27369 2458
47706 24858 45021
47706 26415 44821
47706 29818 43705
47706 19968 44342
47706 30107 44984
47706 27332 45391
47706 31270 45502
47706 25262 44027
45437 33206 2172
45970 34383 2458
8258 52351 44098
9985 45908 44306
6834 57665 44494
9539 47570 45013
10175 45198 45405
5339 63243 45487
10726 43136 44530
9796 46610 44814
34425 37670 45768
38652 36711 45768
31302 37651 45768
20532 37849 45768
28526 37733 45768
42867 37147 45768
46193 18122 4156
46193 17951 18158
46193 17632 8774
31491 35367 237
33342 35367 875
33919 35367 1519
26467 35367 958
46853 25721 32507
46785 25721 31636
6879 52305 2458
4453 64526 2458
9168 48842 2458
12377 37825 44927
20651 37825 43575
23634 37825 43508
24282 37825 44321
15845 37825 45116
34658 37825 43870
16923 37825 43894
40447 37825 43742
45437 31530 43963
46066 5077 45579
46027 4337 45579
46916 3719 45579
46440 6640 45579
42837 35556 43565
32818 35556 44223
33350 35556 43926
23261 35556 44014
14213 35556 43462
40492 35556 45143
8454 52246 2604
22042 2269 293
31292 2269 1098
12639 2269 1888
20585 2269 591
10350 2269 415
45695 0 44782
44320 0 44004
30402 0 43348
45456 0 43423
31301 0 43922
42084 0 44566
24394 2269 1969
39443 2269 1599
27792 2269 1751
40385 2269 2215
43038 2269 2415
34733 2269 1428
36881 2269 1018
20493 2269 43876
29492 2269 43830
26019 2269 43864
15651 2269 45018
11907 2269 44712
2521 75013 33026
1036 73779 43310
2487 65545 43310
2592 67369 43310
1763 72762 43310
5098 58971 43310
3076 63891 43310
44197 1857 189
34557 1106 189
29220 355 189
45208 1147 189
23626 501 189
32605 257 189
37251 174 189
31155 1302 189
9159 44681 19054
8959 44627 11128
8981 44633 18319
8417 44482 12766
8499 44504 25839
8717 44562 19793
9096 44664 10134
9444 44757 6951
47706 37289 1055
47706 35800 1508
11423 0 40218
10182 0 10343
11760 0 43091
9894 0 27001
9970 0 14282
10162 0 6521
10506 0 26638
10232 0 21110
47537 9253 43310
47640 13693 43310
19872 637 2458
23901 1666 2458
29896 2084 2458
22491 776 2458
16970 505 2458
24448 962 2458
18316 1652 2458
10648 39685 2458
10884 38652 2458
27878 38016 39717
40537 38015 42190
16483 38017 41527
20913 38016 19564
25767 38016 21925
15534 38017 35599
14767 38017 11860
18440 38017 34903
14555 38017 30397
29118 38016 35583
27415 38016 29729
28623 38016 30615
40429 38015 45615
39395 38015 43711
33349 38015 37117
23109 38016 34975
35309 38015 42047
22969 38016 28785
29695 38016 26036
22865 38016 22152
16127 38017 32580
33704 38015 40319
34197 38015 44159
19655 38017 25385
15058 38017 37148
37964 38015 41896
19441 38017 15784
30650 38016 34209
20981 38016 23831
32326 38016 35798
25106 38016 36903
16833 38017 28416
20018 38017 26274
20937 38016 39324
14871 38017 12853
39877 38015 42064
28697 38016 24593
27404 38016 27685
25614 38016 44157
26343 38016 29374
27339 38016 23395
16621 38017 19408
14784 38017 17530
15774 38017 9965
18224 38017 21471
16610 38017 36152
21977 38016 29504
25412 38016 38165
24831 38016 25114
29200 38016 32098
25477 38016 37538
18726 38017 13368
16338 38017 43708
19417 38017 23196
15845 38017 38775
27486 38016 33591
18371 38017 16106
23723 38016 28378
29210 38016 37825
24292 38016 19525
16784 38017 7679
40474 38015 43153
32663 38016 40307
34055 38015 38204
25906 38016 27348
20301 38017 40392
17697 38017 23395
36837 38015 41200
31153 38016 27674
26251 38016 34241
19492 38017 34895
25617 38016 32390
35185 38015 42619
31357 38016 39730
23756 38016 37718
30000 38016 30334
29155 38016 33220
19422 38017 30406
19512 38017 15105
27576 38016 23966
33472 38015 33679
21444 38016 24897
38739 38015 43369
29714 38016 36339
21633 38016 33692
17524 38017 14625
16719 38017 33379
29654 38016 31760
21915 38016 15826
16260 38017 11098
26688 38016 34960
15166 38017 18046
17378 38017 29525
25461 38016 31533
22704 38016 16707
30804 38016 44417
16534 38017 38285
18318 38017 15417
36325 38015 44889
29040 38016 40453
16012 38017 23126
20951 38016 33597
16296 38017 27601
36610 38015 36526
19150 38017 36997
17995 38017 28686
17963 38017 40983
19894 38017 37366
20761 38017 44438
7682 46030 43664
37561 35367 2605
30109 35367 1649
17969 35367 522
28295 35367 1623
18359 35367 2542
35490 35367 2434
20600 35367 1237
47706 30400 37140
47706 30285 26949
47706 30090 36194
47706 30489 13746
47706 29859 32043
47706 30613 39470
47706 31012 18053
47706 30768 27789
46193 21653 14254
46193 21813 21342
46193 21584 17726
47706 2784 889
47706 21053 562
47706 12972 1108
47706 30875 602
47706 24520 688
47706 465 757
47706 32954 2297
46496 31017 30657
45978 31017 38133
46828 31017 27632
47476 31017 22189
47136 31017 36697
47252 31017 41220
47109 31017 37297
13357 37327 45579
25220 35639 45579
22232 36944 45579
32177 35856 45579
10361 37224 45579
34108 35868 45579
46309 21182 25121
46331 21182 32352
19994 36172 45768
24220 37088 45768
20261 36728 45768
30897 35780 45768
14632 36473 45768
14304 35728 45768
35523 35640 45768
8396 43365 19344
8222 44016 21283
8462 43118 13130
8225 44004 23738
8294 43747 29621
8625 42511 4806
8281 43791 8769
30460 1901 45579
9998 2151 45579
24005 1609 45579
14181 1416 45579
12341 452 45579
1500 71491 45768
4601 60081 45768
1225 73714 45768
1058 71069 45768
2973 69391 45768
1979 69580 45768
3097 67155 45768
45437 29974 43312
32126 36707 2458
42505 37073 2458
34457 37194 2458
25419 37715 2458
42057 35799 2458
45095 37144 2458
1555 74755 1061
46950 17791 6513
46950 17892 11334
46950 17999 5055
9881 1449 31873
9881 86 29011
9881 56 3775
9881 1835 41814
9881 481 39010
9881 1389 28603
9881 268 42571
9881 338 19003
9881 512 11354
46193 21628 34735
46193 21319 37451
46737 24964 19200
46854 24964 20996
46401 24964 3658
43924 35478 44692
5697 53027 1613
2860 63616 866
721 71596 215
4149 58805 1349
6716 49223 1755
4411 57826 679
11714 0 11535
11129 0 14723
11288 0 16854
11272 0 12186
11470 0 15748
11214 0 18444
8089 44512 2223
8925 41392 1275
8799 41862 1575
6509 50407 709
8661 42379 2179
45437 19221 43541
45437 21996 44189
45437 28679 44221
45437 28413 43313
45437 21189 44125
45335 2269 45068
33845 2269 45201
19488 2269 45152
31828 2269 44934
38282 2269 44970
23089 2269 44940
21766 2269 44981
16960 37269 189
40943 35591 189
15764 35737 189
22447 36175 189
17510 35885 189
8732 42217 6425
9162 42332 25764
10568 42709 41532
9142 42327 11619
10274 42630 40349
9064 42306 39081
8876 42255 13021
8929 42269 8633
10706 42746 42523
10040 39773 2458
43909 35813 43310
37811 36398 43310
33124 37822 43310
13029 37789 43310
35159 37093 43310
38778 36325 43310
41870 37237 43310
40382 35978 43310
29661 109 45579
28643 32 45579
38380 818 45579
39727 677 45579
26256 558 45579
19991 200 45579
43861 1210 45579
46637 21182 38466
46199 21182 30450
10879 37825 654
31394 37825 1047
21696 37825 1733
28914 37825 616
19593 37825 1522
24291 37825 498
21905 37825 1146
9881 1598 32585
9881 1860 42455
9881 24 16832
9881 919 40156
9881 177 35828
9881 1304 36520
9881 1452 34006
6207 51119 62
8106 44447 43831
8738 42094 44872
1787 68031 45578
7947 45042 44748
7027 48478 45083
3170 62871 44874
6398 50824 45436
2038 67093 45209
46950 17890 17067
46950 18037 40774
46950 18059 24524
13663 37878 25668
8988 49628 1760
6787 59190 372
3205 72566 848
3101 72956 1339
2863 73844 2245
4643 67197 516
46718 21939 20562
46765 21939 40593
46791 21939 12290
46950 25289 12053
46950 25113 9719
46950 25006 19774
46711 28747 8607
46217 28747 7776
46788 28747 2998
47029 28747 22178
47411 28747 35787
45997 28747 3559
46809 28747 6527
47659 28747 30009
46859 28747 19270
28660 36829 189
41289 37591 189
41123 36958 189
26527 37420 189
13663 37647 1386
45437 29246 23806
45437 30097 40922
45437 29676 20924
45437 28762 17486
45437 28877 16609
45437 29399 18344
45437 30071 27914
29689 35842 2647
36325 36730 2647
31549 36640 2647
34659 36564 2647
39435 35468 2647
47706 29658 14714
47706 29904 5859
47706 30650 6957
47706 29201 25774
47706 28778 31978
47706 29472 15449
47267 31465 2458
19585 38011 0
42771 36667 0
37604 36943 0
25951 37621 0
36291 36105 0
4551 62292 43121
5902 52896 43121
6793 49293 43121
4278 60224 43121
5707 55352 43121
3113 72171 43232
6485 50498 43536
6661 49839 43711
4352 58458 44215
6042 52150 43709
46950 21366 22672
3958 59518 2164
2782 63902 1660
6709 49251 2430
344 73004 741
2997 63101 2381
4895 56020 2208
2300 74150 45579
3176 65456 45579
1588 72713 45579
4934 60638 45579
1475 70275 45579
5735 54174 45579
46874 25401 189
46165 25806 189
46451 29303 189
45708 7776 189
45888 26336 189
45724 32183 189
7807 48252 43121
7554 51127 43121
6644 52398 43121
3870 67844 43121
3406 70172 43121
4397 63308 43121
6212 54329 43121
3308 68423 0
2054 74723 0
1472 73784 0
2443 66269 0
3205 64045 0
3428 61958 0
25567 36240 45579
18039 36665 45579
29442 36029 45579
20654 35728 45579
13663 37830 41887
27634 36742 45579
16730 37308 45579
41122 35367 45225
33189 35367 43399
38136 35367 44594
39790 35367 43954
42871 35367 44688
35490 35367 44638
11448 0 36699
11301 0 32802
10754 0 30534
10749 0 20151
10857 0 28339
11567 0 39423
10292 0 31955
3542 69591 0
6881 52788 0
7042 49494 0
6440 56546 0
3361 71907 0
13663 35376 1425
46950 17547 29066
46950 17683 12351
46950 17791 7407
10060 2269 22067
10825 2269 43241
10373 2269 31312
10404 2269 12702
11642 2269 42356
10474 2269 16175
10467 2269 30577
10129 2269 20927
10678 2269 15420
17374 37718 43121
24295 37685 43121
33565 36513 43121
43734 37484 43121
22228 37295 43121
35675 0 1754
36781 0 2362
23309 0 2412
19654 0 890
21765 0 1868
35334 0 2385
11977 0 1016
31914 0 2140
46494 13036 2458
10812 42774 3101
9912 42533 13170
10351 42650 32076
9747 42489 8798
10281 42632 19756
10366 42654 12529
9348 42382 9388
9279 42363 6204
46950 21880 6612
46950 21889 35824
43924 36611 2624
46373 17399 7823
46884 17399 15556
46193 21295 23370
46193 21761 38179
46193 21734 42935
9472 40248 43310
777 74546 1683
15342 0 797
10309 0 302
28389 0 2454
27257 0 1458
32449 35556 1245
36768 35556 1458
40972 35556 1367
16380 35556 434
42340 35556 597
46193 25009 17592
46193 25177 33272
46193 25109 20531
18668 37825 43709
18025 37825 44492
14051 37825 43575
31937 37825 43902
34062 37825 43564
4474 59263 189
3557 63514 189
2184 73509 189
3381 65857 189
21962 1508 189
14952 1649 189
39694 2103 189
13969 1664 189
16592 1803 189
19908 1163 189
14117 904 189
10637 43471 40299
10312 44681 20899
10304 44713 38423
10559 43761 25378
10484 44045 41582
10415 44300 36848
10454 44154 34869
10336 44597 11983
10309 44692 25465
1912 71751 2647
3620 67273 2647
6389 51474 2647
1763 69338 2647
4313 62226 2647
47706 24547 2259
47706 12968 2210
47706 10751 1879
47706 14671 2003
10881 37590 2458
47558 34970 2458
10162 44993 189
6004 57211 189
9910 38191 189
10615 42826 189
10857 39384 189
8972 49065 189
5655 62050 189
46193 17850 6541
2714 64573 44653
3396 62028 44064
3992 59798 44357
3573 61365 43544
792 71742 44654
7390 54389 45579
6377 57920 45579
4722 65279 45579
6670 54823 45579
4820 62766 45579
45778 31017 13264
45580 31017 28702
45965 31017 33261
46289 31017 19593
45985 31017 31019
45557 31017 24625
46306 31017 10123
46922 31017 11988
46998 31017 6168
46811 17399 37815
46679 17399 37150
46194 17399 6154
5527 55311 45579
6167 52198 45579
5135 59060 45579
1161 74462 45579
3523 66507 45579
4929 58009 45579
10344 36426 45579
24956 36159 45579
34807 35714 45579
15567 36551 45579
17520 36902 45579
9016 48305 43575
31881 35367 43553
34349 35367 43955
37057 35367 44691
30536 35367 44386
22493 35367 43829
10645 0 1204
11292 0 14101
10476 0 11330
11814 0 24562
11313 0 26626
10461 0 5507
12106 0 42168
11192 0 12794
25652 36228 189
31468 36273 189
21980 37053 189
19376 36680 189
26563 36385 189
47706 28814 9510
47706 29440 5117
47706 30924 3596
47550 19126 2458
47431 15118 2458
9881 36699 44139
45823 31017 15706
46221 31017 5677
46048 31017 26308
29063 35556 44700
24305 35556 44743
13851 35556 44153
27469 35556 44985
15310 35556 43866
15108 35556 44832
32363 35556 44867
46830 18156 25552
46510 18156 37750
46576 18156 41959
45437 35204 2290
46193 25174 10846
46805 31017 41720
46849 31017 38108
46681 31017 26946
46130 31017 32317
47478 31017 23415
47038 31017 40618
47443 31017 31586
10004 42558 10775
10604 42718 25828
9907 42532 24594
9589 42446 2874
5638 53658 1196
4072 59503 1230
6000 52308 1020
6569 50184 1702
46639 34269 43310
46816 32983 43310
18686 37329 189
38863 35654 189
13046 35837 189
28916 36216 189
32357 35908 189
24791 36476 189
46209 25721 12186
46383 25721 8098
46387 25721 20605
10087 35984 43310
46287 25721 21768
46341 25721 13375
46295 25721 28010
47706 36228 44517
43011 37828 2581
33300 36691 45579
24793 37822 45579
36244 36934 45579
45015 37558 45579
28386 36762 45579
29158 36884 45579
32571 37703 45579
44547 25 43310
26719 37 43310
24393 1 43310
37219 1079 43310
39568 1540 43310
3218 62275 43179
12150 1485 32606
12150 1772 18638
12150 2021 31421
12150 1478 24117
12150 1262 30587
12150 2177 6734
12150 1188 31904
1328 69746 536
30732 37825 1729
29806 37825 2268
43003 37825 1339
38032 37825 1950
44128 37825 2182
46736 24964 28928
46606 1402 2458
46641 9176 2458
46478 8578 2458
46018 8976 2458
40635 36780 45579
18951 37456 45579
42428 37451 45579
35036 36871 45579
42706 35908 45579
2472 75000 43678
43962 675 189
16641 59 189
42813 1587 189
24580 410 189
14474 47 189
18506 346 189
46778 21939 4728
46805 21939 10221
46269 21939 32632
38660 1124 2458
39094 155 2458
34137 740 2458
45626 73 2458
25266 245 2458
44549 1431 2458
28157 1021 2458
46227 28747 6504
46354 28747 10151
46967 28747 10079
47606 28747 35208
46661 28747 13714
47332 28747 7085
45437 33929 44344
46950 25661 7581
46950 25656 9222
46895 21182 16734
46886 21182 10264
46931 21182 24494
25789 35367 45129
14850 35367 45543
27663 35367 44423
39765 35367 45668
23545 35367 45018
28162 35367 44709
22 74344 541
21094 37056 189
18390 35760 189
21830 35646 189
15474 37269 189
27310 35668 189
14382 37407 189
47706 32215 43977
7947 45640 189
2810 68137 189
2450 72803 189
2208 69712 189
1013 72385 189
2652 70104 189
46499 21939 18850
46323 21939 24726
46511 21939 2794
24834 37168 43121
15136 37713 43121
26314 37382 43121
39635 35959 43121
43088 37325 43121
4444 66679 43121
7944 53065 43121
6573 58938 43121
6346 56913 43121
8502 48392 43121
7055 52814 43121
7198 55057 43121
9881 1572 30517
9881 1357 18304
9881 1143 8885
9881 1472 14832
9881 2239 4198
9881 2261 38481
9881 975 3466
9881 1776 6615
9881 2080 27870
3140 64776 43121
2617 66060 43121
3612 65571 43121
456 74233 43121
2798 71133 43121
46020 8123 43310
10287 44776 30051
10321 44652 9501
10459 44135 21622
10271 44834 8824
10545 43815 24220
10590 43648 32666
10248 44924 7079
10691 43271 42056
35838 35380 43121
19152 37152 43121
19853 36084 43121
29440 35419 43121
27661 0 429
45333 0 520
46533 0 628
23996 0 467
29106 0 840
22618 0 548
7471 55906 43170
10737 2269 22008
11029 2269 33070
10484 2269 39105
11626 2269 43490
10144 2269 24993
12081 2269 42853
10312 2269 28559
10955 2269 35115
6167 61509 19298
6702 59512 16297
2588 74871 11174
3671 70826 21216
4589 67401 8451
2595 74845 41373
3287 72262 36169
3096 72974 4613
4875 66332 19921
4023 69514 15995
3155 72755 6694
5711 63211 15036
6992 58429 10163
7062 58166 16130
3415 71782 27652
6902 58764 16049
2662 74592 8343
5210 65081 22764
3421 71760 10765
3088 73004 39557
4939 66095 2073
3967 69717 8064
5206 65098 27873
3467 71588 33903
2604 74810 31079
4738 66842 13654
8719 51980 3624
4941 66085 14873
7298 57287 10321
3477 71553 23459
8902 51297 2893
9042 50775 993
3303 72200 18457
4734 66858 28684
3875 70066 23874
4983 65927 9779
3957 69761 14424
5059 65644 18448
4682 67054 29646
4469 67846 23869
6922 58688 6702
6324 60921 17994
2660 74603 30237
3352 72020 3388
3020 73256 29198
3492 71495 16850
2797 74089 25447
8005 54646 1478
3549 71282 7193
5138 65350 5119
3052 73139 5401
2845 73909 3113
3478 71548 15700
6900 58774 17610
3852 70151 27065
4832 66494 17090
4060 69376 34021
7366 57031 11008
4810 66575 9987
4525 67639 6104
2711 74411 5403
8780 51752 2239
4655 67155 26163
3755 70514 5599
5492 64027 14326
2932 73585 41577
2876 73796 38079
3566 71219 3765
4539 67587 10859
3353 72010 19882
4780 66685 20773
3347 72038 31118
4710 66950 15721
4924 66150 5389
3790 70382 32233
6240 61235 5996
6777 59233 3110
2912 73660 11405
6674 59614 10218
5481 64068 26749
9482 49128 523
3006 73311 8824
4284 68538 10758
3970 69712 35558
6919 58702 9324
2622 74743 20668
5454 64171 24517
4142 69067 19897
4117 69159 35069
4672 67088 6602
5696 63266 18601
7121 57947 2598
3824 70254 4435
3905 69953 2167
3712 70671 35082
7484 56593 8830
4669 67099 24283
4136 69089 26554
4408 68074 27736
6711 49243 43850
6286 50829 44152
5166 55008 44548
2023 66739 43679
14453 38017 34
41960 38015 40
18044 38017 115
20717 38017 292
13885 38017 2089
25883 38016 611
30864 38016 857
44525 37825 44842
33525 37825 44252
21179 37825 44971
37573 37825 45397
41956 37825 44037
23205 37825 45059
47079 12440 43310
47010 7903 43310
46729 4501 43310
18469 35367 45067
24222 35367 45385
21719 35367 44982
20578 35367 43853
21549 35367 44022
21644 0 44674
19508 0 44412
36479 0 45023
23140 0 44788
11150 0 45007
31912 0 45180
3205 71210 44025
4120 67796 44626
3819 68916 45082
5150 63952 44355
2731 72978 43531
6306 59634 44352
7651 55969 38328
6814 59092 40229
9562 48828 23549
7571 56267 25470
5293 64773 37936
5789 62921 39891
9027 50831 8389
5846 62707 33794
6142 61601 41802
5767 63003 42054
7892 55066 37166
9065 50690 5242
6051 61940 32344
9329 49703 35981
7916 54980 22423
6691 59552 41709
8452 52974 16531
3680 70795 42325
8078 54374 28382
9644 48527 39155
6190 61424 39441
9466 49193 42657
7286 57329 21101
5072 65596 38080
4551 67543 43295
7541 56380 37620
8074 54390 36650
8897 51315 32446
6975 58490 45015
6191 61419 42959
9448 49261 4988
4939 66093 31015
7854 55212 20019
8250 53732 26534
6249 61202 35734
7770 55525 20688
5818 62813 30365
3578 71175 39429
8292 53573 24831
4866 66364 38627
8875 51399 17622
5146 65321 30449
8459 52953 24634
9470 49179 30414
9061 50704 36500
9598 48698 27301
7458 56688 39758
9489 49108 11105
8876 51395 13156
9152 50359 17428
8452 52972 35009
8758 51836 9488
8260 53695 13573
8519 52723 44883
8689 52092 33904
7185 57706 17370
7260 57430 15931
6824 59056 21286
7420 56831 20771
6484 60324 25335
8804 51663 42175
8657 52211 28351
9216 50121 31423
9623 48607 3974
5889 62547 45412
5271 64852 45518
8460 52949 8936
8818 51611 41535
5415 64314 33493
9557 48847 34402
7166 57780 35201
9462 49206 5839
8863 51443 26711
4319 68408 39997
8746 51880 19845
9094 50580 19887
6029 62022 34620
8547 52619 37363
8192 53950 41127
7254 57452 21935
4614 67306 41726
7657 55947 28207
7604 56145 18917
6912 58724 38026
8272 53646 43180
5168 65240 38630
7871 55148 39160
5257 64907 34146
7828 55306 16806
8586 52477 17065
4112 69181 44206
9051 50740 7673
8811 51635 38095
7225 57560 31614
8339 53399 20807
9046 50759 28014
7033 58274 25359
9082 50626 44193
6990 58435 30202
5795 62898 36360
7496 56545 43907
8666 52177 39811
4014 69547 40793
4655 67153 38545
9168 50304 19066
9511 49023 1204
4342 68317 38877
7237 57513 37372
5506 54151 2057
1202 70214 961
4799 56790 2090
4349 58470 1901
792 71740 2202
8500 42977 29557
8447 43173 31789
8297 43735 38954
8491 43011 41869
8576 42695 23637
8524 42889 26921
8692 42262 15089
8638 42464 20807
35854 37825 45348
33559 37825 45338
38907 37825 44344
40619 37825 44580
43350 37825 44033
33106 37825 44777
34446 37825 45067
19803 37825 45374
8387 48769 45768
9022 50416 45768
46298 2256 43310
47638 1293 43310
46082 6232 43310
12305 35556 2378
17513 35556 1590
15809 35556 2237
33371 35556 1735
8277 50508 45579
6831 55920 45579
10012 38626 45579
11147 38034 45579
5377 59756 45579
6226 56054 45579
26114 35615 45768
30293 35973 45768
29830 35520 45768
18488 36235 45768
34298 35375 45768
33147 35841 45768
43924 37853 20107
3799 69586 45579
7776 53534 45579
7409 51867 45579
5938 56672 45579
6106 54732 45579
5568 57337 2647
3919 68201 2647
5249 63820 2647
5737 59798 2647
9982 40797 2458
9069 49324 44604
5899 61153 44669
11106 41717 44429
6559 58693 44500
3322 70775 45485
6161 60176 45425
11037 38353 43310
47706 25580 2030
47706 27411 2098
47706 25062 1391
47706 10186 2104
47706 28514 830
46950 24990 20438
46950 25531 6719
45437 30258 26459
45437 30196 9793
45437 29874 13848
45437 29351 13122
45437 28954 3540
45437 30703 19262
45437 29369 7373
45437 29840 8588
5362 54688 1772
1628 68626 727
3653 61067 1542
46366 18156 8559
46902 18156 3156
10032 44915 42355
9768 44844 28104
9391 44743 30852
9448 44758 25943
8894 44610 38076
9843 44864 11304
10227 44967 13145
45437 24441 1434
45437 9114 773
45437 13924 750
45437 27679 1552
45437 4420 213
45437 32718 600
45437 23561 688
41326 0 1625
44174 0 1678
20466 0 761
38721 0 309
43828 0 354
19447 0 219
11011 0 242
9507 48437 26467
2630 71829 45768
2102 68925 45768
46087 35738 43310
22256 35556 45179
14733 35556 43839
17256 35556 44524
41025 35968 45768
43414 37933 45768
23575 37779 45768
42090 36628 45768
29990 36324 43310
25657 36527 43310
24566 36705 43310
35214 36222 43310
19867 36921 43310
10357 44517 506
3256 71017 335
10962 42261 1917
8277 52282 1004
10671 43344 1364
11299 41003 1640
6775 55920 2458
7623 51087 2458
8342 48908 2458
8656 47241 2458
5195 62290 2458
1137 71356 43310
5093 56146 43310
46617 32628 45579
47617 20002 45579
47414 26539 45579
47019 33948 45579
46755 18780 45579
47038 25944 45579
5105 55651 44462
5821 52977 44448
4355 58448 45022
8302 43714 45235
8356 43515 44552
3922 69891 31300
4075 69317 19224
3295 72231 2641
3894 69996 3725
6676 59607 13416
3645 70923 25405
6359 60790 17236
2631 74708 34630
8159 54072 6919
4562 67502 27068
3389 71881 20820
8733 51928 5636
3729 70610 33652
4263 68616 22963
4504 67717 23308
4760 66762 14646
4545 67563 2568
4417 68039 16164
5185 65174 6432
2732 74330 40352
2832 73959 26848
4194 68876 13949
3196 72601 3129
2691 74487 23518
3633 70969 24453
7947 54864 8851
4125 69132 25320
5234 64993 21766
6361 60785 6621
4809 66580 25544
5963 62271 17161
3223 72495 38625
4372 68211 18361
6476 60356 10781
4396 68122 7503
6869 58888 14992
3177 72673 7431
3251 72394 8036
7714 55734 4349
5221 65041 15258
3687 70764 22237
7651 55963 9016
4011 69557 16831
7589 56201 1800
4328 68372 21602
3602 71083 31288
6562 60035 16741
3691 70754 17875
4167 68972 23561
3744 70554 14555
5062 65635 10912
5435 64241 3512
4286 68529 31884
5523 63911 23338
6700 59520 6013
3537 71329 38330
3356 72002 12877
5803 62866 5716
5263 64884 16974
6487 60310 5998
5201 65113 17592
7822 55330 9241
6962 58541 14248
4186 68903 16394
3191 72620 9574
3178 72666 24177
4005 69582 18281
5208 65088 3634
4452 67913 19809
6329 60903 16288
3780 70421 25644
5411 64331 7551
5887 62555 4967
6487 60310 12163
4242 68693 15218
4031 69482 9746
4916 66180 13682
3860 70121 29851
2803 74070 17865
4367 68226 3890
5770 62990 3952
7634 56029 11571
5026 65767 17388
4830 66501 4407
4404 68092 15597
3273 72312 34665
6911 58729 5812
6523 60177 7125
3048 73154 36492
4206 68829 18879
46193 25191 40181
46193 25088 28016
9532 48444 6169
9520 39173 1552
12150 2086 41419
12150 892 41361
12150 2168 16575
12150 2255 5277
12150 1747 15423
12150 1194 37159
46193 17500 38489
46193 17814 29215
46193 17679 23238
11287 40030 189
10767 38515 189
10142 39850 189
8882 48198 189
9488 44514 189
4571 63869 189
43924 37942 17831
4273 63458 2458
2679 72496 2458
2959 66482 2458
12150 1095 23090
12150 353 20481
12150 693 6526
12150 202 17826
12150 1404 10231
12150 80 10459
12150 904 16730
12150 1043 21598
12150 1693 7864
4545 64301 43310
6042 59140 43310
9615 46065 43310
6130 57464 43310
6653 53745 43310
45616 31492 43310
10911 2269 17352
10445 2269 4787
11814 2269 11377
10559 2269 8431
11946 2269 4471
11939 2269 15410
46950 21405 37282
46950 21753 42550
46234 21182 3644
46913 21182 25825
47706 33713 43501
5204 64377 2595
45437 7737 1375
45437 6688 1668
45437 21232 2214
45437 8610 2010
45437 7405 2377
10545 43816 10834
10812 42817 18621
10745 43070 6482
10701 43229 20473
10678 43318 4602
10694 43260 30692
10750 43050 36784
10707 43213 13058
22042 37825 2457
36435 37825 1984
39490 37825 815
33750 37825 1974
46650 37825 1040
47442 37825 780
3012 63046 1255
5066 55380 2185
3257 62131 2423
4545 57327 1950
425 72700 1367
23249 1004 45579
10307 938 45579
12448 1276 45579
27394 2241 45579
35966 1905 45579
24689 1597 45579
13221 628 45579
14024 1968 45579
27715 35367 43157
33315 37323 0
29318 37719 0
40403 36218 0
34615 37545 0
40269 37682 0
46258 28747 23521
45940 28747 40350
46115 28747 17403
45456 28747 13066
46434 28747 38541
45961 28747 31606
47123 28747 36365
24279 35477 0
16898 35431 0
20499 36058 0
15367 36447 0
17694 36925 0
46093 6327 189
47475 612 189
47136 5520 189
45977 4599 189
47658 27972 189
47077 8851 189
47667 1770 189
46811 3925 189
46990 36442 2458
45437 30990 3950
45437 30641 29598
45437 29712 19817
45437 30144 3857
45437 29510 3162
10486 38773 43310
45437 15831 2203
45437 16397 2078
45437 18375 2403
11902 38750 44991
12744 37825 2324
47706 582 44319
47706 10185 43664
47706 1121 44117
47706 3866 44358
47706 10804 44685
47706 18820 43769
47706 2673 45091
45654 22973 2458
45829 13404 2458
1100 74633 2632
24773 37095 45579
7886 45272 43595
6935 57290 43905
2497 73851 44008
5422 62934 44340
9534 48444 38457
11287 2269 21892
11617 2269 23469
10534 2269 7666
11356 2269 16662
11214 2269 10228
11939 2269 19715
11236 2269 14441
11981 2269 25387
46682 18156 13106
45437 32131 43631
43076 36213 43310
31086 37720 43310
27145 37715 43310
9448 42408 18333
8710 42211 30158
9694 42475 31871
8969 42280 31190
9469 42414 26693
8836 42245 33299
9022 42295 28053
8866 42253 34595
20925 2269 45318
43989 2269 44931
24893 2269 44965
36509 2269 43968
28371 2269 45414
32311 2269 45415
45437 13463 45040
45437 7445 45409
45437 12915 44273
45437 8305 44358
45437 16223 44973
45437 17182 45556
45437 27832 45189
46115 9075 43310
6885 57917 0
8322 49813 0
6355 59053 0
5158 59544 0
8633 44540 42360
9799 44852 22815
9230 44700 34772
9979 44901 26465
9982 44901 18376
33528 0 43650
21367 0 43336
40884 0 43720
27431 0 44055
42215 0 43383
37508 0 43982
13663 37581 43192
5035 64378 1084
5925 61056 1645
3057 71759 1646
4759 65410 1068
46506 24964 22013
46374 24964 14465
46505 24964 42306
8302 43718 32499
8550 42792 24812
8646 42432 25549
8313 43677 31277
25217 998 189
19321 2248 189
15840 675 189
12335 1415 189
30465 1454 189
8464 44495 14137
8859 44600 20701
9101 44665 15549
8678 44552 26516
9387 44742 5833
9265 44709 8828
7463 47155 45579
1978 72263 45579
7721 46005 45579
2450 71061 45579
4059 62190 45579
16783 37825 888
34283 37825 905
12184 37825 2194
46193 21498 2473
46193 21342 9486
8425 43258 7171
8120 44398 39986
8329 43618 28358
8349 43542 18128
8566 42733 4291
8561 42751 11695
27760 482 43310
19426 378 43310
40635 1115 43310
29122 496 43310
32033 959 43310
5021 58340 189
5382 55044 189
7216 47823 1817
22787 1644 43310
29881 1332 43310
40450 2231 43310
19998 2066 43310
15561 750 43310
29244 1287 43310
30779 36044 0
35178 35606 0
42015 35453 0
13894 37106 0
5583 53452 44989
6069 51640 44305
928 70825 43173
2989 63134 43286
6903 48527 44470
47706 4939 45071
47706 5669 44881
47706 1173 44842
47706 15733 43782
47706 2694 43799
47706 9656 44768
13237 35626 43310
12329 36195 43310
18645 36419 43310
47664 10933 43310
47589 5024 43310
7964 54797 24
6370 60752 520
5887 62555 1066
3747 70544 481
4691 67018 1300
6312 54068 45768
8386 52318 45768
6321 57031 45768
4786 63391 45768
8480 51316 45768
3816 60046 530
6248 50970 1778
41979 2269 620
39022 2269 658
41202 2269 1634
30811 2269 2194
45119 2269 380
33365 2269 1227
46812 35887 189
46323 30030 189
47093 29399 189
45976 21641 189
45543 16404 189
6020 60702 2417
3053 71778 711
6617 58477 1491
3652 69541 980
47706 33222 1712
6480 54782 43310
9199 48778 43310
4300 65242 43310
9536 39113 2373
46950 18036 31482
46950 17878 42306
26348 35556 1741
18525 35556 1399
13785 35556 455
29356 35556 1482
36447 35556 2357
47323 2319 2458
46043 15993 2458
45437 10031 43522
45437 21515 43327
45437 6826 43578
45437 26904 44937
45437 13276 43396
20901 38016 26243
29929 38016 44240
16021 38017 14818
14123 38017 45158
36908 38015 44850
20699 38017 18903
14846 38017 26416
35244 38015 39332
22231 38016 36452
21097 38016 32430
26506 38016 31862
18583 38017 34047
33233 38015 40898
21131 38016 41061
13956 38017 42498
24669 38016 31790
14130 38017 18711
26430 38016 21937
23407 38016 41616
16122 38017 18849
17011 38017 42425
20401 38017 29909
28724 38016 41740
21207 38016 22504
18346 38017 24227
16007 38017 44269
14365 38017 7821
31769 38016 33108
15249 38017 21682
24577 38016 20750
15450 38017 34344
17948 38017 12102
24185 38016 29620
29907 38016 39985
20691 38017 34770
15105 38017 37986
29826 38016 45365
27485 38016 32369
18160 38017 14808
19484 38017 11552
15309 38017 5354
15003 38017 10880
32979 38016 39782
18765 38017 35595
22087 38016 30883
27089 38016 28962
31516 38016 41997
14202 38017 10264
19134 38017 33874
23431 38016 39533
22648 38016 18457
23087 38016 42518
22549 38016 15901
15599 38017 20270
17470 38017 26843
20788 38017 21615
16502 38017 17907
22712 38016 29292
20841 38016 23082
25100 38016 28875
36740 38015 42086
19526 38017 44818
18751 38017 14432
24044 38016 21352
20896 38016 16423
37190 38015 44348
20855 38016 14323
16602 38017 13508
23137 38016 17468
18694 38017 39596
14565 38017 35500
24331 38016 41896
22699 38016 41665
29929 38016 37184
29010 38016 45646
26844 38016 30428
18287 38017 37157
24443 38016 28503
17997 38017 31586
24824 38016 43986
19410 38017 36426
15455 38017 30192
34629 38015 37109
15326 38017 36574
20603 38017 41927
28049 38016 36970
33382 38015 35934
20998 38016 29283
23857 38016 22653
32800 38016 41373
13951 38017 15877
31557 38016 38432
8471 52908 33747
6245 61215 25970
8419 53097 22873
8222 53831 33959
7089 58064 43536
7609 56121 24762
9324 49717 45261
5860 62655 24682
8206 53894 45135
9495 49084 15734
7536 56399 36629
9512 49015 45562
6466 60391 36649
8228 53815 42179
2775 74174 44392
6567 60016 34184
7557 56319 26349
8810 51640 13826
5760 63030 31908
3760 70496 38407
9335 49682 23539
9117 50496 25638
5477 64079 31061
4725 66890 34935
9343 49651 43963
6439 60494 42174
9169 50298 30801
5210 65083 36326
5611 63586 31349
8709 52017 18493
4115 69169 39298
9266 49939 34746
7686 55839 27546
5598 63635 41244
7361 57049 35069
9296 49828 12334
9589 48733 40134
8608 52396 41729
9027 50832 40780
8291 53580 18668
7650 55972 17271
5387 64422 41433
7196 57667 45410
6193 61411 43517
8935 51173 18538
6344 60847 26741
9427 49339 40209
8744 51884 40396
5031 65750 37371
6209 61353 23285
6875 58864 27550
8494 52819 43467
7188 57697 29387
4332 68358 43006
8944 51141 39530
5235 64989 41738
5820 62802 33147
4451 67916 36990
7512 56484 20057
7146 57853 34138
9332 49693 11209
8387 53222 25995
5661 63397 35881
6594 59916 39375
7929 54928 20963
8109 54254 29767
8907 51277 25865
9191 50216 8502
8922 51222 10029
8180 53992 17987
8627 52321 34690
5774 62976 28779
8038 54523 34012
7339 57134 28572
8029 54555 16483
5884 62566 44824
7017 58332 36441
5008 65835 32629
5950 62317 37651
7611 56117 15026
5865 62636 37063
5234 64992 37413
3702 70711 39766
9246 50012 32253
6246 61214 31839
6439 60491 28529
9215 50131 39478
9654 48487 32114
5046 65694 31389
9082 50624 12795
46717 17399 18047
46623 17399 14025
46617 17399 4689
45476 28747 30894
45676 28747 12536
46938 28747 38246
45906 28747 27259
45902 28747 41762
45786 28747 26605
40075 35556 44749
43463 35556 43800
45305 35556 45419
36688 35556 43793
25367 35556 43396
20803 36020 2647
24838 36369 2647
27726 37449 2647
29798 37077 2647
46705 18156 36734
46941 18156 6049
46828 21939 36934
21029 714 2458
26318 1091 2458
21256 1689 2458
25495 1167 2458
21978 2197 2458
18115 1069 2458
2447 74993 8930
24718 37524 189
34895 36677 189
23148 37420 189
37039 37373 189
5701 54133 189
5454 56092 189
3771 61106 189
1746 74269 189
46806 17399 41988
46604 17399 30797
14618 36369 2647
18107 35944 2647
15251 36173 2647
30252 37499 2647
37661 38015 22419
35702 38015 9870
26189 38016 4526
41889 38015 34509
37190 38015 23971
40632 38015 8561
42532 38015 34976
26038 38016 12921
23613 38016 3714
23076 38016 7521
32885 38016 21115
32289 38016 10403
39619 38015 11371
38208 38015 26435
39027 38015 3792
40762 38015 1244
39590 38015 21685
23152 38016 5978
35203 38015 8927
43023 38015 30597
23729 38016 14026
32157 38016 23909
34782 38015 19771
40228 38015 35881
43087 38015 38044
21719 38016 6418
43403 38015 7418
30745 38016 24744
26351 38016 6154
34306 38015 14538
42412 38015 805
26793 38016 16899
42455 38015 38016
41853 38015 15797
21356 38016 5890
40930 38015 38974
23434 38016 10674
42115 38015 42578
25073 38016 10625
43648 38015 40381
36309 38015 33537
42083 38015 14591
41791 38015 33444
43647 38015 37127
33272 38015 14353
34485 38015 23135
33019 38016 28721
39858 38015 12967
39771 38015 6761
32566 38016 26998
34148 38015 6515
43697 38015 38620
23540 38016 15562
34033 38015 11494
29550 38016 5007
42619 38015 6434
24399 38016 13709
42444 38015 20807
28577 38016 4890
35338 38015 32412
37514 38015 10854
30382 38016 5539
25903 38016 2593
28481 38016 23352
22578 38016 6484
27227 38016 16106
22571 38016 14178
41616 38015 12799
42152 38015 6006
40324 38015 35207
42265 38015 26566
41602 38015 26205
25756 38016 1982
38983 38015 13821
31789 38016 5711
42820 38015 24080
24235 38016 16925
32071 38016 13935
32272 38016 20012
42744 38015 31141
40062 38015 26558
35029 38015 6602
33457 38015 21704
40545 38015 20907
35488 38015 17319
41674 38015 12111
30116 38016 3120
32768 38016 2920
34331 38015 22084
40144 38015 16417
40142 38015 4902
39878 38015 36384
24892 38016 9663
30406 38016 12202
42135 38015 29436
41387 38015 4463
43083 38015 35975
11221 41294 43702
47241 23535 43310
9912 41229 43310
46583 25721 26612
46740 25721 19042
46763 25721 16175
35770 876 2458
26327 437 2458
39748 913 2458
21976 37 2458
31112 228 2458
35279 36081 2647
43402 35448 2647
40782 35711 2647
19500 35666 2647
46342 16348 189
47213 14355 189
47692 19718 189
47127 20027 189
47560 18819 189
47650 32720 189
46193 17610 35205
46193 18038 40462
46193 18008 41347
47706 35343 45299
47706 16103 44723
47706 28305 44329
47706 26172 43683
47706 24443 44645
9514 48438 9909
29399 38016 1239
17254 38017 1497
15286 38017 52
21724 38016 557
46306 18893 43310
5773 58448 45579
9286 44833 45579
8124 48194 45579
9069 48072 45579
19794 37013 2458
33084 36318 2458
16699 35998 2458
25564 35822 2458
689 73424 45579
3227 68637 45579
3606 65928 45579
44423 36875 189
30172 37798 189
43588 37019 189
32815 37781 189
32674 36815 189
20045 37554 189
46803 37670 189
26744 35367 2273
19376 35367 893
31725 35367 2185
47524 37111 45579
47119 28912 45579
47160 23792 45579
47195 22919 45579
47249 29685 45579
45896 31197 45579
5202 55286 1538
