ply
format ascii 1.0
element vertex 2747
property float x
property float y
property float z
end_header
50404 34646 13231
10186 47267 12413
7745 50702 6068
12078 44604 14099
11865 44904 13509
11340 45643 14388
8944 49015 12773
10720 46514 3692
7534 50999 17011
13724 42287 7714
7221 51440 23422
8030 50301 22078
7421 51157 25389
12057 44633 4586
7382 51213 5020
10198 47249 14693
8621 49469 22841
12280 44319 10753
10354 47031 5069
13768 42225 8961
37304 33592 2962
21090 34348 20782
60890 22181 28141
13751 37887 38510
49442 4379 50059
20386 33965 42227
60857 22393 45181
24222 51498 52341
21414 51498 51473
27140 51498 50288
19205 51498 52204
28762 26127 6053
33155 20993 17340
44158 16759 0
4808 51092 32112
44091 15564 0
182 2362 30243
48015 32562 46969
32628 20806 8537
52115 34128 18180
19416 24351 46969
27128 46695 53022
56906 28066 20662
58718 25515 19343
60672 22766 16044
57441 27314 18263
59334 24649 26191
59012 25102 21572
58092 26397 17532
56879 28104 26157
55109 30595 24345
60308 23278 15712
59526 24379 9838
57957 26587 22834
25644 43109 53022
19505 9801 46969
31881 20395 31689
36992 16982 50098
23420 36085 50561
41103 11196 50549
27885 29800 50511
37539 16211 50836
39519 13426 50403
13 1795 32084
25786 11350 41610
25844 11442 38815
24530 9344 39608
22829 6629 40836
26437 12389 34311
24143 8728 38234
25333 10628 41466
30504 18884 27225
25957 11624 43566
27862 14665 38673
23738 8081 43214
30461 18815 45662
29405 17128 40686
24554 9383 46564
21758 4919 43860
21674 4784 46572
30066 18183 33771
28572 15799 42071
27902 14729 45923
30540 18941 43101
29096 16635 37869
29275 16922 44899
33759 21105 14288
45016 21132 34728
59298 21132 45778
43401 21132 29213
51243 21132 35913
50492 21132 31341
43060 21132 28642
57880 21132 38317
56331 21132 26730
50359 21132 34821
56085 21132 36288
52847 21132 35973
58358 21132 37885
53568 21132 36759
54442 21132 36116
55884 21132 43689
45155 21132 33657
48014 21132 33037
54489 21132 41648
57661 21132 41395
45597 21132 31171
52271 21132 37962
53992 21132 37564
50930 21132 28642
57274 21132 38904
860 135 13985
60695 21498 10976
5830 51498 51666
6611 51498 48344
405 485 6785
25892 30735 46969
39571 24556 46969
4696 50363 11503
13275 42920 40445
17000 37677 40843
9646 48026 29681
16640 38182 41869
8841 49160 26578
10736 46491 29538
16150 38874 33455
11921 44823 32960
10848 46335 32207
15955 39147 35692
15639 39592 40345
16863 37869 36192
12931 43403 32471
8921 49047 27961
15903 39221 28663
10536 46773 30237
13051 43233 30193
16203 38799 31002
16953 37743 45526
11675 45171 34451
49140 32342 6053
13165 23116 22454
12701 22374 19629
15334 26578 15113
13644 23879 21072
10194 18372 22660
13452 23573 26416
14405 25094 20573
14758 25659 13188
17063 29339 13661
9849 17820 21058
6548 12550 22682
17560 30132 23476
13090 22996 24980
19033 32483 12460
6108 11848 21408
8224 15226 21347
6973 13228 23521
16665 28702 20060
13473 23606 13770
16626 28640 11381
7113 13451 24904
15890 27466 15930
11910 21111 18461
17630 30244 18918
6172 11948 25394
18534 31687 18917
18304 31320 22146
4741 9666 22515
9603 17428 21999
17560 30131 24863
18878 32237 20290
12461 21990 16035
19064 32534 17905
18579 31759 23659
3544 7753 24698
29716 45949 53022
16561 37670 37652
16418 37670 40739
53114 33331 37921
42543 18797 0
29904 25455 6053
50579 31796 6053
189 2374 24551
46531 11822 0
38547 30193 0
24017 8526 18474
21412 4367 11788
24011 8517 24973
20085 2249 8749
23688 8000 23310
24558 9391 23082
20456 2841 18414
19609 1488 11871
22203 5630 19846
25305 10583 22437
21060 3806 22325
20008 2125 22464
21558 4600 17788
22431 5994 21068
27591 14233 22713
21301 4189 21533
24492 9285 21505
24325 9018 20490
20245 2504 26159
21419 4379 23396
18892 343 7381
21502 34496 37983
5035 51345 24474
56317 0 2906
64597 0 1895
30987 19569 29607
6643 51498 14374
7084 51498 11235
22033 34613 40189
46655 21132 43669
39627 21132 44946
40793 21132 45851
42038 21132 35165
41967 21132 43280
41126 21132 42352
41879 21132 34470
46281 21132 41403
46265 21132 39898
42632 21132 37714
36262 21132 42905
38175 21132 34626
41063 21132 43265
59035 21132 46583
35261 21132 40909
38908 21132 33508
43101 21132 42448
37875 21132 40109
34371 21132 40720
46213 21132 40631
40261 21132 31555
38014 21132 32939
42012 21132 45160
47983 21132 39331
36196 21132 34590
43522 27572 46969
20124 33769 32151
31227 50509 506
24845 31276 46969
7406 1297 46969
9589 362 46969
51808 34287 33822
12629 49509 50059
19303 46959 50059
20884 43164 50059
24526 44891 50059
21396 44226 50059
10867 50957 50059
15122 49461 50059
19697 45686 50059
21793 42604 50059
11613 51283 50059
21485 39745 50059
25941 48530 50059
23073 48164 50059
26903 50954 50059
15015 45003 50059
20872 26022 6053
60621 0 52429
56766 0 52956
27543 43445 0
32012 49723 2609
622 283 46857
5510 50418 0
55773 29661 21670
60336 23239 19044
58632 25638 23458
54221 31845 25555
60110 23557 9738
56892 28087 19349
59252 24764 11252
58816 25378 16139
57087 27811 17142
20641 30935 6053
24327 50356 0
15894 50079 0
21839 40905 0
18678 43063 0
24500 51392 0
24190 48959 0
17471 47859 0
19369 42500 0
13611 46611 0
25632 49432 0
19237 45540 0
17193 45773 0
27589 50596 0
10964 50324 0
21392 44864 0
21157 45706 0
21272 34423 45995
37635 21132 21301
53393 21132 6124
35989 21132 18835
44129 21132 18035
56434 21132 8443
40457 21132 15126
50650 21132 11481
37543 21132 15662
43126 21132 6596
39370 21132 6376
44416 21132 16818
46693 21132 10476
45347 21132 11143
46551 21132 14635
36651 21132 17033
47241 21132 8892
34785 21132 19879
35469 21132 19904
35449 21132 9008
40296 21132 17805
44348 21132 11516
36605 21132 18825
47775 21132 11566
40712 21132 8807
34416 21132 12901
36180 21132 8732
52920 33526 39374
55881 29508 11670
54573 31350 19772
54954 30813 8605
59202 24835 7107
54963 30802 17793
55962 29396 16232
56426 28742 6169
56362 28832 15610
54496 31459 10359
57146 27728 8221
53522 32829 20187
54487 31471 11966
30535 50970 50310
23216 36884 2962
19734 33411 18135
30323 51074 1505
46067 8134 53022
52860 33584 20441
19640 33311 22836
44908 34656 23567
28199 34656 18597
35329 34656 25258
30326 34656 14425
31074 34656 20216
34808 34656 17848
34341 34656 20916
26912 34656 11913
37319 34656 17282
22831 34656 18274
28009 34656 24560
45507 34656 23467
23705 34656 9372
31106 34656 22216
23672 34656 22269
32358 34656 14692
42444 34656 23237
32528 34656 21678
31247 34656 16546
45769 34656 24821
30536 34656 21298
28914 34656 19923
25884 34656 21164
37880 34656 20243
36792 34656 22698
38048 34656 24736
51050 33164 6053
20084 33738 10173
24305 51498 51285
10880 51498 52970
25533 51498 52442
28022 46922 2962
9754 51498 1521
13245 51498 2776
12024 51498 1057
60190 10081 934
66306 1473 2382
52188 21343 1755
53696 19220 2031
64003 4715 1228
50565 23627 2521
48115 27076 2491
59607 10901 1487
63717 5117 2451
26495 26114 6053
22153 24149 6053
23364 22743 6053
25777 23154 6053
24339 27843 6053
20544 12453 6053
28858 17414 6053
24216 24015 6053
23586 14869 6053
22589 23477 6053
28212 23305 6053
21809 26869 6053
25668 20589 6053
24686 10678 6053
22131 12514 6053
21389 8949 6053
53128 33316 45749
51553 21132 14174
48361 21132 16863
59522 21132 15696
58185 21132 17605
46330 21132 24721
59560 21132 23008
56126 21132 22230
57770 21132 12618
58163 21132 20291
51819 21132 23008
53752 21132 11436
47924 21132 19167
58967 21132 16828
51791 21132 24877
43341 21132 21313
47411 21132 25073
51481 21132 15498
59494 21132 7736
38071 21132 24347
53512 21132 22297
53104 21132 13623
56383 21132 12396
50535 21132 13776
38552 21132 23990
55576 21132 12990
19586 1452 33799
23535 7757 36917
22277 5748 28224
23156 7152 29770
27547 14162 27988
23162 7161 28083
23911 8357 35188
21195 4020 33878
21666 4773 27853
24037 8557 37192
20397 2747 39145
20314 2614 42321
22570 6216 32700
20344 2663 27330
23981 8469 30814
22168 5573 40090
22815 6607 34334
23835 8236 36416
21330 4236 31584
27881 14694 28535
21947 5221 31932
28118 47991 0
22140 34627 23358
46839 15487 53022
34467 44575 53022
53778 7737 53022
58272 6197 53022
46105 17717 53022
60157 8184 53022
58408 7273 53022
45565 21616 53022
51043 7468 53022
43201 32204 53022
46481 14058 53022
48609 23088 53022
49368 20727 53022
44781 24762 53022
54771 16023 53022
56398 12388 53022
36423 39241 53022
51102 9948 53022
51685 19204 53022
49372 21843 53022
42160 27970 53022
41025 30561 53022
46423 22095 53022
41658 30218 53022
52423 12163 53022
53836 363 53022
39611 35453 53022
37815 37598 53022
48162 9954 53022
48997 25729 53022
34786 44025 53022
41537 28467 53022
39396 37727 53022
51183 22057 53022
47663 20159 50059
39781 36551 50059
57530 3342 50059
51796 16757 50059
47314 15941 50059
41666 30920 50059
66569 449 50059
39631 33020 50059
57039 6012 50059
45768 22623 50059
55793 8654 50059
55651 13027 50059
44040 28454 50059
45740 26174 50059
51918 4673 50059
54148 3630 50059
55049 11574 50059
39539 38477 50059
59196 10628 50059
55829 16211 50059
52744 9060 50059
40438 35737 50059
59267 3992 50059
36576 41548 50059
51585 2754 50059
46905 18260 50059
55533 9686 50059
62433 626 50059
42090 32500 50059
46610 13369 50059
58374 11956 50059
41371 31955 50059
57704 11384 50059
51582 19063 50059
36675 22723 46969
52484 33889 17280
13913 0 35897
8807 0 26992
15631 0 40546
8216 0 26702
13123 0 33851
16355 0 42415
18159 0 33991
12394 0 31176
15407 0 41925
16254 0 33439
7524 0 28050
8147 0 32944
17603 0 30642
15001 0 32997
12284 0 29031
41104 21560 53022
35287 21240 53022
33675 23937 53022
34833 27705 53022
36331 33170 53022
36365 21747 53022
29540 29382 53022
33035 41557 53022
31055 39565 53022
29798 36035 53022
39925 17593 53022
36072 23068 53022
41657 15544 53022
34292 31913 53022
34601 30457 53022
39164 21462 53022
30353 37864 53022
33547 34681 53022
43322 11391 53022
28817 42192 53022
36490 35052 53022
39015 14707 53022
33741 33086 53022
33726 43336 53022
33843 31314 53022
35173 35115 53022
37424 16608 53022
41210 11981 53022
37782 21611 53022
28220 44742 53022
47534 6030 2962
18060 37670 2587
28290 47886 53022
49559 2680 0
20314 37670 35
53143 33299 29153
52012 25966 6053
47544 27564 6053
53864 21498 6053
54770 29504 6053
46059 21467 6053
53733 32252 6053
43797 22091 6053
56614 23129 6053
40984 24842 6053
47071 25943 6053
43167 23532 6053
54459 27075 6053
53457 25836 6053
55213 25920 6053
49928 28696 6053
46483 3624 51056
28165 29407 52995
43930 7217 50680
42662 9002 50769
44850 5922 52148
41068 11246 51323
21831 34578 38670
15587 39666 17685
15135 40302 17834
16606 38231 17848
13897 42044 19699
16844 37896 26323
14604 41050 22050
16667 38146 14193
16813 37940 12841
14145 41693 15868
13070 43208 17852
16902 37815 3980
12090 44587 23477
15453 39854 19174
8646 49434 24395
12495 44017 21802
14897 40637 24761
13850 42110 15320
7326 51293 26331
30784 19308 10797
3951 8403 16966
11686 20753 13584
3684 7977 7243
2747 6481 16139
1779 4936 24249
3201 7204 20829
2376 5891 6095
14911 25903 7620
4038 8542 14411
9204 16790 11053
884 3507 14494
11269 20088 6866
1302 4174 21813
9790 17726 13648
12248 21650 9514
2189 5589 15821
1518 4518 8663
4322 8996 11477
12087 21393 6837
7916 14733 7418
9058 16558 13365
7699 14387 7880
14287 24905 10212
17355 29805 7709
2848 6643 14799
3133 7098 10731
10965 19603 13515
2050 5370 9203
9842 17809 12068
11172 19933 11894
2070 5400 6224
7379 13877 16038
7173 13548 15580
12714 22395 11563
3010 6903 12169
58326 26068 42170
53538 32806 45598
54266 31783 43622
57828 26769 39494
54336 31684 41712
54174 31911 38318
57969 26570 42567
54579 31341 31171
55612 29887 35316
55013 30731 32790
55398 30189 32682
58071 26426 41271
46709 10156 53022
6146 1603 46969
8665 833 46969
50681 34619 6798
14207 42294 2962
17917 40106 2962
42105 23898 2962
22033 34613 28800
48345 6197 0
26279 26122 46969
19645 7817 46969
20315 9342 46969
21964 27624 46969
26896 20841 46969
23894 8489 46969
20480 6848 46969
22402 29438 46969
20385 8710 46969
27227 14017 46969
23010 30864 46969
27173 23737 46969
24300 17499 46969
28268 21048 46969
60423 21251 12036
58879 23268 6053
12730 22420 21085
10430 18748 16746
13550 23730 20382
13473 23606 21611
9333 16997 24043
15311 26541 19314
13646 23882 24802
9359 17038 19904
12803 22537 16046
11409 20311 24628
13074 22970 15717
3140 7109 25102
8047 14943 26503
9806 17754 16522
10286 18518 20487
15567 26950 15924
10006 18071 25757
12706 22382 23121
15257 26454 25385
4994 10068 24536
8690 15971 22057
13956 24378 24136
4568 9388 24693
2949 6805 26266
4136 8701 22858
14108 24620 16913
13889 24271 17348
8493 15656 19991
17104 29403 18751
14280 24894 18006
14561 25343 11664
33841 21116 38752
27893 34656 31433
33311 34656 27301
34448 34656 28240
24836 34656 42650
32610 34656 39415
26663 34656 40860
37014 34656 36090
23899 34656 40387
34691 34656 30870
44229 34656 29276
23379 34656 29979
28073 34656 27497
30400 34656 26587
26262 34656 43389
22728 34656 27277
29688 34656 34537
41625 34656 29089
25194 34656 40393
37822 34656 30240
27499 34656 35013
41933 34656 27003
23453 34656 27658
27535 34656 28114
45193 34656 26641
24767 34656 41763
37768 34656 27959
27005 27050 46969
47227 5174 2962
19705 33381 43278
59753 0 51833
57734 0 51501
55661 0 52296
60717 22698 16702
16703 40928 50059
17567 39220 50059
36086 22476 6053
21396 34463 25408
9243 0 34012
17737 0 28459
3289 0 27845
15042 0 38904
16728 0 43851
15734 0 29319
12646 0 29629
9715 0 33362
6832 0 26916
16570 0 37393
16302 0 29010
11439 0 30330
14470 0 27074
9656 0 30874
13419 0 32754
11548 0 37264
16417 0 34117
29224 27916 52027
29611 27371 51048
32280 23615 51701
26858 31246 52468
31888 24166 50199
60285 21185 7202
50894 34584 29840
15330 40026 46845
7742 50706 33474
7350 51258 47250
10817 46379 48302
11395 45566 38297
7666 50814 36863
9981 47555 49359
14280 41505 47920
10540 46768 44155
9440 48317 35187
13711 42306 48316
10265 47156 37307
7543 50987 42324
9049 48868 40991
9139 48741 38978
11656 45198 46414
10920 46235 35896
8310 49907 42642
12630 43827 49480
30504 23434 6053
4841 0 20066
2326 0 15791
13880 0 7511
9428 0 10503
12226 0 10134
7354 0 13115
14064 0 10023
4861 0 17124
2105 0 17031
5043 0 6363
12645 0 6935
12548 0 8003
5433 0 20785
2874 0 10710
4020 0 20088
5080 51375 31303
33536 45531 53022
27202 43642 2962
9923 42877 21927
8851 44386 16605
11525 40621 25345
8150 45371 17430
11253 41005 22875
11650 40445 23420
8520 44851 18310
5056 49725 1856
6511 47678 11953
4930 49903 13965
8542 44820 15917
5585 48980 18936
5006 49797 13112
7521 46255 25477
5627 48923 8876
5234 49476 16050
7183 46733 23783
6329 47935 14135
52669 33747 45510
20150 33789 6947
51662 22084 1096
34551 46167 1407
63186 5864 217
59028 11716 375
36089 44002 360
44161 32641 686
61091 8812 9
32331 49291 436
47825 27483 1043
49726 3372 2962
9519 43446 40411
8548 44812 51506
12520 39221 52815
9626 43293 43394
12543 39189 31781
10146 42563 36835
8211 45284 42611
12875 38722 52424
11675 40410 45948
7271 46608 49029
7210 46695 46276
12955 38609 30218
12494 39258 28351
5722 48789 50453
11079 41249 51930
6794 47280 52324
10686 41803 52856
9390 43627 41913
22935 36688 50584
19174 32706 38874
13253 51498 51955
17691 51498 51024
28391 50706 53022
8647 49164 53022
22731 47216 53022
17366 42072 53022
18353 42461 53022
22774 42353 53022
22115 38117 53022
20099 50337 53022
21469 49146 53022
21079 47649 53022
19619 43498 53022
25872 49198 53022
23080 40368 53022
16005 42840 53022
20640 44990 53022
17534 50355 53022
24343 40790 50059
51896 34244 44309
25960 34656 25854
38061 34656 21421
36094 34656 21983
25155 34656 15675
35671 34656 20017
28732 34656 14363
27631 34656 20625
38577 34656 19738
29148 34656 18979
43606 34656 25529
40896 34656 25084
30108 34656 19770
23824 34656 25797
34638 34656 15422
35664 34656 23251
32028 34656 13240
29182 34656 22814
42894 34656 24283
40773 34656 24032
29562 34656 25650
22749 34656 23090
35628 34656 18750
36603 34656 18030
22944 34656 9934
28675 29800 46969
43946 30351 46969
36018 22770 46969
36649 26796 46969
35939 23835 46969
33546 21990 46969
44803 31382 46969
40806 32511 46969
26162 32694 46969
38958 27132 46969
37279 32327 46969
27479 29019 46969
31477 27745 46969
34734 28090 46969
33445 23202 46969
37454 24275 46969
39811 30149 0
48453 6690 53022
5082 51375 14630
38868 30200 50059
6793 51498 7758
5623 51498 9283
336 2632 43758
3725 8045 42552
3263 7304 45420
7042 13339 43928
8443 15575 45323
5784 11329 45783
3746 8076 32324
5228 10441 32901
10447 18775 37692
4566 9385 42136
1078 3815 40080
10995 19652 43268
8409 15522 36837
2357 5858 42401
4379 9086 43055
4125 8681 30745
5377 10679 34284
7427 13954 42620
15532 26894 43087
5299 10554 36316
9104 16630 46460
6037 11734 41086
3688 7983 43523
10006 18072 46171
16694 28749 45766
2286 5746 30943
566 2999 39870
2464 6029 32558
11880 21064 46882
1402 4333 35462
10954 19585 43864
12839 22593 42153
12619 22243 44973
4961 10016 33266
20077 37670 1557
19859 33536 28666
46746 10107 2962
16747 41742 0
31356 23943 6053
54468 24023 6053
49709 26394 6053
39544 24115 6053
45630 22125 6053
48071 24127 6053
54513 26396 6053
50056 26889 6053
51879 26725 6053
52652 27325 6053
52990 23912 6053
47791 22817 6053
56450 24623 6053
52178 22560 6053
12062 49948 0
20007 45707 0
21915 48304 0
17222 46417 0
16981 43979 0
15205 46069 0
17687 41236 0
18787 41438 0
19622 40056 0
6909 50906 0
22631 37468 0
19439 48529 0
21154 3954 45474
27224 13646 33209
29669 17550 29987
28990 16466 43662
29751 17680 45941
30173 18354 30849
28372 15479 37509
27695 14398 46348
28444 15594 40128
25715 11237 36302
28466 15630 35133
28394 15515 36839
24979 10061 44343
29882 17889 39741
20307 2603 44992
30247 18473 34893
30073 18194 46895
27614 14270 37375
26998 13286 38790
13619 37962 12555
60890 22206 34972
19395 33020 15165
7781 47744 0
31005 19592 32374
4746 50206 50607
7261 46622 5781
12444 39329 4169
12567 39155 17445
11308 40927 1122
11120 41191 9468
6554 47618 3720
11450 40727 14725
10601 41922 7285
11136 41169 1699
9816 43028 14353
12760 38882 16813
9329 43713 2382
10751 41712 13881
10417 42181 16236
12590 39124 13651
11072 41259 162
9435 43563 4188
12692 38979 8013
145 2289 21599
37329 34981 2962
58773 23992 6053
8460 44936 48432
12855 38750 50866
10028 42729 51217
9419 43586 45344
10040 42712 40740
11628 40477 31026
7570 46188 53011
12685 38987 29846
12859 38744 29154
9706 43180 38759
5737 48768 51680
9061 44089 50688
11566 40564 38376
10173 42525 39919
12355 39452 29569
14176 37726 6753
33073 20967 6170
2760 0 19836
14251 0 6896
2474 0 22306
12928 0 11553
7298 0 11635
12399 0 11028
8231 0 15180
6348 0 7502
1464 0 9901
5741 0 20128
3624 0 12298
14252 0 6176
11586 0 10903
1907 0 14866
13367 0 9701
48156 1655 50059
45498 9639 50059
60224 21165 36072
6545 51498 35421
6866 51498 28924
15902 37670 26265
16991 37670 19948
14979 37670 24036
48745 3772 2962
261 674 27479
32967 20933 27470
34295 34343 50059
37679 30550 50059
32937 26850 50059
33337 43673 50059
37345 22969 50059
33213 28166 50059
36926 32296 50059
40800 12784 50059
25027 34567 50059
42847 10965 50059
30685 29796 50059
31378 34879 50059
31062 26175 50059
35698 36539 50059
43719 12343 50059
37697 27265 50059
45856 6536 50059
30669 42114 50059
25044 36535 50059
27923 41384 50059
34080 35923 50059
32614 45504 50059
30788 26681 50059
36929 31402 50059
31218 33952 50059
30222 44769 50059
29833 39409 50059
27550 34005 50059
28311 40218 50059
21602 34527 9904
55946 29417 40040
60360 23206 46453
54765 31079 31757
53989 32171 37223
57167 27699 44470
57331 27469 40344
53661 32634 29162
57229 27612 42918
6373 6851 46969
11524 20411 46969
8054 5849 46969
17896 19833 46969
4812 9636 46969
12123 18528 46969
9334 1803 46969
4301 2660 46969
12817 5100 46969
14844 18506 46969
18376 25548 46969
15768 6665 46969
6903 7797 46969
10722 11399 46969
8578 14989 46969
13422 8703 46969
15556 1973 46969
15390 10427 46969
13493 9344 46969
12276 5930 46969
16322 7517 46969
8578 1927 46969
13264 1745 46969
12590 8377 46969
16853 10043 46969
16733 17653 46969
3491 3129 46969
15116 20181 46969
27111 47072 50059
56085 21132 13485
45511 21132 20348
53270 21132 18701
43477 21132 19559
55761 21132 14084
53732 21132 17756
44540 21132 20471
45598 21132 23919
50019 21132 23191
43711 21132 23014
59035 21132 24556
49888 21132 25747
56986 21132 13673
54156 21132 19608
49764 21132 18047
48078 21132 21295
49815 21132 21478
42397 21132 24910
53543 21132 22848
37265 21132 25814
209 2414 40685
36624 37203 2962
33519 21073 8452
48455 7629 50059
13936 37804 7515
7539 47175 53022
31823 49945 1464
34380 43319 50059
32980 20937 42419
7589 50923 28375
10459 46882 48882
7484 51069 46152
14825 40737 46956
14294 41485 47011
10314 47088 45589
12787 43607 48729
9035 48886 48292
10398 46969 48091
7929 50444 29718
9014 48917 47450
9035 48887 45353
10179 47277 48625
15280 40098 48192
9468 48277 40727
7371 51227 27759
12002 44711 39719
31354 19964 45534
22909 51498 646
20781 51498 1805
17754 51498 140
27111 51498 197
43999 34656 15012
49337 34656 11604
43476 34656 20791
42206 34656 13421
38691 34656 16803
41790 34656 20248
38755 34656 12290
32694 34656 6465
34216 34656 6158
37392 34656 8801
47681 34656 7707
49312 34656 18481
42049 34656 6456
29208 34656 8422
46590 34656 6580
44742 34656 12159
47901 34656 10480
49677 34656 23126
41098 34656 14053
32327 34656 6962
46848 34656 9983
34486 34656 11271
34876 34656 13430
46592 34656 15386
43944 34656 10376
35295 34656 14336
30083 34656 11347
1128 39 24882
37736 35143 53022
60329 21199 31123
25202 42503 0
39142 39705 2603
63127 5947 1786
44314 32425 2778
43735 33241 2117
46815 28905 2775
55043 17324 2947
58775 12072 2779
47142 28445 1881
31230 19839 42598
9765 17686 8130
12801 22534 7406
9983 18033 12681
2348 5844 22253
3803 8167 17995
2150 5528 16414
9113 16645 7795
8690 15969 6287
675 3172 24631
6266 12101 13023
9523 17299 7004
1182 3982 11586
5441 10784 7056
14935 25941 10040
1633 4703 17243
2768 6515 18583
6849 13030 17942
7434 13966 11688
702 3215 23128
6776 12913 6322
5212 10416 16226
11930 21142 12430
1111 3870 7243
1437 4389 19861
1860 5067 22167
10280 18509 7407
3270 7317 19744
1089 3834 10353
838 3434 8877
4468 9229 21439
12725 22413 6825
60858 22387 46736
31514 22568 46969
54471 0 50099
62081 0 50139
18962 4373 46969
51335 34472 27213
43151 18711 50059
28784 46680 53022
50758 34609 27979
13574 37990 20918
35643 41937 0
56125 12663 0
59178 5589 0
45574 20290 0
47518 14973 0
55381 14851 0
60198 4003 0
43018 26226 0
51926 3927 0
50526 13468 0
52097 20507 0
41946 32072 0
51939 15348 0
55157 5375 0
48090 17715 0
53969 10354 0
53907 17803 0
58802 6931 0
53234 17134 0
61830 5114 0
46555 21020 0
51275 15455 0
53051 5283 0
55044 3894 0
39879 35471 0
59244 1687 0
59241 4477 0
42715 34322 0
38932 33765 0
49200 16632 0
47436 12311 0
57764 12334 0
57059 12377 0
56430 4848 0
53532 13319 0
44682 26116 0
49473 32606 46969
21692 37490 50569
51326 33631 46969
44853 13080 53022
34 1249 24486
27072 46423 2962
22753 34656 39853
42429 34656 30988
24958 34656 30041
30716 34656 31165
25315 34656 37664
38747 34656 29001
39801 34656 32314
36783 34656 30027
26930 34656 35072
26666 34656 37944
33539 34656 28118
32227 34656 38371
43069 34656 26558
37297 34656 31195
28503 34656 38151
23819 34656 44853
26744 34656 28132
26931 34656 38916
25425 34656 27158
30066 34656 29822
30088 34656 36545
34011 34656 35630
32936 34656 30979
31199 34656 34428
30333 34656 35735
15791 39378 34794
9651 48019 30453
13829 42140 36757
16247 38736 46612
10276 47140 30804
13738 42267 31600
14750 40843 35521
10580 46713 33238
12576 43901 27622
8446 49717 29035
12280 44320 30686
13714 42302 35102
11522 45387 29681
15868 39269 42181
10726 46507 26895
15430 12753 46969
18138 3177 46969
14553 2880 46969
18771 26490 46969
1664 4500 46969
9894 9038 46969
15421 15863 46969
13163 12436 46969
15751 3726 46969
14438 24994 46969
10488 14122 46969
13645 7423 46969
12685 969 46969
17629 14244 46969
13962 795 46969
5355 10313 46969
12710 3574 46969
18760 24791 46969
16221 25202 46969
7854 1744 46969
9331 12308 46969
10339 14694 46969
30174 51143 675
40548 25030 2962
13476 38059 21893
41524 25029 53022
26211 41822 53022
21496 37552 2804
37149 40233 2962
50179 12064 2962
54542 12071 2962
52909 14554 2962
53974 6561 2962
41342 30254 2962
48711 15956 2962
57028 3313 2962
44377 28858 2962
55328 6994 2962
52169 7104 2962
56009 14096 2962
50080 7396 2962
41138 31035 2962
61641 87 2962
52277 8569 2962
38401 40263 2962
36232 43496 2962
59221 7234 2962
59177 919 2962
47633 12827 2962
46082 19526 2962
46090 28810 2962
46678 21446 2962
46754 14271 2962
47126 20791 2962
58126 12222 2962
44541 18485 2962
39102 32125 2962
38669 37308 2962
62573 867 2962
55703 3284 2962
52463 4754 2962
47897 12013 2962
40872 28206 2962
44903 5848 51084
46405 3734 51864
29974 26860 52867
36318 17930 51700
44373 6594 50592
33707 21606 52669
49500 34656 35828
47931 34656 31954
36588 34656 45183
40634 34656 34848
36697 34656 45751
34747 34656 44290
43141 34656 40612
43493 34656 42812
38791 34656 39615
46265 34656 42933
37405 34656 44724
41420 34656 39843
48627 34656 29766
43893 34656 38704
45983 34656 37616
38389 34656 37480
44739 34656 40545
44397 34656 46276
49076 34656 33100
39781 34656 36890
45718 34656 33114
43503 34656 32491
39617 34656 45603
30991 34656 42928
49329 34656 27374
45272 34656 41393
38593 34656 43224
42538 17721 0
60889 22018 8603
20411 33980 24356
48936 6392 53022
56861 0 2232
63313 0 950
61091 0 2662
30801 19333 29032
1095 49 22402
48604 1111 52573
30906 19468 13356
26411 31875 114
40488 12062 1375
44093 6987 1477
34799 20069 704
46454 3665 2291
46864 3087 2177
44904 30154 46969
30919 50433 2962
20658 34136 27993
24045 39674 50059
19211 32760 18672
16097 37670 51806
18433 37670 52777
31220 20308 6053
60705 22719 8031
29016 51044 2962
46126 11395 2962
540 349 15736
16156 39812 53022
15270 41071 53022
14866 39931 53022
15168 38647 53022
29856 51266 52191
45758 9268 2962
31975 20455 26614
48005 1772 2962
14591 39999 0
17029 38118 0
16020 39139 0
18407 39705 0
45683 28634 6053
19414 20544 46969
37106 17659 0
34131 23838 0
38007 27258 0
33079 31566 0
27622 41355 0
43836 8259 0
36143 33570 0
30032 38713 0
30002 45853 0
32118 31097 0
28009 41741 0
41357 20171 0
27010 39527 0
25321 38279 0
27244 42080 0
35835 34774 0
36252 29800 0
38891 17663 0
38792 21416 0
40756 13319 0
33708 32519 0
31264 40786 0
30463 29465 0
33662 44171 0
44491 10491 0
31943 38259 0
29481 32367 0
31214 32686 0
37566 26866 0
13535 23705 43841
10869 19448 38757
9348 17021 44676
6463 12414 33272
4293 8949 39431
1166 3959 44119
13870 24240 41465
4181 8773 35616
6958 13205 42984
9996 18056 39147
2551 6168 46021
2225 5648 35693
3223 7241 38720
10951 19580 45299
6250 12075 40125
7104 13438 42476
8996 16459 39050
8513 15687 40972
1745 4881 40527
8983 16437 37159
6820 12983 41916
1252 4094 45276
6311 12172 41584
2864 6668 36270
12416 21919 43918
11887 21074 45974
1040 3757 33630
1054 3778 45794
10379 18666 46678
4049 8560 38168
10222 18416 38524
20364 33951 45819
45347 14160 53022
4869 51180 3207
56058 0 499
57871 0 1033
22135 34627 6836
286 634 45667
36055 38381 2962
5200 0 23711
10614 0 25367
17879 0 12633
10811 0 19744
13653 0 19135
17019 0 19892
18646 0 13246
10819 0 19121
12918 0 13089
16794 0 25740
11204 0 23670
16544 0 19228
13964 0 24055
13856 0 12750
13982 0 23492
16418 0 22679
17976 0 18535
12378 46347 50059
34756 36202 0
43726 11901 0
43247 10169 0
28522 37267 0
29364 44238 0
31964 37211 0
25379 34502 0
39182 24735 0
29465 38283 0
33018 24708 0
39046 26411 0
41855 11038 0
41224 16076 0
35399 21253 0
40345 15093 0
34589 23217 0
41867 17747 0
34871 34458 0
30882 42162 0
32298 33651 0
31314 43356 0
27880 37127 0
35499 31989 0
36248 21185 0
33210 42372 0
37691 18723 0
14901 37670 35815
14885 37670 31437
15493 37670 50507
4675 50688 22574
4672 50534 50022
12601 43869 4912
10534 46777 11348
11252 45766 4252
9660 48006 10666
12946 43383 7250
12421 44120 8999
8278 49953 6418
14466 41243 8615
7579 50936 12593
9510 48217 15114
9434 48326 12716
8940 49021 8403
9266 48561 18267
7655 50828 18311
11220 45812 3622
11398 45561 7945
13101 43164 8014
14178 41648 5024
14869 0 25883
7847 0 23416
6259 0 24268
17855 0 23053
10475 0 23898
10040 0 18863
14920 0 24651
12178 0 18037
14913 0 19349
17008 0 21510
13003 0 24327
14755 0 15130
3190 0 24690
13922 0 19841
39482 27325 2962
21494 34494 7185
0 1607 38344
49377 2152 0
47950 4561 50059
19800 33482 37435
55942 29424 30130
60642 22807 37208
58819 25374 36577
59228 24799 36188
57804 26802 32828
58002 26523 27323
58766 25448 35077
58249 26177 39313
58365 26012 33742
59271 24738 30867
57160 27709 34282
50228 34654 32708
5233 49477 32551
9828 43010 29621
7244 46647 44516
9201 43892 27688
5088 49681 34357
9136 43984 30767
4988 49822 29657
5227 49486 27625
7200 46709 30202
9612 43315 30904
5577 48994 27960
8461 44933 32276
6238 48063 34680
9796 43053 34352
6279 48005 47473
7294 46577 26653
9369 43657 37847
6728 47373 34752
26350 26725 46969
27846 19462 46969
28033 15278 46969
21009 13118 46969
23532 29013 46969
21431 14300 46969
19549 5461 46969
22209 12127 46969
24010 27402 46969
28912 19315 46969
21649 21794 46969
28985 16745 46969
21145 13796 46969
26828 18598 46969
27088 25316 46969
13723 37901 14299
43598 21132 32179
42478 21132 29983
54238 21132 34806
54774 21132 33269
58943 21132 31121
44731 21132 32091
37193 21132 27639
53044 21132 36536
57830 21132 33677
58317 21132 26856
35919 21132 26531
49452 21132 36705
56993 21132 36398
44108 21132 32798
58335 21132 32451
46148 21132 29801
50612 21132 27387
54190 21132 38275
41687 21132 29423
49705 21132 32221
57013 21132 43653
59176 21132 36347
42204 21132 27996
20891 34259 44933
47775 3556 53022
14597 37671 42652
5780 51498 1028
6006 51498 15464
40538 24824 0
55306 30318 18778
57093 27803 15917
55947 29416 8665
53521 32831 21028
53996 32163 11944
57578 27121 6689
56178 29091 7775
56604 28492 12645
56673 28394 7633
54854 30954 18883
54386 31613 6652
27357 47865 0
49646 5447 50059
17486 0 46750
2270 0 38602
17295 0 45653
2879 0 35057
9146 0 39437
3048 0 29458
10601 0 38851
6587 0 45123
3249 0 31726
13156 0 43758
2291 0 41209
1983 0 32816
11848 0 41628
10667 0 41678
9830 0 46526
12132 0 43091
26691 14137 6053
25323 23963 6053
27450 18336 6053
25269 17153 6053
18941 679 6053
26061 14771 6053
26573 24641 6053
22957 20468 6053
24420 26050 6053
27632 23115 6053
21963 6872 6053
28693 22227 6053
24344 29906 6053
30753 20467 46969
60891 22085 20313
4 1450 36959
0 1620 15626
30297 25118 46969
13924 37808 44447
44766 29821 6053
20657 24554 46969
22758 36857 1941
12585 39129 1612
9166 43941 11358
12120 39785 2323
6964 47041 1170
10776 41675 2446
11781 40262 13614
6155 48180 856
11036 41310 14864
11215 41058 2696
10811 41626 1390
10936 41449 6886
12676 39001 3335
11878 40125 16002
9668 43236 12887
6883 47155 5247
12623 39076 10259
605 295 43297
25470 39906 50059
39533 28293 0
47492 6924 53022
57189 26544 46969
5606 51498 51148
6721 51498 47618
4713 50298 39121
52108 34132 15147
19070 43082 50059
25010 46433 50059
22939 42533 50059
22773 51171 50059
20732 40522 50059
16916 42596 50059
22331 46968 50059
16141 51413 50059
25389 44694 50059
23554 50980 50059
17938 44359 50059
18165 41857 50059
10508 49224 50059
48149 4052 53022
31792 20329 35345
58849 24032 46969
17898 37670 1038
57651 12973 2962
45662 25449 2962
58547 2675 2962
47681 10691 2962
42580 25707 2962
57818 4315 2962
58145 3806 2962
43187 30465 2962
45927 21989 2962
48435 24586 2962
53689 15464 2962
61575 826 2962
64270 4106 2962
37534 39531 2962
38717 39528 2962
59188 9190 2962
61037 4711 2962
49500 21062 2962
50097 21635 2962
47260 19648 2962
56703 10471 2962
51912 13849 2962
47507 13680 2962
55222 5089 2962
51796 11378 2962
56421 5935 2962
47063 22946 2962
57236 2580 2962
50415 9551 2962
53759 18875 2962
51876 12050 2962
53007 19862 2962
27487 48159 2962
58557 6388 50059
44212 21833 50059
47897 15713 50059
52620 10958 50059
51453 22192 50059
45856 18949 50059
50332 9584 50059
53033 809 50059
48050 13834 50059
60309 9749 50059
57645 6140 50059
51047 20471 50059
53652 4930 50059
49312 22688 50059
60356 3339 50059
42060 28791 50059
64060 1731 50059
41501 29663 50059
50677 18894 50059
55228 12378 50059
53166 10574 50059
56999 9908 50059
40129 30482 50059
46989 15159 50059
56937 7467 50059
47390 13011 50059
43501 31373 50059
56499 11805 50059
51563 13336 50059
53258 15508 50059
45252 24557 50059
50908 8959 50059
52993 33455 19612
33983 21123 32839
13977 42198 50059
12928 44140 50059
21035 32442 46969
663 249 18535
19515 33168 41014
4780 51042 37127
30585 29226 6053
38344 30187 6053
33175 30084 6053
29998 31945 6053
38517 33561 6053
31578 31128 6053
32631 27738 6053
44711 32674 6053
35938 33491 6053
43278 34538 6053
31201 32291 6053
26854 32867 6053
26406 34273 6053
46262 34500 6053
37011 32425 6053
43084 29661 6053
34867 28194 50059
32351 31110 50059
27977 30299 50059
27133 36274 50059
28992 41598 50059
33456 31574 50059
33974 23320 50059
42734 10306 50059
32780 30488 50059
39029 22095 50059
46791 3457 50059
31457 25021 50059
28699 29303 50059
26862 37885 50059
28822 39196 50059
32526 25366 50059
32321 32843 50059
35408 19554 50059
40703 19564 50059
42203 18027 50059
38446 26849 50059
37536 32734 50059
25974 39354 50059
32477 41424 50059
33302 38846 50059
4693 50805 18464
23415 7565 6824
30478 18842 12705
27495 14079 11971
27561 14185 16141
21924 5185 6536
28842 16230 17997
21895 5138 11441
21201 4031 9733
27014 13312 20095
24070 8610 9205
20833 3443 6891
22124 5504 11829
26891 13115 8880
21728 4870 6064
27389 13909 14651
21593 4655 8139
25504 10899 6873
29892 17906 14336
26972 13244 7991
28627 15886 14800
28282 15334 12554
23709 8034 8764
1216 22 23264
27698 44053 50059
460 421 30449
9526 43434 29226
7370 46471 33371
8821 44426 37113
6366 47883 28049
10035 42719 35952
5580 48989 34868
6959 47049 34332
9041 44118 28911
5824 48645 33747
8866 44362 35990
9287 43772 32652
6170 48158 45250
6716 47390 43944
6694 47421 32890
5858 48597 48734
11454 40721 27284
48452 5417 53022
4725 50263 30804
27770 45463 53022
50238 24088 50394
66728 878 50826
43751 33218 50089
55287 16982 51829
61671 7997 50471
59224 11441 52065
63968 4763 50167
38573 40506 50523
12601 40676 0
14905 42275 2962
12776 44008 2962
18395 38479 2962
6916 51498 37432
6070 51498 32555
60816 21717 40882
41224 26243 2962
46810 6123 2962
56571 21615 46969
45157 26733 46969
43166 23583 46969
46506 27916 46969
38222 22896 46969
48008 23499 46969
45883 21657 46969
53141 31678 46969
44386 27141 46969
58170 23131 46969
49968 28549 46969
54749 22197 46969
54537 25832 46969
41213 23140 46969
21553 47449 2962
19000 44693 2962
23467 43695 2962
20246 40101 2962
22786 47731 2962
22403 49080 2962
22194 47127 2962
17776 51031 2962
16684 47467 2962
25624 45192 2962
14844 50567 2962
21189 43555 2962
21343 48161 2962
16183 49981 2962
50545 34636 39551
57716 26077 46969
51699 34338 37124
60528 21323 31807
52 1156 9426
42472 14990 2962
31353 44833 2962
34976 21574 2962
35587 19093 2962
38004 17191 2962
32212 33351 2962
41349 20476 2962
34785 27857 2962
33484 22494 2962
42476 13662 2962
30742 31090 2962
36800 25415 2962
31180 32569 2962
29078 33836 2962
39103 24501 2962
30239 38968 2962
29003 29822 2962
37232 27301 2962
33528 40711 2962
28378 30904 2962
24466 36278 2962
44255 8157 2962
30944 34052 2962
37821 21035 2962
26208 40087 2962
26909 35047 2962
41524 14640 2962
21431 37571 52906
29624 48703 53022
25364 41897 0
52355 33980 12751
50872 212 0
52596 33807 8075
48831 951 634
33460 21062 28873
461 420 29165
15101 51498 2206
16160 51498 2856
11323 51498 2754
34066 46849 51293
41464 36437 52265
45368 30943 51863
33117 48186 51650
48388 26691 52125
58631 12275 52430
40270 38118 50999
47647 27735 52689
49077 25721 52464
2844 433 6053
11944 545 6053
33340 21034 25085
4962 51282 28365
47677 31596 46969
14464 37678 46918
3129 1237 6053
2120 579 6053
43234 18830 53022
22327 5828 17182
22704 6429 24257
24631 9506 20695
23976 8460 24119
19012 535 25974
24914 9958 21791
24882 9906 21191
23893 8328 19127
20413 2772 13713
22226 5667 14468
22052 5388 19313
20559 3005 20885
27237 13666 21782
25307 10585 24792
19906 1962 13481
25084 10229 24208
20333 2645 11630
26164 11954 20790
24472 9253 22430
26462 12428 24867
21255 4115 10928
23123 7099 23900
49344 21132 43213
54327 21132 45194
57440 21132 46142
44887 21132 38961
35004 21132 35159
50178 21132 44159
47007 21132 44207
37153 21132 39005
39021 21132 38022
34905 21132 27218
45310 21132 45863
36188 21132 35429
42758 21132 46577
37212 21132 44066
50048 21132 40852
43981 21132 39227
37732 21132 35104
40445 21132 45179
45963 21132 43636
47171 21132 42560
44535 21132 41247
34971 21132 39956
38562 21132 36977
55065 21132 46461
40401 21132 34307
70 1089 10533
36234 38731 50059
49414 2785 50059
20248 33863 42904
31866 29955 46969
45946 32802 46969
25161 32332 46969
30513 31860 46969
38113 31510 46969
39195 28899 46969
32323 24303 46969
46288 34096 46969
35356 23898 46969
32379 30192 46969
29837 33467 46969
28900 31105 46969
29846 31414 46969
36420 34136 46969
28150 29983 46969
25742 33135 46969
43290 34434 46969
26355 42587 2962
4700 50342 2636
49904 644 0
32754 22947 728
45274 5326 1543
38678 14609 1297
44856 5914 524
60383 21228 9684
29533 48916 50059
19911 33583 14716
33776 21509 2431
44711 6118 2762
24214 34968 2753
40953 11407 2474
25238 33526 494
19356 32970 23565
20447 34004 12508
21960 5243 10548
27430 13976 20234
27626 14288 7269
26943 13198 16446
28366 15470 11293
28815 16186 18706
28896 16317 8004
29113 16662 23316
28767 16110 12460
26612 12668 7839
26391 12316 7055
24262 8917 11041
24777 9739 8593
29582 17412 20359
27639 14308 11419
26996 13282 19080
24904 9943 12350
9083 5000 6053
5469 10471 6053
9145 2420 6053
6199 4757 6053
7879 7880 6053
15731 18223 6053
15770 3069 6053
4311 8597 6053
12395 8523 6053
16206 25742 6053
9323 10587 6053
18774 15913 6053
15407 14439 6053
6176 10518 6053
16353 26882 6053
17074 15765 6053
3600 6440 6053
6679 6819 6053
10579 7715 6053
2564 2710 6053
16142 6143 6053
10938 14971 6053
6392 9880 6053
4786 4699 6053
5101 8539 6053
17124 12747 6053
20293 33898 20937
52089 34143 11059
5699 50433 53022
14566 37672 49088
29193 46560 0
67070 0 52272
61750 0 51721
38131 34246 53022
52207 34073 43073
66000 1904 51991
42373 35158 50301
66419 1314 52190
37920 41425 50456
66318 1456 51220
60520 9616 51691
59149 11546 50406
57506 13858 51693
20858 34241 38711
41180 21132 18032
38699 21132 20160
34820 21132 15124
45644 21132 8278
48054 21132 14613
41353 21132 19698
38538 21132 8632
51932 21132 6956
36367 21132 21497
36152 21132 9320
38267 21132 21994
34241 21132 6318
42381 21132 17785
39240 21132 8040
35594 21132 14957
51313 21132 6128
49364 21132 9017
38955 21132 10267
38047 21132 16027
42322 21132 13511
49959 21132 7976
42527 21132 12508
27950 49484 50059
25960 36287 53022
39665 20344 53022
30467 29239 53022
38231 18859 53022
32683 34272 53022
26067 37838 53022
33050 36190 53022
31897 47984 53022
32115 34647 53022
37584 18895 53022
39245 25066 53022
28476 39352 53022
31118 31000 53022
28272 42580 53022
32966 37421 53022
42561 12158 53022
30140 35032 53022
39491 18647 53022
31208 29405 53022
32293 45669 53022
37175 20421 53022
33919 23264 53022
29076 35113 53022
34567 34665 53022
41015 14660 53022
25422 35920 53022
28324 51498 2478
17741 51498 885
18668 37670 51246
4677 50701 48458
10019 45203 0
15062 42533 0
11860 42539 0
8896 46954 0
54171 0 1680
6879 47159 25148
7979 45612 19217
9712 43174 25214
5921 48509 14736
6055 48321 19885
4975 49839 4663
8459 44938 13051
6703 47409 18696
8105 45435 24043
4921 49916 20060
8237 45250 22172
5835 48631 6670
5728 48781 17765
7955 45646 10173
8795 44465 17866
13639 38837 0
11921 42954 53022
8270 48128 53022
10135 45927 53022
17099 39285 53022
4736 50946 7881
1218 21 11961
26714 41894 0
21110 34356 41342
38644 26587 2962
31049 43541 2962
35260 32827 2962
33404 32448 2962
35370 19818 2962
33722 24003 2962
29393 39165 2962
27104 41406 2962
31671 35175 2962
37133 31981 2962
38436 29565 2962
37829 25749 2962
27851 37855 2962
31245 27630 2962
43532 13836 2962
39075 16249 2962
35013 29143 2962
35531 34652 2962
32258 38167 2962
29113 32016 2962
31141 31973 2962
34637 25421 2962
40230 13574 2962
35913 37032 2962
28667 41350 2962
36652 28929 2962
31898 37714 2962
45440 6155 2962
38173 20111 2962
32774 20866 29401
36597 43288 1122
45033 31414 1877
55832 16214 360
65471 2647 63
48350 26746 491
58246 12816 524
54087 18670 225
46828 28888 73
38897 40050 1301
49665 30847 46969
14303 20627 6053
17738 9831 6053
18598 21293 6053
15300 11306 6053
640 2654 6053
13411 8606 6053
17406 25290 6053
9980 4886 6053
18937 31419 6053
15468 19461 6053
7337 7382 6053
13704 21141 6053
17638 23873 6053
17241 4699 6053
13201 13698 6053
13067 19776 6053
13058 9323 6053
16677 2280 6053
12551 5164 6053
16615 5438 6053
9493 4028 6053
13712 16171 6053
7694 3346 6053
4703 50846 44173
25034 39390 2962
15566 37670 40333
15017 37670 47529
15792 37670 38633
46276 10158 50059
20491 2897 38460
19158 769 36642
26740 12873 33080
18745 110 32328
19554 1400 28922
21712 4845 37784
23956 8429 35744
20654 3157 28612
24952 10018 30925
21329 4235 29929
28341 15429 27002
20893 3539 40623
26255 12100 33495
23710 8034 34643
27068 13398 28298
22083 5439 36185
19522 1350 42933
19212 854 32272
19542 33202 44700
77 2100 46345
45038 26865 0
48442 23014 0
57041 79 0
42823 27783 0
49785 14503 0
59116 8776 0
53122 11321 0
49653 9521 0
38950 36641 0
44522 24422 0
56926 13094 0
65268 1069 0
40847 30693 0
42927 23263 0
47394 24511 0
56094 739 0
42225 24825 0
45052 20531 0
47269 25654 0
43744 22942 0
62392 6944 0
42027 30689 0
43940 25089 0
51631 12768 0
47051 14368 0
43137 29597 0
40226 31433 0
42812 30321 0
59142 6135 0
54623 6761 0
52703 18185 0
50682 16635 0
49615 13498 0
53025 13634 0
49466 1497 50059
33858 47142 52571
61855 7737 52818
50656 23500 51752
36282 43731 50572
37476 42050 51397
34317 46496 50585
43981 32895 51271
680 234 28213
4717 50886 43143
59522 24384 37176
56307 28909 31808
59983 23735 37819
56543 28577 34168
56984 27957 28956
55654 29828 28747
59335 24647 31720
59702 24132 34393
60137 23519 29306
59162 24891 38802
37208 23251 46969
7063 13372 29895
7474 14028 33789
17137 29457 36430
5648 11113 27182
16189 27942 42655
13263 23270 38492
14520 25278 40250
13121 23045 36704
11841 21001 29221
12626 22256 26581
13256 23260 27411
9363 17045 29279
5459 10811 28811
10342 18608 35742
16769 28868 31334
14312 24945 33598
10534 18913 32851
17490 30019 26607
17729 30401 29526
14216 24793 38085
10195 18372 32727
17367 29824 28132
18424 31511 38405
17531 30086 32185
15010 26060 31789
18814 32133 43143
18951 32352 39967
5363 10658 27635
15036 26102 39820
9828 17787 35580
10306 18552 36650
18673 31909 44680
7437 13969 27958
14616 25431 38342
17731 30405 36101
50631 21263 53022
49418 18839 53022
49778 7412 53022
43737 20698 53022
34274 46382 53022
44576 31962 53022
57914 2387 53022
49148 9914 53022
46934 21797 53022
40475 32245 53022
34612 43485 53022
46338 28042 53022
39585 39036 53022
55958 13906 53022
38836 36981 53022
46381 29405 53022
50411 23782 53022
43113 26213 53022
57509 11096 53022
46238 22715 53022
48978 21275 53022
49802 22440 53022
45711 23519 53022
51210 5259 53022
57493 12380 53022
54489 17037 53022
56434 7553 53022
51669 2463 53022
58098 3037 53022
60443 5053 53022
59493 2144 53022
51764 6013 53022
56683 11133 53022
42157 34656 38064
34440 34656 42256
41962 34656 46602
31776 34656 44489
46110 34656 32707
31822 34656 43070
33711 34656 39296
42991 34656 43371
41589 34656 42034
38681 34656 35883
47601 34656 41797
30474 34656 41440
46811 34656 33543
31158 34656 46302
42155 34656 40633
36980 34656 39548
42628 34656 34708
31502 34656 41975
38633 34656 38176
48953 34656 27946
44416 34656 37223
50144 34656 40552
49778 34656 42123
43632 34656 39292
43760 34656 37907
44255 34656 34128
47102 34656 34822
50038 34656 36426
5228 51448 44795
32037 23237 6053
16052 37670 4995
14965 37670 18947
15385 37670 1466
13523 38026 52310
31878 49883 50993
9050 16545 32205
12863 22632 32703
6106 11846 29065
17874 30633 42332
17286 29694 29138
14001 24449 31556
5206 10407 31325
17020 29270 37445
1992 5276 28277
17894 30665 44686
15103 26209 33873
11421 20330 27929
17340 29781 34960
18319 31343 40371
18098 30991 33319
15581 26971 32953
7810 14565 27217
14216 24793 37168
14515 25269 26690
15923 27519 36520
4772 9714 28582
10850 19418 31124
2725 6447 28472
15742 27228 29625
19125 32630 43348
7105 13439 28432
13272 23286 34244
10918 19527 34551
10767 19287 35124
15766 37670 36002
15838 37670 31756
30958 19534 37059
40418 28679 0
13697 51498 50949
21795 51498 50498
10518 51498 51967
27001 46067 53022
27250 46244 0
971 929 6053
13193 46178 2962
23578 42783 2962
22506 44212 2962
23043 39768 2962
22426 43144 2962
18248 46873 2962
21006 44555 2962
9088 50392 2962
18713 45557 2962
17791 42226 2962
25113 49008 2962
20021 51343 2962
20140 43676 2962
20853 40445 2962
19643 46211 2962
19862 41558 53022
25199 44355 53022
8300 51308 53022
19479 48618 53022
23924 42381 53022
21388 46162 53022
14302 48821 53022
18875 42175 53022
25346 50820 53022
24050 46032 53022
13769 46681 53022
13928 49568 53022
23611 43939 53022
51547 34397 6987
14773 37670 8605
15479 37670 9767
14957 37670 17020
49789 424 1519
222 744 34177
40497 24327 46969
42529 24180 46969
44308 21542 46969
55502 26550 46969
53833 30634 46969
42238 22325 46969
52229 24075 46969
52861 28213 46969
56889 23657 46969
52276 23291 46969
47978 25383 46969
51616 30904 46969
19835 21494 46969
51475 34425 42723
3199 0 38374
4950 0 31419
10759 0 44794
8858 0 36370
11198 0 41279
7556 0 45453
7115 0 44681
6940 0 36454
6251 0 35199
4012 0 34719
7648 0 41452
3488 0 41637
6815 0 43900
10943 0 38406
38236 34656 13526
38584 34656 11131
48599 34656 19632
24570 34656 6355
43708 34656 18633
43882 34656 21265
36860 34656 16090
47163 34656 11400
40437 34656 14353
31864 34656 7827
30059 34656 8115
38318 34656 17436
38866 34656 7008
33749 34656 11445
46416 34656 16161
48199 34656 12926
43776 34656 14059
36187 34656 11840
42103 34656 12846
31596 34656 12226
28431 34656 7705
28864 34656 7284
4695 50371 21872
16490 38393 20352
14115 41737 26272
12819 43561 24624
15289 40085 10238
14270 41519 10924
10131 47345 19828
15060 40407 19281
8371 49821 25688
11553 45343 19837
15588 39664 6834
16018 39058 22790
16456 38442 11114
10321 47077 24479
16490 38394 25934
11873 44893 15485
15267 40116 24027
12165 44482 18118
13308 42872 17136
14232 37714 28484
15208 37670 21364
15088 37670 25337
16916 37670 24702
47027 33743 6053
30426 30736 6053
39211 33624 6053
43516 33538 6053
31547 26642 6053
34446 30030 6053
28310 33180 6053
40967 28962 6053
41207 29524 6053
30454 33725 6053
25352 34327 6053
36327 27589 6053
30656 29809 6053
38168 28677 6053
33386 27069 6053
40392 29718 6053
32294 23594 2355
28581 28820 2332
27948 29712 2306
28179 29387 867
36359 17874 2073
32280 23614 1229
13025 38513 38625
43946 19642 2962
88 1042 12749
52543 33848 39102
21445 34458 46969
6804 51498 22037
5945 51498 20450
48445 1240 1291
50222 34654 45935
13120 38393 17423
42201 23404 0
