ply
format ascii 1.0
element vertex 2686
property float x
property float y
property float z
end_header
10562 3418 29084
43830 37376 34240
43538 38523 20740
43979 37421 31036
43658 38896 12792
42288 40262 7911
42099 40626 3769
42462 39080 25256
6516 62669 31905
9627 31943 28736
8697 41056 14220
8878 40037 26991
10136 4951 28535
2223 77880 19068
2292 78743 5317
9171 24575 4996
7346 56154 28820
6237 65291 26099
7428 55289 31879
6243 65186 26802
6596 62378 26268
6823 60414 28294
6289 65078 22816
6455 63391 28305
6503 63508 20263
6227 65482 24270
6747 61529 20353
6308 65358 15879
6896 59940 26422
7465 55302 26916
6163 66575 15137
6618 62064 28391
7344 56373 25511
6308 65175 18698
6309 64666 26742
7895 51564 31112
6179 66390 15972
6587 62747 21555
7241 57073 27613
6314 64786 24247
6141 66632 17024
7174 57830 24235
7590 54001 31661
8477 46634 34757
6593 62318 27552
6554 62561 28750
8347 47838 32289
6694 61401 29206
6425 64176 19570
6388 64201 23974
6969 59216 28492
6644 62626 16123
8053 50215 32288
6284 65587 15289
6503 63539 19625
7060 58489 28393
2982 75524 31874
11269 35129 30465
11962 38870 18649
12251 38781 19781
11725 5366 3613
0 75703 37048
10185 37069 28851
9956 18434 6264
9718 41110 30067
9773 41535 22212
5177 74657 13376
4980 75695 22265
5423 72439 17019
5403 72803 13855
5163 74392 19427
5085 74611 26035
5001 75304 25815
5328 73048 19631
5471 72403 11402
5179 73695 28477
5091 75573 9817
4986 75489 24709
5051 75128 22148
4995 76309 10499
5195 74706 10287
5216 74101 17203
5323 72993 21056
5121 74235 27378
20320 1646 27621
11978 41506 1270
10900 37653 31183
43693 37872 28578
43740 38483 18042
43431 38471 23347
43555 38219 25313
10544 28067 30428
14060 5181 3938
333 76508 29617
604 76182 38340
5109 62649 32750
6666 49868 35783
5817 56675 36764
4126 70511 34209
5209 61558 37333
4168 70221 33455
6659 49979 34976
5167 61914 37030
4954 63693 36120
5937 55728 36356
4081 70667 37538
6293 52954 34766
5251 61311 35867
4590 66888 32105
5465 59723 33512
5863 56273 37182
5197 61953 32501
4693 65701 37811
6977 47366 35651
6073 54789 33805
4426 68106 33835
4285 69081 36436
5305 61052 32927
37373 2120 3305
11668 37001 5769
3095 75595 29547
46070 31854 30944
46073 33118 11964
46054 32039 23016
46055 32222 20382
46055 31693 28911
10140 32378 4844
42998 38008 4235
42989 36848 22889
42974 38232 1034
27139 4346 4459
45043 36833 16156
45108 36424 20704
44890 35907 35621
45179 35764 29100
9392 9953 27244
42497 1549 4214
4070 72577 8457
44720 1647 26751
36604 1930 4399
10037 20088 29935
3034 75988 24003
43265 3141 4862
17532 3610 28221
44179 30056 16725
44161 30142 10787
44176 29047 32088
44130 28151 34498
44154 29781 14713
44140 28451 32419
11077 31573 30182
45634 29377 27055
45630 29074 31722
45686 29724 24081
44078 35888 11630
44043 36264 6681
43805 36983 2436
5334 72185 32632
33158 2643 28130
39800 38399 36226
38977 38649 36242
9020 40283 20422
9250 40926 6583
16625 4935 3594
10348 40052 7832
10155 39347 20942
10232 6427 5027
45011 28828 11260
45031 28143 22166
44675 29193 5759
45282 28258 20090
17067 3660 3109
9402 25020 4628
43197 38170 31099
43323 38958 16969
43401 38572 22175
43325 37934 33292
37834 1593 28944
2459 76086 26073
9967 13851 27990
1444 77216 5747
9238 39979 21878
9325 39606 26485
8996 12806 5903
3533 76048 15139
8828 22429 29592
9429 19037 6313
7669 42308 29050
7658 42687 23604
8267 6974 4950
3492 77632 17534
3488 76638 33448
37178 2078 28686
44032 34463 35769
43687 36198 18551
43748 35665 25228
43846 34932 33930
19165 38324 36222
12410 38971 16604
12483 39874 2115
38538 41367 674
9546 28523 6481
26262 39205 36277
6341 52946 28696
5952 56390 23840
6011 55449 31223
5188 62911 18435
4937 64492 25558
6861 48447 33403
7386 44122 34610
5441 60249 28222
6719 49670 32104
6609 50542 32413
4852 65799 15681
5106 63673 16882
6164 54456 27395
4858 65426 20724
6653 50323 30293
6844 48771 30417
5967 56049 27372
5211 62699 18832
5403 60462 29784
5832 57027 29201
5087 63154 27528
5516 59838 25167
5271 62328 17004
5466 60516 20753
5705 58459 22795
5260 61935 24663
7181 45846 33530
5070 63389 26039
5063 63929 18346
5775 57826 23762
4862 65777 14733
5709 58263 25413
7219 45568 33119
4745 66352 20640
5243 61879 27804
6153 54437 29060
6992 47444 32403
5559 59844 19519
5030 63987 21651
5524 59435 30504
5386 61187 20327
4853 65261 24120
19944 3615 5375
32246 3280 5337
44237 29624 26613
44221 29500 27833
46042 32163 17135
46021 31119 27209
46067 33670 1219
46030 31734 20333
9775 34635 6502
12200 39360 10590
12340 38623 22229
12287 39393 9988
27368 2491 4224
40333 39857 1962
40300 39538 7234
40779 39654 2624
42596 38591 1560
43011 36783 23561
26656 2906 26993
45419 35045 32331
45388 36800 5684
45414 36608 7591
45549 35423 20547
42582 36689 36119
44368 29447 2013
45338 29035 7629
34609 843 27215
27542 1911 28982
47441 1322 3608
8440 17733 28611
9567 7239 28244
6700 52888 37134
7415 49383 36914
6716 55904 37323
8783 13622 29646
9860 38775 32895
9997 39899 13638
31142 2312 28841
5273 66828 30309
8679 41815 36440
1861 77365 5609
9042 23275 5672
45521 32296 106
8075 11566 28673
1979 77228 29384
10482 6012 5114
36377 2087 28730
26155 3245 5356
8186 13004 28064
10812 4473 28192
4145 77535 11149
4120 77472 12568
5797 69965 8188
17702 4841 3534
3523 75214 28651
21464 2221 28993
9935 23574 27914
3782 75123 4941
27160 1216 28043
8925 40846 13158
5285 71480 10160
1681 75656 32179
10240 38925 31154
43680 2965 5049
23559 3594 2952
44285 27848 27633
44719 27581 31449
44815 27786 28093
44134 28900 10989
8590 12944 29510
27356 3043 27960
11275 33432 29564
44578 32513 1444
44598 32700 184
44489 31705 6647
44540 32071 5232
10578 21555 4537
13153 2076 27799
32040 2592 3164
934 75939 19899
10502 23486 6426
1087 77035 4799
5503 70972 22915
5155 71422 15054
5049 71557 12683
18406 4858 4598
44433 28518 16787
44458 28287 20448
44393 28582 15805
44094 28200 22203
44538 27632 30824
45171 284 28511
43069 38537 26800
43311 39502 8437
42929 39005 21044
43274 39615 7081
28807 2745 5121
4717 66801 30341
4169 76213 31852
4170 76032 34735
10928 28625 6631
7216 47596 1077
7312 46793 1462
3903 74155 4639
5713 59581 3747
4358 70513 4176
5315 62660 5991
5832 58488 5936
5989 57292 4646
6369 54264 3957
6531 52958 3882
4530 69145 3854
5684 59893 2482
4774 67135 4462
4812 66909 3071
5712 59474 5600
4627 68055 8649
5638 60047 6071
4177 71978 4207
4605 68594 2942
4406 69990 6389
5329 62514 6489
4770 67130 5007
8769 17219 4382
41678 40645 7152
41622 39944 18843
42297 38646 33640
41791 38869 34522
10173 16680 29135
9932 12782 28876
8783 41059 12476
8722 41401 8232
2517 75448 36126
27469 4341 3872
45470 35410 301
44032 2449 5308
36803 40011 589
8445 14228 4903
15710 4484 5332
10245 21499 6394
45902 30012 33725
45994 31304 21051
45953 31465 14971
45971 31621 13998
20906 2985 3701
29437 2803 5217
10239 40734 5867
27263 3790 3006
11211 41338 7527
26562 2382 26574
10245 29318 4547
44151 28437 35262
44180 29030 33222
44166 29033 29643
44166 29862 16315
16900 3053 28978
26446 2558 4049
11073 26301 5665
44887 36075 32998
45158 35889 27736
45225 35417 33253
1006 76834 31614
1977 77193 8707
9008 5336 26748
10782 22304 5708
10164 12632 4312
8957 5941 29210
43908 1623 3427
11172 2743 28890
16926 39977 587
9071 42345 31448
9030 42730 27625
3027 77009 30741
3009 76603 37310
20926 2999 4796
14958 3802 28139
5977 56341 21394
47137 2750 5032
12519 3979 3109
46046 32320 31122
46044 32588 27237
46046 32532 27821
46029 32840 26202
11142 40768 17124
9425 29900 28693
14195 2824 29048
4666 77352 2928
29609 2856 28171
9430 43152 4667
5354 60745 31525
5286 61307 31334
8058 10690 28768
343 77781 9417
279 76851 23454
9466 30387 5766
37704 1728 26538
12612 4777 3102
29049 2839 3117
9152 42141 30673
9132 43642 7540
186 77684 8700
41044 1785 4799
4910 64363 31160
8205 4748 28161
10325 40723 26016
24552 39821 2934
26588 39260 11880
13039 38230 28331
23693 38902 17597
18133 39404 9583
12960 39359 10308
15718 39599 6479
26975 39887 1876
26030 39387 9855
23021 39706 4770
35275 39698 4884
13793 39119 14129
16601 39269 11738
13535 39244 12146
21250 39553 7204
27887 39432 9131
17949 39721 4532
17214 39493 8167
30116 39570 6937
29246 39554 7194
13358 38374 26027
28037 39673 5287
24237 39422 9301
19941 39388 9842
14610 39799 3283
15826 38380 25939
17742 38842 18561
19984 39716 4606
14708 39850 2463
18561 39019 15730
20247 39927 1228
15934 39754 3994
20496 38448 24854
17603 39220 12529
31921 39367 10173
24799 39911 1490
28525 39689 5037
13028 39837 2669
18212 39515 7814
26278 39929 1198
22921 39801 3244
30482 39253 12000
16227 38077 30767
21909 39651 5639
22600 39374 10061
19602 38780 19546
21615 38737 20239
37952 39931 1176
36618 39790 3421
25120 39583 6719
28494 39125 14040
14234 39024 15650
12996 39313 11039
21128 39013 15820
23704 39494 8155
27640 39226 12428
34667 39922 1310
12656 39929 1200
22527 39624 6067
18440 38934 17093
19616 38725 20420
13757 38582 22706
13615 37903 33552
16369 38320 26885
34809 39738 4252
14074 37867 34116
31484 39564 7027
31544 39533 7519
24157 39358 10315
12987 39698 4892
22648 39159 13493
23061 38994 16133
26136 39035 15483
13968 39219 12543
25262 39257 11934
14261 38979 16376
25136 38862 18243
18170 38265 27771
12896 38529 23562
33331 39508 7922
17066 39889 1838
12725 39500 8059
20649 39552 7227
21712 39490 8213
28672 39647 5704
25012 39711 4678
18081 39932 1148
16848 38977 16401
31170 39907 1547
17114 38294 27304
27130 39821 2921
25368 38904 17574
14161 38207 28689
18647 39162 13452
26838 39387 9855
29224 39114 14211
17429 38904 17561
10260 40963 23026
10238 41510 14643
10434 19833 6014
10389 37823 7365
11635 40938 11534
9726 17093 3796
5461 66508 20396
5581 66298 23986
4235 71242 8377
37683 1889 4520
37454 3436 4992
21245 3396 3095
9703 33772 6342
9093 43103 18044
9093 43287 15112
2420 75945 28419
10367 40545 28341
10540 40058 33972
22635 1839 28780
3695 74781 21652
3910 73174 19584
3833 73507 24185
3612 76311 7899
3838 73388 25374
3682 75737 8012
3640 74384 35110
3947 72953 18257
3763 74131 23225
3861 74314 7717
3882 74115 8176
3934 73435 12284
4166 71642 10915
3748 75289 6694
3644 74797 27970
3800 74783 8121
11340 41240 8174
11548 40326 21728
45021 276 27001
32698 2280 3560
3487 77193 24595
3273 76487 37647
12400 41486 892
12569 41314 3464
12003 37905 34018
5375 73220 10718
5059 74851 25586
5088 74806 22507
5210 74731 7932
5404 73116 8733
5029 76185 8082
4992 75269 27485
5394 72818 14729
5175 73852 26524
5115 74118 29966
5062 74504 30701
5277 74178 8097
5371 73162 12256
5356 73190 13624
5153 75254 6918
5014 75673 18199
44540 30313 33242
44500 30345 29264
44605 31481 20268
9377 4780 26718
10345 19818 29423
42744 657 28778
83 76084 28897
183 76026 28087
67 77169 11866
229 76596 18158
36901 2458 27829
9079 21660 5995
1578 75502 34017
9597 23523 4282
5142 62451 31733
10807 30997 7012
40695 1420 26506
46001 34625 3138
46048 32983 20158
45999 34504 5504
46066 32529 23855
46019 34102 7919
44603 33864 15362
44529 34653 8225
44559 33990 16595
43737 35564 27159
43830 36017 17104
43704 35994 21297
5797 57157 31707
18685 3146 4821
10476 37196 7408
45713 34644 25759
45592 36146 7137
45729 35466 11910
45601 35786 12497
3850 72634 35965
41887 39727 19973
41688 39018 33045
8605 45539 35682
24679 3233 27784
10497 17126 5081
10178 12146 4881
41118 3220 3188
5217 73004 34581
10931 38778 24112
10873 38240 32981
933 75259 38535
9322 39088 34809
9380 40095 17818
11732 40617 16183
23471 1868 26777
10303 40853 24198
10561 41965 3277
10493 39596 14061
10370 39708 13142
9418 28595 5267
26665 40586 625
9848 5564 27670
41573 39359 28488
40969 39370 31810
41244 39952 20920
11493 5123 5232
11239 31656 6636
9166 40211 19299
9184 40912 7830
6067 66173 26952
5692 66389 22750
5487 66965 13150
2172 76784 15356
3364 78375 6747
3448 77627 17972
4787 75512 30000
4433 77181 11449
4512 75928 29638
4922 74862 37308
6400 63745 29646
7748 52632 33075
24070 3452 2970
13759 3579 28741
24631 1409 28218
41606 2153 27423
37746 3708 4213
11338 33612 5296
42265 37820 18221
42406 36766 33320
42299 37322 25742
17204 1839 28100
28534 4285 4241
22817 3345 5315
8399 40266 33707
8344 40286 34731
9537 42351 14596
9530 41685 25407
30090 1816 26560
4011 71442 34170
10858 23279 5107
10203 40943 648
25826 41082 656
29475 3526 5331
43246 37313 10662
43182 35959 33680
43160 38004 1537
2909 77600 21921
2893 76713 36166
5526 66148 26270
5240 66409 21539
5254 66291 23459
37742 2109 26805
46032 32589 29585
46003 32693 33608
46018 32783 29182
45996 33458 22807
9015 10157 3352
9940 33405 6922
19330 3199 26815
3815 77459 16946
9543 6774 28252
7595 43149 23085
6544 52634 7406
6346 53726 15552
6432 52738 20196
5021 64692 11555
5974 57082 10010
6688 51545 6175
6363 53065 23919
7025 48248 15337
6651 51484 11971
6641 50600 27352
6587 51379 21916
7536 44755 5126
7373 45178 19456
7099 47586 16292
7470 43844 28040
6550 52469 9233
7226 46154 22867
5454 60899 16126
6383 53030 21823
5699 59006 14798
6098 55588 17817
7171 47880 2351
7455 45514 3518
7487 44721 12023
7573 42747 32451
7228 45780 28583
6329 53707 18060
6441 53342 9435
7303 46457 8053
6891 48442 29540
7585 43088 25432
7364 45627 13375
5925 57289 13026
6619 50877 25833
7273 46109 17502
5311 62460 9681
7557 43579 21208
7494 45018 6359
7633 42669 25739
6483 52729 13752
7405 45511 9917
7582 44054 10394
5606 59902 12483
6610 51159 22398
6218 54523 19376
5997 57096 6802
6660 51822 5467
7270 45216 32133
7409 45953 2424
6644 50744 24659
7476 43678 30073
7494 44115 20781
6462 52767 15821
6676 50960 17098
6978 47870 27485
5621 59563 15999
6520 52762 8474
5503 60703 13006
7289 45798 20384
7259 46432 14144
7159 47565 8923
7378 45066 20530
7072 47082 27862
5823 58439 7824
6403 52672 25024
5961 56803 16177
6068 56150 12743
6564 51707 19562
6776 50624 9560
6162 55567 9884
6333 53553 19953
5482 61200 7737
6745 49908 25040
7278 45406 27964
7540 44793 4066
7635 42892 22169
7412 44647 22859
6483 52767 13196
6698 51264 9308
7305 45781 18587
6536 51558 25672
6927 48669 21278
5928 57549 8459
11028 28058 6381
11535 38942 18749
11582 38737 21879
44430 28242 35590
15512 2735 29041
9710 17365 27601
42256 38382 9347
41873 38062 19164
41865 37333 30892
4052 72883 5900
40027 3345 3267
10639 40308 1647
10435 40236 4255
9645 10126 3557
5245 63349 4006
5859 58485 2453
5090 64597 4129
4317 70934 2783
5931 57930 2079
4169 71988 4999
4840 66643 3734
4633 68221 5297
4571 68713 5379
4671 68033 3382
4694 67706 5597
6938 49771 2205
6076 56767 1802
3876 74433 3867
5368 62462 2321
4520 69185 4491
4402 70255 2604
4951 65763 3416
4931 65619 8416
5053 64985 2691
5491 61325 4599
45212 36899 394
10096 36722 31011
8040 5808 28811
2112 76733 16156
31379 2573 28542
4391 69955 8851
8374 48492 18346
6760 62205 7824
8280 48568 29326
8312 48440 27199
7075 59001 18237
8644 45821 26207
8063 51842 5042
6898 60957 9954
7647 54312 19338
7507 55232 22746
6969 60231 12347
7276 57304 19462
7117 59279 8436
7414 56101 20819
8483 46928 29125
7710 53895 17804
7963 52003 15404
8053 50782 23228
8577 46001 31889
7551 55058 19783
7083 59609 7502
7095 59166 13104
7727 53690 18881
8872 45370 3789
7422 55964 21995
7247 58239 8277
6489 64146 11871
8719 45034 29074
8732 44642 33669
8517 47793 11092
8400 49010 6579
7798 53605 11069
6982 60301 9528
8525 48002 6529
8494 48368 4842
7813 52688 23768
8892 43539 30513
8169 51006 4653
6939 60560 10953
7069 59274 14749
8113 50577 18767
7415 56442 15298
7742 53375 21952
8555 46954 19476
8139 49955 25333
7601 54764 17994
7783 53551 13925
8213 50264 10861
7097 59265 11301
8017 52287 3857
8250 49604 16599
8274 49784 10636
8730 46457 4879
6318 65574 11091
7695 53764 21684
7878 53350 4867
8455 48099 14193
8019 50907 25637
8133 51090 7845
8450 47821 19247
8987 43224 23380
8189 49787 21554
7949 51750 21254
8696 46097 15059
8525 47451 15369
6944 60211 15919
8478 48435 5741
8985 43859 13485
8353 49529 4494
8108 50049 27693
8892 43773 26848
8857 45556 2938
7777 53704 12187
6775 61654 14687
7018 60160 7130
8697 45688 21435
8808 45642 7715
7300 57635 10999
8636 46869 10521
8976 44002 12303
7766 54171 6153
8771 46002 6895
6815 61737 8199
6723 62143 13512
6365 65172 11392
8996 42961 26345
7032 59727 12257
8555 47942 3602
24382 38315 36221
800 78398 4757
6292 65708 12292
42234 39823 577
32806 38921 36259
9505 39587 24329
9467 39096 32623
10832 36233 31087
30431 4167 3996
45696 35115 19013
45366 37109 1722
45739 35984 3231
13744 2053 27678
24979 39063 36268
30462 39104 36270
10731 35696 7407
9971 38454 6301
31702 2268 26644
10267 39924 10650
10278 38907 26761
3903 72330 33886
25220 1413 28355
11455 41076 10219
8496 43474 806
9355 10446 3391
46978 3018 3431
4342 70433 7517
38841 3573 4541
5554 70436 32044
11757 37814 36102
11546 38036 33170
41956 619 28692
7913 41531 29032
7928 41839 23449
8136 40932 30537
8081 41858 17487
8031 42833 3485
9887 12363 27934
16893 3912 5407
8130 49828 28540
24111 3260 27658
6118 65967 30700
6018 66796 30235
9776 5182 27040
11357 30898 6034
19012 2702 26579
43214 223 27459
830 75654 22693
563 76735 10110
270 77420 4304
9943 10989 3919
3547 75977 15938
41520 2310 2914
16756 3180 4541
45880 31537 7445
45886 30741 20669
45900 31318 12693
45821 31343 5365
1161 75163 35641
26090 3886 3024
9835 42061 12627
10327 35481 28654
3032 75822 38570
9942 37052 5825
11583 3265 26619
44239 35712 7567
44349 34472 22524
44367 35089 11867
44390 34862 14490
32050 40498 620
41890 37661 25366
42251 38738 3725
41887 38604 10336
42107 38916 2658
9693 40015 15151
4917 69657 30345
10814 41866 705
44859 3021 4889
43146 36789 21226
43533 35410 34676
43148 37553 9002
35476 38446 36229
14455 38595 36238
8638 18749 29477
3179 78322 8990
3168 77620 20257
10894 39368 36287
47592 2445 3999
40709 39090 12027
40296 39438 8856
40269 38873 18032
13304 41453 680
7903 42087 20510
45099 35480 36043
33478 3318 5292
21778 3012 28774
14889 40211 602
9562 5976 5544
9424 24025 30292
36514 1382 26541
9466 7575 28839
40178 3550 3854
15701 38808 36252
10856 4058 28809
4440 70395 29120
9202 42110 29032
18324 40224 603
11316 39081 29155
5503 68027 30818
42678 37840 12193
42584 37978 11546
42992 36216 32916
35251 2565 27637
3220 75730 25880
44925 1789 3112
8200 42006 11367
8262 41345 19996
10363 20762 4269
18095 3081 4064
31969 1129 28598
12373 2359 27060
44251 35980 2765
44129 36376 1856
10451 32198 30868
10637 28668 4596
44649 32021 18095
44654 33229 406
44655 32281 16095
45893 34008 23409
45789 34307 26344
45792 34428 24187
45839 34163 24913
45773 34576 23187
16434 38786 19451
24090 39609 6310
19462 38516 23765
28865 39475 8444
26473 39161 13464
34262 39876 2054
27469 39889 1845
15818 38780 19542
13949 38000 32006
20492 39317 10979
22455 39579 6794
30897 39688 5052
34106 39569 6947
17371 38390 25767
33096 39628 6012
17216 38949 16855
12813 39155 13554
15187 38530 23536
21268 38780 19550
15390 39802 3230
19756 39508 7921
23639 39804 3192
16851 39619 6147
32274 39931 1164
30376 39490 8212
25322 39403 9601
14685 39007 15924
14188 39535 7495
22249 39313 11036
18314 39430 9177
30902 39760 3906
27579 39162 13450
30813 39651 5637
14755 38437 25020
14092 38622 22065
24521 39534 7507
12712 37965 32554
32075 39645 5734
18790 38434 25069
31595 39792 3388
20399 39845 2551
13895 39652 5630
19005 39012 15836
24111 39728 4405
14262 38157 29496
19425 39887 1879
23321 38768 19745
20991 39879 1998
12538 38089 30581
14349 38320 26888
34523 39760 3906
29420 39385 9895
28801 39257 11926
27734 39131 13939
26589 39854 2408
17381 39718 4569
12784 39059 15087
13271 39781 3561
20698 38617 22153
31245 39622 6099
23456 39640 5816
14973 38250 28011
12607 38315 26965
19862 39640 5809
25907 39629 5989
39117 39949 886
17644 39478 8401
19715 38463 24606
19248 38344 26511
13082 39751 4047
12577 38731 20335
20228 39511 7873
16475 38567 22955
27111 39721 4526
33317 39580 6772
19581 39111 14257
31789 39827 2831
27408 39071 14899
16290 39350 10448
29654 39203 12801
29993 39632 5942
34035 39529 7592
29418 39788 3449
22277 39238 12233
15865 39251 12023
13383 38906 17534
14565 38036 31430
33555 39679 5192
3325 76856 6287
3311 76017 19897
2853 76776 12976
10106 19273 27956
12254 39902 26317
4130 71195 22788
3835 72962 32645
3994 72458 20142
4075 71776 20512
3704 73891 34704
3986 72131 26410
4009 71894 27182
3930 72719 24275
4130 71030 25368
41094 39635 1035
41229 38123 23983
41600 39005 6638
10347 22808 4266
9593 29185 28418
1163 77835 16589
1016 77307 24148
10708 41779 4721
11725 4566 2992
45960 32059 6076
45892 31807 4144
45865 30744 18736
45827 29792 30701
33118 38005 36201
31166 37821 36190
44517 33400 29109
44432 34359 20086
44435 35266 5350
26175 2740 28754
12333 40266 20426
12447 39727 28920
8242 41136 23954
8164 42697 1495
7853 43036 7448
8003 41515 25529
4908 65957 28691
8650 13450 3932
9988 42087 9322
13072 3386 4299
11527 38618 29558
30450 2357 4602
34218 2574 27292
37121 39534 7506
29520 38255 27935
37982 38424 25234
38353 37940 32965
38693 39267 11764
33736 39344 10542
33823 38787 19443
36213 38125 30008
18924 37976 32378
25573 37762 35791
18822 38181 29103
38814 38310 27053
23257 37805 35107
38400 38239 28182
17070 38089 30585
30612 39124 14053
39894 38665 21375
19174 37766 35733
40164 39047 15285
32900 38235 28248
29925 38070 30883
36395 38022 31656
26207 38460 24658
38706 37920 33277
36488 37852 34368
24440 37981 32309
13153 37753 35935
36320 38413 25402
30259 38361 26237
38630 39433 9125
37847 39668 5367
34299 39093 14557
39891 39747 4102
39404 38267 27732
32525 37827 34755
39234 38739 20198
37025 38172 29247
36268 39568 6962
38316 39385 9881
35169 37838 34579
17950 37844 34485
38699 38281 27516
22610 38224 28419
22108 38020 31675
15596 37858 34270
38665 37767 35714
29050 38908 17500
35352 39387 9855
25989 38633 21892
39408 38872 18077
32643 38032 31485
37772 37866 34133
28278 38840 18592
20763 37991 32139
31451 38587 22634
39880 38459 24679
21780 37769 35688
39047 38391 25761
27542 37871 34063
38870 38098 30436
34910 39075 14833
39666 39370 10135
26865 37804 35128
39774 39462 8658
25868 38487 24233
36435 39414 9428
32956 38292 27336
33044 38734 20280
34587 38571 22891
39954 38281 27520
26991 38118 30113
39520 38567 22947
31863 37930 33114
38374 37853 34346
14215 37815 34956
38020 38152 29575
23425 38217 28528
36808 38830 18751
20578 38061 31030
19860 38255 27927
28935 38772 19674
36371 39635 5892
38186 39064 15016
36692 38926 17222
37099 38115 30164
25036 38248 28042
25251 38033 31480
32000 38752 19997
32394 37966 32547
22888 38336 26634
33533 38188 28996
37040 39231 12339
37592 37973 32427
43967 1910 3056
6968 59040 31459
11148 36473 5095
10831 34518 28696
11398 40411 21121
11403 41065 10661
8966 20261 5856
7296 56361 31958
7517 54530 32629
9448 20820 27725
5413 60245 31840
14245 4083 5417
5693 70756 9066
31274 40792 638
16274 40786 638
4193 71093 18387
4593 70584 27314
33295 2331 3394
5220 73272 29955
5111 73987 32569
5501 71147 27635
5263 73111 26795
5371 72597 21273
5170 73556 31893
5440 71862 24004
5376 72084 28748
5473 71265 29271
4924 63865 37252
4087 70703 36133
5234 61476 35411
5576 58712 35388
4391 68306 35126
5065 62708 37544
5729 57465 35510
4939 63976 33580
5438 59970 33084
3918 71964 37798
6551 50750 36638
4415 67935 37993
5937 55694 36956
6022 55173 34325
6996 47158 36439
4861 64477 35557
5323 60636 37286
4341 68642 36293
6615 50262 36142
4314 68791 37411
5423 59973 34939
2616 76508 18706
45507 29100 16003
45517 29461 12849
45501 28688 21059
45474 27841 27749
45472 29495 906
21245 39829 27171
32037 39754 28372
19279 40839 11048
23634 40596 14925
34663 39428 33573
22841 40408 17927
17704 40895 10159
23119 40136 22280
18024 40061 23465
25616 40179 21587
37981 39366 34559
17780 40548 15690
16052 40000 24449
19552 39812 27438
14279 39650 30037
38621 39354 34755
32391 39360 34667
29209 39747 28482
22436 39413 33812
30973 39646 30099
15948 40661 13892
32947 39566 31379
13614 39829 27169
14125 40917 9804
16709 40014 24225
27037 39315 35373
22228 39941 25383
26128 40314 19434
12924 41249 4510
22685 40354 18791
15618 41086 7107
30813 39936 25466
21201 40406 17958
24317 39963 25042
17667 40956 9178
38318 39431 33532
29010 40154 21978
18572 39675 29639
27608 40255 20376
16814 40409 17921
12957 40065 23403
20127 40663 13852
22183 40641 14211
30910 39358 34697
14109 41036 7899
21878 39448 33256
31540 39293 35726
32928 39433 33502
16857 40984 8732
26851 39787 27842
15922 39899 26049
19886 39787 27839
17601 40382 18345
16922 39336 35048
13801 40191 21403
32352 39777 28000
16654 40164 21828
18388 40758 12336
36845 39364 34603
27819 39322 35266
25588 40133 22319
32600 39414 33805
20389 40335 19095
14166 40054 23589
18683 40566 15414
20470 39524 32048
14632 40688 13455
17296 39314 35396
19433 40496 16524
32431 39440 33383
21747 39483 32705
20851 40274 20068
14431 40076 23232
22496 40540 15825
34114 39644 30127
34285 39572 31283
28837 39837 27044
34007 39602 30791
32220 39387 34225
13222 41370 2567
24985 39539 31798
20209 40179 21589
17667 40419 17749
23418 40058 23516
25468 40389 18231
17324 40786 11903
14269 39779 27970
28219 39503 32381
32363 39298 35648
14262 41091 7024
20818 39689 29414
27657 40032 23927
25063 39945 25328
30768 39881 26352
18387 39534 31879
18128 39774 28054
18710 40713 13059
17940 39726 28814
14290 39371 34489
2356 78301 12364
5451 71236 32616
17875 39551 31619
12955 39552 31593
23487 39290 35774
14897 41286 3911
15790 39757 28322
37230 39278 35969
19872 39470 32911
13164 40819 11364
13734 41114 6660
25373 40106 22751
16572 39835 27079
14977 41185 5531
30342 39443 33344
25939 39691 29377
24915 40384 18318
28515 39781 27946
19783 39310 35460
30715 39286 35851
22426 40611 14688
20986 40771 12136
25082 39813 27427
20637 39327 35188
19866 39978 24797
21236 40238 20644
21931 39812 27438
35870 39627 30393
12813 39882 26329
15907 40245 20532
20158 39623 30465
15035 41000 8476
27664 39830 27165
16452 40285 19886
20849 40726 12859
24743 40416 17807
28793 40069 23335
26946 39829 27172
15560 41194 5389
38078 39396 34095
25479 40078 23193
30886 39772 28091
13455 40653 14015
13943 41329 3234
23545 39883 26314
25337 40035 23892
22005 39616 30570
19536 39531 31934
18055 40579 15200
25425 40440 17414
22926 39386 34254
21883 40138 22239
15520 39666 29782
19399 40167 21777
30024 39319 35319
13075 40025 24043
25235 39411 33854
22131 40376 18449
13753 41366 2644
12698 39822 27290
16528 40764 12255
31323 39835 27086
35857 39518 32143
22081 39262 36219
15370 40770 12144
21565 39284 35877
24015 39730 28757
28064 40088 23046
15279 39364 34590
13099 39651 30022
14648 40121 22511
13235 40620 14539
23238 40009 24300
12594 39606 30742
17041 40492 16587
21444 40089 23019
17305 40740 12624
19317 40784 11925
26657 40247 20504
28756 39935 25484
28514 39878 26399
27558 39919 25733
26757 39681 29534
28842 39462 33035
27207 39745 28510
11762 39868 3294
42653 38749 28518
42987 39765 8206
42854 39123 20086
42574 39550 16694
43934 35687 19205
44039 35565 17942
44073 34992 26084
3243 74957 37953
44722 37258 18269
44385 38365 8089
44472 37882 13861
44226 38887 3262
7686 43655 6547
7730 43688 3431
8968 3667 27698
5462 71658 11894
10023 41776 13706
10143 41164 21625
1036 76766 8422
1761 78191 13573
1848 77469 25378
27410 2598 26693
1663 77927 17492
46680 0 28025
1421 75606 31255
44512 33328 30630
44470 34083 21657
44484 34080 20645
7361 56487 21517
2704 77320 27199
10550 25642 6626
11932 39443 34331
12018 40785 12659
9852 18436 29886
45652 30245 14079
45633 30527 8645
45559 29633 19290
11095 39917 5099
11324 40027 2207
45517 28440 29168
45506 28010 33184
45531 28726 28118
45545 29214 24065
45546 28660 33143
10631 23079 28942
10652 40932 18783
10648 40787 21136
11421 33032 6507
4063 71181 31626
2683 75448 35285
9385 7895 27232
1944 76067 26577
26196 40836 641
30811 40984 650
9025 9675 3313
6022 66725 30850
23149 1571 27222
9473 39191 31017
9797 39137 27902
24047 2755 3788
36520 3567 3287
2229 76922 34364
2240 76953 33868
9800 36512 29185
9789 3553 28987
45190 36900 10614
44858 38066 2102
45204 37303 3760
743 78193 7519
739 77294 21834
39827 3300 4967
9906 42704 1000
9807 42673 3394
45288 36211 18637
45189 36324 19842
45108 37181 8621
45241 37279 3020
9545 41067 34906
9505 28517 28416
45966 33421 27337
45790 35719 3676
45886 35440 1020
45886 35315 3058
8563 19855 28972
9760 39262 36280
10375 3723 26642
3464 78443 4823
13172 2161 28385
32 75546 38553
27591 1510 26861
3276 75929 21890
47251 796 27228
35541 2067 3652
25446 4302 4852
9030 44102 5794
9079 42957 21170
18392 3315 26877
41428 37971 24661
41435 37368 34229
41717 38062 20674
44610 32652 33960
44639 33059 21724
44638 32475 31260
1322 76708 12740
8571 39894 35439
8497 40613 25742
44088 29152 7885
44173 30887 1806
44091 28380 20854
44128 29929 5797
44091 29634 888
44116 29329 12269
30256 2835 5261
3774 76921 26033
3821 76780 27714
9992 39544 19362
13708 4394 5417
44289 31441 167
44196 29887 20400
44343 30741 14007
9417 8286 5523
44668 31674 29706
44676 32823 14016
44650 31291 30109
33842 2225 3511
24245 3461 5379
10118 17298 28041
11239 33410 30122
11563 34447 5834
22292 4370 3235
10728 24488 29166
38833 1800 3865
8791 21787 29562
6267 64791 30170
14765 2776 26620
5558 70352 32925
13448 4979 3326
46654 1526 28608
5253 61522 32147
2259 75609 34148
10587 31639 4702
42787 36514 31561
42562 37919 12861
42580 38260 7100
24582 4056 3070
29969 3639 5250
4089 71147 28815
4100 71499 21780
4034 72042 21559
4115 71431 20945
3939 72180 31663
3830 72910 34139
3878 72808 29456
4092 71403 24362
4107 71587 19419
8637 17036 4779
4789 64928 37888
6618 51047 37018
6662 54375 37227
5574 60882 37634
8074 8084 3965
18818 40929 647
16121 2631 26626
40727 3412 4662
19967 38232 36216
39339 41426 678
17642 3103 4316
4365 77451 8670
4468 76686 18546
4511 75409 37944
46735 1035 26482
4240 77318 13018
29667 3979 4935
19154 1710 27697
11303 38613 24884
11287 38008 34622
5620 69929 31713
4002 77119 20127
8348 11973 29265
2285 78014 16954
45600 28931 32549
45786 30496 16710
45806 31459 2310
41400 38322 19306
41494 38703 12397
41081 38904 12819
41294 38143 23093
10095 26242 6810
7052 53031 1405
5077 66966 2278
5213 64002 2092
6084 60371 1864
9199 42729 19316
11338 39321 13402
11341 39123 16561
10885 33695 7232
46270 1590 4989
10036 4319 3947
9570 35818 29831
44408 31032 12562
44403 30616 18977
44436 30175 27639
44674 33460 8547
44646 34309 500
44652 33577 10888
8938 8939 5722
15423 2176 28684
44676 32578 22194
44676 32640 21157
44677 33571 6101
29205 38159 36211
9176 16769 6120
1034 77931 14303
11399 32034 6292
10311 16834 5705
10410 40279 3746
9201 25898 5281
11245 35622 30603
8405 42010 5706
9842 21932 27815
44455 35397 1825
44577 33355 25389
44462 35226 3972
21195 1913 28770
9787 27850 28191
9972 31086 6949
9008 43893 10373
36369 39229 36278
8412 41722 10146
35025 3089 2908
16884 37888 36194
11663 38568 24340
11951 38213 29162
9771 38384 29684
28756 3961 3204
40867 41353 743
40850 40669 11755
40549 40653 13749
41269 40593 10543
18147 37916 33341
20663 38172 29260
18133 37765 35758
36059 38264 27781
29491 38362 26227
37257 38782 19520
36764 38638 21813
26184 38024 31619
21771 38236 28226
21794 38455 24737
33873 38458 24684
35386 37761 35812
29285 38437 25021
32341 39285 11487
24851 38352 26375
22751 38276 27586
30833 38525 23624
37317 38459 24671
34642 38400 25618
22138 38344 26511
23973 38387 25816
34148 38085 30641
30519 38774 19639
37891 39428 9201
31452 37893 33703
23433 38357 26307
33994 38652 21588
27525 38266 27747
21032 37796 35261
32250 38582 22714
19453 37949 32810
23554 38272 27658
32224 38638 21815
36202 39315 11007
39498 39845 2547
32341 38294 27311
27157 38053 31155
37656 39560 7102
21795 38159 29462
30659 39077 14807
37535 38157 29495
30118 37859 34255
36472 39125 14045
26175 37738 36181
31073 38495 24093
25233 38145 29686
25591 38316 26956
21178 38016 31747
30421 38646 21692
24768 38638 21808
39181 38547 23259
22745 37865 34148
24135 38596 22483
40225 38255 27926
33887 39198 12879
37830 39299 11261
28720 38132 29893
35107 39461 8668
39652 39704 4789
28520 38266 27751
17900 38121 30073
35551 39562 7059
15731 37768 35698
36800 38374 26032
37872 38595 22497
35767 38299 27218
15414 37802 35163
27450 38593 22539
37974 38487 24221
21820 37934 33057
39658 38749 20039
37284 39254 11972
24389 38680 21149
18833 37818 34903
35199 37913 33390
35773 39083 14709
23455 38069 30901
34285 38169 29295
32619 38474 24434
36954 37761 35819
29213 38101 30384
38019 39594 6556
38887 39032 15530
24795 38397 25658
20425 37915 33361
5102 63914 13456
10558 41514 10516
44063 35499 36044
9497 17983 6285
8278 10444 29208
9167 24559 30098
8575 16273 4970
44678 32096 26358
10983 26619 5032
27812 2996 5275
9130 27744 28913
1722 78232 12805
1543 78670 5259
10473 38881 25619
10490 39517 15336
9906 16969 29667
488 75357 33399
567 75227 34103
532 75732 26658
33 76221 27589
36015 2356 27020
39687 3568 3756
36212 1154 28857
44774 37398 14890
44743 37794 9254
44817 37765 8082
44745 37763 9711
9940 15372 27832
4832 76855 7542
4497 77597 3339
4897 75245 31771
4651 77092 7890
11167 4272 5356
44621 33746 14353
44660 32417 27835
10318 14670 5170
2783 76840 12541
45520 29246 17027
45547 29596 18409
45534 29550 15787
45548 30404 5764
9268 42682 17224
9398 41628 29983
6115 54485 33301
10757 40163 7638
5351 61723 16372
4981 64710 16480
5873 57109 22632
5187 62379 27043
5328 61253 26783
5008 64087 22842
6066 55222 27867
6417 52438 26944
5240 62227 22596
6286 53167 32180
4752 66817 12311
6384 52559 29212
7382 44106 35332
5850 56820 30139
6626 50695 27806
6277 53485 28339
4795 66497 11951
5929 56255 29027
7333 44515 35123
6575 50865 31604
5033 63789 24412
5193 62469 24793
5818 57410 24908
5875 56858 26400
5817 57222 27972
6553 50950 33089
5789 57597 25602
5262 61670 28692
4982 64326 22368
7041 46983 33487
5746 57891 26542
4756 65857 27152
6247 53627 29836
5012 63720 28218
9684 35006 30541
10387 35644 31097
4726 65958 29393
5244 61688 30661
5448 73068 3772
6205 66634 8768
7399 57245 4523
6013 68435 4782
5972 68861 3314
6345 65642 6499
8090 51835 1728
5511 72560 3755
6736 62529 5797
5626 71483 6081
7682 54983 4106
6235 66622 5087
6048 67935 8276
6955 60822 4668
5386 73481 5107
5900 69221 6759
6235 66718 3552
6070 67912 5816
8495 48540 1947
7209 58906 2563
6556 64039 4871
7234 58723 2146
6827 61738 6613
11516 3005 29053
45268 30611 0
8042 42737 4689
8091 41984 15160
10818 39061 7605
5779 58040 19864
41846 1419 26513
26510 4395 4386
44435 31085 13023
44423 30366 23957
23302 2610 28976
36229 41330 3213
31342 40714 13043
40474 40433 17529
27004 41124 6501
36814 40285 19899
26256 40638 14266
23461 41248 4518
17803 41350 2887
32334 40806 11572
35196 40718 12977
20016 40919 9774
32257 41102 6851
33221 40711 13093
33658 41043 7787
34484 40938 9462
36775 39671 29695
21396 41473 928
29781 40906 9981
18879 41222 4937
39675 40862 10688
34480 40685 13501
35085 41330 3212
31550 40460 17098
21076 41134 6341
36664 40134 22301
14318 41470 976
32488 41268 4202
24732 41466 1039
35484 40984 8741
36937 39959 25105
21028 41438 1486
30243 41388 2279
37033 39704 29166
36543 39876 26431
25892 41050 7674
29710 40247 20498
31821 40173 21677
35311 40662 13879
35080 40623 14503
39906 40714 13047
24386 40679 13605
38504 39618 30549
25524 41264 4266
23101 41188 5473
39659 40556 15569
20127 41360 2737
38495 39564 31404
37311 39517 32151
33890 40056 23554
35645 41067 7412
31828 40102 22817
36665 40658 13935
33681 40650 14074
38124 40359 18717
18489 41084 7132
25833 41006 8379
39202 39748 28475
23781 41478 852
29241 41054 7616
19019 41188 5484
22029 41120 6561
33793 40561 15485
32099 40889 10255
14917 41329 3225
37943 40860 10715
37307 40219 20955
22177 41061 7501
32544 39922 25686
29077 41373 2522
31617 40777 12040
32869 40425 17662
39369 41100 6889
37972 40296 19711
29206 40771 12132
17755 41415 1860
34198 40452 17232
30985 41015 8247
30271 40975 8875
36050 41160 5929
24462 41333 3156
25155 40674 13682
39852 40158 21925
31125 40943 9393
38181 41259 4341
21004 41284 3942
29578 40506 16363
24885 41381 2401
16679 41372 2543
38795 40840 11026
28149 40567 15390
30654 40743 12576
33517 40679 13600
27396 40334 19113
44533 36701 31375
44197 38520 9786
44204 38351 12324
44588 37096 23832
6569 50783 33797
4958 64060 29772
11120 31002 5052
1821 76280 22797
9857 11111 28037
45478 28159 23853
45469 27596 30542
45489 28911 14645
45491 29159 11169
35932 2321 28468
4149 70480 31739
9455 16886 29917
4055 77136 19012
4201 75875 36720
10952 40981 15106
9720 33353 5555
40565 39624 30085
41242 41093 2709
40676 41090 6041
9235 20666 4234
9288 42011 27284
10578 33338 4796
10292 18144 28439
8901 39784 36313
3000 77950 15864
3104 77881 16423
45659 31114 581
45667 31104 1150
2913 75451 33634
7812 53239 15109
6302 65845 8829
7145 58831 11921
8801 44223 31373
7618 55088 10663
7037 59591 13736
8488 48052 10580
7960 51622 21848
8213 50566 6006
8296 49502 12302
6731 62248 10856
7677 54713 9067
6910 60696 12551
8792 44145 33828
7858 52684 17896
8488 48123 9449
8862 45578 1875
8039 51049 20777
6882 60753 15309
7498 56387 5262
6589 63434 10222
7960 51388 25605
7740 54191 9297
8510 47690 13624
8241 48991 27539
6900 60535 16430
6439 64668 9965
8060 51637 8665
7169 58708 10797
8100 50720 17994
8580 46076 30278
8605 46472 20778
7652 54777 11206
8508 48062 7755
8947 43677 21184
8128 50109 24109
6984 60340 8629
8468 47874 16114
8810 45389 11588
6831 61253 13782
8876 43697 30078
8993 43111 24390
8704 45686 20587
7594 54874 17136
8089 51236 11395
8316 49539 9169
8945 44613 6652
7416 56144 19885
7922 52183 17824
7745 54063 10501
8794 45551 11067
8013 50997 24982
8846 44773 16797
7044 59437 15330
8473 47785 16877
8658 46431 14435
7881 52586 16623
7773 53080 22530
7857 52752 17130
8861 45090 9793
6745 62097 11515
8661 45866 23251
8048 51659 9936
8913 43805 23545
8175 50397 13463
8680 45989 18793
8253 48918 27029
8550 46774 22949
7858 52990 13148
8308 49860 5046
7974 51404 23490
8313 49308 13050
7103 59476 6921
7523 55465 16745
40487 38091 29267
40734 38352 23663
40553 37920 31608
41016 38679 16814
43276 39736 5127
42893 39909 7062
42563 38711 30231
45941 30197 34126
45990 31580 16275
46013 30952 28373
45847 29941 30046
10359 4440 28814
11487 2252 27604
544 76794 9461
173 77227 9050
7913 52375 1364
6039 67494 2311
7422 55559 1562
4683 72792 2643
24959 2936 28631
9385 42684 13534
9445 42701 11373
43582 39405 5947
43697 39495 2607
43814 39222 5031
6153 67062 8652
7345 57693 4274
7777 54268 3205
6715 62913 2290
5933 68870 8207
5263 74541 4057
5599 71764 5102
7094 59806 2934
5395 73528 3192
6838 61693 5984
6319 66053 3310
6455 64972 2988
6553 63887 7637
6517 64206 7291
8716 46779 1598
6559 64181 2242
6308 65982 5899
7053 60194 2003
7022 60213 5754
10250 40371 32626
5462 68791 38130
5765 63460 37796
6834 58222 37468
5538 65613 37931
6122 63185 37779
2692 77070 31220
2352 76726 37520
5300 72531 31414
5379 72427 22956
5473 72079 16246
5242 73181 28499
5405 72177 23551
5215 73121 32946
5478 71961 17580
5020 74479 36547
42391 37953 14543
42128 37254 28932
42460 36789 32284
25213 3063 27117
40774 3509 3805
481 78171 4990
420 77726 11304
40796 2137 27180
6068 67128 11709
5606 66693 17738
5820 66875 15254
11199 40041 28327
10562 29113 28416
6711 62078 16131
3671 74886 38512
4656 76762 13035
4580 76720 15446
4743 76343 17746
22966 3204 28398
13548 40618 627
5463 60753 17184
19774 1776 28443
41773 38158 18641
41831 38541 12022
41385 37484 32821
41818 37938 21766
4277 71368 14174
4526 71096 19002
8770 39839 32235
27608 1169 27808
9481 33964 29454
6975 59473 23617
7249 57088 26343
7631 54122 24449
6972 59635 21499
6873 59937 29347
7132 57900 28468
6771 61470 18114
7188 57950 20450
6673 62331 17063
6345 64344 27264
8108 49938 29512
7833 51945 33003
7299 56588 27962
7233 57399 23522
7676 53427 29655
8122 49803 30017
6439 63686 25593
8163 49389 31275
7109 58010 29762
6559 62552 28166
6427 63836 24722
6814 60899 21641
7027 58814 27529
8572 45913 33845
6206 66341 13305
6791 60855 25415
6431 64007 21485
6953 59929 19226
8206 48978 32261
6578 63062 17675
1511 75860 27917
5234 72769 36155
43433 1881 28393
9348 11616 29506
7750 41697 36433
158 77178 16288
46016 34494 2267
46074 32749 18715
45990 34877 1310
46047 34135 1966
9695 8846 28591
2889 76440 18045
1236 76693 35258
1133 76776 33316
8895 43156 36310
8012 50313 36067
7086 57789 36204
5372 71527 38110
5687 69154 35344
7645 53349 34824
7650 53169 37137
8294 48011 36368
7411 55117 36941
8652 45105 36540
6651 61436 34181
6580 61995 34433
7167 57280 33927
5949 67297 31268
6199 64947 36483
5493 70790 34353
7914 51126 35702
7159 57217 35887
6614 61801 33124
5700 68999 36169
5443 71028 36998
7334 55837 35358
8331 47748 35783
6167 65240 35857
9690 37223 30315
43916 39218 3397
44010 37938 22272
12312 40704 13460
9338 30641 30093
26529 1266 28129
20252 41402 2065
38602 41367 2627
35040 40350 18853
38843 41447 1337
38911 39905 25960
35229 41239 4662
25083 41146 6152
31987 41172 5741
26943 41430 1606
21148 40911 9898
37159 39758 28301
33170 40172 21701
30353 41288 3874
23230 41108 6760
27443 41083 7158
35170 39950 25249
39923 40673 13694
37785 40088 23044
23073 40876 10456
38224 39536 31848
37831 39835 27085
40288 39949 25265
34699 41274 4111
27717 40837 11078
33387 41468 1004
28636 40423 17688
39241 39584 31078
35382 39694 29323
27238 40484 16720
30679 40440 17424
36066 40962 9088
26488 41207 5182
34383 40293 19764
31689 40324 19273
39115 40657 13950
29765 40286 19874
38155 40720 12950
34738 40411 17891
35179 40528 16010
27818 40956 9187
37658 40592 14986
37071 40676 13656
39684 39632 30317
38608 41036 7907
14218 41360 2729
26673 40467 16994
23001 41327 3264
33167 41055 7604
30248 41321 3355
37977 40552 15634
38603 40685 13514
26215 41372 2546
22124 40865 10638
39798 41296 3755
34338 40158 21915
28736 40811 11502
37947 40392 18182
38310 40767 12200
34517 40872 10522
39343 40116 22598
34552 40059 23507
23801 41313 3484
32695 40334 19119
33343 40206 21156
30193 40456 17169
36196 39803 27588
25519 41390 2247
37922 40054 23575
29924 40997 8533
26021 40697 13321
24020 41179 5629
23978 41285 3922
34640 40336 19083
39963 39430 33552
28838 40719 12957
40344 40348 18888
28508 41131 6386
38328 40043 23764
29504 40476 16838
36908 41451 1277
38611 40277 20022
38763 39696 29302
31542 40989 8658
33747 40876 10463
39120 40484 16715
35071 40496 16521
39615 40065 23411
34480 41426 1680
22692 41093 6994
40413 41062 7492
31893 40358 18734
32254 41299 3714
43581 36444 17090
43533 37408 2772
43440 37382 5229
42874 719 26644
40630 1832 26695
46299 1366 3691
13822 2053 28145
9673 41577 23605
9548 42844 6467
19890 2809 28997
46065 32021 26891
46056 32211 21006
46049 32009 21890
6605 61732 35369
7757 52310 37041
6303 64207 34773
6411 63278 35671
6272 64283 37609
6816 60142 33549
5914 67392 34241
6713 61014 32829
6631 61436 36783
5832 68156 32650
7472 54715 35454
6158 65534 32329
7223 56676 36320
7526 54181 37064
5978 66707 36903
7564 54064 33973
6178 65070 37226
7084 57881 35054
6041 66367 34186
5824 68304 31239
6865 59588 36005
6891 59579 32849
5560 70125 36253
43472 36946 11490
43646 36911 8181
43348 37342 7932
1672 77552 23506
1866 78671 6239
9890 14045 29253
10387 19162 28936
5195 65101 2161
8037 46951 1024
4249 72065 2597
7193 49040 1155
7870 44454 867
15730 3768 27494
3609 76386 7091
3857 74417 6504
3743 74772 15569
3984 72822 15609
3615 76465 5156
3925 73307 15500
3709 74948 17173
3792 74576 12435
3909 73768 10145
3668 75753 9623
3613 74768 32458
3652 75529 15212
3870 73980 11907
3782 73686 27926
3779 73877 25278
3972 73292 9604
3606 75501 21626
2622 78627 6533
2540 78776 4349
34433 2048 26606
10957 41289 10159
9607 5514 5465
4034 71357 32588
45897 34019 22922
45902 34206 19554
45977 33987 17501
45831 35114 10310
11042 40280 25635
39310 1126 26557
46890 1813 27349
8390 13329 4856
2674 76571 17403
28901 1834 28978
35525 2215 4970
35742 2501 3031
21729 2358 26590
7755 41842 31371
7675 42059 32678
9180 13977 29755
148 77419 12278
148 77229 15305
2496 75542 34670
8580 13918 4140
6534 62598 30734
45824 33642 34329
45825 34754 16502
45950 33049 34472
45854 33827 29185
10777 25418 29392
10264 38292 7252
41575 40854 4609
40897 39878 24106
40778 39677 28003
40848 39135 36266
6454 63195 31461
44216 34452 28701
44114 34508 32306
44222 34168 32989
44214 35382 13935
4886 67134 10391
7790 41896 28463
9887 26869 4444
8011 42040 16834
8012 43019 1128
8901 16329 27540
12115 40681 14024
12019 39996 25250
941 76795 6356
45362 35965 20190
45420 36416 10421
45693 34065 35878
45614 34847 26878
9907 34923 5436
20284 2435 29022
31563 1190 26933
4966 64032 29132
6740 50089 22790
6727 50102 24178
6523 51705 24791
7378 45469 14005
6339 53310 23148
5169 63453 12245
7443 45497 5334
5684 59084 15502
7213 47484 3225
5776 58846 7340
5387 61912 8677
5091 64108 11828
7428 43909 32591
7257 45431 30416
5340 62369 7463
5335 62009 13800
4988 65095 9397
6645 51878 6508
6288 54435 11727
7636 43019 19984
5352 62066 10707
6541 52078 16671
7580 42904 28963
7210 46777 14979
7145 47931 4887
5247 62754 13328
6068 55654 20468
7633 43455 13308
7303 46163 12552
6959 48654 17404
6763 50785 8644
7060 48347 9286
6638 51159 18886
5828 57670 19461
6301 54395 10649
7492 45233 3147
7283 46207 14670
7506 43508 28874
7059 48555 6021
6875 48651 28215
6431 52591 22737
5834 57782 16830
7027 48886 4871
5118 64026 9677
7060 47994 14867
4818 66414 10256
6797 50419 10102
6240 54484 17123
6923 48509 24311
6022 56798 8301
7573 42909 29667
5209 63185 11293
7531 44034 17260
5062 64438 10239
7371 46200 3352
6985 48262 20346
6513 52196 18475
7497 44416 15585
6987 48730 12555
5393 61925 7735
6837 49505 19547
6150 55138 18274
6331 54000 13051
7083 46902 29369
7572 43545 19757
6829 49285 24092
7093 47409 19940
6747 50973 7767
7390 44677 25249
7597 43213 21846
44189 35039 20524
44156 34832 25317
43787 673 26634
885 75429 27183
44645 31352 27657
44647 31567 24786
44672 33467 2570
44668 33438 1772
7689 53105 33127
29480 1126 28267
8932 14436 29742
27235 1219 27554
44211 37815 20714
44177 37060 33528
44261 38029 16197
44388 37722 18271
46049 33237 2346
46023 31463 22346
46032 31442 25526
46022 32676 2902
28124 2648 3425
21323 1754 27099
40456 37869 32981
40805 38882 14790
40551 38249 26377
6193 66710 2261
4971 68584 2379
6462 60932 1900
6922 58369 1739
6697 61724 1949
9906 19126 3938
989 75047 35125
44577 31904 11137
44558 31964 8491
44480 31344 11633
44102 29462 6472
44103 28869 16336
44124 30015 3282
44098 28911 14202
44111 29757 4041
44550 30895 24864
44486 29943 34457
44617 30801 32164
3681 76272 37520
9518 21174 4091
39210 3541 3567
4565 71593 38305
5049 71851 38322
4728 69446 38171
4130 71696 38312
4524 72628 38370
42151 39605 19614
42460 39113 24743
41951 40302 10232
42469 39049 25698
9245 43045 12370
9191 43769 3047
